<?xml version="1.0" encoding="utf-8" standalone="no"?>
<!DOCTYPE svg PUBLIC "-//W3C//DTD SVG 1.1//EN"
  "http://www.w3.org/Graphics/SVG/1.1/DTD/svg11.dtd">
<svg xmlns:xlink="http://www.w3.org/1999/xlink" width="216pt" height="180pt" viewBox="0 0 216 180" xmlns="http://www.w3.org/2000/svg" version="1.1">
 <metadata>
  <rdf:RDF xmlns:dc="http://purl.org/dc/elements/1.1/" xmlns:cc="http://creativecommons.org/ns#" xmlns:rdf="http://www.w3.org/1999/02/22-rdf-syntax-ns#">
   <cc:Work>
    <dc:type rdf:resource="http://purl.org/dc/dcmitype/StillImage"/>
    <dc:date>2024-03-01T17:30:29.755845</dc:date>
    <dc:format>image/svg+xml</dc:format>
    <dc:creator>
     <cc:Agent>
      <dc:title>Matplotlib v3.7.0, https://matplotlib.org/</dc:title>
     </cc:Agent>
    </dc:creator>
   </cc:Work>
  </rdf:RDF>
 </metadata>
 <defs>
  <style type="text/css">*{stroke-linejoin: round; stroke-linecap: butt}</style>
 </defs>
 <g id="figure_1">
  <g id="patch_1">
   <path d="M 0 180 
L 216 180 
L 216 0 
L 0 0 
z
" style="fill: #ffffff"/>
  </g>
  <g id="patch_2">
   <path d="M 32.4 158.4 
L 205.2 158.4 
L 205.2 -1 
M 32.4 -1 
L 32.4 158.4 
" style="fill: none"/>
  </g>
  <g id="pane3d_1">
   <g id="patch_3">
    <path d="M 45.447592 115.793058 
L 102.511795 67.960711 
L 101.718802 -1 
M 101.688286 -1 
L 41.923528 42.613598 
" style="fill: none; opacity: 0.5; stroke: #f2f2f2; stroke-linejoin: miter"/>
   </g>
  </g>
  <g id="pane3d_2">
   <g id="patch_4">
    <path d="M 102.511795 67.960711 
L 194.079481 94.575822 
L 197.347209 23.216994 
L 101.805674 -1 
" style="fill: none; opacity: 0.5; stroke: #e6e6e6; stroke-linejoin: miter"/>
   </g>
  </g>
  <g id="pane3d_3">
   <g id="patch_5">
    <path d="M 45.447592 115.793058 
L 142.513811 147.494885 
L 194.079481 94.575822 
L 102.511795 67.960711 
" style="fill: none; opacity: 0.5; stroke: #ececec; stroke-linejoin: miter"/>
   </g>
  </g>
  <g id="axis3d_1">
   <g id="line2d_1">
    <path d="M 45.447592 115.793058 
L 142.513811 147.494885 
" style="fill: none; stroke: #ffffff; stroke-width: 0.8; stroke-linecap: round"/>
   </g>
   <g id="text_1">
    <!-- x -->
    <g style="fill: #808080" transform="translate(73.377004 169.416391) scale(0.1 -0.1)">
     <defs>
      <path id="DejaVuSans-78" d="M 3513 3500 
L 2247 1797 
L 3578 0 
L 2900 0 
L 1881 1375 
L 863 0 
L 184 0 
L 1544 1831 
L 300 3500 
L 978 3500 
L 1906 2253 
L 2834 3500 
L 3513 3500 
z
" transform="scale(0.015625)"/>
     </defs>
     <use xlink:href="#DejaVuSans-78"/>
    </g>
   </g>
   <g id="Line3DCollection_1">
    <path d="M 66.319222 122.609732 
L 122.269428 73.703475 
L 122.318281 4.199348 
" style="fill: none; stroke: #d3d3d3; stroke-width: 0.8"/>
    <path d="M 92.717108 131.231282 
L 147.20463 80.951154 
L 148.343045 10.795867 
" style="fill: none; stroke: #d3d3d3; stroke-width: 0.8"/>
    <path d="M 119.894949 140.107565 
L 172.814084 88.394811 
L 175.102687 17.578656 
" style="fill: none; stroke: #d3d3d3; stroke-width: 0.8"/>
   </g>
   <g id="xtick_1">
    <g id="line2d_2">
     <path d="M 121.135135 69.664865 
" clip-path="url(#p8fdf2940ed)" style="fill: none; stroke: #d3d3d3; stroke-width: 0.8; stroke-linecap: round"/>
    </g>
    <g id="line2d_3">
     <path d="M 66.806764 122.183571 
L 65.34203 123.463899 
" style="fill: none; stroke: #808080; stroke-width: 0.8; stroke-linecap: round"/>
    </g>
    <g id="text_2">
     <!-- −0.2 -->
     <g style="fill: #808080" transform="translate(46.657083 146.11081) scale(0.1 -0.1)">
      <defs>
       <path id="DejaVuSans-2212" d="M 678 2272 
L 4684 2272 
L 4684 1741 
L 678 1741 
L 678 2272 
z
" transform="scale(0.015625)"/>
       <path id="DejaVuSans-30" d="M 2034 4250 
Q 1547 4250 1301 3770 
Q 1056 3291 1056 2328 
Q 1056 1369 1301 889 
Q 1547 409 2034 409 
Q 2525 409 2770 889 
Q 3016 1369 3016 2328 
Q 3016 3291 2770 3770 
Q 2525 4250 2034 4250 
z
M 2034 4750 
Q 2819 4750 3233 4129 
Q 3647 3509 3647 2328 
Q 3647 1150 3233 529 
Q 2819 -91 2034 -91 
Q 1250 -91 836 529 
Q 422 1150 422 2328 
Q 422 3509 836 4129 
Q 1250 4750 2034 4750 
z
" transform="scale(0.015625)"/>
       <path id="DejaVuSans-2e" d="M 684 794 
L 1344 794 
L 1344 0 
L 684 0 
L 684 794 
z
" transform="scale(0.015625)"/>
       <path id="DejaVuSans-32" d="M 1228 531 
L 3431 531 
L 3431 0 
L 469 0 
L 469 531 
Q 828 903 1448 1529 
Q 2069 2156 2228 2338 
Q 2531 2678 2651 2914 
Q 2772 3150 2772 3378 
Q 2772 3750 2511 3984 
Q 2250 4219 1831 4219 
Q 1534 4219 1204 4116 
Q 875 4013 500 3803 
L 500 4441 
Q 881 4594 1212 4672 
Q 1544 4750 1819 4750 
Q 2544 4750 2975 4387 
Q 3406 4025 3406 3419 
Q 3406 3131 3298 2873 
Q 3191 2616 2906 2266 
Q 2828 2175 2409 1742 
Q 1991 1309 1228 531 
z
" transform="scale(0.015625)"/>
      </defs>
      <use xlink:href="#DejaVuSans-2212"/>
      <use xlink:href="#DejaVuSans-30" x="83.789062"/>
      <use xlink:href="#DejaVuSans-2e" x="147.412109"/>
      <use xlink:href="#DejaVuSans-32" x="179.199219"/>
     </g>
    </g>
   </g>
   <g id="xtick_2">
    <g id="line2d_4">
     <path d="M 121.135135 69.664865 
" clip-path="url(#p8fdf2940ed)" style="fill: none; stroke: #d3d3d3; stroke-width: 0.8; stroke-linecap: round"/>
    </g>
    <g id="line2d_5">
     <path d="M 93.19247 130.792627 
L 91.764298 132.110518 
" style="fill: none; stroke: #808080; stroke-width: 0.8; stroke-linecap: round"/>
    </g>
    <g id="text_3">
     <!-- 0.0 -->
     <g style="fill: #808080" transform="translate(77.28961 155.015828) scale(0.1 -0.1)">
      <use xlink:href="#DejaVuSans-30"/>
      <use xlink:href="#DejaVuSans-2e" x="63.623047"/>
      <use xlink:href="#DejaVuSans-30" x="95.410156"/>
     </g>
    </g>
   </g>
   <g id="xtick_3">
    <g id="line2d_6">
     <path d="M 121.135135 69.664865 
" clip-path="url(#p8fdf2940ed)" style="fill: none; stroke: #d3d3d3; stroke-width: 0.8; stroke-linecap: round"/>
    </g>
    <g id="line2d_7">
     <path d="M 120.357193 139.655858 
L 118.968401 141.01299 
" style="fill: none; stroke: #808080; stroke-width: 0.8; stroke-linecap: round"/>
    </g>
    <g id="text_4">
     <!-- 0.2 -->
     <g style="fill: #808080" transform="translate(104.518224 164.185521) scale(0.1 -0.1)">
      <use xlink:href="#DejaVuSans-30"/>
      <use xlink:href="#DejaVuSans-2e" x="63.623047"/>
      <use xlink:href="#DejaVuSans-32" x="95.410156"/>
     </g>
    </g>
   </g>
  </g>
  <g id="axis3d_2">
   <g id="line2d_8">
    <path d="M 194.079481 94.575822 
L 142.513811 147.494885 
" style="fill: none; stroke: #ffffff; stroke-width: 0.8; stroke-linecap: round"/>
   </g>
   <g id="text_5">
    <!-- y -->
    <g style="fill: #808080" transform="translate(193.479754 150.640625) scale(0.1 -0.1)">
     <defs>
      <path id="DejaVuSans-79" d="M 2059 -325 
Q 1816 -950 1584 -1140 
Q 1353 -1331 966 -1331 
L 506 -1331 
L 506 -850 
L 844 -850 
Q 1081 -850 1212 -737 
Q 1344 -625 1503 -206 
L 1606 56 
L 191 3500 
L 800 3500 
L 1894 763 
L 2988 3500 
L 3597 3500 
L 2059 -325 
z
" transform="scale(0.015625)"/>
     </defs>
     <use xlink:href="#DejaVuSans-79"/>
    </g>
   </g>
   <g id="Line3DCollection_2">
    <path d="M 56.260814 32.1509 
L 59.09064 104.357184 
L 154.883722 134.800313 
" style="fill: none; stroke: #d3d3d3; stroke-width: 0.8"/>
    <path d="M 73.149554 19.826266 
L 75.193469 90.859474 
L 169.450273 119.851448 
" style="fill: none; stroke: #d3d3d3; stroke-width: 0.8"/>
    <path d="M 89.228519 8.09257 
L 90.556335 77.982015 
L 183.313669 105.624194 
" style="fill: none; stroke: #d3d3d3; stroke-width: 0.8"/>
   </g>
   <g id="xtick_4">
    <g id="line2d_9">
     <path d="M 121.135135 69.664865 
" clip-path="url(#p8fdf2940ed)" style="fill: none; stroke: #d3d3d3; stroke-width: 0.8; stroke-linecap: round"/>
    </g>
    <g id="line2d_10">
     <path d="M 154.077073 134.543959 
L 156.499075 135.313674 
" style="fill: none; stroke: #808080; stroke-width: 0.8; stroke-linecap: round"/>
    </g>
    <g id="text_6">
     <!-- −0.2 -->
     <g style="fill: #808080" transform="translate(155.445214 155.620274) scale(0.1 -0.1)">
      <use xlink:href="#DejaVuSans-2212"/>
      <use xlink:href="#DejaVuSans-30" x="83.789062"/>
      <use xlink:href="#DejaVuSans-2e" x="147.412109"/>
      <use xlink:href="#DejaVuSans-32" x="179.199219"/>
     </g>
    </g>
   </g>
   <g id="xtick_5">
    <g id="line2d_11">
     <path d="M 121.135135 69.664865 
" clip-path="url(#p8fdf2940ed)" style="fill: none; stroke: #d3d3d3; stroke-width: 0.8; stroke-linecap: round"/>
    </g>
    <g id="line2d_12">
     <path d="M 168.657541 119.607616 
L 171.037707 120.339719 
" style="fill: none; stroke: #808080; stroke-width: 0.8; stroke-linecap: round"/>
    </g>
    <g id="text_7">
     <!-- 0.0 -->
     <g style="fill: #808080" transform="translate(173.900061 140.330863) scale(0.1 -0.1)">
      <use xlink:href="#DejaVuSans-30"/>
      <use xlink:href="#DejaVuSans-2e" x="63.623047"/>
      <use xlink:href="#DejaVuSans-30" x="95.410156"/>
     </g>
    </g>
   </g>
   <g id="xtick_6">
    <g id="line2d_13">
     <path d="M 121.135135 69.664865 
" clip-path="url(#p8fdf2940ed)" style="fill: none; stroke: #d3d3d3; stroke-width: 0.8; stroke-linecap: round"/>
    </g>
    <g id="line2d_14">
     <path d="M 182.534466 105.391987 
L 184.873964 106.08917 
" style="fill: none; stroke: #808080; stroke-width: 0.8; stroke-linecap: round"/>
    </g>
    <g id="text_8">
     <!-- 0.2 -->
     <g style="fill: #808080" transform="translate(187.47587 125.780139) scale(0.1 -0.1)">
      <use xlink:href="#DejaVuSans-30"/>
      <use xlink:href="#DejaVuSans-2e" x="63.623047"/>
      <use xlink:href="#DejaVuSans-32" x="95.410156"/>
     </g>
    </g>
   </g>
  </g>
  <g id="axis3d_3">
   <g id="line2d_15">
    <path d="M 45.447592 115.793058 
L 41.923528 42.613598 
" style="fill: none; stroke: #ffffff; stroke-width: 0.8; stroke-linecap: round"/>
   </g>
   <g id="text_9">
    <!-- z -->
    <g style="fill: #808080" transform="translate(7.546492 87.876762) rotate(-90) scale(0.1 -0.1)">
     <defs>
      <path id="DejaVuSans-7a" d="M 353 3500 
L 3084 3500 
L 3084 2975 
L 922 459 
L 3084 459 
L 3084 0 
L 275 0 
L 275 525 
L 2438 3041 
L 353 3041 
L 353 3500 
z
" transform="scale(0.015625)"/>
     </defs>
     <use xlink:href="#DejaVuSans-7a"/>
    </g>
   </g>
   <g id="Line3DCollection_3">
    <path d="M 194.142087 93.208666 
L 102.496566 66.636338 
L 45.380186 114.393337 
" style="fill: none; stroke: #d3d3d3; stroke-width: 0.8"/>
    <path d="M 195.67755 59.678075 
L 102.123442 34.188563 
L 43.725647 80.03577 
" style="fill: none; stroke: #d3d3d3; stroke-width: 0.8"/>
    <path d="M 197.278988 24.70677 
L 101.735075 0.415113 
L 41.997223 44.143908 
" style="fill: none; stroke: #d3d3d3; stroke-width: 0.8"/>
   </g>
   <g id="xtick_7">
    <g id="line2d_16">
     <path d="M 121.135135 69.664865 
" style="fill: none; stroke: #d3d3d3; stroke-width: 0.8; stroke-linecap: round"/>
    </g>
    <g id="line2d_17">
     <path d="M 44.643223 114.153211 
L 46.855933 114.874182 
" style="fill: none; stroke: #808080; stroke-width: 0.8; stroke-linecap: round"/>
    </g>
    <g id="text_10">
     <!-- 0.00 -->
     <g style="fill: #808080" transform="translate(14.428103 124.814169) scale(0.1 -0.1)">
      <use xlink:href="#DejaVuSans-30"/>
      <use xlink:href="#DejaVuSans-2e" x="63.623047"/>
      <use xlink:href="#DejaVuSans-30" x="95.410156"/>
      <use xlink:href="#DejaVuSans-30" x="159.033203"/>
     </g>
    </g>
   </g>
   <g id="xtick_8">
    <g id="line2d_18">
     <path d="M 121.135135 69.664865 
" style="fill: none; stroke: #d3d3d3; stroke-width: 0.8; stroke-linecap: round"/>
    </g>
    <g id="line2d_19">
     <path d="M 42.97329 79.804837 
L 45.232261 80.498218 
" style="fill: none; stroke: #808080; stroke-width: 0.8; stroke-linecap: round"/>
    </g>
    <g id="text_11">
     <!-- 0.05 -->
     <g style="fill: #808080" transform="translate(12.330389 90.34886) scale(0.1 -0.1)">
      <defs>
       <path id="DejaVuSans-35" d="M 691 4666 
L 3169 4666 
L 3169 4134 
L 1269 4134 
L 1269 2991 
Q 1406 3038 1543 3061 
Q 1681 3084 1819 3084 
Q 2600 3084 3056 2656 
Q 3513 2228 3513 1497 
Q 3513 744 3044 326 
Q 2575 -91 1722 -91 
Q 1428 -91 1123 -41 
Q 819 9 494 109 
L 494 744 
Q 775 591 1075 516 
Q 1375 441 1709 441 
Q 2250 441 2565 725 
Q 2881 1009 2881 1497 
Q 2881 1984 2565 2268 
Q 2250 2553 1709 2553 
Q 1456 2553 1204 2497 
Q 953 2441 691 2322 
L 691 4666 
z
" transform="scale(0.015625)"/>
      </defs>
      <use xlink:href="#DejaVuSans-30"/>
      <use xlink:href="#DejaVuSans-2e" x="63.623047"/>
      <use xlink:href="#DejaVuSans-30" x="95.410156"/>
      <use xlink:href="#DejaVuSans-35" x="159.033203"/>
     </g>
    </g>
   </g>
   <g id="xtick_9">
    <g id="line2d_20">
     <path d="M 121.135135 69.664865 
" style="fill: none; stroke: #d3d3d3; stroke-width: 0.8; stroke-linecap: round"/>
    </g>
    <g id="line2d_21">
     <path d="M 41.228816 43.923237 
L 43.536018 44.585818 
" style="fill: none; stroke: #808080; stroke-width: 0.8; stroke-linecap: round"/>
    </g>
    <g id="text_12">
     <!-- 0.10 -->
     <g style="fill: #808080" transform="translate(10.138525 54.336674) scale(0.1 -0.1)">
      <defs>
       <path id="DejaVuSans-31" d="M 794 531 
L 1825 531 
L 1825 4091 
L 703 3866 
L 703 4441 
L 1819 4666 
L 2450 4666 
L 2450 531 
L 3481 531 
L 3481 0 
L 794 0 
L 794 531 
z
" transform="scale(0.015625)"/>
      </defs>
      <use xlink:href="#DejaVuSans-30"/>
      <use xlink:href="#DejaVuSans-2e" x="63.623047"/>
      <use xlink:href="#DejaVuSans-31" x="95.410156"/>
      <use xlink:href="#DejaVuSans-30" x="159.033203"/>
     </g>
    </g>
   </g>
  </g>
  <g id="axes_1">
   <g id="line2d_22">
    <path d="M 121.285595 34.280176 
L 121.24055 88.572166 
L 121.031464 99.486119 
L 121.005724 102.955707 
L 121.210693 103.459362 
L 121.413398 103.542941 
L 121.046269 103.434207 
L 120.790795 103.576035 
L 120.837003 103.732495 
L 121.14092 103.834486 
L 121.543617 103.746014 
L 121.651891 103.547888 
L 121.487349 103.372662 
L 121.066205 103.288454 
L 120.62701 103.398169 
L 120.456733 103.624792 
L 120.570612 103.840869 
L 120.916035 103.993605 
L 121.474386 104.005603 
L 121.950578 103.809615 
L 122.096953 103.524829 
L 121.962233 103.273722 
L 121.602231 103.077727 
L 120.974909 102.992523 
L 120.332815 103.116647 
L 119.959292 103.367106 
L 119.855519 103.697723 
L 120.0068 103.967663 
L 120.47656 104.237953 
L 121.171169 104.360492 
L 121.93311 104.286285 
L 122.570611 104.012564 
L 122.868997 103.681236 
L 122.906462 103.298869 
L 122.655615 102.923708 
L 122.134565 102.617333 
L 121.407388 102.434792 
L 120.577206 102.415112 
L 119.772516 102.57367 
L 119.128405 102.897729 
L 118.765095 103.346073 
L 118.729465 103.725182 
L 118.916793 104.103728 
L 119.323835 104.445518 
L 120.163838 104.783831 
L 121.238383 104.925105 
L 122.387468 104.82667 
L 123.425159 104.482461 
L 124.019647 104.082301 
L 124.382849 103.591434 
L 124.46728 103.048811 
L 124.248717 102.500304 
L 123.729615 101.994798 
L 122.940229 101.579861 
L 121.937291 101.297355 
L 120.800307 101.179364 
L 119.625721 101.244774 
L 118.51931 101.496803 
L 117.58733 101.921715 
L 116.926993 102.488915 
L 116.677588 102.923982 
L 116.60141 103.385366 
L 116.709058 103.854408 
L 117.004028 104.311247 
L 117.482198 104.735589 
L 118.514697 105.267961 
L 119.858325 105.621809 
L 121.406227 105.748966 
L 123.025121 105.619626 
L 124.566683 105.22645 
L 125.881198 104.586621 
L 126.562991 104.042529 
L 127.048296 103.424447 
L 127.309775 102.753711 
L 127.328414 102.054498 
L 127.094536 101.352897 
L 126.608436 100.675897 
L 125.880636 100.050319 
L 124.931733 99.501746 
L 123.791872 99.053485 
L 122.499856 98.725594 
L 121.101922 98.534011 
L 119.650237 98.489805 
L 118.201129 98.598575 
L 116.813119 98.860023 
L 115.544789 99.267702 
L 114.452539 99.80898 
L 113.588298 100.465213 
L 112.997244 101.212164 
L 112.715636 102.020654 
L 112.768828 102.857455 
L 113.169583 103.68643 
L 113.916787 104.469874 
L 114.994675 105.170036 
L 116.372667 105.750752 
L 118.005887 106.179139 
L 119.836394 106.427233 
L 121.795146 106.473497 
L 123.804613 106.304103 
L 125.781952 105.913882 
L 127.642577 105.306891 
L 129.303941 104.496532 
L 130.689308 103.505219 
L 131.731317 102.363604 
L 132.375135 101.109401 
L 132.534662 100.453431 
L 132.581041 99.785883 
L 132.511983 99.11275 
L 132.326342 98.440143 
L 131.606538 97.121201 
L 130.435748 95.878052 
L 128.8464 94.757744 
L 126.888267 93.803551 
L 124.626904 93.053286 
L 122.14158 92.537812 
L 119.522762 92.279752 
L 116.869243 92.292443 
L 114.28493 92.579128 
L 111.875372 93.132421 
L 109.744044 93.934064 
L 107.988448 94.955005 
L 106.696101 96.155843 
L 106.247275 96.808781 
L 105.940517 97.487679 
L 105.78219 98.185152 
L 105.777309 98.89341 
L 105.929441 99.604325 
L 106.240618 100.309499 
L 106.711258 101.000352 
L 107.340099 101.668206 
L 108.124158 102.304374 
L 109.058701 102.900265 
L 110.137237 103.447478 
L 112.691671 104.363861 
L 115.701624 104.994129 
L 119.056711 105.288535 
L 122.626013 105.209935 
L 126.263515 104.736216 
L 129.814698 103.861996 
L 131.509103 103.277812 
L 133.123869 102.599439 
L 134.640598 101.83111 
L 136.041755 100.978084 
L 137.310885 100.046581 
L 138.432812 99.043718 
L 139.393814 97.977427 
L 140.181789 96.85636 
L 140.786387 95.689795 
L 141.199124 94.487527 
L 141.41347 93.259762 
L 141.424911 92.017001 
L 141.230987 90.769933 
L 140.831309 89.529318 
L 140.22755 88.305881 
L 139.423417 87.110205 
L 138.424604 85.952629 
L 137.238732 84.843154 
L 135.875265 83.791349 
L 134.345421 82.806268 
L 132.66207 81.896376 
L 130.83962 81.069471 
L 128.893896 80.332623 
L 126.842014 79.692112 
L 124.702249 79.153377 
L 122.493892 78.720967 
L 120.237109 78.398496 
L 117.952792 78.18861 
L 115.66241 78.092949 
L 113.387844 78.112123 
L 111.15123 78.245687 
L 108.974788 78.49212 
L 106.880647 78.848818 
L 104.890666 79.312081 
L 103.026242 79.877115 
L 101.308123 80.538037 
L 99.7562 81.287888 
L 98.389301 82.118658 
L 97.224985 83.021317 
L 96.27932 83.98586 
L 95.566669 85.001362 
L 95.099476 86.056048 
L 94.88805 87.137375 
L 94.940366 88.232132 
L 95.26187 89.326548 
L 95.855308 90.406427 
L 96.720571 91.457286 
L 97.854568 92.46451 
L 99.25114 93.413528 
L 100.900998 94.289985 
L 102.791718 95.079935 
L 104.907768 95.770033 
L 107.230603 96.347727 
L 109.738794 96.801454 
L 112.408225 97.12082 
L 115.212331 97.29678 
L 118.122395 97.321793 
L 121.107885 97.189962 
L 124.136838 96.89715 
L 127.176266 96.441067 
L 130.192603 95.821331 
L 133.152154 95.039492 
L 136.021559 94.099031 
L 138.768249 93.005318 
L 141.360889 91.765546 
L 143.769795 90.388632 
L 145.967327 88.885092 
L 147.92823 87.26689 
L 149.629943 85.547274 
L 151.052847 83.740588 
L 152.180471 81.862084 
L 152.999636 79.927716 
L 153.500554 77.953946 
L 153.67687 75.957536 
L 153.525662 73.955362 
L 153.047396 71.964223 
L 152.245843 70.000672 
L 151.127962 68.08085 
L 149.703758 66.220343 
L 147.986118 64.434048 
L 145.990628 62.736054 
L 143.735378 61.139539 
L 141.240766 59.656682 
L 138.529286 58.298584 
L 135.625323 57.075203 
L 132.554949 55.995295 
L 129.345712 55.066372 
L 126.026438 54.294655 
L 122.627028 53.685048 
L 119.17826 53.2411 
L 115.711588 52.964988 
L 112.258948 52.857489 
L 108.852546 52.917963 
L 105.52466 53.144339 
L 102.307419 53.533099 
L 99.232577 54.07927 
L 96.331284 54.776423 
L 93.633831 55.616668 
L 91.16939 56.59067 
L 88.965737 57.687663 
L 87.048959 58.895484 
L 85.443152 60.200613 
L 84.170103 61.588236 
L 83.248971 63.042324 
L 82.695959 64.545729 
L 82.523994 66.080308 
L 82.742415 67.627067 
L 83.35668 69.166333 
L 84.368104 70.677948 
L 85.77363 72.141488 
L 87.565651 73.536506 
L 89.731895 74.842794 
L 92.25537 76.04066 
L 95.114391 77.111219 
L 98.282695 78.036683 
L 101.729638 78.800654 
L 105.420487 79.38841 
L 109.316805 79.787163 
L 113.376913 79.986304 
L 117.556444 79.977606 
L 121.808955 79.755392 
L 126.086595 79.316659 
L 130.340816 78.661145 
L 134.523096 77.791352 
L 138.585673 76.71251 
L 142.48225 75.432494 
L 146.168675 73.961687 
L 149.603566 72.312799 
L 152.748861 70.500653 
L 155.570304 68.541931 
L 158.037836 66.454901 
L 160.1259 64.259128 
L 161.813651 61.975177 
L 163.085079 59.624314 
L 163.929049 57.228213 
L 164.339259 54.808681 
L 164.314127 52.387397 
L 163.856628 49.985667 
L 162.974076 47.624216 
L 161.677864 45.322993 
L 159.983185 43.101007 
L 157.908729 40.976188 
L 155.476375 38.965273 
L 152.710875 37.08371 
L 149.639549 35.345587 
L 146.291981 33.763575 
L 142.699734 32.348887 
L 138.896074 31.111248 
L 134.91571 30.058871 
L 130.794553 29.19845 
L 126.569477 28.535144 
L 122.278103 28.072573 
L 117.958587 27.812815 
L 113.649408 27.756395 
L 109.389164 27.902286 
L 105.216364 28.247898 
L 101.169214 28.789072 
L 97.285389 29.520078 
L 93.601799 30.433603 
L 90.154331 31.520756 
L 86.977578 32.771069 
L 84.104545 34.172506 
L 81.566334 35.711488 
L 79.391809 37.372927 
L 77.607242 39.140277 
L 76.235949 40.995605 
L 75.297905 42.919683 
L 74.809371 44.892114 
L 74.782513 46.891473 
L 75.225048 48.895486 
L 76.13991 50.88124 
L 77.524959 52.82542 
L 79.372745 54.704576 
L 81.670339 56.49542 
L 84.399243 58.175135 
L 87.535392 59.721713 
L 91.049263 61.114294 
L 94.906088 62.333508 
L 99.066182 63.361809 
L 103.485385 64.18379 
L 108.115615 64.786472 
L 112.905509 65.159553 
L 117.801168 65.295615 
L 122.746951 65.190269 
L 127.686331 64.842254 
L 132.562773 64.253458 
L 137.320603 63.42889 
L 141.90587 62.376578 
L 146.267148 61.107415 
L 150.356274 59.634948 
L 154.129008 57.975125 
L 157.545586 56.146004 
L 160.571166 54.167428 
L 163.176168 52.060696 
L 165.336493 49.848213 
L 167.033634 47.55315 
L 168.25469 45.199114 
L 168.99228 42.809829 
L 169.244376 40.408847 
L 169.014078 38.01928 
L 168.309321 35.663569 
L 167.142553 33.363272 
L 165.530379 31.138898 
L 163.493193 29.009762 
L 161.0548 26.993864 
L 158.242049 25.107807 
L 155.084469 23.366728 
L 151.613925 21.784247 
L 147.864292 20.37244 
L 143.871151 19.14182 
L 139.671505 18.101325 
L 135.30352 17.258321 
L 130.806282 16.618598 
L 126.219572 16.186378 
L 121.583655 15.964319 
L 116.939077 15.953513 
L 112.326473 16.153494 
L 107.786362 16.56223 
L 103.358958 17.176121 
L 99.083956 17.989997 
L 95.000312 18.997105 
L 91.146008 20.189109 
L 87.557799 21.556085 
L 84.270929 23.086525 
L 81.318836 24.767346 
L 78.732826 26.583915 
L 76.541726 28.520084 
L 74.771516 30.558246 
L 73.444953 32.67941 
L 72.581173 34.863303 
L 72.195307 37.088497 
L 72.298089 39.332572 
L 72.895498 41.572302 
L 73.988425 43.783881 
L 75.572389 45.943175 
L 77.637316 48.026009 
L 80.16739 50.008478 
L 83.140993 51.867277 
L 86.530753 53.580051 
L 90.303696 55.125749 
L 94.421514 56.484973 
L 98.84096 57.640326 
L 103.514354 58.576723 
L 108.390197 59.281681 
L 113.413897 59.745558 
L 118.528558 59.961748 
L 123.675853 59.926815 
L 128.796921 59.64056 
L 133.833286 59.106028 
L 138.727766 58.329445 
L 143.42534 57.320094 
L 147.873966 56.090127 
L 152.025308 54.654333 
L 155.835373 53.029855 
L 159.265037 51.235873 
L 162.280458 49.293268 
L 164.853361 47.224271 
L 166.961215 45.052106 
L 168.587294 42.800641 
L 169.720632 40.494051 
L 170.355895 38.15651 
L 170.493163 35.811893 
L 170.137662 33.483527 
L 169.299435 31.193956 
L 167.992988 28.964751 
L 166.236908 26.816345 
L 164.053472 24.767904 
L 161.468257 22.837219 
L 158.509759 21.040629 
L 155.209027 19.392966 
L 151.599313 17.907513 
L 147.715748 16.595984 
L 143.595042 15.468512 
L 139.275204 14.533643 
L 134.795289 13.798344 
L 130.195159 13.268001 
L 125.51527 12.946433 
L 120.79646 12.835891 
L 116.079762 12.937067 
L 111.406204 13.249091 
L 106.816622 13.769534 
L 102.35146 14.494397 
L 98.050567 15.418112 
L 93.952975 16.53353 
L 90.096662 17.831918 
L 86.518294 19.302955 
L 83.252942 20.934737 
L 80.333782 22.713788 
L 77.791762 24.625084 
L 75.655252 26.652091 
L 73.949675 28.776827 
L 72.697118 30.979938 
L 71.91594 33.240808 
L 71.620382 35.53769 
L 71.820178 37.847875 
L 72.520199 40.147887 
L 73.720128 42.413714 
L 75.414186 44.621072 
L 77.59092 46.745694 
L 80.233079 48.763651 
L 83.317569 50.651685 
L 86.815524 52.387567 
L 90.692488 53.950451 
L 94.908711 55.321226 
L 99.419569 56.482857 
L 104.176102 57.4207 
L 109.125662 58.12278 
L 114.212651 58.580024 
L 119.379348 58.786447 
L 124.566787 58.739266 
L 129.715676 58.438966 
L 134.767317 57.889281 
L 139.664518 57.097124 
L 144.352459 56.072446 
L 148.77949 54.828036 
L 152.897852 53.379277 
L 156.66429 51.743848 
L 160.040558 49.941411 
L 162.9938 47.993257 
L 165.496822 45.921957 
L 167.52823 43.751002 
L 169.072472 41.504456 
L 170.119769 39.206624 
L 170.665964 36.881737 
L 170.712286 34.553674 
L 170.265067 32.245705 
L 169.335401 29.980272 
L 167.938779 27.778802 
L 166.094699 25.661549 
L 163.826276 23.647466 
L 161.159846 21.754114 
L 158.124586 19.99758 
L 154.75215 18.392431 
L 151.076324 16.951678 
L 147.132703 15.686753 
L 142.958395 14.607507 
L 138.591747 13.722199 
L 134.072098 13.03751 
L 129.439538 12.558542 
L 124.734706 12.288827 
L 119.998576 12.230333 
L 115.272271 12.383469 
L 110.59687 12.747082 
L 106.013215 13.318459 
L 101.561716 14.093318 
L 97.282143 15.065807 
L 93.213401 16.22849 
L 89.393293 17.572349 
L 85.85826 19.086776 
L 82.643089 20.759583 
L 79.780612 22.577011 
L 77.301371 24.523758 
L 75.233258 26.583023 
L 73.601149 28.736563 
L 72.42651 30.964784 
L 71.727006 33.246846 
L 71.516108 35.560807 
L 71.802709 37.883791 
L 72.590775 40.192194 
L 73.879025 42.461919 
L 75.660663 44.668643 
L 77.923191 46.788117 
L 80.648283 48.796484 
L 83.811774 50.670623 
L 87.383742 52.388502 
L 91.328709 53.929537 
L 95.605967 55.274941 
L 100.170014 56.408063 
L 104.971113 57.314696 
L 109.955961 57.983349 
L 115.068443 58.405473 
L 120.250473 58.575634 
L 125.44288 58.491619 
L 130.586329 58.154489 
L 135.622251 57.568549 
L 140.493738 56.741266 
L 145.146408 55.683114 
L 149.52919 54.407372 
L 153.595026 52.92986 
L 157.301465 51.268651 
L 160.61115 49.443732 
L 163.492179 47.476665 
L 165.918348 45.390229 
L 167.869281 43.208058 
L 169.330441 40.954303 
L 170.293051 38.653296 
L 170.753922 36.329244 
L 170.715214 34.005954 
L 170.184134 31.706583 
L 169.172591 29.453424 
L 167.696826 27.267722 
L 165.777022 25.169526 
L 163.436906 23.177563 
L 160.703363 21.309152 
L 157.606052 19.580128 
L 154.177047 18.004798 
L 150.450492 16.595906 
L 146.46229 15.364616 
L 142.249803 14.320508 
L 137.851589 13.471575 
L 133.307149 12.824225 
L 128.656702 12.383293 
L 123.940974 12.152046 
L 119.200993 12.132186 
L 114.477903 12.323854 
L 109.812766 12.725633 
L 105.246376 13.334543 
L 100.81906 14.146036 
L 96.570463 15.153989 
L 92.539331 16.350699 
L 88.76326 17.726877 
L 85.278436 19.271645 
L 82.119342 20.972547 
L 79.318451 22.815558 
L 76.905881 24.785118 
L 74.909046 26.864175 
L 73.352271 29.034249 
L 72.256407 31.275524 
L 71.638434 33.566959 
L 71.511073 35.88644 
L 71.882405 38.21095 
L 72.755522 40.51678 
L 74.128223 42.779772 
L 75.992751 44.975592 
L 78.335617 47.080029 
L 81.137499 49.069324 
L 84.373235 50.920512 
L 88.011935 52.611778 
L 92.017198 54.122814 
L 96.347454 55.435172 
L 100.956429 56.53259 
L 105.793718 57.4013 
L 110.805471 58.030296 
L 115.935164 58.411544 
L 121.124448 58.540149 
L 126.314046 58.414454 
L 131.444674 58.03607 
L 136.457968 57.409849 
L 141.297378 56.543781 
L 145.909019 55.448833 
L 150.242444 54.138737 
L 154.251328 52.62972 
L 157.894045 50.940204 
L 161.134135 49.090474 
L 163.940644 47.102325 
L 166.288347 44.998708 
L 168.157856 42.803375 
L 169.535619 40.540532 
L 170.413821 38.234514 
L 170.790198 35.909483 
L 170.667791 33.589156 
L 170.05463 31.29656 
L 168.963389 29.053824 
L 167.411008 26.882005 
L 165.418302 24.800935 
L 163.009564 22.829114 
L 160.212179 20.983615 
L 157.056243 19.280018 
L 153.574209 17.732369 
L 149.800545 16.353147 
L 145.771423 15.15325 
L 141.524431 14.141991 
L 137.098304 13.327093 
L 132.532686 12.714701 
L 127.867898 12.309385 
L 123.144733 12.114147 
L 118.404255 12.130426 
L 113.68761 12.358101 
L 109.03583 12.795492 
L 104.489647 13.439354 
L 100.08929 14.284875 
L 95.874269 15.325666 
L 91.883156 16.553757 
L 88.15333 17.959591 
L 84.720711 19.532025 
L 81.619468 21.258335 
L 78.881702 23.124237 
L 76.537102 25.113914 
L 74.612589 27.210069 
L 73.13193 29.393989 
L 72.115352 31.645643 
L 71.579147 33.9438 
L 71.535278 36.266177 
L 71.99101 38.589626 
L 72.948563 40.890344 
L 74.404816 43.144123 
L 76.351056 45.326627 
L 78.772817 47.413698 
L 81.649787 49.381684 
L 84.955828 51.20779 
L 88.659102 52.870428 
L 92.722308 54.349579 
L 97.103047 55.627138 
L 101.754302 56.687245 
L 106.625036 57.516579 
L 111.660889 58.104619 
L 116.804967 58.443851 
L 121.998699 58.529918 
L 127.182737 58.361715 
L 132.297888 57.941401 
L 137.286027 57.274367 
L 142.090995 56.369116 
L 142.090995 56.369116 
" clip-path="url(#p8fdf2940ed)" style="fill: none; stroke: #ff7f0e; stroke-opacity: 0.8; stroke-width: 1.5; stroke-linecap: round"/>
   </g>
  </g>
 </g>
 <defs>
  <clipPath id="p8fdf2940ed">
   <rect x="32.4" y="-14.4" width="172.8" height="172.8"/>
  </clipPath>
 </defs>
</svg>
