<?xml version="1.0" encoding="utf-8" standalone="no"?>
<!DOCTYPE svg PUBLIC "-//W3C//DTD SVG 1.1//EN"
  "http://www.w3.org/Graphics/SVG/1.1/DTD/svg11.dtd">
<svg xmlns:xlink="http://www.w3.org/1999/xlink" width="216pt" height="180pt" viewBox="0 0 216 180" xmlns="http://www.w3.org/2000/svg" version="1.1">
 <metadata>
  <rdf:RDF xmlns:dc="http://purl.org/dc/elements/1.1/" xmlns:cc="http://creativecommons.org/ns#" xmlns:rdf="http://www.w3.org/1999/02/22-rdf-syntax-ns#">
   <cc:Work>
    <dc:type rdf:resource="http://purl.org/dc/dcmitype/StillImage"/>
    <dc:date>2024-03-01T17:30:30.082183</dc:date>
    <dc:format>image/svg+xml</dc:format>
    <dc:creator>
     <cc:Agent>
      <dc:title>Matplotlib v3.7.0, https://matplotlib.org/</dc:title>
     </cc:Agent>
    </dc:creator>
   </cc:Work>
  </rdf:RDF>
 </metadata>
 <defs>
  <style type="text/css">*{stroke-linejoin: round; stroke-linecap: butt}</style>
 </defs>
 <g id="figure_1">
  <g id="patch_1">
   <path d="M 0 180 
L 216 180 
L 216 0 
L 0 0 
z
" style="fill: #ffffff"/>
  </g>
  <g id="patch_2">
   <path d="M 32.4 158.4 
L 205.2 158.4 
L 205.2 -1 
M 32.4 -1 
L 32.4 158.4 
" style="fill: none"/>
  </g>
  <g id="pane3d_1">
   <g id="patch_3">
    <path d="M 45.447592 115.793058 
L 102.511795 67.960711 
L 101.718802 -1 
M 101.688286 -1 
L 41.923528 42.613598 
" style="fill: none; opacity: 0.5; stroke: #f2f2f2; stroke-linejoin: miter"/>
   </g>
  </g>
  <g id="pane3d_2">
   <g id="patch_4">
    <path d="M 102.511795 67.960711 
L 194.079481 94.575822 
L 197.347209 23.216994 
L 101.805674 -1 
" style="fill: none; opacity: 0.5; stroke: #e6e6e6; stroke-linejoin: miter"/>
   </g>
  </g>
  <g id="pane3d_3">
   <g id="patch_5">
    <path d="M 45.447592 115.793058 
L 142.513811 147.494885 
L 194.079481 94.575822 
L 102.511795 67.960711 
" style="fill: none; opacity: 0.5; stroke: #ececec; stroke-linejoin: miter"/>
   </g>
  </g>
  <g id="axis3d_1">
   <g id="line2d_1">
    <path d="M 45.447592 115.793058 
L 142.513811 147.494885 
" style="fill: none; stroke: #ffffff; stroke-width: 0.8; stroke-linecap: round"/>
   </g>
   <g id="text_1">
    <!-- x -->
    <g style="fill: #808080" transform="translate(73.377004 169.416391) scale(0.1 -0.1)">
     <defs>
      <path id="DejaVuSans-78" d="M 3513 3500 
L 2247 1797 
L 3578 0 
L 2900 0 
L 1881 1375 
L 863 0 
L 184 0 
L 1544 1831 
L 300 3500 
L 978 3500 
L 1906 2253 
L 2834 3500 
L 3513 3500 
z
" transform="scale(0.015625)"/>
     </defs>
     <use xlink:href="#DejaVuSans-78"/>
    </g>
   </g>
   <g id="Line3DCollection_1">
    <path d="M 68.428674 123.298679 
L 124.264201 74.283277 
L 124.399116 4.726779 
" style="fill: none; stroke: #d3d3d3; stroke-width: 0.8"/>
    <path d="M 93.114338 131.361017 
L 147.579392 81.060082 
L 148.734411 10.895067 
" style="fill: none; stroke: #d3d3d3; stroke-width: 0.8"/>
    <path d="M 118.480604 139.645639 
L 171.482918 88.007893 
L 173.710956 17.225893 
" style="fill: none; stroke: #d3d3d3; stroke-width: 0.8"/>
   </g>
   <g id="xtick_1">
    <g id="line2d_2">
     <path d="M 121.135135 69.664865 
" clip-path="url(#p0fc2fde935)" style="fill: none; stroke: #d3d3d3; stroke-width: 0.8; stroke-linecap: round"/>
    </g>
    <g id="line2d_3">
     <path d="M 68.915262 122.871526 
L 67.453389 124.154836 
" style="fill: none; stroke: #808080; stroke-width: 0.8; stroke-linecap: round"/>
    </g>
    <g id="text_2">
     <!-- −10 -->
     <g style="fill: #808080" transform="translate(50.359013 146.822354) scale(0.1 -0.1)">
      <defs>
       <path id="DejaVuSans-2212" d="M 678 2272 
L 4684 2272 
L 4684 1741 
L 678 1741 
L 678 2272 
z
" transform="scale(0.015625)"/>
       <path id="DejaVuSans-31" d="M 794 531 
L 1825 531 
L 1825 4091 
L 703 3866 
L 703 4441 
L 1819 4666 
L 2450 4666 
L 2450 531 
L 3481 531 
L 3481 0 
L 794 0 
L 794 531 
z
" transform="scale(0.015625)"/>
       <path id="DejaVuSans-30" d="M 2034 4250 
Q 1547 4250 1301 3770 
Q 1056 3291 1056 2328 
Q 1056 1369 1301 889 
Q 1547 409 2034 409 
Q 2525 409 2770 889 
Q 3016 1369 3016 2328 
Q 3016 3291 2770 3770 
Q 2525 4250 2034 4250 
z
M 2034 4750 
Q 2819 4750 3233 4129 
Q 3647 3509 3647 2328 
Q 3647 1150 3233 529 
Q 2819 -91 2034 -91 
Q 1250 -91 836 529 
Q 422 1150 422 2328 
Q 422 3509 836 4129 
Q 1250 4750 2034 4750 
z
" transform="scale(0.015625)"/>
      </defs>
      <use xlink:href="#DejaVuSans-2212"/>
      <use xlink:href="#DejaVuSans-31" x="83.789062"/>
      <use xlink:href="#DejaVuSans-30" x="147.412109"/>
     </g>
    </g>
   </g>
   <g id="xtick_2">
    <g id="line2d_4">
     <path d="M 121.135135 69.664865 
" clip-path="url(#p0fc2fde935)" style="fill: none; stroke: #d3d3d3; stroke-width: 0.8; stroke-linecap: round"/>
    </g>
    <g id="line2d_5">
     <path d="M 93.589512 130.922172 
L 92.161904 132.240633 
" style="fill: none; stroke: #808080; stroke-width: 0.8; stroke-linecap: round"/>
    </g>
    <g id="text_3">
     <!-- 0 -->
     <g style="fill: #808080" transform="translate(82.45786 155.14984) scale(0.1 -0.1)">
      <use xlink:href="#DejaVuSans-30"/>
     </g>
    </g>
   </g>
   <g id="xtick_3">
    <g id="line2d_6">
     <path d="M 121.135135 69.664865 
" clip-path="url(#p0fc2fde935)" style="fill: none; stroke: #d3d3d3; stroke-width: 0.8; stroke-linecap: round"/>
    </g>
    <g id="line2d_7">
     <path d="M 118.943545 139.194617 
L 117.55266 140.549693 
" style="fill: none; stroke: #808080; stroke-width: 0.8; stroke-linecap: round"/>
    </g>
    <g id="text_4">
     <!-- 10 -->
     <g style="fill: #808080" transform="translate(104.690183 163.708288) scale(0.1 -0.1)">
      <use xlink:href="#DejaVuSans-31"/>
      <use xlink:href="#DejaVuSans-30" x="63.623047"/>
     </g>
    </g>
   </g>
  </g>
  <g id="axis3d_2">
   <g id="line2d_8">
    <path d="M 194.079481 94.575822 
L 142.513811 147.494885 
" style="fill: none; stroke: #ffffff; stroke-width: 0.8; stroke-linecap: round"/>
   </g>
   <g id="text_5">
    <!-- y -->
    <g style="fill: #808080" transform="translate(193.479754 150.640625) scale(0.1 -0.1)">
     <defs>
      <path id="DejaVuSans-79" d="M 2059 -325 
Q 1816 -950 1584 -1140 
Q 1353 -1331 966 -1331 
L 506 -1331 
L 506 -850 
L 844 -850 
Q 1081 -850 1212 -737 
Q 1344 -625 1503 -206 
L 1606 56 
L 191 3500 
L 800 3500 
L 1894 763 
L 2988 3500 
L 3597 3500 
L 2059 -325 
z
" transform="scale(0.015625)"/>
     </defs>
     <use xlink:href="#DejaVuSans-79"/>
    </g>
   </g>
   <g id="Line3DCollection_2">
    <path d="M 49.226944 37.283898 
L 52.394263 109.97022 
L 148.815504 141.027798 
" style="fill: none; stroke: #d3d3d3; stroke-width: 0.8"/>
    <path d="M 61.674486 28.200248 
L 64.24863 100.033654 
L 159.553572 130.007898 
" style="fill: none; stroke: #d3d3d3; stroke-width: 0.8"/>
    <path d="M 73.683759 19.436428 
L 75.703378 90.432058 
L 169.910942 119.378689 
" style="fill: none; stroke: #d3d3d3; stroke-width: 0.8"/>
    <path d="M 85.277507 10.975839 
L 86.778377 81.148774 
L 179.907506 109.119755 
" style="fill: none; stroke: #d3d3d3; stroke-width: 0.8"/>
    <path d="M 96.476931 2.80301 
L 97.492204 72.168232 
L 189.561794 99.21208 
" style="fill: none; stroke: #d3d3d3; stroke-width: 0.8"/>
   </g>
   <g id="xtick_4">
    <g id="line2d_9">
     <path d="M 121.135135 69.664865 
" clip-path="url(#p0fc2fde935)" style="fill: none; stroke: #d3d3d3; stroke-width: 0.8; stroke-linecap: round"/>
    </g>
    <g id="line2d_10">
     <path d="M 148.003147 140.766135 
L 150.442308 141.551796 
" style="fill: none; stroke: #808080; stroke-width: 0.8; stroke-linecap: round"/>
    </g>
    <g id="text_6">
     <!-- −20 -->
     <g style="fill: #808080" transform="translate(151.09149 161.989828) scale(0.1 -0.1)">
      <defs>
       <path id="DejaVuSans-32" d="M 1228 531 
L 3431 531 
L 3431 0 
L 469 0 
L 469 531 
Q 828 903 1448 1529 
Q 2069 2156 2228 2338 
Q 2531 2678 2651 2914 
Q 2772 3150 2772 3378 
Q 2772 3750 2511 3984 
Q 2250 4219 1831 4219 
Q 1534 4219 1204 4116 
Q 875 4013 500 3803 
L 500 4441 
Q 881 4594 1212 4672 
Q 1544 4750 1819 4750 
Q 2544 4750 2975 4387 
Q 3406 4025 3406 3419 
Q 3406 3131 3298 2873 
Q 3191 2616 2906 2266 
Q 2828 2175 2409 1742 
Q 1991 1309 1228 531 
z
" transform="scale(0.015625)"/>
      </defs>
      <use xlink:href="#DejaVuSans-2212"/>
      <use xlink:href="#DejaVuSans-32" x="83.789062"/>
      <use xlink:href="#DejaVuSans-30" x="147.412109"/>
     </g>
    </g>
   </g>
   <g id="xtick_5">
    <g id="line2d_11">
     <path d="M 121.135135 69.664865 
" clip-path="url(#p0fc2fde935)" style="fill: none; stroke: #d3d3d3; stroke-width: 0.8; stroke-linecap: round"/>
    </g>
    <g id="line2d_12">
     <path d="M 158.751352 129.755592 
L 161.160042 130.513147 
" style="fill: none; stroke: #808080; stroke-width: 0.8; stroke-linecap: round"/>
    </g>
    <g id="text_7">
     <!-- −10 -->
     <g style="fill: #808080" transform="translate(161.607524 150.718609) scale(0.1 -0.1)">
      <use xlink:href="#DejaVuSans-2212"/>
      <use xlink:href="#DejaVuSans-31" x="83.789062"/>
      <use xlink:href="#DejaVuSans-30" x="147.412109"/>
     </g>
    </g>
   </g>
   <g id="xtick_6">
    <g id="line2d_13">
     <path d="M 121.135135 69.664865 
" clip-path="url(#p0fc2fde935)" style="fill: none; stroke: #d3d3d3; stroke-width: 0.8; stroke-linecap: round"/>
    </g>
    <g id="line2d_14">
     <path d="M 169.118655 119.135247 
L 171.497483 119.866176 
" style="fill: none; stroke: #808080; stroke-width: 0.8; stroke-linecap: round"/>
    </g>
    <g id="text_8">
     <!-- 0 -->
     <g style="fill: #808080" transform="translate(179.121496 139.847345) scale(0.1 -0.1)">
      <use xlink:href="#DejaVuSans-30"/>
     </g>
    </g>
   </g>
   <g id="xtick_7">
    <g id="line2d_15">
     <path d="M 121.135135 69.664865 
" clip-path="url(#p0fc2fde935)" style="fill: none; stroke: #d3d3d3; stroke-width: 0.8; stroke-linecap: round"/>
    </g>
    <g id="line2d_16">
     <path d="M 179.124953 108.884718 
L 181.47452 109.590402 
" style="fill: none; stroke: #808080; stroke-width: 0.8; stroke-linecap: round"/>
    </g>
    <g id="text_9">
     <!-- 10 -->
     <g style="fill: #808080" transform="translate(185.729482 129.355118) scale(0.1 -0.1)">
      <use xlink:href="#DejaVuSans-31"/>
      <use xlink:href="#DejaVuSans-30" x="63.623047"/>
     </g>
    </g>
   </g>
   <g id="xtick_8">
    <g id="line2d_17">
     <path d="M 121.135135 69.664865 
" clip-path="url(#p0fc2fde935)" style="fill: none; stroke: #d3d3d3; stroke-width: 0.8; stroke-linecap: round"/>
    </g>
    <g id="line2d_18">
     <path d="M 188.78878 98.985021 
L 191.109677 99.666744 
" style="fill: none; stroke: #808080; stroke-width: 0.8; stroke-linecap: round"/>
    </g>
    <g id="text_10">
     <!-- 20 -->
     <g style="fill: #808080" transform="translate(195.183255 119.222444) scale(0.1 -0.1)">
      <use xlink:href="#DejaVuSans-32"/>
      <use xlink:href="#DejaVuSans-30" x="63.623047"/>
     </g>
    </g>
   </g>
  </g>
  <g id="axis3d_3">
   <g id="line2d_19">
    <path d="M 45.447592 115.793058 
L 41.923528 42.613598 
" style="fill: none; stroke: #ffffff; stroke-width: 0.8; stroke-linecap: round"/>
   </g>
   <g id="text_11">
    <!-- z -->
    <g style="fill: #808080" transform="translate(11.116875 87.398422) rotate(-90) scale(0.1 -0.1)">
     <defs>
      <path id="DejaVuSans-7a" d="M 353 3500 
L 3084 3500 
L 3084 2975 
L 922 459 
L 3084 459 
L 3084 0 
L 275 0 
L 275 525 
L 2438 3041 
L 353 3041 
L 353 3500 
z
" transform="scale(0.015625)"/>
     </defs>
     <use xlink:href="#DejaVuSans-7a"/>
    </g>
   </g>
   <g id="Line3DCollection_3">
    <path d="M 194.299442 89.772443 
L 102.458294 63.308119 
L 45.210749 110.874867 
" style="fill: none; stroke: #d3d3d3; stroke-width: 0.8"/>
    <path d="M 195.179386 70.556713 
L 102.244417 44.708836 
L 44.262732 91.188676 
" style="fill: none; stroke: #d3d3d3; stroke-width: 0.8"/>
    <path d="M 196.080753 50.873142 
L 102.025585 25.67864 
L 43.290741 71.004651 
" style="fill: none; stroke: #d3d3d3; stroke-width: 0.8"/>
    <path d="M 197.004337 30.704435 
L 101.801624 6.202383 
L 42.293855 50.303668 
" style="fill: none; stroke: #d3d3d3; stroke-width: 0.8"/>
   </g>
   <g id="xtick_9">
    <g id="line2d_20">
     <path d="M 121.135135 69.664865 
" style="fill: none; stroke: #d3d3d3; stroke-width: 0.8; stroke-linecap: round"/>
    </g>
    <g id="line2d_21">
     <path d="M 44.472208 110.635655 
L 46.689659 111.353885 
" style="fill: none; stroke: #808080; stroke-width: 0.8; stroke-linecap: round"/>
    </g>
    <g id="text_12">
     <!-- 10 -->
     <g style="fill: #808080" transform="translate(18.983615 121.285) scale(0.1 -0.1)">
      <use xlink:href="#DejaVuSans-31"/>
      <use xlink:href="#DejaVuSans-30" x="63.623047"/>
     </g>
    </g>
   </g>
   <g id="xtick_10">
    <g id="line2d_22">
     <path d="M 121.135135 69.664865 
" style="fill: none; stroke: #d3d3d3; stroke-width: 0.8; stroke-linecap: round"/>
    </g>
    <g id="line2d_23">
     <path d="M 43.515368 90.954691 
L 45.759332 91.657231 
" style="fill: none; stroke: #808080; stroke-width: 0.8; stroke-linecap: round"/>
    </g>
    <g id="text_13">
     <!-- 20 -->
     <g style="fill: #808080" transform="translate(17.781695 101.537538) scale(0.1 -0.1)">
      <use xlink:href="#DejaVuSans-32"/>
      <use xlink:href="#DejaVuSans-30" x="63.623047"/>
     </g>
    </g>
   </g>
   <g id="xtick_11">
    <g id="line2d_24">
     <path d="M 121.135135 69.664865 
" style="fill: none; stroke: #d3d3d3; stroke-width: 0.8; stroke-linecap: round"/>
    </g>
    <g id="line2d_25">
     <path d="M 42.534342 70.776237 
L 44.805458 71.462059 
" style="fill: none; stroke: #808080; stroke-width: 0.8; stroke-linecap: round"/>
    </g>
    <g id="text_14">
     <!-- 30 -->
     <g style="fill: #808080" transform="translate(16.54923 81.288213) scale(0.1 -0.1)">
      <defs>
       <path id="DejaVuSans-33" d="M 2597 2516 
Q 3050 2419 3304 2112 
Q 3559 1806 3559 1356 
Q 3559 666 3084 287 
Q 2609 -91 1734 -91 
Q 1441 -91 1130 -33 
Q 819 25 488 141 
L 488 750 
Q 750 597 1062 519 
Q 1375 441 1716 441 
Q 2309 441 2620 675 
Q 2931 909 2931 1356 
Q 2931 1769 2642 2001 
Q 2353 2234 1838 2234 
L 1294 2234 
L 1294 2753 
L 1863 2753 
Q 2328 2753 2575 2939 
Q 2822 3125 2822 3475 
Q 2822 3834 2567 4026 
Q 2313 4219 1838 4219 
Q 1578 4219 1281 4162 
Q 984 4106 628 3988 
L 628 4550 
Q 988 4650 1302 4700 
Q 1616 4750 1894 4750 
Q 2613 4750 3031 4423 
Q 3450 4097 3450 3541 
Q 3450 3153 3228 2886 
Q 3006 2619 2597 2516 
z
" transform="scale(0.015625)"/>
      </defs>
      <use xlink:href="#DejaVuSans-33"/>
      <use xlink:href="#DejaVuSans-30" x="63.623047"/>
     </g>
    </g>
   </g>
   <g id="xtick_12">
    <g id="line2d_26">
     <path d="M 121.135135 69.664865 
" style="fill: none; stroke: #d3d3d3; stroke-width: 0.8; stroke-linecap: round"/>
    </g>
    <g id="line2d_27">
     <path d="M 41.5282 50.081188 
L 43.827132 50.749199 
" style="fill: none; stroke: #808080; stroke-width: 0.8; stroke-linecap: round"/>
    </g>
    <g id="text_15">
     <!-- 40 -->
     <g style="fill: #808080" transform="translate(15.285039 60.517648) scale(0.1 -0.1)">
      <defs>
       <path id="DejaVuSans-34" d="M 2419 4116 
L 825 1625 
L 2419 1625 
L 2419 4116 
z
M 2253 4666 
L 3047 4666 
L 3047 1625 
L 3713 1625 
L 3713 1100 
L 3047 1100 
L 3047 0 
L 2419 0 
L 2419 1100 
L 313 1100 
L 313 1709 
L 2253 4666 
z
" transform="scale(0.015625)"/>
      </defs>
      <use xlink:href="#DejaVuSans-34"/>
      <use xlink:href="#DejaVuSans-30" x="63.623047"/>
     </g>
    </g>
   </g>
  </g>
  <g id="axes_1">
   <g id="line2d_28">
    <path d="M 157.013899 97.365666 
L 158.923953 94.258205 
L 163.542439 87.670725 
L 168.883004 80.331767 
L 171.666446 76.328069 
L 174.418626 72.109204 
L 177.043042 67.711338 
L 179.430778 63.199815 
L 181.46366 58.671227 
L 183.020088 54.252287 
L 183.98362 50.09421 
L 184.253825 46.361734 
L 183.758141 43.217004 
L 182.462744 40.800092 
L 180.380031 39.209505 
L 177.570562 38.487 
L 174.13835 38.610704 
L 170.219997 39.498643 
L 165.96976 41.021991 
L 161.543631 43.024657 
L 157.085431 45.344432 
L 152.716977 47.831234 
L 144.600681 52.83464 
L 137.635909 57.396206 
L 129.522857 63.009269 
L 125.501288 66.031319 
L 122.368535 68.64909 
L 119.928307 70.997702 
L 118.003469 73.175024 
L 116.442796 75.242192 
L 114.51654 78.201963 
L 111.64851 82.805494 
L 109.757859 85.325602 
L 108.314649 86.871076 
L 106.670954 88.281037 
L 104.783441 89.523002 
L 102.611789 90.553299 
L 100.120705 91.312931 
L 98.746741 91.567471 
L 97.284316 91.722901 
L 95.732911 91.765495 
L 94.093761 91.679812 
L 92.370322 91.448716 
L 90.56881 91.053499 
L 88.698802 90.474168 
L 86.773868 89.689936 
L 84.812212 88.679989 
L 82.837247 87.424561 
L 80.878033 85.906384 
L 78.969469 84.112508 
L 77.152112 82.036455 
L 75.471489 79.680614 
L 73.976788 77.058653 
L 72.71884 74.197664 
L 71.747414 71.139647 
L 71.107943 67.941897 
L 70.837956 64.675923 
L 70.963597 61.42464 
L 71.496744 58.27787 
L 72.433179 55.326487 
L 73.752177 52.655875 
L 75.417677 50.339581 
L 77.380882 48.434075 
L 79.583949 46.975351 
L 81.964216 45.977764 
L 84.458391 45.435079 
L 87.006221 45.323336 
L 89.553308 45.604903 
L 92.052937 46.233015 
L 94.466949 47.156177 
L 96.765824 48.32197 
L 98.92817 49.680029 
L 100.939837 51.184099 
L 102.792839 52.793262 
L 104.484237 54.472457 
L 106.015063 56.192474 
L 107.389347 57.929611 
L 109.694527 61.384457 
L 111.463536 64.734248 
L 112.767864 67.924278 
L 113.676511 70.930857 
L 114.250318 73.748958 
L 114.539287 76.38395 
L 114.581726 78.846317 
L 114.404427 81.148373 
L 114.023336 83.302175 
L 113.444374 85.318126 
L 112.664233 87.203877 
L 111.671041 88.963246 
L 110.444927 90.594911 
L 108.958562 92.090638 
L 107.177899 93.432772 
L 105.063446 94.590725 
L 102.572635 95.516176 
L 101.172957 95.87026 
L 99.664149 96.136845 
L 98.042473 96.301929 
L 96.305463 96.34906 
L 94.452451 96.259131 
L 92.485222 96.010248 
L 90.408783 95.577725 
L 88.232266 94.934265 
L 85.969938 94.050434 
L 83.642278 92.895516 
L 81.27704 91.438875 
L 78.910194 89.65193 
L 76.58656 87.510818 
L 74.35992 84.999756 
L 72.292342 82.114971 
L 70.452471 78.868907 
L 68.912564 75.294192 
L 67.744243 71.446632 
L 67.013124 67.406371 
L 66.772816 63.276401 
L 67.059057 59.177867 
L 67.884948 55.242199 
L 69.238237 51.600782 
L 71.081311 48.373597 
L 73.354065 45.65867 
L 75.979224 43.524129 
L 78.869206 42.004111 
L 81.933376 41.098955 
L 85.084603 40.779155 
L 88.244357 40.991963 
L 91.345985 41.669195 
L 94.3362 42.734935 
L 97.175107 44.112163 
L 99.835175 45.727791 
L 102.29961 47.515991 
L 104.560472 49.419966 
L 106.616802 51.392494 
L 108.472908 53.395608 
L 110.136889 55.399729 
L 111.619416 57.382544 
L 114.090051 61.22412 
L 115.989874 64.843031 
L 117.422568 68.210864 
L 118.481894 71.326751 
L 119.248037 74.203931 
L 119.987737 78.115298 
L 120.379042 81.60499 
L 120.531926 84.739714 
L 120.475539 88.464738 
L 120.184104 91.768845 
L 119.660944 94.737241 
L 119.08695 96.784811 
L 118.311821 98.706501 
L 117.272905 100.522832 
L 116.391532 101.682902 
L 115.320689 102.805094 
L 114.018982 103.888239 
L 112.436112 104.925825 
L 110.511623 105.902714 
L 108.174049 106.790019 
L 105.341118 107.537285 
L 101.92229 108.060863 
L 99.964216 108.199603 
L 97.825889 108.227408 
L 95.4982 108.116262 
L 92.974627 107.83211 
L 90.252609 107.334098 
L 87.335316 106.57401 
L 84.233863 105.496088 
L 80.96998 104.037535 
L 77.579056 102.130093 
L 74.113368 99.703167 
L 70.645107 96.689032 
L 67.268566 93.030557 
L 64.100602 88.691589 
L 61.27824 83.669539 
L 58.952348 78.00877 
L 57.276652 71.812178 
L 56.392331 65.247373 
L 56.409872 58.543571 
L 57.391384 51.976484 
L 59.337617 45.841345 
L 62.183556 40.418071 
L 65.804558 35.93591 
L 70.032045 32.545966 
L 74.674963 30.307924 
L 79.541916 29.192899 
L 84.459442 29.099672 
L 89.283814 29.878534 
L 93.905992 31.356439 
L 98.251001 33.35861 
L 102.273756 35.724069 
L 105.953241 38.314672 
L 109.286509 41.018647 
L 112.283324 43.750182 
L 114.961801 46.44667 
L 117.345103 49.06486 
L 121.330412 53.966101 
L 124.451262 58.350499 
L 126.908308 62.212328 
L 129.729053 67.107084 
L 133.24661 73.247366 
L 134.533858 75.099417 
L 135.864974 76.635801 
L 137.297627 77.861376 
L 138.880413 78.77033 
L 140.654282 79.346324 
L 142.652688 79.562813 
L 144.900192 79.383895 
L 147.409208 78.766261 
L 150.174569 77.663127 
L 153.165805 76.031341 
L 156.317489 73.842918 
L 159.519017 71.101875 
L 161.089518 69.539357 
L 162.606833 67.865666 
L 164.042167 66.099995 
L 165.364083 64.267314 
L 166.539354 62.398445 
L 167.534151 60.5297 
L 168.315562 58.701994 
L 168.853367 56.959363 
L 169.121971 55.346912 
L 169.102319 53.908304 
L 168.783592 52.682984 
L 168.164473 51.703448 
L 167.25378 50.992884 
L 166.070347 50.563525 
L 164.642123 50.415959 
L 163.004565 50.539498 
L 161.198494 50.913566 
L 159.267687 51.50987 
L 157.256443 52.29505 
L 153.15973 54.289523 
L 149.200937 56.625814 
L 145.589139 59.087534 
L 142.446403 61.532373 
L 139.822617 63.884164 
L 137.716973 66.112804 
L 136.098376 68.213751 
L 134.921402 70.192664 
L 134.137309 72.056088 
L 133.700878 73.80689 
L 133.57422 75.442663 
L 133.728534 76.955598 
L 134.144598 78.332842 
L 134.812499 79.55679 
L 135.730915 80.605047 
L 136.906081 81.449997 
L 138.350439 82.058028 
L 140.080803 82.388545 
L 142.115783 82.393043 
L 144.47201 82.014673 
L 147.158629 81.189048 
L 150.169413 79.847445 
L 153.472038 77.924034 
L 156.994547 75.369156 
L 158.801231 73.848831 
L 160.610384 72.170364 
L 162.395537 70.342742 
L 164.125638 68.381111 
L 165.76529 66.307709 
L 167.275373 64.152528 
L 168.614112 61.953551 
L 169.738656 59.756367 
L 170.607134 57.613 
L 171.181133 55.579855 
L 171.428409 53.714779 
L 171.32559 52.073421 
L 170.860532 50.705199 
L 170.034014 49.649384 
L 168.860444 48.931828 
L 167.367431 48.56288 
L 165.594184 48.536836 
L 163.588925 48.83303 
L 161.405649 49.418389 
L 159.100626 50.251023 
L 156.729091 51.284264 
L 151.986162 53.764942 
L 147.510297 56.523553 
L 143.516876 59.318143 
L 140.111365 62.011041 
L 137.316555 64.545834 
L 135.102915 66.915341 
L 133.413732 69.13473 
L 132.182781 71.2242 
L 131.34536 73.200166 
L 130.844416 75.072086 
L 130.63345 76.842313 
L 130.677441 78.507134 
L 130.952693 80.057964 
L 131.446153 81.482181 
L 132.154552 82.763436 
L 133.083509 83.881386 
L 134.246665 84.810915 
L 135.66476 85.520876 
L 137.364495 85.972464 
L 139.376849 86.117335 
L 141.734405 85.895774 
L 144.46699 85.235447 
L 147.59473 84.051777 
L 151.117452 82.251687 
L 153.017683 81.091307 
L 154.999463 79.74341 
L 157.049488 78.199903 
L 159.149542 76.455895 
L 161.275777 74.511043 
L 163.398113 72.371094 
L 165.479857 70.049552 
L 167.477673 67.569324 
L 169.34206 64.964142 
L 171.018498 62.279478 
L 172.449371 59.572624 
L 173.576739 56.91159 
L 174.345885 54.372548 
L 174.709443 52.035729 
L 174.631689 49.979906 
L 174.092479 48.275992 
L 173.090207 46.98054 
L 171.643207 46.130191 
L 169.789239 45.738058 
L 167.582995 45.792783 
L 165.091919 46.260498 
L 162.390975 47.089305 
L 159.557105 48.215455 
L 156.664165 49.570087 
L 153.778875 51.085468 
L 148.247603 54.361199 
L 143.284022 57.669163 
L 139.043238 60.802868 
L 135.555914 63.68877 
L 132.776031 66.332314 
L 130.619501 68.772526 
L 128.990021 71.053805 
L 127.794196 73.2126 
L 126.949219 75.273556 
L 126.385953 77.250414 
L 126.049383 79.14864 
L 125.897735 80.968167 
L 125.954242 83.541884 
L 126.302261 85.911773 
L 126.924215 88.054108 
L 127.498348 89.341833 
L 128.214417 90.50486 
L 129.091632 91.529585 
L 130.155507 92.398324 
L 131.438162 93.087669 
L 132.97864 93.566388 
L 134.823033 93.792746 
L 137.024049 93.711231 
L 139.639434 93.248741 
L 142.728282 92.310665 
L 146.343755 90.777947 
L 148.360927 89.744676 
L 150.520086 88.507494 
L 152.81906 87.046074 
L 155.251251 85.340359 
L 157.804357 83.37177 
L 160.458941 81.124905 
L 163.186903 78.58975 
L 165.94998 75.76447 
L 168.698459 72.658695 
L 171.370357 69.297127 
L 173.891447 65.723113 
L 176.176487 62.001584 
L 178.132093 58.220568 
L 179.661513 54.490331 
L 180.67137 50.939243 
L 181.079998 47.705808 
L 180.826531 44.92701 
L 179.87935 42.724117 
L 178.24228 41.188155 
L 175.956963 40.367942 
L 173.10052 40.263503 
L 169.778557 40.826637 
L 166.114729 41.968679 
L 162.238807 43.573649 
L 158.275418 45.513769 
L 154.335176 47.664131 
L 146.866433 52.173985 
L 140.303741 56.482641 
L 134.822003 60.313558 
L 130.399123 63.632061 
L 126.910819 66.52137 
L 124.195108 69.09551 
L 122.08824 71.455377 
L 120.441543 73.674236 
L 119.127393 75.798216 
L 117.55263 78.857041 
L 113.934941 86.357898 
L 112.872698 88.0602 
L 111.659715 89.676565 
L 110.253977 91.193823 
L 108.61185 92.593329 
L 106.687425 93.847913 
L 104.432904 94.917697 
L 101.800602 95.744586 
L 100.32895 96.042134 
L 98.747451 96.245369 
L 97.052804 96.338672 
L 95.243325 96.303887 
L 93.319537 96.120145 
L 91.284883 95.763793 
L 89.146577 95.208494 
L 86.916556 94.425564 
L 84.61254 93.384652 
L 82.259103 92.054883 
L 79.888677 90.406562 
L 77.542331 88.41355 
L 75.270121 86.056334 
L 73.130768 83.325748 
L 71.1904 80.227102 
L 69.520115 76.784317 
L 68.192263 73.043398 
L 67.275499 69.074455 
L 66.828976 64.971372 
L 66.896325 60.848467 
L 67.500337 56.833892 
L 68.639304 53.060192 
L 70.285861 49.653184 
L 72.388684 46.720876 
L 74.876883 44.344271 
L 77.666355 42.571616 
L 80.666996 41.41684 
L 83.789649 40.862071 
L 86.951857 40.863295 
L 90.081896 41.357829 
L 93.120967 42.272184 
L 96.023781 43.529212 
L 98.757914 45.053822 
L 101.302378 46.776996 
L 103.645812 48.638166 
L 105.784587 50.586223 
L 107.721017 52.579507 
L 109.461778 54.585137 
L 111.01659 56.577963 
L 113.616273 60.456153 
L 115.623531 64.123181 
L 117.143081 67.542549 
L 118.271027 70.708973 
L 119.090378 73.633519 
L 119.669787 76.334774 
L 120.205489 80.0143 
L 120.456333 83.308836 
L 120.489474 87.208254 
L 120.267859 90.651874 
L 119.815843 93.732662 
L 119.306361 95.849972 
L 118.61335 97.830808 
L 117.682644 99.697403 
L 116.893045 100.887257 
L 115.934112 102.037666 
L 114.769041 103.14951 
L 113.35289 104.219602 
L 111.631295 105.238167 
L 109.539342 106.184867 
L 107.001084 107.022655 
L 103.93056 107.688495 
L 100.235979 108.079823 
L 98.126698 108.125187 
L 95.829881 108.035835 
L 93.338656 107.77871 
L 90.649893 107.314095 
L 87.765907 106.595022 
L 84.696596 105.567033 
L 81.462036 104.168571 
L 78.09545 102.332383 
L 74.646413 99.988389 
L 71.183899 97.068542 
L 67.798615 93.514134 
L 64.603741 89.285741 
L 61.733013 84.375462 
L 59.335041 78.820192 
L 57.563067 72.71355 
L 56.560255 66.212982 
L 56.441919 59.53818 
L 57.277689 52.957883 
L 59.077706 46.764678 
L 61.786833 41.241221 
L 65.289198 36.624752 
L 69.422514 33.078239 
L 73.998804 30.674882 
L 78.826564 29.398611 
L 83.729677 29.15847 
L 88.560179 29.811516 
L 93.204173 31.187904 
L 97.581956 33.113073 
L 101.644306 35.424148 
L 105.366869 37.979881 
L 108.744169 40.664923 
L 111.78416 43.389944 
L 114.503737 46.089181 
L 116.925288 48.716736 
L 120.977004 53.648598 
L 124.150154 58.070746 
L 126.646067 61.971613 
L 129.503094 66.922376 
L 133.035459 73.147353 
L 134.316564 75.031859 
L 135.6362 76.601102 
L 137.052864 77.860837 
L 138.615927 78.806158 
L 140.367177 79.421608 
L 142.341119 79.68143 
L 144.563759 79.55028 
L 147.049559 78.984966 
L 149.796226 77.938053 
L 152.77718 76.364498 
L 155.931945 74.232647 
L 159.155682 71.54056 
L 160.746309 69.997127 
L 162.290645 68.337306 
L 163.76039 66.578977 
L 165.124383 64.745805 
L 166.349378 62.86742 
L 167.401161 60.979176 
L 168.246008 59.121403 
L 168.85243 57.338051 
L 169.193116 55.674757 
L 169.246904 54.176381 
L 169.000583 52.884226 
L 168.450318 51.833208 
L 167.602467 51.049326 
L 166.473664 50.547772 
L 165.090088 50.331972 
L 163.48599 50.3937 
L 161.701624 50.714255 
L 159.780829 51.266517 
L 157.768536 52.017566 
L 155.708463 52.931494 
L 151.602745 55.104927 
L 147.728995 57.5288 
L 144.263338 60.012748 
L 141.297981 62.44115 
L 138.860224 64.758343 
L 136.934567 66.946865 
L 135.481865 69.00826 
L 134.453492 70.949946 
L 133.800682 72.777882 
L 133.480092 74.493366 
L 133.456703 76.092186 
L 133.705009 77.564817 
L 134.209146 78.896826 
L 134.962421 80.069083 
L 135.966471 81.057586 
L 137.230135 81.832888 
L 138.767987 82.359203 
L 140.598319 82.593363 
L 142.740258 82.483936 
L 145.209523 81.97103 
L 148.012218 80.987636 
L 151.136043 79.463841 
L 154.538505 77.335723 
L 156.319169 76.030393 
L 158.132484 74.561016 
L 159.958084 72.929618 
L 161.771076 71.142996 
L 163.541884 69.213789 
L 165.236367 67.161491 
L 166.816273 65.013267 
L 168.240142 62.804394 
L 169.464697 60.578154 
L 170.446753 58.384979 
L 171.145596 56.28072 
L 171.525679 54.323987 
L 171.559428 52.57268 
L 171.229832 51.079966 
L 170.532481 49.890152 
L 169.476702 49.03502 
L 168.085583 48.531164 
L 166.394778 48.378807 
L 164.45021 48.562289 
L 162.304954 49.052173 
L 160.015712 49.808591 
L 157.639306 50.78529 
L 155.229594 51.933757 
L 150.497267 54.561873 
L 146.11924 57.377459 
L 142.275058 60.170476 
L 139.040243 62.832142 
L 136.416645 65.325934 
L 134.362248 67.65545 
L 132.814301 69.840003 
L 131.704857 71.900108 
L 130.970093 73.850778 
L 130.555234 75.699623 
L 130.416673 77.447313 
L 130.522434 79.088825 
L 130.851772 80.614607 
L 131.394381 82.011306 
L 132.149497 83.261925 
L 133.125026 84.345423 
L 134.336699 85.235795 
L 135.807169 85.900707 
L 137.564841 86.299754 
L 139.642116 86.382507 
L 142.072514 86.086641 
L 144.885971 85.336784 
L 148.101325 84.04519 
L 151.71489 82.116199 
L 153.659785 80.88317 
L 155.684155 79.457391 
L 157.77314 77.831348 
L 159.906629 76.00117 
L 162.058549 73.968078 
L 164.196298 71.740023 
L 166.280431 69.333421 
L 168.264775 66.774811 
L 170.097101 64.1022 
L 171.720529 61.365795 
L 173.07578 58.627751 
L 174.104285 55.960593 
L 174.752068 53.444086 
L 174.9741 51.160489 
L 174.738684 49.188499 
L 174.031249 47.596481 
L 172.856936 46.43596 
L 171.241412 45.736435 
L 169.229629 45.502522 
L 166.882599 45.714014 
L 164.272617 46.328897 
L 161.477649 47.288731 
L 158.575708 48.525392 
L 155.639955 49.967974 
L 149.914727 53.208115 
L 144.685233 56.575531 
L 140.157624 59.808403 
L 136.395705 62.7968 
L 133.370613 65.528823 
L 131.004208 68.039195 
L 129.199436 70.37476 
L 127.858685 72.576775 
L 126.893487 74.674698 
L 126.228735 76.686149 
L 125.803706 78.619375 
L 125.571415 80.476188 
L 125.511485 83.11284 
L 125.736149 85.556991 
L 126.21497 87.788629 
L 126.952582 89.784159 
L 127.604318 90.968934 
L 128.40389 92.024043 
L 129.375025 92.934332 
L 130.547805 93.679658 
L 131.959122 94.232984 
L 133.653048 94.55794 
L 135.680856 94.605746 
L 138.100223 94.311476 
L 140.972837 93.589858 
L 144.359168 92.33131 
L 148.30851 90.399857 
L 150.502611 89.132675 
L 152.841732 87.636339 
L 155.31954 85.889689 
L 157.923828 83.872972 
L 160.635002 81.569593 
L 163.424453 78.968444 
L 166.252945 76.066837 
L 169.069212 72.873995 
L 171.809045 69.414919 
L 174.395244 65.734233 
L 176.738874 61.899395 
L 178.742259 58.002395 
L 180.304039 54.158911 
L 181.326349 50.503928 
L 181.72374 47.183189 
L 181.432908 44.340638 
L 180.421725 42.103109 
L 178.695791 40.56472 
L 176.300801 39.774142 
L 173.319788 39.727833 
L 169.865354 40.371127 
L 166.068279 41.607089 
L 162.064689 43.311046 
L 157.984143 45.347397 
L 153.940455 47.585182 
L 146.310514 52.230101 
L 139.64313 56.617201 
L 134.099482 60.481224 
L 129.642079 63.80398 
L 126.133862 66.682451 
L 123.40357 69.239557 
L 121.281107 71.58093 
L 119.613531 73.7818 
L 118.270271 75.888674 
L 116.631764 78.922382 
L 113.746433 84.582851 
L 112.109443 87.17401 
L 110.838528 88.789594 
L 109.373091 90.297696 
L 107.669048 91.676338 
L 105.681261 92.894335 
L 103.364277 93.907043 
L 100.674886 94.650898 
L 99.178875 94.89538 
L 97.577414 95.036906 
L 95.868739 95.059253 
L 94.053008 94.943814 
L 92.132908 94.669536 
L 90.114381 94.212976 
L 88.007443 93.548565 
L 85.827095 92.649143 
L 83.594259 91.486867 
L 81.336674 90.034583 
L 79.089641 88.267744 
L 76.896434 86.166923 
L 74.80821 83.720893 
L 72.883173 80.930128 
L 71.184801 77.810426 
L 69.778989 74.396182 
L 68.730107 70.742661 
L 68.09618 66.92656 
L 67.923639 63.044203 
L 68.242323 59.207 
L 69.061544 55.534277 
L 70.367985 52.144168 
L 72.125924 49.143802 
L 74.2799 46.620333 
L 76.75941 44.63426 
L 79.484881 43.216043 
L 82.373959 42.366326 
L 85.347216 42.059341 
L 88.332627 42.248547 
L 91.268527 42.873345 
L 94.105038 43.865751 
L 96.80422 45.156225 
L 99.339296 46.678177 
L 101.693301 48.371035 
L 103.857479 50.181967 
L 105.829643 52.066527 
L 107.612641 53.988509 
L 109.21302 55.919293 
L 110.639895 57.836915 
L 113.017163 61.57199 
L 114.83866 65.113186 
L 116.198904 68.427341 
L 117.184055 71.508938 
L 117.867914 74.367302 
L 118.310739 77.018856 
L 118.622771 80.650281 
L 118.605677 83.923485 
L 118.319837 86.89618 
L 117.785652 89.617078 
L 116.990184 92.125509 
L 116.294622 93.694826 
L 115.444135 95.189177 
L 114.412156 96.611813 
L 113.165227 97.962146 
L 111.662337 99.234048 
L 109.854347 100.413189 
L 107.683793 101.472962 
L 105.085635 102.368449 
L 101.989938 103.027775 
L 100.233742 103.236207 
L 98.328109 103.340303 
L 96.266696 103.31774 
L 94.045297 103.141823 
L 91.662838 102.781042 
L 89.122623 102.198767 
L 86.433866 101.353223 
L 83.613493 100.197919 
L 80.688166 98.682767 
L 77.696414 96.756146 
L 74.690637 94.368243 
L 71.738627 91.475877 
L 68.92411 88.048949 
L 66.345682 84.078293 
L 64.113491 79.584281 
L 62.343165 74.624904 
L 61.146893 69.301465 
L 60.622225 63.759678 
L 60.840025 58.184207 
L 61.83373 52.785746 
L 63.592361 47.781549 
L 66.059258 43.372398 
L 69.137277 39.720457 
L 72.699543 36.932699 
L 76.60349 35.05314 
L 80.705267 34.064799 
L 84.871951 33.899754 
L 88.989952 34.454111 
L 92.969257 35.604266 
L 96.744047 37.221533 
L 100.270755 39.18338 
L 103.524701 41.380734 
L 106.496224 43.721667 
L 109.186955 46.132269 
L 111.606566 48.555638 
L 113.770116 50.949789 
L 115.696004 53.285138 
L 118.91631 57.708131 
L 121.433121 61.746259 
L 123.403943 65.388172 
L 125.636813 70.155207 
L 129.755551 79.509155 
L 130.758342 81.208354 
L 131.856383 82.672242 
L 133.093571 83.897292 
L 134.512167 84.871084 
L 136.154117 85.571292 
L 138.061521 85.964382 
L 140.275969 86.004169 
L 142.836243 85.630571 
L 145.773686 84.769283 
L 149.104272 83.3337 
L 150.914874 82.371543 
L 152.816366 81.231264 
L 154.800142 79.902635 
L 156.853452 78.377391 
L 158.958648 76.650336 
L 161.092463 74.720681 
L 163.225389 72.593589 
L 165.321267 70.28185 
L 167.337213 67.807553 
L 169.22405 65.203565 
L 170.927379 62.514519 
L 172.38945 59.796997 
L 173.551869 57.118548 
L 174.359117 54.555263 
L 174.762664 52.187772 
L 174.725316 50.095803 
L 174.225247 48.351758 
L 173.259093 47.014124 
L 171.84354 46.121736 
L 170.014975 45.689911 
L 167.827138 45.709252 
L 165.347032 46.147375 
L 162.649694 46.95326 
L 159.812601 48.063381 
L 156.910494 49.408521 
L 154.011196 50.920149 
L 148.44206 54.201221 
L 143.434522 57.524189 
L 139.149947 60.675497 
L 135.622591 63.577558 
L 132.807923 66.234316 
L 130.621998 68.684826 
L 128.967927 70.974191 
L 127.751398 73.13971 
L 126.888592 75.206771 
L 126.30938 77.189691 
L 125.957825 79.094343 
L 125.79131 80.920954 
L 125.824053 83.507046 
L 126.144379 85.892107 
L 126.732247 88.053449 
L 127.278799 89.356721 
L 127.962377 90.538345 
L 128.8012 91.585605 
L 129.819683 92.481998 
L 131.048749 93.205682 
L 132.526192 93.727472 
L 134.296913 94.008293 
L 136.41269 93.996004 
L 138.930979 93.621643 
L 141.911856 92.795384 
L 145.411753 91.403114 
L 147.370296 90.452113 
L 149.471981 89.305617 
L 151.716455 87.943215 
L 154.099453 86.344292 
L 156.611589 84.489059 
L 159.236976 82.360024 
L 161.951701 79.943979 
L 164.722267 77.234559 
L 167.504138 74.235356 
L 170.240637 70.963473 
L 172.862492 67.453256 
L 175.288443 63.759692 
L 177.427312 59.960781 
L 179.181912 56.157946 
L 180.454983 52.473515 
L 181.156997 49.044476 
L 181.215215 46.01227 
L 180.582813 43.509288 
L 179.24649 41.643843 
L 177.230863 40.48634 
L 174.598355 40.059709 
L 171.444137 40.336511 
L 167.886859 41.243665 
L 164.056869 42.673736 
L 160.084162 44.50015 
L 156.088067 46.592952 
L 152.170028 48.832149 
L 144.865225 53.369545 
L 138.553365 57.586297 
L 133.342801 61.286102 
L 129.172036 64.481093 
L 125.898427 67.272805 
L 123.354505 69.776836 
L 121.377733 72.088526 
L 119.823561 74.274028 
L 118.569314 76.373288 
L 117.033342 79.401704 
L 114.303104 85.058912 
L 112.741511 87.655138 
L 111.524963 89.279891 
L 110.118529 90.804404 
L 108.47855 92.209611 
L 106.559454 93.468003 
L 104.314141 94.539517 
L 101.695979 95.366135 
L 100.233671 95.66294 
L 98.663297 95.865179 
L 96.981772 95.95742 
L 95.187634 95.921763 
L 93.28162 95.73768 
L 91.267369 95.381965 
L 89.152242 94.828844 
L 86.948255 94.050326 
L 84.673092 93.016886 
L 82.351139 91.698604 
L 80.014436 90.066832 
L 77.703405 88.096524 
L 75.467157 85.769212 
L 73.363144 83.076598 
L 71.455903 80.024525 
L 69.814679 76.636919 
L 68.509809 72.959098 
L 67.607956 69.059639 
L 67.166517 65.030023 
L 67.227856 60.981386 
L 67.814195 57.038173 
L 68.92411 53.329088 
L 70.531383 49.976451 
L 72.586597 47.085558 
L 75.021298 44.735834 
L 77.754043 42.975218 
L 80.697315 41.81854 
L 83.76422 41.249795 
L 86.874072 41.227459 
L 89.956363 41.691581 
L 92.952982 42.571339 
L 95.818866 43.791944 
L 98.521465 45.280225 
L 101.039416 46.968606 
L 103.360835 48.797502 
L 105.481494 50.716389 
L 107.403082 52.683882 
L 109.131674 54.667137 
L 110.676423 56.640886 
L 113.260287 60.489882 
L 115.254646 64.137779 
L 116.761501 67.545854 
L 117.874854 70.706958 
L 118.67605 73.630734 
L 119.23235 76.33475 
L 119.721348 80.023601 
L 119.907173 83.332603 
L 119.869988 86.323226 
L 119.651549 89.047562 
L 119.264052 91.54887 
L 118.695573 93.862982 
L 117.912259 96.019522 
L 116.857522 98.04215 
L 115.963927 99.32454 
L 114.881395 100.556802 
L 113.570463 101.737313 
L 111.983285 102.858795 
L 110.062651 103.905118 
L 107.741455 104.846378 
L 104.943279 105.631471 
L 101.585316 106.177273 
L 99.670469 106.322096 
L 97.585766 106.353587 
L 95.323633 106.244944 
L 92.879132 105.963871 
L 90.251244 105.471982 
L 87.444498 104.724397 
L 84.470982 103.669734 
L 81.352715 102.250743 
L 78.12431 100.405918 
L 74.835739 98.072494 
L 71.554837 95.191253 
L 68.369 91.713448 
L 65.385304 87.609923 
L 62.72815 82.881954 
L 60.53353 77.572567 
L 58.939413 71.776165 
L 58.072479 65.643505 
L 58.032617 59.378892 
L 58.877797 53.227435 
L 60.612754 47.452446 
L 63.18466 42.306105 
L 66.48753 37.999229 
L 70.374753 34.676946 
L 74.676929 32.405679 
L 79.220918 31.173511 
L 83.846276 30.90223 
L 88.416611 31.466689 
L 92.825195 32.716306 
L 96.995605 34.494413 
L 100.878925 36.652947 
L 104.449133 39.061706 
L 107.697972 41.612724 
L 110.630141 44.220932 
L 113.259238 46.822435 
L 115.604549 49.371515 
L 117.688654 51.837222 
L 121.170219 56.449073 
L 123.897062 60.590497 
L 126.048714 64.265084 
L 128.534925 68.976675 
L 131.69657 75.018068 
L 132.880056 76.887054 
L 134.119222 78.467501 
L 135.468427 79.762296 
L 136.97549 80.764221 
L 138.683247 81.455576 
L 140.630007 81.80778 
L 142.848602 81.781204 
L 145.36363 81.325715 
L 148.186398 80.382776 
L 151.307061 78.89037 
L 154.683719 76.792512 
L 156.442902 75.504475 
L 158.228969 74.05526 
L 160.021592 72.447963 
L 161.796046 70.690405 
L 163.523113 68.796139 
L 165.169252 66.785387 
L 166.697111 64.685752 
L 168.06647 62.532557 
L 169.235639 60.368636 
L 170.163352 58.243392 
L 170.811069 56.211039 
L 171.145559 54.32797 
L 171.141544 52.649402 
L 170.784091 51.225551 
L 170.070445 50.097785 
L 169.010997 49.295253 
L 167.629179 48.832523 
L 165.960226 48.708611 
L 164.048933 48.907591 
L 161.946668 49.40067 
L 159.708033 50.1494 
L 157.387574 51.109488 
L 155.036898 52.23466 
L 150.423995 54.804947 
L 146.157402 57.559729 
L 142.410027 60.297981 
L 139.2556 62.9142 
L 136.697295 65.371349 
L 134.69597 67.670746 
L 133.19225 69.829041 
L 132.121485 71.864381 
L 131.422818 73.789897 
L 131.04404 75.611752 
L 130.943735 77.329445 
L 131.09181 78.936884 
L 131.46916 80.4234 
L 132.066932 81.774345 
L 132.88565 82.971144 
L 133.934321 83.990799 
L 135.229505 84.804902 
L 136.794236 85.378234 
L 138.656556 85.667045 
L 140.847267 85.617273 
L 143.396342 85.163084 
L 146.327206 84.226556 
L 149.647911 82.719889 
L 151.449685 81.724175 
L 153.338224 80.552337 
L 155.303696 79.194982 
L 157.332081 77.644972 
L 159.404461 75.898543 
L 161.496353 73.956635 
L 163.577177 71.826399 
L 165.609958 69.522789 
L 167.551396 67.0701 
L 169.352445 64.503236 
L 170.959562 61.868442 
L 172.316696 59.223175 
L 173.368092 56.634796 
L 174.061799 54.17787 
L 174.353658 51.929995 
L 174.211376 49.96638 
L 173.618163 48.353686 
L 172.575335 47.143936 
L 171.103397 46.369468 
L 169.241269 46.039845 
L 167.043662 46.14134 
L 164.576941 46.639131 
L 161.914063 47.481805 
L 159.129324 48.607316 
L 156.293621 49.949369 
L 153.470722 51.443235 
L 148.069267 54.660982 
L 143.229405 57.906899 
L 139.097537 60.98602 
L 135.70173 63.828705 
L 132.997126 66.439591 
L 130.90262 68.854897 
L 129.325491 71.115923 
L 128.175896 73.256487 
L 127.374287 75.299257 
L 126.854436 77.25656 
L 126.563931 79.132814 
L 126.463386 80.927081 
L 126.5251 82.635082 
L 126.886192 85.021188 
L 127.296434 86.483072 
L 127.844743 87.830896 
L 128.541063 89.053258 
L 129.401959 90.136079 
L 130.450573 91.061423 
L 131.716739 91.805919 
L 133.237125 92.338753 
L 135.055192 92.61913 
L 137.22062 92.593199 
L 139.787627 92.190547 
L 142.811272 91.320663 
L 146.340367 89.870472 
L 148.305096 88.886325 
L 150.405067 87.705127 
L 152.637842 86.307936 
L 154.996784 84.676162 
L 157.469878 82.792706 
L 160.038418 80.64353 
L 162.675617 78.219697 
L 165.345253 75.519916 
L 168.000508 72.55353 
L 170.583257 69.343772 
L 173.024092 65.930979 
L 175.243459 62.375239 
L 177.154238 58.757771 
L 178.666029 55.180212 
L 179.691197 51.76103 
L 180.152361 48.628544 
L 179.990603 45.910651 
L 179.173221 43.722204 
L 177.699604 42.151884 
L 175.603833 41.25106 
L 172.95314 41.027132 
L 169.842176 41.443061 
L 166.383985 42.423346 
L 162.699333 43.865117 
L 158.90629 45.651842 
L 155.111674 47.666811 
L 147.857271 51.975684 
L 141.418863 56.175135 
L 135.997017 59.96585 
L 131.595618 63.285321 
L 128.110834 66.195082 
L 125.394885 68.795918 
L 123.293282 71.182182 
L 121.663259 73.424783 
L 120.381055 75.56972 
L 118.888692 78.656836 
L 114.878397 87.993712 
L 113.8946 89.663932 
L 112.758689 91.255568 
L 111.431061 92.759148 
L 109.869017 94.160393 
L 108.025954 95.437317 
L 105.851347 96.556194 
L 103.292074 97.466038 
L 100.295912 98.091354 
L 98.619559 98.264842 
L 96.818591 98.323188 
L 94.890758 98.24594 
L 92.836276 98.009412 
L 90.658673 97.586565 
L 88.365805 96.947089 
L 85.971019 96.057777 
L 83.494434 94.883323 
L 80.964262 93.387693 
L 78.41804 91.536219 
L 75.90358 89.298546 
L 73.479362 86.652474 
L 71.21406 83.588614 
L 69.184839 80.115545 
L 67.474133 76.264881 
L 66.164788 72.095359 
L 65.3337 67.694828 
L 65.044524 63.179031 
L 65.340392 58.686372 
L 66.237895 54.368565 
L 67.723568 50.378019 
L 69.753803 46.853796 
L 72.258409 43.908531 
L 75.147268 41.618706 
L 78.318867 40.019899 
L 81.669184 39.10748 
L 85.099546 38.842017 
L 88.522498 39.157809 
L 91.86533 39.972654 
L 95.071402 41.19719 
L 98.099724 42.742653 
L 100.923388 44.52651 
L 103.527392 46.475923 
L 105.906298 48.529361 
L 108.061992 50.636793 
L 110.001715 52.75895 
L 111.736422 54.866051 
L 114.645553 58.954505 
L 116.908256 62.798066 
L 118.645309 66.357429 
L 119.967926 69.6293 
L 120.972777 72.628339 
L 122.057037 76.664483 
L 123.025287 81.306371 
L 124.461484 88.61758 
L 125.081088 90.806685 
L 125.846506 92.723864 
L 126.47139 93.850439 
L 127.215028 94.850467 
L 128.104797 95.714694 
L 129.172963 96.428563 
L 130.457755 96.970694 
L 132.004372 97.310771 
L 133.865753 97.406691 
L 136.10279 97.20084 
L 138.783386 96.615487 
L 141.979308 95.547601 
L 145.759145 93.864109 
L 147.885456 92.74113 
L 150.174781 91.400072 
L 152.627148 89.816317 
L 155.237869 87.964855 
L 157.996007 85.821587 
L 160.882595 83.365219 
L 163.868674 80.579864 
L 166.913265 77.458421 
L 169.961503 74.006724 
L 172.943261 70.248286 
L 175.77272 66.229208 
L 178.349441 62.022528 
L 180.56154 57.730913 
L 182.291439 53.486336 
L 183.424379 49.445351 
L 183.859295 45.77899 
L 183.52092 42.657312 
L 182.371183 40.230141 
L 180.417505 38.607207 
L 177.715727 37.842005 
L 174.36635 37.923565 
L 170.504351 38.778642 
L 166.284503 40.284022 
L 161.865251 42.28583 
L 157.394249 44.621076 
L 152.997838 47.136767 
L 144.797965 52.221987 
L 137.736529 56.872185 
L 129.490432 62.591745 
L 125.397283 65.660212 
L 122.207251 68.307575 
L 119.722146 70.673498 
L 117.762337 72.859976 
L 116.174118 74.931197 
L 114.215754 77.891478 
L 111.305533 82.486311 
L 110.059675 84.183558 
L 108.683577 85.776855 
L 107.129539 87.243679 
L 105.353408 88.554679 
L 103.31427 89.670913 
L 100.975674 90.540192 
L 98.308942 91.092798 
L 96.847115 91.222688 
L 95.299251 91.237162 
L 93.667245 91.120853 
L 91.955289 90.856825 
L 90.170399 90.426745 
L 88.322996 89.81121 
L 86.427504 88.990297 
L 84.502935 87.944374 
L 82.573403 86.655219 
L 80.668464 85.107492 
L 78.823205 83.29054 
L 77.077942 81.200501 
L 75.477415 78.842569 
L 74.069371 76.233213 
L 72.902498 73.40205 
L 72.023722 70.393002 
L 71.475041 67.264333 
L 71.290156 64.087251 
L 71.491295 60.942897 
L 72.086691 57.917807 
L 73.069124 55.098234 
L 74.415832 52.563993 
L 76.089875 50.382662 
L 78.042793 48.604956 
L 80.218189 47.261898 
L 82.555718 46.364085 
L 84.994974 45.902966 
L 87.478828 45.853721 
L 89.95596 46.179154 
L 92.382457 46.833944 
L 94.722557 47.768716 
L 96.948657 48.933534 
L 99.0408 50.280592 
L 100.985828 51.766076 
L 102.776366 53.351253 
L 104.409769 55.002919 
L 105.887118 56.693386 
L 107.21231 58.400136 
L 109.431307 61.79501 
L 111.127517 65.089172 
L 112.368875 68.229644 
L 113.220797 71.192919 
L 113.740752 73.973333 
L 113.97567 76.575214 
L 113.961079 79.007804 
L 113.721233 81.28203 
L 113.269715 83.408394 
L 112.610205 85.395484 
L 111.737242 87.248726 
L 110.63691 88.969093 
L 109.287493 90.551512 
L 107.660236 91.982718 
L 105.720482 93.238295 
L 103.429626 94.278631 
L 100.74858 95.043627 
L 99.250789 95.29691 
L 97.643758 95.446217 
L 95.925763 95.4753 
L 94.096951 95.365416 
L 92.159965 95.095235 
L 90.120703 94.64089 
L 87.98917 93.97623 
L 85.780427 93.073346 
L 83.515578 91.903484 
L 81.222724 90.438432 
L 78.937756 88.652493 
L 76.704835 86.525067 
L 74.576332 84.043851 
L 72.612021 81.208495 
L 70.877275 78.034416 
L 69.44013 74.556272 
L 68.367198 70.830406 
L 67.71864 66.935524 
L 67.542669 62.970872 
L 67.870294 59.051535 
L 68.711185 55.300935 
L 70.051459 51.841272 
L 71.853932 48.78322 
L 74.060945 46.216514 
L 76.599328 44.202988 
L 79.386692 42.773107 
L 82.338013 41.926315 
L 85.371578 41.634729 
L 88.413601 41.849146 
L 91.401224 42.50612 
L 94.283911 43.53495 
L 97.023515 44.863711 
L 99.593399 46.423889 
L 101.976984 48.153465 
L 104.166045 49.998621 
L 106.159003 51.914314 
L 107.959341 53.864049 
L 109.574223 55.819149 
L 109.574223 55.819149 
" clip-path="url(#p0fc2fde935)" style="fill: none; stroke: #ff7f0e; stroke-opacity: 0.8; stroke-width: 1.5; stroke-linecap: round"/>
   </g>
  </g>
 </g>
 <defs>
  <clipPath id="p0fc2fde935">
   <rect x="32.4" y="-14.4" width="172.8" height="172.8"/>
  </clipPath>
 </defs>
</svg>
