<?xml version="1.0" encoding="utf-8" standalone="no"?>
<!DOCTYPE svg PUBLIC "-//W3C//DTD SVG 1.1//EN"
  "http://www.w3.org/Graphics/SVG/1.1/DTD/svg11.dtd">
<svg xmlns:xlink="http://www.w3.org/1999/xlink" width="216pt" height="180pt" viewBox="0 0 216 180" xmlns="http://www.w3.org/2000/svg" version="1.1">
 <metadata>
  <rdf:RDF xmlns:dc="http://purl.org/dc/elements/1.1/" xmlns:cc="http://creativecommons.org/ns#" xmlns:rdf="http://www.w3.org/1999/02/22-rdf-syntax-ns#">
   <cc:Work>
    <dc:type rdf:resource="http://purl.org/dc/dcmitype/StillImage"/>
    <dc:date>2024-03-01T17:30:29.229429</dc:date>
    <dc:format>image/svg+xml</dc:format>
    <dc:creator>
     <cc:Agent>
      <dc:title>Matplotlib v3.7.0, https://matplotlib.org/</dc:title>
     </cc:Agent>
    </dc:creator>
   </cc:Work>
  </rdf:RDF>
 </metadata>
 <defs>
  <style type="text/css">*{stroke-linejoin: round; stroke-linecap: butt}</style>
 </defs>
 <g id="figure_1">
  <g id="patch_1">
   <path d="M 0 180 
L 216 180 
L 216 0 
L 0 0 
z
" style="fill: #ffffff"/>
  </g>
  <g id="axes_1">
   <g id="patch_2">
    <path d="M 46.64 147.04 
L 205.2 147.04 
L 205.2 10.8 
L 46.64 10.8 
L 46.64 147.04 
z
" style="fill: none"/>
   </g>
   <g id="matplotlib.axis_1">
    <g id="xtick_1">
     <g id="line2d_1">
      <path d="M 79.084003 147.04 
L 79.084003 10.8 
" clip-path="url(#p6a73bac9ee)" style="fill: none; stroke: #d3d3d3; stroke-width: 0.8; stroke-linecap: round"/>
     </g>
     <g id="text_1">
      <!-- −1 -->
      <g style="fill: #808080" transform="translate(71.712909 161.638438) scale(0.1 -0.1)">
       <defs>
        <path id="DejaVuSans-2212" d="M 678 2272 
L 4684 2272 
L 4684 1741 
L 678 1741 
L 678 2272 
z
" transform="scale(0.015625)"/>
        <path id="DejaVuSans-31" d="M 794 531 
L 1825 531 
L 1825 4091 
L 703 3866 
L 703 4441 
L 1819 4666 
L 2450 4666 
L 2450 531 
L 3481 531 
L 3481 0 
L 794 0 
L 794 531 
z
" transform="scale(0.015625)"/>
       </defs>
       <use xlink:href="#DejaVuSans-2212"/>
       <use xlink:href="#DejaVuSans-31" x="83.789062"/>
      </g>
     </g>
    </g>
    <g id="xtick_2">
     <g id="line2d_2">
      <path d="M 120.106258 147.04 
L 120.106258 10.8 
" clip-path="url(#p6a73bac9ee)" style="fill: none; stroke: #d3d3d3; stroke-width: 0.8; stroke-linecap: round"/>
     </g>
     <g id="text_2">
      <!-- 0 -->
      <g style="fill: #808080" transform="translate(116.925008 161.638438) scale(0.1 -0.1)">
       <defs>
        <path id="DejaVuSans-30" d="M 2034 4250 
Q 1547 4250 1301 3770 
Q 1056 3291 1056 2328 
Q 1056 1369 1301 889 
Q 1547 409 2034 409 
Q 2525 409 2770 889 
Q 3016 1369 3016 2328 
Q 3016 3291 2770 3770 
Q 2525 4250 2034 4250 
z
M 2034 4750 
Q 2819 4750 3233 4129 
Q 3647 3509 3647 2328 
Q 3647 1150 3233 529 
Q 2819 -91 2034 -91 
Q 1250 -91 836 529 
Q 422 1150 422 2328 
Q 422 3509 836 4129 
Q 1250 4750 2034 4750 
z
" transform="scale(0.015625)"/>
       </defs>
       <use xlink:href="#DejaVuSans-30"/>
      </g>
     </g>
    </g>
    <g id="xtick_3">
     <g id="line2d_3">
      <path d="M 161.128514 147.04 
L 161.128514 10.8 
" clip-path="url(#p6a73bac9ee)" style="fill: none; stroke: #d3d3d3; stroke-width: 0.8; stroke-linecap: round"/>
     </g>
     <g id="text_3">
      <!-- 1 -->
      <g style="fill: #808080" transform="translate(157.947264 161.638438) scale(0.1 -0.1)">
       <use xlink:href="#DejaVuSans-31"/>
      </g>
     </g>
    </g>
    <g id="xtick_4">
     <g id="line2d_4">
      <path d="M 202.150769 147.04 
L 202.150769 10.8 
" clip-path="url(#p6a73bac9ee)" style="fill: none; stroke: #d3d3d3; stroke-width: 0.8; stroke-linecap: round"/>
     </g>
     <g id="text_4">
      <!-- 2 -->
      <g style="fill: #808080" transform="translate(198.969519 161.638438) scale(0.1 -0.1)">
       <defs>
        <path id="DejaVuSans-32" d="M 1228 531 
L 3431 531 
L 3431 0 
L 469 0 
L 469 531 
Q 828 903 1448 1529 
Q 2069 2156 2228 2338 
Q 2531 2678 2651 2914 
Q 2772 3150 2772 3378 
Q 2772 3750 2511 3984 
Q 2250 4219 1831 4219 
Q 1534 4219 1204 4116 
Q 875 4013 500 3803 
L 500 4441 
Q 881 4594 1212 4672 
Q 1544 4750 1819 4750 
Q 2544 4750 2975 4387 
Q 3406 4025 3406 3419 
Q 3406 3131 3298 2873 
Q 3191 2616 2906 2266 
Q 2828 2175 2409 1742 
Q 1991 1309 1228 531 
z
" transform="scale(0.015625)"/>
       </defs>
       <use xlink:href="#DejaVuSans-32"/>
      </g>
     </g>
    </g>
    <g id="text_5">
     <!-- x -->
     <g style="fill: #808080" transform="translate(122.960625 175.316563) scale(0.1 -0.1)">
      <defs>
       <path id="DejaVuSans-78" d="M 3513 3500 
L 2247 1797 
L 3578 0 
L 2900 0 
L 1881 1375 
L 863 0 
L 184 0 
L 1544 1831 
L 300 3500 
L 978 3500 
L 1906 2253 
L 2834 3500 
L 3513 3500 
z
" transform="scale(0.015625)"/>
      </defs>
      <use xlink:href="#DejaVuSans-78"/>
     </g>
    </g>
   </g>
   <g id="matplotlib.axis_2">
    <g id="ytick_1">
     <g id="line2d_5">
      <path d="M 46.64 111.498636 
L 205.2 111.498636 
" clip-path="url(#p6a73bac9ee)" style="fill: none; stroke: #d3d3d3; stroke-width: 0.8; stroke-linecap: round"/>
     </g>
     <g id="text_6">
      <!-- −1 -->
      <g style="fill: #808080" transform="translate(24.897813 115.297855) scale(0.1 -0.1)">
       <use xlink:href="#DejaVuSans-2212"/>
       <use xlink:href="#DejaVuSans-31" x="83.789062"/>
      </g>
     </g>
    </g>
    <g id="ytick_2">
     <g id="line2d_6">
      <path d="M 46.64 73.474665 
L 205.2 73.474665 
" clip-path="url(#p6a73bac9ee)" style="fill: none; stroke: #d3d3d3; stroke-width: 0.8; stroke-linecap: round"/>
     </g>
     <g id="text_7">
      <!-- 0 -->
      <g style="fill: #808080" transform="translate(33.2775 77.273884) scale(0.1 -0.1)">
       <use xlink:href="#DejaVuSans-30"/>
      </g>
     </g>
    </g>
    <g id="ytick_3">
     <g id="line2d_7">
      <path d="M 46.64 35.450695 
L 205.2 35.450695 
" clip-path="url(#p6a73bac9ee)" style="fill: none; stroke: #d3d3d3; stroke-width: 0.8; stroke-linecap: round"/>
     </g>
     <g id="text_8">
      <!-- 1 -->
      <g style="fill: #808080" transform="translate(33.2775 39.249913) scale(0.1 -0.1)">
       <use xlink:href="#DejaVuSans-31"/>
      </g>
     </g>
    </g>
    <g id="text_9">
     <!-- y -->
     <g style="fill: #808080" transform="translate(18.818125 81.879375) rotate(-90) scale(0.1 -0.1)">
      <defs>
       <path id="DejaVuSans-79" d="M 2059 -325 
Q 1816 -950 1584 -1140 
Q 1353 -1331 966 -1331 
L 506 -1331 
L 506 -850 
L 844 -850 
Q 1081 -850 1212 -737 
Q 1344 -625 1503 -206 
L 1606 56 
L 191 3500 
L 800 3500 
L 1894 763 
L 2988 3500 
L 3597 3500 
L 2059 -325 
z
" transform="scale(0.015625)"/>
      </defs>
      <use xlink:href="#DejaVuSans-79"/>
     </g>
    </g>
   </g>
   <g id="line2d_8">
    <path d="M 202.150769 73.474665 
L 201.118934 91.392527 
L 200.66804 97.196547 
L 200.077228 102.883355 
L 199.276192 108.41447 
L 198.188403 113.737871 
L 196.737599 118.789882 
L 194.85568 123.499589 
L 192.491067 127.795714 
L 189.615997 131.615107 
L 186.231006 134.911292 
L 182.365287 137.661144 
L 178.072645 139.868091 
L 173.424021 141.561177 
L 168.49841 142.790488 
L 163.374189 143.620339 
L 158.122339 144.121847 
L 152.802253 144.366291 
L 147.460051 144.42 
L 136.830393 144.177203 
L 116.128073 143.258779 
L 101.155438 142.493052 
L 91.507172 141.735781 
L 86.832291 141.189949 
L 82.294455 140.481208 
L 77.929937 139.569494 
L 73.779855 138.416815 
L 69.887691 136.990351 
L 66.295986 135.265521 
L 63.042569 133.228573 
L 60.156832 130.878199 
L 57.656689 128.225855 
L 55.546733 125.294649 
L 53.817908 122.116985 
L 52.448675 118.731395 
L 51.407373 115.179098 
L 50.655273 111.500821 
L 50.149821 107.734249 
L 49.84762 103.912295 
L 49.70688 100.062196 
L 49.760905 92.357413 
L 50.254316 80.957408 
L 51.480993 59.006055 
L 52.041364 51.975617 
L 52.880576 45.168141 
L 53.46131 41.881501 
L 54.181606 38.696661 
L 55.064882 35.634412 
L 56.132449 32.716996 
L 57.40214 29.966988 
L 58.887046 27.405961 
L 60.594488 25.05306 
L 62.52538 22.923629 
L 64.674078 21.028064 
L 67.028767 19.371034 
L 69.572323 17.951178 
L 72.283555 16.761277 
L 75.138664 15.788886 
L 78.112727 15.017285 
L 81.181071 14.426639 
L 84.320402 13.99521 
L 87.509644 13.700501 
L 93.967523 13.433279 
L 100.443744 13.462915 
L 110.056235 13.788722 
L 134.716882 14.964486 
L 143.535168 15.61433 
L 149.20177 16.282489 
L 154.615031 17.250603 
L 157.197305 17.87798 
L 159.679099 18.616095 
L 162.046773 19.474681 
L 164.286971 20.461554 
L 166.387237 21.582188 
L 168.336632 22.83939 
L 170.126305 24.233119 
L 171.749975 25.760453 
L 173.204268 27.415737 
L 174.488882 29.190877 
L 175.606574 31.075769 
L 176.562974 33.058812 
L 177.36625 35.127466 
L 178.026664 37.268799 
L 178.556069 39.469994 
L 179.274063 44.003751 
L 179.627517 48.642436 
L 179.719512 53.319265 
L 179.558881 60.309933 
L 178.87074 73.971523 
L 177.937547 89.268314 
L 177.284996 95.546458 
L 176.645551 99.580713 
L 175.773243 103.44545 
L 174.610097 107.089208 
L 173.903486 108.81081 
L 173.106668 110.456245 
L 172.215901 112.018888 
L 171.228749 113.492678 
L 170.144195 114.872342 
L 168.962692 116.153599 
L 167.686156 117.333326 
L 166.317902 118.409675 
L 164.862513 119.382146 
L 163.325672 120.251589 
L 161.713945 121.020163 
L 158.295107 122.269235 
L 154.667242 123.168086 
L 150.891079 123.766739 
L 147.021332 124.120466 
L 143.103366 124.284401 
L 137.209219 124.284002 
L 129.42406 124.033631 
L 106.986617 122.959738 
L 99.873873 122.415142 
L 94.741899 121.778793 
L 91.459819 121.189546 
L 88.32362 120.432494 
L 85.366412 119.479882 
L 82.621884 118.309368 
L 80.121362 116.906366 
L 77.890687 115.265764 
L 75.947435 113.392649 
L 74.298993 111.301843 
L 72.941831 109.016321 
L 71.862061 106.564791 
L 71.037104 103.978906 
L 70.438069 101.290569 
L 70.032403 98.529692 
L 69.712956 94.308813 
L 69.644903 90.052944 
L 69.787645 84.40216 
L 70.418626 71.996784 
L 71.152843 60.089209 
L 71.675519 55.007692 
L 72.253106 51.333923 
L 73.059141 47.826636 
L 73.753638 45.607527 
L 74.592514 43.503926 
L 75.588361 41.533187 
L 76.749651 39.711437 
L 78.080009 38.05241 
L 79.577857 36.566383 
L 81.236482 35.259366 
L 83.044545 34.132641 
L 84.986963 33.182707 
L 87.046026 32.401634 
L 89.202626 31.777733 
L 92.578305 31.104195 
L 96.068996 30.695065 
L 99.622669 30.49181 
L 104.390769 30.446307 
L 111.490068 30.646133 
L 129.707492 31.498497 
L 136.223858 31.951075 
L 140.416375 32.416393 
L 144.426014 33.098243 
L 147.270001 33.797787 
L 149.935595 34.690999 
L 152.387588 35.800329 
L 154.594073 37.139076 
L 155.915992 38.160643 
L 157.112568 39.283262 
L 158.181147 40.502572 
L 159.121528 41.812272 
L 160.29724 43.928701 
L 161.206906 46.199376 
L 161.876513 48.590714 
L 162.338162 51.06977 
L 162.690806 54.460621 
L 162.818228 57.896983 
L 162.745093 63.050555 
L 162.297699 72.308364 
L 161.512897 85.200457 
L 161.009426 89.802717 
L 160.357925 93.467954 
L 159.619985 96.24022 
L 158.911694 98.198891 
L 158.054064 100.03383 
L 157.036668 101.727542 
L 155.854337 103.264852 
L 154.507723 104.634237 
L 153.003311 105.828874 
L 151.352853 106.847252 
L 149.572325 107.693247 
L 147.680554 108.375684 
L 145.020085 109.053969 
L 142.245049 109.503144 
L 138.679524 109.807667 
L 134.344664 109.90456 
L 128.587953 109.775391 
L 113.992407 109.113394 
L 106.700795 108.645867 
L 102.261702 108.1383 
L 99.243829 107.594926 
L 96.40394 106.848539 
L 94.294125 106.078145 
L 92.356204 105.137249 
L 90.612769 104.017869 
L 89.08091 102.719959 
L 87.770248 101.251525 
L 86.681855 99.627744 
L 85.808235 97.869263 
L 85.134345 95.999992 
L 84.639342 94.044833 
L 84.234633 91.51629 
L 83.995825 88.411028 
L 83.952363 84.757364 
L 84.149687 79.064701 
L 84.963863 64.692919 
L 85.432589 60.008196 
L 85.961888 56.878225 
L 86.614256 54.341436 
L 87.332954 52.363485 
L 88.233491 50.537369 
L 89.329335 48.887671 
L 90.349716 47.708512 
L 91.495327 46.662045 
L 92.759608 45.751636 
L 94.491319 44.803906 
L 96.367509 44.058802 
L 98.359595 43.499611 
L 100.862185 43.042297 
L 103.87846 42.747221 
L 107.381011 42.637464 
L 112.190481 42.719732 
L 123.635292 43.226072 
L 131.315284 43.689891 
L 135.166196 44.124852 
L 138.086173 44.662661 
L 140.47498 45.321726 
L 142.364629 46.053329 
L 144.080536 46.954133 
L 145.600364 48.030269 
L 146.70576 49.059112 
L 147.660013 50.201356 
L 148.606772 51.707245 
L 149.346698 53.339058 
L 149.897574 55.07116 
L 150.332946 57.18414 
L 150.609395 59.674743 
L 150.716516 62.836119 
L 150.612346 67.25029 
L 150.015786 78.495408 
L 149.601263 83.695903 
L 149.16617 86.729744 
L 148.630975 89.081463 
L 147.976583 91.035438 
L 147.242117 92.61228 
L 146.34284 94.042517 
L 145.273695 95.308242 
L 144.038249 96.397397 
L 142.64832 97.305333 
L 141.122487 98.035353 
L 139.241927 98.665793 
L 137.25113 99.103178 
L 134.661723 99.426452 
L 131.482754 99.572571 
L 127.234714 99.522897 
L 117.696203 99.10764 
L 110.097823 98.641291 
L 106.628123 98.205237 
L 104.026374 97.652174 
L 102.026119 97.005898 
L 100.391133 96.256568 
L 98.939517 95.337297 
L 97.818821 94.376867 
L 96.865479 93.288084 
L 96.079861 92.083054 
L 95.388302 90.608884 
L 94.837143 88.855203 
L 94.455313 86.828378 
L 94.238348 84.359208 
L 94.203201 81.287029 
L 94.397597 76.35361 
L 95.082781 65.350351 
L 95.494065 62.323837 
L 96.00375 60.108335 
L 96.621158 58.347981 
L 97.360126 56.878557 
L 98.187438 55.684345 
L 99.165195 54.640338 
L 100.287441 53.755237 
L 101.67283 52.966753 
L 103.191772 52.36411 
L 104.966505 51.898216 
L 107.142318 51.56683 
L 109.863881 51.395313 
L 113.571594 51.409976 
L 121.266387 51.735051 
L 128.863364 52.198094 
L 131.928331 52.611954 
L 134.132057 53.123695 
L 135.906792 53.759003 
L 137.382127 54.53016 
L 138.570696 55.407558 
L 139.570124 56.436219 
L 140.376591 57.602571 
L 140.996913 58.885817 
L 141.475442 60.369954 
L 141.818025 62.155992 
L 142.00753 64.345602 
L 142.025554 67.256864 
L 141.790103 72.519056 
L 141.233666 80.87128 
L 140.828653 83.490552 
L 140.329855 85.367571 
L 139.695882 86.910483 
L 138.963152 88.13489 
L 138.063105 89.198322 
L 137.070909 90.036651 
L 135.868379 90.757809 
L 134.453183 91.335545 
L 132.744394 91.77489 
L 130.754607 92.052025 
L 128.124281 92.177626 
L 124.322121 92.109299 
L 114.276612 91.617428 
L 110.899271 91.267329 
L 108.645287 90.816008 
L 106.960407 90.260934 
L 105.595212 89.580865 
L 104.477157 88.769699 
L 103.594944 87.854898 
L 102.891734 86.813068 
L 102.33673 85.601842 
L 101.922319 84.167264 
L 101.648625 82.383848 
L 101.539534 80.130752 
L 101.623531 76.756567 
L 102.141872 67.99635 
L 102.497901 65.33182 
L 102.958662 63.49261 
L 103.53136 62.085399 
L 104.237555 60.935808 
L 105.082465 59.994885 
L 106.039837 59.254939 
L 107.175371 58.652946 
L 108.532466 58.184855 
L 110.213691 57.849672 
L 112.320744 57.668388 
L 115.227736 57.658519 
L 121.626967 57.928727 
L 126.954588 58.289104 
L 129.265138 58.66359 
L 130.955312 59.155836 
L 132.246563 59.756196 
L 133.280988 60.479546 
L 134.101096 61.323886 
L 134.740182 62.296264 
L 134.953358 62.730831 
L 134.953358 62.730831 
" clip-path="url(#p6a73bac9ee)" style="fill: none; stroke: #ff7f0e; stroke-width: 1.5; stroke-linecap: round"/>
   </g>
   <g id="patch_3">
    <path d="M 46.64 147.04 
L 46.64 10.8 
" style="fill: none; stroke: #ffffff; stroke-width: 0.8; stroke-linejoin: miter; stroke-linecap: square"/>
   </g>
   <g id="patch_4">
    <path d="M 205.2 147.04 
L 205.2 10.8 
" style="fill: none; stroke: #ffffff; stroke-width: 0.8; stroke-linejoin: miter; stroke-linecap: square"/>
   </g>
   <g id="patch_5">
    <path d="M 46.64 147.04 
L 205.2 147.04 
" style="fill: none; stroke: #ffffff; stroke-width: 0.8; stroke-linejoin: miter; stroke-linecap: square"/>
   </g>
   <g id="patch_6">
    <path d="M 46.64 10.8 
L 205.2 10.8 
" style="fill: none; stroke: #ffffff; stroke-width: 0.8; stroke-linejoin: miter; stroke-linecap: square"/>
   </g>
  </g>
 </g>
 <defs>
  <clipPath id="p6a73bac9ee">
   <rect x="46.64" y="10.8" width="158.56" height="136.24"/>
  </clipPath>
 </defs>
</svg>
