<?xml version="1.0" encoding="utf-8" standalone="no"?>
<!DOCTYPE svg PUBLIC "-//W3C//DTD SVG 1.1//EN"
  "http://www.w3.org/Graphics/SVG/1.1/DTD/svg11.dtd">
<svg xmlns:xlink="http://www.w3.org/1999/xlink" width="216pt" height="180pt" viewBox="0 0 216 180" xmlns="http://www.w3.org/2000/svg" version="1.1">
 <metadata>
  <rdf:RDF xmlns:dc="http://purl.org/dc/elements/1.1/" xmlns:cc="http://creativecommons.org/ns#" xmlns:rdf="http://www.w3.org/1999/02/22-rdf-syntax-ns#">
   <cc:Work>
    <dc:type rdf:resource="http://purl.org/dc/dcmitype/StillImage"/>
    <dc:date>2023-06-14T18:42:12.718603</dc:date>
    <dc:format>image/svg+xml</dc:format>
    <dc:creator>
     <cc:Agent>
      <dc:title>Matplotlib v3.7.0, https://matplotlib.org/</dc:title>
     </cc:Agent>
    </dc:creator>
   </cc:Work>
  </rdf:RDF>
 </metadata>
 <defs>
  <style type="text/css">*{stroke-linejoin: round; stroke-linecap: butt}</style>
 </defs>
 <g id="figure_1">
  <g id="patch_1">
   <path d="M 0 180 
L 216 180 
L 216 0 
L 0 0 
z
" style="fill: #ffffff"/>
  </g>
  <g id="axes_1">
   <g id="patch_2">
    <path d="M 47.72 147.04 
L 200.062569 147.04 
L 200.062569 10.8 
L 47.72 10.8 
L 47.72 147.04 
z
" style="fill: none"/>
   </g>
   <g id="matplotlib.axis_1">
    <g id="xtick_1">
     <g id="line2d_1">
      <path d="M 54.644662 147.04 
L 54.644662 10.8 
" clip-path="url(#p5cf4b2a286)" style="fill: none; stroke: #d3d3d3; stroke-width: 0.8; stroke-linecap: round"/>
     </g>
     <g id="text_1">
      <!-- 0 -->
      <g style="fill: #808080" transform="translate(51.463412 161.638438) scale(0.1 -0.1)">
       <defs>
        <path id="DejaVuSans-30" d="M 2034 4250 
Q 1547 4250 1301 3770 
Q 1056 3291 1056 2328 
Q 1056 1369 1301 889 
Q 1547 409 2034 409 
Q 2525 409 2770 889 
Q 3016 1369 3016 2328 
Q 3016 3291 2770 3770 
Q 2525 4250 2034 4250 
z
M 2034 4750 
Q 2819 4750 3233 4129 
Q 3647 3509 3647 2328 
Q 3647 1150 3233 529 
Q 2819 -91 2034 -91 
Q 1250 -91 836 529 
Q 422 1150 422 2328 
Q 422 3509 836 4129 
Q 1250 4750 2034 4750 
z
" transform="scale(0.015625)"/>
       </defs>
       <use xlink:href="#DejaVuSans-30"/>
      </g>
     </g>
    </g>
    <g id="xtick_2">
     <g id="line2d_2">
      <path d="M 100.839874 147.04 
L 100.839874 10.8 
" clip-path="url(#p5cf4b2a286)" style="fill: none; stroke: #d3d3d3; stroke-width: 0.8; stroke-linecap: round"/>
     </g>
     <g id="text_2">
      <!-- 500 -->
      <g style="fill: #808080" transform="translate(91.296124 161.638438) scale(0.1 -0.1)">
       <defs>
        <path id="DejaVuSans-35" d="M 691 4666 
L 3169 4666 
L 3169 4134 
L 1269 4134 
L 1269 2991 
Q 1406 3038 1543 3061 
Q 1681 3084 1819 3084 
Q 2600 3084 3056 2656 
Q 3513 2228 3513 1497 
Q 3513 744 3044 326 
Q 2575 -91 1722 -91 
Q 1428 -91 1123 -41 
Q 819 9 494 109 
L 494 744 
Q 775 591 1075 516 
Q 1375 441 1709 441 
Q 2250 441 2565 725 
Q 2881 1009 2881 1497 
Q 2881 1984 2565 2268 
Q 2250 2553 1709 2553 
Q 1456 2553 1204 2497 
Q 953 2441 691 2322 
L 691 4666 
z
" transform="scale(0.015625)"/>
       </defs>
       <use xlink:href="#DejaVuSans-35"/>
       <use xlink:href="#DejaVuSans-30" x="63.623047"/>
       <use xlink:href="#DejaVuSans-30" x="127.246094"/>
      </g>
     </g>
    </g>
    <g id="xtick_3">
     <g id="line2d_3">
      <path d="M 147.035085 147.04 
L 147.035085 10.8 
" clip-path="url(#p5cf4b2a286)" style="fill: none; stroke: #d3d3d3; stroke-width: 0.8; stroke-linecap: round"/>
     </g>
     <g id="text_3">
      <!-- 1000 -->
      <g style="fill: #808080" transform="translate(134.310085 161.638438) scale(0.1 -0.1)">
       <defs>
        <path id="DejaVuSans-31" d="M 794 531 
L 1825 531 
L 1825 4091 
L 703 3866 
L 703 4441 
L 1819 4666 
L 2450 4666 
L 2450 531 
L 3481 531 
L 3481 0 
L 794 0 
L 794 531 
z
" transform="scale(0.015625)"/>
       </defs>
       <use xlink:href="#DejaVuSans-31"/>
       <use xlink:href="#DejaVuSans-30" x="63.623047"/>
       <use xlink:href="#DejaVuSans-30" x="127.246094"/>
       <use xlink:href="#DejaVuSans-30" x="190.869141"/>
      </g>
     </g>
    </g>
    <g id="xtick_4">
     <g id="line2d_4">
      <path d="M 193.230297 147.04 
L 193.230297 10.8 
" clip-path="url(#p5cf4b2a286)" style="fill: none; stroke: #d3d3d3; stroke-width: 0.8; stroke-linecap: round"/>
     </g>
     <g id="text_4">
      <!-- 1500 -->
      <g style="fill: #808080" transform="translate(180.505297 161.638438) scale(0.1 -0.1)">
       <use xlink:href="#DejaVuSans-31"/>
       <use xlink:href="#DejaVuSans-35" x="63.623047"/>
       <use xlink:href="#DejaVuSans-30" x="127.246094"/>
       <use xlink:href="#DejaVuSans-30" x="190.869141"/>
      </g>
     </g>
    </g>
    <g id="text_5">
     <!-- time -->
     <g style="fill: #262626" transform="translate(112.595191 175.316563) scale(0.1 -0.1)">
      <defs>
       <path id="DejaVuSans-74" d="M 1172 4494 
L 1172 3500 
L 2356 3500 
L 2356 3053 
L 1172 3053 
L 1172 1153 
Q 1172 725 1289 603 
Q 1406 481 1766 481 
L 2356 481 
L 2356 0 
L 1766 0 
Q 1100 0 847 248 
Q 594 497 594 1153 
L 594 3053 
L 172 3053 
L 172 3500 
L 594 3500 
L 594 4494 
L 1172 4494 
z
" transform="scale(0.015625)"/>
       <path id="DejaVuSans-69" d="M 603 3500 
L 1178 3500 
L 1178 0 
L 603 0 
L 603 3500 
z
M 603 4863 
L 1178 4863 
L 1178 4134 
L 603 4134 
L 603 4863 
z
" transform="scale(0.015625)"/>
       <path id="DejaVuSans-6d" d="M 3328 2828 
Q 3544 3216 3844 3400 
Q 4144 3584 4550 3584 
Q 5097 3584 5394 3201 
Q 5691 2819 5691 2113 
L 5691 0 
L 5113 0 
L 5113 2094 
Q 5113 2597 4934 2840 
Q 4756 3084 4391 3084 
Q 3944 3084 3684 2787 
Q 3425 2491 3425 1978 
L 3425 0 
L 2847 0 
L 2847 2094 
Q 2847 2600 2669 2842 
Q 2491 3084 2119 3084 
Q 1678 3084 1418 2786 
Q 1159 2488 1159 1978 
L 1159 0 
L 581 0 
L 581 3500 
L 1159 3500 
L 1159 2956 
Q 1356 3278 1631 3431 
Q 1906 3584 2284 3584 
Q 2666 3584 2933 3390 
Q 3200 3197 3328 2828 
z
" transform="scale(0.015625)"/>
       <path id="DejaVuSans-65" d="M 3597 1894 
L 3597 1613 
L 953 1613 
Q 991 1019 1311 708 
Q 1631 397 2203 397 
Q 2534 397 2845 478 
Q 3156 559 3463 722 
L 3463 178 
Q 3153 47 2828 -22 
Q 2503 -91 2169 -91 
Q 1331 -91 842 396 
Q 353 884 353 1716 
Q 353 2575 817 3079 
Q 1281 3584 2069 3584 
Q 2775 3584 3186 3129 
Q 3597 2675 3597 1894 
z
M 3022 2063 
Q 3016 2534 2758 2815 
Q 2500 3097 2075 3097 
Q 1594 3097 1305 2825 
Q 1016 2553 972 2059 
L 3022 2063 
z
" transform="scale(0.015625)"/>
      </defs>
      <use xlink:href="#DejaVuSans-74"/>
      <use xlink:href="#DejaVuSans-69" x="39.208984"/>
      <use xlink:href="#DejaVuSans-6d" x="66.992188"/>
      <use xlink:href="#DejaVuSans-65" x="164.404297"/>
     </g>
    </g>
   </g>
   <g id="matplotlib.axis_2">
    <g id="ytick_1">
     <g id="line2d_5">
      <path d="M 47.72 140.754959 
L 200.062569 140.754959 
" clip-path="url(#p5cf4b2a286)" style="fill: none; stroke: #d3d3d3; stroke-width: 0.8; stroke-linecap: round"/>
     </g>
     <g id="text_6">
      <!-- 0.0 -->
      <g style="fill: #808080" transform="translate(24.816875 144.554177) scale(0.1 -0.1)">
       <defs>
        <path id="DejaVuSans-2e" d="M 684 794 
L 1344 794 
L 1344 0 
L 684 0 
L 684 794 
z
" transform="scale(0.015625)"/>
       </defs>
       <use xlink:href="#DejaVuSans-30"/>
       <use xlink:href="#DejaVuSans-2e" x="63.623047"/>
       <use xlink:href="#DejaVuSans-30" x="95.410156"/>
      </g>
     </g>
    </g>
    <g id="ytick_2">
     <g id="line2d_6">
      <path d="M 47.72 115.99013 
L 200.062569 115.99013 
" clip-path="url(#p5cf4b2a286)" style="fill: none; stroke: #d3d3d3; stroke-width: 0.8; stroke-linecap: round"/>
     </g>
     <g id="text_7">
      <!-- 0.2 -->
      <g style="fill: #808080" transform="translate(24.816875 119.789349) scale(0.1 -0.1)">
       <defs>
        <path id="DejaVuSans-32" d="M 1228 531 
L 3431 531 
L 3431 0 
L 469 0 
L 469 531 
Q 828 903 1448 1529 
Q 2069 2156 2228 2338 
Q 2531 2678 2651 2914 
Q 2772 3150 2772 3378 
Q 2772 3750 2511 3984 
Q 2250 4219 1831 4219 
Q 1534 4219 1204 4116 
Q 875 4013 500 3803 
L 500 4441 
Q 881 4594 1212 4672 
Q 1544 4750 1819 4750 
Q 2544 4750 2975 4387 
Q 3406 4025 3406 3419 
Q 3406 3131 3298 2873 
Q 3191 2616 2906 2266 
Q 2828 2175 2409 1742 
Q 1991 1309 1228 531 
z
" transform="scale(0.015625)"/>
       </defs>
       <use xlink:href="#DejaVuSans-30"/>
       <use xlink:href="#DejaVuSans-2e" x="63.623047"/>
       <use xlink:href="#DejaVuSans-32" x="95.410156"/>
      </g>
     </g>
    </g>
    <g id="ytick_3">
     <g id="line2d_7">
      <path d="M 47.72 91.225301 
L 200.062569 91.225301 
" clip-path="url(#p5cf4b2a286)" style="fill: none; stroke: #d3d3d3; stroke-width: 0.8; stroke-linecap: round"/>
     </g>
     <g id="text_8">
      <!-- 0.4 -->
      <g style="fill: #808080" transform="translate(24.816875 95.02452) scale(0.1 -0.1)">
       <defs>
        <path id="DejaVuSans-34" d="M 2419 4116 
L 825 1625 
L 2419 1625 
L 2419 4116 
z
M 2253 4666 
L 3047 4666 
L 3047 1625 
L 3713 1625 
L 3713 1100 
L 3047 1100 
L 3047 0 
L 2419 0 
L 2419 1100 
L 313 1100 
L 313 1709 
L 2253 4666 
z
" transform="scale(0.015625)"/>
       </defs>
       <use xlink:href="#DejaVuSans-30"/>
       <use xlink:href="#DejaVuSans-2e" x="63.623047"/>
       <use xlink:href="#DejaVuSans-34" x="95.410156"/>
      </g>
     </g>
    </g>
    <g id="ytick_4">
     <g id="line2d_8">
      <path d="M 47.72 66.460473 
L 200.062569 66.460473 
" clip-path="url(#p5cf4b2a286)" style="fill: none; stroke: #d3d3d3; stroke-width: 0.8; stroke-linecap: round"/>
     </g>
     <g id="text_9">
      <!-- 0.6 -->
      <g style="fill: #808080" transform="translate(24.816875 70.259691) scale(0.1 -0.1)">
       <defs>
        <path id="DejaVuSans-36" d="M 2113 2584 
Q 1688 2584 1439 2293 
Q 1191 2003 1191 1497 
Q 1191 994 1439 701 
Q 1688 409 2113 409 
Q 2538 409 2786 701 
Q 3034 994 3034 1497 
Q 3034 2003 2786 2293 
Q 2538 2584 2113 2584 
z
M 3366 4563 
L 3366 3988 
Q 3128 4100 2886 4159 
Q 2644 4219 2406 4219 
Q 1781 4219 1451 3797 
Q 1122 3375 1075 2522 
Q 1259 2794 1537 2939 
Q 1816 3084 2150 3084 
Q 2853 3084 3261 2657 
Q 3669 2231 3669 1497 
Q 3669 778 3244 343 
Q 2819 -91 2113 -91 
Q 1303 -91 875 529 
Q 447 1150 447 2328 
Q 447 3434 972 4092 
Q 1497 4750 2381 4750 
Q 2619 4750 2861 4703 
Q 3103 4656 3366 4563 
z
" transform="scale(0.015625)"/>
       </defs>
       <use xlink:href="#DejaVuSans-30"/>
       <use xlink:href="#DejaVuSans-2e" x="63.623047"/>
       <use xlink:href="#DejaVuSans-36" x="95.410156"/>
      </g>
     </g>
    </g>
    <g id="ytick_5">
     <g id="line2d_9">
      <path d="M 47.72 41.695644 
L 200.062569 41.695644 
" clip-path="url(#p5cf4b2a286)" style="fill: none; stroke: #d3d3d3; stroke-width: 0.8; stroke-linecap: round"/>
     </g>
     <g id="text_10">
      <!-- 0.8 -->
      <g style="fill: #808080" transform="translate(24.816875 45.494863) scale(0.1 -0.1)">
       <defs>
        <path id="DejaVuSans-38" d="M 2034 2216 
Q 1584 2216 1326 1975 
Q 1069 1734 1069 1313 
Q 1069 891 1326 650 
Q 1584 409 2034 409 
Q 2484 409 2743 651 
Q 3003 894 3003 1313 
Q 3003 1734 2745 1975 
Q 2488 2216 2034 2216 
z
M 1403 2484 
Q 997 2584 770 2862 
Q 544 3141 544 3541 
Q 544 4100 942 4425 
Q 1341 4750 2034 4750 
Q 2731 4750 3128 4425 
Q 3525 4100 3525 3541 
Q 3525 3141 3298 2862 
Q 3072 2584 2669 2484 
Q 3125 2378 3379 2068 
Q 3634 1759 3634 1313 
Q 3634 634 3220 271 
Q 2806 -91 2034 -91 
Q 1263 -91 848 271 
Q 434 634 434 1313 
Q 434 1759 690 2068 
Q 947 2378 1403 2484 
z
M 1172 3481 
Q 1172 3119 1398 2916 
Q 1625 2713 2034 2713 
Q 2441 2713 2670 2916 
Q 2900 3119 2900 3481 
Q 2900 3844 2670 4047 
Q 2441 4250 2034 4250 
Q 1625 4250 1398 4047 
Q 1172 3844 1172 3481 
z
" transform="scale(0.015625)"/>
       </defs>
       <use xlink:href="#DejaVuSans-30"/>
       <use xlink:href="#DejaVuSans-2e" x="63.623047"/>
       <use xlink:href="#DejaVuSans-38" x="95.410156"/>
      </g>
     </g>
    </g>
    <g id="ytick_6">
     <g id="line2d_10">
      <path d="M 47.72 16.930815 
L 200.062569 16.930815 
" clip-path="url(#p5cf4b2a286)" style="fill: none; stroke: #d3d3d3; stroke-width: 0.8; stroke-linecap: round"/>
     </g>
     <g id="text_11">
      <!-- 1.0 -->
      <g style="fill: #808080" transform="translate(24.816875 20.730034) scale(0.1 -0.1)">
       <use xlink:href="#DejaVuSans-31"/>
       <use xlink:href="#DejaVuSans-2e" x="63.623047"/>
       <use xlink:href="#DejaVuSans-30" x="95.410156"/>
      </g>
     </g>
    </g>
    <g id="text_12">
     <!-- population -->
     <g style="fill: #262626" transform="translate(18.737188 105.527031) rotate(-90) scale(0.1 -0.1)">
      <defs>
       <path id="DejaVuSans-70" d="M 1159 525 
L 1159 -1331 
L 581 -1331 
L 581 3500 
L 1159 3500 
L 1159 2969 
Q 1341 3281 1617 3432 
Q 1894 3584 2278 3584 
Q 2916 3584 3314 3078 
Q 3713 2572 3713 1747 
Q 3713 922 3314 415 
Q 2916 -91 2278 -91 
Q 1894 -91 1617 61 
Q 1341 213 1159 525 
z
M 3116 1747 
Q 3116 2381 2855 2742 
Q 2594 3103 2138 3103 
Q 1681 3103 1420 2742 
Q 1159 2381 1159 1747 
Q 1159 1113 1420 752 
Q 1681 391 2138 391 
Q 2594 391 2855 752 
Q 3116 1113 3116 1747 
z
" transform="scale(0.015625)"/>
       <path id="DejaVuSans-6f" d="M 1959 3097 
Q 1497 3097 1228 2736 
Q 959 2375 959 1747 
Q 959 1119 1226 758 
Q 1494 397 1959 397 
Q 2419 397 2687 759 
Q 2956 1122 2956 1747 
Q 2956 2369 2687 2733 
Q 2419 3097 1959 3097 
z
M 1959 3584 
Q 2709 3584 3137 3096 
Q 3566 2609 3566 1747 
Q 3566 888 3137 398 
Q 2709 -91 1959 -91 
Q 1206 -91 779 398 
Q 353 888 353 1747 
Q 353 2609 779 3096 
Q 1206 3584 1959 3584 
z
" transform="scale(0.015625)"/>
       <path id="DejaVuSans-75" d="M 544 1381 
L 544 3500 
L 1119 3500 
L 1119 1403 
Q 1119 906 1312 657 
Q 1506 409 1894 409 
Q 2359 409 2629 706 
Q 2900 1003 2900 1516 
L 2900 3500 
L 3475 3500 
L 3475 0 
L 2900 0 
L 2900 538 
Q 2691 219 2414 64 
Q 2138 -91 1772 -91 
Q 1169 -91 856 284 
Q 544 659 544 1381 
z
M 1991 3584 
L 1991 3584 
z
" transform="scale(0.015625)"/>
       <path id="DejaVuSans-6c" d="M 603 4863 
L 1178 4863 
L 1178 0 
L 603 0 
L 603 4863 
z
" transform="scale(0.015625)"/>
       <path id="DejaVuSans-61" d="M 2194 1759 
Q 1497 1759 1228 1600 
Q 959 1441 959 1056 
Q 959 750 1161 570 
Q 1363 391 1709 391 
Q 2188 391 2477 730 
Q 2766 1069 2766 1631 
L 2766 1759 
L 2194 1759 
z
M 3341 1997 
L 3341 0 
L 2766 0 
L 2766 531 
Q 2569 213 2275 61 
Q 1981 -91 1556 -91 
Q 1019 -91 701 211 
Q 384 513 384 1019 
Q 384 1609 779 1909 
Q 1175 2209 1959 2209 
L 2766 2209 
L 2766 2266 
Q 2766 2663 2505 2880 
Q 2244 3097 1772 3097 
Q 1472 3097 1187 3025 
Q 903 2953 641 2809 
L 641 3341 
Q 956 3463 1253 3523 
Q 1550 3584 1831 3584 
Q 2591 3584 2966 3190 
Q 3341 2797 3341 1997 
z
" transform="scale(0.015625)"/>
       <path id="DejaVuSans-6e" d="M 3513 2113 
L 3513 0 
L 2938 0 
L 2938 2094 
Q 2938 2591 2744 2837 
Q 2550 3084 2163 3084 
Q 1697 3084 1428 2787 
Q 1159 2491 1159 1978 
L 1159 0 
L 581 0 
L 581 3500 
L 1159 3500 
L 1159 2956 
Q 1366 3272 1645 3428 
Q 1925 3584 2291 3584 
Q 2894 3584 3203 3211 
Q 3513 2838 3513 2113 
z
" transform="scale(0.015625)"/>
      </defs>
      <use xlink:href="#DejaVuSans-70"/>
      <use xlink:href="#DejaVuSans-6f" x="63.476562"/>
      <use xlink:href="#DejaVuSans-70" x="124.658203"/>
      <use xlink:href="#DejaVuSans-75" x="188.134766"/>
      <use xlink:href="#DejaVuSans-6c" x="251.513672"/>
      <use xlink:href="#DejaVuSans-61" x="279.296875"/>
      <use xlink:href="#DejaVuSans-74" x="340.576172"/>
      <use xlink:href="#DejaVuSans-69" x="379.785156"/>
      <use xlink:href="#DejaVuSans-6f" x="407.568359"/>
      <use xlink:href="#DejaVuSans-6e" x="468.75"/>
     </g>
    </g>
   </g>
   <g id="line2d_11">
    <path d="M 54.644662 16.992727 
L 59.079403 17.205484 
L 61.758725 17.541522 
L 63.698924 18.000054 
L 65.269561 18.601244 
L 66.563027 19.332881 
L 67.671712 20.200332 
L 68.688007 21.256132 
L 69.704301 22.634873 
L 70.720596 24.424156 
L 71.6445 26.493839 
L 72.660795 29.365526 
L 73.677089 32.979752 
L 74.693384 37.453403 
L 75.802069 43.418843 
L 77.003145 51.201497 
L 78.389001 61.728734 
L 80.698762 81.381814 
L 82.731351 97.958746 
L 84.117207 107.472598 
L 85.318283 114.19887 
L 86.426968 119.170359 
L 87.443262 122.794992 
L 88.459557 125.665267 
L 89.475852 127.919278 
L 90.492146 129.68284 
L 91.600831 131.171998 
L 92.801907 132.397005 
L 94.095373 133.382886 
L 95.481229 134.162008 
L 97.144257 134.831481 
L 99.084456 135.365261 
L 101.486607 135.790796 
L 104.720272 136.12206 
L 109.339793 136.348836 
L 117.008198 136.471489 
L 136.410187 136.490017 
L 193.137906 136.418067 
L 193.137906 136.418067 
" clip-path="url(#p5cf4b2a286)" style="fill: none; stroke: #ff7f0e; stroke-opacity: 0.5; stroke-width: 1.5; stroke-linecap: round"/>
   </g>
   <g id="line2d_12">
    <path d="M 54.644662 16.992727 
L 58.894622 17.621427 
L 61.851115 18.161311 
L 63.606533 18.706915 
L 64.99239 19.377242 
L 66.101075 20.148646 
L 67.117369 21.111884 
L 68.133664 22.398628 
L 69.057568 23.925877 
L 69.981472 25.874443 
L 70.905377 28.329199 
L 71.921671 31.717169 
L 72.937966 35.92947 
L 74.046651 41.565361 
L 75.247727 48.962567 
L 76.541192 58.389809 
L 78.20422 72.26754 
L 81.160714 97.16302 
L 82.361789 105.356501 
L 83.470474 111.514549 
L 84.579159 116.45708 
L 85.687844 120.411013 
L 86.796529 123.58418 
L 87.905215 126.130995 
L 89.0139 128.162195 
L 90.122585 129.764298 
L 91.32366 131.102792 
L 92.524736 132.112189 
L 93.818202 132.91744 
L 95.296448 133.575668 
L 97.051866 134.107091 
L 99.269237 134.531703 
L 102.22573 134.853996 
L 106.56808 135.082182 
L 113.959314 135.218403 
L 132.529789 135.271113 
L 193.137906 135.344091 
L 193.137906 135.344091 
" clip-path="url(#p5cf4b2a286)" style="fill: none; stroke-dasharray: 5.55,2.4; stroke-dashoffset: 0; stroke: #1f77b4; stroke-width: 1.5"/>
   </g>
   <g id="line2d_13">
    <path d="M 54.644662 140.705429 
L 60.188088 140.523888 
L 63.236972 140.212302 
L 65.361951 139.774922 
L 67.024979 139.204913 
L 68.410835 138.493784 
L 69.611911 137.633285 
L 70.720596 136.573703 
L 71.829281 135.19354 
L 72.937966 133.425834 
L 74.046651 131.211928 
L 75.247727 128.274254 
L 76.633583 124.235134 
L 80.791152 111.553956 
L 81.622666 109.94282 
L 82.269399 109.102914 
L 82.823741 108.693875 
L 83.378084 108.576136 
L 83.840036 108.695387 
L 84.394378 109.084796 
L 85.041111 109.847183 
L 85.872625 111.238431 
L 86.98131 113.622284 
L 88.829119 118.260297 
L 91.416051 124.630348 
L 93.079078 128.106641 
L 94.557325 130.690209 
L 95.943181 132.694821 
L 97.329038 134.337054 
L 98.807284 135.745615 
L 100.377922 136.920588 
L 102.040949 137.875378 
L 103.888758 138.666243 
L 105.921347 139.291446 
L 108.323498 139.795932 
L 111.372382 140.195375 
L 115.34517 140.478211 
L 121.350548 140.65968 
L 132.899351 140.742717 
L 189.996632 140.754958 
L 193.137906 140.754958 
L 193.137906 140.754958 
" clip-path="url(#p5cf4b2a286)" style="fill: none; stroke: #ff7f0e; stroke-opacity: 0.5; stroke-width: 1.5; stroke-linecap: round"/>
   </g>
   <g id="line2d_14">
    <path d="M 54.644662 140.705429 
L 62.035896 140.038203 
L 64.068485 139.589966 
L 65.639123 139.027322 
L 67.024979 138.28768 
L 68.226054 137.388655 
L 69.334739 136.281712 
L 70.443425 134.847845 
L 71.55211 133.032848 
L 72.753185 130.593586 
L 74.046651 127.409785 
L 75.524898 123.152336 
L 79.497686 111.306756 
L 80.3292 109.702095 
L 80.975933 108.897874 
L 81.530275 108.548168 
L 81.992227 108.497926 
L 82.45418 108.657733 
L 83.008522 109.103948 
L 83.655255 109.928783 
L 84.486769 111.370248 
L 85.687844 113.956243 
L 88.921509 121.759109 
L 90.861708 126.004367 
L 92.524736 129.103816 
L 94.095373 131.548727 
L 95.57362 133.450769 
L 97.051866 135.011266 
L 98.622504 136.349681 
L 100.285531 137.468618 
L 102.040949 138.380321 
L 103.981148 139.134387 
L 106.198518 139.74808 
L 108.78545 140.221845 
L 111.926725 140.560837 
L 116.084294 140.771227 
L 122.459233 140.847184 
L 151.746997 140.751016 
L 193.137906 140.74495 
L 193.137906 140.74495 
" clip-path="url(#p5cf4b2a286)" style="fill: none; stroke-dasharray: 5.55,2.4; stroke-dashoffset: 0; stroke: #9467bd; stroke-width: 1.5"/>
   </g>
   <g id="line2d_15">
    <path d="M 54.644662 140.742576 
L 63.606533 140.596298 
L 67.117369 140.333795 
L 69.51952 139.942591 
L 71.367329 139.424414 
L 72.937966 138.758095 
L 74.323822 137.940755 
L 75.709679 136.866521 
L 77.187925 135.423729 
L 79.035734 133.278994 
L 81.622666 130.280786 
L 82.823741 129.242826 
L 83.747645 128.712989 
L 84.579159 128.46498 
L 85.410673 128.438326 
L 86.242187 128.621192 
L 87.258482 129.092895 
L 88.459557 129.923275 
L 90.214975 131.452485 
L 94.280154 135.087369 
L 96.220353 136.48203 
L 98.068161 137.545694 
L 100.00836 138.409247 
L 102.13334 139.108479 
L 104.535491 139.661422 
L 107.399594 140.089067 
L 111.095211 140.406543 
L 116.361465 140.617552 
L 125.508117 140.727855 
L 154.333929 140.754797 
L 193.137906 140.754958 
L 193.137906 140.754958 
" clip-path="url(#p5cf4b2a286)" style="fill: none; stroke: #ff7f0e; stroke-opacity: 0.5; stroke-width: 1.5; stroke-linecap: round"/>
   </g>
   <g id="line2d_16">
    <path d="M 54.644662 140.742576 
L 57.785937 140.322861 
L 63.236972 139.858408 
L 68.133664 139.369076 
L 70.351034 138.932083 
L 72.014062 138.380499 
L 73.399918 137.680275 
L 74.600994 136.831319 
L 75.802069 135.716132 
L 77.187925 134.105518 
L 80.513981 130.040371 
L 81.437885 129.359715 
L 82.269399 129.025872 
L 83.100913 128.939214 
L 84.024817 129.079559 
L 85.133502 129.486355 
L 86.611749 130.292989 
L 88.551947 131.63301 
L 94.834496 136.199675 
L 96.867086 137.285852 
L 98.992065 138.172634 
L 101.301826 138.896599 
L 103.981148 139.497067 
L 107.122423 139.968195 
L 111.095211 140.328772 
L 116.453855 140.574008 
L 124.676603 140.701763 
L 144.910106 140.720194 
L 193.137906 140.714766 
L 193.137906 140.714766 
" clip-path="url(#p5cf4b2a286)" style="fill: none; stroke-dasharray: 5.55,2.4; stroke-dashoffset: 0; stroke: #2ca02c; stroke-width: 1.5"/>
   </g>
   <g id="patch_3">
    <path d="M 47.72 147.04 
L 47.72 10.8 
" style="fill: none; stroke: #ffffff; stroke-width: 0.8; stroke-linejoin: miter; stroke-linecap: square"/>
   </g>
   <g id="patch_4">
    <path d="M 200.062569 147.04 
L 200.062569 10.8 
" style="fill: none; stroke: #ffffff; stroke-width: 0.8; stroke-linejoin: miter; stroke-linecap: square"/>
   </g>
   <g id="patch_5">
    <path d="M 47.72 147.04 
L 200.062569 147.04 
" style="fill: none; stroke: #ffffff; stroke-width: 0.8; stroke-linejoin: miter; stroke-linecap: square"/>
   </g>
   <g id="patch_6">
    <path d="M 47.72 10.8 
L 200.062569 10.8 
" style="fill: none; stroke: #ffffff; stroke-width: 0.8; stroke-linejoin: miter; stroke-linecap: square"/>
   </g>
  </g>
 </g>
 <defs>
  <clipPath id="p5cf4b2a286">
   <rect x="47.72" y="10.8" width="152.342569" height="136.24"/>
  </clipPath>
 </defs>
</svg>
