<?xml version="1.0" encoding="utf-8" standalone="no"?>
<!DOCTYPE svg PUBLIC "-//W3C//DTD SVG 1.1//EN"
  "http://www.w3.org/Graphics/SVG/1.1/DTD/svg11.dtd">
<svg xmlns:xlink="http://www.w3.org/1999/xlink" width="216pt" height="180pt" viewBox="0 0 216 180" xmlns="http://www.w3.org/2000/svg" version="1.1">
 <metadata>
  <rdf:RDF xmlns:dc="http://purl.org/dc/elements/1.1/" xmlns:cc="http://creativecommons.org/ns#" xmlns:rdf="http://www.w3.org/1999/02/22-rdf-syntax-ns#">
   <cc:Work>
    <dc:type rdf:resource="http://purl.org/dc/dcmitype/StillImage"/>
    <dc:date>2023-06-14T18:38:13.129805</dc:date>
    <dc:format>image/svg+xml</dc:format>
    <dc:creator>
     <cc:Agent>
      <dc:title>Matplotlib v3.7.0, https://matplotlib.org/</dc:title>
     </cc:Agent>
    </dc:creator>
   </cc:Work>
  </rdf:RDF>
 </metadata>
 <defs>
  <style type="text/css">*{stroke-linejoin: round; stroke-linecap: butt}</style>
 </defs>
 <g id="figure_1">
  <g id="patch_1">
   <path d="M 0 180 
L 216 180 
L 216 0 
L 0 0 
z
" style="fill: #ffffff"/>
  </g>
  <g id="axes_1">
   <g id="patch_2">
    <path d="M 46.64 147.04 
L 205.2 147.04 
L 205.2 10.8 
L 46.64 10.8 
L 46.64 147.04 
z
" style="fill: none"/>
   </g>
   <g id="matplotlib.axis_1">
    <g id="xtick_1">
     <g id="line2d_1">
      <path d="M 83.248284 147.04 
L 83.248284 10.8 
" clip-path="url(#pf038978a6e)" style="fill: none; stroke: #d3d3d3; stroke-width: 0.8; stroke-linecap: round"/>
     </g>
     <g id="text_1">
      <!-- −1 -->
      <g style="fill: #808080" transform="translate(75.877191 161.638438) scale(0.1 -0.1)">
       <defs>
        <path id="DejaVuSans-2212" d="M 678 2272 
L 4684 2272 
L 4684 1741 
L 678 1741 
L 678 2272 
z
" transform="scale(0.015625)"/>
        <path id="DejaVuSans-31" d="M 794 531 
L 1825 531 
L 1825 4091 
L 703 3866 
L 703 4441 
L 1819 4666 
L 2450 4666 
L 2450 531 
L 3481 531 
L 3481 0 
L 794 0 
L 794 531 
z
" transform="scale(0.015625)"/>
       </defs>
       <use xlink:href="#DejaVuSans-2212"/>
       <use xlink:href="#DejaVuSans-31" x="83.789062"/>
      </g>
     </g>
    </g>
    <g id="xtick_2">
     <g id="line2d_2">
      <path d="M 121.496432 147.04 
L 121.496432 10.8 
" clip-path="url(#pf038978a6e)" style="fill: none; stroke: #d3d3d3; stroke-width: 0.8; stroke-linecap: round"/>
     </g>
     <g id="text_2">
      <!-- 0 -->
      <g style="fill: #808080" transform="translate(118.315182 161.638438) scale(0.1 -0.1)">
       <defs>
        <path id="DejaVuSans-30" d="M 2034 4250 
Q 1547 4250 1301 3770 
Q 1056 3291 1056 2328 
Q 1056 1369 1301 889 
Q 1547 409 2034 409 
Q 2525 409 2770 889 
Q 3016 1369 3016 2328 
Q 3016 3291 2770 3770 
Q 2525 4250 2034 4250 
z
M 2034 4750 
Q 2819 4750 3233 4129 
Q 3647 3509 3647 2328 
Q 3647 1150 3233 529 
Q 2819 -91 2034 -91 
Q 1250 -91 836 529 
Q 422 1150 422 2328 
Q 422 3509 836 4129 
Q 1250 4750 2034 4750 
z
" transform="scale(0.015625)"/>
       </defs>
       <use xlink:href="#DejaVuSans-30"/>
      </g>
     </g>
    </g>
    <g id="xtick_3">
     <g id="line2d_3">
      <path d="M 159.74458 147.04 
L 159.74458 10.8 
" clip-path="url(#pf038978a6e)" style="fill: none; stroke: #d3d3d3; stroke-width: 0.8; stroke-linecap: round"/>
     </g>
     <g id="text_3">
      <!-- 1 -->
      <g style="fill: #808080" transform="translate(156.56333 161.638438) scale(0.1 -0.1)">
       <use xlink:href="#DejaVuSans-31"/>
      </g>
     </g>
    </g>
    <g id="xtick_4">
     <g id="line2d_4">
      <path d="M 197.992727 147.04 
L 197.992727 10.8 
" clip-path="url(#pf038978a6e)" style="fill: none; stroke: #d3d3d3; stroke-width: 0.8; stroke-linecap: round"/>
     </g>
     <g id="text_4">
      <!-- 2 -->
      <g style="fill: #808080" transform="translate(194.811477 161.638438) scale(0.1 -0.1)">
       <defs>
        <path id="DejaVuSans-32" d="M 1228 531 
L 3431 531 
L 3431 0 
L 469 0 
L 469 531 
Q 828 903 1448 1529 
Q 2069 2156 2228 2338 
Q 2531 2678 2651 2914 
Q 2772 3150 2772 3378 
Q 2772 3750 2511 3984 
Q 2250 4219 1831 4219 
Q 1534 4219 1204 4116 
Q 875 4013 500 3803 
L 500 4441 
Q 881 4594 1212 4672 
Q 1544 4750 1819 4750 
Q 2544 4750 2975 4387 
Q 3406 4025 3406 3419 
Q 3406 3131 3298 2873 
Q 3191 2616 2906 2266 
Q 2828 2175 2409 1742 
Q 1991 1309 1228 531 
z
" transform="scale(0.015625)"/>
       </defs>
       <use xlink:href="#DejaVuSans-32"/>
      </g>
     </g>
    </g>
    <g id="text_5">
     <!-- x -->
     <g style="fill: #262626" transform="translate(122.960625 175.316563) scale(0.1 -0.1)">
      <defs>
       <path id="DejaVuSans-78" d="M 3513 3500 
L 2247 1797 
L 3578 0 
L 2900 0 
L 1881 1375 
L 863 0 
L 184 0 
L 1544 1831 
L 300 3500 
L 978 3500 
L 1906 2253 
L 2834 3500 
L 3513 3500 
z
" transform="scale(0.015625)"/>
      </defs>
      <use xlink:href="#DejaVuSans-78"/>
     </g>
    </g>
   </g>
   <g id="matplotlib.axis_2">
    <g id="ytick_1">
     <g id="line2d_5">
      <path d="M 46.64 141.164966 
L 205.2 141.164966 
" clip-path="url(#pf038978a6e)" style="fill: none; stroke: #d3d3d3; stroke-width: 0.8; stroke-linecap: round"/>
     </g>
     <g id="text_6">
      <!-- −2 -->
      <g style="fill: #808080" transform="translate(24.897813 144.964185) scale(0.1 -0.1)">
       <use xlink:href="#DejaVuSans-2212"/>
       <use xlink:href="#DejaVuSans-32" x="83.789062"/>
      </g>
     </g>
    </g>
    <g id="ytick_2">
     <g id="line2d_6">
      <path d="M 46.64 107.869296 
L 205.2 107.869296 
" clip-path="url(#pf038978a6e)" style="fill: none; stroke: #d3d3d3; stroke-width: 0.8; stroke-linecap: round"/>
     </g>
     <g id="text_7">
      <!-- −1 -->
      <g style="fill: #808080" transform="translate(24.897813 111.668514) scale(0.1 -0.1)">
       <use xlink:href="#DejaVuSans-2212"/>
       <use xlink:href="#DejaVuSans-31" x="83.789062"/>
      </g>
     </g>
    </g>
    <g id="ytick_3">
     <g id="line2d_7">
      <path d="M 46.64 74.573625 
L 205.2 74.573625 
" clip-path="url(#pf038978a6e)" style="fill: none; stroke: #d3d3d3; stroke-width: 0.8; stroke-linecap: round"/>
     </g>
     <g id="text_8">
      <!-- 0 -->
      <g style="fill: #808080" transform="translate(33.2775 78.372844) scale(0.1 -0.1)">
       <use xlink:href="#DejaVuSans-30"/>
      </g>
     </g>
    </g>
    <g id="ytick_4">
     <g id="line2d_8">
      <path d="M 46.64 41.277955 
L 205.2 41.277955 
" clip-path="url(#pf038978a6e)" style="fill: none; stroke: #d3d3d3; stroke-width: 0.8; stroke-linecap: round"/>
     </g>
     <g id="text_9">
      <!-- 1 -->
      <g style="fill: #808080" transform="translate(33.2775 45.077174) scale(0.1 -0.1)">
       <use xlink:href="#DejaVuSans-31"/>
      </g>
     </g>
    </g>
    <g id="text_10">
     <!-- y -->
     <g style="fill: #262626" transform="translate(18.818125 81.879375) rotate(-90) scale(0.1 -0.1)">
      <defs>
       <path id="DejaVuSans-79" d="M 2059 -325 
Q 1816 -950 1584 -1140 
Q 1353 -1331 966 -1331 
L 506 -1331 
L 506 -850 
L 844 -850 
Q 1081 -850 1212 -737 
Q 1344 -625 1503 -206 
L 1606 56 
L 191 3500 
L 800 3500 
L 1894 763 
L 2988 3500 
L 3597 3500 
L 2059 -325 
z
" transform="scale(0.015625)"/>
      </defs>
      <use xlink:href="#DejaVuSans-79"/>
     </g>
    </g>
   </g>
   <g id="line2d_9">
    <path d="M 197.992727 74.573625 
L 194.212369 87.711512 
L 191.627991 95.913747 
L 188.820932 103.678421 
L 187.278681 107.387124 
L 185.614888 110.9697 
L 183.809389 114.415213 
L 181.844035 117.710526 
L 179.70313 120.840733 
L 177.373767 123.789711 
L 174.846073 126.540795 
L 172.113387 129.077567 
L 169.172401 131.384735 
L 166.023258 133.449054 
L 162.66963 135.260241 
L 159.118746 136.811766 
L 155.381355 138.101436 
L 151.471572 139.131645 
L 147.406587 139.909228 
L 143.206223 140.444908 
L 138.89235 140.752398 
L 134.488224 140.847273 
L 130.017801 140.745796 
L 125.505125 140.463846 
L 120.973841 140.016066 
L 116.446867 139.415321 
L 111.946249 138.672436 
L 107.493157 137.796207 
L 103.107999 136.793578 
L 98.810592 135.669935 
L 94.620352 134.429423 
L 90.55646 133.075248 
L 86.637943 131.609929 
L 82.883672 130.035495 
L 79.312213 128.353621 
L 75.941549 126.565741 
L 72.788642 124.673146 
L 69.868859 122.677086 
L 67.195291 120.578911 
L 64.778034 118.380223 
L 62.623479 116.083074 
L 60.733726 113.690154 
L 59.106196 111.204971 
L 57.733512 108.631986 
L 56.603685 105.976663 
L 55.70062 103.245438 
L 55.004886 100.445589 
L 54.494699 97.585026 
L 54.147014 94.672019 
L 53.938636 91.714915 
L 53.852452 85.700586 
L 54.083984 79.601376 
L 54.529872 73.467259 
L 55.145376 67.340986 
L 55.944727 61.264619 
L 56.994194 55.288267 
L 57.64461 52.357528 
L 58.399235 49.478251 
L 59.274384 46.661995 
L 60.286288 43.921525 
L 61.450324 41.270539 
L 62.780238 38.723234 
L 64.287425 36.29375 
L 65.980308 33.995508 
L 67.863864 31.840503 
L 69.939342 29.838623 
L 72.204202 27.997058 
L 74.652277 26.319885 
L 77.274149 24.807866 
L 80.057692 23.45851 
L 82.988735 22.266384 
L 86.051775 21.223638 
L 89.230675 20.320705 
L 92.50928 19.547085 
L 95.871918 18.89214 
L 102.790936 17.899432 
L 109.881263 17.280116 
L 117.050864 17.003194 
L 124.215131 17.071037 
L 131.287655 17.511525 
L 134.760122 17.883684 
L 138.172894 18.363501 
L 141.512202 18.954809 
L 144.763746 19.660191 
L 147.912957 20.480699 
L 150.945331 21.41572 
L 153.846819 22.462953 
L 156.604234 23.618517 
L 159.205668 24.877136 
L 161.640871 26.232387 
L 163.901591 27.676972 
L 165.981836 29.202985 
L 167.878057 30.802165 
L 169.589226 32.466107 
L 171.116826 34.186439 
L 172.464728 35.954962 
L 173.63899 37.76376 
L 174.647576 39.605279 
L 175.500026 41.472395 
L 176.207085 43.358457 
L 176.780334 45.257328 
L 177.573733 49.071651 
L 177.976466 52.877265 
L 178.078526 56.644955 
L 177.95803 60.353873 
L 177.494709 65.77914 
L 176.821103 71.020931 
L 175.731565 77.719212 
L 174.463642 84.092747 
L 173.362902 88.658612 
L 172.080023 93.027047 
L 170.55601 97.171741 
L 169.37675 99.791904 
L 168.048444 102.281797 
L 166.558218 104.626594 
L 164.896715 106.811476 
L 163.058684 108.822758 
L 161.043302 110.649034 
L 158.854215 112.282212 
L 156.499271 113.71831 
L 153.98998 114.957895 
L 151.340763 116.006108 
L 148.568046 116.87225 
L 145.689314 117.569003 
L 142.722218 118.111374 
L 138.142873 118.670825 
L 133.455029 118.972534 
L 128.703079 119.062216 
L 122.330253 118.906938 
L 115.982308 118.468543 
L 111.280324 117.950554 
L 106.666249 117.253074 
L 102.180535 116.352973 
L 97.871231 115.224909 
L 93.793151 113.845741 
L 91.231795 112.778012 
L 88.816531 111.587962 
L 86.563544 110.274693 
L 84.487013 108.839476 
L 82.598225 107.285771 
L 80.9048 105.619127 
L 79.41013 103.846978 
L 78.113106 101.978352 
L 77.008158 100.023495 
L 76.085632 97.993452 
L 75.332433 95.899623 
L 74.732885 93.753325 
L 74.083646 90.459022 
L 73.681081 87.103916 
L 73.431616 82.582688 
L 73.413279 78.05118 
L 73.616427 72.423938 
L 74.044119 66.885843 
L 74.590371 62.558147 
L 75.163862 59.39939 
L 75.919247 56.341701 
L 76.896237 53.414604 
L 78.131781 50.651442 
L 79.114073 48.917475 
L 80.230518 47.281438 
L 81.484285 45.751969 
L 82.875536 44.33609 
L 84.401387 43.038754 
L 86.056075 41.862516 
L 87.831321 40.807388 
L 89.716845 39.870874 
L 92.726134 38.677503 
L 95.915135 37.716072 
L 99.242444 36.956924 
L 103.830014 36.204992 
L 108.525052 35.687954 
L 114.465841 35.294237 
L 120.42113 35.135022 
L 126.333444 35.215943 
L 130.987789 35.488918 
L 135.524543 35.992139 
L 138.813169 36.548116 
L 141.97001 37.2763 
L 144.96151 38.189272 
L 147.753943 39.293425 
L 150.316265 40.587958 
L 152.623012 42.064742 
L 154.656761 43.709031 
L 156.409707 45.500827 
L 157.88411 47.416638 
L 159.0916 49.431346 
L 160.051553 51.519928 
L 160.788891 53.658866 
L 161.331697 55.827157 
L 161.80289 58.733436 
L 162.045358 61.627292 
L 162.113408 65.192648 
L 161.962748 69.361401 
L 161.517156 74.70492 
L 160.865416 79.79566 
L 160.102305 84.035696 
L 159.250208 87.491941 
L 158.357052 90.224126 
L 157.261951 92.796006 
L 156.2212 94.719072 
L 155.022471 96.506415 
L 153.660033 98.144184 
L 152.133503 99.621079 
L 150.447936 100.929616 
L 148.613393 102.067023 
L 146.644036 103.035618 
L 144.556902 103.84262 
L 141.810618 104.64181 
L 138.945494 105.235227 
L 135.39712 105.721051 
L 131.164889 106.043938 
L 126.27304 106.176348 
L 120.764251 106.097239 
L 115.305901 105.790533 
L 111.139147 105.361237 
L 107.093788 104.713871 
L 103.774304 103.943075 
L 101.15258 103.122971 
L 98.69799 102.12521 
L 96.443606 100.941215 
L 94.803969 99.85905 
L 93.32268 98.660286 
L 92.007171 97.35148 
L 90.860184 95.94201 
L 89.879583 94.443447 
L 88.877144 92.464834 
L 88.102247 90.393942 
L 87.526644 88.256629 
L 87.054584 85.63686 
L 86.73744 82.546166 
L 86.587609 78.576101 
L 86.660641 73.796053 
L 86.958583 69.146948 
L 87.411771 65.479172 
L 87.950508 62.743122 
L 88.582585 60.505375 
L 89.404187 58.39251 
L 90.252299 56.746159 
L 91.260049 55.219518 
L 92.431958 53.825304 
L 93.76631 52.572886 
L 95.255247 51.467228 
L 96.885573 50.508349 
L 99.004248 49.544261 
L 101.267992 48.767905 
L 104.046717 48.069105 
L 107.344099 47.493381 
L 111.140008 47.059859 
L 115.826872 46.745406 
L 121.361296 46.596327 
L 126.414714 46.674834 
L 130.535052 46.957708 
L 133.723454 47.379795 
L 136.392253 47.927263 
L 138.905977 48.6658 
L 140.905123 49.462647 
L 142.734529 50.413972 
L 144.374001 51.515657 
L 145.810147 52.756905 
L 147.037766 54.121346 
L 148.060115 55.588764 
L 148.888096 57.137075 
L 149.63118 59.01632 
L 150.227592 61.221088 
L 150.64019 63.727174 
L 150.861574 66.495858 
L 150.90165 70.016719 
L 150.716362 74.184376 
L 150.313986 78.394435 
L 149.795823 81.680322 
L 149.161266 84.343479 
L 148.456271 86.429944 
L 147.558998 88.369073 
L 146.568258 89.965788 
L 145.395026 91.402642 
L 144.199346 92.534044 
L 142.690934 93.635577 
L 141.026327 94.555459 
L 139.228436 95.301225 
L 137.105868 95.943436 
L 134.659814 96.454456 
L 131.673398 96.847649 
L 127.927554 97.10518 
L 123.220231 97.196323 
L 118.079232 97.073816 
L 113.954469 96.76318 
L 110.632951 96.288275 
L 108.104341 95.716682 
L 105.932419 95.011684 
L 104.114966 94.204211 
L 102.477179 93.231873 
L 101.176006 92.21833 
L 100.04946 91.082522 
L 99.100397 89.838318 
L 98.248 88.350125 
L 97.592452 86.776357 
L 97.070366 84.977845 
L 96.6732 82.802796 
L 96.426717 80.108791 
L 96.363702 76.784901 
L 96.520473 72.768003 
L 96.869961 69.249586 
L 97.336244 66.647841 
L 97.908963 64.613229 
L 98.63438 62.853393 
L 99.497311 61.364597 
L 100.465957 60.132638 
L 101.599278 59.049286 
L 102.887322 58.119871 
L 104.436621 57.284416 
L 106.25132 56.570984 
L 108.461571 55.96219 
L 111.05751 55.488632 
L 114.305159 55.127717 
L 118.611299 54.882873 
L 123.470619 54.824643 
L 127.365322 54.990271 
L 130.286295 55.329589 
L 132.655193 55.825012 
L 134.605694 56.457109 
L 136.260966 57.228569 
L 137.626304 58.105736 
L 138.80062 59.125037 
L 139.777445 60.26845 
L 140.61044 61.604111 
L 141.275704 63.119228 
L 141.766096 64.790102 
L 142.117376 66.786281 
L 142.31371 69.26503 
L 142.324331 72.342334 
L 142.114433 75.990051 
L 141.725801 79.066261 
L 141.231927 81.298899 
L 140.621579 83.07056 
L 139.876328 84.550497 
L 139.028097 85.753856 
L 138.013475 86.805312 
L 136.840143 87.695545 
L 135.456621 88.456266 
L 133.871184 89.072966 
L 131.945846 89.577696 
L 129.610048 89.954944 
L 126.558415 90.21068 
L 122.419941 90.319624 
L 118.010728 90.220972 
L 114.844103 89.939809 
L 112.513614 89.522646 
L 110.631503 88.968424 
L 109.120213 88.302627 
L 107.849226 87.504673 
L 106.817315 86.601025 
L 105.974067 85.576245 
L 105.29017 84.400707 
L 104.756199 83.037508 
L 104.37635 81.451269 
L 104.149859 79.502675 
L 104.104366 77.08149 
L 104.279401 73.978217 
L 104.656959 71.008607 
L 105.135261 68.880348 
L 105.711361 67.276601 
L 106.402607 65.989689 
L 107.221273 64.928694 
L 108.201782 64.028369 
L 109.365842 63.271895 
L 110.737772 62.650544 
L 112.425013 62.139115 
L 114.541408 61.741621 
L 117.362087 61.454092 
L 121.263117 61.294501 
L 124.904518 61.352077 
L 127.408777 61.603871 
L 129.284965 62.008752 
L 130.77265 62.552258 
L 131.578494 62.973433 
L 131.578494 62.973433 
" clip-path="url(#pf038978a6e)" style="fill: none; stroke: #1f77b4; stroke-width: 1.5; stroke-linecap: round"/>
   </g>
   <g id="line2d_10">
    <path d="M 197.992727 74.573625 
L 197.030669 90.263392 
L 196.610267 95.345679 
L 196.059408 100.325329 
L 195.312542 105.168647 
L 194.298314 109.830081 
L 192.94562 114.253871 
L 191.190965 118.377924 
L 188.986257 122.139824 
L 186.305612 125.484274 
L 183.14953 128.370576 
L 179.545228 130.778483 
L 175.542874 132.710995 
L 171.20861 134.193544 
L 166.616091 135.26999 
L 161.838393 135.996648 
L 156.941696 136.435794 
L 151.981378 136.649841 
L 147.000439 136.696871 
L 137.089606 136.484266 
L 113.082776 135.472219 
L 99.289984 134.716189 
L 94.831343 134.346436 
L 90.472599 133.868479 
L 86.241631 133.24787 
L 82.172262 132.449528 
L 78.302827 131.440185 
L 74.673868 130.191103 
L 71.325051 128.680757 
L 68.291644 126.897104 
L 65.601054 124.839 
L 63.269982 122.516476 
L 61.30271 119.949767 
L 59.690796 117.167248 
L 58.414157 114.202657 
L 57.443272 111.09209 
L 56.742032 107.871209 
L 56.270761 104.573012 
L 55.988996 101.22632 
L 55.857774 97.854982 
L 55.908146 91.108294 
L 56.36819 81.125885 
L 57.511914 61.904194 
L 58.03439 55.747994 
L 58.81685 49.787032 
L 59.358313 46.909087 
L 60.029899 44.120284 
L 60.853444 41.438827 
L 61.848817 38.884193 
L 63.032646 36.476149 
L 64.417136 34.233588 
L 66.009113 32.173271 
L 67.809429 30.308636 
L 69.812824 28.648785 
L 72.008278 27.197808 
L 74.379827 25.954512 
L 76.907714 24.912576 
L 79.569747 24.061102 
L 82.342691 23.38545 
L 85.20354 22.868251 
L 88.130575 22.49047 
L 94.107163 22.07458 
L 100.147084 21.986788 
L 109.156725 22.195957 
L 129.500007 23.062373 
L 140.633353 23.687259 
L 146.007321 24.173424 
L 151.182699 24.878884 
L 156.079217 25.890416 
L 158.393181 26.536746 
L 160.600742 27.288567 
L 162.689448 28.152722 
L 164.647685 29.134004 
L 166.465253 30.234873 
L 168.1339 31.45529 
L 169.647771 32.7927 
L 171.003718 34.242148 
L 172.20146 35.796548 
L 173.243568 37.447053 
L 174.135293 39.183504 
L 174.884248 40.99492 
L 175.500002 42.869977 
L 175.993606 44.797452 
L 176.663046 48.767434 
L 176.992598 52.829296 
L 177.078371 56.924559 
L 176.928604 63.045934 
L 176.286998 75.008699 
L 175.416911 88.403325 
L 174.808488 93.900779 
L 174.212285 97.433372 
L 173.398967 100.817528 
L 172.314478 104.008183 
L 170.912718 106.956527 
L 170.082188 108.324854 
L 169.161792 109.615377 
L 168.150581 110.823479 
L 167.048976 111.945412 
L 165.858765 112.978439 
L 164.583038 113.920944 
L 163.22607 114.772487 
L 160.290421 116.206816 
L 157.102781 117.300566 
L 153.720248 118.087644 
L 150.199446 118.611854 
L 146.591388 118.921595 
L 141.10552 119.088745 
L 133.79865 118.974504 
L 119.556822 118.392464 
L 105.919139 117.694477 
L 101.015382 117.266941 
L 96.302098 116.629848 
L 93.306246 116.043651 
L 90.461622 115.297912 
L 87.799685 114.370419 
L 85.351109 113.244774 
L 83.142899 111.912214 
L 81.19558 110.37271 
L 79.52095 108.635096 
L 78.120815 106.716147 
L 76.986919 104.638787 
L 76.102015 102.429752 
L 75.441805 100.117144 
L 74.977339 97.728239 
L 74.579429 94.055044 
L 74.448317 90.333075 
L 74.531857 85.374184 
L 74.963748 76.853108 
L 75.853465 62.852658 
L 76.340795 58.403029 
L 76.879324 55.186096 
L 77.630851 52.114942 
L 78.278383 50.17178 
L 79.06053 48.329762 
L 79.989034 46.604086 
L 81.071792 45.008872 
L 82.312186 43.556146 
L 83.708742 42.254907 
L 85.255203 41.110418 
L 86.940998 40.123801 
L 88.75206 39.291992 
L 90.67188 38.608046 
L 93.716473 37.83627 
L 96.905609 37.329342 
L 100.184698 37.036823 
L 104.620499 36.893042 
L 110.166466 36.960761 
L 121.020335 37.388365 
L 134.522442 38.060171 
L 139.469504 38.503978 
L 143.256413 39.047276 
L 145.956193 39.608717 
L 148.500667 40.331814 
L 150.856762 41.238384 
L 152.993306 42.342973 
L 154.884552 43.65092 
L 156.513352 45.157509 
L 157.873315 46.848466 
L 158.969521 48.701716 
L 159.817671 50.690032 
L 160.441996 52.784006 
L 160.872426 54.95479 
L 161.201222 57.923987 
L 161.325241 61.686966 
L 161.222862 66.193345 
L 160.710448 75.715533 
L 160.038961 85.523358 
L 159.530913 89.525959 
L 159.026102 92.080738 
L 158.338064 94.508272 
L 157.42717 96.771792 
L 156.578737 98.33896 
L 155.579154 99.777748 
L 154.425379 101.075812 
L 153.119858 102.224348 
L 151.670355 103.218896 
L 150.089269 104.059719 
L 148.392532 104.75172 
L 145.981804 105.458971 
L 143.442511 105.948062 
L 140.151665 106.307785 
L 136.120962 106.467231 
L 130.739399 106.4033 
L 119.606248 105.951419 
L 109.60308 105.419287 
L 105.43741 105.004164 
L 102.044813 104.451014 
L 99.396971 103.79744 
L 97.42983 103.122846 
L 95.622961 102.29895 
L 93.997424 101.318766 
L 92.569156 100.182252 
L 91.347127 98.896418 
L 90.332336 97.474555 
L 89.517795 95.934742 
L 88.889476 94.297916 
L 88.335994 92.148615 
L 87.99795 89.922023 
L 87.810063 87.19614 
L 87.80499 83.540741 
L 88.068417 77.682265 
L 88.877882 65.222437 
L 89.354766 61.590641 
L 89.940706 58.913004 
L 90.651984 56.76576 
L 91.421857 55.110811 
L 92.369781 53.602087 
L 93.503209 52.258932 
L 94.8203 51.095168 
L 96.310036 50.117312 
L 97.953599 49.323787 
L 99.726711 48.705253 
L 101.987459 48.171442 
L 104.750359 47.790604 
L 107.995835 47.597608 
L 112.083619 47.590442 
L 119.322122 47.847869 
L 131.947454 48.492603 
L 135.88677 48.922942 
L 138.588538 49.416571 
L 140.791603 50.018453 
L 142.802017 50.808189 
L 144.34299 51.647944 
L 145.695531 52.641257 
L 146.847965 53.78287 
L 147.797416 55.060143 
L 148.550078 56.454699 
L 149.120232 57.944698 
L 149.582236 59.773172 
L 149.889904 61.940077 
L 150.031842 64.703166 
L 149.974254 68.299604 
L 149.5553 76.104505 
L 149.052716 83.028472 
L 148.636245 85.944477 
L 148.09218 88.239709 
L 147.482041 89.950707 
L 146.687065 91.518649 
L 145.82608 92.751316 
L 144.806693 93.838067 
L 143.633375 94.769202 
L 142.318155 95.541643 
L 140.664647 96.23537 
L 138.882302 96.742812 
L 136.766252 97.120768 
L 134.084261 97.362442 
L 130.614713 97.430505 
L 125.210004 97.276544 
L 112.608501 96.648131 
L 109.139359 96.261153 
L 106.503942 95.744648 
L 104.46184 95.112965 
L 102.798242 94.356725 
L 101.485487 93.518317 
L 100.364397 92.531804 
L 99.441737 91.407542 
L 98.713999 90.163118 
L 98.117867 88.666638 
L 97.68704 86.920099 
L 97.43227 84.941381 
L 97.336744 82.423323 
L 97.439858 78.743069 
L 98.023565 68.983118 
L 98.397281 65.676733 
L 98.868466 63.410002 
L 99.43921 61.700958 
L 100.151016 60.265118 
L 100.976384 59.094369 
L 101.971497 58.081356 
L 103.129473 57.236575 
L 104.433552 56.56136 
L 105.994534 56.008643 
L 107.807953 55.602622 
L 110.001386 55.337526 
L 112.849628 55.225105 
L 117.042786 55.30434 
L 128.175427 55.823882 
L 131.758227 56.185663 
L 134.105529 56.631775 
L 135.911393 57.185002 
L 137.418602 57.878788 
L 138.633127 58.68927 
L 139.578788 59.580153 
L 140.344455 60.592775 
L 140.974368 61.798907 
L 141.446045 63.194148 
L 141.767739 64.862009 
L 141.932548 66.987324 
L 141.911876 69.839901 
L 141.568216 76.266347 
L 141.16149 81.321904 
L 140.758955 83.598482 
L 140.236323 85.299629 
L 139.604947 86.619001 
L 138.832687 87.717712 
L 137.945042 88.601984 
L 136.908688 89.331157 
L 135.663682 89.935785 
L 134.13148 90.417753 
L 132.317174 90.746216 
L 129.975695 90.92764 
L 126.784242 90.932205 
L 119.61466 90.645554 
L 114.01934 90.288962 
L 111.466575 89.906622 
L 109.63313 89.415275 
L 108.195769 88.802223 
L 107.069301 88.082148 
L 106.180383 87.255491 
L 105.476448 86.303906 
L 104.928559 85.192781 
L 104.528656 83.877792 
L 104.274741 82.252663 
L 104.184063 80.154362 
L 104.294911 76.839848 
L 104.818909 69.111116 
L 105.192519 66.92566 
L 105.667214 65.407294 
L 106.260541 64.221982 
L 106.978436 63.26782 
L 107.860856 62.471033 
L 108.895737 61.83987 
L 110.157114 61.339233 
L 111.68785 60.979376 
L 113.63156 60.763343 
L 116.285292 60.7121 
L 121.280924 60.889508 
L 128.027011 61.292364 
L 130.258533 61.652632 
L 131.850008 62.122477 
L 133.089448 62.716533 
L 134.035609 63.410958 
L 134.769239 64.215648 
L 135.339504 65.165792 
L 135.339504 65.165792 
" clip-path="url(#pf038978a6e)" style="fill: none; stroke: #ff7f0e; stroke-opacity: 0.5; stroke-width: 1.5; stroke-linecap: round"/>
   </g>
   <g id="patch_3">
    <path d="M 46.64 147.04 
L 46.64 10.8 
" style="fill: none; stroke: #ffffff; stroke-width: 0.8; stroke-linejoin: miter; stroke-linecap: square"/>
   </g>
   <g id="patch_4">
    <path d="M 205.2 147.04 
L 205.2 10.8 
" style="fill: none; stroke: #ffffff; stroke-width: 0.8; stroke-linejoin: miter; stroke-linecap: square"/>
   </g>
   <g id="patch_5">
    <path d="M 46.64 147.04 
L 205.2 147.04 
" style="fill: none; stroke: #ffffff; stroke-width: 0.8; stroke-linejoin: miter; stroke-linecap: square"/>
   </g>
   <g id="patch_6">
    <path d="M 46.64 10.8 
L 205.2 10.8 
" style="fill: none; stroke: #ffffff; stroke-width: 0.8; stroke-linejoin: miter; stroke-linecap: square"/>
   </g>
  </g>
 </g>
 <defs>
  <clipPath id="pf038978a6e">
   <rect x="46.64" y="10.8" width="158.56" height="136.24"/>
  </clipPath>
 </defs>
</svg>
