<?xml version="1.0" encoding="utf-8" standalone="no"?>
<!DOCTYPE svg PUBLIC "-//W3C//DTD SVG 1.1//EN"
  "http://www.w3.org/Graphics/SVG/1.1/DTD/svg11.dtd">
<svg xmlns:xlink="http://www.w3.org/1999/xlink" width="216pt" height="180pt" viewBox="0 0 216 180" xmlns="http://www.w3.org/2000/svg" version="1.1">
 <metadata>
  <rdf:RDF xmlns:dc="http://purl.org/dc/elements/1.1/" xmlns:cc="http://creativecommons.org/ns#" xmlns:rdf="http://www.w3.org/1999/02/22-rdf-syntax-ns#">
   <cc:Work>
    <dc:type rdf:resource="http://purl.org/dc/dcmitype/StillImage"/>
    <dc:date>2023-06-14T18:37:02.250596</dc:date>
    <dc:format>image/svg+xml</dc:format>
    <dc:creator>
     <cc:Agent>
      <dc:title>Matplotlib v3.7.0, https://matplotlib.org/</dc:title>
     </cc:Agent>
    </dc:creator>
   </cc:Work>
  </rdf:RDF>
 </metadata>
 <defs>
  <style type="text/css">*{stroke-linejoin: round; stroke-linecap: butt}</style>
 </defs>
 <g id="figure_1">
  <g id="patch_1">
   <path d="M 0 180 
L 216 180 
L 216 0 
L 0 0 
z
" style="fill: #ffffff"/>
  </g>
  <g id="axes_1">
   <g id="patch_2">
    <path d="M 46.64 147.04 
L 205.2 147.04 
L 205.2 10.8 
L 46.64 10.8 
L 46.64 147.04 
z
" style="fill: none"/>
   </g>
   <g id="matplotlib.axis_1">
    <g id="xtick_1">
     <g id="line2d_1">
      <path d="M 82.060141 147.04 
L 82.060141 10.8 
" clip-path="url(#paf48b083f3)" style="fill: none; stroke: #d3d3d3; stroke-width: 0.8; stroke-linecap: round"/>
     </g>
     <g id="text_1">
      <!-- −1 -->
      <g style="fill: #808080" transform="translate(74.689047 161.638438) scale(0.1 -0.1)">
       <defs>
        <path id="DejaVuSans-2212" d="M 678 2272 
L 4684 2272 
L 4684 1741 
L 678 1741 
L 678 2272 
z
" transform="scale(0.015625)"/>
        <path id="DejaVuSans-31" d="M 794 531 
L 1825 531 
L 1825 4091 
L 703 3866 
L 703 4441 
L 1819 4666 
L 2450 4666 
L 2450 531 
L 3481 531 
L 3481 0 
L 794 0 
L 794 531 
z
" transform="scale(0.015625)"/>
       </defs>
       <use xlink:href="#DejaVuSans-2212"/>
       <use xlink:href="#DejaVuSans-31" x="83.789062"/>
      </g>
     </g>
    </g>
    <g id="xtick_2">
     <g id="line2d_2">
      <path d="M 120.704336 147.04 
L 120.704336 10.8 
" clip-path="url(#paf48b083f3)" style="fill: none; stroke: #d3d3d3; stroke-width: 0.8; stroke-linecap: round"/>
     </g>
     <g id="text_2">
      <!-- 0 -->
      <g style="fill: #808080" transform="translate(117.523086 161.638438) scale(0.1 -0.1)">
       <defs>
        <path id="DejaVuSans-30" d="M 2034 4250 
Q 1547 4250 1301 3770 
Q 1056 3291 1056 2328 
Q 1056 1369 1301 889 
Q 1547 409 2034 409 
Q 2525 409 2770 889 
Q 3016 1369 3016 2328 
Q 3016 3291 2770 3770 
Q 2525 4250 2034 4250 
z
M 2034 4750 
Q 2819 4750 3233 4129 
Q 3647 3509 3647 2328 
Q 3647 1150 3233 529 
Q 2819 -91 2034 -91 
Q 1250 -91 836 529 
Q 422 1150 422 2328 
Q 422 3509 836 4129 
Q 1250 4750 2034 4750 
z
" transform="scale(0.015625)"/>
       </defs>
       <use xlink:href="#DejaVuSans-30"/>
      </g>
     </g>
    </g>
    <g id="xtick_3">
     <g id="line2d_3">
      <path d="M 159.348532 147.04 
L 159.348532 10.8 
" clip-path="url(#paf48b083f3)" style="fill: none; stroke: #d3d3d3; stroke-width: 0.8; stroke-linecap: round"/>
     </g>
     <g id="text_3">
      <!-- 1 -->
      <g style="fill: #808080" transform="translate(156.167282 161.638438) scale(0.1 -0.1)">
       <use xlink:href="#DejaVuSans-31"/>
      </g>
     </g>
    </g>
    <g id="xtick_4">
     <g id="line2d_4">
      <path d="M 197.992727 147.04 
L 197.992727 10.8 
" clip-path="url(#paf48b083f3)" style="fill: none; stroke: #d3d3d3; stroke-width: 0.8; stroke-linecap: round"/>
     </g>
     <g id="text_4">
      <!-- 2 -->
      <g style="fill: #808080" transform="translate(194.811477 161.638438) scale(0.1 -0.1)">
       <defs>
        <path id="DejaVuSans-32" d="M 1228 531 
L 3431 531 
L 3431 0 
L 469 0 
L 469 531 
Q 828 903 1448 1529 
Q 2069 2156 2228 2338 
Q 2531 2678 2651 2914 
Q 2772 3150 2772 3378 
Q 2772 3750 2511 3984 
Q 2250 4219 1831 4219 
Q 1534 4219 1204 4116 
Q 875 4013 500 3803 
L 500 4441 
Q 881 4594 1212 4672 
Q 1544 4750 1819 4750 
Q 2544 4750 2975 4387 
Q 3406 4025 3406 3419 
Q 3406 3131 3298 2873 
Q 3191 2616 2906 2266 
Q 2828 2175 2409 1742 
Q 1991 1309 1228 531 
z
" transform="scale(0.015625)"/>
       </defs>
       <use xlink:href="#DejaVuSans-32"/>
      </g>
     </g>
    </g>
    <g id="text_5">
     <!-- x -->
     <g style="fill: #262626" transform="translate(122.960625 175.316563) scale(0.1 -0.1)">
      <defs>
       <path id="DejaVuSans-78" d="M 3513 3500 
L 2247 1797 
L 3578 0 
L 2900 0 
L 1881 1375 
L 863 0 
L 184 0 
L 1544 1831 
L 300 3500 
L 978 3500 
L 1906 2253 
L 2834 3500 
L 3513 3500 
z
" transform="scale(0.015625)"/>
      </defs>
      <use xlink:href="#DejaVuSans-78"/>
     </g>
    </g>
   </g>
   <g id="matplotlib.axis_2">
    <g id="ytick_1">
     <g id="line2d_5">
      <path d="M 46.64 142.252978 
L 205.2 142.252978 
" clip-path="url(#paf48b083f3)" style="fill: none; stroke: #d3d3d3; stroke-width: 0.8; stroke-linecap: round"/>
     </g>
     <g id="text_6">
      <!-- −2 -->
      <g style="fill: #808080" transform="translate(24.897813 146.052197) scale(0.1 -0.1)">
       <use xlink:href="#DejaVuSans-2212"/>
       <use xlink:href="#DejaVuSans-32" x="83.789062"/>
      </g>
     </g>
    </g>
    <g id="ytick_2">
     <g id="line2d_6">
      <path d="M 46.64 108.87234 
L 205.2 108.87234 
" clip-path="url(#paf48b083f3)" style="fill: none; stroke: #d3d3d3; stroke-width: 0.8; stroke-linecap: round"/>
     </g>
     <g id="text_7">
      <!-- −1 -->
      <g style="fill: #808080" transform="translate(24.897813 112.671559) scale(0.1 -0.1)">
       <use xlink:href="#DejaVuSans-2212"/>
       <use xlink:href="#DejaVuSans-31" x="83.789062"/>
      </g>
     </g>
    </g>
    <g id="ytick_3">
     <g id="line2d_7">
      <path d="M 46.64 75.491701 
L 205.2 75.491701 
" clip-path="url(#paf48b083f3)" style="fill: none; stroke: #d3d3d3; stroke-width: 0.8; stroke-linecap: round"/>
     </g>
     <g id="text_8">
      <!-- 0 -->
      <g style="fill: #808080" transform="translate(33.2775 79.29092) scale(0.1 -0.1)">
       <use xlink:href="#DejaVuSans-30"/>
      </g>
     </g>
    </g>
    <g id="ytick_4">
     <g id="line2d_8">
      <path d="M 46.64 42.111063 
L 205.2 42.111063 
" clip-path="url(#paf48b083f3)" style="fill: none; stroke: #d3d3d3; stroke-width: 0.8; stroke-linecap: round"/>
     </g>
     <g id="text_9">
      <!-- 1 -->
      <g style="fill: #808080" transform="translate(33.2775 45.910281) scale(0.1 -0.1)">
       <use xlink:href="#DejaVuSans-31"/>
      </g>
     </g>
    </g>
    <g id="text_10">
     <!-- y -->
     <g style="fill: #262626" transform="translate(18.818125 81.879375) rotate(-90) scale(0.1 -0.1)">
      <defs>
       <path id="DejaVuSans-79" d="M 2059 -325 
Q 1816 -950 1584 -1140 
Q 1353 -1331 966 -1331 
L 506 -1331 
L 506 -850 
L 844 -850 
Q 1081 -850 1212 -737 
Q 1344 -625 1503 -206 
L 1606 56 
L 191 3500 
L 800 3500 
L 1894 763 
L 2988 3500 
L 3597 3500 
L 2059 -325 
z
" transform="scale(0.015625)"/>
      </defs>
      <use xlink:href="#DejaVuSans-79"/>
     </g>
    </g>
   </g>
   <g id="line2d_9">
    <path d="M 197.992727 75.491701 
L 195.562811 83.871404 
L 192.228292 95.786249 
L 191.019512 99.703898 
L 189.683381 103.615113 
L 188.172948 107.516647 
L 186.443924 111.393684 
L 184.457365 115.219095 
L 182.182811 118.953428 
L 179.601356 122.546228 
L 176.707929 125.939113 
L 173.512074 129.070722 
L 170.036788 131.883064 
L 166.31553 134.328282 
L 162.388058 136.374483 
L 158.296021 138.009426 
L 154.079148 139.241298 
L 149.772515 140.096576 
L 145.404936 140.615653 
L 140.998327 140.847273 
L 136.56775 140.842897 
L 132.121926 140.651825 
L 123.192925 139.875114 
L 114.191447 138.757867 
L 105.072947 137.380854 
L 95.832072 135.665065 
L 91.196108 134.617041 
L 86.590696 133.396221 
L 82.066374 131.96579 
L 77.68978 130.292894 
L 73.539897 128.354472 
L 69.700197 126.142662 
L 66.247527 123.668128 
L 63.240378 120.959882 
L 60.71003 118.061317 
L 58.657273 115.023585 
L 57.055237 111.898392 
L 55.856623 108.732126 
L 55.00259 105.562339 
L 54.430889 102.416587 
L 54.081918 99.312972 
L 53.902432 96.261635 
L 53.879739 90.327112 
L 54.25115 81.797877 
L 55.148016 68.13792 
L 55.626109 62.717154 
L 56.294504 57.272442 
L 57.284654 51.804708 
L 57.947871 49.072368 
L 58.749634 46.352023 
L 59.709093 43.655815 
L 60.843659 40.999089 
L 62.167919 38.400194 
L 63.692582 35.879982 
L 65.42359 33.460977 
L 67.361523 31.166217 
L 69.501421 29.017863 
L 71.83308 27.035703 
L 74.341792 25.235738 
L 77.009448 23.629035 
L 79.815838 22.221008 
L 82.739985 21.011204 
L 85.761369 19.993615 
L 88.860922 19.157419 
L 92.021761 18.488054 
L 95.229644 17.968444 
L 98.473183 17.580266 
L 105.035869 17.125536 
L 111.672684 16.992727 
L 118.379783 17.08792 
L 125.172094 17.367849 
L 132.063619 17.846416 
L 139.04071 18.59582 
L 142.541188 19.109057 
L 146.027919 19.739098 
L 149.476144 20.505269 
L 152.853986 21.425656 
L 156.123225 22.514991 
L 159.241264 23.782468 
L 162.164316 25.229857 
L 164.851457 26.850401 
L 167.268874 28.628822 
L 169.393411 30.542565 
L 171.214651 32.564031 
L 172.735143 34.663334 
L 173.968925 36.810979 
L 174.938862 38.980028 
L 175.673514 41.147502 
L 176.20413 43.295009 
L 176.562181 45.408757 
L 176.877557 49.500111 
L 176.82403 53.383375 
L 176.554283 57.056416 
L 175.75158 63.849414 
L 174.232602 75.978418 
L 172.630732 90.198205 
L 171.890743 94.459959 
L 171.23443 97.297282 
L 170.406517 100.11507 
L 169.372858 102.8906 
L 168.103243 105.593431 
L 166.5744 108.186371 
L 164.772855 110.627708 
L 162.69706 112.874752 
L 160.358195 114.888339 
L 157.779305 116.637549 
L 154.992838 118.103615 
L 152.03708 119.282127 
L 148.952225 120.183033 
L 145.776799 120.828576 
L 142.54497 121.249816 
L 139.284911 121.482599 
L 134.387271 121.558484 
L 129.519368 121.406069 
L 121.516983 120.873884 
L 112.072097 120.015912 
L 104.287926 119.103432 
L 99.670154 118.384462 
L 95.139338 117.455217 
L 92.202832 116.681401 
L 89.367784 115.759133 
L 86.669107 114.670911 
L 84.143923 113.405206 
L 81.827951 111.95826 
L 79.751414 110.334971 
L 77.935325 108.548561 
L 76.38899 106.619032 
L 75.109293 104.570768 
L 74.081803 102.429817 
L 73.283248 100.221428 
L 72.684672 97.9682 
L 72.092825 94.544411 
L 71.776305 91.107555 
L 71.629089 86.54969 
L 71.698841 79.804703 
L 72.049634 69.836476 
L 72.438431 64.334484 
L 72.988159 59.965763 
L 73.620447 56.736696 
L 74.504533 53.58411 
L 75.260581 51.546522 
L 76.165923 49.578265 
L 77.230714 47.696244 
L 78.460967 45.917717 
L 79.857909 44.259206 
L 81.417701 42.735323 
L 83.13159 41.357626 
L 84.986507 40.133705 
L 86.966003 39.066596 
L 89.051426 38.154634 
L 91.223162 37.39174 
L 94.600431 36.504563 
L 98.06867 35.885752 
L 101.578632 35.484216 
L 106.261992 35.199135 
L 112.052835 35.100521 
L 119.987713 35.202387 
L 128.844473 35.515353 
L 134.278544 35.884484 
L 138.53906 36.362098 
L 142.662581 37.080454 
L 145.612871 37.820905 
L 148.389776 38.761546 
L 150.943741 39.915977 
L 153.229233 41.284226 
L 154.586133 42.308626 
L 155.801905 43.414422 
L 156.87411 44.592135 
L 158.217167 46.469754 
L 159.259883 48.44647 
L 160.034287 50.485602 
L 160.580145 52.555418 
L 161.025426 55.320525 
L 161.234564 58.055735 
L 161.278712 62.058669 
L 161.041431 69.689717 
L 160.898948 77.649953 
L 160.775817 86.3119 
L 160.493808 90.106251 
L 160.015137 93.277984 
L 159.40742 95.788446 
L 158.550636 98.235705 
L 157.721095 100.001968 
L 156.717914 101.684489 
L 155.534752 103.260432 
L 154.171531 104.70801 
L 152.63477 106.00838 
L 150.937229 107.147423 
L 149.096889 108.117092 
L 147.135419 108.916071 
L 145.07639 109.549652 
L 142.220065 110.156892 
L 139.284205 110.527801 
L 135.567764 110.727296 
L 131.118263 110.694414 
L 125.295528 110.393756 
L 114.806564 109.576652 
L 107.423964 108.832476 
L 102.883979 108.164006 
L 99.760533 107.516936 
L 96.786218 106.676688 
L 94.552072 105.838226 
L 92.481208 104.83576 
L 90.603654 103.662233 
L 88.943972 102.319323 
L 87.517777 100.817346 
L 86.329556 99.173859 
L 85.372285 97.411277 
L 84.628844 95.554098 
L 84.074687 93.62635 
L 83.604198 91.15006 
L 83.289054 88.124967 
L 83.151369 84.572276 
L 83.194104 79.013428 
L 83.47844 71.539814 
L 83.874382 66.653248 
L 84.36552 63.319275 
L 85.00509 60.560774 
L 85.736761 58.366098 
L 86.679789 56.299156 
L 87.599819 54.759675 
L 88.672021 53.339008 
L 89.894808 52.050903 
L 91.26069 50.905541 
L 92.756841 49.908546 
L 94.366211 49.060478 
L 96.50684 48.202605 
L 98.75255 47.551991 
L 101.531104 47.008076 
L 104.815522 46.634019 
L 108.543279 46.44965 
L 113.522834 46.439654 
L 122.843878 46.696273 
L 130.679291 47.085092 
L 134.728827 47.505964 
L 137.847467 48.064475 
L 140.106364 48.676941 
L 142.178574 49.470307 
L 143.778674 50.302969 
L 145.196793 51.275661 
L 146.421794 52.379856 
L 147.451273 53.600838 
L 148.29179 54.919745 
L 149.05314 56.554702 
L 149.609683 58.263053 
L 150.043921 60.270153 
L 150.3685 62.816421 
L 150.603537 66.644577 
L 151.119894 76.622227 
L 151.673457 85.063605 
L 151.63074 87.924564 
L 151.399837 90.22568 
L 150.998509 92.213673 
L 150.366592 94.137981 
L 149.614597 95.701865 
L 148.653137 97.153946 
L 147.47799 98.464347 
L 146.096155 99.608053 
L 144.525508 100.568161 
L 142.792797 101.338019 
L 140.930412 101.921707 
L 138.639508 102.385941 
L 135.928484 102.672281 
L 132.836492 102.754487 
L 129.086855 102.62695 
L 123.166576 102.167395 
L 111.691795 101.020457 
L 107.269588 100.375416 
L 104.42004 99.757733 
L 102.015092 99.014035 
L 100.044072 98.163933 
L 98.476379 97.250009 
L 97.104125 96.183945 
L 95.940361 94.971906 
L 94.988006 93.628029 
L 94.239358 92.17224 
L 93.619189 90.429273 
L 93.165556 88.400391 
L 92.891074 86.10237 
L 92.777208 83.139418 
L 92.860883 79.137465 
L 93.200836 73.602645 
L 93.655363 69.488603 
L 94.179805 66.707644 
L 94.784206 64.621154 
L 95.52063 62.851742 
L 96.36091 61.38905 
L 97.370795 60.087103 
L 98.545533 58.961489 
L 99.869445 58.019822 
L 101.318072 57.260534 
L 103.019955 56.623373 
L 104.958622 56.137764 
L 107.264484 55.797088 
L 110.043877 55.622145 
L 113.654487 55.634741 
L 119.639771 55.917233 
L 128.540173 56.532642 
L 131.438934 56.950688 
L 133.589532 57.479008 
L 135.253838 58.114042 
L 136.563273 58.840579 
L 137.679748 59.71486 
L 138.600268 60.726652 
L 139.334112 61.857485 
L 139.955652 63.225832 
L 140.468011 64.905851 
L 140.918685 67.208051 
L 143.688206 85.484315 
L 143.628468 87.369288 
L 143.358746 89.007287 
L 142.918421 90.366038 
L 142.317848 91.534398 
L 141.51993 92.588164 
L 140.616284 93.429975 
L 139.455551 94.194427 
L 138.136533 94.789197 
L 136.566927 95.244591 
L 134.764204 95.533761 
L 132.629502 95.650312 
L 129.946171 95.5598 
L 126.5629 95.210436 
L 121.081236 94.387757 
L 113.5453 93.05497 
L 110.59812 92.317429 
L 108.60983 91.599757 
L 107.083678 90.815268 
L 105.904805 89.961904 
L 104.985146 89.029033 
L 104.264923 87.992177 
L 103.711595 86.814793 
L 103.315656 85.45403 
L 103.077567 83.809901 
L 103.025182 81.795198 
L 103.194906 79.248587 
L 103.64166 76.003489 
L 104.26245 73.006781 
L 104.914718 70.898355 
L 105.611458 69.371211 
L 106.37935 68.201401 
L 107.253261 67.265405 
L 108.264623 66.511141 
L 109.422394 65.928496 
L 110.789601 65.496767 
L 112.416731 65.225344 
L 114.403558 65.127732 
L 117.07038 65.23385 
L 122.55062 65.730533 
L 122.55062 65.730533 
" clip-path="url(#paf48b083f3)" style="fill: none; stroke: #1f77b4; stroke-width: 1.5; stroke-linecap: round"/>
   </g>
   <g id="line2d_10">
    <path d="M 197.992727 75.491701 
L 197.020707 91.221507 
L 196.595952 96.316764 
L 196.039389 101.309122 
L 195.284789 106.164799 
L 194.260059 110.838128 
L 192.893359 115.273208 
L 191.120535 119.407785 
L 188.892998 123.179285 
L 186.184595 126.53227 
L 182.995833 129.425938 
L 179.35421 131.839989 
L 175.310412 133.777433 
L 170.931268 135.263765 
L 166.291196 136.342959 
L 161.464026 137.071471 
L 156.516625 137.511738 
L 151.504944 137.726331 
L 146.472429 137.773481 
L 136.458973 137.560334 
L 112.20356 136.545704 
L 98.267947 135.787744 
L 93.763139 135.417048 
L 89.359261 134.937871 
L 85.084483 134.315678 
L 80.972976 133.515299 
L 77.063475 132.503381 
L 73.396939 131.25111 
L 70.013446 129.73691 
L 66.948629 127.948705 
L 64.230178 125.885349 
L 61.874969 123.556899 
L 59.887327 120.98364 
L 58.258722 118.194019 
L 56.968863 115.221863 
L 55.987925 112.103359 
L 55.279424 108.874258 
L 54.803274 105.567644 
L 54.518591 102.212412 
L 54.38601 98.832471 
L 54.436903 92.068565 
L 54.901711 82.060682 
L 56.057278 62.789938 
L 56.585164 56.618028 
L 57.375726 50.641854 
L 57.922796 47.756565 
L 58.601336 44.960645 
L 59.433409 42.272345 
L 60.439089 39.711192 
L 61.635176 37.297003 
L 63.034002 35.048719 
L 64.642463 32.983145 
L 66.461421 31.113751 
L 68.48556 29.449664 
L 70.703748 27.994985 
L 73.099853 26.748515 
L 75.653915 25.703921 
L 78.343514 24.850274 
L 81.14517 24.172897 
L 84.035642 23.654379 
L 86.992986 23.275634 
L 93.03146 22.858683 
L 99.133922 22.770667 
L 108.236856 22.980369 
L 128.790785 23.848996 
L 140.039414 24.475476 
L 145.469028 24.962883 
L 150.697995 25.670143 
L 155.645215 26.684256 
L 157.98314 27.332236 
L 160.213559 28.085975 
L 162.323893 28.952335 
L 164.302407 29.936121 
L 166.138795 31.039799 
L 167.824721 32.263331 
L 169.354267 33.604154 
L 170.724255 35.057301 
L 171.934399 36.615668 
L 172.987299 38.270385 
L 173.888256 40.011267 
L 174.644966 41.827305 
L 175.267096 43.707148 
L 175.765812 45.639541 
L 176.442184 49.619654 
L 176.775148 53.691882 
L 176.86181 57.797596 
L 176.710491 63.934592 
L 176.062241 75.927885 
L 175.183146 89.356694 
L 174.568423 94.868177 
L 173.966046 98.409785 
L 173.144306 101.802576 
L 172.048588 105.001373 
L 170.632312 107.957242 
L 169.793183 109.329061 
L 168.863257 110.622877 
L 167.841574 111.834062 
L 166.728563 112.958858 
L 165.526028 113.994521 
L 164.237091 114.939431 
L 162.866072 115.793148 
L 161.418321 116.556418 
L 158.317983 117.820258 
L 154.991556 118.758077 
L 151.497252 119.409495 
L 147.889972 119.821379 
L 144.217117 120.042715 
L 138.664786 120.118759 
L 131.303762 119.944656 
L 111.772105 119.110601 
L 103.297067 118.597588 
L 98.398767 118.108886 
L 93.718531 117.379835 
L 90.764138 116.715231 
L 87.978358 115.878949 
L 85.392931 114.851373 
L 83.037364 113.6197 
L 80.936001 112.179441 
L 79.1054 110.535063 
L 77.552518 108.699579 
L 76.274031 106.693155 
L 75.256855 104.540995 
L 74.479721 102.270889 
L 73.915412 99.91084 
L 73.533263 97.48711 
L 73.232333 93.781668 
L 73.168226 90.045508 
L 73.302693 85.084774 
L 73.897096 74.194293 
L 74.58875 63.740823 
L 75.081127 59.279839 
L 75.625232 56.054696 
L 76.384541 52.975705 
L 77.038777 51.027584 
L 77.829024 49.180866 
L 78.767142 47.450786 
L 79.861111 45.851501 
L 81.114349 44.395067 
L 82.525367 43.090508 
L 84.087841 41.943099 
L 85.791091 40.953964 
L 87.620906 40.120032 
L 89.560606 39.434341 
L 92.636724 38.660595 
L 95.858882 38.152373 
L 99.171926 37.859108 
L 103.653658 37.71496 
L 109.257052 37.782851 
L 120.223309 38.211547 
L 133.865226 38.885067 
L 138.863514 39.330007 
L 142.689636 39.874691 
L 145.41737 40.437565 
L 147.988192 41.162507 
L 150.368684 42.071391 
L 152.527351 43.178799 
L 154.43818 44.490083 
L 156.083845 46.000518 
L 157.457891 47.69579 
L 158.565447 49.553769 
L 159.42238 51.547159 
L 160.05317 53.646476 
L 160.488057 55.8228 
L 160.820258 58.799575 
L 160.945561 62.572156 
L 160.842121 67.090036 
L 160.324401 76.636523 
L 159.645961 86.469377 
L 159.132653 90.482192 
L 158.622614 93.043491 
L 157.927452 95.47722 
L 157.007126 97.746516 
L 156.149908 99.317684 
L 155.139975 100.760143 
L 153.974253 102.06152 
L 152.655213 103.212987 
L 151.190701 104.210072 
L 149.593243 105.053041 
L 147.878937 105.746808 
L 145.443246 106.455865 
L 142.877661 106.946203 
L 139.552738 107.306844 
L 135.480298 107.466697 
L 130.043011 107.402603 
L 118.79458 106.949569 
L 108.687832 106.416078 
L 104.479028 105.999896 
L 101.051302 105.445335 
L 98.376042 104.790093 
L 96.388532 104.113777 
L 94.562953 103.287779 
L 92.920585 102.305094 
L 91.477527 101.165679 
L 90.242845 99.876564 
L 89.217545 98.451073 
L 88.39457 96.90733 
L 87.759745 95.266327 
L 87.200532 93.111541 
L 86.858987 90.879267 
L 86.669155 88.146428 
L 86.66403 84.481701 
L 86.930184 78.608273 
L 87.748031 66.11665 
L 88.229853 62.475586 
L 88.82186 59.791115 
L 89.540504 57.638392 
L 90.318349 55.979219 
L 91.276088 54.466645 
L 92.421252 53.120063 
L 93.751981 51.953328 
L 95.257142 50.972977 
L 96.917725 50.177427 
L 98.709196 49.557315 
L 100.993354 49.022142 
L 103.784863 48.640332 
L 107.063944 48.446843 
L 111.194057 48.439659 
L 118.507511 48.697742 
L 131.263575 49.344122 
L 135.243681 49.775559 
L 137.973426 50.270448 
L 140.199303 50.873866 
L 142.230534 51.665618 
L 143.787463 52.507515 
L 145.154009 53.503363 
L 146.318377 54.64789 
L 147.277659 55.928422 
L 148.038114 57.326537 
L 148.614172 58.820338 
L 149.08096 60.653478 
L 149.391814 62.825913 
L 149.535222 65.596054 
L 149.477037 69.201669 
L 149.053745 77.026487 
L 148.545957 83.968125 
L 148.125174 86.89157 
L 147.575475 89.19266 
L 146.959018 90.908024 
L 146.155811 92.479967 
L 145.28591 93.71578 
L 144.255968 94.805304 
L 143.0705 95.738816 
L 141.741661 96.513228 
L 140.071032 97.208725 
L 138.270231 97.717462 
L 136.132271 98.096382 
L 133.422508 98.338673 
L 129.917035 98.40691 
L 124.456361 98.252556 
L 111.724373 97.622539 
L 108.219309 97.234574 
L 105.556603 96.716751 
L 103.493356 96.083456 
L 101.812532 95.325286 
L 100.486184 94.484738 
L 99.353485 93.495708 
L 98.421272 92.368577 
L 97.685999 91.120977 
L 97.083693 89.620679 
L 96.648406 87.869682 
L 96.390997 85.885915 
L 96.294482 83.361431 
L 96.398664 79.671785 
L 96.988414 69.886928 
L 97.366 66.572105 
L 97.842065 64.299589 
L 98.418719 62.586184 
L 99.137895 61.14668 
L 99.971809 59.972943 
L 100.977227 58.957345 
L 102.147193 58.110408 
L 103.464775 57.43347 
L 105.041921 56.879342 
L 106.874117 56.472285 
L 109.090262 56.206513 
L 111.967997 56.093805 
L 116.204574 56.173242 
L 127.45249 56.69411 
L 131.072389 57.056815 
L 133.443996 57.504065 
L 135.268559 58.058703 
L 136.791375 58.75426 
L 138.018476 59.56681 
L 138.973929 60.459967 
L 139.747524 61.475173 
L 140.38396 62.684383 
L 140.860521 64.083185 
L 141.185546 65.755302 
L 141.348627 67.783829 
L 141.33476 70.644247 
L 141.006621 76.802175 
L 140.584583 82.166658 
L 140.186437 84.454834 
L 139.66839 86.16747 
L 139.040754 87.498297 
L 138.270941 88.608931 
L 137.38385 89.504952 
L 136.345745 90.245812 
L 135.095947 90.862128 
L 133.638971 91.334329 
L 131.81568 91.682215 
L 129.547211 91.876406 
L 126.414277 91.900056 
L 120.113912 91.661689 
L 113.230871 91.255563 
L 110.645526 90.878997 
L 108.785661 90.393943 
L 107.324845 89.787113 
L 106.177586 89.072581 
L 105.270155 88.250485 
L 104.549653 87.3023 
L 103.987043 86.193202 
L 103.57452 84.878564 
L 103.310389 83.25166 
L 103.21282 81.148749 
L 103.314969 77.946082 
L 103.834712 70.181157 
L 104.195328 67.978686 
L 104.67395 66.395585 
L 105.259873 65.196476 
L 105.971802 64.227958 
L 106.850328 63.41605 
L 107.884354 62.769981 
L 109.14883 62.254603 
L 110.687868 61.881109 
L 112.591722 61.657007 
L 115.159774 61.591894 
L 119.732766 61.740153 
L 127.302538 62.176547 
L 129.557166 62.537735 
L 131.16512 63.008779 
L 132.383473 63.584329 
L 133.345489 64.27584 
L 134.092824 65.078451 
L 134.675053 66.027505 
L 134.690749 66.05986 
L 134.690749 66.05986 
" clip-path="url(#paf48b083f3)" style="fill: none; stroke: #ff7f0e; stroke-opacity: 0.5; stroke-width: 1.5; stroke-linecap: round"/>
   </g>
   <g id="patch_3">
    <path d="M 46.64 147.04 
L 46.64 10.8 
" style="fill: none; stroke: #ffffff; stroke-width: 0.8; stroke-linejoin: miter; stroke-linecap: square"/>
   </g>
   <g id="patch_4">
    <path d="M 205.2 147.04 
L 205.2 10.8 
" style="fill: none; stroke: #ffffff; stroke-width: 0.8; stroke-linejoin: miter; stroke-linecap: square"/>
   </g>
   <g id="patch_5">
    <path d="M 46.64 147.04 
L 205.2 147.04 
" style="fill: none; stroke: #ffffff; stroke-width: 0.8; stroke-linejoin: miter; stroke-linecap: square"/>
   </g>
   <g id="patch_6">
    <path d="M 46.64 10.8 
L 205.2 10.8 
" style="fill: none; stroke: #ffffff; stroke-width: 0.8; stroke-linejoin: miter; stroke-linecap: square"/>
   </g>
  </g>
 </g>
 <defs>
  <clipPath id="paf48b083f3">
   <rect x="46.64" y="10.8" width="158.56" height="136.24"/>
  </clipPath>
 </defs>
</svg>
