<?xml version="1.0" encoding="utf-8" standalone="no"?>
<!DOCTYPE svg PUBLIC "-//W3C//DTD SVG 1.1//EN"
  "http://www.w3.org/Graphics/SVG/1.1/DTD/svg11.dtd">
<svg xmlns:xlink="http://www.w3.org/1999/xlink" width="216pt" height="180pt" viewBox="0 0 216 180" xmlns="http://www.w3.org/2000/svg" version="1.1">
 <metadata>
  <rdf:RDF xmlns:dc="http://purl.org/dc/elements/1.1/" xmlns:cc="http://creativecommons.org/ns#" xmlns:rdf="http://www.w3.org/1999/02/22-rdf-syntax-ns#">
   <cc:Work>
    <dc:type rdf:resource="http://purl.org/dc/dcmitype/StillImage"/>
    <dc:date>2023-06-14T18:39:23.984609</dc:date>
    <dc:format>image/svg+xml</dc:format>
    <dc:creator>
     <cc:Agent>
      <dc:title>Matplotlib v3.7.0, https://matplotlib.org/</dc:title>
     </cc:Agent>
    </dc:creator>
   </cc:Work>
  </rdf:RDF>
 </metadata>
 <defs>
  <style type="text/css">*{stroke-linejoin: round; stroke-linecap: butt}</style>
 </defs>
 <g id="figure_1">
  <g id="patch_1">
   <path d="M 0 180 
L 216 180 
L 216 0 
L 0 0 
z
" style="fill: #ffffff"/>
  </g>
  <g id="axes_1">
   <g id="patch_2">
    <path d="M 46.64 147.04 
L 205.2 147.04 
L 205.2 10.8 
L 46.64 10.8 
L 46.64 147.04 
z
" style="fill: none"/>
   </g>
   <g id="matplotlib.axis_1">
    <g id="xtick_1">
     <g id="line2d_1">
      <path d="M 81.638693 147.04 
L 81.638693 10.8 
" clip-path="url(#pcb4dba104f)" style="fill: none; stroke: #d3d3d3; stroke-width: 0.8; stroke-linecap: round"/>
     </g>
     <g id="text_1">
      <!-- −1 -->
      <g style="fill: #808080" transform="translate(74.2676 161.638438) scale(0.1 -0.1)">
       <defs>
        <path id="DejaVuSans-2212" d="M 678 2272 
L 4684 2272 
L 4684 1741 
L 678 1741 
L 678 2272 
z
" transform="scale(0.015625)"/>
        <path id="DejaVuSans-31" d="M 794 531 
L 1825 531 
L 1825 4091 
L 703 3866 
L 703 4441 
L 1819 4666 
L 2450 4666 
L 2450 531 
L 3481 531 
L 3481 0 
L 794 0 
L 794 531 
z
" transform="scale(0.015625)"/>
       </defs>
       <use xlink:href="#DejaVuSans-2212"/>
       <use xlink:href="#DejaVuSans-31" x="83.789062"/>
      </g>
     </g>
    </g>
    <g id="xtick_2">
     <g id="line2d_2">
      <path d="M 120.423371 147.04 
L 120.423371 10.8 
" clip-path="url(#pcb4dba104f)" style="fill: none; stroke: #d3d3d3; stroke-width: 0.8; stroke-linecap: round"/>
     </g>
     <g id="text_2">
      <!-- 0 -->
      <g style="fill: #808080" transform="translate(117.242121 161.638438) scale(0.1 -0.1)">
       <defs>
        <path id="DejaVuSans-30" d="M 2034 4250 
Q 1547 4250 1301 3770 
Q 1056 3291 1056 2328 
Q 1056 1369 1301 889 
Q 1547 409 2034 409 
Q 2525 409 2770 889 
Q 3016 1369 3016 2328 
Q 3016 3291 2770 3770 
Q 2525 4250 2034 4250 
z
M 2034 4750 
Q 2819 4750 3233 4129 
Q 3647 3509 3647 2328 
Q 3647 1150 3233 529 
Q 2819 -91 2034 -91 
Q 1250 -91 836 529 
Q 422 1150 422 2328 
Q 422 3509 836 4129 
Q 1250 4750 2034 4750 
z
" transform="scale(0.015625)"/>
       </defs>
       <use xlink:href="#DejaVuSans-30"/>
      </g>
     </g>
    </g>
    <g id="xtick_3">
     <g id="line2d_3">
      <path d="M 159.208049 147.04 
L 159.208049 10.8 
" clip-path="url(#pcb4dba104f)" style="fill: none; stroke: #d3d3d3; stroke-width: 0.8; stroke-linecap: round"/>
     </g>
     <g id="text_3">
      <!-- 1 -->
      <g style="fill: #808080" transform="translate(156.026799 161.638438) scale(0.1 -0.1)">
       <use xlink:href="#DejaVuSans-31"/>
      </g>
     </g>
    </g>
    <g id="xtick_4">
     <g id="line2d_4">
      <path d="M 197.992727 147.04 
L 197.992727 10.8 
" clip-path="url(#pcb4dba104f)" style="fill: none; stroke: #d3d3d3; stroke-width: 0.8; stroke-linecap: round"/>
     </g>
     <g id="text_4">
      <!-- 2 -->
      <g style="fill: #808080" transform="translate(194.811477 161.638438) scale(0.1 -0.1)">
       <defs>
        <path id="DejaVuSans-32" d="M 1228 531 
L 3431 531 
L 3431 0 
L 469 0 
L 469 531 
Q 828 903 1448 1529 
Q 2069 2156 2228 2338 
Q 2531 2678 2651 2914 
Q 2772 3150 2772 3378 
Q 2772 3750 2511 3984 
Q 2250 4219 1831 4219 
Q 1534 4219 1204 4116 
Q 875 4013 500 3803 
L 500 4441 
Q 881 4594 1212 4672 
Q 1544 4750 1819 4750 
Q 2544 4750 2975 4387 
Q 3406 4025 3406 3419 
Q 3406 3131 3298 2873 
Q 3191 2616 2906 2266 
Q 2828 2175 2409 1742 
Q 1991 1309 1228 531 
z
" transform="scale(0.015625)"/>
       </defs>
       <use xlink:href="#DejaVuSans-32"/>
      </g>
     </g>
    </g>
    <g id="text_5">
     <!-- x -->
     <g style="fill: #262626" transform="translate(122.960625 175.316563) scale(0.1 -0.1)">
      <defs>
       <path id="DejaVuSans-78" d="M 3513 3500 
L 2247 1797 
L 3578 0 
L 2900 0 
L 1881 1375 
L 863 0 
L 184 0 
L 1544 1831 
L 300 3500 
L 978 3500 
L 1906 2253 
L 2834 3500 
L 3513 3500 
z
" transform="scale(0.015625)"/>
      </defs>
      <use xlink:href="#DejaVuSans-78"/>
     </g>
    </g>
   </g>
   <g id="matplotlib.axis_2">
    <g id="ytick_1">
     <g id="line2d_5">
      <path d="M 46.64 141.099573 
L 205.2 141.099573 
" clip-path="url(#pcb4dba104f)" style="fill: none; stroke: #d3d3d3; stroke-width: 0.8; stroke-linecap: round"/>
     </g>
     <g id="text_6">
      <!-- −2 -->
      <g style="fill: #808080" transform="translate(24.897813 144.898792) scale(0.1 -0.1)">
       <use xlink:href="#DejaVuSans-2212"/>
       <use xlink:href="#DejaVuSans-32" x="83.789062"/>
      </g>
     </g>
    </g>
    <g id="ytick_2">
     <g id="line2d_6">
      <path d="M 46.64 107.857021 
L 205.2 107.857021 
" clip-path="url(#pcb4dba104f)" style="fill: none; stroke: #d3d3d3; stroke-width: 0.8; stroke-linecap: round"/>
     </g>
     <g id="text_7">
      <!-- −1 -->
      <g style="fill: #808080" transform="translate(24.897813 111.656239) scale(0.1 -0.1)">
       <use xlink:href="#DejaVuSans-2212"/>
       <use xlink:href="#DejaVuSans-31" x="83.789062"/>
      </g>
     </g>
    </g>
    <g id="ytick_3">
     <g id="line2d_7">
      <path d="M 46.64 74.614468 
L 205.2 74.614468 
" clip-path="url(#pcb4dba104f)" style="fill: none; stroke: #d3d3d3; stroke-width: 0.8; stroke-linecap: round"/>
     </g>
     <g id="text_8">
      <!-- 0 -->
      <g style="fill: #808080" transform="translate(33.2775 78.413687) scale(0.1 -0.1)">
       <use xlink:href="#DejaVuSans-30"/>
      </g>
     </g>
    </g>
    <g id="ytick_4">
     <g id="line2d_8">
      <path d="M 46.64 41.371916 
L 205.2 41.371916 
" clip-path="url(#pcb4dba104f)" style="fill: none; stroke: #d3d3d3; stroke-width: 0.8; stroke-linecap: round"/>
     </g>
     <g id="text_9">
      <!-- 1 -->
      <g style="fill: #808080" transform="translate(33.2775 45.171135) scale(0.1 -0.1)">
       <use xlink:href="#DejaVuSans-31"/>
      </g>
     </g>
    </g>
    <g id="text_10">
     <!-- y -->
     <g style="fill: #262626" transform="translate(18.818125 81.879375) rotate(-90) scale(0.1 -0.1)">
      <defs>
       <path id="DejaVuSans-79" d="M 2059 -325 
Q 1816 -950 1584 -1140 
Q 1353 -1331 966 -1331 
L 506 -1331 
L 506 -850 
L 844 -850 
Q 1081 -850 1212 -737 
Q 1344 -625 1503 -206 
L 1606 56 
L 191 3500 
L 800 3500 
L 1894 763 
L 2988 3500 
L 3597 3500 
L 2059 -325 
z
" transform="scale(0.015625)"/>
      </defs>
      <use xlink:href="#DejaVuSans-79"/>
     </g>
    </g>
   </g>
   <g id="line2d_9">
    <path d="M 197.992727 74.614468 
L 196.602289 77.904963 
L 195.316229 81.280425 
L 192.972445 88.315275 
L 187.094323 107.645381 
L 185.612349 111.705716 
L 183.92794 115.740201 
L 182.003356 119.681318 
L 179.810136 123.450519 
L 177.33218 126.964877 
L 174.567 130.146097 
L 171.524678 132.930051 
L 168.224943 135.274593 
L 164.693405 137.163919 
L 160.958089 138.608816 
L 157.046925 139.643332 
L 152.986231 140.319043 
L 148.799845 140.69826 
L 144.508526 140.847273 
L 135.675829 140.705195 
L 112.502687 139.640269 
L 102.870831 139.028001 
L 98.016472 138.548395 
L 93.175444 137.870465 
L 88.394457 136.927622 
L 83.73479 135.660715 
L 79.269339 134.029141 
L 75.076034 132.020473 
L 71.228356 129.655076 
L 67.785179 126.983412 
L 64.782935 124.076553 
L 62.232387 121.013268 
L 60.120403 117.867992 
L 58.41534 114.702702 
L 57.073824 111.563481 
L 56.047088 108.480798 
L 55.285852 105.471922 
L 54.743529 102.544045 
L 54.377991 99.697271 
L 54.034813 94.225979 
L 54.022331 88.994514 
L 54.28693 81.424581 
L 55.288935 61.070877 
L 55.736563 55.607932 
L 56.482547 49.93637 
L 57.027289 47.034425 
L 57.72378 44.104837 
L 58.60174 41.16802 
L 59.690482 38.251665 
L 61.016809 35.390703 
L 62.602591 32.62624 
L 64.462334 30.003252 
L 66.601202 27.567057 
L 69.013931 25.358947 
L 71.684959 23.411744 
L 74.589807 21.746166 
L 77.697435 20.368787 
L 80.973116 19.271958 
L 84.381298 18.435545 
L 87.888076 17.829981 
L 91.463012 17.419891 
L 95.080263 17.167663 
L 102.363704 16.992727 
L 113.240574 17.124107 
L 134.503325 17.655863 
L 141.382106 18.088724 
L 144.747347 18.435766 
L 148.041846 18.900262 
L 151.245359 19.503028 
L 154.334982 20.261013 
L 157.286274 21.185528 
L 160.074716 22.280944 
L 162.677387 23.544112 
L 165.07462 24.964648 
L 167.251423 26.526058 
L 169.198441 28.207485 
L 170.91235 29.985743 
L 172.395677 31.837288 
L 173.656147 33.73985 
L 174.705696 35.673577 
L 175.559363 37.621669 
L 176.234171 39.57057 
L 176.748145 41.509845 
L 177.119488 43.431845 
L 177.50447 47.204867 
L 177.519148 50.868278 
L 177.273259 54.419982 
L 176.602969 59.55864 
L 175.458939 66.138262 
L 173.198808 78.87542 
L 171.016591 91.731802 
L 169.925964 96.595543 
L 169.009201 99.796535 
L 167.888198 102.915322 
L 166.521429 105.896876 
L 164.875803 108.678408 
L 162.931328 111.195869 
L 161.845207 112.3373 
L 160.68438 113.392488 
L 159.451095 114.356911 
L 158.148584 115.227491 
L 156.780938 116.002706 
L 153.870007 117.268924 
L 150.762225 118.174251 
L 147.504663 118.757647 
L 144.142568 119.071414 
L 140.715682 119.173535 
L 135.521838 119.05282 
L 128.601766 118.623962 
L 108.356515 117.035711 
L 103.47614 116.477534 
L 98.746115 115.69573 
L 95.718255 114.999985 
L 92.827364 114.134286 
L 90.107529 113.080777 
L 87.591819 111.831601 
L 85.308752 110.389983 
L 83.279109 108.769637 
L 81.51377 106.992623 
L 80.012957 105.086222 
L 78.766907 103.079591 
L 77.757646 101.000851 
L 76.961349 98.875016 
L 76.350798 96.722826 
L 75.721184 93.479096 
L 75.353303 90.247204 
L 75.130922 85.984626 
L 75.082013 79.691071 
L 75.236905 65.019401 
L 75.443656 60.732116 
L 75.759305 57.502705 
L 76.288357 54.295927 
L 76.796957 52.195226 
L 77.456365 50.147025 
L 78.286883 48.174604 
L 79.30508 46.303452 
L 80.522072 44.559622 
L 81.942126 42.967627 
L 83.561856 41.548131 
L 85.370215 40.31583 
L 87.349359 39.277926 
L 89.476224 38.433498 
L 91.72457 37.773862 
L 94.067129 37.283814 
L 97.700571 36.822353 
L 101.409435 36.62044 
L 106.371381 36.623699 
L 113.687811 36.918478 
L 130.9002 37.915899 
L 136.248937 38.423735 
L 140.318123 39.034067 
L 143.20349 39.660523 
L 145.907702 40.460597 
L 148.395049 41.450659 
L 150.633309 42.635554 
L 152.597927 44.00814 
L 154.275161 45.550767 
L 155.663543 47.238262 
L 156.77347 49.041559 
L 157.625266 50.931148 
L 158.24635 52.87973 
L 158.668192 54.863877 
L 158.977263 57.53287 
L 159.06486 60.200218 
L 158.962659 63.503945 
L 158.541746 68.690687 
L 156.843241 85.06038 
L 156.269359 88.775878 
L 155.596144 91.79676 
L 154.875328 94.120337 
L 153.952608 96.31706 
L 153.109972 97.853967 
L 152.12877 99.274676 
L 151.005445 100.56181 
L 149.741567 101.701395 
L 148.343821 102.684225 
L 146.823471 103.50675 
L 145.195382 104.17135 
L 142.886908 104.826196 
L 140.460532 105.245826 
L 137.957294 105.470166 
L 134.773542 105.54162 
L 130.303867 105.391635 
L 122.184746 104.824714 
L 109.209894 103.736162 
L 105.349974 103.181547 
L 102.222319 102.502796 
L 99.792375 101.748876 
L 97.566158 100.798235 
L 95.957181 99.888963 
L 94.517552 98.849217 
L 93.256633 97.686975 
L 92.17727 96.41508 
L 91.275659 95.049661 
L 90.383202 93.238285 
L 89.723579 91.34231 
L 89.188073 88.99748 
L 88.83189 86.215831 
L 88.658345 83.025095 
L 88.625863 77.871339 
L 88.791438 66.416718 
L 89.063468 62.875446 
L 89.498658 60.187271 
L 90.099696 57.980852 
L 90.800882 56.249922 
L 91.709024 54.651475 
L 92.59366 53.489131 
L 93.6202 52.445118 
L 94.784088 51.52943 
L 96.07558 50.747525 
L 97.847615 49.958451 
L 99.762933 49.368852 
L 102.19853 48.896232 
L 104.726303 48.63575 
L 108.152556 48.530273 
L 112.830549 48.651006 
L 123.313024 49.244859 
L 130.758951 49.807452 
L 134.222112 50.277635 
L 136.807124 50.827344 
L 138.891513 51.470914 
L 140.773922 52.28609 
L 142.203614 53.126936 
L 143.449181 54.095898 
L 144.504121 55.183383 
L 145.369615 56.374815 
L 146.151654 57.872554 
L 146.711532 59.457996 
L 147.119718 61.341372 
L 147.345623 63.50944 
L 147.386996 66.179642 
L 147.196045 70.034567 
L 146.309334 81.047052 
L 145.835332 84.681754 
L 145.312352 87.080137 
L 144.701754 88.931243 
L 143.987168 90.455005 
L 143.090591 91.831358 
L 142.149888 92.89268 
L 141.065531 93.806084 
L 139.847164 94.564638 
L 138.311154 95.243091 
L 136.65103 95.732851 
L 134.675929 96.086371 
L 132.169409 96.29225 
L 128.927461 96.310068 
L 123.891663 96.080511 
L 111.850114 95.267899 
L 108.690884 94.827388 
L 106.301295 94.273649 
L 104.454818 93.625264 
L 102.95177 92.87448 
L 101.641928 91.96609 
L 100.641382 91.020023 
L 99.73154 89.841806 
L 99.026337 88.552774 
L 98.464509 87.038393 
L 98.066834 85.309625 
L 97.819282 83.238685 
L 97.721613 80.401351 
L 97.820341 75.067237 
L 98.120469 67.766693 
L 98.45455 65.224567 
L 98.917846 63.347359 
L 99.507496 61.853016 
L 100.231189 60.610481 
L 101.051738 59.610076 
L 102.026685 58.748745 
L 103.145996 58.03488 
L 104.522305 57.419941 
L 106.16107 56.93969 
L 108.196514 56.595727 
L 110.606866 56.421471 
L 113.942057 56.420376 
L 120.368347 56.700259 
L 128.298626 57.198868 
L 131.105686 57.597708 
L 133.114661 58.089688 
L 134.713174 58.696176 
L 136.01737 59.423833 
L 137.044612 60.241736 
L 137.879943 61.183317 
L 138.526316 62.230921 
L 139.024371 63.445969 
L 139.378355 64.903982 
L 139.569607 66.681599 
L 139.577649 68.934106 
L 139.339117 72.502466 
L 138.517366 80.89279 
L 138.072169 83.135349 
L 137.530956 84.772582 
L 136.882761 86.052652 
L 136.092392 87.117143 
L 135.183707 87.968366 
L 134.125825 88.659196 
L 132.864239 89.217089 
L 131.328754 89.645303 
L 129.446259 89.931978 
L 126.98448 90.073149 
L 122.96973 90.049111 
L 113.593013 89.73435 
L 111.07074 89.424812 
L 109.238145 88.990102 
L 107.787911 88.424425 
L 106.64274 87.744805 
L 105.73371 86.954797 
L 105.01054 86.039331 
L 104.44568 84.967187 
L 104.032285 83.697653 
L 103.769376 82.130256 
L 103.675895 80.109384 
L 103.786943 77.032302 
L 104.316564 69.798711 
L 104.689978 67.662122 
L 105.163946 66.178582 
L 105.757625 65.021516 
L 106.477255 64.09147 
L 107.364483 63.315346 
L 108.406295 62.70243 
L 109.679377 62.217522 
L 111.2265 61.870493 
L 113.249874 61.658665 
L 116.102557 61.607046 
L 123.022876 61.791395 
L 127.043486 62.036437 
L 129.147166 62.380743 
L 130.650422 62.843227 
L 131.799091 63.423307 
L 132.683544 64.116296 
L 133.348052 64.912487 
L 133.841069 65.842532 
L 134.178345 66.953845 
L 134.185407 66.987589 
L 134.185407 66.987589 
" clip-path="url(#pcb4dba104f)" style="fill: none; stroke: #1f77b4; stroke-width: 1.5; stroke-linecap: round"/>
   </g>
   <g id="line2d_10">
    <path d="M 197.992727 74.614468 
L 197.017174 90.279204 
L 196.590874 95.353383 
L 196.032288 100.32509 
L 195.274945 105.16068 
L 194.24649 109.814677 
L 192.874821 114.23141 
L 191.095552 118.348884 
L 188.859918 122.104782 
L 186.14167 125.443896 
L 182.941315 128.325594 
L 179.286454 130.729659 
L 175.227956 132.659088 
L 170.832892 134.139272 
L 166.175952 135.214001 
L 161.331234 135.9395 
L 156.365848 136.377945 
L 151.335948 136.591651 
L 146.285139 136.638606 
L 136.23528 136.42634 
L 111.891692 135.415908 
L 97.90542 134.661084 
L 93.384235 134.291921 
L 88.964348 133.814726 
L 84.67403 133.195107 
L 80.547577 132.398039 
L 76.623863 131.390307 
L 72.943999 130.143216 
L 69.548205 128.63528 
L 66.472247 126.854473 
L 63.743914 124.799652 
L 61.380143 122.480834 
L 59.385275 119.91822 
L 57.750749 117.140139 
L 56.456202 114.180278 
L 55.471698 111.074674 
L 54.760621 107.858931 
L 54.28274 104.565996 
L 53.997023 101.224643 
L 53.863959 97.858684 
L 53.915038 91.122758 
L 54.381535 81.156275 
L 55.541303 61.965249 
L 56.071108 55.818871 
L 56.864544 49.867418 
L 57.413602 46.994065 
L 58.094609 44.20971 
L 58.929707 41.532531 
L 59.939043 38.981973 
L 61.139478 36.577771 
L 62.543389 34.338787 
L 64.157698 32.281758 
L 65.983268 30.420097 
L 68.014765 28.762894 
L 70.241017 27.314232 
L 72.645833 26.072919 
L 75.20918 25.032646 
L 77.908555 24.18253 
L 80.720397 23.507956 
L 83.621376 22.991582 
L 86.589471 22.614404 
L 92.649896 22.199178 
L 98.774543 22.111526 
L 107.910568 22.32036 
L 128.539217 23.185395 
L 139.828737 23.809283 
L 145.27809 24.294673 
L 150.526066 24.999007 
L 155.49127 26.008926 
L 157.837694 26.654225 
L 160.076221 27.404846 
L 162.194227 28.267622 
L 164.179933 29.247339 
L 166.022997 30.346451 
L 167.715052 31.564922 
L 169.250158 32.900198 
L 170.625126 34.347334 
L 171.83967 35.899254 
L 172.896397 37.547126 
L 173.80063 39.280807 
L 174.560091 41.089333 
L 175.184482 42.961398 
L 175.685011 44.885798 
L 176.363842 48.849447 
L 176.698016 52.904829 
L 176.784993 56.993559 
L 176.633124 63.105168 
L 175.982518 75.048848 
L 175.100227 88.422105 
L 174.483269 93.910789 
L 173.878702 97.437746 
L 173.053975 100.816502 
L 171.954274 104.002067 
L 170.53285 106.945708 
L 169.69067 108.311852 
L 168.757363 109.600317 
L 167.731966 110.806491 
L 166.614909 111.926634 
L 165.408002 112.958013 
L 164.11438 113.899014 
L 162.738376 114.749199 
L 159.761548 116.181239 
L 156.529192 117.273244 
L 153.099211 118.059067 
L 149.52902 118.58244 
L 145.87035 118.891688 
L 140.307528 119.058571 
L 132.89816 118.944512 
L 118.456554 118.363401 
L 104.627566 117.666527 
L 99.655021 117.239673 
L 94.875621 116.603597 
L 91.837744 116.018335 
L 88.953217 115.273785 
L 86.253939 114.347772 
L 83.771015 113.223923 
L 81.53183 111.893489 
L 79.557195 110.356441 
L 77.859074 108.621599 
L 76.439298 106.705712 
L 75.289496 104.631665 
L 74.392179 102.426155 
L 73.722708 100.117237 
L 73.251726 97.732143 
L 72.947633 95.295602 
L 72.735639 91.589513 
L 72.759472 86.631625 
L 73.099635 79.295384 
L 74.140142 62.9122 
L 74.634309 58.46967 
L 75.180391 55.257869 
L 75.942461 52.191614 
L 76.599076 50.251552 
L 77.392195 48.412473 
L 78.333723 46.68955 
L 79.43167 45.096881 
L 80.689463 43.646472 
L 82.10561 42.347309 
L 83.673765 41.204647 
L 85.383206 40.219604 
L 87.219674 39.389122 
L 89.166425 38.706267 
L 92.253725 37.935722 
L 95.487597 37.429602 
L 98.812684 37.13755 
L 103.31071 36.993999 
L 108.934473 37.061609 
L 119.940596 37.488532 
L 133.632105 38.159265 
L 138.648562 38.602365 
L 142.488593 39.144796 
L 145.226244 39.705341 
L 147.806412 40.427285 
L 150.195557 41.332408 
L 152.362071 42.435235 
L 154.279847 43.741095 
L 155.931495 45.245281 
L 157.310536 46.933541 
L 158.422118 48.783834 
L 159.282166 50.768978 
L 159.915249 52.859611 
L 160.351717 55.026932 
L 160.685125 57.991392 
L 160.810884 61.748368 
L 160.707068 66.247558 
L 160.187466 75.754554 
L 159.50656 85.546732 
L 158.991386 89.542948 
L 158.479493 92.093651 
L 157.781804 94.517312 
L 156.858132 96.777221 
L 155.997797 98.34189 
L 154.984193 99.778382 
L 153.814233 101.074375 
L 152.490398 102.221079 
L 151.020563 103.21404 
L 149.417298 104.053522 
L 147.69676 104.744418 
L 145.252214 105.450542 
L 142.677302 105.938852 
L 139.340292 106.298001 
L 135.253048 106.457192 
L 129.795995 106.393364 
L 118.506673 105.942204 
L 108.363184 105.41092 
L 104.13908 104.99646 
L 100.698893 104.444192 
L 98.013907 103.791661 
L 96.019173 103.118143 
L 94.186957 102.295562 
L 92.538618 101.316941 
L 91.090315 100.18224 
L 89.851144 98.898458 
L 88.822117 97.478864 
L 87.99615 95.941507 
L 87.359017 94.307292 
L 86.797772 92.16142 
L 86.454985 89.93838 
L 86.264463 87.216846 
L 86.259319 83.567279 
L 86.526441 77.718148 
L 87.34726 65.278199 
L 87.830834 61.652197 
L 88.424994 58.978831 
L 89.14625 56.835013 
L 89.926922 55.182704 
L 90.888143 53.676387 
L 92.03747 52.335375 
L 93.373037 51.173467 
L 94.88367 50.197171 
L 96.550289 49.404912 
L 98.348273 48.787365 
L 100.640734 48.254406 
L 103.442391 47.874175 
L 106.733393 47.681487 
L 110.878519 47.674333 
L 118.218561 47.931348 
L 131.020996 48.575054 
L 135.015571 49.004707 
L 137.755239 49.497549 
L 139.989208 50.09847 
L 142.027822 50.886946 
L 143.590412 51.725362 
L 144.961926 52.71709 
L 146.130526 53.856882 
L 147.093295 55.132117 
L 147.856515 56.524448 
L 148.434667 58.01207 
L 148.903152 59.837626 
L 149.215136 62.001074 
L 149.359065 64.759756 
L 149.300669 68.350457 
L 148.875838 76.142905 
L 148.366205 83.055827 
L 147.943891 85.967179 
L 147.392195 88.25875 
L 146.773496 89.967018 
L 145.967369 91.532459 
L 145.094306 92.76316 
L 144.060619 93.848176 
L 142.870843 94.777827 
L 141.537173 95.549035 
L 139.860471 96.241655 
L 138.053123 96.748288 
L 135.907391 97.12564 
L 133.187778 97.366929 
L 129.669561 97.434883 
L 124.189035 97.281168 
L 111.410763 96.653758 
L 107.892958 96.267397 
L 105.220572 95.751716 
L 103.149824 95.121041 
L 101.46289 94.366007 
L 100.131721 93.528937 
L 98.994904 92.543998 
L 98.059301 91.421529 
L 97.321356 90.17909 
L 96.716861 88.684998 
L 96.279991 86.941245 
L 96.021647 84.965684 
L 95.92478 82.451643 
L 96.029341 78.77726 
L 96.621236 69.03288 
L 97.000194 65.73177 
L 97.477989 63.468655 
L 98.056739 61.762338 
L 98.77853 60.328788 
L 99.615476 59.159907 
L 100.624548 58.14851 
L 101.798768 57.305077 
L 103.12114 56.630939 
L 104.704019 56.079103 
L 106.542876 55.673731 
L 108.767077 55.409058 
L 111.655273 55.296816 
L 115.907251 55.375924 
L 127.196057 55.894637 
L 130.829115 56.255842 
L 133.209344 56.701241 
L 135.04054 57.253586 
L 136.568891 57.946265 
L 137.800453 58.755454 
L 138.75938 59.644916 
L 139.535787 60.655923 
L 140.174536 61.86013 
L 140.65283 63.253145 
L 140.979036 64.918346 
L 141.14271 66.938482 
L 141.128793 69.787066 
L 140.805129 75.823076 
L 140.375888 81.261812 
L 139.976295 83.540524 
L 139.456364 85.246075 
L 138.826447 86.571397 
L 138.053835 87.677436 
L 137.16352 88.569751 
L 136.121641 89.307546 
L 134.8673 89.921312 
L 133.405027 90.39156 
L 131.575108 90.738006 
L 129.298393 90.931395 
L 126.15407 90.954946 
L 119.8308 90.717566 
L 112.922738 90.313119 
L 110.327995 89.938111 
L 108.461368 89.455064 
L 106.995242 88.850744 
L 105.843812 88.139168 
L 104.933083 87.320473 
L 104.209962 86.37621 
L 103.645306 85.2717 
L 103.231283 83.9625 
L 102.966192 82.342327 
L 102.868268 80.248115 
L 102.970788 77.058696 
L 103.492421 69.325892 
L 103.854349 67.132532 
L 104.33471 65.55598 
L 104.922763 64.361831 
L 105.637281 63.39732 
L 106.519 62.588771 
L 107.556785 61.945374 
L 108.825857 61.432128 
L 110.37049 61.06018 
L 112.281265 60.837004 
L 114.858653 60.77216 
L 119.44827 60.919807 
L 127.045559 61.354396 
L 129.308384 61.714089 
L 130.922183 62.183184 
L 132.17901 62.776292 
L 133.138443 63.46961 
L 133.882364 64.273016 
L 134.460629 65.221644 
L 134.460629 65.221644 
" clip-path="url(#pcb4dba104f)" style="fill: none; stroke: #ff7f0e; stroke-opacity: 0.5; stroke-width: 1.5; stroke-linecap: round"/>
   </g>
   <g id="patch_3">
    <path d="M 46.64 147.04 
L 46.64 10.8 
" style="fill: none; stroke: #ffffff; stroke-width: 0.8; stroke-linejoin: miter; stroke-linecap: square"/>
   </g>
   <g id="patch_4">
    <path d="M 205.2 147.04 
L 205.2 10.8 
" style="fill: none; stroke: #ffffff; stroke-width: 0.8; stroke-linejoin: miter; stroke-linecap: square"/>
   </g>
   <g id="patch_5">
    <path d="M 46.64 147.04 
L 205.2 147.04 
" style="fill: none; stroke: #ffffff; stroke-width: 0.8; stroke-linejoin: miter; stroke-linecap: square"/>
   </g>
   <g id="patch_6">
    <path d="M 46.64 10.8 
L 205.2 10.8 
" style="fill: none; stroke: #ffffff; stroke-width: 0.8; stroke-linejoin: miter; stroke-linecap: square"/>
   </g>
  </g>
 </g>
 <defs>
  <clipPath id="pcb4dba104f">
   <rect x="46.64" y="10.8" width="158.56" height="136.24"/>
  </clipPath>
 </defs>
</svg>
