<?xml version="1.0" encoding="utf-8" standalone="no"?>
<!DOCTYPE svg PUBLIC "-//W3C//DTD SVG 1.1//EN"
  "http://www.w3.org/Graphics/SVG/1.1/DTD/svg11.dtd">
<svg xmlns:xlink="http://www.w3.org/1999/xlink" width="216pt" height="180pt" viewBox="0 0 216 180" xmlns="http://www.w3.org/2000/svg" version="1.1">
 <metadata>
  <rdf:RDF xmlns:dc="http://purl.org/dc/elements/1.1/" xmlns:cc="http://creativecommons.org/ns#" xmlns:rdf="http://www.w3.org/1999/02/22-rdf-syntax-ns#">
   <cc:Work>
    <dc:type rdf:resource="http://purl.org/dc/dcmitype/StillImage"/>
    <dc:date>2023-06-14T18:40:34.761685</dc:date>
    <dc:format>image/svg+xml</dc:format>
    <dc:creator>
     <cc:Agent>
      <dc:title>Matplotlib v3.7.0, https://matplotlib.org/</dc:title>
     </cc:Agent>
    </dc:creator>
   </cc:Work>
  </rdf:RDF>
 </metadata>
 <defs>
  <style type="text/css">*{stroke-linejoin: round; stroke-linecap: butt}</style>
 </defs>
 <g id="figure_1">
  <g id="patch_1">
   <path d="M 0 180 
L 216 180 
L 216 0 
L 0 0 
z
" style="fill: #ffffff"/>
  </g>
  <g id="axes_1">
   <g id="patch_2">
    <path d="M 46.64 147.04 
L 205.2 147.04 
L 205.2 10.8 
L 46.64 10.8 
L 46.64 147.04 
z
" style="fill: none"/>
   </g>
   <g id="matplotlib.axis_1">
    <g id="xtick_1">
     <g id="line2d_1">
      <path d="M 81.638693 147.04 
L 81.638693 10.8 
" clip-path="url(#p0e129c54ce)" style="fill: none; stroke: #d3d3d3; stroke-width: 0.8; stroke-linecap: round"/>
     </g>
     <g id="text_1">
      <!-- −1 -->
      <g style="fill: #808080" transform="translate(74.2676 161.638438) scale(0.1 -0.1)">
       <defs>
        <path id="DejaVuSans-2212" d="M 678 2272 
L 4684 2272 
L 4684 1741 
L 678 1741 
L 678 2272 
z
" transform="scale(0.015625)"/>
        <path id="DejaVuSans-31" d="M 794 531 
L 1825 531 
L 1825 4091 
L 703 3866 
L 703 4441 
L 1819 4666 
L 2450 4666 
L 2450 531 
L 3481 531 
L 3481 0 
L 794 0 
L 794 531 
z
" transform="scale(0.015625)"/>
       </defs>
       <use xlink:href="#DejaVuSans-2212"/>
       <use xlink:href="#DejaVuSans-31" x="83.789062"/>
      </g>
     </g>
    </g>
    <g id="xtick_2">
     <g id="line2d_2">
      <path d="M 120.423371 147.04 
L 120.423371 10.8 
" clip-path="url(#p0e129c54ce)" style="fill: none; stroke: #d3d3d3; stroke-width: 0.8; stroke-linecap: round"/>
     </g>
     <g id="text_2">
      <!-- 0 -->
      <g style="fill: #808080" transform="translate(117.242121 161.638438) scale(0.1 -0.1)">
       <defs>
        <path id="DejaVuSans-30" d="M 2034 4250 
Q 1547 4250 1301 3770 
Q 1056 3291 1056 2328 
Q 1056 1369 1301 889 
Q 1547 409 2034 409 
Q 2525 409 2770 889 
Q 3016 1369 3016 2328 
Q 3016 3291 2770 3770 
Q 2525 4250 2034 4250 
z
M 2034 4750 
Q 2819 4750 3233 4129 
Q 3647 3509 3647 2328 
Q 3647 1150 3233 529 
Q 2819 -91 2034 -91 
Q 1250 -91 836 529 
Q 422 1150 422 2328 
Q 422 3509 836 4129 
Q 1250 4750 2034 4750 
z
" transform="scale(0.015625)"/>
       </defs>
       <use xlink:href="#DejaVuSans-30"/>
      </g>
     </g>
    </g>
    <g id="xtick_3">
     <g id="line2d_3">
      <path d="M 159.208049 147.04 
L 159.208049 10.8 
" clip-path="url(#p0e129c54ce)" style="fill: none; stroke: #d3d3d3; stroke-width: 0.8; stroke-linecap: round"/>
     </g>
     <g id="text_3">
      <!-- 1 -->
      <g style="fill: #808080" transform="translate(156.026799 161.638438) scale(0.1 -0.1)">
       <use xlink:href="#DejaVuSans-31"/>
      </g>
     </g>
    </g>
    <g id="xtick_4">
     <g id="line2d_4">
      <path d="M 197.992727 147.04 
L 197.992727 10.8 
" clip-path="url(#p0e129c54ce)" style="fill: none; stroke: #d3d3d3; stroke-width: 0.8; stroke-linecap: round"/>
     </g>
     <g id="text_4">
      <!-- 2 -->
      <g style="fill: #808080" transform="translate(194.811477 161.638438) scale(0.1 -0.1)">
       <defs>
        <path id="DejaVuSans-32" d="M 1228 531 
L 3431 531 
L 3431 0 
L 469 0 
L 469 531 
Q 828 903 1448 1529 
Q 2069 2156 2228 2338 
Q 2531 2678 2651 2914 
Q 2772 3150 2772 3378 
Q 2772 3750 2511 3984 
Q 2250 4219 1831 4219 
Q 1534 4219 1204 4116 
Q 875 4013 500 3803 
L 500 4441 
Q 881 4594 1212 4672 
Q 1544 4750 1819 4750 
Q 2544 4750 2975 4387 
Q 3406 4025 3406 3419 
Q 3406 3131 3298 2873 
Q 3191 2616 2906 2266 
Q 2828 2175 2409 1742 
Q 1991 1309 1228 531 
z
" transform="scale(0.015625)"/>
       </defs>
       <use xlink:href="#DejaVuSans-32"/>
      </g>
     </g>
    </g>
    <g id="text_5">
     <!-- x -->
     <g style="fill: #262626" transform="translate(122.960625 175.316563) scale(0.1 -0.1)">
      <defs>
       <path id="DejaVuSans-78" d="M 3513 3500 
L 2247 1797 
L 3578 0 
L 2900 0 
L 1881 1375 
L 863 0 
L 184 0 
L 1544 1831 
L 300 3500 
L 978 3500 
L 1906 2253 
L 2834 3500 
L 3513 3500 
z
" transform="scale(0.015625)"/>
      </defs>
      <use xlink:href="#DejaVuSans-78"/>
     </g>
    </g>
   </g>
   <g id="matplotlib.axis_2">
    <g id="ytick_1">
     <g id="line2d_5">
      <path d="M 46.64 138.951106 
L 205.2 138.951106 
" clip-path="url(#p0e129c54ce)" style="fill: none; stroke: #d3d3d3; stroke-width: 0.8; stroke-linecap: round"/>
     </g>
     <g id="text_6">
      <!-- −2 -->
      <g style="fill: #808080" transform="translate(24.897813 142.750325) scale(0.1 -0.1)">
       <use xlink:href="#DejaVuSans-2212"/>
       <use xlink:href="#DejaVuSans-32" x="83.789062"/>
      </g>
     </g>
    </g>
    <g id="ytick_2">
     <g id="line2d_6">
      <path d="M 46.64 106.734115 
L 205.2 106.734115 
" clip-path="url(#p0e129c54ce)" style="fill: none; stroke: #d3d3d3; stroke-width: 0.8; stroke-linecap: round"/>
     </g>
     <g id="text_7">
      <!-- −1 -->
      <g style="fill: #808080" transform="translate(24.897813 110.533333) scale(0.1 -0.1)">
       <use xlink:href="#DejaVuSans-2212"/>
       <use xlink:href="#DejaVuSans-31" x="83.789062"/>
      </g>
     </g>
    </g>
    <g id="ytick_3">
     <g id="line2d_7">
      <path d="M 46.64 74.517123 
L 205.2 74.517123 
" clip-path="url(#p0e129c54ce)" style="fill: none; stroke: #d3d3d3; stroke-width: 0.8; stroke-linecap: round"/>
     </g>
     <g id="text_8">
      <!-- 0 -->
      <g style="fill: #808080" transform="translate(33.2775 78.316342) scale(0.1 -0.1)">
       <use xlink:href="#DejaVuSans-30"/>
      </g>
     </g>
    </g>
    <g id="ytick_4">
     <g id="line2d_8">
      <path d="M 46.64 42.300132 
L 205.2 42.300132 
" clip-path="url(#p0e129c54ce)" style="fill: none; stroke: #d3d3d3; stroke-width: 0.8; stroke-linecap: round"/>
     </g>
     <g id="text_9">
      <!-- 1 -->
      <g style="fill: #808080" transform="translate(33.2775 46.09935) scale(0.1 -0.1)">
       <use xlink:href="#DejaVuSans-31"/>
      </g>
     </g>
    </g>
    <g id="text_10">
     <!-- y -->
     <g style="fill: #262626" transform="translate(18.818125 81.879375) rotate(-90) scale(0.1 -0.1)">
      <defs>
       <path id="DejaVuSans-79" d="M 2059 -325 
Q 1816 -950 1584 -1140 
Q 1353 -1331 966 -1331 
L 506 -1331 
L 506 -850 
L 844 -850 
Q 1081 -850 1212 -737 
Q 1344 -625 1503 -206 
L 1606 56 
L 191 3500 
L 800 3500 
L 1894 763 
L 2988 3500 
L 3597 3500 
L 2059 -325 
z
" transform="scale(0.015625)"/>
      </defs>
      <use xlink:href="#DejaVuSans-79"/>
     </g>
    </g>
   </g>
   <g id="line2d_9">
    <path d="M 197.992727 74.517123 
L 195.345418 81.305716 
L 193.007067 88.04286 
L 188.536663 101.51333 
L 185.999966 108.281146 
L 184.554749 111.662241 
L 182.947765 115.026303 
L 181.143775 118.354141 
L 179.106139 121.61872 
L 176.79769 124.784103 
L 174.182188 127.805066 
L 171.226486 130.628014 
L 167.90345 133.193846 
L 164.195428 135.443296 
L 160.097738 137.3246 
L 155.621265 138.802329 
L 150.793114 139.865082 
L 145.654594 140.529235 
L 140.256652 140.836778 
L 134.653928 140.847273 
L 128.899258 140.626072 
L 123.040297 140.232041 
L 111.175069 139.072622 
L 105.24898 138.322863 
L 99.389103 137.432382 
L 93.655328 136.359939 
L 88.12088 135.058447 
L 82.869611 133.486178 
L 77.988475 131.617346 
L 73.556537 129.449236 
L 69.633595 127.003676 
L 66.252 124.322669 
L 63.414059 121.460152 
L 61.09506 118.472952 
L 59.250086 115.413514 
L 57.822108 112.325583 
L 56.74932 109.242702 
L 55.970701 106.188654 
L 55.429607 103.17894 
L 55.075685 100.222555 
L 54.762951 94.483071 
L 54.766388 88.968889 
L 55.102741 78.496874 
L 55.818879 61.183568 
L 56.200228 56.319498 
L 56.819655 51.455306 
L 57.805527 46.588964 
L 58.481802 44.159822 
L 59.306851 41.739547 
L 60.30131 39.335786 
L 61.485807 36.959142 
L 62.880261 34.623586 
L 64.502992 32.34669 
L 66.369621 30.149583 
L 68.491832 28.056458 
L 70.876062 26.093525 
L 73.522315 24.287349 
L 76.423288 22.662634 
L 79.564046 21.239724 
L 82.922434 20.0322 
L 86.470262 19.045075 
L 90.17518 18.274011 
L 94.002971 17.705788 
L 97.919879 17.319948 
L 101.894624 17.09129 
L 109.912616 16.998036 
L 117.892058 17.232704 
L 125.728545 17.67293 
L 133.346024 18.288905 
L 140.660162 19.132205 
L 144.16829 19.669655 
L 147.553422 20.302835 
L 150.795324 21.044415 
L 153.872918 21.904415 
L 156.765592 22.889128 
L 159.454661 24.00047 
L 161.924755 25.235824 
L 164.164948 26.588374 
L 166.169466 28.04783 
L 167.937905 29.601411 
L 169.474976 31.234908 
L 170.789883 32.933675 
L 171.895436 34.683458 
L 172.80708 36.471001 
L 173.541918 38.284426 
L 174.117849 40.113425 
L 174.552838 41.949298 
L 175.069001 45.614427 
L 175.218024 49.238487 
L 175.107296 52.797496 
L 174.636269 57.991113 
L 173.739605 64.642856 
L 170.036362 89.114967 
L 169.183316 93.455286 
L 168.110901 97.694625 
L 167.225556 100.440581 
L 166.169118 103.097865 
L 164.913135 105.639673 
L 163.43237 108.03471 
L 161.706897 110.248715 
L 159.724232 112.246981 
L 157.481218 113.997812 
L 154.985214 115.476549 
L 152.254208 116.669421 
L 149.315582 117.576305 
L 146.203575 118.211564 
L 142.955856 118.602597 
L 139.609867 118.786407 
L 134.479625 118.76565 
L 127.56413 118.395867 
L 115.559938 117.414711 
L 107.189153 116.578955 
L 102.312318 115.927719 
L 97.620051 115.062275 
L 94.639757 114.32201 
L 91.815415 113.424402 
L 89.18055 112.353573 
L 86.766163 111.102099 
L 84.597287 109.671845 
L 82.690178 108.07349 
L 81.050693 106.324885 
L 79.674125 104.448668 
L 78.546357 102.469668 
L 77.645935 100.412575 
L 76.946546 98.300164 
L 76.419458 96.152178 
L 75.888579 92.897908 
L 75.588457 89.638768 
L 75.413768 85.324585 
L 75.369764 76.859017 
L 75.478478 62.362443 
L 75.74539 58.269481 
L 76.134447 55.240104 
L 76.75294 52.274787 
L 77.324005 50.351868 
L 78.043071 48.488052 
L 78.926136 46.699084 
L 79.986193 45.002046 
L 81.232131 43.414588 
L 82.667767 41.953881 
L 84.291172 40.635368 
L 86.094412 39.471417 
L 88.063823 38.470082 
L 90.180826 37.63418 
L 92.423211 36.96086 
L 94.766721 36.441777 
L 98.417952 35.922675 
L 102.164383 35.66251 
L 107.200376 35.606185 
L 113.425269 35.805227 
L 126.51317 36.532532 
L 134.340311 37.123945 
L 138.58463 37.624465 
L 142.593677 38.337665 
L 145.398621 39.055717 
L 147.989794 39.95661 
L 150.332607 41.052965 
L 152.399374 42.345835 
L 154.173114 43.824983 
L 155.649633 45.470836 
L 156.837547 47.257528 
L 157.756486 49.156264 
L 158.434151 51.138323 
L 158.902988 53.177301 
L 159.262164 55.945826 
L 159.388592 58.73365 
L 159.323331 62.202803 
L 159.000074 66.978946 
L 157.827735 79.397615 
L 157.104887 85.66701 
L 156.4923 89.311604 
L 155.792261 92.237547 
L 155.06336 94.471996 
L 154.151877 96.57942 
L 153.033204 98.526324 
L 152.048042 99.860809 
L 150.934023 101.072964 
L 149.692095 102.151958 
L 148.327185 103.090123 
L 146.847978 103.883719 
L 145.266365 104.533389 
L 143.023139 105.185088 
L 140.660608 105.613309 
L 138.216131 105.850463 
L 135.096401 105.935779 
L 130.699515 105.793782 
L 122.676194 105.227658 
L 104.617968 103.78325 
L 101.402525 103.19373 
L 98.882617 102.505399 
L 97.005976 101.801815 
L 95.27963 100.951008 
L 93.724564 99.95001 
L 92.355928 98.80321 
L 91.181312 97.52167 
L 90.200072 96.121617 
L 89.403759 94.622452 
L 88.645234 92.640347 
L 88.113344 90.573627 
L 87.712435 88.027644 
L 87.477677 85.019056 
L 87.386961 80.722822 
L 87.467374 67.193088 
L 87.666127 63.027457 
L 88.009665 60.177534 
L 88.51585 57.822953 
L 89.130822 55.957646 
L 89.952149 54.213152 
L 90.771814 52.926081 
L 91.741901 51.75228 
L 92.861935 50.70489 
L 94.12559 49.793496 
L 95.52106 49.023125 
L 97.425567 48.257842 
L 99.471993 47.701079 
L 101.619393 47.330936 
L 104.274991 47.091655 
L 107.858933 47.027289 
L 112.722341 47.201916 
L 127.552834 47.87491 
L 133.705648 48.192521 
L 136.987767 48.583596 
L 139.38862 49.073302 
L 141.299991 49.65554 
L 143.042582 50.405824 
L 144.588505 51.331211 
L 145.91772 52.428117 
L 146.852729 53.463756 
L 147.768649 54.834504 
L 148.470828 56.320952 
L 148.979357 57.896103 
L 149.36258 59.811315 
L 149.57915 62.05883 
L 149.613806 64.897364 
L 149.411905 68.840873 
L 148.664021 77.533705 
L 148.020614 83.236252 
L 147.474036 86.196097 
L 146.818416 88.518757 
L 146.119897 90.240864 
L 145.240428 91.8058 
L 144.311459 93.020959 
L 143.232414 94.073842 
L 142.010598 94.953356 
L 140.660878 95.656397 
L 138.988436 96.25113 
L 137.212025 96.643204 
L 135.134747 96.880029 
L 132.546755 96.947591 
L 129.032651 96.802459 
L 117.119191 96.133283 
L 107.401314 95.856279 
L 104.978506 95.521376 
L 103.071786 95.059352 
L 101.485057 94.47208 
L 100.056483 93.707863 
L 98.942477 92.878347 
L 97.988769 91.914567 
L 97.19991 90.83034 
L 96.504196 89.489872 
L 95.948799 87.885635 
L 95.561267 86.027561 
L 95.33193 83.764956 
L 95.267758 80.777611 
L 95.423905 74.709723 
L 95.777724 66.43894 
L 96.132288 63.856677 
L 96.587648 62.024099 
L 97.194182 60.46625 
L 97.927364 59.185127 
L 98.744578 58.165526 
L 99.70964 57.288493 
L 100.812368 56.563088 
L 102.177239 55.936262 
L 103.811188 55.45298 
L 105.698897 55.141273 
L 107.967116 55.000413 
L 111.044107 55.055761 
L 123.275182 55.536678 
L 133.862705 55.414338 
L 135.900408 55.703527 
L 137.543916 56.14544 
L 138.916519 56.734841 
L 140.023189 57.43547 
L 140.965383 58.285543 
L 141.733839 59.271984 
L 142.375629 60.479945 
L 142.826474 61.794982 
L 143.143637 63.421678 
L 143.288591 65.347261 
L 143.240256 67.900742 
L 142.91149 71.716866 
L 141.985806 79.417159 
L 141.438489 82.390065 
L 140.863684 84.374631 
L 140.196856 85.909843 
L 139.444404 87.10851 
L 138.595368 88.065546 
L 137.612932 88.846665 
L 136.513265 89.44819 
L 135.238259 89.900628 
L 133.719524 90.20307 
L 131.895152 90.336015 
L 129.471191 90.271083 
L 124.281326 89.821964 
L 120.981571 89.684981 
L 118.032514 89.793273 
L 114.058581 90.195619 
L 110.050612 90.545948 
L 107.874537 90.523348 
L 106.167646 90.299129 
L 104.72561 89.888056 
L 103.565945 89.330251 
L 102.620538 88.637341 
L 101.837366 87.791092 
L 101.223895 86.811619 
L 100.729268 85.58438 
L 100.393662 84.11445 
L 100.226345 82.35131 
L 100.238248 80.027067 
L 100.518145 76.03028 
L 101.291759 67.994596 
L 101.730276 66.047254 
L 102.270306 64.625614 
L 102.916203 63.52813 
L 103.691888 62.644764 
L 104.616005 61.939988 
L 105.667003 61.418349 
L 106.925998 61.045407 
L 108.428003 60.837656 
L 110.305303 60.812728 
L 112.917221 61.021138 
L 118.418965 61.512625 
L 120.759511 61.452891 
L 123.193383 61.159054 
L 126.897144 60.44747 
L 130.384983 59.859006 
L 132.51243 59.725918 
L 134.178393 59.84087 
L 135.512651 60.147887 
L 136.609977 60.621875 
L 137.50981 61.251061 
L 138.243423 62.044225 
L 138.275502 62.087836 
L 138.275502 62.087836 
" clip-path="url(#p0e129c54ce)" style="fill: none; stroke: #1f77b4; stroke-width: 1.5; stroke-linecap: round"/>
   </g>
   <g id="line2d_10">
    <path d="M 197.992727 74.517123 
L 197.017174 89.698589 
L 196.590874 94.616225 
L 196.032288 99.43455 
L 195.274945 104.120959 
L 194.24649 108.631376 
L 192.874821 112.911849 
L 191.095552 116.902295 
L 188.859918 120.542321 
L 186.14167 123.778421 
L 182.941315 126.571216 
L 179.286454 128.901113 
L 175.227956 130.771018 
L 170.832892 132.205537 
L 166.175952 133.247109 
L 161.331234 133.950226 
L 156.365848 134.375145 
L 151.335948 134.582257 
L 146.285139 134.627764 
L 136.23528 134.422047 
L 111.891692 133.442787 
L 97.90542 132.71125 
L 93.384235 132.353476 
L 88.964348 131.891003 
L 84.67403 131.2905 
L 80.547577 130.518022 
L 76.623863 129.541379 
L 72.943999 128.332763 
L 69.548205 126.871347 
L 66.472247 125.145479 
L 63.743914 123.154052 
L 61.380143 120.906771 
L 59.385275 118.423216 
L 57.750749 115.730841 
L 56.456202 112.862294 
L 55.471698 109.852501 
L 54.760621 106.735966 
L 54.28274 103.544621 
L 53.997023 100.306352 
L 53.863959 97.044235 
L 53.915038 90.516119 
L 54.381535 80.85711 
L 55.541303 62.258143 
L 56.071108 56.301385 
L 56.864544 50.53354 
L 57.413602 47.748832 
L 58.094609 45.050378 
L 58.929707 42.455792 
L 59.939043 39.98392 
L 61.139478 37.65389 
L 62.543389 35.483981 
L 64.157698 33.490412 
L 65.983268 31.686186 
L 68.014765 30.080109 
L 70.241017 28.676139 
L 72.645833 27.473122 
L 75.20918 26.464942 
L 77.908555 25.641053 
L 80.720397 24.987289 
L 83.621376 24.486846 
L 86.589471 24.121305 
L 92.649896 23.718888 
L 98.774543 23.63394 
L 107.910568 23.836332 
L 131.399956 24.803349 
L 139.828737 25.279321 
L 145.27809 25.749736 
L 150.526066 26.432341 
L 155.49127 27.411103 
L 157.837694 28.036494 
L 160.076221 28.763957 
L 162.194227 29.600116 
L 164.179933 30.549608 
L 166.022997 31.614812 
L 167.715052 32.795692 
L 169.250158 34.089773 
L 170.625126 35.492264 
L 171.83967 36.996306 
L 172.896397 38.593339 
L 173.80063 40.273535 
L 174.560091 42.026266 
L 175.184482 43.840577 
L 175.685011 45.705608 
L 176.363842 49.546974 
L 176.698016 53.477244 
L 176.784993 57.439834 
L 176.633124 63.362894 
L 175.982518 74.938101 
L 175.100227 87.898783 
L 174.483269 93.218136 
L 173.878702 96.636284 
L 173.053975 99.910802 
L 171.954274 102.99809 
L 170.53285 105.850917 
L 169.69067 107.174914 
L 168.757363 108.423628 
L 167.731966 109.592592 
L 166.614909 110.678177 
L 165.408002 111.677737 
L 164.11438 112.589708 
L 162.738376 113.413664 
L 159.761548 114.801524 
L 156.529192 115.85984 
L 153.099211 116.621419 
L 149.52902 117.128646 
L 145.87035 117.428353 
L 140.307528 117.590088 
L 132.89816 117.479548 
L 118.456554 116.916364 
L 104.627566 116.24099 
L 99.655021 115.827305 
L 94.875621 115.210851 
L 91.837744 114.643646 
L 88.953217 113.922066 
L 86.253939 113.024621 
L 83.771015 111.935444 
L 81.53183 110.646054 
L 79.557195 109.156426 
L 77.859074 107.475105 
L 76.439298 105.618325 
L 75.289496 103.608264 
L 74.392179 101.470796 
L 73.722708 99.23311 
L 73.251726 96.921598 
L 72.947633 94.560226 
L 72.735639 90.968473 
L 72.759472 86.163541 
L 73.099635 79.053629 
L 74.140142 63.175879 
L 74.634309 58.870405 
L 75.180391 55.757691 
L 75.942461 52.786033 
L 76.599076 50.905824 
L 77.392195 49.123482 
L 78.333723 47.453712 
L 79.43167 45.910178 
L 80.689463 44.504516 
L 82.10561 43.245433 
L 83.673765 42.138023 
L 85.383206 41.183369 
L 87.219674 40.378508 
L 89.166425 39.71672 
L 92.253725 38.969947 
L 95.487597 38.479442 
L 98.812684 38.196399 
L 103.31071 38.057277 
L 108.934473 38.122801 
L 119.940596 38.536553 
L 134.650378 39.25751 
L 139.625663 39.729225 
L 143.416595 40.306944 
L 146.105456 40.899654 
L 148.625653 41.656456 
L 150.943901 42.59637 
L 153.030032 43.730665 
L 154.860525 45.061294 
L 156.421448 46.580492 
L 157.7102 48.27169 
L 158.735688 50.111554 
L 159.517002 52.072718 
L 160.080978 54.126635 
L 160.459213 56.246067 
L 160.732294 59.132768 
L 160.80827 62.777197 
L 160.63925 67.849526 
L 159.841298 81.105853 
L 159.361323 86.420883 
L 158.878448 89.612794 
L 158.324161 92.057157 
L 157.573486 94.369818 
L 156.858132 95.996136 
L 155.997797 97.512533 
L 154.984193 98.904709 
L 153.814233 100.16072 
L 152.490398 101.272046 
L 151.020563 102.234374 
L 149.417298 103.047957 
L 147.69676 103.717539 
L 145.252214 104.401878 
L 142.677302 104.875123 
L 139.340292 105.223192 
L 135.253048 105.377472 
L 129.795995 105.315613 
L 118.506673 104.878371 
L 108.363184 104.363478 
L 104.13908 103.961804 
L 100.698893 103.426575 
L 98.013907 102.794175 
L 95.54498 101.956051 
L 93.756897 101.121422 
L 92.157301 100.134909 
L 90.760734 98.998201 
L 89.574329 97.719703 
L 88.597033 96.313591 
L 87.819854 94.798231 
L 87.227022 93.19427 
L 86.713274 91.096662 
L 86.408398 88.931476 
L 86.250952 86.288572 
L 86.271777 82.752987 
L 86.577291 76.666657 
L 87.34726 65.468885 
L 87.830834 61.954748 
L 88.424994 59.363858 
L 89.14625 57.286179 
L 89.926922 55.684845 
L 90.888143 54.224999 
L 92.03747 52.925359 
L 93.373037 51.799296 
L 94.88367 50.85312 
L 96.550289 50.085303 
L 98.348273 49.486808 
L 100.640734 48.970291 
L 103.442391 48.601791 
L 106.733393 48.415047 
L 111.291736 48.416255 
L 119.418584 48.706884 
L 131.39234 49.310357 
L 135.367032 49.747708 
L 138.084771 50.24808 
L 140.293353 50.854985 
L 142.300784 51.64674 
L 143.832689 52.484077 
L 145.170978 53.469685 
L 146.305223 54.597214 
L 147.234058 55.853376 
L 147.965231 57.219667 
L 148.589706 58.924181 
L 149.001331 60.714469 
L 149.262701 62.82471 
L 149.363979 65.503284 
L 149.265491 69.243328 
L 148.684502 79.020537 
L 148.279463 83.415845 
L 147.800956 86.200717 
L 147.253738 88.16577 
L 146.59041 89.789405 
L 145.734252 91.267598 
L 144.815313 92.421281 
L 143.736211 93.430496 
L 142.503774 94.287601 
L 141.13214 94.991546 
L 139.419506 95.615952 
L 137.348893 96.110263 
L 134.927333 96.442583 
L 131.933836 96.614833 
L 127.912853 96.606447 
L 119.81625 96.305191 
L 110.736832 95.821305 
L 107.258452 95.405193 
L 104.829401 94.905152 
L 102.796302 94.258675 
L 101.150984 93.491635 
L 99.861897 92.6481 
L 98.769566 91.662783 
L 97.878558 90.547433 
L 97.183044 89.320308 
L 96.62087 87.852737 
L 96.22274 86.148468 
L 95.985365 84.063746 
L 95.928152 81.461544 
L 96.089659 77.433051 
L 96.74867 67.779642 
L 97.153662 65.069237 
L 97.677665 63.063178 
L 98.33413 61.464791 
L 99.062979 60.243544 
L 99.962627 59.164542 
L 101.033129 58.242811 
L 102.263644 57.485397 
L 103.7648 56.8439 
L 105.539392 56.350004 
L 107.570762 56.017981 
L 110.130383 55.828575 
L 113.637473 55.808978 
L 120.355902 56.049173 
L 128.973279 56.514317 
L 131.979971 56.9051 
L 134.14809 57.402242 
L 135.880794 58.028422 
L 137.209643 58.736145 
L 138.339449 59.596066 
L 139.199991 60.523331 
L 139.924927 61.64344 
L 140.454287 62.865513 
L 140.850852 64.352274 
L 141.09319 66.192374 
L 141.159704 68.558911 
L 141.009409 72.271013 
L 140.419937 80.608257 
L 140.034432 82.920796 
L 139.543863 84.593758 
L 138.94447 85.901037 
L 138.203172 86.998924 
L 137.342348 87.890955 
L 136.327891 88.634411 
L 135.098538 89.258814 
L 133.656747 89.743122 
L 131.842585 90.106595 
L 129.574725 90.317809 
L 126.523366 90.359646 
L 120.804475 90.163869 
L 112.841394 89.72333 
L 110.252819 89.353377 
L 108.393655 88.877949 
L 106.936132 88.284757 
L 105.793863 87.58801 
L 104.892475 86.788135 
L 104.178665 85.867379 
L 103.62309 84.79225 
L 103.217578 83.519863 
L 102.960101 81.947383 
L 102.868151 79.917061 
L 102.97728 76.768566 
L 103.505311 69.28489 
L 103.878439 67.166504 
L 104.353291 65.69284 
L 104.948128 64.540708 
L 105.669367 63.611691 
L 106.557635 62.834394 
L 107.601246 62.217266 
L 108.875345 61.726364 
L 110.423796 61.37205 
L 112.392502 61.157616 
L 115.083057 61.104 
L 120.150978 61.274093 
L 127.094565 61.671421 
L 129.397892 62.034217 
L 131.040869 62.51338 
L 132.28002 63.103022 
L 133.221119 63.788478 
L 133.967675 64.607267 
L 134.460629 65.414075 
L 134.460629 65.414075 
" clip-path="url(#p0e129c54ce)" style="fill: none; stroke: #ff7f0e; stroke-opacity: 0.5; stroke-width: 1.5; stroke-linecap: round"/>
   </g>
   <g id="patch_3">
    <path d="M 46.64 147.04 
L 46.64 10.8 
" style="fill: none; stroke: #ffffff; stroke-width: 0.8; stroke-linejoin: miter; stroke-linecap: square"/>
   </g>
   <g id="patch_4">
    <path d="M 205.2 147.04 
L 205.2 10.8 
" style="fill: none; stroke: #ffffff; stroke-width: 0.8; stroke-linejoin: miter; stroke-linecap: square"/>
   </g>
   <g id="patch_5">
    <path d="M 46.64 147.04 
L 205.2 147.04 
" style="fill: none; stroke: #ffffff; stroke-width: 0.8; stroke-linejoin: miter; stroke-linecap: square"/>
   </g>
   <g id="patch_6">
    <path d="M 46.64 10.8 
L 205.2 10.8 
" style="fill: none; stroke: #ffffff; stroke-width: 0.8; stroke-linejoin: miter; stroke-linecap: square"/>
   </g>
  </g>
 </g>
 <defs>
  <clipPath id="p0e129c54ce">
   <rect x="46.64" y="10.8" width="158.56" height="136.24"/>
  </clipPath>
 </defs>
</svg>
