<?xml version="1.0" encoding="utf-8" standalone="no"?>
<!DOCTYPE svg PUBLIC "-//W3C//DTD SVG 1.1//EN"
  "http://www.w3.org/Graphics/SVG/1.1/DTD/svg11.dtd">
<svg xmlns:xlink="http://www.w3.org/1999/xlink" width="216pt" height="180pt" viewBox="0 0 216 180" xmlns="http://www.w3.org/2000/svg" version="1.1">
 <metadata>
  <rdf:RDF xmlns:dc="http://purl.org/dc/elements/1.1/" xmlns:cc="http://creativecommons.org/ns#" xmlns:rdf="http://www.w3.org/1999/02/22-rdf-syntax-ns#">
   <cc:Work>
    <dc:type rdf:resource="http://purl.org/dc/dcmitype/StillImage"/>
    <dc:date>2023-06-14T18:39:47.553876</dc:date>
    <dc:format>image/svg+xml</dc:format>
    <dc:creator>
     <cc:Agent>
      <dc:title>Matplotlib v3.7.0, https://matplotlib.org/</dc:title>
     </cc:Agent>
    </dc:creator>
   </cc:Work>
  </rdf:RDF>
 </metadata>
 <defs>
  <style type="text/css">*{stroke-linejoin: round; stroke-linecap: butt}</style>
 </defs>
 <g id="figure_1">
  <g id="patch_1">
   <path d="M 0 180 
L 216 180 
L 216 0 
L 0 0 
z
" style="fill: #ffffff"/>
  </g>
  <g id="axes_1">
   <g id="patch_2">
    <path d="M 46.64 147.04 
L 205.2 147.04 
L 205.2 10.8 
L 46.64 10.8 
L 46.64 147.04 
z
" style="fill: none"/>
   </g>
   <g id="matplotlib.axis_1">
    <g id="xtick_1">
     <g id="line2d_1">
      <path d="M 83.126853 147.04 
L 83.126853 10.8 
" clip-path="url(#p3182ce3891)" style="fill: none; stroke: #d3d3d3; stroke-width: 0.8; stroke-linecap: round"/>
     </g>
     <g id="text_1">
      <!-- −1 -->
      <g style="fill: #808080" transform="translate(75.755759 161.638438) scale(0.1 -0.1)">
       <defs>
        <path id="DejaVuSans-2212" d="M 678 2272 
L 4684 2272 
L 4684 1741 
L 678 1741 
L 678 2272 
z
" transform="scale(0.015625)"/>
        <path id="DejaVuSans-31" d="M 794 531 
L 1825 531 
L 1825 4091 
L 703 3866 
L 703 4441 
L 1819 4666 
L 2450 4666 
L 2450 531 
L 3481 531 
L 3481 0 
L 794 0 
L 794 531 
z
" transform="scale(0.015625)"/>
       </defs>
       <use xlink:href="#DejaVuSans-2212"/>
       <use xlink:href="#DejaVuSans-31" x="83.789062"/>
      </g>
     </g>
    </g>
    <g id="xtick_2">
     <g id="line2d_2">
      <path d="M 121.415478 147.04 
L 121.415478 10.8 
" clip-path="url(#p3182ce3891)" style="fill: none; stroke: #d3d3d3; stroke-width: 0.8; stroke-linecap: round"/>
     </g>
     <g id="text_2">
      <!-- 0 -->
      <g style="fill: #808080" transform="translate(118.234228 161.638438) scale(0.1 -0.1)">
       <defs>
        <path id="DejaVuSans-30" d="M 2034 4250 
Q 1547 4250 1301 3770 
Q 1056 3291 1056 2328 
Q 1056 1369 1301 889 
Q 1547 409 2034 409 
Q 2525 409 2770 889 
Q 3016 1369 3016 2328 
Q 3016 3291 2770 3770 
Q 2525 4250 2034 4250 
z
M 2034 4750 
Q 2819 4750 3233 4129 
Q 3647 3509 3647 2328 
Q 3647 1150 3233 529 
Q 2819 -91 2034 -91 
Q 1250 -91 836 529 
Q 422 1150 422 2328 
Q 422 3509 836 4129 
Q 1250 4750 2034 4750 
z
" transform="scale(0.015625)"/>
       </defs>
       <use xlink:href="#DejaVuSans-30"/>
      </g>
     </g>
    </g>
    <g id="xtick_3">
     <g id="line2d_3">
      <path d="M 159.704103 147.04 
L 159.704103 10.8 
" clip-path="url(#p3182ce3891)" style="fill: none; stroke: #d3d3d3; stroke-width: 0.8; stroke-linecap: round"/>
     </g>
     <g id="text_3">
      <!-- 1 -->
      <g style="fill: #808080" transform="translate(156.522853 161.638438) scale(0.1 -0.1)">
       <use xlink:href="#DejaVuSans-31"/>
      </g>
     </g>
    </g>
    <g id="xtick_4">
     <g id="line2d_4">
      <path d="M 197.992727 147.04 
L 197.992727 10.8 
" clip-path="url(#p3182ce3891)" style="fill: none; stroke: #d3d3d3; stroke-width: 0.8; stroke-linecap: round"/>
     </g>
     <g id="text_4">
      <!-- 2 -->
      <g style="fill: #808080" transform="translate(194.811477 161.638438) scale(0.1 -0.1)">
       <defs>
        <path id="DejaVuSans-32" d="M 1228 531 
L 3431 531 
L 3431 0 
L 469 0 
L 469 531 
Q 828 903 1448 1529 
Q 2069 2156 2228 2338 
Q 2531 2678 2651 2914 
Q 2772 3150 2772 3378 
Q 2772 3750 2511 3984 
Q 2250 4219 1831 4219 
Q 1534 4219 1204 4116 
Q 875 4013 500 3803 
L 500 4441 
Q 881 4594 1212 4672 
Q 1544 4750 1819 4750 
Q 2544 4750 2975 4387 
Q 3406 4025 3406 3419 
Q 3406 3131 3298 2873 
Q 3191 2616 2906 2266 
Q 2828 2175 2409 1742 
Q 1991 1309 1228 531 
z
" transform="scale(0.015625)"/>
       </defs>
       <use xlink:href="#DejaVuSans-32"/>
      </g>
     </g>
    </g>
    <g id="text_5">
     <!-- x -->
     <g style="fill: #262626" transform="translate(122.960625 175.316563) scale(0.1 -0.1)">
      <defs>
       <path id="DejaVuSans-78" d="M 3513 3500 
L 2247 1797 
L 3578 0 
L 2900 0 
L 1881 1375 
L 863 0 
L 184 0 
L 1544 1831 
L 300 3500 
L 978 3500 
L 1906 2253 
L 2834 3500 
L 3513 3500 
z
" transform="scale(0.015625)"/>
      </defs>
      <use xlink:href="#DejaVuSans-78"/>
     </g>
    </g>
   </g>
   <g id="matplotlib.axis_2">
    <g id="ytick_1">
     <g id="line2d_5">
      <path d="M 46.64 144.543236 
L 205.2 144.543236 
" clip-path="url(#p3182ce3891)" style="fill: none; stroke: #d3d3d3; stroke-width: 0.8; stroke-linecap: round"/>
     </g>
     <g id="text_6">
      <!-- −2 -->
      <g style="fill: #808080" transform="translate(24.897813 148.342454) scale(0.1 -0.1)">
       <use xlink:href="#DejaVuSans-2212"/>
       <use xlink:href="#DejaVuSans-32" x="83.789062"/>
      </g>
     </g>
    </g>
    <g id="ytick_2">
     <g id="line2d_6">
      <path d="M 46.64 109.036239 
L 205.2 109.036239 
" clip-path="url(#p3182ce3891)" style="fill: none; stroke: #d3d3d3; stroke-width: 0.8; stroke-linecap: round"/>
     </g>
     <g id="text_7">
      <!-- −1 -->
      <g style="fill: #808080" transform="translate(24.897813 112.835458) scale(0.1 -0.1)">
       <use xlink:href="#DejaVuSans-2212"/>
       <use xlink:href="#DejaVuSans-31" x="83.789062"/>
      </g>
     </g>
    </g>
    <g id="ytick_3">
     <g id="line2d_7">
      <path d="M 46.64 73.529243 
L 205.2 73.529243 
" clip-path="url(#p3182ce3891)" style="fill: none; stroke: #d3d3d3; stroke-width: 0.8; stroke-linecap: round"/>
     </g>
     <g id="text_8">
      <!-- 0 -->
      <g style="fill: #808080" transform="translate(33.2775 77.328462) scale(0.1 -0.1)">
       <use xlink:href="#DejaVuSans-30"/>
      </g>
     </g>
    </g>
    <g id="ytick_4">
     <g id="line2d_8">
      <path d="M 46.64 38.022247 
L 205.2 38.022247 
" clip-path="url(#p3182ce3891)" style="fill: none; stroke: #d3d3d3; stroke-width: 0.8; stroke-linecap: round"/>
     </g>
     <g id="text_9">
      <!-- 1 -->
      <g style="fill: #808080" transform="translate(33.2775 41.821466) scale(0.1 -0.1)">
       <use xlink:href="#DejaVuSans-31"/>
      </g>
     </g>
    </g>
    <g id="text_10">
     <!-- y -->
     <g style="fill: #262626" transform="translate(18.818125 81.879375) rotate(-90) scale(0.1 -0.1)">
      <defs>
       <path id="DejaVuSans-79" d="M 2059 -325 
Q 1816 -950 1584 -1140 
Q 1353 -1331 966 -1331 
L 506 -1331 
L 506 -850 
L 844 -850 
Q 1081 -850 1212 -737 
Q 1344 -625 1503 -206 
L 1606 56 
L 191 3500 
L 800 3500 
L 1894 763 
L 2988 3500 
L 3597 3500 
L 2059 -325 
z
" transform="scale(0.015625)"/>
      </defs>
      <use xlink:href="#DejaVuSans-79"/>
     </g>
    </g>
   </g>
   <g id="line2d_9">
    <path d="M 197.992727 73.529243 
L 195.661428 82.193771 
L 193.199827 90.535175 
L 190.53788 98.811317 
L 189.076494 102.965024 
L 187.487617 107.127793 
L 185.73681 111.280618 
L 183.789452 115.387586 
L 181.614271 119.395113 
L 179.18748 123.233681 
L 176.496817 126.82315 
L 173.544421 130.081795 
L 170.347491 132.93778 
L 166.93624 135.34031 
L 163.349614 137.267277 
L 159.62998 138.727272 
L 155.818204 139.755894 
L 151.950073 140.408129 
L 148.054381 140.749376 
L 144.152415 140.847273 
L 140.258418 140.765539 
L 132.522094 140.277087 
L 105.792022 137.933108 
L 98.118778 137.075374 
L 94.278531 136.497755 
L 90.451131 135.766163 
L 86.656036 134.835505 
L 82.9199 133.661251 
L 79.276517 132.203763 
L 75.765787 130.433255 
L 72.431463 128.334548 
L 69.317729 125.910502 
L 66.464993 123.183032 
L 63.905673 120.191116 
L 61.660894 116.98609 
L 59.738822 113.625337 
L 58.134869 110.165864 
L 56.833513 106.659089 
L 55.8111 103.14755 
L 55.038949 99.663564 
L 54.486207 96.229444 
L 54.122156 92.858681 
L 53.917869 89.557573 
L 53.887742 83.163495 
L 54.229832 77.013111 
L 54.836429 71.043459 
L 55.654438 65.185881 
L 56.679404 59.381162 
L 57.949689 53.592355 
L 59.540041 47.8191 
L 60.486221 44.952274 
L 61.551556 42.114175 
L 62.749902 39.322099 
L 64.093996 36.597838 
L 65.594382 33.967136 
L 67.25833 31.458565 
L 69.088873 29.101798 
L 71.084147 26.925401 
L 73.237152 24.954375 
L 75.536051 23.207844 
L 77.964955 21.697271 
L 80.505103 20.425516 
L 83.136235 19.386881 
L 85.837956 18.568059 
L 88.590913 17.949742 
L 91.37768 17.508561 
L 94.183312 17.219049 
L 99.805048 16.992727 
L 105.390005 17.081918 
L 113.639367 17.49401 
L 134.995488 18.851791 
L 140.223335 19.337951 
L 145.372166 20.035788 
L 150.382321 21.058067 
L 152.808676 21.725928 
L 155.165003 22.514476 
L 157.436682 23.432812 
L 159.608598 24.486638 
L 161.665856 25.677643 
L 163.594571 27.00318 
L 165.382661 28.456292 
L 167.020547 30.026093 
L 168.501682 31.698484 
L 169.822849 33.457095 
L 170.984213 35.28433 
L 171.989117 37.1624 
L 172.843701 39.074209 
L 173.556376 41.004059 
L 174.13724 42.938113 
L 174.94891 46.774107 
L 175.372476 50.513895 
L 175.498278 54.119421 
L 175.405629 57.575643 
L 174.995814 62.483834 
L 174.178095 68.577648 
L 172.765341 77.028071 
L 171.030379 86.338551 
L 169.895433 91.553526 
L 168.883922 95.430562 
L 167.66031 99.253422 
L 166.691041 101.747155 
L 165.574824 104.171229 
L 164.293665 106.497641 
L 162.833793 108.69471 
L 161.187214 110.729486 
L 159.352831 112.570904 
L 157.336865 114.193252 
L 155.152384 115.579271 
L 152.818005 116.722251 
L 150.355981 117.62666 
L 147.790058 118.307243 
L 145.143458 118.786902 
L 142.437277 119.093905 
L 138.304465 119.297994 
L 132.721579 119.246987 
L 124.289778 118.860108 
L 105.788442 117.803951 
L 101.475822 117.385115 
L 97.192826 116.759501 
L 94.381748 116.17991 
L 91.632638 115.436264 
L 88.973261 114.502069 
L 86.434531 113.356339 
L 84.04854 111.986351 
L 81.845963 110.38972 
L 79.853213 108.575241 
L 78.089833 106.56219 
L 76.566652 104.378151 
L 75.285046 102.055852 
L 74.237398 99.629698 
L 73.408545 97.132665 
L 72.777838 94.594005 
L 72.32139 92.037915 
L 71.908802 88.210523 
L 71.751315 84.426117 
L 71.820126 79.478965 
L 72.19317 73.457658 
L 72.778487 67.581832 
L 73.574066 61.810294 
L 74.425364 57.26387 
L 75.243921 53.913737 
L 76.265199 50.645872 
L 77.534118 47.504146 
L 78.537637 45.507523 
L 79.678066 43.611406 
L 80.961061 41.835558 
L 82.388256 40.198829 
L 83.956879 38.717578 
L 85.659775 37.404171 
L 87.485843 36.265809 
L 89.420857 35.30388 
L 91.448531 34.513925 
L 93.551673 33.886214 
L 96.810987 33.217437 
L 100.150082 32.823344 
L 103.526696 32.640572 
L 108.035511 32.622155 
L 114.735228 32.846651 
L 133.162022 33.794089 
L 138.408853 34.277169 
L 142.481901 34.890353 
L 145.418394 35.54228 
L 148.210632 36.397921 
L 150.815359 37.483126 
L 153.189661 38.810064 
L 154.625748 39.827523 
L 155.934138 40.945337 
L 157.108998 42.155045 
L 158.147507 43.445802 
L 159.451024 45.50634 
L 160.462045 47.676094 
L 161.205448 49.911463 
L 161.714021 52.17415 
L 162.02433 54.433351 
L 162.193052 57.401944 
L 162.121291 60.998517 
L 161.785747 65.115799 
L 160.991141 71.527208 
L 158.83234 86.699325 
L 158.038972 90.609564 
L 157.297221 93.340018 
L 156.351396 95.979726 
L 155.414974 97.992883 
L 154.296261 99.885275 
L 152.981284 101.624282 
L 151.464569 103.179094 
L 149.750166 104.524771 
L 147.851379 105.645877 
L 145.789127 106.538794 
L 143.589298 107.212107 
L 141.279675 107.685076 
L 138.278838 108.036146 
L 134.569165 108.186501 
L 130.16047 108.120232 
L 121.235071 107.689138 
L 107.635549 106.871325 
L 103.74672 106.429884 
L 100.563048 105.876661 
L 98.089777 105.267331 
L 95.717498 104.476539 
L 93.483034 103.479547 
L 91.423714 102.261161 
L 90.014725 101.199869 
L 88.734953 100.015931 
L 87.592622 98.717151 
L 86.59206 97.314749 
L 85.478313 95.307613 
L 84.606352 93.176723 
L 83.955819 90.958142 
L 83.499424 88.684616 
L 83.155128 85.806435 
L 82.995302 82.349629 
L 83.045833 78.362121 
L 83.33257 73.344871 
L 83.894195 67.383382 
L 84.554145 62.644579 
L 85.274386 59.071882 
L 86.105712 56.129097 
L 86.99307 53.798984 
L 88.088781 51.619047 
L 89.129769 50.010179 
L 90.322792 48.542931 
L 91.666993 47.234231 
L 93.155367 46.096177 
L 94.775297 45.134576 
L 96.509757 44.348261 
L 98.33894 43.729317 
L 100.726939 43.169804 
L 103.19145 42.814913 
L 106.202493 42.602703 
L 110.236919 42.571134 
L 116.211666 42.797925 
L 130.952011 43.663932 
L 135.451971 44.130287 
L 138.463056 44.634641 
L 140.907066 45.234727 
L 143.181286 46.023188 
L 144.915776 46.839355 
L 146.479937 47.80464 
L 147.856012 48.914554 
L 149.03321 50.156715 
L 150.008901 51.512386 
L 150.788669 52.958789 
L 151.484177 54.780112 
L 151.948268 56.657139 
L 152.248215 58.871861 
L 152.348863 61.386085 
L 152.234409 64.448762 
L 151.819652 68.818322 
L 149.676315 86.823552 
L 149.048576 89.423207 
L 148.335471 91.448695 
L 147.513807 93.134445 
L 146.631026 94.492235 
L 145.586124 95.716347 
L 144.377955 96.786984 
L 143.013159 97.690354 
L 141.505432 98.420655 
L 139.873823 98.980867 
L 137.885809 99.427527 
L 135.532233 99.716013 
L 132.547377 99.828708 
L 128.66235 99.723765 
L 121.378684 99.246837 
L 110.134125 98.354618 
L 106.547906 97.828206 
L 103.89378 97.218752 
L 101.640126 96.462473 
L 99.789204 95.594426 
L 98.317861 94.67114 
L 97.007302 93.593116 
L 95.872715 92.367098 
L 94.921342 91.007352 
L 94.151775 89.533804 
L 93.482393 87.740074 
L 93.013544 85.863079 
L 92.687059 83.691845 
L 92.51061 81.004012 
L 92.524344 77.596554 
L 92.779044 73.076273 
L 93.272225 68.043608 
L 93.842268 64.335964 
L 94.471032 61.650657 
L 95.19105 59.5227 
L 96.030841 57.740571 
L 96.956066 56.290179 
L 98.04894 55.009239 
L 99.306064 53.915208 
L 100.714042 53.016973 
L 102.251206 52.313287 
L 104.077801 51.745742 
L 106.185749 51.350605 
L 108.547661 51.141102 
L 111.516625 51.112013 
L 115.592488 51.318056 
L 124.280858 52.054169 
L 130.355356 52.716055 
L 133.351871 53.258095 
L 135.538553 53.868706 
L 137.25356 54.567137 
L 138.649084 55.366334 
L 139.833863 56.309952 
L 140.7318 57.29845 
L 141.494726 58.47622 
L 142.053213 59.738552 
L 142.474534 61.262702 
L 142.717993 63.029373 
L 142.773875 65.205383 
L 142.601979 68.112709 
L 141.621273 80.466458 
L 141.292738 83.5087 
L 140.876907 85.41062 
L 140.337574 86.897959 
L 139.665507 88.116882 
L 138.851037 89.128247 
L 137.920618 89.932639 
L 136.842359 90.577164 
L 135.559512 91.081969 
L 134.079338 91.426361 
L 132.252338 91.613808 
L 130.007349 91.607778 
L 127.037251 91.362637 
L 121.660841 90.650426 
L 113.342338 89.368939 
L 110.785722 88.735339 
L 108.979493 88.072182 
L 107.54357 87.319259 
L 106.399645 86.480596 
L 105.441145 85.501039 
L 104.676181 84.393876 
L 104.077698 83.124597 
L 103.637653 81.651918 
L 103.359669 79.936803 
L 103.245127 77.766447 
L 103.33355 74.969413 
L 103.677225 71.363561 
L 104.166445 68.397631 
L 104.709857 66.398764 
L 105.330568 64.926668 
L 106.056692 63.771196 
L 106.880289 62.875808 
L 107.830168 62.174401 
L 108.918555 61.651143 
L 110.194368 61.293435 
L 111.664517 61.117789 
L 113.425694 61.140978 
L 115.520646 61.399916 
L 118.10938 61.953509 
L 121.354644 62.883779 
L 124.285354 63.938534 
L 124.411204 63.991319 
L 124.411204 63.991319 
" clip-path="url(#p3182ce3891)" style="fill: none; stroke: #1f77b4; stroke-width: 1.5; stroke-linecap: round"/>
   </g>
   <g id="line2d_10">
    <path d="M 197.992727 73.529243 
L 197.029651 90.261043 
L 196.608804 95.680869 
L 196.057362 100.991242 
L 195.309705 106.156228 
L 194.294404 111.127249 
L 192.940279 115.844845 
L 191.183767 120.242796 
L 188.976726 124.254542 
L 186.293244 127.821113 
L 183.133822 130.899108 
L 179.525705 133.466936 
L 175.519115 135.527795 
L 171.180265 137.108807 
L 166.582886 138.256746 
L 161.800131 139.031665 
L 156.898253 139.499976 
L 151.932685 139.728239 
L 146.946475 139.778393 
L 137.025154 139.551668 
L 117.70239 138.694038 
L 103.727498 137.978998 
L 94.72217 137.271854 
L 90.358813 136.762154 
L 86.123368 136.100327 
L 82.049692 135.248963 
L 78.176162 134.172585 
L 74.543363 132.840545 
L 71.191001 131.22989 
L 68.154384 129.327776 
L 65.460947 127.132983 
L 63.127408 124.65621 
L 61.158054 121.919033 
L 59.544434 118.951713 
L 58.266444 115.79023 
L 57.294531 112.473075 
L 56.59255 109.03828 
L 56.12078 105.521034 
L 55.838717 101.952072 
L 55.707356 98.356827 
L 55.757781 91.162059 
L 56.218312 80.51667 
L 57.363246 60.018374 
L 57.886275 53.453311 
L 58.669563 47.096453 
L 59.211599 44.02737 
L 59.883896 41.053349 
L 60.708313 38.193803 
L 61.704739 35.469504 
L 62.889821 32.901531 
L 64.275776 30.51003 
L 65.869438 28.312878 
L 67.671659 26.324403 
L 69.677174 24.554314 
L 71.874952 23.00697 
L 74.24901 21.6811 
L 76.779572 20.569965 
L 79.444423 19.66194 
L 82.220301 18.941415 
L 85.084177 18.389866 
L 88.01431 17.986995 
L 93.997223 17.543484 
L 100.043536 17.449861 
L 109.062712 17.672921 
L 129.427522 18.596881 
L 140.572651 19.263268 
L 145.952306 19.781722 
L 151.133161 20.534035 
L 156.034861 21.612748 
L 158.351274 22.302004 
L 160.561171 23.103757 
L 162.652087 24.025304 
L 164.612396 25.071758 
L 166.431888 26.245741 
L 168.102301 27.547212 
L 169.617774 28.973445 
L 170.975156 30.519159 
L 172.174166 32.176794 
L 173.217377 33.936917 
L 174.110045 35.788694 
L 174.859792 37.720414 
L 175.476198 39.720003 
L 175.970325 41.775491 
L 176.640473 46.009139 
L 176.970374 50.340768 
L 177.056238 54.708018 
L 176.906312 61.235943 
L 176.264027 73.993212 
L 175.39302 88.27744 
L 174.783953 94.140007 
L 174.187119 97.907216 
L 173.37294 101.516129 
L 172.287304 104.918691 
L 170.884059 108.062849 
L 170.052651 109.522054 
L 169.131281 110.898287 
L 168.118999 112.186625 
L 167.016229 113.38307 
L 165.824759 114.484705 
L 164.547682 115.489807 
L 163.189277 116.397905 
L 161.754847 117.209796 
L 158.683036 118.554143 
L 155.387216 119.551702 
L 151.925063 120.244615 
L 148.350975 120.682736 
L 144.711914 120.918171 
L 139.210671 120.999059 
L 131.917377 120.813866 
L 112.565433 119.926681 
L 104.168376 119.380989 
L 99.315145 118.861157 
L 94.677972 118.085665 
L 91.750763 117.378726 
L 88.990616 116.489172 
L 86.428978 115.396139 
L 84.095085 114.086008 
L 82.013057 112.554005 
L 80.199299 110.804879 
L 78.660706 108.852473 
L 77.393982 106.71824 
L 76.386166 104.428987 
L 75.616181 102.014274 
L 75.057065 99.503889 
L 74.678432 96.925767 
L 74.380272 92.984287 
L 74.316754 89.010132 
L 74.449984 83.733398 
L 75.038918 72.14919 
L 75.724208 61.02983 
L 76.212054 56.28468 
L 76.751152 52.854095 
L 77.503475 49.578971 
L 78.151692 47.506754 
L 78.934667 45.542399 
L 79.864153 43.702112 
L 80.948057 42.000952 
L 82.189764 40.451743 
L 83.587798 39.064083 
L 85.135896 37.843584 
L 86.823474 36.791441 
L 88.636453 35.904387 
L 90.558305 35.175017 
L 92.571194 34.592415 
L 95.721925 33.963462 
L 98.980005 33.581413 
L 103.408711 33.361969 
L 108.967155 33.388419 
L 117.720655 33.725659 
L 134.455273 34.590755 
L 139.40757 35.064037 
L 143.198487 35.643418 
L 145.901124 36.242147 
L 148.448291 37.013268 
L 150.806879 37.980048 
L 152.945684 39.157999 
L 154.838932 40.552812 
L 156.469455 42.159462 
L 157.830858 43.962723 
L 158.928223 45.939056 
L 159.777271 48.059426 
L 160.402257 50.292471 
L 160.833143 52.607426 
L 161.162287 55.773823 
L 161.286437 59.786719 
L 161.183949 64.592389 
L 160.670993 74.74699 
L 159.998795 85.2062 
L 159.49021 89.474633 
L 158.984864 92.199088 
L 158.296099 94.787846 
L 157.38424 97.201697 
L 156.534909 98.872949 
L 155.534269 100.407294 
L 154.379273 101.791568 
L 153.07237 103.016384 
L 151.621333 104.076984 
L 150.038574 104.97365 
L 148.340041 105.71161 
L 145.926762 106.465834 
L 143.384782 106.987407 
L 140.756539 107.314774 
L 137.405029 107.512338 
L 132.68245 107.524797 
L 125.361673 107.260587 
L 110.118685 106.471576 
L 105.923494 106.057795 
L 102.494795 105.50625 
L 99.807229 104.850431 
L 97.801575 104.168888 
L 95.950555 103.33105 
L 94.276185 102.327737 
L 92.795897 101.157005 
L 91.520547 99.824493 
L 90.45317 98.342822 
L 89.588717 96.730178 
L 88.914773 95.008327 
L 88.311997 92.737781 
L 87.934257 90.376613 
L 87.711363 87.476902 
L 87.678338 83.578251 
L 87.902744 77.794682 
L 88.722742 63.997532 
L 89.173629 60.104723 
L 89.727864 57.225638 
L 90.404386 54.908276 
L 91.141073 53.115043 
L 92.05347 51.473135 
L 93.150801 50.004061 
L 94.433114 48.723919 
L 95.891147 47.641324 
L 97.507461 46.756328 
L 99.258625 46.060546 
L 101.117964 45.53837 
L 103.453786 45.111328 
L 106.269064 44.835784 
L 109.947793 44.732107 
L 114.83686 44.83899 
L 128.146756 45.458437 
L 133.335279 45.855086 
L 136.512651 46.288523 
L 139.173087 46.865889 
L 141.32752 47.562381 
L 143.01308 48.323332 
L 144.525392 49.246179 
L 145.846564 50.332437 
L 146.966303 51.57511 
L 147.883257 52.959551 
L 148.605079 54.465368 
L 149.147243 56.068911 
L 149.581266 58.030792 
L 149.863802 60.349419 
L 149.984308 63.299074 
L 149.900844 67.42449 
L 149.364587 77.666322 
L 148.945002 83.073892 
L 148.491889 86.157154 
L 147.972299 88.3383 
L 147.339688 90.145586 
L 146.5193 91.796427 
L 145.634784 93.089601 
L 144.591843 94.2253 
L 143.396092 95.194128 
L 142.060547 95.993861 
L 140.38729 96.707704 
L 138.589386 97.22566 
L 136.460782 97.606933 
L 133.769571 97.844761 
L 130.295208 97.901909 
L 124.890345 97.729312 
L 112.51814 97.069823 
L 109.045327 96.657144 
L 106.602395 96.157438 
L 104.719277 95.571133 
L 103.014124 94.803111 
L 101.659241 93.944691 
L 100.493386 92.927116 
L 99.525549 91.759444 
L 98.754497 90.458923 
L 98.169144 89.04845 
L 97.713118 87.383244 
L 97.38963 85.29506 
L 97.240827 82.797446 
L 97.276054 79.395294 
L 97.651099 71.910476 
L 98.11013 65.461843 
L 98.529909 62.661855 
L 99.047211 60.624078 
L 99.66741 59.015733 
L 100.401976 57.683155 
L 101.305615 56.509155 
L 102.377382 55.509586 
L 103.605654 54.691328 
L 104.969968 54.051228 
L 106.58271 53.541253 
L 108.581064 53.160546 
L 110.953982 52.946116 
L 114.115158 52.900173 
L 119.461585 53.088151 
L 129.589029 53.661062 
L 132.449755 54.047527 
L 134.622167 54.559584 
L 136.267239 55.16459 
L 137.631481 55.896621 
L 138.727618 56.727064 
L 139.64659 57.698076 
L 140.385603 58.796375 
L 140.988542 60.098682 
L 141.434907 61.599044 
L 141.733662 63.386185 
L 141.878933 65.65664 
L 141.841066 68.805113 
L 141.439349 76.559508 
L 141.077686 80.917778 
L 140.678038 83.243334 
L 140.175201 84.967613 
L 139.543157 86.374611 
L 138.770079 87.546292 
L 137.881495 88.489293 
L 136.844045 89.266893 
L 135.597721 89.911678 
L 134.147647 90.403619 
L 132.424585 90.751098 
L 130.267979 90.953214 
L 127.346262 90.988086 
L 121.967279 90.781976 
L 114.091218 90.306064 
L 111.59835 89.928182 
L 109.741143 89.428072 
L 108.336568 88.830386 
L 107.17302 88.093903 
L 106.246368 87.240913 
L 105.504828 86.251249 
L 104.920223 85.08744 
L 104.485851 83.701353 
L 104.207982 82.043832 
L 104.08738 79.876793 
L 104.161403 76.658893 
L 104.653742 68.354062 
L 105.001921 65.814016 
L 105.461508 64.055053 
L 106.03956 62.712127 
L 106.72507 61.663149 
L 107.538869 60.810797 
L 108.497191 60.120448 
L 109.67655 59.554134 
L 111.073818 59.137928 
L 112.83093 58.860834 
L 115.090311 58.744904 
L 118.562345 58.817885 
L 127.17073 59.282301 
L 129.647705 59.631445 
L 131.338845 60.084942 
L 132.641073 60.659368 
L 133.65328 61.344765 
L 134.454162 62.153494 
L 135.07423 63.09079 
L 135.2732 63.49659 
L 135.2732 63.49659 
" clip-path="url(#p3182ce3891)" style="fill: none; stroke: #ff7f0e; stroke-opacity: 0.5; stroke-width: 1.5; stroke-linecap: round"/>
   </g>
   <g id="patch_3">
    <path d="M 46.64 147.04 
L 46.64 10.8 
" style="fill: none; stroke: #ffffff; stroke-width: 0.8; stroke-linejoin: miter; stroke-linecap: square"/>
   </g>
   <g id="patch_4">
    <path d="M 205.2 147.04 
L 205.2 10.8 
" style="fill: none; stroke: #ffffff; stroke-width: 0.8; stroke-linejoin: miter; stroke-linecap: square"/>
   </g>
   <g id="patch_5">
    <path d="M 46.64 147.04 
L 205.2 147.04 
" style="fill: none; stroke: #ffffff; stroke-width: 0.8; stroke-linejoin: miter; stroke-linecap: square"/>
   </g>
   <g id="patch_6">
    <path d="M 46.64 10.8 
L 205.2 10.8 
" style="fill: none; stroke: #ffffff; stroke-width: 0.8; stroke-linejoin: miter; stroke-linecap: square"/>
   </g>
  </g>
 </g>
 <defs>
  <clipPath id="p3182ce3891">
   <rect x="46.64" y="10.8" width="158.56" height="136.24"/>
  </clipPath>
 </defs>
</svg>
