<?xml version="1.0" encoding="utf-8" standalone="no"?>
<!DOCTYPE svg PUBLIC "-//W3C//DTD SVG 1.1//EN"
  "http://www.w3.org/Graphics/SVG/1.1/DTD/svg11.dtd">
<svg xmlns:xlink="http://www.w3.org/1999/xlink" width="216pt" height="180pt" viewBox="0 0 216 180" xmlns="http://www.w3.org/2000/svg" version="1.1">
 <metadata>
  <rdf:RDF xmlns:dc="http://purl.org/dc/elements/1.1/" xmlns:cc="http://creativecommons.org/ns#" xmlns:rdf="http://www.w3.org/1999/02/22-rdf-syntax-ns#">
   <cc:Work>
    <dc:type rdf:resource="http://purl.org/dc/dcmitype/StillImage"/>
    <dc:date>2023-06-14T18:35:04.676424</dc:date>
    <dc:format>image/svg+xml</dc:format>
    <dc:creator>
     <cc:Agent>
      <dc:title>Matplotlib v3.7.0, https://matplotlib.org/</dc:title>
     </cc:Agent>
    </dc:creator>
   </cc:Work>
  </rdf:RDF>
 </metadata>
 <defs>
  <style type="text/css">*{stroke-linejoin: round; stroke-linecap: butt}</style>
 </defs>
 <g id="figure_1">
  <g id="patch_1">
   <path d="M 0 180 
L 216 180 
L 216 0 
L 0 0 
z
" style="fill: #ffffff"/>
  </g>
  <g id="axes_1">
   <g id="patch_2">
    <path d="M 46.64 147.04 
L 205.2 147.04 
L 205.2 10.8 
L 46.64 10.8 
L 46.64 147.04 
z
" style="fill: none"/>
   </g>
   <g id="matplotlib.axis_1">
    <g id="xtick_1">
     <g id="line2d_1">
      <path d="M 82.853095 147.04 
L 82.853095 10.8 
" clip-path="url(#ped1e8c5488)" style="fill: none; stroke: #d3d3d3; stroke-width: 0.8; stroke-linecap: round"/>
     </g>
     <g id="text_1">
      <!-- −1 -->
      <g style="fill: #808080" transform="translate(75.482002 161.638438) scale(0.1 -0.1)">
       <defs>
        <path id="DejaVuSans-2212" d="M 678 2272 
L 4684 2272 
L 4684 1741 
L 678 1741 
L 678 2272 
z
" transform="scale(0.015625)"/>
        <path id="DejaVuSans-31" d="M 794 531 
L 1825 531 
L 1825 4091 
L 703 3866 
L 703 4441 
L 1819 4666 
L 2450 4666 
L 2450 531 
L 3481 531 
L 3481 0 
L 794 0 
L 794 531 
z
" transform="scale(0.015625)"/>
       </defs>
       <use xlink:href="#DejaVuSans-2212"/>
       <use xlink:href="#DejaVuSans-31" x="83.789062"/>
      </g>
     </g>
    </g>
    <g id="xtick_2">
     <g id="line2d_2">
      <path d="M 121.232973 147.04 
L 121.232973 10.8 
" clip-path="url(#ped1e8c5488)" style="fill: none; stroke: #d3d3d3; stroke-width: 0.8; stroke-linecap: round"/>
     </g>
     <g id="text_2">
      <!-- 0 -->
      <g style="fill: #808080" transform="translate(118.051723 161.638438) scale(0.1 -0.1)">
       <defs>
        <path id="DejaVuSans-30" d="M 2034 4250 
Q 1547 4250 1301 3770 
Q 1056 3291 1056 2328 
Q 1056 1369 1301 889 
Q 1547 409 2034 409 
Q 2525 409 2770 889 
Q 3016 1369 3016 2328 
Q 3016 3291 2770 3770 
Q 2525 4250 2034 4250 
z
M 2034 4750 
Q 2819 4750 3233 4129 
Q 3647 3509 3647 2328 
Q 3647 1150 3233 529 
Q 2819 -91 2034 -91 
Q 1250 -91 836 529 
Q 422 1150 422 2328 
Q 422 3509 836 4129 
Q 1250 4750 2034 4750 
z
" transform="scale(0.015625)"/>
       </defs>
       <use xlink:href="#DejaVuSans-30"/>
      </g>
     </g>
    </g>
    <g id="xtick_3">
     <g id="line2d_3">
      <path d="M 159.61285 147.04 
L 159.61285 10.8 
" clip-path="url(#ped1e8c5488)" style="fill: none; stroke: #d3d3d3; stroke-width: 0.8; stroke-linecap: round"/>
     </g>
     <g id="text_3">
      <!-- 1 -->
      <g style="fill: #808080" transform="translate(156.4316 161.638438) scale(0.1 -0.1)">
       <use xlink:href="#DejaVuSans-31"/>
      </g>
     </g>
    </g>
    <g id="xtick_4">
     <g id="line2d_4">
      <path d="M 197.992727 147.04 
L 197.992727 10.8 
" clip-path="url(#ped1e8c5488)" style="fill: none; stroke: #d3d3d3; stroke-width: 0.8; stroke-linecap: round"/>
     </g>
     <g id="text_4">
      <!-- 2 -->
      <g style="fill: #808080" transform="translate(194.811477 161.638438) scale(0.1 -0.1)">
       <defs>
        <path id="DejaVuSans-32" d="M 1228 531 
L 3431 531 
L 3431 0 
L 469 0 
L 469 531 
Q 828 903 1448 1529 
Q 2069 2156 2228 2338 
Q 2531 2678 2651 2914 
Q 2772 3150 2772 3378 
Q 2772 3750 2511 3984 
Q 2250 4219 1831 4219 
Q 1534 4219 1204 4116 
Q 875 4013 500 3803 
L 500 4441 
Q 881 4594 1212 4672 
Q 1544 4750 1819 4750 
Q 2544 4750 2975 4387 
Q 3406 4025 3406 3419 
Q 3406 3131 3298 2873 
Q 3191 2616 2906 2266 
Q 2828 2175 2409 1742 
Q 1991 1309 1228 531 
z
" transform="scale(0.015625)"/>
       </defs>
       <use xlink:href="#DejaVuSans-32"/>
      </g>
     </g>
    </g>
    <g id="text_5">
     <!-- x -->
     <g style="fill: #262626" transform="translate(122.960625 175.316563) scale(0.1 -0.1)">
      <defs>
       <path id="DejaVuSans-78" d="M 3513 3500 
L 2247 1797 
L 3578 0 
L 2900 0 
L 1881 1375 
L 863 0 
L 184 0 
L 1544 1831 
L 300 3500 
L 978 3500 
L 1906 2253 
L 2834 3500 
L 3513 3500 
z
" transform="scale(0.015625)"/>
      </defs>
      <use xlink:href="#DejaVuSans-78"/>
     </g>
    </g>
   </g>
   <g id="matplotlib.axis_2">
    <g id="ytick_1">
     <g id="line2d_5">
      <path d="M 46.64 142.130105 
L 205.2 142.130105 
" clip-path="url(#ped1e8c5488)" style="fill: none; stroke: #d3d3d3; stroke-width: 0.8; stroke-linecap: round"/>
     </g>
     <g id="text_6">
      <!-- −2 -->
      <g style="fill: #808080" transform="translate(24.897813 145.929324) scale(0.1 -0.1)">
       <use xlink:href="#DejaVuSans-2212"/>
       <use xlink:href="#DejaVuSans-32" x="83.789062"/>
      </g>
     </g>
    </g>
    <g id="ytick_2">
     <g id="line2d_6">
      <path d="M 46.64 107.16957 
L 205.2 107.16957 
" clip-path="url(#ped1e8c5488)" style="fill: none; stroke: #d3d3d3; stroke-width: 0.8; stroke-linecap: round"/>
     </g>
     <g id="text_7">
      <!-- −1 -->
      <g style="fill: #808080" transform="translate(24.897813 110.968788) scale(0.1 -0.1)">
       <use xlink:href="#DejaVuSans-2212"/>
       <use xlink:href="#DejaVuSans-31" x="83.789062"/>
      </g>
     </g>
    </g>
    <g id="ytick_3">
     <g id="line2d_7">
      <path d="M 46.64 72.209034 
L 205.2 72.209034 
" clip-path="url(#ped1e8c5488)" style="fill: none; stroke: #d3d3d3; stroke-width: 0.8; stroke-linecap: round"/>
     </g>
     <g id="text_8">
      <!-- 0 -->
      <g style="fill: #808080" transform="translate(33.2775 76.008253) scale(0.1 -0.1)">
       <use xlink:href="#DejaVuSans-30"/>
      </g>
     </g>
    </g>
    <g id="ytick_4">
     <g id="line2d_8">
      <path d="M 46.64 37.248499 
L 205.2 37.248499 
" clip-path="url(#ped1e8c5488)" style="fill: none; stroke: #d3d3d3; stroke-width: 0.8; stroke-linecap: round"/>
     </g>
     <g id="text_9">
      <!-- 1 -->
      <g style="fill: #808080" transform="translate(33.2775 41.047718) scale(0.1 -0.1)">
       <use xlink:href="#DejaVuSans-31"/>
      </g>
     </g>
    </g>
    <g id="text_10">
     <!-- y -->
     <g style="fill: #262626" transform="translate(18.818125 81.879375) rotate(-90) scale(0.1 -0.1)">
      <defs>
       <path id="DejaVuSans-79" d="M 2059 -325 
Q 1816 -950 1584 -1140 
Q 1353 -1331 966 -1331 
L 506 -1331 
L 506 -850 
L 844 -850 
Q 1081 -850 1212 -737 
Q 1344 -625 1503 -206 
L 1606 56 
L 191 3500 
L 800 3500 
L 1894 763 
L 2988 3500 
L 3597 3500 
L 2059 -325 
z
" transform="scale(0.015625)"/>
      </defs>
      <use xlink:href="#DejaVuSans-79"/>
     </g>
    </g>
   </g>
   <g id="line2d_9">
    <path d="M 197.992727 72.209034 
L 197.137611 76.535123 
L 196.092571 80.771955 
L 194.889914 84.939006 
L 193.555729 89.054268 
L 190.561059 97.187519 
L 187.169637 105.243429 
L 185.312157 109.237705 
L 183.326784 113.189261 
L 181.191906 117.068754 
L 178.882451 120.834199 
L 176.372082 124.431346 
L 173.636002 127.796242 
L 170.654199 130.860534 
L 167.414639 133.559391 
L 163.915754 135.840876 
L 160.167467 137.674572 
L 156.190372 139.056989 
L 152.013179 140.012053 
L 147.669088 140.586614 
L 143.192032 140.842479 
L 138.613605 140.847273 
L 133.961146 140.666127 
L 124.519149 139.958667 
L 114.997259 139.006728 
L 105.497803 137.857645 
L 100.794356 137.162338 
L 96.150113 136.338895 
L 91.593559 135.342697 
L 87.159329 134.127313 
L 82.887337 132.650054 
L 78.82073 130.877886 
L 75.002798 128.792668 
L 71.473286 126.394536 
L 68.264783 123.702508 
L 65.399926 120.752076 
L 62.889919 117.590397 
L 60.734531 114.27033 
L 58.923336 110.844654 
L 57.437745 107.361526 
L 56.253361 103.86161 
L 55.342249 100.376859 
L 54.674908 96.930567 
L 54.221841 93.538251 
L 53.954733 90.208931 
L 53.847273 86.946518 
L 53.875692 83.75112 
L 54.25958 77.549432 
L 54.975541 71.567236 
L 55.940408 65.761442 
L 57.115058 60.097427 
L 58.498837 54.560113 
L 60.122494 49.163392 
L 62.038874 43.95787 
L 63.126336 41.453655 
L 64.310163 39.034225 
L 65.596854 36.71622 
L 66.991283 34.517295 
L 68.496157 32.455161 
L 70.111588 30.546452 
L 71.834841 28.805536 
L 73.660305 27.243419 
L 75.579694 25.866877 
L 77.582478 24.677948 
L 79.656476 23.673834 
L 81.788541 22.847218 
L 83.965262 22.186928 
L 86.173595 21.678817 
L 88.401385 21.306748 
L 92.87323 20.901882 
L 97.311882 20.836764 
L 101.672779 20.990762 
L 110.082772 21.594144 
L 121.932672 22.486097 
L 134.91929 23.15663 
L 142.034485 23.649721 
L 145.494593 24.049195 
L 148.868375 24.613808 
L 152.131933 25.391439 
L 155.256299 26.425136 
L 158.209484 27.748117 
L 160.95927 29.379206 
L 163.476351 31.319826 
L 165.73728 33.553428 
L 167.726648 36.047679 
L 169.438156 38.758865 
L 170.87449 41.637461 
L 172.046214 44.633587 
L 172.970059 47.701376 
L 173.666977 50.801811 
L 174.160271 53.903998 
L 174.473965 56.985232 
L 174.658643 61.536158 
L 174.563486 65.980698 
L 174.248073 70.314701 
L 173.560396 75.938964 
L 172.623529 81.42333 
L 171.454506 86.806679 
L 170.026254 92.109449 
L 168.746101 96.025734 
L 167.242679 99.861963 
L 165.468162 103.569865 
L 164.109697 105.93623 
L 162.594418 108.18818 
L 160.910481 110.296973 
L 159.049389 112.233353 
L 157.007112 113.970223 
L 154.784862 115.485623 
L 152.389358 116.765467 
L 149.832448 117.805471 
L 147.130113 118.611833 
L 144.301029 119.200513 
L 141.364936 119.595269 
L 138.34111 119.824921 
L 133.678745 119.927267 
L 127.298525 119.761922 
L 119.167424 119.303527 
L 109.319715 118.522863 
L 102.805784 117.750373 
L 98.032348 116.914956 
L 94.94637 116.183786 
L 91.970863 115.281364 
L 89.137596 114.185075 
L 86.478937 112.879692 
L 84.025304 111.35962 
L 81.80247 109.629968 
L 79.829202 107.706145 
L 78.115668 105.612042 
L 76.66287 103.37722 
L 75.463124 101.033724 
L 74.501391 98.61313 
L 73.75713 96.144255 
L 73.206321 93.651706 
L 72.686853 89.910373 
L 72.460324 86.205699 
L 72.450583 82.563518 
L 72.668602 77.820757 
L 73.171093 72.068574 
L 73.985622 65.382977 
L 74.842919 59.967679 
L 75.703425 55.750789 
L 76.792817 51.679634 
L 77.807154 48.764264 
L 79.025471 46.011773 
L 80.472242 43.468478 
L 81.570912 41.912307 
L 82.778045 40.482332 
L 84.091274 39.188758 
L 85.505295 38.038762 
L 87.012155 37.035925 
L 88.601744 36.179966 
L 90.262432 35.466824 
L 92.859487 34.647815 
L 95.546509 34.096686 
L 98.285006 33.769215 
L 101.961676 33.599866 
L 106.523424 33.673604 
L 113.618163 34.085418 
L 125.372567 34.780598 
L 137.299587 35.403545 
L 141.111377 35.821492 
L 144.06211 36.333993 
L 146.890181 37.058434 
L 148.907492 37.767234 
L 150.816483 38.633604 
L 152.600004 39.665954 
L 154.242542 40.866335 
L 155.731439 42.230106 
L 157.057893 43.746323 
L 158.21758 45.398787 
L 159.210843 47.167589 
L 160.042439 49.030854 
L 160.914989 51.624025 
L 161.543693 54.297099 
L 161.96187 57.008817 
L 162.241577 60.405126 
L 162.304741 64.437998 
L 162.11696 69.041663 
L 161.676399 74.158312 
L 160.968609 79.758301 
L 160.134501 84.6267 
L 159.179577 88.800965 
L 158.123913 92.286654 
L 157.025681 95.088642 
L 155.974999 97.231946 
L 154.750733 99.257778 
L 153.337586 101.135171 
L 151.72576 102.833073 
L 149.912527 104.323973 
L 148.423258 105.293812 
L 146.274777 106.380267 
L 143.957114 107.230849 
L 141.493165 107.857396 
L 138.90821 108.282321 
L 135.544903 108.575784 
L 131.371801 108.665582 
L 125.666171 108.511395 
L 116.9627 108.019146 
L 109.693623 107.424099 
L 105.400238 106.887743 
L 101.922464 106.256969 
L 99.24753 105.587905 
L 96.706712 104.741025 
L 94.338339 103.693926 
L 92.179327 102.434464 
L 90.716603 101.350274 
L 89.399249 100.151614 
L 88.233345 98.847223 
L 87.220872 97.448835 
L 86.105357 95.462054 
L 85.243225 93.367678 
L 84.61011 91.199849 
L 84.175777 88.988986 
L 83.86249 86.202421 
L 83.74113 82.870267 
L 83.832492 79.043163 
L 84.193817 73.726594 
L 84.950034 66.066379 
L 85.691786 60.672817 
L 86.342597 57.372612 
L 87.076719 54.668098 
L 87.849113 52.536159 
L 88.792963 50.548122 
L 89.924917 48.736426 
L 90.970943 47.434119 
L 92.140394 46.275758 
L 93.427027 45.269183 
L 94.820469 44.417247 
L 96.691536 43.565676 
L 98.677341 42.936412 
L 100.745819 42.504931 
L 103.294883 42.205378 
L 106.306261 42.086064 
L 110.161642 42.169757 
L 116.819286 42.589854 
L 128.183631 43.282366 
L 134.511194 43.725782 
L 138.076011 44.197378 
L 140.789941 44.78536 
L 143.021981 45.503994 
L 144.799371 46.296702 
L 146.426908 47.265169 
L 147.884559 48.411963 
L 149.157786 49.730051 
L 150.239271 51.203649 
L 151.129647 52.810296 
L 151.837144 54.523659 
L 152.45109 56.621107 
L 152.911704 59.098991 
L 153.183953 61.930716 
L 153.262381 65.386149 
L 153.113044 69.704683 
L 152.679316 75.38379 
L 152.082348 80.595576 
L 151.466146 84.261235 
L 150.739451 87.270185 
L 149.947464 89.63208 
L 149.056347 91.619999 
L 148.109864 93.243647 
L 146.993556 94.731748 
L 145.70034 96.059192 
L 144.230724 97.205277 
L 142.593195 98.156811 
L 140.80347 98.910304 
L 138.882706 99.472656 
L 136.558081 99.90255 
L 133.821136 100.157634 
L 130.364892 100.223541 
L 125.880177 100.067324 
L 117.831213 99.523491 
L 111.480122 98.920875 
L 107.794105 98.373406 
L 104.868908 97.720149 
L 102.675126 97.023147 
L 100.655426 96.14278 
L 99.061895 95.210081 
L 97.653464 94.124415 
L 96.444768 92.893502 
L 95.441488 91.532831 
L 94.63983 90.063535 
L 94.027377 88.509671 
L 93.53436 86.661373 
L 93.201265 84.528804 
L 93.037592 81.898302 
L 93.08343 78.579726 
L 93.405031 73.751547 
L 94.192796 65.518235 
L 94.764118 61.660519 
L 95.338367 59.173294 
L 95.998698 57.210557 
L 96.769846 55.575308 
L 97.618644 54.251788 
L 98.619212 53.089373 
L 99.767425 52.102081 
L 101.050681 51.295917 
L 102.449584 50.667984 
L 104.110758 50.165432 
L 106.028424 49.820915 
L 108.360837 49.640544 
L 111.251965 49.6574 
L 115.326169 49.932097 
L 130.892643 51.408205 
L 133.985705 51.917086 
L 136.209146 52.499996 
L 138.005804 53.199512 
L 139.407449 53.967464 
L 140.642376 54.892949 
L 141.695954 55.971981 
L 142.562517 57.190538 
L 143.246275 58.52689 
L 143.793578 60.06789 
L 144.21122 61.916722 
L 144.479865 64.175692 
L 144.578737 67.048056 
L 144.474522 71.163654 
L 144.087885 77.373848 
L 143.674462 80.948959 
L 143.170316 83.439271 
L 142.581257 85.300279 
L 141.872186 86.842572 
L 141.024895 88.153264 
L 140.062407 89.230267 
L 138.938293 90.139663 
L 137.663709 90.869604 
L 136.258445 91.418803 
L 134.644452 91.816299 
L 132.72832 92.059422 
L 130.417205 92.126062 
L 127.414253 91.97991 
L 122.831186 91.506993 
L 115.570818 90.529691 
L 112.214545 89.877752 
L 109.924691 89.210898 
L 108.257275 88.507342 
L 106.931638 87.723576 
L 105.862013 86.848503 
L 104.98804 85.854284 
L 104.278465 84.697761 
L 103.750235 83.390936 
L 103.392678 81.890353 
L 103.205193 80.089768 
L 103.211283 77.836066 
L 103.465033 74.659881 
L 104.270235 68.016955 
L 104.794568 65.153048 
L 105.330458 63.392599 
L 105.955014 62.083837 
L 106.682206 61.074764 
L 107.50084 60.309393 
L 108.472461 59.708699 
L 109.582695 59.2847 
L 110.918639 59.020914 
L 112.490476 58.944321 
L 114.395181 59.079808 
L 116.848637 59.489562 
L 120.464995 60.344135 
L 125.789639 61.829954 
L 126.701281 62.139475 
L 126.701281 62.139475 
" clip-path="url(#ped1e8c5488)" style="fill: none; stroke: #1f77b4; stroke-width: 1.5; stroke-linecap: round"/>
   </g>
   <g id="line2d_10">
    <path d="M 197.992727 72.209034 
L 197.027355 88.683327 
L 196.605506 94.019741 
L 196.05275 99.248387 
L 195.303311 104.333882 
L 194.28559 109.228398 
L 192.928237 113.873389 
L 191.167539 118.203655 
L 188.955238 122.153659 
L 186.265361 125.665339 
L 183.098409 128.695964 
L 179.481693 131.224272 
L 175.465555 133.253414 
L 171.116363 134.810094 
L 166.508027 135.940365 
L 161.713874 136.703358 
L 156.800313 137.164462 
L 151.822911 137.389212 
L 146.824818 137.438594 
L 136.879851 137.215359 
L 112.79034 136.152706 
L 103.502838 135.666892 
L 94.476048 134.970632 
L 90.102291 134.468776 
L 85.856752 133.817134 
L 81.773367 132.978873 
L 77.890606 131.919061 
L 74.249148 130.607521 
L 70.888797 129.021654 
L 67.844943 127.148814 
L 65.145086 124.9878 
L 62.805986 122.549145 
L 60.831939 119.854094 
L 59.214473 116.932442 
L 57.933437 113.819615 
L 56.959208 110.553512 
L 56.255554 107.171579 
L 55.78266 103.708464 
L 55.499924 100.194429 
L 55.36825 96.654516 
L 55.418795 89.570477 
L 55.880424 79.088923 
L 57.028087 58.9061 
L 57.552362 52.442076 
L 58.337517 46.183051 
L 58.880845 43.161202 
L 59.554744 40.232951 
L 60.381126 37.417415 
L 61.379927 34.735043 
L 62.567833 32.206592 
L 63.957091 29.851896 
L 65.554551 27.688559 
L 67.361068 25.730688 
L 69.371362 23.98784 
L 71.574378 22.464311 
L 73.954094 21.158847 
L 76.490688 20.064812 
L 79.161889 19.170762 
L 81.944383 18.461325 
L 84.815085 17.918265 
L 87.752201 17.521595 
L 93.749373 17.084909 
L 99.810096 16.992727 
L 108.850767 17.212354 
L 129.264112 18.122094 
L 140.435802 18.778225 
L 145.828279 19.2887 
L 151.021481 20.029435 
L 155.934863 21.091546 
L 158.256797 21.770194 
L 160.471961 22.559608 
L 162.56786 23.466972 
L 164.532842 24.497321 
L 166.356669 25.653236 
L 168.031064 26.934678 
L 169.550148 28.338961 
L 170.910765 29.860885 
L 172.112633 31.493009 
L 173.15833 33.226043 
L 174.053126 35.049321 
L 174.80466 36.951312 
L 175.422535 38.920126 
L 175.917839 40.94398 
L 176.589585 45.112471 
L 176.920272 49.377436 
L 177.006341 53.677472 
L 176.856057 60.10493 
L 176.212241 72.665862 
L 175.339159 86.730253 
L 174.72864 92.502593 
L 174.130384 96.211825 
L 173.314264 99.765196 
L 172.22604 103.115391 
L 170.819452 106.21116 
L 169.986062 107.647907 
L 169.062496 109.002959 
L 168.047802 110.27147 
L 166.942403 111.449501 
L 165.748093 112.534182 
L 164.467973 113.523815 
L 163.106331 114.417937 
L 161.668482 115.217333 
L 158.58935 116.540991 
L 155.285675 117.523196 
L 151.815271 118.205446 
L 148.232664 118.636823 
L 144.584931 118.868636 
L 139.070577 118.948278 
L 131.759901 118.765936 
L 112.361836 117.892405 
L 103.944766 117.355111 
L 99.079969 116.843279 
L 94.431744 116.079723 
L 91.497559 115.383663 
L 88.730834 114.507799 
L 86.16309 113.431589 
L 83.823635 112.141621 
L 81.736645 110.633195 
L 79.918564 108.91099 
L 78.376304 106.988632 
L 77.106562 104.887244 
L 76.096343 102.633224 
L 75.324524 100.255673 
L 74.764075 97.783924 
L 74.384539 95.24548 
L 74.085668 91.36466 
L 74.022 87.451669 
L 74.155547 82.256145 
L 74.745885 70.85022 
L 75.432808 59.90199 
L 75.921817 55.229869 
L 76.4622 51.852081 
L 77.216315 48.627362 
L 77.866077 46.587037 
L 78.650919 44.652914 
L 79.58262 42.84095 
L 80.669107 41.165971 
L 81.913773 39.640605 
L 83.315139 38.274301 
L 84.866926 37.072585 
L 86.558527 36.036635 
L 88.375827 35.163234 
L 90.302259 34.445089 
L 92.319945 33.871453 
L 95.478185 33.25218 
L 98.74403 32.876011 
L 103.183291 32.659944 
L 108.754982 32.685987 
L 117.529344 33.018037 
L 134.303845 33.869818 
L 139.267945 34.335817 
L 143.067897 34.906281 
L 145.776975 35.495795 
L 148.330213 36.255049 
L 150.694422 37.20695 
L 152.838324 38.366771 
L 154.736084 39.740118 
L 156.370494 41.322041 
L 157.735141 43.09755 
L 158.835122 45.043467 
L 159.686193 47.131203 
L 160.312668 49.329881 
L 160.744581 51.609209 
L 161.07451 54.726874 
L 161.198956 58.678011 
L 161.096224 63.40972 
L 160.582045 73.40804 
L 159.908245 83.70628 
L 159.398448 87.909021 
L 158.891898 90.591546 
L 158.201491 93.140462 
L 157.287459 95.517163 
L 156.436104 97.162694 
L 155.433079 98.673425 
L 154.27533 100.036395 
L 152.965312 101.242361 
L 151.510817 102.286638 
L 149.924286 103.169505 
L 148.221705 103.896107 
L 145.802674 104.638723 
L 143.254636 105.152269 
L 140.620129 105.474598 
L 137.260632 105.669122 
L 132.526797 105.681388 
L 125.188573 105.421245 
L 109.909257 104.644377 
L 105.704067 104.236964 
L 102.267197 103.693908 
L 99.573226 103.048182 
L 97.562792 102.377127 
L 95.70736 101.552184 
L 94.028999 100.564313 
L 92.545183 99.411599 
L 91.266794 98.099594 
L 90.196874 96.640727 
L 89.33036 95.052901 
L 88.65481 93.35755 
L 88.050597 91.121948 
L 87.671957 88.797119 
L 87.448532 85.942035 
L 87.415428 82.103385 
L 87.640368 76.408827 
L 88.462321 62.824019 
L 88.914283 58.99112 
L 89.469838 56.156345 
L 90.147973 53.874648 
L 90.886416 52.109014 
L 91.800987 50.492374 
L 92.900933 49.04591 
L 94.186303 47.78547 
L 95.64781 46.719536 
L 97.267976 45.848161 
L 99.023314 45.163087 
L 101.270433 44.564891 
L 103.62694 44.176627 
L 106.458332 43.934075 
L 110.14841 43.85594 
L 115.447574 43.991267 
L 129.489022 44.66012 
L 134.260378 45.082536 
L 137.387475 45.576685 
L 139.668468 46.132532 
L 141.773605 46.874278 
L 143.407668 47.67597 
L 144.861377 48.638499 
L 146.119114 49.760542 
L 147.173458 51.032546 
L 148.026125 52.437959 
L 148.68758 53.955346 
L 149.241525 55.835405 
L 149.632528 58.083269 
L 149.835814 60.680873 
L 149.852832 64.173087 
L 149.602702 69.907498 
L 148.910561 80.825335 
L 148.466257 84.148456 
L 147.920319 86.558456 
L 147.308078 88.355008 
L 146.510364 90.001351 
L 145.646414 91.295654 
L 144.623516 92.436745 
L 143.446157 93.41444 
L 142.126407 94.225504 
L 140.467204 94.953919 
L 138.678721 95.486735 
L 136.555383 95.883589 
L 133.864155 96.137348 
L 130.382658 96.208813 
L 125.202873 96.057539 
L 112.761989 95.424015 
L 109.044668 95.013657 
L 106.581738 94.537745 
L 104.49698 93.911694 
L 102.787764 93.155493 
L 101.429651 92.310284 
L 100.261018 91.30837 
L 99.290874 90.158668 
L 98.517985 88.878163 
L 97.931236 87.489397 
L 97.474124 85.849819 
L 97.149865 83.793773 
L 97.000707 81.334598 
L 97.036018 77.984805 
L 97.411957 70.61518 
L 97.872082 64.265794 
L 98.292862 61.508897 
L 98.811396 59.502482 
L 99.433073 57.91889 
L 100.16939 56.606821 
L 101.075182 55.450889 
L 102.149504 54.466704 
L 103.380703 53.661039 
L 104.748269 53.03079 
L 106.364854 52.528664 
L 108.367971 52.153816 
L 110.746544 51.942687 
L 113.915255 51.89745 
L 119.274423 52.082536 
L 129.426004 52.646629 
L 132.419175 53.049933 
L 134.586269 53.565709 
L 136.223666 54.173071 
L 137.578219 54.905606 
L 138.663634 55.734193 
L 139.57089 56.700463 
L 140.297962 57.790755 
L 140.888637 59.080708 
L 141.32336 60.563871 
L 141.62276 62.432992 
L 141.751194 64.779045 
L 141.685759 68.087892 
L 141.194014 76.878466 
L 140.836287 80.232525 
L 140.38657 82.38404 
L 139.846601 83.949992 
L 139.194247 85.212798 
L 138.420831 86.257356 
L 137.491726 87.145704 
L 136.416827 87.870185 
L 135.136368 88.462971 
L 133.572882 88.92709 
L 131.734406 89.234486 
L 129.375636 89.392764 
L 126.083862 89.372989 
L 117.886342 89.014096 
L 113.489492 88.682733 
L 111.094421 88.29256 
L 109.328812 87.792803 
L 107.944995 87.181045 
L 106.805582 86.432694 
L 105.904359 85.571688 
L 105.188785 84.578625 
L 104.630022 83.417034 
L 104.220321 82.040174 
L 103.957997 80.33627 
L 103.861095 78.133829 
L 103.965747 74.715875 
L 104.485063 66.589153 
L 104.848715 64.286376 
L 105.330618 62.633291 
L 105.919246 61.383045 
L 106.632958 60.374914 
L 107.473723 59.561846 
L 108.500677 58.885198 
L 109.707691 58.362066 
L 111.179808 57.974268 
L 113.01102 57.732102 
L 115.448566 57.649863 
L 119.514028 57.772739 
L 127.591433 58.241467 
L 129.846784 58.601134 
L 131.46347 59.073712 
L 132.695632 59.655822 
L 133.674965 60.360361 
L 134.441448 61.183452 
L 135.043919 62.162403 
L 135.123722 62.330786 
L 135.123722 62.330786 
" clip-path="url(#ped1e8c5488)" style="fill: none; stroke: #ff7f0e; stroke-opacity: 0.5; stroke-width: 1.5; stroke-linecap: round"/>
   </g>
   <g id="patch_3">
    <path d="M 46.64 147.04 
L 46.64 10.8 
" style="fill: none; stroke: #ffffff; stroke-width: 0.8; stroke-linejoin: miter; stroke-linecap: square"/>
   </g>
   <g id="patch_4">
    <path d="M 205.2 147.04 
L 205.2 10.8 
" style="fill: none; stroke: #ffffff; stroke-width: 0.8; stroke-linejoin: miter; stroke-linecap: square"/>
   </g>
   <g id="patch_5">
    <path d="M 46.64 147.04 
L 205.2 147.04 
" style="fill: none; stroke: #ffffff; stroke-width: 0.8; stroke-linejoin: miter; stroke-linecap: square"/>
   </g>
   <g id="patch_6">
    <path d="M 46.64 10.8 
L 205.2 10.8 
" style="fill: none; stroke: #ffffff; stroke-width: 0.8; stroke-linejoin: miter; stroke-linecap: square"/>
   </g>
  </g>
 </g>
 <defs>
  <clipPath id="ped1e8c5488">
   <rect x="46.64" y="10.8" width="158.56" height="136.24"/>
  </clipPath>
 </defs>
</svg>
