<?xml version="1.0" encoding="utf-8" standalone="no"?>
<!DOCTYPE svg PUBLIC "-//W3C//DTD SVG 1.1//EN"
  "http://www.w3.org/Graphics/SVG/1.1/DTD/svg11.dtd">
<svg xmlns:xlink="http://www.w3.org/1999/xlink" width="216pt" height="180pt" viewBox="0 0 216 180" xmlns="http://www.w3.org/2000/svg" version="1.1">
 <metadata>
  <rdf:RDF xmlns:dc="http://purl.org/dc/elements/1.1/" xmlns:cc="http://creativecommons.org/ns#" xmlns:rdf="http://www.w3.org/1999/02/22-rdf-syntax-ns#">
   <cc:Work>
    <dc:type rdf:resource="http://purl.org/dc/dcmitype/StillImage"/>
    <dc:date>2023-06-14T18:39:00.410971</dc:date>
    <dc:format>image/svg+xml</dc:format>
    <dc:creator>
     <cc:Agent>
      <dc:title>Matplotlib v3.7.0, https://matplotlib.org/</dc:title>
     </cc:Agent>
    </dc:creator>
   </cc:Work>
  </rdf:RDF>
 </metadata>
 <defs>
  <style type="text/css">*{stroke-linejoin: round; stroke-linecap: butt}</style>
 </defs>
 <g id="figure_1">
  <g id="patch_1">
   <path d="M 0 180 
L 216 180 
L 216 0 
L 0 0 
z
" style="fill: #ffffff"/>
  </g>
  <g id="axes_1">
   <g id="patch_2">
    <path d="M 46.64 147.04 
L 205.2 147.04 
L 205.2 12.474329 
L 46.64 12.474329 
L 46.64 147.04 
z
" style="fill: none"/>
   </g>
   <g id="matplotlib.axis_1">
    <g id="xtick_1">
     <g id="line2d_1">
      <path d="M 81.638693 147.04 
L 81.638693 12.474329 
" clip-path="url(#pbcafeb97e8)" style="fill: none; stroke: #d3d3d3; stroke-width: 0.8; stroke-linecap: round"/>
     </g>
     <g id="text_1">
      <!-- −1 -->
      <g style="fill: #808080" transform="translate(74.2676 161.638438) scale(0.1 -0.1)">
       <defs>
        <path id="DejaVuSans-2212" d="M 678 2272 
L 4684 2272 
L 4684 1741 
L 678 1741 
L 678 2272 
z
" transform="scale(0.015625)"/>
        <path id="DejaVuSans-31" d="M 794 531 
L 1825 531 
L 1825 4091 
L 703 3866 
L 703 4441 
L 1819 4666 
L 2450 4666 
L 2450 531 
L 3481 531 
L 3481 0 
L 794 0 
L 794 531 
z
" transform="scale(0.015625)"/>
       </defs>
       <use xlink:href="#DejaVuSans-2212"/>
       <use xlink:href="#DejaVuSans-31" x="83.789062"/>
      </g>
     </g>
    </g>
    <g id="xtick_2">
     <g id="line2d_2">
      <path d="M 120.423371 147.04 
L 120.423371 12.474329 
" clip-path="url(#pbcafeb97e8)" style="fill: none; stroke: #d3d3d3; stroke-width: 0.8; stroke-linecap: round"/>
     </g>
     <g id="text_2">
      <!-- 0 -->
      <g style="fill: #808080" transform="translate(117.242121 161.638438) scale(0.1 -0.1)">
       <defs>
        <path id="DejaVuSans-30" d="M 2034 4250 
Q 1547 4250 1301 3770 
Q 1056 3291 1056 2328 
Q 1056 1369 1301 889 
Q 1547 409 2034 409 
Q 2525 409 2770 889 
Q 3016 1369 3016 2328 
Q 3016 3291 2770 3770 
Q 2525 4250 2034 4250 
z
M 2034 4750 
Q 2819 4750 3233 4129 
Q 3647 3509 3647 2328 
Q 3647 1150 3233 529 
Q 2819 -91 2034 -91 
Q 1250 -91 836 529 
Q 422 1150 422 2328 
Q 422 3509 836 4129 
Q 1250 4750 2034 4750 
z
" transform="scale(0.015625)"/>
       </defs>
       <use xlink:href="#DejaVuSans-30"/>
      </g>
     </g>
    </g>
    <g id="xtick_3">
     <g id="line2d_3">
      <path d="M 159.208049 147.04 
L 159.208049 12.474329 
" clip-path="url(#pbcafeb97e8)" style="fill: none; stroke: #d3d3d3; stroke-width: 0.8; stroke-linecap: round"/>
     </g>
     <g id="text_3">
      <!-- 1 -->
      <g style="fill: #808080" transform="translate(156.026799 161.638438) scale(0.1 -0.1)">
       <use xlink:href="#DejaVuSans-31"/>
      </g>
     </g>
    </g>
    <g id="xtick_4">
     <g id="line2d_4">
      <path d="M 197.992727 147.04 
L 197.992727 12.474329 
" clip-path="url(#pbcafeb97e8)" style="fill: none; stroke: #d3d3d3; stroke-width: 0.8; stroke-linecap: round"/>
     </g>
     <g id="text_4">
      <!-- 2 -->
      <g style="fill: #808080" transform="translate(194.811477 161.638438) scale(0.1 -0.1)">
       <defs>
        <path id="DejaVuSans-32" d="M 1228 531 
L 3431 531 
L 3431 0 
L 469 0 
L 469 531 
Q 828 903 1448 1529 
Q 2069 2156 2228 2338 
Q 2531 2678 2651 2914 
Q 2772 3150 2772 3378 
Q 2772 3750 2511 3984 
Q 2250 4219 1831 4219 
Q 1534 4219 1204 4116 
Q 875 4013 500 3803 
L 500 4441 
Q 881 4594 1212 4672 
Q 1544 4750 1819 4750 
Q 2544 4750 2975 4387 
Q 3406 4025 3406 3419 
Q 3406 3131 3298 2873 
Q 3191 2616 2906 2266 
Q 2828 2175 2409 1742 
Q 1991 1309 1228 531 
z
" transform="scale(0.015625)"/>
       </defs>
       <use xlink:href="#DejaVuSans-32"/>
      </g>
     </g>
    </g>
    <g id="text_5">
     <!-- x -->
     <g style="fill: #262626" transform="translate(122.960625 175.316563) scale(0.1 -0.1)">
      <defs>
       <path id="DejaVuSans-78" d="M 3513 3500 
L 2247 1797 
L 3578 0 
L 2900 0 
L 1881 1375 
L 863 0 
L 184 0 
L 1544 1831 
L 300 3500 
L 978 3500 
L 1906 2253 
L 2834 3500 
L 3513 3500 
z
" transform="scale(0.015625)"/>
      </defs>
      <use xlink:href="#DejaVuSans-78"/>
     </g>
    </g>
   </g>
   <g id="matplotlib.axis_2">
    <g id="ytick_1">
     <g id="line2d_5">
      <path d="M 46.64 138.161371 
L 205.2 138.161371 
" clip-path="url(#pbcafeb97e8)" style="fill: none; stroke: #d3d3d3; stroke-width: 0.8; stroke-linecap: round"/>
     </g>
     <g id="text_6">
      <!-- −2 -->
      <g style="fill: #808080" transform="translate(24.897813 141.96059) scale(0.1 -0.1)">
       <use xlink:href="#DejaVuSans-2212"/>
       <use xlink:href="#DejaVuSans-32" x="83.789062"/>
      </g>
     </g>
    </g>
    <g id="ytick_2">
     <g id="line2d_6">
      <path d="M 46.64 107.294396 
L 205.2 107.294396 
" clip-path="url(#pbcafeb97e8)" style="fill: none; stroke: #d3d3d3; stroke-width: 0.8; stroke-linecap: round"/>
     </g>
     <g id="text_7">
      <!-- −1 -->
      <g style="fill: #808080" transform="translate(24.897813 111.093615) scale(0.1 -0.1)">
       <use xlink:href="#DejaVuSans-2212"/>
       <use xlink:href="#DejaVuSans-31" x="83.789062"/>
      </g>
     </g>
    </g>
    <g id="ytick_3">
     <g id="line2d_7">
      <path d="M 46.64 76.42742 
L 205.2 76.42742 
" clip-path="url(#pbcafeb97e8)" style="fill: none; stroke: #d3d3d3; stroke-width: 0.8; stroke-linecap: round"/>
     </g>
     <g id="text_8">
      <!-- 0 -->
      <g style="fill: #808080" transform="translate(33.2775 80.226639) scale(0.1 -0.1)">
       <use xlink:href="#DejaVuSans-30"/>
      </g>
     </g>
    </g>
    <g id="ytick_4">
     <g id="line2d_8">
      <path d="M 46.64 45.560445 
L 205.2 45.560445 
" clip-path="url(#pbcafeb97e8)" style="fill: none; stroke: #d3d3d3; stroke-width: 0.8; stroke-linecap: round"/>
     </g>
     <g id="text_9">
      <!-- 1 -->
      <g style="fill: #808080" transform="translate(33.2775 49.359664) scale(0.1 -0.1)">
       <use xlink:href="#DejaVuSans-31"/>
      </g>
     </g>
    </g>
    <g id="ytick_5">
     <g id="line2d_9">
      <path d="M 46.64 14.693469 
L 205.2 14.693469 
" clip-path="url(#pbcafeb97e8)" style="fill: none; stroke: #d3d3d3; stroke-width: 0.8; stroke-linecap: round"/>
     </g>
     <g id="text_10">
      <!-- 2 -->
      <g style="fill: #808080" transform="translate(33.2775 18.492688) scale(0.1 -0.1)">
       <use xlink:href="#DejaVuSans-32"/>
      </g>
     </g>
    </g>
    <g id="text_11">
     <!-- y -->
     <g style="fill: #262626" transform="translate(18.818125 82.716539) rotate(-90) scale(0.1 -0.1)">
      <defs>
       <path id="DejaVuSans-79" d="M 2059 -325 
Q 1816 -950 1584 -1140 
Q 1353 -1331 966 -1331 
L 506 -1331 
L 506 -850 
L 844 -850 
Q 1081 -850 1212 -737 
Q 1344 -625 1503 -206 
L 1606 56 
L 191 3500 
L 800 3500 
L 1894 763 
L 2988 3500 
L 3597 3500 
L 2059 -325 
z
" transform="scale(0.015625)"/>
      </defs>
      <use xlink:href="#DejaVuSans-79"/>
     </g>
    </g>
   </g>
   <g id="line2d_10">
    <path d="M 197.992727 76.42742 
L 195.349664 84.843413 
L 191.805467 96.47246 
L 189.326021 103.633859 
L 187.948496 107.041606 
L 186.438321 110.331777 
L 184.7691 113.501026 
L 182.91824 116.545004 
L 180.867035 119.458505 
L 178.600557 122.235496 
L 176.107413 124.869016 
L 173.379426 127.350943 
L 170.411308 129.671682 
L 167.200397 131.819831 
L 163.746483 133.781913 
L 160.051776 135.542332 
L 156.121046 137.0837 
L 151.961938 138.387677 
L 147.585497 139.436419 
L 143.006832 140.214562 
L 138.245876 140.711482 
L 133.328022 140.923379 
L 128.284441 140.854631 
L 123.151827 140.517984 
L 117.971468 139.933409 
L 112.78772 139.125884 
L 107.646139 138.122625 
L 102.591626 136.950395 
L 97.666884 135.633406 
L 92.911331 134.192042 
L 88.360471 132.642419 
L 84.045586 130.996592 
L 79.99359 129.263178 
L 76.226906 127.448173 
L 72.763274 125.555788 
L 69.615492 123.589208 
L 66.791124 121.551198 
L 64.292256 119.444566 
L 62.115381 117.272454 
L 60.251487 115.038498 
L 58.686383 112.746868 
L 57.401269 110.402213 
L 56.373508 108.009532 
L 55.577556 105.574014 
L 54.985964 103.100842 
L 54.570389 100.595017 
L 54.302558 98.061189 
L 54.102452 92.925615 
L 54.190625 87.720362 
L 54.811995 74.495021 
L 55.407299 63.762065 
L 55.895965 58.386313 
L 56.700527 53.053783 
L 57.277465 50.422352 
L 58.002384 47.826714 
L 58.898414 45.277768 
L 59.98715 42.787323 
L 61.28775 40.367784 
L 62.816118 38.031779 
L 64.584241 35.791739 
L 66.599723 33.659486 
L 68.865538 31.645845 
L 71.380008 29.760324 
L 74.137002 28.010885 
L 77.126292 26.403827 
L 80.334054 24.943781 
L 83.743437 23.633815 
L 87.335164 22.475633 
L 91.088118 21.469822 
L 94.979885 20.616139 
L 98.987224 19.913771 
L 103.086456 19.361547 
L 107.253763 18.958079 
L 111.465414 18.701806 
L 115.697905 18.59095 
L 119.928057 18.623413 
L 124.13307 18.796633 
L 128.290563 19.107454 
L 132.378616 19.552015 
L 136.375838 20.125718 
L 140.261466 20.823244 
L 144.015514 21.638634 
L 147.618981 22.565407 
L 151.054108 23.596696 
L 154.304686 24.725377 
L 157.356406 25.944181 
L 160.197212 27.245774 
L 162.817643 28.622821 
L 165.21113 30.068015 
L 167.374202 31.574104 
L 169.306594 33.133911 
L 171.011219 34.740354 
L 172.494013 36.386479 
L 173.763665 38.065503 
L 174.83123 39.770867 
L 175.709692 41.496285 
L 176.41347 43.235815 
L 176.957935 44.983904 
L 177.358941 46.735444 
L 177.793938 50.230893 
L 177.840491 53.691357 
L 177.607968 57.094331 
L 176.932637 62.060703 
L 175.76317 68.396727 
L 171.001899 92.186586 
L 169.94657 95.906451 
L 169.104078 98.28408 
L 168.121218 100.565573 
L 166.975629 102.736752 
L 165.648574 104.782532 
L 164.125872 106.687813 
L 162.398558 108.438456 
L 160.463225 110.022301 
L 158.322046 111.430119 
L 155.982454 112.656422 
L 153.456547 113.700032 
L 150.760253 114.56433 
L 147.912343 115.257131 
L 144.933354 115.790169 
L 140.265551 116.32312 
L 135.420513 116.587304 
L 130.461824 116.640298 
L 123.766714 116.466601 
L 117.07304 116.082538 
L 110.473916 115.512473 
L 104.065796 114.730976 
L 99.453177 113.970764 
L 95.069328 113.027203 
L 90.977417 111.871022 
L 88.443564 110.970634 
L 86.086051 109.961448 
L 83.920543 108.841785 
L 81.959413 107.612512 
L 80.21085 106.276962 
L 78.678218 104.84069 
L 77.359754 103.311091 
L 76.248643 101.69693 
L 75.333439 100.007831 
L 74.598782 98.253754 
L 74.026312 96.444528 
L 73.426938 93.647388 
L 73.074869 90.774435 
L 72.870939 86.862972 
L 72.858854 80.888617 
L 73.133923 66.686797 
L 73.410131 62.627469 
L 73.798743 59.626239 
L 74.41798 56.697561 
L 74.993577 54.805572 
L 75.722285 52.978182 
L 76.62112 51.230337 
L 77.70352 49.577182 
L 78.978366 48.033266 
L 80.449267 46.611675 
L 82.114225 45.323182 
L 83.965709 44.17551 
L 85.99116 43.1728 
L 88.173848 42.315354 
L 90.493985 41.59968 
L 92.929968 41.018842 
L 96.752687 40.378401 
L 100.714274 39.977911 
L 104.751151 39.7723 
L 110.162538 39.727103 
L 116.851318 39.923885 
L 124.623048 40.407029 
L 130.797342 40.988636 
L 136.615226 41.769756 
L 140.948495 42.581265 
L 144.933037 43.595352 
L 147.655672 44.504451 
L 150.124057 45.547219 
L 152.319358 46.723482 
L 154.229677 48.027527 
L 155.851522 49.448664 
L 157.19034 50.972287 
L 158.260024 52.581224 
L 159.08158 54.257162 
L 159.681228 55.981946 
L 160.0883 57.738646 
L 160.384015 60.105031 
L 160.461147 62.473052 
L 160.344913 65.404391 
L 159.958445 69.414426 
L 158.399137 81.730208 
L 157.651875 86.72911 
L 156.923813 90.073507 
L 156.219099 92.351111 
L 155.307143 94.504145 
L 154.400569 96.114801 
L 153.318971 97.607347 
L 152.052269 98.965713 
L 150.597218 100.176631 
L 148.957666 101.231039 
L 147.144099 102.125112 
L 145.172545 102.860734 
L 142.516646 103.569249 
L 139.688687 104.066915 
L 136.128977 104.432019 
L 131.830191 104.616445 
L 126.19417 104.609569 
L 118.029958 104.353094 
L 110.617502 103.924674 
L 105.835705 103.459195 
L 101.843278 102.851486 
L 98.635298 102.127873 
L 96.163184 101.353367 
L 93.914526 100.406887 
L 92.298795 99.521124 
L 90.859734 98.521625 
L 89.604672 97.412743 
L 88.535049 96.201995 
L 87.646266 94.899359 
L 86.928113 93.516406 
L 86.247322 91.693447 
L 85.773291 89.787585 
L 85.420219 87.420621 
L 85.201714 84.175983 
L 85.137601 79.206102 
L 85.250486 68.279554 
L 85.511137 64.959825 
L 85.911306 62.542287 
L 86.43587 60.608999 
L 87.175862 58.781366 
L 87.944647 57.416788 
L 88.882788 56.156197 
L 89.995149 55.013749 
L 91.279851 54.000597 
L 92.728305 53.123858 
L 94.325942 52.385973 
L 96.503178 51.654804 
L 98.83966 51.122234 
L 101.789732 50.712976 
L 105.342125 50.49095 
L 109.435987 50.477383 
L 114.967876 50.701777 
L 123.075015 51.2751 
L 130.106964 51.96929 
L 134.532719 52.622132 
L 137.835557 53.337722 
L 140.475104 54.151443 
L 142.51886 55.017758 
L 144.289324 56.032099 
L 145.578974 57.014692 
L 146.657239 58.092103 
L 147.530831 59.251344 
L 148.30948 60.686868 
L 148.857947 62.187769 
L 149.248924 63.952556 
L 149.455087 65.965119 
L 149.475834 68.419936 
L 149.263635 71.918932 
L 148.298914 82.193151 
L 147.80866 85.480264 
L 147.26061 87.695003 
L 146.608016 89.435674 
L 145.829519 90.890238 
L 144.964928 92.071798 
L 143.927758 93.130794 
L 142.71679 94.054059 
L 141.3393 94.833989 
L 139.609279 95.539109 
L 137.716854 96.070432 
L 135.465054 96.478846 
L 132.618808 96.762001 
L 128.937574 96.890282 
L 123.46211 96.83599 
L 114.105321 96.504699 
L 109.349216 96.147148 
L 106.186072 95.707085 
L 103.659413 95.140754 
L 101.735213 94.503766 
L 100.016693 93.699693 
L 98.671691 92.828516 
L 97.532378 91.821379 
L 96.602067 90.68887 
L 95.873019 89.446686 
L 95.277339 87.960504 
L 94.84233 86.227126 
L 94.553893 84.087051 
L 94.407077 81.201047 
L 94.374212 74.610024 
L 94.489715 69.405942 
L 94.770894 66.886038 
L 95.170292 65.12596 
L 95.725446 63.626784 
L 96.409699 62.387041 
L 97.284586 61.274194 
L 98.353933 60.306506 
L 99.609493 59.495641 
L 101.031954 58.844983 
L 102.774475 58.30332 
L 104.837175 57.906665 
L 107.394472 57.660388 
L 110.605787 57.597166 
L 114.963377 57.756156 
L 123.111828 58.323323 
L 129.286771 58.923121 
L 132.589165 59.463989 
L 134.880579 60.050073 
L 136.666856 60.71841 
L 138.10496 61.479505 
L 139.304989 62.370018 
L 140.203118 63.301318 
L 140.947207 64.397375 
L 141.512486 65.651857 
L 141.892639 67.048208 
L 142.114888 68.741815 
L 142.16081 70.880319 
L 141.981107 74.264566 
L 141.29381 82.339629 
L 140.887531 84.405186 
L 140.380314 85.918786 
L 139.727069 87.179916 
L 138.960254 88.19216 
L 138.010455 89.071932 
L 136.880749 89.803919 
L 135.506385 90.411471 
L 133.890823 90.872356 
L 131.866308 91.201583 
L 129.349562 91.369511 
L 125.895337 91.356108 
L 119.615414 91.063549 
L 113.249029 90.596762 
L 110.324648 90.163974 
L 108.279127 89.643925 
L 106.738616 89.034449 
L 105.530141 88.329476 
L 104.574258 87.52546 
L 103.813969 86.600889 
L 103.217044 85.51777 
L 102.772224 84.22642 
L 102.478345 82.672096 
L 102.315875 80.548183 
L 102.276357 76.436537 
L 102.388258 71.116364 
L 102.654104 69.169564 
L 103.062259 67.754697 
L 103.614568 66.625077 
L 104.295636 65.71825 
L 105.15306 64.944144 
L 106.17852 64.312472 
L 107.475886 63.781853 
L 109.049344 63.38358 
L 111.094876 63.109859 
L 113.80915 62.990056 
L 118.206946 63.053498 
L 127.134346 63.423041 
L 130.026458 63.762905 
L 132.01204 64.209877 
L 133.547457 64.77971 
L 134.713755 65.443886 
L 135.621285 66.211011 
L 136.315182 67.083554 
L 136.84067 68.108825 
L 137.197346 69.306399 
L 137.392933 70.766066 
L 137.416364 72.752918 
L 137.330219 74.462248 
L 137.330219 74.462248 
" clip-path="url(#pbcafeb97e8)" style="fill: none; stroke: #1f77b4; stroke-width: 1.5; stroke-linecap: round"/>
   </g>
   <g id="line2d_11">
    <path d="M 197.992727 76.42742 
L 197.017174 90.972724 
L 196.590874 95.684293 
L 196.032288 100.300711 
L 195.274945 104.790741 
L 194.24649 109.112155 
L 192.874821 113.21326 
L 191.095552 117.03649 
L 188.859918 120.523985 
L 186.14167 123.62448 
L 182.941315 126.300246 
L 179.286454 128.532512 
L 175.227956 130.32406 
L 170.832892 131.698467 
L 166.175952 132.696394 
L 161.331234 133.370047 
L 156.365848 133.77716 
L 151.335948 133.975594 
L 141.244742 133.955065 
L 126.350203 133.461495 
L 102.506233 132.454942 
L 93.384235 131.840207 
L 88.964348 131.397114 
L 84.67403 130.821774 
L 80.547577 130.081666 
L 76.623863 129.145948 
L 72.943999 127.987977 
L 69.548205 126.587801 
L 66.472247 124.934253 
L 63.743914 123.026274 
L 61.380143 120.873163 
L 59.385275 118.493678 
L 57.750749 115.914125 
L 56.456202 113.165781 
L 55.471698 110.282109 
L 54.760621 107.29617 
L 54.28274 104.238554 
L 53.997023 101.135981 
L 53.863959 98.010559 
L 53.915038 91.755996 
L 54.381535 82.501737 
L 55.541303 64.682138 
L 56.071108 58.974992 
L 56.864544 53.448842 
L 57.413602 50.780824 
L 58.094609 48.195445 
L 58.929707 45.709582 
L 59.939043 43.341292 
L 61.139478 41.108899 
L 62.543389 39.029917 
L 64.157698 37.119887 
L 65.983268 35.391264 
L 68.014765 33.852488 
L 70.241017 32.50735 
L 72.645833 31.354744 
L 75.20918 30.38881 
L 77.908555 29.599445 
L 80.720397 28.973077 
L 83.621376 28.493605 
L 86.589471 28.143381 
L 92.649896 27.757827 
L 98.774543 27.676439 
L 107.910568 27.87035 
L 131.399956 28.796845 
L 139.828737 29.252872 
L 145.27809 29.703575 
L 150.526066 30.357576 
L 155.49127 31.295323 
L 157.837694 31.894508 
L 160.076221 32.591489 
L 162.194227 33.392609 
L 164.179933 34.302313 
L 166.022997 35.322881 
L 167.715052 36.454278 
L 169.250158 37.694132 
L 170.625126 39.037853 
L 171.83967 40.47887 
L 172.896397 42.008982 
L 173.80063 43.61877 
L 174.560091 45.298055 
L 175.184482 47.03634 
L 175.685011 48.823218 
L 176.363842 52.503617 
L 176.698016 56.269193 
L 176.784993 60.065735 
L 176.633124 65.740597 
L 175.982518 76.830758 
L 175.100227 89.248337 
L 174.483269 94.344789 
L 173.878702 97.619703 
L 173.053975 100.757007 
L 171.954274 103.714925 
L 170.53285 106.448207 
L 169.69067 107.716724 
L 168.757363 108.913112 
L 167.731966 110.033092 
L 166.614909 111.073187 
L 165.408002 112.030861 
L 164.11438 112.904617 
L 161.285363 114.39984 
L 158.173754 115.568509 
L 154.835234 116.435708 
L 151.328228 117.038072 
L 147.707834 117.418939 
L 144.021628 117.623608 
L 138.449112 117.693925 
L 131.061329 117.532934 
L 111.458669 116.761685 
L 102.952822 116.287304 
L 98.036715 115.835402 
L 93.339465 115.161251 
L 90.374332 114.546694 
L 87.578425 113.773386 
L 84.983599 112.82319 
L 82.61947 111.684265 
L 80.510468 110.352463 
L 78.673211 108.831911 
L 77.114684 107.134644 
L 75.831549 105.27931 
L 74.810676 103.289215 
L 74.030716 101.190054 
L 73.464356 99.007724 
L 73.080818 96.766509 
L 72.778794 93.340097 
L 72.714454 89.885281 
L 72.84941 85.298106 
L 73.445974 75.227711 
L 74.140142 65.561418 
L 74.634309 61.43636 
L 75.180391 58.454081 
L 75.942461 55.606947 
L 76.599076 53.805525 
L 77.392195 52.09787 
L 78.333723 50.49807 
L 79.43167 49.019217 
L 80.689463 47.672457 
L 82.10561 46.466135 
L 83.673765 45.405129 
L 85.383206 44.490479 
L 87.219674 43.719345 
L 89.166425 43.085288 
L 92.253725 42.369808 
L 95.487597 41.899856 
L 98.812684 41.628675 
L 103.31071 41.495382 
L 108.934473 41.558161 
L 121.019115 41.997492 
L 134.650378 42.645321 
L 139.625663 43.097269 
L 143.416595 43.650779 
L 146.105456 44.218653 
L 148.625653 44.943742 
L 150.943901 45.84427 
L 153.030032 46.931034 
L 154.860525 48.205904 
L 156.421448 49.661442 
L 157.7102 51.281772 
L 158.735688 53.044538 
L 159.517002 54.923522 
L 160.080978 56.891373 
L 160.459213 58.921992 
L 160.732294 61.687729 
L 160.80827 65.179442 
L 160.63925 70.039221 
L 159.841298 82.740057 
L 159.361323 87.832367 
L 158.878448 90.890525 
L 158.324161 93.23246 
L 157.573486 95.448211 
L 156.858132 97.00638 
L 155.997797 98.459234 
L 154.984193 99.793072 
L 153.814233 100.996451 
L 152.490398 102.061209 
L 151.020563 102.983211 
L 149.417298 103.762702 
L 147.100327 104.588758 
L 144.618956 105.190962 
L 142.018351 105.598906 
L 138.662981 105.88788 
L 134.569055 105.999659 
L 128.442428 105.895506 
L 112.735962 105.272307 
L 106.530678 104.880255 
L 102.393572 104.407551 
L 99.064695 103.783933 
L 96.503536 103.063105 
L 94.628535 102.334755 
L 92.932472 101.462554 
L 91.433006 100.444813 
L 90.141133 99.286431 
L 89.059928 97.998384 
L 88.184274 96.596479 
L 87.501599 95.099638 
L 86.891014 93.125805 
L 86.50838 91.073192 
L 86.282599 88.552412 
L 86.241507 85.586453 
L 86.428067 80.965282 
L 87.232542 68.911504 
L 87.700601 65.125311 
L 88.23077 62.602968 
L 88.88122 60.565545 
L 89.593708 58.98284 
L 90.481301 57.527577 
L 91.55507 56.21913 
L 92.816979 55.0726 
L 94.259477 54.096884 
L 95.866407 53.293542 
L 97.615038 52.656693 
L 99.86289 52.094368 
L 102.228975 51.723131 
L 105.492899 51.463201 
L 109.636497 51.396611 
L 115.797661 51.557642 
L 130.6483 52.222027 
L 134.661858 52.601924 
L 137.755239 53.105404 
L 140.293353 53.756817 
L 142.300784 54.515394 
L 143.832689 55.317644 
L 145.170978 56.261951 
L 146.305223 57.342232 
L 147.234058 58.545756 
L 147.965231 59.854795 
L 148.589706 61.487882 
L 149.001331 63.203151 
L 149.262701 65.224964 
L 149.363979 67.791296 
L 149.265491 71.374617 
L 148.684502 80.742123 
L 148.279463 84.953252 
L 147.800956 87.621427 
L 147.253738 89.504136 
L 146.59041 91.059734 
L 145.734252 92.475986 
L 144.815313 93.581325 
L 143.736211 94.54825 
L 142.503774 95.369439 
L 140.925925 96.128493 
L 139.196132 96.704683 
L 137.111485 97.156641 
L 134.68047 97.455845 
L 131.43093 97.609435 
L 126.913556 97.565914 
L 115.785356 97.136876 
L 110.068784 96.780231 
L 106.840916 96.372821 
L 104.444398 95.862305 
L 102.450579 95.208293 
L 100.848114 94.439272 
L 99.601829 93.600314 
L 98.554211 92.627375 
L 97.707505 91.533278 
L 97.053667 90.336581 
L 96.532572 88.912983 
L 96.171569 87.267654 
L 95.966438 85.263239 
L 95.936487 82.613664 
L 96.154192 78.158029 
L 96.798501 69.553279 
L 97.211227 67.111389 
L 97.720914 65.330682 
L 98.33413 63.922032 
L 99.062979 62.751959 
L 99.962627 61.718171 
L 101.033129 60.835065 
L 102.263644 60.10939 
L 103.7648 59.494773 
L 105.539392 59.021574 
L 107.719208 58.687236 
L 110.434858 58.511981 
L 114.245143 58.515819 
L 122.67538 58.82612 
L 129.242532 59.203615 
L 132.230324 59.597197 
L 134.375777 60.095011 
L 136.082048 60.717572 
L 137.383638 61.416578 
L 138.483761 62.260853 
L 139.316183 63.166409 
L 140.012057 64.255076 
L 140.544435 65.525173 
L 140.903846 66.962969 
L 141.113619 68.733789 
L 141.153764 71.096839 
L 140.958721 75.103249 
L 140.38725 82.515852 
L 139.996077 84.636971 
L 139.486057 86.227142 
L 138.866387 87.465142 
L 138.104236 88.500506 
L 137.223728 89.337795 
L 136.121641 90.070502 
L 134.789354 90.669014 
L 133.235659 91.115826 
L 131.306051 91.430597 
L 128.836818 91.594225 
L 125.325424 91.581633 
L 116.35467 91.233008 
L 112.115956 90.919569 
L 109.660416 90.520979 
L 107.864361 90.007563 
L 106.478307 89.380765 
L 105.410861 88.658881 
L 104.584567 87.844328 
L 103.91718 86.872166 
L 103.422708 85.751629 
L 103.077764 84.390595 
L 102.894498 82.69095 
L 102.889745 80.398228 
L 103.169277 75.489267 
L 103.560942 71.007702 
L 103.941849 69.148494 
L 104.429982 67.801114 
L 105.05224 66.717514 
L 105.800401 65.849701 
L 106.714667 65.129277 
L 107.826686 64.54304 
L 109.175503 64.090315 
L 110.853533 63.770728 
L 113.006547 63.598304 
L 116.090164 63.5946 
L 123.958865 63.89878 
L 127.725385 64.192251 
L 129.838409 64.567661 
L 131.388277 65.060544 
L 132.572758 65.668439 
L 133.458119 66.363583 
L 134.147871 67.182058 
L 134.460629 67.705825 
L 134.460629 67.705825 
" clip-path="url(#pbcafeb97e8)" style="fill: none; stroke: #ff7f0e; stroke-opacity: 0.5; stroke-width: 1.5; stroke-linecap: round"/>
   </g>
   <g id="patch_3">
    <path d="M 46.64 147.04 
L 46.64 12.474329 
" style="fill: none; stroke: #ffffff; stroke-width: 0.8; stroke-linejoin: miter; stroke-linecap: square"/>
   </g>
   <g id="patch_4">
    <path d="M 205.2 147.04 
L 205.2 12.474329 
" style="fill: none; stroke: #ffffff; stroke-width: 0.8; stroke-linejoin: miter; stroke-linecap: square"/>
   </g>
   <g id="patch_5">
    <path d="M 46.64 147.04 
L 205.2 147.04 
" style="fill: none; stroke: #ffffff; stroke-width: 0.8; stroke-linejoin: miter; stroke-linecap: square"/>
   </g>
   <g id="patch_6">
    <path d="M 46.64 12.474329 
L 205.2 12.474329 
" style="fill: none; stroke: #ffffff; stroke-width: 0.8; stroke-linejoin: miter; stroke-linecap: square"/>
   </g>
  </g>
 </g>
 <defs>
  <clipPath id="pbcafeb97e8">
   <rect x="46.64" y="12.474329" width="158.56" height="134.565671"/>
  </clipPath>
 </defs>
</svg>
