<?xml version="1.0" encoding="utf-8" standalone="no"?>
<!DOCTYPE svg PUBLIC "-//W3C//DTD SVG 1.1//EN"
  "http://www.w3.org/Graphics/SVG/1.1/DTD/svg11.dtd">
<svg xmlns:xlink="http://www.w3.org/1999/xlink" width="216pt" height="180pt" viewBox="0 0 216 180" xmlns="http://www.w3.org/2000/svg" version="1.1">
 <metadata>
  <rdf:RDF xmlns:dc="http://purl.org/dc/elements/1.1/" xmlns:cc="http://creativecommons.org/ns#" xmlns:rdf="http://www.w3.org/1999/02/22-rdf-syntax-ns#">
   <cc:Work>
    <dc:type rdf:resource="http://purl.org/dc/dcmitype/StillImage"/>
    <dc:date>2023-06-14T18:37:25.914363</dc:date>
    <dc:format>image/svg+xml</dc:format>
    <dc:creator>
     <cc:Agent>
      <dc:title>Matplotlib v3.7.0, https://matplotlib.org/</dc:title>
     </cc:Agent>
    </dc:creator>
   </cc:Work>
  </rdf:RDF>
 </metadata>
 <defs>
  <style type="text/css">*{stroke-linejoin: round; stroke-linecap: butt}</style>
 </defs>
 <g id="figure_1">
  <g id="patch_1">
   <path d="M 0 180 
L 216 180 
L 216 0 
L 0 0 
z
" style="fill: #ffffff"/>
  </g>
  <g id="axes_1">
   <g id="patch_2">
    <path d="M 46.64 147.04 
L 205.2 147.04 
L 205.2 10.8 
L 46.64 10.8 
L 46.64 147.04 
z
" style="fill: none"/>
   </g>
   <g id="matplotlib.axis_1">
    <g id="xtick_1">
     <g id="line2d_1">
      <path d="M 83.456467 147.04 
L 83.456467 10.8 
" clip-path="url(#pbcc3702c13)" style="fill: none; stroke: #d3d3d3; stroke-width: 0.8; stroke-linecap: round"/>
     </g>
     <g id="text_1">
      <!-- −1 -->
      <g style="fill: #808080" transform="translate(76.085373 161.638438) scale(0.1 -0.1)">
       <defs>
        <path id="DejaVuSans-2212" d="M 678 2272 
L 4684 2272 
L 4684 1741 
L 678 1741 
L 678 2272 
z
" transform="scale(0.015625)"/>
        <path id="DejaVuSans-31" d="M 794 531 
L 1825 531 
L 1825 4091 
L 703 3866 
L 703 4441 
L 1819 4666 
L 2450 4666 
L 2450 531 
L 3481 531 
L 3481 0 
L 794 0 
L 794 531 
z
" transform="scale(0.015625)"/>
       </defs>
       <use xlink:href="#DejaVuSans-2212"/>
       <use xlink:href="#DejaVuSans-31" x="83.789062"/>
      </g>
     </g>
    </g>
    <g id="xtick_2">
     <g id="line2d_2">
      <path d="M 121.63522 147.04 
L 121.63522 10.8 
" clip-path="url(#pbcc3702c13)" style="fill: none; stroke: #d3d3d3; stroke-width: 0.8; stroke-linecap: round"/>
     </g>
     <g id="text_2">
      <!-- 0 -->
      <g style="fill: #808080" transform="translate(118.45397 161.638438) scale(0.1 -0.1)">
       <defs>
        <path id="DejaVuSans-30" d="M 2034 4250 
Q 1547 4250 1301 3770 
Q 1056 3291 1056 2328 
Q 1056 1369 1301 889 
Q 1547 409 2034 409 
Q 2525 409 2770 889 
Q 3016 1369 3016 2328 
Q 3016 3291 2770 3770 
Q 2525 4250 2034 4250 
z
M 2034 4750 
Q 2819 4750 3233 4129 
Q 3647 3509 3647 2328 
Q 3647 1150 3233 529 
Q 2819 -91 2034 -91 
Q 1250 -91 836 529 
Q 422 1150 422 2328 
Q 422 3509 836 4129 
Q 1250 4750 2034 4750 
z
" transform="scale(0.015625)"/>
       </defs>
       <use xlink:href="#DejaVuSans-30"/>
      </g>
     </g>
    </g>
    <g id="xtick_3">
     <g id="line2d_3">
      <path d="M 159.813974 147.04 
L 159.813974 10.8 
" clip-path="url(#pbcc3702c13)" style="fill: none; stroke: #d3d3d3; stroke-width: 0.8; stroke-linecap: round"/>
     </g>
     <g id="text_3">
      <!-- 1 -->
      <g style="fill: #808080" transform="translate(156.632724 161.638438) scale(0.1 -0.1)">
       <use xlink:href="#DejaVuSans-31"/>
      </g>
     </g>
    </g>
    <g id="xtick_4">
     <g id="line2d_4">
      <path d="M 197.992727 147.04 
L 197.992727 10.8 
" clip-path="url(#pbcc3702c13)" style="fill: none; stroke: #d3d3d3; stroke-width: 0.8; stroke-linecap: round"/>
     </g>
     <g id="text_4">
      <!-- 2 -->
      <g style="fill: #808080" transform="translate(194.811477 161.638438) scale(0.1 -0.1)">
       <defs>
        <path id="DejaVuSans-32" d="M 1228 531 
L 3431 531 
L 3431 0 
L 469 0 
L 469 531 
Q 828 903 1448 1529 
Q 2069 2156 2228 2338 
Q 2531 2678 2651 2914 
Q 2772 3150 2772 3378 
Q 2772 3750 2511 3984 
Q 2250 4219 1831 4219 
Q 1534 4219 1204 4116 
Q 875 4013 500 3803 
L 500 4441 
Q 881 4594 1212 4672 
Q 1544 4750 1819 4750 
Q 2544 4750 2975 4387 
Q 3406 4025 3406 3419 
Q 3406 3131 3298 2873 
Q 3191 2616 2906 2266 
Q 2828 2175 2409 1742 
Q 1991 1309 1228 531 
z
" transform="scale(0.015625)"/>
       </defs>
       <use xlink:href="#DejaVuSans-32"/>
      </g>
     </g>
    </g>
    <g id="text_5">
     <!-- x -->
     <g style="fill: #262626" transform="translate(122.960625 175.316563) scale(0.1 -0.1)">
      <defs>
       <path id="DejaVuSans-78" d="M 3513 3500 
L 2247 1797 
L 3578 0 
L 2900 0 
L 1881 1375 
L 863 0 
L 184 0 
L 1544 1831 
L 300 3500 
L 978 3500 
L 1906 2253 
L 2834 3500 
L 3513 3500 
z
" transform="scale(0.015625)"/>
      </defs>
      <use xlink:href="#DejaVuSans-78"/>
     </g>
    </g>
   </g>
   <g id="matplotlib.axis_2">
    <g id="ytick_1">
     <g id="line2d_5">
      <path d="M 46.64 144.66231 
L 205.2 144.66231 
" clip-path="url(#pbcc3702c13)" style="fill: none; stroke: #d3d3d3; stroke-width: 0.8; stroke-linecap: round"/>
     </g>
     <g id="text_6">
      <!-- −2 -->
      <g style="fill: #808080" transform="translate(24.897813 148.461528) scale(0.1 -0.1)">
       <use xlink:href="#DejaVuSans-2212"/>
       <use xlink:href="#DejaVuSans-32" x="83.789062"/>
      </g>
     </g>
    </g>
    <g id="ytick_2">
     <g id="line2d_6">
      <path d="M 46.64 109.116402 
L 205.2 109.116402 
" clip-path="url(#pbcc3702c13)" style="fill: none; stroke: #d3d3d3; stroke-width: 0.8; stroke-linecap: round"/>
     </g>
     <g id="text_7">
      <!-- −1 -->
      <g style="fill: #808080" transform="translate(24.897813 112.915621) scale(0.1 -0.1)">
       <use xlink:href="#DejaVuSans-2212"/>
       <use xlink:href="#DejaVuSans-31" x="83.789062"/>
      </g>
     </g>
    </g>
    <g id="ytick_3">
     <g id="line2d_7">
      <path d="M 46.64 73.570494 
L 205.2 73.570494 
" clip-path="url(#pbcc3702c13)" style="fill: none; stroke: #d3d3d3; stroke-width: 0.8; stroke-linecap: round"/>
     </g>
     <g id="text_8">
      <!-- 0 -->
      <g style="fill: #808080" transform="translate(33.2775 77.369713) scale(0.1 -0.1)">
       <use xlink:href="#DejaVuSans-30"/>
      </g>
     </g>
    </g>
    <g id="ytick_4">
     <g id="line2d_8">
      <path d="M 46.64 38.024586 
L 205.2 38.024586 
" clip-path="url(#pbcc3702c13)" style="fill: none; stroke: #d3d3d3; stroke-width: 0.8; stroke-linecap: round"/>
     </g>
     <g id="text_9">
      <!-- 1 -->
      <g style="fill: #808080" transform="translate(33.2775 41.823805) scale(0.1 -0.1)">
       <use xlink:href="#DejaVuSans-31"/>
      </g>
     </g>
    </g>
    <g id="text_10">
     <!-- y -->
     <g style="fill: #262626" transform="translate(18.818125 81.879375) rotate(-90) scale(0.1 -0.1)">
      <defs>
       <path id="DejaVuSans-79" d="M 2059 -325 
Q 1816 -950 1584 -1140 
Q 1353 -1331 966 -1331 
L 506 -1331 
L 506 -850 
L 844 -850 
Q 1081 -850 1212 -737 
Q 1344 -625 1503 -206 
L 1606 56 
L 191 3500 
L 800 3500 
L 1894 763 
L 2988 3500 
L 3597 3500 
L 2059 -325 
z
" transform="scale(0.015625)"/>
      </defs>
      <use xlink:href="#DejaVuSans-79"/>
     </g>
    </g>
   </g>
   <g id="line2d_9">
    <path d="M 197.992727 73.570494 
L 195.96949 82.082268 
L 193.641246 90.361064 
L 190.995072 98.646053 
L 189.51607 102.830394 
L 187.900421 107.042258 
L 186.116906 111.263257 
L 184.131045 115.456953 
L 181.908121 119.566886 
L 179.417458 123.517135 
L 176.637641 127.217036 
L 173.561682 130.570946 
L 170.200591 133.492177 
L 166.58382 135.917823 
L 162.755922 137.819882 
L 158.770195 139.208893 
L 154.681206 140.129316 
L 150.538305 140.649086 
L 146.381432 140.847273 
L 142.239464 140.803262 
L 138.130562 140.589187 
L 130.040655 139.880763 
L 98.657949 136.556739 
L 94.746746 135.974715 
L 90.845794 135.25451 
L 86.97319 134.349998 
L 83.155051 133.214165 
L 79.425495 131.803286 
L 75.825561 130.081979 
L 72.40088 128.02839 
L 69.19815 125.638348 
L 66.260843 122.927301 
L 63.624922 119.929229 
L 61.315412 116.692593 
L 59.344512 113.274265 
L 57.711481 109.73294 
L 56.404076 106.123431 
L 55.401016 102.492737 
L 54.674872 98.878106 
L 54.194867 95.306779 
L 53.929275 91.796886 
L 53.847273 88.358928 
L 53.920243 84.997456 
L 54.122589 81.71265 
L 54.830461 75.359831 
L 55.836744 69.260162 
L 57.061381 63.366512 
L 58.471157 57.640446 
L 60.071252 52.062678 
L 61.896587 46.641363 
L 64.002321 41.418719 
L 65.180302 38.905265 
L 66.452212 36.473958 
L 67.824998 34.139707 
L 69.304241 31.918498 
L 70.893689 29.826575 
L 72.594866 27.879447 
L 74.406832 26.090822 
L 76.326107 24.471579 
L 78.346804 23.028896 
L 80.460945 21.765667 
L 82.658936 20.680261 
L 84.930133 19.766666 
L 87.263455 19.014962 
L 89.647946 18.412063 
L 92.073269 17.942588 
L 97.010253 17.336417 
L 102.015128 17.060824 
L 109.572674 17.004715 
L 127.300428 17.301927 
L 134.959079 17.521384 
L 140.066607 17.820706 
L 145.13179 18.360344 
L 150.086793 19.261621 
L 152.494019 19.885602 
L 154.835962 20.642455 
L 157.097641 21.541719 
L 159.263898 22.589109 
L 161.320134 23.785873 
L 163.253088 25.128491 
L 165.05156 26.608774 
L 166.706992 28.214372 
L 168.213858 29.929622 
L 169.569805 31.736624 
L 170.775563 33.616392 
L 171.834661 35.549942 
L 172.752989 37.519217 
L 173.538296 39.507774 
L 174.746951 43.487469 
L 175.540515 47.401224 
L 175.999813 51.195458 
L 176.19867 54.844194 
L 176.200139 58.341005 
L 175.941438 63.316718 
L 175.479118 68.013062 
L 174.68136 73.944377 
L 173.512735 81.021874 
L 172.15704 87.927707 
L 170.849586 93.414093 
L 169.659364 97.506913 
L 168.215614 101.543229 
L 167.076616 104.16918 
L 165.772494 106.70942 
L 164.285991 109.128167 
L 162.605018 111.385991 
L 160.72456 113.443372 
L 158.647969 115.265148 
L 156.387234 116.82503 
L 153.962023 118.109168 
L 151.397619 119.117879 
L 148.722191 119.865156 
L 145.963962 120.376228 
L 143.148817 120.683933 
L 138.866013 120.844168 
L 134.55691 120.750176 
L 127.388749 120.301287 
L 104.46496 118.459066 
L 100.129806 117.908836 
L 95.82778 117.126956 
L 93.008053 116.426268 
L 90.255646 115.546419 
L 87.600451 114.460315 
L 85.07551 113.147232 
L 82.714727 111.595653 
L 80.549992 109.805274 
L 78.608133 107.787611 
L 76.908279 105.564941 
L 75.460148 103.167768 
L 74.263556 100.631362 
L 73.309169 97.992138 
L 72.580212 95.284552 
L 72.054711 92.538906 
L 71.707833 89.780171 
L 71.466727 85.658396 
L 71.489241 81.593257 
L 71.707186 77.607692 
L 72.215284 72.431243 
L 72.906888 67.411629 
L 73.757341 62.544068 
L 74.783063 57.833392 
L 76.031244 53.305183 
L 77.152664 50.059763 
L 78.466087 46.97974 
L 79.998557 44.105991 
L 81.15213 42.326772 
L 82.415441 40.672025 
L 83.789278 39.15338 
L 85.271721 37.780223 
L 86.858178 36.558889 
L 88.541638 35.492074 
L 90.313112 34.578562 
L 92.162209 33.813278 
L 95.056951 32.923769 
L 98.063616 32.307779 
L 101.147822 31.916836 
L 105.332347 31.658021 
L 110.614719 31.601825 
L 121.202472 31.807694 
L 133.887275 32.204935 
L 138.069304 32.516519 
L 142.164677 33.051109 
L 145.135856 33.658258 
L 147.977861 34.48549 
L 150.647175 35.562065 
L 152.309241 36.426185 
L 153.863523 37.407792 
L 155.300109 38.50298 
L 156.611451 39.704306 
L 157.792761 41.001317 
L 158.842201 42.3813 
L 160.172173 44.575844 
L 161.222839 46.876372 
L 162.018723 49.237028 
L 162.590654 51.618725 
L 163.062713 54.77542 
L 163.273701 57.866937 
L 163.274529 61.601078 
L 163.029004 65.87364 
L 162.485633 71.249471 
L 161.405089 79.435388 
L 160.427927 85.478011 
L 159.566752 89.625961 
L 158.621109 93.106826 
L 157.625712 95.916061 
L 156.659942 98.069277 
L 155.520707 100.104758 
L 154.19253 101.987389 
L 152.66768 103.682307 
L 151.395583 104.811874 
L 150.017877 105.809215 
L 148.541745 106.668612 
L 146.437253 107.598062 
L 144.201965 108.288805 
L 141.864864 108.761425 
L 139.453811 109.04524 
L 136.372663 109.186517 
L 132.623321 109.131945 
L 126.966515 108.800593 
L 108.596178 107.362109 
L 104.128444 106.791124 
L 100.980609 106.193687 
L 97.91996 105.36671 
L 95.574865 104.498366 
L 93.360502 103.417827 
L 91.31396 102.108298 
L 89.91001 100.972487 
L 88.63191 99.707781 
L 87.48862 98.32119 
L 86.4854 96.823316 
L 85.36729 94.676398 
L 84.49242 92.391552 
L 83.8429 90.005904 
L 83.393606 87.55416 
L 83.069465 84.441564 
L 82.954111 80.694445 
L 83.089887 76.370311 
L 83.485716 71.545745 
L 84.158812 66.308584 
L 84.965415 61.855687 
L 85.880477 58.155561 
L 86.867403 55.171639 
L 87.862653 52.851187 
L 89.035475 50.713043 
L 90.110193 49.153525 
L 91.308953 47.742696 
L 92.629958 46.490756 
L 94.067324 45.403719 
L 95.611514 44.482661 
L 97.250125 43.723493 
L 99.409386 42.988196 
L 101.664688 42.465625 
L 104.45856 42.073547 
L 107.786794 41.863734 
L 112.101366 41.847397 
L 119.24557 42.08869 
L 132.232258 42.730825 
L 136.236801 43.151074 
L 139.224413 43.672053 
L 141.651547 44.304407 
L 143.91277 45.141477 
L 145.640897 46.009372 
L 147.204539 47.034808 
L 148.587707 48.211291 
L 149.781076 49.524433 
L 150.782833 50.953766 
L 151.598502 52.475217 
L 152.348638 54.387287 
L 152.876939 56.355176 
L 153.258386 58.675793 
L 153.452328 61.310905 
L 153.441186 64.524333 
L 153.181498 68.520759 
L 152.535305 74.557082 
L 151.524401 82.030641 
L 150.806617 85.83229 
L 150.10201 88.506201 
L 149.268513 90.811418 
L 148.320984 92.741074 
L 147.299171 94.304836 
L 146.25757 95.531214 
L 145.077357 96.606713 
L 143.764048 97.518921 
L 142.328862 98.262232 
L 140.559669 98.907836 
L 138.679372 99.350273 
L 136.466546 99.635844 
L 133.929589 99.741184 
L 130.569932 99.644942 
L 125.368949 99.235948 
L 110.806401 97.787152 
L 107.468192 97.229861 
L 104.732285 96.549019 
L 102.603228 95.794865 
L 100.831376 94.944839 
L 99.206264 93.907716 
L 97.927503 92.840942 
L 96.798421 91.627886 
L 95.828428 90.277752 
L 95.020281 88.805413 
L 94.28955 86.997415 
L 93.749866 85.08569 
L 93.34354 82.849575 
L 93.09883 80.305182 
L 93.026442 77.228167 
L 93.162356 73.674008 
L 93.531714 69.730217 
L 94.06794 66.20397 
L 94.706989 63.32736 
L 95.476606 60.862327 
L 96.363289 58.801185 
L 97.337569 57.12221 
L 98.357953 55.789636 
L 99.513 54.639001 
L 100.794587 53.676219 
L 102.188676 52.899785 
L 103.847179 52.244539 
L 105.771814 51.750797 
L 107.948327 51.440185 
L 110.533484 51.308122 
L 113.852141 51.377877 
L 119.04657 51.747004 
L 129.56799 52.747832 
L 132.962979 53.28757 
L 135.272482 53.863105 
L 137.12471 54.54062 
L 138.663689 55.337137 
L 139.907139 56.223182 
L 140.959684 57.243166 
L 141.818764 58.380895 
L 142.535684 59.711865 
L 143.085728 61.224216 
L 143.477241 62.99931 
L 143.686827 65.005404 
L 143.713941 67.504881 
L 143.508831 70.796793 
L 142.959114 75.666616 
L 142.286134 79.89796 
L 141.667171 82.457729 
L 141.002822 84.29966 
L 140.242219 85.755024 
L 139.384401 86.906894 
L 138.417368 87.821428 
L 137.368141 88.51284 
L 136.147975 89.048877 
L 134.765168 89.412817 
L 133.102706 89.610669 
L 131.107491 89.611711 
L 128.536967 89.373117 
L 124.58456 88.750747 
L 114.733232 86.922077 
L 112.293625 86.238007 
L 110.518777 85.523051 
L 109.106729 84.724249 
L 107.948551 83.818285 
L 106.997392 82.79474 
L 106.21846 81.63224 
L 105.592323 80.299174 
L 105.115301 78.758739 
L 104.79741 76.97766 
L 104.659801 74.938265 
L 104.73212 72.708625 
L 105.019007 70.543089 
L 105.482722 68.66124 
L 106.079066 67.125319 
L 106.792636 65.883633 
L 107.619742 64.890914 
L 108.53506 64.133939 
L 109.574096 63.559295 
L 110.785492 63.150415 
L 112.182266 62.922817 
L 113.831528 62.890296 
L 115.801188 63.083006 
L 118.302741 63.562372 
L 121.90303 64.499116 
L 124.984526 65.436127 
L 124.984526 65.436127 
" clip-path="url(#pbcc3702c13)" style="fill: none; stroke: #1f77b4; stroke-width: 1.5; stroke-linecap: round"/>
   </g>
   <g id="line2d_10">
    <path d="M 197.992727 73.570494 
L 197.032414 90.320629 
L 196.612775 95.746395 
L 196.062916 101.062588 
L 195.317404 106.233234 
L 194.305016 111.209703 
L 192.954777 115.932469 
L 191.203305 120.33524 
L 189.002597 124.351382 
L 186.326816 127.921861 
L 183.17646 131.00323 
L 179.578697 133.573871 
L 175.583605 135.636989 
L 171.257205 137.219734 
L 166.673018 138.36893 
L 161.903988 139.144699 
L 157.016175 139.613524 
L 152.064857 139.842036 
L 147.092955 139.892245 
L 137.200103 139.665272 
L 117.932787 138.806702 
L 103.997997 138.090879 
L 95.01851 137.38296 
L 90.667674 136.872701 
L 86.444383 136.210148 
L 82.382396 135.357852 
L 78.519982 134.280294 
L 74.897607 132.946794 
L 71.554865 131.334374 
L 68.526962 129.430175 
L 65.841254 127.232978 
L 63.514411 124.75349 
L 61.550709 122.013314 
L 59.941719 119.042742 
L 58.667396 115.877794 
L 57.698272 112.557004 
L 56.998305 109.118445 
L 56.527889 105.597344 
L 56.246635 102.024471 
L 56.115651 98.425286 
L 56.165932 91.222633 
L 56.625141 80.565579 
L 57.76679 60.044818 
L 58.288318 53.472561 
L 59.069358 47.108736 
L 59.609839 44.03629 
L 60.280206 41.059009 
L 61.102258 38.19633 
L 62.095825 35.469046 
L 63.277506 32.898258 
L 64.659484 30.504136 
L 66.248573 28.304577 
L 68.045622 26.313923 
L 70.045382 24.541893 
L 72.236853 22.992854 
L 74.604099 21.665531 
L 77.1274 20.553178 
L 79.784604 19.644158 
L 82.552516 18.922843 
L 85.408174 18.37069 
L 88.329899 17.967378 
L 94.295644 17.523381 
L 100.324606 17.429655 
L 109.317901 17.65296 
L 129.624274 18.577932 
L 140.73742 19.24505 
L 146.101639 19.764072 
L 151.267627 20.517209 
L 156.155261 21.597104 
L 158.465027 22.287115 
L 160.668582 23.089747 
L 162.753499 24.012304 
L 164.708183 25.059905 
L 166.522453 26.235174 
L 168.188073 27.538072 
L 169.699197 28.965868 
L 171.052684 30.513275 
L 172.248253 32.172727 
L 173.288471 33.934779 
L 174.178577 35.788585 
L 174.926174 37.722423 
L 175.540811 39.724203 
L 176.033519 41.781943 
L 176.701745 46.02023 
L 177.030699 50.356607 
L 177.116317 54.728643 
L 176.966821 61.263721 
L 176.326379 74.034971 
L 175.457871 88.334853 
L 174.850552 94.203844 
L 174.25543 97.975182 
L 173.443588 101.588051 
L 172.361067 104.994341 
L 170.961849 108.141945 
L 170.132826 109.602749 
L 169.2141 110.98049 
L 168.204724 112.27024 
L 167.105117 113.467996 
L 165.917066 114.570839 
L 164.643654 115.577041 
L 163.289147 116.486135 
L 161.858834 117.298916 
L 158.795837 118.644736 
L 155.509474 119.643388 
L 152.057257 120.337061 
L 148.493424 120.775661 
L 144.864807 121.011355 
L 139.379349 121.092331 
L 132.106983 120.906936 
L 114.518691 120.104856 
L 106.086189 119.605603 
L 101.191329 119.149173 
L 96.486597 118.469023 
L 93.49618 117.843208 
L 90.656717 117.04707 
L 87.999609 116.056894 
L 85.555476 114.855174 
L 83.351272 113.432554 
L 81.407487 111.789006 
L 79.735895 109.933958 
L 78.3383 107.88532 
L 77.206461 105.667564 
L 76.323162 103.309235 
L 75.664151 100.840333 
L 75.200527 98.289978 
L 74.803339 94.368535 
L 74.672465 90.395022 
L 74.755853 85.100992 
L 75.186961 76.004032 
L 76.075064 61.057383 
L 76.56151 56.307033 
L 77.099061 52.872688 
L 77.849225 49.593975 
L 78.495582 47.519487 
L 79.276311 45.552979 
L 80.203129 43.710676 
L 81.283923 42.007652 
L 82.522066 40.456745 
L 83.916089 39.067564 
L 85.459744 37.845727 
L 87.14248 36.792431 
L 88.950257 35.904406 
L 90.866594 35.174236 
L 92.873707 34.590995 
L 96.015396 33.961353 
L 99.264127 33.578886 
L 103.680125 33.359201 
L 109.222618 33.38568 
L 117.950999 33.723289 
L 134.637597 34.589333 
L 139.575683 35.063134 
L 143.355722 35.64315 
L 146.050603 36.242535 
L 148.590462 37.014502 
L 150.942282 37.982341 
L 153.074949 39.161582 
L 154.962764 40.557925 
L 156.588608 42.166335 
L 157.946105 43.971572 
L 159.040321 45.950071 
L 159.886932 48.072765 
L 160.510125 50.308256 
L 160.939774 52.625749 
L 161.267974 55.795616 
L 161.391768 59.812909 
L 161.289574 64.623846 
L 160.778089 74.789575 
L 160.107821 85.260248 
L 159.600695 89.533358 
L 159.096799 92.260799 
L 158.41001 94.852393 
L 157.500768 97.26889 
L 156.653875 98.941973 
L 155.656106 100.478 
L 154.504424 101.863791 
L 153.201271 103.089949 
L 151.754398 104.151712 
L 150.176181 105.049361 
L 148.482522 105.788129 
L 146.076168 106.543179 
L 143.541482 107.065324 
L 140.920782 107.393049 
L 137.578889 107.590831 
L 132.869861 107.603303 
L 125.570092 107.338804 
L 110.370844 106.548928 
L 106.187691 106.134693 
L 102.768832 105.582544 
L 100.088977 104.926006 
L 98.089079 104.243716 
L 96.243371 103.40496 
L 94.573805 102.400548 
L 93.097765 101.228533 
L 91.826075 99.89456 
L 90.761761 98.411266 
L 89.899788 96.796854 
L 89.227778 95.073117 
L 88.626732 92.800082 
L 88.250075 90.436327 
L 88.027821 87.533438 
L 87.994891 83.630514 
L 88.218652 77.840607 
L 89.036298 64.028337 
L 89.485891 60.131262 
L 90.038535 57.249022 
L 90.713116 54.92912 
L 91.447689 53.133922 
L 92.357468 51.490214 
L 93.45165 50.01953 
L 94.730284 48.737986 
L 96.184133 47.654204 
L 97.795808 46.768239 
L 99.541948 46.071694 
L 101.395951 45.548946 
L 103.725071 45.121436 
L 106.53227 44.84559 
L 110.200443 44.7418 
L 115.07548 44.848799 
L 128.347182 45.468925 
L 133.520817 45.866009 
L 136.689071 46.299921 
L 139.341873 46.87792 
L 141.490124 47.575175 
L 143.170846 48.33696 
L 144.678819 49.260818 
L 145.9962 50.348267 
L 147.112726 51.592301 
L 148.027049 52.97826 
L 148.746799 54.485727 
L 149.361519 56.366365 
L 149.766712 58.34164 
L 150.023999 60.669927 
L 150.123695 63.625273 
L 150.026746 67.751768 
L 149.454834 78.539236 
L 149.056123 83.388703 
L 148.585091 86.46133 
L 148.046422 88.629427 
L 147.393457 90.420829 
L 146.550674 92.051761 
L 145.646091 93.324652 
L 144.583849 94.438148 
L 143.370665 95.383816 
L 142.02046 96.160497 
L 140.334583 96.849422 
L 138.528749 97.345146 
L 136.396528 97.705571 
L 133.707214 97.924407 
L 130.242101 97.966878 
L 124.617223 97.775466 
L 112.541671 97.117265 
L 109.091337 96.689348 
L 106.669931 96.172328 
L 104.808325 95.568171 
L 103.28667 94.867676 
L 101.935674 94.008315 
L 100.773166 92.989625 
L 99.808105 91.820673 
L 99.039266 90.518727 
L 98.455593 89.106708 
L 98.000875 87.439677 
L 97.678316 85.349205 
L 97.52994 82.848854 
L 97.565065 79.442973 
L 97.939035 71.949953 
L 98.396749 65.494253 
L 98.815323 62.691196 
L 99.33114 60.651186 
L 99.94956 59.041079 
L 100.682018 57.70704 
L 101.583063 56.531753 
L 102.651755 55.53109 
L 103.876502 54.711935 
L 105.236902 54.071133 
L 106.845015 53.5606 
L 108.837636 53.179475 
L 111.203744 52.96481 
L 114.355849 52.918817 
L 119.686934 53.107001 
L 129.785317 53.680539 
L 132.637834 54.067428 
L 134.804012 54.580046 
L 136.444364 55.185715 
L 137.804691 55.918549 
L 138.897682 56.749902 
L 139.814017 57.721977 
L 140.55091 58.82148 
L 141.152118 60.125214 
L 141.597203 61.62722 
L 141.8951 63.41632 
L 142.039955 65.689263 
L 142.002196 68.841187 
L 141.595675 76.705695 
L 141.228827 81.062984 
L 140.821799 83.384868 
L 140.310828 85.103611 
L 139.670378 86.503435 
L 138.889184 87.666611 
L 137.99355 88.600497 
L 136.950273 89.368485 
L 135.699622 90.003214 
L 134.247344 90.485423 
L 132.524617 90.823858 
L 130.371589 91.01801 
L 127.458087 91.046827 
L 121.922929 90.829917 
L 114.331978 90.3657 
L 111.846263 89.987404 
L 109.994386 89.486746 
L 108.593841 88.888405 
L 107.433632 88.151115 
L 106.509639 87.29719 
L 105.770227 86.306441 
L 105.187299 85.141358 
L 104.754173 83.753752 
L 104.477102 82.094413 
L 104.356846 79.925 
L 104.430657 76.703573 
L 104.921583 68.389641 
L 105.268763 65.846812 
L 105.727031 64.085921 
L 106.303425 62.741523 
L 106.986967 61.691396 
L 107.798432 60.838109 
L 108.754003 60.147004 
L 109.929978 59.58007 
L 111.323236 59.163407 
L 113.021068 58.891594 
L 115.272912 58.770635 
L 118.681574 58.838578 
L 127.275461 59.298636 
L 129.752816 59.639295 
L 131.448261 60.08314 
L 132.757456 60.647622 
L 133.778296 61.323687 
L 134.588881 62.124081 
L 135.219058 63.054484 
L 135.453177 63.526846 
L 135.453177 63.526846 
" clip-path="url(#pbcc3702c13)" style="fill: none; stroke: #ff7f0e; stroke-opacity: 0.5; stroke-width: 1.5; stroke-linecap: round"/>
   </g>
   <g id="patch_3">
    <path d="M 46.64 147.04 
L 46.64 10.8 
" style="fill: none; stroke: #ffffff; stroke-width: 0.8; stroke-linejoin: miter; stroke-linecap: square"/>
   </g>
   <g id="patch_4">
    <path d="M 205.2 147.04 
L 205.2 10.8 
" style="fill: none; stroke: #ffffff; stroke-width: 0.8; stroke-linejoin: miter; stroke-linecap: square"/>
   </g>
   <g id="patch_5">
    <path d="M 46.64 147.04 
L 205.2 147.04 
" style="fill: none; stroke: #ffffff; stroke-width: 0.8; stroke-linejoin: miter; stroke-linecap: square"/>
   </g>
   <g id="patch_6">
    <path d="M 46.64 10.8 
L 205.2 10.8 
" style="fill: none; stroke: #ffffff; stroke-width: 0.8; stroke-linejoin: miter; stroke-linecap: square"/>
   </g>
  </g>
 </g>
 <defs>
  <clipPath id="pbcc3702c13">
   <rect x="46.64" y="10.8" width="158.56" height="136.24"/>
  </clipPath>
 </defs>
</svg>
