<?xml version="1.0" encoding="utf-8" standalone="no"?>
<!DOCTYPE svg PUBLIC "-//W3C//DTD SVG 1.1//EN"
  "http://www.w3.org/Graphics/SVG/1.1/DTD/svg11.dtd">
<svg xmlns:xlink="http://www.w3.org/1999/xlink" width="216pt" height="180pt" viewBox="0 0 216 180" xmlns="http://www.w3.org/2000/svg" version="1.1">
 <metadata>
  <rdf:RDF xmlns:dc="http://purl.org/dc/elements/1.1/" xmlns:cc="http://creativecommons.org/ns#" xmlns:rdf="http://www.w3.org/1999/02/22-rdf-syntax-ns#">
   <cc:Work>
    <dc:type rdf:resource="http://purl.org/dc/dcmitype/StillImage"/>
    <dc:date>2023-06-14T18:40:11.180772</dc:date>
    <dc:format>image/svg+xml</dc:format>
    <dc:creator>
     <cc:Agent>
      <dc:title>Matplotlib v3.7.0, https://matplotlib.org/</dc:title>
     </cc:Agent>
    </dc:creator>
   </cc:Work>
  </rdf:RDF>
 </metadata>
 <defs>
  <style type="text/css">*{stroke-linejoin: round; stroke-linecap: butt}</style>
 </defs>
 <g id="figure_1">
  <g id="patch_1">
   <path d="M 0 180 
L 216 180 
L 216 0 
L 0 0 
z
" style="fill: #ffffff"/>
  </g>
  <g id="axes_1">
   <g id="patch_2">
    <path d="M 46.64 147.04 
L 205.2 147.04 
L 205.2 10.8 
L 46.64 10.8 
L 46.64 147.04 
z
" style="fill: none"/>
   </g>
   <g id="matplotlib.axis_1">
    <g id="xtick_1">
     <g id="line2d_1">
      <path d="M 82.459447 147.04 
L 82.459447 10.8 
" clip-path="url(#p8cd4824de1)" style="fill: none; stroke: #d3d3d3; stroke-width: 0.8; stroke-linecap: round"/>
     </g>
     <g id="text_1">
      <!-- −1 -->
      <g style="fill: #808080" transform="translate(75.088354 161.638438) scale(0.1 -0.1)">
       <defs>
        <path id="DejaVuSans-2212" d="M 678 2272 
L 4684 2272 
L 4684 1741 
L 678 1741 
L 678 2272 
z
" transform="scale(0.015625)"/>
        <path id="DejaVuSans-31" d="M 794 531 
L 1825 531 
L 1825 4091 
L 703 3866 
L 703 4441 
L 1819 4666 
L 2450 4666 
L 2450 531 
L 3481 531 
L 3481 0 
L 794 0 
L 794 531 
z
" transform="scale(0.015625)"/>
       </defs>
       <use xlink:href="#DejaVuSans-2212"/>
       <use xlink:href="#DejaVuSans-31" x="83.789062"/>
      </g>
     </g>
    </g>
    <g id="xtick_2">
     <g id="line2d_2">
      <path d="M 120.970541 147.04 
L 120.970541 10.8 
" clip-path="url(#p8cd4824de1)" style="fill: none; stroke: #d3d3d3; stroke-width: 0.8; stroke-linecap: round"/>
     </g>
     <g id="text_2">
      <!-- 0 -->
      <g style="fill: #808080" transform="translate(117.789291 161.638438) scale(0.1 -0.1)">
       <defs>
        <path id="DejaVuSans-30" d="M 2034 4250 
Q 1547 4250 1301 3770 
Q 1056 3291 1056 2328 
Q 1056 1369 1301 889 
Q 1547 409 2034 409 
Q 2525 409 2770 889 
Q 3016 1369 3016 2328 
Q 3016 3291 2770 3770 
Q 2525 4250 2034 4250 
z
M 2034 4750 
Q 2819 4750 3233 4129 
Q 3647 3509 3647 2328 
Q 3647 1150 3233 529 
Q 2819 -91 2034 -91 
Q 1250 -91 836 529 
Q 422 1150 422 2328 
Q 422 3509 836 4129 
Q 1250 4750 2034 4750 
z
" transform="scale(0.015625)"/>
       </defs>
       <use xlink:href="#DejaVuSans-30"/>
      </g>
     </g>
    </g>
    <g id="xtick_3">
     <g id="line2d_3">
      <path d="M 159.481634 147.04 
L 159.481634 10.8 
" clip-path="url(#p8cd4824de1)" style="fill: none; stroke: #d3d3d3; stroke-width: 0.8; stroke-linecap: round"/>
     </g>
     <g id="text_3">
      <!-- 1 -->
      <g style="fill: #808080" transform="translate(156.300384 161.638438) scale(0.1 -0.1)">
       <use xlink:href="#DejaVuSans-31"/>
      </g>
     </g>
    </g>
    <g id="xtick_4">
     <g id="line2d_4">
      <path d="M 197.992727 147.04 
L 197.992727 10.8 
" clip-path="url(#p8cd4824de1)" style="fill: none; stroke: #d3d3d3; stroke-width: 0.8; stroke-linecap: round"/>
     </g>
     <g id="text_4">
      <!-- 2 -->
      <g style="fill: #808080" transform="translate(194.811477 161.638438) scale(0.1 -0.1)">
       <defs>
        <path id="DejaVuSans-32" d="M 1228 531 
L 3431 531 
L 3431 0 
L 469 0 
L 469 531 
Q 828 903 1448 1529 
Q 2069 2156 2228 2338 
Q 2531 2678 2651 2914 
Q 2772 3150 2772 3378 
Q 2772 3750 2511 3984 
Q 2250 4219 1831 4219 
Q 1534 4219 1204 4116 
Q 875 4013 500 3803 
L 500 4441 
Q 881 4594 1212 4672 
Q 1544 4750 1819 4750 
Q 2544 4750 2975 4387 
Q 3406 4025 3406 3419 
Q 3406 3131 3298 2873 
Q 3191 2616 2906 2266 
Q 2828 2175 2409 1742 
Q 1991 1309 1228 531 
z
" transform="scale(0.015625)"/>
       </defs>
       <use xlink:href="#DejaVuSans-32"/>
      </g>
     </g>
    </g>
    <g id="text_5">
     <!-- x -->
     <g style="fill: #262626" transform="translate(122.960625 175.316563) scale(0.1 -0.1)">
      <defs>
       <path id="DejaVuSans-78" d="M 3513 3500 
L 2247 1797 
L 3578 0 
L 2900 0 
L 1881 1375 
L 863 0 
L 184 0 
L 1544 1831 
L 300 3500 
L 978 3500 
L 1906 2253 
L 2834 3500 
L 3513 3500 
z
" transform="scale(0.015625)"/>
      </defs>
      <use xlink:href="#DejaVuSans-78"/>
     </g>
    </g>
   </g>
   <g id="matplotlib.axis_2">
    <g id="ytick_1">
     <g id="line2d_5">
      <path d="M 46.64 145.520962 
L 205.2 145.520962 
" clip-path="url(#p8cd4824de1)" style="fill: none; stroke: #d3d3d3; stroke-width: 0.8; stroke-linecap: round"/>
     </g>
     <g id="text_6">
      <!-- −2 -->
      <g style="fill: #808080" transform="translate(24.897813 149.320181) scale(0.1 -0.1)">
       <use xlink:href="#DejaVuSans-2212"/>
       <use xlink:href="#DejaVuSans-32" x="83.789062"/>
      </g>
     </g>
    </g>
    <g id="ytick_2">
     <g id="line2d_6">
      <path d="M 46.64 110.538142 
L 205.2 110.538142 
" clip-path="url(#p8cd4824de1)" style="fill: none; stroke: #d3d3d3; stroke-width: 0.8; stroke-linecap: round"/>
     </g>
     <g id="text_7">
      <!-- −1 -->
      <g style="fill: #808080" transform="translate(24.897813 114.337361) scale(0.1 -0.1)">
       <use xlink:href="#DejaVuSans-2212"/>
       <use xlink:href="#DejaVuSans-31" x="83.789062"/>
      </g>
     </g>
    </g>
    <g id="ytick_3">
     <g id="line2d_7">
      <path d="M 46.64 75.555322 
L 205.2 75.555322 
" clip-path="url(#p8cd4824de1)" style="fill: none; stroke: #d3d3d3; stroke-width: 0.8; stroke-linecap: round"/>
     </g>
     <g id="text_8">
      <!-- 0 -->
      <g style="fill: #808080" transform="translate(33.2775 79.354541) scale(0.1 -0.1)">
       <use xlink:href="#DejaVuSans-30"/>
      </g>
     </g>
    </g>
    <g id="ytick_4">
     <g id="line2d_8">
      <path d="M 46.64 40.572502 
L 205.2 40.572502 
" clip-path="url(#p8cd4824de1)" style="fill: none; stroke: #d3d3d3; stroke-width: 0.8; stroke-linecap: round"/>
     </g>
     <g id="text_9">
      <!-- 1 -->
      <g style="fill: #808080" transform="translate(33.2775 44.37172) scale(0.1 -0.1)">
       <use xlink:href="#DejaVuSans-31"/>
      </g>
     </g>
    </g>
    <g id="text_10">
     <!-- y -->
     <g style="fill: #262626" transform="translate(18.818125 81.879375) rotate(-90) scale(0.1 -0.1)">
      <defs>
       <path id="DejaVuSans-79" d="M 2059 -325 
Q 1816 -950 1584 -1140 
Q 1353 -1331 966 -1331 
L 506 -1331 
L 506 -850 
L 844 -850 
Q 1081 -850 1212 -737 
Q 1344 -625 1503 -206 
L 1606 56 
L 191 3500 
L 800 3500 
L 1894 763 
L 2988 3500 
L 3597 3500 
L 2059 -325 
z
" transform="scale(0.015625)"/>
      </defs>
      <use xlink:href="#DejaVuSans-79"/>
     </g>
    </g>
   </g>
   <g id="line2d_9">
    <path d="M 197.992727 75.555322 
L 195.720077 84.09624 
L 193.130132 92.446697 
L 190.242699 100.493572 
L 188.673536 104.367357 
L 187.008664 108.119855 
L 185.238387 111.733009 
L 183.353735 115.187536 
L 181.347191 118.463593 
L 179.213113 121.541724 
L 176.947882 124.403957 
L 174.549801 127.034953 
L 172.018836 129.423046 
L 169.356246 131.561066 
L 166.564225 133.446844 
L 163.64559 135.08335 
L 160.603574 136.478449 
L 157.441738 137.644317 
L 154.163987 138.59656 
L 150.774672 139.353139 
L 147.278744 139.933187 
L 143.68194 140.355811 
L 139.990972 140.638966 
L 136.213714 140.798478 
L 128.43858 140.794845 
L 120.448246 140.405951 
L 112.35976 139.636663 
L 108.321854 139.098453 
L 104.313599 138.448625 
L 100.355026 137.679611 
L 96.466459 136.784321 
L 92.668069 135.756809 
L 88.979445 134.592742 
L 85.419208 133.289632 
L 82.00469 131.846851 
L 78.751702 130.265463 
L 75.674372 128.547927 
L 72.785055 126.697751 
L 70.094261 124.719162 
L 67.610592 122.616827 
L 65.34064 120.395689 
L 63.288842 118.060892 
L 61.457285 115.617816 
L 59.8455 113.072169 
L 58.450267 110.43011 
L 57.265501 107.698348 
L 56.282282 104.884179 
L 55.489043 101.995435 
L 54.871979 99.040334 
L 54.415624 96.027251 
L 54.10359 92.964435 
L 53.919391 89.859724 
L 53.873001 83.552536 
L 54.172551 77.153265 
L 54.756394 70.698139 
L 55.614129 64.220408 
L 56.785237 57.76443 
L 57.511756 54.565427 
L 58.348064 51.401408 
L 59.306803 48.287366 
L 60.400233 45.240823 
L 61.63937 42.281441 
L 63.033197 39.430338 
L 64.588005 36.709118 
L 66.306948 34.138696 
L 68.189847 31.738041 
L 70.233269 29.522961 
L 72.430842 27.505104 
L 74.773752 25.691277 
L 77.25135 24.083169 
L 79.85178 22.677491 
L 82.562559 21.46649 
L 85.37108 20.438755 
L 88.264973 19.580204 
L 91.232369 18.875136 
L 94.262033 18.307262 
L 97.343409 17.860623 
L 103.622221 17.273334 
L 109.995547 17.017044 
L 116.395037 17.031508 
L 122.753244 17.292667 
L 129.000943 17.805332 
L 135.066638 18.591512 
L 140.878377 19.677643 
L 146.367256 21.08377 
L 151.471516 22.8168 
L 153.862971 23.803889 
L 156.140114 24.868496 
L 158.298621 26.007535 
L 160.335053 27.217337 
L 162.246862 28.493791 
L 164.03238 29.832482 
L 165.690802 31.2288 
L 167.22217 32.678047 
L 168.627343 34.175503 
L 169.907974 35.716485 
L 171.066475 37.296382 
L 172.105986 38.910679 
L 173.843961 42.224978 
L 175.159673 45.625674 
L 176.09874 49.081392 
L 176.711803 52.563641 
L 177.051312 56.047508 
L 177.168304 59.512325 
L 177.02735 64.640127 
L 176.6199 69.655674 
L 175.814013 76.145694 
L 174.80093 82.412111 
L 173.585533 88.465251 
L 172.500838 92.861137 
L 171.21619 97.114688 
L 169.677618 101.19217 
L 168.484394 103.789206 
L 167.140559 106.269417 
L 165.634437 108.614501 
L 163.957294 110.806368 
L 162.103695 112.828572 
L 160.071613 114.667738 
L 157.862288 116.31476 
L 155.479898 117.765632 
L 152.931078 119.021759 
L 150.224401 120.089718 
L 147.369852 120.980489 
L 144.378398 121.708275 
L 141.261661 122.289035 
L 136.378288 122.919507 
L 131.283505 123.302684 
L 126.024408 123.469997 
L 120.654762 123.430942 
L 115.238118 123.171845 
L 109.85015 122.659639 
L 106.317118 122.155846 
L 102.864339 121.506291 
L 99.521529 120.698868 
L 96.318446 119.724345 
L 93.283631 118.57741 
L 90.44308 117.257273 
L 87.818956 115.767826 
L 85.428489 114.117387 
L 83.283146 112.318125 
L 81.388153 110.385273 
L 79.74239 108.336241 
L 78.338694 106.189688 
L 77.16451 103.964639 
L 76.202846 101.679668 
L 75.433437 99.352193 
L 74.833999 96.997913 
L 74.203156 93.445277 
L 73.827552 89.898061 
L 73.609467 85.216144 
L 73.62511 79.473118 
L 73.896841 72.738447 
L 74.310422 67.230098 
L 74.817102 62.884661 
L 75.560272 58.611884 
L 76.329246 55.481493 
L 77.326182 52.447854 
L 78.590055 49.550049 
L 79.59687 47.715428 
L 80.743067 45.974226 
L 82.032494 44.339036 
L 83.466069 42.82083 
L 85.041771 41.428194 
L 86.754825 40.166743 
L 88.598056 39.038778 
L 90.562379 38.043238 
L 92.637341 37.17593 
L 95.932489 36.099853 
L 99.41222 35.265653 
L 103.03876 34.638187 
L 106.777066 34.18344 
L 111.880389 33.797946 
L 117.0559 33.627458 
L 122.235528 33.661155 
L 127.347185 33.917011 
L 132.311162 34.432331 
L 135.885136 35.015237 
L 139.289478 35.784244 
L 142.487735 36.749511 
L 145.447109 37.913785 
L 148.140763 39.271711 
L 150.54967 40.810268 
L 152.663776 42.510083 
L 154.482326 44.347259 
L 156.013387 46.29537 
L 157.272691 48.327333 
L 158.281994 50.417008 
L 159.067204 52.540412 
L 159.656481 54.676551 
L 160.186863 57.514724 
L 160.484776 60.313 
L 160.617721 63.723485 
L 160.545037 67.661968 
L 160.231132 72.645494 
L 159.547461 79.628996 
L 158.805887 85.10713 
L 158.11583 88.789033 
L 157.343398 91.837379 
L 156.527871 94.284758 
L 155.520229 96.625656 
L 154.289938 98.834121 
L 153.128543 100.486579 
L 151.799709 102.022227 
L 150.29831 103.42896 
L 148.623274 104.697768 
L 146.777444 105.823681 
L 144.767149 106.806248 
L 142.601544 107.649483 
L 139.693358 108.519865 
L 136.58475 109.206145 
L 132.626694 109.819675 
L 128.464109 110.237305 
L 123.414819 110.502789 
L 118.985693 110.535441 
L 114.536121 110.356885 
L 110.874643 110.011141 
L 107.318607 109.450831 
L 104.593735 108.827258 
L 102.012722 108.035062 
L 99.608121 107.068548 
L 97.408165 105.929022 
L 95.434463 104.625074 
L 93.700269 103.171944 
L 92.209636 101.590123 
L 90.957573 99.903487 
L 89.931101 98.13727 
L 89.110987 96.316196 
L 88.340141 93.997018 
L 87.80517 91.664846 
L 87.405051 88.888715 
L 87.175413 85.720326 
L 87.111407 81.367032 
L 87.270688 75.206401 
L 87.62117 68.989748 
L 88.020705 65.236149 
L 88.53419 62.31325 
L 89.190322 59.83892 
L 89.948765 57.805864 
L 90.920235 55.88146 
L 91.909799 54.381278 
L 93.072481 52.992003 
L 94.411484 51.726941 
L 95.924322 50.595511 
L 97.603178 49.602214 
L 99.435789 48.746248 
L 101.815964 47.891931 
L 104.365218 47.209476 
L 107.512081 46.600929 
L 111.279818 46.109222 
L 115.662702 45.766044 
L 120.615819 45.614983 
L 125.05575 45.70253 
L 128.905495 45.999525 
L 132.132676 46.466415 
L 134.746592 47.043225 
L 137.180773 47.795817 
L 139.401973 48.72762 
L 141.384126 49.832462 
L 142.84126 50.874487 
L 144.351011 52.251162 
L 145.604626 53.739889 
L 146.616142 55.311384 
L 147.40717 56.936799 
L 148.08678 58.866411 
L 148.598372 61.073569 
L 148.914686 63.513923 
L 149.043747 66.389103 
L 148.967857 69.841815 
L 148.607066 75.035452 
L 147.926559 81.735723 
L 147.353388 85.325732 
L 146.733556 87.854646 
L 146.001316 89.923482 
L 145.121717 91.715575 
L 144.119515 93.236008 
L 143.035811 94.499067 
L 141.770829 95.649386 
L 140.321697 96.678081 
L 138.691252 97.581072 
L 136.676683 98.438665 
L 134.232904 99.215359 
L 131.325269 99.885229 
L 127.93326 100.431988 
L 124.055331 100.83832 
L 120.014374 101.052785 
L 116.197799 101.04107 
L 112.997631 100.82247 
L 110.182561 100.414447 
L 107.784276 99.848536 
L 105.802871 99.17426 
L 103.996795 98.336102 
L 102.391437 97.340785 
L 101.002542 96.203727 
L 99.834837 94.947276 
L 98.882284 93.59802 
L 98.048747 92.003837 
L 97.43717 90.364867 
L 96.938113 88.346963 
L 96.631533 86.174534 
L 96.480591 83.381379 
L 96.528801 79.781922 
L 96.876222 73.451564 
L 97.303102 68.880726 
L 97.77139 66.203098 
L 98.321558 64.256746 
L 98.989546 62.645213 
L 99.79676 61.248683 
L 100.719468 60.064146 
L 101.82126 58.995512 
L 103.102248 58.053542 
L 104.682939 57.181327 
L 106.445939 56.46034 
L 108.674281 55.801506 
L 111.400482 55.247136 
L 114.630201 54.821084 
L 118.517524 54.531102 
L 122.460229 54.449072 
L 125.815745 54.584011 
L 128.693436 54.91803 
L 131.064857 55.417666 
L 133.081304 56.076848 
L 134.745499 56.858669 
L 136.082168 57.717002 
L 137.217795 58.690286 
L 138.22252 59.849221 
L 139.005727 61.086436 
L 139.627454 62.470771 
L 140.100772 64.076016 
L 140.397029 65.864266 
L 140.520923 67.973509 
L 140.442868 70.663924 
L 140.080466 74.599214 
L 139.303942 80.620088 
L 138.762833 83.255353 
L 138.151452 85.154734 
L 137.433948 86.664117 
L 136.600569 87.914025 
L 135.603312 89.013761 
L 134.39603 90.004423 
L 132.972526 90.878781 
L 131.259478 91.667309 
L 129.1541 92.3882 
L 126.52493 93.047798 
L 123.322521 93.617281 
L 119.868215 94.00613 
L 116.722781 94.13907 
L 114.13923 94.036795 
L 111.969465 93.743107 
L 110.139898 93.287386 
L 108.567901 92.679277 
L 107.184905 91.901963 
L 106.077656 91.030853 
L 105.116066 89.983391 
L 104.369292 88.84368 
L 103.764992 87.503977 
L 103.334996 85.993454 
L 103.071772 84.215516 
L 102.995519 82.108322 
L 103.134855 79.364606 
L 103.620733 74.855624 
L 104.240686 70.768949 
L 104.774186 68.69711 
L 105.378457 67.20731 
L 106.110105 65.989894 
L 106.960679 64.997154 
L 107.994131 64.135327 
L 109.246469 63.392151 
L 110.761182 62.763054 
L 112.635148 62.23636 
L 115.029862 61.80766 
L 118.107628 61.494838 
L 121.530294 61.367623 
L 124.386988 61.468623 
L 126.607953 61.756994 
L 128.386317 62.206578 
L 129.777925 62.777897 
L 130.915362 63.479626 
L 131.828217 64.305707 
L 132.537739 65.254113 
L 132.908205 65.962461 
L 132.908205 65.962461 
" clip-path="url(#p8cd4824de1)" style="fill: none; stroke: #1f77b4; stroke-width: 1.5; stroke-linecap: round"/>
   </g>
   <g id="line2d_10">
    <path d="M 197.992727 75.555322 
L 197.024055 92.040116 
L 196.600763 97.379932 
L 196.046117 102.61191 
L 195.294116 107.700647 
L 194.272915 112.598283 
L 192.910922 117.246235 
L 191.144204 121.579261 
L 188.92434 125.531783 
L 186.225266 129.045701 
L 183.047487 132.078258 
L 179.418406 134.608177 
L 175.388537 136.638613 
L 171.024476 138.196286 
L 166.400385 139.327277 
L 161.589841 140.090756 
L 156.659481 140.552154 
L 151.665062 140.777047 
L 146.649881 140.826461 
L 136.670913 140.603083 
L 112.499043 139.539753 
L 103.179788 139.05363 
L 94.122137 138.356925 
L 89.733427 137.854749 
L 85.473373 137.202692 
L 81.376028 136.363897 
L 77.479992 135.30341 
L 73.826084 133.991034 
L 70.454245 132.404156 
L 67.399984 130.530122 
L 64.690897 128.36773 
L 62.343799 125.927521 
L 60.363003 123.230752 
L 58.740007 120.307237 
L 57.454592 117.192426 
L 56.477032 113.924241 
L 55.770972 110.540152 
L 55.296461 107.07483 
L 55.012759 103.558555 
L 54.880634 100.016386 
L 54.931353 92.927831 
L 55.394559 82.439596 
L 56.546146 62.243908 
L 57.072214 55.775763 
L 57.860053 49.512749 
L 58.405239 46.488973 
L 59.081442 43.558856 
L 59.910649 40.741525 
L 60.912865 38.057444 
L 62.104832 35.52738 
L 63.49884 33.171184 
L 65.101762 31.006468 
L 66.914454 29.047349 
L 68.931621 27.30339 
L 71.142169 25.77889 
L 73.530022 24.472593 
L 76.075287 23.377861 
L 78.755621 22.483241 
L 81.547628 21.773352 
L 84.428144 21.229946 
L 87.375302 20.833023 
L 93.392978 20.396059 
L 99.474421 20.303818 
L 108.546002 20.523585 
L 129.029138 21.433905 
L 140.239022 22.090454 
L 145.649935 22.601255 
L 150.860893 23.342461 
L 155.791073 24.40525 
L 158.120945 25.084331 
L 160.343682 25.874247 
L 162.446747 26.78219 
L 164.418447 27.813196 
L 166.24851 28.969847 
L 167.928629 30.252106 
L 169.452907 31.657284 
L 170.818175 33.180178 
L 172.024152 34.813343 
L 173.073425 36.547481 
L 173.971279 38.371921 
L 174.725383 40.275125 
L 175.34537 42.245194 
L 175.842368 44.270338 
L 176.51641 48.441486 
L 176.848228 52.709169 
L 176.934591 57.011947 
L 176.783793 63.443502 
L 176.137777 76.012441 
L 175.261709 90.085797 
L 174.649103 95.861816 
L 174.048801 99.573412 
L 173.229892 103.129048 
L 172.137947 106.481379 
L 170.72655 109.579121 
L 169.890311 111.016784 
L 168.963587 112.3727 
L 167.945424 113.642019 
L 166.836246 114.820802 
L 165.637853 115.906174 
L 164.353356 116.896437 
L 162.987058 117.79113 
L 161.544294 118.591035 
L 158.454635 119.915536 
L 155.139665 120.898368 
L 151.657396 121.581053 
L 148.062541 122.012705 
L 144.402337 122.244665 
L 138.869129 122.324359 
L 131.533459 122.1419 
L 112.069074 121.267812 
L 103.623228 120.730176 
L 98.741799 120.218018 
L 94.077682 119.453975 
L 91.133465 118.757471 
L 88.357281 117.881049 
L 85.780758 116.804153 
L 83.433305 115.513362 
L 81.33918 114.003976 
L 79.514883 112.280672 
L 77.967351 110.357089 
L 76.693267 108.254362 
L 75.679595 105.998905 
L 74.905137 103.619839 
L 74.342771 101.146514 
L 73.961938 98.606452 
L 73.662046 94.723158 
L 73.598159 90.807672 
L 73.732163 85.608837 
L 74.324519 74.195641 
L 75.013791 63.240432 
L 75.504471 58.565333 
L 76.046702 55.185392 
L 76.803396 51.958618 
L 77.455379 49.916992 
L 78.242904 47.981637 
L 79.17779 46.168517 
L 80.267992 44.492471 
L 81.516913 42.966132 
L 82.923071 41.598958 
L 84.480163 40.396476 
L 86.177547 39.359865 
L 88.00106 38.485907 
L 89.934079 37.767304 
L 91.958663 37.193303 
L 95.127701 36.573635 
L 98.404711 36.197226 
L 102.859149 35.981021 
L 108.449889 36.007081 
L 117.254249 36.339342 
L 134.086101 37.191667 
L 139.067172 37.657963 
L 142.880116 38.22879 
L 145.598456 38.818681 
L 148.160423 39.578418 
L 150.532715 40.530926 
L 152.683947 41.691486 
L 154.588195 43.065709 
L 156.228192 44.64864 
L 157.597505 46.425281 
L 158.701247 48.372438 
L 159.555228 50.461506 
L 160.183845 52.661585 
L 160.617234 54.942366 
L 160.948291 58.062018 
L 161.073162 62.015673 
L 160.970079 66.750399 
L 160.454142 76.755091 
L 159.778039 87.059896 
L 159.266499 91.265316 
L 158.758217 93.949551 
L 158.065449 96.500092 
L 157.148293 98.878308 
L 156.294027 100.524888 
L 155.287573 102.036582 
L 154.125866 103.400421 
L 152.811369 104.607155 
L 151.351901 105.652098 
L 149.759946 106.535527 
L 148.051544 107.262593 
L 145.624243 108.005682 
L 143.067493 108.519556 
L 140.42398 108.842089 
L 137.052997 109.036738 
L 132.302977 109.049012 
L 124.939665 108.788703 
L 109.60811 108.01134 
L 105.388543 107.603667 
L 101.939923 107.060265 
L 99.236741 106.414127 
L 97.219434 105.742645 
L 95.357659 104.917176 
L 93.67356 103.928674 
L 92.184671 102.775226 
L 90.901912 101.462385 
L 89.828333 100.002588 
L 88.958856 98.41375 
L 88.280997 96.717319 
L 87.674719 94.480291 
L 87.294784 92.153981 
L 87.070595 89.297077 
L 87.037378 85.45598 
L 87.263087 79.757791 
L 88.08785 66.164324 
L 88.541357 62.328982 
L 89.098812 59.4924 
L 89.779265 57.209249 
L 90.520232 55.442489 
L 91.437931 53.824819 
L 92.541637 52.377432 
L 93.831401 51.116189 
L 95.297906 50.049576 
L 96.923611 49.177645 
L 98.68495 48.492134 
L 100.939751 47.893557 
L 103.304315 47.505045 
L 106.145387 47.26234 
L 109.848081 47.184154 
L 115.165362 47.319567 
L 129.254816 47.988847 
L 134.042485 48.411532 
L 137.180273 48.905996 
L 139.469065 49.462198 
L 141.581399 50.204417 
L 143.221049 51.00662 
L 144.679728 51.969762 
L 145.941764 53.09252 
L 146.999713 54.365335 
L 147.855295 55.771644 
L 148.519012 57.289998 
L 149.07485 59.171256 
L 149.467191 61.420552 
L 149.671171 64.019812 
L 149.688247 67.514252 
L 149.437262 73.252318 
L 148.742755 84.177115 
L 148.296933 87.502354 
L 147.749128 89.91389 
L 147.134794 91.711587 
L 146.334353 93.358979 
L 145.467449 94.654108 
L 144.441053 95.795926 
L 143.259669 96.774244 
L 141.935407 97.585825 
L 140.270532 98.314705 
L 138.475933 98.84786 
L 136.345337 99.244967 
L 133.644908 99.498888 
L 130.151508 99.570399 
L 124.954014 99.419028 
L 112.470596 98.785101 
L 108.740566 98.374481 
L 106.269215 97.898265 
L 104.17733 97.271816 
L 102.46227 96.515132 
L 101.099514 95.669384 
L 99.926885 94.666832 
L 98.953425 93.516397 
L 98.177893 92.235076 
L 97.589139 90.845424 
L 97.130463 89.204802 
L 96.805096 87.147444 
L 96.655428 84.686702 
L 96.690859 81.334774 
L 97.068084 73.960452 
L 97.529782 67.607018 
L 97.952 64.848364 
L 98.472308 62.84067 
L 99.09611 61.256069 
L 99.834944 59.943163 
L 100.743833 58.786494 
L 101.821828 57.801682 
L 103.057236 56.995504 
L 104.429478 56.364853 
L 106.05159 55.862407 
L 108.061555 55.48732 
L 110.44826 55.276056 
L 113.627804 55.230791 
L 119.005295 55.415994 
L 129.191583 55.980447 
L 132.194987 56.384008 
L 134.369491 56.900113 
L 136.012486 57.507862 
L 137.371669 58.240864 
L 138.460795 59.069979 
L 139.371153 60.036865 
L 140.100711 61.127852 
L 140.693405 62.418627 
L 141.129615 63.902735 
L 141.418692 65.667448 
L 141.555238 67.906141 
L 141.506509 71.113395 
L 141.061192 79.338269 
L 140.709327 83.117224 
L 140.281073 85.389723 
L 139.746001 87.066274 
L 139.07917 88.426461 
L 138.322802 89.490234 
L 137.409719 90.399301 
L 136.348549 91.144826 
L 135.079142 91.758951 
L 133.607921 92.223494 
L 131.776454 92.559042 
L 129.508096 92.738023 
L 126.386172 92.745072 
L 119.683717 92.469612 
L 113.603725 92.084472 
L 111.021258 91.6968 
L 109.160482 91.196303 
L 107.755735 90.599711 
L 106.594378 89.866361 
L 105.671568 89.018881 
L 104.935009 88.037561 
L 104.356161 86.88563 
L 103.927937 85.515891 
L 103.656062 83.880189 
L 103.540999 81.744112 
L 103.619227 78.574738 
L 104.11707 70.39798 
L 104.472635 67.899292 
L 104.923873 66.220996 
L 105.505285 64.897894 
L 106.194777 63.864402 
L 107.013305 63.024633 
L 107.977194 62.344475 
L 109.163406 61.786522 
L 110.568792 61.37646 
L 112.336114 61.103457 
L 114.608623 60.989238 
L 118.10083 61.061141 
L 126.759232 61.518702 
L 129.2506 61.862691 
L 130.951565 62.309493 
L 132.26136 62.87544 
L 133.279448 63.550719 
L 134.084984 64.347509 
L 134.708654 65.270967 
L 134.90878 65.670777 
L 134.90878 65.670777 
" clip-path="url(#p8cd4824de1)" style="fill: none; stroke: #ff7f0e; stroke-opacity: 0.5; stroke-width: 1.5; stroke-linecap: round"/>
   </g>
   <g id="patch_3">
    <path d="M 46.64 147.04 
L 46.64 10.8 
" style="fill: none; stroke: #ffffff; stroke-width: 0.8; stroke-linejoin: miter; stroke-linecap: square"/>
   </g>
   <g id="patch_4">
    <path d="M 205.2 147.04 
L 205.2 10.8 
" style="fill: none; stroke: #ffffff; stroke-width: 0.8; stroke-linejoin: miter; stroke-linecap: square"/>
   </g>
   <g id="patch_5">
    <path d="M 46.64 147.04 
L 205.2 147.04 
" style="fill: none; stroke: #ffffff; stroke-width: 0.8; stroke-linejoin: miter; stroke-linecap: square"/>
   </g>
   <g id="patch_6">
    <path d="M 46.64 10.8 
L 205.2 10.8 
" style="fill: none; stroke: #ffffff; stroke-width: 0.8; stroke-linejoin: miter; stroke-linecap: square"/>
   </g>
  </g>
 </g>
 <defs>
  <clipPath id="p8cd4824de1">
   <rect x="46.64" y="10.8" width="158.56" height="136.24"/>
  </clipPath>
 </defs>
</svg>
