<?xml version="1.0" encoding="utf-8" standalone="no"?>
<!DOCTYPE svg PUBLIC "-//W3C//DTD SVG 1.1//EN"
  "http://www.w3.org/Graphics/SVG/1.1/DTD/svg11.dtd">
<svg xmlns:xlink="http://www.w3.org/1999/xlink" width="216pt" height="180pt" viewBox="0 0 216 180" xmlns="http://www.w3.org/2000/svg" version="1.1">
 <metadata>
  <rdf:RDF xmlns:dc="http://purl.org/dc/elements/1.1/" xmlns:cc="http://creativecommons.org/ns#" xmlns:rdf="http://www.w3.org/1999/02/22-rdf-syntax-ns#">
   <cc:Work>
    <dc:type rdf:resource="http://purl.org/dc/dcmitype/StillImage"/>
    <dc:date>2023-06-14T18:35:51.511938</dc:date>
    <dc:format>image/svg+xml</dc:format>
    <dc:creator>
     <cc:Agent>
      <dc:title>Matplotlib v3.7.0, https://matplotlib.org/</dc:title>
     </cc:Agent>
    </dc:creator>
   </cc:Work>
  </rdf:RDF>
 </metadata>
 <defs>
  <style type="text/css">*{stroke-linejoin: round; stroke-linecap: butt}</style>
 </defs>
 <g id="figure_1">
  <g id="patch_1">
   <path d="M 0 180 
L 216 180 
L 216 0 
L 0 0 
z
" style="fill: #ffffff"/>
  </g>
  <g id="axes_1">
   <g id="patch_2">
    <path d="M 46.64 147.04 
L 205.2 147.04 
L 205.2 10.8 
L 46.64 10.8 
L 46.64 147.04 
z
" style="fill: none"/>
   </g>
   <g id="matplotlib.axis_1">
    <g id="xtick_1">
     <g id="line2d_1">
      <path d="M 83.612788 147.04 
L 83.612788 10.8 
" clip-path="url(#pad91e54a15)" style="fill: none; stroke: #d3d3d3; stroke-width: 0.8; stroke-linecap: round"/>
     </g>
     <g id="text_1">
      <!-- −1 -->
      <g style="fill: #808080" transform="translate(76.241694 161.638438) scale(0.1 -0.1)">
       <defs>
        <path id="DejaVuSans-2212" d="M 678 2272 
L 4684 2272 
L 4684 1741 
L 678 1741 
L 678 2272 
z
" transform="scale(0.015625)"/>
        <path id="DejaVuSans-31" d="M 794 531 
L 1825 531 
L 1825 4091 
L 703 3866 
L 703 4441 
L 1819 4666 
L 2450 4666 
L 2450 531 
L 3481 531 
L 3481 0 
L 794 0 
L 794 531 
z
" transform="scale(0.015625)"/>
       </defs>
       <use xlink:href="#DejaVuSans-2212"/>
       <use xlink:href="#DejaVuSans-31" x="83.789062"/>
      </g>
     </g>
    </g>
    <g id="xtick_2">
     <g id="line2d_2">
      <path d="M 121.739434 147.04 
L 121.739434 10.8 
" clip-path="url(#pad91e54a15)" style="fill: none; stroke: #d3d3d3; stroke-width: 0.8; stroke-linecap: round"/>
     </g>
     <g id="text_2">
      <!-- 0 -->
      <g style="fill: #808080" transform="translate(118.558184 161.638438) scale(0.1 -0.1)">
       <defs>
        <path id="DejaVuSans-30" d="M 2034 4250 
Q 1547 4250 1301 3770 
Q 1056 3291 1056 2328 
Q 1056 1369 1301 889 
Q 1547 409 2034 409 
Q 2525 409 2770 889 
Q 3016 1369 3016 2328 
Q 3016 3291 2770 3770 
Q 2525 4250 2034 4250 
z
M 2034 4750 
Q 2819 4750 3233 4129 
Q 3647 3509 3647 2328 
Q 3647 1150 3233 529 
Q 2819 -91 2034 -91 
Q 1250 -91 836 529 
Q 422 1150 422 2328 
Q 422 3509 836 4129 
Q 1250 4750 2034 4750 
z
" transform="scale(0.015625)"/>
       </defs>
       <use xlink:href="#DejaVuSans-30"/>
      </g>
     </g>
    </g>
    <g id="xtick_3">
     <g id="line2d_3">
      <path d="M 159.866081 147.04 
L 159.866081 10.8 
" clip-path="url(#pad91e54a15)" style="fill: none; stroke: #d3d3d3; stroke-width: 0.8; stroke-linecap: round"/>
     </g>
     <g id="text_3">
      <!-- 1 -->
      <g style="fill: #808080" transform="translate(156.684831 161.638438) scale(0.1 -0.1)">
       <use xlink:href="#DejaVuSans-31"/>
      </g>
     </g>
    </g>
    <g id="xtick_4">
     <g id="line2d_4">
      <path d="M 197.992727 147.04 
L 197.992727 10.8 
" clip-path="url(#pad91e54a15)" style="fill: none; stroke: #d3d3d3; stroke-width: 0.8; stroke-linecap: round"/>
     </g>
     <g id="text_4">
      <!-- 2 -->
      <g style="fill: #808080" transform="translate(194.811477 161.638438) scale(0.1 -0.1)">
       <defs>
        <path id="DejaVuSans-32" d="M 1228 531 
L 3431 531 
L 3431 0 
L 469 0 
L 469 531 
Q 828 903 1448 1529 
Q 2069 2156 2228 2338 
Q 2531 2678 2651 2914 
Q 2772 3150 2772 3378 
Q 2772 3750 2511 3984 
Q 2250 4219 1831 4219 
Q 1534 4219 1204 4116 
Q 875 4013 500 3803 
L 500 4441 
Q 881 4594 1212 4672 
Q 1544 4750 1819 4750 
Q 2544 4750 2975 4387 
Q 3406 4025 3406 3419 
Q 3406 3131 3298 2873 
Q 3191 2616 2906 2266 
Q 2828 2175 2409 1742 
Q 1991 1309 1228 531 
z
" transform="scale(0.015625)"/>
       </defs>
       <use xlink:href="#DejaVuSans-32"/>
      </g>
     </g>
    </g>
    <g id="text_5">
     <!-- x -->
     <g style="fill: #262626" transform="translate(122.960625 175.316563) scale(0.1 -0.1)">
      <defs>
       <path id="DejaVuSans-78" d="M 3513 3500 
L 2247 1797 
L 3578 0 
L 2900 0 
L 1881 1375 
L 863 0 
L 184 0 
L 1544 1831 
L 300 3500 
L 978 3500 
L 1906 2253 
L 2834 3500 
L 3513 3500 
z
" transform="scale(0.015625)"/>
      </defs>
      <use xlink:href="#DejaVuSans-78"/>
     </g>
    </g>
   </g>
   <g id="matplotlib.axis_2">
    <g id="ytick_1">
     <g id="line2d_5">
      <path d="M 46.64 144.676008 
L 205.2 144.676008 
" clip-path="url(#pad91e54a15)" style="fill: none; stroke: #d3d3d3; stroke-width: 0.8; stroke-linecap: round"/>
     </g>
     <g id="text_6">
      <!-- −2 -->
      <g style="fill: #808080" transform="translate(24.897813 148.475227) scale(0.1 -0.1)">
       <use xlink:href="#DejaVuSans-2212"/>
       <use xlink:href="#DejaVuSans-32" x="83.789062"/>
      </g>
     </g>
    </g>
    <g id="ytick_2">
     <g id="line2d_6">
      <path d="M 46.64 109.004205 
L 205.2 109.004205 
" clip-path="url(#pad91e54a15)" style="fill: none; stroke: #d3d3d3; stroke-width: 0.8; stroke-linecap: round"/>
     </g>
     <g id="text_7">
      <!-- −1 -->
      <g style="fill: #808080" transform="translate(24.897813 112.803424) scale(0.1 -0.1)">
       <use xlink:href="#DejaVuSans-2212"/>
       <use xlink:href="#DejaVuSans-31" x="83.789062"/>
      </g>
     </g>
    </g>
    <g id="ytick_3">
     <g id="line2d_7">
      <path d="M 46.64 73.332403 
L 205.2 73.332403 
" clip-path="url(#pad91e54a15)" style="fill: none; stroke: #d3d3d3; stroke-width: 0.8; stroke-linecap: round"/>
     </g>
     <g id="text_8">
      <!-- 0 -->
      <g style="fill: #808080" transform="translate(33.2775 77.131621) scale(0.1 -0.1)">
       <use xlink:href="#DejaVuSans-30"/>
      </g>
     </g>
    </g>
    <g id="ytick_4">
     <g id="line2d_8">
      <path d="M 46.64 37.6606 
L 205.2 37.6606 
" clip-path="url(#pad91e54a15)" style="fill: none; stroke: #d3d3d3; stroke-width: 0.8; stroke-linecap: round"/>
     </g>
     <g id="text_9">
      <!-- 1 -->
      <g style="fill: #808080" transform="translate(33.2775 41.459819) scale(0.1 -0.1)">
       <use xlink:href="#DejaVuSans-31"/>
      </g>
     </g>
    </g>
    <g id="text_10">
     <!-- y -->
     <g style="fill: #262626" transform="translate(18.818125 81.879375) rotate(-90) scale(0.1 -0.1)">
      <defs>
       <path id="DejaVuSans-79" d="M 2059 -325 
Q 1816 -950 1584 -1140 
Q 1353 -1331 966 -1331 
L 506 -1331 
L 506 -850 
L 844 -850 
Q 1081 -850 1212 -737 
Q 1344 -625 1503 -206 
L 1606 56 
L 191 3500 
L 800 3500 
L 1894 763 
L 2988 3500 
L 3597 3500 
L 2059 -325 
z
" transform="scale(0.015625)"/>
      </defs>
      <use xlink:href="#DejaVuSans-79"/>
     </g>
    </g>
   </g>
   <g id="line2d_9">
    <path d="M 197.992727 73.332403 
L 194.389229 84.007809 
L 188.981745 99.472568 
L 185.98766 107.497003 
L 184.360345 111.498613 
L 182.610992 115.441668 
L 180.709694 119.276071 
L 178.62628 122.943287 
L 176.333113 126.37912 
L 173.808239 129.518686 
L 171.038401 132.303241 
L 168.02128 134.687761 
L 164.76632 136.647529 
L 161.293802 138.18193 
L 157.632271 139.314332 
L 153.814926 140.088108 
L 149.875809 140.560012 
L 145.846554 140.792598 
L 141.754175 140.847273 
L 133.459713 140.632398 
L 120.91026 139.990316 
L 112.532887 139.446181 
L 104.193001 138.657117 
L 100.062184 138.08922 
L 95.979231 137.354118 
L 91.966208 136.413685 
L 88.049176 135.23487 
L 84.256985 133.793478 
L 80.619558 132.077191 
L 77.165915 130.087254 
L 73.922227 127.838384 
L 70.910247 125.356909 
L 68.146297 122.677529 
L 65.640908 119.839356 
L 63.399003 116.882012 
L 61.420463 113.842366 
L 59.700867 110.75227 
L 58.232251 107.637355 
L 57.003804 104.516763 
L 56.002449 101.403559 
L 55.213358 98.305579 
L 54.620409 95.226469 
L 54.206635 92.166736 
L 53.95468 89.124712 
L 53.847273 86.097349 
L 53.867703 83.080849 
L 54.230784 77.064137 
L 54.938179 71.043804 
L 55.918292 64.996596 
L 57.140826 58.913344 
L 58.619632 52.808171 
L 60.410944 46.73179 
L 61.45118 43.734101 
L 62.605476 40.786937 
L 63.887776 37.913004 
L 65.311432 35.138661 
L 66.88806 32.492989 
L 68.626345 30.006263 
L 70.530908 27.707883 
L 72.601426 25.623956 
L 74.832177 23.774867 
L 77.212118 22.173237 
L 79.725543 20.822662 
L 82.353227 19.717465 
L 85.073858 18.843478 
L 87.865559 18.179665 
L 90.707245 17.700245 
L 93.579697 17.376952 
L 99.353151 17.085278 
L 105.087304 17.097266 
L 116.244291 17.457542 
L 134.5559 18.25162 
L 139.481278 18.661487 
L 144.236513 19.282742 
L 148.785949 20.191238 
L 153.086451 21.448032 
L 155.12899 22.219596 
L 157.092212 23.089653 
L 158.970876 24.058088 
L 160.76024 25.122926 
L 162.45618 26.280505 
L 164.055284 27.525714 
L 165.55491 28.852282 
L 166.953218 30.253098 
L 168.249174 31.72054 
L 169.442532 33.246771 
L 171.524183 36.444788 
L 173.210387 39.789358 
L 174.522875 43.231577 
L 175.490967 46.733213 
L 176.149566 50.266336 
L 176.537103 53.811764 
L 176.693452 57.357145 
L 176.65789 60.895171 
L 176.324181 66.181021 
L 175.746454 71.439783 
L 174.725362 78.416365 
L 173.494918 85.36134 
L 172.039038 92.258412 
L 170.733706 97.355017 
L 169.720752 100.680229 
L 168.562561 103.912349 
L 167.231329 107.012258 
L 165.700951 109.934308 
L 163.949974 112.629564 
L 161.964577 115.050774 
L 159.740986 117.158459 
L 157.286687 118.92687 
L 154.619979 120.348279 
L 151.767836 121.43437 
L 148.762545 122.214321 
L 145.637912 122.730233 
L 142.425867 123.031199 
L 137.502787 123.188483 
L 130.843181 123.073623 
L 120.811284 122.630965 
L 112.49089 122.083268 
L 107.558518 121.565089 
L 102.725993 120.782988 
L 99.595072 120.059118 
L 96.5681 119.137209 
L 93.675375 117.993293 
L 90.947945 116.612857 
L 88.415009 114.992739 
L 86.101272 113.141494 
L 84.024716 111.07818 
L 82.195153 108.829835 
L 80.613756 106.428249 
L 79.273532 103.906693 
L 78.16055 101.297144 
L 77.255628 98.628308 
L 76.53619 95.924482 
L 75.75188 91.84443 
L 75.250071 87.77469 
L 74.958728 83.741651 
L 74.799426 78.439478 
L 74.84852 71.93078 
L 75.121213 65.532909 
L 75.536123 60.489839 
L 76.010101 56.765856 
L 76.672634 53.119441 
L 77.574374 49.59251 
L 78.333594 47.335751 
L 79.23512 45.178391 
L 80.289691 43.142756 
L 81.504295 41.251347 
L 82.88126 39.525037 
L 84.417695 37.981121 
L 86.105417 36.631549 
L 87.93142 35.481623 
L 89.878838 34.529438 
L 91.928258 33.766137 
L 94.059174 33.176908 
L 97.364501 32.576562 
L 100.746683 32.249413 
L 105.292922 32.107867 
L 110.931426 32.190986 
L 130.186027 32.851761 
L 135.195456 33.190699 
L 139.048604 33.658088 
L 141.819215 34.174191 
L 144.461492 34.864864 
L 146.949769 35.752581 
L 149.258621 36.850842 
L 151.365184 38.16284 
L 153.25132 39.68144 
L 154.905278 41.390444 
L 156.322648 43.266805 
L 157.506496 45.28332 
L 158.466775 47.411275 
L 159.219171 49.622687 
L 159.78361 51.891933 
L 160.283003 54.969622 
L 160.544414 58.068767 
L 160.618417 61.927652 
L 160.456133 66.490643 
L 160.002271 72.420006 
L 159.166731 80.284222 
L 158.299247 86.480131 
L 157.544135 90.462277 
L 156.741785 93.6488 
L 155.728566 96.665903 
L 154.73433 98.918006 
L 153.555701 100.990616 
L 152.180609 102.851882 
L 151.018161 104.093028 
L 149.745642 105.192682 
L 148.36844 106.147017 
L 146.894612 106.956425 
L 144.796937 107.818736 
L 142.573104 108.453256 
L 140.251648 108.890052 
L 137.253106 109.211354 
L 133.569768 109.35829 
L 128.598727 109.315372 
L 120.519038 108.999448 
L 114.371682 108.57929 
L 110.159536 108.073008 
L 107.240504 107.527155 
L 104.438918 106.7734 
L 102.312845 105.992434 
L 100.315903 105.03656 
L 98.471497 103.898499 
L 96.799317 102.57979 
L 95.313212 101.090657 
L 94.019744 99.448716 
L 92.917693 97.676813 
L 91.99853 95.800485 
L 91.08415 93.347364 
L 90.395169 90.817385 
L 89.806719 87.733059 
L 89.359204 84.126579 
L 88.989195 79.036342 
L 88.703469 71.599014 
L 88.650146 65.328021 
L 88.835302 61.100708 
L 89.206243 57.924756 
L 89.746602 55.328869 
L 90.389342 53.292584 
L 91.23003 51.40645 
L 92.054171 50.027483 
L 93.015324 48.779999 
L 94.110541 47.675316 
L 95.332216 46.720273 
L 96.668676 45.916499 
L 98.47798 45.118347 
L 100.410852 44.532524 
L 102.84662 44.071563 
L 105.359929 43.821696 
L 108.75965 43.718123 
L 113.836316 43.820631 
L 132.136973 44.570644 
L 135.403245 44.992418 
L 137.802228 45.513069 
L 139.72784 46.126412 
L 141.505944 46.912392 
L 143.113083 47.879119 
L 144.530574 49.024643 
L 145.746759 50.337341 
L 146.758305 51.797622 
L 147.570354 53.380526 
L 148.195578 55.058625 
L 148.713739 57.100505 
L 149.070985 59.497511 
L 149.24039 62.219154 
L 149.217653 65.516513 
L 148.940055 70.169558 
L 148.210093 78.087564 
L 147.512292 83.672626 
L 146.87268 87.000021 
L 146.180358 89.439083 
L 145.450214 91.282696 
L 144.548737 92.957482 
L 143.592834 94.281899 
L 142.489442 95.435911 
L 141.244266 96.411221 
L 139.869666 97.207666 
L 138.190283 97.900276 
L 136.397912 98.399249 
L 134.096252 98.790207 
L 131.278576 99.019982 
L 127.52243 99.084491 
L 121.758525 98.941919 
L 116.500994 98.617552 
L 113.3021 98.221527 
L 110.843306 97.716135 
L 108.714056 97.053739 
L 106.920739 96.255873 
L 105.450899 95.365559 
L 104.138182 94.311168 
L 102.995288 93.101893 
L 102.026142 91.755384 
L 101.146507 90.12697 
L 100.396662 88.216213 
L 99.797045 86.040945 
L 99.315049 83.446564 
L 98.896705 79.915854 
L 98.389609 73.357444 
L 98.033926 66.632204 
L 98.075718 63.549502 
L 98.309969 61.254845 
L 98.706869 59.406749 
L 99.262741 57.848424 
L 99.943849 56.574337 
L 100.797315 55.459165 
L 101.817713 54.518313 
L 102.99014 53.757837 
L 104.292295 53.173546 
L 105.842705 52.717912 
L 107.786 52.394602 
L 110.110897 52.242265 
L 113.403132 52.27362 
L 126.787076 52.870953 
L 130.349384 53.158492 
L 132.663096 53.549755 
L 134.44583 54.05705 
L 135.952406 54.709705 
L 137.187884 55.482539 
L 138.24684 56.414671 
L 139.119594 57.493475 
L 139.806667 58.697388 
L 140.350926 60.102778 
L 140.753603 61.802435 
L 140.97967 63.77553 
L 141.02201 66.198744 
L 140.841244 69.421151 
L 140.227842 75.499051 
L 139.498818 81.133695 
L 138.943343 83.7177 
L 138.328149 85.552577 
L 137.614209 86.995081 
L 136.807315 88.140619 
L 135.846424 89.111796 
L 134.739511 89.902672 
L 133.439215 90.545176 
L 131.884436 91.050277 
L 130.008437 91.41645 
L 127.517438 91.657987 
L 123.951816 91.757002 
L 119.418809 91.665405 
L 116.335038 91.404052 
L 114.110802 91.002013 
L 112.371166 90.469317 
L 110.967656 89.820038 
L 109.769985 89.030088 
L 108.732141 88.076228 
L 107.863664 86.973829 
L 107.131759 85.687201 
L 106.498653 84.104983 
L 105.977018 82.172094 
L 105.524485 79.575565 
L 104.959751 74.736779 
L 104.286608 67.494692 
L 104.303082 65.167886 
L 104.525084 63.466798 
L 104.910143 62.135917 
L 105.444429 61.057079 
L 106.122578 60.179616 
L 106.95795 59.466716 
L 107.981617 58.900573 
L 109.181533 58.496092 
L 110.648655 58.238907 
L 112.539608 58.145621 
L 115.164872 58.261794 
L 127.185081 59.292878 
L 129.353994 59.671666 
L 130.849325 60.146635 
L 132.00945 60.741046 
L 132.922495 61.455635 
L 133.629353 62.283691 
L 134.176596 63.259441 
L 134.32805 63.629559 
L 134.32805 63.629559 
" clip-path="url(#pad91e54a15)" style="fill: none; stroke: #1f77b4; stroke-width: 1.5; stroke-linecap: round"/>
   </g>
   <g id="line2d_10">
    <path d="M 197.992727 73.332403 
L 197.033725 90.141863 
L 196.614658 95.586846 
L 196.06555 100.921867 
L 195.321056 106.110826 
L 194.310049 111.104921 
L 192.961653 115.844413 
L 191.212572 120.262778 
L 189.014867 124.293144 
L 186.342738 127.876269 
L 183.196681 130.968551 
L 179.603829 133.548297 
L 175.614189 135.618722 
L 171.293694 137.207073 
L 166.715764 138.360339 
L 161.953243 139.138855 
L 157.072101 139.60934 
L 152.12754 139.838662 
L 147.162424 139.889049 
L 137.283074 139.661272 
L 118.042055 138.799661 
L 104.126283 138.081302 
L 95.159051 137.370876 
L 90.814153 136.85881 
L 86.596626 136.193911 
L 82.540183 135.338596 
L 78.68304 134.257222 
L 75.065609 132.918999 
L 71.72743 131.300868 
L 68.703659 129.389925 
L 66.021616 127.184946 
L 63.697949 124.696676 
L 61.736927 121.946795 
L 60.130133 118.965702 
L 58.857549 115.789545 
L 57.889748 112.456993 
L 57.190737 109.006255 
L 56.720963 105.472684 
L 56.440093 101.887157 
L 56.309287 98.275225 
L 56.359499 91.047061 
L 56.818082 80.352262 
L 57.958172 59.758822 
L 58.478989 53.163288 
L 59.258963 46.776924 
L 59.798706 43.693596 
L 60.468159 40.705771 
L 61.289088 37.832953 
L 62.281299 35.096008 
L 63.461368 32.516116 
L 64.84146 30.113514 
L 66.42838 27.906165 
L 68.222977 25.908461 
L 70.220007 24.130155 
L 72.408487 22.57563 
L 74.772502 21.243606 
L 77.292359 20.127313 
L 79.945936 19.215073 
L 82.710071 18.491204 
L 85.561832 17.937095 
L 88.479569 17.532354 
L 94.437171 17.086785 
L 100.457905 16.992727 
L 109.438926 17.216823 
L 129.717584 18.145071 
L 140.815564 18.814551 
L 146.172461 19.335412 
L 151.331398 20.091216 
L 156.212361 21.174936 
L 158.518975 21.867391 
L 160.719523 22.672865 
L 162.801594 23.59869 
L 164.75361 24.650001 
L 166.565404 25.829433 
L 168.228751 27.136945 
L 169.737813 28.569798 
L 171.089452 30.122686 
L 172.28339 31.788015 
L 173.322188 33.556308 
L 174.211079 35.41668 
L 174.957655 37.357366 
L 175.571453 39.366236 
L 176.063489 41.431265 
L 176.730803 45.684563 
L 177.059308 50.036298 
L 177.144809 54.423818 
L 176.995517 60.982042 
L 176.355949 73.798525 
L 175.488627 88.149054 
L 174.882137 94.038831 
L 174.287827 97.823527 
L 173.477093 101.449191 
L 172.396049 104.867545 
L 170.998741 108.026297 
L 170.17085 109.492275 
L 169.253378 110.874895 
L 168.245379 112.169213 
L 167.147273 113.371212 
L 165.960844 114.47796 
L 164.689169 115.487727 
L 163.336511 116.40004 
L 161.90815 117.2157 
L 158.849334 118.566287 
L 155.567456 119.568475 
L 152.11995 120.264605 
L 148.560982 120.704759 
L 144.937316 120.941287 
L 139.459345 121.02255 
L 132.196905 120.836498 
L 114.632618 120.031578 
L 106.211625 119.530557 
L 101.323445 119.07251 
L 96.625134 118.389951 
L 93.638799 117.76192 
L 90.803211 116.962962 
L 88.14973 115.969279 
L 85.708932 114.763303 
L 83.507737 113.335644 
L 81.566604 111.686275 
L 79.897294 109.824657 
L 78.501607 107.768763 
L 77.371312 105.543152 
L 76.489219 103.176471 
L 75.831107 100.698825 
L 75.368116 98.139437 
L 74.97147 94.204105 
L 74.840775 90.216519 
L 74.924049 84.903739 
L 75.354568 75.77456 
L 76.241459 60.774973 
L 76.727241 56.007798 
L 77.264059 52.56129 
L 78.013199 49.270964 
L 78.658674 47.189129 
L 79.438337 45.215657 
L 80.363891 43.366828 
L 81.443209 41.657773 
L 82.679663 40.101373 
L 84.071783 38.707272 
L 85.613331 37.481107 
L 87.29377 36.424081 
L 89.09908 35.53291 
L 91.012801 34.800155 
L 93.017175 34.214848 
L 96.154577 33.582976 
L 99.398874 33.199154 
L 103.808844 32.978691 
L 109.343773 33.005264 
L 118.060242 33.344069 
L 134.724065 34.21318 
L 139.655412 34.68866 
L 143.430292 35.27073 
L 146.121495 35.872238 
L 148.657887 36.646938 
L 151.006497 37.618205 
L 153.136253 38.801623 
L 155.021492 40.202911 
L 156.645117 41.817018 
L 158.000761 43.628649 
L 159.093484 45.614155 
L 159.93894 47.744367 
L 160.561282 49.987776 
L 160.990345 52.313477 
L 161.318096 55.49457 
L 161.441721 59.526092 
L 161.339667 64.354068 
L 160.828881 74.555802 
L 160.159527 85.063559 
L 159.653093 89.351804 
L 159.149885 92.088904 
L 158.464033 94.689677 
L 157.556033 97.114732 
L 156.710295 98.793741 
L 155.713888 100.335208 
L 154.563778 101.725908 
L 153.262403 102.956408 
L 151.817505 104.021932 
L 150.241442 104.92276 
L 148.550095 105.664145 
L 146.147024 106.421869 
L 143.615798 106.945863 
L 140.998674 107.274749 
L 137.661343 107.473231 
L 132.958742 107.485747 
L 125.668936 107.220311 
L 110.490432 106.427638 
L 106.312988 106.011936 
L 102.898795 105.457832 
L 100.222598 104.798968 
L 98.225429 104.114262 
L 96.38224 103.272535 
L 94.714953 102.264565 
L 93.240927 101.0884 
L 91.970973 99.749702 
L 90.908111 98.261155 
L 90.047315 96.641025 
L 89.376222 94.911183 
L 88.775996 92.630097 
L 88.399854 90.25797 
L 88.177903 87.3448 
L 88.145018 83.428053 
L 88.368474 77.617639 
L 89.185004 63.75645 
L 89.633983 59.845572 
L 90.185873 56.953124 
L 90.859534 54.625006 
L 91.593104 52.82345 
L 92.501641 51.17392 
L 93.594329 49.698027 
L 94.871218 48.411944 
L 96.323083 47.324324 
L 97.932559 46.435221 
L 99.676315 45.736209 
L 101.527788 45.21161 
L 103.853729 44.782585 
L 106.657097 44.505762 
L 110.320263 44.401604 
L 115.188647 44.508983 
L 128.065224 45.110098 
L 133.608809 45.529795 
L 136.772739 45.965244 
L 139.42192 46.54529 
L 141.56724 47.245014 
L 143.245668 48.009498 
L 144.751583 48.936628 
L 146.067166 50.027929 
L 147.182168 51.276369 
L 148.095243 52.667236 
L 148.814011 54.180043 
L 149.427891 56.067341 
L 149.832532 58.049612 
L 150.089468 60.386145 
L 150.189028 63.351959 
L 150.09221 67.493069 
L 149.521079 78.318743 
L 149.122912 83.185386 
L 148.652523 86.268895 
L 148.11459 88.444671 
L 147.462516 90.242418 
L 146.620883 91.879126 
L 145.717535 93.156525 
L 144.656742 94.273964 
L 143.445214 95.222982 
L 142.096852 96.002414 
L 140.413275 96.693779 
L 138.609906 97.191259 
L 136.480595 97.55296 
L 133.794952 97.772572 
L 130.334568 97.815193 
L 124.717367 97.623103 
L 112.879737 96.982247 
L 109.421615 96.567652 
L 106.989017 96.065626 
L 105.113866 95.4766 
L 103.415927 94.705014 
L 102.066775 93.842609 
L 100.905853 92.820311 
L 99.94211 91.647219 
L 99.17432 90.340662 
L 98.591443 88.923642 
L 98.137346 87.250707 
L 97.815227 85.152831 
L 97.667053 82.643624 
L 97.702131 79.225681 
L 98.07559 71.706122 
L 98.532679 65.227558 
L 98.950682 62.414573 
L 99.465795 60.367337 
L 100.083371 58.751528 
L 100.814829 57.412764 
L 101.714645 56.233315 
L 102.781878 55.229107 
L 104.004954 54.407051 
L 105.363497 53.76398 
L 106.969415 53.251638 
L 108.959316 52.869164 
L 111.322195 52.653739 
L 114.469999 52.607582 
L 119.793807 52.796433 
L 129.878408 53.372003 
L 132.727031 53.760262 
L 134.890253 54.274696 
L 136.528366 54.88251 
L 137.886836 55.617939 
L 138.978336 56.452236 
L 139.89342 57.427754 
L 140.629307 58.531152 
L 141.229695 59.839503 
L 141.674172 61.346829 
L 141.971663 63.142265 
L 142.11632 65.423259 
L 142.078613 68.586346 
L 141.672646 76.478708 
L 141.306299 80.851429 
L 140.899827 83.181537 
L 140.389553 84.906367 
L 139.749977 86.311149 
L 138.96985 87.478444 
L 138.075438 88.415638 
L 137.033585 89.186346 
L 135.784641 89.823323 
L 134.334345 90.30724 
L 132.613969 90.646874 
L 130.46388 90.841713 
L 127.554354 90.870632 
L 122.02675 90.652954 
L 114.526394 90.195771 
L 111.963837 89.807458 
L 110.114488 89.305026 
L 108.715854 88.704566 
L 107.557229 87.964664 
L 106.634497 87.107715 
L 105.896094 86.113458 
L 105.313962 84.944248 
L 104.881427 83.551727 
L 104.604734 81.886512 
L 104.484642 79.709415 
L 104.558352 76.476579 
L 105.048608 68.133201 
L 105.395315 65.581365 
L 105.852957 63.814238 
L 106.428564 62.465078 
L 107.111173 61.411232 
L 107.92153 60.554923 
L 108.875797 59.86137 
L 110.050167 59.292428 
L 111.441524 58.87429 
L 113.137039 58.601514 
L 115.38581 58.480126 
L 118.78982 58.54831 
L 127.371977 59.009997 
L 129.845951 59.351863 
L 131.539083 59.79728 
L 132.846491 60.363761 
L 133.865937 61.04222 
L 134.675416 61.845449 
L 135.304733 62.779147 
L 135.538532 63.253183 
L 135.538532 63.253183 
" clip-path="url(#pad91e54a15)" style="fill: none; stroke: #ff7f0e; stroke-opacity: 0.5; stroke-width: 1.5; stroke-linecap: round"/>
   </g>
   <g id="patch_3">
    <path d="M 46.64 147.04 
L 46.64 10.8 
" style="fill: none; stroke: #ffffff; stroke-width: 0.8; stroke-linejoin: miter; stroke-linecap: square"/>
   </g>
   <g id="patch_4">
    <path d="M 205.2 147.04 
L 205.2 10.8 
" style="fill: none; stroke: #ffffff; stroke-width: 0.8; stroke-linejoin: miter; stroke-linecap: square"/>
   </g>
   <g id="patch_5">
    <path d="M 46.64 147.04 
L 205.2 147.04 
" style="fill: none; stroke: #ffffff; stroke-width: 0.8; stroke-linejoin: miter; stroke-linecap: square"/>
   </g>
   <g id="patch_6">
    <path d="M 46.64 10.8 
L 205.2 10.8 
" style="fill: none; stroke: #ffffff; stroke-width: 0.8; stroke-linejoin: miter; stroke-linecap: square"/>
   </g>
  </g>
 </g>
 <defs>
  <clipPath id="pad91e54a15">
   <rect x="46.64" y="10.8" width="158.56" height="136.24"/>
  </clipPath>
 </defs>
</svg>
