<?xml version="1.0" encoding="utf-8" standalone="no"?>
<!DOCTYPE svg PUBLIC "-//W3C//DTD SVG 1.1//EN"
  "http://www.w3.org/Graphics/SVG/1.1/DTD/svg11.dtd">
<svg xmlns:xlink="http://www.w3.org/1999/xlink" width="216pt" height="180pt" viewBox="0 0 216 180" xmlns="http://www.w3.org/2000/svg" version="1.1">
 <metadata>
  <rdf:RDF xmlns:dc="http://purl.org/dc/elements/1.1/" xmlns:cc="http://creativecommons.org/ns#" xmlns:rdf="http://www.w3.org/1999/02/22-rdf-syntax-ns#">
   <cc:Work>
    <dc:type rdf:resource="http://purl.org/dc/dcmitype/StillImage"/>
    <dc:date>2023-06-14T18:37:49.478200</dc:date>
    <dc:format>image/svg+xml</dc:format>
    <dc:creator>
     <cc:Agent>
      <dc:title>Matplotlib v3.7.0, https://matplotlib.org/</dc:title>
     </cc:Agent>
    </dc:creator>
   </cc:Work>
  </rdf:RDF>
 </metadata>
 <defs>
  <style type="text/css">*{stroke-linejoin: round; stroke-linecap: butt}</style>
 </defs>
 <g id="figure_1">
  <g id="patch_1">
   <path d="M 0 180 
L 216 180 
L 216 0 
L 0 0 
z
" style="fill: #ffffff"/>
  </g>
  <g id="axes_1">
   <g id="patch_2">
    <path d="M 46.64 147.04 
L 205.2 147.04 
L 205.2 10.8 
L 46.64 10.8 
L 46.64 147.04 
z
" style="fill: none"/>
   </g>
   <g id="matplotlib.axis_1">
    <g id="xtick_1">
     <g id="line2d_1">
      <path d="M 83.067973 147.04 
L 83.067973 10.8 
" clip-path="url(#pdf586b2fd7)" style="fill: none; stroke: #d3d3d3; stroke-width: 0.8; stroke-linecap: round"/>
     </g>
     <g id="text_1">
      <!-- −1 -->
      <g style="fill: #808080" transform="translate(75.696879 161.638438) scale(0.1 -0.1)">
       <defs>
        <path id="DejaVuSans-2212" d="M 678 2272 
L 4684 2272 
L 4684 1741 
L 678 1741 
L 678 2272 
z
" transform="scale(0.015625)"/>
        <path id="DejaVuSans-31" d="M 794 531 
L 1825 531 
L 1825 4091 
L 703 3866 
L 703 4441 
L 1819 4666 
L 2450 4666 
L 2450 531 
L 3481 531 
L 3481 0 
L 794 0 
L 794 531 
z
" transform="scale(0.015625)"/>
       </defs>
       <use xlink:href="#DejaVuSans-2212"/>
       <use xlink:href="#DejaVuSans-31" x="83.789062"/>
      </g>
     </g>
    </g>
    <g id="xtick_2">
     <g id="line2d_2">
      <path d="M 121.376224 147.04 
L 121.376224 10.8 
" clip-path="url(#pdf586b2fd7)" style="fill: none; stroke: #d3d3d3; stroke-width: 0.8; stroke-linecap: round"/>
     </g>
     <g id="text_2">
      <!-- 0 -->
      <g style="fill: #808080" transform="translate(118.194974 161.638438) scale(0.1 -0.1)">
       <defs>
        <path id="DejaVuSans-30" d="M 2034 4250 
Q 1547 4250 1301 3770 
Q 1056 3291 1056 2328 
Q 1056 1369 1301 889 
Q 1547 409 2034 409 
Q 2525 409 2770 889 
Q 3016 1369 3016 2328 
Q 3016 3291 2770 3770 
Q 2525 4250 2034 4250 
z
M 2034 4750 
Q 2819 4750 3233 4129 
Q 3647 3509 3647 2328 
Q 3647 1150 3233 529 
Q 2819 -91 2034 -91 
Q 1250 -91 836 529 
Q 422 1150 422 2328 
Q 422 3509 836 4129 
Q 1250 4750 2034 4750 
z
" transform="scale(0.015625)"/>
       </defs>
       <use xlink:href="#DejaVuSans-30"/>
      </g>
     </g>
    </g>
    <g id="xtick_3">
     <g id="line2d_3">
      <path d="M 159.684476 147.04 
L 159.684476 10.8 
" clip-path="url(#pdf586b2fd7)" style="fill: none; stroke: #d3d3d3; stroke-width: 0.8; stroke-linecap: round"/>
     </g>
     <g id="text_3">
      <!-- 1 -->
      <g style="fill: #808080" transform="translate(156.503226 161.638438) scale(0.1 -0.1)">
       <use xlink:href="#DejaVuSans-31"/>
      </g>
     </g>
    </g>
    <g id="xtick_4">
     <g id="line2d_4">
      <path d="M 197.992727 147.04 
L 197.992727 10.8 
" clip-path="url(#pdf586b2fd7)" style="fill: none; stroke: #d3d3d3; stroke-width: 0.8; stroke-linecap: round"/>
     </g>
     <g id="text_4">
      <!-- 2 -->
      <g style="fill: #808080" transform="translate(194.811477 161.638438) scale(0.1 -0.1)">
       <defs>
        <path id="DejaVuSans-32" d="M 1228 531 
L 3431 531 
L 3431 0 
L 469 0 
L 469 531 
Q 828 903 1448 1529 
Q 2069 2156 2228 2338 
Q 2531 2678 2651 2914 
Q 2772 3150 2772 3378 
Q 2772 3750 2511 3984 
Q 2250 4219 1831 4219 
Q 1534 4219 1204 4116 
Q 875 4013 500 3803 
L 500 4441 
Q 881 4594 1212 4672 
Q 1544 4750 1819 4750 
Q 2544 4750 2975 4387 
Q 3406 4025 3406 3419 
Q 3406 3131 3298 2873 
Q 3191 2616 2906 2266 
Q 2828 2175 2409 1742 
Q 1991 1309 1228 531 
z
" transform="scale(0.015625)"/>
       </defs>
       <use xlink:href="#DejaVuSans-32"/>
      </g>
     </g>
    </g>
    <g id="text_5">
     <!-- x -->
     <g style="fill: #262626" transform="translate(122.960625 175.316563) scale(0.1 -0.1)">
      <defs>
       <path id="DejaVuSans-78" d="M 3513 3500 
L 2247 1797 
L 3578 0 
L 2900 0 
L 1881 1375 
L 863 0 
L 184 0 
L 1544 1831 
L 300 3500 
L 978 3500 
L 1906 2253 
L 2834 3500 
L 3513 3500 
z
" transform="scale(0.015625)"/>
      </defs>
      <use xlink:href="#DejaVuSans-78"/>
     </g>
    </g>
   </g>
   <g id="matplotlib.axis_2">
    <g id="ytick_1">
     <g id="line2d_5">
      <path d="M 46.64 143.749826 
L 205.2 143.749826 
" clip-path="url(#pdf586b2fd7)" style="fill: none; stroke: #d3d3d3; stroke-width: 0.8; stroke-linecap: round"/>
     </g>
     <g id="text_6">
      <!-- −2 -->
      <g style="fill: #808080" transform="translate(24.897813 147.549045) scale(0.1 -0.1)">
       <use xlink:href="#DejaVuSans-2212"/>
       <use xlink:href="#DejaVuSans-32" x="83.789062"/>
      </g>
     </g>
    </g>
    <g id="ytick_2">
     <g id="line2d_6">
      <path d="M 46.64 108.336777 
L 205.2 108.336777 
" clip-path="url(#pdf586b2fd7)" style="fill: none; stroke: #d3d3d3; stroke-width: 0.8; stroke-linecap: round"/>
     </g>
     <g id="text_7">
      <!-- −1 -->
      <g style="fill: #808080" transform="translate(24.897813 112.135996) scale(0.1 -0.1)">
       <use xlink:href="#DejaVuSans-2212"/>
       <use xlink:href="#DejaVuSans-31" x="83.789062"/>
      </g>
     </g>
    </g>
    <g id="ytick_3">
     <g id="line2d_7">
      <path d="M 46.64 72.923729 
L 205.2 72.923729 
" clip-path="url(#pdf586b2fd7)" style="fill: none; stroke: #d3d3d3; stroke-width: 0.8; stroke-linecap: round"/>
     </g>
     <g id="text_8">
      <!-- 0 -->
      <g style="fill: #808080" transform="translate(33.2775 76.722948) scale(0.1 -0.1)">
       <use xlink:href="#DejaVuSans-30"/>
      </g>
     </g>
    </g>
    <g id="ytick_4">
     <g id="line2d_8">
      <path d="M 46.64 37.510681 
L 205.2 37.510681 
" clip-path="url(#pdf586b2fd7)" style="fill: none; stroke: #d3d3d3; stroke-width: 0.8; stroke-linecap: round"/>
     </g>
     <g id="text_9">
      <!-- 1 -->
      <g style="fill: #808080" transform="translate(33.2775 41.309899) scale(0.1 -0.1)">
       <use xlink:href="#DejaVuSans-31"/>
      </g>
     </g>
    </g>
    <g id="text_10">
     <!-- y -->
     <g style="fill: #262626" transform="translate(18.818125 81.879375) rotate(-90) scale(0.1 -0.1)">
      <defs>
       <path id="DejaVuSans-79" d="M 2059 -325 
Q 1816 -950 1584 -1140 
Q 1353 -1331 966 -1331 
L 506 -1331 
L 506 -850 
L 844 -850 
Q 1081 -850 1212 -737 
Q 1344 -625 1503 -206 
L 1606 56 
L 191 3500 
L 800 3500 
L 1894 763 
L 2988 3500 
L 3597 3500 
L 2059 -325 
z
" transform="scale(0.015625)"/>
      </defs>
      <use xlink:href="#DejaVuSans-79"/>
     </g>
    </g>
   </g>
   <g id="line2d_9">
    <path d="M 197.992727 72.923729 
L 195.723306 81.602595 
L 193.293493 90.007753 
L 190.57948 98.384935 
L 189.057683 102.595355 
L 187.390283 106.813647 
L 185.550266 111.016804 
L 183.512884 115.165749 
L 181.258035 119.205385 
L 178.772613 123.066969 
L 176.052382 126.673427 
L 173.102885 129.947532 
L 169.93908 132.821748 
L 166.583746 135.247647 
L 163.065018 137.202526 
L 159.413592 138.691606 
L 155.660112 139.745533 
L 151.833038 140.414336 
L 147.957128 140.759681 
L 144.05253 140.847273 
L 140.134406 140.740628 
L 132.293888 140.163584 
L 112.693626 138.131219 
L 100.752979 136.766744 
L 96.726631 136.181795 
L 92.689758 135.46897 
L 88.661978 134.581455 
L 84.673279 133.470014 
L 80.764563 132.087563 
L 76.986477 130.395109 
L 73.396034 128.368145 
L 70.051041 126.001998 
L 67.003222 123.314334 
L 64.291647 120.343666 
L 61.938224 117.143986 
L 59.946355 113.777029 
L 58.302749 110.304342 
L 56.981411 106.781005 
L 55.948477 103.251906 
L 55.166736 99.750477 
L 54.599194 96.29926 
L 54.211492 92.911484 
L 53.97329 89.593024 
L 53.847273 83.161989 
L 54.070734 76.97183 
L 54.559228 70.963491 
L 55.281843 65.076246 
L 56.249859 59.262273 
L 57.507336 53.498358 
L 59.122079 47.797678 
L 60.088468 44.988027 
L 61.174595 42.221365 
L 62.390033 39.514005 
L 63.743013 36.885503 
L 65.239769 34.358022 
L 66.883919 31.955303 
L 68.675955 29.701263 
L 70.61293 27.618331 
L 72.688395 25.725698 
L 74.892614 24.037719 
L 77.21306 22.562695 
L 79.635134 21.302239 
L 82.143018 20.25129 
L 84.72056 19.398751 
L 87.352104 18.728592 
L 90.023176 18.221246 
L 92.720997 17.855065 
L 98.155958 17.457146 
L 103.596521 17.365981 
L 111.712594 17.508569 
L 138.841185 18.281557 
L 144.369661 18.709306 
L 149.856229 19.477257 
L 152.547771 20.036873 
L 155.178702 20.737765 
L 157.725945 21.594702 
L 160.164891 22.617935 
L 162.470933 23.811893 
L 164.621238 25.174366 
L 166.596517 26.696368 
L 168.382513 28.362766 
L 169.970951 30.153583 
L 171.359842 32.045737 
L 172.553117 34.014926 
L 173.559763 36.03735 
L 174.392629 38.091082 
L 175.067146 40.156966 
L 175.600114 42.21908 
L 176.30953 46.284718 
L 176.649618 50.222662 
L 176.729105 54.005435 
L 176.538235 59.387388 
L 175.98001 66.099484 
L 175.081832 73.9885 
L 174.03008 81.616856 
L 172.981165 87.683359 
L 171.977216 92.242475 
L 170.698064 96.789459 
L 169.649781 99.785555 
L 168.416512 102.720451 
L 166.977425 105.555968 
L 165.317382 108.246989 
L 163.428981 110.744932 
L 161.313991 113.002721 
L 158.983766 114.980564 
L 156.458457 116.651302 
L 153.765092 118.00404 
L 150.934891 119.045158 
L 148.000347 119.796582 
L 144.992585 120.291979 
L 141.939345 120.57196 
L 137.32339 120.681415 
L 132.712462 120.537169 
L 125.118295 120.015496 
L 110.339108 118.707034 
L 104.560905 118.045958 
L 100.296362 117.388622 
L 96.129929 116.505419 
L 93.434751 115.749264 
L 90.831098 114.831733 
L 88.344359 113.733639 
L 86.001178 112.442147 
L 83.827196 110.952561 
L 81.844539 109.269222 
L 80.069525 107.405258 
L 78.511037 105.381158 
L 77.169878 103.22247 
L 76.03917 100.957108 
L 75.105608 98.612785 
L 74.35125 96.214976 
L 73.510242 92.564724 
L 72.953695 88.898445 
L 72.61481 85.251462 
L 72.407728 80.448325 
L 72.420327 74.550169 
L 72.662825 68.748899 
L 73.151288 63.019216 
L 73.782545 58.489923 
L 74.446015 55.143701 
L 75.314586 51.869828 
L 76.426618 48.707771 
L 77.320119 46.686625 
L 78.344497 44.75485 
L 79.504607 42.930326 
L 80.80202 41.230484 
L 82.234683 39.671032 
L 83.796855 38.264686 
L 85.47936 37.020082 
L 87.270125 35.941034 
L 89.154955 35.026263 
L 91.118426 34.269611 
L 93.14481 33.66068 
L 96.269404 32.993686 
L 99.455878 32.573421 
L 103.738921 32.297722 
L 109.070995 32.236608 
L 123.643221 32.474981 
L 135.939743 32.715232 
L 140.00081 32.995684 
L 143.9771 33.51915 
L 146.853653 34.131294 
L 149.58924 34.973082 
L 152.133544 36.070111 
L 153.699306 36.948569 
L 155.146025 37.942953 
L 156.46404 39.047499 
L 157.647033 40.253089 
L 158.692374 41.547964 
L 160.005555 43.627908 
L 161.029495 45.830221 
L 161.794071 48.109197 
L 162.336408 50.425721 
L 162.781797 53.521449 
L 162.990255 56.582572 
L 163.030253 60.324112 
L 162.825531 66.097352 
L 162.21118 75.778122 
L 161.588936 82.610872 
L 161.0097 86.724435 
L 160.316725 90.139799 
L 159.573782 92.833754 
L 158.623997 95.456219 
L 157.435653 97.961461 
L 156.37359 99.731618 
L 155.159071 101.382578 
L 153.791794 102.892195 
L 152.27656 104.241585 
L 150.623102 105.416978 
L 148.845414 106.411087 
L 146.960681 107.223729 
L 144.987964 107.861604 
L 142.254593 108.462707 
L 139.443642 108.817336 
L 135.878435 108.987309 
L 131.597883 108.912216 
L 125.982159 108.552604 
L 115.887117 107.629497 
L 108.862747 106.808307 
L 104.591693 106.091096 
L 101.671246 105.411662 
L 98.895572 104.543616 
L 96.805748 103.687677 
L 94.855428 102.67266 
L 93.065032 101.491319 
L 91.451555 100.144198 
L 90.026512 98.639667 
L 88.794541 96.992899 
L 87.752941 95.223998 
L 86.8922 93.355693 
L 86.047369 90.915574 
L 85.42448 88.397504 
L 84.913204 85.320505 
L 84.559178 81.706748 
L 84.359057 77.080153 
L 84.361573 71.495367 
L 84.57005 66.495081 
L 84.93404 62.56436 
L 85.467627 59.209275 
L 86.140889 56.435869 
L 86.888493 54.231255 
L 87.829191 52.157185 
L 88.977631 50.247334 
L 90.049569 48.859191 
L 91.255025 47.610109 
L 92.586601 46.509695 
L 94.032729 45.562658 
L 95.978677 44.593079 
L 98.047129 43.849312 
L 100.203678 43.308574 
L 102.862632 42.885679 
L 106.004418 42.632263 
L 110.026915 42.554498 
L 116.980259 42.69881 
L 129.361811 42.923656 
L 134.545046 43.117807 
L 138.02133 43.464303 
L 140.606771 43.934773 
L 142.698349 44.51893 
L 144.6369 45.294814 
L 146.110159 46.096928 
L 147.435891 47.040623 
L 148.602203 48.119063 
L 149.603526 49.319556 
L 150.441041 50.625103 
L 151.240709 52.303119 
L 151.837798 54.070544 
L 152.317165 56.204413 
L 152.640025 58.689868 
L 152.809785 61.808831 
L 152.802827 66.4381 
L 152.487563 76.749304 
L 152.168314 81.626371 
L 151.730187 84.977816 
L 151.145851 87.672558 
L 150.503335 89.699491 
L 149.664199 91.626448 
L 148.771699 93.167167 
L 147.711308 94.577529 
L 146.483069 95.83371 
L 145.094824 96.917341 
L 143.56167 97.817818 
L 141.904461 98.533525 
L 140.147654 99.071724 
L 138.006399 99.495299 
L 135.485797 99.750014 
L 132.615362 99.809716 
L 128.816594 99.63972 
L 123.614344 99.152784 
L 115.924312 98.196537 
L 110.961759 97.384238 
L 107.815282 96.660504 
L 105.34864 95.876668 
L 103.294173 94.99066 
L 101.622339 94.033506 
L 100.136635 92.918293 
L 98.848536 91.648556 
L 97.761291 90.236958 
L 96.86915 88.703193 
L 96.089497 86.884672 
L 95.456475 84.784256 
L 94.984107 82.419768 
L 94.630059 79.418214 
L 94.427255 75.619325 
L 94.408943 71.09739 
L 94.592624 67.08637 
L 94.949835 63.96614 
L 95.452703 61.529837 
L 96.078655 59.579939 
L 96.836513 57.940167 
L 97.689508 56.598432 
L 98.69966 55.418766 
L 99.858585 54.414404 
L 101.149582 53.590304 
L 102.694697 52.886907 
L 104.336637 52.37976 
L 106.353707 51.997985 
L 108.72081 51.78736 
L 111.693384 51.758513 
L 116.186 51.967729 
L 126.845429 52.514712 
L 131.636696 52.82305 
L 134.191042 53.208845 
L 136.130575 53.728164 
L 137.604425 54.34088 
L 138.826563 55.074684 
L 139.87632 55.963404 
L 140.745587 56.996996 
L 141.437096 58.156966 
L 142.022571 59.594615 
L 142.464446 61.313748 
L 142.762169 63.396718 
L 142.934995 66.313819 
L 142.991237 71.931284 
L 142.890422 78.231203 
L 142.620714 81.024257 
L 142.211062 83.052958 
L 141.662454 84.695228 
L 140.991906 86.038761 
L 140.193346 87.166079 
L 139.228918 88.139118 
L 138.108592 88.939733 
L 136.852554 89.560209 
L 135.394385 90.027808 
L 133.752704 90.323952 
L 131.758364 90.450032 
L 129.356232 90.363741 
L 126.443298 90.027529 
L 122.570352 89.345732 
L 117.910413 88.30391 
L 114.601765 87.35634 
L 112.389322 86.502222 
L 110.73174 85.633116 
L 109.407715 84.690554 
L 108.343558 83.660577 
L 107.485975 82.525737 
L 106.780401 81.222156 
L 106.222304 79.720787 
L 105.795206 77.912152 
L 105.513891 75.70466 
L 105.40787 73.054654 
L 105.518316 70.343622 
L 105.814023 68.217286 
L 106.255496 66.596613 
L 106.811497 65.369861 
L 107.476558 64.420159 
L 108.272463 63.670637 
L 109.198366 63.109181 
L 110.27434 62.72161 
L 111.541366 62.508385 
L 113.046483 62.490119 
L 114.836542 62.698899 
L 117.082858 63.197216 
L 118.588972 63.624857 
L 118.588972 63.624857 
" clip-path="url(#pdf586b2fd7)" style="fill: none; stroke: #1f77b4; stroke-width: 1.5; stroke-linecap: round"/>
   </g>
   <g id="line2d_10">
    <path d="M 197.992727 72.923729 
L 197.029157 89.611258 
L 196.608094 95.016744 
L 196.05637 100.313066 
L 195.30833 105.464386 
L 194.292508 110.422255 
L 192.937689 115.127368 
L 191.180276 119.513683 
L 188.972104 123.514814 
L 186.287247 127.071948 
L 183.126205 130.1418 
L 179.516239 132.702833 
L 175.507595 134.758239 
L 171.166521 136.335068 
L 166.566785 137.479969 
L 161.781579 138.252838 
L 156.877188 138.71991 
L 151.909075 138.947569 
L 146.920309 138.99759 
L 136.993901 138.771465 
L 112.949347 137.695059 
L 103.679177 137.202957 
L 94.669234 136.497684 
L 90.303639 135.989332 
L 86.066023 135.329256 
L 81.990259 134.480145 
L 78.114744 133.406615 
L 74.480082 132.078099 
L 71.126002 130.471706 
L 68.087829 128.574624 
L 65.393011 126.385639 
L 63.058276 123.915419 
L 61.087913 121.185485 
L 59.473465 118.226016 
L 58.19482 115.072898 
L 57.222409 111.76452 
L 56.520068 108.338813 
L 56.048057 104.830873 
L 55.765849 101.271354 
L 55.63442 97.685622 
L 55.684871 90.50989 
L 56.145638 79.892668 
L 57.291159 59.448608 
L 57.814456 52.900916 
L 58.598146 46.560877 
L 59.14046 43.499915 
L 59.813101 40.533762 
L 60.637941 37.681783 
L 61.634878 34.964692 
L 62.820567 32.403513 
L 64.207233 30.01834 
L 65.801712 27.827001 
L 67.604857 25.843788 
L 69.611399 24.078382 
L 71.810303 22.535133 
L 74.185579 21.212771 
L 76.717438 20.104575 
L 79.383655 19.198953 
L 82.160956 18.480334 
L 85.0263 17.930245 
L 87.957935 17.52844 
L 93.943915 17.086102 
L 99.993327 16.992727 
L 109.017126 17.215197 
L 129.392376 18.136712 
L 140.543217 18.801336 
L 145.92563 19.318418 
L 151.109141 20.06874 
L 156.013353 21.144599 
L 158.330953 21.832032 
L 160.541983 22.631663 
L 162.633971 23.550772 
L 164.595286 24.594457 
L 166.41571 25.765334 
L 168.086979 27.063362 
L 169.603229 28.485821 
L 170.961307 30.027445 
L 172.160931 31.680694 
L 173.204677 33.43616 
L 174.097803 35.283037 
L 174.847934 37.209646 
L 175.464656 39.203945 
L 175.959036 41.253994 
L 176.629528 45.47644 
L 176.959598 49.796608 
L 177.045506 54.152303 
L 176.895503 60.662955 
L 176.252889 73.38647 
L 175.381435 87.632904 
L 174.772056 93.479959 
L 174.174916 97.2372 
L 173.36032 100.836565 
L 172.274127 104.230124 
L 170.870163 107.365963 
L 170.038329 108.821306 
L 169.116487 110.193898 
L 168.103686 111.478827 
L 167.00035 112.672107 
L 165.808269 113.770827 
L 164.530538 114.773269 
L 163.171437 115.678965 
L 161.736272 116.488707 
L 158.662886 117.829498 
L 155.365376 118.824417 
L 151.901449 119.515497 
L 148.325528 119.952458 
L 144.684603 120.187271 
L 139.180539 120.267945 
L 131.883506 120.083242 
L 112.521643 119.198404 
L 104.120281 118.654156 
L 99.264563 118.135699 
L 94.625013 117.362259 
L 91.696304 116.65719 
L 88.934742 115.76999 
L 86.37179 114.679849 
L 84.036701 113.373184 
L 81.953606 111.845235 
L 80.138918 110.100737 
L 78.599536 108.153497 
L 77.332163 106.024911 
L 76.32383 103.741715 
L 75.553451 101.333391 
L 74.994048 98.829649 
L 74.615221 96.258348 
L 74.316908 92.327297 
L 74.253358 88.363657 
L 74.386655 83.100885 
L 74.975892 71.547327 
L 75.661533 60.457388 
L 76.149629 55.724793 
L 76.689004 52.303285 
L 77.441712 49.036826 
L 78.090261 46.970092 
L 78.873638 45.010935 
L 79.8036 43.175517 
L 80.88806 41.478859 
L 82.130403 39.933749 
L 83.529154 38.54976 
L 85.078045 37.33249 
L 86.766488 36.283131 
L 88.580397 35.398425 
L 90.503234 34.670984 
L 92.517155 34.089923 
L 95.669501 33.462634 
L 98.929251 33.081597 
L 103.360227 32.862733 
L 108.92152 32.889113 
L 117.679507 33.225461 
L 134.422703 34.088267 
L 139.377539 34.560298 
L 143.1704 35.138146 
L 145.874422 35.735291 
L 148.422895 36.504372 
L 150.782692 37.468593 
L 152.922593 38.643427 
L 154.816811 40.03455 
L 156.44817 41.636949 
L 157.810271 43.435439 
L 158.908199 45.406543 
L 159.757682 47.521302 
L 160.382988 49.748438 
L 160.814095 52.057269 
L 161.143407 55.215287 
L 161.267621 59.217566 
L 161.165081 64.010521 
L 160.651862 74.138254 
L 159.979319 84.56979 
L 159.470473 88.826929 
L 158.964869 91.544175 
L 158.27575 94.126083 
L 157.363424 96.533548 
L 156.513658 98.200378 
L 155.512505 99.730663 
L 154.356917 101.111275 
L 153.049343 102.33285 
L 151.597563 103.390644 
L 150.013992 104.284938 
L 148.314589 105.020945 
L 145.900073 105.773173 
L 143.35679 106.293366 
L 140.7272 106.619866 
L 137.373972 106.816908 
L 132.648972 106.829334 
L 125.324443 106.565823 
L 110.073641 105.7789 
L 105.876299 105.366213 
L 102.445843 104.816128 
L 99.756899 104.162044 
L 97.750217 103.482304 
L 95.898248 102.646683 
L 94.22302 101.646025 
L 92.741973 100.478391 
L 91.465969 99.149404 
L 90.398045 97.671654 
L 89.533149 96.063276 
L 88.858859 94.345982 
L 88.255775 92.081443 
L 87.877841 89.726523 
L 87.654833 86.834484 
L 87.621791 82.946148 
L 87.846311 77.177882 
L 88.66673 63.417238 
L 89.117848 59.534728 
L 89.672367 56.663261 
L 90.349236 54.352031 
L 91.086301 52.563543 
L 91.999166 50.925978 
L 93.097058 49.460792 
L 94.380029 48.184037 
L 95.83881 47.104306 
L 97.455952 46.221653 
L 99.208014 45.527711 
L 101.068306 45.006917 
L 103.405326 44.581005 
L 106.222046 44.30619 
L 109.902661 44.202787 
L 115.198276 44.324779 
L 128.865834 44.971201 
L 133.662909 45.361885 
L 136.823523 45.815941 
L 139.461856 46.418428 
L 141.590645 47.141166 
L 143.249678 47.926552 
L 144.731955 48.874246 
L 146.020699 49.984338 
L 147.107041 51.248486 
L 147.991164 52.650972 
L 148.682137 54.170737 
L 149.26663 56.060131 
L 149.646339 58.038501 
L 149.89812 60.65809 
L 149.957574 63.900424 
L 149.782673 68.867671 
L 149.075409 80.852834 
L 148.643504 84.511859 
L 148.140597 86.983847 
L 147.488707 89.058891 
L 146.716793 90.747256 
L 145.877012 92.079285 
L 144.878601 93.2581 
L 143.724891 94.272467 
L 142.426919 95.11806 
L 141.002034 95.797953 
L 139.24589 96.385103 
L 137.14888 96.83215 
L 134.723159 97.113051 
L 131.751496 97.232749 
L 127.540567 97.167254 
L 116.795181 96.683264 
L 111.368096 96.297309 
L 108.373022 95.88398 
L 105.973809 95.334334 
L 104.139328 94.697416 
L 102.648651 93.964899 
L 101.333834 93.073174 
L 100.210982 92.023926 
L 99.286872 90.828168 
L 98.557991 89.504607 
L 97.960922 87.912962 
L 97.529418 86.055355 
L 97.274247 83.950804 
L 97.178571 81.272614 
L 97.281848 77.358321 
L 97.866471 66.977704 
L 98.240774 63.461055 
L 98.7127 61.050175 
L 99.284341 59.232448 
L 99.997266 57.705298 
L 100.82393 56.460097 
L 101.820608 55.382664 
L 102.980403 54.48416 
L 104.286531 53.766007 
L 105.849966 53.17814 
L 107.666235 52.746299 
L 109.863114 52.464345 
L 112.715832 52.344774 
L 116.766944 52.423356 
L 127.517544 52.942927 
L 131.267381 53.309665 
L 133.646857 53.751201 
L 135.489014 54.304044 
L 136.940582 54.951846 
L 138.212555 55.765823 
L 139.214762 56.670717 
L 140.036958 57.709642 
L 140.724285 58.958648 
L 141.250123 60.415804 
L 141.605119 62.065358 
L 141.812315 64.096983 
L 141.851967 66.808062 
L 141.65932 71.404535 
L 141.094869 79.908862 
L 140.688962 82.432591 
L 140.175418 84.249502 
L 139.553239 85.661357 
L 138.790118 86.839614 
L 137.910739 87.790189 
L 136.881658 88.576157 
L 135.642725 89.229998 
L 134.198415 89.73095 
L 132.479219 90.087013 
L 130.324244 90.296892 
L 127.401287 90.337895 
L 122.104219 90.138937 
L 114.04821 89.65616 
L 111.554064 89.279278 
L 109.695906 88.780491 
L 108.29061 88.184386 
L 107.126466 87.449852 
L 106.199339 86.599119 
L 105.457418 85.612073 
L 104.872514 84.451345 
L 104.437919 83.068925 
L 104.159908 81.415789 
L 104.039244 79.254484 
L 104.113305 76.045098 
L 104.605897 67.76224 
L 104.954254 65.228915 
L 105.414076 63.474607 
L 105.992425 62.135233 
L 106.678286 61.089031 
L 107.492503 60.238934 
L 108.451315 59.550412 
L 109.631279 58.985597 
L 111.029263 58.570492 
L 112.787276 58.294131 
L 115.047815 58.178508 
L 118.521628 58.251295 
L 127.134426 58.714483 
L 129.612672 59.062703 
L 131.304678 59.515 
L 132.607573 60.087906 
L 133.620299 60.77149 
L 134.421592 61.578079 
L 135.041977 62.512895 
L 135.24105 62.917622 
L 135.24105 62.917622 
" clip-path="url(#pdf586b2fd7)" style="fill: none; stroke: #ff7f0e; stroke-opacity: 0.5; stroke-width: 1.5; stroke-linecap: round"/>
   </g>
   <g id="patch_3">
    <path d="M 46.64 147.04 
L 46.64 10.8 
" style="fill: none; stroke: #ffffff; stroke-width: 0.8; stroke-linejoin: miter; stroke-linecap: square"/>
   </g>
   <g id="patch_4">
    <path d="M 205.2 147.04 
L 205.2 10.8 
" style="fill: none; stroke: #ffffff; stroke-width: 0.8; stroke-linejoin: miter; stroke-linecap: square"/>
   </g>
   <g id="patch_5">
    <path d="M 46.64 147.04 
L 205.2 147.04 
" style="fill: none; stroke: #ffffff; stroke-width: 0.8; stroke-linejoin: miter; stroke-linecap: square"/>
   </g>
   <g id="patch_6">
    <path d="M 46.64 10.8 
L 205.2 10.8 
" style="fill: none; stroke: #ffffff; stroke-width: 0.8; stroke-linejoin: miter; stroke-linecap: square"/>
   </g>
  </g>
 </g>
 <defs>
  <clipPath id="pdf586b2fd7">
   <rect x="46.64" y="10.8" width="158.56" height="136.24"/>
  </clipPath>
 </defs>
</svg>
