<?xml version="1.0" encoding="utf-8" standalone="no"?>
<!DOCTYPE svg PUBLIC "-//W3C//DTD SVG 1.1//EN"
  "http://www.w3.org/Graphics/SVG/1.1/DTD/svg11.dtd">
<svg xmlns:xlink="http://www.w3.org/1999/xlink" width="216pt" height="180pt" viewBox="0 0 216 180" xmlns="http://www.w3.org/2000/svg" version="1.1">
 <metadata>
  <rdf:RDF xmlns:dc="http://purl.org/dc/elements/1.1/" xmlns:cc="http://creativecommons.org/ns#" xmlns:rdf="http://www.w3.org/1999/02/22-rdf-syntax-ns#">
   <cc:Work>
    <dc:type rdf:resource="http://purl.org/dc/dcmitype/StillImage"/>
    <dc:date>2023-06-14T18:40:58.377258</dc:date>
    <dc:format>image/svg+xml</dc:format>
    <dc:creator>
     <cc:Agent>
      <dc:title>Matplotlib v3.7.0, https://matplotlib.org/</dc:title>
     </cc:Agent>
    </dc:creator>
   </cc:Work>
  </rdf:RDF>
 </metadata>
 <defs>
  <style type="text/css">*{stroke-linejoin: round; stroke-linecap: butt}</style>
 </defs>
 <g id="figure_1">
  <g id="patch_1">
   <path d="M 0 180 
L 216 180 
L 216 0 
L 0 0 
z
" style="fill: #ffffff"/>
  </g>
  <g id="axes_1">
   <g id="patch_2">
    <path d="M 46.64 147.04 
L 205.2 147.04 
L 205.2 10.8 
L 46.64 10.8 
L 46.64 147.04 
z
" style="fill: none"/>
   </g>
   <g id="matplotlib.axis_1">
    <g id="xtick_1">
     <g id="line2d_1">
      <path d="M 83.720413 147.04 
L 83.720413 10.8 
" clip-path="url(#p14abdbcedc)" style="fill: none; stroke: #d3d3d3; stroke-width: 0.8; stroke-linecap: round"/>
     </g>
     <g id="text_1">
      <!-- −1 -->
      <g style="fill: #808080" transform="translate(76.349319 161.638438) scale(0.1 -0.1)">
       <defs>
        <path id="DejaVuSans-2212" d="M 678 2272 
L 4684 2272 
L 4684 1741 
L 678 1741 
L 678 2272 
z
" transform="scale(0.015625)"/>
        <path id="DejaVuSans-31" d="M 794 531 
L 1825 531 
L 1825 4091 
L 703 3866 
L 703 4441 
L 1819 4666 
L 2450 4666 
L 2450 531 
L 3481 531 
L 3481 0 
L 794 0 
L 794 531 
z
" transform="scale(0.015625)"/>
       </defs>
       <use xlink:href="#DejaVuSans-2212"/>
       <use xlink:href="#DejaVuSans-31" x="83.789062"/>
      </g>
     </g>
    </g>
    <g id="xtick_2">
     <g id="line2d_2">
      <path d="M 121.811184 147.04 
L 121.811184 10.8 
" clip-path="url(#p14abdbcedc)" style="fill: none; stroke: #d3d3d3; stroke-width: 0.8; stroke-linecap: round"/>
     </g>
     <g id="text_2">
      <!-- 0 -->
      <g style="fill: #808080" transform="translate(118.629934 161.638438) scale(0.1 -0.1)">
       <defs>
        <path id="DejaVuSans-30" d="M 2034 4250 
Q 1547 4250 1301 3770 
Q 1056 3291 1056 2328 
Q 1056 1369 1301 889 
Q 1547 409 2034 409 
Q 2525 409 2770 889 
Q 3016 1369 3016 2328 
Q 3016 3291 2770 3770 
Q 2525 4250 2034 4250 
z
M 2034 4750 
Q 2819 4750 3233 4129 
Q 3647 3509 3647 2328 
Q 3647 1150 3233 529 
Q 2819 -91 2034 -91 
Q 1250 -91 836 529 
Q 422 1150 422 2328 
Q 422 3509 836 4129 
Q 1250 4750 2034 4750 
z
" transform="scale(0.015625)"/>
       </defs>
       <use xlink:href="#DejaVuSans-30"/>
      </g>
     </g>
    </g>
    <g id="xtick_3">
     <g id="line2d_3">
      <path d="M 159.901956 147.04 
L 159.901956 10.8 
" clip-path="url(#p14abdbcedc)" style="fill: none; stroke: #d3d3d3; stroke-width: 0.8; stroke-linecap: round"/>
     </g>
     <g id="text_3">
      <!-- 1 -->
      <g style="fill: #808080" transform="translate(156.720706 161.638438) scale(0.1 -0.1)">
       <use xlink:href="#DejaVuSans-31"/>
      </g>
     </g>
    </g>
    <g id="xtick_4">
     <g id="line2d_4">
      <path d="M 197.992727 147.04 
L 197.992727 10.8 
" clip-path="url(#p14abdbcedc)" style="fill: none; stroke: #d3d3d3; stroke-width: 0.8; stroke-linecap: round"/>
     </g>
     <g id="text_4">
      <!-- 2 -->
      <g style="fill: #808080" transform="translate(194.811477 161.638438) scale(0.1 -0.1)">
       <defs>
        <path id="DejaVuSans-32" d="M 1228 531 
L 3431 531 
L 3431 0 
L 469 0 
L 469 531 
Q 828 903 1448 1529 
Q 2069 2156 2228 2338 
Q 2531 2678 2651 2914 
Q 2772 3150 2772 3378 
Q 2772 3750 2511 3984 
Q 2250 4219 1831 4219 
Q 1534 4219 1204 4116 
Q 875 4013 500 3803 
L 500 4441 
Q 881 4594 1212 4672 
Q 1544 4750 1819 4750 
Q 2544 4750 2975 4387 
Q 3406 4025 3406 3419 
Q 3406 3131 3298 2873 
Q 3191 2616 2906 2266 
Q 2828 2175 2409 1742 
Q 1991 1309 1228 531 
z
" transform="scale(0.015625)"/>
       </defs>
       <use xlink:href="#DejaVuSans-32"/>
      </g>
     </g>
    </g>
    <g id="text_5">
     <!-- x -->
     <g style="fill: #262626" transform="translate(122.960625 175.316563) scale(0.1 -0.1)">
      <defs>
       <path id="DejaVuSans-78" d="M 3513 3500 
L 2247 1797 
L 3578 0 
L 2900 0 
L 1881 1375 
L 863 0 
L 184 0 
L 1544 1831 
L 300 3500 
L 978 3500 
L 1906 2253 
L 2834 3500 
L 3513 3500 
z
" transform="scale(0.015625)"/>
      </defs>
      <use xlink:href="#DejaVuSans-78"/>
     </g>
    </g>
   </g>
   <g id="matplotlib.axis_2">
    <g id="ytick_1">
     <g id="line2d_5">
      <path d="M 46.64 145.084702 
L 205.2 145.084702 
" clip-path="url(#p14abdbcedc)" style="fill: none; stroke: #d3d3d3; stroke-width: 0.8; stroke-linecap: round"/>
     </g>
     <g id="text_6">
      <!-- −2 -->
      <g style="fill: #808080" transform="translate(24.897813 148.883921) scale(0.1 -0.1)">
       <use xlink:href="#DejaVuSans-2212"/>
       <use xlink:href="#DejaVuSans-32" x="83.789062"/>
      </g>
     </g>
    </g>
    <g id="ytick_2">
     <g id="line2d_6">
      <path d="M 46.64 109.29872 
L 205.2 109.29872 
" clip-path="url(#p14abdbcedc)" style="fill: none; stroke: #d3d3d3; stroke-width: 0.8; stroke-linecap: round"/>
     </g>
     <g id="text_7">
      <!-- −1 -->
      <g style="fill: #808080" transform="translate(24.897813 113.097939) scale(0.1 -0.1)">
       <use xlink:href="#DejaVuSans-2212"/>
       <use xlink:href="#DejaVuSans-31" x="83.789062"/>
      </g>
     </g>
    </g>
    <g id="ytick_3">
     <g id="line2d_7">
      <path d="M 46.64 73.512737 
L 205.2 73.512737 
" clip-path="url(#p14abdbcedc)" style="fill: none; stroke: #d3d3d3; stroke-width: 0.8; stroke-linecap: round"/>
     </g>
     <g id="text_8">
      <!-- 0 -->
      <g style="fill: #808080" transform="translate(33.2775 77.311956) scale(0.1 -0.1)">
       <use xlink:href="#DejaVuSans-30"/>
      </g>
     </g>
    </g>
    <g id="ytick_4">
     <g id="line2d_8">
      <path d="M 46.64 37.726755 
L 205.2 37.726755 
" clip-path="url(#p14abdbcedc)" style="fill: none; stroke: #d3d3d3; stroke-width: 0.8; stroke-linecap: round"/>
     </g>
     <g id="text_9">
      <!-- 1 -->
      <g style="fill: #808080" transform="translate(33.2775 41.525974) scale(0.1 -0.1)">
       <use xlink:href="#DejaVuSans-31"/>
      </g>
     </g>
    </g>
    <g id="text_10">
     <!-- y -->
     <g style="fill: #262626" transform="translate(18.818125 81.879375) rotate(-90) scale(0.1 -0.1)">
      <defs>
       <path id="DejaVuSans-79" d="M 2059 -325 
Q 1816 -950 1584 -1140 
Q 1353 -1331 966 -1331 
L 506 -1331 
L 506 -850 
L 844 -850 
Q 1081 -850 1212 -737 
Q 1344 -625 1503 -206 
L 1606 56 
L 191 3500 
L 800 3500 
L 1894 763 
L 2988 3500 
L 3597 3500 
L 2059 -325 
z
" transform="scale(0.015625)"/>
      </defs>
      <use xlink:href="#DejaVuSans-79"/>
     </g>
    </g>
   </g>
   <g id="line2d_9">
    <path d="M 197.992727 73.512737 
L 187.844103 104.710308 
L 186.251851 108.934122 
L 184.506242 113.133841 
L 182.57748 117.248296 
L 180.439536 121.205145 
L 178.073458 124.925646 
L 175.470251 128.332043 
L 172.632596 131.356529 
L 169.574864 133.949869 
L 166.321324 136.087511 
L 162.902947 137.771677 
L 159.353574 139.029164 
L 155.70627 139.905833 
L 151.990457 140.459483 
L 148.230084 140.752767 
L 144.442808 140.847273 
L 136.827129 140.656985 
L 121.432817 139.774279 
L 109.531455 139.039811 
L 101.332446 138.28553 
L 97.163721 137.712884 
L 92.97283 136.942379 
L 88.791909 135.921769 
L 84.665051 134.604676 
L 80.64664 132.957762 
L 76.797346 130.967277 
L 73.178096 128.64296 
L 69.843208 126.017685 
L 66.834358 123.142597 
L 64.176855 120.079094 
L 61.878888 116.890039 
L 59.933344 113.632454 
L 58.321236 110.352954 
L 57.015621 107.086035 
L 55.985196 103.854531 
L 55.197176 100.671335 
L 54.61935 97.541595 
L 54.221428 94.464855 
L 53.975842 91.436882 
L 53.847273 85.49959 
L 54.078031 79.665552 
L 54.564791 73.868327 
L 55.253871 68.049958 
L 56.138444 62.168738 
L 57.25587 56.208737 
L 58.683478 50.193409 
L 59.546581 47.187256 
L 60.529252 44.202437 
L 61.646677 41.259997 
L 62.912919 38.385439 
L 64.339701 35.607986 
L 65.935167 32.959221 
L 67.7028 30.471133 
L 69.640655 28.173732 
L 71.741103 26.092532 
L 73.991147 24.24632 
L 76.373309 22.645574 
L 78.866938 21.291803 
L 81.449736 20.177883 
L 84.099275 19.289233 
L 86.794297 18.605567 
L 89.515695 18.102871 
L 92.24712 17.755336 
L 97.689803 17.423105 
L 103.050758 17.420139 
L 110.876853 17.719078 
L 133.077978 18.970541 
L 137.842259 19.38719 
L 142.537007 19.983819 
L 147.125572 20.844221 
L 151.550429 22.046434 
L 153.678647 22.794845 
L 155.737136 23.647816 
L 157.715452 24.607121 
L 159.603472 25.671958 
L 161.391832 26.838984 
L 163.072342 28.102535 
L 164.638324 29.454989 
L 166.084861 30.887242 
L 167.408935 32.389233 
L 168.609447 33.950482 
L 169.687139 35.560571 
L 170.64444 37.20955 
L 172.214632 40.588459 
L 173.364076 44.026122 
L 174.147944 47.478821 
L 174.625357 50.918793 
L 174.85403 54.331052 
L 174.886793 57.709926 
L 174.667076 62.718249 
L 174.230573 67.671393 
L 173.229706 75.876348 
L 172.00266 84.115026 
L 170.806227 90.754504 
L 169.695976 95.723716 
L 168.8092 98.994678 
L 167.773531 102.19532 
L 166.562517 105.284378 
L 165.153259 108.213876 
L 163.529311 110.932712 
L 161.68319 113.391823 
L 159.617906 115.550152 
L 157.347045 117.380153 
L 154.893274 118.87149 
L 152.285588 120.031992 
L 149.555922 120.885792 
L 146.735851 121.469324 
L 143.853938 121.826319 
L 140.934008 122.002922 
L 136.521335 122.025787 
L 130.63042 121.798035 
L 112.982903 120.75748 
L 107.052829 120.258472 
L 102.611578 119.676238 
L 99.68013 119.130634 
L 96.798662 118.420968 
L 93.996711 117.517524 
L 91.308446 116.396921 
L 88.770181 115.045255 
L 86.417038 113.460227 
L 84.279294 111.65166 
L 82.379163 109.640169 
L 80.728664 107.454299 
L 79.328981 105.126847 
L 78.171261 102.691219 
L 77.238511 100.178483 
L 76.50805 97.615445 
L 75.954021 95.023742 
L 75.395371 91.116893 
L 75.088036 87.216756 
L 74.94535 82.053779 
L 75.029381 75.663526 
L 75.37543 68.052919 
L 75.899217 61.742602 
L 76.575566 56.748279 
L 77.308203 53.080436 
L 78.295191 49.535857 
L 79.120263 47.274444 
L 80.093746 45.12096 
L 81.224064 43.099178 
L 82.514746 41.23185 
L 83.963805 39.53879 
L 85.563662 38.035047 
L 87.301632 36.729495 
L 89.160953 35.624066 
L 91.122147 34.71377 
L 93.164527 33.987427 
L 95.267606 33.428955 
L 98.494791 32.863005 
L 101.761236 32.55927 
L 106.108565 32.441915 
L 111.451735 32.563225 
L 123.709283 33.170918 
L 132.459022 33.71322 
L 137.155762 34.20977 
L 140.787447 34.818627 
L 143.406648 35.445383 
L 145.907153 36.246984 
L 148.259714 37.242316 
L 150.435034 38.440996 
L 152.406829 39.842137 
L 154.154754 41.434614 
L 155.666608 43.19877 
L 156.939407 45.109127 
L 157.979209 47.137467 
L 158.799874 49.255648 
L 159.421148 51.437758 
L 159.980167 54.40866 
L 160.285949 57.412539 
L 160.399395 61.171308 
L 160.268182 65.648014 
L 159.838007 71.531795 
L 159.01268 79.479885 
L 158.13077 85.866628 
L 157.344956 90.021453 
L 156.496729 93.364007 
L 155.652071 95.915664 
L 154.632009 98.316546 
L 153.417165 100.524842 
L 152.371635 102.030534 
L 151.210298 103.391149 
L 149.936614 104.596107 
L 148.557535 105.639434 
L 147.082982 106.520294 
L 145.525056 107.242991 
L 143.341303 107.976615 
L 141.065394 108.476638 
L 138.727412 108.781507 
L 135.756162 108.950466 
L 131.569213 108.924756 
L 125.036752 108.611752 
L 111.075557 107.709991 
L 107.101096 107.209578 
L 104.337017 106.669151 
L 101.678478 105.919313 
L 99.65994 105.139093 
L 97.766662 104.180943 
L 96.024592 103.037012 
L 94.455939 101.708583 
L 93.076576 100.205905 
L 91.894252 98.546761 
L 90.90795 96.754098 
L 90.108481 94.85329 
L 89.347336 92.36347 
L 88.81292 89.78822 
L 88.408222 86.634745 
L 88.169789 82.921585 
L 88.090551 77.62091 
L 88.226416 70.787058 
L 88.544459 65.080929 
L 88.995718 61.026036 
L 89.531976 58.089764 
L 90.151529 55.752211 
L 90.958345 53.552572 
L 91.973634 51.529517 
L 92.943454 50.062892 
L 94.053072 48.748171 
L 95.296338 47.596161 
L 96.662037 46.611925 
L 98.134926 45.794325 
L 100.099441 44.995399 
L 102.166574 44.42095 
L 104.733029 43.981699 
L 107.780745 43.734731 
L 111.261855 43.686533 
L 116.795859 43.866181 
L 129.960073 44.575284 
L 134.058883 45.008985 
L 136.898278 45.519179 
L 139.242443 46.156793 
L 141.115708 46.873811 
L 142.835702 47.763815 
L 144.378566 48.832018 
L 145.725908 50.073657 
L 146.867206 51.47477 
L 147.801044 53.014279 
L 148.534938 54.666823 
L 149.083964 56.405698 
L 149.518335 58.509546 
L 149.788845 60.970153 
L 149.872642 63.761307 
L 149.739633 67.456456 
L 149.322202 72.262442 
L 148.574414 78.302174 
L 147.796806 82.927359 
L 147.078261 85.996645 
L 146.316948 88.381223 
L 145.472191 90.352229 
L 144.576994 91.935101 
L 143.538306 93.335375 
L 142.357067 94.53663 
L 141.042381 95.531113 
L 139.610294 96.321142 
L 138.081569 96.91885 
L 136.274647 97.386738 
L 134.195682 97.695801 
L 131.651964 97.847899 
L 128.039306 97.81419 
L 120.370861 97.436988 
L 113.412492 96.961674 
L 110.372837 96.532152 
L 108.028814 95.971445 
L 106.177804 95.297274 
L 104.634517 94.498871 
L 103.382354 93.619029 
L 102.276061 92.586219 
L 101.325027 91.408415 
L 100.452526 89.947671 
L 99.765784 88.352586 
L 99.203588 86.477675 
L 98.756875 84.148469 
L 98.461601 81.370627 
L 98.302524 77.603203 
L 98.320674 72.509525 
L 98.543073 67.866204 
L 98.889983 64.816301 
L 99.369189 62.432258 
L 99.964426 60.529577 
L 100.685723 58.938222 
L 101.498432 57.645549 
L 102.461567 56.518914 
L 103.566993 55.569448 
L 104.798723 54.799165 
L 106.273579 54.14991 
L 107.98864 53.6543 
L 109.924835 53.325695 
L 112.355178 53.142805 
L 115.68271 53.13447 
L 122.335685 53.402942 
L 129.291376 53.830243 
L 132.006845 54.216468 
L 134.065039 54.729117 
L 135.626226 55.332234 
L 136.926247 56.057815 
L 138.051174 56.944835 
L 138.925487 57.906454 
L 139.678486 59.073643 
L 140.240794 60.352291 
L 140.647945 61.812464 
L 140.897457 63.535328 
L 140.960194 65.59422 
L 140.799011 68.033597 
L 140.372699 70.944869 
L 139.662596 74.241511 
L 138.781004 77.317916 
L 137.898441 79.641623 
L 137.006464 81.395329 
L 136.060957 82.767668 
L 135.080699 83.808788 
L 134.007685 84.630453 
L 132.810161 85.267849 
L 131.453609 85.738407 
L 129.807729 86.063733 
L 127.748181 86.229751 
L 124.70414 86.225027 
L 117.041607 85.917 
L 114.642198 85.625783 
L 112.988846 85.211452 
L 111.694033 84.661897 
L 110.638923 83.971462 
L 109.782345 83.150137 
L 109.048027 82.136045 
L 108.43094 80.894751 
L 107.91972 79.34699 
L 107.518436 77.40038 
L 107.234277 74.870219 
L 107.133755 71.96631 
L 107.258306 69.448309 
L 107.568302 67.491012 
L 108.021799 65.977804 
L 108.620365 64.744174 
L 109.350466 63.754047 
L 110.20433 62.971048 
L 111.215983 62.347912 
L 112.437725 61.867186 
L 113.925806 61.534059 
L 115.799139 61.354746 
L 118.472288 61.341743 
L 123.714383 61.541533 
L 123.714383 61.541533 
" clip-path="url(#p14abdbcedc)" style="fill: none; stroke: #1f77b4; stroke-width: 1.5; stroke-linecap: round"/>
   </g>
   <g id="line2d_10">
    <path d="M 197.992727 73.512737 
L 197.034627 90.376002 
L 196.615955 95.838413 
L 196.067363 101.190511 
L 195.323569 106.396079 
L 194.313515 111.406159 
L 192.966387 116.160822 
L 191.218951 120.593329 
L 189.023315 124.636596 
L 186.3537 128.23119 
L 183.210604 131.33337 
L 179.621132 133.921373 
L 175.635246 135.998426 
L 171.318816 137.59186 
L 166.745194 138.748818 
L 161.987154 139.529826 
L 157.110605 140.001817 
L 152.170697 140.231873 
L 147.210252 140.282421 
L 137.340198 140.053915 
L 118.117284 139.189547 
L 104.214606 138.468888 
L 95.255812 137.756188 
L 90.915002 137.242483 
L 86.701444 136.575456 
L 82.648818 135.717403 
L 78.795304 134.632568 
L 75.181277 133.290061 
L 71.846239 131.66675 
L 68.825313 129.749691 
L 66.145794 127.537654 
L 63.824313 125.04142 
L 61.865136 122.282737 
L 60.259854 119.292101 
L 58.988468 116.105778 
L 58.021578 112.76256 
L 57.323223 109.300776 
L 56.853892 105.755895 
L 56.573286 102.158891 
L 56.442604 98.535397 
L 56.492768 91.284098 
L 56.950919 80.555066 
L 58.089937 59.89571 
L 58.610264 53.279064 
L 59.389504 46.872259 
L 59.928739 43.779061 
L 60.597562 40.781672 
L 61.417719 37.899659 
L 62.408996 35.153954 
L 63.587954 32.565804 
L 64.966748 30.155512 
L 66.552174 27.941097 
L 68.345083 25.936999 
L 70.340234 24.153001 
L 72.526655 22.5935 
L 74.888446 21.257212 
L 77.405931 20.137346 
L 80.057012 19.222187 
L 82.818546 18.496 
L 85.667623 17.940118 
L 88.582615 17.534082 
L 94.534611 17.087086 
L 100.54968 16.992727 
L 109.522251 17.21754 
L 129.781828 18.148759 
L 140.869364 18.820383 
L 146.221221 19.34291 
L 151.375304 20.101134 
L 156.251674 21.188323 
L 158.556118 21.882994 
L 160.754595 22.691046 
L 162.834707 23.619835 
L 164.784887 24.674511 
L 166.594976 25.857718 
L 168.256757 27.169415 
L 169.764399 28.606855 
L 171.114767 30.164713 
L 172.307581 31.835373 
L 173.345402 33.609325 
L 174.233457 35.475652 
L 174.97933 37.42255 
L 175.592551 39.437851 
L 176.084124 41.509489 
L 176.750809 45.776401 
L 177.079005 50.142065 
L 177.164426 54.54363 
L 177.015274 61.122845 
L 176.376308 73.980351 
L 175.509802 88.376814 
L 174.903883 94.285444 
L 174.310132 98.082253 
L 173.500161 101.719523 
L 172.420134 105.148819 
L 171.024141 108.317681 
L 170.197029 109.788351 
L 169.28042 111.175398 
L 168.273369 112.473858 
L 167.176297 113.679704 
L 165.990984 114.789996 
L 164.720506 115.802994 
L 163.369121 116.718228 
L 161.942104 117.536498 
L 158.886166 118.891408 
L 155.607376 119.896804 
L 152.163114 120.595162 
L 148.607494 121.036725 
L 144.987239 121.274011 
L 139.514422 121.355534 
L 132.258816 121.168886 
L 114.711055 120.361389 
L 106.297986 119.858765 
L 101.414406 119.399251 
L 96.720516 118.714508 
L 93.73699 118.084467 
L 90.90407 117.282951 
L 88.253086 116.286087 
L 85.814585 115.076251 
L 83.615461 113.644023 
L 81.676155 111.989374 
L 80.008415 110.121797 
L 78.614042 108.059323 
L 77.484811 105.826589 
L 76.603547 103.452331 
L 75.946054 100.966755 
L 75.483499 98.399175 
L 75.087226 94.451247 
L 74.956654 90.450897 
L 75.03985 85.121112 
L 75.469964 75.962711 
L 76.35602 60.915113 
L 76.841346 56.13268 
L 77.377658 52.67514 
L 78.126093 49.374282 
L 78.770961 47.285783 
L 79.54989 45.305994 
L 80.474573 43.451248 
L 81.552876 41.736722 
L 82.788166 40.17534 
L 84.178976 38.776777 
L 85.719074 37.546688 
L 87.397932 36.486278 
L 89.201543 35.592255 
L 91.113464 34.857154 
L 93.115952 34.269973 
L 96.250401 33.636079 
L 99.491645 33.251028 
L 103.897466 33.02986 
L 109.427187 33.056518 
L 118.135454 33.396407 
L 134.783597 34.2683 
L 139.710304 34.745302 
L 143.481632 35.329235 
L 146.170303 35.932668 
L 148.704308 36.709848 
L 151.050708 37.684224 
L 153.178461 38.87143 
L 155.061926 40.277203 
L 156.684023 41.896476 
L 158.038391 43.713906 
L 159.130086 45.705768 
L 159.974746 47.842798 
L 160.596503 50.093388 
L 161.025162 52.426533 
L 161.352605 55.617808 
L 161.476114 59.662235 
L 161.374155 64.505664 
L 160.86385 74.740052 
L 160.195126 85.281443 
L 159.689169 89.583414 
L 159.033882 92.995853 
L 158.296637 95.564709 
L 157.594081 97.37119 
L 156.749139 99.055574 
L 155.75367 100.601974 
L 154.604642 101.997125 
L 153.304492 103.231565 
L 151.860953 104.300499 
L 150.286373 105.20421 
L 148.596618 105.947968 
L 146.195808 106.708118 
L 143.666964 107.233789 
L 141.052303 107.563728 
L 137.718111 107.762845 
L 133.019935 107.775401 
L 125.736988 107.509116 
L 110.572767 106.713906 
L 106.399254 106.296873 
L 102.988273 105.740995 
L 100.314594 105.080022 
L 98.319305 104.393124 
L 96.47785 103.548704 
L 94.812132 102.537507 
L 93.339493 101.357577 
L 92.070733 100.014594 
L 91.008872 98.521282 
L 90.148885 96.895967 
L 89.478424 95.160587 
L 88.878763 92.872201 
L 88.502975 90.492481 
L 88.281233 87.569986 
L 88.248378 83.640702 
L 88.471624 77.81169 
L 89.287386 63.906134 
L 89.735943 59.982737 
L 90.287314 57.081031 
L 90.96034 54.745461 
L 91.69322 52.938138 
L 92.600903 51.283329 
L 93.692563 49.802712 
L 94.96825 48.512512 
L 96.418749 47.421411 
L 98.02671 46.529462 
L 99.768826 45.828212 
L 101.618556 45.301934 
L 103.942309 44.871536 
L 106.743038 44.593827 
L 110.402758 44.489336 
L 115.266561 44.597058 
L 128.131022 45.200097 
L 133.669391 45.621138 
L 136.830344 46.057981 
L 139.477032 46.639883 
L 141.620333 47.341847 
L 143.297182 48.108778 
L 144.80168 49.038875 
L 146.116025 50.133669 
L 147.229978 51.386106 
L 148.142194 52.781425 
L 148.860285 54.299073 
L 149.473588 56.192413 
L 149.877848 58.181028 
L 150.134542 60.525041 
L 150.234008 63.500347 
L 150.137282 67.654712 
L 149.566688 78.515038 
L 149.168896 83.397258 
L 148.69895 86.490637 
L 148.161523 88.673378 
L 147.510062 90.476879 
L 146.669221 92.118826 
L 145.766723 93.400314 
L 144.706928 94.52133 
L 143.496541 95.473385 
L 142.149447 96.255312 
L 140.467455 96.94889 
L 138.665782 97.447962 
L 136.538475 97.810821 
L 133.855359 98.031135 
L 130.398231 98.073893 
L 124.786315 97.881188 
L 112.959823 97.238281 
L 109.504956 96.822359 
L 107.074647 96.318727 
L 105.20126 95.727815 
L 103.504918 94.953759 
L 102.157036 94.088594 
L 100.997206 93.063024 
L 100.03437 91.886177 
L 99.267303 90.575438 
L 98.684974 89.153882 
L 98.231304 87.475592 
L 97.909488 85.371001 
L 97.761454 82.853763 
L 97.796499 79.424879 
L 98.169606 71.881251 
L 98.626265 65.38195 
L 99.043875 62.559961 
L 99.558504 60.506173 
L 100.175498 58.885191 
L 100.906268 57.542143 
L 101.805237 56.358918 
L 102.871466 55.351496 
L 104.093391 54.526809 
L 105.450656 53.881679 
L 107.055063 53.367697 
L 109.043092 52.983999 
L 111.403747 52.767884 
L 114.548589 52.72158 
L 119.867388 52.911035 
L 129.9425 53.488447 
L 132.788443 53.877949 
L 134.949629 54.394029 
L 136.5862 55.003789 
L 137.943393 55.741572 
L 139.033865 56.57854 
L 139.948089 57.557181 
L 140.683283 58.66411 
L 141.283106 59.976649 
L 141.727165 61.4888 
L 142.024376 63.289983 
L 142.168897 65.578277 
L 142.127178 68.860195 
L 141.701374 77.07737 
L 141.347222 81.152141 
L 140.932466 83.483322 
L 140.413008 85.206079 
L 139.763775 86.606477 
L 138.974057 87.767578 
L 138.07094 88.697516 
L 137.021353 89.460157 
L 135.7658 90.088382 
L 134.310637 90.563591 
L 132.499159 90.906842 
L 130.255559 91.089932 
L 127.167707 91.097143 
L 120.624543 90.819429 
L 114.524772 90.421377 
L 112.044786 90.040526 
L 110.197176 89.536486 
L 108.799859 88.934104 
L 107.642323 88.191835 
L 106.72046 87.332143 
L 105.982751 86.334702 
L 105.401167 85.16175 
L 104.96904 83.764772 
L 104.692607 82.094227 
L 104.572628 79.910162 
L 104.646269 76.666977 
L 105.136064 68.296893 
L 105.482444 65.73689 
L 105.939655 63.964107 
L 106.514721 62.610628 
L 107.196688 61.553408 
L 108.006282 60.694359 
L 108.959651 59.998586 
L 110.132916 59.427823 
L 111.522964 59.008346 
L 113.216883 58.734697 
L 115.463538 58.612921 
L 118.864345 58.681323 
L 127.389216 59.139893 
L 129.864531 59.47847 
L 131.560574 59.920256 
L 132.872039 60.483252 
L 133.896248 61.158805 
L 134.710943 61.959939 
L 135.345613 62.8926 
L 135.597298 63.401256 
L 135.597298 63.401256 
" clip-path="url(#p14abdbcedc)" style="fill: none; stroke: #ff7f0e; stroke-opacity: 0.5; stroke-width: 1.5; stroke-linecap: round"/>
   </g>
   <g id="patch_3">
    <path d="M 46.64 147.04 
L 46.64 10.8 
" style="fill: none; stroke: #ffffff; stroke-width: 0.8; stroke-linejoin: miter; stroke-linecap: square"/>
   </g>
   <g id="patch_4">
    <path d="M 205.2 147.04 
L 205.2 10.8 
" style="fill: none; stroke: #ffffff; stroke-width: 0.8; stroke-linejoin: miter; stroke-linecap: square"/>
   </g>
   <g id="patch_5">
    <path d="M 46.64 147.04 
L 205.2 147.04 
" style="fill: none; stroke: #ffffff; stroke-width: 0.8; stroke-linejoin: miter; stroke-linecap: square"/>
   </g>
   <g id="patch_6">
    <path d="M 46.64 10.8 
L 205.2 10.8 
" style="fill: none; stroke: #ffffff; stroke-width: 0.8; stroke-linejoin: miter; stroke-linecap: square"/>
   </g>
  </g>
 </g>
 <defs>
  <clipPath id="p14abdbcedc">
   <rect x="46.64" y="10.8" width="158.56" height="136.24"/>
  </clipPath>
 </defs>
</svg>
