<?xml version="1.0" encoding="utf-8" standalone="no"?>
<!DOCTYPE svg PUBLIC "-//W3C//DTD SVG 1.1//EN"
  "http://www.w3.org/Graphics/SVG/1.1/DTD/svg11.dtd">
<svg xmlns:xlink="http://www.w3.org/1999/xlink" width="216pt" height="180pt" viewBox="0 0 216 180" xmlns="http://www.w3.org/2000/svg" version="1.1">
 <metadata>
  <rdf:RDF xmlns:dc="http://purl.org/dc/elements/1.1/" xmlns:cc="http://creativecommons.org/ns#" xmlns:rdf="http://www.w3.org/1999/02/22-rdf-syntax-ns#">
   <cc:Work>
    <dc:type rdf:resource="http://purl.org/dc/dcmitype/StillImage"/>
    <dc:date>2023-06-14T18:34:41.230442</dc:date>
    <dc:format>image/svg+xml</dc:format>
    <dc:creator>
     <cc:Agent>
      <dc:title>Matplotlib v3.7.0, https://matplotlib.org/</dc:title>
     </cc:Agent>
    </dc:creator>
   </cc:Work>
  </rdf:RDF>
 </metadata>
 <defs>
  <style type="text/css">*{stroke-linejoin: round; stroke-linecap: butt}</style>
 </defs>
 <g id="figure_1">
  <g id="patch_1">
   <path d="M 0 180 
L 216 180 
L 216 0 
L 0 0 
z
" style="fill: #ffffff"/>
  </g>
  <g id="axes_1">
   <g id="patch_2">
    <path d="M 46.64 147.04 
L 205.2 147.04 
L 205.2 12.560836 
L 46.64 12.560836 
L 46.64 147.04 
z
" style="fill: none"/>
   </g>
   <g id="matplotlib.axis_1">
    <g id="xtick_1">
     <g id="line2d_1">
      <path d="M 81.638693 147.04 
L 81.638693 12.560836 
" clip-path="url(#pc1021c88ae)" style="fill: none; stroke: #d3d3d3; stroke-width: 0.8; stroke-linecap: round"/>
     </g>
     <g id="text_1">
      <!-- −1 -->
      <g style="fill: #808080" transform="translate(74.2676 161.638438) scale(0.1 -0.1)">
       <defs>
        <path id="DejaVuSans-2212" d="M 678 2272 
L 4684 2272 
L 4684 1741 
L 678 1741 
L 678 2272 
z
" transform="scale(0.015625)"/>
        <path id="DejaVuSans-31" d="M 794 531 
L 1825 531 
L 1825 4091 
L 703 3866 
L 703 4441 
L 1819 4666 
L 2450 4666 
L 2450 531 
L 3481 531 
L 3481 0 
L 794 0 
L 794 531 
z
" transform="scale(0.015625)"/>
       </defs>
       <use xlink:href="#DejaVuSans-2212"/>
       <use xlink:href="#DejaVuSans-31" x="83.789062"/>
      </g>
     </g>
    </g>
    <g id="xtick_2">
     <g id="line2d_2">
      <path d="M 120.423371 147.04 
L 120.423371 12.560836 
" clip-path="url(#pc1021c88ae)" style="fill: none; stroke: #d3d3d3; stroke-width: 0.8; stroke-linecap: round"/>
     </g>
     <g id="text_2">
      <!-- 0 -->
      <g style="fill: #808080" transform="translate(117.242121 161.638438) scale(0.1 -0.1)">
       <defs>
        <path id="DejaVuSans-30" d="M 2034 4250 
Q 1547 4250 1301 3770 
Q 1056 3291 1056 2328 
Q 1056 1369 1301 889 
Q 1547 409 2034 409 
Q 2525 409 2770 889 
Q 3016 1369 3016 2328 
Q 3016 3291 2770 3770 
Q 2525 4250 2034 4250 
z
M 2034 4750 
Q 2819 4750 3233 4129 
Q 3647 3509 3647 2328 
Q 3647 1150 3233 529 
Q 2819 -91 2034 -91 
Q 1250 -91 836 529 
Q 422 1150 422 2328 
Q 422 3509 836 4129 
Q 1250 4750 2034 4750 
z
" transform="scale(0.015625)"/>
       </defs>
       <use xlink:href="#DejaVuSans-30"/>
      </g>
     </g>
    </g>
    <g id="xtick_3">
     <g id="line2d_3">
      <path d="M 159.208049 147.04 
L 159.208049 12.560836 
" clip-path="url(#pc1021c88ae)" style="fill: none; stroke: #d3d3d3; stroke-width: 0.8; stroke-linecap: round"/>
     </g>
     <g id="text_3">
      <!-- 1 -->
      <g style="fill: #808080" transform="translate(156.026799 161.638438) scale(0.1 -0.1)">
       <use xlink:href="#DejaVuSans-31"/>
      </g>
     </g>
    </g>
    <g id="xtick_4">
     <g id="line2d_4">
      <path d="M 197.992727 147.04 
L 197.992727 12.560836 
" clip-path="url(#pc1021c88ae)" style="fill: none; stroke: #d3d3d3; stroke-width: 0.8; stroke-linecap: round"/>
     </g>
     <g id="text_4">
      <!-- 2 -->
      <g style="fill: #808080" transform="translate(194.811477 161.638438) scale(0.1 -0.1)">
       <defs>
        <path id="DejaVuSans-32" d="M 1228 531 
L 3431 531 
L 3431 0 
L 469 0 
L 469 531 
Q 828 903 1448 1529 
Q 2069 2156 2228 2338 
Q 2531 2678 2651 2914 
Q 2772 3150 2772 3378 
Q 2772 3750 2511 3984 
Q 2250 4219 1831 4219 
Q 1534 4219 1204 4116 
Q 875 4013 500 3803 
L 500 4441 
Q 881 4594 1212 4672 
Q 1544 4750 1819 4750 
Q 2544 4750 2975 4387 
Q 3406 4025 3406 3419 
Q 3406 3131 3298 2873 
Q 3191 2616 2906 2266 
Q 2828 2175 2409 1742 
Q 1991 1309 1228 531 
z
" transform="scale(0.015625)"/>
       </defs>
       <use xlink:href="#DejaVuSans-32"/>
      </g>
     </g>
    </g>
    <g id="text_5">
     <!-- x -->
     <g style="fill: #262626" transform="translate(122.960625 175.316563) scale(0.1 -0.1)">
      <defs>
       <path id="DejaVuSans-78" d="M 3513 3500 
L 2247 1797 
L 3578 0 
L 2900 0 
L 1881 1375 
L 863 0 
L 184 0 
L 1544 1831 
L 300 3500 
L 978 3500 
L 1906 2253 
L 2834 3500 
L 3513 3500 
z
" transform="scale(0.015625)"/>
      </defs>
      <use xlink:href="#DejaVuSans-78"/>
     </g>
    </g>
   </g>
   <g id="matplotlib.axis_2">
    <g id="ytick_1">
     <g id="line2d_5">
      <path d="M 46.64 139.436771 
L 205.2 139.436771 
" clip-path="url(#pc1021c88ae)" style="fill: none; stroke: #d3d3d3; stroke-width: 0.8; stroke-linecap: round"/>
     </g>
     <g id="text_6">
      <!-- −2 -->
      <g style="fill: #808080" transform="translate(24.897813 143.23599) scale(0.1 -0.1)">
       <use xlink:href="#DejaVuSans-2212"/>
       <use xlink:href="#DejaVuSans-32" x="83.789062"/>
      </g>
     </g>
    </g>
    <g id="ytick_2">
     <g id="line2d_6">
      <path d="M 46.64 108.251232 
L 205.2 108.251232 
" clip-path="url(#pc1021c88ae)" style="fill: none; stroke: #d3d3d3; stroke-width: 0.8; stroke-linecap: round"/>
     </g>
     <g id="text_7">
      <!-- −1 -->
      <g style="fill: #808080" transform="translate(24.897813 112.050451) scale(0.1 -0.1)">
       <use xlink:href="#DejaVuSans-2212"/>
       <use xlink:href="#DejaVuSans-31" x="83.789062"/>
      </g>
     </g>
    </g>
    <g id="ytick_3">
     <g id="line2d_7">
      <path d="M 46.64 77.065693 
L 205.2 77.065693 
" clip-path="url(#pc1021c88ae)" style="fill: none; stroke: #d3d3d3; stroke-width: 0.8; stroke-linecap: round"/>
     </g>
     <g id="text_8">
      <!-- 0 -->
      <g style="fill: #808080" transform="translate(33.2775 80.864912) scale(0.1 -0.1)">
       <use xlink:href="#DejaVuSans-30"/>
      </g>
     </g>
    </g>
    <g id="ytick_4">
     <g id="line2d_8">
      <path d="M 46.64 45.880154 
L 205.2 45.880154 
" clip-path="url(#pc1021c88ae)" style="fill: none; stroke: #d3d3d3; stroke-width: 0.8; stroke-linecap: round"/>
     </g>
     <g id="text_9">
      <!-- 1 -->
      <g style="fill: #808080" transform="translate(33.2775 49.679373) scale(0.1 -0.1)">
       <use xlink:href="#DejaVuSans-31"/>
      </g>
     </g>
    </g>
    <g id="ytick_5">
     <g id="line2d_9">
      <path d="M 46.64 14.694615 
L 205.2 14.694615 
" clip-path="url(#pc1021c88ae)" style="fill: none; stroke: #d3d3d3; stroke-width: 0.8; stroke-linecap: round"/>
     </g>
     <g id="text_10">
      <!-- 2 -->
      <g style="fill: #808080" transform="translate(33.2775 18.493834) scale(0.1 -0.1)">
       <use xlink:href="#DejaVuSans-32"/>
      </g>
     </g>
    </g>
    <g id="text_11">
     <!-- y -->
     <g style="fill: #262626" transform="translate(18.818125 82.759793) rotate(-90) scale(0.1 -0.1)">
      <defs>
       <path id="DejaVuSans-79" d="M 2059 -325 
Q 1816 -950 1584 -1140 
Q 1353 -1331 966 -1331 
L 506 -1331 
L 506 -850 
L 844 -850 
Q 1081 -850 1212 -737 
Q 1344 -625 1503 -206 
L 1606 56 
L 191 3500 
L 800 3500 
L 1894 763 
L 2988 3500 
L 3597 3500 
L 2059 -325 
z
" transform="scale(0.015625)"/>
      </defs>
      <use xlink:href="#DejaVuSans-79"/>
     </g>
    </g>
   </g>
   <g id="line2d_10">
    <path d="M 197.992727 77.065693 
L 195.249231 84.948503 
L 188.358957 105.59534 
L 187.124103 108.718895 
L 185.791892 111.764023 
L 184.334471 114.730056 
L 182.723513 117.613884 
L 180.930157 120.409739 
L 178.925045 123.108897 
L 176.678525 125.699336 
L 174.161118 128.165428 
L 171.344357 130.487747 
L 168.202096 132.643166 
L 164.712378 134.605411 
L 160.859825 136.346282 
L 156.638408 137.837651 
L 152.054187 139.054196 
L 147.127484 139.97654 
L 141.893802 140.594172 
L 136.402991 140.907349 
L 130.71655 140.927311 
L 124.903479 140.674544 
L 119.035579 140.175497 
L 113.183185 139.458576 
L 107.41208 138.55042 
L 101.781871 137.473237 
L 96.34561 136.243515 
L 91.150161 134.872071 
L 86.23677 133.365088 
L 81.641359 131.725718 
L 77.394337 129.955845 
L 73.519916 128.057687 
L 70.035109 126.035006 
L 66.948724 123.893838 
L 64.260669 121.642698 
L 61.961814 119.29235 
L 60.03453 116.855241 
L 58.453865 114.344756 
L 57.189181 111.774435 
L 56.206046 109.157253 
L 55.46813 106.505059 
L 54.938918 103.828187 
L 54.583134 101.135251 
L 54.26308 95.726856 
L 54.28355 90.315163 
L 54.606264 82.218126 
L 55.495203 66.055792 
L 55.929807 60.668203 
L 56.585793 55.300728 
L 57.041801 52.635062 
L 57.610794 49.98956 
L 58.315136 47.371986 
L 59.177929 44.791479 
L 60.22245 42.258537 
L 61.471507 39.784957 
L 62.946724 37.383728 
L 64.66776 35.068865 
L 66.65148 32.855174 
L 68.911101 30.757933 
L 71.455333 28.792484 
L 74.28759 26.973729 
L 77.405316 25.315534 
L 80.799517 23.830073 
L 84.454581 22.527175 
L 88.348471 21.413723 
L 92.45331 20.49323 
L 96.736356 19.765643 
L 101.161281 19.227469 
L 105.689607 18.872193 
L 110.282151 18.69098 
L 114.900295 18.673526 
L 119.506969 18.808953 
L 124.067307 19.08662 
L 128.548958 19.496734 
L 132.922166 20.030719 
L 137.159676 20.681335 
L 141.236622 21.442558 
L 145.130453 22.309298 
L 148.820985 23.277009 
L 152.290585 24.341269 
L 155.524474 25.4974 
L 158.511099 26.740151 
L 161.242498 28.06351 
L 163.714591 29.460628 
L 165.927312 30.923866 
L 167.884565 32.444937 
L 169.593971 34.015121 
L 171.066438 35.625521 
L 172.315592 37.267317 
L 173.35712 38.93201 
L 174.208096 40.61162 
L 174.886336 42.298844 
L 175.409817 43.987154 
L 175.796191 45.670854 
L 176.224445 49.005828 
L 176.293915 52.274493 
L 176.107655 55.458899 
L 175.524266 60.059903 
L 174.472383 65.86711 
L 168.430261 95.615076 
L 167.444221 98.933979 
L 166.229983 102.139658 
L 165.260009 104.197751 
L 164.138655 106.178741 
L 162.847585 108.069091 
L 161.370538 109.85428 
L 159.694148 111.519405 
L 157.808787 113.049936 
L 155.70933 114.432608 
L 153.395778 115.656391 
L 150.87362 116.713436 
L 148.153854 117.599866 
L 145.25261 118.316278 
L 142.190358 118.867826 
L 138.990797 119.263838 
L 133.990243 119.594515 
L 128.826328 119.65443 
L 123.58209 119.494196 
L 116.591429 119.008089 
L 109.740123 118.258945 
L 104.775421 117.527769 
L 100.02361 116.635501 
L 95.545138 115.558569 
L 91.402434 114.271838 
L 88.857198 113.287115 
L 86.504083 112.196335 
L 84.356226 110.998382 
L 82.422977 109.694858 
L 80.709147 108.29002 
L 79.214571 106.790493 
L 77.934068 105.20478 
L 76.857786 103.542668 
L 75.971868 101.814583 
L 75.259352 100.030988 
L 74.473662 97.273102 
L 73.966898 94.442183 
L 73.671934 91.56165 
L 73.503582 87.671644 
L 73.504298 81.770444 
L 73.769153 68.740102 
L 74.051372 63.645345 
L 74.520401 59.577923 
L 75.104276 56.56787 
L 75.960838 53.630609 
L 76.71669 51.734199 
L 77.642191 49.904247 
L 78.753432 48.156414 
L 80.062992 46.506604 
L 81.578935 44.970185 
L 83.304008 43.561117 
L 85.235149 42.291075 
L 87.363401 41.168647 
L 89.67427 40.198724 
L 92.148511 39.382172 
L 94.763265 38.715825 
L 97.493399 38.192843 
L 101.748134 37.654964 
L 106.119141 37.375496 
L 110.530625 37.309305 
L 116.368663 37.480706 
L 122.054474 37.878545 
L 127.505947 38.45605 
L 132.659243 39.196553 
L 137.457613 40.1055 
L 141.845929 41.199605 
L 144.836227 42.152228 
L 147.546807 43.22318 
L 149.962967 44.412714 
L 152.076495 45.716351 
L 153.886929 47.125043 
L 155.401949 48.625957 
L 156.636836 50.203668 
L 157.613164 51.841503 
L 158.357009 53.522802 
L 158.897019 55.231956 
L 159.350703 57.530552 
L 159.561412 59.827637 
L 159.574844 62.667966 
L 159.352393 66.002025 
L 158.783029 70.824854 
L 156.284249 88.629649 
L 155.575307 91.90921 
L 154.750175 94.636893 
L 153.851469 96.820003 
L 152.963411 98.485882 
L 151.903728 100.061212 
L 150.656546 101.527956 
L 149.211019 102.868864 
L 147.562463 104.068934 
L 145.713035 105.116849 
L 143.671824 106.006174 
L 141.454252 106.736091 
L 139.080867 107.311496 
L 135.931787 107.829165 
L 132.626896 108.14929 
L 128.523974 108.318735 
L 123.642292 108.289117 
L 118.055778 108.034919 
L 112.572434 107.587353 
L 107.300002 106.930769 
L 103.556155 106.264796 
L 100.058084 105.411995 
L 97.376772 104.534878 
L 94.946058 103.491476 
L 93.202376 102.532483 
L 91.649484 101.463603 
L 90.293269 100.289178 
L 89.133864 99.016728 
L 88.16558 97.656243 
L 87.377411 96.219288 
L 86.621739 94.334129 
L 86.086643 92.371656 
L 85.678911 89.943339 
L 85.439264 87.043944 
L 85.356893 82.830325 
L 85.49502 72.937129 
L 85.729075 67.232995 
L 86.049586 64.166462 
L 86.529588 61.582348 
L 87.13072 59.493023 
L 87.960152 57.495639 
L 88.8133 55.987857 
L 89.850769 54.580544 
L 91.08086 53.291495 
L 92.50473 52.136042 
L 94.115877 51.125672 
L 95.900422 50.266962 
L 97.838192 49.561012 
L 100.437866 48.886342 
L 103.184652 48.424614 
L 106.599875 48.113606 
L 110.067089 48.017491 
L 114.658038 48.135419 
L 119.657348 48.494987 
L 124.898373 49.080983 
L 129.733385 49.829133 
L 133.684452 50.655767 
L 136.837403 51.537216 
L 139.291416 52.437627 
L 141.441568 53.465914 
L 143.034386 54.448488 
L 144.395373 55.51888 
L 145.530199 56.667773 
L 146.45059 57.883048 
L 147.276064 59.366504 
L 147.865727 60.899598 
L 148.297736 62.686306 
L 148.540778 64.71022 
L 148.588853 67.167229 
L 148.412083 70.228255 
L 147.81025 75.887676 
L 146.576382 85.872377 
L 145.989399 88.578517 
L 145.324697 90.634304 
L 144.507216 92.413451 
L 143.56052 93.910569 
L 142.530112 95.134946 
L 141.310697 96.239929 
L 139.89971 97.210517 
L 138.303186 98.03703 
L 136.535262 98.716355 
L 134.367436 99.309603 
L 131.778768 99.774034 
L 128.772652 100.082832 
L 125.091754 100.234114 
L 120.494692 100.191634 
L 115.383035 99.917984 
L 111.01467 99.469356 
L 107.675208 98.917833 
L 105.059666 98.281727 
L 102.895729 97.544066 
L 101.154065 96.738278 
L 99.629931 95.79439 
L 98.336452 94.71626 
L 97.27628 93.514518 
L 96.441084 92.205038 
L 95.812705 90.806735 
L 95.325809 89.172711 
L 94.999392 87.306167 
L 94.814286 84.866498 
L 94.803361 81.499991 
L 95.089214 72.88722 
L 95.371092 68.923039 
L 95.750899 66.447935 
L 96.239699 64.572458 
L 96.878743 62.956024 
L 97.642524 61.602289 
L 98.603653 60.370325 
L 99.629797 59.39568 
L 100.814721 58.547055 
L 102.323865 57.751666 
L 103.994786 57.126309 
L 106.001097 56.621889 
L 108.332813 56.274677 
L 111.172994 56.096272 
L 114.456231 56.12374 
L 118.485377 56.393989 
L 123.02557 56.932931 
L 127.103443 57.639653 
L 130.222097 58.400209 
L 132.528661 59.174949 
L 134.390414 60.024104 
L 135.854689 60.927405 
L 137.048467 61.927327 
L 137.983975 63.009802 
L 138.683185 64.156243 
L 139.20157 65.426859 
L 139.553367 66.887037 
L 139.728498 68.597092 
L 139.711088 70.682865 
L 139.440375 73.696672 
L 138.368158 82.015258 
L 137.845995 84.616695 
L 137.27571 86.395594 
L 136.590396 87.826636 
L 135.763048 89.031975 
L 134.826821 90.01353 
L 133.703761 90.871674 
L 132.397653 91.593455 
L 130.84198 92.200989 
L 128.950553 92.695496 
L 126.630119 93.060854 
L 123.799804 93.27208 
L 120.316945 93.298989 
L 116.604098 93.104055 
L 113.468077 92.724141 
L 111.025829 92.208354 
L 109.15704 91.591845 
L 107.674046 90.869305 
L 106.541054 90.077892 
L 105.628042 89.16847 
L 104.930597 88.156023 
L 104.412952 87.006418 
L 104.061815 85.676911 
L 103.872331 84.064461 
L 103.861061 81.949199 
L 104.100529 78.425268 
L 104.776758 71.696818 
L 105.207857 69.662723 
L 105.745194 68.167754 
L 106.399651 66.990458 
L 107.182191 66.029774 
L 108.141889 65.211103 
L 109.269025 64.546734 
L 110.595739 64.02079 
L 112.220563 63.620933 
L 114.184359 63.375238 
L 116.557573 63.31091 
L 119.351088 63.461896 
L 122.37454 63.848486 
L 124.977383 64.393823 
L 127.010781 65.037464 
L 128.538274 65.748464 
L 129.665718 66.509795 
L 130.516765 67.350359 
L 131.128666 68.270142 
L 131.536569 69.290856 
L 131.757031 70.454222 
L 131.78618 71.811933 
L 131.78618 71.811933 
" clip-path="url(#pc1021c88ae)" style="fill: none; stroke: #1f77b4; stroke-width: 1.5; stroke-linecap: round"/>
   </g>
   <g id="line2d_11">
    <path d="M 197.992727 77.065693 
L 197.017174 91.761112 
L 196.590874 96.521306 
L 196.032288 101.185368 
L 195.274945 105.721738 
L 194.24649 110.087751 
L 192.874821 114.231181 
L 191.095552 118.09387 
L 188.859918 121.617357 
L 186.14167 124.749851 
L 182.941315 127.453232 
L 179.286454 129.708536 
L 175.227956 131.518574 
L 170.832892 132.907166 
L 166.175952 133.915392 
L 161.331234 134.595998 
L 156.365848 135.007313 
L 151.335948 135.207794 
L 141.244742 135.187053 
L 126.350203 134.688389 
L 102.506233 133.671448 
L 93.384235 133.050369 
L 88.964348 132.602703 
L 84.67403 132.021425 
L 80.547577 131.273678 
L 76.623863 130.328303 
L 72.943999 129.158382 
L 69.548205 127.743755 
L 66.472247 126.073142 
L 63.743914 124.145472 
L 61.380143 121.970139 
L 59.385275 119.566097 
L 57.750749 116.959921 
L 56.456202 114.183213 
L 55.471698 111.26978 
L 54.760621 108.253024 
L 54.28274 105.163852 
L 53.997023 102.029259 
L 53.863959 98.871581 
L 53.915038 92.552468 
L 54.381535 83.2027 
L 55.541303 65.199193 
L 56.071108 59.433146 
L 56.864544 53.849963 
L 57.413602 51.15441 
L 58.094609 48.542348 
L 58.929707 46.03083 
L 59.939043 43.638098 
L 61.139478 41.382665 
L 62.543389 39.282227 
L 64.157698 37.352485 
L 65.983268 35.606022 
L 68.014765 34.051365 
L 70.241017 32.692344 
L 72.645833 31.527842 
L 75.20918 30.55194 
L 77.908555 29.754428 
L 80.720397 29.121596 
L 83.621376 28.637175 
L 86.589471 28.283336 
L 92.649896 27.893804 
L 98.774543 27.811576 
L 107.910568 28.007488 
L 131.399956 28.943545 
L 139.828737 29.404278 
L 145.27809 29.859632 
L 150.526066 30.520383 
L 155.49127 31.467809 
L 157.837694 32.073178 
L 160.076221 32.777351 
L 162.194227 33.586739 
L 164.179933 34.505832 
L 166.022997 35.536933 
L 167.715052 36.680006 
L 169.250158 37.932656 
L 170.625126 39.290245 
L 171.83967 40.746135 
L 172.896397 42.292037 
L 173.80063 43.91844 
L 174.560091 45.615056 
L 175.184482 47.371281 
L 175.685011 49.176601 
L 176.363842 52.894983 
L 176.698016 56.699422 
L 176.784993 60.535146 
L 176.633124 66.268575 
L 175.982518 77.473193 
L 175.100227 90.018928 
L 174.483269 95.167978 
L 173.878702 98.476691 
L 173.053975 101.646373 
L 171.954274 104.634819 
L 170.53285 107.39631 
L 169.69067 108.677919 
L 168.757363 109.886654 
L 167.731966 111.018192 
L 166.614909 112.069022 
L 165.408002 113.03658 
L 164.11438 113.919353 
L 162.738376 114.71693 
L 159.761548 116.060357 
L 156.529192 117.08479 
L 153.099211 117.821986 
L 149.52902 118.312974 
L 145.87035 118.603086 
L 140.307528 118.759642 
L 132.89816 118.652641 
L 118.456554 118.107488 
L 104.627566 117.453737 
L 99.655021 117.053296 
L 94.875621 116.456579 
L 91.837744 115.907533 
L 88.953217 115.209055 
L 86.253939 114.340343 
L 83.771015 113.286036 
L 81.53183 112.037927 
L 79.557195 110.595991 
L 77.859074 108.968499 
L 76.439298 107.171165 
L 75.289496 105.225458 
L 74.392179 103.156422 
L 73.722708 100.990377 
L 73.251726 98.75287 
L 72.947633 96.4671 
L 72.735639 92.99034 
L 72.759472 88.339241 
L 73.099635 81.456959 
L 74.140142 66.087548 
L 74.634309 61.919917 
L 75.180391 58.906859 
L 75.942461 56.030341 
L 76.599076 54.210328 
L 77.392195 52.485049 
L 78.333723 50.868738 
L 79.43167 49.374622 
L 80.689463 48.013963 
L 82.10561 46.795191 
L 83.673765 45.723235 
L 85.383206 44.799145 
L 87.219674 44.020053 
L 89.166425 43.379452 
L 92.253725 42.656587 
L 95.487597 42.181786 
L 98.812684 41.907806 
L 103.31071 41.773137 
L 108.934473 41.836564 
L 121.019115 42.280429 
L 134.650378 42.934944 
L 139.625663 43.391557 
L 143.416595 43.950779 
L 146.105456 44.524514 
L 148.625653 45.257086 
L 150.943901 46.166908 
L 153.030032 47.264888 
L 154.860525 48.552915 
L 156.421448 50.023475 
L 157.7102 51.660528 
L 158.735688 53.441487 
L 159.517002 55.339863 
L 160.080978 57.328023 
L 160.459213 59.379599 
L 160.732294 62.17388 
L 160.80827 65.70163 
L 160.63925 70.611564 
L 159.841298 83.443479 
L 159.361323 88.588344 
L 158.878448 91.678064 
L 158.324161 94.044169 
L 157.573486 96.282788 
L 156.858132 97.857038 
L 155.997797 99.324887 
L 154.984193 100.672491 
L 153.814233 101.888289 
L 152.490398 102.964036 
L 151.020563 103.895554 
L 149.417298 104.683089 
L 147.100327 105.51767 
L 144.618956 106.126089 
L 142.018351 106.538244 
L 138.662981 106.8302 
L 134.569055 106.943133 
L 129.118475 106.858818 
L 115.28248 106.322424 
L 107.13821 105.863509 
L 102.970212 105.417645 
L 99.60208 104.826704 
L 96.9977 104.138347 
L 95.081319 103.437785 
L 93.338646 102.593336 
L 91.788711 101.601645 
L 90.44433 100.466015 
L 89.310623 99.196092 
L 88.38449 97.806775 
L 87.655105 96.316571 
L 87.105266 94.745724 
L 86.637136 92.699395 
L 86.334129 90.169073 
L 86.234896 87.175371 
L 86.360525 82.91469 
L 87.015504 72.234726 
L 87.481663 67.155962 
L 87.977197 64.174169 
L 88.530282 62.052386 
L 89.288596 60.066428 
L 90.104351 58.54213 
L 91.102881 57.158724 
L 92.289913 55.93346 
L 93.661667 54.878025 
L 95.20524 53.997033 
L 96.90023 53.287494 
L 99.098151 52.647754 
L 101.429976 52.212194 
L 104.259186 51.915267 
L 107.97732 51.777388 
L 112.939364 51.841889 
L 125.315622 52.322806 
L 132.130711 52.726906 
L 135.716138 53.140364 
L 138.411041 53.647461 
L 140.593387 54.259184 
L 142.568858 55.052608 
L 144.06957 55.887169 
L 145.374341 56.864742 
L 146.474194 57.977978 
L 147.369312 59.21304 
L 148.068878 60.55138 
L 148.66064 62.215223 
L 149.045072 63.957421 
L 149.299984 66.264291 
L 149.360178 69.119564 
L 149.197631 73.239284 
L 148.489997 83.812505 
L 148.070079 87.046104 
L 147.581194 89.235832 
L 146.94482 91.079085 
L 146.187623 92.58372 
L 145.360136 93.774902 
L 144.372237 94.833002 
L 143.226127 95.74735 
L 141.93193 96.513215 
L 140.293261 97.209256 
L 138.515276 97.726315 
L 136.392187 98.119994 
L 133.687211 98.38307 
L 130.172672 98.475854 
L 124.928339 98.357232 
L 111.863043 97.773948 
L 108.106514 97.4079 
L 105.418375 96.939873 
L 103.329421 96.364944 
L 101.622165 95.67357 
L 100.270254 94.903958 
L 99.111317 93.995043 
L 98.153342 92.955659 
L 97.393925 91.801633 
L 96.767827 90.409933 
L 96.343622 88.932746 
L 96.05151 87.088474 
L 95.926907 84.733132 
L 96.005804 81.437356 
L 96.538984 72.843216 
L 96.912229 69.283198 
L 97.370749 66.996442 
L 97.954714 65.246234 
L 98.644706 63.878013 
L 99.450473 62.75624 
L 100.428448 61.779601 
L 101.573639 60.959354 
L 102.870713 60.298363 
L 104.431493 59.751771 
L 106.253377 59.344493 
L 108.616561 59.059946 
L 111.655273 58.943395 
L 116.057603 59.022715 
L 127.609971 59.531808 
L 131.088071 59.878558 
L 133.44804 60.31659 
L 135.362058 60.895799 
L 136.849463 61.579088 
L 138.037877 62.369785 
L 138.954703 63.231718 
L 139.738585 64.283194 
L 140.321752 65.440585 
L 140.748378 66.76871 
L 141.039082 68.439522 
L 141.159362 70.533587 
L 141.082499 73.578295 
L 140.564791 81.58079 
L 140.20372 84.387888 
L 139.754807 86.218612 
L 139.199233 87.608639 
L 138.529887 88.727402 
L 137.683651 89.703988 
L 136.725571 90.478341 
L 135.548739 91.140682 
L 134.151123 91.666475 
L 132.459647 92.05974 
L 130.308403 92.31595 
L 127.541026 92.40769 
L 123.045766 92.300198 
L 113.167595 91.81569 
L 110.403408 91.455061 
L 108.461368 90.987968 
L 106.995242 90.421044 
L 105.843812 89.753499 
L 104.892475 88.943839 
L 104.178665 88.052561 
L 103.62309 87.011854 
L 103.217578 85.780202 
L 102.960101 84.258067 
L 102.868151 82.292747 
L 102.97728 79.245054 
L 103.505311 72.000974 
L 103.878439 69.95041 
L 104.353291 68.523926 
L 104.948128 67.408681 
L 105.669367 66.509406 
L 106.557635 65.756996 
L 107.645918 65.138946 
L 108.97479 64.655852 
L 110.584282 64.316539 
L 112.671189 64.11876 
L 115.531291 64.088518 
L 121.808109 64.313456 
L 127.19238 64.641694 
L 129.486944 65.001743 
L 131.119205 65.47535 
L 132.346415 66.055722 
L 133.301959 66.75182 
L 134.029541 67.556035 
L 134.460629 68.254086 
L 134.460629 68.254086 
" clip-path="url(#pc1021c88ae)" style="fill: none; stroke: #ff7f0e; stroke-opacity: 0.5; stroke-width: 1.5; stroke-linecap: round"/>
   </g>
   <g id="patch_3">
    <path d="M 46.64 147.04 
L 46.64 12.560836 
" style="fill: none; stroke: #ffffff; stroke-width: 0.8; stroke-linejoin: miter; stroke-linecap: square"/>
   </g>
   <g id="patch_4">
    <path d="M 205.2 147.04 
L 205.2 12.560836 
" style="fill: none; stroke: #ffffff; stroke-width: 0.8; stroke-linejoin: miter; stroke-linecap: square"/>
   </g>
   <g id="patch_5">
    <path d="M 46.64 147.04 
L 205.2 147.04 
" style="fill: none; stroke: #ffffff; stroke-width: 0.8; stroke-linejoin: miter; stroke-linecap: square"/>
   </g>
   <g id="patch_6">
    <path d="M 46.64 12.560836 
L 205.2 12.560836 
" style="fill: none; stroke: #ffffff; stroke-width: 0.8; stroke-linejoin: miter; stroke-linecap: square"/>
   </g>
  </g>
 </g>
 <defs>
  <clipPath id="pc1021c88ae">
   <rect x="46.64" y="12.560836" width="158.56" height="134.479164"/>
  </clipPath>
 </defs>
</svg>
