<?xml version="1.0" encoding="utf-8" standalone="no"?>
<!DOCTYPE svg PUBLIC "-//W3C//DTD SVG 1.1//EN"
  "http://www.w3.org/Graphics/SVG/1.1/DTD/svg11.dtd">
<svg xmlns:xlink="http://www.w3.org/1999/xlink" width="216pt" height="180pt" viewBox="0 0 216 180" xmlns="http://www.w3.org/2000/svg" version="1.1">
 <metadata>
  <rdf:RDF xmlns:dc="http://purl.org/dc/elements/1.1/" xmlns:cc="http://creativecommons.org/ns#" xmlns:rdf="http://www.w3.org/1999/02/22-rdf-syntax-ns#">
   <cc:Work>
    <dc:type rdf:resource="http://purl.org/dc/dcmitype/StillImage"/>
    <dc:date>2023-06-14T18:36:38.495960</dc:date>
    <dc:format>image/svg+xml</dc:format>
    <dc:creator>
     <cc:Agent>
      <dc:title>Matplotlib v3.7.0, https://matplotlib.org/</dc:title>
     </cc:Agent>
    </dc:creator>
   </cc:Work>
  </rdf:RDF>
 </metadata>
 <defs>
  <style type="text/css">*{stroke-linejoin: round; stroke-linecap: butt}</style>
 </defs>
 <g id="figure_1">
  <g id="patch_1">
   <path d="M 0 180 
L 216 180 
L 216 0 
L 0 0 
z
" style="fill: #ffffff"/>
  </g>
  <g id="axes_1">
   <g id="patch_2">
    <path d="M 46.64 147.04 
L 205.2 147.04 
L 205.2 10.8 
L 46.64 10.8 
L 46.64 147.04 
z
" style="fill: none"/>
   </g>
   <g id="matplotlib.axis_1">
    <g id="xtick_1">
     <g id="line2d_1">
      <path d="M 83.382846 147.04 
L 83.382846 10.8 
" clip-path="url(#p1ce5318d92)" style="fill: none; stroke: #d3d3d3; stroke-width: 0.8; stroke-linecap: round"/>
     </g>
     <g id="text_1">
      <!-- −1 -->
      <g style="fill: #808080" transform="translate(76.011752 161.638438) scale(0.1 -0.1)">
       <defs>
        <path id="DejaVuSans-2212" d="M 678 2272 
L 4684 2272 
L 4684 1741 
L 678 1741 
L 678 2272 
z
" transform="scale(0.015625)"/>
        <path id="DejaVuSans-31" d="M 794 531 
L 1825 531 
L 1825 4091 
L 703 3866 
L 703 4441 
L 1819 4666 
L 2450 4666 
L 2450 531 
L 3481 531 
L 3481 0 
L 794 0 
L 794 531 
z
" transform="scale(0.015625)"/>
       </defs>
       <use xlink:href="#DejaVuSans-2212"/>
       <use xlink:href="#DejaVuSans-31" x="83.789062"/>
      </g>
     </g>
    </g>
    <g id="xtick_2">
     <g id="line2d_2">
      <path d="M 121.58614 147.04 
L 121.58614 10.8 
" clip-path="url(#p1ce5318d92)" style="fill: none; stroke: #d3d3d3; stroke-width: 0.8; stroke-linecap: round"/>
     </g>
     <g id="text_2">
      <!-- 0 -->
      <g style="fill: #808080" transform="translate(118.40489 161.638438) scale(0.1 -0.1)">
       <defs>
        <path id="DejaVuSans-30" d="M 2034 4250 
Q 1547 4250 1301 3770 
Q 1056 3291 1056 2328 
Q 1056 1369 1301 889 
Q 1547 409 2034 409 
Q 2525 409 2770 889 
Q 3016 1369 3016 2328 
Q 3016 3291 2770 3770 
Q 2525 4250 2034 4250 
z
M 2034 4750 
Q 2819 4750 3233 4129 
Q 3647 3509 3647 2328 
Q 3647 1150 3233 529 
Q 2819 -91 2034 -91 
Q 1250 -91 836 529 
Q 422 1150 422 2328 
Q 422 3509 836 4129 
Q 1250 4750 2034 4750 
z
" transform="scale(0.015625)"/>
       </defs>
       <use xlink:href="#DejaVuSans-30"/>
      </g>
     </g>
    </g>
    <g id="xtick_3">
     <g id="line2d_3">
      <path d="M 159.789433 147.04 
L 159.789433 10.8 
" clip-path="url(#p1ce5318d92)" style="fill: none; stroke: #d3d3d3; stroke-width: 0.8; stroke-linecap: round"/>
     </g>
     <g id="text_3">
      <!-- 1 -->
      <g style="fill: #808080" transform="translate(156.608183 161.638438) scale(0.1 -0.1)">
       <use xlink:href="#DejaVuSans-31"/>
      </g>
     </g>
    </g>
    <g id="xtick_4">
     <g id="line2d_4">
      <path d="M 197.992727 147.04 
L 197.992727 10.8 
" clip-path="url(#p1ce5318d92)" style="fill: none; stroke: #d3d3d3; stroke-width: 0.8; stroke-linecap: round"/>
     </g>
     <g id="text_4">
      <!-- 2 -->
      <g style="fill: #808080" transform="translate(194.811477 161.638438) scale(0.1 -0.1)">
       <defs>
        <path id="DejaVuSans-32" d="M 1228 531 
L 3431 531 
L 3431 0 
L 469 0 
L 469 531 
Q 828 903 1448 1529 
Q 2069 2156 2228 2338 
Q 2531 2678 2651 2914 
Q 2772 3150 2772 3378 
Q 2772 3750 2511 3984 
Q 2250 4219 1831 4219 
Q 1534 4219 1204 4116 
Q 875 4013 500 3803 
L 500 4441 
Q 881 4594 1212 4672 
Q 1544 4750 1819 4750 
Q 2544 4750 2975 4387 
Q 3406 4025 3406 3419 
Q 3406 3131 3298 2873 
Q 3191 2616 2906 2266 
Q 2828 2175 2409 1742 
Q 1991 1309 1228 531 
z
" transform="scale(0.015625)"/>
       </defs>
       <use xlink:href="#DejaVuSans-32"/>
      </g>
     </g>
    </g>
    <g id="text_5">
     <!-- x -->
     <g style="fill: #262626" transform="translate(122.960625 175.316563) scale(0.1 -0.1)">
      <defs>
       <path id="DejaVuSans-78" d="M 3513 3500 
L 2247 1797 
L 3578 0 
L 2900 0 
L 1881 1375 
L 863 0 
L 184 0 
L 1544 1831 
L 300 3500 
L 978 3500 
L 1906 2253 
L 2834 3500 
L 3513 3500 
z
" transform="scale(0.015625)"/>
      </defs>
      <use xlink:href="#DejaVuSans-78"/>
     </g>
    </g>
   </g>
   <g id="matplotlib.axis_2">
    <g id="ytick_1">
     <g id="line2d_5">
      <path d="M 46.64 143.69672 
L 205.2 143.69672 
" clip-path="url(#p1ce5318d92)" style="fill: none; stroke: #d3d3d3; stroke-width: 0.8; stroke-linecap: round"/>
     </g>
     <g id="text_6">
      <!-- −2 -->
      <g style="fill: #808080" transform="translate(24.897813 147.495939) scale(0.1 -0.1)">
       <use xlink:href="#DejaVuSans-2212"/>
       <use xlink:href="#DejaVuSans-32" x="83.789062"/>
      </g>
     </g>
    </g>
    <g id="ytick_2">
     <g id="line2d_6">
      <path d="M 46.64 108.298508 
L 205.2 108.298508 
" clip-path="url(#p1ce5318d92)" style="fill: none; stroke: #d3d3d3; stroke-width: 0.8; stroke-linecap: round"/>
     </g>
     <g id="text_7">
      <!-- −1 -->
      <g style="fill: #808080" transform="translate(24.897813 112.097727) scale(0.1 -0.1)">
       <use xlink:href="#DejaVuSans-2212"/>
       <use xlink:href="#DejaVuSans-31" x="83.789062"/>
      </g>
     </g>
    </g>
    <g id="ytick_3">
     <g id="line2d_7">
      <path d="M 46.64 72.900296 
L 205.2 72.900296 
" clip-path="url(#p1ce5318d92)" style="fill: none; stroke: #d3d3d3; stroke-width: 0.8; stroke-linecap: round"/>
     </g>
     <g id="text_8">
      <!-- 0 -->
      <g style="fill: #808080" transform="translate(33.2775 76.699515) scale(0.1 -0.1)">
       <use xlink:href="#DejaVuSans-30"/>
      </g>
     </g>
    </g>
    <g id="ytick_4">
     <g id="line2d_8">
      <path d="M 46.64 37.502085 
L 205.2 37.502085 
" clip-path="url(#p1ce5318d92)" style="fill: none; stroke: #d3d3d3; stroke-width: 0.8; stroke-linecap: round"/>
     </g>
     <g id="text_9">
      <!-- 1 -->
      <g style="fill: #808080" transform="translate(33.2775 41.301303) scale(0.1 -0.1)">
       <use xlink:href="#DejaVuSans-31"/>
      </g>
     </g>
    </g>
    <g id="text_10">
     <!-- y -->
     <g style="fill: #262626" transform="translate(18.818125 81.879375) rotate(-90) scale(0.1 -0.1)">
      <defs>
       <path id="DejaVuSans-79" d="M 2059 -325 
Q 1816 -950 1584 -1140 
Q 1353 -1331 966 -1331 
L 506 -1331 
L 506 -850 
L 844 -850 
Q 1081 -850 1212 -737 
Q 1344 -625 1503 -206 
L 1606 56 
L 191 3500 
L 800 3500 
L 1894 763 
L 2988 3500 
L 3597 3500 
L 2059 -325 
z
" transform="scale(0.015625)"/>
      </defs>
      <use xlink:href="#DejaVuSans-79"/>
     </g>
    </g>
   </g>
   <g id="line2d_9">
    <path d="M 197.992727 72.900296 
L 196.019999 80.152873 
L 193.823932 87.484641 
L 191.372207 94.990712 
L 188.562926 102.687533 
L 186.978924 106.582752 
L 185.248327 110.478231 
L 183.351497 114.337971 
L 181.271239 118.115767 
L 178.99434 121.756724 
L 176.512763 125.20036 
L 173.82422 128.385228 
L 170.932042 131.25454 
L 167.844434 133.761952 
L 164.573401 135.876467 
L 161.133704 137.5856 
L 157.542057 138.89629 
L 153.816591 139.833523 
L 149.976432 140.437018 
L 146.041185 140.75664 
L 142.030231 140.847273 
L 137.961853 140.763874 
L 129.715469 140.270769 
L 113.066754 138.839497 
L 104.747915 138.002594 
L 96.486386 136.874112 
L 92.405729 136.104525 
L 88.384766 135.138573 
L 84.451403 133.932818 
L 80.639761 132.450437 
L 76.988609 130.66622 
L 73.538662 128.570736 
L 70.329016 126.172577 
L 67.393379 123.497898 
L 64.756853 120.587172 
L 62.433957 117.489901 
L 60.42818 114.258585 
L 58.732937 110.943282 
L 57.333482 107.587653 
L 56.209241 104.226831 
L 55.3361 100.886891 
L 54.688389 97.585484 
L 54.240422 94.333107 
L 53.967621 91.134618 
L 53.847273 87.990712 
L 53.858993 84.899213 
L 54.210162 78.856494 
L 54.911082 72.96645 
L 55.893322 67.190431 
L 57.1257 61.502488 
L 58.607787 55.897412 
L 60.361724 50.397363 
L 62.422416 45.056867 
L 63.579472 42.472775 
L 64.826436 39.964056 
L 66.166302 37.546047 
L 67.600866 35.234972 
L 69.130537 33.047244 
L 70.754226 30.998679 
L 72.469333 29.10365 
L 74.271824 27.374282 
L 76.15638 25.819739 
L 78.116598 24.445694 
L 80.145235 23.254014 
L 82.234446 22.242696 
L 84.376037 21.406034 
L 86.561689 20.735012 
L 88.78317 20.217838 
L 91.032517 19.8406 
L 95.585274 19.443777 
L 100.167185 19.416316 
L 104.7373 19.635653 
L 111.512173 20.205192 
L 133.132408 22.187968 
L 139.339145 22.82037 
L 143.382831 23.376905 
L 147.319519 24.114524 
L 151.108545 25.095865 
L 154.699313 26.374149 
L 158.036121 27.984375 
L 159.592215 28.918207 
L 161.06529 29.93671 
L 162.450263 31.036938 
L 163.743119 32.214449 
L 164.941053 33.463541 
L 167.047411 36.149115 
L 168.772614 39.03431 
L 170.138272 42.058919 
L 171.179667 45.169306 
L 171.94014 48.322621 
L 172.46587 51.488059 
L 172.801777 54.646078 
L 173.037579 59.349149 
L 173.049914 64.009148 
L 172.851445 70.187162 
L 172.373536 77.951087 
L 171.783644 84.273968 
L 171.144478 89.098619 
L 170.245197 93.972095 
L 169.450635 97.219635 
L 168.462063 100.431992 
L 167.248071 103.568169 
L 165.78148 106.577445 
L 164.042447 109.402172 
L 162.021224 111.982753 
L 159.72 114.264401 
L 157.153382 116.204509 
L 154.347328 117.778919 
L 151.336711 118.985423 
L 148.161962 119.843563 
L 144.865371 120.390911 
L 141.487651 120.676978 
L 138.065212 120.756352 
L 132.912268 120.603316 
L 126.11244 120.118271 
L 114.623819 119.030503 
L 106.807557 118.101807 
L 102.306315 117.369497 
L 97.988871 116.403636 
L 95.239553 115.586576 
L 92.616771 114.604239 
L 90.142578 113.439543 
L 87.838993 112.082692 
L 85.725987 110.532299 
L 83.819499 108.795531 
L 82.12979 106.887189 
L 80.660452 104.827926 
L 79.408184 102.641952 
L 78.363342 100.354671 
L 77.511072 97.990617 
L 76.832797 95.571922 
L 76.096081 91.881557 
L 75.632676 88.157629 
L 75.376523 84.430589 
L 75.264646 79.483129 
L 75.376339 73.349615 
L 75.70984 67.273272 
L 76.162046 62.462741 
L 76.845631 57.730102 
L 77.561723 54.269338 
L 78.495381 50.929368 
L 79.681665 47.762569 
L 80.626101 45.777009 
L 81.698858 43.913341 
L 82.901051 42.189065 
L 84.230391 40.619644 
L 85.681224 39.217344 
L 87.244822 37.990284 
L 88.909879 36.941792 
L 90.66316 36.070187 
L 92.490238 35.368982 
L 94.376227 34.827466 
L 97.283818 34.283181 
L 100.245595 34.009799 
L 103.22303 33.94698 
L 107.166769 34.091302 
L 112.939573 34.567135 
L 131.45855 36.271172 
L 137.125706 36.863128 
L 140.988355 37.482476 
L 143.925063 38.174547 
L 146.682174 39.092803 
L 148.605183 39.95132 
L 150.383475 40.964808 
L 152.001017 42.134622 
L 153.445804 43.455504 
L 154.711069 44.916356 
L 155.795901 46.50164 
L 156.705183 48.193126 
L 157.448949 49.971687 
L 158.207975 52.446904 
L 158.738694 55.006052 
L 159.148049 58.278575 
L 159.374954 62.266392 
L 159.419216 67.647618 
L 159.230135 76.598614 
L 158.906082 83.025352 
L 158.463327 87.403091 
L 157.842008 91.055707 
L 157.111126 93.928097 
L 156.39409 96.018193 
L 155.511707 98.022569 
L 154.449716 99.910947 
L 153.199556 101.652885 
L 151.75962 103.220514 
L 150.135852 104.591431 
L 148.341525 105.751227 
L 146.396193 106.6951 
L 144.323972 107.42821 
L 142.151453 107.964725 
L 139.905588 108.325818 
L 136.840646 108.578911 
L 132.967704 108.618784 
L 128.355413 108.411366 
L 121.656458 107.8669 
L 113.266216 106.984371 
L 108.059286 106.219623 
L 104.400856 105.438276 
L 101.553523 104.584467 
L 99.434105 103.738327 
L 97.47743 102.730533 
L 95.702211 101.553587 
L 94.123282 100.208405 
L 92.749575 98.704081 
L 91.582823 97.05657 
L 90.61724 95.286573 
L 89.840174 93.417107 
L 89.106016 90.975332 
L 88.595197 88.454653 
L 88.212823 85.371519 
L 87.991535 81.74323 
L 87.920937 76.563681 
L 88.066291 69.371717 
L 88.35671 64.304963 
L 88.739094 60.836868 
L 89.251405 57.963357 
L 89.84865 55.677855 
L 90.629674 53.530136 
L 91.614074 51.558993 
L 92.554485 50.134108 
L 93.629924 48.86169 
L 94.83401 47.753114 
L 96.155591 46.8142 
L 97.579677 46.044669 
L 99.477027 45.310948 
L 101.470387 44.808523 
L 103.524047 44.505309 
L 106.023569 44.352832 
L 109.345919 44.404656 
L 113.786713 44.734927 
L 129.884175 46.142361 
L 134.654091 46.616339 
L 137.640523 47.129239 
L 139.873142 47.726349 
L 141.679091 48.419607 
L 143.318582 49.291374 
L 144.572978 50.186489 
L 145.676216 51.216062 
L 146.622452 52.372083 
L 147.528404 53.863532 
L 148.231127 55.48475 
L 148.749807 57.208964 
L 149.150093 59.273381 
L 149.424662 61.949821 
L 149.532439 65.527269 
L 149.441063 71.463997 
L 149.109845 80.344266 
L 148.766971 84.015561 
L 148.305516 86.754286 
L 147.676406 89.120204 
L 146.911335 91.086263 
L 146.071914 92.655724 
L 145.050499 94.086046 
L 143.844502 95.350289 
L 142.461203 96.42866 
L 140.917267 97.311215 
L 139.236858 97.999054 
L 137.448783 98.503707 
L 135.266949 98.887664 
L 132.702309 99.1057 
L 129.471009 99.139182 
L 125.34201 98.948309 
L 119.02859 98.412114 
L 113.514051 97.744305 
L 110.229774 97.143756 
L 107.675736 96.458047 
L 105.769452 95.738403 
L 104.053996 94.854539 
L 102.706561 93.923592 
L 101.536991 92.857656 
L 100.549385 91.666029 
L 99.740747 90.363998 
L 99.032393 88.791188 
L 98.468331 86.944009 
L 98.07302 84.835083 
L 97.834604 82.294055 
L 97.761296 78.965342 
L 97.898518 73.585454 
L 98.25753 67.115804 
L 98.655253 63.786769 
L 99.144047 61.486215 
L 99.747172 59.669083 
L 100.475943 58.168201 
L 101.294182 56.967641 
L 102.25904 55.941481 
L 103.359163 55.09896 
L 104.575238 54.439535 
L 106.017453 53.913374 
L 107.675296 53.549436 
L 109.664736 53.348749 
L 112.084434 53.334753 
L 115.527102 53.558819 
L 125.974451 54.375687 
L 131.800587 54.764357 
L 134.066233 55.156024 
L 135.701738 55.653691 
L 137.008441 56.271535 
L 138.076293 57.01406 
L 138.969285 57.911782 
L 139.679927 58.952841 
L 140.239549 60.193428 
L 140.631765 61.625724 
L 140.871538 63.404932 
L 140.93143 65.613502 
L 140.771552 68.872746 
L 140.032928 77.510273 
L 139.581252 80.715376 
L 139.073902 82.820711 
L 138.462753 84.460433 
L 137.732301 85.804513 
L 136.869422 86.92759 
L 135.903928 87.831676 
L 134.796429 88.578488 
L 133.480034 89.199233 
L 131.962798 89.671331 
L 130.076097 90.013536 
L 127.749551 90.191551 
L 124.766205 90.182922 
L 120.571695 89.932217 
L 116.533227 89.48589 
L 113.974531 88.998133 
L 112.105258 88.424278 
L 110.708672 87.775507 
L 109.577026 87.008549 
L 108.695305 86.146096 
L 108.011529 85.17511 
L 107.479257 84.024497 
L 107.121005 82.709812 
L 106.932498 81.161045 
L 106.933847 79.226577 
L 107.173403 76.722289 
L 107.797808 72.805824 
L 108.587661 69.038325 
L 109.19829 67.145136 
L 109.840464 65.858212 
L 110.556355 64.914391 
L 111.377628 64.201635 
L 112.317171 63.680113 
L 113.454015 63.310572 
L 114.843872 63.101244 
L 116.69585 63.061024 
L 121.178662 63.266022 
L 121.178662 63.266022 
" clip-path="url(#p1ce5318d92)" style="fill: none; stroke: #1f77b4; stroke-width: 1.5; stroke-linecap: round"/>
   </g>
   <g id="line2d_10">
    <path d="M 197.992727 72.900296 
L 197.031797 89.580834 
L 196.611888 94.984055 
L 196.061676 100.278159 
L 195.315685 105.42732 
L 194.302646 110.383112 
L 192.951539 115.086254 
L 191.198941 119.470731 
L 188.996819 123.470186 
L 186.319317 127.025829 
L 183.166936 130.094395 
L 179.566861 132.654355 
L 175.569201 134.708901 
L 171.24002 136.285069 
L 166.652887 137.42949 
L 161.880791 138.202035 
L 156.989837 138.668912 
L 152.035336 138.896475 
L 147.060238 138.946476 
L 137.161027 138.720445 
L 113.182351 137.64449 
L 103.93758 137.152594 
L 94.952321 136.447617 
L 90.598688 135.939477 
L 86.372682 135.279678 
L 82.308085 134.430923 
L 78.443188 133.357843 
L 74.818485 132.029883 
L 71.473594 130.424163 
L 68.443745 128.527876 
L 65.75631 126.339808 
L 63.427972 123.870623 
L 61.463007 121.141832 
L 59.852983 118.183603 
L 58.577841 115.031806 
L 57.608094 111.724815 
L 56.907677 108.300543 
L 56.436959 104.794072 
L 56.155525 101.236045 
L 56.024456 97.651815 
L 56.074769 90.479089 
L 56.534273 79.866316 
L 57.676656 59.430821 
L 58.198519 52.885872 
L 58.980062 46.548489 
L 59.52089 43.488809 
L 60.191688 40.5239 
L 61.014268 37.673115 
L 62.008474 34.957162 
L 63.190914 32.397057 
L 64.573781 30.012882 
L 66.163891 27.822462 
L 67.962096 25.84008 
L 69.963141 24.075413 
L 72.156021 22.532811 
L 74.524788 21.211003 
L 77.049711 20.103271 
L 79.708623 19.198029 
L 82.478314 18.479711 
L 85.335808 17.929852 
L 88.259411 17.528215 
L 94.22899 17.086063 
L 100.261828 16.992727 
L 109.260904 17.215104 
L 129.580328 18.136233 
L 140.700618 18.800578 
L 146.068285 19.317444 
L 151.237593 20.067452 
L 156.128369 21.14286 
L 158.439619 21.830004 
L 160.644591 22.6293 
L 162.730848 23.548024 
L 164.686789 24.591272 
L 166.502225 25.761658 
L 168.168916 27.059142 
L 169.681011 28.481006 
L 171.035368 30.021984 
L 172.231705 31.674541 
L 173.272592 33.42927 
L 174.16327 35.275374 
L 174.911347 37.201176 
L 175.526379 39.194639 
L 176.019404 41.24383 
L 176.68806 45.464506 
L 177.017225 49.782865 
L 177.102898 54.136734 
L 176.953306 60.644659 
L 176.312452 73.362843 
L 175.443386 87.603309 
L 174.835677 93.447914 
L 174.240173 97.203581 
L 173.427808 100.801438 
L 172.344591 104.193575 
L 170.944474 107.3281 
L 170.114919 108.782834 
L 169.195602 110.154851 
L 168.185577 111.439241 
L 167.085264 112.632021 
L 165.896449 113.730281 
L 164.622218 114.732303 
L 163.266841 115.63762 
L 161.835608 116.447023 
L 158.770643 117.787252 
L 155.482167 118.781754 
L 152.027731 119.472544 
L 148.461607 119.909323 
L 144.830657 120.144037 
L 139.341674 120.224677 
L 132.064634 120.040052 
L 112.755818 119.155584 
L 104.377475 118.611565 
L 99.53506 118.093325 
L 94.908222 117.320209 
L 91.987537 116.615435 
L 89.233541 115.728607 
L 86.677611 114.638923 
L 84.34892 113.332805 
L 82.271532 111.805496 
L 80.461816 110.061729 
L 78.926652 108.115305 
L 77.662751 105.98761 
L 76.657181 103.705371 
L 75.888913 101.298056 
L 75.331042 98.795363 
L 74.953253 96.225139 
L 74.655757 92.295735 
L 74.592381 88.333756 
L 74.725314 83.073188 
L 75.312936 71.524471 
L 75.996698 60.439178 
L 76.483457 55.708566 
L 77.021354 52.288491 
L 77.772 49.023401 
L 78.418772 46.957533 
L 79.200003 44.999197 
L 80.127417 43.164548 
L 81.208906 41.4686 
L 82.447845 39.924137 
L 83.842764 38.540729 
L 85.387411 37.323968 
L 87.071228 36.275049 
L 88.880167 35.390713 
L 90.797736 34.663578 
L 92.806139 34.08276 
L 95.949848 33.455734 
L 99.200667 33.074856 
L 103.619503 32.856084 
L 109.165559 32.882454 
L 117.899551 33.21866 
L 134.596874 34.081105 
L 139.538134 34.552938 
L 143.320603 35.130544 
L 146.017216 35.727438 
L 148.558707 36.496197 
L 150.912039 37.460015 
L 153.046077 38.634356 
L 154.935105 40.024897 
L 156.561995 41.626624 
L 157.920364 43.42436 
L 159.015283 45.394639 
L 159.862439 47.508512 
L 160.486032 49.734715 
L 160.915958 52.042579 
L 161.244368 55.199274 
L 161.368242 59.199875 
L 161.265982 63.990822 
L 160.754169 74.114312 
L 160.083469 84.541478 
L 159.576018 88.796834 
L 159.071798 91.512941 
L 158.384568 94.093768 
L 157.474741 96.500223 
L 156.627303 98.166355 
L 155.628893 99.695999 
L 154.476471 101.076033 
L 153.17248 102.297096 
L 151.724677 103.354447 
L 150.145446 104.248366 
L 148.450698 104.984065 
L 146.042797 105.735978 
L 143.506483 106.255953 
L 140.884097 106.582317 
L 137.540057 106.779276 
L 132.828002 106.791696 
L 125.523541 106.528296 
L 110.314523 105.741703 
L 106.128681 105.329189 
L 102.707624 104.779334 
L 100.026047 104.125524 
L 98.024864 103.446069 
L 96.177969 102.610798 
L 94.50733 101.610559 
L 93.030341 100.443414 
L 91.757834 99.114984 
L 90.692836 97.637853 
L 89.830308 96.030149 
L 89.157866 94.313574 
L 88.556434 92.049984 
L 88.179536 89.69605 
L 87.957138 86.805223 
L 87.924187 82.918516 
L 88.148093 77.152667 
L 88.966264 63.397788 
L 89.416146 59.516905 
L 89.969145 56.646641 
L 90.64416 54.336379 
L 91.379205 52.54864 
L 92.289569 50.911762 
L 93.384454 49.447189 
L 94.663909 48.170969 
L 96.118693 47.091691 
L 97.731404 46.209407 
L 99.478666 45.515756 
L 101.333861 44.99518 
L 103.664478 44.569446 
L 106.473481 44.294747 
L 110.144012 44.191388 
L 115.425117 44.313328 
L 129.055229 44.959479 
L 133.839162 45.35 
L 136.991116 45.803866 
L 139.62222 46.4061 
L 141.745176 47.128535 
L 143.399664 47.913592 
L 144.87788 48.860889 
L 146.163093 49.970516 
L 147.246459 51.234134 
L 148.128159 52.636033 
L 148.817239 54.155161 
L 149.400131 56.043763 
L 149.778799 58.021305 
L 150.02989 60.639796 
L 150.089182 63.880771 
L 149.91476 68.845937 
L 149.209434 80.826079 
L 148.778712 84.483572 
L 148.277183 86.954524 
L 147.627079 89.028698 
L 146.85728 90.716356 
L 146.0198 92.047827 
L 145.024124 93.226148 
L 143.873575 94.24009 
L 142.579159 95.085329 
L 141.158178 95.764937 
L 139.406846 96.351841 
L 137.315582 96.7987 
L 134.896506 97.079484 
L 131.932985 97.199132 
L 127.733593 97.133665 
L 117.017648 96.649877 
L 111.605432 96.264084 
L 108.618563 95.850928 
L 106.225924 95.301512 
L 104.396469 94.664861 
L 102.909877 93.932651 
L 101.598662 93.0413 
L 100.478886 91.992491 
L 99.557308 90.797235 
L 98.830424 89.474228 
L 98.234991 87.883249 
L 97.804669 86.02642 
L 97.550198 83.922751 
L 97.454784 81.245684 
L 97.557777 77.33303 
L 98.140799 66.956762 
L 98.514077 63.441587 
L 98.98471 61.031717 
L 99.554784 59.214751 
L 100.265756 57.688241 
L 101.090155 56.443562 
L 102.084102 55.36658 
L 103.24072 54.468453 
L 104.543269 53.7506 
L 106.102421 53.16298 
L 107.913713 52.73132 
L 110.104574 52.449484 
L 112.949475 52.329963 
L 116.989488 52.408513 
L 127.710633 52.927866 
L 131.450196 53.294449 
L 133.823153 53.735801 
L 135.660263 54.288412 
L 137.107854 54.935943 
L 138.376341 55.749579 
L 139.375804 56.654093 
L 140.195747 57.692583 
L 140.88119 58.941066 
L 141.405588 60.397611 
L 141.759611 62.046475 
L 141.966239 64.077248 
L 142.005783 66.787192 
L 141.808049 71.486781 
L 141.250759 79.882503 
L 140.845964 82.405174 
L 140.333827 84.221324 
L 139.713353 85.632588 
L 138.952322 86.810351 
L 138.075352 87.760528 
L 137.049091 88.546167 
L 135.813553 89.199733 
L 134.3732 89.700476 
L 132.658715 90.056389 
L 130.509643 90.266181 
L 127.594695 90.307166 
L 122.312139 90.108292 
L 114.278203 89.625717 
L 111.79089 89.248993 
L 109.937823 88.750415 
L 108.536378 88.15456 
L 107.375423 87.420334 
L 106.450836 86.569957 
L 105.710949 85.583325 
L 105.127646 84.423082 
L 104.694242 83.041242 
L 104.416993 81.388798 
L 104.29666 79.228399 
L 104.370518 76.020357 
L 104.86176 67.74097 
L 105.209163 65.208706 
L 105.667725 63.455133 
L 106.244489 62.116321 
L 106.928471 61.070557 
L 107.740457 60.220816 
L 108.696642 59.532582 
L 109.873373 58.968003 
L 111.267527 58.553072 
L 113.020723 58.276828 
L 115.275069 58.161253 
L 118.739365 58.23401 
L 127.328565 58.697003 
L 129.800021 59.045077 
L 131.487391 59.497185 
L 132.786717 60.069851 
L 133.796668 60.753148 
L 134.595766 61.5594 
L 135.214451 62.493824 
L 135.412978 62.898381 
L 135.412978 62.898381 
" clip-path="url(#p1ce5318d92)" style="fill: none; stroke: #ff7f0e; stroke-opacity: 0.5; stroke-width: 1.5; stroke-linecap: round"/>
   </g>
   <g id="patch_3">
    <path d="M 46.64 147.04 
L 46.64 10.8 
" style="fill: none; stroke: #ffffff; stroke-width: 0.8; stroke-linejoin: miter; stroke-linecap: square"/>
   </g>
   <g id="patch_4">
    <path d="M 205.2 147.04 
L 205.2 10.8 
" style="fill: none; stroke: #ffffff; stroke-width: 0.8; stroke-linejoin: miter; stroke-linecap: square"/>
   </g>
   <g id="patch_5">
    <path d="M 46.64 147.04 
L 205.2 147.04 
" style="fill: none; stroke: #ffffff; stroke-width: 0.8; stroke-linejoin: miter; stroke-linecap: square"/>
   </g>
   <g id="patch_6">
    <path d="M 46.64 10.8 
L 205.2 10.8 
" style="fill: none; stroke: #ffffff; stroke-width: 0.8; stroke-linejoin: miter; stroke-linecap: square"/>
   </g>
  </g>
 </g>
 <defs>
  <clipPath id="p1ce5318d92">
   <rect x="46.64" y="10.8" width="158.56" height="136.24"/>
  </clipPath>
 </defs>
</svg>
