<?xml version="1.0" encoding="utf-8" standalone="no"?>
<!DOCTYPE svg PUBLIC "-//W3C//DTD SVG 1.1//EN"
  "http://www.w3.org/Graphics/SVG/1.1/DTD/svg11.dtd">
<svg xmlns:xlink="http://www.w3.org/1999/xlink" width="216pt" height="180pt" viewBox="0 0 216 180" xmlns="http://www.w3.org/2000/svg" version="1.1">
 <metadata>
  <rdf:RDF xmlns:dc="http://purl.org/dc/elements/1.1/" xmlns:cc="http://creativecommons.org/ns#" xmlns:rdf="http://www.w3.org/1999/02/22-rdf-syntax-ns#">
   <cc:Work>
    <dc:type rdf:resource="http://purl.org/dc/dcmitype/StillImage"/>
    <dc:date>2023-06-14T18:41:21.996061</dc:date>
    <dc:format>image/svg+xml</dc:format>
    <dc:creator>
     <cc:Agent>
      <dc:title>Matplotlib v3.7.0, https://matplotlib.org/</dc:title>
     </cc:Agent>
    </dc:creator>
   </cc:Work>
  </rdf:RDF>
 </metadata>
 <defs>
  <style type="text/css">*{stroke-linejoin: round; stroke-linecap: butt}</style>
 </defs>
 <g id="figure_1">
  <g id="patch_1">
   <path d="M 0 180 
L 216 180 
L 216 0 
L 0 0 
z
" style="fill: #ffffff"/>
  </g>
  <g id="axes_1">
   <g id="patch_2">
    <path d="M 46.64 147.04 
L 205.2 147.04 
L 205.2 10.8 
L 46.64 10.8 
L 46.64 147.04 
z
" style="fill: none"/>
   </g>
   <g id="matplotlib.axis_1">
    <g id="xtick_1">
     <g id="line2d_1">
      <path d="M 81.638693 147.04 
L 81.638693 10.8 
" clip-path="url(#pdd03ab0f06)" style="fill: none; stroke: #d3d3d3; stroke-width: 0.8; stroke-linecap: round"/>
     </g>
     <g id="text_1">
      <!-- −1 -->
      <g style="fill: #808080" transform="translate(74.2676 161.638438) scale(0.1 -0.1)">
       <defs>
        <path id="DejaVuSans-2212" d="M 678 2272 
L 4684 2272 
L 4684 1741 
L 678 1741 
L 678 2272 
z
" transform="scale(0.015625)"/>
        <path id="DejaVuSans-31" d="M 794 531 
L 1825 531 
L 1825 4091 
L 703 3866 
L 703 4441 
L 1819 4666 
L 2450 4666 
L 2450 531 
L 3481 531 
L 3481 0 
L 794 0 
L 794 531 
z
" transform="scale(0.015625)"/>
       </defs>
       <use xlink:href="#DejaVuSans-2212"/>
       <use xlink:href="#DejaVuSans-31" x="83.789062"/>
      </g>
     </g>
    </g>
    <g id="xtick_2">
     <g id="line2d_2">
      <path d="M 120.423371 147.04 
L 120.423371 10.8 
" clip-path="url(#pdd03ab0f06)" style="fill: none; stroke: #d3d3d3; stroke-width: 0.8; stroke-linecap: round"/>
     </g>
     <g id="text_2">
      <!-- 0 -->
      <g style="fill: #808080" transform="translate(117.242121 161.638438) scale(0.1 -0.1)">
       <defs>
        <path id="DejaVuSans-30" d="M 2034 4250 
Q 1547 4250 1301 3770 
Q 1056 3291 1056 2328 
Q 1056 1369 1301 889 
Q 1547 409 2034 409 
Q 2525 409 2770 889 
Q 3016 1369 3016 2328 
Q 3016 3291 2770 3770 
Q 2525 4250 2034 4250 
z
M 2034 4750 
Q 2819 4750 3233 4129 
Q 3647 3509 3647 2328 
Q 3647 1150 3233 529 
Q 2819 -91 2034 -91 
Q 1250 -91 836 529 
Q 422 1150 422 2328 
Q 422 3509 836 4129 
Q 1250 4750 2034 4750 
z
" transform="scale(0.015625)"/>
       </defs>
       <use xlink:href="#DejaVuSans-30"/>
      </g>
     </g>
    </g>
    <g id="xtick_3">
     <g id="line2d_3">
      <path d="M 159.208049 147.04 
L 159.208049 10.8 
" clip-path="url(#pdd03ab0f06)" style="fill: none; stroke: #d3d3d3; stroke-width: 0.8; stroke-linecap: round"/>
     </g>
     <g id="text_3">
      <!-- 1 -->
      <g style="fill: #808080" transform="translate(156.026799 161.638438) scale(0.1 -0.1)">
       <use xlink:href="#DejaVuSans-31"/>
      </g>
     </g>
    </g>
    <g id="xtick_4">
     <g id="line2d_4">
      <path d="M 197.992727 147.04 
L 197.992727 10.8 
" clip-path="url(#pdd03ab0f06)" style="fill: none; stroke: #d3d3d3; stroke-width: 0.8; stroke-linecap: round"/>
     </g>
     <g id="text_4">
      <!-- 2 -->
      <g style="fill: #808080" transform="translate(194.811477 161.638438) scale(0.1 -0.1)">
       <defs>
        <path id="DejaVuSans-32" d="M 1228 531 
L 3431 531 
L 3431 0 
L 469 0 
L 469 531 
Q 828 903 1448 1529 
Q 2069 2156 2228 2338 
Q 2531 2678 2651 2914 
Q 2772 3150 2772 3378 
Q 2772 3750 2511 3984 
Q 2250 4219 1831 4219 
Q 1534 4219 1204 4116 
Q 875 4013 500 3803 
L 500 4441 
Q 881 4594 1212 4672 
Q 1544 4750 1819 4750 
Q 2544 4750 2975 4387 
Q 3406 4025 3406 3419 
Q 3406 3131 3298 2873 
Q 3191 2616 2906 2266 
Q 2828 2175 2409 1742 
Q 1991 1309 1228 531 
z
" transform="scale(0.015625)"/>
       </defs>
       <use xlink:href="#DejaVuSans-32"/>
      </g>
     </g>
    </g>
    <g id="text_5">
     <!-- x -->
     <g style="fill: #262626" transform="translate(122.960625 175.316563) scale(0.1 -0.1)">
      <defs>
       <path id="DejaVuSans-78" d="M 3513 3500 
L 2247 1797 
L 3578 0 
L 2900 0 
L 1881 1375 
L 863 0 
L 184 0 
L 1544 1831 
L 300 3500 
L 978 3500 
L 1906 2253 
L 2834 3500 
L 3513 3500 
z
" transform="scale(0.015625)"/>
      </defs>
      <use xlink:href="#DejaVuSans-78"/>
     </g>
    </g>
   </g>
   <g id="matplotlib.axis_2">
    <g id="ytick_1">
     <g id="line2d_5">
      <path d="M 46.64 138.662847 
L 205.2 138.662847 
" clip-path="url(#pdd03ab0f06)" style="fill: none; stroke: #d3d3d3; stroke-width: 0.8; stroke-linecap: round"/>
     </g>
     <g id="text_6">
      <!-- −2 -->
      <g style="fill: #808080" transform="translate(24.897813 142.462066) scale(0.1 -0.1)">
       <use xlink:href="#DejaVuSans-2212"/>
       <use xlink:href="#DejaVuSans-32" x="83.789062"/>
      </g>
     </g>
    </g>
    <g id="ytick_2">
     <g id="line2d_6">
      <path d="M 46.64 106.453977 
L 205.2 106.453977 
" clip-path="url(#pdd03ab0f06)" style="fill: none; stroke: #d3d3d3; stroke-width: 0.8; stroke-linecap: round"/>
     </g>
     <g id="text_7">
      <!-- −1 -->
      <g style="fill: #808080" transform="translate(24.897813 110.253196) scale(0.1 -0.1)">
       <use xlink:href="#DejaVuSans-2212"/>
       <use xlink:href="#DejaVuSans-31" x="83.789062"/>
      </g>
     </g>
    </g>
    <g id="ytick_3">
     <g id="line2d_7">
      <path d="M 46.64 74.245107 
L 205.2 74.245107 
" clip-path="url(#pdd03ab0f06)" style="fill: none; stroke: #d3d3d3; stroke-width: 0.8; stroke-linecap: round"/>
     </g>
     <g id="text_8">
      <!-- 0 -->
      <g style="fill: #808080" transform="translate(33.2775 78.044326) scale(0.1 -0.1)">
       <use xlink:href="#DejaVuSans-30"/>
      </g>
     </g>
    </g>
    <g id="ytick_4">
     <g id="line2d_8">
      <path d="M 46.64 42.036237 
L 205.2 42.036237 
" clip-path="url(#pdd03ab0f06)" style="fill: none; stroke: #d3d3d3; stroke-width: 0.8; stroke-linecap: round"/>
     </g>
     <g id="text_9">
      <!-- 1 -->
      <g style="fill: #808080" transform="translate(33.2775 45.835456) scale(0.1 -0.1)">
       <use xlink:href="#DejaVuSans-31"/>
      </g>
     </g>
    </g>
    <g id="text_10">
     <!-- y -->
     <g style="fill: #262626" transform="translate(18.818125 81.879375) rotate(-90) scale(0.1 -0.1)">
      <defs>
       <path id="DejaVuSans-79" d="M 2059 -325 
Q 1816 -950 1584 -1140 
Q 1353 -1331 966 -1331 
L 506 -1331 
L 506 -850 
L 844 -850 
Q 1081 -850 1212 -737 
Q 1344 -625 1503 -206 
L 1606 56 
L 191 3500 
L 800 3500 
L 1894 763 
L 2988 3500 
L 3597 3500 
L 2059 -325 
z
" transform="scale(0.015625)"/>
      </defs>
      <use xlink:href="#DejaVuSans-79"/>
     </g>
    </g>
   </g>
   <g id="line2d_9">
    <path d="M 197.992727 74.245107 
L 195.468197 81.458445 
L 188.472115 102.755587 
L 187.070033 106.40697 
L 185.511276 110.089528 
L 183.75884 113.785586 
L 181.774826 117.465644 
L 179.521516 121.086828 
L 176.962983 124.592444 
L 174.06727 127.913491 
L 170.809062 130.973016 
L 167.172626 133.693674 
L 163.15458 136.007847 
L 158.765807 137.868333 
L 154.031773 139.256563 
L 148.990741 140.185489 
L 143.690011 140.695904 
L 138.181022 140.847273 
L 132.514656 140.705965 
L 126.737976 140.334047 
L 120.893092 139.780838 
L 115.018191 139.078073 
L 109.150291 138.238476 
L 103.328919 137.257176 
L 97.599811 136.115384 
L 92.017577 134.785881 
L 86.646262 133.239802 
L 81.556983 131.453861 
L 76.822432 129.416742 
L 72.509095 127.133184 
L 68.668992 124.624662 
L 65.333219 121.926569 
L 62.508996 119.082905 
L 60.180699 116.140163 
L 58.314096 113.141985 
L 56.86222 110.125565 
L 55.77139 107.119932 
L 54.986306 104.145777 
L 54.453764 101.216263 
L 54.124997 98.338282 
L 53.956873 95.513823 
L 53.959984 90.016142 
L 54.234131 84.68297 
L 55.267867 71.653743 
L 56.632826 55.421594 
L 57.346289 49.670939 
L 58.422514 43.776121 
L 59.161694 40.809254 
L 60.074334 37.861142 
L 61.191166 34.96494 
L 62.54183 32.16096 
L 64.152616 29.495077 
L 66.043886 27.015738 
L 68.227526 24.769642 
L 70.704888 22.79657 
L 73.465725 21.124353 
L 76.488502 19.76511 
L 79.742172 18.713747 
L 83.189141 17.949109 
L 86.788864 17.4374 
L 90.501373 17.136939 
L 94.29016 17.003129 
L 101.978224 17.066951 
L 117.300195 17.667096 
L 139.363999 18.622749 
L 146.275367 19.217905 
L 149.583486 19.647353 
L 152.763179 20.189434 
L 155.789583 20.859464 
L 158.637811 21.668565 
L 161.284818 22.622626 
L 163.711255 23.721772 
L 165.903048 24.960411 
L 167.852451 26.327871 
L 169.558432 27.809505 
L 171.026374 29.388051 
L 172.267229 31.045042 
L 173.296302 32.762059 
L 174.131901 34.521725 
L 174.794011 36.308376 
L 175.303161 38.108442 
L 175.942184 41.705586 
L 176.195599 45.247303 
L 176.184313 48.695848 
L 175.868696 53.659845 
L 175.20086 59.889869 
L 173.269566 76.73431 
L 172.203037 86.070176 
L 171.331857 91.432362 
L 170.413052 95.476841 
L 169.622193 98.171397 
L 168.653963 100.847274 
L 167.478353 103.481851 
L 166.066764 106.045215 
L 164.393935 108.50075 
L 162.440173 110.806951 
L 160.193619 112.920659 
L 157.652186 114.801554 
L 154.824686 116.417269 
L 151.730751 117.748009 
L 148.39937 118.78949 
L 144.8662 119.553297 
L 141.170157 120.064564 
L 137.349987 120.357629 
L 133.441463 120.470804 
L 127.479483 120.383575 
L 121.470283 120.076329 
L 113.490343 119.421775 
L 107.599664 118.755305 
L 101.860853 117.897298 
L 98.161525 117.187392 
L 94.600589 116.342494 
L 91.214865 115.343501 
L 88.043235 114.176462 
L 85.1233 112.835019 
L 82.487494 111.321778 
L 80.159434 109.64827 
L 78.151324 107.833551 
L 76.462954 105.901807 
L 75.082385 103.879546 
L 73.987979 101.79299 
L 73.151205 99.666043 
L 72.53959 97.519026 
L 72.119368 95.368119 
L 71.776348 92.159751 
L 71.689383 88.99405 
L 71.828818 84.855694 
L 72.302231 78.810566 
L 73.933354 62.058651 
L 74.496747 58.105306 
L 75.298848 54.189578 
L 76.132858 51.32466 
L 77.228001 48.575188 
L 78.128622 46.835747 
L 79.180218 45.19346 
L 80.391321 43.667235 
L 81.765944 42.274202 
L 83.302993 41.02821 
L 84.99611 39.938521 
L 86.834016 39.008921 
L 88.801335 38.23742 
L 90.879771 37.616581 
L 94.162243 36.940594 
L 97.583307 36.522698 
L 101.08314 36.303318 
L 105.790738 36.221842 
L 112.794634 36.338491 
L 126.23317 36.815104 
L 133.602148 37.275251 
L 137.589038 37.705473 
L 141.350335 38.328289 
L 143.984995 38.953716 
L 146.428897 39.734034 
L 148.656651 40.679198 
L 150.648494 41.791066 
L 152.392746 43.063276 
L 153.887159 44.482234 
L 155.13894 46.02897 
L 156.163556 47.681409 
L 156.982722 49.416615 
L 157.622052 51.212649 
L 158.241861 53.668475 
L 158.653732 56.159892 
L 158.962715 59.283039 
L 159.187662 64.231354 
L 159.476803 79.251594 
L 159.410029 84.67671 
L 159.136623 88.329918 
L 158.67035 91.376592 
L 158.084762 93.790885 
L 157.265117 96.15457 
L 156.473012 97.871988 
L 155.512774 99.521515 
L 154.373241 101.082982 
L 153.047435 102.53586 
L 151.53341 103.86081 
L 149.834773 105.041397 
L 147.960729 106.065705 
L 145.9256 106.927572 
L 143.747848 107.627184 
L 141.448732 108.170916 
L 138.233432 108.674219 
L 134.894899 108.959417 
L 130.619731 109.074906 
L 125.435918 108.964616 
L 118.576417 108.559318 
L 111.903095 107.951953 
L 106.314643 107.226757 
L 102.529833 106.54675 
L 98.978181 105.685652 
L 96.346979 104.841829 
L 93.938215 103.846645 
L 91.781312 102.696004 
L 89.898398 101.394829 
L 88.301271 99.956487 
L 86.989881 98.400893 
L 85.952623 96.751836 
L 85.168191 95.034169 
L 84.608408 93.271442 
L 84.1758 91.035697 
L 83.980341 88.793276 
L 83.974919 86.12422 
L 84.214986 82.636448 
L 84.865896 77.171837 
L 86.536279 65.3047 
L 87.220332 61.935279 
L 87.934222 59.422543 
L 88.725875 57.380129 
L 89.722287 55.476366 
L 90.729482 54.02166 
L 91.907462 52.707095 
L 93.257351 51.547569 
L 94.771982 50.551917 
L 96.436618 49.721719 
L 98.230667 49.051188 
L 100.520276 48.439764 
L 103.325373 47.954704 
L 106.631055 47.634902 
L 110.806142 47.475179 
L 116.572907 47.503717 
L 123.296896 47.757978 
L 128.152264 48.138697 
L 131.656556 48.614176 
L 134.583361 49.235187 
L 136.960261 49.975781 
L 138.837443 50.785856 
L 140.506062 51.752441 
L 141.95579 52.871697 
L 143.186113 54.131867 
L 144.206506 55.515116 
L 145.035077 57.000081 
L 145.77855 58.793226 
L 146.405456 60.896291 
L 146.954707 63.540221 
L 147.512273 67.449573 
L 148.828839 79.158113 
L 149.090952 83.034578 
L 149.065649 85.913254 
L 148.815097 88.258573 
L 148.354568 90.29914 
L 147.726231 92.016407 
L 146.996894 93.410896 
L 146.07748 94.709748 
L 144.961566 95.890632 
L 143.65056 96.934068 
L 142.154101 97.825658 
L 140.489471 98.557816 
L 138.680062 99.130584 
L 136.422629 99.607564 
L 133.705402 99.928059 
L 130.550124 100.054428 
L 126.659199 99.963928 
L 121.799302 99.607146 
L 116.20222 98.973903 
L 111.354095 98.222461 
L 107.787225 97.46224 
L 105.081304 96.673315 
L 102.907058 95.815751 
L 101.206503 94.920065 
L 99.762704 93.907442 
L 98.579725 92.786587 
L 97.651134 91.572813 
L 96.960506 90.285614 
L 96.483433 88.945968 
L 96.167854 87.42035 
L 96.02817 85.570155 
L 96.104363 83.4235 
L 96.433223 80.728555 
L 97.232042 76.324619 
L 99.008191 67.806215 
L 99.746556 65.323363 
L 100.527667 63.452083 
L 101.404326 61.940389 
L 102.407789 60.675841 
L 103.511921 59.64333 
L 104.774766 58.760398 
L 106.289084 57.979459 
L 108.060313 57.323432 
L 110.200553 56.777946 
L 112.827742 56.352686 
L 116.044038 56.073015 
L 119.653096 55.984723 
L 123.170375 56.116397 
L 126.034889 56.433731 
L 128.366331 56.903618 
L 130.288483 57.509999 
L 131.911781 58.256992 
L 133.248431 59.118241 
L 134.386843 60.122433 
L 135.332116 61.25312 
L 136.140938 62.563987 
L 136.844135 64.124344 
L 137.483854 66.093787 
L 138.165092 68.985764 
L 140.065685 78.684388 
L 140.472209 81.66891 
L 140.546785 83.814026 
L 140.384966 85.541656 
L 140.044618 86.923923 
L 139.526005 88.132519 
L 138.85336 89.155305 
L 137.990777 90.056894 
L 136.943823 90.817023 
L 135.729393 91.422719 
L 134.264876 91.897911 
L 132.561682 92.211075 
L 130.531585 92.347044 
L 128.225631 92.273482 
L 125.614266 91.969011 
L 122.726803 91.410752 
L 119.764317 90.609422 
L 117.246429 89.706847 
L 115.241759 88.763335 
L 113.691688 87.792756 
L 112.530311 86.804922 
L 111.663467 85.771988 
L 111.052742 84.702837 
L 110.634319 83.526445 
L 110.392481 82.169324 
L 110.335449 80.521858 
L 110.498894 78.290381 
L 111.172476 73.204155 
L 111.838589 69.15054 
L 112.355297 67.393377 
L 112.959114 66.101812 
L 113.697338 65.040871 
L 114.586185 64.149676 
L 115.660989 63.38503 
L 116.979472 62.725621 
L 118.541813 62.197948 
L 120.325551 61.831763 
L 122.239256 61.666649 
L 124.081099 61.726287 
L 125.73602 61.993941 
L 127.193606 62.452044 
L 128.427669 63.072515 
L 129.463423 63.840169 
L 130.350191 64.775366 
L 131.119568 65.917926 
L 131.535308 66.727615 
L 131.535308 66.727615 
" clip-path="url(#pdd03ab0f06)" style="fill: none; stroke: #1f77b4; stroke-width: 1.5; stroke-linecap: round"/>
   </g>
   <g id="line2d_10">
    <path d="M 197.992727 74.245107 
L 197.017174 89.422746 
L 196.590874 94.339143 
L 196.032288 99.156253 
L 195.274945 103.84148 
L 194.24649 108.35076 
L 192.874821 112.630155 
L 191.095552 116.619595 
L 188.859918 120.258703 
L 186.14167 123.493987 
L 182.941315 126.286078 
L 179.286454 128.615388 
L 175.227956 130.484821 
L 170.832892 131.918978 
L 166.175952 132.960288 
L 161.331234 133.663228 
L 156.365848 134.08804 
L 151.335948 134.2951 
L 146.285139 134.340595 
L 136.23528 134.13493 
L 111.891692 133.155916 
L 97.90542 132.424564 
L 93.384235 132.06688 
L 88.964348 131.604524 
L 84.67403 131.004172 
L 80.547577 130.231889 
L 76.623863 129.255492 
L 72.943999 128.04718 
L 69.548205 126.586134 
L 66.472247 124.860701 
L 63.743914 122.869775 
L 61.380143 120.623061 
L 59.385275 118.140132 
L 57.750749 115.448436 
L 56.456202 112.580612 
L 55.471698 109.571577 
L 54.760621 106.455828 
L 54.28274 103.265288 
L 53.997023 100.027835 
L 53.863959 96.76654 
L 53.915038 90.240069 
L 54.381535 80.583496 
L 55.541303 61.989217 
L 56.071108 56.033962 
L 56.864544 50.26757 
L 57.413602 47.483564 
L 58.094609 44.78579 
L 58.929707 42.191858 
L 59.939043 39.72061 
L 61.139478 37.391167 
L 62.543389 35.221804 
L 64.157698 33.228739 
L 65.983268 31.424967 
L 68.014765 29.819295 
L 70.241017 28.415679 
L 72.645833 27.212965 
L 75.20918 26.205039 
L 77.908555 25.381358 
L 80.720397 24.727759 
L 83.621376 24.227443 
L 86.589471 23.861993 
L 92.649896 23.459678 
L 98.774543 23.374752 
L 107.910568 23.577092 
L 131.399956 24.543865 
L 139.828737 25.019717 
L 145.27809 25.490014 
L 150.526066 26.172447 
L 155.49127 27.150962 
L 157.837694 27.776195 
L 160.076221 28.503475 
L 162.194227 29.339423 
L 164.179933 30.288676 
L 166.022997 31.353611 
L 167.715052 32.534193 
L 169.250158 33.827948 
L 170.625126 35.230086 
L 171.83967 36.733749 
L 172.896397 38.330379 
L 173.80063 40.010151 
L 174.560091 41.762441 
L 175.184482 43.576294 
L 175.685011 45.440855 
L 176.363842 49.281253 
L 176.698016 53.210532 
L 176.784993 57.172123 
L 176.633124 63.09369 
L 175.982518 74.665979 
L 175.100227 87.623394 
L 174.483269 92.941406 
L 173.878702 96.358692 
L 173.053975 99.632385 
L 171.954274 102.718894 
L 170.53285 105.571002 
L 169.69067 106.894666 
L 168.757363 108.143065 
L 167.731966 109.311734 
L 166.614909 110.397045 
L 165.408002 111.396353 
L 164.11438 112.308094 
L 162.738376 113.131842 
L 159.761548 114.519353 
L 156.529192 115.577402 
L 153.099211 116.338789 
L 149.52902 116.845888 
L 145.87035 117.14552 
L 140.307528 117.307214 
L 132.89816 117.196702 
L 118.456554 116.63366 
L 104.627566 115.958456 
L 99.655021 115.544875 
L 94.875621 114.928577 
L 91.837744 114.361514 
L 88.953217 113.640117 
L 86.253939 112.742898 
L 83.771015 111.653995 
L 81.53183 110.364931 
L 79.557195 108.875678 
L 77.859074 107.194781 
L 76.439298 105.338469 
L 75.289496 103.328915 
L 74.392179 101.191985 
L 73.722708 98.954863 
L 73.251726 96.643934 
L 72.947633 94.283158 
L 72.735639 90.69231 
L 72.759472 85.888589 
L 73.099635 78.78047 
L 74.140142 62.906722 
L 74.634309 58.602334 
L 75.180391 55.490404 
L 75.942461 52.519495 
L 76.599076 50.63976 
L 77.392195 48.857867 
L 78.333723 47.188519 
L 79.43167 45.645374 
L 80.689463 44.240066 
L 82.10561 42.981301 
L 83.673765 41.874169 
L 85.383206 40.919756 
L 87.219674 40.115098 
L 89.166425 39.453477 
L 92.253725 38.706892 
L 95.487597 38.21651 
L 98.812684 37.93354 
L 103.31071 37.794452 
L 108.934473 37.85996 
L 119.940596 38.273607 
L 134.650378 38.994383 
L 139.625663 39.465979 
L 143.416595 40.043552 
L 146.105456 40.636113 
L 148.625653 41.392724 
L 150.943901 42.332401 
L 153.030032 43.46641 
L 154.860525 44.796703 
L 156.421448 46.315519 
L 157.7102 48.00629 
L 158.735688 49.84569 
L 159.517002 51.80636 
L 160.080978 53.85976 
L 160.459213 55.978657 
L 160.732294 58.86463 
L 160.80827 62.508141 
L 160.63925 67.579191 
L 159.841298 80.832176 
L 159.361323 86.145866 
L 158.878448 89.336973 
L 158.324161 91.78072 
L 157.573486 94.092798 
L 156.858132 95.718706 
L 155.997797 97.234721 
L 154.984193 98.626545 
L 153.814233 99.882239 
L 152.490398 100.993286 
L 151.020563 101.955371 
L 149.417298 102.768749 
L 147.69676 103.438162 
L 145.252214 104.122328 
L 142.677302 104.595454 
L 139.340292 104.943436 
L 135.253048 105.097677 
L 129.795995 105.035833 
L 118.506673 104.598702 
L 108.363184 104.083939 
L 104.13908 103.682366 
L 100.698893 103.147271 
L 98.013907 102.515031 
L 95.54498 101.677118 
L 93.756897 100.842699 
L 92.157301 99.856435 
L 90.760734 98.720014 
L 89.574329 97.441838 
L 88.597033 96.03608 
L 87.819854 94.521103 
L 87.227022 92.917546 
L 86.713274 90.820467 
L 86.408398 88.655826 
L 86.250952 86.013589 
L 86.271777 82.478895 
L 86.577291 76.394099 
L 87.34726 65.19915 
L 87.830834 61.685899 
L 88.424994 59.095662 
L 89.14625 57.018507 
L 89.926922 55.417576 
L 90.888143 53.958099 
L 92.03747 52.658786 
L 93.373037 51.533007 
L 94.88367 50.58707 
L 96.550289 49.819446 
L 98.348273 49.221102 
L 100.640734 48.704715 
L 103.442391 48.336308 
L 106.733393 48.149611 
L 111.291736 48.150819 
L 119.418584 48.441375 
L 131.39234 49.044695 
L 135.367032 49.481936 
L 138.084771 49.982182 
L 140.293353 50.588934 
L 142.300784 51.380489 
L 143.832689 52.217615 
L 145.170978 53.202975 
L 146.305223 54.33022 
L 147.234058 55.586065 
L 147.965231 56.952012 
L 148.589706 58.656096 
L 149.001331 60.445933 
L 149.262701 62.555641 
L 149.363979 65.233541 
L 149.265491 68.972642 
L 148.684502 78.747386 
L 148.279463 83.141586 
L 147.800956 85.925756 
L 147.253738 87.890313 
L 146.59041 89.513539 
L 145.734252 90.991359 
L 144.815313 92.144752 
L 143.736211 93.153713 
L 142.503774 94.010602 
L 141.13214 94.714368 
L 139.419506 95.338618 
L 137.348893 95.832804 
L 134.927333 96.16504 
L 131.933836 96.337246 
L 127.912853 96.328863 
L 119.81625 96.027683 
L 110.736832 95.543919 
L 107.258452 95.127911 
L 104.829401 94.627997 
L 102.796302 93.981682 
L 101.150984 93.214836 
L 99.861897 92.371513 
L 98.769566 91.386445 
L 97.878558 90.271376 
L 97.183044 89.04456 
L 96.62087 87.577359 
L 96.22274 85.87352 
L 95.985365 83.789324 
L 95.928152 81.187778 
L 96.089659 77.1603 
L 96.74867 67.509325 
L 97.153662 64.799603 
L 97.677665 62.794049 
L 98.33413 61.196066 
L 99.062979 59.975126 
L 99.962627 58.896396 
L 101.033129 57.974898 
L 102.263644 57.217675 
L 103.7648 56.576339 
L 105.539392 56.082568 
L 107.570762 55.750629 
L 110.130383 55.56127 
L 113.637473 55.541679 
L 120.355902 55.781813 
L 128.973279 56.246839 
L 131.979971 56.637524 
L 134.14809 57.134541 
L 135.880794 57.760563 
L 137.209643 58.468108 
L 138.339449 59.327812 
L 139.199991 60.254842 
L 139.924927 61.374669 
L 140.454287 62.596434 
L 140.850852 64.082821 
L 141.09319 65.922457 
L 141.159704 68.288397 
L 141.009409 71.999564 
L 140.419937 80.334706 
L 140.034432 82.646662 
L 139.543863 84.319202 
L 138.94447 85.626151 
L 138.203172 86.723762 
L 137.342348 87.615568 
L 136.327891 88.358836 
L 135.098538 88.983082 
L 133.656747 89.467268 
L 131.842585 89.830649 
L 129.574725 90.04181 
L 126.523366 90.083637 
L 120.804475 89.887909 
L 112.841394 89.447481 
L 110.252819 89.077621 
L 108.393655 88.602313 
L 106.936132 88.009271 
L 105.793863 87.3127 
L 104.892475 86.513026 
L 104.178665 85.592502 
L 103.62309 84.517644 
L 103.217578 83.245577 
L 102.960101 81.673494 
L 102.868151 79.643684 
L 102.97728 76.495982 
L 103.505311 69.014193 
L 103.878439 66.896342 
L 104.353291 65.423049 
L 104.948128 64.271207 
L 105.669367 63.342424 
L 106.557635 62.565323 
L 107.601246 61.948351 
L 108.875345 61.457573 
L 110.423796 61.103348 
L 112.392502 60.888968 
L 115.083057 60.835365 
L 120.150978 61.005415 
L 127.094565 61.402644 
L 129.397892 61.765348 
L 131.040869 62.24439 
L 132.28002 62.833884 
L 133.221119 63.519167 
L 133.967675 64.337749 
L 134.460629 65.144354 
L 134.460629 65.144354 
" clip-path="url(#pdd03ab0f06)" style="fill: none; stroke: #ff7f0e; stroke-opacity: 0.5; stroke-width: 1.5; stroke-linecap: round"/>
   </g>
   <g id="patch_3">
    <path d="M 46.64 147.04 
L 46.64 10.8 
" style="fill: none; stroke: #ffffff; stroke-width: 0.8; stroke-linejoin: miter; stroke-linecap: square"/>
   </g>
   <g id="patch_4">
    <path d="M 205.2 147.04 
L 205.2 10.8 
" style="fill: none; stroke: #ffffff; stroke-width: 0.8; stroke-linejoin: miter; stroke-linecap: square"/>
   </g>
   <g id="patch_5">
    <path d="M 46.64 147.04 
L 205.2 147.04 
" style="fill: none; stroke: #ffffff; stroke-width: 0.8; stroke-linejoin: miter; stroke-linecap: square"/>
   </g>
   <g id="patch_6">
    <path d="M 46.64 10.8 
L 205.2 10.8 
" style="fill: none; stroke: #ffffff; stroke-width: 0.8; stroke-linejoin: miter; stroke-linecap: square"/>
   </g>
  </g>
 </g>
 <defs>
  <clipPath id="pdd03ab0f06">
   <rect x="46.64" y="10.8" width="158.56" height="136.24"/>
  </clipPath>
 </defs>
</svg>
