<?xml version="1.0" encoding="utf-8" standalone="no"?>
<!DOCTYPE svg PUBLIC "-//W3C//DTD SVG 1.1//EN"
  "http://www.w3.org/Graphics/SVG/1.1/DTD/svg11.dtd">
<svg xmlns:xlink="http://www.w3.org/1999/xlink" width="216pt" height="180pt" viewBox="0 0 216 180" xmlns="http://www.w3.org/2000/svg" version="1.1">
 <metadata>
  <rdf:RDF xmlns:dc="http://purl.org/dc/elements/1.1/" xmlns:cc="http://creativecommons.org/ns#" xmlns:rdf="http://www.w3.org/1999/02/22-rdf-syntax-ns#">
   <cc:Work>
    <dc:type rdf:resource="http://purl.org/dc/dcmitype/StillImage"/>
    <dc:date>2023-06-14T18:47:03.304377</dc:date>
    <dc:format>image/svg+xml</dc:format>
    <dc:creator>
     <cc:Agent>
      <dc:title>Matplotlib v3.7.0, https://matplotlib.org/</dc:title>
     </cc:Agent>
    </dc:creator>
   </cc:Work>
  </rdf:RDF>
 </metadata>
 <defs>
  <style type="text/css">*{stroke-linejoin: round; stroke-linecap: butt}</style>
 </defs>
 <g id="figure_1">
  <g id="patch_1">
   <path d="M 0 180 
L 216 180 
L 216 0 
L 0 0 
z
" style="fill: #ffffff"/>
  </g>
  <g id="patch_2">
   <path d="M -1 169.2 
L 174.6 169.2 
L 174.6 -1 
" style="fill: none"/>
  </g>
  <g id="pane3d_1">
   <g id="patch_3">
    <path d="M 11.519416 125.705413 
L 69.772457 76.876559 
L 68.962684 6.456623 
L 7.921935 51.001381 
" style="fill: none; opacity: 0.5; stroke: #f2f2f2; stroke-linejoin: miter"/>
   </g>
  </g>
  <g id="pane3d_2">
   <g id="patch_4">
    <path d="M 69.772457 76.876559 
L 163.247803 104.046152 
L 166.583609 31.200681 
L 68.962684 6.456623 
" style="fill: none; opacity: 0.5; stroke: #e6e6e6; stroke-linejoin: miter"/>
   </g>
  </g>
  <g id="pane3d_3">
   <g id="patch_5">
    <path d="M 11.519416 125.705413 
L 110.607849 158.067695 
L 163.247803 104.046152 
L 69.772457 76.876559 
" style="fill: none; opacity: 0.5; stroke: #ececec; stroke-linejoin: miter"/>
   </g>
  </g>
  <g id="axis3d_1">
   <g id="line2d_1">
    <path d="M 11.519416 125.705413 
L 110.607849 158.067695 
" style="fill: none; stroke: #ffffff; stroke-width: 0.8; stroke-linecap: round"/>
   </g>
   <g id="text_1">
    <!-- x -->
    <g style="fill: #262626" transform="translate(40.437569 179.640981) scale(0.1 -0.1)">
     <defs>
      <path id="DejaVuSans-78" d="M 3513 3500 
L 2247 1797 
L 3578 0 
L 2900 0 
L 1881 1375 
L 863 0 
L 184 0 
L 1544 1831 
L 300 3500 
L 978 3500 
L 1906 2253 
L 2834 3500 
L 3513 3500 
z
" transform="scale(0.015625)"/>
     </defs>
     <use xlink:href="#DejaVuSans-78"/>
    </g>
   </g>
   <g id="Line3DCollection_1">
    <path d="M 33.293745 132.816909 
L 90.384178 82.867573 
L 90.453122 11.903822 
" style="fill: none; stroke: #d3d3d3; stroke-width: 0.8"/>
    <path d="M 59.754347 141.458941 
L 115.37812 90.132325 
L 116.539443 18.515944 
" style="fill: none; stroke: #d3d3d3; stroke-width: 0.8"/>
    <path d="M 86.982219 150.351564 
L 141.035352 97.589869 
L 143.348693 25.311307 
" style="fill: none; stroke: #d3d3d3; stroke-width: 0.8"/>
   </g>
   <g id="xtick_1">
    <g id="line2d_2">
     <path d="M 88.783784 78.616216 
" clip-path="url(#p9aadce50d8)" style="fill: none; stroke: #d3d3d3; stroke-width: 0.8; stroke-linecap: round"/>
    </g>
    <g id="line2d_3">
     <path d="M 33.791232 132.381649 
L 32.296618 133.689312 
" style="fill: none; stroke: #808080; stroke-width: 0.8; stroke-linecap: round"/>
    </g>
    <g id="text_2">
     <!-- −0.2 -->
     <g style="fill: #808080" transform="translate(13.633233 156.321018) scale(0.1 -0.1)">
      <defs>
       <path id="DejaVuSans-2212" d="M 678 2272 
L 4684 2272 
L 4684 1741 
L 678 1741 
L 678 2272 
z
" transform="scale(0.015625)"/>
       <path id="DejaVuSans-30" d="M 2034 4250 
Q 1547 4250 1301 3770 
Q 1056 3291 1056 2328 
Q 1056 1369 1301 889 
Q 1547 409 2034 409 
Q 2525 409 2770 889 
Q 3016 1369 3016 2328 
Q 3016 3291 2770 3770 
Q 2525 4250 2034 4250 
z
M 2034 4750 
Q 2819 4750 3233 4129 
Q 3647 3509 3647 2328 
Q 3647 1150 3233 529 
Q 2819 -91 2034 -91 
Q 1250 -91 836 529 
Q 422 1150 422 2328 
Q 422 3509 836 4129 
Q 1250 4750 2034 4750 
z
" transform="scale(0.015625)"/>
       <path id="DejaVuSans-2e" d="M 684 794 
L 1344 794 
L 1344 0 
L 684 0 
L 684 794 
z
" transform="scale(0.015625)"/>
       <path id="DejaVuSans-32" d="M 1228 531 
L 3431 531 
L 3431 0 
L 469 0 
L 469 531 
Q 828 903 1448 1529 
Q 2069 2156 2228 2338 
Q 2531 2678 2651 2914 
Q 2772 3150 2772 3378 
Q 2772 3750 2511 3984 
Q 2250 4219 1831 4219 
Q 1534 4219 1204 4116 
Q 875 4013 500 3803 
L 500 4441 
Q 881 4594 1212 4672 
Q 1544 4750 1819 4750 
Q 2544 4750 2975 4387 
Q 3406 4025 3406 3419 
Q 3406 3131 3298 2873 
Q 3191 2616 2906 2266 
Q 2828 2175 2409 1742 
Q 1991 1309 1228 531 
z
" transform="scale(0.015625)"/>
      </defs>
      <use xlink:href="#DejaVuSans-2212"/>
      <use xlink:href="#DejaVuSans-30" x="83.789062"/>
      <use xlink:href="#DejaVuSans-2e" x="147.412109"/>
      <use xlink:href="#DejaVuSans-32" x="179.199219"/>
     </g>
    </g>
   </g>
   <g id="xtick_2">
    <g id="line2d_4">
     <path d="M 88.783784 78.616216 
" clip-path="url(#p9aadce50d8)" style="fill: none; stroke: #d3d3d3; stroke-width: 0.8; stroke-linecap: round"/>
    </g>
    <g id="line2d_5">
     <path d="M 60.239621 141.011157 
L 58.781669 142.356476 
" style="fill: none; stroke: #808080; stroke-width: 0.8; stroke-linecap: round"/>
    </g>
    <g id="text_3">
     <!-- 0.0 -->
     <g style="fill: #808080" transform="translate(44.32771 165.241345) scale(0.1 -0.1)">
      <use xlink:href="#DejaVuSans-30"/>
      <use xlink:href="#DejaVuSans-2e" x="63.623047"/>
      <use xlink:href="#DejaVuSans-30" x="95.410156"/>
     </g>
    </g>
   </g>
   <g id="xtick_3">
    <g id="line2d_6">
     <path d="M 88.783784 78.616216 
" clip-path="url(#p9aadce50d8)" style="fill: none; stroke: #d3d3d3; stroke-width: 0.8; stroke-linecap: round"/>
    </g>
    <g id="line2d_7">
     <path d="M 87.454357 149.890706 
L 86.035839 151.275333 
" style="fill: none; stroke: #808080; stroke-width: 0.8; stroke-linecap: round"/>
    </g>
    <g id="text_4">
     <!-- 0.2 -->
     <g style="fill: #808080" transform="translate(71.605372 174.421841) scale(0.1 -0.1)">
      <use xlink:href="#DejaVuSans-30"/>
      <use xlink:href="#DejaVuSans-2e" x="63.623047"/>
      <use xlink:href="#DejaVuSans-32" x="95.410156"/>
     </g>
    </g>
   </g>
  </g>
  <g id="axis3d_2">
   <g id="line2d_8">
    <path d="M 163.247803 104.046152 
L 110.607849 158.067695 
" style="fill: none; stroke: #ffffff; stroke-width: 0.8; stroke-linecap: round"/>
   </g>
   <g id="text_5">
    <!-- y -->
    <g style="fill: #262626" transform="translate(162.133934 160.636398) scale(0.1 -0.1)">
     <defs>
      <path id="DejaVuSans-79" d="M 2059 -325 
Q 1816 -950 1584 -1140 
Q 1353 -1331 966 -1331 
L 506 -1331 
L 506 -850 
L 844 -850 
Q 1081 -850 1212 -737 
Q 1344 -625 1503 -206 
L 1606 56 
L 191 3500 
L 800 3500 
L 1894 763 
L 2988 3500 
L 3597 3500 
L 2059 -325 
z
" transform="scale(0.015625)"/>
     </defs>
     <use xlink:href="#DejaVuSans-79"/>
    </g>
   </g>
   <g id="Line3DCollection_2">
    <path d="M 22.544177 40.330735 
L 25.433611 114.042259 
L 123.223615 145.120815 
" style="fill: none; stroke: #d3d3d3; stroke-width: 0.8"/>
    <path d="M 39.76292 27.765281 
L 41.851035 100.280849 
L 138.074802 129.879844 
" style="fill: none; stroke: #d3d3d3; stroke-width: 0.8"/>
    <path d="M 56.157101 15.801554 
L 57.514991 87.151011 
L 152.209992 115.373661 
" style="fill: none; stroke: #d3d3d3; stroke-width: 0.8"/>
   </g>
   <g id="xtick_4">
    <g id="line2d_9">
     <path d="M 88.783784 78.616216 
" clip-path="url(#p9aadce50d8)" style="fill: none; stroke: #d3d3d3; stroke-width: 0.8; stroke-linecap: round"/>
    </g>
    <g id="line2d_10">
     <path d="M 122.40015 144.85911 
L 124.872645 145.644891 
" style="fill: none; stroke: #808080; stroke-width: 0.8; stroke-linecap: round"/>
    </g>
    <g id="text_6">
     <!-- −0.2 -->
     <g style="fill: #808080" transform="translate(123.785112 165.940802) scale(0.1 -0.1)">
      <use xlink:href="#DejaVuSans-2212"/>
      <use xlink:href="#DejaVuSans-30" x="83.789062"/>
      <use xlink:href="#DejaVuSans-2e" x="147.412109"/>
      <use xlink:href="#DejaVuSans-32" x="179.199219"/>
     </g>
    </g>
   </g>
   <g id="xtick_5">
    <g id="line2d_11">
     <path d="M 88.783784 78.616216 
" clip-path="url(#p9aadce50d8)" style="fill: none; stroke: #d3d3d3; stroke-width: 0.8; stroke-linecap: round"/>
    </g>
    <g id="line2d_12">
     <path d="M 137.265525 129.630906 
L 139.695367 130.37834 
" style="fill: none; stroke: #808080; stroke-width: 0.8; stroke-linecap: round"/>
    </g>
    <g id="text_7">
     <!-- 0.0 -->
     <g style="fill: #808080" transform="translate(142.524988 150.359728) scale(0.1 -0.1)">
      <use xlink:href="#DejaVuSans-30"/>
      <use xlink:href="#DejaVuSans-2e" x="63.623047"/>
      <use xlink:href="#DejaVuSans-30" x="95.410156"/>
     </g>
    </g>
   </g>
   <g id="xtick_6">
    <g id="line2d_13">
     <path d="M 88.783784 78.616216 
" clip-path="url(#p9aadce50d8)" style="fill: none; stroke: #d3d3d3; stroke-width: 0.8; stroke-linecap: round"/>
    </g>
    <g id="line2d_14">
     <path d="M 151.414509 115.136577 
L 153.802888 115.848404 
" style="fill: none; stroke: #808080; stroke-width: 0.8; stroke-linecap: round"/>
    </g>
    <g id="text_8">
     <!-- 0.2 -->
     <g style="fill: #808080" transform="translate(156.37295 135.530475) scale(0.1 -0.1)">
      <use xlink:href="#DejaVuSans-30"/>
      <use xlink:href="#DejaVuSans-2e" x="63.623047"/>
      <use xlink:href="#DejaVuSans-32" x="95.410156"/>
     </g>
    </g>
   </g>
  </g>
  <g id="axis3d_3">
   <g id="line2d_15">
    <path d="M 163.247803 104.046152 
L 166.583609 31.200681 
" style="fill: none; stroke: #ffffff; stroke-width: 0.8; stroke-linecap: round"/>
   </g>
   <g id="text_9">
    <!-- z -->
    <g style="fill: #262626" transform="translate(202.494937 65.789607) scale(0.1 -0.1)">
     <defs>
      <path id="DejaVuSans-7a" d="M 353 3500 
L 3084 3500 
L 3084 2975 
L 922 459 
L 3084 459 
L 3084 0 
L 275 0 
L 275 525 
L 2438 3041 
L 353 3041 
L 353 3500 
z
" transform="scale(0.015625)"/>
     </defs>
     <use xlink:href="#DejaVuSans-7a"/>
    </g>
   </g>
   <g id="Line3DCollection_3">
    <path d="M 163.315045 102.57776 
L 69.756101 75.454121 
L 11.447019 124.202043 
" style="fill: none; stroke: #d3d3d3; stroke-width: 0.8"/>
    <path d="M 164.070135 86.088529 
L 69.572517 59.489243 
L 10.633704 107.31301 
" style="fill: none; stroke: #d3d3d3; stroke-width: 0.8"/>
    <path d="M 164.840681 69.261767 
L 69.385357 43.213298 
L 9.803099 90.064973 
" style="fill: none; stroke: #d3d3d3; stroke-width: 0.8"/>
    <path d="M 165.627164 52.087005 
L 69.194514 26.617105 
L 8.954649 72.446362 
" style="fill: none; stroke: #d3d3d3; stroke-width: 0.8"/>
    <path d="M 166.430081 34.553332 
L 68.999879 9.691119 
L 8.087773 54.445105 
" style="fill: none; stroke: #d3d3d3; stroke-width: 0.8"/>
   </g>
   <g id="xtick_7">
    <g id="line2d_16">
     <path d="M 88.783784 78.616216 
" style="fill: none; stroke: #d3d3d3; stroke-width: 0.8; stroke-linecap: round"/>
    </g>
    <g id="line2d_17">
     <path d="M 162.529795 102.350108 
L 164.887415 103.033605 
" style="fill: none; stroke: #808080; stroke-width: 0.8; stroke-linecap: round"/>
    </g>
    <g id="text_10">
     <!-- 0.000 -->
     <g style="fill: #808080" transform="translate(167.237914 107.579465) scale(0.1 -0.1)">
      <use xlink:href="#DejaVuSans-30"/>
      <use xlink:href="#DejaVuSans-2e" x="63.623047"/>
      <use xlink:href="#DejaVuSans-30" x="95.410156"/>
      <use xlink:href="#DejaVuSans-30" x="159.033203"/>
      <use xlink:href="#DejaVuSans-30" x="222.65625"/>
     </g>
    </g>
   </g>
   <g id="xtick_8">
    <g id="line2d_18">
     <path d="M 88.783784 78.616216 
" style="fill: none; stroke: #d3d3d3; stroke-width: 0.8; stroke-linecap: round"/>
    </g>
    <g id="line2d_19">
     <path d="M 163.27663 85.865172 
L 165.659053 86.535779 
" style="fill: none; stroke: #808080; stroke-width: 0.8; stroke-linecap: round"/>
    </g>
    <g id="text_11">
     <!-- 0.025 -->
     <g style="fill: #808080" transform="translate(168.173474 91.139333) scale(0.1 -0.1)">
      <defs>
       <path id="DejaVuSans-35" d="M 691 4666 
L 3169 4666 
L 3169 4134 
L 1269 4134 
L 1269 2991 
Q 1406 3038 1543 3061 
Q 1681 3084 1819 3084 
Q 2600 3084 3056 2656 
Q 3513 2228 3513 1497 
Q 3513 744 3044 326 
Q 2575 -91 1722 -91 
Q 1428 -91 1123 -41 
Q 819 9 494 109 
L 494 744 
Q 775 591 1075 516 
Q 1375 441 1709 441 
Q 2250 441 2565 725 
Q 2881 1009 2881 1497 
Q 2881 1984 2565 2268 
Q 2250 2553 1709 2553 
Q 1456 2553 1204 2497 
Q 953 2441 691 2322 
L 691 4666 
z
" transform="scale(0.015625)"/>
      </defs>
      <use xlink:href="#DejaVuSans-30"/>
      <use xlink:href="#DejaVuSans-2e" x="63.623047"/>
      <use xlink:href="#DejaVuSans-30" x="95.410156"/>
      <use xlink:href="#DejaVuSans-32" x="159.033203"/>
      <use xlink:href="#DejaVuSans-35" x="222.65625"/>
     </g>
    </g>
   </g>
   <g id="xtick_9">
    <g id="line2d_20">
     <path d="M 88.783784 78.616216 
" style="fill: none; stroke: #d3d3d3; stroke-width: 0.8; stroke-linecap: round"/>
    </g>
    <g id="line2d_21">
     <path d="M 164.038747 69.04293 
L 166.446499 69.699973 
" style="fill: none; stroke: #808080; stroke-width: 0.8; stroke-linecap: round"/>
    </g>
    <g id="text_12">
     <!-- 0.050 -->
     <g style="fill: #808080" transform="translate(169.128097 74.364227) scale(0.1 -0.1)">
      <use xlink:href="#DejaVuSans-30"/>
      <use xlink:href="#DejaVuSans-2e" x="63.623047"/>
      <use xlink:href="#DejaVuSans-30" x="95.410156"/>
      <use xlink:href="#DejaVuSans-35" x="159.033203"/>
      <use xlink:href="#DejaVuSans-30" x="222.65625"/>
     </g>
    </g>
   </g>
   <g id="xtick_10">
    <g id="line2d_22">
     <path d="M 88.783784 78.616216 
" style="fill: none; stroke: #d3d3d3; stroke-width: 0.8; stroke-linecap: round"/>
    </g>
    <g id="line2d_23">
     <path d="M 164.816618 51.872922 
L 167.250244 52.515694 
" style="fill: none; stroke: #808080; stroke-width: 0.8; stroke-linecap: round"/>
    </g>
    <g id="text_13">
     <!-- 0.075 -->
     <g style="fill: #808080" transform="translate(170.102371 57.243805) scale(0.1 -0.1)">
      <defs>
       <path id="DejaVuSans-37" d="M 525 4666 
L 3525 4666 
L 3525 4397 
L 1831 0 
L 1172 0 
L 2766 4134 
L 525 4134 
L 525 4666 
z
" transform="scale(0.015625)"/>
      </defs>
      <use xlink:href="#DejaVuSans-30"/>
      <use xlink:href="#DejaVuSans-2e" x="63.623047"/>
      <use xlink:href="#DejaVuSans-30" x="95.410156"/>
      <use xlink:href="#DejaVuSans-37" x="159.033203"/>
      <use xlink:href="#DejaVuSans-35" x="222.65625"/>
     </g>
    </g>
   </g>
   <g id="xtick_11">
    <g id="line2d_24">
     <path d="M 88.783784 78.616216 
" style="fill: none; stroke: #d3d3d3; stroke-width: 0.8; stroke-linecap: round"/>
    </g>
    <g id="line2d_25">
     <path d="M 165.610739 34.344252 
L 168.070798 34.97201 
" style="fill: none; stroke: #808080; stroke-width: 0.8; stroke-linecap: round"/>
    </g>
    <g id="text_14">
     <!-- 0.100 -->
     <g style="fill: #808080" transform="translate(171.096908 39.767293) scale(0.1 -0.1)">
      <defs>
       <path id="DejaVuSans-31" d="M 794 531 
L 1825 531 
L 1825 4091 
L 703 3866 
L 703 4441 
L 1819 4666 
L 2450 4666 
L 2450 531 
L 3481 531 
L 3481 0 
L 794 0 
L 794 531 
z
" transform="scale(0.015625)"/>
      </defs>
      <use xlink:href="#DejaVuSans-30"/>
      <use xlink:href="#DejaVuSans-2e" x="63.623047"/>
      <use xlink:href="#DejaVuSans-31" x="95.410156"/>
      <use xlink:href="#DejaVuSans-30" x="159.033203"/>
      <use xlink:href="#DejaVuSans-30" x="222.65625"/>
     </g>
    </g>
   </g>
  </g>
  <g id="axes_1">
   <g id="line2d_26">
    <path d="M 88.881205 44.372355 
L 88.871416 82.961289 
L 88.674696 105.266562 
L 88.634416 112.809112 
L 88.854874 113.234512 
L 89.013221 113.254434 
L 89.00769 113.204481 
L 88.804331 113.118643 
L 88.449512 113.192925 
L 88.384749 113.363471 
L 88.571798 113.495942 
L 88.991945 113.496655 
L 89.245953 113.312948 
L 89.19451 113.1216 
L 88.908386 112.986092 
L 88.439354 112.995227 
L 88.092261 113.19748 
L 88.069046 113.418921 
L 88.295715 113.617715 
L 88.800943 113.718567 
L 89.354325 113.610985 
L 89.658191 113.366824 
L 89.684193 113.108896 
L 89.470449 112.866237 
L 88.944435 112.683999 
L 88.278146 112.695189 
L 87.701735 112.918515 
L 87.45533 113.227311 
L 87.478153 113.506795 
L 87.712543 113.76735 
L 88.267817 113.99791 
L 89.005588 114.056607 
L 89.753556 113.908313 
L 90.318648 113.568175 
L 90.525719 113.201354 
L 90.455961 112.807048 
L 90.098445 112.447202 
L 89.488698 112.182707 
L 88.706435 112.063342 
L 87.866085 112.118926 
L 87.101059 112.353101 
L 86.543641 112.740717 
L 86.329088 113.101524 
L 86.324848 113.489322 
L 86.544548 113.869243 
L 86.981928 114.204746 
L 87.854387 114.523223 
L 88.947472 114.633546 
L 90.098066 114.496722 
L 91.119629 114.111819 
L 91.691545 113.683352 
L 92.025091 113.169164 
L 92.075255 112.610781 
L 91.820776 112.056071 
L 91.267269 111.554988 
L 90.448018 111.15501 
L 89.422395 110.896699 
L 88.272 110.809779 
L 87.094723 110.910044 
L 85.997031 111.197318 
L 85.084917 111.654601 
L 84.454176 112.24849 
L 84.22864 112.697096 
L 84.178436 113.168049 
L 84.312961 113.642364 
L 84.634457 114.099984 
L 85.137605 114.520545 
L 86.202412 115.038825 
L 87.569882 115.369015 
L 89.131643 115.463961 
L 90.753798 115.295343 
L 92.287975 114.857995 
L 93.187749 114.426101 
L 93.940349 113.895598 
L 94.509004 113.283488 
L 94.863362 112.610834 
L 94.980972 111.901935 
L 94.848419 111.183321 
L 94.462064 110.482645 
L 93.828373 109.827538 
L 92.963872 109.244459 
L 91.894753 108.757618 
L 90.656159 108.387984 
L 89.291194 108.152434 
L 87.849637 108.063045 
L 86.386381 108.12656 
L 84.95958 108.344032 
L 83.628526 108.710621 
L 82.451315 109.215559 
L 81.482378 109.842256 
L 80.770018 110.568575 
L 80.354091 111.3673 
L 80.263964 112.206843 
L 80.516886 113.052216 
L 81.116814 113.866247 
L 82.05374 114.611021 
L 83.303509 115.249445 
L 84.828126 115.746851 
L 86.576544 116.072582 
L 88.485986 116.201503 
L 90.483842 116.115408 
L 92.490186 115.804286 
L 94.420932 115.267362 
L 96.191523 114.513779 
L 97.720995 113.562755 
L 98.936084 112.44312 
L 99.775041 111.192164 
L 100.190787 109.853907 
L 100.229826 109.16712 
L 100.153149 108.476979 
L 99.959825 107.789907 
L 99.650079 107.112329 
L 98.687917 105.810974 
L 97.290906 104.621903 
L 95.500216 103.590159 
L 93.372701 102.755135 
L 90.979484 102.149092 
L 88.404347 101.795967 
L 85.74176 101.710565 
L 83.094329 101.898129 
L 80.569487 102.354232 
L 78.27536 103.064809 
L 76.315958 104.006171 
L 74.786031 105.144937 
L 74.207968 105.775262 
L 73.766113 106.438051 
L 73.46761 107.126479 
L 73.318232 107.833211 
L 73.322315 108.550457 
L 73.482706 109.270053 
L 73.800725 109.983542 
L 74.276152 110.682277 
L 74.907214 111.357522 
L 75.690596 112.000563 
L 76.621446 112.602806 
L 77.693395 113.155879 
L 80.227653 114.082671 
L 83.212961 114.721635 
L 86.54652 115.022045 
L 90.104989 114.943966 
L 93.747565 114.460679 
L 97.320802 113.561471 
L 99.031656 112.957613 
L 100.665467 112.254376 
L 102.202856 111.456006 
L 103.625236 110.56806 
L 104.915127 109.597355 
L 106.056441 108.551866 
L 107.034756 107.440604 
L 107.837536 106.273444 
L 108.454306 105.06095 
L 108.876769 103.814182 
L 109.098868 102.544513 
L 109.116792 101.263452 
L 108.928926 99.982492 
L 108.535768 98.712983 
L 107.939813 97.466026 
L 107.14542 96.252385 
L 106.158674 95.08242 
L 104.987258 93.96602 
L 103.640334 92.912542 
L 102.128454 91.930743 
L 100.463486 91.028712 
L 98.65857 90.213787 
L 96.728097 89.492483 
L 94.687692 88.870419 
L 92.554219 88.352255 
L 90.345769 87.94166 
L 88.081645 87.641289 
L 85.782311 87.452804 
L 83.46932 87.376907 
L 81.165182 87.413404 
L 78.893195 87.561272 
L 76.677213 87.818725 
L 74.541365 88.183263 
L 72.509723 88.651693 
L 70.605939 89.220104 
L 68.852846 89.88381 
L 67.272067 90.637246 
L 65.88363 91.473849 
L 64.705617 92.385922 
L 63.753871 93.364532 
L 63.041757 94.399438 
L 62.580009 95.479087 
L 62.376643 96.590686 
L 62.436939 97.720351 
L 62.763491 98.853337 
L 63.356289 99.974313 
L 64.212834 101.067683 
L 65.328259 102.117896 
L 66.695434 103.109754 
L 68.305061 104.028651 
L 70.145726 104.86077 
L 72.203917 105.593198 
L 74.464015 106.213979 
L 76.90825 106.712121 
L 79.516641 107.077565 
L 82.266937 107.301161 
L 85.134581 107.374662 
L 88.092699 107.290771 
L 91.112168 107.043266 
L 94.161754 106.627191 
L 97.208359 106.03913 
L 100.217383 105.277525 
L 103.15321 104.343027 
L 105.979813 103.238808 
L 108.661469 101.970809 
L 111.163549 100.547869 
L 113.453343 98.981696 
L 115.500878 97.286668 
L 117.279658 95.479468 
L 118.767287 93.57858 
L 119.945921 91.603697 
L 120.802514 89.575097 
L 121.328853 87.513063 
L 121.521384 85.437377 
L 121.380866 83.366964 
L 120.911889 81.319661 
L 120.122315 79.312133 
L 119.022699 77.359907 
L 117.625736 75.477461 
L 115.945786 73.678351 
L 113.998501 71.975313 
L 111.800575 70.380308 
L 109.369614 68.904504 
L 106.724136 67.558177 
L 103.883664 66.350551 
L 100.868908 65.289605 
L 97.702 64.381885 
L 94.406754 63.632345 
L 91.00892 63.044266 
L 87.536388 62.619271 
L 84.019325 62.357445 
L 80.490197 62.257561 
L 76.983651 62.31737 
L 73.536242 62.533938 
L 70.185979 62.903934 
L 66.971703 63.423844 
L 63.932313 64.090029 
L 61.105873 64.898594 
L 58.528659 65.845075 
L 56.234214 66.923962 
L 54.252476 68.128122 
L 52.609066 69.448224 
L 51.324767 70.872262 
L 50.415252 72.38526 
L 49.891055 73.969231 
L 49.75776 75.603417 
L 50.016378 77.264788 
L 50.663842 78.928754 
L 51.693552 80.570005 
L 53.095909 82.163384 
L 54.858779 83.68469 
L 56.967846 85.111342 
L 59.406828 86.422827 
L 62.157544 87.600923 
L 65.199844 88.629685 
L 68.511405 89.495241 
L 72.067444 90.185452 
L 75.840358 90.689515 
L 79.799355 90.99759 
L 83.910114 91.100539 
L 88.134524 90.989838 
L 92.430566 90.65772 
L 96.752391 90.097561 
L 101.05064 89.304498 
L 105.273059 88.276208 
L 109.365422 87.013776 
L 113.27276 85.522492 
L 116.940865 83.812471 
L 120.317969 81.898947 
L 123.356496 79.802162 
L 126.014736 77.546815 
L 128.258266 75.161123 
L 130.060996 72.675585 
L 131.405714 70.121614 
L 132.28409 67.530208 
L 132.696158 64.930809 
L 132.649351 62.350481 
L 132.157237 59.813448 
L 131.238081 57.340994 
L 129.913421 54.951673 
L 128.206759 52.661718 
L 126.142491 50.485547 
L 123.74511 48.43625 
L 121.038726 46.525964 
L 118.046879 44.766096 
L 114.792611 43.167347 
L 111.29877 41.73958 
L 107.58847 40.491561 
L 103.685678 39.430633 
L 99.615853 38.562409 
L 95.406593 37.890524 
L 91.088237 37.416537 
L 86.694362 37.139986 
L 82.262115 37.058642 
L 77.832337 37.168915 
L 73.449411 37.466385 
L 69.160807 37.946357 
L 65.016302 38.604342 
L 61.066883 39.436344 
L 57.36338 40.438857 
L 53.954913 41.608533 
L 50.887277 42.941505 
L 48.201405 44.432483 
L 45.932063 46.073745 
L 44.106892 47.854203 
L 42.745893 49.758725 
L 41.861378 51.767826 
L 41.45836 53.857811 
L 41.535288 56.001355 
L 42.085031 58.168446 
L 43.095948 60.327582 
L 44.552944 62.447062 
L 46.438388 64.496225 
L 48.732832 66.446516 
L 51.415472 68.272253 
L 54.464351 69.951075 
L 57.856311 71.46402 
L 61.566726 72.795302 
L 65.569052 73.931839 
L 69.834256 74.862626 
L 74.330181 75.578074 
L 79.0209 76.069424 
L 83.866146 76.328339 
L 88.820873 76.346755 
L 93.835043 76.117063 
L 98.853709 75.632626 
L 103.817478 74.888603 
L 108.663393 73.883009 
L 113.326285 72.617851 
L 117.740554 71.100187 
L 121.842316 69.3429 
L 125.571764 67.365026 
L 128.875544 65.191527 
L 131.708923 62.852491 
L 134.037479 60.381831 
L 135.838157 57.815661 
L 137.099539 55.190554 
L 137.821331 52.541918 
L 138.013163 49.902678 
L 137.692871 47.302381 
L 136.884491 44.76678 
L 135.616202 42.317857 
L 133.918433 39.974188 
L 131.822264 37.751539 
L 129.358239 35.663521 
L 126.555602 33.722212 
L 123.441959 31.938622 
L 120.043298 30.322969 
L 116.384325 28.884733 
L 112.489028 27.632539 
L 108.381403 26.573901 
L 104.08628 25.71491 
L 99.630174 25.059937 
L 95.042114 24.611416 
L 90.354377 24.369767 
L 85.603072 24.333493 
L 80.828502 24.499462 
L 76.075253 24.863345 
L 71.391933 25.420162 
L 66.830546 26.164831 
L 62.445461 27.092615 
L 58.292019 28.19933 
L 54.424853 29.481238 
L 50.89602 30.934574 
L 47.753131 32.554749 
L 45.037642 34.335341 
L 42.78349 36.26704 
L 41.016203 38.336753 
L 39.752563 40.527023 
L 39.000826 42.815883 
L 38.76142 45.17719 
L 39.027999 47.58138 
L 39.788705 49.996578 
L 41.027462 52.389886 
L 42.725174 54.728729 
L 44.860719 56.982082 
L 47.411666 59.121477 
L 50.354688 61.12169 
L 53.665675 62.961077 
L 57.319572 64.621547 
L 61.289994 66.088246 
L 65.548652 67.349004 
L 70.06468 68.393656 
L 74.803904 69.213361 
L 79.728131 69.800008 
L 84.794541 70.145838 
L 89.955256 70.24333 
L 95.157167 70.085444 
L 100.342116 69.666191 
L 105.447493 68.981526 
L 110.407321 68.030442 
L 115.153817 66.816142 
L 119.619417 65.347079 
L 123.739144 63.637686 
L 127.453142 61.708622 
L 130.709158 59.58644 
L 133.464689 57.302669 
L 135.688568 54.892425 
L 137.361792 52.392709 
L 138.477498 49.84065 
L 139.040128 47.271892 
L 139.063906 44.719325 
L 138.570862 42.212265 
L 137.588633 39.776103 
L 136.148314 37.432401 
L 134.28254 35.1993 
L 132.023944 33.092136 
L 129.404066 31.124108 
L 126.452716 29.306883 
L 123.197766 27.651041 
L 119.665305 26.166332 
L 115.880087 24.861723 
L 111.866192 23.745269 
L 107.64783 22.823873 
L 103.250218 22.102993 
L 98.700468 21.586375 
L 94.028426 21.27587 
L 89.267395 21.171391 
L 84.454682 21.271039 
L 79.631906 21.571404 
L 74.844999 22.068008 
L 70.143847 22.755836 
L 65.58154 23.629848 
L 61.213226 24.685357 
L 57.094602 25.918167 
L 53.28014 27.324382 
L 49.821179 28.89986 
L 46.764045 30.639374 
L 44.148406 32.535601 
L 42.006008 34.578122 
L 40.359929 36.75261 
L 39.224403 39.040363 
L 38.60519 41.418292 
L 38.500411 43.859352 
L 38.901696 46.333392 
L 39.795492 48.808299 
L 41.164368 51.251297 
L 42.988187 53.630254 
L 45.245037 55.914849 
L 47.911886 58.077493 
L 50.964909 60.093928 
L 54.379535 61.943473 
L 58.130214 63.608932 
L 62.189974 65.076213 
L 66.529817 66.333752 
L 71.118012 67.371832 
L 75.919365 68.181921 
L 80.894521 68.75612 
L 85.999389 69.086842 
L 91.184771 69.166779 
L 96.396265 68.989206 
L 101.574552 68.548626 
L 106.656104 67.841706 
L 111.574395 66.868393 
L 116.261578 65.633061 
L 120.65061 64.145494 
L 124.677672 62.421517 
L 128.28471 60.483114 
L 131.421848 58.357973 
L 134.04941 56.078461 
L 136.139327 53.680151 
L 137.675748 51.200113 
L 138.654809 48.675171 
L 139.083609 46.140372 
L 138.978553 43.627806 
L 138.3633 41.165898 
L 137.266565 38.779157 
L 135.720006 36.488345 
L 133.756399 34.310938 
L 131.408204 32.261757 
L 128.706588 30.353625 
L 125.6809 28.59794 
L 122.358555 27.00508 
L 118.765272 25.58461 
L 114.925574 24.345288 
L 110.863494 23.294916 
L 106.603395 22.440078 
L 102.170857 21.785855 
L 97.593553 21.335575 
L 92.902066 21.090654 
L 88.13057 21.050597 
L 83.317323 21.213157 
L 78.504907 21.57467 
L 73.740146 22.130522 
L 69.073656 22.875679 
L 64.559001 23.805172 
L 60.25146 24.914433 
L 56.206454 26.199357 
L 52.477733 27.656026 
L 49.115464 29.280103 
L 46.164405 31.065938 
L 43.662338 33.005554 
L 41.638928 35.087679 
L 40.11511 37.29701 
L 39.103047 39.613847 
L 38.60662 42.014184 
L 38.622338 44.470239 
L 39.140539 46.951383 
L 40.146701 49.425324 
L 41.622718 51.859414 
L 43.548022 54.221932 
L 45.900447 56.483196 
L 48.656801 58.616415 
L 51.793133 60.598201 
L 55.284701 62.408739 
L 59.105698 64.03162 
L 63.228756 65.45341 
L 67.624325 66.663042 
L 72.259951 67.651132 
L 77.099552 68.409337 
L 82.102746 68.92985 
L 87.224321 69.205144 
L 92.413916 69.228013 
L 97.616018 68.991962 
L 102.770333 68.491922 
L 107.812617 67.725239 
L 112.675988 66.692811 
L 117.292715 65.400212 
L 121.596415 63.858604 
L 125.524519 62.085259 
L 129.020789 60.103545 
L 132.037664 57.942331 
L 134.538144 55.634843 
L 136.497021 53.217125 
L 137.901294 50.726295 
L 138.749743 48.198846 
L 139.051748 45.66918 
L 138.825524 43.168541 
L 138.096017 40.724414 
L 136.892718 38.360385 
L 135.247607 36.096383 
L 133.193414 33.9492 
L 130.762298 31.933133 
L 127.984974 30.060634 
L 124.890291 28.342844 
L 121.505203 26.789954 
L 117.855074 25.411363 
L 113.964232 24.215638 
L 109.856702 23.210336 
L 105.55705 22.401727 
L 101.091267 21.794515 
L 96.487637 21.391597 
L 91.777523 21.193943 
L 86.99601 21.200631 
L 82.182347 21.409051 
L 77.380107 21.815275 
L 72.63703 22.414546 
L 68.004481 23.201811 
L 63.536509 24.172179 
L 59.288539 25.321204 
L 55.315725 26.644869 
L 51.671106 28.139235 
L 48.403703 29.799754 
L 45.556737 31.620333 
L 43.16615 33.592315 
L 41.259585 35.703548 
L 39.855905 37.937724 
L 38.965281 40.27412 
L 38.589789 42.68779 
L 38.724404 45.150198 
L 39.358233 47.63022 
L 40.475835 50.095368 
L 42.058467 52.513109 
L 44.085147 54.852114 
L 46.533454 57.08332 
L 49.38003 59.180708 
L 52.60077 61.121729 
L 56.170731 62.887397 
L 60.063802 64.46205 
L 64.252176 65.83287 
L 68.705694 66.989246 
L 73.391123 67.922089 
L 78.271434 68.623216 
L 83.305161 69.084894 
L 88.445908 69.299651 
L 93.642102 69.260395 
L 98.83707 68.960886 
L 103.96951 68.396526 
L 108.974436 67.56539 
L 113.784605 66.469384 
L 118.332408 65.11533 
L 122.552147 63.515805 
L 126.382528 61.689544 
L 129.769166 59.661292 
L 132.666838 57.461069 
L 135.041238 55.122918 
L 136.870018 52.683296 
L 138.143009 50.17932 
L 138.861603 47.647105 
L 139.03742 45.120384 
L 138.690438 42.629548 
L 137.846851 40.201153 
L 136.536895 37.857882 
L 134.792854 35.618869 
L 132.647415 33.500253 
L 130.132444 31.515841 
L 127.278233 29.677731 
L 124.113167 27.996817 
L 120.663783 26.4831 
L 116.955141 25.145794 
L 113.011424 23.993253 
L 108.856706 23.032759 
L 104.515808 22.270239 
L 100.015186 21.709991 
L 95.383783 21.354462 
L 90.65379 21.204168 
L 85.861243 21.257763 
L 81.046406 21.512285 
L 76.253864 21.963563 
L 71.532276 22.60672 
L 66.933738 23.436706 
L 62.512758 24.448719 
L 58.324854 25.638427 
L 54.424855 27.001881 
L 50.865024 28.535075 
L 47.693167 30.233186 
L 44.950911 32.089614 
L 42.672316 34.094954 
L 40.882979 36.236122 
L 39.599687 38.495777 
L 38.830634 40.852161 
L 38.576122 43.279408 
L 38.829628 45.748269 
L 39.579071 48.227177 
L 40.808125 50.683511 
L 42.497433 53.084911 
L 44.625614 55.400494 
L 47.169995 57.601855 
L 50.107035 59.663764 
L 53.412451 61.564519 
L 57.061065 63.285948 
L 61.026418 64.81311 
L 65.280211 66.133769 
L 69.791627 67.237733 
L 74.526601 68.11618 
L 79.447109 68.761062 
L 84.510559 69.164715 
L 89.669342 69.319731 
L 94.870661 69.219165 
L 100.056688 68.857078 
L 105.165146 68.229404 
L 105.165146 68.229404 
" clip-path="url(#p9aadce50d8)" style="fill: none; stroke: #1f77b4; stroke-width: 1.5; stroke-linecap: round"/>
   </g>
   <g id="line2d_27">
    <path d="M 88.881205 44.372355 
L 88.83933 98.27065 
L 88.629272 109.118403 
L 88.601224 112.570925 
L 88.807025 113.071595 
L 89.012569 113.151657 
L 89.013893 113.119922 
L 88.833257 113.039264 
L 88.471871 113.100364 
L 88.385823 113.286903 
L 88.574868 113.419374 
L 88.995871 113.419774 
L 89.246636 113.236478 
L 89.190402 113.046357 
L 88.899765 112.912842 
L 88.429583 112.924641 
L 88.088222 113.128626 
L 88.073195 113.349606 
L 88.30881 113.545836 
L 88.820694 113.641538 
L 89.371774 113.528646 
L 89.665226 113.282107 
L 89.6782 113.024858 
L 89.450513 112.785608 
L 88.911777 112.610588 
L 88.242761 112.630837 
L 87.676924 112.862324 
L 87.448811 113.174742 
L 87.490247 113.4537 
L 87.743926 113.710112 
L 88.319281 113.930691 
L 89.066705 113.975954 
L 89.809243 113.814186 
L 90.352707 113.464414 
L 90.532909 113.09479 
L 90.431611 112.703022 
L 90.042749 112.351162 
L 89.407239 112.099507 
L 88.609859 111.996593 
L 87.768872 112.070364 
L 87.019515 112.321952 
L 86.493425 112.723213 
L 86.310802 113.089912 
L 86.343281 113.478618 
L 86.601563 113.853712 
L 87.075937 114.178459 
L 87.988788 114.47431 
L 89.104281 114.555514 
L 90.252823 114.388004 
L 91.245192 113.976561 
L 91.778477 113.534059 
L 92.061847 113.012674 
L 92.054207 112.454846 
L 91.739172 111.908688 
L 91.127829 111.423832 
L 90.259118 111.046967 
L 89.197744 110.817462 
L 88.029766 110.763431 
L 86.856121 110.898575 
L 85.784521 111.220084 
L 84.920249 111.70781 
L 84.356506 112.324898 
L 84.184218 112.783261 
L 84.192234 113.258366 
L 84.387999 113.730538 
L 84.771526 114.179293 
L 85.335014 114.584154 
L 86.481291 115.066711 
L 87.911139 115.348924 
L 89.507651 115.388018 
L 91.130546 115.161537 
L 92.62847 114.670826 
L 93.483879 114.208904 
L 94.177361 113.654579 
L 94.674127 113.025957 
L 94.946357 112.344802 
L 94.974571 111.635728 
L 94.748647 110.925255 
L 94.268493 110.240778 
L 93.544304 109.609481 
L 92.596436 109.057258 
L 91.454888 108.607651 
L 90.158421 108.280877 
L 88.753347 108.092939 
L 87.292013 108.054876 
L 85.831043 108.172158 
L 84.429355 108.444254 
L 83.146019 108.864392 
L 82.037996 109.419522 
L 81.15783 110.090512 
L 80.55135 110.85257 
L 80.255466 111.675923 
L 80.296166 112.526732 
L 80.686796 113.368254 
L 81.426753 114.162212 
L 82.500684 114.870344 
L 83.8783 115.456066 
L 85.51488 115.886181 
L 87.35249 116.132544 
L 89.32194 116.173582 
L 91.3454 115.995578 
L 93.339577 115.593628 
L 95.219303 114.972191 
L 96.901331 114.145205 
L 98.308137 113.135724 
L 99.371508 111.975122 
L 100.03573 110.701888 
L 100.204825 110.036637 
L 100.260209 109.360097 
L 100.199487 108.678359 
L 100.021418 107.997632 
L 99.725923 107.32418 
L 98.788232 106.024073 
L 97.409194 104.826939 
L 95.629648 103.778695 
L 93.507247 102.920491 
L 91.114642 102.287104 
L 88.537197 101.905524 
L 85.870286 101.793777 
L 83.216239 101.959991 
L 80.680979 102.401719 
L 78.370402 103.105552 
L 76.386528 104.047046 
L 74.823503 105.190994 
L 74.226072 105.825101 
L 73.76352 106.4921 
L 73.443592 107.184934 
L 73.272796 107.896079 
L 73.256286 108.617601 
L 73.397764 109.341231 
L 73.699389 110.058433 
L 74.161695 110.760492 
L 74.783528 111.4386 
L 75.562001 112.08395 
L 76.492462 112.687836 
L 77.568488 113.241759 
L 80.122817 114.167357 
L 83.139385 114.800807 
L 86.507771 115.092075 
L 90.09674 115.004005 
L 93.759689 114.514761 
L 97.341253 113.619518 
L 99.052371 113.023005 
L 100.684663 112.33125 
L 102.219564 111.548624 
L 103.639368 110.68053 
L 104.927437 109.733346 
L 106.068404 108.714352 
L 107.048358 107.631648 
L 107.855 106.49406 
L 108.477785 105.311041 
L 108.908035 104.092563 
L 109.139032 102.849006 
L 109.166076 101.591045 
L 108.986532 100.329535 
L 108.599843 99.075399 
L 108.007527 97.839516 
L 107.213148 96.632615 
L 106.222276 95.465172 
L 105.042419 94.347313 
L 103.682948 93.28872 
L 102.155009 92.298549 
L 100.471417 91.38535 
L 98.646547 90.556993 
L 96.696214 89.820604 
L 94.637546 89.182505 
L 92.488849 88.648157 
L 90.269469 88.222115 
L 87.999651 87.907983 
L 85.700387 87.708376 
L 83.393263 87.624888 
L 81.100302 87.658061 
L 78.843799 87.807365 
L 76.646151 88.071177 
L 74.52968 88.446771 
L 72.516453 88.930307 
L 70.628091 89.516835 
L 68.88557 90.200298 
L 67.309022 90.97355 
L 65.917525 91.828378 
L 64.728885 92.755537 
L 63.759424 93.744794 
L 63.023755 94.784991 
L 62.534567 95.86411 
L 62.302411 96.969363 
L 62.33549 98.087291 
L 62.639471 99.203879 
L 63.2173 100.30469 
L 64.069056 101.375006 
L 65.191816 102.399994 
L 66.579564 103.364874 
L 68.223136 104.255104 
L 70.110203 105.056568 
L 72.225308 105.755777 
L 74.549949 106.340061 
L 77.062714 106.797766 
L 79.739476 107.11844 
L 82.553631 107.29301 
L 85.476393 107.313938 
L 88.477137 107.175365 
L 91.523774 106.87322 
L 94.583171 106.405315 
L 97.621585 105.771395 
L 100.605127 104.973169 
L 103.500215 104.0143 
L 106.274042 102.900365 
L 108.895016 101.638782 
L 111.333181 100.238713 
L 113.560608 98.710928 
L 115.551749 97.067663 
L 117.283738 95.322438 
L 118.736648 93.48988 
L 119.893699 91.58552 
L 120.741404 89.625594 
L 121.269673 87.626837 
L 121.471858 85.606283 
L 121.344755 83.581067 
L 120.888564 81.568237 
L 120.106807 79.584582 
L 119.006215 77.646466 
L 117.59659 75.769681 
L 115.89064 73.969312 
L 113.903802 72.259618 
L 111.654044 70.65393 
L 109.161676 69.164556 
L 106.449134 67.802706 
L 103.54078 66.578424 
L 100.462695 65.50053 
L 97.242471 64.576575 
L 93.90901 63.812797 
L 90.492325 63.21409 
L 87.023335 62.783969 
L 83.533668 62.524549 
L 80.055462 62.43652 
L 76.621156 62.51913 
L 73.263283 62.770167 
L 70.014254 63.185946 
L 66.906126 63.761303 
L 63.970369 64.489588 
L 61.23761 65.362669 
L 58.737371 66.370943 
L 56.497782 67.503356 
L 54.545296 68.747431 
L 52.90437 70.089324 
L 51.597154 71.513875 
L 50.643161 73.004699 
L 50.058938 74.544285 
L 49.857742 76.11412 
L 50.049225 77.694842 
L 50.639134 79.266414 
L 51.629051 80.808324 
L 53.016155 82.299811 
L 54.793048 83.72011 
L 56.94763 85.048721 
L 59.463048 86.265692 
L 62.317724 87.351912 
L 65.485458 88.289408 
L 68.935636 89.061643 
L 72.633516 89.653796 
L 76.540612 90.053033 
L 80.615163 90.248745 
L 84.81268 90.232758 
L 89.086565 89.999492 
L 93.388776 89.546089 
L 97.670543 88.872474 
L 101.88309 87.981379 
L 105.978371 86.878299 
L 109.909782 85.571405 
L 113.632837 84.071401 
L 117.105798 82.391345 
L 120.290231 80.54642 
L 123.151491 78.55368 
L 125.659123 76.431776 
L 127.787161 74.200653 
L 129.514354 71.881258 
L 130.824287 69.49523 
L 131.705422 67.064611 
L 132.151069 64.61156 
L 132.159274 62.158094 
L 131.732658 59.725842 
L 130.878206 57.33583 
L 129.607008 55.008289 
L 127.933987 52.762486 
L 125.877599 50.616588 
L 123.459521 48.587542 
L 120.704347 46.690982 
L 117.639275 44.941158 
L 114.293812 43.350873 
L 110.699485 41.931446 
L 106.889567 40.692679 
L 102.898816 39.642837 
L 98.763232 38.788633 
L 94.519822 38.135218 
L 90.206378 37.686175 
L 85.861263 37.44351 
L 81.523201 37.407652 
L 77.231068 37.577441 
L 73.023681 37.950126 
L 68.939581 38.521357 
L 65.016806 39.285178 
L 61.292647 40.234022 
L 57.803392 41.358715 
L 54.58405 42.648475 
L 51.668048 44.090926 
L 49.086918 45.672124 
L 46.869956 47.376593 
L 45.043863 49.187378 
L 43.632371 51.086122 
L 42.655866 53.053163 
L 42.130998 55.067658 
L 42.070303 57.107739 
L 42.481841 59.15069 
L 43.368863 61.173167 
L 44.729511 63.151442 
L 46.556584 65.061672 
L 48.837364 66.880207 
L 51.553523 68.583905 
L 54.681128 70.150474 
L 58.190744 71.558816 
L 62.047651 72.789376 
L 66.212169 73.824478 
L 70.640102 74.64864 
L 75.283289 75.248871 
L 80.09025 75.614914 
L 85.006929 75.739452 
L 89.977491 75.618257 
L 94.945179 75.250276 
L 99.853191 74.637659 
L 104.645555 73.785714 
L 109.267992 72.702809 
L 113.668717 71.400207 
L 117.799185 69.891853 
L 121.614751 68.19411 
L 125.075227 66.325462 
L 128.145332 64.306189 
L 130.795037 62.158025 
L 132.999788 59.90381 
L 134.740625 57.567143 
L 136.004197 55.172043 
L 136.782681 52.742636 
L 137.073628 50.302854 
L 136.879732 47.876174 
L 136.20855 45.485373 
L 135.07218 43.152328 
L 133.486913 40.897837 
L 131.472864 38.741479 
L 129.053599 36.701492 
L 126.255773 34.794689 
L 123.108762 33.036386 
L 119.644325 31.440357 
L 115.896276 30.018801 
L 111.900182 28.782323 
L 107.693078 27.739926 
L 103.313207 26.899009 
L 98.799777 26.265363 
L 94.192731 25.843184 
L 89.532538 25.635067 
L 84.859989 25.642015 
L 80.215995 25.863436 
L 75.64139 26.297144 
L 71.176729 26.93935 
L 66.862077 27.784662 
L 62.736785 28.826077 
L 58.83925 30.054974 
L 55.206654 31.461115 
L 51.874686 33.032647 
L 48.877232 34.756118 
L 46.24605 36.616498 
L 44.01042 38.597221 
L 42.196769 40.68024 
L 40.828285 42.846113 
L 39.924527 45.074102 
L 39.501022 47.342313 
L 39.568881 49.627855 
L 40.134431 51.907041 
L 41.198877 54.155617 
L 42.75802 56.349022 
L 44.802028 58.462679 
L 47.31529 60.472315 
L 50.27635 62.354298 
L 53.657956 64.085993 
L 57.427211 65.646118 
L 61.545843 67.015103 
L 65.970595 68.175436 
L 70.653735 69.111979 
L 75.543674 69.812255 
L 80.585683 70.266696 
L 85.722698 70.468824 
L 90.896179 70.415389 
L 96.047019 70.106434 
L 101.116459 69.54529 
L 106.047002 68.738515 
L 110.783281 67.695757 
L 115.27288 66.429567 
L 119.467062 64.955152 
L 123.321412 63.290092 
L 126.796366 61.454015 
L 129.857627 59.468256 
L 132.476456 57.355495 
L 134.629856 55.139402 
L 136.300633 52.844281 
L 137.477361 50.494731 
L 138.154257 48.115329 
L 138.330971 45.730337 
L 138.012321 43.363442 
L 137.20797 41.037531 
L 135.932074 38.774487 
L 134.202908 36.595031 
L 132.042474 34.518589 
L 129.476117 32.563183 
L 126.532147 30.745357 
L 123.241468 29.080114 
L 119.637238 27.580885 
L 115.754539 26.259498 
L 111.63008 25.126169 
L 107.301914 24.189501 
L 102.809186 23.456482 
L 98.191894 22.932491 
L 93.49067 22.621309 
L 88.746573 22.525116 
L 84.000889 22.644502 
L 79.29494 22.978462 
L 74.669886 23.524398 
L 70.166526 24.278114 
L 65.825091 25.233809 
L 61.685017 26.38407 
L 57.784704 27.719868 
L 54.161257 29.230557 
L 50.850197 30.903879 
L 47.885155 32.725976 
L 45.297538 34.681416 
L 43.116169 36.753238 
L 41.366921 38.923012 
L 40.072314 41.170925 
L 39.251129 43.475888 
L 38.918002 45.815682 
L 39.083042 48.167124 
L 39.751461 50.506274 
L 40.923255 52.808671 
L 42.592918 55.049603 
L 44.749236 57.204406 
L 47.375152 59.248786 
L 50.447728 61.159165 
L 53.938211 62.913041 
L 57.812212 64.489346 
L 62.030007 65.868809 
L 66.546955 67.034292 
L 71.314037 67.97111 
L 76.278502 68.667309 
L 81.384612 69.113901 
L 86.574464 69.305044 
L 91.788875 69.238157 
L 96.968295 68.913976 
L 102.053738 68.336536 
L 106.987688 67.513091 
L 111.714971 66.453969 
L 116.183557 65.172364 
L 120.345278 63.684086 
L 124.156453 62.007259 
L 127.578388 60.161994 
L 130.577769 58.17004 
L 133.126934 56.054421 
L 135.204019 53.839074 
L 136.793002 51.5485 
L 137.883646 49.207424 
L 138.471343 46.840481 
L 138.556895 44.471932 
L 138.146228 42.125407 
L 137.250061 39.823686 
L 135.883538 37.588502 
L 134.065853 35.440393 
L 131.81985 33.39857 
L 129.171643 31.480816 
L 126.150228 29.70342 
L 122.787126 28.081116 
L 119.116033 26.627053 
L 115.172507 25.352774 
L 110.993662 24.268206 
L 106.6179 23.381659 
L 102.084657 22.699829 
L 97.43417 22.227805 
L 92.70726 21.969074 
L 87.94513 21.925527 
L 83.189165 22.097464 
L 78.480744 22.483591 
L 73.861041 23.081019 
L 69.370826 23.885262 
L 65.050256 24.890228 
L 60.938644 26.088212 
L 57.074223 27.469892 
L 53.493872 29.024331 
L 50.232833 30.738978 
L 47.324394 32.599688 
L 44.799554 34.590747 
L 42.686663 36.694919 
L 41.011041 38.893514 
L 39.794589 41.166472 
L 39.055389 43.49248 
L 38.807303 45.849122 
L 39.059596 48.213048 
L 39.816571 50.560192 
L 41.07725 52.866009 
L 42.835109 55.105755 
L 45.077878 57.254784 
L 47.787421 59.288884 
L 50.939721 61.184621 
L 54.504959 62.919697 
L 58.447721 64.473319 
L 62.727314 65.826546 
L 67.298213 66.962636 
L 72.110614 67.867352 
L 77.111104 68.529237 
L 82.243421 68.939835 
L 87.449291 69.093868 
L 92.669317 68.989333 
L 97.843903 68.627553 
L 102.914183 68.01314 
L 107.82292 67.153911 
L 112.515374 66.060722 
L 116.940087 64.747262 
L 121.04959 63.229785 
L 124.800999 61.526805 
L 128.156508 59.658766 
L 131.083755 57.647686 
L 133.556067 55.516794 
L 135.552595 53.290175 
L 137.058336 50.992409 
L 138.064052 48.648249 
L 138.566111 46.282301 
L 138.566245 43.918753 
L 138.07126 41.581117 
L 137.092695 39.292017 
L 135.646452 37.073004 
L 133.752412 34.944404 
L 131.434043 32.925197 
L 128.718013 31.032921 
L 125.633807 29.283606 
L 122.213373 27.69172 
L 118.490777 26.270143 
L 114.50189 25.030142 
L 110.28409 23.981371 
L 105.875995 23.131863 
L 101.317214 22.488042 
L 96.648118 22.054722 
L 91.909625 21.835118 
L 87.142996 21.83085 
L 82.389644 22.041946 
L 77.690939 22.46684 
L 73.08801 23.102373 
L 68.621549 23.943785 
L 64.331593 24.984709 
L 60.257301 26.217165 
L 56.436698 27.631559 
L 52.906414 29.216674 
L 49.701386 30.95969 
L 46.854544 32.846189 
L 44.396466 34.860196 
L 42.355019 36.984221 
L 40.754972 39.199333 
L 39.617608 41.485248 
L 38.960321 43.820453 
L 38.796221 46.182357 
L 39.133752 48.547472 
L 39.97634 50.891629 
L 41.322082 53.190225 
L 43.163485 55.418507 
L 45.487283 57.551877 
L 48.274336 59.566225 
L 51.499622 61.438282 
L 55.132348 63.145975 
L 59.136168 64.668797 
L 63.469522 65.988156 
L 68.086104 67.087709 
L 72.935436 67.95367 
L 77.963551 68.575075 
L 83.11377 68.943996 
L 88.327552 69.055702 
L 93.545385 68.908756 
L 98.707719 68.505039 
L 103.755888 67.849718 
L 108.633007 66.951139 
L 113.284829 65.820656 
L 117.660514 64.472416 
L 121.713322 62.92308 
L 125.401193 61.191518 
L 128.687214 59.298467 
L 131.539969 57.266182 
L 133.933764 55.118064 
L 135.848738 52.87831 
L 137.270873 50.571557 
L 138.191896 48.222556 
L 138.609102 45.855865 
L 138.525108 43.495578 
L 137.947549 41.165073 
L 136.888732 38.886807 
L 135.365265 36.682136 
L 133.397669 34.571168 
L 131.009983 32.572647 
L 128.229382 30.703863 
L 125.085799 28.980585 
L 121.611566 27.417016 
L 117.841082 26.025765 
L 113.810495 24.817828 
L 109.557415 23.802586 
L 105.120648 22.9878 
L 100.539951 22.379622 
L 95.855805 21.982597 
L 91.109203 21.79967 
L 86.341447 21.832194 
L 81.59396 22.079926 
L 76.908085 22.541034 
L 72.324895 23.212088 
L 67.884989 24.088059 
L 63.628274 25.162308 
L 59.593736 26.426583 
L 55.819188 27.871016 
L 52.340994 29.484121 
L 49.19378 31.252804 
L 46.410102 33.162385 
L 44.020111 35.196629 
L 42.051176 37.337796 
L 40.527511 39.566721 
L 39.469771 41.862903 
L 38.894656 44.204637 
L 38.814515 46.569165 
L 39.236972 48.932868 
L 40.164575 51.271485 
L 41.594495 53.560368 
L 43.518277 55.774767 
L 45.92167 57.890141 
L 48.784537 59.882496 
L 52.080875 61.728739 
L 55.778934 63.407034 
L 59.841461 64.897173 
L 64.226059 66.180918 
L 68.885674 67.242336 
L 73.769187 68.068099 
L 78.822115 68.64774 
L 83.987403 68.97386 
L 89.206278 69.042278 
L 94.419156 68.852113 
L 99.566569 68.405807 
L 104.590085 67.709071 
L 109.433205 66.770769 
L 109.433205 66.770769 
" clip-path="url(#p9aadce50d8)" style="fill: none; stroke: #ff7f0e; stroke-opacity: 0.5; stroke-width: 1.5; stroke-linecap: round"/>
   </g>
  </g>
 </g>
 <defs>
  <clipPath id="p9aadce50d8">
   <rect x="-1.8" y="-7.2" width="176.4" height="176.4"/>
  </clipPath>
 </defs>
</svg>
