<?xml version="1.0" encoding="utf-8" standalone="no"?>
<!DOCTYPE svg PUBLIC "-//W3C//DTD SVG 1.1//EN"
  "http://www.w3.org/Graphics/SVG/1.1/DTD/svg11.dtd">
<svg xmlns:xlink="http://www.w3.org/1999/xlink" width="216pt" height="180pt" viewBox="0 0 216 180" xmlns="http://www.w3.org/2000/svg" version="1.1">
 <metadata>
  <rdf:RDF xmlns:dc="http://purl.org/dc/elements/1.1/" xmlns:cc="http://creativecommons.org/ns#" xmlns:rdf="http://www.w3.org/1999/02/22-rdf-syntax-ns#">
   <cc:Work>
    <dc:type rdf:resource="http://purl.org/dc/dcmitype/StillImage"/>
    <dc:date>2023-06-14T18:47:48.490255</dc:date>
    <dc:format>image/svg+xml</dc:format>
    <dc:creator>
     <cc:Agent>
      <dc:title>Matplotlib v3.7.0, https://matplotlib.org/</dc:title>
     </cc:Agent>
    </dc:creator>
   </cc:Work>
  </rdf:RDF>
 </metadata>
 <defs>
  <style type="text/css">*{stroke-linejoin: round; stroke-linecap: butt}</style>
 </defs>
 <g id="figure_1">
  <g id="patch_1">
   <path d="M 0 180 
L 216 180 
L 216 0 
L 0 0 
z
" style="fill: #ffffff"/>
  </g>
  <g id="patch_2">
   <path d="M -1 169.2 
L 174.6 169.2 
L 174.6 -1 
" style="fill: none"/>
  </g>
  <g id="pane3d_1">
   <g id="patch_3">
    <path d="M 11.519416 125.705413 
L 69.772457 76.876559 
L 68.962684 6.456623 
L 7.921935 51.001381 
" style="fill: none; opacity: 0.5; stroke: #f2f2f2; stroke-linejoin: miter"/>
   </g>
  </g>
  <g id="pane3d_2">
   <g id="patch_4">
    <path d="M 69.772457 76.876559 
L 163.247803 104.046152 
L 166.583609 31.200681 
L 68.962684 6.456623 
" style="fill: none; opacity: 0.5; stroke: #e6e6e6; stroke-linejoin: miter"/>
   </g>
  </g>
  <g id="pane3d_3">
   <g id="patch_5">
    <path d="M 11.519416 125.705413 
L 110.607849 158.067695 
L 163.247803 104.046152 
L 69.772457 76.876559 
" style="fill: none; opacity: 0.5; stroke: #ececec; stroke-linejoin: miter"/>
   </g>
  </g>
  <g id="axis3d_1">
   <g id="line2d_1">
    <path d="M 11.519416 125.705413 
L 110.607849 158.067695 
" style="fill: none; stroke: #ffffff; stroke-width: 0.8; stroke-linecap: round"/>
   </g>
   <g id="text_1">
    <!-- x -->
    <g style="fill: #262626" transform="translate(40.437569 179.640981) scale(0.1 -0.1)">
     <defs>
      <path id="DejaVuSans-78" d="M 3513 3500 
L 2247 1797 
L 3578 0 
L 2900 0 
L 1881 1375 
L 863 0 
L 184 0 
L 1544 1831 
L 300 3500 
L 978 3500 
L 1906 2253 
L 2834 3500 
L 3513 3500 
z
" transform="scale(0.015625)"/>
     </defs>
     <use xlink:href="#DejaVuSans-78"/>
    </g>
   </g>
   <g id="Line3DCollection_1">
    <path d="M 33.027368 132.72991 
L 90.132266 82.794352 
L 90.19035 11.837217 
" style="fill: none; stroke: #d3d3d3; stroke-width: 0.8"/>
    <path d="M 59.526595 141.384558 
L 115.163244 90.069869 
L 116.31505 18.459067 
" style="fill: none; stroke: #d3d3d3; stroke-width: 0.8"/>
    <path d="M 86.795463 150.29057 
L 140.85958 97.538779 
L 143.164923 25.264727 
" style="fill: none; stroke: #d3d3d3; stroke-width: 0.8"/>
   </g>
   <g id="xtick_1">
    <g id="line2d_2">
     <path d="M 88.783784 78.616216 
" clip-path="url(#pa816e70afa)" style="fill: none; stroke: #d3d3d3; stroke-width: 0.8; stroke-linecap: round"/>
    </g>
    <g id="line2d_3">
     <path d="M 33.524976 132.294776 
L 32.03 133.602062 
" style="fill: none; stroke: #808080; stroke-width: 0.8; stroke-linecap: round"/>
    </g>
    <g id="text_2">
     <!-- −0.2 -->
     <g style="fill: #808080" transform="translate(13.366435 156.231225) scale(0.1 -0.1)">
      <defs>
       <path id="DejaVuSans-2212" d="M 678 2272 
L 4684 2272 
L 4684 1741 
L 678 1741 
L 678 2272 
z
" transform="scale(0.015625)"/>
       <path id="DejaVuSans-30" d="M 2034 4250 
Q 1547 4250 1301 3770 
Q 1056 3291 1056 2328 
Q 1056 1369 1301 889 
Q 1547 409 2034 409 
Q 2525 409 2770 889 
Q 3016 1369 3016 2328 
Q 3016 3291 2770 3770 
Q 2525 4250 2034 4250 
z
M 2034 4750 
Q 2819 4750 3233 4129 
Q 3647 3509 3647 2328 
Q 3647 1150 3233 529 
Q 2819 -91 2034 -91 
Q 1250 -91 836 529 
Q 422 1150 422 2328 
Q 422 3509 836 4129 
Q 1250 4750 2034 4750 
z
" transform="scale(0.015625)"/>
       <path id="DejaVuSans-2e" d="M 684 794 
L 1344 794 
L 1344 0 
L 684 0 
L 684 794 
z
" transform="scale(0.015625)"/>
       <path id="DejaVuSans-32" d="M 1228 531 
L 3431 531 
L 3431 0 
L 469 0 
L 469 531 
Q 828 903 1448 1529 
Q 2069 2156 2228 2338 
Q 2531 2678 2651 2914 
Q 2772 3150 2772 3378 
Q 2772 3750 2511 3984 
Q 2250 4219 1831 4219 
Q 1534 4219 1204 4116 
Q 875 4013 500 3803 
L 500 4441 
Q 881 4594 1212 4672 
Q 1544 4750 1819 4750 
Q 2544 4750 2975 4387 
Q 3406 4025 3406 3419 
Q 3406 3131 3298 2873 
Q 3191 2616 2906 2266 
Q 2828 2175 2409 1742 
Q 1991 1309 1228 531 
z
" transform="scale(0.015625)"/>
      </defs>
      <use xlink:href="#DejaVuSans-2212"/>
      <use xlink:href="#DejaVuSans-30" x="83.789062"/>
      <use xlink:href="#DejaVuSans-2e" x="147.412109"/>
      <use xlink:href="#DejaVuSans-32" x="179.199219"/>
     </g>
    </g>
   </g>
   <g id="xtick_2">
    <g id="line2d_4">
     <path d="M 88.783784 78.616216 
" clip-path="url(#pa816e70afa)" style="fill: none; stroke: #d3d3d3; stroke-width: 0.8; stroke-linecap: round"/>
    </g>
    <g id="line2d_5">
     <path d="M 60.011977 140.936882 
L 58.553702 142.281875 
" style="fill: none; stroke: #808080; stroke-width: 0.8; stroke-linecap: round"/>
    </g>
    <g id="text_3">
     <!-- 0.0 -->
     <g style="fill: #808080" transform="translate(44.099561 165.16456) scale(0.1 -0.1)">
      <use xlink:href="#DejaVuSans-30"/>
      <use xlink:href="#DejaVuSans-2e" x="63.623047"/>
      <use xlink:href="#DejaVuSans-30" x="95.410156"/>
     </g>
    </g>
   </g>
   <g id="xtick_3">
    <g id="line2d_6">
     <path d="M 88.783784 78.616216 
" clip-path="url(#pa816e70afa)" style="fill: none; stroke: #d3d3d3; stroke-width: 0.8; stroke-linecap: round"/>
    </g>
    <g id="line2d_7">
     <path d="M 87.267693 149.829802 
L 85.848899 151.214157 
" style="fill: none; stroke: #808080; stroke-width: 0.8; stroke-linecap: round"/>
    </g>
    <g id="text_4">
     <!-- 0.2 -->
     <g style="fill: #808080" transform="translate(71.418259 174.358866) scale(0.1 -0.1)">
      <use xlink:href="#DejaVuSans-30"/>
      <use xlink:href="#DejaVuSans-2e" x="63.623047"/>
      <use xlink:href="#DejaVuSans-32" x="95.410156"/>
     </g>
    </g>
   </g>
  </g>
  <g id="axis3d_2">
   <g id="line2d_8">
    <path d="M 163.247803 104.046152 
L 110.607849 158.067695 
" style="fill: none; stroke: #ffffff; stroke-width: 0.8; stroke-linecap: round"/>
   </g>
   <g id="text_5">
    <!-- y -->
    <g style="fill: #262626" transform="translate(162.133934 160.636398) scale(0.1 -0.1)">
     <defs>
      <path id="DejaVuSans-79" d="M 2059 -325 
Q 1816 -950 1584 -1140 
Q 1353 -1331 966 -1331 
L 506 -1331 
L 506 -850 
L 844 -850 
Q 1081 -850 1212 -737 
Q 1344 -625 1503 -206 
L 1606 56 
L 191 3500 
L 800 3500 
L 1894 763 
L 2988 3500 
L 3597 3500 
L 2059 -325 
z
" transform="scale(0.015625)"/>
     </defs>
     <use xlink:href="#DejaVuSans-79"/>
    </g>
   </g>
   <g id="Line3DCollection_2">
    <path d="M 22.600568 40.289584 
L 25.487321 113.997239 
L 123.272262 145.070892 
" style="fill: none; stroke: #d3d3d3; stroke-width: 0.8"/>
    <path d="M 39.535853 27.930984 
L 41.634307 100.462515 
L 137.87899 130.080795 
" style="fill: none; stroke: #d3d3d3; stroke-width: 0.8"/>
    <path d="M 55.673125 16.154738 
L 57.052113 87.539004 
L 151.792771 115.801833 
" style="fill: none; stroke: #d3d3d3; stroke-width: 0.8"/>
   </g>
   <g id="xtick_4">
    <g id="line2d_9">
     <path d="M 88.783784 78.616216 
" clip-path="url(#pa816e70afa)" style="fill: none; stroke: #d3d3d3; stroke-width: 0.8; stroke-linecap: round"/>
    </g>
    <g id="line2d_10">
     <path d="M 122.448842 144.809229 
L 124.921198 145.594884 
" style="fill: none; stroke: #808080; stroke-width: 0.8; stroke-linecap: round"/>
    </g>
    <g id="text_6">
     <!-- −0.2 -->
     <g style="fill: #808080" transform="translate(123.832773 165.889764) scale(0.1 -0.1)">
      <use xlink:href="#DejaVuSans-2212"/>
      <use xlink:href="#DejaVuSans-30" x="83.789062"/>
      <use xlink:href="#DejaVuSans-2e" x="147.412109"/>
      <use xlink:href="#DejaVuSans-32" x="179.199219"/>
     </g>
    </g>
   </g>
   <g id="xtick_5">
    <g id="line2d_11">
     <path d="M 88.783784 78.616216 
" clip-path="url(#pa816e70afa)" style="fill: none; stroke: #d3d3d3; stroke-width: 0.8; stroke-linecap: round"/>
    </g>
    <g id="line2d_12">
     <path d="M 137.069524 129.83169 
L 139.499935 130.579623 
" style="fill: none; stroke: #808080; stroke-width: 0.8; stroke-linecap: round"/>
    </g>
    <g id="text_7">
     <!-- 0.0 -->
     <g style="fill: #808080" transform="translate(142.333152 150.565158) scale(0.1 -0.1)">
      <use xlink:href="#DejaVuSans-30"/>
      <use xlink:href="#DejaVuSans-2e" x="63.623047"/>
      <use xlink:href="#DejaVuSans-30" x="95.410156"/>
     </g>
    </g>
   </g>
   <g id="xtick_6">
    <g id="line2d_13">
     <path d="M 88.783784 78.616216 
" clip-path="url(#pa816e70afa)" style="fill: none; stroke: #d3d3d3; stroke-width: 0.8; stroke-linecap: round"/>
    </g>
    <g id="line2d_14">
     <path d="M 150.996877 115.564403 
L 153.386491 116.277268 
" style="fill: none; stroke: #808080; stroke-width: 0.8; stroke-linecap: round"/>
    </g>
    <g id="text_8">
     <!-- 0.2 -->
     <g style="fill: #808080" transform="translate(155.964215 135.968173) scale(0.1 -0.1)">
      <use xlink:href="#DejaVuSans-30"/>
      <use xlink:href="#DejaVuSans-2e" x="63.623047"/>
      <use xlink:href="#DejaVuSans-32" x="95.410156"/>
     </g>
    </g>
   </g>
  </g>
  <g id="axis3d_3">
   <g id="line2d_15">
    <path d="M 163.247803 104.046152 
L 166.583609 31.200681 
" style="fill: none; stroke: #ffffff; stroke-width: 0.8; stroke-linecap: round"/>
   </g>
   <g id="text_9">
    <!-- z -->
    <g style="fill: #262626" transform="translate(202.494937 65.789607) scale(0.1 -0.1)">
     <defs>
      <path id="DejaVuSans-7a" d="M 353 3500 
L 3084 3500 
L 3084 2975 
L 922 459 
L 3084 459 
L 3084 0 
L 275 0 
L 275 525 
L 2438 3041 
L 353 3041 
L 353 3500 
z
" transform="scale(0.015625)"/>
     </defs>
     <use xlink:href="#DejaVuSans-7a"/>
    </g>
   </g>
   <g id="Line3DCollection_3">
    <path d="M 164.058793 86.336222 
L 69.575274 59.728946 
L 10.645925 107.566804 
" style="fill: none; stroke: #d3d3d3; stroke-width: 0.8"/>
    <path d="M 164.82124 69.686315 
L 69.390077 43.623752 
L 9.824064 90.500315 
" style="fill: none; stroke: #d3d3d3; stroke-width: 0.8"/>
    <path d="M 165.599291 52.695668 
L 69.201274 27.204982 
L 8.984729 73.070995 
" style="fill: none; stroke: #d3d3d3; stroke-width: 0.8"/>
    <path d="M 166.39343 35.353714 
L 69.008759 10.463387 
L 8.127359 55.26715 
" style="fill: none; stroke: #d3d3d3; stroke-width: 0.8"/>
   </g>
   <g id="xtick_7">
    <g id="line2d_16">
     <path d="M 88.783784 78.616216 
" style="fill: none; stroke: #d3d3d3; stroke-width: 0.8; stroke-linecap: round"/>
    </g>
    <g id="line2d_17">
     <path d="M 163.265412 86.1128 
L 165.647462 86.783603 
" style="fill: none; stroke: #808080; stroke-width: 0.8; stroke-linecap: round"/>
    </g>
    <g id="text_10">
     <!-- 0.025 -->
     <g style="fill: #808080" transform="translate(168.159422 91.386277) scale(0.1 -0.1)">
      <defs>
       <path id="DejaVuSans-35" d="M 691 4666 
L 3169 4666 
L 3169 4134 
L 1269 4134 
L 1269 2991 
Q 1406 3038 1543 3061 
Q 1681 3084 1819 3084 
Q 2600 3084 3056 2656 
Q 3513 2228 3513 1497 
Q 3513 744 3044 326 
Q 2575 -91 1722 -91 
Q 1428 -91 1123 -41 
Q 819 9 494 109 
L 494 744 
Q 775 591 1075 516 
Q 1375 441 1709 441 
Q 2250 441 2565 725 
Q 2881 1009 2881 1497 
Q 2881 1984 2565 2268 
Q 2250 2553 1709 2553 
Q 1456 2553 1204 2497 
Q 953 2441 691 2322 
L 691 4666 
z
" transform="scale(0.015625)"/>
      </defs>
      <use xlink:href="#DejaVuSans-30"/>
      <use xlink:href="#DejaVuSans-2e" x="63.623047"/>
      <use xlink:href="#DejaVuSans-30" x="95.410156"/>
      <use xlink:href="#DejaVuSans-32" x="159.033203"/>
      <use xlink:href="#DejaVuSans-35" x="222.65625"/>
     </g>
    </g>
   </g>
   <g id="xtick_8">
    <g id="line2d_18">
     <path d="M 88.783784 78.616216 
" style="fill: none; stroke: #d3d3d3; stroke-width: 0.8; stroke-linecap: round"/>
    </g>
    <g id="line2d_19">
     <path d="M 164.019518 69.467362 
L 166.426631 70.124752 
" style="fill: none; stroke: #808080; stroke-width: 0.8; stroke-linecap: round"/>
    </g>
    <g id="text_11">
     <!-- 0.050 -->
     <g style="fill: #808080" transform="translate(169.104013 74.787452) scale(0.1 -0.1)">
      <use xlink:href="#DejaVuSans-30"/>
      <use xlink:href="#DejaVuSans-2e" x="63.623047"/>
      <use xlink:href="#DejaVuSans-30" x="95.410156"/>
      <use xlink:href="#DejaVuSans-35" x="159.033203"/>
      <use xlink:href="#DejaVuSans-30" x="222.65625"/>
     </g>
    </g>
   </g>
   <g id="xtick_9">
    <g id="line2d_20">
     <path d="M 88.783784 78.616216 
" style="fill: none; stroke: #d3d3d3; stroke-width: 0.8; stroke-linecap: round"/>
    </g>
    <g id="line2d_21">
     <path d="M 164.789051 52.481415 
L 167.221759 53.1247 
" style="fill: none; stroke: #808080; stroke-width: 0.8; stroke-linecap: round"/>
    </g>
    <g id="text_12">
     <!-- 0.075 -->
     <g style="fill: #808080" transform="translate(170.067845 57.850514) scale(0.1 -0.1)">
      <defs>
       <path id="DejaVuSans-37" d="M 525 4666 
L 3525 4666 
L 3525 4397 
L 1831 0 
L 1172 0 
L 2766 4134 
L 525 4134 
L 525 4666 
z
" transform="scale(0.015625)"/>
      </defs>
      <use xlink:href="#DejaVuSans-30"/>
      <use xlink:href="#DejaVuSans-2e" x="63.623047"/>
      <use xlink:href="#DejaVuSans-30" x="95.410156"/>
      <use xlink:href="#DejaVuSans-37" x="159.033203"/>
      <use xlink:href="#DejaVuSans-35" x="222.65625"/>
     </g>
    </g>
   </g>
   <g id="xtick_10">
    <g id="line2d_22">
     <path d="M 88.783784 78.616216 
" style="fill: none; stroke: #d3d3d3; stroke-width: 0.8; stroke-linecap: round"/>
    </g>
    <g id="line2d_23">
     <path d="M 165.574489 35.144402 
L 168.033341 35.772855 
" style="fill: none; stroke: #808080; stroke-width: 0.8; stroke-linecap: round"/>
    </g>
    <g id="text_13">
     <!-- 0.100 -->
     <g style="fill: #808080" transform="translate(171.051511 40.565028) scale(0.1 -0.1)">
      <defs>
       <path id="DejaVuSans-31" d="M 794 531 
L 1825 531 
L 1825 4091 
L 703 3866 
L 703 4441 
L 1819 4666 
L 2450 4666 
L 2450 531 
L 3481 531 
L 3481 0 
L 794 0 
L 794 531 
z
" transform="scale(0.015625)"/>
      </defs>
      <use xlink:href="#DejaVuSans-30"/>
      <use xlink:href="#DejaVuSans-2e" x="63.623047"/>
      <use xlink:href="#DejaVuSans-31" x="95.410156"/>
      <use xlink:href="#DejaVuSans-30" x="159.033203"/>
      <use xlink:href="#DejaVuSans-30" x="222.65625"/>
     </g>
    </g>
   </g>
  </g>
  <g id="axes_1">
   <g id="line2d_24">
    <path d="M 88.434791 45.296558 
L 87.169004 72.228352 
L 86.307567 90.413868 
L 86.217041 96.436948 
L 86.393385 101.06137 
L 86.695725 103.796526 
L 87.124295 106.007583 
L 87.649274 107.766244 
L 88.430871 109.507651 
L 89.206063 110.668028 
L 89.997462 111.469491 
L 90.461503 111.763325 
L 90.108589 111.643046 
L 89.147914 111.526774 
L 88.090593 111.607565 
L 87.051265 111.924057 
L 86.398493 112.343386 
L 86.01965 112.871253 
L 85.957677 113.302093 
L 86.099483 113.728214 
L 86.438647 114.116513 
L 87.15494 114.521481 
L 88.080995 114.742788 
L 89.083781 114.744532 
L 90.013995 114.522325 
L 90.728606 114.104743 
L 91.052505 113.697236 
L 91.157873 113.244635 
L 91.030687 112.783863 
L 90.676147 112.353161 
L 90.118559 111.989079 
L 89.133639 111.661459 
L 88.000869 111.562736 
L 86.884362 111.71584 
L 85.952217 112.107134 
L 85.464134 112.527931 
L 85.210279 113.0219 
L 85.218909 113.548288 
L 85.496695 114.062067 
L 86.027445 114.51785 
L 86.77275 114.874037 
L 87.674626 115.096736 
L 88.659972 115.163016 
L 89.646551 115.063123 
L 90.54999 114.801463 
L 91.291153 114.396291 
L 91.80316 113.878202 
L 92.037347 113.287617 
L 91.967629 112.671543 
L 91.592904 112.079887 
L 90.937445 111.561581 
L 90.049306 111.160763 
L 88.99695 110.913202 
L 87.864283 110.843203 
L 86.74434 110.961223 
L 85.731961 111.262416 
L 84.915941 111.726298 
L 84.371288 112.317664 
L 84.152291 112.988841 
L 84.202312 113.452923 
L 84.411329 113.909405 
L 85.010591 114.540367 
L 85.913597 115.055859 
L 87.05132 115.40692 
L 88.332379 115.558121 
L 89.650413 115.491007 
L 90.893118 115.205849 
L 91.952132 114.721633 
L 92.73276 114.074366 
L 93.061582 113.576482 
L 93.219229 113.045547 
L 93.197343 112.500318 
L 92.994149 111.96025 
L 92.614535 111.444836 
L 91.740981 110.758907 
L 90.561553 110.228397 
L 89.166808 109.900172 
L 87.667529 109.806173 
L 86.186597 109.960268 
L 84.849449 110.356273 
L 83.773687 110.967396 
L 83.251861 111.472156 
L 82.913955 112.034202 
L 82.776472 112.632683 
L 82.848631 113.244689 
L 83.131841 113.846127 
L 83.619467 114.412714 
L 84.296898 114.921023 
L 85.141914 115.349529 
L 86.658238 115.802844 
L 88.362445 115.98886 
L 90.11231 115.884039 
L 91.75782 115.490079 
L 92.724948 115.078987 
L 93.542588 114.564321 
L 94.177518 113.963549 
L 94.603202 113.29736 
L 94.800817 112.588898 
L 94.759929 111.862944 
L 94.478841 111.145083 
L 93.964615 110.460867 
L 93.232821 109.834998 
L 92.307038 109.290524 
L 91.218146 108.848053 
L 90.003416 108.525012 
L 88.039581 108.292845 
L 86.048037 108.38538 
L 84.7874 108.629028 
L 83.637377 109.011562 
L 82.643697 109.521213 
L 81.847282 110.141023 
L 81.282519 110.849211 
L 80.975737 111.619761 
L 80.943988 112.423246 
L 81.194166 113.227907 
L 81.722511 114.000956 
L 82.514504 114.710028 
L 83.545154 115.324689 
L 84.77968 115.817874 
L 86.174591 116.167153 
L 87.679154 116.35573 
L 89.237236 116.373156 
L 90.789469 116.215723 
L 92.275646 115.886558 
L 93.637249 115.395425 
L 94.819941 114.758264 
L 95.775877 113.996496 
L 96.465685 113.136125 
L 96.860004 112.206721 
L 96.940513 111.240324 
L 96.70045 110.270358 
L 96.14468 109.330574 
L 95.289379 108.454029 
L 94.161439 107.67209 
L 92.797652 107.01344 
L 91.243703 106.503083 
L 89.552944 106.161387 
L 87.784909 106.003223 
L 86.003539 106.037265 
L 84.275086 106.265498 
L 82.665747 106.682932 
L 81.239109 107.277515 
L 80.053532 108.03021 
L 79.15964 108.915245 
L 78.59806 109.900608 
L 78.397555 110.948854 
L 78.573639 112.018331 
L 79.127708 113.064836 
L 80.046679 114.043639 
L 81.303136 114.911702 
L 82.855956 115.629874 
L 84.651431 116.16484 
L 86.624921 116.490675 
L 88.703068 116.589924 
L 90.806554 116.454245 
L 92.853326 116.084616 
L 94.762144 115.49118 
L 96.45622 114.692722 
L 97.866686 113.715792 
L 98.935633 112.593512 
L 99.618479 111.364139 
L 99.885533 110.069528 
L 99.722732 108.753621 
L 99.131634 107.461074 
L 98.128871 106.236021 
L 96.745285 105.120912 
L 95.024895 104.155306 
L 93.023802 103.374573 
L 90.808936 102.808513 
L 88.456548 102.480043 
L 86.050255 102.404115 
L 83.678547 102.587001 
L 81.431748 103.025945 
L 79.398515 103.709099 
L 77.662087 104.615552 
L 76.296557 105.715405 
L 75.36344 106.969909 
L 75.074103 107.64073 
L 74.908814 108.331937 
L 74.870571 109.036506 
L 74.96118 109.747078 
L 75.181236 110.456034 
L 75.530107 111.155593 
L 76.005926 111.837919 
L 77.324819 113.11992 
L 79.098696 114.242479 
L 81.269698 115.15212 
L 83.76267 115.804252 
L 86.487239 116.165169 
L 89.340762 116.213246 
L 92.212229 115.939522 
L 94.987004 115.34783 
L 97.552159 114.454549 
L 99.801975 113.287902 
L 101.643153 111.886692 
L 102.385849 111.112695 
L 102.999216 110.298433 
L 103.476846 109.450826 
L 103.813702 108.577039 
L 104.006132 107.684409 
L 104.05187 106.780383 
L 103.950007 105.872454 
L 103.700958 104.968121 
L 103.306408 104.074841 
L 102.769265 103.199996 
L 102.093601 102.350863 
L 101.284602 101.534569 
L 100.348519 100.758063 
L 98.125221 99.350976 
L 95.493687 98.179447 
L 92.538844 97.286489 
L 89.359405 96.706015 
L 86.066081 96.460968 
L 82.778783 96.562337 
L 79.622699 97.009127 
L 76.723353 97.788947 
L 74.200991 98.878563 
L 73.115878 99.529325 
L 72.164771 100.243857 
L 71.358686 101.016071 
L 70.707314 101.839089 
L 70.218902 102.70523 
L 69.900168 103.606012 
L 69.75623 104.532191 
L 69.79056 105.473831 
L 70.004959 106.420415 
L 70.39954 107.360985 
L 70.972732 108.284326 
L 71.721284 109.179151 
L 72.640274 110.03431 
L 73.723125 110.838994 
L 74.961622 111.582914 
L 76.345926 112.256475 
L 77.864614 112.850897 
L 79.504713 113.358329 
L 81.251765 113.771909 
L 83.089911 114.085812 
L 85.002002 114.29527 
L 86.969744 114.396583 
L 88.973866 114.387122 
L 90.994327 114.265334 
L 93.010545 114.030746 
L 95.001644 113.683978 
L 96.946733 113.226754 
L 98.825176 112.661915 
L 100.616884 111.993412 
L 102.302596 111.226297 
L 103.864146 110.366677 
L 105.284725 109.421651 
L 106.549103 108.399217 
L 107.643829 107.308148 
L 108.557386 106.157853 
L 109.280301 104.958223 
L 109.805201 103.719481 
L 110.12683 102.452037 
L 110.242003 101.166367 
L 110.14953 99.872921 
L 109.8501 98.582059 
L 109.346157 97.304024 
L 108.641758 96.048921 
L 107.742449 94.826726 
L 106.655157 93.647274 
L 105.388116 92.520241 
L 103.950812 91.455094 
L 102.353973 90.461008 
L 100.609575 89.546743 
L 98.730862 88.720496 
L 96.732371 87.989739 
L 94.62995 87.361045 
L 92.440748 86.839944 
L 90.183185 86.430803 
L 87.876873 86.136764 
L 85.542505 85.959733 
L 83.201704 85.900426 
L 80.87683 85.958472 
L 78.590751 86.132546 
L 76.36659 86.420516 
L 74.227445 86.819584 
L 72.19609 87.326394 
L 70.294668 87.937085 
L 68.544382 88.647281 
L 66.965187 89.452006 
L 65.575505 90.34554 
L 64.39196 91.321223 
L 63.429161 92.371245 
L 62.699513 93.486449 
L 62.213104 94.656178 
L 61.977622 95.868215 
L 61.998339 97.108821 
L 62.278122 98.362892 
L 62.817478 99.614233 
L 63.614603 100.845922 
L 64.665424 102.040744 
L 65.963624 103.181642 
L 67.500638 104.252161 
L 69.265622 105.236822 
L 71.24541 106.121427 
L 73.424457 106.893248 
L 75.784806 107.541126 
L 78.306081 108.055473 
L 80.96554 108.42821 
L 83.738191 108.652675 
L 86.596976 108.723519 
L 89.513039 108.636644 
L 92.456056 108.389177 
L 95.394619 107.97952 
L 98.296677 107.407445 
L 101.13 106.674249 
L 103.862662 105.782916 
L 106.463542 104.738285 
L 108.902819 103.547165 
L 111.152461 102.218382 
L 113.186692 100.762724 
L 114.982431 99.192787 
L 116.519671 97.522703 
L 117.781785 95.767789 
L 118.755735 93.944138 
L 119.432152 92.068197 
L 119.805297 90.15639 
L 119.872873 88.224821 
L 119.63574 86.289092 
L 119.097532 84.364256 
L 118.264251 82.464885 
L 117.143866 80.605225 
L 115.745977 78.799383 
L 114.08159 77.061482 
L 112.163001 75.405728 
L 110.003815 73.846344 
L 107.61907 72.397344 
L 105.02543 71.072162 
L 102.241419 69.883164 
L 99.287629 68.841114 
L 96.186886 67.95466 
L 92.964326 67.229926 
L 89.647371 66.670273 
L 86.265605 66.276278 
L 82.850554 66.045945 
L 79.435379 65.975145 
L 76.054508 66.058211 
L 72.743217 66.288641 
L 69.537174 66.659799 
L 66.471938 67.165522 
L 63.582441 67.800538 
L 60.902423 68.560614 
L 58.46386 69.442406 
L 56.296382 70.442987 
L 54.426716 71.559102 
L 52.878199 72.786243 
L 51.670398 74.117664 
L 50.818883 75.543483 
L 50.335165 77.050028 
L 50.226816 78.619546 
L 50.497718 80.230345 
L 51.148406 81.857392 
L 52.176417 83.473282 
L 53.576568 85.049487 
L 55.341114 86.557694 
L 57.459721 87.971073 
L 59.919283 89.265326 
L 62.703588 90.419375 
L 65.792915 91.415658 
L 69.16363 92.240017 
L 72.787874 92.881257 
L 76.633411 93.330482 
L 80.66368 93.580348 
L 84.838071 93.624386 
L 89.112414 93.456513 
L 93.439623 93.070835 
L 97.77046 92.461783 
L 102.054349 91.624563 
L 106.240203 90.555877 
L 110.277235 89.25481 
L 114.115761 87.723746 
L 117.708002 85.969196 
L 121.008923 84.002376 
L 123.977114 81.83945 
L 126.575725 79.501327 
L 128.773389 77.013028 
L 130.545085 74.402626 
L 131.872788 71.69991 
L 132.745813 68.934929 
L 133.160728 66.136638 
L 133.120805 63.331885 
L 132.635043 60.54488 
L 131.716894 57.79725 
L 130.382876 55.108612 
L 128.651309 52.497527 
L 126.541343 49.982561 
L 124.072437 47.583182 
L 121.264298 45.320247 
L 118.137261 43.215896 
L 114.712952 41.292822 
L 111.015105 39.572997 
L 107.070334 38.076048 
L 102.908734 36.817561 
L 98.564211 35.807616 
L 94.074504 35.049805 
L 89.480922 34.540934 
L 84.827859 34.271475 
L 80.162167 34.226743 
L 75.532463 34.388654 
L 70.988432 34.737826 
L 66.580132 35.255776 
L 62.357313 35.926892 
L 58.36869 36.739946 
L 54.661144 37.688876 
L 51.27881 38.772724 
L 48.26207 39.994645 
L 45.646513 41.360066 
L 43.461957 42.874209 
L 41.731705 44.539298 
L 40.472155 46.351885 
L 39.692885 48.300729 
L 39.39722 50.365619 
L 39.583214 52.51737 
L 40.244858 54.719023 
L 41.373297 56.928096 
L 42.957826 59.099525 
L 44.986465 61.188873 
L 47.446035 63.155331 
L 50.321715 64.964137 
L 53.59619 66.588105 
L 57.24855 68.008145 
L 61.25316 69.212783 
L 65.578707 70.196844 
L 70.187602 70.959564 
L 75.035844 71.502454 
L 80.073376 71.827295 
L 85.244885 71.934537 
L 90.490912 71.822365 
L 95.749149 71.486537 
L 100.955759 70.920978 
L 106.046616 70.11905 
L 110.958422 69.075253 
L 115.629688 67.787131 
L 120.001667 66.257092 
L 124.019291 64.493861 
L 127.632224 62.513345 
L 130.796053 60.338728 
L 133.473595 57.999718 
L 135.636191 55.530988 
L 137.264793 52.969982 
L 138.35059 50.354397 
L 138.894973 47.719738 
L 138.908699 45.097386 
L 138.410302 42.513513 
L 137.423967 39.989045 
L 135.977188 37.540634 
L 134.098604 35.182371 
L 131.816353 32.927822 
L 129.157139 30.791904 
L 126.146083 28.792161 
L 122.807252 26.949154 
L 119.164657 25.285862 
L 115.243474 23.826206 
L 111.071219 22.592963 
L 106.678679 21.605457 
L 102.100459 20.87744 
L 97.375119 20.415542 
L 92.544915 20.218531 
L 87.65525 20.277541 
L 82.753944 20.577192 
L 77.890438 21.097475 
L 73.115007 21.816113 
L 68.478027 22.711082 
L 64.029279 23.762974 
L 59.817262 24.956871 
L 55.888455 26.283488 
L 52.286486 27.739402 
L 49.051204 29.326294 
L 46.217696 31.049253 
L 43.815345 32.914321 
L 41.867074 34.925615 
L 40.388924 37.082427 
L 39.390074 39.376769 
L 38.873358 41.791774 
L 38.836213 44.30124 
L 39.271913 46.870413 
L 40.170873 49.457909 
L 41.521789 52.018475 
L 43.312413 54.506183 
L 45.529837 56.877613 
L 48.160255 59.094593 
L 51.188244 61.126172 
L 54.595737 62.949647 
L 58.360837 64.550563 
L 62.456714 65.921796 
L 66.850762 67.06192 
L 71.504162 67.973148 
L 76.371916 68.659183 
L 81.403362 69.123317 
L 86.543076 69.367033 
L 91.732039 69.389314 
L 96.908929 69.186712 
L 102.011403 68.754142 
L 106.977277 68.086247 
L 111.745588 67.179129 
L 116.257539 66.032172 
L 120.4574 64.649693 
L 124.293447 63.042182 
L 127.718997 61.226914 
L 130.693549 59.227804 
L 133.183999 57.074474 
L 135.165762 54.800609 
L 136.623636 52.441805 
L 137.552176 50.033225 
L 137.9554 47.607451 
L 137.845788 45.192907 
L 137.242631 42.813127 
L 136.169962 40.486993 
L 134.654409 38.229845 
L 132.723291 36.055169 
L 130.403242 33.97648 
L 127.719527 32.008938 
L 124.696058 30.170346 
L 121.356001 28.481289 
L 117.722775 26.964375 
L 113.821197 25.642712 
L 109.678561 24.537882 
L 105.325454 23.667793 
L 100.796219 23.044771 
L 96.129024 22.674232 
L 91.365582 22.554148 
L 86.550615 22.675405 
L 81.731152 23.022991 
L 76.955774 23.57786 
L 72.273869 24.319196 
L 67.734923 25.226795 
L 63.387842 26.283232 
L 59.280257 27.475537 
L 55.45778 28.796145 
L 51.963159 30.242948 
L 48.835348 31.818413 
L 46.108531 33.52782 
L 43.811217 35.376812 
L 41.965533 37.368606 
L 40.58685 39.50124 
L 39.683871 41.76533 
L 39.25917 44.142698 
L 39.310155 46.606134 
L 39.830261 49.120351 
L 40.810193 51.644007 
L 42.238973 54.132489 
L 44.104609 56.541045 
L 46.394287 58.82783 
L 49.094049 60.956466 
L 52.188039 62.89782 
L 55.657455 64.630818 
L 59.47941 66.142282 
L 63.625896 67.425893 
L 68.06303 68.480502 
L 72.750723 69.308084 
L 77.642822 69.911676 
L 82.6877 70.293616 
L 87.829209 70.454319 
L 93.007873 70.391766 
L 98.162166 70.101753 
L 103.229766 69.578812 
L 108.148706 68.817667 
L 112.858391 67.814989 
L 117.300535 66.571189 
L 121.420066 65.091982 
L 125.166082 63.389492 
L 128.492923 61.482701 
L 131.361346 59.397119 
L 133.739747 57.163688 
L 135.605261 54.816992 
L 136.944551 52.393028 
L 137.75406 49.926871 
L 138.039577 47.450605 
L 137.815076 44.991913 
L 137.100954 42.57355 
L 135.921912 40.213791 
L 134.304818 37.927703 
L 132.276901 35.728917 
L 129.864515 33.631491 
L 127.092614 31.651413 
L 123.984923 29.807414 
L 120.564654 28.120883 
L 116.855568 26.614902 
L 112.883132 25.312556 
L 108.67554 24.234827 
L 104.264466 23.398455 
L 99.685414 22.814132 
L 94.977702 22.485349 
L 90.184093 22.408081 
L 85.350204 22.571375 
L 80.523774 22.958742 
L 75.753896 23.550174 
L 71.090281 24.324497 
L 66.582549 25.261744 
L 62.279554 26.345259 
L 58.228677 27.563216 
L 54.475054 28.909366 
L 51.060706 30.382851 
L 48.023585 31.987079 
L 45.396595 33.72774 
L 43.20672 35.610216 
L 41.474384 37.636725 
L 40.21319 39.803635 
L 39.430125 42.099392 
L 39.126229 44.503406 
L 39.297647 46.986121 
L 39.936872 49.510275 
L 41.03397 52.03317 
L 42.577553 54.509609 
L 44.555349 56.895076 
L 46.954247 59.148709 
L 49.759864 61.235708 
L 52.955682 63.128876 
L 56.521958 64.809195 
L 60.434574 66.265408 
L 64.664056 67.492787 
L 69.174911 68.4913 
L 73.925413 69.263521 
L 78.867863 69.812595 
L 83.949289 70.140576 
L 89.112478 70.247372 
L 94.297208 70.130417 
L 99.441538 69.785102 
L 104.483044 69.205854 
L 109.359938 68.3877 
L 114.012064 67.328062 
L 118.381819 66.028523 
L 122.41506 64.49631 
L 126.062093 62.745245 
L 129.278768 60.796009 
L 132.027678 58.675616 
L 134.279368 56.416119 
L 136.013376 54.052682 
L 137.218905 51.621281 
L 137.894908 49.156394 
L 138.049466 46.689063 
L 137.698454 44.24569 
L 136.863649 41.847761 
L 135.570573 39.512522 
L 133.846408 37.254418 
L 131.718303 35.086944 
L 129.21232 33.024451 
L 126.353088 31.083513 
L 123.16413 29.283521 
L 119.66869 27.646377 
L 115.890842 26.195321 
L 111.856639 24.953103 
L 107.595073 23.939834 
L 103.138739 23.17089 
L 98.524091 22.65525 
L 93.791328 22.394537 
L 88.983962 22.382925 
L 84.148184 22.607943 
L 79.332111 23.052042 
L 74.585031 23.694721 
L 69.956663 24.514915 
L 65.496469 25.493327 
L 61.25297 26.614405 
L 57.273033 27.867688 
L 53.601072 29.24833 
L 50.278156 30.756675 
L 47.341043 32.396903 
L 44.821215 34.174878 
L 42.744053 36.09545 
L 41.128278 38.159606 
L 39.985804 40.361903 
L 39.32206 42.688604 
L 39.136765 45.116847 
L 39.425044 47.615021 
L 40.17869 50.144297 
L 41.387342 52.661095 
L 43.039368 55.120123 
L 45.122312 57.477541 
L 47.622814 59.693821 
L 50.526059 61.735961 
L 53.814843 63.578789 
L 57.468449 65.205289 
L 61.461522 66.605961 
L 65.763153 67.777419 
L 70.336321 68.720466 
L 75.137796 69.437982 
L 80.118512 69.932967 
L 85.224364 70.207009 
L 90.397298 70.259397 
L 95.576569 70.086993 
L 100.700028 69.68483 
L 105.70533 69.047331 
L 110.531022 68.169952 
L 110.531022 68.169952 
" clip-path="url(#pa816e70afa)" style="fill: none; stroke: #1f77b4; stroke-width: 1.5; stroke-linecap: round"/>
   </g>
   <g id="line2d_25">
    <path d="M 88.434791 45.296558 
L 88.405592 98.624431 
L 88.19895 109.360808 
L 88.174128 112.778099 
L 88.380013 113.274538 
L 88.583497 113.354831 
L 88.214949 113.24428 
L 87.958566 113.386363 
L 88.005002 113.543325 
L 88.310093 113.645748 
L 88.714269 113.557129 
L 88.822884 113.358401 
L 88.657667 113.182559 
L 88.23491 113.097957 
L 87.794102 113.20792 
L 87.623268 113.435265 
L 87.737652 113.652119 
L 88.084422 113.805502 
L 88.644865 113.817767 
L 89.122776 113.621342 
L 89.26961 113.335714 
L 89.134305 113.083776 
L 88.772884 112.887061 
L 88.143169 112.801433 
L 87.4987 112.925835 
L 87.123867 113.177074 
L 87.015233 113.43955 
L 87.113848 113.714397 
L 87.420871 113.956408 
L 88.043565 114.146981 
L 88.803453 114.155034 
L 89.516645 113.957825 
L 89.924292 113.669667 
L 90.098816 113.305085 
L 89.992291 112.917414 
L 89.599551 112.567964 
L 88.962264 112.316513 
L 88.165681 112.211399 
L 87.328155 112.280742 
L 86.584581 112.526228 
L 86.065837 112.920592 
L 85.889096 113.282248 
L 85.927188 113.666559 
L 86.190269 114.03837 
L 86.668125 114.361334 
L 87.582886 114.657594 
L 88.696678 114.742571 
L 89.83991 114.581872 
L 90.823961 114.179406 
L 91.349701 113.744284 
L 91.6251 113.230121 
L 91.609764 112.678688 
L 91.288032 112.137474 
L 90.671664 111.655592 
L 89.800164 111.279364 
L 88.738639 111.047983 
L 87.573336 110.989605 
L 86.405133 111.118197 
L 85.341422 111.431426 
L 84.486912 111.909815 
L 83.93401 112.517318 
L 83.769082 112.969595 
L 83.784207 113.439172 
L 83.986522 113.906637 
L 84.375742 114.351748 
L 84.943792 114.754236 
L 86.094287 115.235967 
L 87.524712 115.520902 
L 89.117905 115.566273 
L 90.733685 115.349285 
L 92.221157 114.870604 
L 93.068122 114.417648 
L 93.752323 113.872658 
L 94.239314 113.253378 
L 94.501651 112.5812 
L 94.520243 111.880368 
L 94.285363 111.177058 
L 93.7973 110.498353 
L 93.066607 109.871175 
L 92.11396 109.321213 
L 90.969621 108.871873 
L 89.672554 108.543309 
L 88.269193 108.351537 
L 86.811924 108.30769 
L 85.357314 108.417408 
L 83.96413 108.680407 
L 82.69119 109.090231 
L 81.595112 109.634209 
L 80.72801 110.293642 
L 80.135211 111.04421 
L 79.853073 111.856637 
L 79.906999 112.697587 
L 80.309747 113.530808 
L 81.060146 114.318477 
L 82.142331 115.022726 
L 83.525579 115.607284 
L 85.164834 116.039166 
L 87.001951 116.290317 
L 88.967659 116.339122 
L 90.984185 116.171691 
L 92.968428 115.782806 
L 94.835542 115.176497 
L 96.502713 114.36616 
L 97.892949 113.374233 
L 98.938644 112.231415 
L 99.584745 110.975504 
L 99.744829 110.318527 
L 99.791352 109.649891 
L 99.722008 108.97561 
L 99.53564 108.301816 
L 98.813049 106.980473 
L 97.637707 105.735055 
L 96.042142 104.61282 
L 94.076313 103.657252 
L 91.806048 102.906363 
L 89.310964 102.391191 
L 86.681941 102.134502 
L 84.018224 102.149728 
L 81.424192 102.440158 
L 79.005854 102.998398 
L 76.867109 103.806127 
L 75.10582 104.834179 
L 73.809785 106.042998 
L 73.359925 106.700195 
L 73.052695 107.383497 
L 72.894462 108.085493 
L 72.89024 108.798366 
L 73.043592 109.513958 
L 73.356534 110.223846 
L 73.829467 110.919424 
L 74.461106 111.591984 
L 75.248438 112.232818 
L 76.186698 112.833306 
L 77.269361 113.385028 
L 79.833118 114.310069 
L 82.853546 114.948384 
L 86.219911 115.250081 
L 89.800933 115.177884 
L 93.450226 114.709571 
L 97.01289 113.839665 
L 98.712799 113.257207 
L 100.332842 112.580263 
L 101.854569 111.813066 
L 103.260396 110.960871 
L 104.533813 110.029905 
L 105.659591 109.027291 
L 106.623956 107.960971 
L 107.414756 106.839613 
L 108.021591 105.672514 
L 108.435933 104.469495 
L 108.651208 103.24079 
L 108.662868 101.996935 
L 108.468423 100.748658 
L 108.06746 99.50676 
L 107.46164 98.282014 
L 106.654663 97.085052 
L 105.652232 95.926265 
L 104.46198 94.815707 
L 103.0934 93.763002 
L 101.55775 92.777261 
L 99.867946 91.867 
L 98.038459 91.040071 
L 96.085184 90.303593 
L 94.025318 89.663891 
L 91.877223 89.126448 
L 89.660287 88.695848 
L 87.394777 88.375736 
L 85.101693 88.168782 
L 82.802611 88.076645 
L 80.519521 88.099944 
L 78.27467 88.238237 
L 76.090381 88.490001 
L 73.988886 88.852618 
L 71.992136 89.32237 
L 70.121616 89.894437 
L 68.398149 90.562905 
L 66.841691 91.320776 
L 65.471124 92.159998 
L 64.304044 93.071495 
L 63.356547 94.04521 
L 62.643008 95.070167 
L 62.175869 96.134535 
L 61.965424 97.225718 
L 62.01962 98.330448 
L 62.343867 99.434902 
L 62.94086 100.524831 
L 63.810433 101.585701 
L 64.949435 102.602853 
L 66.351635 103.561668 
L 68.007677 104.447751 
L 69.905062 105.247119 
L 72.02819 105.946389 
L 74.358446 106.532977 
L 76.874335 106.995288 
L 79.551681 107.3229 
L 82.36386 107.506739 
L 85.282102 107.539237 
L 88.275827 107.414471 
L 91.313022 107.128277 
L 94.360655 106.678341 
L 97.385115 106.064254 
L 100.352661 105.287544 
L 103.229883 104.35167 
L 105.98416 103.261982 
L 108.584099 102.025659 
L 110.999953 100.651607 
L 113.204015 99.150336 
L 115.170955 97.533813 
L 116.878134 95.815295 
L 118.305852 94.009146 
L 119.437556 92.130645 
L 120.259983 90.195788 
L 120.763265 88.221082 
L 120.940973 86.223351 
L 120.79012 84.219538 
L 120.311114 82.226522 
L 119.507684 80.260941 
L 118.38676 78.339031 
L 116.958338 76.476475 
L 115.23531 74.688274 
L 113.233289 72.988622 
L 110.970415 71.390803 
L 108.467149 69.907099 
L 105.746074 68.548711 
L 102.83168 67.325692 
L 99.75016 66.246886 
L 96.529201 65.319885 
L 93.19778 64.550979 
L 89.785958 63.94513 
L 86.324683 63.505934 
L 82.845582 63.235597 
L 79.380763 63.134918 
L 75.962608 63.203259 
L 72.623558 63.438541 
L 69.395898 63.83722 
L 66.31153 64.394287 
L 63.40173 65.10326 
L 60.696901 65.956189 
L 58.226306 66.943664 
L 56.017787 68.054836 
L 54.097476 69.27745 
L 52.489488 70.59789 
L 51.215606 72.001239 
L 50.294957 73.471364 
L 49.743693 74.991011 
L 49.574668 76.541933 
L 49.797129 78.105034 
L 50.416428 79.660542 
L 51.433762 81.188207 
L 52.845951 82.667519 
L 54.645262 84.077951 
L 56.819297 85.399222 
L 59.350944 86.611576 
L 62.218411 87.696067 
L 65.395339 88.634855 
L 68.851 89.411495 
L 72.550597 90.011221 
L 76.455642 90.421203 
L 80.524424 90.630795 
L 84.712555 90.631731 
L 88.973583 90.4183 
L 93.259655 89.987459 
L 97.522223 89.338914 
L 101.712765 88.475131 
L 105.783513 87.401309 
L 109.688155 86.125296 
L 113.382514 84.657451 
L 116.825162 83.01047 
L 119.977982 81.199171 
L 122.806642 79.24024 
L 125.280993 77.151966 
L 127.375373 74.953947 
L 129.068822 72.666796 
L 130.34521 70.311844 
L 131.193277 67.91085 
L 131.606596 65.485716 
L 131.583472 63.058233 
L 131.126776 60.649838 
L 130.243731 58.281391 
L 128.945663 55.972991 
L 127.247719 53.743802 
L 125.168569 51.611914 
L 122.7301 49.594225 
L 119.957102 47.706345 
L 116.876957 45.962519 
L 113.519344 44.375567 
L 109.915945 42.956842 
L 106.10017 41.716198 
L 102.106896 40.661964 
L 97.972216 39.800932 
L 93.733204 39.138341 
L 89.427693 38.677876 
L 85.094053 38.421657 
L 80.770981 38.370233 
L 76.497292 38.522578 
L 72.311701 38.876085 
L 68.25261 39.426557 
L 64.357874 40.168204 
L 60.66456 41.093641 
L 57.208692 42.193882 
L 54.024968 43.458349 
L 51.146473 44.874888 
L 48.604354 46.429786 
L 46.427489 48.107813 
L 44.642134 49.892276 
L 43.271552 51.765089 
L 42.335641 53.706874 
L 41.850554 55.697082 
L 41.82833 57.714141 
L 42.276537 59.735637 
L 43.197949 61.738525 
L 44.590259 63.699369 
L 46.44585 65.594606 
L 48.75163 67.400847 
L 51.488951 69.095189 
L 54.633614 70.655546 
L 58.155984 72.060993 
L 62.021204 73.292101 
L 66.189529 74.331276 
L 70.616763 75.163069 
L 75.254813 75.774463 
L 80.052332 76.155122 
L 84.955448 76.297596 
L 89.908566 76.197467 
L 94.855209 75.853445 
L 99.738889 75.267392 
L 104.503978 74.444292 
L 109.096552 73.392155 
L 113.465197 72.12186 
L 117.561742 70.646949 
L 121.34191 68.983375 
L 124.765875 67.149211 
L 127.79871 65.164334 
L 130.410725 63.050089 
L 132.57769 60.828948 
L 134.280958 58.524165 
L 135.507472 56.159448 
L 136.249693 53.758642 
L 136.505443 51.345435 
L 136.277674 48.943093 
L 135.574195 46.574218 
L 134.407343 44.260548 
L 132.793641 42.022774 
L 130.753426 39.880396 
L 128.31048 37.851606 
L 125.491661 35.953194 
L 122.32654 34.200477 
L 118.847057 32.607252 
L 115.087192 31.185756 
L 111.082663 29.946651 
L 106.870636 28.89901 
L 102.489461 28.050313 
L 97.978428 27.406446 
L 93.377537 26.971707 
L 88.727282 26.748804 
L 84.068442 26.738861 
L 79.441881 26.941418 
L 74.888349 27.354427 
L 70.448274 27.97425 
L 66.161552 28.795656 
L 62.06732 29.811812 
L 58.203718 31.01428 
L 54.607628 32.39302 
L 51.314394 33.936388 
L 48.357519 35.631158 
L 45.768339 37.462538 
L 43.575678 39.414215 
L 41.805477 41.468411 
L 40.480422 43.605964 
L 39.619549 45.806428 
L 39.237857 48.048209 
L 39.345932 50.308723 
L 39.949587 52.564593 
L 41.049534 54.791868 
L 42.641113 56.966286 
L 44.714073 59.063553 
L 47.252428 61.059661 
L 50.234412 62.931216 
L 53.632523 64.655784 
L 57.413683 66.21225 
L 61.53951 67.581164 
L 65.966712 68.745081 
L 70.647594 69.688879 
L 75.530671 70.400041 
L 80.561384 70.868899 
L 85.682891 71.08882 
L 90.836931 71.056343 
L 95.964709 70.771249 
L 101.007816 70.236561 
L 105.909124 69.458491 
L 110.613651 68.446309 
L 115.069368 67.212163 
L 119.22793 65.770846 
L 123.045304 64.139514 
L 126.482299 62.337376 
L 129.504973 60.385359 
L 132.084934 58.305752 
L 134.199507 56.121857 
L 135.83181 53.857639 
L 136.970712 51.537389 
L 137.61071 49.185413 
L 137.751721 46.825737 
L 137.398819 44.481849 
L 136.561914 42.17647 
L 135.255398 39.931355 
L 133.497774 37.767131 
L 131.311264 35.703155 
L 128.721424 33.757414 
L 125.756764 31.946438 
L 122.448381 30.285241 
L 118.829606 28.787281 
L 114.935687 27.464435 
L 110.803476 26.326981 
L 106.471152 25.383596 
L 101.977962 24.641355 
L 97.36398 24.105735 
L 92.669884 23.780621 
L 87.93675 23.66831 
L 83.205843 23.769515 
L 78.518428 24.083364 
L 73.915569 24.6074 
L 69.437926 25.337579 
L 65.125548 26.268261 
L 61.017644 27.392207 
L 57.152344 28.700573 
L 53.566438 30.182912 
L 50.295089 31.827178 
L 47.371531 33.619739 
L 44.826735 35.545406 
L 42.689057 37.587475 
L 40.983873 39.727785 
L 39.73319 41.946806 
L 38.955258 44.223746 
L 38.664179 46.536685 
L 38.869532 48.862752 
L 39.576016 51.178314 
L 40.783133 53.459217 
L 42.48492 55.681046 
L 44.669749 57.819418 
L 47.320201 59.8503 
L 50.413035 61.750347 
L 53.919261 63.497254 
L 57.804327 65.070112 
L 62.028414 66.449759 
L 66.546864 67.619117 
L 71.310711 68.563504 
L 76.267325 69.270915 
L 81.361154 69.732252 
L 86.534536 69.941502 
L 91.728575 69.895864 
L 96.88405 69.595799 
L 101.942332 69.045026 
L 106.846284 68.250443 
L 111.54112 67.221992 
L 115.975206 65.972459 
L 120.100765 64.517235 
L 123.874498 62.874019 
L 127.258085 61.062503 
L 130.218569 59.104028 
L 132.728626 57.021229 
L 134.766718 54.837681 
L 136.317131 52.57755 
L 137.369918 50.265259 
L 137.920749 47.925179 
L 137.970692 45.58134 
L 137.525927 43.257182 
L 136.597415 40.975324 
L 135.200537 38.757382 
L 133.354711 36.6238 
L 131.083001 34.593731 
L 128.411727 32.684926 
L 125.370087 30.913665 
L 121.989787 29.294698 
L 118.3047 27.841206 
L 114.350541 26.564782 
L 110.164566 25.475419 
L 105.785299 24.581503 
L 101.252272 23.88982 
L 96.605794 23.405558 
L 91.886726 23.132311 
L 87.136281 23.072087 
L 82.395818 23.225311 
L 77.70665 23.590822 
L 73.109846 24.165877 
L 68.646032 24.946141 
L 64.355171 25.925685 
L 60.276345 27.09698 
L 56.447504 28.450892 
L 52.905206 29.976684 
L 49.684325 31.662019 
L 46.817745 33.492982 
L 44.336022 35.454103 
L 42.267032 37.528407 
L 40.635595 39.697473 
L 39.463092 41.941528 
L 38.767072 44.239556 
L 38.560865 46.569444 
L 38.853204 48.908152 
L 39.647881 51.231923 
L 40.94343 53.516517 
L 42.732876 55.737484 
L 45.003542 57.870458 
L 47.736941 59.891483 
L 50.908762 61.777353 
L 54.488964 63.505961 
L 58.44198 65.056662 
L 62.727038 66.410621 
L 67.298606 67.551143 
L 72.106947 68.463986 
L 77.098784 69.13763 
L 82.218048 69.5635 
L 87.406717 69.736138 
L 92.605691 69.653311 
L 97.755709 69.316057 
L 102.798266 68.728667 
L 107.676509 67.898593 
L 112.336087 66.836303 
L 116.725939 65.555073 
L 120.798985 64.070736 
L 124.512726 62.401383 
L 127.829724 60.567038 
L 130.717971 58.589314 
L 133.151134 56.491056 
L 135.108683 54.295989 
L 136.57592 52.028367 
L 137.543897 49.712643 
L 138.009257 47.373169 
L 137.973996 45.033905 
L 137.44517 42.71818 
L 136.434562 40.448465 
L 134.958306 38.246197 
L 133.036508 36.131615 
L 130.692853 34.123646 
L 127.954213 32.2398 
L 124.850275 30.496103 
L 121.413168 28.907042 
L 117.677134 27.485531 
L 113.678196 26.242892 
L 109.453873 25.188845 
L 105.0429 24.331504 
L 100.484978 23.677381 
L 95.820544 23.231392 
L 91.090552 22.996862 
L 86.336268 22.975529 
L 81.59907 23.167546 
L 76.920256 23.571484 
L 72.340845 24.184328 
L 67.901375 25.001474 
L 63.641685 26.016718 
L 59.600689 27.22226 
L 55.816127 28.608692 
L 52.324298 30.165004 
L 49.159766 31.878589 
L 46.355048 33.735264 
L 43.940273 35.7193 
L 41.94283 37.813467 
L 40.386984 39.99911 
L 39.293495 42.256232 
L 38.679224 44.563618 
L 38.556745 46.898982 
L 38.933976 49.239146 
L 39.813835 51.560249 
L 41.193934 53.837992 
L 43.066338 56.047916 
L 45.417382 58.165697 
L 48.227582 60.167478 
L 51.471639 62.030211 
L 55.118545 63.732008 
L 59.131814 65.252505 
L 63.469821 66.573202 
L 68.086265 67.677798 
L 72.930747 68.552493 
L 77.949445 69.186248 
L 83.085887 69.571006 
L 88.281788 69.701849 
L 93.477944 69.577096 
L 98.615143 69.198343 
L 103.635086 68.570422 
L 108.481273 67.701312 
L 113.099848 66.601974 
L 117.440366 65.28614 
L 121.456479 63.770049 
L 125.106506 62.072147 
L 128.353901 60.212755 
L 131.167601 58.213723 
L 133.522245 56.098076 
L 135.398293 53.889652 
L 136.782028 51.612767 
L 137.665462 49.291882 
L 138.046166 46.951303 
L 137.927017 44.614905 
L 137.315899 42.305887 
L 136.225362 40.046562 
L 134.672243 37.858174 
L 132.677287 35.760752 
L 130.264749 33.77299 
L 127.462009 31.912155 
L 124.299194 30.194016 
L 120.808821 28.632796 
L 117.025457 27.241145 
L 112.985404 26.030114 
L 108.726408 25.009152 
L 104.287386 24.186104 
L 99.708186 23.567212 
L 95.029348 23.157124 
L 90.291897 22.958897 
L 85.537132 22.974 
L 80.806435 23.202322 
L 76.141074 23.642166 
L 71.582002 24.290249 
L 67.169656 25.141698 
L 62.943738 26.190041 
L 58.942983 27.427207 
L 55.204909 28.843517 
L 51.765545 30.427692 
L 48.659134 32.166857 
L 45.917814 34.046567 
L 43.571282 36.050834 
L 41.646424 38.162185 
L 40.166946 40.36173 
L 39.152976 42.629257 
L 38.620682 44.943361 
L 38.581878 47.281591 
L 39.043664 49.620636 
L 40.008083 51.936545 
L 41.471828 54.204972 
L 43.426007 56.401455 
L 45.855979 58.501729 
L 48.741277 60.482044 
L 52.055626 62.319525 
L 55.767078 63.992514 
L 59.83825 65.480936 
L 64.226692 66.766638 
L 68.885368 67.833721 
L 73.763249 68.66883 
L 78.80601 69.261417 
L 83.956809 69.603942 
L 89.157142 69.692026 
L 94.347735 69.524542 
L 99.469465 69.103631 
L 104.464271 68.434668 
L 109.27604 67.526144 
L 109.27604 67.526144 
" clip-path="url(#pa816e70afa)" style="fill: none; stroke: #ff7f0e; stroke-opacity: 0.5; stroke-width: 1.5; stroke-linecap: round"/>
   </g>
  </g>
 </g>
 <defs>
  <clipPath id="pa816e70afa">
   <rect x="-1.8" y="-7.2" width="176.4" height="176.4"/>
  </clipPath>
 </defs>
</svg>
