<?xml version="1.0" encoding="utf-8" standalone="no"?>
<!DOCTYPE svg PUBLIC "-//W3C//DTD SVG 1.1//EN"
  "http://www.w3.org/Graphics/SVG/1.1/DTD/svg11.dtd">
<svg xmlns:xlink="http://www.w3.org/1999/xlink" width="216pt" height="180pt" viewBox="0 0 216 180" xmlns="http://www.w3.org/2000/svg" version="1.1">
 <metadata>
  <rdf:RDF xmlns:dc="http://purl.org/dc/elements/1.1/" xmlns:cc="http://creativecommons.org/ns#" xmlns:rdf="http://www.w3.org/1999/02/22-rdf-syntax-ns#">
   <cc:Work>
    <dc:type rdf:resource="http://purl.org/dc/dcmitype/StillImage"/>
    <dc:date>2023-06-14T18:48:45.734241</dc:date>
    <dc:format>image/svg+xml</dc:format>
    <dc:creator>
     <cc:Agent>
      <dc:title>Matplotlib v3.7.0, https://matplotlib.org/</dc:title>
     </cc:Agent>
    </dc:creator>
   </cc:Work>
  </rdf:RDF>
 </metadata>
 <defs>
  <style type="text/css">*{stroke-linejoin: round; stroke-linecap: butt}</style>
 </defs>
 <g id="figure_1">
  <g id="patch_1">
   <path d="M 0 180 
L 216 180 
L 216 0 
L 0 0 
z
" style="fill: #ffffff"/>
  </g>
  <g id="patch_2">
   <path d="M -1 169.2 
L 174.6 169.2 
L 174.6 -1 
" style="fill: none"/>
  </g>
  <g id="pane3d_1">
   <g id="patch_3">
    <path d="M 11.519416 125.705413 
L 69.772457 76.876559 
L 68.962684 6.456623 
L 7.921935 51.001381 
" style="fill: none; opacity: 0.5; stroke: #f2f2f2; stroke-linejoin: miter"/>
   </g>
  </g>
  <g id="pane3d_2">
   <g id="patch_4">
    <path d="M 69.772457 76.876559 
L 163.247803 104.046152 
L 166.583609 31.200681 
L 68.962684 6.456623 
" style="fill: none; opacity: 0.5; stroke: #e6e6e6; stroke-linejoin: miter"/>
   </g>
  </g>
  <g id="pane3d_3">
   <g id="patch_5">
    <path d="M 11.519416 125.705413 
L 110.607849 158.067695 
L 163.247803 104.046152 
L 69.772457 76.876559 
" style="fill: none; opacity: 0.5; stroke: #ececec; stroke-linejoin: miter"/>
   </g>
  </g>
  <g id="axis3d_1">
   <g id="line2d_1">
    <path d="M 11.519416 125.705413 
L 110.607849 158.067695 
" style="fill: none; stroke: #ffffff; stroke-width: 0.8; stroke-linecap: round"/>
   </g>
   <g id="text_1">
    <!-- x -->
    <g style="fill: #262626" transform="translate(40.437569 179.640981) scale(0.1 -0.1)">
     <defs>
      <path id="DejaVuSans-78" d="M 3513 3500 
L 2247 1797 
L 3578 0 
L 2900 0 
L 1881 1375 
L 863 0 
L 184 0 
L 1544 1831 
L 300 3500 
L 978 3500 
L 1906 2253 
L 2834 3500 
L 3513 3500 
z
" transform="scale(0.015625)"/>
     </defs>
     <use xlink:href="#DejaVuSans-78"/>
    </g>
   </g>
   <g id="Line3DCollection_1">
    <path d="M 33.466236 132.873244 
L 90.547299 82.914986 
L 90.623277 11.946952 
" style="fill: none; stroke: #d3d3d3; stroke-width: 0.8"/>
    <path d="M 59.752322 141.45828 
L 115.37621 90.13177 
L 116.537448 18.515439 
" style="fill: none; stroke: #d3d3d3; stroke-width: 0.8"/>
    <path d="M 86.795448 150.290565 
L 140.859566 97.538775 
L 143.164908 25.264724 
" style="fill: none; stroke: #d3d3d3; stroke-width: 0.8"/>
   </g>
   <g id="xtick_1">
    <g id="line2d_2">
     <path d="M 88.783784 78.616216 
" clip-path="url(#p6e17f93253)" style="fill: none; stroke: #d3d3d3; stroke-width: 0.8; stroke-linecap: round"/>
    </g>
    <g id="line2d_3">
     <path d="M 33.963645 132.437904 
L 32.469264 133.74581 
" style="fill: none; stroke: #808080; stroke-width: 0.8; stroke-linecap: round"/>
    </g>
    <g id="text_2">
     <!-- −0.2 -->
     <g style="fill: #808080" transform="translate(13.805997 156.379163) scale(0.1 -0.1)">
      <defs>
       <path id="DejaVuSans-2212" d="M 678 2272 
L 4684 2272 
L 4684 1741 
L 678 1741 
L 678 2272 
z
" transform="scale(0.015625)"/>
       <path id="DejaVuSans-30" d="M 2034 4250 
Q 1547 4250 1301 3770 
Q 1056 3291 1056 2328 
Q 1056 1369 1301 889 
Q 1547 409 2034 409 
Q 2525 409 2770 889 
Q 3016 1369 3016 2328 
Q 3016 3291 2770 3770 
Q 2525 4250 2034 4250 
z
M 2034 4750 
Q 2819 4750 3233 4129 
Q 3647 3509 3647 2328 
Q 3647 1150 3233 529 
Q 2819 -91 2034 -91 
Q 1250 -91 836 529 
Q 422 1150 422 2328 
Q 422 3509 836 4129 
Q 1250 4750 2034 4750 
z
" transform="scale(0.015625)"/>
       <path id="DejaVuSans-2e" d="M 684 794 
L 1344 794 
L 1344 0 
L 684 0 
L 684 794 
z
" transform="scale(0.015625)"/>
       <path id="DejaVuSans-32" d="M 1228 531 
L 3431 531 
L 3431 0 
L 469 0 
L 469 531 
Q 828 903 1448 1529 
Q 2069 2156 2228 2338 
Q 2531 2678 2651 2914 
Q 2772 3150 2772 3378 
Q 2772 3750 2511 3984 
Q 2250 4219 1831 4219 
Q 1534 4219 1204 4116 
Q 875 4013 500 3803 
L 500 4441 
Q 881 4594 1212 4672 
Q 1544 4750 1819 4750 
Q 2544 4750 2975 4387 
Q 3406 4025 3406 3419 
Q 3406 3131 3298 2873 
Q 3191 2616 2906 2266 
Q 2828 2175 2409 1742 
Q 1991 1309 1228 531 
z
" transform="scale(0.015625)"/>
      </defs>
      <use xlink:href="#DejaVuSans-2212"/>
      <use xlink:href="#DejaVuSans-30" x="83.789062"/>
      <use xlink:href="#DejaVuSans-2e" x="147.412109"/>
      <use xlink:href="#DejaVuSans-32" x="179.199219"/>
     </g>
    </g>
   </g>
   <g id="xtick_2">
    <g id="line2d_4">
     <path d="M 88.783784 78.616216 
" clip-path="url(#p6e17f93253)" style="fill: none; stroke: #d3d3d3; stroke-width: 0.8; stroke-linecap: round"/>
    </g>
    <g id="line2d_5">
     <path d="M 60.237597 141.010496 
L 58.779642 142.355813 
" style="fill: none; stroke: #808080; stroke-width: 0.8; stroke-linecap: round"/>
    </g>
    <g id="text_3">
     <!-- 0.0 -->
     <g style="fill: #808080" transform="translate(44.325682 165.240662) scale(0.1 -0.1)">
      <use xlink:href="#DejaVuSans-30"/>
      <use xlink:href="#DejaVuSans-2e" x="63.623047"/>
      <use xlink:href="#DejaVuSans-30" x="95.410156"/>
     </g>
    </g>
   </g>
   <g id="xtick_3">
    <g id="line2d_6">
     <path d="M 88.783784 78.616216 
" clip-path="url(#p6e17f93253)" style="fill: none; stroke: #d3d3d3; stroke-width: 0.8; stroke-linecap: round"/>
    </g>
    <g id="line2d_7">
     <path d="M 87.267678 149.829797 
L 85.848883 151.214152 
" style="fill: none; stroke: #808080; stroke-width: 0.8; stroke-linecap: round"/>
    </g>
    <g id="text_4">
     <!-- 0.2 -->
     <g style="fill: #808080" transform="translate(71.418244 174.358861) scale(0.1 -0.1)">
      <use xlink:href="#DejaVuSans-30"/>
      <use xlink:href="#DejaVuSans-2e" x="63.623047"/>
      <use xlink:href="#DejaVuSans-32" x="95.410156"/>
     </g>
    </g>
   </g>
  </g>
  <g id="axis3d_2">
   <g id="line2d_8">
    <path d="M 163.247803 104.046152 
L 110.607849 158.067695 
" style="fill: none; stroke: #ffffff; stroke-width: 0.8; stroke-linecap: round"/>
   </g>
   <g id="text_5">
    <!-- y -->
    <g style="fill: #262626" transform="translate(162.133934 160.636398) scale(0.1 -0.1)">
     <defs>
      <path id="DejaVuSans-79" d="M 2059 -325 
Q 1816 -950 1584 -1140 
Q 1353 -1331 966 -1331 
L 506 -1331 
L 506 -850 
L 844 -850 
Q 1081 -850 1212 -737 
Q 1344 -625 1503 -206 
L 1606 56 
L 191 3500 
L 800 3500 
L 1894 763 
L 2988 3500 
L 3597 3500 
L 2059 -325 
z
" transform="scale(0.015625)"/>
     </defs>
     <use xlink:href="#DejaVuSans-79"/>
    </g>
   </g>
   <g id="Line3DCollection_2">
    <path d="M 22.628809 40.268974 
L 25.514219 113.974692 
L 123.296624 145.04589 
" style="fill: none; stroke: #d3d3d3; stroke-width: 0.8"/>
    <path d="M 39.765077 27.763707 
L 41.853094 100.279123 
L 138.076661 129.877936 
" style="fill: none; stroke: #d3d3d3; stroke-width: 0.8"/>
    <path d="M 56.084473 15.854555 
L 57.445527 87.209237 
L 152.147382 115.437915 
" style="fill: none; stroke: #d3d3d3; stroke-width: 0.8"/>
   </g>
   <g id="xtick_4">
    <g id="line2d_9">
     <path d="M 88.783784 78.616216 
" clip-path="url(#p6e17f93253)" style="fill: none; stroke: #d3d3d3; stroke-width: 0.8; stroke-linecap: round"/>
    </g>
    <g id="line2d_10">
     <path d="M 122.473227 144.784249 
L 124.945515 145.569839 
" style="fill: none; stroke: #808080; stroke-width: 0.8; stroke-linecap: round"/>
    </g>
    <g id="text_6">
     <!-- −0.2 -->
     <g style="fill: #808080" transform="translate(123.856641 165.864204) scale(0.1 -0.1)">
      <use xlink:href="#DejaVuSans-2212"/>
      <use xlink:href="#DejaVuSans-30" x="83.789062"/>
      <use xlink:href="#DejaVuSans-2e" x="147.412109"/>
      <use xlink:href="#DejaVuSans-32" x="179.199219"/>
     </g>
    </g>
   </g>
   <g id="xtick_5">
    <g id="line2d_11">
     <path d="M 88.783784 78.616216 
" clip-path="url(#p6e17f93253)" style="fill: none; stroke: #d3d3d3; stroke-width: 0.8; stroke-linecap: round"/>
    </g>
    <g id="line2d_12">
     <path d="M 137.267386 129.628999 
L 139.697223 130.376428 
" style="fill: none; stroke: #808080; stroke-width: 0.8; stroke-linecap: round"/>
    </g>
    <g id="text_7">
     <!-- 0.0 -->
     <g style="fill: #808080" transform="translate(142.52681 150.357777) scale(0.1 -0.1)">
      <use xlink:href="#DejaVuSans-30"/>
      <use xlink:href="#DejaVuSans-2e" x="63.623047"/>
      <use xlink:href="#DejaVuSans-30" x="95.410156"/>
     </g>
    </g>
   </g>
   <g id="xtick_6">
    <g id="line2d_13">
     <path d="M 88.783784 78.616216 
" clip-path="url(#p6e17f93253)" style="fill: none; stroke: #d3d3d3; stroke-width: 0.8; stroke-linecap: round"/>
    </g>
    <g id="line2d_14">
     <path d="M 151.351837 115.20078 
L 153.740401 115.912761 
" style="fill: none; stroke: #808080; stroke-width: 0.8; stroke-linecap: round"/>
    </g>
    <g id="text_8">
     <!-- 0.2 -->
     <g style="fill: #808080" transform="translate(156.311613 135.596158) scale(0.1 -0.1)">
      <use xlink:href="#DejaVuSans-30"/>
      <use xlink:href="#DejaVuSans-2e" x="63.623047"/>
      <use xlink:href="#DejaVuSans-32" x="95.410156"/>
     </g>
    </g>
   </g>
  </g>
  <g id="axis3d_3">
   <g id="line2d_15">
    <path d="M 163.247803 104.046152 
L 166.583609 31.200681 
" style="fill: none; stroke: #ffffff; stroke-width: 0.8; stroke-linecap: round"/>
   </g>
   <g id="text_9">
    <!-- z -->
    <g style="fill: #262626" transform="translate(202.494937 65.789607) scale(0.1 -0.1)">
     <defs>
      <path id="DejaVuSans-7a" d="M 353 3500 
L 3084 3500 
L 3084 2975 
L 922 459 
L 3084 459 
L 3084 0 
L 275 0 
L 275 525 
L 2438 3041 
L 353 3041 
L 353 3500 
z
" transform="scale(0.015625)"/>
     </defs>
     <use xlink:href="#DejaVuSans-7a"/>
    </g>
   </g>
   <g id="Line3DCollection_3">
    <path d="M 164.058707 86.338085 
L 69.575294 59.730749 
L 10.646017 107.568713 
" style="fill: none; stroke: #d3d3d3; stroke-width: 0.8"/>
    <path d="M 164.821066 69.690116 
L 69.390119 43.627428 
L 9.824251 90.504213 
" style="fill: none; stroke: #d3d3d3; stroke-width: 0.8"/>
    <path d="M 165.599025 52.701488 
L 69.201339 27.210603 
L 8.985017 73.076967 
" style="fill: none; stroke: #d3d3d3; stroke-width: 0.8"/>
    <path d="M 166.393067 35.361635 
L 69.008847 10.47103 
L 8.127751 55.275285 
" style="fill: none; stroke: #d3d3d3; stroke-width: 0.8"/>
   </g>
   <g id="xtick_7">
    <g id="line2d_16">
     <path d="M 88.783784 78.616216 
" style="fill: none; stroke: #d3d3d3; stroke-width: 0.8; stroke-linecap: round"/>
    </g>
    <g id="line2d_17">
     <path d="M 163.265327 86.114662 
L 165.647375 86.785467 
" style="fill: none; stroke: #808080; stroke-width: 0.8; stroke-linecap: round"/>
    </g>
    <g id="text_10">
     <!-- 0.025 -->
     <g style="fill: #808080" transform="translate(168.159316 91.388134) scale(0.1 -0.1)">
      <defs>
       <path id="DejaVuSans-35" d="M 691 4666 
L 3169 4666 
L 3169 4134 
L 1269 4134 
L 1269 2991 
Q 1406 3038 1543 3061 
Q 1681 3084 1819 3084 
Q 2600 3084 3056 2656 
Q 3513 2228 3513 1497 
Q 3513 744 3044 326 
Q 2575 -91 1722 -91 
Q 1428 -91 1123 -41 
Q 819 9 494 109 
L 494 744 
Q 775 591 1075 516 
Q 1375 441 1709 441 
Q 2250 441 2565 725 
Q 2881 1009 2881 1497 
Q 2881 1984 2565 2268 
Q 2250 2553 1709 2553 
Q 1456 2553 1204 2497 
Q 953 2441 691 2322 
L 691 4666 
z
" transform="scale(0.015625)"/>
      </defs>
      <use xlink:href="#DejaVuSans-30"/>
      <use xlink:href="#DejaVuSans-2e" x="63.623047"/>
      <use xlink:href="#DejaVuSans-30" x="95.410156"/>
      <use xlink:href="#DejaVuSans-32" x="159.033203"/>
      <use xlink:href="#DejaVuSans-35" x="222.65625"/>
     </g>
    </g>
   </g>
   <g id="xtick_8">
    <g id="line2d_18">
     <path d="M 88.783784 78.616216 
" style="fill: none; stroke: #d3d3d3; stroke-width: 0.8; stroke-linecap: round"/>
    </g>
    <g id="line2d_19">
     <path d="M 164.019346 69.471162 
L 166.426453 70.128556 
" style="fill: none; stroke: #808080; stroke-width: 0.8; stroke-linecap: round"/>
    </g>
    <g id="text_11">
     <!-- 0.050 -->
     <g style="fill: #808080" transform="translate(169.103797 74.791241) scale(0.1 -0.1)">
      <use xlink:href="#DejaVuSans-30"/>
      <use xlink:href="#DejaVuSans-2e" x="63.623047"/>
      <use xlink:href="#DejaVuSans-30" x="95.410156"/>
      <use xlink:href="#DejaVuSans-35" x="159.033203"/>
      <use xlink:href="#DejaVuSans-30" x="222.65625"/>
     </g>
    </g>
   </g>
   <g id="xtick_9">
    <g id="line2d_20">
     <path d="M 88.783784 78.616216 
" style="fill: none; stroke: #d3d3d3; stroke-width: 0.8; stroke-linecap: round"/>
    </g>
    <g id="line2d_21">
     <path d="M 164.788788 52.487233 
L 167.221487 53.130523 
" style="fill: none; stroke: #808080; stroke-width: 0.8; stroke-linecap: round"/>
    </g>
    <g id="text_12">
     <!-- 0.075 -->
     <g style="fill: #808080" transform="translate(170.067514 57.856315) scale(0.1 -0.1)">
      <defs>
       <path id="DejaVuSans-37" d="M 525 4666 
L 3525 4666 
L 3525 4397 
L 1831 0 
L 1172 0 
L 2766 4134 
L 525 4134 
L 525 4666 
z
" transform="scale(0.015625)"/>
      </defs>
      <use xlink:href="#DejaVuSans-30"/>
      <use xlink:href="#DejaVuSans-2e" x="63.623047"/>
      <use xlink:href="#DejaVuSans-30" x="95.410156"/>
      <use xlink:href="#DejaVuSans-37" x="159.033203"/>
      <use xlink:href="#DejaVuSans-35" x="222.65625"/>
     </g>
    </g>
   </g>
   <g id="xtick_10">
    <g id="line2d_22">
     <path d="M 88.783784 78.616216 
" style="fill: none; stroke: #d3d3d3; stroke-width: 0.8; stroke-linecap: round"/>
    </g>
    <g id="line2d_23">
     <path d="M 165.57413 35.152322 
L 168.03297 35.780781 
" style="fill: none; stroke: #808080; stroke-width: 0.8; stroke-linecap: round"/>
    </g>
    <g id="text_13">
     <!-- 0.100 -->
     <g style="fill: #808080" transform="translate(171.051062 40.572923) scale(0.1 -0.1)">
      <defs>
       <path id="DejaVuSans-31" d="M 794 531 
L 1825 531 
L 1825 4091 
L 703 3866 
L 703 4441 
L 1819 4666 
L 2450 4666 
L 2450 531 
L 3481 531 
L 3481 0 
L 794 0 
L 794 531 
z
" transform="scale(0.015625)"/>
      </defs>
      <use xlink:href="#DejaVuSans-30"/>
      <use xlink:href="#DejaVuSans-2e" x="63.623047"/>
      <use xlink:href="#DejaVuSans-31" x="95.410156"/>
      <use xlink:href="#DejaVuSans-30" x="159.033203"/>
      <use xlink:href="#DejaVuSans-30" x="222.65625"/>
     </g>
    </g>
   </g>
  </g>
  <g id="axes_1">
   <g id="line2d_24">
    <path d="M 88.880247 45.18908 
L 88.730674 102.663791 
L 88.681431 110.640644 
L 88.894691 112.081183 
L 89.012281 112.924008 
L 88.500173 113.189131 
L 88.495709 113.380132 
L 88.726101 113.517618 
L 89.121743 113.509656 
L 89.36915 113.321748 
L 89.299909 113.130246 
L 88.992975 113.000604 
L 88.509849 113.022961 
L 88.169781 113.23902 
L 88.165884 113.465613 
L 88.417958 113.661995 
L 88.948324 113.750784 
L 89.508377 113.626311 
L 89.797852 113.370001 
L 89.799679 113.107323 
L 89.556303 112.86676 
L 88.997934 112.696514 
L 88.314716 112.727394 
L 87.745291 112.971798 
L 87.523874 113.293121 
L 87.576393 113.576086 
L 87.844664 113.832887 
L 88.439815 114.048841 
L 89.204125 114.085025 
L 89.956144 113.911887 
L 90.498962 113.55088 
L 90.67125 113.173939 
L 90.6133 112.875058 
L 90.278565 112.505318 
L 89.681266 112.225499 
L 88.898353 112.088095 
L 88.043244 112.126219 
L 87.250565 112.346532 
L 86.656219 112.72598 
L 86.411247 113.084996 
L 86.37742 113.47477 
L 86.571297 113.860265 
L 86.989252 114.204664 
L 87.606428 114.472674 
L 88.658538 114.659693 
L 89.829448 114.608824 
L 90.93336 114.306193 
L 91.602597 113.928358 
L 92.056168 113.448872 
L 92.239531 112.90465 
L 92.120319 112.340816 
L 91.692297 111.806984 
L 90.977049 111.352896 
L 90.023318 111.023793 
L 88.904089 110.855936 
L 87.711601 110.872705 
L 86.550505 111.081665 
L 85.529457 111.472903 
L 84.751613 112.018884 
L 84.30474 112.675917 
L 84.223091 113.148005 
L 84.328124 113.625226 
L 84.623497 114.087411 
L 85.105127 114.514185 
L 86.148369 115.045093 
L 87.508797 115.39243 
L 89.078399 115.509556 
L 90.722138 115.367975 
L 92.289375 114.961067 
L 93.627866 114.306153 
L 94.323622 113.751213 
L 94.82079 113.121687 
L 95.091891 112.439079 
L 95.11799 111.727899 
L 94.889608 111.014751 
L 94.407232 110.327299 
L 93.681422 109.693158 
L 92.732572 109.138749 
L 91.590354 108.68817 
L 90.29291 108.362122 
L 88.885797 108.176932 
L 87.420675 108.14372 
L 85.953744 108.267748 
L 84.543895 108.547984 
L 83.250592 108.9769 
L 82.131521 109.540512 
L 81.240099 110.218683 
L 80.622962 110.985679 
L 80.317594 111.810981 
L 80.350241 112.660356 
L 80.734251 113.497143 
L 81.468907 114.283708 
L 82.538823 114.98299 
L 83.913894 115.560044 
L 85.549815 115.983498 
L 87.389191 116.226879 
L 89.363242 116.269774 
L 91.394163 116.09884 
L 93.398134 115.708645 
L 95.288924 115.102316 
L 96.981948 114.291916 
L 98.398498 113.298452 
L 99.469813 112.15143 
L 100.140602 110.88792 
L 100.312878 110.225803 
L 100.371696 109.551177 
L 100.314943 108.870132 
L 100.141652 108.188916 
L 99.447303 106.851369 
L 98.303426 105.589249 
L 96.741809 104.451688 
L 94.81001 103.484206 
L 92.57 102.726744 
L 90.096783 102.21184 
L 87.476879 101.963035 
L 84.806491 101.993629 
L 82.189069 102.305852 
L 79.732093 102.890478 
L 77.542957 103.726834 
L 75.724122 104.78315 
L 74.367862 106.017226 
L 73.887974 106.685135 
L 73.551134 107.377489 
L 73.363837 108.086636 
L 73.33112 108.804564 
L 73.456486 109.522992 
L 73.741852 110.233457 
L 74.187511 110.927414 
L 74.792111 111.596341 
L 75.552654 112.231833 
L 76.4645 112.825705 
L 77.521386 113.370081 
L 80.037257 114.280852 
L 83.01882 114.910107 
L 86.36112 115.212868 
L 89.937995 115.154621 
L 93.605616 114.71268 
L 97.207726 113.877794 
L 98.933714 113.314227 
L 100.582817 112.655957 
L 102.135495 111.906373 
L 103.573052 111.069971 
L 104.877957 110.152336 
L 106.034133 109.160106 
L 107.027221 108.100903 
L 107.8448 106.98324 
L 108.476558 105.816404 
L 108.914399 104.610331 
L 109.152494 103.375461 
L 109.187274 102.122603 
L 109.017367 100.862804 
L 108.643497 99.607219 
L 108.06835 98.367002 
L 107.296426 97.153199 
L 106.333885 95.976653 
L 105.188401 94.847914 
L 103.869031 93.777145 
L 102.386114 92.774031 
L 100.751191 91.847682 
L 98.976956 91.006529 
L 97.077231 90.258229 
L 95.06696 89.609559 
L 92.962218 89.066327 
L 90.780223 88.633293 
L 88.539342 88.314102 
L 86.259079 88.111249 
L 83.960035 88.026055 
L 81.663836 88.058675 
L 79.393009 88.208116 
L 77.170806 88.472277 
L 75.020974 88.847991 
L 72.967465 89.331072 
L 71.034105 89.916344 
L 69.244206 90.597666 
L 67.620173 91.367932 
L 66.183083 92.219063 
L 64.952295 93.141986 
L 63.945088 94.126621 
L 63.176347 95.161878 
L 62.658334 96.235689 
L 62.400517 97.335091 
L 62.409489 98.446348 
L 62.688961 99.555139 
L 63.239801 100.646788 
L 64.060129 101.706523 
L 65.145431 102.719753 
L 66.488675 103.672333 
L 68.080423 104.550791 
L 69.908918 105.342514 
L 71.960136 106.035862 
L 74.217821 106.620226 
L 76.663483 107.086032 
L 79.276384 107.424699 
L 82.033522 107.628583 
L 84.909623 107.690925 
L 87.877176 107.605831 
L 90.90651 107.368303 
L 93.965952 106.974327 
L 97.022078 106.421037 
L 100.040069 105.70693 
L 102.984184 104.832131 
L 105.818349 103.798661 
L 108.506853 102.610691 
L 111.015114 101.274726 
L 113.310496 99.799703 
L 115.363116 98.196953 
L 117.14659 96.480045 
L 118.63866 94.664487 
L 119.821663 92.767332 
L 120.682791 90.80671 
L 121.214134 88.801352 
L 121.412513 86.770134 
L 121.279123 84.731699 
L 120.819037 82.704175 
L 120.040616 80.704995 
L 118.954906 78.750812 
L 117.575048 76.857482 
L 115.915773 75.040073 
L 113.993001 73.312889 
L 111.823562 71.689446 
L 109.425048 70.182413 
L 106.815781 68.803495 
L 104.014889 67.563272 
L 101.042468 66.471007 
L 97.919796 65.53445 
L 94.669588 64.759668 
L 91.316253 64.150918 
L 87.886131 63.710594 
L 84.407679 63.439254 
L 80.911572 63.335735 
L 77.430704 63.397345 
L 74.000034 63.620117 
L 70.656284 63.999087 
L 67.437451 64.52856 
L 64.38215 65.202316 
L 61.52879 66.013713 
L 58.914645 66.955653 
L 56.574846 68.020398 
L 54.541401 69.19925 
L 52.842307 70.482137 
L 51.50083 71.857178 
L 50.535025 73.310306 
L 49.957519 74.825053 
L 49.77557 76.382545 
L 49.991352 77.961768 
L 50.602428 79.540075 
L 51.602314 81.093894 
L 52.981076 82.599548 
L 54.725873 84.034083 
L 56.821398 85.375993 
L 59.250188 86.605767 
L 61.992781 87.706202 
L 65.027732 88.662461 
L 68.331502 89.461914 
L 71.878244 90.093806 
L 75.639534 90.548828 
L 79.584061 90.818685 
L 83.677337 90.895738 
L 87.881472 90.772798 
L 92.155043 90.443133 
L 96.453131 89.900703 
L 100.727563 89.140634 
L 104.927409 88.159893 
L 108.99976 86.958084 
L 112.890811 85.538283 
L 116.547207 83.907771 
L 119.917623 82.078553 
L 122.954452 80.067542 
L 125.615485 77.89634 
L 127.865421 75.590592 
L 129.677049 73.178954 
L 131.031981 70.69182 
L 131.920832 68.159929 
L 132.342857 65.613087 
L 132.305083 63.079116 
L 131.821066 60.58319 
L 130.90943 58.147559 
L 129.592352 55.791652 
L 127.894169 53.532447 
L 125.840197 51.384982 
L 123.455867 49.362871 
L 120.766172 47.478714 
L 117.795438 45.744338 
L 114.567356 44.170824 
L 111.105243 42.76836 
L 107.432452 41.545949 
L 103.5729 40.511052 
L 99.551643 39.669234 
L 95.395473 39.023873 
L 91.133486 38.576007 
L 86.797585 38.324347 
L 82.422878 38.265467 
L 78.047912 38.394191 
L 73.714705 38.70412 
L 69.468515 39.188259 
L 65.357298 39.839656 
L 61.430848 40.651954 
L 57.739598 41.619735 
L 54.33316 42.738566 
L 51.258666 44.004677 
L 48.559075 45.414241 
L 46.271598 46.962348 
L 44.426407 48.641798 
L 43.045798 50.44191 
L 42.143856 52.347595 
L 41.726673 54.338883 
L 41.793035 56.391034 
L 42.335447 58.475254 
L 43.34135 60.559936 
L 44.794341 62.612233 
L 46.67527 64.599721 
L 48.963097 66.491936 
L 51.635478 68.261566 
L 54.669043 69.885189 
L 58.039414 71.34351 
L 61.721002 72.621131 
L 65.686623 73.705964 
L 69.907008 74.588405 
L 74.350238 75.260445 
L 78.981177 75.714845 
L 83.760939 75.944527 
L 88.646453 75.942268 
L 93.590187 75.700772 
L 98.540102 75.213132 
L 103.439907 74.473665 
L 108.229687 73.479038 
L 112.846937 72.229554 
L 117.228051 70.730431 
L 121.310197 68.992874 
L 125.033518 67.034733 
L 128.343478 64.880574 
L 131.193152 62.561083 
L 133.545208 60.111777 
L 135.373343 57.571187 
L 136.662985 54.978718 
L 137.41118 52.372507 
L 137.62566 49.787585 
L 137.323261 47.254587 
L 136.527897 44.799152 
L 135.268362 42.441991 
L 133.576222 40.19952 
L 131.484004 38.08482 
L 129.023815 36.10871 
L 126.226443 34.280696 
L 123.120927 32.609674 
L 119.734537 31.104281 
L 116.093064 29.772924 
L 112.221356 28.623521 
L 108.143984 27.663075 
L 103.885999 26.897163 
L 99.473713 26.329468 
L 94.935451 25.961429 
L 90.302255 25.792089 
L 85.608478 25.818164 
L 80.892231 26.034372 
L 76.195622 26.433969 
L 71.564735 27.009473 
L 67.049264 27.753462 
L 62.701783 28.659352 
L 58.576604 29.722005 
L 54.728254 30.938014 
L 51.209652 32.305563 
L 48.070115 33.823774 
L 45.353387 35.491569 
L 43.095908 37.306166 
L 41.325524 39.261442 
L 40.060798 41.346438 
L 39.310991 43.544321 
L 39.076671 45.832016 
L 39.350833 48.18065 
L 40.120336 50.556731 
L 41.367438 52.923918 
L 43.071233 55.245084 
L 45.208835 57.484364 
L 47.756241 59.608901 
L 50.688813 61.590097 
L 53.981437 63.404246 
L 57.608377 65.032568 
L 61.542913 66.460713 
L 65.756819 67.677901 
L 70.219736 68.675857 
L 74.898506 69.447734 
L 79.756525 69.987187 
L 84.753142 70.287731 
L 89.843193 70.34249 
L 94.976726 70.144384 
L 100.098985 69.686756 
L 105.150744 68.964406 
L 110.069058 67.974912 
L 114.788476 66.720079 
L 119.242745 65.207337 
L 123.366926 63.450818 
L 127.099836 61.471932 
L 130.386604 59.299233 
L 133.181099 56.967514 
L 135.447942 54.516173 
L 137.163865 51.98702 
L 138.31821 49.421852 
L 138.912513 46.860121 
L 138.95924 44.337064 
L 138.479853 41.88252 
L 137.50249 39.520553 
L 136.059555 37.269816 
L 134.185507 35.144465 
L 131.915028 33.155379 
L 129.28171 31.311397 
L 126.317278 29.620365 
L 123.051299 28.089836 
L 119.511305 26.72738 
L 115.72323 25.540531 
L 111.712043 24.536449 
L 107.502519 23.721406 
L 103.120055 23.100238 
L 98.5915 22.675849 
L 93.945934 22.448878 
L 89.215385 22.417585 
L 84.435412 22.577984 
L 79.645524 22.924239 
L 74.889369 23.449282 
L 70.214626 24.145594 
L 65.672538 25.006047 
L 61.317045 26.024674 
L 57.2035 27.197225 
L 53.386997 28.52135 
L 49.920426 29.996286 
L 46.852394 31.622024 
L 44.225238 33.397966 
L 42.073346 35.321273 
L 40.422004 37.385139 
L 39.286884 39.577315 
L 38.674244 41.879191 
L 38.581749 44.265641 
L 38.999768 46.705718 
L 39.912925 49.164095 
L 41.301693 51.603038 
L 43.143819 53.9846 
L 45.415455 56.272699 
L 48.091929 58.434815 
L 51.148134 60.443113 
L 54.558584 62.274923 
L 58.297191 63.912601 
L 62.336821 65.342894 
L 66.648727 66.555956 
L 71.20188 67.544224 
L 75.962289 68.301321 
L 80.892336 68.821162 
L 85.950196 69.097379 
L 91.089396 69.123166 
L 96.258582 68.891584 
L 101.401584 68.39631 
L 106.457839 67.632766 
L 111.363261 66.599524 
L 116.051587 65.299788 
L 120.456207 63.742758 
L 124.51241 61.944625 
L 128.159902 59.928985 
L 131.345399 57.726513 
L 134.025006 55.373843 
L 136.166123 52.911731 
L 137.748617 50.382728 
L 138.765096 47.828696 
L 139.220254 45.288522 
L 139.129393 42.796368 
L 138.516322 40.380689 
L 137.41095 38.064053 
L 135.846866 35.863694 
L 133.85917 33.792568 
L 131.48275 31.860633 
L 128.751091 30.076096 
L 125.695623 28.446406 
L 122.345548 26.978877 
L 118.728063 25.680913 
L 114.868861 24.559867 
L 110.792823 23.622646 
L 106.524812 22.875169 
L 102.09051 22.32181 
L 97.517243 21.964927 
L 92.834763 21.804575 
L 88.075929 21.838437 
L 83.277272 22.062035 
L 78.479356 22.469175 
L 73.726909 23.052619 
L 69.068628 23.8049 
L 64.556618 24.719158 
L 60.245417 25.789879 
L 56.190603 27.013377 
L 52.447038 28.387853 
L 49.066858 29.912966 
L 46.09739 31.588838 
L 43.579207 33.414617 
L 41.54456 35.386758 
L 40.016362 37.497311 
L 39.007863 39.73255 
L 38.523015 42.072223 
L 38.557434 44.489603 
L 39.0998 46.95239 
L 40.133443 49.424322 
L 41.637919 51.867251 
L 43.590387 54.243351 
L 45.966655 56.517141 
L 48.741854 58.657061 
L 51.890746 60.63645 
L 55.3877 62.433862 
L 59.206402 64.032795 
L 63.319379 65.420945 
L 67.697391 66.589165 
L 72.308755 67.530322 
L 77.11866 68.238231 
L 82.088519 68.706822 
L 87.175405 68.929657 
L 92.33166 68.899885 
L 97.504724 68.610654 
L 102.637273 68.055964 
L 107.667752 67.231881 
L 112.531351 66.137976 
L 117.161474 64.778812 
L 121.491682 63.165236 
L 125.458027 61.315261 
L 129.001608 59.254311 
L 132.071149 57.014702 
L 134.625296 54.634331 
L 136.634365 52.154691 
L 138.081311 49.618471 
L 138.96178 47.067067 
L 139.283235 44.538404 
L 139.063297 42.065351 
L 138.327542 39.674927 
L 137.107054 37.388324 
L 135.436039 35.2216 
L 133.349746 33.186825 
L 130.882866 31.293383 
L 128.068469 29.549174 
L 124.93748 27.961535 
L 121.518607 26.537765 
L 117.838643 25.285256 
L 113.923025 24.21128 
L 109.796558 23.322548 
L 105.484227 22.624654 
L 101.012034 22.12152 
L 96.40782 21.814972 
L 91.702025 21.704489 
L 86.92835 21.78721 
L 82.124272 22.058197 
L 77.331366 22.51094 
L 72.595351 23.138075 
L 67.965823 23.93221 
L 63.495593 24.88676 
L 59.239604 25.996632 
L 55.253452 27.258619 
L 51.591549 28.671355 
L 48.305075 30.234737 
L 45.439912 31.948821 
L 43.034761 33.812287 
L 41.119694 35.820693 
L 39.7153 37.964817 
L 38.832522 40.229407 
L 38.473186 42.592609 
L 38.631085 45.026231 
L 39.293444 47.496835 
L 40.442528 49.967484 
L 42.057189 52.399886 
L 44.114163 54.756584 
L 46.589035 57.002901 
L 49.456829 59.108375 
L 52.692217 61.047586 
L 56.269436 62.800317 
L 60.161943 64.351157 
L 64.341897 65.688665 
L 68.779535 66.804289 
L 73.442488 67.691222 
L 78.295095 68.343378 
L 83.297771 68.754634 
L 88.406485 68.918445 
L 93.572404 68.827911 
L 98.741796 68.476293 
L 103.856254 67.857968 
L 108.853326 66.96971 
L 113.667615 65.812158 
L 118.232362 64.391278 
L 122.48149 62.719584 
L 126.352015 60.816877 
L 129.786629 58.71032 
L 132.736234 56.433726 
L 135.162138 54.026066 
L 137.037631 51.52936 
L 138.348746 48.986215 
L 139.094078 46.437385 
L 139.283709 43.919704 
L 138.937392 41.46468 
L 138.082259 39.097905 
L 136.750361 36.839249 
L 134.976337 34.703697 
L 132.795435 32.70255 
L 130.242042 30.844726 
L 127.348747 29.137917 
L 124.145937 27.589412 
L 120.661826 26.20653 
L 116.922824 24.996661 
L 112.954147 23.96699 
L 108.780568 23.124011 
L 104.427239 22.472962 
L 99.920529 22.017297 
L 95.288838 21.758293 
L 90.563329 21.694859 
L 85.77857 21.823603 
L 80.973 22.139154 
L 76.189194 22.634729 
L 71.473842 23.302879 
L 66.877387 24.136334 
L 62.453265 25.128814 
L 58.256731 26.275659 
L 54.343275 27.574128 
L 50.766727 29.023233 
L 47.577185 30.623032 
L 44.818968 32.373405 
L 42.528822 34.272449 
L 40.734598 36.314718 
L 39.45456 38.489637 
L 38.697393 40.780393 
L 38.462876 43.163558 
L 38.743085 45.609551 
L 39.523906 48.083914 
L 40.786649 50.549179 
L 42.50955 52.967056 
L 44.668993 55.300593 
L 47.24039 57.516009 
L 50.198671 59.584 
L 53.518423 61.480401 
L 57.173733 63.186201 
L 61.1378 64.68703 
L 65.382383 65.972244 
L 69.877157 67.033812 
L 74.589026 67.865187 
L 79.481442 68.460331 
L 84.513799 68.813039 
L 89.640938 68.91666 
L 94.81285 68.764267 
L 99.974647 68.34929 
L 105.066879 67.666552 
L 105.066879 67.666552 
" clip-path="url(#p6e17f93253)" style="fill: none; stroke: #1f77b4; stroke-width: 1.5; stroke-linecap: round"/>
   </g>
   <g id="line2d_25">
    <path d="M 88.880247 45.18908 
L 88.82558 99.909686 
L 88.602184 109.973626 
L 88.601992 112.654434 
L 88.806449 113.15003 
L 89.01089 113.228604 
L 89.012301 113.196891 
L 88.83298 113.116549 
L 88.473769 113.177436 
L 88.387955 113.363049 
L 88.575605 113.494753 
L 88.993982 113.494957 
L 89.243484 113.312483 
L 89.187913 113.123361 
L 88.899305 112.990666 
L 88.432032 113.00263 
L 88.092461 113.205744 
L 88.077163 113.425613 
L 88.310984 113.620741 
L 88.819514 113.715727 
L 89.367338 113.603168 
L 89.659363 113.357761 
L 89.672679 113.101829 
L 89.446803 112.863915 
L 88.911707 112.690052 
L 88.246818 112.710528 
L 87.68412 112.941123 
L 87.456911 113.252076 
L 87.497628 113.529612 
L 87.749299 113.784617 
L 88.320694 114.003828 
L 89.063369 114.048541 
L 89.80153 113.887285 
L 90.342171 113.53908 
L 90.521853 113.171288 
L 90.421827 112.781595 
L 90.03596 112.431741 
L 89.404812 112.181698 
L 88.612553 112.079719 
L 87.776666 112.153552 
L 87.031546 112.40426 
L 86.508062 112.80378 
L 86.325967 113.168742 
L 86.357597 113.555498 
L 86.613643 113.928608 
L 87.084513 114.251527 
L 87.991156 114.545514 
L 89.09952 114.625862 
L 90.241133 114.458762 
L 91.227954 114.049055 
L 91.758623 113.608641 
L 92.041071 113.089864 
L 92.034386 112.534964 
L 91.7222 111.991818 
L 91.115445 111.5098 
L 90.252736 111.135348 
L 89.19831 110.907604 
L 88.037647 110.854502 
L 86.87104 110.989629 
L 85.80554 111.310138 
L 84.945813 111.795934 
L 84.38454 112.410298 
L 84.212558 112.866515 
L 84.219729 113.339303 
L 84.41348 113.809087 
L 84.793855 114.255486 
L 85.353133 114.658133 
L 86.491401 115.137872 
L 87.911775 115.418169 
L 89.498156 115.456528 
L 91.111186 115.23068 
L 92.600469 114.742027 
L 93.451244 114.282241 
L 94.141265 113.730603 
L 94.63593 113.105142 
L 94.907555 112.42752 
L 94.936735 111.722233 
L 94.713365 111.015672 
L 94.237298 110.335092 
L 93.518618 109.707537 
L 92.577506 109.158762 
L 91.443734 108.712182 
L 90.155789 108.387894 
L 88.759669 108.201805 
L 87.307385 108.164876 
L 85.855205 108.282523 
L 84.461689 108.554193 
L 83.185555 108.973116 
L 82.083436 109.526282 
L 81.207582 110.194625 
L 80.603573 110.953454 
L 80.308132 111.773127 
L 80.347132 112.619961 
L 80.733885 113.457393 
L 81.467841 114.247343 
L 82.533795 114.951754 
L 83.901702 115.534248 
L 85.52717 115.961825 
L 87.352678 116.206517 
L 89.309512 116.246898 
L 91.320363 116.069362 
L 93.302483 115.669066 
L 95.171245 115.050488 
L 96.843913 114.227524 
L 98.243415 113.223139 
L 99.301918 112.068572 
L 99.963984 110.802132 
L 100.133077 110.140497 
L 100.189189 109.467682 
L 100.129933 108.789747 
L 99.954057 108.11287 
L 99.661474 107.443285 
L 98.731673 106.150832 
L 97.363068 104.961039 
L 95.596155 103.919582 
L 93.488153 103.067393 
L 91.111207 102.439051 
L 88.550115 102.061384 
L 85.899646 101.952295 
L 83.261501 102.119827 
L 80.740971 102.561496 
L 78.443334 103.263907 
L 76.470026 104.202681 
L 74.914666 105.342732 
L 74.319837 105.974501 
L 73.859 106.638939 
L 73.539862 107.329018 
L 73.368896 108.037247 
L 73.351235 108.755731 
L 73.490567 109.476239 
L 73.789044 110.190277 
L 74.247207 110.889174 
L 74.863919 111.564169 
L 75.63632 112.2065 
L 76.559798 112.807513 
L 77.627982 113.358752 
L 80.164302 114.279747 
L 83.160309 114.909911 
L 86.506369 115.199536 
L 90.072163 115.11173 
L 93.712091 114.624844 
L 97.271825 113.734145 
L 98.972794 113.140726 
L 100.595611 112.452602 
L 102.121827 111.674126 
L 103.533839 110.810678 
L 104.815108 109.868609 
L 105.950352 108.855164 
L 106.925733 107.778405 
L 107.729013 106.647116 
L 108.349695 105.470704 
L 108.779135 104.259091 
L 109.010631 103.022607 
L 109.03949 101.771872 
L 108.863068 100.517689 
L 108.480787 99.270926 
L 107.894127 98.042409 
L 107.106606 96.842813 
L 106.123734 95.682562 
L 104.952949 94.571732 
L 103.603543 93.519957 
L 102.086573 92.536347 
L 100.414756 91.629409 
L 98.602366 90.806973 
L 96.665106 90.076128 
L 94.61999 89.443162 
L 92.485204 88.913506 
L 90.279971 88.491687 
L 88.024411 88.181287 
L 85.739386 87.984902 
L 83.446355 87.904108 
L 81.16721 87.939438 
L 78.924115 88.090354 
L 76.739339 88.35523 
L 74.635076 88.731341 
L 72.633267 89.214854 
L 70.755411 89.800829 
L 69.022366 90.483226 
L 67.45415 91.254918 
L 66.069733 92.107721 
L 64.886822 93.03242 
L 63.921648 94.018821 
L 63.188741 95.055809 
L 62.700721 96.131415 
L 62.468081 97.232905 
L 62.498982 98.34688 
L 62.799061 99.459391 
L 63.371257 100.556068 
L 64.215654 101.622269 
L 65.32936 102.643236 
L 66.706408 103.604269 
L 68.337702 104.490905 
L 70.211008 105.28911 
L 72.310981 105.985474 
L 74.619255 106.567406 
L 77.114575 107.023326 
L 79.772987 107.342849 
L 82.56808 107.516966 
L 85.471276 107.538193 
L 88.452167 107.400717 
L 91.478895 107.100506 
L 94.518557 106.635394 
L 97.537649 106.005144 
L 100.502512 105.211465 
L 103.379795 104.258013 
L 106.136906 103.150343 
L 108.742458 101.895844 
L 111.166683 100.503633 
L 113.381824 98.984433 
L 115.362477 97.350414 
L 117.085901 95.615034 
L 118.532268 93.792843 
L 119.684872 91.899297 
L 120.530274 89.950547 
L 121.058406 87.963248 
L 121.262614 85.954346 
L 121.139671 83.940894 
L 120.689724 81.939857 
L 119.916226 79.967944 
L 118.825818 78.041441 
L 117.428195 76.176066 
L 115.735943 74.386835 
L 113.764362 72.687944 
L 111.531277 71.09266 
L 109.056837 69.613238 
L 106.363317 68.260838 
L 103.474908 67.045456 
L 100.417514 65.975873 
L 97.21855 65.059604 
L 93.906736 64.302856 
L 90.511898 63.710495 
L 87.064773 63.286013 
L 83.596802 63.031508 
L 80.139938 62.947655 
L 76.726436 63.033694 
L 73.388644 63.287406 
L 70.158792 63.705107 
L 67.068758 64.281636 
L 64.149834 65.010354 
L 61.432478 65.883145 
L 58.946041 66.890426 
L 56.718498 68.02117 
L 54.776144 69.262937 
L 53.143297 70.601921 
L 51.841974 72.023014 
L 50.891572 73.509886 
L 50.308537 75.04509 
L 50.106045 76.610186 
L 50.293686 78.185893 
L 50.877175 79.75226 
L 51.858081 81.288871 
L 53.233606 82.775063 
L 54.996404 84.190177 
L 57.134462 85.513822 
L 59.631048 86.726155 
L 62.464739 87.808175 
L 65.609527 88.742018 
L 69.035022 89.511249 
L 72.70674 90.101145 
L 76.586481 90.49896 
L 80.632796 90.694165 
L 84.801528 90.678647 
L 89.046424 90.446881 
L 93.319801 89.996042 
L 97.573245 89.326077 
L 101.758336 88.439718 
L 105.827371 87.342445 
L 109.734073 86.0424 
L 113.434259 84.550239 
L 116.886467 82.878961 
L 120.052506 81.043673 
L 122.897941 79.061347 
L 125.39248 76.95054 
L 127.510291 74.731099 
L 129.230208 72.423865 
L 130.535864 70.050371 
L 131.415733 67.632552 
L 131.863097 65.192462 
L 131.875941 62.752013 
L 131.456795 60.332735 
L 130.612523 57.955562 
L 129.354074 55.640634 
L 127.696206 53.407139 
L 125.657192 51.273166 
L 123.258516 49.255595 
L 120.524564 47.37 
L 117.482322 45.630574 
L 114.161074 44.050071 
L 110.592123 42.639768 
L 106.808516 41.409429 
L 102.844784 40.367286 
L 98.7367 39.520024 
L 94.521045 38.87277 
L 90.235385 38.429088 
L 85.917862 38.190967 
L 81.606978 38.158823 
L 77.341392 38.331487 
L 73.159705 38.706202 
L 69.100247 39.278616 
L 65.200845 40.042774 
L 61.498585 40.991118 
L 58.029553 42.114482 
L 54.82856 43.402101 
L 51.928845 44.841623 
L 49.361756 46.419132 
L 47.156416 48.119187 
L 45.339365 49.92488 
L 43.934189 51.817904 
L 42.961144 53.77866 
L 42.43677 55.786376 
L 42.37352 57.819262 
L 42.779396 59.854694 
L 43.657621 61.869425 
L 45.006347 63.839831 
L 46.818417 65.742186 
L 49.081198 67.552954 
L 51.776491 69.249119 
L 54.880533 70.808512 
L 58.364103 72.210158 
L 62.192739 73.434624 
L 66.327056 74.464347 
L 70.723195 75.283953 
L 75.333361 75.880547 
L 80.10647 76.243953 
L 84.988877 76.366922 
L 89.925177 76.245275 
L 94.859042 75.877991 
L 99.734099 75.267232 
L 104.494791 74.418299 
L 109.087234 73.339536 
L 113.460009 72.042162 
L 117.564908 70.540061 
L 121.357576 68.849522 
L 124.798074 66.988943 
L 127.851326 64.978506 
L 130.487456 62.839841 
L 132.682016 60.595678 
L 134.416102 58.269502 
L 135.676375 55.885222 
L 136.454979 53.46685 
L 136.749394 51.038212 
L 136.562204 48.622678 
L 135.900828 46.24293 
L 134.777199 43.920752 
L 133.207416 41.676859 
L 131.211386 39.530752 
L 128.812457 37.500601 
L 126.037045 35.603155 
L 122.914289 33.853676 
L 119.475701 32.265888 
L 115.754848 30.851949 
L 111.787047 29.622426 
L 107.609086 28.58629 
L 103.258961 27.75091 
L 98.775637 27.122056 
L 94.198817 26.7039 
L 89.568736 26.499022 
L 84.92595 26.50841 
L 80.31114 26.73146 
L 75.764916 27.165977 
L 71.327612 27.808167 
L 67.039072 28.652635 
L 62.938433 29.692378 
L 59.063881 30.918782 
L 55.452392 32.321618 
L 52.139454 33.889049 
L 49.158761 35.607643 
L 46.541885 37.4624 
L 44.31793 39.436788 
L 42.513162 41.512806 
L 41.150625 43.671063 
L 40.249748 45.890886 
L 39.825956 48.15045 
L 39.89028 50.426949 
L 40.448998 52.696788 
L 41.503301 54.935812 
L 43.049013 57.119571 
L 45.076363 59.223604 
L 47.569845 61.223761 
L 50.508155 63.096537 
L 53.864238 64.819423 
L 57.605436 66.371266 
L 61.693765 67.732619 
L 66.086294 68.886085 
L 70.735658 69.816634 
L 75.590663 70.511887 
L 80.597006 70.962355 
L 85.698061 71.161627 
L 90.83574 71.1065 
L 95.951388 70.797042 
L 100.986691 70.236596 
L 105.88458 69.431705 
L 110.590091 68.391988 
L 115.051178 67.129947 
L 119.219437 65.660725 
L 123.050742 64.001821 
L 126.50577 62.172772 
L 129.550413 60.194812 
L 132.156073 58.090514 
L 134.29984 55.883436 
L 135.964559 53.597767 
L 137.138796 51.257993 
L 137.816716 48.888578 
L 137.997878 46.513676 
L 137.686973 44.156874 
L 136.893505 41.840959 
L 135.631449 39.587726 
L 133.918874 37.417815 
L 131.77756 35.350575 
L 129.232619 33.403962 
L 126.312115 31.594459 
L 123.046704 29.937018 
L 119.46929 28.445021 
L 115.614699 27.130255 
L 111.519387 26.002901 
L 107.221155 25.071529 
L 102.758898 24.343101 
L 98.172369 23.822974 
L 93.501958 23.514906 
L 88.788486 23.421061 
L 84.073005 23.542013 
L 79.396606 23.876748 
L 74.800224 24.422656 
L 70.324436 25.175537 
L 66.009253 26.129585 
L 61.893896 27.27739 
L 58.016556 28.609926 
L 54.414131 30.116558 
L 51.121942 31.785042 
L 48.173427 33.601542 
L 45.599809 35.550654 
L 43.42974 37.615454 
L 41.688931 39.777557 
L 40.399761 42.017203 
L 39.580888 44.313368 
L 39.246847 46.643904 
L 39.407674 48.985714 
L 40.068542 51.314951 
L 41.229436 53.607256 
L 42.884885 55.838029 
L 45.023744 57.982723 
L 47.629074 60.017168 
L 50.678098 61.917914 
L 54.142272 63.662587 
L 57.987461 65.230247 
L 62.174238 66.601745 
L 66.658302 67.760058 
L 71.39101 68.690608 
L 76.320018 69.381536 
L 81.390021 69.823932 
L 86.543563 70.012016 
L 91.721917 69.943252 
L 96.865989 69.618398 
L 101.917239 69.041495 
L 106.818578 68.219782 
L 111.515232 67.163552 
L 115.955537 65.885947 
L 120.091653 64.402709 
L 123.880177 62.731879 
L 127.282647 60.893475 
L 130.265932 58.909144 
L 132.802497 56.801799 
L 134.870556 54.595266 
L 136.454116 52.31393 
L 137.54292 49.982402 
L 138.1323 47.625207 
L 138.222957 45.266497 
L 137.820682 42.929802 
L 136.936028 40.637805 
L 135.583951 38.412151 
L 133.783433 36.273299 
L 131.557094 34.240383 
L 128.930808 32.331124 
L 125.933324 30.561749 
L 122.595911 28.946942 
L 118.952011 27.499805 
L 115.036924 26.231841 
L 110.887511 25.152941 
L 106.541921 24.271386 
L 102.03934 23.593845 
L 97.419759 23.125383 
L 92.723758 22.869468 
L 87.992303 22.827974 
L 83.266546 23.001186 
L 78.587634 23.387797 
L 73.996517 23.984913 
L 69.533743 24.78804 
L 65.239249 25.791082 
L 61.152137 26.986336 
L 57.310428 28.364488 
L 53.750795 29.914607 
L 50.508283 31.624161 
L 47.615988 33.479025 
L 45.104726 35.463516 
L 43.002677 37.560437 
L 41.335004 39.751141 
L 40.123469 42.015624 
L 39.386033 44.33264 
L 39.136466 46.679845 
L 39.383961 49.033978 
L 40.132788 51.371066 
L 41.381968 53.666668 
L 43.125015 55.896152 
L 45.349739 58.034993 
L 48.038129 60.059102 
L 51.166337 61.945173 
L 54.704762 63.671038 
L 58.618252 65.216028 
L 62.86642 66.561326 
L 67.404088 67.690304 
L 72.181835 68.58883 
L 77.146661 69.245537 
L 82.242739 69.652047 
L 87.412246 69.80314 
L 92.596244 69.696854 
L 97.735591 69.334533 
L 102.771865 68.72079 
L 107.648254 67.863422 
L 112.310411 66.77325 
L 116.70724 65.463907 
L 120.791589 63.951574 
L 124.520849 62.254684 
L 127.857435 60.393583 
L 130.769158 58.390185 
L 133.229464 56.267612 
L 135.217574 54.049831 
L 136.718504 51.761311 
L 137.722989 49.426689 
L 138.227329 47.070462 
L 138.233148 44.716709 
L 137.747112 42.388844 
L 136.78059 40.109395 
L 135.349288 37.899826 
L 133.472877 35.780384 
L 131.174594 33.769976 
L 128.480866 31.886077 
L 125.42093 30.144658 
L 122.026482 28.560137 
L 118.331332 27.145347 
L 114.371094 25.911518 
L 110.182892 24.868267 
L 105.805091 24.023601 
L 101.277053 23.383914 
L 96.638902 22.953999 
L 91.931314 22.737053 
L 87.195317 22.734677 
L 82.472088 22.946886 
L 77.802768 23.372104 
L 73.228263 24.007162 
L 68.789042 24.847294 
L 64.524925 25.886134 
L 60.474856 27.115701 
L 56.676653 28.526407 
L 53.16674 30.107048 
L 49.979858 31.844819 
L 47.148746 33.725327 
L 44.703802 35.732626 
L 42.672722 37.849267 
L 41.080125 40.056365 
L 39.947155 42.333692 
L 39.29109 44.659805 
L 39.12495 47.012187 
L 39.457118 49.367438 
L 40.290988 51.701485 
L 41.624663 53.989831 
L 43.450695 56.207837 
L 45.755906 58.331025 
L 48.521287 60.335411 
L 51.721997 62.197852 
L 55.327466 63.896405 
L 59.301617 65.410689 
L 63.603205 66.722232 
L 68.186277 67.814805 
L 73.000743 68.674725 
L 77.993054 69.291116 
L 83.10697 69.656124 
L 88.284402 69.765074 
L 93.466298 69.616566 
L 98.593561 69.212499 
L 103.607964 68.558038 
L 108.453046 67.661505 
L 113.074946 66.534217 
L 117.423179 65.19026 
L 121.451317 63.646223 
L 125.117563 61.920889 
L 128.385221 60.034899 
L 131.223035 58.010401 
L 133.605423 55.870687 
L 135.512586 53.639839 
L 136.930517 51.342379 
L 137.850907 49.002945 
L 138.270977 46.645986 
L 138.193232 44.295487 
L 137.625158 41.97473 
L 136.578889 39.706078 
L 135.070836 37.510801 
L 133.121302 35.408928 
L 130.754095 33.419132 
L 127.99615 31.55864 
L 124.877148 29.843165 
L 121.42917 28.286859 
L 117.686356 26.902288 
L 113.684599 25.700409 
L 109.461256 24.690569 
L 105.05488 23.880501 
L 100.504981 23.276331 
L 95.851794 22.882581 
L 91.136071 22.702178 
L 86.398881 22.736459 
L 81.681411 22.985167 
L 77.024778 23.446459 
L 72.469831 24.116899 
L 68.056947 24.991451 
L 63.825816 26.063474 
L 59.815212 27.324722 
L 56.062737 28.76533 
L 52.604556 30.373825 
L 49.475095 32.137132 
L 46.706724 34.040595 
L 44.329413 36.06801 
L 42.370367 38.20168 
L 40.853646 40.422486 
L 39.799774 42.709988 
L 39.225338 45.042547 
L 39.142601 47.397486 
L 39.559131 49.751273 
L 40.47745 52.079746 
L 41.894742 54.358364 
L 43.802603 56.562491 
L 46.186878 58.667707 
L 49.02757 60.650146 
L 52.298862 62.486841 
L 55.969237 64.156086 
L 60.001717 65.637797 
L 64.354228 66.913856 
L 68.980074 67.968443 
L 73.828531 68.788329 
L 78.845538 69.363134 
L 83.974481 69.685529 
L 89.157042 69.751387 
L 94.334095 69.559862 
L 99.446624 69.113407 
L 104.436635 68.41773 
L 109.248046 67.481669 
L 109.248046 67.481669 
" clip-path="url(#p6e17f93253)" style="fill: none; stroke: #ff7f0e; stroke-opacity: 0.5; stroke-width: 1.5; stroke-linecap: round"/>
   </g>
  </g>
 </g>
 <defs>
  <clipPath id="p6e17f93253">
   <rect x="-1.8" y="-7.2" width="176.4" height="176.4"/>
  </clipPath>
 </defs>
</svg>
