<?xml version="1.0" encoding="utf-8" standalone="no"?>
<!DOCTYPE svg PUBLIC "-//W3C//DTD SVG 1.1//EN"
  "http://www.w3.org/Graphics/SVG/1.1/DTD/svg11.dtd">
<svg xmlns:xlink="http://www.w3.org/1999/xlink" width="216pt" height="180pt" viewBox="0 0 216 180" xmlns="http://www.w3.org/2000/svg" version="1.1">
 <metadata>
  <rdf:RDF xmlns:dc="http://purl.org/dc/elements/1.1/" xmlns:cc="http://creativecommons.org/ns#" xmlns:rdf="http://www.w3.org/1999/02/22-rdf-syntax-ns#">
   <cc:Work>
    <dc:type rdf:resource="http://purl.org/dc/dcmitype/StillImage"/>
    <dc:date>2023-06-14T18:48:56.776621</dc:date>
    <dc:format>image/svg+xml</dc:format>
    <dc:creator>
     <cc:Agent>
      <dc:title>Matplotlib v3.7.0, https://matplotlib.org/</dc:title>
     </cc:Agent>
    </dc:creator>
   </cc:Work>
  </rdf:RDF>
 </metadata>
 <defs>
  <style type="text/css">*{stroke-linejoin: round; stroke-linecap: butt}</style>
 </defs>
 <g id="figure_1">
  <g id="patch_1">
   <path d="M 0 180 
L 216 180 
L 216 0 
L 0 0 
z
" style="fill: #ffffff"/>
  </g>
  <g id="patch_2">
   <path d="M -1 169.2 
L 174.6 169.2 
L 174.6 -1 
" style="fill: none"/>
  </g>
  <g id="pane3d_1">
   <g id="patch_3">
    <path d="M 11.519416 125.705413 
L 69.772457 76.876559 
L 68.962684 6.456623 
L 7.921935 51.001381 
" style="fill: none; opacity: 0.5; stroke: #f2f2f2; stroke-linejoin: miter"/>
   </g>
  </g>
  <g id="pane3d_2">
   <g id="patch_4">
    <path d="M 69.772457 76.876559 
L 163.247803 104.046152 
L 166.583609 31.200681 
L 68.962684 6.456623 
" style="fill: none; opacity: 0.5; stroke: #e6e6e6; stroke-linejoin: miter"/>
   </g>
  </g>
  <g id="pane3d_3">
   <g id="patch_5">
    <path d="M 11.519416 125.705413 
L 110.607849 158.067695 
L 163.247803 104.046152 
L 69.772457 76.876559 
" style="fill: none; opacity: 0.5; stroke: #ececec; stroke-linejoin: miter"/>
   </g>
  </g>
  <g id="axis3d_1">
   <g id="line2d_1">
    <path d="M 11.519416 125.705413 
L 110.607849 158.067695 
" style="fill: none; stroke: #ffffff; stroke-width: 0.8; stroke-linecap: round"/>
   </g>
   <g id="text_1">
    <!-- x -->
    <g style="fill: #262626" transform="translate(40.437569 179.640981) scale(0.1 -0.1)">
     <defs>
      <path id="DejaVuSans-78" d="M 3513 3500 
L 2247 1797 
L 3578 0 
L 2900 0 
L 1881 1375 
L 863 0 
L 184 0 
L 1544 1831 
L 300 3500 
L 978 3500 
L 1906 2253 
L 2834 3500 
L 3513 3500 
z
" transform="scale(0.015625)"/>
     </defs>
     <use xlink:href="#DejaVuSans-78"/>
    </g>
   </g>
   <g id="Line3DCollection_1">
    <path d="M 34.03033 133.057477 
L 91.080734 83.070034 
L 91.179722 12.087994 
" style="fill: none; stroke: #d3d3d3; stroke-width: 0.8"/>
    <path d="M 59.747892 141.456833 
L 115.37203 90.130555 
L 116.533083 18.514332 
" style="fill: none; stroke: #d3d3d3; stroke-width: 0.8"/>
    <path d="M 86.189651 150.092712 
L 140.289382 97.373045 
L 142.568789 25.113625 
" style="fill: none; stroke: #d3d3d3; stroke-width: 0.8"/>
   </g>
   <g id="xtick_1">
    <g id="line2d_2">
     <path d="M 88.783784 78.616216 
" clip-path="url(#p49d78cfc83)" style="fill: none; stroke: #d3d3d3; stroke-width: 0.8; stroke-linecap: round"/>
    </g>
    <g id="line2d_3">
     <path d="M 34.527484 132.621871 
L 33.033868 133.930575 
" style="fill: none; stroke: #808080; stroke-width: 0.8; stroke-linecap: round"/>
    </g>
    <g id="text_2">
     <!-- −0.2 -->
     <g style="fill: #808080" transform="translate(14.370985 156.569314) scale(0.1 -0.1)">
      <defs>
       <path id="DejaVuSans-2212" d="M 678 2272 
L 4684 2272 
L 4684 1741 
L 678 1741 
L 678 2272 
z
" transform="scale(0.015625)"/>
       <path id="DejaVuSans-30" d="M 2034 4250 
Q 1547 4250 1301 3770 
Q 1056 3291 1056 2328 
Q 1056 1369 1301 889 
Q 1547 409 2034 409 
Q 2525 409 2770 889 
Q 3016 1369 3016 2328 
Q 3016 3291 2770 3770 
Q 2525 4250 2034 4250 
z
M 2034 4750 
Q 2819 4750 3233 4129 
Q 3647 3509 3647 2328 
Q 3647 1150 3233 529 
Q 2819 -91 2034 -91 
Q 1250 -91 836 529 
Q 422 1150 422 2328 
Q 422 3509 836 4129 
Q 1250 4750 2034 4750 
z
" transform="scale(0.015625)"/>
       <path id="DejaVuSans-2e" d="M 684 794 
L 1344 794 
L 1344 0 
L 684 0 
L 684 794 
z
" transform="scale(0.015625)"/>
       <path id="DejaVuSans-32" d="M 1228 531 
L 3431 531 
L 3431 0 
L 469 0 
L 469 531 
Q 828 903 1448 1529 
Q 2069 2156 2228 2338 
Q 2531 2678 2651 2914 
Q 2772 3150 2772 3378 
Q 2772 3750 2511 3984 
Q 2250 4219 1831 4219 
Q 1534 4219 1204 4116 
Q 875 4013 500 3803 
L 500 4441 
Q 881 4594 1212 4672 
Q 1544 4750 1819 4750 
Q 2544 4750 2975 4387 
Q 3406 4025 3406 3419 
Q 3406 3131 3298 2873 
Q 3191 2616 2906 2266 
Q 2828 2175 2409 1742 
Q 1991 1309 1228 531 
z
" transform="scale(0.015625)"/>
      </defs>
      <use xlink:href="#DejaVuSans-2212"/>
      <use xlink:href="#DejaVuSans-30" x="83.789062"/>
      <use xlink:href="#DejaVuSans-2e" x="147.412109"/>
      <use xlink:href="#DejaVuSans-32" x="179.199219"/>
     </g>
    </g>
   </g>
   <g id="xtick_2">
    <g id="line2d_4">
     <path d="M 88.783784 78.616216 
" clip-path="url(#p49d78cfc83)" style="fill: none; stroke: #d3d3d3; stroke-width: 0.8; stroke-linecap: round"/>
    </g>
    <g id="line2d_5">
     <path d="M 60.233169 141.009052 
L 58.775207 142.354362 
" style="fill: none; stroke: #808080; stroke-width: 0.8; stroke-linecap: round"/>
    </g>
    <g id="text_3">
     <!-- 0.0 -->
     <g style="fill: #808080" transform="translate(44.321243 165.239169) scale(0.1 -0.1)">
      <use xlink:href="#DejaVuSans-30"/>
      <use xlink:href="#DejaVuSans-2e" x="63.623047"/>
      <use xlink:href="#DejaVuSans-30" x="95.410156"/>
     </g>
    </g>
   </g>
   <g id="xtick_3">
    <g id="line2d_6">
     <path d="M 88.783784 78.616216 
" clip-path="url(#p49d78cfc83)" style="fill: none; stroke: #d3d3d3; stroke-width: 0.8; stroke-linecap: round"/>
    </g>
    <g id="line2d_7">
     <path d="M 86.66218 149.632237 
L 85.242489 151.015711 
" style="fill: none; stroke: #808080; stroke-width: 0.8; stroke-linecap: round"/>
    </g>
    <g id="text_4">
     <!-- 0.2 -->
     <g style="fill: #808080" transform="translate(70.81129 174.154587) scale(0.1 -0.1)">
      <use xlink:href="#DejaVuSans-30"/>
      <use xlink:href="#DejaVuSans-2e" x="63.623047"/>
      <use xlink:href="#DejaVuSans-32" x="95.410156"/>
     </g>
    </g>
   </g>
  </g>
  <g id="axis3d_2">
   <g id="line2d_8">
    <path d="M 163.247803 104.046152 
L 110.607849 158.067695 
" style="fill: none; stroke: #ffffff; stroke-width: 0.8; stroke-linecap: round"/>
   </g>
   <g id="text_5">
    <!-- y -->
    <g style="fill: #262626" transform="translate(162.133934 160.636398) scale(0.1 -0.1)">
     <defs>
      <path id="DejaVuSans-79" d="M 2059 -325 
Q 1816 -950 1584 -1140 
Q 1353 -1331 966 -1331 
L 506 -1331 
L 506 -850 
L 844 -850 
Q 1081 -850 1212 -737 
Q 1344 -625 1503 -206 
L 1606 56 
L 191 3500 
L 800 3500 
L 1894 763 
L 2988 3500 
L 3597 3500 
L 2059 -325 
z
" transform="scale(0.015625)"/>
     </defs>
     <use xlink:href="#DejaVuSans-79"/>
    </g>
   </g>
   <g id="Line3DCollection_2">
    <path d="M 23.619705 39.545864 
L 26.458058 113.183548 
L 124.151411 144.168668 
" style="fill: none; stroke: #d3d3d3; stroke-width: 0.8"/>
    <path d="M 39.915746 27.653755 
L 41.996907 100.158576 
L 138.206592 129.744595 
" style="fill: none; stroke: #d3d3d3; stroke-width: 0.8"/>
    <path d="M 55.471173 16.302114 
L 56.858974 87.700897 
L 151.618673 115.9805 
" style="fill: none; stroke: #d3d3d3; stroke-width: 0.8"/>
   </g>
   <g id="xtick_4">
    <g id="line2d_9">
     <path d="M 88.783784 78.616216 
" clip-path="url(#p49d78cfc83)" style="fill: none; stroke: #d3d3d3; stroke-width: 0.8; stroke-linecap: round"/>
    </g>
    <g id="line2d_10">
     <path d="M 123.328823 143.90777 
L 125.79868 144.691128 
" style="fill: none; stroke: #808080; stroke-width: 0.8; stroke-linecap: round"/>
    </g>
    <g id="text_6">
     <!-- −0.2 -->
     <g style="fill: #808080" transform="translate(124.694112 164.967388) scale(0.1 -0.1)">
      <use xlink:href="#DejaVuSans-2212"/>
      <use xlink:href="#DejaVuSans-30" x="83.789062"/>
      <use xlink:href="#DejaVuSans-2e" x="147.412109"/>
      <use xlink:href="#DejaVuSans-32" x="179.199219"/>
     </g>
    </g>
   </g>
   <g id="xtick_5">
    <g id="line2d_11">
     <path d="M 88.783784 78.616216 
" clip-path="url(#p49d78cfc83)" style="fill: none; stroke: #d3d3d3; stroke-width: 0.8; stroke-linecap: round"/>
    </g>
    <g id="line2d_12">
     <path d="M 137.397442 129.495769 
L 139.826901 130.242866 
" style="fill: none; stroke: #808080; stroke-width: 0.8; stroke-linecap: round"/>
    </g>
    <g id="text_7">
     <!-- 0.0 -->
     <g style="fill: #808080" transform="translate(142.654103 150.221464) scale(0.1 -0.1)">
      <use xlink:href="#DejaVuSans-30"/>
      <use xlink:href="#DejaVuSans-2e" x="63.623047"/>
      <use xlink:href="#DejaVuSans-30" x="95.410156"/>
     </g>
    </g>
   </g>
   <g id="xtick_6">
    <g id="line2d_13">
     <path d="M 88.783784 78.616216 
" clip-path="url(#p49d78cfc83)" style="fill: none; stroke: #d3d3d3; stroke-width: 0.8; stroke-linecap: round"/>
    </g>
    <g id="line2d_14">
     <path d="M 150.822608 115.742926 
L 153.212738 116.456224 
" style="fill: none; stroke: #808080; stroke-width: 0.8; stroke-linecap: round"/>
    </g>
    <g id="text_8">
     <!-- 0.2 -->
     <g style="fill: #808080" transform="translate(155.793659 136.150816) scale(0.1 -0.1)">
      <use xlink:href="#DejaVuSans-30"/>
      <use xlink:href="#DejaVuSans-2e" x="63.623047"/>
      <use xlink:href="#DejaVuSans-32" x="95.410156"/>
     </g>
    </g>
   </g>
  </g>
  <g id="axis3d_3">
   <g id="line2d_15">
    <path d="M 163.247803 104.046152 
L 166.583609 31.200681 
" style="fill: none; stroke: #ffffff; stroke-width: 0.8; stroke-linecap: round"/>
   </g>
   <g id="text_9">
    <!-- z -->
    <g style="fill: #262626" transform="translate(202.494937 65.789607) scale(0.1 -0.1)">
     <defs>
      <path id="DejaVuSans-7a" d="M 353 3500 
L 3084 3500 
L 3084 2975 
L 922 459 
L 3084 459 
L 3084 0 
L 275 0 
L 275 525 
L 2438 3041 
L 353 3041 
L 353 3500 
z
" transform="scale(0.015625)"/>
     </defs>
     <use xlink:href="#DejaVuSans-7a"/>
    </g>
   </g>
   <g id="Line3DCollection_3">
    <path d="M 164.026463 87.042224 
L 69.58313 60.412195 
L 10.680761 108.29018 
" style="fill: none; stroke: #d3d3d3; stroke-width: 0.8"/>
    <path d="M 164.755283 71.12666 
L 69.406091 45.016361 
L 9.895186 91.977217 
" style="fill: none; stroke: #d3d3d3; stroke-width: 0.8"/>
    <path d="M 165.49836 54.899755 
L 69.225756 29.333971 
L 9.093648 75.332763 
" style="fill: none; stroke: #d3d3d3; stroke-width: 0.8"/>
    <path d="M 166.256116 38.352285 
L 69.042033 13.356949 
L 8.275655 58.346609 
" style="fill: none; stroke: #d3d3d3; stroke-width: 0.8"/>
   </g>
   <g id="xtick_7">
    <g id="line2d_16">
     <path d="M 88.783784 78.616216 
" style="fill: none; stroke: #d3d3d3; stroke-width: 0.8; stroke-linecap: round"/>
    </g>
    <g id="line2d_17">
     <path d="M 163.233435 86.818615 
L 165.614423 87.489978 
" style="fill: none; stroke: #808080; stroke-width: 0.8; stroke-linecap: round"/>
    </g>
    <g id="text_10">
     <!-- 0.025 -->
     <g style="fill: #808080" transform="translate(168.119366 92.090147) scale(0.1 -0.1)">
      <defs>
       <path id="DejaVuSans-35" d="M 691 4666 
L 3169 4666 
L 3169 4134 
L 1269 4134 
L 1269 2991 
Q 1406 3038 1543 3061 
Q 1681 3084 1819 3084 
Q 2600 3084 3056 2656 
Q 3513 2228 3513 1497 
Q 3513 744 3044 326 
Q 2575 -91 1722 -91 
Q 1428 -91 1123 -41 
Q 819 9 494 109 
L 494 744 
Q 775 591 1075 516 
Q 1375 441 1709 441 
Q 2250 441 2565 725 
Q 2881 1009 2881 1497 
Q 2881 1984 2565 2268 
Q 2250 2553 1709 2553 
Q 1456 2553 1204 2497 
Q 953 2441 691 2322 
L 691 4666 
z
" transform="scale(0.015625)"/>
      </defs>
      <use xlink:href="#DejaVuSans-30"/>
      <use xlink:href="#DejaVuSans-2e" x="63.623047"/>
      <use xlink:href="#DejaVuSans-30" x="95.410156"/>
      <use xlink:href="#DejaVuSans-32" x="159.033203"/>
      <use xlink:href="#DejaVuSans-35" x="222.65625"/>
     </g>
    </g>
   </g>
   <g id="xtick_8">
    <g id="line2d_18">
     <path d="M 88.783784 78.616216 
" style="fill: none; stroke: #d3d3d3; stroke-width: 0.8; stroke-linecap: round"/>
    </g>
    <g id="line2d_19">
     <path d="M 163.954282 70.907315 
L 166.359227 71.565882 
" style="fill: none; stroke: #808080; stroke-width: 0.8; stroke-linecap: round"/>
    </g>
    <g id="text_11">
     <!-- 0.050 -->
     <g style="fill: #808080" transform="translate(169.022302 76.223317) scale(0.1 -0.1)">
      <use xlink:href="#DejaVuSans-30"/>
      <use xlink:href="#DejaVuSans-2e" x="63.623047"/>
      <use xlink:href="#DejaVuSans-30" x="95.410156"/>
      <use xlink:href="#DejaVuSans-35" x="159.033203"/>
      <use xlink:href="#DejaVuSans-30" x="222.65625"/>
     </g>
    </g>
   </g>
   <g id="xtick_9">
    <g id="line2d_20">
     <path d="M 88.783784 78.616216 
" style="fill: none; stroke: #d3d3d3; stroke-width: 0.8; stroke-linecap: round"/>
    </g>
    <g id="line2d_21">
     <path d="M 164.689225 54.684885 
L 167.118612 55.330023 
" style="fill: none; stroke: #808080; stroke-width: 0.8; stroke-linecap: round"/>
    </g>
    <g id="text_12">
     <!-- 0.075 -->
     <g style="fill: #808080" transform="translate(169.942818 60.047544) scale(0.1 -0.1)">
      <defs>
       <path id="DejaVuSans-37" d="M 525 4666 
L 3525 4666 
L 3525 4397 
L 1831 0 
L 1172 0 
L 2766 4134 
L 525 4134 
L 525 4666 
z
" transform="scale(0.015625)"/>
      </defs>
      <use xlink:href="#DejaVuSans-30"/>
      <use xlink:href="#DejaVuSans-2e" x="63.623047"/>
      <use xlink:href="#DejaVuSans-30" x="95.410156"/>
      <use xlink:href="#DejaVuSans-37" x="159.033203"/>
      <use xlink:href="#DejaVuSans-35" x="222.65625"/>
     </g>
    </g>
   </g>
   <g id="xtick_10">
    <g id="line2d_22">
     <path d="M 88.783784 78.616216 
" style="fill: none; stroke: #d3d3d3; stroke-width: 0.8; stroke-linecap: round"/>
    </g>
    <g id="line2d_23">
     <path d="M 165.43868 38.142109 
L 167.893011 38.773157 
" style="fill: none; stroke: #808080; stroke-width: 0.8; stroke-linecap: round"/>
    </g>
    <g id="text_13">
     <!-- 0.100 -->
     <g style="fill: #808080" transform="translate(170.881434 43.553717) scale(0.1 -0.1)">
      <defs>
       <path id="DejaVuSans-31" d="M 794 531 
L 1825 531 
L 1825 4091 
L 703 3866 
L 703 4441 
L 1819 4666 
L 2450 4666 
L 2450 531 
L 3481 531 
L 3481 0 
L 794 0 
L 794 531 
z
" transform="scale(0.015625)"/>
      </defs>
      <use xlink:href="#DejaVuSans-30"/>
      <use xlink:href="#DejaVuSans-2e" x="63.623047"/>
      <use xlink:href="#DejaVuSans-31" x="95.410156"/>
      <use xlink:href="#DejaVuSans-30" x="159.033203"/>
      <use xlink:href="#DejaVuSans-30" x="222.65625"/>
     </g>
    </g>
   </g>
  </g>
  <g id="axes_1">
   <g id="line2d_24">
    <path d="M 89.015581 48.100887 
L 86.860558 86.647664 
L 86.586895 95.355454 
L 86.586406 100.427974 
L 86.770319 104.37479 
L 87.131077 107.364423 
L 87.646187 109.567932 
L 88.279104 111.136614 
L 88.98163 112.195843 
L 89.697668 112.847462 
L 90.367966 113.175275 
L 90.935318 113.250619 
L 91.349699 113.136689 
L 91.572785 112.891304 
L 91.581454 112.56826 
L 91.369966 112.217567 
L 90.769487 111.785113 
L 89.878413 111.476301 
L 88.818754 111.359286 
L 87.742062 111.471148 
L 86.808874 111.812477 
L 86.2924 112.197797 
L 85.988829 112.662748 
L 85.9308 113.169442 
L 86.131016 113.674357 
L 86.580319 114.132431 
L 87.247648 114.501515 
L 88.081965 114.746629 
L 89.33643 114.840391 
L 90.581735 114.650478 
L 91.394661 114.333201 
L 92.022763 113.891135 
L 92.408311 113.357906 
L 92.513143 112.774447 
L 92.321997 112.186019 
L 91.843905 111.639148 
L 91.111706 111.178528 
L 90.179805 110.843853 
L 89.120398 110.666629 
L 88.01831 110.667141 
L 86.964686 110.851888 
L 86.049843 111.211881 
L 85.355732 111.72215 
L 84.948625 112.342769 
L 84.859559 112.792445 
L 84.924839 113.250531 
L 85.145287 113.698579 
L 85.754018 114.311651 
L 86.656829 114.802936 
L 87.784446 115.124908 
L 89.045639 115.245208 
L 90.334808 115.149594 
L 91.541252 114.842742 
L 92.559165 114.347082 
L 93.297252 113.700137 
L 93.598826 113.208656 
L 93.731475 112.688162 
L 93.687918 112.156242 
L 93.46729 111.631001 
L 93.075168 111.130582 
L 92.192944 110.464985 
L 91.017072 109.950092 
L 89.637031 109.632288 
L 88.16149 109.544884 
L 86.710626 109.704167 
L 85.407062 110.106335 
L 84.365897 110.72586 
L 83.866711 111.23726 
L 83.550588 111.806034 
L 83.433697 112.410289 
L 83.524977 113.025839 
L 83.825564 113.627265 
L 84.328502 114.189114 
L 85.018778 114.687164 
L 85.873679 115.099637 
L 87.398024 115.519148 
L 89.100345 115.663538 
L 90.836953 115.515865 
L 92.457554 115.085241 
L 93.402217 114.656304 
L 94.19366 114.13048 
L 94.799834 113.525591 
L 95.195599 112.86186 
L 95.363631 112.161218 
L 95.294968 111.44668 
L 94.989238 110.741796 
L 94.454571 110.070132 
L 93.707286 109.454765 
L 92.771356 108.91771 
L 91.677705 108.479265 
L 89.823861 108.044656 
L 87.844425 107.916974 
L 86.533944 108.015028 
L 85.287854 108.260968 
L 84.154184 108.64954 
L 83.178161 109.169544 
L 82.400375 109.80386 
L 81.855039 110.529738 
L 81.568427 111.319412 
L 81.557578 112.14109 
L 81.82932 112.960301 
L 82.379673 113.74157 
L 83.193652 114.450294 
L 84.2455 115.054634 
L 85.499377 115.527237 
L 86.910498 115.846634 
L 88.426733 115.998178 
L 89.990623 115.974524 
L 91.541737 115.775638 
L 93.019264 115.408417 
L 94.36467 114.885997 
L 95.52426 114.226825 
L 96.451463 113.453595 
L 97.108695 112.592167 
L 97.468713 111.670558 
L 97.515416 110.718102 
L 97.244137 109.764814 
L 96.661513 108.840912 
L 95.785027 107.976394 
L 94.642334 107.200546 
L 93.270438 106.541243 
L 91.714721 106.024027 
L 90.027813 105.67098 
L 88.268234 105.499537 
L 86.498764 105.521366 
L 84.78449 105.741425 
L 83.19058 106.157262 
L 81.779829 106.758549 
L 80.610108 107.526849 
L 79.731875 108.435652 
L 79.18587 109.450787 
L 79.001161 110.53135 
L 79.193611 111.631281 
L 79.764824 112.701596 
L 80.701614 113.693149 
L 81.976002 114.55961 
L 83.545777 115.260296 
L 85.355669 115.762487 
L 87.339159 116.043007 
L 89.420962 116.089 
L 91.520109 115.897968 
L 93.553514 115.477222 
L 95.439801 114.842872 
L 97.103105 114.01846 
L 98.476549 113.033369 
L 99.505108 111.921119 
L 100.147664 110.717774 
L 100.378171 109.460656 
L 100.185965 108.187525 
L 99.575403 106.936218 
L 98.565054 105.744568 
L 97.18668 104.650282 
L 95.484169 103.69044 
L 93.512483 102.900441 
L 91.336534 102.312398 
L 89.029868 101.953275 
L 86.672956 101.843081 
L 84.350978 101.993416 
L 82.151055 102.406477 
L 80.159002 103.074411 
L 78.455785 103.97886 
L 77.113936 105.090587 
L 76.194191 106.369328 
L 75.907636 107.055811 
L 75.74259 107.764194 
L 75.702139 108.486687 
L 75.788201 109.215083 
L 76.001492 109.940873 
L 76.341504 110.655385 
L 76.806489 111.349928 
L 77.393453 112.015948 
L 78.915149 113.229819 
L 80.858144 114.237002 
L 83.155446 114.988426 
L 85.723375 115.448575 
L 88.464389 115.596655 
L 91.270963 115.426534 
L 94.0304 114.945842 
L 96.63031 114.17454 
L 98.964305 113.143068 
L 100.937374 111.890099 
L 102.470403 110.459937 
L 103.052353 109.693135 
L 103.503409 108.899861 
L 103.819344 108.086117 
L 103.997257 107.257852 
L 104.035553 106.420946 
L 103.933896 105.581215 
L 103.693168 104.744425 
L 103.315402 103.916324 
L 102.803728 103.102672 
L 102.162315 102.309273 
L 100.511809 100.806769 
L 98.416089 99.456421 
L 95.941194 98.305762 
L 93.166098 97.399932 
L 90.181746 96.778522 
L 87.08962 96.47247 
L 83.999465 96.501798 
L 81.025984 96.874474 
L 78.284566 97.5861 
L 75.886317 98.619717 
L 74.848146 99.248388 
L 73.932851 99.945142 
L 73.150835 100.703938 
L 72.511327 101.517756 
L 72.022269 102.378578 
L 71.690225 103.277407 
L 71.520309 104.204325 
L 71.516123 105.148587 
L 71.679713 106.098775 
L 72.011541 107.042989 
L 72.510461 107.969078 
L 73.173708 108.864894 
L 73.996892 109.718561 
L 74.974 110.518735 
L 76.097411 111.254846 
L 77.357911 111.917302 
L 78.744737 112.497653 
L 80.245622 112.988703 
L 81.846879 113.384574 
L 83.533489 113.680726 
L 87.096872 113.96229 
L 90.794661 113.822703 
L 94.475572 113.269862 
L 97.98589 112.328252 
L 101.177977 111.036865 
L 102.612289 110.275545 
L 103.918646 109.446633 
L 105.083847 108.557783 
L 106.096393 107.616902 
L 106.946591 106.632008 
L 107.626619 105.611092 
L 108.130539 104.562012 
L 108.45428 103.492404 
L 108.595576 102.409649 
L 108.553878 101.320873 
L 108.330248 100.232994 
L 107.92724 99.1528 
L 107.348779 98.087049 
L 106.600046 97.042577 
L 105.687384 96.026393 
L 104.618217 95.045739 
L 103.400997 94.108111 
L 102.045165 93.221225 
L 100.561142 92.392929 
L 98.960327 91.631062 
L 95.458835 90.336855 
L 91.651548 89.394104 
L 87.664536 88.846482 
L 83.637128 88.722149 
L 81.654545 88.823038 
L 79.718107 89.033005 
L 77.846956 89.351238 
L 76.060029 89.776118 
L 74.375822 90.305234 
L 72.812136 90.935369 
L 71.385841 91.66242 
L 70.112649 92.481295 
L 69.006908 93.385764 
L 68.081418 94.368308 
L 67.347287 95.419985 
L 66.81381 96.530331 
L 66.488384 97.687338 
L 66.37645 98.877513 
L 66.48146 100.086039 
L 66.804857 101.297039 
L 67.346068 102.493927 
L 68.102501 103.659831 
L 69.069537 104.778056 
L 70.240525 105.832547 
L 71.606772 106.808318 
L 73.157529 107.691822 
L 74.879999 108.471218 
L 76.759346 109.136547 
L 78.778739 109.679796 
L 80.919433 110.094877 
L 83.160888 110.377532 
L 85.480942 110.525208 
L 87.856032 110.536904 
L 90.261471 110.413046 
L 92.671769 110.155373 
L 95.060991 109.766871 
L 97.40315 109.251728 
L 99.672618 108.615313 
L 101.844531 107.864145 
L 103.8952 107.005853 
L 105.802493 106.049089 
L 107.546174 105.003394 
L 109.108204 103.879013 
L 110.472978 102.686663 
L 111.627491 101.437278 
L 112.561429 100.14174 
L 113.267191 98.81064 
L 113.739828 97.454093 
L 113.976918 96.081617 
L 113.978392 94.702115 
L 113.746314 93.323935 
L 113.284644 91.955032 
L 112.599006 90.603177 
L 111.696467 89.276202 
L 110.585358 87.982235 
L 109.275141 86.729884 
L 107.776328 85.52833 
L 106.100452 84.38732 
L 104.260089 83.317029 
L 102.268908 82.327821 
L 100.141749 81.429925 
L 97.894695 80.63306 
L 95.545138 79.94607 
L 93.111811 79.376593 
L 90.614779 78.930824 
L 88.075378 78.613383 
L 85.516104 78.427304 
L 82.960439 78.374133 
L 80.432625 78.454122 
L 77.957396 78.666458 
L 75.559659 79.009519 
L 73.264154 79.48107 
L 71.095087 80.078392 
L 69.075771 80.798291 
L 67.228265 81.636989 
L 65.57304 82.589893 
L 64.128693 83.651269 
L 62.911695 84.813865 
L 61.936212 86.068532 
L 61.213972 87.403906 
L 60.754207 88.806207 
L 60.563628 90.259193 
L 60.646451 91.744319 
L 61.00444 93.241089 
L 61.636951 94.727596 
L 62.540973 96.181222 
L 63.71114 97.57941 
L 65.139716 98.900463 
L 66.816551 100.124278 
L 68.729011 101.232948 
L 70.861904 102.211185 
L 73.197416 103.04653 
L 75.715078 103.729361 
L 78.391786 104.252726 
L 81.201891 104.612056 
L 84.117379 104.804827 
L 87.108134 104.830224 
L 90.142296 104.688874 
L 93.186702 104.382685 
L 96.207395 103.914784 
L 99.170187 103.289569 
L 102.041256 102.512814 
L 104.787756 101.591805 
L 107.378416 100.53543 
L 109.784114 99.354199 
L 111.978394 98.060141 
L 113.937917 96.666577 
L 115.642812 95.187776 
L 117.076929 93.638516 
L 118.227961 92.033614 
L 119.087443 90.387461 
L 119.650623 88.713648 
L 119.916221 87.024704 
L 119.886087 85.332014 
L 119.564796 83.6459 
L 118.95922 81.975879 
L 118.078104 80.331041 
L 116.931683 78.720495 
L 115.53139 77.153807 
L 113.889652 75.641336 
L 112.0198 74.194422 
L 109.936076 72.825357 
L 107.65374 71.547137 
L 105.189231 70.373017 
L 102.560363 69.315923 
L 99.786518 68.387808 
L 96.888808 67.599028 
L 93.890178 66.957851 
L 90.815428 66.470137 
L 87.691147 66.139252 
L 84.545557 65.96621 
L 81.40826 65.950024 
L 78.309906 66.088196 
L 75.281785 66.377291 
L 72.355366 66.813478 
L 69.561794 67.392966 
L 66.931356 68.112261 
L 64.492965 68.968181 
L 62.273652 69.957616 
L 60.298121 71.077061 
L 58.588369 72.321963 
L 57.163403 73.685977 
L 56.039065 75.160223 
L 55.227955 76.732658 
L 54.73946 78.387662 
L 54.579865 80.105904 
L 54.752503 81.864559 
L 55.257929 83.637858 
L 56.094073 85.397954 
L 57.256347 87.116032 
L 58.73767 88.763537 
L 60.528427 90.313401 
L 62.616338 91.741133 
L 64.986272 93.025646 
L 67.620036 94.149747 
L 70.496174 95.100262 
L 73.589809 95.867808 
L 76.87259 96.446312 
L 80.312747 96.832361 
L 83.875301 97.024535 
L 87.522413 97.022815 
L 91.213881 96.828185 
L 94.90776 96.442456 
L 98.561082 95.868339 
L 102.130654 95.109706 
L 105.573889 94.17199 
L 108.849655 93.062596 
L 111.919109 91.791244 
L 114.746476 90.370142 
L 117.299762 88.813927 
L 119.551357 87.139367 
L 121.478499 85.36483 
L 123.063581 83.509595 
L 124.294259 81.59309 
L 125.163367 79.634157 
L 125.668631 77.65045 
L 125.812208 75.658041 
L 125.60008 73.671296 
L 125.041372 71.703038 
L 124.147644 69.764949 
L 122.932237 67.868169 
L 121.409722 66.023949 
L 119.595517 64.244259 
L 117.505672 62.542202 
L 115.156856 60.932145 
L 112.566496 59.42951 
L 109.753058 58.05024 
L 106.736382 56.809999 
L 103.538054 55.723235 
L 100.181725 54.802254 
L 96.69335 54.056438 
L 93.101313 53.491738 
L 89.436417 53.110508 
L 85.731725 52.911714 
L 82.022277 52.891481 
L 78.344675 53.0439 
L 74.736566 53.361985 
L 71.236039 53.838636 
L 67.880955 54.467467 
L 64.708247 55.243367 
L 61.753203 56.1627 
L 59.048781 57.223095 
L 56.624994 58.422849 
L 54.508385 59.759994 
L 52.721658 61.231172 
L 51.283452 62.830447 
L 50.208302 64.548229 
L 49.50675 66.370454 
L 49.185592 68.278141 
L 49.248209 70.247419 
L 49.694927 72.250045 
L 50.523341 74.254389 
L 51.728562 76.226817 
L 53.303324 78.133312 
L 55.237951 79.94117 
L 57.520164 81.620562 
L 60.134775 83.145785 
L 63.063288 84.496048 
L 66.283491 85.655724 
L 69.769091 86.614088 
L 73.489468 87.364625 
L 77.409594 87.904064 
L 81.490155 88.231324 
L 85.687894 88.346559 
L 89.956161 88.250456 
L 94.245651 87.943881 
L 98.505289 87.427916 
L 102.683225 86.704252 
L 106.727889 85.77584 
L 110.589084 84.647661 
L 114.219062 83.327457 
L 117.573561 81.826269 
L 120.612775 80.15865 
L 123.302196 78.342521 
L 125.61331 76.398641 
L 127.524079 74.349789 
L 129.019184 72.219759 
L 130.089984 70.032315 
L 130.734188 67.810263 
L 130.955255 65.574751 
L 130.761574 63.344908 
L 130.16549 61.13784 
L 129.182289 58.968988 
L 127.829234 56.852744 
L 126.124749 54.803222 
L 124.087843 52.834987 
L 121.737792 50.963597 
L 119.094114 49.205791 
L 116.176786 47.579257 
L 113.006649 46.101979 
L 109.605927 44.791252 
L 105.998763 43.662531 
L 102.2117 42.728294 
L 98.274034 41.997124 
L 94.218009 41.473154 
L 90.078814 41.155967 
L 85.894399 41.040973 
L 81.705103 41.120224 
L 77.553132 41.383555 
L 73.481905 41.819905 
L 69.535292 42.418635 
L 65.756775 43.17065 
L 62.188575 44.069164 
L 58.870758 45.109967 
L 55.840402 46.291153 
L 53.130831 47.612318 
L 50.771018 49.073338 
L 48.785165 50.672891 
L 47.192516 52.406913 
L 46.007406 54.267207 
L 45.23953 56.240379 
L 44.894383 58.307249 
L 44.973804 60.442828 
L 45.476542 62.616897 
L 46.398753 64.795151 
L 47.73436 66.940816 
L 49.475202 69.016569 
L 51.610968 70.986548 
L 54.128907 72.818217 
L 57.013342 74.483836 
L 60.245085 75.96138 
L 63.800811 77.234801 
L 67.652498 78.293646 
L 71.767029 79.132166 
L 76.106015 79.748072 
L 80.625891 80.141203 
L 85.278301 80.312311 
L 90.010744 80.262158 
L 94.767461 79.991063 
L 99.49049 79.49894 
L 104.120857 78.785806 
L 108.599833 77.852647 
L 112.870227 76.702472 
L 116.877662 75.341347 
L 120.571821 73.779219 
L 123.907605 72.030345 
L 126.84617 70.113262 
L 129.355777 68.050275 
L 131.412402 65.866545 
L 133.000034 63.588932 
L 134.110616 61.244765 
L 134.743614 58.86071 
L 134.905231 56.461904 
L 134.60733 54.071453 
L 133.866177 51.710341 
L 132.701129 49.397725 
L 131.133417 47.151535 
L 129.185148 44.98921 
L 126.878626 42.928408 
L 124.236026 40.98746 
L 121.279449 39.185452 
L 118.031264 37.541831 
L 114.51469 36.075584 
L 110.754473 34.804103 
L 106.777562 33.741935 
L 102.613692 32.899642 
L 98.295777 32.282967 
L 93.860093 31.892454 
L 89.346217 31.723599 
L 84.796747 31.767517 
L 80.256806 32.012071 
L 75.773376 32.443311 
L 71.394489 33.047041 
L 67.168313 33.810326 
L 63.142154 34.722695 
L 59.361441 35.776879 
L 55.868704 36.968942 
L 52.702642 38.297774 
L 49.897314 39.763999 
L 47.481535 41.368452 
L 45.478527 43.110439 
L 43.905858 44.986 
L 42.775672 46.986428 
L 42.095167 49.097202 
L 41.867256 51.297496 
L 42.091315 53.560314 
L 42.763901 55.853276 
L 43.879346 58.13999 
L 45.430128 60.381892 
L 47.406977 62.540362 
L 49.798676 64.578869 
L 52.591601 66.464884 
L 55.769047 68.171334 
L 59.31044 69.677391 
L 63.190547 70.968561 
L 67.378802 72.036089 
L 71.838855 72.875841 
L 76.528406 73.486887 
L 81.399384 73.870018 
L 86.398452 74.026464 
L 91.46782 73.956975 
L 96.546295 73.661416 
L 101.570522 73.138918 
L 106.476338 72.388539 
L 111.200187 71.410309 
L 115.680557 70.20647 
L 119.859405 68.782679 
L 123.683524 67.148933 
L 127.105825 65.320058 
L 130.086468 63.315655 
L 132.593777 61.159521 
L 134.604848 58.878645 
L 136.105792 56.501954 
L 137.091541 54.058998 
L 137.565205 51.57878 
L 137.537038 49.088877 
L 137.023086 46.614934 
L 136.043666 44.180593 
L 134.621853 41.807783 
L 132.782134 39.517271 
L 130.549375 37.329313 
L 127.948199 35.264191 
L 125.002796 33.342457 
L 121.737144 31.584763 
L 118.175549 30.011237 
L 114.343386 28.640481 
L 110.267906 27.488364 
L 105.978972 26.566833 
L 101.509646 25.882937 
L 96.896525 25.438275 
L 92.179832 25.228953 
L 87.403221 25.246086 
L 82.61335 25.476808 
L 77.859237 25.905679 
L 73.191436 26.516326 
L 68.661086 27.293117 
L 64.318853 28.222645 
L 60.213827 29.294799 
L 56.392396 30.503252 
L 52.89718 31.845268 
L 49.766081 33.32084 
L 47.031521 34.931277 
L 44.719952 36.677434 
L 42.851671 38.557834 
L 41.440974 40.566945 
L 40.496619 42.693804 
L 40.022526 44.921184 
L 40.018631 47.225374 
L 40.481764 49.576631 
L 41.406417 51.940271 
L 42.785314 54.278302 
L 44.609681 56.551453 
L 46.869181 58.721384 
L 49.551521 60.752795 
L 52.641782 62.615202 
L 56.12155 64.284131 
L 59.967997 65.741616 
L 64.153007 66.97596 
L 68.642507 67.980874 
L 73.396089 68.754156 
L 78.366981 69.296171 
L 83.502399 69.608374 
L 88.744257 69.692096 
L 94.030159 69.547785 
L 99.294641 69.174788 
L 104.470557 68.571713 
L 109.49056 67.737287 
L 114.288624 66.671566 
L 118.801578 65.377277 
L 122.970599 63.861038 
L 126.742646 62.134229 
L 130.071783 60.213356 
L 132.920301 58.119836 
L 135.25958 55.879265 
L 137.070577 53.520298 
L 138.343868 51.073328 
L 139.079206 48.569193 
L 139.284588 46.038065 
L 138.974926 43.508668 
L 138.170448 41.007895 
L 136.895005 38.560815 
L 135.174482 36.190999 
L 133.035491 33.921024 
L 130.504473 31.772982 
L 127.607282 29.768786 
L 124.369234 27.930134 
L 120.815563 26.278056 
L 116.972154 24.832052 
L 112.866402 23.60899 
L 108.528065 22.621926 
L 103.989976 21.879092 
L 99.28853 21.383225 
L 94.463887 21.131381 
L 89.559898 21.115286 
L 84.623742 21.322204 
L 79.705329 21.736251 
L 74.856499 22.340007 
L 70.130061 23.11624 
L 65.578715 24.049539 
L 61.253901 25.127605 
L 57.204616 26.342011 
L 53.476262 27.688294 
L 50.109597 29.165338 
L 47.139859 30.774126 
L 44.596148 32.516045 
L 42.501133 34.39098 
L 40.871104 36.395452 
L 39.716379 38.521063 
L 39.041999 40.753406 
L 38.848618 43.071582 
L 39.133468 45.448373 
L 39.891256 47.851074 
L 41.114883 50.242911 
L 42.795855 52.584928 
L 44.924358 54.838136 
L 47.488961 56.965707 
L 50.47599 58.934916 
L 53.86866 60.718614 
L 57.646075 62.29604 
L 61.782253 63.652911 
L 66.24529 64.780813 
L 70.996813 65.676064 
L 75.991779 66.338255 
L 81.178679 66.768708 
L 86.500121 66.969105 
L 91.893758 66.940477 
L 97.293479 66.682703 
L 102.630796 66.194585 
L 107.836345 65.474476 
L 107.836345 65.474476 
" clip-path="url(#p49d78cfc83)" style="fill: none; stroke: #1f77b4; stroke-width: 1.5; stroke-linecap: round"/>
   </g>
   <g id="line2d_25">
    <path d="M 89.015581 48.100887 
L 88.955843 100.360604 
L 88.738427 109.98744 
L 88.741106 112.553221 
L 88.940455 113.028799 
L 89.136781 113.105053 
L 88.778999 112.99737 
L 88.524678 113.152767 
L 88.599287 113.302464 
L 88.915335 113.386332 
L 89.291698 113.279969 
L 89.359847 113.081732 
L 89.166068 112.919486 
L 88.739166 112.858696 
L 88.331565 112.987541 
L 88.208758 113.21666 
L 88.361355 113.421231 
L 88.803154 113.562601 
L 89.350554 113.516855 
L 89.739961 113.278158 
L 89.792876 113.037126 
L 89.614062 112.799571 
L 89.129161 112.605046 
L 88.489333 112.586803 
L 87.914024 112.772842 
L 87.646964 113.053744 
L 87.641495 113.318222 
L 87.841276 113.573361 
L 88.352275 113.812822 
L 89.054667 113.897189 
L 89.785355 113.786745 
L 90.356696 113.488467 
L 90.585964 113.151182 
L 90.55099 112.77734 
L 90.236101 112.42496 
L 89.670633 112.153039 
L 88.927546 112.011947 
L 87.915748 112.067346 
L 87.197356 112.303317 
L 86.697483 112.68322 
L 86.5285 113.031978 
L 86.567612 113.402862 
L 86.824437 113.761967 
L 87.288869 114.074222 
L 88.176054 114.361311 
L 89.254696 114.444856 
L 90.36049 114.291467 
L 91.310927 113.904653 
L 91.817573 113.485691 
L 92.081488 112.99013 
L 92.063777 112.458208 
L 91.749505 111.935722 
L 91.150301 111.470081 
L 90.304647 111.106051 
L 89.275799 110.881551 
L 88.147433 110.823876 
L 87.01733 110.946636 
L 85.98948 111.247712 
L 85.165161 111.708424 
L 84.633619 112.294086 
L 84.476717 112.730386 
L 84.494215 113.183591 
L 84.692892 113.634983 
L 85.07234 114.065037 
L 85.961002 114.627521 
L 87.178278 115.036398 
L 88.630547 115.240181 
L 90.195674 115.203406 
L 91.733075 114.911158 
L 93.096355 114.371791 
L 93.839443 113.889842 
L 94.407168 113.326931 
L 94.769485 112.701965 
L 94.903828 112.037025 
L 94.796252 111.356527 
L 94.442246 110.686288 
L 93.84717 110.052508 
L 93.026303 109.480737 
L 92.004515 108.994835 
L 90.815572 108.616001 
L 89.501099 108.361858 
L 87.400735 108.242087 
L 85.993329 108.346545 
L 84.646338 108.599047 
L 83.416703 108.993421 
L 82.359179 109.51749 
L 81.524108 110.153249 
L 80.955206 110.877265 
L 80.687456 111.661314 
L 80.745196 112.473254 
L 81.140502 113.278125 
L 81.871961 114.039451 
L 82.923949 114.720703 
L 84.266499 115.286887 
L 85.855816 115.706161 
L 87.635503 115.951422 
L 89.538456 116.001756 
L 91.489408 115.843671 
L 93.407991 115.472017 
L 95.21219 114.890543 
L 96.821985 114.112021 
L 98.163002 113.157938 
L 99.169956 112.05777 
L 99.789708 110.847861 
L 99.983778 109.56999 
L 99.913641 108.919703 
L 99.433537 107.625956 
L 98.506197 106.381141 
L 97.154463 105.232107 
L 95.41862 104.222973 
L 93.355167 103.393411 
L 91.035037 102.777078 
L 88.541345 102.40025 
L 85.966738 102.280665 
L 83.410387 102.426611 
L 80.974704 102.836262 
L 78.761792 103.497294 
L 76.86971 104.386812 
L 75.388597 105.471602 
L 74.82719 106.074173 
L 74.396747 106.708776 
L 74.104573 107.36871 
L 73.956763 108.046826 
L 73.958097 108.735583 
L 74.111945 109.427114 
L 74.420182 110.113296 
L 74.883114 110.785827 
L 75.499422 111.436316 
L 76.266115 112.056363 
L 77.178513 112.63766 
L 79.413232 113.651809 
L 82.132675 114.417832 
L 85.240935 114.882548 
L 88.620265 115.003519 
L 92.135672 114.75166 
L 95.640754 114.113246 
L 98.98444 113.091149 
L 100.549049 112.441758 
L 102.018217 111.70518 
L 103.374965 110.886439 
L 104.603357 109.991497 
L 105.688686 109.027183 
L 106.617653 108.001121 
L 107.378522 106.921638 
L 107.961249 105.797675 
L 108.357595 104.638684 
L 108.561215 103.454523 
L 108.567717 102.255352 
L 108.374704 101.051519 
L 107.98179 99.853458 
L 107.390595 98.671578 
L 106.604721 97.516165 
L 105.62971 96.397276 
L 104.472981 95.324651 
L 103.143757 94.307621 
L 101.652976 93.355025 
L 100.013192 92.475132 
L 98.238467 91.675571 
L 96.344251 90.963265 
L 94.347255 90.344373 
L 92.265327 89.824232 
L 90.117307 89.407315 
L 87.922887 89.097181 
L 83.477001 88.806742 
L 81.267836 88.828693 
L 79.096558 88.96189 
L 76.984816 89.204878 
L 74.954156 89.555137 
L 73.025838 90.009079 
L 71.22065 90.562049 
L 69.558721 91.20833 
L 68.05932 91.941159 
L 66.740656 92.75275 
L 65.619671 93.634328 
L 64.711836 94.576173 
L 64.030937 95.567679 
L 63.588872 96.597417 
L 63.395447 97.653222 
L 63.458187 98.722286 
L 63.78215 99.791272 
L 64.369769 100.846432 
L 65.220709 101.873751 
L 66.331752 102.859096 
L 67.696714 103.78838 
L 69.306399 104.647731 
L 71.148596 105.423675 
L 73.208112 106.103319 
L 75.466866 106.674536 
L 77.90402 107.126151 
L 80.496166 107.448112 
L 83.217561 107.631662 
L 86.040414 107.669483 
L 88.935201 107.555836 
L 91.87104 107.286667 
L 94.816077 106.859692 
L 97.737909 106.274458 
L 100.604014 105.532365 
L 103.382195 104.636668 
L 106.041009 103.59244 
L 108.550197 102.406512 
L 110.881081 101.087381 
L 113.006935 99.645091 
L 114.903322 98.091097 
L 116.548388 96.438106 
L 117.923103 94.699905 
L 119.011463 92.891176 
L 119.800637 91.027307 
L 120.281064 89.124199 
L 120.446502 87.198076 
L 120.294033 85.265296 
L 119.824029 83.342176 
L 119.040073 81.444817 
L 117.948859 79.588949 
L 116.560053 77.789786 
L 114.886144 76.061894 
L 112.942268 74.419073 
L 110.746023 72.874252 
L 108.317274 71.439398 
L 105.677958 70.125438 
L 102.851875 68.942187 
L 99.864489 67.898292 
L 96.742723 67.001183 
L 93.514757 66.257027 
L 90.209829 65.670695 
L 86.858032 65.245729 
L 83.490118 64.984316 
L 80.137292 64.887267 
L 76.83101 64.953995 
L 73.602768 65.182502 
L 70.483888 65.569366 
L 67.505287 66.109733 
L 64.697249 66.797317 
L 62.089174 67.624404 
L 59.709318 68.581862 
L 57.584524 69.659164 
L 55.73994 70.844423 
L 54.198718 72.124435 
L 52.981717 73.484746 
L 52.107193 74.909727 
L 51.590494 76.382681 
L 51.443749 77.885955 
L 51.675588 79.401093 
L 52.290862 80.908994 
L 53.290405 82.390109 
L 54.670829 83.82465 
L 56.424363 85.192825 
L 58.538756 86.475086 
L 60.997239 87.6524 
L 63.77856 88.706517 
L 66.857106 89.620257 
L 70.203098 90.37778 
L 73.782878 90.964857 
L 77.559276 91.369119 
L 81.492063 91.580285 
L 85.538468 91.590356 
L 89.653766 91.393774 
L 93.791909 90.987541 
L 97.906197 90.371284 
L 101.949966 89.547277 
L 105.877277 88.520417 
L 109.643589 87.298138 
L 113.206399 85.890296 
L 116.525835 84.308993 
L 119.565188 82.568384 
L 122.29137 80.684434 
L 124.675295 78.674669 
L 126.692176 76.557895 
L 128.321736 74.353924 
L 129.548335 72.083286 
L 130.361015 69.76695 
L 130.753478 67.426061 
L 130.723988 65.081682 
L 130.275223 62.754564 
L 129.414076 60.464933 
L 128.151422 58.232304 
L 126.501852 56.075313 
L 124.483389 54.011576 
L 122.117197 52.057574 
L 119.427278 50.228552 
L 116.440179 48.538443 
L 113.184697 46.999805 
L 109.6916 45.623773 
L 105.993356 44.420028 
L 102.123875 43.396764 
L 98.118264 42.560677 
L 94.012591 41.916945 
L 89.843665 41.469224 
L 85.648813 41.219634 
L 81.465672 41.168759 
L 77.331976 41.315635 
L 73.285339 41.65775 
L 69.363042 42.191032 
L 65.601799 42.909852 
L 62.037519 43.807018 
L 58.705053 44.873779 
L 55.637919 46.099834 
L 52.868016 47.473345 
L 50.425314 48.980967 
L 48.337532 50.607886 
L 46.6298 52.337878 
L 45.324303 54.153379 
L 44.439928 56.035586 
L 43.991908 57.96458 
L 43.991468 59.919467 
L 44.445498 61.878561 
L 45.35625 63.819583 
L 46.721077 65.719895 
L 48.532221 67.556758 
L 50.776671 69.307615 
L 53.436093 70.950392 
L 56.486853 72.463814 
L 59.900129 73.827732 
L 63.642129 75.023442 
L 67.674416 76.034004 
L 71.95433 76.844539 
L 76.435519 77.442499 
L 81.068551 77.817906 
L 85.801615 77.963543 
L 90.581275 77.875094 
L 95.353275 77.551237 
L 100.063362 76.993668 
L 104.65811 76.207076 
L 109.085726 75.19905 
L 113.296811 73.979935 
L 117.245059 72.562644 
L 120.887877 70.962413 
L 124.186921 69.196536 
L 127.108522 67.284057 
L 129.624017 65.24546 
L 131.709969 63.102343 
L 133.34829 60.877088 
L 134.526258 58.59255 
L 135.23646 56.271748 
L 135.476643 53.937588 
L 135.249512 51.612602 
L 134.562469 49.318715 
L 133.427308 47.077045 
L 131.859892 44.907726 
L 129.879805 42.829765 
L 127.509993 40.860921 
L 124.776416 39.017608 
L 121.7077 37.314824 
L 118.334802 35.766101 
L 114.690693 34.383457 
L 110.810058 33.177381 
L 106.729016 32.156812 
L 102.484861 31.329133 
L 98.115811 30.700167 
L 93.660789 30.274179 
L 89.159195 30.053874 
L 84.650705 30.040399 
L 80.175065 30.233346 
L 75.77189 30.630743 
L 71.480455 31.229062 
L 67.339482 32.023205 
L 63.38692 33.006508 
L 59.659699 34.170737 
L 56.19348 35.506093 
L 53.022379 37.001217 
L 50.178667 38.643209 
L 47.692463 40.417655 
L 45.59139 42.308671 
L 43.900233 44.298964 
L 42.640573 46.369908 
L 41.830419 48.501655 
L 41.483846 50.673261 
L 41.610634 52.862847 
L 42.215939 55.047787 
L 43.299994 57.204925 
L 44.857851 59.310825 
L 46.879193 61.342041 
L 49.348209 63.275423 
L 52.243556 65.088427 
L 55.538423 66.759448 
L 59.200685 68.268158 
L 63.193179 69.595837 
L 67.474079 70.725695 
L 71.997389 71.643173 
L 76.71353 72.336206 
L 81.570019 72.795461 
L 86.512226 73.014508 
L 91.484185 72.989954 
L 96.429446 72.721506 
L 101.291936 72.211979 
L 106.016811 71.46724 
L 110.551276 70.496093 
L 114.845352 69.310109 
L 118.85257 67.923405 
L 122.530571 66.352382 
L 125.841612 64.615433 
L 128.752963 62.732624 
L 131.237196 60.72536 
L 133.272355 58.616051 
L 134.842034 56.427778 
L 135.93535 54.183975 
L 136.546832 51.908121 
L 136.676238 49.623466 
L 136.328302 47.352774 
L 135.512444 45.118098 
L 134.242435 42.940593 
L 132.536046 40.840343 
L 130.414678 38.836229 
L 127.902993 36.945822 
L 125.028553 35.185296 
L 121.821461 33.569364 
L 118.31403 32.111233 
L 114.540461 30.822576 
L 110.536546 29.713512 
L 106.339394 28.792595 
L 101.987172 28.066813 
L 97.518866 27.54159 
L 92.974058 27.220784 
L 88.392718 27.106695 
L 83.814996 27.200064 
L 79.281023 27.500075 
L 74.830717 28.004353 
L 70.503574 28.708962 
L 66.338457 29.608403 
L 62.373375 30.695607 
L 58.64524 31.961938 
L 55.18961 33.397194 
L 52.04041 34.989617 
L 49.229638 36.72591 
L 46.787039 38.591267 
L 44.739772 40.569421 
L 43.112055 42.642703 
L 41.924798 44.792131 
L 41.195237 46.997517 
L 40.936564 49.237607 
L 41.157577 51.490239 
L 41.862349 53.732547 
L 43.049936 55.941177 
L 44.714135 58.092549 
L 46.843301 60.163135 
L 49.420242 62.129762 
L 52.422207 63.969939 
L 55.820958 65.662185 
L 59.582964 67.186375 
L 63.669693 68.524067 
L 68.038021 69.658824 
L 72.640745 70.576512 
L 77.427201 71.265558 
L 82.343966 71.717174 
L 87.335632 71.925529 
L 92.34564 71.887859 
L 97.317134 71.604527 
L 102.193838 71.079013 
L 106.9209 70.317845 
L 111.445717 69.330473 
L 115.718684 68.129084 
L 119.693876 66.728369 
L 123.329633 65.145258 
L 126.589043 63.398612 
L 129.440315 61.5089 
L 131.857043 59.497868 
L 133.818354 57.388196 
L 135.308963 55.203166 
L 136.31912 52.966346 
L 136.844485 50.701289 
L 136.885919 48.431255 
L 136.449223 46.178968 
L 135.544833 43.966393 
L 134.187477 41.814553 
L 132.395814 39.743365 
L 130.192062 37.771515 
L 127.60163 35.916351 
L 124.652748 34.193806 
L 121.376118 32.618338 
L 117.804582 31.202889 
L 113.972801 29.958856 
L 109.916965 28.896079 
L 105.67452 28.022829 
L 101.283914 27.345811 
L 96.784363 26.870163 
L 92.215631 26.599459 
L 87.617819 26.535714 
L 83.031165 26.679385 
L 78.495848 27.029372 
L 74.051784 27.583014 
L 69.738429 28.336093 
L 65.59456 29.282823 
L 61.658051 30.41585 
L 57.965631 31.726254 
L 54.552623 33.203549 
L 51.452663 34.835694 
L 48.697397 36.609113 
L 46.316159 38.508731 
L 44.33563 40.518016 
L 42.779482 42.619049 
L 41.66801 44.792615 
L 41.017764 47.018313 
L 40.841184 49.274699 
L 41.146247 51.539459 
L 41.936147 53.789604 
L 43.209009 56.001704 
L 44.957653 58.152148 
L 47.169427 60.217428 
L 49.82612 62.174449 
L 52.903955 64.000852 
L 56.373695 65.675354 
L 60.200841 67.178083 
L 64.345956 68.490911 
L 68.765088 69.597772 
L 73.410305 70.484952 
L 78.230329 71.141343 
L 83.171251 71.55866 
L 88.177325 71.7316 
L 93.191799 71.657946 
L 98.157784 71.338612 
L 103.019122 70.777627 
L 107.721235 69.982051 
L 112.211933 68.961838 
L 116.442159 67.729647 
L 120.366651 66.300599 
L 123.94451 64.691999 
L 127.13967 62.923034 
L 129.921242 61.014441 
L 132.263768 58.988171 
L 134.147343 56.867053 
L 135.557655 54.674462 
L 136.485916 52.434003 
L 136.928718 50.169213 
L 136.88782 47.903294 
L 136.369873 45.658868 
L 135.386105 43.457763 
L 133.951978 41.320832 
L 132.086821 39.267799 
L 129.813459 37.317134 
L 127.157841 35.485956 
L 124.148677 33.789951 
L 120.817087 32.243326 
L 117.196273 30.858762 
L 113.321205 29.647393 
L 109.228329 28.618791 
L 104.955303 27.780964 
L 100.540741 27.140348 
L 96.023987 26.701813 
L 91.444892 26.46867 
L 86.843611 26.442665 
L 82.260398 26.623991 
L 77.735414 27.011282 
L 73.308521 27.601613 
L 69.019086 28.390496 
L 64.905755 29.37188 
L 61.006234 30.538144 
L 57.357038 31.8801 
L 53.99323 33.386996 
L 50.948135 35.046528 
L 48.253032 36.844862 
L 45.936836 38.76667 
L 44.025743 40.795177 
L 42.54288 42.912236 
L 41.507934 45.09842 
L 40.936784 47.333138 
L 40.841135 49.594784 
L 41.228173 51.86091 
L 42.10025 54.108433 
L 43.454599 56.313871 
L 45.283119 58.453605 
L 47.572212 60.504173 
L 50.302714 62.442576 
L 53.449902 64.246613 
L 56.983621 65.895212 
L 60.868498 67.36877 
L 65.064286 68.649485 
L 69.526306 69.721668 
L 74.205997 70.572026 
L 79.051569 71.189917 
L 84.008733 71.567549 
L 89.021496 71.700136 
L 94.03301 71.58599 
L 98.986435 71.226557 
L 103.825811 70.626387 
L 108.496897 69.793044 
L 112.947974 68.736958 
L 117.130573 67.471226 
L 121.000128 66.01136 
L 124.516523 64.375012 
L 127.644541 62.581656 
L 130.354196 60.652262 
L 132.62096 58.608958 
L 134.425877 56.474692 
L 135.755575 54.272902 
L 136.602191 52.027206 
L 136.963212 49.761105 
L 136.841245 47.497722 
L 136.243745 45.259562 
L 135.182683 43.068303 
L 133.674207 40.944619 
L 131.738267 38.908031 
L 129.398247 36.97679 
L 126.680593 35.167777 
L 123.61445 33.496436 
L 120.231318 31.976716 
L 116.564723 30.62104 
L 112.649908 29.440281 
L 108.523547 28.443748 
L 104.223478 27.639182 
L 99.788459 27.032756 
L 95.257937 26.629077 
L 90.671832 26.431192 
L 86.070331 26.440585 
L 81.493689 26.657187 
L 76.982033 27.079368 
L 72.575158 27.70394 
L 68.312325 28.526153 
L 64.232042 29.539691 
L 60.371832 30.736668 
L 56.767986 32.107633 
L 53.455295 33.64157 
L 50.466763 35.325917 
L 47.833295 37.146585 
L 45.583371 39.087996 
L 43.742699 41.13314 
L 42.333851 43.263647 
L 41.375899 45.459884 
L 40.884044 47.701078 
L 40.869255 49.965466 
L 41.337923 52.23048 
L 42.291555 54.47295 
L 43.726502 56.669353 
L 45.633742 58.796073 
L 47.998743 60.829703 
L 50.801399 62.747357 
L 54.016062 64.526997 
L 57.611674 66.147776 
L 61.552016 67.59037 
L 65.796057 68.837311 
L 70.298421 69.873295 
L 75.009953 70.685458 
L 79.878387 71.263624 
L 84.849085 71.600499 
L 89.865851 71.691813 
L 94.871773 71.536405 
L 99.810097 71.136249 
L 104.625092 70.496408 
L 109.262885 69.624943 
L 109.262885 69.624943 
" clip-path="url(#p49d78cfc83)" style="fill: none; stroke: #ff7f0e; stroke-opacity: 0.5; stroke-width: 1.5; stroke-linecap: round"/>
   </g>
  </g>
 </g>
 <defs>
  <clipPath id="p49d78cfc83">
   <rect x="-1.8" y="-7.2" width="176.4" height="176.4"/>
  </clipPath>
 </defs>
</svg>
