<?xml version="1.0" encoding="utf-8" standalone="no"?>
<!DOCTYPE svg PUBLIC "-//W3C//DTD SVG 1.1//EN"
  "http://www.w3.org/Graphics/SVG/1.1/DTD/svg11.dtd">
<svg xmlns:xlink="http://www.w3.org/1999/xlink" width="216pt" height="180pt" viewBox="0 0 216 180" xmlns="http://www.w3.org/2000/svg" version="1.1">
 <metadata>
  <rdf:RDF xmlns:dc="http://purl.org/dc/elements/1.1/" xmlns:cc="http://creativecommons.org/ns#" xmlns:rdf="http://www.w3.org/1999/02/22-rdf-syntax-ns#">
   <cc:Work>
    <dc:type rdf:resource="http://purl.org/dc/dcmitype/StillImage"/>
    <dc:date>2023-06-14T18:46:04.494587</dc:date>
    <dc:format>image/svg+xml</dc:format>
    <dc:creator>
     <cc:Agent>
      <dc:title>Matplotlib v3.7.0, https://matplotlib.org/</dc:title>
     </cc:Agent>
    </dc:creator>
   </cc:Work>
  </rdf:RDF>
 </metadata>
 <defs>
  <style type="text/css">*{stroke-linejoin: round; stroke-linecap: butt}</style>
 </defs>
 <g id="figure_1">
  <g id="patch_1">
   <path d="M 0 180 
L 216 180 
L 216 0 
L 0 0 
z
" style="fill: #ffffff"/>
  </g>
  <g id="patch_2">
   <path d="M -1 169.2 
L 174.6 169.2 
L 174.6 -1 
" style="fill: none"/>
  </g>
  <g id="pane3d_1">
   <g id="patch_3">
    <path d="M 11.519416 125.705413 
L 69.772457 76.876559 
L 68.962684 6.456623 
L 7.921935 51.001381 
" style="fill: none; opacity: 0.5; stroke: #f2f2f2; stroke-linejoin: miter"/>
   </g>
  </g>
  <g id="pane3d_2">
   <g id="patch_4">
    <path d="M 69.772457 76.876559 
L 163.247803 104.046152 
L 166.583609 31.200681 
L 68.962684 6.456623 
" style="fill: none; opacity: 0.5; stroke: #e6e6e6; stroke-linejoin: miter"/>
   </g>
  </g>
  <g id="pane3d_3">
   <g id="patch_5">
    <path d="M 11.519416 125.705413 
L 110.607849 158.067695 
L 163.247803 104.046152 
L 69.772457 76.876559 
" style="fill: none; opacity: 0.5; stroke: #ececec; stroke-linejoin: miter"/>
   </g>
  </g>
  <g id="axis3d_1">
   <g id="line2d_1">
    <path d="M 11.519416 125.705413 
L 110.607849 158.067695 
" style="fill: none; stroke: #ffffff; stroke-width: 0.8; stroke-linecap: round"/>
   </g>
   <g id="text_1">
    <!-- x -->
    <g style="fill: #262626" transform="translate(40.437569 179.640981) scale(0.1 -0.1)">
     <defs>
      <path id="DejaVuSans-78" d="M 3513 3500 
L 2247 1797 
L 3578 0 
L 2900 0 
L 1881 1375 
L 863 0 
L 184 0 
L 1544 1831 
L 300 3500 
L 978 3500 
L 1906 2253 
L 2834 3500 
L 3513 3500 
z
" transform="scale(0.015625)"/>
     </defs>
     <use xlink:href="#DejaVuSans-78"/>
    </g>
   </g>
   <g id="Line3DCollection_1">
    <path d="M 33.276588 132.811305 
L 90.367953 82.862857 
L 90.436197 11.899532 
" style="fill: none; stroke: #d3d3d3; stroke-width: 0.8"/>
    <path d="M 59.789382 141.470384 
L 115.411175 90.141932 
L 116.573962 18.524694 
" style="fill: none; stroke: #d3d3d3; stroke-width: 0.8"/>
    <path d="M 87.072506 150.381052 
L 141.120327 97.614568 
L 143.437535 25.333826 
" style="fill: none; stroke: #d3d3d3; stroke-width: 0.8"/>
   </g>
   <g id="xtick_1">
    <g id="line2d_2">
     <path d="M 88.783784 78.616216 
" clip-path="url(#p02c89b0f15)" style="fill: none; stroke: #d3d3d3; stroke-width: 0.8; stroke-linecap: round"/>
    </g>
    <g id="line2d_3">
     <path d="M 33.774083 132.376054 
L 32.279445 133.683692 
" style="fill: none; stroke: #808080; stroke-width: 0.8; stroke-linecap: round"/>
    </g>
    <g id="text_2">
     <!-- −0.2 -->
     <g style="fill: #808080" transform="translate(13.616049 156.315234) scale(0.1 -0.1)">
      <defs>
       <path id="DejaVuSans-2212" d="M 678 2272 
L 4684 2272 
L 4684 1741 
L 678 1741 
L 678 2272 
z
" transform="scale(0.015625)"/>
       <path id="DejaVuSans-30" d="M 2034 4250 
Q 1547 4250 1301 3770 
Q 1056 3291 1056 2328 
Q 1056 1369 1301 889 
Q 1547 409 2034 409 
Q 2525 409 2770 889 
Q 3016 1369 3016 2328 
Q 3016 3291 2770 3770 
Q 2525 4250 2034 4250 
z
M 2034 4750 
Q 2819 4750 3233 4129 
Q 3647 3509 3647 2328 
Q 3647 1150 3233 529 
Q 2819 -91 2034 -91 
Q 1250 -91 836 529 
Q 422 1150 422 2328 
Q 422 3509 836 4129 
Q 1250 4750 2034 4750 
z
" transform="scale(0.015625)"/>
       <path id="DejaVuSans-2e" d="M 684 794 
L 1344 794 
L 1344 0 
L 684 0 
L 684 794 
z
" transform="scale(0.015625)"/>
       <path id="DejaVuSans-32" d="M 1228 531 
L 3431 531 
L 3431 0 
L 469 0 
L 469 531 
Q 828 903 1448 1529 
Q 2069 2156 2228 2338 
Q 2531 2678 2651 2914 
Q 2772 3150 2772 3378 
Q 2772 3750 2511 3984 
Q 2250 4219 1831 4219 
Q 1534 4219 1204 4116 
Q 875 4013 500 3803 
L 500 4441 
Q 881 4594 1212 4672 
Q 1544 4750 1819 4750 
Q 2544 4750 2975 4387 
Q 3406 4025 3406 3419 
Q 3406 3131 3298 2873 
Q 3191 2616 2906 2266 
Q 2828 2175 2409 1742 
Q 1991 1309 1228 531 
z
" transform="scale(0.015625)"/>
      </defs>
      <use xlink:href="#DejaVuSans-2212"/>
      <use xlink:href="#DejaVuSans-30" x="83.789062"/>
      <use xlink:href="#DejaVuSans-2e" x="147.412109"/>
      <use xlink:href="#DejaVuSans-32" x="179.199219"/>
     </g>
    </g>
   </g>
   <g id="xtick_2">
    <g id="line2d_4">
     <path d="M 88.783784 78.616216 
" clip-path="url(#p02c89b0f15)" style="fill: none; stroke: #d3d3d3; stroke-width: 0.8; stroke-linecap: round"/>
    </g>
    <g id="line2d_5">
     <path d="M 60.27464 141.022583 
L 58.816737 142.367952 
" style="fill: none; stroke: #808080; stroke-width: 0.8; stroke-linecap: round"/>
    </g>
    <g id="text_3">
     <!-- 0.0 -->
     <g style="fill: #808080" transform="translate(44.362806 165.253157) scale(0.1 -0.1)">
      <use xlink:href="#DejaVuSans-30"/>
      <use xlink:href="#DejaVuSans-2e" x="63.623047"/>
      <use xlink:href="#DejaVuSans-30" x="95.410156"/>
     </g>
    </g>
   </g>
   <g id="xtick_3">
    <g id="line2d_6">
     <path d="M 88.783784 78.616216 
" clip-path="url(#p02c89b0f15)" style="fill: none; stroke: #d3d3d3; stroke-width: 0.8; stroke-linecap: round"/>
    </g>
    <g id="line2d_7">
     <path d="M 87.5446 149.92015 
L 86.126215 151.304908 
" style="fill: none; stroke: #808080; stroke-width: 0.8; stroke-linecap: round"/>
    </g>
    <g id="text_4">
     <!-- 0.2 -->
     <g style="fill: #808080" transform="translate(71.695831 174.452285) scale(0.1 -0.1)">
      <use xlink:href="#DejaVuSans-30"/>
      <use xlink:href="#DejaVuSans-2e" x="63.623047"/>
      <use xlink:href="#DejaVuSans-32" x="95.410156"/>
     </g>
    </g>
   </g>
  </g>
  <g id="axis3d_2">
   <g id="line2d_8">
    <path d="M 163.247803 104.046152 
L 110.607849 158.067695 
" style="fill: none; stroke: #ffffff; stroke-width: 0.8; stroke-linecap: round"/>
   </g>
   <g id="text_5">
    <!-- y -->
    <g style="fill: #262626" transform="translate(162.133934 160.636398) scale(0.1 -0.1)">
     <defs>
      <path id="DejaVuSans-79" d="M 2059 -325 
Q 1816 -950 1584 -1140 
Q 1353 -1331 966 -1331 
L 506 -1331 
L 506 -850 
L 844 -850 
Q 1081 -850 1212 -737 
Q 1344 -625 1503 -206 
L 1606 56 
L 191 3500 
L 800 3500 
L 1894 763 
L 2988 3500 
L 3597 3500 
L 2059 -325 
z
" transform="scale(0.015625)"/>
     </defs>
     <use xlink:href="#DejaVuSans-79"/>
    </g>
   </g>
   <g id="Line3DCollection_2">
    <path d="M 22.554118 40.323481 
L 25.44308 114.034322 
L 123.232191 145.112014 
" style="fill: none; stroke: #d3d3d3; stroke-width: 0.8"/>
    <path d="M 39.788671 27.746489 
L 41.875614 100.260246 
L 138.097008 129.857055 
" style="fill: none; stroke: #d3d3d3; stroke-width: 0.8"/>
    <path d="M 56.197154 15.772326 
L 57.553299 87.1189 
L 152.24452 115.338227 
" style="fill: none; stroke: #d3d3d3; stroke-width: 0.8"/>
   </g>
   <g id="xtick_4">
    <g id="line2d_9">
     <path d="M 88.783784 78.616216 
" clip-path="url(#p02c89b0f15)" style="fill: none; stroke: #d3d3d3; stroke-width: 0.8; stroke-linecap: round"/>
    </g>
    <g id="line2d_10">
     <path d="M 122.408734 144.850316 
L 124.881204 145.636075 
" style="fill: none; stroke: #808080; stroke-width: 0.8; stroke-linecap: round"/>
    </g>
    <g id="text_6">
     <!-- −0.2 -->
     <g style="fill: #808080" transform="translate(123.793514 165.931804) scale(0.1 -0.1)">
      <use xlink:href="#DejaVuSans-2212"/>
      <use xlink:href="#DejaVuSans-30" x="83.789062"/>
      <use xlink:href="#DejaVuSans-2e" x="147.412109"/>
      <use xlink:href="#DejaVuSans-32" x="179.199219"/>
     </g>
    </g>
   </g>
   <g id="xtick_5">
    <g id="line2d_11">
     <path d="M 88.783784 78.616216 
" clip-path="url(#p02c89b0f15)" style="fill: none; stroke: #d3d3d3; stroke-width: 0.8; stroke-linecap: round"/>
    </g>
    <g id="line2d_12">
     <path d="M 137.287753 129.608136 
L 139.71753 130.355513 
" style="fill: none; stroke: #808080; stroke-width: 0.8; stroke-linecap: round"/>
    </g>
    <g id="text_7">
     <!-- 0.0 -->
     <g style="fill: #808080" transform="translate(142.546744 150.336431) scale(0.1 -0.1)">
      <use xlink:href="#DejaVuSans-30"/>
      <use xlink:href="#DejaVuSans-2e" x="63.623047"/>
      <use xlink:href="#DejaVuSans-30" x="95.410156"/>
     </g>
    </g>
   </g>
   <g id="xtick_6">
    <g id="line2d_13">
     <path d="M 88.783784 78.616216 
" clip-path="url(#p02c89b0f15)" style="fill: none; stroke: #d3d3d3; stroke-width: 0.8; stroke-linecap: round"/>
    </g>
    <g id="line2d_14">
     <path d="M 151.449071 115.101172 
L 153.837347 115.812912 
" style="fill: none; stroke: #808080; stroke-width: 0.8; stroke-linecap: round"/>
    </g>
    <g id="text_8">
     <!-- 0.2 -->
     <g style="fill: #808080" transform="translate(156.406776 135.494252) scale(0.1 -0.1)">
      <use xlink:href="#DejaVuSans-30"/>
      <use xlink:href="#DejaVuSans-2e" x="63.623047"/>
      <use xlink:href="#DejaVuSans-32" x="95.410156"/>
     </g>
    </g>
   </g>
  </g>
  <g id="axis3d_3">
   <g id="line2d_15">
    <path d="M 163.247803 104.046152 
L 166.583609 31.200681 
" style="fill: none; stroke: #ffffff; stroke-width: 0.8; stroke-linecap: round"/>
   </g>
   <g id="text_9">
    <!-- z -->
    <g style="fill: #262626" transform="translate(202.494937 65.789607) scale(0.1 -0.1)">
     <defs>
      <path id="DejaVuSans-7a" d="M 353 3500 
L 3084 3500 
L 3084 2975 
L 922 459 
L 3084 459 
L 3084 0 
L 275 0 
L 275 525 
L 2438 3041 
L 353 3041 
L 353 3500 
z
" transform="scale(0.015625)"/>
     </defs>
     <use xlink:href="#DejaVuSans-7a"/>
    </g>
   </g>
   <g id="Line3DCollection_3">
    <path d="M 163.318031 102.512559 
L 69.755374 75.390964 
L 11.443805 124.135287 
" style="fill: none; stroke: #d3d3d3; stroke-width: 0.8"/>
    <path d="M 164.068157 86.131723 
L 69.572998 59.531044 
L 10.635835 107.357269 
" style="fill: none; stroke: #d3d3d3; stroke-width: 0.8"/>
    <path d="M 164.833535 69.417816 
L 69.387092 43.364165 
L 9.810805 90.224991 
" style="fill: none; stroke: #d3d3d3; stroke-width: 0.8"/>
    <path d="M 165.614636 52.360574 
L 69.197552 26.88133 
L 8.968169 72.727112 
" style="fill: none; stroke: #d3d3d3; stroke-width: 0.8"/>
    <path d="M 166.411948 34.94931 
L 69.004272 10.073183 
L 8.107358 54.851804 
" style="fill: none; stroke: #d3d3d3; stroke-width: 0.8"/>
   </g>
   <g id="xtick_7">
    <g id="line2d_16">
     <path d="M 88.783784 78.616216 
" style="fill: none; stroke: #d3d3d3; stroke-width: 0.8; stroke-linecap: round"/>
    </g>
    <g id="line2d_17">
     <path d="M 162.532748 102.284924 
L 164.890467 102.968371 
" style="fill: none; stroke: #808080; stroke-width: 0.8; stroke-linecap: round"/>
    </g>
    <g id="text_10">
     <!-- 0.000 -->
     <g style="fill: #808080" transform="translate(167.241614 107.514456) scale(0.1 -0.1)">
      <use xlink:href="#DejaVuSans-30"/>
      <use xlink:href="#DejaVuSans-2e" x="63.623047"/>
      <use xlink:href="#DejaVuSans-30" x="95.410156"/>
      <use xlink:href="#DejaVuSans-30" x="159.033203"/>
      <use xlink:href="#DejaVuSans-30" x="222.65625"/>
     </g>
    </g>
   </g>
   <g id="xtick_8">
    <g id="line2d_18">
     <path d="M 88.783784 78.616216 
" style="fill: none; stroke: #d3d3d3; stroke-width: 0.8; stroke-linecap: round"/>
    </g>
    <g id="line2d_19">
     <path d="M 163.274674 85.908355 
L 165.657032 86.578997 
" style="fill: none; stroke: #808080; stroke-width: 0.8; stroke-linecap: round"/>
    </g>
    <g id="text_11">
     <!-- 0.025 -->
     <g style="fill: #808080" transform="translate(168.171024 91.182397) scale(0.1 -0.1)">
      <defs>
       <path id="DejaVuSans-35" d="M 691 4666 
L 3169 4666 
L 3169 4134 
L 1269 4134 
L 1269 2991 
Q 1406 3038 1543 3061 
Q 1681 3084 1819 3084 
Q 2600 3084 3056 2656 
Q 3513 2228 3513 1497 
Q 3513 744 3044 326 
Q 2575 -91 1722 -91 
Q 1428 -91 1123 -41 
Q 819 9 494 109 
L 494 744 
Q 775 591 1075 516 
Q 1375 441 1709 441 
Q 2250 441 2565 725 
Q 2881 1009 2881 1497 
Q 2881 1984 2565 2268 
Q 2250 2553 1709 2553 
Q 1456 2553 1204 2497 
Q 953 2441 691 2322 
L 691 4666 
z
" transform="scale(0.015625)"/>
      </defs>
      <use xlink:href="#DejaVuSans-30"/>
      <use xlink:href="#DejaVuSans-2e" x="63.623047"/>
      <use xlink:href="#DejaVuSans-30" x="95.410156"/>
      <use xlink:href="#DejaVuSans-32" x="159.033203"/>
      <use xlink:href="#DejaVuSans-35" x="222.65625"/>
     </g>
    </g>
   </g>
   <g id="xtick_9">
    <g id="line2d_20">
     <path d="M 88.783784 78.616216 
" style="fill: none; stroke: #d3d3d3; stroke-width: 0.8; stroke-linecap: round"/>
    </g>
    <g id="line2d_21">
     <path d="M 164.031679 69.198936 
L 166.439196 69.856107 
" style="fill: none; stroke: #808080; stroke-width: 0.8; stroke-linecap: round"/>
    </g>
    <g id="text_12">
     <!-- 0.050 -->
     <g style="fill: #808080" transform="translate(169.119244 74.519789) scale(0.1 -0.1)">
      <use xlink:href="#DejaVuSans-30"/>
      <use xlink:href="#DejaVuSans-2e" x="63.623047"/>
      <use xlink:href="#DejaVuSans-30" x="95.410156"/>
      <use xlink:href="#DejaVuSans-35" x="159.033203"/>
      <use xlink:href="#DejaVuSans-30" x="222.65625"/>
     </g>
    </g>
   </g>
   <g id="xtick_10">
    <g id="line2d_22">
     <path d="M 88.783784 78.616216 
" style="fill: none; stroke: #d3d3d3; stroke-width: 0.8; stroke-linecap: round"/>
    </g>
    <g id="line2d_23">
     <path d="M 164.804228 52.146415 
L 167.237441 52.789418 
" style="fill: none; stroke: #808080; stroke-width: 0.8; stroke-linecap: round"/>
    </g>
    <g id="text_13">
     <!-- 0.075 -->
     <g style="fill: #808080" transform="translate(170.086853 57.516496) scale(0.1 -0.1)">
      <defs>
       <path id="DejaVuSans-37" d="M 525 4666 
L 3525 4666 
L 3525 4397 
L 1831 0 
L 1172 0 
L 2766 4134 
L 525 4134 
L 525 4666 
z
" transform="scale(0.015625)"/>
      </defs>
      <use xlink:href="#DejaVuSans-30"/>
      <use xlink:href="#DejaVuSans-2e" x="63.623047"/>
      <use xlink:href="#DejaVuSans-30" x="95.410156"/>
      <use xlink:href="#DejaVuSans-37" x="159.033203"/>
      <use xlink:href="#DejaVuSans-35" x="222.65625"/>
     </g>
    </g>
   </g>
   <g id="xtick_11">
    <g id="line2d_24">
     <path d="M 88.783784 78.616216 
" style="fill: none; stroke: #d3d3d3; stroke-width: 0.8; stroke-linecap: round"/>
    </g>
    <g id="line2d_25">
     <path d="M 165.592805 34.740115 
L 168.052267 35.368217 
" style="fill: none; stroke: #808080; stroke-width: 0.8; stroke-linecap: round"/>
    </g>
    <g id="text_14">
     <!-- 0.100 -->
     <g style="fill: #808080" transform="translate(171.074449 40.161961) scale(0.1 -0.1)">
      <defs>
       <path id="DejaVuSans-31" d="M 794 531 
L 1825 531 
L 1825 4091 
L 703 3866 
L 703 4441 
L 1819 4666 
L 2450 4666 
L 2450 531 
L 3481 531 
L 3481 0 
L 794 0 
L 794 531 
z
" transform="scale(0.015625)"/>
      </defs>
      <use xlink:href="#DejaVuSans-30"/>
      <use xlink:href="#DejaVuSans-2e" x="63.623047"/>
      <use xlink:href="#DejaVuSans-31" x="95.410156"/>
      <use xlink:href="#DejaVuSans-30" x="159.033203"/>
      <use xlink:href="#DejaVuSans-30" x="222.65625"/>
     </g>
    </g>
   </g>
  </g>
  <g id="axes_1">
   <g id="line2d_26">
    <path d="M 88.941431 44.76346 
L 88.898554 83.64575 
L 88.627356 99.717194 
L 88.68144 104.476498 
L 88.957589 107.731364 
L 89.028509 109.446402 
L 88.831413 110.336912 
L 88.487423 111.650062 
L 88.598974 112.116682 
L 88.898056 112.462172 
L 89.220779 112.591101 
L 88.89196 112.578397 
L 88.434385 112.758974 
L 88.257078 113.036396 
L 88.340625 113.254415 
L 88.662331 113.430516 
L 89.15726 113.445183 
L 89.495324 113.256458 
L 89.491182 113.045634 
L 89.232387 112.862075 
L 88.703572 112.787859 
L 88.156424 112.927583 
L 87.881025 113.192288 
L 87.886826 113.453962 
L 88.129333 113.685976 
L 88.671746 113.84313 
L 89.323648 113.808054 
L 89.855125 113.574577 
L 90.051702 113.26976 
L 89.991938 112.999701 
L 89.732774 112.752268 
L 89.174479 112.541397 
L 88.470247 112.503179 
L 87.78727 112.665952 
L 87.302688 113.002957 
L 87.156142 113.346606 
L 87.269911 113.696901 
L 87.644638 113.996299 
L 88.237946 114.19477 
L 89.159413 114.248541 
L 90.073788 114.061786 
L 90.639979 113.751147 
L 90.944527 113.332372 
L 90.958227 112.979191 
L 90.774202 112.624623 
L 90.235347 112.206764 
L 89.423298 111.923103 
L 88.451311 111.837295 
L 87.466641 111.981902 
L 86.629363 112.346754 
L 86.188357 112.733618 
L 85.964138 113.178135 
L 85.989475 113.637546 
L 86.276039 114.067927 
L 86.812029 114.429094 
L 87.561817 114.688181 
L 88.791809 114.835258 
L 90.113868 114.729708 
L 91.31523 114.36952 
L 92.010788 113.946777 
L 92.446506 113.417255 
L 92.568868 112.814739 
L 92.461799 112.394542 
L 92.01659 111.776737 
L 91.25309 111.228033 
L 90.224779 110.810264 
L 89.011639 110.578367 
L 87.71444 110.571211 
L 86.446994 110.803628 
L 85.326793 111.261674 
L 84.464659 111.902641 
L 84.080535 112.399603 
L 83.874781 112.925297 
L 83.862481 113.45515 
L 84.051445 113.965111 
L 84.44159 114.433118 
L 85.024612 114.840204 
L 86.2224 115.304353 
L 87.726362 115.562723 
L 89.413491 115.596591 
L 91.135889 115.399148 
L 92.733675 114.97179 
L 94.050266 114.323772 
L 94.702692 113.778793 
L 95.135484 113.15496 
L 95.323997 112.46708 
L 95.253002 111.735113 
L 94.917431 110.984402 
L 94.322685 110.245261 
L 93.484563 109.55184 
L 92.428834 108.940278 
L 91.190514 108.446258 
L 89.812846 108.102203 
L 88.346006 107.934387 
L 86.845516 107.96027 
L 85.370369 108.186365 
L 83.980893 108.606902 
L 82.7364 109.203505 
L 81.69272 109.946049 
L 80.899758 110.794708 
L 80.399191 111.703109 
L 80.222457 112.622263 
L 80.389106 113.504783 
L 80.905583 114.308758 
L 81.764458 115.000641 
L 82.9441 115.556695 
L 84.408821 115.962806 
L 86.109532 116.212858 
L 87.984971 116.306157 
L 89.963574 116.244562 
L 91.96606 116.029998 
L 93.908663 115.66288 
L 95.706937 115.141766 
L 97.279873 114.46433 
L 98.554009 113.629526 
L 99.467179 112.640624 
L 99.971554 111.508643 
L 100.059958 110.895362 
L 100.035753 110.255545 
L 99.645965 108.916516 
L 98.806176 107.540663 
L 97.53772 106.189713 
L 95.87839 104.93458 
L 93.881292 103.850131 
L 91.613524 103.008751 
L 89.154604 102.473504 
L 86.594516 102.291658 
L 84.031171 102.489206 
L 81.567183 103.066848 
L 79.305935 103.997893 
L 77.34711 105.228524 
L 75.782023 106.680942 
L 75.172275 107.460943 
L 74.689181 108.259688 
L 74.339927 109.064018 
L 74.13047 109.860952 
L 74.065473 110.638065 
L 74.148248 111.383837 
L 74.380716 112.087972 
L 74.763378 112.741659 
L 75.295292 113.337754 
L 75.974055 113.87088 
L 76.795799 114.33744 
L 77.75518 114.735529 
L 80.058105 115.326089 
L 82.810776 115.653374 
L 85.918488 115.739253 
L 89.265682 115.606744 
L 92.7192 115.271766 
L 96.133333 114.738038 
L 99.356712 113.995701 
L 102.240677 113.023561 
L 103.511891 112.44286 
L 104.648309 111.794466 
L 105.636052 111.075353 
L 106.462951 110.283216 
L 107.118698 109.416796 
L 107.594952 108.476198 
L 107.885391 107.463196 
L 107.985717 106.381497 
L 107.893628 105.236946 
L 107.608749 104.037657 
L 107.132547 102.794056 
L 106.468227 101.518812 
L 105.620629 100.226675 
L 104.596135 98.934196 
L 103.402578 97.659371 
L 102.049176 96.4212 
L 100.54648 95.239202 
L 98.906333 94.132903 
L 97.141848 93.121325 
L 95.267386 92.222499 
L 93.298541 91.453017 
L 91.252109 90.82763 
L 89.146044 90.358905 
L 86.999398 90.056931 
L 84.832216 89.92907 
L 82.665409 89.979749 
L 80.520581 90.210282 
L 78.419811 90.618716 
L 76.385404 91.199713 
L 74.439605 91.944468 
L 72.604283 92.840683 
L 70.900609 93.87262 
L 69.348727 95.021265 
L 67.967446 96.264618 
L 66.773954 97.578156 
L 65.783587 98.935445 
L 65.009634 100.308935 
L 64.463209 101.670885 
L 64.153175 102.994383 
L 64.086109 104.254393 
L 64.266318 105.428746 
L 64.695863 106.498993 
L 65.374601 107.451035 
L 66.300219 108.275482 
L 67.468253 108.967687 
L 68.872082 109.527478 
L 70.502902 109.958597 
L 72.349677 110.267928 
L 74.399078 110.46457 
L 79.040603 110.561396 
L 84.272875 110.329973 
L 89.902627 109.831417 
L 95.700898 109.092321 
L 101.410828 108.100973 
L 106.761249 106.812395 
L 109.21759 106.036081 
L 111.485697 105.159168 
L 113.536631 104.172059 
L 115.344473 103.065669 
L 116.886863 101.832013 
L 118.145395 100.464837 
L 119.10585 98.96029 
L 119.758253 97.317606 
L 120.096765 95.539767 
L 120.119426 93.63408 
L 119.827794 91.612597 
L 119.226517 89.492314 
L 118.322886 87.295091 
L 117.126414 85.047259 
L 115.648475 82.778918 
L 113.902016 80.522985 
L 111.901377 78.314038 
L 109.662185 76.187087 
L 107.201355 74.176352 
L 104.537148 72.314156 
L 101.68929 70.630018 
L 98.679132 69.149964 
L 95.529813 67.896094 
L 92.266422 66.886371 
L 88.91612 66.134589 
L 85.5082 65.650451 
L 82.074066 65.439699 
L 78.647095 65.504217 
L 75.262374 65.842062 
L 71.95629 66.447372 
L 68.76599 67.310177 
L 65.728706 68.416097 
L 62.880993 69.746019 
L 60.257915 71.27583 
L 57.892233 72.97631 
L 55.81367 74.813311 
L 54.048288 76.748323 
L 52.618048 78.739476 
L 51.540556 80.743002 
L 50.829021 82.715067 
L 50.492381 84.613823 
L 50.535581 86.401487 
L 50.959923 88.046184 
L 51.763452 89.523345 
L 52.9413 90.816485 
L 54.485966 91.917266 
L 56.387489 92.824877 
L 58.633513 93.54483 
L 61.209244 94.087349 
L 64.09731 94.465555 
L 67.277553 94.693652 
L 70.726761 94.785267 
L 74.418378 94.752068 
L 82.404233 94.342296 
L 90.946167 93.488579 
L 95.317625 92.886237 
L 99.690746 92.155727 
L 104.01251 91.286058 
L 108.227657 90.265437 
L 112.279848 89.08246 
L 116.11308 87.727316 
L 119.67331 86.192881 
L 122.910167 84.475614 
L 125.778641 82.576151 
L 128.240564 80.499583 
L 130.265779 78.255402 
L 131.832845 75.857215 
L 132.929225 73.322325 
L 133.550951 70.671289 
L 133.701826 67.927553 
L 133.392274 65.117176 
L 132.637993 62.268608 
L 131.458551 59.412432 
L 129.87608 56.580965 
L 127.914166 53.807647 
L 125.597002 51.126197 
L 122.948831 48.569585 
L 119.993672 46.16892 
L 116.755304 43.952389 
L 113.257472 41.944358 
L 109.524257 40.164753 
L 105.580578 38.628761 
L 101.452772 37.346856 
L 97.169202 36.325117 
L 92.76085 35.565774 
L 88.261837 35.067868 
L 83.7098 34.827958 
L 79.146079 34.840758 
L 74.615649 35.099639 
L 70.166738 35.596932 
L 65.850114 36.324022 
L 61.718038 37.27122 
L 57.822926 38.427485 
L 54.215793 39.780057 
L 50.944611 41.314082 
L 48.052726 43.012334 
L 45.577474 44.855089 
L 43.549139 46.820182 
L 41.990339 48.883249 
L 40.915881 51.018114 
L 40.333056 53.197287 
L 40.242309 55.392524 
L 40.638169 57.575434 
L 41.510314 59.718106 
L 42.844638 61.793746 
L 44.624221 63.777302 
L 46.830109 65.646011 
L 49.441854 67.379818 
L 52.437795 68.961604 
L 55.795069 70.377165 
L 59.4894 71.614932 
L 63.494676 72.665448 
L 67.782387 73.520651 
L 72.320966 74.17307 
L 77.075109 74.615028 
L 82.005121 74.837986 
L 87.066394 74.832147 
L 92.209069 74.586448 
L 97.377984 74.08901 
L 102.512989 73.328114 
L 107.549688 72.293683 
L 112.420678 70.979188 
L 117.057258 69.383785 
L 121.391582 67.514413 
L 125.359127 65.387486 
L 128.901277 63.029785 
L 131.967801 60.478223 
L 134.518945 57.778292 
L 136.52689 54.981256 
L 137.976407 52.140453 
L 138.864614 49.307279 
L 139.199891 46.5276 
L 139.000102 43.839189 
L 138.290401 41.270603 
L 137.10087 38.841512 
L 135.464298 36.564188 
L 133.414283 34.44563 
L 130.983795 32.489783 
L 128.204255 30.69939 
L 125.105096 29.077217 
L 121.713753 27.626611 
L 118.055989 26.351478 
L 114.156478 25.255889 
L 110.039551 24.343526 
L 105.730048 23.617155 
L 101.254199 23.078247 
L 96.640491 22.726813 
L 91.920458 22.561466 
L 87.129324 22.579648 
L 82.30646 22.777973 
L 77.495558 23.152614 
L 72.74448 23.69964 
L 68.104726 24.415278 
L 63.630497 25.296061 
L 59.377366 26.338851 
L 55.400633 27.540767 
L 51.753461 28.899026 
L 48.484967 30.41071 
L 45.638424 32.072433 
L 43.249772 33.879876 
L 41.346573 35.827142 
L 39.947503 37.905937 
L 39.062407 40.104637 
L 38.692873 42.40739 
L 38.833227 44.793484 
L 39.471794 47.237169 
L 40.59228 49.708095 
L 42.175097 52.172372 
L 44.198525 54.594123 
L 46.639594 56.9373 
L 49.474648 59.167455 
L 52.67957 61.253215 
L 56.229698 63.167256 
L 60.099467 64.886705 
L 64.261845 66.392976 
L 68.687627 67.671147 
L 73.344655 68.709056 
L 78.197046 69.496291 
L 83.204493 70.023282 
L 88.321726 70.280663 
L 93.498205 70.259069 
L 98.678142 69.949448 
L 103.800915 69.343954 
L 108.801945 68.437373 
L 113.614067 67.228958 
L 118.169383 65.724451 
L 122.401512 63.937961 
L 126.248116 61.89331 
L 129.653476 59.624447 
L 132.570873 57.174641 
L 134.964509 54.594335 
L 136.810738 51.937847 
L 138.098443 49.259366 
L 138.828531 46.608937 
L 139.012611 44.029167 
L 138.671071 41.553208 
L 137.830802 39.204322 
L 136.522865 36.996872 
L 134.780362 34.938363 
L 132.636679 33.031912 
L 130.124218 31.278606 
L 127.273636 29.679323 
L 124.113546 28.235817 
L 120.670628 26.951084 
L 116.970035 25.829159 
L 113.036024 24.874563 
L 108.892743 24.09164 
L 104.565073 23.483952 
L 100.079513 23.053858 
L 95.465007 22.802332 
L 90.753692 22.728999 
L 85.981488 22.832348 
L 81.188473 23.110059 
L 76.41898 23.559348 
L 71.72135 24.177272 
L 67.147307 24.960954 
L 62.750939 25.90768 
L 58.587304 27.014884 
L 54.710753 28.280046 
L 51.173072 29.70049 
L 48.02162 31.27312 
L 45.297628 32.994058 
L 43.034828 34.85815 
L 41.258548 36.858321 
L 39.985341 38.98479 
L 39.223166 41.224225 
L 38.972054 43.558995 
L 39.225146 45.96673 
L 39.969969 48.420352 
L 41.189776 50.888701 
L 42.864821 53.337715 
L 44.973424 55.732017 
L 47.492769 58.036669 
L 50.399376 60.218804 
L 53.669251 62.248917 
L 57.277731 64.101641 
L 61.19909 65.755963 
L 65.40594 67.194919 
L 69.868525 68.404888 
L 74.553947 69.374654 
L 79.425419 70.094421 
L 84.441614 70.554972 
L 89.556178 70.747138 
L 94.717509 70.661713 
L 99.868861 70.289901 
L 104.948869 69.624316 
L 109.892528 68.660495 
L 114.632672 67.398762 
L 119.101907 65.846203 
L 123.234921 64.018424 
L 126.97101 61.940695 
L 130.256605 59.648111 
L 133.047541 57.184526 
L 135.310822 54.600206 
L 137.025647 51.948437 
L 138.183589 49.281607 
L 138.787903 46.647423 
L 138.852075 44.085974 
L 138.397815 41.628113 
L 137.452787 39.295351 
L 136.048328 37.101068 
L 134.217416 35.052588 
L 131.993031 33.153547 
L 129.407016 31.406038 
L 126.489421 29.812175 
L 123.268306 28.374946 
L 119.769908 27.098397 
L 116.019109 25.987316 
L 112.04009 25.046655 
L 107.857131 24.280883 
L 103.49546 23.693449 
L 98.982121 23.286441 
L 94.346787 23.060481 
L 89.622469 23.014831 
L 84.846058 23.147655 
L 80.058645 23.456366 
L 75.305533 23.937974 
L 70.635913 24.58938 
L 66.102143 25.407564 
L 61.758638 26.389658 
L 57.660412 27.5329 
L 53.861342 28.834497 
L 50.412303 30.291412 
L 47.359331 31.900076 
L 44.74199 33.656001 
L 42.592104 35.553274 
L 40.932974 37.583886 
L 39.779142 39.73696 
L 39.136685 41.997933 
L 39.003983 44.347895 
L 39.372819 46.763258 
L 40.229678 49.21593 
L 41.557083 51.674075 
L 43.33482 54.103381 
L 45.540946 56.468692 
L 48.152512 58.735724 
L 51.145951 60.87261 
L 54.497159 62.851055 
L 58.181277 64.646968 
L 62.172248 66.240532 
L 66.442185 67.615794 
L 70.960642 68.759886 
L 75.693849 69.662062 
L 80.603975 70.312738 
L 85.64851 70.702718 
L 90.779838 70.822764 
L 95.945081 70.663635 
L 101.0863 70.216679 
L 106.141123 69.474961 
L 111.043841 68.434886 
L 115.727003 67.098119 
L 120.123446 65.473552 
L 124.168678 63.578951 
L 127.803425 61.441905 
L 130.976124 59.099718 
L 133.6451 56.59803 
L 135.780165 53.988194 
L 137.363462 51.323695 
L 138.389431 48.656194 
L 138.863916 46.031877 
L 138.802566 43.488793 
L 138.228737 41.05558 
L 137.171188 38.751701 
L 135.66184 36.588903 
L 133.733825 34.573417 
L 131.41996 32.708319 
L 128.751721 30.995562 
L 125.758702 29.437381 
L 122.468514 28.036981 
L 118.907029 26.798584 
L 115.098901 25.727036 
L 111.068265 24.827189 
L 106.839549 24.103277 
L 102.438337 23.558413 
L 97.89223 23.194307 
L 93.231639 23.011214 
L 88.490458 23.008082 
L 83.706565 23.182843 
L 78.922072 23.532765 
L 74.183261 24.054797 
L 69.540167 24.745835 
L 65.045768 25.602889 
L 60.754782 26.623121 
L 56.722132 27.803785 
L 53.001169 29.142062 
L 49.641792 30.634839 
L 46.688648 32.278391 
L 44.179565 34.067978 
L 42.144395 35.997288 
L 40.604356 38.057746 
L 39.571925 40.237706 
L 39.051254 42.521657 
L 39.039032 44.88961 
L 39.525646 47.316881 
L 40.496504 49.774394 
L 41.933358 52.229575 
L 43.815486 54.647728 
L 46.12064 56.993715 
L 48.82569 59.233658 
L 51.906938 61.336412 
L 55.340124 63.274607 
L 59.100148 65.025146 
L 63.160576 66.569159 
L 67.492981 67.891482 
L 72.066195 68.979827 
L 76.845545 69.823795 
L 81.792137 70.413949 
L 86.862274 70.7411 
L 92.00709 70.795988 
L 97.172467 70.56944 
L 102.299334 70.053092 
L 107.324402 69.24065 
L 107.324402 69.24065 
" clip-path="url(#p02c89b0f15)" style="fill: none; stroke: #1f77b4; stroke-width: 1.5; stroke-linecap: round"/>
   </g>
   <g id="line2d_27">
    <path d="M 88.941431 44.76346 
L 88.897492 98.291317 
L 88.686691 109.067474 
L 88.65862 112.498639 
L 88.864795 112.996369 
L 89.070592 113.07513 
L 89.071863 113.043157 
L 88.890808 112.962109 
L 88.528838 113.023092 
L 88.442806 113.209794 
L 88.632299 113.34245 
L 89.054035 113.342949 
L 89.305069 113.159513 
L 89.248565 112.969175 
L 88.957303 112.835453 
L 88.486318 112.847168 
L 88.14455 113.051314 
L 88.129699 113.272546 
L 88.365902 113.46906 
L 88.878765 113.565 
L 89.430702 113.452128 
L 89.724441 113.2054 
L 89.737206 112.947887 
L 89.508909 112.708338 
L 88.969082 112.533027 
L 88.298926 112.553173 
L 87.732322 112.784819 
L 87.504099 113.097559 
L 87.545863 113.376863 
L 87.800218 113.633645 
L 88.376777 113.854638 
L 89.125546 113.900165 
L 89.869234 113.738433 
L 90.413331 113.388448 
L 90.593515 113.018501 
L 90.49169 112.626324 
L 90.101838 112.274039 
L 89.465003 112.022018 
L 88.666155 111.918871 
L 87.823786 111.992598 
L 87.073366 112.244365 
L 86.546738 112.646029 
L 86.364136 113.013156 
L 86.397031 113.402367 
L 86.656108 113.778009 
L 87.13161 114.103301 
L 88.046328 114.3998 
L 89.163849 114.481466 
L 90.314252 114.31416 
L 91.307989 113.902623 
L 91.841811 113.459861 
L 92.125211 112.938079 
L 92.117062 112.379754 
L 91.800997 111.833051 
L 91.188168 111.347659 
L 90.317626 110.970329 
L 89.254224 110.740488 
L 88.084196 110.686299 
L 86.908666 110.821502 
L 85.835527 111.14331 
L 84.970224 111.631578 
L 84.406088 112.249433 
L 84.233933 112.708414 
L 84.242409 113.184204 
L 84.438958 113.657108 
L 84.823574 114.10662 
L 85.388427 114.512237 
L 86.537164 114.995874 
L 87.969789 115.279025 
L 89.569153 115.318839 
L 91.194707 115.092807 
L 92.694832 114.602237 
L 93.551337 114.140236 
L 94.245547 113.585702 
L 94.74263 112.956753 
L 95.01474 112.275174 
L 95.042383 111.5656 
L 94.815448 110.854582 
L 94.333869 110.169543 
L 93.607884 109.537703 
L 92.65791 108.984986 
L 91.51402 108.53497 
L 90.215062 108.207901 
L 88.807439 108.019811 
L 87.343602 107.981763 
L 85.880273 108.099246 
L 84.476471 108.371744 
L 83.19136 108.79249 
L 82.081986 109.348436 
L 81.200966 110.020441 
L 80.594184 110.7837 
L 80.298589 111.608415 
L 80.340186 112.460717 
L 80.732312 113.303828 
L 81.47433 114.099427 
L 82.550828 114.809205 
L 83.931436 115.396532 
L 85.571323 115.828161 
L 87.41243 116.0759 
L 89.385427 116.118137 
L 91.412333 115.941119 
L 93.409702 115.539918 
L 95.292221 114.918982 
L 96.976507 114.092243 
L 98.384922 113.082769 
L 99.449162 111.921957 
L 100.113454 110.648329 
L 100.282275 109.982825 
L 100.337178 109.306003 
L 100.27577 108.62396 
L 100.096814 107.942913 
L 99.800238 107.269134 
L 98.859838 105.968377 
L 97.477438 104.77065 
L 95.693996 103.721933 
L 93.567304 102.863434 
L 91.17017 102.229984 
L 88.588129 101.848622 
L 85.916732 101.737418 
L 83.258485 101.904532 
L 80.719487 102.347542 
L 78.405795 103.053053 
L 76.419579 103.996618 
L 74.855109 105.143021 
L 74.257325 105.778491 
L 73.794678 106.446938 
L 73.474924 107.141299 
L 73.304571 107.854042 
L 73.288778 108.577229 
L 73.431247 109.30258 
L 73.734132 110.021552 
L 74.197963 110.725419 
L 74.821576 111.405362 
L 75.602071 112.052565 
L 76.534782 112.658311 
L 77.613269 113.214087 
L 80.17306 114.143326 
L 83.195644 114.780253 
L 86.570359 115.074744 
L 90.165707 114.989565 
L 93.834804 114.502817 
L 97.422 113.609633 
L 99.135657 113.013977 
L 100.770259 112.322966 
L 102.307216 111.540969 
L 103.728793 110.673395 
L 105.018329 109.726624 
L 106.160438 108.707942 
L 107.141193 107.625458 
L 107.948283 106.488006 
L 108.571155 105.305048 
L 109.001127 104.086567 
L 109.23148 102.842955 
L 109.257518 101.584899 
L 109.076613 100.323265 
L 108.688222 99.068992 
L 108.093876 97.83297 
L 107.29716 96.625944 
L 106.303662 95.458402 
L 105.120916 94.340483 
L 103.75832 93.281883 
L 102.227049 92.291772 
L 100.539949 91.37871 
L 98.711427 90.550581 
L 96.757333 89.814522 
L 94.694828 89.176865 
L 92.542254 88.643082 
L 90.318994 88.217738 
L 88.045329 87.904446 
L 85.742286 87.705827 
L 83.431488 87.623483 
L 81.134993 87.657962 
L 78.87513 87.808739 
L 76.674331 88.074197 
L 74.554951 88.451609 
L 72.539087 88.937141 
L 70.648389 89.52584 
L 68.903862 90.21165 
L 67.325664 90.987422 
L 65.932895 91.844938 
L 64.743383 92.77495 
L 63.773466 93.767218 
L 63.037773 94.810573 
L 62.549003 95.892989 
L 62.317715 97.001665 
L 62.352114 98.123128 
L 62.657865 99.243349 
L 63.23791 100.347872 
L 64.092314 101.421962 
L 65.218138 102.450766 
L 66.609347 103.419483 
L 68.256747 104.313548 
L 70.147979 105.118824 
L 72.267548 105.821799 
L 74.596908 106.409781 
L 77.114602 106.871092 
L 79.796451 107.19526 
L 82.615797 107.373189 
L 85.543797 107.397325 
L 88.549766 107.261789 
L 91.601554 106.962497 
L 94.665966 106.497248 
L 97.709201 105.865777 
L 100.697308 105.069787 
L 103.596652 104.112936 
L 106.374372 103.000801 
L 108.998826 101.740803 
L 111.440016 100.342107 
L 113.669977 98.815495 
L 115.663128 97.173212 
L 117.396577 95.428792 
L 118.850383 93.596877 
L 120.007753 91.693018 
L 120.855199 89.733468 
L 121.382632 87.734985 
L 121.583415 85.714622 
L 121.454362 83.689537 
L 120.995695 81.676803 
L 120.210963 79.693229 
L 119.10693 77.755204 
L 117.693436 75.87854 
L 115.983228 74.078345 
L 113.991787 72.3689 
L 111.737129 70.763553 
L 109.239609 69.274634 
L 106.521714 67.913369 
L 103.607857 66.689821 
L 100.524168 65.612825 
L 97.298293 64.689946 
L 93.959184 63.927438 
L 90.536903 63.330204 
L 87.06242 62.901772 
L 83.567413 62.644266 
L 80.084066 62.558385 
L 76.644864 62.643383 
L 73.282387 62.897053 
L 70.029087 63.315714 
L 66.917064 63.894203 
L 63.977824 64.625872 
L 61.242034 65.502586 
L 58.739247 66.514738 
L 56.497628 67.651267 
L 54.543654 68.89969 
L 52.901809 70.246149 
L 51.594262 71.675473 
L 50.640542 73.17126 
L 50.057207 74.715979 
L 49.857522 76.291096 
L 50.051135 77.877225 
L 50.643791 79.454301 
L 51.637057 81.001783 
L 53.028092 82.498877 
L 54.80947 83.924786 
L 56.969058 85.258973 
L 59.489961 86.48145 
L 62.350547 87.573069 
L 65.524564 88.51582 
L 68.981331 89.293129 
L 72.686036 89.890139 
L 76.600117 90.293984 
L 80.681735 90.494024 
L 84.886318 90.482056 
L 89.167181 90.252478 
L 93.4762 89.802411 
L 97.764517 89.131768 
L 101.983278 88.243269 
L 106.084358 87.142406 
L 110.021081 85.83735 
L 113.748898 84.338813 
L 117.226011 82.659862 
L 120.413939 80.815696 
L 123.278 78.82339 
L 125.787706 76.701616 
L 127.917075 74.47035 
L 129.644846 72.150566 
L 130.954604 69.763936 
L 131.834824 67.332534 
L 132.278833 64.878555 
L 132.284706 62.424048 
L 131.855098 59.990679 
L 130.997033 57.599507 
L 129.721649 55.270795 
L 128.043921 53.023845 
L 125.982358 50.876852 
L 123.558696 48.846793 
L 120.797586 46.949331 
L 117.726289 45.19874 
L 114.374373 43.607847 
L 110.773426 42.187994 
L 106.956782 40.949002 
L 102.95926 39.899155 
L 98.816919 39.045181 
L 94.566824 38.392247 
L 90.246824 37.943947 
L 85.895336 37.702299 
L 81.551136 37.66774 
L 77.253151 37.839119 
L 73.040248 38.213688 
L 68.951013 38.7871 
L 65.023528 39.553401 
L 61.295128 40.505024 
L 57.802139 41.632789 
L 54.579605 42.925909 
L 51.660988 44.372 
L 49.077852 45.957107 
L 46.859518 47.665738 
L 45.032709 49.480923 
L 43.621177 51.384283 
L 42.645321 53.356134 
L 42.121799 55.375606 
L 42.063148 57.420798 
L 42.477427 59.468964 
L 43.367871 61.496724 
L 44.732606 63.480308 
L 46.564403 65.395835 
L 48.850507 67.21961 
L 51.572548 68.928447 
L 54.70654 70.500008 
L 58.222988 71.913152 
L 62.087101 73.148278 
L 66.259124 74.187666 
L 70.694778 75.015797 
L 75.345814 75.619641 
L 80.160661 75.988908 
L 85.085167 76.116254 
L 90.063403 75.997428 
L 95.038515 75.63136 
L 99.95361 75.020189 
L 104.75263 74.169222 
L 109.381211 73.086827 
L 113.787494 71.784278 
L 117.92287 70.275534 
L 121.742636 68.57698 
L 125.206559 66.707124 
L 128.279325 64.686279 
L 130.930882 62.536213 
L 133.136664 60.279803 
L 134.877711 57.940687 
L 136.140682 55.542927 
L 136.917775 53.110689 
L 137.206568 50.667951 
L 137.009793 48.238228 
L 136.335052 45.84434 
L 135.194492 43.508204 
L 133.604459 41.250656 
L 131.585126 39.091311 
L 129.160123 37.048441 
L 126.356166 35.13889 
L 123.202696 33.378005 
L 119.731538 31.779585 
L 115.976571 30.355855 
L 111.973426 29.117442 
L 107.759202 28.073368 
L 103.372203 27.23105 
L 98.851696 26.596295 
L 94.237686 26.173311 
L 89.570696 25.964705 
L 84.891572 25.971488 
L 80.241276 26.193076 
L 75.660694 26.627287 
L 71.190427 27.270335 
L 66.870587 28.116831 
L 62.740566 29.159766 
L 58.838803 30.390519 
L 55.202518 31.798843 
L 51.867434 33.372878 
L 48.867471 35.099159 
L 46.234415 36.962642 
L 43.997571 38.946744 
L 42.183387 41.033397 
L 40.81507 43.203134 
L 39.912188 45.435191 
L 39.490275 47.707643 
L 39.560441 49.997565 
L 40.129007 52.281235 
L 41.197165 54.534356 
L 42.760692 56.732326 
L 44.809727 58.850524 
L 47.328618 60.86463 
L 50.295863 62.750966 
L 53.684155 64.486847 
L 57.46053 66.050946 
L 61.586643 67.423646 
L 66.019158 68.587392 
L 70.710256 69.527003 
L 75.608257 70.22997 
L 80.658338 70.686688 
L 85.803335 70.890655 
L 90.984611 70.838601 
L 96.142962 70.530552 
L 101.219538 69.969835 
L 106.156751 69.163006 
L 110.899155 68.119719 
L 115.394258 66.852539 
L 119.593261 65.376692 
L 123.451695 63.709782 
L 126.929954 61.871468 
L 129.993708 59.883118 
L 132.614202 57.767451 
L 134.768428 55.548178 
L 136.439197 53.249645 
L 137.615098 50.896495 
L 138.29037 48.513348 
L 138.464698 46.124513 
L 138.142938 43.753719 
L 137.334802 41.423894 
L 136.054497 39.156964 
L 134.320356 36.973687 
L 132.154442 34.893525 
L 129.582163 32.934535 
L 126.631893 31.113291 
L 123.334604 29.444828 
L 119.723517 27.942599 
L 115.833782 26.618458 
L 111.70217 25.482643 
L 107.3668 24.543774 
L 102.866877 23.808856 
L 98.24246 23.283284 
L 93.53424 22.970849 
L 88.783329 22.873741 
L 84.031069 22.992558 
L 79.318833 23.326302 
L 74.68783 23.872377 
L 70.178908 24.62659 
L 65.83234 25.583137 
L 61.687605 26.734604 
L 57.783144 28.071957 
L 54.156099 29.584542 
L 50.842025 31.26009 
L 47.874585 33.084729 
L 45.285213 35.043014 
L 43.102759 37.117963 
L 41.353112 39.291124 
L 40.058812 41.542658 
L 39.238648 43.85145 
L 38.907261 46.195246 
L 39.074759 48.550829 
L 39.746347 50.89422 
L 40.922002 53.200919 
L 42.596198 55.446169 
L 44.757686 57.605259 
L 47.38937 59.653848 
L 50.468261 61.568313 
L 53.965549 63.326101 
L 57.846778 64.906099 
L 62.072149 66.288987 
L 66.59694 67.457585 
L 71.372043 68.397167 
L 76.344615 69.095744 
L 81.458822 69.544297 
L 86.656662 69.736957 
L 91.878855 69.671125 
L 97.065754 69.347523 
L 102.158279 68.770182 
L 107.098829 67.946356 
L 111.832149 66.886381 
L 116.306135 65.603466 
L 120.47256 64.113442 
L 124.287689 62.434458 
L 127.712788 60.586657 
L 130.714517 58.591824 
L 133.265193 56.473022 
L 135.342949 54.254229 
L 136.931769 51.95999 
L 138.021431 49.615074 
L 138.607353 47.24416 
L 138.690372 44.871555 
L 138.276457 42.520931 
L 137.376372 40.21511 
L 136.005319 37.975867 
L 134.182547 35.823776 
L 131.930964 33.778085 
L 129.276745 31.856612 
L 126.248954 30.075675 
L 122.879176 28.450036 
L 119.201174 26.992871 
L 115.250571 25.715746 
L 111.064545 24.628607 
L 106.681563 23.739784 
L 102.14112 23.055989 
L 97.483514 22.582324 
L 92.749625 22.322287 
L 87.980709 22.277779 
L 83.218206 22.449107 
L 78.503545 22.834982 
L 73.87795 23.432519 
L 69.382238 24.237231 
L 65.056608 25.243027 
L 60.940417 26.442196 
L 57.071937 27.825413 
L 53.488084 29.381731 
L 50.224133 31.098588 
L 47.313404 32.961826 
L 44.786922 34.955713 
L 42.673062 37.062995 
L 40.997163 39.264958 
L 39.781141 41.541516 
L 39.043087 43.871327 
L 38.796868 46.231941 
L 39.051745 48.599974 
L 39.812012 50.95132 
L 41.076675 53.261392 
L 42.839183 55.505402 
L 45.087232 57.658659 
L 47.802646 59.696902 
L 50.961356 61.596649 
L 54.533482 63.335555 
L 58.483543 64.892777 
L 62.770771 66.249332 
L 67.349556 67.388432 
L 72.170006 68.295802 
L 77.178615 68.959948 
L 82.319024 69.372386 
L 87.532859 69.52781 
L 92.760627 69.424203 
L 97.942636 69.062873 
L 103.019926 68.448431 
L 107.935176 67.588692 
L 112.633567 66.494525 
L 117.063569 65.179634 
L 121.177652 63.660292 
L 124.932885 61.955044 
L 128.291422 60.084364 
L 131.220874 58.070307 
L 133.694554 55.936142 
L 135.69161 53.705995 
L 137.197045 51.40449 
L 138.20164 49.056424 
L 138.70179 46.68645 
L 138.699264 44.318798 
L 138.20091 41.977023 
L 137.218317 39.683793 
L 135.767442 37.460697 
L 133.868224 35.3281 
L 131.544194 33.305016 
L 128.822082 31.409019 
L 125.731441 29.656166 
L 122.304284 28.060956 
L 118.574744 26.636291 
L 114.578755 25.393464 
L 110.35376 24.342147 
L 105.938441 23.490392 
L 101.372468 22.844637 
L 96.696271 22.40971 
L 91.950825 22.188838 
L 87.177447 22.183649 
L 82.417603 22.394177 
L 77.712711 22.818862 
L 73.103953 23.454548 
L 68.632064 24.296474 
L 64.337127 25.338272 
L 60.25834 26.57196 
L 56.433769 27.987934 
L 52.900079 29.574972 
L 49.692242 31.320239 
L 46.843217 33.209305 
L 44.38361 35.226178 
L 42.341309 37.353346 
L 40.741104 39.571856 
L 39.604291 41.861396 
L 38.948272 44.200425 
L 38.78616 46.566317 
L 39.126396 48.935548 
L 39.972396 51.283908 
L 41.322236 53.586755 
L 43.168398 55.819289 
L 45.497581 57.956866 
L 48.290599 59.97533 
L 51.522382 61.85136 
L 55.162072 63.562839 
L 59.173254 65.089211 
L 63.514292 66.411838 
L 68.138795 67.514335 
L 72.996196 68.382877 
L 78.032433 69.006465 
L 83.19073 69.377143 
L 88.412448 69.490156 
L 93.637976 69.344049 
L 98.807671 68.940693 
L 103.862773 68.285253 
L 108.746315 67.386076 
L 113.403968 66.254529 
L 117.784827 64.904774 
L 121.842092 63.353496 
L 125.533655 61.619592 
L 128.822567 59.723834 
L 131.677387 57.688511 
L 134.072408 55.537067 
L 135.987768 53.293739 
L 137.409458 50.983208 
L 138.329225 48.630271 
L 138.744393 46.259531 
L 138.657616 43.895123 
L 138.076573 41.560472 
L 137.013622 39.278074 
L 135.485426 37.069326 
L 133.512565 34.954374 
L 131.119142 32.951995 
L 128.332395 31.079512 
L 125.182323 29.352726 
L 121.701325 27.785866 
L 117.923864 26.391565 
L 113.886154 25.180843 
L 109.62587 24.1631 
L 105.18188 23.346114 
L 100.594003 22.736053 
L 95.902776 22.337474 
L 91.149251 22.153333 
L 86.374785 22.184991 
L 81.620853 22.432212 
L 76.928849 22.893169 
L 72.339894 23.564434 
L 67.894632 24.440977 
L 63.633014 25.516158 
L 59.594068 26.781721 
L 55.815643 28.22779 
L 52.334142 29.842871 
L 49.184222 31.613858 
L 46.39847 33.526056 
L 44.007061 35.56321 
L 42.037389 37.707564 
L 40.513684 39.939925 
L 39.456615 42.239766 
L 38.882889 44.585351 
L 38.804858 46.953889 
L 39.23014 49.321724 
L 40.161271 51.664554 
L 41.595403 53.95769 
L 43.524052 56.176335 
L 45.93293 58.295902 
L 48.801857 60.292351 
L 52.104775 62.142537 
L 55.80987 63.824581 
L 59.879819 65.318223 
L 64.272148 66.605183 
L 68.939715 67.669485 
L 73.831312 68.497763 
L 78.892362 69.079517 
L 84.065711 69.407318 
L 89.292489 69.476963 
L 94.513013 69.287556 
L 99.66772 68.841529 
L 104.69809 68.14459 
L 109.547538 67.20561 
L 109.547538 67.20561 
" clip-path="url(#p02c89b0f15)" style="fill: none; stroke: #ff7f0e; stroke-opacity: 0.5; stroke-width: 1.5; stroke-linecap: round"/>
   </g>
  </g>
 </g>
 <defs>
  <clipPath id="p02c89b0f15">
   <rect x="-1.8" y="-7.2" width="176.4" height="176.4"/>
  </clipPath>
 </defs>
</svg>
