<?xml version="1.0" encoding="utf-8" standalone="no"?>
<!DOCTYPE svg PUBLIC "-//W3C//DTD SVG 1.1//EN"
  "http://www.w3.org/Graphics/SVG/1.1/DTD/svg11.dtd">
<svg xmlns:xlink="http://www.w3.org/1999/xlink" width="216pt" height="180pt" viewBox="0 0 216 180" xmlns="http://www.w3.org/2000/svg" version="1.1">
 <metadata>
  <rdf:RDF xmlns:dc="http://purl.org/dc/elements/1.1/" xmlns:cc="http://creativecommons.org/ns#" xmlns:rdf="http://www.w3.org/1999/02/22-rdf-syntax-ns#">
   <cc:Work>
    <dc:type rdf:resource="http://purl.org/dc/dcmitype/StillImage"/>
    <dc:date>2023-06-14T18:47:25.816981</dc:date>
    <dc:format>image/svg+xml</dc:format>
    <dc:creator>
     <cc:Agent>
      <dc:title>Matplotlib v3.7.0, https://matplotlib.org/</dc:title>
     </cc:Agent>
    </dc:creator>
   </cc:Work>
  </rdf:RDF>
 </metadata>
 <defs>
  <style type="text/css">*{stroke-linejoin: round; stroke-linecap: butt}</style>
 </defs>
 <g id="figure_1">
  <g id="patch_1">
   <path d="M 0 180 
L 216 180 
L 216 0 
L 0 0 
z
" style="fill: #ffffff"/>
  </g>
  <g id="patch_2">
   <path d="M -1 169.2 
L 174.6 169.2 
L 174.6 -1 
" style="fill: none"/>
  </g>
  <g id="pane3d_1">
   <g id="patch_3">
    <path d="M 11.519416 125.705413 
L 69.772457 76.876559 
L 68.962684 6.456623 
L 7.921935 51.001381 
" style="fill: none; opacity: 0.5; stroke: #f2f2f2; stroke-linejoin: miter"/>
   </g>
  </g>
  <g id="pane3d_2">
   <g id="patch_4">
    <path d="M 69.772457 76.876559 
L 163.247803 104.046152 
L 166.583609 31.200681 
L 68.962684 6.456623 
" style="fill: none; opacity: 0.5; stroke: #e6e6e6; stroke-linejoin: miter"/>
   </g>
  </g>
  <g id="pane3d_3">
   <g id="patch_5">
    <path d="M 11.519416 125.705413 
L 110.607849 158.067695 
L 163.247803 104.046152 
L 69.772457 76.876559 
" style="fill: none; opacity: 0.5; stroke: #ececec; stroke-linejoin: miter"/>
   </g>
  </g>
  <g id="axis3d_1">
   <g id="line2d_1">
    <path d="M 11.519416 125.705413 
L 110.607849 158.067695 
" style="fill: none; stroke: #ffffff; stroke-width: 0.8; stroke-linecap: round"/>
   </g>
   <g id="text_1">
    <!-- x -->
    <g style="fill: #262626" transform="translate(40.437569 179.640981) scale(0.1 -0.1)">
     <defs>
      <path id="DejaVuSans-78" d="M 3513 3500 
L 2247 1797 
L 3578 0 
L 2900 0 
L 1881 1375 
L 863 0 
L 184 0 
L 1544 1831 
L 300 3500 
L 978 3500 
L 1906 2253 
L 2834 3500 
L 3513 3500 
z
" transform="scale(0.015625)"/>
     </defs>
     <use xlink:href="#DejaVuSans-78"/>
    </g>
   </g>
   <g id="Line3DCollection_1">
    <path d="M 33.155948 132.771904 
L 90.253865 82.829696 
L 90.31719 11.869368 
" style="fill: none; stroke: #d3d3d3; stroke-width: 0.8"/>
    <path d="M 59.704957 141.442811 
L 115.331523 90.118781 
L 116.490782 18.50361 
" style="fill: none; stroke: #d3d3d3; stroke-width: 0.8"/>
    <path d="M 87.026467 150.366016 
L 141.076997 97.601974 
L 143.392233 25.322344 
" style="fill: none; stroke: #d3d3d3; stroke-width: 0.8"/>
   </g>
   <g id="xtick_1">
    <g id="line2d_2">
     <path d="M 88.783784 78.616216 
" clip-path="url(#p07e7f339e7)" style="fill: none; stroke: #d3d3d3; stroke-width: 0.8; stroke-linecap: round"/>
    </g>
    <g id="line2d_3">
     <path d="M 33.653498 132.33671 
L 32.158696 133.644177 
" style="fill: none; stroke: #808080; stroke-width: 0.8; stroke-linecap: round"/>
    </g>
    <g id="text_2">
     <!-- −0.2 -->
     <g style="fill: #808080" transform="translate(13.495218 156.274568) scale(0.1 -0.1)">
      <defs>
       <path id="DejaVuSans-2212" d="M 678 2272 
L 4684 2272 
L 4684 1741 
L 678 1741 
L 678 2272 
z
" transform="scale(0.015625)"/>
       <path id="DejaVuSans-30" d="M 2034 4250 
Q 1547 4250 1301 3770 
Q 1056 3291 1056 2328 
Q 1056 1369 1301 889 
Q 1547 409 2034 409 
Q 2525 409 2770 889 
Q 3016 1369 3016 2328 
Q 3016 3291 2770 3770 
Q 2525 4250 2034 4250 
z
M 2034 4750 
Q 2819 4750 3233 4129 
Q 3647 3509 3647 2328 
Q 3647 1150 3233 529 
Q 2819 -91 2034 -91 
Q 1250 -91 836 529 
Q 422 1150 422 2328 
Q 422 3509 836 4129 
Q 1250 4750 2034 4750 
z
" transform="scale(0.015625)"/>
       <path id="DejaVuSans-2e" d="M 684 794 
L 1344 794 
L 1344 0 
L 684 0 
L 684 794 
z
" transform="scale(0.015625)"/>
       <path id="DejaVuSans-32" d="M 1228 531 
L 3431 531 
L 3431 0 
L 469 0 
L 469 531 
Q 828 903 1448 1529 
Q 2069 2156 2228 2338 
Q 2531 2678 2651 2914 
Q 2772 3150 2772 3378 
Q 2772 3750 2511 3984 
Q 2250 4219 1831 4219 
Q 1534 4219 1204 4116 
Q 875 4013 500 3803 
L 500 4441 
Q 881 4594 1212 4672 
Q 1544 4750 1819 4750 
Q 2544 4750 2975 4387 
Q 3406 4025 3406 3419 
Q 3406 3131 3298 2873 
Q 3191 2616 2906 2266 
Q 2828 2175 2409 1742 
Q 1991 1309 1228 531 
z
" transform="scale(0.015625)"/>
      </defs>
      <use xlink:href="#DejaVuSans-2212"/>
      <use xlink:href="#DejaVuSans-30" x="83.789062"/>
      <use xlink:href="#DejaVuSans-2e" x="147.412109"/>
      <use xlink:href="#DejaVuSans-32" x="179.199219"/>
     </g>
    </g>
   </g>
   <g id="xtick_2">
    <g id="line2d_4">
     <path d="M 88.783784 78.616216 
" clip-path="url(#p07e7f339e7)" style="fill: none; stroke: #d3d3d3; stroke-width: 0.8; stroke-linecap: round"/>
    </g>
    <g id="line2d_5">
     <path d="M 60.190254 140.99505 
L 58.732232 142.340298 
" style="fill: none; stroke: #808080; stroke-width: 0.8; stroke-linecap: round"/>
    </g>
    <g id="text_3">
     <!-- 0.0 -->
     <g style="fill: #808080" transform="translate(44.278234 165.224693) scale(0.1 -0.1)">
      <use xlink:href="#DejaVuSans-30"/>
      <use xlink:href="#DejaVuSans-2e" x="63.623047"/>
      <use xlink:href="#DejaVuSans-30" x="95.410156"/>
     </g>
    </g>
   </g>
   <g id="xtick_3">
    <g id="line2d_6">
     <path d="M 88.783784 78.616216 
" clip-path="url(#p07e7f339e7)" style="fill: none; stroke: #d3d3d3; stroke-width: 0.8; stroke-linecap: round"/>
    </g>
    <g id="line2d_7">
     <path d="M 87.498584 149.905136 
L 86.080131 151.289828 
" style="fill: none; stroke: #808080; stroke-width: 0.8; stroke-linecap: round"/>
    </g>
    <g id="text_4">
     <!-- 0.2 -->
     <g style="fill: #808080" transform="translate(71.649705 174.436761) scale(0.1 -0.1)">
      <use xlink:href="#DejaVuSans-30"/>
      <use xlink:href="#DejaVuSans-2e" x="63.623047"/>
      <use xlink:href="#DejaVuSans-32" x="95.410156"/>
     </g>
    </g>
   </g>
  </g>
  <g id="axis3d_2">
   <g id="line2d_8">
    <path d="M 163.247803 104.046152 
L 110.607849 158.067695 
" style="fill: none; stroke: #ffffff; stroke-width: 0.8; stroke-linecap: round"/>
   </g>
   <g id="text_5">
    <!-- y -->
    <g style="fill: #262626" transform="translate(162.133934 160.636398) scale(0.1 -0.1)">
     <defs>
      <path id="DejaVuSans-79" d="M 2059 -325 
Q 1816 -950 1584 -1140 
Q 1353 -1331 966 -1331 
L 506 -1331 
L 506 -850 
L 844 -850 
Q 1081 -850 1212 -737 
Q 1344 -625 1503 -206 
L 1606 56 
L 191 3500 
L 800 3500 
L 1894 763 
L 2988 3500 
L 3597 3500 
L 2059 -325 
z
" transform="scale(0.015625)"/>
     </defs>
     <use xlink:href="#DejaVuSans-79"/>
    </g>
   </g>
   <g id="Line3DCollection_2">
    <path d="M 22.59401 40.294369 
L 25.481075 114.002474 
L 123.266604 145.076698 
" style="fill: none; stroke: #d3d3d3; stroke-width: 0.8"/>
    <path d="M 39.573879 27.903234 
L 41.670601 100.432093 
L 137.911782 130.047143 
" style="fill: none; stroke: #d3d3d3; stroke-width: 0.8"/>
    <path d="M 55.751584 16.097482 
L 57.12715 87.476107 
L 151.860409 115.73242 
" style="fill: none; stroke: #d3d3d3; stroke-width: 0.8"/>
   </g>
   <g id="xtick_4">
    <g id="line2d_9">
     <path d="M 88.783784 78.616216 
" clip-path="url(#p07e7f339e7)" style="fill: none; stroke: #d3d3d3; stroke-width: 0.8; stroke-linecap: round"/>
    </g>
    <g id="line2d_10">
     <path d="M 122.44318 144.81503 
L 124.915552 145.600699 
" style="fill: none; stroke: #808080; stroke-width: 0.8; stroke-linecap: round"/>
    </g>
    <g id="text_6">
     <!-- −0.2 -->
     <g style="fill: #808080" transform="translate(123.82723 165.895699) scale(0.1 -0.1)">
      <use xlink:href="#DejaVuSans-2212"/>
      <use xlink:href="#DejaVuSans-30" x="83.789062"/>
      <use xlink:href="#DejaVuSans-2e" x="147.412109"/>
      <use xlink:href="#DejaVuSans-32" x="179.199219"/>
     </g>
    </g>
   </g>
   <g id="xtick_5">
    <g id="line2d_11">
     <path d="M 88.783784 78.616216 
" clip-path="url(#p07e7f339e7)" style="fill: none; stroke: #d3d3d3; stroke-width: 0.8; stroke-linecap: round"/>
    </g>
    <g id="line2d_12">
     <path d="M 137.102347 129.798066 
L 139.532663 130.545915 
" style="fill: none; stroke: #808080; stroke-width: 0.8; stroke-linecap: round"/>
    </g>
    <g id="text_7">
     <!-- 0.0 -->
     <g style="fill: #808080" transform="translate(142.365278 150.530756) scale(0.1 -0.1)">
      <use xlink:href="#DejaVuSans-30"/>
      <use xlink:href="#DejaVuSans-2e" x="63.623047"/>
      <use xlink:href="#DejaVuSans-30" x="95.410156"/>
     </g>
    </g>
   </g>
   <g id="xtick_6">
    <g id="line2d_13">
     <path d="M 88.783784 78.616216 
" clip-path="url(#p07e7f339e7)" style="fill: none; stroke: #d3d3d3; stroke-width: 0.8; stroke-linecap: round"/>
    </g>
    <g id="line2d_14">
     <path d="M 151.064581 115.495047 
L 153.453995 116.207743 
" style="fill: none; stroke: #808080; stroke-width: 0.8; stroke-linecap: round"/>
    </g>
    <g id="text_8">
     <!-- 0.2 -->
     <g style="fill: #808080" transform="translate(156.030477 135.897216) scale(0.1 -0.1)">
      <use xlink:href="#DejaVuSans-30"/>
      <use xlink:href="#DejaVuSans-2e" x="63.623047"/>
      <use xlink:href="#DejaVuSans-32" x="95.410156"/>
     </g>
    </g>
   </g>
  </g>
  <g id="axis3d_3">
   <g id="line2d_15">
    <path d="M 163.247803 104.046152 
L 166.583609 31.200681 
" style="fill: none; stroke: #ffffff; stroke-width: 0.8; stroke-linecap: round"/>
   </g>
   <g id="text_9">
    <!-- z -->
    <g style="fill: #262626" transform="translate(202.494937 65.789607) scale(0.1 -0.1)">
     <defs>
      <path id="DejaVuSans-7a" d="M 353 3500 
L 3084 3500 
L 3084 2975 
L 922 459 
L 3084 459 
L 3084 0 
L 275 0 
L 275 525 
L 2438 3041 
L 353 3041 
L 353 3500 
z
" transform="scale(0.015625)"/>
     </defs>
     <use xlink:href="#DejaVuSans-7a"/>
    </g>
   </g>
   <g id="Line3DCollection_3">
    <path d="M 164.064349 86.214891 
L 69.573923 59.611529 
L 10.639939 107.442485 
" style="fill: none; stroke: #d3d3d3; stroke-width: 0.8"/>
    <path d="M 164.832581 69.438655 
L 69.387323 43.384313 
L 9.811834 90.24636 
" style="fill: none; stroke: #d3d3d3; stroke-width: 0.8"/>
    <path d="M 165.616655 52.316489 
L 69.197063 26.83875 
L 8.965991 72.681869 
" style="fill: none; stroke: #d3d3d3; stroke-width: 0.8"/>
    <path d="M 166.417065 34.83758 
L 69.003032 9.965379 
L 8.101832 54.73705 
" style="fill: none; stroke: #d3d3d3; stroke-width: 0.8"/>
   </g>
   <g id="xtick_7">
    <g id="line2d_16">
     <path d="M 88.783784 78.616216 
" style="fill: none; stroke: #d3d3d3; stroke-width: 0.8; stroke-linecap: round"/>
    </g>
    <g id="line2d_17">
     <path d="M 163.270907 85.991501 
L 165.65314 86.662208 
" style="fill: none; stroke: #808080; stroke-width: 0.8; stroke-linecap: round"/>
    </g>
    <g id="text_10">
     <!-- 0.025 -->
     <g style="fill: #808080" transform="translate(168.166305 91.265313) scale(0.1 -0.1)">
      <defs>
       <path id="DejaVuSans-35" d="M 691 4666 
L 3169 4666 
L 3169 4134 
L 1269 4134 
L 1269 2991 
Q 1406 3038 1543 3061 
Q 1681 3084 1819 3084 
Q 2600 3084 3056 2656 
Q 3513 2228 3513 1497 
Q 3513 744 3044 326 
Q 2575 -91 1722 -91 
Q 1428 -91 1123 -41 
Q 819 9 494 109 
L 494 744 
Q 775 591 1075 516 
Q 1375 441 1709 441 
Q 2250 441 2565 725 
Q 2881 1009 2881 1497 
Q 2881 1984 2565 2268 
Q 2250 2553 1709 2553 
Q 1456 2553 1204 2497 
Q 953 2441 691 2322 
L 691 4666 
z
" transform="scale(0.015625)"/>
      </defs>
      <use xlink:href="#DejaVuSans-30"/>
      <use xlink:href="#DejaVuSans-2e" x="63.623047"/>
      <use xlink:href="#DejaVuSans-30" x="95.410156"/>
      <use xlink:href="#DejaVuSans-32" x="159.033203"/>
      <use xlink:href="#DejaVuSans-35" x="222.65625"/>
     </g>
    </g>
   </g>
   <g id="xtick_8">
    <g id="line2d_18">
     <path d="M 88.783784 78.616216 
" style="fill: none; stroke: #d3d3d3; stroke-width: 0.8; stroke-linecap: round"/>
    </g>
    <g id="line2d_19">
     <path d="M 164.030735 69.21977 
L 166.438221 69.876958 
" style="fill: none; stroke: #808080; stroke-width: 0.8; stroke-linecap: round"/>
    </g>
    <g id="text_11">
     <!-- 0.050 -->
     <g style="fill: #808080" transform="translate(169.118062 74.540564) scale(0.1 -0.1)">
      <use xlink:href="#DejaVuSans-30"/>
      <use xlink:href="#DejaVuSans-2e" x="63.623047"/>
      <use xlink:href="#DejaVuSans-30" x="95.410156"/>
      <use xlink:href="#DejaVuSans-35" x="159.033203"/>
      <use xlink:href="#DejaVuSans-30" x="222.65625"/>
     </g>
    </g>
   </g>
   <g id="xtick_9">
    <g id="line2d_20">
     <path d="M 88.783784 78.616216 
" style="fill: none; stroke: #d3d3d3; stroke-width: 0.8; stroke-linecap: round"/>
    </g>
    <g id="line2d_21">
     <path d="M 164.806225 52.102342 
L 167.239504 52.745307 
" style="fill: none; stroke: #808080; stroke-width: 0.8; stroke-linecap: round"/>
    </g>
    <g id="text_12">
     <!-- 0.075 -->
     <g style="fill: #808080" transform="translate(170.089353 57.472552) scale(0.1 -0.1)">
      <defs>
       <path id="DejaVuSans-37" d="M 525 4666 
L 3525 4666 
L 3525 4397 
L 1831 0 
L 1172 0 
L 2766 4134 
L 525 4134 
L 525 4666 
z
" transform="scale(0.015625)"/>
      </defs>
      <use xlink:href="#DejaVuSans-30"/>
      <use xlink:href="#DejaVuSans-2e" x="63.623047"/>
      <use xlink:href="#DejaVuSans-30" x="95.410156"/>
      <use xlink:href="#DejaVuSans-37" x="159.033203"/>
      <use xlink:href="#DejaVuSans-35" x="222.65625"/>
     </g>
    </g>
   </g>
   <g id="xtick_10">
    <g id="line2d_22">
     <path d="M 88.783784 78.616216 
" style="fill: none; stroke: #d3d3d3; stroke-width: 0.8; stroke-linecap: round"/>
    </g>
    <g id="line2d_23">
     <path d="M 165.597865 34.628418 
L 168.057496 35.256422 
" style="fill: none; stroke: #808080; stroke-width: 0.8; stroke-linecap: round"/>
    </g>
    <g id="text_13">
     <!-- 0.100 -->
     <g style="fill: #808080" transform="translate(171.080786 40.050601) scale(0.1 -0.1)">
      <defs>
       <path id="DejaVuSans-31" d="M 794 531 
L 1825 531 
L 1825 4091 
L 703 3866 
L 703 4441 
L 1819 4666 
L 2450 4666 
L 2450 531 
L 3481 531 
L 3481 0 
L 794 0 
L 794 531 
z
" transform="scale(0.015625)"/>
      </defs>
      <use xlink:href="#DejaVuSans-30"/>
      <use xlink:href="#DejaVuSans-2e" x="63.623047"/>
      <use xlink:href="#DejaVuSans-31" x="95.410156"/>
      <use xlink:href="#DejaVuSans-30" x="159.033203"/>
      <use xlink:href="#DejaVuSans-30" x="222.65625"/>
     </g>
    </g>
   </g>
  </g>
  <g id="axes_1">
   <g id="line2d_24">
    <path d="M 88.651867 44.793067 
L 88.832054 65.363495 
L 88.706549 77.264597 
L 88.39483 86.208944 
L 87.866501 94.379826 
L 86.939895 106.364643 
L 87.03836 108.447392 
L 87.35301 110.035261 
L 87.850123 111.205585 
L 88.464264 112.015562 
L 89.107392 112.514783 
L 89.803879 112.779645 
L 90.220311 112.751555 
L 90.271524 112.604557 
L 90.049608 112.421955 
L 89.42756 112.242223 
L 88.549084 112.208374 
L 87.614367 112.372557 
L 86.84855 112.728536 
L 86.492286 113.111553 
L 86.421768 113.423852 
L 86.534831 113.730071 
L 86.962745 114.084973 
L 87.656506 114.328895 
L 88.519072 114.420581 
L 89.637511 114.291908 
L 90.393626 114.003462 
L 90.88968 113.587912 
L 91.035517 113.227438 
L 90.964582 112.858624 
L 90.676213 112.514044 
L 89.987948 112.146502 
L 89.040156 111.940543 
L 87.969286 111.935048 
L 86.936997 112.137724 
L 86.106473 112.523126 
L 85.701513 112.899895 
L 85.53212 113.317326 
L 85.621698 113.739596 
L 85.971618 114.129619 
L 86.560182 114.452094 
L 87.637646 114.725054 
L 88.90505 114.772759 
L 90.170427 114.574752 
L 91.233389 114.146612 
L 91.78972 113.704608 
L 92.075587 113.196044 
L 92.057277 112.662917 
L 91.726945 112.151572 
L 91.103879 111.708442 
L 90.233463 111.375445 
L 89.183976 111.185591 
L 88.04143 111.159429 
L 86.902815 111.302796 
L 85.868177 111.606135 
L 85.032109 112.045339 
L 84.47534 112.583909 
L 84.257129 113.176106 
L 84.316665 113.57553 
L 84.543107 113.960436 
L 85.183356 114.477274 
L 86.143141 114.879638 
L 87.348525 115.128121 
L 88.700605 115.194638 
L 90.083535 115.064943 
L 91.374608 114.740407 
L 92.455432 114.238963 
L 93.223027 113.594956 
L 93.521061 113.110174 
L 93.629459 112.601246 
L 93.540224 112.087454 
L 93.252929 111.588991 
L 92.774812 111.126083 
L 91.733986 110.540178 
L 90.377188 110.133849 
L 88.812655 109.948068 
L 87.170089 110.00367 
L 85.590477 110.299163 
L 84.214515 110.81106 
L 83.170488 111.49633 
L 82.711655 112.021059 
L 82.470165 112.576836 
L 82.460923 113.142112 
L 82.690143 113.694763 
L 83.15483 114.212876 
L 83.842609 114.675526 
L 84.731904 115.063505 
L 86.37543 115.469401 
L 88.269356 115.626032 
L 90.2523 115.507461 
L 92.14869 115.108478 
L 93.278575 114.694357 
L 94.245018 114.17389 
L 95.006332 113.56273 
L 95.528401 112.88091 
L 95.786128 112.152333 
L 95.764486 111.403984 
L 95.45913 110.664885 
L 94.876606 109.964828 
L 94.034164 109.332949 
L 92.959211 108.796243 
L 91.688449 108.378128 
L 90.26671 108.097171 
L 88.745511 107.966113 
L 87.181344 107.991249 
L 85.633727 108.172215 
L 84.163066 108.502155 
L 82.828388 108.968181 
L 81.685035 109.552051 
L 80.782421 110.230971 
L 80.161943 110.978469 
L 79.85515 111.765349 
L 79.882234 112.560706 
L 80.250904 113.33303 
L 80.955685 114.051351 
L 81.977665 114.686363 
L 83.284734 115.211441 
L 84.832335 115.603499 
L 86.564779 115.843632 
L 88.417122 115.917616 
L 90.31759 115.816311 
L 92.190485 115.536059 
L 93.959428 115.079122 
L 95.55075 114.454124 
L 96.896829 113.676419 
L 97.93912 112.768232 
L 98.630721 111.758457 
L 98.938312 110.681992 
L 98.843417 109.578608 
L 98.342991 108.491346 
L 97.449413 107.464525 
L 96.189981 106.541469 
L 94.605992 105.762089 
L 92.751485 105.16053 
L 90.69164 104.763122 
L 88.500826 104.586884 
L 86.260261 104.638759 
L 84.055285 104.915625 
L 81.972297 105.404962 
L 80.09546 106.085926 
L 78.503332 106.930567 
L 77.265596 107.904999 
L 76.440077 108.970507 
L 76.07017 110.084675 
L 76.065171 110.646064 
L 76.182793 111.202728 
L 76.423582 111.748965 
L 76.786898 112.279142 
L 77.872538 113.269485 
L 79.410514 114.132258 
L 81.352608 114.830473 
L 83.632515 115.332753 
L 86.167585 115.613906 
L 88.861496 115.655154 
L 91.607905 115.444289 
L 94.29497 114.97608 
L 96.810506 114.253055 
L 99.047399 113.28658 
L 100.90884 112.097935 
L 101.672482 111.429841 
L 102.312931 110.718991 
L 102.822875 109.971016 
L 103.196327 109.192152 
L 103.428666 108.389191 
L 103.51667 107.569417 
L 103.458518 106.740534 
L 103.253791 105.910579 
L 102.903452 105.087826 
L 102.409815 104.280687 
L 101.776509 103.4976 
L 101.008438 102.746907 
L 100.111733 102.036732 
L 97.962801 100.768572 
L 95.401436 99.748837 
L 92.515625 99.021718 
L 89.40745 98.616826 
L 86.190353 98.547605 
L 82.985637 98.811504 
L 79.918224 99.391677 
L 77.111797 100.259477 
L 74.683647 101.376823 
L 72.739574 102.697805 
L 71.977824 103.418373 
L 71.369224 104.169463 
L 70.921812 104.943432 
L 70.642179 105.732282 
L 70.535396 106.52772 
L 70.604955 107.321237 
L 70.852724 108.104206 
L 71.278912 108.868003 
L 71.882043 109.604136 
L 72.658935 110.304368 
L 73.604685 110.960845 
L 74.712665 111.566198 
L 75.974522 112.113626 
L 78.917922 113.010637 
L 82.334459 113.610175 
L 86.098867 113.880319 
L 90.064744 113.797693 
L 94.070279 113.346514 
L 97.945848 112.5189 
L 99.781925 111.964082 
L 101.522901 111.316831 
L 103.149404 110.579443 
L 104.643273 109.75522 
L 105.987796 108.848543 
L 107.16793 107.864911 
L 108.170474 106.810943 
L 108.984212 105.694356 
L 109.600007 104.523894 
L 110.010858 103.30925 
L 110.211905 102.060953 
L 110.200414 100.790256 
L 109.975715 99.509013 
L 109.539129 98.22955 
L 108.893873 96.964541 
L 108.044964 95.726863 
L 106.999129 94.529446 
L 105.76472 93.385099 
L 104.351642 92.306304 
L 102.771302 91.304993 
L 101.036561 90.392298 
L 99.161702 89.578294 
L 97.162394 88.871752 
L 95.055646 88.279915 
L 92.859747 87.808331 
L 90.59419 87.460748 
L 88.279549 87.239101 
L 85.937346 87.143569 
L 83.589867 87.172724 
L 81.25996 87.323733 
L 78.970795 87.5926 
L 76.745619 87.97441 
L 74.607473 88.463557 
L 72.578926 89.053908 
L 70.681786 89.738909 
L 68.936835 90.511601 
L 67.363567 91.364569 
L 65.979954 92.289825 
L 64.802234 93.278663 
L 63.844734 94.321507 
L 63.119733 95.407795 
L 62.637351 96.525923 
L 62.405486 97.663273 
L 62.429773 98.80634 
L 62.713568 99.940949 
L 63.257945 101.052555 
L 64.061694 102.126602 
L 65.121312 103.148897 
L 66.430983 104.105976 
L 67.982526 104.985422 
L 69.765345 105.776104 
L 71.766352 106.468317 
L 73.969899 107.053823 
L 76.35773 107.52578 
L 78.90897 107.878592 
L 81.600164 108.107689 
L 84.405401 108.209288 
L 87.296506 108.180159 
L 90.243333 108.017441 
L 93.214129 107.718537 
L 96.175985 107.281116 
L 99.095332 106.703217 
L 101.938493 105.983467 
L 104.672242 105.121372 
L 107.264378 104.117656 
L 109.684275 102.974592 
L 111.903405 101.696299 
L 113.895814 100.288928 
L 115.638527 98.76075 
L 117.111882 97.122099 
L 118.299761 95.385195 
L 119.189725 93.563879 
L 119.773028 91.673286 
L 120.044531 89.729525 
L 120.002512 87.749399 
L 119.648398 85.750205 
L 118.98645 83.749627 
L 118.023433 81.765708 
L 116.768302 79.816866 
L 115.231939 77.921904 
L 113.426969 76.09994 
L 111.36766 74.370229 
L 109.069912 72.751806 
L 106.551327 71.262981 
L 103.831324 69.920692 
L 100.931281 68.739796 
L 97.874661 67.732385 
L 94.687084 66.907228 
L 91.396331 66.269434 
L 88.032246 65.820408 
L 84.626538 65.558115 
L 81.212489 65.477634 
L 77.82457 65.571938 
L 74.497998 65.832771 
L 71.268231 66.251515 
L 68.170448 66.819901 
L 65.239006 67.530466 
L 62.506901 68.376685 
L 60.005251 69.352752 
L 57.762809 70.45304 
L 55.805534 71.671333 
L 54.156236 72.999933 
L 52.834315 74.428794 
L 51.855613 75.944807 
L 51.23238 77.531374 
L 50.973352 79.16833 
L 51.083923 80.832264 
L 51.566372 82.497194 
L 52.420109 84.13554 
L 53.641879 85.719278 
L 55.225902 87.221152 
L 57.163882 88.615806 
L 59.444891 89.880728 
L 62.055111 90.996917 
L 64.977468 91.949206 
L 68.191197 92.726244 
L 71.671418 93.320136 
L 75.388774 93.725818 
L 79.309236 93.940238 
L 83.394112 93.961471 
L 87.60031 93.787896 
L 91.880857 93.417547 
L 96.185656 92.84778 
L 100.462424 92.075307 
L 104.657758 91.096635 
L 108.718265 89.908854 
L 112.591708 88.510688 
L 116.228125 86.903627 
L 119.580907 85.092979 
L 122.607795 83.088617 
L 125.271789 80.905308 
L 127.541912 78.562492 
L 129.393791 76.083543 
L 130.810002 73.494583 
L 131.78011 70.823048 
L 132.300403 68.096242 
L 132.373306 65.340134 
L 132.006535 62.578617 
L 131.21207 59.833354 
L 130.005066 57.124207 
L 128.402834 54.470138 
L 126.423989 51.890337 
L 124.087883 49.405298 
L 121.414352 47.037519 
L 118.423803 44.811611 
L 115.137592 42.753666 
L 111.578613 40.889908 
L 107.772002 39.2448 
L 103.745822 37.838916 
L 99.531603 36.686953 
L 95.164668 35.796281 
L 90.684158 35.166334 
L 86.132766 34.789003 
L 81.556214 34.650002 
L 77.002515 34.73101 
L 72.521124 35.012237 
L 68.162015 35.475009 
L 63.97475 36.103973 
L 60.007555 36.88857 
L 56.306432 37.823571 
L 52.914283 38.908611 
L 49.870093 40.146783 
L 47.208186 41.542528 
L 44.9576 43.099118 
L 43.141658 44.81612 
L 41.777763 46.6872 
L 40.877478 48.698594 
L 40.446884 50.828446 
L 40.487171 53.0471 
L 40.9954 55.318281 
L 41.965317 57.60099 
L 43.388106 59.85186 
L 45.252957 62.027664 
L 47.547359 64.087709 
L 50.257058 65.995863 
L 53.365665 67.722038 
L 56.853967 69.243028 
L 60.699013 70.542663 
L 64.873127 71.611314 
L 69.343003 72.444826 
L 74.069053 73.043034 
L 79.005143 73.408051 
L 84.098817 73.542551 
L 89.292004 73.448313 
L 94.522163 73.125262 
L 99.72374 72.571197 
L 104.829791 71.782287 
L 109.773642 70.754309 
L 114.490482 69.484451 
L 118.918841 67.973382 
L 123.001952 66.227239 
L 126.688986 64.259143 
L 129.936189 62.08994 
L 132.707852 59.747939 
L 134.977092 57.267623 
L 136.726301 54.687476 
L 137.947216 52.047249 
L 138.640496 49.385123 
L 138.814828 46.735251 
L 138.485609 44.126128 
L 137.673339 41.580052 
L 136.401906 39.113747 
L 134.696962 36.739963 
L 132.584572 34.46968 
L 130.090285 32.314438 
L 127.23868 30.288268 
L 124.053433 28.408796 
L 120.557811 26.697253 
L 116.775517 25.177323 
L 112.731706 23.873021 
L 108.454025 22.805959 
L 103.973494 21.99255 
L 99.325105 21.441678 
L 94.548039 21.153329 
L 89.685506 21.118468 
L 84.784218 21.320225 
L 79.893614 21.736184 
L 75.064914 22.341407 
L 70.350116 23.111659 
L 65.800998 24.026358 
L 61.468145 25.07078 
L 57.400038 26.237213 
L 53.642162 27.524936 
L 50.236154 28.939021 
L 47.219 30.488185 
L 44.622317 32.181983 
L 42.471794 34.027768 
L 40.786848 36.027835 
L 39.580567 38.177149 
L 38.85996 40.461957 
L 38.626503 42.859436 
L 38.876915 45.338398 
L 39.604071 47.860903 
L 40.797912 50.384544 
L 42.446229 52.86509 
L 44.535202 55.259168 
L 47.049604 57.5267 
L 49.97264 59.632863 
L 53.285434 61.549427 
L 56.966226 63.255382 
L 60.989404 64.73686 
L 65.324521 65.986415 
L 69.935468 67.001748 
L 74.779968 67.784079 
L 79.809505 68.336352 
L 84.969749 68.661533 
L 90.201443 68.761253 
L 95.441684 68.635021 
L 100.625425 68.28017 
L 105.687092 67.692574 
L 110.56216 66.868048 
L 115.188628 65.80423 
L 119.508364 64.502615 
L 123.468314 62.970397 
L 127.021602 61.221758 
L 130.128517 59.278327 
L 132.757343 57.168672 
L 134.884979 54.926828 
L 136.497255 52.590059 
L 137.588847 50.196198 
L 138.162762 47.78101 
L 138.229372 45.376025 
L 137.805098 43.007227 
L 136.910852 40.694803 
L 135.57043 38.453957 
L 133.809024 36.296571 
L 131.652033 34.233349 
L 129.124272 32.275973 
L 126.24965 30.438785 
L 123.051314 28.739654 
L 119.552188 27.199774 
L 115.775806 25.842403 
L 111.74729 24.690737 
L 107.494316 23.765302 
L 103.047913 23.081348 
L 98.442976 22.646775 
L 93.718429 22.461 
L 88.917023 22.515003 
L 84.084806 22.792599 
L 79.270365 23.272687 
L 74.523915 23.932139 
L 69.896342 24.748824 
L 65.438231 25.704301 
L 61.198945 26.785785 
L 57.225722 27.987096 
L 53.562814 29.308478 
L 50.250653 30.755338 
L 47.325074 32.336098 
L 44.816631 34.059473 
L 42.750069 35.931574 
L 41.144024 37.953233 
L 40.010992 40.117934 
L 39.357603 42.410603 
L 39.185166 44.807418 
L 39.490435 47.276608 
L 40.266479 49.780118 
L 41.503546 52.275883 
L 43.189787 54.720417 
L 45.311727 57.071401 
L 47.854421 59.290014 
L 50.80124 61.342774 
L 54.133333 63.202758 
L 57.828815 64.850132 
L 61.86181 66.271998 
L 66.201501 67.461608 
L 70.811353 68.417077 
L 75.648662 69.13975 
L 80.664542 69.632452 
L 85.804397 69.897854 
L 91.008845 69.93721 
L 96.215004 69.749678 
L 101.358003 69.332367 
L 106.372576 68.681139 
L 111.194621 67.792067 
L 115.762661 66.663322 
L 120.019176 65.297174 
L 123.911807 63.701753 
L 127.394454 61.892231 
L 130.428258 59.891152 
L 132.982418 57.727801 
L 135.034786 55.436633 
L 136.572138 53.054987 
L 137.590045 50.620427 
L 138.0923 48.16817 
L 138.089909 45.729042 
L 137.599736 43.32831 
L 136.642936 40.985587 
L 135.24336 38.71577 
L 133.426104 36.530785 
L 131.216368 34.441739 
L 128.638733 32.46101 
L 125.716905 30.603821 
L 122.473918 28.888934 
L 118.932723 27.338275 
L 115.117053 25.975513 
L 111.052405 24.823822 
L 106.76699 23.903231 
L 102.292494 23.228064 
L 97.664543 22.804984 
L 92.922801 22.632027 
L 88.110713 22.698867 
L 83.274933 22.988257 
L 78.464521 23.478432 
L 73.730024 24.146069 
L 69.122501 24.969306 
L 64.69256 25.930361 
L 60.489429 27.017356 
L 56.560059 28.225096 
L 52.948262 29.554705 
L 49.693886 31.012199 
L 46.832038 32.606209 
L 44.392423 34.345191 
L 42.398853 36.234524 
L 40.868976 38.273905 
L 39.814309 40.455392 
L 39.24055 42.762359 
L 39.14818 45.16947 
L 39.53325 47.643646 
L 40.388268 50.145851 
L 41.703055 52.633454 
L 43.465431 55.062847 
L 45.661648 57.39202 
L 48.276478 59.582823 
L 51.29295 61.602721 
L 54.691748 63.425906 
L 58.450363 65.033703 
L 62.542126 66.414309 
L 66.935268 67.561907 
L 71.592183 68.475298 
L 76.469044 69.156231 
L 81.51587 69.607645 
L 86.677083 69.832075 
L 91.892501 69.830465 
L 97.098683 69.601609 
L 102.230465 69.142322 
L 107.22256 68.448369 
L 112.011114 67.516022 
L 116.535142 66.343997 
L 120.737842 64.935449 
L 124.567781 63.299665 
L 127.979982 61.453116 
L 130.936874 59.41963 
L 133.409084 57.229595 
L 135.375979 54.918233 
L 136.825881 52.523211 
L 137.755855 50.081957 
L 138.171061 47.629133 
L 138.083674 45.194713 
L 137.511475 42.802988 
L 136.476263 40.472653 
L 135.002267 38.217911 
L 133.114733 36.050323 
L 130.838849 33.980995 
L 128.199092 32.022624 
L 125.219059 30.190942 
L 121.921739 28.505246 
L 118.330162 26.987841 
L 114.468299 25.662454 
L 110.362047 24.551893 
L 106.040162 23.67537 
L 101.534981 23.046004 
L 96.882822 22.669008 
L 92.124025 22.540922 
L 87.302635 22.65008 
L 82.46578 22.978244 
L 77.662851 23.503134 
L 72.944556 24.201435 
L 68.361951 25.051781 
L 63.965479 26.037272 
L 59.804048 27.14713 
L 55.924141 28.37729 
L 52.368956 29.729844 
L 49.17759 31.211453 
L 46.384278 32.830952 
L 44.017756 34.596512 
L 42.100799 36.512755 
L 40.650003 38.578238 
L 39.675862 40.783628 
L 39.183137 43.11083 
L 39.171486 45.533128 
L 39.636288 48.016307 
L 40.569529 50.520559 
L 41.960633 53.002906 
L 43.797126 55.419836 
L 46.064999 57.729839 
L 48.748752 59.895603 
L 51.831057 61.885661 
L 55.292121 63.675392 
L 59.108798 65.247311 
L 63.253622 66.590695 
L 67.693884 67.700607 
L 72.390949 68.576468 
L 77.299942 69.220346 
L 82.369894 69.635217 
L 87.544381 69.823418 
L 92.762583 69.785555 
L 97.960669 69.520056 
L 103.073355 69.023477 
L 108.035504 68.291546 
L 112.783658 67.3208 
L 117.257462 66.11056 
L 121.400945 64.664901 
L 125.163701 62.994249 
L 128.501939 61.116313 
L 131.379422 59.056088 
L 133.768217 56.844899 
L 135.649191 54.518542 
L 137.012157 52.114817 
L 137.85559 49.67084 
L 138.185907 47.220593 
L 138.016318 44.793132 
L 137.365384 42.411773 
L 136.25541 40.094356 
L 134.71088 37.8545 
L 132.757087 35.703539 
L 130.419128 33.652715 
L 127.721328 31.715154 
L 124.687148 29.907174 
L 121.339527 28.248642 
L 117.701585 26.762232 
L 113.797538 25.471695 
L 109.6537 24.399423 
L 105.299378 23.563774 
L 100.767547 22.976653 
L 96.095198 22.641853 
L 91.323315 22.55449 
L 86.496497 22.70167 
L 81.662306 23.064301 
L 76.87041 23.619729 
L 72.171636 24.344775 
L 67.616998 25.218671 
L 63.256739 26.225456 
L 59.139419 27.355465 
L 55.311028 28.605727 
L 51.814132 29.979229 
L 48.687068 31.483173 
L 45.963192 33.126481 
L 43.670272 34.916923 
L 41.830064 36.858267 
L 40.458136 38.947854 
L 39.563996 41.174925 
L 39.151507 43.51991 
L 39.219562 45.954744 
L 39.762914 48.444134 
L 40.773073 50.947571 
L 42.239114 53.421808 
L 44.148292 55.823501 
L 46.486363 58.111705 
L 49.237555 60.249986 
L 52.384186 62.20797 
L 55.905971 63.962222 
L 59.779118 65.496429 
L 63.975348 66.800913 
L 68.461005 67.871571 
L 73.19643 68.708385 
L 78.135711 69.313694 
L 83.226917 69.690463 
L 88.41281 69.8408 
L 93.631968 69.764958 
L 98.820211 69.461013 
L 103.912169 68.925292 
L 103.912169 68.925292 
" clip-path="url(#p07e7f339e7)" style="fill: none; stroke: #1f77b4; stroke-width: 1.5; stroke-linecap: round"/>
   </g>
   <g id="line2d_25">
    <path d="M 88.651867 44.793067 
L 88.61578 98.535815 
L 88.407344 109.352472 
L 88.381988 112.79431 
L 88.588208 113.294192 
L 88.79212 113.375551 
L 88.422907 113.265139 
L 88.165953 113.407668 
L 88.212414 113.565021 
L 88.51807 113.667635 
L 88.923089 113.5787 
L 89.032005 113.379446 
L 88.866533 113.203195 
L 88.442971 113.118469 
L 88.001238 113.228798 
L 87.829965 113.456744 
L 87.944483 113.67411 
L 88.291877 113.827793 
L 88.853431 113.839953 
L 89.332378 113.642917 
L 89.479625 113.356527 
L 89.344157 113.103976 
L 88.982101 112.906835 
L 88.351169 112.821116 
L 87.705363 112.945953 
L 87.329673 113.197888 
L 87.220707 113.461032 
L 87.319398 113.736531 
L 87.626927 113.979064 
L 88.250779 114.169954 
L 89.012178 114.17783 
L 89.726875 113.979937 
L 90.135455 113.690938 
L 90.310479 113.325373 
L 90.203905 112.936723 
L 89.81053 112.586451 
L 89.17208 112.334477 
L 88.373957 112.229237 
L 87.534734 112.298896 
L 86.78957 112.545116 
L 86.269617 112.940533 
L 86.092362 113.303095 
L 86.130358 113.68832 
L 86.393797 114.060963 
L 86.872464 114.384586 
L 87.78892 114.681321 
L 88.904897 114.76619 
L 90.050477 114.604751 
L 91.036656 114.200965 
L 91.563623 113.764562 
L 91.83978 113.248973 
L 91.82464 112.696083 
L 91.502488 112.153503 
L 90.885093 111.670466 
L 90.012017 111.293398 
L 88.948478 111.061576 
L 87.78088 111.003204 
L 86.610294 111.132261 
L 85.544323 111.446387 
L 84.687891 111.926033 
L 84.133605 112.535043 
L 83.968137 112.988396 
L 83.983074 113.459051 
L 84.185577 113.927545 
L 84.57537 114.373584 
L 85.144371 114.776849 
L 86.29695 115.259366 
L 87.730109 115.544518 
L 89.326467 115.589452 
L 90.945566 115.371347 
L 92.436206 114.890905 
L 93.285043 114.436465 
L 93.970826 113.889792 
L 94.459031 113.268682 
L 94.722155 112.594587 
L 94.741057 111.89182 
L 94.505986 111.186621 
L 94.01722 110.50614 
L 93.285324 109.877364 
L 92.331003 109.326037 
L 91.184573 108.875619 
L 89.885063 108.5463 
L 88.478989 108.354126 
L 87.018835 108.310244 
L 85.561275 108.420297 
L 84.165189 108.683985 
L 82.889512 109.094825 
L 81.79098 109.640105 
L 80.921821 110.301067 
L 80.327464 111.053324 
L 80.044357 111.867518 
L 80.097973 112.710226 
L 80.501116 113.5451 
L 81.252635 114.334222 
L 82.336654 115.03963 
L 83.722405 115.624966 
L 85.364756 116.057168 
L 87.205454 116.308121 
L 89.175093 116.356172 
L 91.195744 116.187408 
L 93.184134 115.796621 
L 95.055239 115.18787 
L 96.726071 114.374607 
L 98.119469 113.379346 
L 99.167683 112.232884 
L 99.815536 110.973127 
L 99.97618 110.314187 
L 100.023039 109.643584 
L 99.953802 108.967344 
L 99.767309 108.291618 
L 99.043763 106.966544 
L 97.866544 105.71767 
L 96.268228 104.592358 
L 94.298856 103.63418 
L 92.024367 102.881223 
L 89.524515 102.364579 
L 86.890345 102.107042 
L 84.221279 102.122057 
L 81.621895 102.412895 
L 79.198407 102.972125 
L 77.054924 103.781361 
L 75.289521 104.811349 
L 73.990193 106.022422 
L 73.539053 106.680824 
L 73.230814 107.36536 
L 73.071863 108.068598 
L 73.067228 108.7827 
L 73.220486 109.499489 
L 73.533665 110.210521 
L 74.007169 110.907164 
L 74.639719 111.580692 
L 75.428302 112.222372 
L 76.368147 112.823566 
L 77.452721 113.37583 
L 80.021224 114.301393 
L 83.047498 114.939366 
L 86.420595 115.239749 
L 90.008965 115.1652 
L 93.665915 114.693472 
L 97.236209 113.819117 
L 98.939814 113.234067 
L 100.563419 112.554304 
L 102.088533 111.784076 
L 103.497532 110.928659 
L 104.773871 109.994298 
L 105.902286 108.988141 
L 106.868976 107.918152 
L 107.661758 106.793027 
L 108.270212 105.622087 
L 108.68579 104.415182 
L 108.901906 103.182571 
L 108.913997 101.934818 
L 108.71957 100.682676 
L 108.318209 99.436974 
L 107.711576 98.208507 
L 106.903377 97.007931 
L 105.899324 95.84566 
L 104.707063 94.731768 
L 103.336103 93.675898 
L 101.797719 92.687177 
L 100.104851 91.774138 
L 98.271993 90.944644 
L 96.315068 90.205825 
L 94.251301 89.564018 
L 92.099086 89.02471 
L 89.877844 88.592491 
L 87.607878 88.27101 
L 85.310225 88.062938 
L 83.006498 87.96993 
L 80.71873 87.992605 
L 78.469206 88.130513 
L 76.280294 88.382125 
L 74.174269 88.744812 
L 72.173126 89.214845 
L 70.298397 89.787389 
L 68.570947 90.456512 
L 67.010779 91.215201 
L 65.636818 92.05538 
L 64.466706 92.967951 
L 63.51658 93.942831 
L 62.800853 94.969015 
L 62.332006 96.034645 
L 62.120367 97.127092 
L 62.173913 98.233055 
L 62.498076 99.338677 
L 63.095575 100.429674 
L 63.966254 101.491477 
L 65.106969 102.509388 
L 66.511489 103.468755 
L 68.170449 104.355148 
L 70.071333 105.154549 
L 72.198517 105.853545 
L 74.533351 106.439523 
L 77.054301 106.900862 
L 79.737137 107.227119 
L 82.555183 107.409202 
L 85.479604 107.439531 
L 88.479749 107.312175 
L 91.523534 107.022969 
L 94.577851 106.569601 
L 97.609007 105.951672 
L 100.583183 105.170725 
L 103.46689 104.230237 
L 106.22743 103.135585 
L 108.833335 101.893976 
L 111.254791 100.514349 
L 113.464023 99.007251 
L 115.435647 97.384688 
L 117.14697 95.659958 
L 118.57825 93.847469 
L 119.712897 91.962543 
L 120.537621 90.021217 
L 121.042534 88.040043 
L 121.221194 86.035885 
L 121.070608 84.025726 
L 120.591187 82.026482 
L 119.786667 80.054826 
L 118.663993 78.127026 
L 117.233181 76.258796 
L 115.507148 74.465161 
L 113.501535 72.760338 
L 111.234515 71.157634 
L 108.726586 69.669346 
L 106.000369 68.30669 
L 103.080398 67.079731 
L 99.99291 65.997321 
L 96.765638 65.067058 
L 93.42761 64.295238 
L 90.008937 63.686821 
L 86.540621 63.245404 
L 83.054344 62.97319 
L 79.582271 62.870971 
L 76.156843 62.938105 
L 72.810563 63.172498 
L 69.575779 63.570599 
L 66.484456 64.127383 
L 63.567938 64.836352 
L 60.856693 65.689536 
L 58.380053 66.677503 
L 56.165928 67.789381 
L 54.240519 69.012889 
L 52.628006 70.334379 
L 51.350236 71.738903 
L 50.4264 73.210291 
L 49.872706 74.731253 
L 49.70206 76.2835 
L 49.923755 77.847894 
L 50.54318 79.404619 
L 51.561562 80.933379 
L 52.975736 82.413616 
L 54.777977 83.824758 
L 56.955878 85.146477 
L 59.492309 86.358972 
L 62.365444 87.443256 
L 65.548872 88.38145 
L 69.011806 89.157074 
L 72.719372 89.755331 
L 76.632993 90.163371 
L 80.710858 90.370528 
L 84.908471 90.368529 
L 89.179262 90.151659 
L 93.475255 89.716885 
L 97.747778 89.063923 
L 101.948184 88.195262 
L 106.028578 87.116132 
L 109.942533 85.834413 
L 113.645755 84.360508 
L 117.096713 82.70716 
L 120.257197 80.889235 
L 123.09279 78.923473 
L 125.573273 76.828219 
L 127.672927 74.623125 
L 129.370747 72.328859 
L 130.65057 69.966807 
L 131.501117 67.558778 
L 131.915954 65.126724 
L 131.893389 62.692481 
L 131.436305 60.277526 
L 130.551948 57.902759 
L 129.251672 55.588309 
L 127.550662 53.353372 
L 125.467629 51.21606 
L 123.024508 49.193294 
L 120.246136 47.300699 
L 117.159951 45.552534 
L 113.795687 43.961629 
L 110.185084 42.539343 
L 106.361613 41.295535 
L 102.36021 40.238535 
L 98.217033 39.375135 
L 93.969219 38.710572 
L 89.654667 38.248527 
L 85.311813 37.991113 
L 80.979425 37.938872 
L 76.696387 38.09077 
L 72.501488 38.444189 
L 68.433203 38.994921 
L 64.529464 39.737161 
L 60.827417 40.663508 
L 57.363166 41.76496 
L 54.171491 43.030919 
L 51.285558 44.449206 
L 48.736598 46.006085 
L 46.553572 47.686299 
L 44.762813 49.473122 
L 43.387664 51.348436 
L 42.448095 53.292825 
L 41.960328 55.285699 
L 41.936459 57.305444 
L 42.38411 59.329601 
L 43.306093 61.335076 
L 44.70013 63.298383 
L 46.558615 65.195911 
L 48.868455 67.004219 
L 51.610982 68.700353 
L 54.76196 70.262182 
L 58.2917 71.668733 
L 62.165271 72.900539 
L 66.342838 73.939967 
L 70.7801 74.771541 
L 75.428843 75.382219 
L 80.237585 75.761653 
L 85.152313 75.902384 
L 90.11728 75.799998 
L 95.075856 75.453214 
L 99.971398 74.863916 
L 104.748124 74.037115 
L 109.351966 72.980857 
L 113.73137 71.706061 
L 117.838037 70.226318 
L 121.627578 68.557633 
L 125.060064 66.718134 
L 128.100486 64.727755 
L 130.719086 62.607899 
L 132.891582 60.381094 
L 134.59929 58.07065 
L 135.829134 55.700329 
L 136.573569 53.294026 
L 136.830423 50.875473 
L 136.602669 48.467978 
L 135.898143 46.094183 
L 134.72922 43.775855 
L 133.112468 41.533715 
L 131.068275 39.387286 
L 128.62048 37.35478 
L 125.796 35.453001 
L 122.624466 33.697279 
L 119.137884 32.101416 
L 115.3703 30.677659 
L 111.357499 29.436671 
L 107.136712 28.387525 
L 102.746361 27.5377 
L 98.225803 26.89308 
L 93.615109 26.457958 
L 88.954843 26.235038 
L 84.285856 26.225435 
L 79.649087 26.428683 
L 75.08536 26.842725 
L 70.635179 27.463912 
L 66.338521 28.287002 
L 62.234603 29.305149 
L 58.361648 30.509901 
L 54.756621 31.8912 
L 51.454953 33.437385 
L 48.490234 35.135207 
L 45.893885 36.96985 
L 43.694815 38.924975 
L 41.91905 40.982774 
L 40.589354 43.12405 
L 39.724839 45.328322 
L 39.340572 47.573954 
L 39.447198 49.838322 
L 40.050579 52.097999 
L 41.151466 54.328989 
L 42.74522 56.506979 
L 44.821597 58.607624 
L 47.364604 60.606866 
L 50.352445 62.481258 
L 53.757571 64.208321 
L 57.546839 65.766893 
L 61.681783 67.137483 
L 66.119008 68.302612 
L 70.810699 69.247129 
L 75.705238 69.958496 
L 80.747919 70.427029 
L 85.881747 70.646094 
L 91.048298 70.612232 
L 96.188615 70.325237 
L 101.244125 69.788157 
L 106.157542 69.00723 
L 110.873731 67.991766 
L 115.340526 66.753957 
L 119.509449 65.308644 
L 123.336356 63.673038 
L 126.781957 61.866404 
L 129.812231 59.909724 
L 132.398721 57.825348 
L 134.518707 55.636633 
L 136.155278 53.367599 
L 137.297288 51.042591 
L 137.939236 48.685962 
L 138.081052 46.321781 
L 137.727836 43.973579 
L 136.889532 41.66411 
L 135.580577 39.415163 
L 133.819523 37.247388 
L 131.62865 35.180165 
L 129.033573 33.231498 
L 126.062865 31.417932 
L 122.747687 29.75449 
L 119.121441 28.25464 
L 115.219441 26.93026 
L 111.078607 25.791632 
L 106.73719 24.847433 
L 102.234505 24.104737 
L 97.610697 23.569018 
L 92.906517 23.244156 
L 88.16311 23.132444 
L 83.421817 23.234586 
L 78.723976 23.549706 
L 74.110728 24.075337 
L 69.622811 24.807425 
L 65.300354 25.740319 
L 61.182647 26.866769 
L 57.307905 28.177915 
L 53.713002 29.663295 
L 50.433189 31.310843 
L 47.501786 33.106908 
L 44.94985 35.036276 
L 42.805825 37.082216 
L 41.095169 39.226538 
L 39.839967 41.449678 
L 39.058545 43.730805 
L 38.765072 46.047963 
L 38.969184 48.378234 
L 39.675627 50.697941 
L 40.883938 52.982882 
L 42.588174 55.20859 
L 44.77671 57.350632 
L 47.432113 59.384925 
L 50.53111 61.288072 
L 54.04466 63.037723 
L 57.938138 64.612922 
L 62.171638 65.994468 
L 66.700392 67.165249 
L 71.475311 68.110555 
L 76.443627 68.818362 
L 81.549637 69.279558 
L 86.735521 69.488129 
L 91.942221 69.44128 
L 97.110348 69.139486 
L 102.181111 68.586489 
L 107.097212 67.789221 
L 111.803716 66.757661 
L 116.248848 65.504642 
L 120.384705 64.045602 
L 124.167878 62.398298 
L 127.55995 60.582476 
L 130.527888 58.619535 
L 133.044309 56.532169 
L 135.087632 54.344009 
L 136.642116 52.079276 
L 137.697804 49.762444 
L 138.250371 47.417931 
L 138.300902 45.069812 
L 137.855604 42.741566 
L 136.925477 40.455847 
L 135.525947 38.234298 
L 133.676484 36.097393 
L 131.40021 34.064302 
L 128.723507 32.152795 
L 125.675636 30.379165 
L 122.288371 28.75817 
L 118.595652 27.302999 
L 114.633263 26.02525 
L 110.43853 24.934917 
L 106.050046 24.040387 
L 101.507414 23.348443 
L 96.851012 22.864269 
L 92.121777 22.591457 
L 87.36099 22.53201 
L 82.610085 22.686344 
L 77.910452 23.053293 
L 73.303235 23.630105 
L 68.829137 24.412434 
L 64.528204 25.394341 
L 60.439599 26.568285 
L 56.601357 27.925117 
L 53.05012 29.454082 
L 49.82085 31.142828 
L 46.946518 32.977416 
L 44.457767 34.942353 
L 42.382557 37.020635 
L 40.745793 39.193812 
L 39.568933 41.442078 
L 38.869599 43.744378 
L 38.661187 46.078559 
L 38.952488 48.421537 
L 39.747336 50.749509 
L 41.044299 53.038187 
L 42.836419 55.263069 
L 45.111018 57.39974 
L 47.849592 59.424192 
L 51.027797 61.313169 
L 54.615534 63.044517 
L 58.577161 64.597549 
L 62.871815 65.953388 
L 67.453852 67.095308 
L 72.273408 68.00904 
L 77.277064 68.683045 
L 82.408601 69.108738 
L 87.609836 69.280659 
L 92.821505 69.196583 
L 97.98418 68.857565 
L 103.039194 68.26792 
L 107.929534 67.435134 
L 112.600702 66.369715 
L 117.001497 65.084985 
L 121.084717 63.596828 
L 124.807752 61.923389 
L 128.133075 60.08475 
L 131.028602 58.102581 
L 133.467942 55.999787 
L 135.430529 53.800146 
L 136.90164 51.527967 
L 137.872319 49.207756 
L 138.339217 46.863909 
L 138.304347 44.520432 
L 137.774798 42.20069 
L 136.762389 39.92719 
L 135.283303 37.721396 
L 133.3577 35.603573 
L 131.009322 33.592667 
L 128.265105 31.706206 
L 125.154798 29.960226 
L 121.7106 28.369225 
L 117.966819 26.946123 
L 113.959548 25.702246 
L 109.726375 24.647315 
L 105.306105 23.789444 
L 100.738511 23.135144 
L 96.0641 22.689327 
L 91.323897 22.455313 
L 86.559241 22.434834 
L 81.811584 22.628039 
L 77.122301 23.03349 
L 72.532487 23.648163 
L 68.082757 24.467443 
L 63.813032 25.485118 
L 59.762309 26.693373 
L 55.968412 28.082786 
L 52.467726 29.64233 
L 49.294902 31.359379 
L 46.482544 33.219729 
L 44.060869 35.207624 
L 42.057348 37.30581 
L 40.496331 39.495598 
L 39.398654 41.756957 
L 38.781251 44.068636 
L 38.65676 46.408306 
L 39.033154 48.752745 
L 39.913393 51.078045 
L 41.295119 53.35986 
L 43.17041 55.573678 
L 45.525601 57.695126 
L 48.341187 59.700295 
L 51.591829 61.566088 
L 55.246461 63.270571 
L 59.268518 64.793336 
L 63.61628 66.115846 
L 68.243333 67.221766 
L 73.099145 68.097272 
L 78.129755 68.731308 
L 83.278535 69.115807 
L 88.48704 69.245852 
L 93.6959 69.119772 
L 98.845739 68.739179 
L 103.878092 68.108933 
L 108.736305 67.237046 
L 113.366372 66.134522 
L 117.717715 64.815138 
L 121.743862 63.295187 
L 125.403028 61.593168 
L 128.658579 59.72946 
L 131.479377 57.725972 
L 133.840011 55.605784 
L 135.720902 53.392793 
L 137.108313 51.111367 
L 137.994253 48.786017 
L 138.376299 46.441097 
L 138.257351 44.100522 
L 137.645324 41.787531 
L 136.552809 39.524468 
L 134.996691 37.332606 
L 132.99777 35.231999 
L 130.580359 33.241359 
L 127.771902 31.377969 
L 124.602591 29.65761 
L 121.10501 28.094514 
L 117.313794 26.701336 
L 113.265314 25.489132 
L 108.997386 24.46735 
L 104.548998 23.643836 
L 99.960068 23.024831 
L 95.271206 22.614976 
L 90.52351 22.417326 
L 85.758352 22.433345 
L 81.017189 22.662913 
L 76.341363 23.104327 
L 71.771904 23.754295 
L 67.34933 24.607933 
L 63.113422 25.658758 
L 59.102999 26.898686 
L 55.355664 28.318024 
L 51.907531 29.905474 
L 48.79293 31.648143 
L 46.044089 33.531563 
L 43.690787 35.539722 
L 41.759999 37.655117 
L 40.275509 39.858827 
L 39.257524 42.130607 
L 38.722282 44.449011 
L 38.681661 46.791546 
L 39.142812 49.13486 
L 40.107818 51.454951 
L 41.573401 53.727425 
L 43.530681 55.92777 
L 45.965011 58.031669 
L 48.8559 60.015323 
L 52.177031 61.855806 
L 55.896394 63.531416 
L 59.976525 65.022033 
L 64.374875 66.30947 
L 69.044291 67.377794 
L 73.933612 68.213628 
L 78.988368 68.806407 
L 84.151562 69.148584 
L 89.364528 69.235783 
L 94.567827 69.066884 
L 99.702169 68.644052 
L 104.709333 67.972687 
L 109.533048 67.061316 
L 109.533048 67.061316 
" clip-path="url(#p07e7f339e7)" style="fill: none; stroke: #ff7f0e; stroke-opacity: 0.5; stroke-width: 1.5; stroke-linecap: round"/>
   </g>
  </g>
 </g>
 <defs>
  <clipPath id="p07e7f339e7">
   <rect x="-1.8" y="-7.2" width="176.4" height="176.4"/>
  </clipPath>
 </defs>
</svg>
