<?xml version="1.0" encoding="utf-8" standalone="no"?>
<!DOCTYPE svg PUBLIC "-//W3C//DTD SVG 1.1//EN"
  "http://www.w3.org/Graphics/SVG/1.1/DTD/svg11.dtd">
<svg xmlns:xlink="http://www.w3.org/1999/xlink" width="216pt" height="180pt" viewBox="0 0 216 180" xmlns="http://www.w3.org/2000/svg" version="1.1">
 <metadata>
  <rdf:RDF xmlns:dc="http://purl.org/dc/elements/1.1/" xmlns:cc="http://creativecommons.org/ns#" xmlns:rdf="http://www.w3.org/1999/02/22-rdf-syntax-ns#">
   <cc:Work>
    <dc:type rdf:resource="http://purl.org/dc/dcmitype/StillImage"/>
    <dc:date>2023-06-14T18:48:22.596007</dc:date>
    <dc:format>image/svg+xml</dc:format>
    <dc:creator>
     <cc:Agent>
      <dc:title>Matplotlib v3.7.0, https://matplotlib.org/</dc:title>
     </cc:Agent>
    </dc:creator>
   </cc:Work>
  </rdf:RDF>
 </metadata>
 <defs>
  <style type="text/css">*{stroke-linejoin: round; stroke-linecap: butt}</style>
 </defs>
 <g id="figure_1">
  <g id="patch_1">
   <path d="M 0 180 
L 216 180 
L 216 0 
L 0 0 
z
" style="fill: #ffffff"/>
  </g>
  <g id="patch_2">
   <path d="M -1 169.2 
L 174.6 169.2 
L 174.6 -1 
" style="fill: none"/>
  </g>
  <g id="pane3d_1">
   <g id="patch_3">
    <path d="M 11.519416 125.705413 
L 69.772457 76.876559 
L 68.962684 6.456623 
L 7.921935 51.001381 
" style="fill: none; opacity: 0.5; stroke: #f2f2f2; stroke-linejoin: miter"/>
   </g>
  </g>
  <g id="pane3d_2">
   <g id="patch_4">
    <path d="M 69.772457 76.876559 
L 163.247803 104.046152 
L 166.583609 31.200681 
L 68.962684 6.456623 
" style="fill: none; opacity: 0.5; stroke: #e6e6e6; stroke-linejoin: miter"/>
   </g>
  </g>
  <g id="pane3d_3">
   <g id="patch_5">
    <path d="M 11.519416 125.705413 
L 110.607849 158.067695 
L 163.247803 104.046152 
L 69.772457 76.876559 
" style="fill: none; opacity: 0.5; stroke: #ececec; stroke-linejoin: miter"/>
   </g>
  </g>
  <g id="axis3d_1">
   <g id="line2d_1">
    <path d="M 11.519416 125.705413 
L 110.607849 158.067695 
" style="fill: none; stroke: #ffffff; stroke-width: 0.8; stroke-linecap: round"/>
   </g>
   <g id="text_1">
    <!-- x -->
    <g style="fill: #262626" transform="translate(40.437569 179.640981) scale(0.1 -0.1)">
     <defs>
      <path id="DejaVuSans-78" d="M 3513 3500 
L 2247 1797 
L 3578 0 
L 2900 0 
L 1881 1375 
L 863 0 
L 184 0 
L 1544 1831 
L 300 3500 
L 978 3500 
L 1906 2253 
L 2834 3500 
L 3513 3500 
z
" transform="scale(0.015625)"/>
     </defs>
     <use xlink:href="#DejaVuSans-78"/>
    </g>
   </g>
   <g id="Line3DCollection_1">
    <path d="M 32.783997 132.650425 
L 89.902105 82.727453 
L 89.950269 11.776364 
" style="fill: none; stroke: #d3d3d3; stroke-width: 0.8"/>
    <path d="M 59.601524 141.409029 
L 115.233937 90.090416 
L 116.388874 18.477779 
" style="fill: none; stroke: #d3d3d3; stroke-width: 0.8"/>
    <path d="M 87.207534 150.425152 
L 141.24741 97.651506 
L 143.570402 25.367504 
" style="fill: none; stroke: #d3d3d3; stroke-width: 0.8"/>
   </g>
   <g id="xtick_1">
    <g id="line2d_2">
     <path d="M 88.783784 78.616216 
" clip-path="url(#pc3e4ca7819)" style="fill: none; stroke: #d3d3d3; stroke-width: 0.8; stroke-linecap: round"/>
    </g>
    <g id="line2d_3">
     <path d="M 33.281714 132.215405 
L 31.786409 133.522347 
" style="fill: none; stroke: #808080; stroke-width: 0.8; stroke-linecap: round"/>
    </g>
    <g id="text_2">
     <!-- −0.2 -->
     <g style="fill: #808080" transform="translate(13.122679 156.149187) scale(0.1 -0.1)">
      <defs>
       <path id="DejaVuSans-2212" d="M 678 2272 
L 4684 2272 
L 4684 1741 
L 678 1741 
L 678 2272 
z
" transform="scale(0.015625)"/>
       <path id="DejaVuSans-30" d="M 2034 4250 
Q 1547 4250 1301 3770 
Q 1056 3291 1056 2328 
Q 1056 1369 1301 889 
Q 1547 409 2034 409 
Q 2525 409 2770 889 
Q 3016 1369 3016 2328 
Q 3016 3291 2770 3770 
Q 2525 4250 2034 4250 
z
M 2034 4750 
Q 2819 4750 3233 4129 
Q 3647 3509 3647 2328 
Q 3647 1150 3233 529 
Q 2819 -91 2034 -91 
Q 1250 -91 836 529 
Q 422 1150 422 2328 
Q 422 3509 836 4129 
Q 1250 4750 2034 4750 
z
" transform="scale(0.015625)"/>
       <path id="DejaVuSans-2e" d="M 684 794 
L 1344 794 
L 1344 0 
L 684 0 
L 684 794 
z
" transform="scale(0.015625)"/>
       <path id="DejaVuSans-32" d="M 1228 531 
L 3431 531 
L 3431 0 
L 469 0 
L 469 531 
Q 828 903 1448 1529 
Q 2069 2156 2228 2338 
Q 2531 2678 2651 2914 
Q 2772 3150 2772 3378 
Q 2772 3750 2511 3984 
Q 2250 4219 1831 4219 
Q 1534 4219 1204 4116 
Q 875 4013 500 3803 
L 500 4441 
Q 881 4594 1212 4672 
Q 1544 4750 1819 4750 
Q 2544 4750 2975 4387 
Q 3406 4025 3406 3419 
Q 3406 3131 3298 2873 
Q 3191 2616 2906 2266 
Q 2828 2175 2409 1742 
Q 1991 1309 1228 531 
z
" transform="scale(0.015625)"/>
      </defs>
      <use xlink:href="#DejaVuSans-2212"/>
      <use xlink:href="#DejaVuSans-30" x="83.789062"/>
      <use xlink:href="#DejaVuSans-2e" x="147.412109"/>
      <use xlink:href="#DejaVuSans-32" x="179.199219"/>
     </g>
    </g>
   </g>
   <g id="xtick_2">
    <g id="line2d_4">
     <path d="M 88.783784 78.616216 
" clip-path="url(#pc3e4ca7819)" style="fill: none; stroke: #d3d3d3; stroke-width: 0.8; stroke-linecap: round"/>
    </g>
    <g id="line2d_5">
     <path d="M 60.08687 140.961317 
L 58.628701 142.306418 
" style="fill: none; stroke: #808080; stroke-width: 0.8; stroke-linecap: round"/>
    </g>
    <g id="text_3">
     <!-- 0.0 -->
     <g style="fill: #808080" transform="translate(44.17462 165.189821) scale(0.1 -0.1)">
      <use xlink:href="#DejaVuSans-30"/>
      <use xlink:href="#DejaVuSans-2e" x="63.623047"/>
      <use xlink:href="#DejaVuSans-30" x="95.410156"/>
     </g>
    </g>
   </g>
   <g id="xtick_3">
    <g id="line2d_6">
     <path d="M 88.783784 78.616216 
" clip-path="url(#pc3e4ca7819)" style="fill: none; stroke: #d3d3d3; stroke-width: 0.8; stroke-linecap: round"/>
    </g>
    <g id="line2d_7">
     <path d="M 87.679561 149.964185 
L 86.261377 151.34914 
" style="fill: none; stroke: #808080; stroke-width: 0.8; stroke-linecap: round"/>
    </g>
    <g id="text_4">
     <!-- 0.2 -->
     <g style="fill: #808080" transform="translate(71.831118 174.497817) scale(0.1 -0.1)">
      <use xlink:href="#DejaVuSans-30"/>
      <use xlink:href="#DejaVuSans-2e" x="63.623047"/>
      <use xlink:href="#DejaVuSans-32" x="95.410156"/>
     </g>
    </g>
   </g>
  </g>
  <g id="axis3d_2">
   <g id="line2d_8">
    <path d="M 163.247803 104.046152 
L 110.607849 158.067695 
" style="fill: none; stroke: #ffffff; stroke-width: 0.8; stroke-linecap: round"/>
   </g>
   <g id="text_5">
    <!-- y -->
    <g style="fill: #262626" transform="translate(162.133934 160.636398) scale(0.1 -0.1)">
     <defs>
      <path id="DejaVuSans-79" d="M 2059 -325 
Q 1816 -950 1584 -1140 
Q 1353 -1331 966 -1331 
L 506 -1331 
L 506 -850 
L 844 -850 
Q 1081 -850 1212 -737 
Q 1344 -625 1503 -206 
L 1606 56 
L 191 3500 
L 800 3500 
L 1894 763 
L 2988 3500 
L 3597 3500 
L 2059 -325 
z
" transform="scale(0.015625)"/>
     </defs>
     <use xlink:href="#DejaVuSans-79"/>
    </g>
   </g>
   <g id="Line3DCollection_2">
    <path d="M 22.996829 40.000411 
L 25.864748 113.680872 
L 123.614094 144.720087 
" style="fill: none; stroke: #d3d3d3; stroke-width: 0.8"/>
    <path d="M 39.678012 27.827243 
L 41.769992 100.348781 
L 138.001581 129.954987 
" style="fill: none; stroke: #d3d3d3; stroke-width: 0.8"/>
    <path d="M 55.584247 16.219597 
L 56.967113 87.610252 
L 151.716152 115.880463 
" style="fill: none; stroke: #d3d3d3; stroke-width: 0.8"/>
   </g>
   <g id="xtick_4">
    <g id="line2d_9">
     <path d="M 88.783784 78.616216 
" clip-path="url(#pc3e4ca7819)" style="fill: none; stroke: #d3d3d3; stroke-width: 0.8; stroke-linecap: round"/>
    </g>
    <g id="line2d_10">
     <path d="M 122.790998 144.458722 
L 125.262383 145.243483 
" style="fill: none; stroke: #808080; stroke-width: 0.8; stroke-linecap: round"/>
    </g>
    <g id="text_6">
     <!-- −0.2 -->
     <g style="fill: #808080" transform="translate(124.167681 165.531123) scale(0.1 -0.1)">
      <use xlink:href="#DejaVuSans-2212"/>
      <use xlink:href="#DejaVuSans-30" x="83.789062"/>
      <use xlink:href="#DejaVuSans-2e" x="147.412109"/>
      <use xlink:href="#DejaVuSans-32" x="179.199219"/>
     </g>
    </g>
   </g>
   <g id="xtick_5">
    <g id="line2d_11">
     <path d="M 88.783784 78.616216 
" clip-path="url(#pc3e4ca7819)" style="fill: none; stroke: #d3d3d3; stroke-width: 0.8; stroke-linecap: round"/>
    </g>
    <g id="line2d_12">
     <path d="M 137.192233 129.705986 
L 139.622288 130.453607 
" style="fill: none; stroke: #808080; stroke-width: 0.8; stroke-linecap: round"/>
    </g>
    <g id="text_7">
     <!-- 0.0 -->
     <g style="fill: #808080" transform="translate(142.453254 150.436545) scale(0.1 -0.1)">
      <use xlink:href="#DejaVuSans-30"/>
      <use xlink:href="#DejaVuSans-2e" x="63.623047"/>
      <use xlink:href="#DejaVuSans-30" x="95.410156"/>
     </g>
    </g>
   </g>
   <g id="xtick_6">
    <g id="line2d_13">
     <path d="M 88.783784 78.616216 
" clip-path="url(#pc3e4ca7819)" style="fill: none; stroke: #d3d3d3; stroke-width: 0.8; stroke-linecap: round"/>
    </g>
    <g id="line2d_14">
     <path d="M 150.920182 115.64297 
L 153.310024 116.356025 
" style="fill: none; stroke: #808080; stroke-width: 0.8; stroke-linecap: round"/>
    </g>
    <g id="text_8">
     <!-- 0.2 -->
     <g style="fill: #808080" transform="translate(155.889155 136.048553) scale(0.1 -0.1)">
      <use xlink:href="#DejaVuSans-30"/>
      <use xlink:href="#DejaVuSans-2e" x="63.623047"/>
      <use xlink:href="#DejaVuSans-32" x="95.410156"/>
     </g>
    </g>
   </g>
  </g>
  <g id="axis3d_3">
   <g id="line2d_15">
    <path d="M 163.247803 104.046152 
L 166.583609 31.200681 
" style="fill: none; stroke: #ffffff; stroke-width: 0.8; stroke-linecap: round"/>
   </g>
   <g id="text_9">
    <!-- z -->
    <g style="fill: #262626" transform="translate(202.494937 65.789607) scale(0.1 -0.1)">
     <defs>
      <path id="DejaVuSans-7a" d="M 353 3500 
L 3084 3500 
L 3084 2975 
L 922 459 
L 3084 459 
L 3084 0 
L 275 0 
L 275 525 
L 2438 3041 
L 353 3041 
L 353 3500 
z
" transform="scale(0.015625)"/>
     </defs>
     <use xlink:href="#DejaVuSans-7a"/>
    </g>
   </g>
   <g id="Line3DCollection_3">
    <path d="M 164.04838 86.563613 
L 69.577804 59.949006 
L 10.657145 107.799794 
" style="fill: none; stroke: #d3d3d3; stroke-width: 0.8"/>
    <path d="M 164.79999 70.150362 
L 69.395236 44.072408 
L 9.846978 90.976151 
" style="fill: none; stroke: #d3d3d3; stroke-width: 0.8"/>
    <path d="M 165.566763 53.405992 
L 69.209163 27.891074 
L 9.019833 73.799933 
" style="fill: none; stroke: #d3d3d3; stroke-width: 0.8"/>
    <path d="M 166.349163 36.32038 
L 69.019485 11.396145 
L 8.175169 56.259939 
" style="fill: none; stroke: #d3d3d3; stroke-width: 0.8"/>
   </g>
   <g id="xtick_7">
    <g id="line2d_16">
     <path d="M 88.783784 78.616216 
" style="fill: none; stroke: #d3d3d3; stroke-width: 0.8; stroke-linecap: round"/>
    </g>
    <g id="line2d_17">
     <path d="M 163.255113 86.340131 
L 165.636821 87.011115 
" style="fill: none; stroke: #808080; stroke-width: 0.8; stroke-linecap: round"/>
    </g>
    <g id="text_10">
     <!-- 0.025 -->
     <g style="fill: #808080" transform="translate(168.14652 91.612981) scale(0.1 -0.1)">
      <defs>
       <path id="DejaVuSans-35" d="M 691 4666 
L 3169 4666 
L 3169 4134 
L 1269 4134 
L 1269 2991 
Q 1406 3038 1543 3061 
Q 1681 3084 1819 3084 
Q 2600 3084 3056 2656 
Q 3513 2228 3513 1497 
Q 3513 744 3044 326 
Q 2575 -91 1722 -91 
Q 1428 -91 1123 -41 
Q 819 9 494 109 
L 494 744 
Q 775 591 1075 516 
Q 1375 441 1709 441 
Q 2250 441 2565 725 
Q 2881 1009 2881 1497 
Q 2881 1984 2565 2268 
Q 2250 2553 1709 2553 
Q 1456 2553 1204 2497 
Q 953 2441 691 2322 
L 691 4666 
z
" transform="scale(0.015625)"/>
      </defs>
      <use xlink:href="#DejaVuSans-30"/>
      <use xlink:href="#DejaVuSans-2e" x="63.623047"/>
      <use xlink:href="#DejaVuSans-30" x="95.410156"/>
      <use xlink:href="#DejaVuSans-32" x="159.033203"/>
      <use xlink:href="#DejaVuSans-35" x="222.65625"/>
     </g>
    </g>
   </g>
   <g id="xtick_8">
    <g id="line2d_18">
     <path d="M 88.783784 78.616216 
" style="fill: none; stroke: #d3d3d3; stroke-width: 0.8; stroke-linecap: round"/>
    </g>
    <g id="line2d_19">
     <path d="M 163.998501 69.931283 
L 166.404915 70.589053 
" style="fill: none; stroke: #808080; stroke-width: 0.8; stroke-linecap: round"/>
    </g>
    <g id="text_11">
     <!-- 0.050 -->
     <g style="fill: #808080" transform="translate(169.077687 75.250055) scale(0.1 -0.1)">
      <use xlink:href="#DejaVuSans-30"/>
      <use xlink:href="#DejaVuSans-2e" x="63.623047"/>
      <use xlink:href="#DejaVuSans-30" x="95.410156"/>
      <use xlink:href="#DejaVuSans-35" x="159.033203"/>
      <use xlink:href="#DejaVuSans-30" x="222.65625"/>
     </g>
    </g>
   </g>
   <g id="xtick_9">
    <g id="line2d_20">
     <path d="M 88.783784 78.616216 
" style="fill: none; stroke: #d3d3d3; stroke-width: 0.8; stroke-linecap: round"/>
    </g>
    <g id="line2d_21">
     <path d="M 164.75688 53.19154 
L 167.188517 53.835423 
" style="fill: none; stroke: #808080; stroke-width: 0.8; stroke-linecap: round"/>
    </g>
    <g id="text_12">
     <!-- 0.075 -->
     <g style="fill: #808080" transform="translate(170.027552 58.558561) scale(0.1 -0.1)">
      <defs>
       <path id="DejaVuSans-37" d="M 525 4666 
L 3525 4666 
L 3525 4397 
L 1831 0 
L 1172 0 
L 2766 4134 
L 525 4134 
L 525 4666 
z
" transform="scale(0.015625)"/>
      </defs>
      <use xlink:href="#DejaVuSans-30"/>
      <use xlink:href="#DejaVuSans-2e" x="63.623047"/>
      <use xlink:href="#DejaVuSans-30" x="95.410156"/>
      <use xlink:href="#DejaVuSans-37" x="159.033203"/>
      <use xlink:href="#DejaVuSans-35" x="222.65625"/>
     </g>
    </g>
   </g>
   <g id="xtick_10">
    <g id="line2d_22">
     <path d="M 88.783784 78.616216 
" style="fill: none; stroke: #d3d3d3; stroke-width: 0.8; stroke-linecap: round"/>
    </g>
    <g id="line2d_23">
     <path d="M 165.530708 36.110789 
L 167.988102 36.74008 
" style="fill: none; stroke: #808080; stroke-width: 0.8; stroke-linecap: round"/>
    </g>
    <g id="text_13">
     <!-- 0.100 -->
     <g style="fill: #808080" transform="translate(170.996683 41.528503) scale(0.1 -0.1)">
      <defs>
       <path id="DejaVuSans-31" d="M 794 531 
L 1825 531 
L 1825 4091 
L 703 3866 
L 703 4441 
L 1819 4666 
L 2450 4666 
L 2450 531 
L 3481 531 
L 3481 0 
L 794 0 
L 794 531 
z
" transform="scale(0.015625)"/>
      </defs>
      <use xlink:href="#DejaVuSans-30"/>
      <use xlink:href="#DejaVuSans-2e" x="63.623047"/>
      <use xlink:href="#DejaVuSans-31" x="95.410156"/>
      <use xlink:href="#DejaVuSans-30" x="159.033203"/>
      <use xlink:href="#DejaVuSans-30" x="222.65625"/>
     </g>
    </g>
   </g>
  </g>
  <g id="axes_1">
   <g id="line2d_24">
    <path d="M 88.647581 46.187401 
L 87.827995 66.390217 
L 86.52308 95.121016 
L 86.597215 100.002954 
L 86.827565 102.899821 
L 87.194543 105.252358 
L 87.673221 107.136614 
L 88.228306 108.614152 
L 89.012276 110.041531 
L 89.743302 110.950678 
L 90.508275 111.576045 
L 90.67979 111.655865 
L 90.223713 111.500989 
L 89.182731 111.386669 
L 88.085386 111.478821 
L 87.037986 111.806308 
L 86.403019 112.229906 
L 86.061814 112.755836 
L 86.038765 113.180619 
L 86.225957 113.596768 
L 86.613841 113.971563 
L 87.39396 114.354253 
L 88.374105 114.550598 
L 89.412775 114.527654 
L 90.354562 114.284155 
L 91.053914 113.851356 
L 91.349489 113.437479 
L 91.414127 112.983134 
L 91.236675 112.525096 
L 90.825882 112.101143 
L 90.210033 111.747148 
L 89.151501 111.436769 
L 87.958492 111.357734 
L 86.803386 111.530867 
L 85.860378 111.940449 
L 85.384441 112.372602 
L 85.160398 112.875003 
L 85.215426 113.406149 
L 85.553739 113.92037 
L 86.155228 114.371824 
L 86.976238 114.718755 
L 87.952573 114.927534 
L 89.004599 114.975982 
L 90.043984 114.855561 
L 90.981422 114.572208 
L 91.734528 114.145798 
L 92.235079 113.608395 
L 92.434963 113.001585 
L 92.310349 112.37318 
L 91.86386 111.773593 
L 91.124693 111.252051 
L 90.146755 110.852848 
L 89.004944 110.611784 
L 87.789778 110.55303 
L 86.600654 110.68667 
L 85.538144 111.007184 
L 84.695818 111.493065 
L 84.152206 112.107705 
L 83.984613 112.565008 
L 83.985222 113.040637 
L 84.157743 113.516253 
L 84.499368 113.973009 
L 85.306493 114.582419 
L 86.412887 115.050537 
L 87.731693 115.331238 
L 89.154676 115.394289 
L 90.561613 115.228355 
L 91.831071 114.841975 
L 92.851338 114.262562 
L 93.346532 113.790039 
L 93.66872 113.267043 
L 93.803407 112.711641 
L 93.742876 112.143177 
L 93.486474 111.581635 
L 93.040661 111.047008 
L 92.418837 110.55866 
L 91.201351 109.951997 
L 89.725685 109.542218 
L 88.107004 109.367862 
L 86.475781 109.449823 
L 84.967985 109.788739 
L 83.714336 110.363789 
L 83.077313 110.858468 
L 82.632493 111.422634 
L 82.401189 112.035755 
L 82.3972 112.674658 
L 82.625997 113.314361 
L 83.084193 113.929055 
L 83.759347 114.493213 
L 84.630138 114.98275 
L 85.666955 115.37616 
L 87.451059 115.748104 
L 89.376471 115.823668 
L 91.278983 115.58841 
L 92.452517 115.264221 
L 93.495984 114.817439 
L 94.367963 114.262934 
L 95.033312 113.619477 
L 95.464466 112.908992 
L 95.642392 112.155757 
L 95.557216 111.385603 
L 95.208518 110.625115 
L 94.60534 109.90085 
L 93.765908 109.238537 
L 92.717107 108.662285 
L 91.493704 108.193767 
L 90.137328 107.851424 
L 88.695208 107.649711 
L 87.218691 107.598446 
L 85.76156 107.702285 
L 84.378213 107.960369 
L 83.121747 108.366139 
L 82.042017 108.907333 
L 81.18373 109.566146 
L 80.584638 110.319589 
L 80.273871 111.140052 
L 80.270489 111.996122 
L 80.582311 112.853674 
L 81.205096 113.677239 
L 82.122173 114.431593 
L 83.304589 115.08347 
L 84.711841 115.603259 
L 86.29324 115.966533 
L 87.989853 116.155278 
L 89.736955 116.158726 
L 91.466839 115.973753 
L 93.111777 115.604836 
L 94.606954 115.063635 
L 95.893173 114.368255 
L 96.919193 113.5423 
L 97.643607 112.613802 
L 98.036221 111.61412 
L 98.078939 110.576882 
L 97.766198 109.536977 
L 97.105022 108.529629 
L 96.114734 107.589463 
L 94.826394 106.749555 
L 93.281952 106.0404 
L 91.533104 105.488821 
L 89.639834 105.116871 
L 87.66862 104.940832 
L 85.690326 104.970398 
L 83.777847 105.208099 
L 82.003598 105.648989 
L 80.436936 106.280559 
L 79.141596 107.082817 
L 78.173231 108.028544 
L 77.577086 109.083732 
L 77.385876 110.208335 
L 77.617931 111.357425 
L 78.275708 112.482852 
L 79.344795 113.535397 
L 80.793573 114.467281 
L 82.573671 115.234819 
L 84.621376 115.800898 
L 86.860002 116.137039 
L 89.203172 116.224831 
L 91.558772 116.056651 
L 93.833273 115.635689 
L 95.936068 114.975342 
L 97.783469 114.098133 
L 99.302143 113.034279 
L 100.431807 111.820094 
L 101.127157 110.496377 
L 101.302204 109.80705 
L 101.359036 109.106927 
L 101.296614 108.401742 
L 101.114947 107.69727 
L 100.815074 106.999295 
L 99.869948 105.645853 
L 98.489577 104.386755 
L 96.717496 103.265429 
L 94.611394 102.322043 
L 92.241709 101.591931 
L 89.689761 101.103943 
L 87.045348 100.878968 
L 84.403857 100.928841 
L 81.863018 101.255745 
L 79.51948 101.852042 
L 77.465391 102.700368 
L 75.78508 103.773789 
L 75.108525 104.38391 
L 74.551897 105.035941 
L 74.122158 105.723896 
L 73.825218 106.441247 
L 73.665854 107.18095 
L 73.64763 107.935493 
L 73.772823 108.696958 
L 74.042357 109.457101 
L 74.455748 110.207445 
L 75.011051 110.939394 
L 75.704831 111.644353 
L 76.532144 112.31386 
L 78.560078 113.514154 
L 81.025739 114.480325 
L 83.838409 115.162655 
L 86.889373 115.52463 
L 90.057031 115.544732 
L 93.213085 115.217049 
L 96.229124 114.550798 
L 98.982965 113.568994 
L 101.36418 112.306496 
L 102.384871 111.583543 
L 103.278512 110.80765 
L 104.036367 109.985435 
L 104.651041 109.123798 
L 105.116514 108.229861 
L 105.428159 107.310904 
L 105.58275 106.374322 
L 105.578454 105.427577 
L 105.414814 104.478173 
L 105.092734 103.533627 
L 104.614445 102.601447 
L 103.983481 101.689112 
L 103.204653 100.804048 
L 102.284016 99.953592 
L 101.228842 99.144945 
L 98.749865 97.680878 
L 95.848883 96.464365 
L 92.623699 95.541087 
L 89.186233 94.947161 
L 85.659018 94.70694 
L 82.170907 94.831844 
L 78.852369 95.320277 
L 75.83081 96.158287 
L 74.469288 96.700836 
L 73.226188 97.32031 
L 72.11468 98.011746 
L 71.146981 98.769448 
L 70.334236 99.586967 
L 69.686413 100.457071 
L 69.212179 101.371728 
L 68.918794 102.3221 
L 68.811997 103.29857 
L 68.89589 104.290788 
L 69.172835 105.287759 
L 69.643349 106.277972 
L 70.306005 107.249555 
L 71.157356 108.190468 
L 72.191867 109.088718 
L 73.401876 109.93258 
L 74.777582 110.71083 
L 76.307077 111.412953 
L 77.976417 112.029344 
L 79.76974 112.551475 
L 81.669438 112.972028 
L 83.65637 113.284998 
L 85.710125 113.485753 
L 87.809312 113.571072 
L 89.931878 113.539143 
L 92.055433 113.389541 
L 94.157581 113.123186 
L 96.216226 112.74228 
L 98.209876 112.250232 
L 100.1179 111.651569 
L 101.920765 110.95184 
L 103.600239 110.157506 
L 105.139554 109.275831 
L 106.523547 108.314758 
L 107.738766 107.282793 
L 108.773551 106.188884 
L 109.618087 105.042306 
L 110.264439 103.852556 
L 110.706558 102.629273 
L 110.940273 101.382156 
L 110.963265 100.120929 
L 110.775022 98.855306 
L 110.376797 97.594983 
L 109.771557 96.349647 
L 108.963934 95.128975 
L 107.960192 93.942642 
L 106.768194 92.800293 
L 105.397383 91.711508 
L 103.858766 90.685716 
L 102.164891 89.73209 
L 100.329818 88.859399 
L 98.369064 88.075855 
L 96.299518 87.388935 
L 94.139331 86.805223 
L 91.907756 86.330266 
L 89.624974 85.968475 
L 87.311887 85.723057 
L 84.989889 85.596008 
L 82.680646 85.588139 
L 80.40587 85.699148 
L 78.187108 85.927715 
L 76.045549 86.271609 
L 74.001847 86.727784 
L 72.075973 87.292465 
L 70.287068 87.961193 
L 68.653318 88.728836 
L 67.191832 89.589552 
L 65.918518 90.536717 
L 64.847962 91.562817 
L 63.993298 92.65933 
L 63.366065 93.816603 
L 62.976072 95.023756 
L 62.831236 96.268641 
L 62.93743 97.537846 
L 63.298313 98.816798 
L 63.915164 100.089931 
L 64.786713 101.340945 
L 65.908977 102.55313 
L 67.27511 103.709733 
L 68.875291 104.794352 
L 70.696639 105.791326 
L 72.723209 106.686089 
L 74.936054 107.465484 
L 77.313382 108.118007 
L 79.830812 108.633987 
L 82.461719 109.00569 
L 85.177667 109.227375 
L 87.948899 109.295287 
L 90.744864 109.207615 
L 93.534748 108.964426 
L 96.287987 108.567573 
L 98.974742 108.020591 
L 101.566305 107.328591 
L 104.035452 106.498136 
L 106.356723 105.537115 
L 108.506644 104.454603 
L 110.463896 103.260709 
L 112.209447 101.966415 
L 113.726644 100.583398 
L 115.001282 99.123856 
L 116.021648 97.60033 
L 116.77854 96.025543 
L 117.265261 94.412267 
L 117.477581 92.773223 
L 117.413681 91.12103 
L 117.074073 89.468202 
L 116.461514 87.827183 
L 115.580919 86.210415 
L 114.439297 84.630408 
L 113.045709 83.099789 
L 111.411263 81.631305 
L 109.549132 80.237756 
L 107.474585 78.931836 
L 105.205009 77.725912 
L 102.759901 76.631712 
L 100.160799 75.659999 
L 97.431141 74.820229 
L 94.596052 74.120257 
L 91.682051 73.566115 
L 88.716705 73.161893 
L 85.728253 72.909729 
L 82.745221 72.809915 
L 79.796062 72.861096 
L 76.908836 73.060531 
L 74.110941 73.40439 
L 71.428908 73.888041 
L 68.888234 74.506297 
L 66.513275 75.253588 
L 64.327147 76.124035 
L 62.351652 77.111424 
L 60.607192 78.209061 
L 59.112673 79.409536 
L 57.885389 80.704421 
L 56.94088 82.083929 
L 56.292768 83.536588 
L 55.952578 85.048977 
L 55.92953 86.605577 
L 56.230318 88.18876 
L 56.858863 89.778968 
L 57.816048 91.355048 
L 59.099423 92.894758 
L 60.702903 94.375378 
L 62.616471 95.774385 
L 64.825916 97.070127 
L 67.312653 98.242436 
L 70.053667 99.273138 
L 73.021612 100.146432 
L 76.18511 100.849123 
L 79.50924 101.370732 
L 82.956201 101.703489 
L 86.486115 101.842255 
L 90.057903 101.784391 
L 93.630164 101.52961 
L 97.162015 101.079824 
L 100.613811 100.43901 
L 103.94775 99.613081 
L 107.128313 98.609771 
L 110.122586 97.438523 
L 112.900455 96.110368 
L 115.434726 94.637778 
L 117.701188 93.034497 
L 119.678658 91.315336 
L 121.349015 89.495931 
L 122.697234 87.592492 
L 123.711427 85.621535 
L 124.38285 83.599652 
L 124.7059 81.543322 
L 124.678057 79.468805 
L 124.299789 77.392132 
L 123.574432 75.329185 
L 122.508062 73.295856 
L 121.109392 71.308238 
L 119.389739 69.382781 
L 117.363046 67.536365 
L 115.04599 65.786224 
L 112.458113 64.149679 
L 109.621948 62.643707 
L 106.563074 61.284351 
L 103.310036 60.086059 
L 99.894115 59.061043 
L 96.348917 58.218734 
L 92.709825 57.56542 
L 89.013347 57.104126 
L 85.296435 56.83472 
L 81.595834 56.754262 
L 77.947515 56.857521 
L 74.386241 57.137595 
L 70.945261 57.586567 
L 67.656144 58.196116 
L 64.548715 58.958016 
L 61.651073 59.864469 
L 58.989636 60.908245 
L 56.589196 62.082598 
L 54.472938 63.380979 
L 52.662418 64.796552 
L 51.177485 66.321574 
L 50.036149 67.946701 
L 49.254413 69.66031 
L 48.846062 71.447928 
L 48.822429 73.291864 
L 49.192129 75.171126 
L 49.960746 77.061654 
L 51.13046 78.936887 
L 52.699598 80.768603 
L 54.662108 82.527954 
L 57.006996 84.186576 
L 59.717769 85.717641 
L 62.771981 87.096758 
L 66.140986 88.302627 
L 69.789976 89.317428 
L 73.678391 90.126952 
L 77.76068 90.720505 
L 81.987404 91.09068 
L 86.306561 91.233048 
L 90.665015 91.145834 
L 95.009891 90.829639 
L 99.289816 90.28723 
L 103.455911 89.523392 
L 107.462509 88.544857 
L 111.267582 87.360269 
L 114.832935 85.98017 
L 118.124209 84.416972 
L 121.110795 82.684893 
L 123.765698 80.799832 
L 126.06543 78.779165 
L 127.989954 76.64148 
L 129.522695 74.406242 
L 130.650598 72.09343 
L 131.364196 69.723197 
L 131.657666 67.315594 
L 131.528808 64.890421 
L 130.978973 62.467238 
L 130.012921 60.065537 
L 128.63868 57.705042 
L 126.867464 55.406047 
L 124.713684 53.189687 
L 122.19512 51.078008 
L 119.333182 49.093743 
L 116.153231 47.259741 
L 112.684827 45.598099 
L 108.961782 44.129062 
L 105.021947 42.86989 
L 100.906672 41.833841 
L 96.65997 41.029447 
L 92.327477 40.460185 
L 87.955317 40.1246 
L 83.58902 40.016834 
L 79.272597 40.127484 
L 75.047848 40.444667 
L 70.953948 40.955154 
L 67.027276 41.645451 
L 63.301464 42.502708 
L 59.807589 43.515394 
L 56.57443 44.673657 
L 53.628747 45.969372 
L 50.995494 47.395842 
L 48.697967 48.947202 
L 46.757841 50.617557 
L 45.195122 52.399953 
L 44.028021 54.285283 
L 43.272775 56.261263 
L 42.943449 58.311633 
L 43.051698 60.415723 
L 43.6065 62.548474 
L 44.613806 64.680976 
L 46.076063 66.781477 
L 47.991571 68.816756 
L 50.353682 70.75369 
L 53.149869 72.560808 
L 56.360801 74.209635 
L 59.959573 75.67567 
L 63.911276 76.93893 
L 68.173057 77.984053 
L 72.69477 78.800028 
L 77.420195 79.37968 
L 82.288738 79.71904 
L 87.237404 79.816723 
L 92.202837 79.673414 
L 97.123199 79.291502 
L 101.939707 78.674899 
L 106.59775 77.829 
L 111.047539 76.760766 
L 115.244342 75.478871 
L 119.148408 73.993854 
L 122.724673 72.318247 
L 125.942387 70.466616 
L 128.774757 68.455502 
L 131.19868 66.303236 
L 133.194602 64.029644 
L 134.746521 61.655654 
L 135.842073 59.202862 
L 136.472657 56.693121 
L 136.633535 54.14824 
L 136.323847 51.58986 
L 135.546533 49.039558 
L 134.308192 46.519169 
L 132.618962 44.051243 
L 130.492499 41.659514 
L 127.946143 39.369182 
L 125.001281 37.20684 
L 121.683828 35.199943 
L 118.024715 33.375771 
L 114.060176 31.760022 
L 109.831681 30.375206 
L 105.38542 29.239132 
L 100.771314 28.363718 
L 96.041676 27.754342 
L 91.24967 27.409813 
L 86.44779 27.322949 
L 81.686531 27.481654 
L 77.013387 27.870318 
L 72.472242 28.471352 
L 68.103132 29.266676 
L 63.942338 30.239018 
L 60.022698 31.372908 
L 56.374052 32.655302 
L 53.023714 34.075811 
L 49.996897 35.626508 
L 47.317026 37.301352 
L 45.005933 39.095266 
L 43.083911 41.002952 
L 41.569666 43.01756 
L 40.480195 45.129354 
L 39.830628 47.324546 
L 39.634056 49.584498 
L 39.901343 51.885416 
L 40.64088 54.198665 
L 41.858211 56.491699 
L 43.555469 58.72953 
L 45.730559 60.876541 
L 48.37609 62.898416 
L 51.478162 64.763896 
L 55.015159 66.44615 
L 58.956779 67.923603 
L 63.263549 69.180171 
L 67.887005 70.204965 
L 72.770614 70.991598 
L 77.851409 71.537281 
L 83.062145 71.841881 
L 88.333721 71.907108 
L 93.597568 71.735917 
L 98.787752 71.332166 
L 103.842603 70.700529 
L 108.705768 69.846607 
L 113.326724 68.777175 
L 117.660811 67.500483 
L 121.668932 66.026558 
L 125.317061 64.367428 
L 128.575704 62.537234 
L 131.419425 60.552195 
L 133.826513 58.430424 
L 135.778832 56.191601 
L 137.261814 53.856534 
L 138.264582 51.446695 
L 138.780082 48.983792 
L 138.805188 46.489491 
L 138.340689 43.985366 
L 137.391187 41.493104 
L 135.964938 39.034961 
L 134.073739 36.634326 
L 131.732979 34.316238 
L 128.961916 32.107622 
L 125.78417 30.037066 
L 122.228341 28.13402 
L 118.328542 26.427453 
L 114.12466 24.94413 
L 109.662142 23.706776 
L 104.991245 22.732441 
L 100.165769 22.031349 
L 95.241441 21.606416 
L 90.274165 21.45349 
L 85.31838 21.562231 
L 80.425699 21.917499 
L 75.643979 22.500992 
L 71.016831 23.292962 
L 66.583546 24.273789 
L 62.379338 25.425288 
L 58.435806 26.731646 
L 54.781481 28.179945 
L 51.442377 29.760236 
L 48.442447 31.465185 
L 45.803918 33.289328 
L 43.547472 35.227978 
L 41.692295 37.275901 
L 40.256021 39.425874 
L 39.254611 41.667307 
L 38.702217 43.985096 
L 38.611035 46.358916 
L 38.991142 48.763089 
L 39.850252 51.167113 
L 41.193328 53.536836 
L 43.021942 55.836159 
L 45.333361 58.029023 
L 48.119355 60.08144 
L 51.364865 61.963246 
L 55.046705 63.649382 
L 59.132577 65.120553 
L 63.580636 66.363246 
L 68.339802 67.369214 
L 73.350864 68.13458 
L 78.548326 68.658776 
L 83.862746 68.943505 
L 89.223306 68.991894 
L 94.560274 68.8079 
L 99.80712 68.396028 
L 104.902087 67.761312 
L 109.789158 66.909507 
L 114.418455 65.847407 
L 118.74617 64.583218 
L 122.734166 63.126893 
L 126.349421 61.490386 
L 129.563452 59.687769 
L 132.351822 57.735188 
L 134.693822 55.650656 
L 136.572328 53.4537 
L 137.973825 51.164906 
L 138.888526 48.805436 
L 139.310508 46.396621 
L 139.237792 43.959714 
L 138.672305 41.515895 
L 137.619741 39.086551 
L 136.089393 36.693789 
L 134.094046 34.361042 
L 131.65007 32.113584 
L 128.777739 29.978705 
L 125.501789 27.98539 
L 121.852056 26.163385 
L 117.864002 24.54173 
L 113.578916 23.146937 
L 109.043607 22.001122 
L 104.309539 21.120393 
L 99.431459 20.513792 
L 94.46571 20.182935 
L 89.468447 20.122391 
L 84.494008 20.320697 
L 79.593619 20.761829 
L 74.814528 21.426909 
L 70.199604 22.295925 
L 65.787342 23.349288 
L 61.612169 24.569086 
L 57.70494 25.939953 
L 54.093518 27.449508 
L 50.803313 29.088342 
L 47.857737 30.849587 
L 45.278518 32.728083 
L 43.08586 34.719232 
L 41.298473 36.817623 
L 39.93351 39.015586 
L 39.006445 41.301827 
L 38.530938 43.660347 
L 38.518698 46.069824 
L 38.979316 48.503598 
L 39.920015 50.93033 
L 41.345221 53.315298 
L 43.255886 55.622171 
L 45.648517 57.815057 
L 48.513942 59.860503 
L 51.835949 61.729202 
L 55.590012 63.397167 
L 59.742358 64.846277 
L 64.249635 66.064184 
L 69.059342 67.043703 
L 74.111065 67.781851 
L 79.338419 68.278765 
L 84.671459 68.536669 
L 90.039262 68.559049 
L 95.372361 68.350115 
L 100.604791 67.914554 
L 105.675572 67.25756 
L 105.675572 67.25756 
" clip-path="url(#pc3e4ca7819)" style="fill: none; stroke: #1f77b4; stroke-width: 1.5; stroke-linecap: round"/>
   </g>
   <g id="line2d_25">
    <path d="M 88.647581 46.187401 
L 88.608909 98.735112 
L 88.399754 109.319219 
L 88.377823 112.689636 
L 88.585556 113.180635 
L 88.787788 113.260414 
L 88.413349 113.148103 
L 88.158548 113.287459 
L 88.208625 113.443441 
L 88.517576 113.546894 
L 88.921993 113.461437 
L 89.026875 113.264958 
L 88.856957 113.089522 
L 88.430119 113.00304 
L 87.989386 113.109463 
L 87.822634 113.333966 
L 87.942393 113.54979 
L 88.294396 113.70406 
L 88.85815 113.71964 
L 89.334393 113.527698 
L 89.475843 113.245252 
L 89.33437 112.994515 
L 88.966777 112.797192 
L 88.331895 112.708452 
L 87.686781 112.827981 
L 87.315512 113.074965 
L 87.212099 113.334704 
L 87.317312 113.607971 
L 87.631332 113.84993 
L 88.261612 114.042787 
L 89.025856 114.055421 
L 89.738704 113.864154 
L 90.142378 113.5808 
L 90.310024 113.220215 
L 90.194617 112.83502 
L 89.792295 112.48601 
L 89.14626 112.232743 
L 88.343286 112.123692 
L 87.502984 112.187467 
L 86.761014 112.426553 
L 86.248351 112.814688 
L 86.078756 113.172429 
L 86.125638 113.553944 
L 86.398438 113.924426 
L 86.886095 114.247758 
L 87.812486 114.547281 
L 88.934397 114.638434 
L 90.0806 114.486065 
L 91.061558 114.092896 
L 91.580971 113.664517 
L 91.846994 113.156204 
L 91.819921 112.609151 
L 91.485031 112.070381 
L 90.855223 111.588694 
L 89.971232 111.210291 
L 88.899387 110.974452 
L 87.72703 110.90963 
L 86.5559 111.030284 
L 85.49392 111.334743 
L 84.645924 111.804307 
L 84.104011 112.403772 
L 83.948542 112.851541 
L 83.97447 113.31756 
L 84.18854 113.782619 
L 84.590022 114.226639 
L 85.522767 114.80933 
L 86.794381 115.235694 
L 88.306782 115.452299 
L 89.932498 115.422053 
L 91.525208 115.128919 
L 92.932931 114.580782 
L 93.697166 114.088707 
L 94.277878 113.512532 
L 94.644184 112.871567 
L 94.773029 112.188418 
L 94.650366 111.488133 
L 94.271971 110.797237 
L 93.643882 110.142696 
L 92.782421 109.55084 
L 91.713838 109.046311 
L 90.473561 108.651047 
L 89.105108 108.383352 
L 87.658681 108.257075 
L 86.189488 108.280925 
L 84.755836 108.457944 
L 83.417039 108.785153 
L 82.231198 109.253397 
L 81.252902 109.8474 
L 80.530921 110.546048 
L 80.105967 111.322907 
L 80.008609 112.146986 
L 80.257433 112.983741 
L 80.857571 113.796298 
L 81.799688 114.54688 
L 83.059541 115.19838 
L 84.598191 115.716018 
L 86.362921 116.069013 
L 88.288883 116.232166 
L 90.301441 116.18727 
L 92.319117 115.924247 
L 94.257023 115.441933 
L 96.03059 114.748453 
L 97.559398 113.861144 
L 98.770885 112.806032 
L 99.603739 111.616882 
L 100.010792 110.333886 
L 100.04434 109.67112 
L 99.961275 109.00205 
L 99.760566 108.332757 
L 99.007972 107.01811 
L 97.801844 105.776099 
L 96.175946 104.653835 
L 94.181503 103.694783 
L 91.885592 102.937072 
L 89.369007 102.411978 
L 86.723683 102.142626 
L 84.049746 102.142921 
L 81.45224 102.416723 
L 79.037589 102.957299 
L 76.90982 103.747063 
L 75.166631 104.757641 
L 74.467057 105.334015 
L 73.895343 105.950297 
L 73.460122 106.600165 
L 73.16888 107.276775 
L 73.027848 107.972816 
L 73.041884 108.680566 
L 73.214381 109.391959 
L 73.547178 110.098654 
L 74.040481 110.792121 
L 74.692807 111.463722 
L 75.500936 112.104802 
L 76.459891 112.706792 
L 78.801581 113.760222 
L 81.643323 114.560925 
L 84.884631 115.053642 
L 88.402403 115.194057 
L 92.055755 114.951525 
L 95.692131 114.311179 
L 99.154369 113.275255 
L 100.771674 112.614439 
L 102.288265 111.863472 
L 103.686569 111.027455 
L 104.950113 110.11246 
L 106.063727 109.125458 
L 107.013722 108.074243 
L 107.788053 106.967343 
L 108.376453 105.813922 
L 108.770545 104.623674 
L 108.963933 103.406721 
L 108.952261 102.173498 
L 108.733253 100.934642 
L 108.306726 99.700879 
L 107.674582 98.48292 
L 106.84078 97.291347 
L 105.811287 96.136517 
L 104.594011 95.028465 
L 103.198721 93.976807 
L 101.636954 92.99066 
L 99.921908 92.078561 
L 98.068325 91.248393 
L 96.09237 90.507319 
L 94.011498 89.861721 
L 91.844316 89.317147 
L 89.610445 88.878259 
L 87.330363 88.54879 
L 85.025264 88.331507 
L 82.716892 88.228175 
L 80.427383 88.239528 
L 78.179098 88.365248 
L 75.994452 88.603942 
L 73.895732 88.953133 
L 71.904917 89.409247 
L 70.043485 89.967616 
L 68.332217 90.622485 
L 66.790996 91.367018 
L 65.438598 92.193329 
L 64.292478 93.092511 
L 63.368558 94.054679 
L 62.681011 95.069025 
L 62.242046 96.12389 
L 62.061697 97.206839 
L 62.147628 98.304766 
L 62.50494 99.403999 
L 63.136006 100.490428 
L 64.040319 101.549647 
L 65.214375 102.567107 
L 66.651586 103.528284 
L 68.342231 104.418855 
L 70.27345 105.224883 
L 72.429284 105.933012 
L 74.790768 106.530653 
L 77.336068 107.00618 
L 80.040684 107.349109 
L 82.877691 107.550277 
L 85.818037 107.601997 
L 88.830883 107.498197 
L 91.88399 107.234543 
L 94.944128 106.808521 
L 97.977518 106.219506 
L 100.950287 105.46879 
L 103.82893 104.559583 
L 106.580765 103.496977 
L 109.174378 102.287886 
L 111.58004 100.940952 
L 113.770095 99.466422 
L 115.719311 97.876012 
L 117.405181 96.182733 
L 118.808176 94.400723 
L 119.911949 92.54505 
L 120.70348 90.631517 
L 121.173178 88.676463 
L 121.314922 86.696566 
L 121.126059 84.708645 
L 120.607361 82.72948 
L 119.76294 80.775636 
L 118.600129 78.863295 
L 117.12934 77.008113 
L 115.363895 75.225082 
L 113.319842 73.528408 
L 111.015754 71.931407 
L 108.47253 70.44641 
L 105.713176 69.084683 
L 102.762599 67.856358 
L 99.647391 66.770372 
L 96.395617 65.834422 
L 93.036609 65.054917 
L 89.600753 64.436943 
L 86.119292 63.984237 
L 82.624109 63.699152 
L 79.147533 63.582642 
L 75.722121 63.634236 
L 72.380446 63.852026 
L 69.154881 64.232653 
L 66.077363 64.771298 
L 63.179155 65.461677 
L 60.490598 66.296045 
L 58.040838 67.265207 
L 55.857553 68.358532 
L 53.96666 69.56399 
L 52.392009 70.868192 
L 51.155074 72.256455 
L 50.274629 73.712873 
L 49.766433 75.220421 
L 49.64291 76.761076 
L 49.91285 78.315955 
L 50.58112 79.865491 
L 51.648413 81.389616 
L 53.111027 82.867988 
L 54.960706 84.280221 
L 57.184523 85.606145 
L 59.764845 86.826084 
L 62.679369 87.921134 
L 65.901239 88.87346 
L 69.399258 89.666578 
L 73.138184 90.285638 
L 77.079116 90.717686 
L 81.179968 90.951904 
L 85.396013 90.979818 
L 89.680503 90.795463 
L 93.985335 90.395514 
L 98.261755 89.779359 
L 102.461085 88.949127 
L 106.535447 87.909659 
L 110.438471 86.668435 
L 114.12597 85.235442 
L 117.556557 83.623009 
L 120.692207 81.845593 
L 123.498729 79.91954 
L 125.946165 77.862817 
L 128.009091 75.694726 
L 129.666833 73.435617 
L 130.903589 71.106587 
L 131.70847 68.729195 
L 132.075459 66.325182 
L 132.003306 63.91621 
L 131.495356 61.523621 
L 130.559335 59.168214 
L 129.20709 56.870058 
L 127.45431 54.648314 
L 125.320214 52.521097 
L 122.827245 50.505354 
L 120.000746 48.616763 
L 116.868649 46.869655 
L 113.461168 45.276955 
L 109.810507 43.850132 
L 105.950571 42.599168 
L 101.916705 41.532534 
L 97.74544 40.657167 
L 93.474249 39.978467 
L 89.141321 39.50028 
L 84.785339 39.224898 
L 80.445262 39.153048 
L 76.160116 39.283889 
L 71.968773 39.615004 
L 67.909731 40.142395 
L 64.020884 40.860479 
L 60.339278 41.762083 
L 56.900852 42.838441 
L 53.740162 44.079206 
L 50.890085 45.472457 
L 48.381503 47.004724 
L 46.242971 48.661026 
L 44.500365 50.424921 
L 43.176522 52.278578 
L 42.290861 54.202874 
L 41.85902 56.177509 
L 41.892484 58.181157 
L 42.398239 60.191638 
L 43.378457 62.186125 
L 44.830213 64.141379 
L 46.745267 66.034012 
L 49.109905 67.840778 
L 51.904864 69.53888 
L 55.10535 71.106301 
L 58.681156 72.522137 
L 62.59688 73.766937 
L 66.812269 74.823032 
L 71.282662 75.674847 
L 75.95954 76.309191 
L 80.79118 76.715502 
L 85.723383 76.88606 
L 90.70028 76.816133 
L 95.66517 76.504084 
L 100.561397 75.951397 
L 105.333217 75.162658 
L 109.926648 74.145462 
L 114.290267 72.910273 
L 118.375951 71.470219 
L 122.139524 69.84085 
L 125.541316 68.039857 
L 128.546604 66.086757 
L 131.125956 64.002567 
L 133.25545 61.809465 
L 134.916791 59.530452 
L 136.097321 57.189018 
L 136.789942 54.808834 
L 136.992951 52.41345 
L 136.709813 50.026035 
L 135.948874 47.669133 
L 134.723036 45.364453 
L 133.049401 43.132691 
L 130.948899 40.993383 
L 128.445911 38.964778 
L 125.567893 37.063745 
L 122.34501 35.3057 
L 118.80978 33.704554 
L 114.99675 32.272672 
L 110.942175 31.020856 
L 106.683731 29.958325 
L 102.260247 29.092715 
L 97.711451 28.430076 
L 93.077738 27.974871 
L 88.399949 27.729985 
L 83.719162 27.696718 
L 79.076485 27.874796 
L 74.512853 28.26236 
L 70.06882 28.855968 
L 65.784347 29.650589 
L 61.698575 30.639601 
L 57.849579 31.814783 
L 54.274117 33.166316 
L 51.00734 34.682791 
L 48.0825 36.351217 
L 45.530616 38.15705 
L 43.380139 40.084228 
L 41.656583 42.11523 
L 40.382154 44.231149 
L 39.575363 46.411799 
L 39.250647 48.635839 
L 39.417992 50.880933 
L 40.08259 53.123936 
L 41.244513 55.341117 
L 42.89845 57.508409 
L 45.033497 59.601689 
L 47.633025 61.597083 
L 50.674636 63.471296 
L 54.13022 65.201952 
L 57.966117 66.767944 
L 62.143404 68.149781 
L 66.618282 69.329926 
L 71.342595 70.293113 
L 76.264447 71.026627 
L 81.328917 71.520552 
L 86.478857 71.767963 
L 91.655746 71.765064 
L 96.800594 71.511267 
L 101.854843 71.009201 
L 106.761277 70.264658 
L 111.464877 69.286486 
L 115.913634 68.086403 
L 120.059277 66.678783 
L 123.857899 65.080375 
L 127.27049 63.310004 
L 130.263341 61.388242 
L 132.80834 59.337056 
L 134.883147 57.179462 
L 136.471256 54.939181 
L 137.561958 52.640301 
L 138.150211 50.306963 
L 138.236433 47.963072 
L 137.826227 45.632032 
L 136.93006 43.336519 
L 135.562904 41.098276 
L 133.743856 38.937944 
L 131.495743 36.874928 
L 128.84473 34.927283 
L 125.819933 33.111628 
L 122.453046 31.443084 
L 118.777988 29.935231 
L 114.830566 28.600078 
L 110.648173 27.448049 
L 106.269495 26.48797 
L 101.73425 25.727077 
L 97.082943 25.17101 
L 92.35664 24.823825 
L 87.596752 24.687994 
L 82.84483 24.764408 
L 78.142369 25.052381 
L 73.530603 25.549646 
L 69.050302 26.252354 
L 64.741563 27.155069 
L 60.64358 28.25076 
L 56.794401 29.530801 
L 53.230669 30.984968 
L 49.987339 32.601448 
L 47.097371 34.366848 
L 44.591401 36.266225 
L 42.497395 38.283128 
L 40.840281 40.399652 
L 39.64157 42.596526 
L 38.918971 44.853212 
L 38.686009 47.148047 
L 38.951651 49.458402 
L 39.719964 51.760879 
L 40.989799 54.031537 
L 42.754537 56.246153 
L 45.001892 58.380507 
L 47.713799 60.410697 
L 50.866386 62.313468 
L 54.430057 64.066563 
L 58.369682 65.649073 
L 62.644906 67.041783 
L 67.21057 68.227512 
L 72.01726 69.191423 
L 77.011942 69.921302 
L 82.138715 70.407791 
L 87.339618 70.644575 
L 92.555514 70.628508 
L 97.726994 70.359676 
L 102.795296 69.841392 
L 107.703205 69.080135 
L 112.395913 68.085417 
L 116.821817 66.869598 
L 120.933229 65.447644 
L 124.686987 63.836853 
L 128.044964 62.056537 
L 130.974448 60.127685 
L 133.44841 58.072617 
L 135.445653 55.91463 
L 136.950853 53.677653 
L 137.954494 51.385912 
L 138.45272 49.063624 
L 138.447103 46.734706 
L 137.944363 44.422521 
L 136.956023 42.14965 
L 135.49805 39.937701 
L 133.590461 37.807145 
L 131.256927 35.777182 
L 128.524379 33.86564 
L 125.42262 32.08889 
L 121.983956 30.461792 
L 118.242841 28.997653 
L 114.23555 27.708202 
L 109.999874 26.603575 
L 105.574837 25.692315 
L 101.000438 24.981365 
L 96.317408 24.476079 
L 91.566987 24.180222 
L 86.790715 24.095979 
L 82.030227 24.223953 
L 77.327055 24.563171 
L 72.722427 25.111077 
L 68.257067 25.863537 
L 63.970975 26.814822 
L 59.903203 27.957615 
L 56.091609 29.282999 
L 52.572592 30.780462 
L 49.380804 32.437902 
L 46.548843 34.241643 
L 44.10692 36.176463 
L 42.082507 38.225639 
L 40.499967 40.371008 
L 39.380176 42.593053 
L 38.740133 44.871017 
L 38.592582 47.183037 
L 38.945642 49.506318 
L 39.802464 51.817332 
L 41.160931 54.092049 
L 43.01341 56.306208 
L 45.346566 58.435601 
L 48.141266 60.456395 
L 51.372574 62.345466 
L 55.009844 64.08075 
L 59.016939 65.64159 
L 63.352555 67.009091 
L 67.97067 68.166446 
L 72.821106 69.099247 
L 77.85019 69.795756 
L 83.001514 70.247132 
L 88.216767 70.447603 
L 93.436617 70.394588 
L 98.601625 70.088742 
L 103.653163 69.533948 
L 108.53431 68.737236 
L 113.190704 67.708642 
L 117.571324 66.461016 
L 121.629186 65.009771 
L 125.321942 63.372597 
L 128.612354 61.569144 
L 131.468669 59.620678 
L 133.864856 57.549737 
L 135.780738 55.379773 
L 137.202012 53.134808 
L 138.120171 50.83911 
L 138.532335 48.516881 
L 138.441013 46.191975 
L 137.853807 43.887652 
L 136.783064 41.62635 
L 135.245508 39.429503 
L 133.261847 37.317383 
L 130.856372 35.308968 
L 128.05657 33.421848 
L 124.892729 31.672144 
L 121.397577 30.074456 
L 117.605933 28.641826 
L 113.554377 27.385712 
L 109.280957 26.315982 
L 104.824904 25.440904 
L 100.226378 24.767152 
L 95.526232 24.299808 
L 90.765788 24.042368 
L 85.986632 23.996745 
L 81.230408 24.163276 
L 76.538624 24.540717 
L 71.952447 25.126244 
L 67.512503 25.91545 
L 63.258655 26.902339 
L 59.229779 28.079319 
L 55.463509 29.437202 
L 51.995975 30.965205 
L 48.861507 32.650955 
L 46.092327 34.480512 
L 43.718209 36.438392 
L 41.766126 38.507623 
L 40.259879 40.669803 
L 39.219715 42.905195 
L 38.661937 45.192841 
L 38.598528 47.510705 
L 39.036787 49.835849 
L 39.978989 52.14464 
L 41.422092 54.412988 
L 43.357502 56.616614 
L 45.770898 58.731349 
L 48.642154 60.733452 
L 51.945345 62.59995 
L 55.648867 64.30899 
L 59.71567 65.840188 
L 64.103601 67.174974 
L 68.76588 68.296927 
L 73.651672 69.192071 
L 78.70677 69.849142 
L 83.874371 70.259807 
L 89.095911 70.418829 
L 94.311963 70.324173 
L 99.463145 69.977044 
L 104.491046 69.381867 
L 109.339107 68.546193 
L 113.95347 67.480555 
L 118.28374 66.198256 
L 122.283673 64.715119 
L 125.911749 63.049193 
L 129.131632 61.22043 
L 131.912519 59.250339 
L 134.229363 57.161641 
L 136.062982 54.977911 
L 137.400064 52.723241 
L 138.233068 50.42191 
L 138.560047 48.098085 
L 138.384399 45.775539 
L 137.714556 43.477409 
L 136.563637 41.225979 
L 134.949073 39.0425 
L 132.89221 36.947034 
L 130.417913 34.958333 
L 127.554172 33.093745 
L 124.331719 31.369138 
L 120.783664 29.798853 
L 116.94515 28.395665 
L 112.853031 27.170767 
L 108.545575 26.133755 
L 104.062193 25.292631 
L 99.44318 24.653798 
L 94.729488 24.222071 
L 89.962501 24.00068 
L 85.18383 23.991272 
L 80.435113 24.193916 
L 75.757817 24.607103 
L 71.193034 25.227742 
L 66.781278 26.05116 
L 62.562264 27.071091 
L 58.574679 28.279674 
L 54.855924 29.667453 
L 51.441846 31.223375 
L 48.366445 32.934803 
L 45.661555 34.787532 
L 43.356504 36.765825 
L 41.477758 38.852464 
L 40.048547 41.028814 
L 39.088479 43.274924 
L 38.613158 45.569641 
L 38.633802 47.890766 
L 39.156886 50.215228 
L 40.183808 52.519297 
L 41.710607 54.778833 
L 43.72773 56.969552 
L 46.219885 59.067334 
L 49.16596 61.048543 
L 52.539064 62.89037 
L 56.306654 64.571183 
L 60.43079 66.070878 
L 64.868503 67.371227 
L 69.572283 68.456198 
L 74.490675 69.312253 
L 79.568977 69.928609 
L 84.750025 70.297444 
L 89.975045 70.414054 
L 95.184549 70.276949 
L 100.319255 69.887879 
L 105.320998 69.251803 
L 110.133616 68.376788 
L 110.133616 68.376788 
" clip-path="url(#pc3e4ca7819)" style="fill: none; stroke: #ff7f0e; stroke-opacity: 0.5; stroke-width: 1.5; stroke-linecap: round"/>
   </g>
  </g>
 </g>
 <defs>
  <clipPath id="pc3e4ca7819">
   <rect x="-1.8" y="-7.2" width="176.4" height="176.4"/>
  </clipPath>
 </defs>
</svg>
