<?xml version="1.0" encoding="utf-8" standalone="no"?>
<!DOCTYPE svg PUBLIC "-//W3C//DTD SVG 1.1//EN"
  "http://www.w3.org/Graphics/SVG/1.1/DTD/svg11.dtd">
<svg xmlns:xlink="http://www.w3.org/1999/xlink" width="216pt" height="180pt" viewBox="0 0 216 180" xmlns="http://www.w3.org/2000/svg" version="1.1">
 <metadata>
  <rdf:RDF xmlns:dc="http://purl.org/dc/elements/1.1/" xmlns:cc="http://creativecommons.org/ns#" xmlns:rdf="http://www.w3.org/1999/02/22-rdf-syntax-ns#">
   <cc:Work>
    <dc:type rdf:resource="http://purl.org/dc/dcmitype/StillImage"/>
    <dc:date>2023-06-14T18:46:35.568307</dc:date>
    <dc:format>image/svg+xml</dc:format>
    <dc:creator>
     <cc:Agent>
      <dc:title>Matplotlib v3.7.0, https://matplotlib.org/</dc:title>
     </cc:Agent>
    </dc:creator>
   </cc:Work>
  </rdf:RDF>
 </metadata>
 <defs>
  <style type="text/css">*{stroke-linejoin: round; stroke-linecap: butt}</style>
 </defs>
 <g id="figure_1">
  <g id="patch_1">
   <path d="M 0 180 
L 216 180 
L 216 0 
L 0 0 
z
" style="fill: #ffffff"/>
  </g>
  <g id="patch_2">
   <path d="M -1 169.2 
L 174.6 169.2 
L 174.6 -1 
" style="fill: none"/>
  </g>
  <g id="pane3d_1">
   <g id="patch_3">
    <path d="M 11.519416 125.705413 
L 69.772457 76.876559 
L 68.962684 6.456623 
L 7.921935 51.001381 
" style="fill: none; opacity: 0.5; stroke: #f2f2f2; stroke-linejoin: miter"/>
   </g>
  </g>
  <g id="pane3d_2">
   <g id="patch_4">
    <path d="M 69.772457 76.876559 
L 163.247803 104.046152 
L 166.583609 31.200681 
L 68.962684 6.456623 
" style="fill: none; opacity: 0.5; stroke: #e6e6e6; stroke-linejoin: miter"/>
   </g>
  </g>
  <g id="pane3d_3">
   <g id="patch_5">
    <path d="M 11.519416 125.705413 
L 110.607849 158.067695 
L 163.247803 104.046152 
L 69.772457 76.876559 
" style="fill: none; opacity: 0.5; stroke: #ececec; stroke-linejoin: miter"/>
   </g>
  </g>
  <g id="axis3d_1">
   <g id="line2d_1">
    <path d="M 11.519416 125.705413 
L 110.607849 158.067695 
" style="fill: none; stroke: #ffffff; stroke-width: 0.8; stroke-linecap: round"/>
   </g>
   <g id="text_1">
    <!-- x -->
    <g style="fill: #262626" transform="translate(40.437569 179.640981) scale(0.1 -0.1)">
     <defs>
      <path id="DejaVuSans-78" d="M 3513 3500 
L 2247 1797 
L 3578 0 
L 2900 0 
L 1881 1375 
L 863 0 
L 184 0 
L 1544 1831 
L 300 3500 
L 978 3500 
L 1906 2253 
L 2834 3500 
L 3513 3500 
z
" transform="scale(0.015625)"/>
     </defs>
     <use xlink:href="#DejaVuSans-78"/>
    </g>
   </g>
   <g id="Line3DCollection_1">
    <path d="M 32.825873 132.664102 
L 89.941708 82.738964 
L 89.991579 11.786834 
" style="fill: none; stroke: #d3d3d3; stroke-width: 0.8"/>
    <path d="M 59.773715 141.465267 
L 115.396393 90.137636 
L 116.558525 18.520781 
" style="fill: none; stroke: #d3d3d3; stroke-width: 0.8"/>
    <path d="M 87.51776 150.526472 
L 141.539377 97.736369 
L 143.87566 25.444878 
" style="fill: none; stroke: #d3d3d3; stroke-width: 0.8"/>
   </g>
   <g id="xtick_1">
    <g id="line2d_2">
     <path d="M 88.783784 78.616216 
" clip-path="url(#pb2ef0b8e1e)" style="fill: none; stroke: #d3d3d3; stroke-width: 0.8; stroke-linecap: round"/>
    </g>
    <g id="line2d_3">
     <path d="M 33.323571 132.229062 
L 31.828323 133.536064 
" style="fill: none; stroke: #808080; stroke-width: 0.8; stroke-linecap: round"/>
    </g>
    <g id="text_2">
     <!-- −0.2 -->
     <g style="fill: #808080" transform="translate(13.164621 156.163303) scale(0.1 -0.1)">
      <defs>
       <path id="DejaVuSans-2212" d="M 678 2272 
L 4684 2272 
L 4684 1741 
L 678 1741 
L 678 2272 
z
" transform="scale(0.015625)"/>
       <path id="DejaVuSans-30" d="M 2034 4250 
Q 1547 4250 1301 3770 
Q 1056 3291 1056 2328 
Q 1056 1369 1301 889 
Q 1547 409 2034 409 
Q 2525 409 2770 889 
Q 3016 1369 3016 2328 
Q 3016 3291 2770 3770 
Q 2525 4250 2034 4250 
z
M 2034 4750 
Q 2819 4750 3233 4129 
Q 3647 3509 3647 2328 
Q 3647 1150 3233 529 
Q 2819 -91 2034 -91 
Q 1250 -91 836 529 
Q 422 1150 422 2328 
Q 422 3509 836 4129 
Q 1250 4750 2034 4750 
z
" transform="scale(0.015625)"/>
       <path id="DejaVuSans-2e" d="M 684 794 
L 1344 794 
L 1344 0 
L 684 0 
L 684 794 
z
" transform="scale(0.015625)"/>
       <path id="DejaVuSans-32" d="M 1228 531 
L 3431 531 
L 3431 0 
L 469 0 
L 469 531 
Q 828 903 1448 1529 
Q 2069 2156 2228 2338 
Q 2531 2678 2651 2914 
Q 2772 3150 2772 3378 
Q 2772 3750 2511 3984 
Q 2250 4219 1831 4219 
Q 1534 4219 1204 4116 
Q 875 4013 500 3803 
L 500 4441 
Q 881 4594 1212 4672 
Q 1544 4750 1819 4750 
Q 2544 4750 2975 4387 
Q 3406 4025 3406 3419 
Q 3406 3131 3298 2873 
Q 3191 2616 2906 2266 
Q 2828 2175 2409 1742 
Q 1991 1309 1228 531 
z
" transform="scale(0.015625)"/>
      </defs>
      <use xlink:href="#DejaVuSans-2212"/>
      <use xlink:href="#DejaVuSans-30" x="83.789062"/>
      <use xlink:href="#DejaVuSans-2e" x="147.412109"/>
      <use xlink:href="#DejaVuSans-32" x="179.199219"/>
     </g>
    </g>
   </g>
   <g id="xtick_2">
    <g id="line2d_4">
     <path d="M 88.783784 78.616216 
" clip-path="url(#pb2ef0b8e1e)" style="fill: none; stroke: #d3d3d3; stroke-width: 0.8; stroke-linecap: round"/>
    </g>
    <g id="line2d_5">
     <path d="M 60.258979 141.017473 
L 58.801055 142.36282 
" style="fill: none; stroke: #808080; stroke-width: 0.8; stroke-linecap: round"/>
    </g>
    <g id="text_3">
     <!-- 0.0 -->
     <g style="fill: #808080" transform="translate(44.347111 165.247875) scale(0.1 -0.1)">
      <use xlink:href="#DejaVuSans-30"/>
      <use xlink:href="#DejaVuSans-2e" x="63.623047"/>
      <use xlink:href="#DejaVuSans-30" x="95.410156"/>
     </g>
    </g>
   </g>
   <g id="xtick_3">
    <g id="line2d_6">
     <path d="M 88.783784 78.616216 
" clip-path="url(#pb2ef0b8e1e)" style="fill: none; stroke: #d3d3d3; stroke-width: 0.8; stroke-linecap: round"/>
    </g>
    <g id="line2d_7">
     <path d="M 87.989635 150.065355 
L 86.57191 151.450761 
" style="fill: none; stroke: #808080; stroke-width: 0.8; stroke-linecap: round"/>
    </g>
    <g id="text_4">
     <!-- 0.2 -->
     <g style="fill: #808080" transform="translate(72.141938 174.602426) scale(0.1 -0.1)">
      <use xlink:href="#DejaVuSans-30"/>
      <use xlink:href="#DejaVuSans-2e" x="63.623047"/>
      <use xlink:href="#DejaVuSans-32" x="95.410156"/>
     </g>
    </g>
   </g>
  </g>
  <g id="axis3d_2">
   <g id="line2d_8">
    <path d="M 163.247803 104.046152 
L 110.607849 158.067695 
" style="fill: none; stroke: #ffffff; stroke-width: 0.8; stroke-linecap: round"/>
   </g>
   <g id="text_5">
    <!-- y -->
    <g style="fill: #262626" transform="translate(162.133934 160.636398) scale(0.1 -0.1)">
     <defs>
      <path id="DejaVuSans-79" d="M 2059 -325 
Q 1816 -950 1584 -1140 
Q 1353 -1331 966 -1331 
L 506 -1331 
L 506 -850 
L 844 -850 
Q 1081 -850 1212 -737 
Q 1344 -625 1503 -206 
L 1606 56 
L 191 3500 
L 800 3500 
L 1894 763 
L 2988 3500 
L 3597 3500 
L 2059 -325 
z
" transform="scale(0.015625)"/>
     </defs>
     <use xlink:href="#DejaVuSans-79"/>
    </g>
   </g>
   <g id="Line3DCollection_2">
    <path d="M 22.557914 40.32071 
L 25.446695 114.031292 
L 123.235466 145.108653 
" style="fill: none; stroke: #d3d3d3; stroke-width: 0.8"/>
    <path d="M 39.798503 27.739314 
L 41.884999 100.25238 
L 138.105487 129.848353 
" style="fill: none; stroke: #d3d3d3; stroke-width: 0.8"/>
    <path d="M 56.212447 15.761165 
L 57.567925 87.10664 
L 152.257704 115.324698 
" style="fill: none; stroke: #d3d3d3; stroke-width: 0.8"/>
   </g>
   <g id="xtick_4">
    <g id="line2d_9">
     <path d="M 88.783784 78.616216 
" clip-path="url(#pb2ef0b8e1e)" style="fill: none; stroke: #d3d3d3; stroke-width: 0.8; stroke-linecap: round"/>
    </g>
    <g id="line2d_10">
     <path d="M 122.412012 144.846959 
L 124.884473 145.632709 
" style="fill: none; stroke: #808080; stroke-width: 0.8; stroke-linecap: round"/>
    </g>
    <g id="text_6">
     <!-- −0.2 -->
     <g style="fill: #808080" transform="translate(123.796723 165.928368) scale(0.1 -0.1)">
      <use xlink:href="#DejaVuSans-2212"/>
      <use xlink:href="#DejaVuSans-30" x="83.789062"/>
      <use xlink:href="#DejaVuSans-2e" x="147.412109"/>
      <use xlink:href="#DejaVuSans-32" x="179.199219"/>
     </g>
    </g>
   </g>
   <g id="xtick_5">
    <g id="line2d_11">
     <path d="M 88.783784 78.616216 
" clip-path="url(#pb2ef0b8e1e)" style="fill: none; stroke: #d3d3d3; stroke-width: 0.8; stroke-linecap: round"/>
    </g>
    <g id="line2d_12">
     <path d="M 137.29624 129.599441 
L 139.725993 130.346796 
" style="fill: none; stroke: #808080; stroke-width: 0.8; stroke-linecap: round"/>
    </g>
    <g id="text_7">
     <!-- 0.0 -->
     <g style="fill: #808080" transform="translate(142.555051 150.327535) scale(0.1 -0.1)">
      <use xlink:href="#DejaVuSans-30"/>
      <use xlink:href="#DejaVuSans-2e" x="63.623047"/>
      <use xlink:href="#DejaVuSans-30" x="95.410156"/>
     </g>
    </g>
   </g>
   <g id="xtick_6">
    <g id="line2d_13">
     <path d="M 88.783784 78.616216 
" clip-path="url(#pb2ef0b8e1e)" style="fill: none; stroke: #d3d3d3; stroke-width: 0.8; stroke-linecap: round"/>
    </g>
    <g id="line2d_14">
     <path d="M 151.462268 115.087653 
L 153.850505 115.799361 
" style="fill: none; stroke: #808080; stroke-width: 0.8; stroke-linecap: round"/>
    </g>
    <g id="text_8">
     <!-- 0.2 -->
     <g style="fill: #808080" transform="translate(156.419691 135.480422) scale(0.1 -0.1)">
      <use xlink:href="#DejaVuSans-30"/>
      <use xlink:href="#DejaVuSans-2e" x="63.623047"/>
      <use xlink:href="#DejaVuSans-32" x="95.410156"/>
     </g>
    </g>
   </g>
  </g>
  <g id="axis3d_3">
   <g id="line2d_15">
    <path d="M 163.247803 104.046152 
L 166.583609 31.200681 
" style="fill: none; stroke: #ffffff; stroke-width: 0.8; stroke-linecap: round"/>
   </g>
   <g id="text_9">
    <!-- z -->
    <g style="fill: #262626" transform="translate(202.494937 65.789607) scale(0.1 -0.1)">
     <defs>
      <path id="DejaVuSans-7a" d="M 353 3500 
L 3084 3500 
L 3084 2975 
L 922 459 
L 3084 459 
L 3084 0 
L 275 0 
L 275 525 
L 2438 3041 
L 353 3041 
L 353 3500 
z
" transform="scale(0.015625)"/>
     </defs>
     <use xlink:href="#DejaVuSans-7a"/>
    </g>
   </g>
   <g id="Line3DCollection_3">
    <path d="M 163.322897 102.406296 
L 69.754191 75.288031 
L 11.438565 124.026488 
" style="fill: none; stroke: #d3d3d3; stroke-width: 0.8"/>
    <path d="M 164.095847 85.527054 
L 69.566269 58.945892 
L 10.605998 106.737695 
" style="fill: none; stroke: #d3d3d3; stroke-width: 0.8"/>
    <path d="M 164.884995 68.294079 
L 69.374599 42.277768 
L 9.755312 89.072649 
" style="fill: none; stroke: #d3d3d3; stroke-width: 0.8"/>
    <path d="M 165.690856 50.696131 
L 69.179067 25.273809 
L 8.885909 71.018931 
" style="fill: none; stroke: #d3d3d3; stroke-width: 0.8"/>
    <path d="M 166.513967 32.721494 
L 68.979555 7.923761 
L 7.997165 52.563573 
" style="fill: none; stroke: #d3d3d3; stroke-width: 0.8"/>
   </g>
   <g id="xtick_7">
    <g id="line2d_16">
     <path d="M 88.783784 78.616216 
" style="fill: none; stroke: #d3d3d3; stroke-width: 0.8; stroke-linecap: round"/>
    </g>
    <g id="line2d_17">
     <path d="M 162.537561 102.178688 
L 164.895439 102.862053 
" style="fill: none; stroke: #808080; stroke-width: 0.8; stroke-linecap: round"/>
    </g>
    <g id="text_10">
     <!-- 0.000 -->
     <g style="fill: #808080" transform="translate(167.247643 107.408504) scale(0.1 -0.1)">
      <use xlink:href="#DejaVuSans-30"/>
      <use xlink:href="#DejaVuSans-2e" x="63.623047"/>
      <use xlink:href="#DejaVuSans-30" x="95.410156"/>
      <use xlink:href="#DejaVuSans-30" x="159.033203"/>
      <use xlink:href="#DejaVuSans-30" x="222.65625"/>
     </g>
    </g>
   </g>
   <g id="xtick_8">
    <g id="line2d_18">
     <path d="M 88.783784 78.616216 
" style="fill: none; stroke: #d3d3d3; stroke-width: 0.8; stroke-linecap: round"/>
    </g>
    <g id="line2d_19">
     <path d="M 163.30206 85.303846 
L 165.685328 85.974007 
" style="fill: none; stroke: #808080; stroke-width: 0.8; stroke-linecap: round"/>
    </g>
    <g id="text_11">
     <!-- 0.025 -->
     <g style="fill: #808080" transform="translate(168.20533 90.579556) scale(0.1 -0.1)">
      <defs>
       <path id="DejaVuSans-35" d="M 691 4666 
L 3169 4666 
L 3169 4134 
L 1269 4134 
L 1269 2991 
Q 1406 3038 1543 3061 
Q 1681 3084 1819 3084 
Q 2600 3084 3056 2656 
Q 3513 2228 3513 1497 
Q 3513 744 3044 326 
Q 2575 -91 1722 -91 
Q 1428 -91 1123 -41 
Q 819 9 494 109 
L 494 744 
Q 775 591 1075 516 
Q 1375 441 1709 441 
Q 2250 441 2565 725 
Q 2881 1009 2881 1497 
Q 2881 1984 2565 2268 
Q 2250 2553 1709 2553 
Q 1456 2553 1204 2497 
Q 953 2441 691 2322 
L 691 4666 
z
" transform="scale(0.015625)"/>
      </defs>
      <use xlink:href="#DejaVuSans-30"/>
      <use xlink:href="#DejaVuSans-2e" x="63.623047"/>
      <use xlink:href="#DejaVuSans-30" x="95.410156"/>
      <use xlink:href="#DejaVuSans-32" x="159.033203"/>
      <use xlink:href="#DejaVuSans-35" x="222.65625"/>
     </g>
    </g>
   </g>
   <g id="xtick_9">
    <g id="line2d_20">
     <path d="M 88.783784 78.616216 
" style="fill: none; stroke: #d3d3d3; stroke-width: 0.8; stroke-linecap: round"/>
    </g>
    <g id="line2d_21">
     <path d="M 164.082575 68.075505 
L 166.491785 68.731756 
" style="fill: none; stroke: #808080; stroke-width: 0.8; stroke-linecap: round"/>
    </g>
    <g id="text_12">
     <!-- 0.050 -->
     <g style="fill: #808080" transform="translate(169.182994 73.399556) scale(0.1 -0.1)">
      <use xlink:href="#DejaVuSans-30"/>
      <use xlink:href="#DejaVuSans-2e" x="63.623047"/>
      <use xlink:href="#DejaVuSans-30" x="95.410156"/>
      <use xlink:href="#DejaVuSans-35" x="159.033203"/>
      <use xlink:href="#DejaVuSans-30" x="222.65625"/>
     </g>
    </g>
   </g>
   <g id="xtick_10">
    <g id="line2d_22">
     <path d="M 88.783784 78.616216 
" style="fill: none; stroke: #d3d3d3; stroke-width: 0.8; stroke-linecap: round"/>
    </g>
    <g id="line2d_23">
     <path d="M 164.879613 50.482441 
L 167.315334 51.124038 
" style="fill: none; stroke: #808080; stroke-width: 0.8; stroke-linecap: round"/>
    </g>
    <g id="text_13">
     <!-- 0.075 -->
     <g style="fill: #808080" transform="translate(170.181267 55.857404) scale(0.1 -0.1)">
      <defs>
       <path id="DejaVuSans-37" d="M 525 4666 
L 3525 4666 
L 3525 4397 
L 1831 0 
L 1172 0 
L 2766 4134 
L 525 4134 
L 525 4666 
z
" transform="scale(0.015625)"/>
      </defs>
      <use xlink:href="#DejaVuSans-30"/>
      <use xlink:href="#DejaVuSans-2e" x="63.623047"/>
      <use xlink:href="#DejaVuSans-30" x="95.410156"/>
      <use xlink:href="#DejaVuSans-37" x="159.033203"/>
      <use xlink:href="#DejaVuSans-35" x="222.65625"/>
     </g>
    </g>
   </g>
   <g id="xtick_11">
    <g id="line2d_24">
     <path d="M 88.783784 78.616216 
" style="fill: none; stroke: #d3d3d3; stroke-width: 0.8; stroke-linecap: round"/>
    </g>
    <g id="line2d_25">
     <path d="M 165.693705 32.512946 
L 168.156527 33.139109 
" style="fill: none; stroke: #808080; stroke-width: 0.8; stroke-linecap: round"/>
    </g>
    <g id="text_14">
     <!-- 0.100 -->
     <g style="fill: #808080" transform="translate(171.200807 37.941525) scale(0.1 -0.1)">
      <defs>
       <path id="DejaVuSans-31" d="M 794 531 
L 1825 531 
L 1825 4091 
L 703 3866 
L 703 4441 
L 1819 4666 
L 2450 4666 
L 2450 531 
L 3481 531 
L 3481 0 
L 794 0 
L 794 531 
z
" transform="scale(0.015625)"/>
      </defs>
      <use xlink:href="#DejaVuSans-30"/>
      <use xlink:href="#DejaVuSans-2e" x="63.623047"/>
      <use xlink:href="#DejaVuSans-31" x="95.410156"/>
      <use xlink:href="#DejaVuSans-30" x="159.033203"/>
      <use xlink:href="#DejaVuSans-30" x="222.65625"/>
     </g>
    </g>
   </g>
  </g>
  <g id="axes_1">
   <g id="line2d_26">
    <path d="M 88.937378 42.494346 
L 88.965308 70.3961 
L 88.78459 88.864469 
L 88.540834 108.550426 
L 88.792168 110.685667 
L 89.071001 112.585628 
L 88.327695 113.169664 
L 88.441766 113.372864 
L 88.797014 113.492289 
L 89.224066 113.415737 
L 89.354645 113.208341 
L 89.218853 113.047471 
L 88.794919 112.941976 
L 88.333169 113.031361 
L 88.135694 113.241664 
L 88.219638 113.446586 
L 88.592305 113.61008 
L 89.1688 113.592809 
L 89.529446 113.391437 
L 89.571066 113.145822 
L 89.385692 112.955456 
L 88.953895 112.818822 
L 88.351762 112.853124 
L 87.925672 113.090715 
L 87.863019 113.330404 
L 88.04031 113.562773 
L 88.520355 113.746634 
L 89.137707 113.755974 
L 89.670873 113.573842 
L 89.900454 113.312936 
L 89.888144 113.076171 
L 89.618306 112.807952 
L 89.119643 112.636325 
L 88.386068 112.624818 
L 87.754834 112.838367 
L 87.484932 113.143569 
L 87.502416 113.420293 
L 87.73724 113.677503 
L 88.288816 113.905004 
L 89.005101 113.967389 
L 89.708557 113.837256 
L 90.214838 113.536265 
L 90.379264 113.217127 
L 90.287136 112.882103 
L 89.942428 112.58632 
L 89.230201 112.347751 
L 88.364617 112.316707 
L 87.56141 112.511011 
L 87.108015 112.804368 
L 86.91561 113.174486 
L 86.971161 113.467776 
L 87.313311 113.828251 
L 87.919667 114.097023 
L 88.700974 114.223696 
L 89.734674 114.140017 
L 90.44033 113.881655 
L 90.903168 113.488801 
L 91.036136 113.140997 
L 90.963323 112.782017 
L 90.684869 112.445177 
L 90.029782 112.08537 
L 89.139786 111.884219 
L 88.15201 111.880201 
L 87.226055 112.080757 
L 86.518924 112.46036 
L 86.21114 112.830092 
L 86.135647 113.237516 
L 86.307858 113.645711 
L 86.720388 114.016167 
L 87.342862 114.312182 
L 88.408082 114.537952 
L 89.587443 114.526942 
L 90.688077 114.266885 
L 91.347543 113.92486 
L 91.788947 113.486405 
L 91.963758 112.989568 
L 91.847116 112.479255 
L 91.44072 112.002861 
L 90.773281 111.6056 
L 89.89855 111.326104 
L 88.891124 111.192726 
L 87.497098 111.26677 
L 86.538678 111.509341 
L 85.758406 111.893139 
L 85.235835 112.38657 
L 85.029376 112.947136 
L 85.083876 113.333566 
L 85.294686 113.711652 
L 85.891084 114.228028 
L 86.782069 114.637914 
L 87.893896 114.897069 
L 89.129094 114.97324 
L 90.374912 114.850101 
L 91.513666 114.52993 
L 92.434033 114.034534 
L 93.042107 113.40402 
L 93.239597 112.935294 
L 93.256192 112.449639 
L 93.08758 111.966998 
L 92.737036 111.507451 
L 91.895725 110.903259 
L 90.737235 110.451657 
L 89.358731 110.196637 
L 87.880665 110.164668 
L 86.436895 110.362451 
L 85.163171 110.77634 
L 84.184763 111.373294 
L 83.748492 111.848816 
L 83.512287 112.365326 
L 83.490884 112.902346 
L 83.690392 113.437988 
L 84.107809 113.949719 
L 84.730905 114.415209 
L 85.538491 114.813209 
L 87.029241 115.242291 
L 88.738141 115.424862 
L 90.5106 115.329586 
L 92.180308 114.950605 
L 93.155665 114.550136 
L 93.969326 114.04637 
L 94.583814 113.457862 
L 94.969479 112.807441 
L 95.105876 112.121177 
L 94.982687 111.427131 
L 94.600197 110.75402 
L 93.969311 110.129854 
L 93.111165 109.580668 
L 92.056373 109.129394 
L 90.843971 108.794932 
L 89.520079 108.59144 
L 87.439182 108.549816 
L 85.412049 108.828612 
L 84.184859 109.183292 
L 83.119909 109.658901 
L 82.265455 110.237887 
L 81.662306 110.898405 
L 81.341842 111.614956 
L 81.3244 112.359154 
L 81.618108 113.100627 
L 82.218235 113.808048 
L 83.107077 114.45027 
L 84.254361 114.997528 
L 85.618168 115.422692 
L 87.146341 115.702518 
L 88.778365 115.818854 
L 90.447687 115.759772 
L 92.084436 115.520526 
L 93.618441 115.104266 
L 94.982422 114.52237 
L 96.115158 113.794315 
L 96.964414 112.947003 
L 97.489432 112.013572 
L 97.66279 111.031742 
L 97.471561 110.041872 
L 96.91774 109.084885 
L 96.018019 108.200254 
L 94.803023 107.424173 
L 93.316142 106.788027 
L 91.612037 106.317201 
L 89.754886 106.030233 
L 87.816352 105.938314 
L 85.873235 106.045088 
L 84.004786 106.346705 
L 82.289678 106.832084 
L 80.802733 107.48331 
L 79.611549 108.276153 
L 78.773264 109.180689 
L 78.331677 110.16206 
L 78.314952 111.181416 
L 78.734038 112.197069 
L 79.581865 113.165851 
L 80.833295 114.044654 
L 82.445764 114.792061 
L 84.360545 115.370031 
L 86.504625 115.745604 
L 88.79318 115.8926 
L 91.132692 115.793289 
L 93.424724 115.439959 
L 95.570251 114.836199 
L 97.474375 113.997656 
L 99.051078 112.952034 
L 100.227628 111.738144 
L 100.647666 111.082815 
L 100.948214 110.404006 
L 101.125356 109.708718 
L 101.176482 109.00416 
L 101.100303 108.297653 
L 100.896839 107.596521 
L 100.567401 106.907998 
L 100.114555 106.239133 
L 98.8549 104.987167 
L 97.161624 103.890368 
L 95.095094 102.991069 
L 92.730273 102.322755 
L 90.154603 101.909165 
L 87.465657 101.763874 
L 84.768395 101.890287 
L 82.171797 102.281975 
L 79.784812 102.923205 
L 77.711698 103.789569 
L 76.047042 104.848599 
L 75.393591 105.438168 
L 74.87089 106.060402 
L 74.485972 106.709277 
L 74.244478 107.378412 
L 74.150587 108.061116 
L 74.20696 108.75043 
L 74.414704 109.439184 
L 74.773363 110.120064 
L 75.280912 110.78567 
L 75.933782 111.428593 
L 76.726882 112.041481 
L 78.70606 113.148455 
L 81.149078 114.051591 
L 83.965727 114.701196 
L 87.047536 115.055017 
L 90.271138 115.080489 
L 93.502659 114.757191 
L 96.603271 114.07936 
L 99.435826 113.058082 
L 100.710978 112.427055 
L 101.872158 111.722525 
L 102.905939 110.950912 
L 103.80032 110.119627 
L 104.544882 109.236956 
L 105.130922 108.311929 
L 105.551546 107.354163 
L 105.801721 106.373699 
L 105.878298 105.38083 
L 105.779993 104.385938 
L 105.507341 103.399329 
L 105.062631 102.431093 
L 104.449813 101.49097 
L 103.674405 100.588236 
L 102.74339 99.731612 
L 101.665113 98.929179 
L 100.44919 98.188316 
L 99.106422 97.515647 
L 97.648713 96.916999 
L 94.441223 95.960928 
L 90.941607 95.349894 
L 87.278301 95.09999 
L 83.590712 95.213961 
L 80.025505 95.682053 
L 76.73139 96.483088 
L 73.852475 97.585471 
L 72.610631 98.237113 
L 71.52068 98.947837 
L 70.595959 99.710994 
L 69.84814 100.519359 
L 69.287065 101.365148 
L 68.920616 102.240046 
L 68.754617 103.135255 
L 68.792777 104.041558 
L 69.036675 104.9494 
L 69.485756 105.848984 
L 70.137376 106.730376 
L 70.986845 107.583615 
L 72.027494 108.398825 
L 73.250742 109.166312 
L 74.646171 109.876662 
L 76.201592 110.520819 
L 77.90312 111.090153 
L 79.735243 111.576525 
L 81.6809 111.972345 
L 83.721565 112.270637 
L 85.837358 112.465114 
L 88.007169 112.550265 
L 90.208818 112.521466 
L 92.419255 112.375108 
L 94.614796 112.108738 
L 96.771396 111.721208 
L 98.864967 111.212825 
L 100.871722 110.585476 
L 102.768544 109.842725 
L 104.533362 108.989875 
L 106.14553 108.033955 
L 107.58617 106.983665 
L 108.838498 105.849249 
L 109.888083 104.642304 
L 110.723053 103.375553 
L 111.334225 102.062571 
L 111.715167 100.717499 
L 111.862179 99.354755 
L 111.774223 97.988754 
L 111.452778 96.633666 
L 110.901676 95.3032 
L 110.126892 94.010429 
L 109.136342 92.767655 
L 107.939675 91.586311 
L 106.548089 90.476888 
L 104.974175 89.44888 
L 103.231797 88.510751 
L 101.335998 87.669901 
L 99.302952 86.93265 
L 97.149935 86.30421 
L 94.895313 85.788685 
L 92.558536 85.389062 
L 90.160131 85.107225 
L 87.721665 84.943983 
L 85.265681 84.899115 
L 82.815593 84.971424 
L 80.395526 85.158814 
L 78.030104 85.458355 
L 75.74418 85.86636 
L 73.562526 86.378439 
L 71.509472 86.989532 
L 69.608519 87.693926 
L 67.881948 88.485237 
L 66.350428 89.356375 
L 65.032655 90.299492 
L 63.945027 91.305935 
L 63.101384 92.366208 
L 62.51281 93.469963 
L 62.187514 94.606034 
L 62.130774 95.762513 
L 62.34496 96.926878 
L 62.8296 98.086157 
L 63.581497 99.227128 
L 64.594866 100.336528 
L 65.861478 101.401254 
L 67.370802 102.408552 
L 69.110128 103.346158 
L 71.064658 104.202406 
L 73.21758 104.966285 
L 75.550108 105.627465 
L 78.041509 106.176297 
L 80.66913 106.603804 
L 83.408425 106.901697 
L 86.233026 107.06242 
L 89.114849 107.079243 
L 92.024268 106.946422 
L 94.930365 106.659416 
L 97.801263 106.215152 
L 100.604541 105.612317 
L 103.307733 104.851661 
L 105.878891 103.936253 
L 108.287189 102.871683 
L 110.503545 101.666157 
L 112.501235 100.330474 
L 114.256442 98.877877 
L 115.748743 97.323767 
L 116.961467 95.685319 
L 117.881935 93.981009 
L 118.501552 92.230114 
L 118.815756 90.452195 
L 118.82384 88.666638 
L 118.528659 86.892244 
L 117.936258 85.146924 
L 117.055456 83.447473 
L 115.897416 81.809444 
L 114.475235 80.247082 
L 112.80359 78.773317 
L 110.898449 77.399783 
L 108.776871 76.136842 
L 106.456893 74.9936 
L 103.957498 73.977907 
L 101.298655 73.096335 
L 98.501418 72.354153 
L 95.588046 71.755292 
L 92.582138 71.302327 
L 89.508737 70.99649 
L 86.394396 70.837712 
L 83.26717 70.824705 
L 80.15652 70.955088 
L 77.093116 71.225523 
L 74.108536 71.63187 
L 71.234853 72.169317 
L 68.504141 72.832474 
L 65.947896 73.615404 
L 63.596418 74.511586 
L 61.478181 75.513811 
L 59.619218 76.614012 
L 58.042583 77.803073 
L 56.767885 79.070634 
L 55.810959 80.404946 
L 55.183661 81.792799 
L 54.893806 83.219559 
L 54.945232 84.669324 
L 55.337982 86.125196 
L 56.068561 87.56964 
L 57.13025 88.984906 
L 58.513423 90.353458 
L 60.205849 91.658373 
L 62.192944 92.883655 
L 64.457949 94.014457 
L 66.982029 95.03717 
L 69.744292 95.939408 
L 72.721739 96.709893 
L 75.889163 97.338284 
L 79.219024 97.814997 
L 82.681346 98.13106 
L 86.24365 98.278053 
L 89.870976 98.248171 
L 93.526026 98.034429 
L 97.169437 97.631006 
L 100.760229 97.033719 
L 104.256399 96.240565 
L 107.615678 95.252289 
L 110.796409 94.072887 
L 113.758512 92.709987 
L 116.464487 91.175032 
L 118.880378 89.483223 
L 120.976652 87.653214 
L 122.728917 85.706567 
L 124.118432 83.667024 
L 125.132368 81.559651 
L 125.763814 79.409973 
L 126.011524 77.243144 
L 125.879446 75.083258 
L 125.376081 72.952837 
L 124.513724 70.872518 
L 123.307677 68.860922 
L 121.775477 66.934696 
L 119.93622 65.108649 
L 117.810009 63.395946 
L 115.417562 61.808305 
L 112.779993 60.356143 
L 109.918762 59.048665 
L 106.855768 57.893871 
L 103.61357 56.898497 
L 100.215689 56.067919 
L 96.68695 55.406044 
L 93.053827 54.915225 
L 89.344737 54.596233 
L 85.590259 54.448311 
L 81.823218 54.469305 
L 78.078629 54.655883 
L 74.393468 55.003798 
L 70.806265 55.508168 
L 67.356524 56.163718 
L 64.08399 56.964934 
L 61.027793 57.906088 
L 58.225524 58.98111 
L 55.712291 60.183311 
L 53.519817 61.504979 
L 51.675652 62.936912 
L 50.202547 64.467961 
L 49.118029 66.084665 
L 48.434216 67.771057 
L 48.157848 69.508698 
L 48.290548 71.276949 
L 48.829237 73.05349 
L 49.766679 74.815003 
L 51.092067 76.53797 
L 52.791605 78.199472 
L 54.849012 79.777905 
L 57.24592 81.253528 
L 59.962113 82.608791 
L 62.975612 83.828421 
L 66.262608 84.899279 
L 69.797252 85.810031 
L 73.551368 86.550699 
L 77.494097 87.112192 
L 81.591572 87.48589 
L 85.806645 87.663388 
L 90.098748 87.636447 
L 94.423943 87.397217 
L 98.735182 86.938714 
L 102.982838 86.255535 
L 107.115488 85.344728 
L 111.080955 84.206717 
L 114.827563 82.846142 
L 118.305537 81.272497 
L 121.468471 79.500445 
L 124.274761 77.549734 
L 126.688888 75.444688 
L 128.682451 73.213313 
L 130.23486 70.886109 
L 131.333637 68.494729 
L 131.974293 66.070633 
L 132.159811 63.643894 
L 131.899794 61.242274 
L 131.209363 58.890633 
L 130.107927 56.610707 
L 128.617926 54.421181 
L 126.763676 52.33802 
L 124.570376 50.374922 
L 124.570376 50.374922 
" clip-path="url(#pb2ef0b8e1e)" style="fill: none; stroke: #1f77b4; stroke-width: 1.5; stroke-linecap: round"/>
   </g>
   <g id="line2d_27">
    <path d="M 88.937378 42.494346 
L 88.891408 97.721827 
L 88.677937 108.825499 
L 88.651657 112.356007 
L 88.860928 112.868553 
L 89.067887 112.953257 
L 88.693052 112.842069 
L 88.432216 112.986792 
L 88.479394 113.146463 
L 88.78969 113.250551 
L 89.200839 113.160262 
L 89.311386 112.958065 
L 89.143391 112.77924 
L 88.713407 112.693305 
L 88.264993 112.80528 
L 88.091143 113.036567 
L 88.207412 113.25709 
L 88.560085 113.412971 
L 89.130155 113.425223 
L 89.616342 113.225214 
L 89.765789 112.934581 
L 89.628242 112.678319 
L 89.260684 112.478303 
L 88.620195 112.391358 
L 87.964624 112.518046 
L 87.583261 112.773666 
L 87.47266 113.040641 
L 87.572862 113.32013 
L 87.885071 113.566147 
L 88.518402 113.759715 
L 89.291355 113.76756 
L 90.016873 113.56661 
L 90.431614 113.273262 
L 90.609243 112.902251 
L 90.55596 112.605283 
L 90.227262 112.234174 
L 89.634794 111.948334 
L 88.854894 111.800714 
L 88.000873 111.825734 
L 87.20756 112.03219 
L 86.611179 112.399673 
L 86.363999 112.752521 
L 86.327621 113.139452 
L 86.518881 113.525809 
L 86.934466 113.874656 
L 87.7921 114.219969 
L 88.889198 114.364195 
L 90.062402 114.263788 
L 91.121873 113.912557 
L 91.728838 113.504216 
L 92.099663 113.003304 
L 92.185866 112.449576 
L 91.962715 111.889846 
L 91.432718 111.374005 
L 90.626764 110.950597 
L 89.602775 110.662347 
L 88.441928 110.541998 
L 87.24269 110.608825 
L 86.113058 110.866111 
L 85.161517 111.299841 
L 84.487321 111.878787 
L 84.232681 112.32286 
L 84.154903 112.793792 
L 84.264811 113.272543 
L 84.565971 113.738844 
L 85.054177 114.171981 
L 86.108347 114.715411 
L 87.480176 115.076653 
L 89.060565 115.20655 
L 90.713438 115.074684 
L 92.287354 114.673566 
L 93.629457 114.020731 
L 94.325559 113.465557 
L 94.821047 112.834876 
L 95.088012 112.150462 
L 95.107041 111.43699 
L 94.868253 110.721086 
L 94.37195 110.030294 
L 93.628875 109.391987 
L 92.660057 108.832273 
L 91.496275 108.374939 
L 90.177144 108.040455 
L 88.749874 107.845087 
L 87.267725 107.800132 
L 85.788206 107.911306 
L 84.371069 108.178303 
L 83.076123 108.594545 
L 81.960952 109.147139 
L 81.078574 109.817061 
L 80.475116 110.579575 
L 80.187597 111.404901 
L 80.241905 112.259129 
L 80.65107 113.105381 
L 81.413953 113.905174 
L 82.514461 114.619982 
L 83.921372 115.212899 
L 85.588866 115.650364 
L 87.457788 115.903838 
L 89.457645 115.951342 
L 91.509281 115.778764 
L 93.528113 115.380828 
L 95.427781 114.761675 
L 97.124004 113.934983 
L 98.538437 112.923628 
L 99.602306 111.758893 
L 100.259626 110.479266 
L 100.422497 109.809996 
L 100.469846 109.128914 
L 100.399336 108.442135 
L 100.209796 107.755897 
L 99.901242 107.076501 
L 98.93312 105.76336 
L 97.518816 104.551962 
L 95.700456 103.488622 
L 93.537148 102.614923 
L 91.103118 101.966085 
L 88.485359 101.569554 
L 85.780876 101.443797 
L 83.093572 101.597362 
L 80.53083 102.028188 
L 78.199843 102.7232 
L 76.203712 103.658227 
L 74.637403 104.798258 
L 74.041871 105.431398 
L 73.58363 106.098099 
L 73.270438 106.7913 
L 73.108791 107.503466 
L 73.103807 108.226646 
L 73.259132 108.952543 
L 73.576837 109.672589 
L 74.05735 110.378027 
L 74.699383 111.059999 
L 75.499889 111.709641 
L 76.454036 112.318183 
L 77.555197 112.877054 
L 80.163214 113.813109 
L 83.236304 114.45719 
L 86.661766 114.758525 
L 90.305932 114.679205 
L 94.019723 114.196662 
L 97.645378 113.305402 
L 99.375315 112.709681 
L 101.02394 112.01784 
L 102.57247 111.234199 
L 104.003003 110.364123 
L 105.298739 109.413963 
L 106.444182 108.390982 
L 107.425325 107.303274 
L 108.229812 106.159671 
L 108.847075 104.96964 
L 109.268453 103.743179 
L 109.48728 102.490703 
L 109.498948 101.222932 
L 109.300945 99.950772 
L 108.892875 98.685206 
L 108.276445 97.437181 
L 107.455442 96.217496 
L 106.435681 95.036704 
L 105.22494 93.905011 
L 103.832883 92.832183 
L 102.270963 91.827464 
L 100.552321 90.899489 
L 98.691667 90.056218 
L 96.705157 89.304868 
L 94.610268 88.651847 
L 92.425656 88.102708 
L 90.171016 87.662091 
L 87.866938 87.333688 
L 85.534752 87.120198 
L 83.196375 87.023295 
L 80.874148 87.043602 
L 78.59067 87.180665 
L 76.368627 87.432934 
L 74.23061 87.79775 
L 72.198937 88.271337 
L 70.295455 88.848803 
L 68.541343 89.524144 
L 66.95691 90.290259 
L 65.561379 91.138972 
L 64.372676 92.061069 
L 63.407206 93.046338 
L 62.679633 94.083629 
L 62.202659 95.160924 
L 61.986812 96.265424 
L 62.040233 97.383642 
L 62.368481 98.501528 
L 62.974361 99.60459 
L 63.857759 100.678046 
L 65.015521 101.706983 
L 66.441358 102.676525 
L 68.125787 103.572024 
L 70.056121 104.379245 
L 72.216505 105.084566 
L 74.588003 105.675178 
L 77.148738 106.139276 
L 79.874087 106.466254 
L 82.736929 106.646878 
L 85.707945 106.673452 
L 88.755963 106.539956 
L 91.84835 106.242167 
L 94.951426 105.777748 
L 98.030923 105.146306 
L 101.05244 104.349426 
L 103.981918 103.390657 
L 106.786106 102.275482 
L 109.433012 101.01124 
L 111.892334 99.607033 
L 114.135849 98.073591 
L 116.137778 96.423128 
L 117.875085 94.669161 
L 119.327745 92.826334 
L 120.478939 90.91021 
L 121.315217 88.937075 
L 121.826584 86.923728 
L 122.006555 84.887279 
L 121.852148 82.84495 
L 121.363839 80.813887 
L 120.545479 78.810986 
L 119.404174 76.85272 
L 117.95014 74.954997 
L 116.196535 73.133021 
L 114.15927 71.401172 
L 111.856816 69.772902 
L 109.309998 68.26064 
L 106.54178 66.875716 
L 103.577059 65.628295 
L 100.442452 64.527313 
L 97.166084 63.580438 
L 93.777383 62.794021 
L 90.306877 62.173065 
L 86.785985 61.721196 
L 83.246822 61.440634 
L 79.721989 61.332174 
L 76.244366 61.395163 
L 72.846906 61.627487 
L 69.562408 62.025556 
L 66.423292 62.584296 
L 63.461356 63.297144 
L 60.707525 64.156049 
L 58.191581 65.151482 
L 55.94188 66.272456 
L 53.985053 67.506555 
L 52.345699 68.839982 
L 51.046061 70.257616 
L 50.105698 71.743096 
L 49.54115 73.278919 
L 49.365614 74.846567 
L 49.588624 76.426654 
L 50.215752 77.999097 
L 51.248338 79.543322 
L 52.683261 81.038481 
L 54.512756 82.463703 
L 56.724291 83.798361 
L 59.30052 85.022355 
L 62.219304 86.116406 
L 65.45383 87.062358 
L 68.972813 87.843473 
L 72.740794 88.444721 
L 76.71853 88.853049 
L 80.863473 89.057626 
L 85.130328 89.050054 
L 89.47168 88.824537 
L 93.83868 88.378008 
L 98.181763 87.710199 
L 102.451396 86.823662 
L 106.598816 85.723736 
L 110.576763 84.418455 
L 114.340162 82.918418 
L 117.846765 81.236599 
L 121.057718 79.388124 
L 123.938051 77.390023 
L 126.457077 75.26094 
L 128.588706 73.020847 
L 130.31166 70.690733 
L 131.609597 68.292306 
L 132.471148 65.847688 
L 132.889882 63.379138 
L 132.864186 60.908785 
L 132.397099 58.458377 
L 131.496087 56.049069 
L 130.172782 53.701222 
L 128.442696 51.434241 
L 126.324911 49.266428 
L 123.841761 47.214866 
L 121.018518 45.295325 
L 117.883071 43.522187 
L 114.465622 41.908385 
L 110.798394 40.465365 
L 106.915346 39.203054 
L 102.851914 38.129838 
L 98.644755 37.252548 
L 94.331515 36.576452 
L 89.9506 36.105246 
L 85.54096 35.841051 
L 81.141877 35.784406 
L 76.792756 35.93426 
L 72.532907 36.287971 
L 68.401334 36.841297 
L 64.436497 37.588386 
L 60.676074 38.521776 
L 57.156703 39.632392 
L 53.913697 40.909547 
L 50.980749 42.340958 
L 48.389609 43.912763 
L 46.169743 45.609562 
L 44.347971 47.414465 
L 42.948093 49.309165 
L 41.990502 51.274039 
L 41.491797 53.288262 
L 41.464397 55.329965 
L 41.91618 57.376412 
L 42.85014 59.404213 
L 44.264092 61.389569 
L 46.15043 63.308542 
L 48.495957 65.137358 
L 51.281785 66.852728 
L 54.48335 68.432184 
L 58.070511 69.854433 
L 62.007775 71.099701 
L 66.254629 72.150076 
L 70.765993 72.989832 
L 75.492779 73.605718 
L 80.382556 73.987218 
L 85.380299 74.126759 
L 90.429207 74.019861 
L 95.471576 73.665234 
L 100.449689 73.064808 
L 105.306715 72.223693 
L 109.987575 71.150085 
L 114.439772 69.855102 
L 118.614141 68.352574 
L 122.465519 66.658782 
L 125.953312 64.792155 
L 129.041953 62.772953 
L 131.701247 60.622915 
L 133.906592 58.364913 
L 135.639096 56.022601 
L 136.88559 53.620077 
L 137.638538 51.181558 
L 137.895874 48.731086 
L 137.660759 46.292255 
L 136.941296 43.887971 
L 135.750193 41.540244 
L 134.104401 39.27001 
L 132.024739 37.096982 
L 129.535509 35.039539 
L 126.664121 33.114629 
L 123.440718 31.337703 
L 119.89783 29.722666 
L 116.070039 28.281846 
L 111.993666 27.025974 
L 107.706486 25.964176 
L 103.247461 25.10397 
L 98.656491 24.451269 
L 93.974186 24.010381 
L 89.241651 23.784021 
L 84.500277 23.773305 
L 79.791543 23.977755 
L 75.156816 24.395299 
L 70.637146 25.022264 
L 66.273054 25.85337 
L 62.10431 26.881724 
L 58.169687 28.098819 
L 54.506705 29.494522 
L 51.151343 31.057087 
L 48.137735 32.77316 
L 45.49784 34.627802 
L 43.261084 36.60453 
L 41.45399 38.68537 
L 40.099788 40.850936 
L 39.218014 43.080533 
L 38.824112 45.352287 
L 38.929042 47.643311 
L 39.538905 49.929896 
L 40.654612 52.187739 
L 42.271589 54.392205 
L 44.37955 56.518616 
L 46.96235 58.542568 
L 49.997921 60.440271 
L 53.45832 62.188905 
L 57.309886 63.766978 
L 61.513513 65.154693 
L 66.025053 66.334286 
L 70.79583 67.29036 
L 75.773275 68.01017 
L 80.901656 68.483876 
L 86.122893 68.704733 
L 91.377443 68.669233 
L 96.605218 68.377173 
L 101.746524 67.831661 
L 106.742988 67.039054 
L 111.538442 66.008826 
L 116.07976 64.753385 
L 120.317599 63.287826 
L 124.207049 61.629648 
L 127.708172 59.798433 
L 130.786419 57.815496 
L 133.412928 55.70353 
L 135.564697 53.486244 
L 137.224653 51.188003 
L 138.381602 48.833485 
L 139.030097 46.447368 
L 139.170222 44.054025 
L 138.80731 41.677267 
L 137.951615 39.340109 
L 136.617944 37.064571 
L 134.825272 34.871513 
L 132.596341 32.780498 
L 129.957259 30.809689 
L 126.937118 28.975766 
L 123.567612 27.293868 
L 119.882687 25.777557 
L 115.918206 24.438791 
L 111.711644 23.287912 
L 107.301801 22.333647 
L 102.728546 21.583105 
L 98.032573 21.041787 
L 93.255178 20.713591 
L 88.438053 20.600814 
L 83.623083 20.704164 
L 78.852153 21.022752 
L 74.166948 21.554098 
L 69.608757 22.294122 
L 65.218257 23.237137 
L 61.035294 24.375848 
L 57.098637 25.701339 
L 53.445716 27.203074 
L 50.112333 28.868901 
L 47.132355 30.685063 
L 44.537374 32.636224 
L 42.356353 34.705506 
L 40.615242 36.874551 
L 39.33659 39.123603 
L 38.539138 41.431616 
L 38.237423 43.77639 
L 38.441383 46.134743 
L 39.155989 48.482711 
L 40.380919 50.795781 
L 42.110272 53.049162 
L 44.332359 55.218084 
L 47.029566 57.278117 
L 50.178319 59.205521 
L 53.749152 60.977602 
L 57.70689 62.57308 
L 62.010955 63.972446 
L 66.615793 65.158311 
L 71.471425 66.115725 
L 76.524104 66.832464 
L 81.717076 67.299266 
L 86.991416 67.51002 
L 92.286931 67.461888 
L 97.543092 67.155362 
L 102.699978 66.594255 
L 107.699207 65.785624 
L 112.484816 64.739627 
L 117.004079 63.469321 
L 121.208242 61.990407 
L 125.053149 60.320934 
L 128.499757 58.480973 
L 131.514527 56.492258 
L 134.069695 54.377831 
L 136.143424 52.161673 
L 137.719838 49.868349 
L 138.788954 47.522669 
L 139.346527 45.14937 
L 139.393813 42.772827 
L 138.937276 40.416797 
L 137.988241 38.104189 
L 136.562522 35.856875 
L 134.680023 33.695532 
L 132.364339 31.639508 
L 129.642357 29.706729 
L 126.543861 27.913618 
L 123.101165 26.275046 
L 119.348757 24.804293 
L 115.322976 23.513032 
L 111.061701 22.411316 
L 106.604081 21.507579 
L 101.99027 20.80864 
L 97.261198 20.319706 
L 92.458346 20.044385 
L 87.623546 19.984685 
L 82.798775 20.141023 
L 78.025969 20.512224 
L 73.34682 21.095515 
L 68.802581 21.886528 
L 64.433848 22.879287 
L 60.28034 24.066203 
L 56.380646 25.438069 
L 52.771966 26.984056 
L 49.489812 28.691722 
L 46.5677 30.547022 
L 44.036807 32.534335 
L 41.925608 34.636508 
L 40.259497 36.834922 
L 39.060387 39.109572 
L 38.34631 41.439184 
L 38.131018 43.80136 
L 38.42359 46.172747 
L 39.228075 48.529248 
L 40.543163 50.846266 
L 42.36192 53.098971 
L 44.671584 55.262607 
L 47.453449 57.312821 
L 50.682847 59.226011 
L 54.329231 60.979686 
L 58.356386 62.552832 
L 62.722755 63.926271 
L 67.381886 65.083006 
L 72.283009 66.008533 
L 77.371709 66.691122 
L 82.590702 67.122046 
L 87.880691 67.295757 
L 93.181274 67.209998 
L 98.431879 66.86585 
L 103.572716 66.267708 
L 108.545693 65.423195 
L 113.295294 64.343003 
L 117.769385 63.040688 
L 121.919926 61.5324 
L 125.703583 59.836587 
L 129.082219 57.973653 
L 132.02327 55.965611 
L 134.499985 53.835711 
L 136.491562 51.608084 
L 137.983163 49.30738 
L 138.965826 46.958439 
L 139.436299 44.585973 
L 139.396785 42.214285 
L 138.85464 39.867015 
L 137.822023 37.566919 
L 136.315513 35.335685 
L 134.355713 33.193779 
L 131.966844 31.160321 
L 129.176352 29.252988 
L 126.014514 27.487946 
L 122.514071 25.879799 
L 118.709879 24.441558 
L 114.638589 23.184619 
L 110.338342 22.118762 
L 105.848498 21.252145 
L 101.209381 20.591311 
L 96.46205 20.141196 
L 91.648077 19.905133 
L 86.809347 19.884861 
L 81.987859 20.080525 
L 77.225531 20.490676 
L 72.564009 21.112274 
L 68.044456 21.940675 
L 63.707347 22.969628 
L 59.592233 24.191272 
L 55.737494 25.596121 
L 52.180068 27.173074 
L 48.95516 28.909413 
L 46.095917 30.790822 
L 43.633086 32.801416 
L 41.59465 34.923788 
L 40.005442 37.139073 
L 38.886747 39.427042 
L 38.2559 41.766217 
L 38.125886 44.134022 
L 38.504953 46.50696 
L 39.396261 48.86083 
L 40.797559 51.170969 
L 42.700932 53.412536 
L 45.092608 55.560817 
L 47.952862 57.591556 
L 51.25601 59.481312 
L 54.970516 61.207814 
L 59.059222 62.750331 
L 63.479692 64.090031 
L 68.184687 65.210312 
L 73.122753 66.097122 
L 78.238918 66.739223 
L 83.475479 67.128415 
L 88.772874 67.2597 
L 94.070588 67.131387 
L 99.308105 66.745121 
L 104.425842 66.105855 
L 109.366074 65.221745 
L 114.073791 64.103987 
L 118.497496 62.766598 
L 122.589898 61.226144 
L 126.308505 59.501431 
L 129.616097 57.613165 
L 132.481075 55.583596 
L 134.877688 53.436155 
L 136.786146 51.195087 
L 138.192612 48.885102 
L 139.089109 46.531043 
L 139.473328 44.157575 
L 139.34837 41.788908 
L 138.722435 39.44855 
L 137.60846 37.159091 
L 136.023738 34.942026 
L 133.989517 32.817602 
L 131.530597 30.804702 
L 128.674933 28.920755 
L 125.453249 27.181667 
L 121.898673 25.601776 
L 118.04639 24.193821 
L 113.933328 22.968927 
L 109.597857 21.9366 
L 105.079519 21.104725 
L 100.418784 20.479576 
L 95.656812 20.065816 
L 90.835248 19.866511 
L 85.99601 19.883129 
L 81.181101 20.115548 
L 76.43241 20.562052 
L 71.791515 21.219328 
L 67.299483 22.082464 
L 62.99665 23.144939 
L 58.922388 24.398615 
L 55.114857 25.833738 
L 51.610725 27.438931 
L 48.444874 29.201206 
L 45.650071 31.105981 
L 43.256625 33.13711 
L 41.292017 35.276935 
L 39.780511 37.506354 
L 38.742755 39.804918 
L 38.195379 42.150953 
L 38.150596 44.521713 
L 38.615822 46.893567 
L 39.593325 49.242217 
L 41.079916 51.542951 
L 43.066703 53.770924 
L 45.538917 55.901475 
L 48.475824 57.910462 
L 51.850741 59.774611 
L 55.631167 61.471887 
L 59.779023 62.981854 
L 64.251027 64.28603 
L 68.999183 65.368223 
L 73.971391 66.214835 
L 79.112158 66.815125 
L 84.363404 67.161424 
L 89.665339 67.249285 
L 94.957378 67.077578 
L 100.179094 66.648508 
L 105.271153 65.967577 
L 110.176224 65.043467 
L 110.176224 65.043467 
" clip-path="url(#pb2ef0b8e1e)" style="fill: none; stroke: #ff7f0e; stroke-opacity: 0.5; stroke-width: 1.5; stroke-linecap: round"/>
   </g>
  </g>
 </g>
 <defs>
  <clipPath id="pb2ef0b8e1e">
   <rect x="-1.8" y="-7.2" width="176.4" height="176.4"/>
  </clipPath>
 </defs>
</svg>
