<?xml version="1.0" encoding="utf-8" standalone="no"?>
<!DOCTYPE svg PUBLIC "-//W3C//DTD SVG 1.1//EN"
  "http://www.w3.org/Graphics/SVG/1.1/DTD/svg11.dtd">
<svg xmlns:xlink="http://www.w3.org/1999/xlink" width="216pt" height="180pt" viewBox="0 0 216 180" xmlns="http://www.w3.org/2000/svg" version="1.1">
 <metadata>
  <rdf:RDF xmlns:dc="http://purl.org/dc/elements/1.1/" xmlns:cc="http://creativecommons.org/ns#" xmlns:rdf="http://www.w3.org/1999/02/22-rdf-syntax-ns#">
   <cc:Work>
    <dc:type rdf:resource="http://purl.org/dc/dcmitype/StillImage"/>
    <dc:date>2023-06-14T18:49:07.948037</dc:date>
    <dc:format>image/svg+xml</dc:format>
    <dc:creator>
     <cc:Agent>
      <dc:title>Matplotlib v3.7.0, https://matplotlib.org/</dc:title>
     </cc:Agent>
    </dc:creator>
   </cc:Work>
  </rdf:RDF>
 </metadata>
 <defs>
  <style type="text/css">*{stroke-linejoin: round; stroke-linecap: butt}</style>
 </defs>
 <g id="figure_1">
  <g id="patch_1">
   <path d="M 0 180 
L 216 180 
L 216 0 
L 0 0 
z
" style="fill: #ffffff"/>
  </g>
  <g id="patch_2">
   <path d="M -1 169.2 
L 174.6 169.2 
L 174.6 -1 
" style="fill: none"/>
  </g>
  <g id="pane3d_1">
   <g id="patch_3">
    <path d="M 11.519416 125.705413 
L 69.772457 76.876559 
L 68.962684 6.456623 
L 7.921935 51.001381 
" style="fill: none; opacity: 0.5; stroke: #f2f2f2; stroke-linejoin: miter"/>
   </g>
  </g>
  <g id="pane3d_2">
   <g id="patch_4">
    <path d="M 69.772457 76.876559 
L 163.247803 104.046152 
L 166.583609 31.200681 
L 68.962684 6.456623 
" style="fill: none; opacity: 0.5; stroke: #e6e6e6; stroke-linejoin: miter"/>
   </g>
  </g>
  <g id="pane3d_3">
   <g id="patch_5">
    <path d="M 11.519416 125.705413 
L 110.607849 158.067695 
L 163.247803 104.046152 
L 69.772457 76.876559 
" style="fill: none; opacity: 0.5; stroke: #ececec; stroke-linejoin: miter"/>
   </g>
  </g>
  <g id="axis3d_1">
   <g id="line2d_1">
    <path d="M 11.519416 125.705413 
L 110.607849 158.067695 
" style="fill: none; stroke: #ffffff; stroke-width: 0.8; stroke-linecap: round"/>
   </g>
   <g id="text_1">
    <!-- x -->
    <g style="fill: #262626" transform="translate(40.437569 179.640981) scale(0.1 -0.1)">
     <defs>
      <path id="DejaVuSans-78" d="M 3513 3500 
L 2247 1797 
L 3578 0 
L 2900 0 
L 1881 1375 
L 863 0 
L 184 0 
L 1544 1831 
L 300 3500 
L 978 3500 
L 1906 2253 
L 2834 3500 
L 3513 3500 
z
" transform="scale(0.015625)"/>
     </defs>
     <use xlink:href="#DejaVuSans-78"/>
    </g>
   </g>
   <g id="Line3DCollection_1">
    <path d="M 33.835214 132.993752 
L 90.896226 83.016405 
L 90.987253 12.039209 
" style="fill: none; stroke: #d3d3d3; stroke-width: 0.8"/>
    <path d="M 59.528135 141.38506 
L 115.164696 90.070291 
L 116.316567 18.459452 
" style="fill: none; stroke: #d3d3d3; stroke-width: 0.8"/>
    <path d="M 85.943933 150.01246 
L 140.0581 97.305821 
L 142.326992 25.052336 
" style="fill: none; stroke: #d3d3d3; stroke-width: 0.8"/>
   </g>
   <g id="xtick_1">
    <g id="line2d_2">
     <path d="M 88.783784 78.616216 
" clip-path="url(#p2da9889351)" style="fill: none; stroke: #d3d3d3; stroke-width: 0.8; stroke-linecap: round"/>
    </g>
    <g id="line2d_3">
     <path d="M 34.332456 132.558238 
L 32.838575 133.866666 
" style="fill: none; stroke: #808080; stroke-width: 0.8; stroke-linecap: round"/>
    </g>
    <g id="text_2">
     <!-- −0.2 -->
     <g style="fill: #808080" transform="translate(14.17556 156.503542) scale(0.1 -0.1)">
      <defs>
       <path id="DejaVuSans-2212" d="M 678 2272 
L 4684 2272 
L 4684 1741 
L 678 1741 
L 678 2272 
z
" transform="scale(0.015625)"/>
       <path id="DejaVuSans-30" d="M 2034 4250 
Q 1547 4250 1301 3770 
Q 1056 3291 1056 2328 
Q 1056 1369 1301 889 
Q 1547 409 2034 409 
Q 2525 409 2770 889 
Q 3016 1369 3016 2328 
Q 3016 3291 2770 3770 
Q 2525 4250 2034 4250 
z
M 2034 4750 
Q 2819 4750 3233 4129 
Q 3647 3509 3647 2328 
Q 3647 1150 3233 529 
Q 2819 -91 2034 -91 
Q 1250 -91 836 529 
Q 422 1150 422 2328 
Q 422 3509 836 4129 
Q 1250 4750 2034 4750 
z
" transform="scale(0.015625)"/>
       <path id="DejaVuSans-2e" d="M 684 794 
L 1344 794 
L 1344 0 
L 684 0 
L 684 794 
z
" transform="scale(0.015625)"/>
       <path id="DejaVuSans-32" d="M 1228 531 
L 3431 531 
L 3431 0 
L 469 0 
L 469 531 
Q 828 903 1448 1529 
Q 2069 2156 2228 2338 
Q 2531 2678 2651 2914 
Q 2772 3150 2772 3378 
Q 2772 3750 2511 3984 
Q 2250 4219 1831 4219 
Q 1534 4219 1204 4116 
Q 875 4013 500 3803 
L 500 4441 
Q 881 4594 1212 4672 
Q 1544 4750 1819 4750 
Q 2544 4750 2975 4387 
Q 3406 4025 3406 3419 
Q 3406 3131 3298 2873 
Q 3191 2616 2906 2266 
Q 2828 2175 2409 1742 
Q 1991 1309 1228 531 
z
" transform="scale(0.015625)"/>
      </defs>
      <use xlink:href="#DejaVuSans-2212"/>
      <use xlink:href="#DejaVuSans-30" x="83.789062"/>
      <use xlink:href="#DejaVuSans-2e" x="147.412109"/>
      <use xlink:href="#DejaVuSans-32" x="179.199219"/>
     </g>
    </g>
   </g>
   <g id="xtick_2">
    <g id="line2d_4">
     <path d="M 88.783784 78.616216 
" clip-path="url(#p2da9889351)" style="fill: none; stroke: #d3d3d3; stroke-width: 0.8; stroke-linecap: round"/>
    </g>
    <g id="line2d_5">
     <path d="M 60.013515 140.937384 
L 58.555243 142.282379 
" style="fill: none; stroke: #808080; stroke-width: 0.8; stroke-linecap: round"/>
    </g>
    <g id="text_3">
     <!-- 0.0 -->
     <g style="fill: #808080" transform="translate(44.101103 165.165079) scale(0.1 -0.1)">
      <use xlink:href="#DejaVuSans-30"/>
      <use xlink:href="#DejaVuSans-2e" x="63.623047"/>
      <use xlink:href="#DejaVuSans-30" x="95.410156"/>
     </g>
    </g>
   </g>
   <g id="xtick_3">
    <g id="line2d_6">
     <path d="M 88.783784 78.616216 
" clip-path="url(#p2da9889351)" style="fill: none; stroke: #d3d3d3; stroke-width: 0.8; stroke-linecap: round"/>
    </g>
    <g id="line2d_7">
     <path d="M 86.416583 149.552104 
L 84.996529 150.935222 
" style="fill: none; stroke: #808080; stroke-width: 0.8; stroke-linecap: round"/>
    </g>
    <g id="text_4">
     <!-- 0.2 -->
     <g style="fill: #808080" transform="translate(70.565104 174.071731) scale(0.1 -0.1)">
      <use xlink:href="#DejaVuSans-30"/>
      <use xlink:href="#DejaVuSans-2e" x="63.623047"/>
      <use xlink:href="#DejaVuSans-32" x="95.410156"/>
     </g>
    </g>
   </g>
  </g>
  <g id="axis3d_2">
   <g id="line2d_8">
    <path d="M 163.247803 104.046152 
L 110.607849 158.067695 
" style="fill: none; stroke: #ffffff; stroke-width: 0.8; stroke-linecap: round"/>
   </g>
   <g id="text_5">
    <!-- y -->
    <g style="fill: #262626" transform="translate(162.133934 160.636398) scale(0.1 -0.1)">
     <defs>
      <path id="DejaVuSans-79" d="M 2059 -325 
Q 1816 -950 1584 -1140 
Q 1353 -1331 966 -1331 
L 506 -1331 
L 506 -850 
L 844 -850 
Q 1081 -850 1212 -737 
Q 1344 -625 1503 -206 
L 1606 56 
L 191 3500 
L 800 3500 
L 1894 763 
L 2988 3500 
L 3597 3500 
L 2059 -325 
z
" transform="scale(0.015625)"/>
     </defs>
     <use xlink:href="#DejaVuSans-79"/>
    </g>
   </g>
   <g id="Line3DCollection_2">
    <path d="M 23.151614 39.887455 
L 26.012182 113.55729 
L 123.747619 144.583058 
" style="fill: none; stroke: #d3d3d3; stroke-width: 0.8"/>
    <path d="M 39.838367 27.710223 
L 41.923048 100.220486 
L 138.139863 129.813075 
" style="fill: none; stroke: #d3d3d3; stroke-width: 0.8"/>
    <path d="M 55.749493 16.099008 
L 57.12515 87.477783 
L 151.858606 115.73427 
" style="fill: none; stroke: #d3d3d3; stroke-width: 0.8"/>
   </g>
   <g id="xtick_4">
    <g id="line2d_9">
     <path d="M 88.783784 78.616216 
" clip-path="url(#p2da9889351)" style="fill: none; stroke: #d3d3d3; stroke-width: 0.8; stroke-linecap: round"/>
    </g>
    <g id="line2d_10">
     <path d="M 122.924649 144.321809 
L 125.395654 145.106221 
" style="fill: none; stroke: #808080; stroke-width: 0.8; stroke-linecap: round"/>
    </g>
    <g id="text_6">
     <!-- −0.2 -->
     <g style="fill: #808080" transform="translate(124.298501 165.391033) scale(0.1 -0.1)">
      <use xlink:href="#DejaVuSans-2212"/>
      <use xlink:href="#DejaVuSans-30" x="83.789062"/>
      <use xlink:href="#DejaVuSans-2e" x="147.412109"/>
      <use xlink:href="#DejaVuSans-32" x="179.199219"/>
     </g>
    </g>
   </g>
   <g id="xtick_5">
    <g id="line2d_11">
     <path d="M 88.783784 78.616216 
" clip-path="url(#p2da9889351)" style="fill: none; stroke: #d3d3d3; stroke-width: 0.8; stroke-linecap: round"/>
    </g>
    <g id="line2d_12">
     <path d="M 137.330649 129.564192 
L 139.760302 130.31146 
" style="fill: none; stroke: #808080; stroke-width: 0.8; stroke-linecap: round"/>
    </g>
    <g id="text_7">
     <!-- 0.0 -->
     <g style="fill: #808080" transform="translate(142.588729 150.29147) scale(0.1 -0.1)">
      <use xlink:href="#DejaVuSans-30"/>
      <use xlink:href="#DejaVuSans-2e" x="63.623047"/>
      <use xlink:href="#DejaVuSans-30" x="95.410156"/>
     </g>
    </g>
   </g>
   <g id="xtick_6">
    <g id="line2d_13">
     <path d="M 88.783784 78.616216 
" clip-path="url(#p2da9889351)" style="fill: none; stroke: #d3d3d3; stroke-width: 0.8; stroke-linecap: round"/>
    </g>
    <g id="line2d_14">
     <path d="M 151.062777 115.496895 
L 153.452196 116.209596 
" style="fill: none; stroke: #808080; stroke-width: 0.8; stroke-linecap: round"/>
    </g>
    <g id="text_8">
     <!-- 0.2 -->
     <g style="fill: #808080" transform="translate(156.028711 135.899107) scale(0.1 -0.1)">
      <use xlink:href="#DejaVuSans-30"/>
      <use xlink:href="#DejaVuSans-2e" x="63.623047"/>
      <use xlink:href="#DejaVuSans-32" x="95.410156"/>
     </g>
    </g>
   </g>
  </g>
  <g id="axis3d_3">
   <g id="line2d_15">
    <path d="M 163.247803 104.046152 
L 166.583609 31.200681 
" style="fill: none; stroke: #ffffff; stroke-width: 0.8; stroke-linecap: round"/>
   </g>
   <g id="text_9">
    <!-- z -->
    <g style="fill: #262626" transform="translate(202.494937 65.789607) scale(0.1 -0.1)">
     <defs>
      <path id="DejaVuSans-7a" d="M 353 3500 
L 3084 3500 
L 3084 2975 
L 922 459 
L 3084 459 
L 3084 0 
L 275 0 
L 275 525 
L 2438 3041 
L 353 3041 
L 353 3500 
z
" transform="scale(0.015625)"/>
     </defs>
     <use xlink:href="#DejaVuSans-7a"/>
    </g>
   </g>
   <g id="Line3DCollection_3">
    <path d="M 163.319523 102.479985 
L 69.755011 75.359411 
L 11.442199 124.101936 
" style="fill: none; stroke: #d3d3d3; stroke-width: 0.8"/>
    <path d="M 164.022249 87.134247 
L 69.584155 60.501254 
L 10.685301 108.384466 
" style="fill: none; stroke: #d3d3d3; stroke-width: 0.8"/>
    <path d="M 164.738351 71.496394 
L 69.410202 45.373861 
L 9.913442 92.35632 
" style="fill: none; stroke: #d3d3d3; stroke-width: 0.8"/>
    <path d="M 165.468216 55.558006 
L 69.233068 29.969847 
L 9.126175 76.008195 
" style="fill: none; stroke: #d3d3d3; stroke-width: 0.8"/>
    <path d="M 166.212244 39.310334 
L 69.052665 14.281553 
L 8.323032 59.330412 
" style="fill: none; stroke: #d3d3d3; stroke-width: 0.8"/>
   </g>
   <g id="xtick_7">
    <g id="line2d_16">
     <path d="M 88.783784 78.616216 
" style="fill: none; stroke: #d3d3d3; stroke-width: 0.8; stroke-linecap: round"/>
    </g>
    <g id="line2d_17">
     <path d="M 162.534223 102.252359 
L 164.891991 102.93578 
" style="fill: none; stroke: #808080; stroke-width: 0.8; stroke-linecap: round"/>
    </g>
    <g id="text_10">
     <!-- 0.000 -->
     <g style="fill: #808080" transform="translate(167.243462 107.481977) scale(0.1 -0.1)">
      <use xlink:href="#DejaVuSans-30"/>
      <use xlink:href="#DejaVuSans-2e" x="63.623047"/>
      <use xlink:href="#DejaVuSans-30" x="95.410156"/>
      <use xlink:href="#DejaVuSans-30" x="159.033203"/>
      <use xlink:href="#DejaVuSans-30" x="222.65625"/>
     </g>
    </g>
   </g>
   <g id="xtick_8">
    <g id="line2d_18">
     <path d="M 88.783784 78.616216 
" style="fill: none; stroke: #d3d3d3; stroke-width: 0.8; stroke-linecap: round"/>
    </g>
    <g id="line2d_19">
     <path d="M 163.229267 86.910614 
L 165.610117 87.58205 
" style="fill: none; stroke: #808080; stroke-width: 0.8; stroke-linecap: round"/>
    </g>
    <g id="text_11">
     <!-- 0.025 -->
     <g style="fill: #808080" transform="translate(168.114145 92.181892) scale(0.1 -0.1)">
      <defs>
       <path id="DejaVuSans-35" d="M 691 4666 
L 3169 4666 
L 3169 4134 
L 1269 4134 
L 1269 2991 
Q 1406 3038 1543 3061 
Q 1681 3084 1819 3084 
Q 2600 3084 3056 2656 
Q 3513 2228 3513 1497 
Q 3513 744 3044 326 
Q 2575 -91 1722 -91 
Q 1428 -91 1123 -41 
Q 819 9 494 109 
L 494 744 
Q 775 591 1075 516 
Q 1375 441 1709 441 
Q 2250 441 2565 725 
Q 2881 1009 2881 1497 
Q 2881 1984 2565 2268 
Q 2250 2553 1709 2553 
Q 1456 2553 1204 2497 
Q 953 2441 691 2322 
L 691 4666 
z
" transform="scale(0.015625)"/>
      </defs>
      <use xlink:href="#DejaVuSans-30"/>
      <use xlink:href="#DejaVuSans-2e" x="63.623047"/>
      <use xlink:href="#DejaVuSans-30" x="95.410156"/>
      <use xlink:href="#DejaVuSans-32" x="159.033203"/>
      <use xlink:href="#DejaVuSans-35" x="222.65625"/>
     </g>
    </g>
   </g>
   <g id="xtick_9">
    <g id="line2d_20">
     <path d="M 88.783784 78.616216 
" style="fill: none; stroke: #d3d3d3; stroke-width: 0.8; stroke-linecap: round"/>
    </g>
    <g id="line2d_21">
     <path d="M 163.937536 71.276949 
L 166.341924 71.935817 
" style="fill: none; stroke: #808080; stroke-width: 0.8; stroke-linecap: round"/>
    </g>
    <g id="text_12">
     <!-- 0.050 -->
     <g style="fill: #808080" transform="translate(169.001326 76.591904) scale(0.1 -0.1)">
      <use xlink:href="#DejaVuSans-30"/>
      <use xlink:href="#DejaVuSans-2e" x="63.623047"/>
      <use xlink:href="#DejaVuSans-30" x="95.410156"/>
      <use xlink:href="#DejaVuSans-35" x="159.033203"/>
      <use xlink:href="#DejaVuSans-30" x="222.65625"/>
     </g>
    </g>
   </g>
   <g id="xtick_10">
    <g id="line2d_22">
     <path d="M 88.783784 78.616216 
" style="fill: none; stroke: #d3d3d3; stroke-width: 0.8; stroke-linecap: round"/>
    </g>
    <g id="line2d_23">
     <path d="M 164.659412 55.342951 
L 167.087807 55.988642 
" style="fill: none; stroke: #808080; stroke-width: 0.8; stroke-linecap: round"/>
    </g>
    <g id="text_13">
     <!-- 0.075 -->
     <g style="fill: #808080" transform="translate(169.905478 60.703692) scale(0.1 -0.1)">
      <defs>
       <path id="DejaVuSans-37" d="M 525 4666 
L 3525 4666 
L 3525 4397 
L 1831 0 
L 1172 0 
L 2766 4134 
L 525 4134 
L 525 4666 
z
" transform="scale(0.015625)"/>
      </defs>
      <use xlink:href="#DejaVuSans-30"/>
      <use xlink:href="#DejaVuSans-2e" x="63.623047"/>
      <use xlink:href="#DejaVuSans-30" x="95.410156"/>
      <use xlink:href="#DejaVuSans-37" x="159.033203"/>
      <use xlink:href="#DejaVuSans-35" x="222.65625"/>
     </g>
    </g>
   </g>
   <g id="xtick_11">
    <g id="line2d_24">
     <path d="M 88.783784 78.616216 
" style="fill: none; stroke: #d3d3d3; stroke-width: 0.8; stroke-linecap: round"/>
    </g>
    <g id="line2d_25">
     <path d="M 165.395289 39.099883 
L 167.848175 39.731758 
" style="fill: none; stroke: #808080; stroke-width: 0.8; stroke-linecap: round"/>
    </g>
    <g id="text_14">
     <!-- 0.100 -->
     <g style="fill: #808080" transform="translate(170.827093 44.508619) scale(0.1 -0.1)">
      <defs>
       <path id="DejaVuSans-31" d="M 794 531 
L 1825 531 
L 1825 4091 
L 703 3866 
L 703 4441 
L 1819 4666 
L 2450 4666 
L 2450 531 
L 3481 531 
L 3481 0 
L 794 0 
L 794 531 
z
" transform="scale(0.015625)"/>
      </defs>
      <use xlink:href="#DejaVuSans-30"/>
      <use xlink:href="#DejaVuSans-2e" x="63.623047"/>
      <use xlink:href="#DejaVuSans-31" x="95.410156"/>
      <use xlink:href="#DejaVuSans-30" x="159.033203"/>
      <use xlink:href="#DejaVuSans-30" x="222.65625"/>
     </g>
    </g>
   </g>
  </g>
  <g id="axes_1">
   <g id="line2d_26">
    <path d="M 88.719891 49.071056 
L 88.595892 96.481221 
L 88.270064 102.871623 
L 87.909129 109.233891 
L 88.071652 110.826442 
L 88.374025 111.719832 
L 88.768162 112.284345 
L 89.236841 112.60488 
L 89.58717 112.613129 
L 89.538716 112.504868 
L 89.19621 112.395686 
L 88.539862 112.43287 
L 87.973291 112.656506 
L 87.624555 113.019216 
L 87.611876 113.353825 
L 87.805595 113.58731 
L 88.269101 113.774557 
L 88.882547 113.797102 
L 89.60958 113.586527 
L 90.024321 113.250197 
L 90.14069 112.927465 
L 90.030131 112.61076 
L 89.697065 112.352422 
L 89.033344 112.180432 
L 88.235943 112.226989 
L 87.49816 112.496212 
L 87.082296 112.837733 
L 86.908186 113.238099 
L 87.019851 113.634315 
L 87.416987 113.960535 
L 88.052031 114.158638 
L 88.83499 114.187912 
L 89.645794 114.032421 
L 90.352522 113.704984 
L 90.832712 113.247022 
L 90.987086 112.856561 
L 90.939102 112.462838 
L 90.684275 112.101548 
L 90.236794 111.807163 
L 89.398678 111.569457 
L 88.396525 111.551893 
L 87.3835 111.769625 
L 86.524508 112.199321 
L 86.073321 112.625657 
L 85.844358 113.101361 
L 85.869478 113.583771 
L 86.158508 114.027961 
L 86.697155 114.390807 
L 87.447128 114.63492 
L 88.348558 114.732096 
L 89.324619 114.666056 
L 90.288024 114.434323 
L 91.148833 114.04909 
L 91.822871 113.536955 
L 92.239884 112.937406 
L 92.350585 112.300008 
L 92.241618 111.881432 
L 91.804745 111.305497 
L 91.064796 110.840321 
L 90.075777 110.533119 
L 88.916391 110.418596 
L 87.684296 110.514937 
L 86.488519 110.821178 
L 85.440404 111.31632 
L 84.643635 111.960437 
L 84.184187 112.697799 
L 84.095824 113.208544 
L 84.193706 113.710028 
L 84.479764 114.180992 
L 84.948183 114.600975 
L 85.585378 114.951132 
L 86.809704 115.310175 
L 88.266029 115.433208 
L 89.829077 115.296556 
L 91.357822 114.897996 
L 92.708366 114.258118 
L 93.443206 113.717912 
L 94.005318 113.107201 
L 94.367109 112.447498 
L 94.508577 111.763119 
L 94.418233 111.080284 
L 94.093653 110.42608 
L 93.541673 109.827356 
L 92.778239 109.309565 
L 91.827952 108.895645 
L 90.723338 108.604946 
L 89.503864 108.452285 
L 88.214719 108.447141 
L 86.90536 108.593049 
L 85.627824 108.887219 
L 84.434826 109.320426 
L 83.377683 109.87719 
L 82.504137 110.536265 
L 81.856177 111.271444 
L 81.467989 112.052643 
L 81.364161 112.847214 
L 81.558252 113.621399 
L 82.05182 114.3418 
L 82.833953 114.976777 
L 83.881333 115.49766 
L 85.158813 115.879749 
L 86.620499 116.103102 
L 88.211308 116.153157 
L 89.868985 116.021249 
L 91.526518 115.705074 
L 93.114907 115.209078 
L 94.566155 114.54473 
L 95.816361 113.730575 
L 96.808684 112.791979 
L 97.496011 111.760473 
L 97.843113 110.672722 
L 97.828168 109.569125 
L 97.443605 108.492179 
L 96.696295 107.484679 
L 95.607203 106.587886 
L 94.210616 105.839724 
L 92.553076 105.27308 
L 90.692077 104.914261 
L 88.694527 104.781655 
L 86.634929 104.884659 
L 84.59317 105.22291 
L 82.651883 105.785891 
L 80.893326 106.552961 
L 79.395895 107.493877 
L 78.230424 108.569857 
L 77.456571 109.735209 
L 77.119564 110.939476 
L 77.124409 111.539744 
L 77.2476 112.12994 
L 77.489707 112.703548 
L 77.850063 113.254234 
L 78.916635 114.262758 
L 80.417271 115.110635 
L 82.302948 115.759049 
L 84.507103 116.17604 
L 86.947714 116.336943 
L 89.530042 116.2248 
L 92.150059 115.830987 
L 94.698609 115.156134 
L 97.066219 114.211204 
L 99.148361 113.018385 
L 100.850773 111.611394 
L 101.534152 110.841149 
L 102.094353 110.034892 
L 102.524503 109.19966 
L 102.819097 108.342935 
L 102.974043 107.472553 
L 102.986681 106.596613 
L 102.855788 105.723381 
L 102.581552 104.861195 
L 102.16554 104.018374 
L 101.610652 103.203122 
L 100.921063 102.423448 
L 100.102162 101.687075 
L 99.160499 101.001366 
L 96.940502 99.809111 
L 94.334406 98.895494 
L 91.430562 98.299018 
L 88.330719 98.046065 
L 85.148127 98.14947 
L 82.00495 98.607531 
L 79.028611 99.403475 
L 76.346896 100.50542 
L 74.081935 101.866954 
L 73.140724 102.626911 
L 72.343568 103.428523 
L 71.701208 104.262693 
L 71.222856 105.11987 
L 70.916051 105.990184 
L 70.786555 106.8636 
L 70.83827 107.730061 
L 71.073196 108.579649 
L 71.491404 109.402721 
L 72.091042 110.190033 
L 72.868362 110.932848 
L 73.817759 111.623002 
L 74.931822 112.252954 
L 76.201402 112.815802 
L 77.615678 113.305271 
L 79.162233 113.715688 
L 82.595026 114.279481 
L 86.371837 114.472586 
L 90.345452 114.26861 
L 94.353975 113.650456 
L 96.318199 113.183919 
L 98.226986 112.613098 
L 100.059007 111.939871 
L 101.793476 111.167329 
L 103.410472 110.299847 
L 104.891253 109.343115 
L 106.21856 108.304123 
L 107.376892 107.191091 
L 108.352744 106.013361 
L 109.134793 104.781251 
L 109.714025 103.505878 
L 110.083807 102.198973 
L 110.239886 100.872685 
L 110.180347 99.539402 
L 109.905512 98.211578 
L 109.417809 96.901581 
L 108.721616 95.621566 
L 107.8231 94.38335 
L 106.730056 93.198315 
L 105.451759 92.077306 
L 103.998841 91.030543 
L 102.383189 90.067528 
L 100.617879 89.196962 
L 98.717128 88.42666 
L 96.696276 87.763471 
L 94.571778 87.213214 
L 92.361208 86.780621 
L 90.083261 86.469292 
L 87.757742 86.28167 
L 85.405528 86.219027 
L 83.048502 86.281458 
L 80.709439 86.467885 
L 78.411839 86.776066 
L 76.179706 87.202594 
L 74.037268 87.742903 
L 72.00865 88.391262 
L 70.117496 89.140766 
L 68.386571 89.983338 
L 66.837345 90.909734 
L 65.489593 91.909579 
L 64.361024 92.971426 
L 63.466958 94.082865 
L 62.820072 95.23068 
L 62.430216 96.401047 
L 62.304307 97.579781 
L 62.4463 98.752607 
L 62.857217 99.905446 
L 63.535228 101.024682 
L 64.475772 102.097401 
L 65.671687 103.111571 
L 67.113358 104.056155 
L 68.788843 104.921142 
L 70.683999 105.697512 
L 72.782577 106.377128 
L 75.066301 106.952589 
L 77.514935 107.417066 
L 80.106336 107.764147 
L 82.816512 107.98772 
L 85.619692 108.08192 
L 88.488426 108.041167 
L 91.393732 107.860289 
L 94.305293 107.534746 
L 97.191738 107.060932 
L 100.020987 106.43653 
L 102.760695 105.660893 
L 105.378765 104.7354 
L 107.843925 103.663745 
L 110.126353 102.452127 
L 112.198313 101.109296 
L 114.034756 99.64646 
L 115.613871 98.077041 
L 116.917514 96.416311 
L 117.931515 94.680948 
L 118.64582 92.888555 
L 119.054483 91.057189 
L 119.155494 89.204949 
L 118.950496 87.349647 
L 118.444394 85.50856 
L 117.644927 83.69828 
L 116.562216 81.934624 
L 115.208341 80.232587 
L 113.596978 78.606312 
L 111.7431 77.069048 
L 109.662773 75.633094 
L 107.373032 74.309716 
L 104.891851 73.109049 
L 102.238176 72.039985 
L 99.432024 71.110078 
L 96.494619 70.325473 
L 93.448556 69.690868 
L 90.317952 69.209527 
L 87.128587 68.883335 
L 83.907984 68.712894 
L 80.68542 68.697648 
L 77.49183 68.836008 
L 74.359604 69.125465 
L 71.322241 69.562666 
L 68.413878 70.143419 
L 65.668685 70.862647 
L 63.120168 71.71425 
L 60.800412 72.690924 
L 58.739305 73.783933 
L 56.963808 74.982898 
L 55.497327 76.275625 
L 54.359221 77.648027 
L 53.564482 79.084185 
L 53.123593 80.56655 
L 53.042571 82.076298 
L 53.323138 83.593817 
L 53.963015 85.099266 
L 54.956268 86.573168 
L 56.293679 87.99695 
L 57.9631 89.353382 
L 59.949752 90.626865 
L 62.23646 91.803543 
L 64.803809 92.871229 
L 67.63022 93.819178 
L 70.691958 94.637747 
L 73.963082 95.31799 
L 77.415349 95.851274 
L 81.01812 96.22896 
L 84.738265 96.442238 
L 88.540125 96.482134 
L 92.385549 96.339753 
L 96.234051 96.006725 
L 100.043119 95.475864 
L 103.768697 94.741951 
L 107.365861 93.802584 
L 110.789686 92.658975 
L 113.996284 91.316569 
L 116.943951 89.785408 
L 119.594372 88.080131 
L 121.91376 86.219606 
L 123.873866 84.226202 
L 125.452723 82.124801 
L 126.635088 79.941667 
L 127.412515 77.703334 
L 127.783078 75.435632 
L 127.750779 73.162975 
L 127.32473 70.907942 
L 126.518204 68.691141 
L 125.347648 66.531297 
L 123.831763 64.445476 
L 121.990719 62.449344 
L 119.845532 60.557381 
L 117.417652 58.783006 
L 114.72873 57.138577 
L 111.800572 55.635292 
L 108.655235 54.28302 
L 105.315248 53.090104 
L 101.803921 52.063196 
L 98.145711 51.207154 
L 94.36661 50.525043 
L 90.494527 50.018253 
L 86.559617 49.686724 
L 82.594535 49.529256 
L 78.634553 49.543881 
L 74.717509 49.728219 
L 70.883556 50.079786 
L 67.174674 50.596174 
L 63.633943 51.275075 
L 60.304604 52.114084 
L 57.228943 53.110313 
L 54.447086 54.259815 
L 51.995793 55.556886 
L 49.907371 56.99335 
L 48.208793 58.557931 
L 46.9211 60.235816 
L 46.059136 62.008528 
L 45.631596 63.854134 
L 45.641355 65.747823 
L 46.086008 67.662774 
L 46.958525 69.571243 
L 48.247947 71.445705 
L 49.940035 73.259946 
L 52.017822 74.989938 
L 54.462041 76.614437 
L 57.251384 78.115226 
L 60.362626 79.477019 
L 63.770603 80.687057 
L 67.448066 81.734489 
L 71.365453 82.609636 
L 75.490593 83.303255 
L 79.788385 83.80593 
L 84.220502 84.107691 
L 88.745159 84.197949 
L 93.317007 84.065807 
L 97.887209 83.700751 
L 102.403759 83.093689 
L 106.812098 82.23825 
L 111.056054 81.132176 
L 115.079122 79.778625 
L 118.82604 78.187172 
L 122.244581 76.374285 
L 125.28742 74.363163 
L 127.913916 72.182869 
L 130.091604 69.866844 
L 131.797237 67.451005 
L 133.017251 64.971701 
L 133.7476 62.463826 
L 133.993007 59.959379 
L 133.765743 57.48659 
L 133.084108 55.06968 
L 131.970801 52.729135 
L 130.451365 50.482332 
L 128.552834 48.344299 
L 126.302671 46.328421 
L 123.72804 44.446955 
L 120.855395 42.711288 
L 117.710356 41.131938 
L 114.317826 39.71836 
L 110.702286 38.47864 
L 106.888231 37.419164 
L 102.900681 36.544369 
L 98.765755 35.856622 
L 94.511244 35.356285 
L 90.167155 35.041967 
L 85.766191 34.910936 
L 81.344104 34.959668 
L 76.939878 35.184436 
L 72.595685 35.581876 
L 68.356561 36.149424 
L 64.269781 36.885543 
L 60.383904 37.789665 
L 56.747548 38.861801 
L 53.407941 40.101831 
L 50.409388 41.508516 
L 47.791769 43.078352 
L 45.589243 44.804419 
L 43.829272 46.675388 
L 42.532056 48.67488 
L 41.710415 50.78129 
L 41.370084 52.968153 
L 41.51034 55.205034 
L 42.124838 57.458852 
L 43.202555 59.695454 
L 44.728699 61.881262 
L 46.685517 63.98477 
L 49.052923 65.977715 
L 51.808936 67.835822 
L 54.929904 69.539044 
L 58.390538 71.071336 
L 62.163774 72.42003 
L 66.220494 73.574929 
L 70.529143 74.527282 
L 75.05528 75.268771 
L 79.761103 75.790702 
L 84.605011 76.083498 
L 89.541251 76.13663 
L 94.519729 75.939038 
L 99.486065 75.480058 
L 104.381961 74.750801 
L 109.14596 73.745843 
L 113.714647 72.465024 
L 118.024284 70.915075 
L 122.01284 69.110779 
L 125.622274 67.075394 
L 128.800903 64.840156 
L 131.505583 62.442849 
L 133.703461 59.925584 
L 135.373071 57.332114 
L 136.504626 54.705116 
L 137.099493 52.08387 
L 137.168933 49.50266 
L 136.732317 46.990061 
L 135.815065 44.569072 
L 134.446576 42.257896 
L 132.658349 40.071074 
L 130.482457 38.02066 
L 127.950445 36.117205 
L 125.092648 34.370403 
L 121.937907 32.789341 
L 118.513598 31.382422 
L 114.845917 30.157047 
L 110.960333 29.119193 
L 106.882174 28.273012 
L 102.63727 27.620563 
L 98.25263 27.161734 
L 93.757107 26.894402 
L 89.182018 26.814813 
L 84.561661 26.918156 
L 79.933694 27.199249 
L 75.339301 27.653253 
L 70.823094 28.276314 
L 66.432691 29.066006 
L 62.217951 30.021499 
L 58.229847 31.143352 
L 54.519046 32.432921 
L 51.134279 33.891382 
L 48.120643 35.51847 
L 45.518011 37.311079 
L 43.359708 39.261916 
L 41.671593 41.358408 
L 40.471631 43.582078 
L 39.769955 45.908502 
L 39.569367 48.307906 
L 39.866165 50.746356 
L 40.651154 53.187386 
L 41.910708 55.593871 
L 43.627746 57.929885 
L 45.782565 60.16233 
L 48.353446 62.262139 
L 51.317037 64.204956 
L 54.648502 65.971245 
L 58.321471 67.545879 
L 62.307811 68.917318 
L 66.577256 70.076522 
L 71.096934 71.01576 
L 75.830839 71.727512 
L 80.739287 72.203611 
L 85.778425 72.434778 
L 90.89985 72.410655 
L 96.050434 72.120408 
L 101.172423 71.553874 
L 106.20392 70.703191 
L 111.079811 69.564724 
L 115.733189 68.141041 
L 120.097265 66.442603 
L 124.107684 64.488839 
L 127.705093 62.308317 
L 130.837711 59.937847 
L 133.463622 57.420543 
L 135.552494 54.8031 
L 137.0865 52.132692 
L 138.060316 49.454013 
L 138.480217 46.806924 
L 138.362432 44.225035 
L 137.731011 41.735318 
L 136.615507 39.358625 
L 135.048743 37.110831 
L 133.064892 35.004236 
L 130.69799 33.048902 
L 127.980931 31.253671 
L 124.944921 29.626759 
L 121.619333 28.175911 
L 118.031871 26.908212 
L 114.208968 25.829681 
L 110.176346 24.944796 
L 105.959666 24.256104 
L 101.585237 23.76398 
L 97.080733 23.466645 
L 92.47588 23.360411 
L 87.803084 23.440183 
L 83.097938 23.700113 
L 78.399559 24.134366 
L 73.750694 24.737862 
L 69.197527 25.506896 
L 64.789146 26.439525 
L 60.576635 27.535606 
L 56.611816 28.796438 
L 52.945697 30.223982 
L 49.626748 31.819708 
L 46.69917 33.583178 
L 44.201316 35.51055 
L 42.164463 37.593207 
L 40.612023 39.816738 
L 39.559291 42.160457 
L 39.01368 44.597572 
L 38.975386 47.096024 
L 39.438334 49.619902 
L 40.39127 52.13127 
L 41.818841 54.59215 
L 43.702574 56.966417 
L 46.021645 59.221384 
L 48.753433 61.328886 
L 51.873821 63.265797 
L 55.35727 65.013954 
L 59.176691 66.559577 
L 63.303153 67.892297 
L 67.705448 69.003962 
L 72.349577 69.887406 
L 77.198178 70.535358 
L 82.209973 70.939655 
L 87.339274 71.090908 
L 92.535634 70.978704 
L 97.743738 70.592405 
L 102.9036 69.922503 
L 107.95119 68.962425 
L 112.819539 67.71058 
L 117.440363 66.172343 
L 121.746179 64.361652 
L 125.672804 62.30184 
L 129.162041 60.025458 
L 132.164277 57.572969 
L 134.640692 54.990413 
L 136.564783 52.326377 
L 137.923001 49.628753 
L 138.714415 46.941815 
L 138.949481 44.304086 
L 138.648124 41.747243 
L 137.837424 39.296085 
L 136.549215 36.969369 
L 134.817872 34.781162 
L 132.678475 32.742338 
L 130.165457 30.861899 
L 127.311752 29.147898 
L 124.148391 27.607909 
L 120.704489 26.249049 
L 117.007507 25.077693 
L 113.08374 24.099015 
L 108.95892 23.316511 
L 104.658918 22.73164 
L 100.210468 22.343666 
L 95.641895 22.149753 
L 90.983795 22.145314 
L 86.269645 22.324582 
L 81.536263 22.681336 
L 76.824085 23.209679 
L 72.177184 23.904775 
L 67.642968 24.763405 
L 63.271519 25.784251 
L 59.114561 26.967802 
L 55.224076 28.315841 
L 51.650668 29.830508 
L 48.441798 31.513017 
L 45.640062 33.362158 
L 43.281705 35.372787 
L 41.395512 37.534527 
L 40.002196 39.830887 
L 39.114317 42.238988 
L 38.736686 44.729959 
L 38.86715 47.270002 
L 39.497622 49.821994 
L 40.615194 52.347423 
L 42.203215 54.808399 
L 44.242203 57.169501 
L 46.710563 59.399227 
L 49.585048 61.470907 
L 52.840986 63.363028 
L 56.452281 65.05897 
L 60.391217 66.546269 
L 64.62811 67.815535 
L 69.130832 68.85921 
L 73.864271 69.67034 
L 78.789743 70.24156 
L 83.864444 70.564426 
L 89.04099 70.629247 
L 94.267127 70.425482 
L 99.48571 69.942744 
L 104.63503 69.172328 
L 109.649599 68.109152 
L 114.461432 66.753839 
L 119.001859 65.11464 
L 123.20381 63.208823 
L 127.004425 61.063202 
L 130.347775 58.713579 
L 133.187394 56.20304 
L 135.488309 53.579313 
L 137.228294 50.891555 
L 138.398188 48.187121 
L 139.001222 45.508828 
L 139.051516 42.893132 
L 138.571961 40.369408 
L 137.591812 37.960249 
L 136.1443 35.682547 
L 134.264506 33.548964 
L 131.987674 31.569425 
L 129.348017 29.752344 
L 126.37802 28.105408 
L 123.108188 26.635893 
L 119.567134 25.350563 
L 115.781934 24.255311 
L 111.778666 23.354666 
L 107.583059 22.651344 
L 103.221214 22.145945 
L 98.720333 21.836874 
L 94.109444 21.720531 
L 89.420063 21.791738 
L 84.686766 22.044383 
L 79.947593 22.472176 
L 75.244255 23.069433 
L 70.622042 23.831767 
L 66.129412 24.756569 
L 61.817204 25.843173 
L 57.737471 27.092618 
L 53.942003 28.506988 
L 50.48062 30.088336 
L 47.3994 31.837301 
L 44.739005 33.751575 
L 42.533307 35.824426 
L 40.808434 38.04351 
L 39.582335 40.390174 
L 38.864875 42.839402 
L 38.658382 45.360451 
L 38.958538 47.91811 
L 39.755457 50.474462 
L 41.034807 52.990875 
L 42.77884 55.429999 
L 44.967255 57.757508 
L 47.577822 59.943388 
L 50.586773 61.962658 
L 53.968942 63.79549 
L 57.697701 65.426769 
L 61.744702 66.845224 
L 66.079482 68.042258 
L 70.66896 69.010692 
L 75.476864 69.743579 
L 80.46316 70.233285 
L 85.583512 70.470973 
L 90.788872 70.446621 
L 96.025265 70.149618 
L 101.233875 69.569963 
L 106.351519 68.699956 
L 106.351519 68.699956 
" clip-path="url(#p2da9889351)" style="fill: none; stroke: #1f77b4; stroke-width: 1.5; stroke-linecap: round"/>
   </g>
   <g id="line2d_27">
    <path d="M 88.719891 49.071056 
L 88.671316 100.398669 
L 88.45412 109.86232 
L 88.454431 112.389227 
L 88.654203 112.856863 
L 88.853653 112.927273 
L 88.848521 112.886119 
L 88.651106 112.812568 
L 88.306847 112.889085 
L 88.245445 113.055332 
L 88.428958 113.183798 
L 88.837525 113.184272 
L 89.080818 113.006606 
L 89.026177 112.822265 
L 88.744071 112.692779 
L 88.287772 112.70419 
L 87.95657 112.902002 
L 87.942078 113.116339 
L 88.170813 113.306722 
L 88.667609 113.399693 
L 89.202364 113.290417 
L 89.487065 113.051494 
L 89.499571 112.802125 
L 89.278525 112.570169 
L 88.755623 112.400473 
L 88.106353 112.420133 
L 87.557312 112.644678 
L 87.336071 112.947744 
L 87.376408 113.218386 
L 87.622703 113.467206 
L 88.18114 113.681384 
L 88.906481 113.725618 
L 89.62701 113.569128 
L 90.154304 113.230324 
L 90.329076 112.872161 
L 90.230655 112.492479 
L 89.853159 112.151453 
L 89.236307 111.907575 
L 88.4624 111.80794 
L 87.450893 111.92514 
L 86.766573 112.209326 
L 86.327913 112.627595 
L 86.218155 112.994254 
L 86.322709 113.371096 
L 86.645491 113.722877 
L 87.170248 114.014335 
L 88.118739 114.254785 
L 89.225877 114.275763 
L 90.319782 114.05307 
L 91.216656 113.601316 
L 91.658959 113.14331 
L 91.843029 112.621656 
L 91.736538 112.079745 
L 91.332272 111.5652 
L 90.650074 111.125702 
L 89.736415 110.804648 
L 88.661609 110.637004 
L 87.514813 110.645702 
L 86.397158 110.838882 
L 85.413451 111.208245 
L 84.663005 111.728712 
L 84.230277 112.359521 
L 84.149533 112.815189 
L 84.248247 113.277739 
L 84.530074 113.727607 
L 84.991238 114.144836 
L 85.992181 114.667075 
L 87.29925 115.012558 
L 88.808736 115.134315 
L 90.390922 115.00353 
L 91.901123 114.613534 
L 93.192962 113.981772 
L 93.865816 113.445698 
L 94.347803 112.837565 
L 94.61192 112.178463 
L 94.63924 111.492251 
L 94.419924 110.804648 
L 93.953856 110.142225 
L 93.250917 109.531365 
L 92.330855 108.9972 
L 91.222788 108.562593 
L 89.964352 108.247178 
L 88.600521 108.066504 
L 87.182141 108.0313 
L 85.764206 108.146887 
L 84.403934 108.412756 
L 83.158682 108.822338 
L 82.083741 109.362969 
L 81.230096 110.01608 
L 80.642188 110.757613 
L 80.355784 111.558682 
L 80.396033 112.386466 
L 80.775806 113.205338 
L 81.494439 113.978191 
L 82.536967 114.667945 
L 83.873953 115.239151 
L 85.461984 115.659648 
L 87.244862 115.902169 
L 89.155494 115.945808 
L 91.118427 115.777263 
L 93.052922 115.391761 
L 94.876418 114.793589 
L 96.508203 113.996211 
L 97.873088 113.021924 
L 98.90489 111.901094 
L 99.549511 110.670996 
L 99.7675 109.374338 
L 99.708664 108.715463 
L 99.535944 108.05755 
L 98.849657 106.768923 
L 97.72164 105.556687 
L 96.182828 104.467119 
L 94.281188 103.542738 
L 92.080232 102.820644 
L 89.657017 102.331037 
L 87.099706 102.095953 
L 84.504755 102.128226 
L 81.973772 102.430697 
L 79.610104 102.995697 
L 77.515179 103.804819 
L 75.784676 104.829024 
L 74.50458 106.029097 
L 74.056682 106.680254 
L 73.747239 107.356524 
L 73.582534 108.050602 
L 73.567542 108.754794 
L 73.705823 109.461076 
L 73.999438 110.161171 
L 74.448873 110.84663 
L 75.05298 111.508917 
L 75.808928 112.139496 
L 76.71218 112.729936 
L 77.756486 113.272002 
L 80.234818 114.17968 
L 83.160844 114.804493 
L 86.427517 115.097994 
L 89.907698 115.024193 
L 93.459416 114.561901 
L 96.932229 113.706373 
L 98.591456 113.134365 
L 100.17432 112.470067 
L 101.662837 111.717697 
L 103.039844 110.88247 
L 104.28921 109.970549 
L 105.39603 108.988972 
L 106.346803 107.945572 
L 107.129583 106.848893 
L 107.734121 105.708086 
L 108.151972 104.532811 
L 108.376586 103.33313 
L 108.40337 102.119395 
L 108.229731 100.90214 
L 107.855092 99.691967 
L 107.28089 98.499446 
L 106.510553 97.335004 
L 105.549454 96.208828 
L 104.404859 95.130769 
L 103.085844 94.110253 
L 101.603218 93.156196 
L 99.969416 92.276929 
L 98.198397 91.480124 
L 96.305524 90.772729 
L 94.307444 90.160912 
L 92.221952 89.650003 
L 90.067862 89.244448 
L 87.864861 88.947768 
L 85.633366 88.762518 
L 83.394371 88.690256 
L 81.169295 88.731516 
L 78.979814 88.885784 
L 76.847702 89.15148 
L 74.794652 89.525946 
L 72.8421 90.005441 
L 71.011036 90.585141 
L 69.321818 91.259143 
L 67.793968 92.020487 
L 66.44597 92.861172 
L 65.295065 93.7722 
L 64.357035 94.743612 
L 63.645996 95.764552 
L 63.174183 96.823338 
L 62.951746 97.907539 
L 62.986555 99.004082 
L 63.28401 100.099359 
L 63.846876 101.179359 
L 64.675135 102.229805 
L 65.765865 103.236314 
L 67.113157 104.184561 
L 68.708056 105.060455 
L 70.538556 105.850324 
L 72.589638 106.541106 
L 74.843347 107.120534 
L 77.278929 107.577325 
L 79.873019 107.901359 
L 82.599868 108.083849 
L 85.431634 108.117492 
L 88.338704 107.996603 
L 91.290061 107.717227 
L 94.253681 107.27722 
L 97.196958 106.67631 
L 100.087135 105.916117 
L 102.891757 105.000148 
L 105.579101 103.933762 
L 108.118613 102.724099 
L 110.481306 101.379986 
L 112.64014 99.911811 
L 114.570359 98.331385 
L 116.249785 96.651772 
L 117.659072 94.887115 
L 118.781901 93.052445 
L 119.605131 91.163488 
L 120.118898 89.236468 
L 120.316667 87.287911 
L 120.195236 85.334459 
L 119.7547 83.392682 
L 118.998381 81.478913 
L 117.932717 79.609088 
L 116.567136 77.798597 
L 114.913898 76.062155 
L 112.987926 74.413685 
L 110.806618 72.86621 
L 108.38966 71.431769 
L 105.758824 70.121332 
L 102.937771 68.944736 
L 99.951845 67.910626 
L 96.827875 67.026408 
L 93.593975 66.298206 
L 90.279348 65.730824 
L 86.914083 65.32772 
L 83.528964 65.090976 
L 80.155265 65.021279 
L 76.82455 65.1179 
L 73.568464 65.378675 
L 70.418519 65.800002 
L 67.405867 66.376824 
L 64.561067 67.102631 
L 61.913838 67.969464 
L 59.492796 68.967928 
L 57.325184 70.087209 
L 55.436582 71.315115 
L 53.850607 72.638116 
L 52.588612 74.041416 
L 51.669364 75.509025 
L 51.108734 77.023871 
L 50.919388 78.567919 
L 51.110479 80.122319 
L 51.687378 81.667579 
L 52.651414 83.183759 
L 53.999665 84.650689 
L 55.724786 86.048211 
L 57.814906 87.356436 
L 60.253578 88.556017 
L 63.019813 89.628429 
L 66.088191 90.55626 
L 69.42906 91.323488 
L 73.008811 91.91576 
L 76.790258 92.320643 
L 80.733079 92.527855 
L 84.794348 92.529464 
L 88.929121 92.320046 
L 93.091078 91.896798 
L 97.2332 91.25961 
L 101.308462 90.411073 
L 105.270536 89.356453 
L 109.074465 88.1036 
L 112.67732 86.662815 
L 116.038792 85.046682 
L 119.121733 83.269848 
L 121.892621 81.348783 
L 124.321944 79.301514 
L 126.3845 77.147346 
L 128.059609 74.906567 
L 129.331243 72.600164 
L 130.188073 70.249533 
L 130.623442 67.876214 
L 130.635271 65.501629 
L 130.22591 63.146851 
L 129.401939 60.832387 
L 128.173933 58.577994 
L 126.556195 56.402512 
L 124.566478 54.323723 
L 122.225688 52.358237 
L 119.557586 50.521396 
L 116.588495 48.827195 
L 113.34701 47.288227 
L 109.863717 45.915634 
L 106.170928 44.719077 
L 102.302425 43.706708 
L 98.293215 42.885158 
L 94.179305 42.25952 
L 89.997477 41.833343 
L 85.785074 41.608624 
L 81.579792 41.585801 
L 77.41947 41.763748 
L 73.341877 42.139767 
L 69.384501 42.709586 
L 65.584314 43.46735 
L 61.977537 44.40562 
L 58.599385 45.515377 
L 55.483793 46.786028 
L 52.663124 48.205419 
L 50.167861 49.759866 
L 48.026278 51.43419 
L 46.264092 53.211781 
L 44.904107 55.074667 
L 43.965849 57.003619 
L 43.465198 58.978274 
L 43.414031 60.977284 
L 43.819875 62.978502 
L 44.685601 64.959185 
L 46.009143 66.896241 
L 47.78328 68.766489 
L 49.995481 70.546951 
L 52.627827 72.215166 
L 55.65702 73.749511 
L 59.054497 75.129535 
L 62.786634 76.336296 
L 66.815074 77.352674 
L 71.097149 78.163685 
L 75.586411 78.756751 
L 80.233251 79.121943 
L 84.985604 79.252172 
L 89.789714 79.143328 
L 94.590948 78.794373 
L 99.334628 78.207354 
L 103.966869 77.387377 
L 108.435393 76.342498 
L 112.690301 75.083579 
L 116.68478 73.624078 
L 120.375732 71.979803 
L 123.724317 70.168625 
L 126.696383 68.210172 
L 129.262801 66.125498 
L 131.399687 63.936751 
L 133.088523 61.666839 
L 134.316183 59.339107 
L 135.074864 56.977026 
L 135.361946 54.603913 
L 135.179782 52.242663 
L 134.535437 49.915522 
L 133.440387 47.643881 
L 131.910189 45.448104 
L 129.964134 43.347383 
L 127.624895 41.359621 
L 124.918169 39.501339 
L 121.87234 37.787609 
L 118.518138 36.231999 
L 114.888332 34.846538 
L 111.017426 33.641696 
L 106.941388 32.626371 
L 102.697387 31.807879 
L 98.323556 31.191958 
L 93.858763 30.782765 
L 89.342399 30.582881 
L 84.814175 30.593311 
L 80.313918 30.81348 
L 75.881373 31.24124 
L 71.556002 31.872859 
L 67.376765 32.703019 
L 63.381907 33.724814 
L 59.608709 34.929746 
L 56.093239 36.307728 
L 52.870074 37.847089 
L 49.971997 39.534594 
L 47.429686 41.355468 
L 45.271367 43.29344 
L 43.522459 45.330809 
L 42.205208 47.448519 
L 41.338304 49.62627 
L 40.93651 51.842653 
L 41.010292 54.075312 
L 41.565474 56.301139 
L 42.602929 58.496495 
L 44.11831 60.637472 
L 46.101845 62.700169 
L 48.538205 64.661006 
L 51.406456 66.497044 
L 54.68011 68.18633 
L 58.327278 69.70824 
L 62.310939 71.043823 
L 66.589315 72.176126 
L 71.116365 73.090501 
L 75.842372 73.774883 
L 80.714635 74.220012 
L 85.678228 74.41962 
L 90.676824 74.370556 
L 95.653555 74.072846 
L 100.551886 73.529694 
L 105.316482 72.74742 
L 109.894033 71.735332 
L 114.234035 70.505547 
L 118.289491 69.07276 
L 122.017521 67.453968 
L 125.379875 65.668167 
L 128.343332 63.736019 
L 130.879988 61.679514 
L 132.967439 59.521622 
L 134.588848 57.285953 
L 135.732926 54.996433 
L 136.393816 52.67699 
L 136.570904 50.351278 
L 136.268578 48.042419 
L 135.495922 45.772777 
L 134.266391 43.563767 
L 132.59745 41.435692 
L 130.510212 39.407605 
L 128.029065 37.497211 
L 125.181311 35.720777 
L 121.996814 34.093075 
L 118.507665 32.627341 
L 114.747864 31.335245 
L 110.753029 30.226877 
L 106.560123 29.310739 
L 102.207195 28.593745 
L 97.733153 28.081223 
L 93.177536 27.776918 
L 88.580313 27.682995 
L 83.981679 27.800045 
L 79.421862 28.127081 
L 74.940923 28.66154 
L 70.578558 29.399279 
L 66.373887 30.334568 
L 62.365229 31.460092 
L 58.589864 32.766941 
L 55.083775 34.244619 
L 51.881367 35.881046 
L 49.015164 37.662582 
L 46.515489 39.574052 
L 44.410118 41.598793 
L 42.723919 43.71872 
L 41.478478 45.914413 
L 40.691723 48.165226 
L 40.377542 50.449429 
L 40.545425 52.744381 
L 41.200116 55.026725 
L 42.341311 57.272625 
L 43.963401 59.458026 
L 46.055281 61.558943 
L 48.600232 63.551778 
L 51.575896 65.413648 
L 54.954345 67.122731 
L 58.702266 68.658616 
L 62.781249 70.002639 
L 67.148197 71.138215 
L 71.755842 72.051138 
L 76.553363 72.729847 
L 81.487096 73.165649 
L 86.501321 73.352889 
L 91.539099 73.289065 
L 96.543144 72.974876 
L 101.456704 72.414207 
L 106.224426 71.614054 
L 110.793183 70.584384 
L 115.112842 69.337942 
L 119.136945 67.890005 
L 122.823312 66.258105 
L 126.13452 64.461708 
L 129.038289 62.521885 
L 131.507741 60.460963 
L 133.521556 58.30218 
L 135.064022 56.069344 
L 136.124986 53.786506 
L 136.699721 51.477664 
L 136.788725 49.166473 
L 136.397451 46.876007 
L 135.536005 44.628532 
L 134.218797 42.445324 
L 132.464187 40.346508 
L 130.294105 38.350936 
L 127.733688 36.476081 
L 124.810912 34.737962 
L 121.556241 33.151088 
L 118.002297 31.728423 
L 114.183548 30.481356 
L 110.136011 29.419693 
L 105.896992 28.551647 
L 101.50483 27.883844 
L 96.998667 27.421322 
L 92.41823 27.167537 
L 87.803629 27.124366 
L 83.195158 27.29211 
L 78.633097 27.669497 
L 74.15752 28.253673 
L 69.808092 29.040206 
L 65.623856 30.023079 
L 61.643008 31.194685 
L 57.902656 32.545825 
L 54.43856 34.065713 
L 51.284844 35.741984 
L 48.473692 37.560714 
L 46.035024 39.506452 
L 43.996146 41.562266 
L 42.381386 43.709817 
L 41.211721 45.929445 
L 40.504396 48.200289 
L 40.272548 50.500429 
L 40.524846 52.807065 
L 41.26515 55.096719 
L 42.492219 57.345478 
L 44.199461 59.529258 
L 46.374755 61.624098 
L 49.000347 63.606482 
L 52.052842 65.453668 
L 55.503295 67.144038 
L 59.317411 68.657446 
L 63.455859 69.975554 
L 67.874696 71.082159 
L 72.525908 71.96349 
L 77.358044 72.608466 
L 82.316943 73.00891 
L 87.346529 73.159712 
L 92.389663 73.05893 
L 97.389014 72.707827 
L 102.287944 72.110849 
L 107.031367 71.275533 
L 111.566568 70.212361 
L 115.843957 68.934555 
L 119.817743 67.457826 
L 123.446506 65.800084 
L 126.693673 63.981122 
L 129.527868 62.022275 
L 131.923164 59.946073 
L 133.859214 57.7759 
L 135.321281 55.535648 
L 136.300176 53.2494 
L 136.792112 50.94113 
L 136.798484 48.634428 
L 136.3256 46.352257 
L 135.384358 44.116736 
L 133.989908 41.948967 
L 132.16128 39.868872 
L 129.921015 37.89508 
L 127.294791 36.044826 
L 124.311067 34.333879 
L 121.000729 32.77649 
L 117.396764 31.385357 
L 113.533949 30.1716 
L 109.448566 29.144755 
L 105.178135 28.312765 
L 100.761169 27.681984 
L 96.236942 27.257181 
L 91.645278 27.041542 
L 87.026347 27.036676 
L 82.420467 27.242614 
L 77.86791 27.657814 
L 73.408705 28.279155 
L 69.082435 29.101935 
L 64.928024 30.119864 
L 60.98351 31.325064 
L 57.285797 32.708067 
L 53.870393 34.257817 
L 50.77112 35.961679 
L 48.019806 37.805467 
L 45.645955 39.773473 
L 43.676398 41.848519 
L 42.134922 44.012034 
L 41.0419 46.244141 
L 40.413906 48.523787 
L 40.263342 50.828888 
L 40.598085 53.136508 
L 41.421145 55.423077 
L 42.730386 57.664629 
L 44.518285 59.837076 
L 46.771763 61.916508 
L 49.4721 63.879509 
L 52.594944 65.703503 
L 56.110415 67.367093 
L 59.983327 68.850411 
L 64.173523 70.135459 
L 68.636317 71.206422 
L 73.323051 72.049966 
L 78.181748 72.655486 
L 83.157851 73.015317 
L 88.19503 73.124877 
L 93.236037 72.982768 
L 98.223583 72.590796 
L 103.101223 71.95394 
L 107.814204 71.08025 
L 112.310279 69.98069 
L 116.540448 68.668925 
L 120.459615 67.161064 
L 124.027145 65.47536 
L 127.207317 63.631897 
L 129.969661 61.652238 
L 132.289186 59.559089 
L 134.146494 57.375944 
L 135.527794 55.126754 
L 136.424826 52.835607 
L 136.834699 50.526435 
L 136.759662 48.222739 
L 136.206826 45.947357 
L 135.187839 43.722252 
L 133.718536 41.568336 
L 131.818572 39.505324 
L 129.511047 37.551616 
L 126.822143 35.724206 
L 123.780755 34.03861 
L 120.418151 32.508821 
L 116.767646 31.14727 
L 112.864296 29.964814 
L 108.744614 28.970719 
L 104.446306 28.172661 
L 100.008034 27.576726 
L 95.469182 27.187415 
L 90.869649 27.007649 
L 86.249647 27.03877 
L 81.649502 27.280545 
L 77.10946 27.731165 
L 72.669492 28.387243 
L 68.369087 29.24381 
L 64.247038 30.294309 
L 60.34121 31.530594 
L 56.688292 32.942927 
L 53.32353 34.519986 
L 50.280434 36.248874 
L 47.590465 38.115144 
L 45.282702 40.102837 
L 43.383489 42.194533 
L 41.916066 44.371435 
L 40.900192 46.613458 
L 40.351765 48.899362 
L 40.282451 51.206907 
L 40.699325 53.513034 
L 41.604554 55.794088 
L 42.995105 58.026062 
L 44.862529 60.184875 
L 47.192801 62.246676 
L 49.966247 64.188169 
L 53.157572 65.986948 
L 56.735982 67.621851 
L 60.665427 69.073301 
L 64.90495 70.323643 
L 69.409152 71.357462 
L 74.128766 72.161867 
L 79.011324 72.726735 
L 84.00191 73.044908 
L 89.043976 73.112339 
L 94.080203 72.928166 
L 99.053382 72.494736 
L 103.90729 71.817553 
L 108.587539 70.905172 
L 108.587539 70.905172 
" clip-path="url(#p2da9889351)" style="fill: none; stroke: #ff7f0e; stroke-opacity: 0.5; stroke-width: 1.5; stroke-linecap: round"/>
   </g>
  </g>
 </g>
 <defs>
  <clipPath id="p2da9889351">
   <rect x="-1.8" y="-7.2" width="176.4" height="176.4"/>
  </clipPath>
 </defs>
</svg>
