<?xml version="1.0" encoding="utf-8" standalone="no"?>
<!DOCTYPE svg PUBLIC "-//W3C//DTD SVG 1.1//EN"
  "http://www.w3.org/Graphics/SVG/1.1/DTD/svg11.dtd">
<svg xmlns:xlink="http://www.w3.org/1999/xlink" width="216pt" height="180pt" viewBox="0 0 216 180" xmlns="http://www.w3.org/2000/svg" version="1.1">
 <metadata>
  <rdf:RDF xmlns:dc="http://purl.org/dc/elements/1.1/" xmlns:cc="http://creativecommons.org/ns#" xmlns:rdf="http://www.w3.org/1999/02/22-rdf-syntax-ns#">
   <cc:Work>
    <dc:type rdf:resource="http://purl.org/dc/dcmitype/StillImage"/>
    <dc:date>2023-06-14T18:46:15.870361</dc:date>
    <dc:format>image/svg+xml</dc:format>
    <dc:creator>
     <cc:Agent>
      <dc:title>Matplotlib v3.7.0, https://matplotlib.org/</dc:title>
     </cc:Agent>
    </dc:creator>
   </cc:Work>
  </rdf:RDF>
 </metadata>
 <defs>
  <style type="text/css">*{stroke-linejoin: round; stroke-linecap: butt}</style>
 </defs>
 <g id="figure_1">
  <g id="patch_1">
   <path d="M 0 180 
L 216 180 
L 216 0 
L 0 0 
z
" style="fill: #ffffff"/>
  </g>
  <g id="patch_2">
   <path d="M -1 169.2 
L 174.6 169.2 
L 174.6 -1 
" style="fill: none"/>
  </g>
  <g id="pane3d_1">
   <g id="patch_3">
    <path d="M 11.519416 125.705413 
L 69.772457 76.876559 
L 68.962684 6.456623 
L 7.921935 51.001381 
" style="fill: none; opacity: 0.5; stroke: #f2f2f2; stroke-linejoin: miter"/>
   </g>
  </g>
  <g id="pane3d_2">
   <g id="patch_4">
    <path d="M 69.772457 76.876559 
L 163.247803 104.046152 
L 166.583609 31.200681 
L 68.962684 6.456623 
" style="fill: none; opacity: 0.5; stroke: #e6e6e6; stroke-linejoin: miter"/>
   </g>
  </g>
  <g id="pane3d_3">
   <g id="patch_5">
    <path d="M 11.519416 125.705413 
L 110.607849 158.067695 
L 163.247803 104.046152 
L 69.772457 76.876559 
" style="fill: none; opacity: 0.5; stroke: #ececec; stroke-linejoin: miter"/>
   </g>
  </g>
  <g id="axis3d_1">
   <g id="line2d_1">
    <path d="M 11.519416 125.705413 
L 110.607849 158.067695 
" style="fill: none; stroke: #ffffff; stroke-width: 0.8; stroke-linecap: round"/>
   </g>
   <g id="text_1">
    <!-- x -->
    <g style="fill: #262626" transform="translate(40.437569 179.640981) scale(0.1 -0.1)">
     <defs>
      <path id="DejaVuSans-78" d="M 3513 3500 
L 2247 1797 
L 3578 0 
L 2900 0 
L 1881 1375 
L 863 0 
L 184 0 
L 1544 1831 
L 300 3500 
L 978 3500 
L 1906 2253 
L 2834 3500 
L 3513 3500 
z
" transform="scale(0.015625)"/>
     </defs>
     <use xlink:href="#DejaVuSans-78"/>
    </g>
   </g>
   <g id="Line3DCollection_1">
    <path d="M 31.79751 132.328239 
L 88.969114 82.456269 
L 88.977092 11.529692 
" style="fill: none; stroke: #d3d3d3; stroke-width: 0.8"/>
    <path d="M 52.89576 139.218927 
L 108.905351 88.250946 
L 109.780952 16.802864 
" style="fill: none; stroke: #d3d3d3; stroke-width: 0.8"/>
    <path d="M 74.480777 146.268594 
L 129.262781 94.168048 
L 131.043672 22.192343 
" style="fill: none; stroke: #d3d3d3; stroke-width: 0.8"/>
    <path d="M 96.569606 153.482805 
L 150.054894 100.211494 
L 152.780602 27.702022 
" style="fill: none; stroke: #d3d3d3; stroke-width: 0.8"/>
   </g>
   <g id="xtick_1">
    <g id="line2d_2">
     <path d="M 88.783784 78.616216 
" clip-path="url(#p558630521d)" style="fill: none; stroke: #d3d3d3; stroke-width: 0.8; stroke-linecap: round"/>
    </g>
    <g id="line2d_3">
     <path d="M 32.295672 131.893682 
L 30.799033 133.199231 
" style="fill: none; stroke: #808080; stroke-width: 0.8; stroke-linecap: round"/>
    </g>
    <g id="text_2">
     <!-- −0.2 -->
     <g style="fill: #808080" transform="translate(12.134637 155.816654) scale(0.1 -0.1)">
      <defs>
       <path id="DejaVuSans-2212" d="M 678 2272 
L 4684 2272 
L 4684 1741 
L 678 1741 
L 678 2272 
z
" transform="scale(0.015625)"/>
       <path id="DejaVuSans-30" d="M 2034 4250 
Q 1547 4250 1301 3770 
Q 1056 3291 1056 2328 
Q 1056 1369 1301 889 
Q 1547 409 2034 409 
Q 2525 409 2770 889 
Q 3016 1369 3016 2328 
Q 3016 3291 2770 3770 
Q 2525 4250 2034 4250 
z
M 2034 4750 
Q 2819 4750 3233 4129 
Q 3647 3509 3647 2328 
Q 3647 1150 3233 529 
Q 2819 -91 2034 -91 
Q 1250 -91 836 529 
Q 422 1150 422 2328 
Q 422 3509 836 4129 
Q 1250 4750 2034 4750 
z
" transform="scale(0.015625)"/>
       <path id="DejaVuSans-2e" d="M 684 794 
L 1344 794 
L 1344 0 
L 684 0 
L 684 794 
z
" transform="scale(0.015625)"/>
       <path id="DejaVuSans-32" d="M 1228 531 
L 3431 531 
L 3431 0 
L 469 0 
L 469 531 
Q 828 903 1448 1529 
Q 2069 2156 2228 2338 
Q 2531 2678 2651 2914 
Q 2772 3150 2772 3378 
Q 2772 3750 2511 3984 
Q 2250 4219 1831 4219 
Q 1534 4219 1204 4116 
Q 875 4013 500 3803 
L 500 4441 
Q 881 4594 1212 4672 
Q 1544 4750 1819 4750 
Q 2544 4750 2975 4387 
Q 3406 4025 3406 3419 
Q 3406 3131 3298 2873 
Q 3191 2616 2906 2266 
Q 2828 2175 2409 1742 
Q 1991 1309 1228 531 
z
" transform="scale(0.015625)"/>
      </defs>
      <use xlink:href="#DejaVuSans-2212"/>
      <use xlink:href="#DejaVuSans-30" x="83.789062"/>
      <use xlink:href="#DejaVuSans-2e" x="147.412109"/>
      <use xlink:href="#DejaVuSans-32" x="179.199219"/>
     </g>
    </g>
   </g>
   <g id="xtick_2">
    <g id="line2d_4">
     <path d="M 88.783784 78.616216 
" clip-path="url(#p558630521d)" style="fill: none; stroke: #d3d3d3; stroke-width: 0.8; stroke-linecap: round"/>
    </g>
    <g id="line2d_5">
     <path d="M 53.384251 138.774406 
L 51.916639 140.109913 
" style="fill: none; stroke: #808080; stroke-width: 0.8; stroke-linecap: round"/>
    </g>
    <g id="text_3">
     <!-- 0.0 -->
     <g style="fill: #808080" transform="translate(37.457297 162.929058) scale(0.1 -0.1)">
      <use xlink:href="#DejaVuSans-30"/>
      <use xlink:href="#DejaVuSans-2e" x="63.623047"/>
      <use xlink:href="#DejaVuSans-30" x="95.410156"/>
     </g>
    </g>
   </g>
   <g id="xtick_3">
    <g id="line2d_6">
     <path d="M 88.783784 78.616216 
" clip-path="url(#p558630521d)" style="fill: none; stroke: #d3d3d3; stroke-width: 0.8; stroke-linecap: round"/>
    </g>
    <g id="line2d_7">
     <path d="M 74.959018 145.813761 
L 73.522179 147.18027 
" style="fill: none; stroke: #808080; stroke-width: 0.8; stroke-linecap: round"/>
    </g>
    <g id="text_4">
     <!-- 0.2 -->
     <g style="fill: #808080" transform="translate(59.080505 170.206506) scale(0.1 -0.1)">
      <use xlink:href="#DejaVuSans-30"/>
      <use xlink:href="#DejaVuSans-2e" x="63.623047"/>
      <use xlink:href="#DejaVuSans-32" x="95.410156"/>
     </g>
    </g>
   </g>
   <g id="xtick_4">
    <g id="line2d_8">
     <path d="M 88.783784 78.616216 
" clip-path="url(#p558630521d)" style="fill: none; stroke: #d3d3d3; stroke-width: 0.8; stroke-linecap: round"/>
    </g>
    <g id="line2d_9">
     <path d="M 97.036983 153.017299 
L 95.632762 154.415901 
" style="fill: none; stroke: #808080; stroke-width: 0.8; stroke-linecap: round"/>
    </g>
    <g id="text_5">
     <!-- 0.4 -->
     <g style="fill: #808080" transform="translate(81.211374 177.654811) scale(0.1 -0.1)">
      <defs>
       <path id="DejaVuSans-34" d="M 2419 4116 
L 825 1625 
L 2419 1625 
L 2419 4116 
z
M 2253 4666 
L 3047 4666 
L 3047 1625 
L 3713 1625 
L 3713 1100 
L 3047 1100 
L 3047 0 
L 2419 0 
L 2419 1100 
L 313 1100 
L 313 1709 
L 2253 4666 
z
" transform="scale(0.015625)"/>
      </defs>
      <use xlink:href="#DejaVuSans-30"/>
      <use xlink:href="#DejaVuSans-2e" x="63.623047"/>
      <use xlink:href="#DejaVuSans-34" x="95.410156"/>
     </g>
    </g>
   </g>
  </g>
  <g id="axis3d_2">
   <g id="line2d_10">
    <path d="M 163.247803 104.046152 
L 110.607849 158.067695 
" style="fill: none; stroke: #ffffff; stroke-width: 0.8; stroke-linecap: round"/>
   </g>
   <g id="text_6">
    <!-- y -->
    <g style="fill: #262626" transform="translate(162.133934 160.636398) scale(0.1 -0.1)">
     <defs>
      <path id="DejaVuSans-79" d="M 2059 -325 
Q 1816 -950 1584 -1140 
Q 1353 -1331 966 -1331 
L 506 -1331 
L 506 -850 
L 844 -850 
Q 1081 -850 1212 -737 
Q 1344 -625 1503 -206 
L 1606 56 
L 191 3500 
L 800 3500 
L 1894 763 
L 2988 3500 
L 3597 3500 
L 2059 -325 
z
" transform="scale(0.015625)"/>
     </defs>
     <use xlink:href="#DejaVuSans-79"/>
    </g>
   </g>
   <g id="Line3DCollection_2">
    <path d="M 9.783981 49.642545 
L 13.289894 124.221364 
L 112.214591 156.418782 
" style="fill: none; stroke: #d3d3d3; stroke-width: 0.8"/>
    <path d="M 25.227612 38.372487 
L 27.989854 111.899566 
L 125.538422 142.745254 
" style="fill: none; stroke: #d3d3d3; stroke-width: 0.8"/>
    <path d="M 40.017909 27.579202 
L 42.094422 100.076838 
L 138.294691 129.654184 
" style="fill: none; stroke: #d3d3d3; stroke-width: 0.8"/>
    <path d="M 54.195471 17.233062 
L 55.639051 88.723461 
L 150.518907 117.109131 
" style="fill: none; stroke: #d3d3d3; stroke-width: 0.8"/>
    <path d="M 67.797604 7.306846 
L 68.656437 77.81203 
L 162.243677 105.076633 
" style="fill: none; stroke: #d3d3d3; stroke-width: 0.8"/>
   </g>
   <g id="xtick_5">
    <g id="line2d_11">
     <path d="M 88.783784 78.616216 
" clip-path="url(#p558630521d)" style="fill: none; stroke: #d3d3d3; stroke-width: 0.8; stroke-linecap: round"/>
    </g>
    <g id="line2d_12">
     <path d="M 111.380809 156.147408 
L 113.884319 156.962235 
" style="fill: none; stroke: #808080; stroke-width: 0.8; stroke-linecap: round"/>
    </g>
    <g id="text_7">
     <!-- −0.4 -->
     <g style="fill: #808080" transform="translate(112.998916 177.491326) scale(0.1 -0.1)">
      <use xlink:href="#DejaVuSans-2212"/>
      <use xlink:href="#DejaVuSans-30" x="83.789062"/>
      <use xlink:href="#DejaVuSans-2e" x="147.412109"/>
      <use xlink:href="#DejaVuSans-34" x="179.199219"/>
     </g>
    </g>
   </g>
   <g id="xtick_6">
    <g id="line2d_13">
     <path d="M 88.783784 78.616216 
" clip-path="url(#p558630521d)" style="fill: none; stroke: #d3d3d3; stroke-width: 0.8; stroke-linecap: round"/>
    </g>
    <g id="line2d_14">
     <path d="M 124.717147 142.48556 
L 127.183055 143.265301 
" style="fill: none; stroke: #808080; stroke-width: 0.8; stroke-linecap: round"/>
    </g>
    <g id="text_8">
     <!-- −0.2 -->
     <g style="fill: #808080" transform="translate(126.053021 163.512185) scale(0.1 -0.1)">
      <use xlink:href="#DejaVuSans-2212"/>
      <use xlink:href="#DejaVuSans-30" x="83.789062"/>
      <use xlink:href="#DejaVuSans-2e" x="147.412109"/>
      <use xlink:href="#DejaVuSans-32" x="179.199219"/>
     </g>
    </g>
   </g>
   <g id="xtick_7">
    <g id="line2d_15">
     <path d="M 88.783784 78.616216 
" clip-path="url(#p558630521d)" style="fill: none; stroke: #d3d3d3; stroke-width: 0.8; stroke-linecap: round"/>
    </g>
    <g id="line2d_16">
     <path d="M 137.485626 129.405432 
L 139.91483 130.152305 
" style="fill: none; stroke: #808080; stroke-width: 0.8; stroke-linecap: round"/>
    </g>
    <g id="text_9">
     <!-- 0.0 -->
     <g style="fill: #808080" transform="translate(142.740414 150.129037) scale(0.1 -0.1)">
      <use xlink:href="#DejaVuSans-30"/>
      <use xlink:href="#DejaVuSans-2e" x="63.623047"/>
      <use xlink:href="#DejaVuSans-30" x="95.410156"/>
     </g>
    </g>
   </g>
   <g id="xtick_8">
    <g id="line2d_17">
     <path d="M 88.783784 78.616216 
" clip-path="url(#p558630521d)" style="fill: none; stroke: #d3d3d3; stroke-width: 0.8; stroke-linecap: round"/>
    </g>
    <g id="line2d_18">
     <path d="M 149.721759 116.870644 
L 152.115142 117.586685 
" style="fill: none; stroke: #808080; stroke-width: 0.8; stroke-linecap: round"/>
    </g>
    <g id="text_10">
     <!-- 0.2 -->
     <g style="fill: #808080" transform="translate(154.716258 137.304563) scale(0.1 -0.1)">
      <use xlink:href="#DejaVuSans-30"/>
      <use xlink:href="#DejaVuSans-2e" x="63.623047"/>
      <use xlink:href="#DejaVuSans-32" x="95.410156"/>
     </g>
    </g>
   </g>
   <g id="xtick_9">
    <g id="line2d_19">
     <path d="M 88.783784 78.616216 
" clip-path="url(#p558630521d)" style="fill: none; stroke: #d3d3d3; stroke-width: 0.8; stroke-linecap: round"/>
    </g>
    <g id="line2d_20">
     <path d="M 161.458156 104.847788 
L 163.816589 105.534867 
" style="fill: none; stroke: #808080; stroke-width: 0.8; stroke-linecap: round"/>
    </g>
    <g id="text_11">
     <!-- 0.4 -->
     <g style="fill: #808080" transform="translate(166.202397 125.004496) scale(0.1 -0.1)">
      <use xlink:href="#DejaVuSans-30"/>
      <use xlink:href="#DejaVuSans-2e" x="63.623047"/>
      <use xlink:href="#DejaVuSans-34" x="95.410156"/>
     </g>
    </g>
   </g>
  </g>
  <g id="axis3d_3">
   <g id="line2d_21">
    <path d="M 163.247803 104.046152 
L 166.583609 31.200681 
" style="fill: none; stroke: #ffffff; stroke-width: 0.8; stroke-linecap: round"/>
   </g>
   <g id="text_12">
    <!-- z -->
    <g style="fill: #262626" transform="translate(202.494937 65.789607) scale(0.1 -0.1)">
     <defs>
      <path id="DejaVuSans-7a" d="M 353 3500 
L 3084 3500 
L 3084 2975 
L 922 459 
L 3084 459 
L 3084 0 
L 275 0 
L 275 525 
L 2438 3041 
L 353 3041 
L 353 3500 
z
" transform="scale(0.015625)"/>
     </defs>
     <use xlink:href="#DejaVuSans-7a"/>
    </g>
   </g>
   <g id="Line3DCollection_3">
    <path d="M 163.938216 88.969295 
L 69.604578 62.277301 
L 10.775839 110.264553 
" style="fill: none; stroke: #d3d3d3; stroke-width: 0.8"/>
    <path d="M 164.575541 75.051745 
L 69.449737 48.811951 
L 10.088978 96.001425 
" style="fill: none; stroke: #d3d3d3; stroke-width: 0.8"/>
    <path d="M 165.223768 60.896129 
L 69.292376 35.127411 
L 9.389913 81.484891 
" style="fill: none; stroke: #d3d3d3; stroke-width: 0.8"/>
    <path d="M 165.883179 46.496286 
L 69.132432 21.218284 
L 8.678317 66.708139 
" style="fill: none; stroke: #d3d3d3; stroke-width: 0.8"/>
   </g>
   <g id="xtick_10">
    <g id="line2d_22">
     <path d="M 88.783784 78.616216 
" style="fill: none; stroke: #d3d3d3; stroke-width: 0.8; stroke-linecap: round"/>
    </g>
    <g id="line2d_23">
     <path d="M 163.146154 88.745178 
L 165.524243 89.418066 
" style="fill: none; stroke: #808080; stroke-width: 0.8; stroke-linecap: round"/>
    </g>
    <g id="text_13">
     <!-- 0.025 -->
     <g style="fill: #808080" transform="translate(168.010033 94.011412) scale(0.1 -0.1)">
      <defs>
       <path id="DejaVuSans-35" d="M 691 4666 
L 3169 4666 
L 3169 4134 
L 1269 4134 
L 1269 2991 
Q 1406 3038 1543 3061 
Q 1681 3084 1819 3084 
Q 2600 3084 3056 2656 
Q 3513 2228 3513 1497 
Q 3513 744 3044 326 
Q 2575 -91 1722 -91 
Q 1428 -91 1123 -41 
Q 819 9 494 109 
L 494 744 
Q 775 591 1075 516 
Q 1375 441 1709 441 
Q 2250 441 2565 725 
Q 2881 1009 2881 1497 
Q 2881 1984 2565 2268 
Q 2250 2553 1709 2553 
Q 1456 2553 1204 2497 
Q 953 2441 691 2322 
L 691 4666 
z
" transform="scale(0.015625)"/>
      </defs>
      <use xlink:href="#DejaVuSans-30"/>
      <use xlink:href="#DejaVuSans-2e" x="63.623047"/>
      <use xlink:href="#DejaVuSans-30" x="95.410156"/>
      <use xlink:href="#DejaVuSans-32" x="159.033203"/>
      <use xlink:href="#DejaVuSans-35" x="222.65625"/>
     </g>
    </g>
   </g>
   <g id="xtick_11">
    <g id="line2d_24">
     <path d="M 88.783784 78.616216 
" style="fill: none; stroke: #d3d3d3; stroke-width: 0.8; stroke-linecap: round"/>
    </g>
    <g id="line2d_25">
     <path d="M 163.776508 74.831337 
L 166.175543 75.493094 
" style="fill: none; stroke: #808080; stroke-width: 0.8; stroke-linecap: round"/>
    </g>
    <g id="text_14">
     <!-- 0.050 -->
     <g style="fill: #808080" transform="translate(168.799628 80.136253) scale(0.1 -0.1)">
      <use xlink:href="#DejaVuSans-30"/>
      <use xlink:href="#DejaVuSans-2e" x="63.623047"/>
      <use xlink:href="#DejaVuSans-30" x="95.410156"/>
      <use xlink:href="#DejaVuSans-35" x="159.033203"/>
      <use xlink:href="#DejaVuSans-30" x="222.65625"/>
     </g>
    </g>
   </g>
   <g id="xtick_12">
    <g id="line2d_26">
     <path d="M 88.783784 78.616216 
" style="fill: none; stroke: #d3d3d3; stroke-width: 0.8; stroke-linecap: round"/>
    </g>
    <g id="line2d_27">
     <path d="M 164.41764 60.67959 
L 166.837992 61.329736 
" style="fill: none; stroke: #808080; stroke-width: 0.8; stroke-linecap: round"/>
    </g>
    <g id="text_15">
     <!-- 0.075 -->
     <g style="fill: #808080" transform="translate(169.602667 66.024853) scale(0.1 -0.1)">
      <defs>
       <path id="DejaVuSans-37" d="M 525 4666 
L 3525 4666 
L 3525 4397 
L 1831 0 
L 1172 0 
L 2766 4134 
L 525 4134 
L 525 4666 
z
" transform="scale(0.015625)"/>
      </defs>
      <use xlink:href="#DejaVuSans-30"/>
      <use xlink:href="#DejaVuSans-2e" x="63.623047"/>
      <use xlink:href="#DejaVuSans-30" x="95.410156"/>
      <use xlink:href="#DejaVuSans-37" x="159.033203"/>
      <use xlink:href="#DejaVuSans-35" x="222.65625"/>
     </g>
    </g>
   </g>
   <g id="xtick_13">
    <g id="line2d_28">
     <path d="M 88.783784 78.616216 
" style="fill: none; stroke: #d3d3d3; stroke-width: 0.8; stroke-linecap: round"/>
    </g>
    <g id="line2d_29">
     <path d="M 165.069829 46.283782 
L 167.511881 46.921815 
" style="fill: none; stroke: #808080; stroke-width: 0.8; stroke-linecap: round"/>
    </g>
    <g id="text_16">
     <!-- 0.100 -->
     <g style="fill: #808080" transform="translate(170.419496 51.671127) scale(0.1 -0.1)">
      <defs>
       <path id="DejaVuSans-31" d="M 794 531 
L 1825 531 
L 1825 4091 
L 703 3866 
L 703 4441 
L 1819 4666 
L 2450 4666 
L 2450 531 
L 3481 531 
L 3481 0 
L 794 0 
L 794 531 
z
" transform="scale(0.015625)"/>
      </defs>
      <use xlink:href="#DejaVuSans-30"/>
      <use xlink:href="#DejaVuSans-2e" x="63.623047"/>
      <use xlink:href="#DejaVuSans-31" x="95.410156"/>
      <use xlink:href="#DejaVuSans-30" x="159.033203"/>
      <use xlink:href="#DejaVuSans-30" x="222.65625"/>
     </g>
    </g>
   </g>
  </g>
  <g id="axes_1">
   <g id="line2d_30">
    <path d="M 82.194127 54.356397 
L 82.308187 87.85488 
L 82.344944 108.113199 
L 82.162878 109.871389 
L 81.94791 110.191514 
L 81.623625 110.228574 
L 81.321581 110.24577 
L 81.403177 110.325623 
L 82.148946 110.667523 
L 84.649514 111.539683 
L 89.238815 112.88916 
L 99.770747 115.907952 
L 103.050913 117.152135 
L 106.881512 118.870821 
L 112.86747 121.588073 
L 115.006115 122.299513 
L 116.903011 122.670394 
L 118.441836 122.717833 
L 119.52479 122.578397 
L 120.653632 122.251545 
L 121.827527 121.683992 
L 123.044143 120.81338 
L 124.298769 119.569036 
L 125.58293 117.874091 
L 126.882308 115.64937 
L 128.173793 112.819344 
L 129.42163 109.320129 
L 130.572918 105.109017 
L 131.553201 100.174404 
L 132.263558 94.544344 
L 132.479927 91.489482 
L 132.581078 88.291614 
L 132.548834 84.96681 
L 132.364564 81.533628 
L 132.00967 78.012878 
L 131.466125 74.427374 
L 130.717009 70.801738 
L 129.747006 67.162271 
L 128.54283 63.536894 
L 127.093529 59.955136 
L 125.390673 56.448071 
L 123.428423 53.048124 
L 121.203522 49.788649 
L 118.715237 46.703192 
L 115.965328 43.824457 
L 112.958087 41.18301 
L 109.700497 38.805865 
L 106.202545 36.715084 
L 102.47769 34.926575 
L 98.54345 33.449227 
L 94.422067 32.28449 
L 90.141128 31.426465 
L 85.734055 30.862534 
L 81.240301 30.574515 
L 76.705166 30.540284 
L 72.179132 30.73576 
L 67.716733 31.137111 
L 63.375016 31.722966 
L 59.211782 32.47638 
L 55.283806 33.386273 
L 51.64525 34.448049 
L 48.346444 35.66318 
L 45.433036 37.037605 
L 42.945472 38.578971 
L 40.918622 40.292987 
L 39.381404 42.179361 
L 38.356325 44.228041 
L 37.858951 46.416582 
L 37.897462 48.709317 
L 38.472456 51.058701 
L 39.577146 53.408671 
L 41.19794 55.699357 
L 43.315322 57.872172 
L 45.904801 59.874287 
L 48.937726 61.66173 
L 52.381786 63.200803 
L 56.201117 64.467891 
L 60.356031 65.448034 
L 64.802461 66.132805 
L 69.491291 66.517989 
L 74.367748 66.601509 
L 79.371057 66.381911 
L 84.434549 65.857602 
L 89.486344 65.026914 
L 94.450686 63.888991 
L 99.249894 62.445387 
L 103.806788 60.702161 
L 108.047357 58.672179 
L 111.903394 56.37722 
L 115.31482 53.849451 
L 118.231517 51.131824 
L 120.614565 48.277079 
L 122.436888 45.345251 
L 123.683355 42.399912 
L 124.350393 39.503711 
L 124.445129 36.714062 
L 123.984089 34.079809 
L 122.991502 31.6395 
L 121.497339 29.421408 
L 119.53529 27.444963 
L 117.140928 25.722922 
L 114.350286 24.26352 
L 111.19903 23.072035 
L 107.72226 22.151534 
L 103.954916 21.502835 
L 99.932644 21.123991 
L 95.692933 21.009621 
L 91.276316 21.150444 
L 86.727403 21.53323 
L 82.095547 22.141323 
L 77.434983 22.955718 
L 72.804353 23.956617 
L 68.265603 25.125267 
L 63.882376 26.445798 
L 59.718079 27.906747 
L 55.833885 29.501922 
L 52.286901 31.230325 
L 49.128673 33.094928 
L 46.404094 35.100333 
L 44.15066 37.249519 
L 42.397991 39.540178 
L 41.167534 41.961316 
L 40.472405 44.490881 
L 40.317437 47.095052 
L 40.699492 49.729479 
L 41.608094 52.342345 
L 43.026337 54.878608 
L 44.931955 57.284608 
L 47.298378 59.512105 
L 50.095586 61.521137 
L 53.290627 63.281378 
L 56.84776 64.772057 
L 60.728234 65.980764 
L 64.889809 66.901577 
L 69.286162 67.532972 
L 73.86634 67.87589 
L 78.574432 67.932241 
L 83.349612 67.704013 
L 88.126678 67.193062 
L 92.837122 66.401572 
L 97.410747 65.333084 
L 101.777693 63.993958 
L 105.870711 62.395015 
L 109.627435 60.553102 
L 112.992439 58.49226 
L 115.918871 56.244197 
L 118.369575 53.847858 
L 120.317661 51.347999 
L 121.746575 48.792887 
L 122.649733 46.231445 
L 123.029787 43.710342 
L 122.897564 41.271558 
L 122.270762 38.950856 
L 121.172446 36.777368 
L 119.629492 34.774157 
L 117.671113 32.959428 
L 115.32762 31.347884 
L 112.629569 29.95182 
L 109.607338 28.781673 
L 106.291186 27.845996 
L 102.711704 27.150971 
L 98.900577 26.699697 
L 94.891512 26.491515 
L 90.721161 26.521596 
L 86.429891 26.780933 
L 82.062238 27.25683 
L 77.666934 27.93385 
L 73.296427 28.79516 
L 69.005908 29.824085 
L 64.851926 31.005688 
L 60.890737 32.328103 
L 57.176595 33.783381 
L 53.760193 35.367623 
L 50.687384 37.080264 
L 47.998276 38.922492 
L 45.726669 40.894949 
L 43.899768 42.995007 
L 42.538074 45.214106 
L 41.655387 47.535651 
L 41.258917 49.933966 
L 41.349522 52.374618 
L 41.922108 54.816137 
L 42.966199 57.212857 
L 44.466637 59.518352 
L 46.4043 61.688836 
L 48.75675 63.685962 
L 51.498676 65.478625 
L 54.602077 67.043657 
L 58.036179 68.365486 
L 61.767103 69.435037 
L 65.757388 70.248174 
L 69.965468 70.804035 
L 74.345237 71.1035 
L 78.845833 71.148032 
L 83.411756 70.93898 
L 87.983413 70.477429 
L 92.498133 69.764572 
L 96.891628 68.802547 
L 101.099815 67.595612 
L 105.06083 66.151487 
L 108.717057 64.482651 
L 112.016952 62.607364 
L 114.916507 60.550177 
L 117.38025 58.341775 
L 119.381764 56.018056 
L 120.903755 53.618524 
L 121.937732 51.184197 
L 122.483395 48.755369 
L 122.547762 46.36963 
L 122.1441 44.06047 
L 121.290729 41.856682 
L 120.009742 39.782542 
L 118.325776 37.858551 
L 116.264924 36.102399 
L 113.853908 34.529808 
L 111.119586 33.154997 
L 108.088833 31.990661 
L 104.788784 31.047521 
L 101.247369 30.333614 
L 97.494058 29.853517 
L 93.560688 29.607736 
L 89.482238 29.59241 
L 85.297419 29.799438 
L 81.04895 30.217059 
L 76.783429 30.830845 
L 72.550763 31.625017 
L 68.403153 32.583927 
L 64.393742 33.693506 
L 60.575072 34.94246 
L 56.997524 36.323003 
L 53.707923 37.830935 
L 50.74844 39.464966 
L 48.155836 41.22529 
L 45.961033 43.111537 
L 44.188939 45.120386 
L 42.858422 47.243221 
L 41.982388 49.464286 
L 41.567919 51.759736 
L 41.616509 54.09786 
L 42.124403 56.440519 
L 43.083064 58.745571 
L 44.479735 60.969876 
L 46.298021 63.072332 
L 48.51841 65.016455 
L 51.118625 66.772142 
L 54.073774 68.316463 
L 57.356249 69.633529 
L 60.935424 70.713624 
L 64.777204 71.551873 
L 68.843527 72.146732 
L 73.091921 72.498551 
L 77.475245 72.608407 
L 81.941712 72.477339 
L 86.435296 72.106055 
L 90.896574 71.495125 
L 95.263991 70.645621 
L 99.475503 69.560104 
L 103.47046 68.243831 
L 107.191552 66.705998 
L 110.586635 64.960809 
L 113.610259 63.028174 
L 116.224789 60.933853 
L 118.401052 58.708933 
L 120.11855 56.388651 
L 121.365287 54.010683 
L 122.137277 51.61316 
L 122.437817 49.232743 
L 122.276561 46.903093 
L 121.668458 44.65399 
L 120.632596 42.511163 
L 119.191044 40.49673 
L 117.367772 38.629996 
L 115.187764 36.928264 
L 112.6764 35.407411 
L 109.859164 34.082025 
L 106.7617 32.965121 
L 103.410175 32.067498 
L 99.831884 31.396954 
L 96.056006 30.957543 
L 92.114388 30.749054 
L 88.042226 30.76686 
L 83.878531 31.002194 
L 79.666253 31.442859 
L 75.45201 32.074316 
L 71.285369 32.881038 
L 67.217747 33.847968 
L 63.301021 34.961886 
L 59.586 36.212465 
L 56.120949 37.59283 
L 52.950319 39.099455 
L 50.113784 40.73133 
L 47.64562 42.488424 
L 45.574388 44.369627 
L 43.922831 46.370436 
L 42.707911 48.480793 
L 41.94091 50.683486 
L 41.627602 52.953474 
L 41.768498 55.258352 
L 42.359193 57.559945 
L 43.390824 59.816774 
L 44.850594 61.986976 
L 46.722305 64.031165 
L 48.986807 65.914784 
L 51.622281 67.609641 
L 54.604314 69.094517 
L 57.905751 70.35491 
L 61.496353 71.382116 
L 65.342341 72.1719 
L 69.405899 72.723035 
L 73.644766 73.035941 
L 78.012008 73.111596 
L 82.456099 72.950856 
L 86.921367 72.554225 
L 91.348879 71.922096 
L 95.677741 71.055417 
L 99.846742 69.956682 
L 103.796225 68.631117 
L 107.469998 67.087885 
L 110.817109 65.341107 
L 113.793308 63.410503 
L 116.362102 61.321489 
L 118.495355 59.104631 
L 120.173444 56.794463 
L 121.385062 54.427816 
L 122.12671 52.041898 
L 122.401964 49.672452 
L 122.220563 47.35232 
L 121.597361 45.110626 
L 120.551205 42.972657 
L 119.103807 40.960309 
L 117.278711 39.092856 
L 115.100434 37.387727 
L 112.593886 35.861018 
L 109.784102 34.527596 
L 106.696306 33.400764 
L 103.356277 32.491616 
L 99.790957 31.808227 
L 96.029187 31.354915 
L 92.102483 31.13172 
L 88.045706 31.134254 
L 83.897511 31.353972 
L 79.700476 31.778876 
L 75.50082 32.394593 
L 71.347703 33.185718 
L 67.292132 34.137258 
L 63.385589 35.235995 
L 59.678515 36.471541 
L 56.218852 37.836908 
L 53.05078 39.32843 
L 50.213758 40.944962 
L 47.741913 42.686389 
L 45.663719 44.551604 
L 44.001907 46.536239 
L 42.773495 48.630512 
L 41.989903 50.817628 
L 41.657118 53.073065 
L 41.775934 55.36498 
L 42.342287 57.655733 
L 43.347697 59.904286 
L 44.779779 62.069067 
L 46.622763 64.110809 
L 48.857931 65.99491 
L 51.463901 67.693004 
L 54.416709 69.183609 
L 57.689666 70.451931 
L 61.253024 71.488984 
L 65.073526 72.290299 
L 69.113914 72.854479 
L 73.332506 73.181838 
L 77.682963 73.273302 
L 82.114338 73.1297 
L 86.571499 72.751506 
L 90.995972 72.13904 
L 95.327207 71.2931 
L 99.50419 70.215925 
L 103.467298 68.912359 
L 107.160197 67.391054 
L 110.531631 65.665507 
L 113.536903 63.754736 
L 116.138963 61.68343 
L 118.309036 59.481469 
L 120.026817 57.182807 
L 121.2803 54.823861 
L 122.065292 52.441614 
L 122.384705 50.071777 
L 122.247663 47.747323 
L 121.668476 45.49761 
L 120.665525 43.348206 
L 119.26015 41.321278 
L 117.475604 39.436343 
L 115.336189 37.711037 
L 112.866647 36.161658 
L 110.091861 34.8033 
L 107.036892 33.649561 
L 103.727313 32.711907 
L 100.189787 31.99888 
L 96.452802 31.515328 
L 92.547434 31.261867 
L 88.508039 31.234671 
L 84.372727 31.425703 
L 80.183525 31.823366 
L 75.986153 32.413542 
L 71.829365 33.180908 
L 67.763901 34.110375 
L 63.841145 35.188467 
L 60.11162 36.404422 
L 56.623518 37.75083 
L 53.421413 39.223635 
L 50.545268 40.821431 
L 48.029783 42.544053 
L 45.904049 44.390616 
L 44.191436 46.357266 
L 42.909618 48.435005 
L 42.070676 50.608 
L 41.681259 52.852753 
L 41.742812 55.138358 
L 42.2519 57.427882 
L 43.200628 59.680665 
L 44.577149 61.855143 
L 46.366174 63.9117 
L 48.54943 65.815108 
L 51.105959 67.536197 
L 54.012224 69.052631 
L 57.241993 70.348808 
L 60.766031 71.415059 
L 64.551656 72.246405 
L 68.562247 72.841122 
L 72.756811 73.199355 
L 77.089715 73.321988 
L 81.51069 73.209874 
L 85.965205 72.863516 
L 90.395248 72.283209 
L 94.740535 71.469613 
L 98.940082 70.424677 
L 102.934029 69.152785 
L 106.665544 67.661957 
L 110.082633 65.96492 
L 113.13967 64.079847 
L 115.798539 62.030584 
L 118.029329 59.846262 
L 119.81058 57.560275 
L 121.129159 55.20872 
L 121.979819 52.828537 
L 122.364511 50.455647 
L 122.291525 48.123419 
L 121.774471 45.861708 
L 120.831189 43.696578 
L 119.482623 41.65063 
L 117.751769 39.743711 
L 115.662778 37.993698 
L 113.240312 36.417085 
L 110.5092 35.029173 
L 107.494422 33.843837 
L 104.221411 32.872931 
L 100.716595 32.125497 
L 97.008115 31.606989 
L 93.126596 31.318685 
L 89.105845 31.257428 
L 84.983374 31.415784 
L 80.800611 31.782639 
L 76.602731 32.344182 
L 72.438066 33.085188 
L 68.357108 33.990451 
L 64.411203 35.046182 
L 60.651063 36.241167 
L 57.125279 37.567478 
L 53.878998 39.020586 
L 50.952887 40.598756 
L 48.38243 42.301745 
L 46.197543 44.128908 
L 44.42243 46.076978 
L 43.075596 48.137851 
L 42.169943 50.296803 
L 41.712918 52.531511 
L 41.706735 54.81214 
L 42.148675 57.102562 
L 43.031499 59.362534 
L 44.343941 61.550469 
L 46.071221 63.626314 
L 48.195516 65.554074 
L 50.696287 67.303608 
L 53.550416 68.851547 
L 56.732119 70.181312 
L 60.212668 71.282413 
L 63.959961 72.14925 
L 67.938029 72.779694 
L 72.106591 73.173686 
L 76.420749 73.332054 
L 80.830952 73.255683 
L 85.283301 72.945126 
L 89.720268 72.400679 
L 94.081845 71.622887 
L 98.307062 70.613424 
L 102.335781 69.376211 
L 106.110602 67.918625 
L 109.578698 66.252598 
L 112.693392 64.395418 
L 115.415372 62.370049 
L 117.713444 60.204837 
L 119.564854 57.932586 
L 120.955213 55.58907 
L 121.878094 53.211201 
L 122.33439 50.835149 
L 122.331466 48.49474 
L 121.882174 46.220393 
L 121.882174 46.220393 
" clip-path="url(#p558630521d)" style="fill: none; stroke: #1f77b4; stroke-width: 1.5; stroke-linecap: round"/>
   </g>
   <g id="line2d_31">
    <path d="M 82.194127 54.356397 
L 82.330948 100.897955 
L 82.354258 110.916789 
L 82.528475 110.979052 
L 82.18904 110.902753 
L 82.00903 111.066672 
L 82.133885 111.199899 
L 82.469201 111.213225 
L 82.718617 111.04619 
L 82.662348 110.866794 
L 82.364741 110.767133 
L 81.939441 110.845654 
L 81.744603 111.063601 
L 81.822263 111.246088 
L 82.15374 111.381258 
L 82.68109 111.337666 
L 83.028026 111.119571 
L 83.081126 110.862391 
L 82.910029 110.664456 
L 82.482027 110.524896 
L 81.846951 110.5736 
L 81.403895 110.802041 
L 81.246031 111.078418 
L 81.349073 111.365143 
L 81.714 111.58771 
L 82.273496 111.680242 
L 83.022544 111.567442 
L 83.527214 111.293302 
L 83.768675 110.909767 
L 83.709285 110.581867 
L 83.41356 110.291515 
L 82.911128 110.088871 
L 82.095946 110.017734 
L 81.251374 110.181223 
L 80.699882 110.469559 
L 80.369537 110.859069 
L 80.312698 111.183584 
L 80.438433 111.503653 
L 80.746599 111.788448 
L 81.40905 112.062735 
L 82.27735 112.164815 
L 83.223691 112.061158 
L 84.0965 111.749841 
L 84.744243 111.263432 
L 85.004967 110.821365 
L 85.031228 110.352644 
L 84.806708 109.897937 
L 84.337337 109.498851 
L 83.651912 109.194166 
L 82.800711 109.016165 
L 81.528136 109.013048 
L 80.279191 109.29206 
L 79.483441 109.672209 
L 78.900177 110.169109 
L 78.597106 110.74208 
L 78.574639 111.141631 
L 78.704975 111.535973 
L 79.187748 112.080086 
L 79.992383 112.517016 
L 81.063871 112.796188 
L 82.318242 112.878533 
L 83.648771 112.741059 
L 84.934909 112.380106 
L 86.053194 111.812844 
L 86.889033 111.076738 
L 87.24163 110.518845 
L 87.405335 109.930028 
L 87.366374 109.332064 
L 87.118786 108.747801 
L 86.664893 108.200259 
L 86.015437 107.711715 
L 85.189406 107.302789 
L 83.679698 106.877417 
L 81.952956 106.717629 
L 80.154067 106.848343 
L 78.443244 107.269484 
L 77.432204 107.699511 
L 76.578588 108.23285 
L 75.923938 108.850156 
L 75.503648 109.527695 
L 75.345198 110.238071 
L 75.466587 110.951145 
L 75.875053 111.635137 
L 76.566158 112.257875 
L 77.523335 112.788158 
L 78.71795 113.19716 
L 80.10993 113.459824 
L 81.64898 113.556158 
L 83.276345 113.472361 
L 84.927088 113.201707 
L 86.532749 112.745127 
L 88.024291 112.111434 
L 89.33515 111.31718 
L 90.404238 110.386145 
L 91.178749 109.348473 
L 91.616606 108.23952 
L 91.688453 107.098454 
L 91.379103 105.966705 
L 90.688403 104.88631 
L 89.631496 103.898257 
L 88.238517 103.040863 
L 86.553737 102.348259 
L 84.634223 101.849008 
L 82.548065 101.564911 
L 80.372211 101.510001 
L 78.189979 101.689761 
L 76.088269 102.100589 
L 74.15454 102.729519 
L 72.473583 103.554237 
L 71.12417 104.543412 
L 70.175648 105.657377 
L 69.869987 106.246731 
L 69.684591 106.849182 
L 69.624019 107.457957 
L 69.69166 108.066033 
L 69.889655 108.666197 
L 70.218832 109.25112 
L 70.678656 109.813432 
L 71.267189 110.345798 
L 72.815491 111.292058 
L 74.8197 112.035199 
L 77.213629 112.526555 
L 79.910797 112.726124 
L 82.807504 112.60491 
L 85.787016 112.146808 
L 88.72467 111.349876 
L 91.493592 110.226879 
L 93.970683 108.805049 
L 95.063805 107.994303 
L 96.042475 107.125072 
L 96.894894 106.204263 
L 97.610496 105.239378 
L 98.180064 104.23843 
L 98.595835 103.209855 
L 98.851582 102.162424 
L 98.942676 101.105147 
L 98.86614 100.047178 
L 98.62067 98.997723 
L 98.206647 97.965946 
L 97.626131 96.960879 
L 96.882838 95.991332 
L 95.982102 95.065817 
L 94.930826 94.19246 
L 93.737417 93.378935 
L 92.411715 92.632388 
L 90.964907 91.959377 
L 89.409438 91.365816 
L 86.027968 90.437132 
L 82.388033 89.87878 
L 78.623407 89.709949 
L 74.876845 89.935591 
L 71.295659 90.545747 
L 68.026956 91.515227 
L 66.554445 92.122682 
L 65.212511 92.80367 
L 64.017151 93.55086 
L 62.983335 94.356069 
L 62.124825 95.210309 
L 61.453996 96.103842 
L 60.981654 97.026251 
L 60.716868 97.966523 
L 60.666802 98.913137 
L 60.836559 99.854172 
L 61.229047 100.777422 
L 61.844855 101.67052 
L 62.682155 102.52108 
L 63.736636 103.316835 
L 65.001453 104.045794 
L 66.46723 104.696395 
L 68.122078 105.257665 
L 69.951671 105.719374 
L 71.939346 106.072191 
L 74.06625 106.307827 
L 76.311532 106.419172 
L 78.652558 106.400414 
L 81.065178 106.247145 
L 83.524006 105.956445 
L 86.002745 105.526944 
L 88.474512 104.958864 
L 90.912194 104.25403 
L 93.288796 103.41586 
L 95.5778 102.449331 
L 97.753507 101.360915 
L 99.791368 100.158499 
L 101.668296 98.851283 
L 103.362947 97.449652 
L 104.855974 95.965046 
L 106.130245 94.409806 
L 107.171022 92.797023 
L 107.966105 91.140369 
L 108.505938 89.453934 
L 108.783672 87.752067 
L 108.795196 86.049208 
L 108.539138 84.35974 
L 108.016828 82.697838 
L 107.232234 81.077335 
L 106.191882 79.511591 
L 104.904749 78.013378 
L 103.382137 76.594777 
L 101.637543 75.267079 
L 99.686507 74.040703 
L 97.546461 72.925125 
L 95.23657 71.928809 
L 92.777563 71.059155 
L 90.191571 70.322448 
L 87.501953 69.723818 
L 84.733128 69.267205 
L 81.910401 68.95533 
L 79.059786 68.789667 
L 76.207825 68.770424 
L 73.38141 68.896531 
L 70.607586 69.16562 
L 67.913363 69.574027 
L 65.325505 70.116786 
L 62.870323 70.787636 
L 60.573449 71.579034 
L 58.45961 72.482174 
L 56.55238 73.48702 
L 54.873936 74.582349 
L 53.444798 75.755804 
L 52.283567 76.993969 
L 51.406663 78.282448 
L 50.828058 79.605976 
L 50.559027 80.948538 
L 50.607899 82.293507 
L 50.979833 83.623807 
L 51.676621 84.92209 
L 52.696517 86.170927 
L 54.03411 87.353023 
L 55.680244 88.451436 
L 57.621991 89.449809 
L 59.842678 90.332604 
L 62.321987 91.085337 
L 65.036108 91.694809 
L 67.957976 92.149323 
L 71.057556 92.438884 
L 74.302204 92.555377 
L 77.657076 92.49272 
L 81.085594 92.246977 
L 84.549946 91.816443 
L 88.011614 91.201684 
L 91.431926 90.40554 
L 94.772597 89.433088 
L 97.996276 88.29156 
L 101.067061 86.990233 
L 103.95098 85.540279 
L 106.616436 83.954586 
L 109.03459 82.24756 
L 111.179691 80.434904 
L 113.029344 78.533388 
L 114.564714 76.560607 
L 115.77066 74.534749 
L 116.635817 72.474352 
L 117.152609 70.398082 
L 117.317219 68.324516 
L 117.129507 66.271947 
L 116.592884 64.258195 
L 115.714164 62.300447 
L 114.503375 60.415112 
L 112.973561 58.617693 
L 111.140565 56.922681 
L 109.022806 55.343464 
L 106.641049 53.892252 
L 104.018178 52.580012 
L 101.178966 51.416428 
L 98.149859 50.409852 
L 94.958756 49.567282 
L 91.634801 48.894336 
L 88.208176 48.395232 
L 84.709902 48.07278 
L 81.171644 47.928365 
L 77.625513 47.961946 
L 74.103868 48.172045 
L 70.639121 48.555747 
L 67.263525 49.108698 
L 64.008967 49.825106 
L 60.906741 50.697751 
L 57.987312 51.717994 
L 55.280075 52.875802 
L 52.813086 54.159769 
L 50.612797 55.557164 
L 48.703763 57.053978 
L 47.108354 58.635 
L 45.846448 60.283894 
L 44.935133 61.983317 
L 44.388403 63.715034 
L 44.21687 65.460078 
L 44.427494 67.198915 
L 45.023337 68.911641 
L 46.003351 70.578199 
L 47.362216 72.178611 
L 49.090228 73.693235 
L 51.173249 75.103024 
L 53.592732 76.3898 
L 56.325815 77.536526 
L 59.345502 78.527576 
L 62.620924 79.348991 
L 66.117677 79.988715 
L 69.798239 80.436809 
L 73.622465 80.68563 
L 77.548128 80.729971 
L 81.531519 80.567161 
L 85.52808 80.197115 
L 89.493052 79.622342 
L 93.382128 78.847898 
L 97.152092 77.881297 
L 100.761433 76.732379 
L 104.170901 75.41313 
L 107.34403 73.937484 
L 110.247571 72.321083 
L 112.85187 70.581023 
L 115.13116 68.735588 
L 117.063777 66.803978 
L 118.632299 64.80603 
L 119.823606 62.761957 
L 120.628881 60.692093 
L 121.043538 58.616648 
L 121.067105 56.555497 
L 120.703058 54.527974 
L 119.958619 52.5527 
L 118.844529 50.64743 
L 117.374797 48.82892 
L 115.566442 47.112823 
L 113.439226 45.513595 
L 111.01539 44.044425 
L 108.319387 42.717182 
L 105.377632 41.54237 
L 102.218254 40.5291 
L 98.870861 39.685066 
L 95.366316 39.016533 
L 91.736524 38.528322 
L 88.014222 38.223811 
L 84.232783 38.104925 
L 80.426024 38.172137 
L 76.628007 38.424466 
L 72.872853 38.859476 
L 69.194539 39.473277 
L 65.626698 40.260527 
L 62.202408 41.214435 
L 58.95396 42.326774 
L 55.912632 43.58789 
L 53.108428 44.986729 
L 50.569819 46.510865 
L 48.323458 48.146545 
L 46.393888 49.878745 
L 44.803244 51.691246 
L 43.570937 53.566729 
L 42.713349 55.486884 
L 42.243526 57.432553 
L 42.170888 59.383885 
L 42.500956 61.320522 
L 43.235115 63.221807 
L 44.37041 65.067011 
L 45.899399 66.835583 
L 47.810061 68.507413 
L 50.085779 70.063112 
L 52.705385 71.484285 
L 55.643308 72.753823 
L 58.869783 73.856168 
L 62.351165 74.777576 
L 66.050318 75.506353 
L 69.927076 76.033059 
L 73.938786 76.350685 
L 78.040901 76.454776 
L 82.187617 76.343516 
L 86.332543 76.017766 
L 90.429378 75.481041 
L 94.432588 74.739451 
L 98.298057 73.801586 
L 101.9837 72.678358 
L 105.450026 71.382811 
L 108.660637 69.929891 
L 111.582652 68.336195 
L 114.187055 66.619702 
L 116.448955 64.799495 
L 118.347777 62.895476 
L 119.867355 60.92809 
L 120.995968 58.918053 
L 121.726296 56.886097 
L 122.05532 54.852739 
L 121.984172 52.838056 
L 121.517942 50.861502 
L 120.665448 48.941733 
L 119.438992 47.096464 
L 117.854088 45.342347 
L 115.929192 43.694871 
L 113.685426 42.168282 
L 111.146301 40.775516 
L 108.337451 39.528156 
L 105.286378 38.436391 
L 102.022204 37.508998 
L 98.575438 36.753318 
L 94.977751 36.17525 
L 91.261766 35.779245 
L 87.460855 35.568299 
L 83.608945 35.543955 
L 79.740321 35.706298 
L 75.889443 36.053961 
L 72.09075 36.58412 
L 68.378465 37.292496 
L 64.786393 38.173359 
L 61.347708 39.219533 
L 58.094728 40.422408 
L 55.058675 41.771948 
L 52.269426 43.256723 
L 49.755236 44.863936 
L 47.542465 46.579473 
L 45.655275 48.387961 
L 44.115329 50.272846 
L 42.941482 52.216492 
L 42.149465 54.200298 
L 41.751587 56.204842 
L 41.756443 58.210043 
L 42.168645 60.195355 
L 42.988597 62.139975 
L 44.212295 64.023081 
L 45.831192 65.824082 
L 47.832124 67.522892 
L 50.197302 69.100202 
L 52.904384 70.537771 
L 55.926634 71.818703 
L 59.233158 72.92772 
L 62.789238 73.851421 
L 66.556736 74.578513 
L 70.494585 75.100009 
L 74.559344 75.409395 
L 78.705805 75.502752 
L 82.887646 75.378822 
L 87.058109 75.039039 
L 91.170684 74.487497 
L 95.179782 73.730878 
L 99.041388 72.778324 
L 102.713664 71.641277 
L 106.157507 70.333268 
L 109.337027 68.869691 
L 112.219964 67.267539 
L 114.77801 65.545135 
L 116.987064 63.721848 
L 118.827389 61.817807 
L 120.283702 59.853628 
L 121.34518 57.85014 
L 122.005411 55.828137 
L 122.262275 53.808142 
L 122.11778 51.810199 
L 121.57786 49.853681 
L 120.652142 47.957131 
L 119.353685 46.138117 
L 117.698716 44.413118 
L 115.706346 42.797427 
L 113.398296 41.305075 
L 110.798624 39.948768 
L 107.933456 38.739849 
L 104.830729 37.688258 
L 101.519951 36.802515 
L 98.031967 36.089702 
L 94.398736 35.555455 
L 90.653123 35.203958 
L 86.828701 35.037942 
L 82.95955 35.058681 
L 79.080073 35.265996 
L 75.224804 35.658249 
L 71.428215 36.232348 
L 67.724523 36.983749 
L 64.147483 37.906455 
L 60.730175 38.993024 
L 57.504779 40.234582 
L 54.50233 41.620835 
L 51.752464 43.140096 
L 49.283149 44.779321 
L 47.120397 46.524155 
L 45.287967 48.358999 
L 43.807062 50.267086 
L 42.696013 52.230585 
L 41.969974 54.230726 
L 41.640616 56.247941 
L 41.715844 58.262037 
L 42.199533 60.252387 
L 43.091303 62.198152 
L 44.386337 64.078513 
L 46.07525 65.872932 
L 48.144027 67.56142 
L 50.574032 69.124822 
L 53.34209 70.545096 
L 56.420666 71.805597 
L 59.778114 72.891347 
L 63.379024 73.78929 
L 67.184649 74.488515 
L 71.153401 74.980455 
L 75.241421 75.259041 
L 79.403194 75.320814 
L 83.592213 75.164994 
L 87.761655 74.793488 
L 91.865066 74.21086 
L 95.857035 73.424241 
L 99.69384 72.443202 
L 103.334041 71.27958 
L 106.739027 69.947265 
L 109.873485 68.461967 
L 112.7058 66.840948 
L 115.208365 65.102753 
L 117.357819 63.266921 
L 119.13519 61.353705 
L 120.525972 59.383793 
L 121.520121 57.378042 
L 122.111986 55.357231 
L 122.300191 53.341829 
L 122.087454 51.351791 
L 121.480385 49.406368 
L 120.489243 47.523954 
L 119.127676 45.721946 
L 117.412449 44.016634 
L 115.363166 42.423103 
L 113.001993 40.955167 
L 110.353383 39.625305 
L 107.443812 38.444623 
L 104.301526 37.422822 
L 100.956297 36.56818 
L 97.439192 35.887531 
L 93.78236 35.386265 
L 90.018815 35.068319 
L 86.182244 34.936174 
L 82.306811 34.990857 
L 78.426965 35.231939 
L 74.577256 35.657534 
L 70.792135 36.264302 
L 67.105764 37.047449 
L 63.551808 38.000733 
L 60.163218 39.116465 
L 56.972001 40.385527 
L 54.008981 41.797385 
L 51.303533 43.340118 
L 48.88332 45.000453 
L 46.773993 46.763818 
L 44.998905 48.614406 
L 43.578794 50.53526 
L 42.531475 52.508379 
L 41.871532 54.514843 
L 41.610017 56.534962 
L 41.754166 58.548454 
L 42.307148 60.534638 
L 43.267836 62.472655 
L 44.630643 64.341715 
L 46.385395 66.121349 
L 48.517285 67.791687 
L 51.006892 69.33374 
L 53.83028 70.72968 
L 56.959187 71.963125 
L 60.361293 73.019404 
L 64.000581 73.885805 
L 67.837773 74.551802 
L 71.830845 75.009241 
L 75.935601 75.252487 
L 80.106301 75.278534 
L 84.296323 75.087056 
L 88.45885 74.680415 
L 92.547548 74.06362 
L 96.51724 73.244227 
L 100.324538 72.232207 
L 103.928441 71.039762 
L 107.290858 69.681112 
L 110.377072 68.17225 
L 113.156121 66.530679 
L 115.601101 64.775135 
L 117.689382 62.925301 
L 119.402746 61.001525 
L 120.727443 59.024547 
L 121.654179 57.01523 
L 122.17804 54.994318 
L 122.298354 52.982212 
L 122.018519 50.998758 
L 121.345782 49.063079 
L 120.290995 47.193411 
L 118.868358 45.406971 
L 117.095137 43.719853 
L 114.991395 42.146935 
L 112.579704 40.701807 
L 109.884882 39.396723 
L 106.933725 38.242552 
L 103.754757 37.248759 
L 100.377988 36.423376 
L 96.834685 35.772997 
L 93.157159 35.302767 
L 89.378557 35.016376 
L 85.532661 34.916061 
L 81.653698 35.002604 
L 77.77615 35.275329 
L 73.934564 35.732106 
L 70.163361 36.369349 
L 66.496635 37.182021 
L 62.967945 38.163633 
L 59.610104 39.306256 
L 56.454936 40.600532 
L 53.53304 42.035689 
L 50.873526 43.599576 
L 48.503736 45.278698 
L 46.448958 47.058268 
L 44.732126 48.922279 
L 43.373506 50.853591 
L 42.390394 52.834037 
L 41.796797 54.844556 
L 41.603145 56.865346 
L 41.816006 58.876041 
L 42.437838 60.855914 
L 43.466774 62.784101 
L 44.89646 64.639845 
L 46.715943 66.40276 
L 48.909634 68.053103 
L 51.457342 69.57206 
L 54.334384 70.942027 
L 57.511793 72.14689 
L 60.956597 73.172292 
L 64.632195 74.005874 
L 68.498809 74.637498 
L 72.514002 75.059422 
L 76.633273 75.26645 
L 80.810685 75.256024 
L 84.999532 75.028271 
L 89.153029 74.586004 
L 93.22499 73.934669 
L 97.170492 73.08224 
L 97.170492 73.08224 
" clip-path="url(#p558630521d)" style="fill: none; stroke: #ff7f0e; stroke-opacity: 0.5; stroke-width: 1.5; stroke-linecap: round"/>
   </g>
  </g>
 </g>
 <defs>
  <clipPath id="p558630521d">
   <rect x="-1.8" y="-7.2" width="176.4" height="176.4"/>
  </clipPath>
 </defs>
</svg>
