<?xml version="1.0" encoding="utf-8" standalone="no"?>
<!DOCTYPE svg PUBLIC "-//W3C//DTD SVG 1.1//EN"
  "http://www.w3.org/Graphics/SVG/1.1/DTD/svg11.dtd">
<svg xmlns:xlink="http://www.w3.org/1999/xlink" width="216pt" height="180pt" viewBox="0 0 216 180" xmlns="http://www.w3.org/2000/svg" version="1.1">
 <metadata>
  <rdf:RDF xmlns:dc="http://purl.org/dc/elements/1.1/" xmlns:cc="http://creativecommons.org/ns#" xmlns:rdf="http://www.w3.org/1999/02/22-rdf-syntax-ns#">
   <cc:Work>
    <dc:type rdf:resource="http://purl.org/dc/dcmitype/StillImage"/>
    <dc:date>2023-06-14T18:48:33.739025</dc:date>
    <dc:format>image/svg+xml</dc:format>
    <dc:creator>
     <cc:Agent>
      <dc:title>Matplotlib v3.7.0, https://matplotlib.org/</dc:title>
     </cc:Agent>
    </dc:creator>
   </cc:Work>
  </rdf:RDF>
 </metadata>
 <defs>
  <style type="text/css">*{stroke-linejoin: round; stroke-linecap: butt}</style>
 </defs>
 <g id="figure_1">
  <g id="patch_1">
   <path d="M 0 180 
L 216 180 
L 216 0 
L 0 0 
z
" style="fill: #ffffff"/>
  </g>
  <g id="patch_2">
   <path d="M -1 169.2 
L 174.6 169.2 
L 174.6 -1 
" style="fill: none"/>
  </g>
  <g id="pane3d_1">
   <g id="patch_3">
    <path d="M 11.519416 125.705413 
L 69.772457 76.876559 
L 68.962684 6.456623 
L 7.921935 51.001381 
" style="fill: none; opacity: 0.5; stroke: #f2f2f2; stroke-linejoin: miter"/>
   </g>
  </g>
  <g id="pane3d_2">
   <g id="patch_4">
    <path d="M 69.772457 76.876559 
L 163.247803 104.046152 
L 166.583609 31.200681 
L 68.962684 6.456623 
" style="fill: none; opacity: 0.5; stroke: #e6e6e6; stroke-linejoin: miter"/>
   </g>
  </g>
  <g id="pane3d_3">
   <g id="patch_5">
    <path d="M 11.519416 125.705413 
L 110.607849 158.067695 
L 163.247803 104.046152 
L 69.772457 76.876559 
" style="fill: none; opacity: 0.5; stroke: #ececec; stroke-linejoin: miter"/>
   </g>
  </g>
  <g id="axis3d_1">
   <g id="line2d_1">
    <path d="M 11.519416 125.705413 
L 110.607849 158.067695 
" style="fill: none; stroke: #ffffff; stroke-width: 0.8; stroke-linecap: round"/>
   </g>
   <g id="text_1">
    <!-- x -->
    <g style="fill: #262626" transform="translate(40.437569 179.640981) scale(0.1 -0.1)">
     <defs>
      <path id="DejaVuSans-78" d="M 3513 3500 
L 2247 1797 
L 3578 0 
L 2900 0 
L 1881 1375 
L 863 0 
L 184 0 
L 1544 1831 
L 300 3500 
L 978 3500 
L 1906 2253 
L 2834 3500 
L 3513 3500 
z
" transform="scale(0.015625)"/>
     </defs>
     <use xlink:href="#DejaVuSans-78"/>
    </g>
   </g>
   <g id="Line3DCollection_1">
    <path d="M 33.104606 132.755136 
L 90.20531 82.815583 
L 90.266542 11.85653 
" style="fill: none; stroke: #d3d3d3; stroke-width: 0.8"/>
    <path d="M 59.717793 141.447003 
L 115.343633 90.122301 
L 116.503428 18.506816 
" style="fill: none; stroke: #d3d3d3; stroke-width: 0.8"/>
    <path d="M 87.10727 150.392406 
L 141.153046 97.624078 
L 143.471743 25.342497 
" style="fill: none; stroke: #d3d3d3; stroke-width: 0.8"/>
   </g>
   <g id="xtick_1">
    <g id="line2d_2">
     <path d="M 88.783784 78.616216 
" clip-path="url(#p6a83451758)" style="fill: none; stroke: #d3d3d3; stroke-width: 0.8; stroke-linecap: round"/>
    </g>
    <g id="line2d_3">
     <path d="M 33.602178 132.319965 
L 32.107307 133.627361 
" style="fill: none; stroke: #808080; stroke-width: 0.8; stroke-linecap: round"/>
    </g>
    <g id="text_2">
     <!-- −0.2 -->
     <g style="fill: #808080" transform="translate(13.443794 156.257261) scale(0.1 -0.1)">
      <defs>
       <path id="DejaVuSans-2212" d="M 678 2272 
L 4684 2272 
L 4684 1741 
L 678 1741 
L 678 2272 
z
" transform="scale(0.015625)"/>
       <path id="DejaVuSans-30" d="M 2034 4250 
Q 1547 4250 1301 3770 
Q 1056 3291 1056 2328 
Q 1056 1369 1301 889 
Q 1547 409 2034 409 
Q 2525 409 2770 889 
Q 3016 1369 3016 2328 
Q 3016 3291 2770 3770 
Q 2525 4250 2034 4250 
z
M 2034 4750 
Q 2819 4750 3233 4129 
Q 3647 3509 3647 2328 
Q 3647 1150 3233 529 
Q 2819 -91 2034 -91 
Q 1250 -91 836 529 
Q 422 1150 422 2328 
Q 422 3509 836 4129 
Q 1250 4750 2034 4750 
z
" transform="scale(0.015625)"/>
       <path id="DejaVuSans-2e" d="M 684 794 
L 1344 794 
L 1344 0 
L 684 0 
L 684 794 
z
" transform="scale(0.015625)"/>
       <path id="DejaVuSans-32" d="M 1228 531 
L 3431 531 
L 3431 0 
L 469 0 
L 469 531 
Q 828 903 1448 1529 
Q 2069 2156 2228 2338 
Q 2531 2678 2651 2914 
Q 2772 3150 2772 3378 
Q 2772 3750 2511 3984 
Q 2250 4219 1831 4219 
Q 1534 4219 1204 4116 
Q 875 4013 500 3803 
L 500 4441 
Q 881 4594 1212 4672 
Q 1544 4750 1819 4750 
Q 2544 4750 2975 4387 
Q 3406 4025 3406 3419 
Q 3406 3131 3298 2873 
Q 3191 2616 2906 2266 
Q 2828 2175 2409 1742 
Q 1991 1309 1228 531 
z
" transform="scale(0.015625)"/>
      </defs>
      <use xlink:href="#DejaVuSans-2212"/>
      <use xlink:href="#DejaVuSans-30" x="83.789062"/>
      <use xlink:href="#DejaVuSans-2e" x="147.412109"/>
      <use xlink:href="#DejaVuSans-32" x="179.199219"/>
     </g>
    </g>
   </g>
   <g id="xtick_2">
    <g id="line2d_4">
     <path d="M 88.783784 78.616216 
" clip-path="url(#p6a83451758)" style="fill: none; stroke: #d3d3d3; stroke-width: 0.8; stroke-linecap: round"/>
    </g>
    <g id="line2d_5">
     <path d="M 60.203084 140.999236 
L 58.74508 142.344503 
" style="fill: none; stroke: #808080; stroke-width: 0.8; stroke-linecap: round"/>
    </g>
    <g id="text_3">
     <!-- 0.0 -->
     <g style="fill: #808080" transform="translate(44.291092 165.229021) scale(0.1 -0.1)">
      <use xlink:href="#DejaVuSans-30"/>
      <use xlink:href="#DejaVuSans-2e" x="63.623047"/>
      <use xlink:href="#DejaVuSans-30" x="95.410156"/>
     </g>
    </g>
   </g>
   <g id="xtick_3">
    <g id="line2d_6">
     <path d="M 88.783784 78.616216 
" clip-path="url(#p6a83451758)" style="fill: none; stroke: #d3d3d3; stroke-width: 0.8; stroke-linecap: round"/>
    </g>
    <g id="line2d_7">
     <path d="M 87.579347 149.931487 
L 86.161014 151.316296 
" style="fill: none; stroke: #808080; stroke-width: 0.8; stroke-linecap: round"/>
    </g>
    <g id="text_4">
     <!-- 0.2 -->
     <g style="fill: #808080" transform="translate(71.730662 174.464008) scale(0.1 -0.1)">
      <use xlink:href="#DejaVuSans-30"/>
      <use xlink:href="#DejaVuSans-2e" x="63.623047"/>
      <use xlink:href="#DejaVuSans-32" x="95.410156"/>
     </g>
    </g>
   </g>
  </g>
  <g id="axis3d_2">
   <g id="line2d_8">
    <path d="M 163.247803 104.046152 
L 110.607849 158.067695 
" style="fill: none; stroke: #ffffff; stroke-width: 0.8; stroke-linecap: round"/>
   </g>
   <g id="text_5">
    <!-- y -->
    <g style="fill: #262626" transform="translate(162.133934 160.636398) scale(0.1 -0.1)">
     <defs>
      <path id="DejaVuSans-79" d="M 2059 -325 
Q 1816 -950 1584 -1140 
Q 1353 -1331 966 -1331 
L 506 -1331 
L 506 -850 
L 844 -850 
Q 1081 -850 1212 -737 
Q 1344 -625 1503 -206 
L 1606 56 
L 191 3500 
L 800 3500 
L 1894 763 
L 2988 3500 
L 3597 3500 
L 2059 -325 
z
" transform="scale(0.015625)"/>
     </defs>
     <use xlink:href="#DejaVuSans-79"/>
    </g>
   </g>
   <g id="Line3DCollection_2">
    <path d="M 22.7776 40.160394 
L 25.655936 113.855902 
L 123.424978 144.914168 
" style="fill: none; stroke: #d3d3d3; stroke-width: 0.8"/>
    <path d="M 39.779459 27.753212 
L 41.866821 100.267617 
L 138.089064 129.865207 
" style="fill: none; stroke: #d3d3d3; stroke-width: 0.8"/>
    <path d="M 55.976894 15.933061 
L 57.342637 87.295481 
L 152.054642 115.533089 
" style="fill: none; stroke: #d3d3d3; stroke-width: 0.8"/>
   </g>
   <g id="xtick_4">
    <g id="line2d_9">
     <path d="M 88.783784 78.616216 
" clip-path="url(#p6a83451758)" style="fill: none; stroke: #d3d3d3; stroke-width: 0.8; stroke-linecap: round"/>
    </g>
    <g id="line2d_10">
     <path d="M 122.601702 144.652638 
L 125.073625 145.437893 
" style="fill: none; stroke: #808080; stroke-width: 0.8; stroke-linecap: round"/>
    </g>
    <g id="text_6">
     <!-- −0.2 -->
     <g style="fill: #808080" transform="translate(123.982395 165.729539) scale(0.1 -0.1)">
      <use xlink:href="#DejaVuSans-2212"/>
      <use xlink:href="#DejaVuSans-30" x="83.789062"/>
      <use xlink:href="#DejaVuSans-2e" x="147.412109"/>
      <use xlink:href="#DejaVuSans-32" x="179.199219"/>
     </g>
    </g>
   </g>
   <g id="xtick_5">
    <g id="line2d_11">
     <path d="M 88.783784 78.616216 
" clip-path="url(#p6a83451758)" style="fill: none; stroke: #d3d3d3; stroke-width: 0.8; stroke-linecap: round"/>
    </g>
    <g id="line2d_12">
     <path d="M 137.279801 129.616281 
L 139.709601 130.363678 
" style="fill: none; stroke: #808080; stroke-width: 0.8; stroke-linecap: round"/>
    </g>
    <g id="text_7">
     <!-- 0.0 -->
     <g style="fill: #808080" transform="translate(142.538961 150.344765) scale(0.1 -0.1)">
      <use xlink:href="#DejaVuSans-30"/>
      <use xlink:href="#DejaVuSans-2e" x="63.623047"/>
      <use xlink:href="#DejaVuSans-30" x="95.410156"/>
     </g>
    </g>
   </g>
   <g id="xtick_6">
    <g id="line2d_13">
     <path d="M 88.783784 78.616216 
" clip-path="url(#p6a83451758)" style="fill: none; stroke: #d3d3d3; stroke-width: 0.8; stroke-linecap: round"/>
    </g>
    <g id="line2d_14">
     <path d="M 151.259006 115.295877 
L 153.647844 116.008089 
" style="fill: none; stroke: #808080; stroke-width: 0.8; stroke-linecap: round"/>
    </g>
    <g id="text_8">
     <!-- 0.2 -->
     <g style="fill: #808080" transform="translate(156.22076 135.69345) scale(0.1 -0.1)">
      <use xlink:href="#DejaVuSans-30"/>
      <use xlink:href="#DejaVuSans-2e" x="63.623047"/>
      <use xlink:href="#DejaVuSans-32" x="95.410156"/>
     </g>
    </g>
   </g>
  </g>
  <g id="axis3d_3">
   <g id="line2d_15">
    <path d="M 163.247803 104.046152 
L 166.583609 31.200681 
" style="fill: none; stroke: #ffffff; stroke-width: 0.8; stroke-linecap: round"/>
   </g>
   <g id="text_9">
    <!-- z -->
    <g style="fill: #262626" transform="translate(202.494937 65.789607) scale(0.1 -0.1)">
     <defs>
      <path id="DejaVuSans-7a" d="M 353 3500 
L 3084 3500 
L 3084 2975 
L 922 459 
L 3084 459 
L 3084 0 
L 275 0 
L 275 525 
L 2438 3041 
L 353 3041 
L 353 3500 
z
" transform="scale(0.015625)"/>
     </defs>
     <use xlink:href="#DejaVuSans-7a"/>
    </g>
   </g>
   <g id="Line3DCollection_3">
    <path d="M 164.071367 86.061636 
L 69.572218 59.463218 
L 10.632377 107.285455 
" style="fill: none; stroke: #d3d3d3; stroke-width: 0.8"/>
    <path d="M 164.846909 69.12578 
L 69.383845 43.081826 
L 9.796384 89.925526 
" style="fill: none; stroke: #d3d3d3; stroke-width: 0.8"/>
    <path d="M 165.638595 51.837376 
L 69.191741 26.376008 
L 8.942313 72.19018 
" style="fill: none; stroke: #d3d3d3; stroke-width: 0.8"/>
    <path d="M 166.446935 34.185303 
L 68.995795 9.33603 
L 8.069569 54.067105 
" style="fill: none; stroke: #d3d3d3; stroke-width: 0.8"/>
   </g>
   <g id="xtick_7">
    <g id="line2d_16">
     <path d="M 88.783784 78.616216 
" style="fill: none; stroke: #d3d3d3; stroke-width: 0.8; stroke-linecap: round"/>
    </g>
    <g id="line2d_17">
     <path d="M 163.277848 85.838287 
L 165.660312 86.508873 
" style="fill: none; stroke: #808080; stroke-width: 0.8; stroke-linecap: round"/>
    </g>
    <g id="text_10">
     <!-- 0.025 -->
     <g style="fill: #808080" transform="translate(168.175 91.112522) scale(0.1 -0.1)">
      <defs>
       <path id="DejaVuSans-35" d="M 691 4666 
L 3169 4666 
L 3169 4134 
L 1269 4134 
L 1269 2991 
Q 1406 3038 1543 3061 
Q 1681 3084 1819 3084 
Q 2600 3084 3056 2656 
Q 3513 2228 3513 1497 
Q 3513 744 3044 326 
Q 2575 -91 1722 -91 
Q 1428 -91 1123 -41 
Q 819 9 494 109 
L 494 744 
Q 775 591 1075 516 
Q 1375 441 1709 441 
Q 2250 441 2565 725 
Q 2881 1009 2881 1497 
Q 2881 1984 2565 2268 
Q 2250 2553 1709 2553 
Q 1456 2553 1204 2497 
Q 953 2441 691 2322 
L 691 4666 
z
" transform="scale(0.015625)"/>
      </defs>
      <use xlink:href="#DejaVuSans-30"/>
      <use xlink:href="#DejaVuSans-2e" x="63.623047"/>
      <use xlink:href="#DejaVuSans-30" x="95.410156"/>
      <use xlink:href="#DejaVuSans-32" x="159.033203"/>
      <use xlink:href="#DejaVuSans-35" x="222.65625"/>
     </g>
    </g>
   </g>
   <g id="xtick_8">
    <g id="line2d_18">
     <path d="M 88.783784 78.616216 
" style="fill: none; stroke: #d3d3d3; stroke-width: 0.8; stroke-linecap: round"/>
    </g>
    <g id="line2d_19">
     <path d="M 164.044906 68.906979 
L 166.452863 69.563911 
" style="fill: none; stroke: #808080; stroke-width: 0.8; stroke-linecap: round"/>
    </g>
    <g id="text_11">
     <!-- 0.050 -->
     <g style="fill: #808080" transform="translate(169.135812 74.228663) scale(0.1 -0.1)">
      <use xlink:href="#DejaVuSans-30"/>
      <use xlink:href="#DejaVuSans-2e" x="63.623047"/>
      <use xlink:href="#DejaVuSans-30" x="95.410156"/>
      <use xlink:href="#DejaVuSans-35" x="159.033203"/>
      <use xlink:href="#DejaVuSans-30" x="222.65625"/>
     </g>
    </g>
   </g>
   <g id="xtick_9">
    <g id="line2d_20">
     <path d="M 88.783784 78.616216 
" style="fill: none; stroke: #d3d3d3; stroke-width: 0.8; stroke-linecap: round"/>
    </g>
    <g id="line2d_21">
     <path d="M 164.827924 51.623364 
L 167.261926 52.265926 
" style="fill: none; stroke: #808080; stroke-width: 0.8; stroke-linecap: round"/>
    </g>
    <g id="text_12">
     <!-- 0.075 -->
     <g style="fill: #808080" transform="translate(170.116531 56.994978) scale(0.1 -0.1)">
      <defs>
       <path id="DejaVuSans-37" d="M 525 4666 
L 3525 4666 
L 3525 4397 
L 1831 0 
L 1172 0 
L 2766 4134 
L 525 4134 
L 525 4666 
z
" transform="scale(0.015625)"/>
      </defs>
      <use xlink:href="#DejaVuSans-30"/>
      <use xlink:href="#DejaVuSans-2e" x="63.623047"/>
      <use xlink:href="#DejaVuSans-30" x="95.410156"/>
      <use xlink:href="#DejaVuSans-37" x="159.033203"/>
      <use xlink:href="#DejaVuSans-35" x="222.65625"/>
     </g>
    </g>
   </g>
   <g id="xtick_10">
    <g id="line2d_22">
     <path d="M 88.783784 78.616216 
" style="fill: none; stroke: #d3d3d3; stroke-width: 0.8; stroke-linecap: round"/>
    </g>
    <g id="line2d_23">
     <path d="M 165.627407 33.97633 
L 168.088022 34.603767 
" style="fill: none; stroke: #808080; stroke-width: 0.8; stroke-linecap: round"/>
    </g>
    <g id="text_13">
     <!-- 0.100 -->
     <g style="fill: #808080" transform="translate(171.117782 39.400482) scale(0.1 -0.1)">
      <defs>
       <path id="DejaVuSans-31" d="M 794 531 
L 1825 531 
L 1825 4091 
L 703 3866 
L 703 4441 
L 1819 4666 
L 2450 4666 
L 2450 531 
L 3481 531 
L 3481 0 
L 794 0 
L 794 531 
z
" transform="scale(0.015625)"/>
      </defs>
      <use xlink:href="#DejaVuSans-30"/>
      <use xlink:href="#DejaVuSans-2e" x="63.623047"/>
      <use xlink:href="#DejaVuSans-31" x="95.410156"/>
      <use xlink:href="#DejaVuSans-30" x="159.033203"/>
      <use xlink:href="#DejaVuSans-30" x="222.65625"/>
     </g>
    </g>
   </g>
  </g>
  <g id="axes_1">
   <g id="line2d_24">
    <path d="M 88.860699 43.976785 
L 88.98874 61.427821 
L 88.848229 74.258596 
L 88.526854 83.793386 
L 88.008403 92.466424 
L 87.20238 104.603791 
L 87.293155 107.005952 
L 87.597973 108.860801 
L 88.086192 110.255018 
L 88.695476 111.251338 
L 89.340381 111.902879 
L 90.050743 112.314683 
L 90.538682 112.377458 
L 90.551159 112.266765 
L 90.190239 112.083531 
L 89.478042 111.96745 
L 88.5697 112.008966 
L 87.676337 112.246787 
L 87.017567 112.662006 
L 86.780086 113.075606 
L 86.807123 113.39889 
L 87.01579 113.704971 
L 87.553452 114.042065 
L 88.320089 114.249327 
L 89.205317 114.289493 
L 90.074815 114.149034 
L 90.790785 113.8421 
L 91.233829 113.410014 
L 91.336193 113.041264 
L 91.222729 112.669195 
L 90.896456 112.326743 
L 90.170503 111.96928 
L 89.205154 111.778645 
L 88.140196 111.790022 
L 87.137386 112.008552 
L 86.356582 112.407997 
L 85.998372 112.794298 
L 85.879759 113.220517 
L 86.019867 113.65048 
L 86.415579 114.046163 
L 87.040897 114.370838 
L 88.147064 114.63871 
L 89.414845 114.670165 
L 90.650923 114.445851 
L 91.438035 114.120796 
L 92.022057 113.686452 
L 92.34489 113.177433 
L 92.369867 112.636385 
L 92.085443 112.110128 
L 91.506758 111.645283 
L 90.674991 111.283908 
L 89.654575 111.059618 
L 88.528452 110.994584 
L 87.391644 111.097631 
L 86.343551 111.363486 
L 85.479526 111.773089 
L 84.882389 112.294836 
L 84.614645 112.886656 
L 84.638075 113.29581 
L 84.827524 113.698247 
L 85.413727 114.254144 
L 86.325421 114.706518 
L 87.493057 115.009594 
L 88.82138 115.128544 
L 90.197153 115.043362 
L 91.498986 114.751666 
L 92.608342 114.270033 
L 93.42055 113.633471 
L 93.755727 113.14763 
L 93.905705 112.633447 
L 93.860943 112.110584 
L 93.619282 111.599379 
L 93.186108 111.119963 
L 92.574245 110.691395 
L 91.366718 110.180768 
L 89.896956 109.869064 
L 88.284212 109.78582 
L 86.6644 109.941396 
L 85.179192 110.326429 
L 83.96403 110.912635 
L 83.36288 111.393421 
L 82.96225 111.926612 
L 82.782874 112.492673 
L 82.837362 113.070233 
L 83.129463 113.636756 
L 83.653643 114.169316 
L 84.395004 114.645444 
L 85.329575 115.044026 
L 87.020832 115.456051 
L 88.933432 115.602097 
L 90.903051 115.453693 
L 92.754442 115.007934 
L 93.838447 114.556689 
L 94.748408 113.997951 
L 95.444998 113.3509 
L 95.896787 112.638984 
L 96.08153 111.888928 
L 95.987055 111.129549 
L 95.611751 110.390442 
L 94.964673 109.700636 
L 94.065292 109.087295 
L 92.942928 108.574552 
L 91.635875 108.18252 
L 90.190235 107.926549 
L 88.658467 107.816735 
L 87.097656 107.857702 
L 85.567524 108.048598 
L 84.128248 108.383276 
L 82.838141 108.850569 
L 81.751326 109.434613 
L 80.915488 110.115206 
L 80.369818 110.868207 
L 80.143243 111.666059 
L 80.252993 112.478477 
L 80.70358 113.273356 
L 81.486198 114.017894 
L 82.578594 114.679852 
L 83.945438 115.228893 
L 85.539232 115.637892 
L 87.301797 115.884167 
L 89.166336 115.950594 
L 91.060041 115.826599 
L 92.907134 115.508991 
L 94.632179 115.00257 
L 96.16345 114.320423 
L 97.436124 113.483775 
L 98.395098 112.521355 
L 98.997266 111.468224 
L 99.213172 110.364173 
L 99.028017 109.2518 
L 98.442063 108.174433 
L 97.470518 107.174071 
L 96.143007 106.289443 
L 94.502698 105.554322 
L 92.605119 104.996155 
L 90.516633 104.635097 
L 88.312532 104.483512 
L 86.074687 104.54593 
L 83.888746 104.819382 
L 81.840968 105.293952 
L 80.014815 105.953341 
L 78.487514 106.775277 
L 77.326773 107.731757 
L 76.587844 108.789219 
L 76.389801 109.343891 
L 76.311054 109.908898 
L 76.353994 110.478705 
L 76.519868 111.047577 
L 76.808749 111.60963 
L 77.749835 112.689389 
L 79.153762 113.670403 
L 80.977834 114.506946 
L 83.160851 115.157195 
L 85.624639 115.585027 
L 88.276501 115.761556 
L 91.012701 115.666525 
L 93.722876 115.289665 
L 96.295151 114.631979 
L 98.621525 113.706757 
L 100.603096 112.539991 
L 102.154655 111.169888 
L 102.747218 110.423508 
L 103.208336 109.645336 
L 103.532647 108.842747 
L 103.716125 108.023437 
L 103.756088 107.195317 
L 103.651208 106.366411 
L 103.401494 105.54475 
L 103.008273 104.738272 
L 102.474158 103.954731 
L 101.803017 103.201602 
L 100.999932 102.486005 
L 99.024099 101.193624 
L 96.610103 100.124571 
L 93.838172 99.315836 
L 90.803665 98.793117 
L 87.614854 98.570375 
L 84.389865 98.650343 
L 81.25266 99.025831 
L 78.32821 99.681302 
L 75.737182 100.594061 
L 73.590611 101.73454 
L 72.714835 102.378903 
L 71.984974 103.065628 
L 71.410127 103.788714 
L 70.998005 104.541568 
L 70.754859 105.317012 
L 70.685403 106.107314 
L 70.79277 106.904255 
L 71.078463 107.699212 
L 71.542322 108.483278 
L 72.182502 109.247393 
L 72.99545 109.982483 
L 73.975891 110.6796 
L 75.116825 111.330056 
L 76.409526 111.925536 
L 79.406787 112.920718 
L 82.864298 113.609156 
L 86.654051 113.94489 
L 90.627475 113.893056 
L 94.621705 113.43135 
L 96.573801 113.04381 
L 98.467751 112.552325 
L 100.282996 111.958749 
L 101.999758 111.266197 
L 103.599312 110.479083 
L 105.064226 109.603121 
L 106.378581 108.645286 
L 107.52815 107.613731 
L 108.500543 106.517666 
L 109.285311 105.367204 
L 109.874018 104.173182 
L 110.260267 102.946969 
L 110.439701 101.700277 
L 110.409963 100.444978 
L 110.170637 99.192936 
L 109.723169 97.955858 
L 109.070778 96.745174 
L 108.218357 95.571922 
L 107.172389 94.446659 
L 105.940868 93.379364 
L 104.533244 92.379357 
L 102.960378 91.455199 
L 101.234524 90.614599 
L 99.369313 89.864311 
L 97.379756 89.210045 
L 95.282225 88.65639 
L 93.094429 88.206763 
L 90.835356 87.863406 
L 86.185129 87.498849 
L 81.504441 87.55966 
L 76.976377 88.030551 
L 72.785848 88.888857 
L 70.873158 89.454953 
L 69.110311 90.107319 
L 67.516851 90.84164 
L 66.1108 91.652937 
L 64.908459 92.535356 
L 63.92424 93.481942 
L 63.170534 94.484456 
L 62.657607 95.533262 
L 62.393532 96.617288 
L 62.384151 97.72411 
L 62.633052 98.840129 
L 63.141565 99.950852 
L 63.908769 101.041249 
L 64.931483 102.096149 
L 66.204257 103.100649 
L 67.719333 104.040484 
L 69.466589 104.902334 
L 71.433465 105.674037 
L 73.604878 106.344695 
L 75.963151 106.904685 
L 78.487967 107.345574 
L 81.156383 107.65999 
L 83.942921 107.84147 
L 86.819754 107.884341 
L 89.756994 107.783654 
L 92.723085 107.535217 
L 95.685288 107.135714 
L 98.610225 106.582925 
L 101.464469 105.876005 
L 104.215146 105.015796 
L 106.830515 104.005119 
L 109.280507 102.849006 
L 111.537217 101.554835 
L 113.575314 100.132334 
L 115.37239 98.593452 
L 116.909221 96.952095 
L 118.169949 95.223761 
L 119.142179 93.4251 
L 119.816993 91.573443 
L 120.188877 89.686358 
L 120.25556 87.78126 
L 120.017794 85.875114 
L 119.479058 83.98425 
L 118.645248 82.124281 
L 117.524342 80.310115 
L 116.126099 78.55602 
L 114.461815 76.875698 
L 112.544154 75.282335 
L 110.387091 73.788565 
L 108.005953 72.406342 
L 105.417559 71.146713 
L 102.640437 70.019497 
L 99.695066 69.032936 
L 96.604103 68.19336 
L 93.392556 67.50494 
L 90.087833 66.9696 
L 86.719665 66.587107 
L 83.319873 66.355379 
L 79.921995 66.270954 
L 76.560797 66.329586 
L 73.271703 66.526855 
L 70.090182 66.85871 
L 67.05114 67.321838 
L 64.188338 67.913786 
L 61.533854 68.632794 
L 59.117613 69.477348 
L 56.966979 70.445474 
L 55.106417 71.533888 
L 53.557227 72.737072 
L 52.337357 74.046435 
L 51.461292 75.449661 
L 50.940038 76.930354 
L 50.781193 78.468061 
L 50.989092 80.038687 
L 51.565025 81.615299 
L 52.507478 83.16924 
L 53.81238 84.671446 
L 55.473274 86.09382 
L 57.481403 87.410523 
L 59.825634 88.599015 
L 62.492227 89.640747 
L 65.464429 90.521413 
L 68.721952 91.230748 
L 72.240397 91.761918 
L 75.990724 92.110604 
L 79.938892 92.273949 
L 84.045762 92.249534 
L 88.26735 92.034587 
L 92.555444 91.625573 
L 96.858564 91.018228 
L 101.123184 90.208065 
L 105.295092 89.191262 
L 109.320785 87.965766 
L 113.148786 86.532454 
L 116.730811 84.896126 
L 120.022756 83.066191 
L 122.985485 81.056912 
L 125.585449 78.887175 
L 127.79513 76.579803 
L 129.593322 74.160506 
L 130.965252 71.656597 
L 131.902509 69.095649 
L 132.40278 66.504266 
L 132.469359 63.907124 
L 132.110462 61.326399 
L 131.338356 58.781633 
L 130.168376 56.29004 
L 128.617916 53.867147 
L 126.705486 51.527652 
L 124.449961 49.286298 
L 121.870102 47.158578 
L 118.984431 45.161095 
L 115.811491 43.311452 
L 112.370457 41.627645 
L 108.682023 40.12699 
L 104.769434 38.824769 
L 100.659485 37.732812 
L 96.38331 36.858311 
L 91.976808 36.20312 
L 87.480615 35.763743 
L 82.939602 35.532062 
L 78.401967 35.496736 
L 73.918055 35.645041 
L 69.539046 35.96484 
L 65.31566 36.446342 
L 61.296992 37.083345 
L 57.529513 37.873736 
L 54.056274 38.819164 
L 50.916269 39.9239 
L 48.143942 41.193041 
L 45.768801 42.630299 
L 43.815139 44.235663 
L 42.30187 46.003267 
L 41.242499 47.919756 
L 40.645271 49.963391 
L 40.513495 52.104055 
L 40.846069 54.30421 
L 41.638152 56.520714 
L 42.881922 58.707331 
L 44.567334 60.817645 
L 46.682737 62.808059 
L 49.215241 64.640504 
L 52.150706 66.284562 
L 55.473297 67.718708 
L 59.164587 68.930537 
L 63.202284 69.91592 
L 67.558775 70.677218 
L 72.199708 71.220815 
L 77.082942 71.554357 
L 82.158096 71.684165 
L 87.366917 71.613274 
L 92.644461 71.34045 
L 97.920998 70.860353 
L 103.12436 70.164801 
L 108.18245 69.244856 
L 113.025598 68.093349 
L 117.588585 66.70736 
L 121.812224 65.090244 
L 125.64451 63.252893 
L 129.041392 61.214053 
L 131.96727 58.999703 
L 134.395267 56.641615 
L 136.307307 54.175327 
L 137.694 51.637825 
L 138.554279 49.065275 
L 138.894768 46.491085 
L 138.728847 43.944565 
L 138.075436 41.450318 
L 136.957561 39.028406 
L 135.400825 36.695189 
L 133.431912 34.464656 
L 131.077308 32.349947 
L 128.362381 30.364777 
L 125.310943 28.524433 
L 121.945369 26.846137 
L 118.287258 25.348629 
L 114.358554 24.050996 
L 110.182952 22.970919 
L 105.787358 22.122647 
L 101.203144 21.515101 
L 96.466967 21.150518 
L 91.620983 21.023974 
L 86.712423 21.123938 
L 81.792596 21.433839 
L 76.915494 21.934381 
L 72.136206 22.606218 
L 67.509367 23.432521 
L 63.087777 24.401017 
L 58.921277 25.505156 
L 55.055901 26.744259 
L 51.533248 28.122613 
L 48.39003 29.647666 
L 45.657736 31.327567 
L 43.362383 33.168398 
L 41.524348 35.171441 
L 40.158315 37.330868 
L 39.273366 39.632137 
L 38.873247 42.051334 
L 38.956845 44.555566 
L 39.51884 47.104385 
L 40.5505 49.6521 
L 42.040522 52.150709 
L 43.975804 54.553127 
L 46.342018 56.816318 
L 49.123848 58.903965 
L 52.304797 60.788353 
L 55.866529 62.451233 
L 59.787755 63.883561 
L 64.042825 65.084148 
L 68.600223 66.057435 
L 73.421265 66.810722 
L 78.459299 67.351331 
L 83.659631 67.684169 
L 88.960304 67.810136 
L 94.293666 67.725653 
L 99.588545 67.423364 
L 104.772712 66.893868 
L 109.775344 66.128102 
L 114.529209 65.119945 
L 118.972444 63.868571 
L 123.049873 62.380181 
L 126.713908 60.668864 
L 129.925128 58.756493 
L 132.652614 56.671732 
L 134.874084 54.448314 
L 136.575864 52.122857 
L 137.752655 49.732544 
L 138.407059 47.312964 
L 138.548836 44.8964 
L 138.193876 42.510761 
L 137.362931 40.179263 
L 136.080167 37.920843 
L 134.37169 35.751164 
L 132.264162 33.683994 
L 129.783689 31.732676 
L 126.955105 29.911365 
L 123.801747 28.235796 
L 120.345772 26.723361 
L 116.608971 25.39245 
L 112.613964 24.261113 
L 108.385581 23.34528 
L 103.952219 22.656851 
L 99.346899 22.202064 
L 94.607852 21.980511 
L 89.778501 21.985054 
L 84.906851 22.20274 
L 80.04438 22.616596 
L 75.244626 23.20801 
L 70.56166 23.959292 
L 66.048637 24.855972 
L 61.756553 25.888469 
L 57.733235 27.052848 
L 54.022593 28.350575 
L 50.66406 29.787301 
L 47.692178 31.370847 
L 45.136291 33.108678 
L 43.020313 35.005192 
L 41.362595 37.05918 
L 40.175908 39.2618 
L 39.467588 41.595332 
L 39.239858 44.032902 
L 39.490355 46.539236 
L 40.212816 49.072373 
L 41.397875 51.586179 
L 43.033868 54.033349 
L 45.107529 56.368568 
L 47.604438 58.551459 
L 50.509113 60.548954 
L 53.80466 62.336813 
L 57.471963 63.900093 
L 61.488476 65.232518 
L 65.826786 66.334841 
L 70.453186 67.212449 
L 75.32654 67.872587 
L 80.397732 68.321673 
L 85.609876 68.563173 
L 90.899367 68.5964 
L 96.197647 68.416451 
L 101.433472 68.015275 
L 106.535368 67.383621 
L 111.433986 66.513501 
L 116.064139 65.400699 
L 120.366409 64.046899 
L 124.288319 62.461116 
L 127.785119 60.660207 
L 130.820287 58.668463 
L 133.3658 56.516354 
L 135.402229 54.238638 
L 136.918651 51.872132 
L 137.912346 49.453437 
L 138.388245 47.016932 
L 138.358094 44.593281 
L 137.839347 42.208633 
L 136.853834 39.884562 
L 135.426299 37.638699 
L 133.582946 35.485891 
L 131.35014 33.439635 
L 128.753414 31.513488 
L 125.816923 29.722164 
L 122.563398 28.082075 
L 119.014641 26.611151 
L 115.192483 25.327935 
L 111.120062 24.250061 
L 106.823224 23.392389 
L 102.331799 22.765145 
L 97.680518 22.372475 
L 92.909398 22.211736 
L 88.063519 22.273759 
L 83.192227 22.544079 
L 78.347897 23.004966 
L 73.584457 23.637917 
L 68.955868 24.426171 
L 64.514732 25.356828 
L 60.311121 26.422229 
L 56.39166 27.620377 
L 52.79884 28.954343 
L 49.570519 30.43075 
L 46.739539 32.057555 
L 44.333446 33.841409 
L 42.374292 35.784972 
L 40.878535 37.884511 
L 39.857073 40.128119 
L 39.315449 42.494792 
L 39.254248 44.95451 
L 39.669682 47.469338 
L 40.554331 49.995457 
L 41.897951 52.485876 
L 43.688264 54.893547 
L 45.911579 57.174499 
L 48.553135 59.29062 
L 51.597044 61.211774 
L 55.025776 62.916962 
L 58.819197 64.394415 
L 62.953256 65.640583 
L 67.398511 66.658194 
L 72.118767 67.453672 
L 77.070113 68.034321 
L 82.200612 68.405786 
L 87.450813 68.570194 
L 92.755069 68.525347 
L 98.043517 68.265062 
L 103.244451 67.780582 
L 108.286785 67.062767 
L 113.102319 66.104629 
L 117.627636 64.903763 
L 121.805562 63.464269 
L 125.586191 61.79788 
L 128.927563 59.924149 
L 131.796079 57.869724 
L 134.166705 55.666842 
L 136.023008 53.35128 
L 137.356992 50.960069 
L 138.168714 48.529273 
L 138.465631 46.092134 
L 138.261664 43.677806 
L 137.576006 41.310814 
L 136.431721 39.011245 
L 134.854271 36.795595 
L 132.870094 34.678059 
L 130.505392 32.671988 
L 127.785284 30.791237 
L 124.733425 29.05108 
L 121.372157 27.46852 
L 117.723174 26.061842 
L 113.80862 24.849473 
L 109.652434 23.848298 
L 105.281741 23.071747 
L 100.728023 22.528037 
L 96.027874 22.218944 
L 91.223166 22.139429 
L 86.36062 22.278237 
L 81.490829 22.619453 
L 76.666912 23.144738 
L 71.943001 23.835885 
L 67.372749 24.677244 
L 63.008002 25.65762 
L 58.897724 26.77133 
L 55.087163 28.018267 
L 51.617233 29.402969 
L 48.524067 30.932821 
L 45.838673 32.615645 
L 43.586682 34.45701 
L 41.788178 36.457597 
L 40.457646 38.610983 
L 39.604063 40.902136 
L 39.231164 43.306833 
L 39.337913 45.792102 
L 39.919144 48.317671 
L 40.96634 50.838266 
L 42.468448 53.306506 
L 44.412623 55.676068 
L 46.784768 57.90474 
L 49.569746 59.957005 
L 52.751167 61.805848 
L 56.31071 63.433554 
L 60.227024 64.831401 
L 64.474327 65.998304 
L 69.020945 66.938603 
L 73.828049 67.659348 
L 78.848903 68.167523 
L 84.028829 68.467699 
L 89.306009 68.560519 
L 94.613062 68.442285 
L 99.879198 68.1057 
L 105.032654 67.541592 
L 110.003117 66.74128 
L 114.723874 65.699123 
L 119.133561 64.414815 
L 123.177461 62.895049 
L 126.808399 61.154329 
L 129.987319 59.214824 
L 132.683616 57.105348 
L 134.875286 54.859633 
L 136.548885 52.51416 
L 137.699304 50.105861 
L 138.329285 47.669998 
L 138.448676 45.238491 
L 138.073394 42.838894 
L 137.224157 40.494121 
L 135.925039 38.222876 
L 134.201996 36.04069 
L 132.081507 33.961296 
L 129.589467 31.998085 
L 126.7505 30.165333 
L 123.587755 28.478921 
L 120.12325 26.956388 
L 116.378694 25.616229 
L 112.3767 24.476536 
L 108.142173 23.553199 
L 103.703649 22.857999 
L 99.094345 22.396993 
L 94.352712 22.169563 
L 89.5224 22.168371 
L 84.651618 22.380315 
L 79.792004 22.788352 
L 74.997204 23.373901 
L 70.321341 24.1194 
L 65.817567 25.010586 
L 61.536827 26.038129 
L 57.526858 27.198346 
L 53.831448 28.492917 
L 50.489879 29.927616 
L 47.536518 31.510278 
L 45.000513 33.248247 
L 42.905564 35.14566 
L 41.269791 37.200929 
L 40.105732 39.404742 
L 39.420486 41.73886 
L 39.216053 44.175891 
L 39.48987 46.680096 
L 40.235507 49.209153 
L 41.443465 51.716702 
L 43.10199 54.155375 
L 45.197752 56.479961 
L 47.716286 58.650338 
L 50.642065 60.633813 
L 53.958125 62.406596 
L 57.645226 63.954215 
L 61.680632 65.270828 
L 66.036661 66.357537 
L 70.679253 67.219952 
L 75.566864 67.865399 
L 80.649937 68.300251 
L 85.87116 68.527819 
L 91.166555 68.547211 
L 96.467281 68.353328 
L 101.701929 67.93798 
L 106.798979 67.291879 
L 106.798979 67.291879 
" clip-path="url(#p6a83451758)" style="fill: none; stroke: #1f77b4; stroke-width: 1.5; stroke-linecap: round"/>
   </g>
   <g id="line2d_25">
    <path d="M 88.860699 43.976785 
L 88.81774 98.231586 
L 88.607536 109.147203 
L 88.581855 112.619048 
L 88.788462 113.123198 
L 88.992672 113.206133 
L 88.622564 113.096043 
L 88.365205 113.238791 
L 88.411886 113.396386 
L 88.718238 113.499188 
L 89.123997 113.410177 
L 89.23297 113.210646 
L 89.067024 113.034115 
L 88.642545 112.949202 
L 88.200018 113.059619 
L 88.028588 113.287855 
L 88.143514 113.505535 
L 88.491731 113.659471 
L 89.054424 113.671706 
L 89.534172 113.474433 
L 89.681483 113.187635 
L 89.545539 112.934689 
L 89.182599 112.7372 
L 88.550337 112.651248 
L 87.903343 112.776147 
L 87.527108 113.028362 
L 87.418141 113.291843 
L 87.517256 113.567721 
L 87.825602 113.810613 
L 88.450866 114.00182 
L 89.213805 114.009767 
L 89.92978 113.811639 
L 90.338948 113.522241 
L 90.514029 113.156133 
L 90.406928 112.766866 
L 90.012485 112.415992 
L 89.372558 112.163518 
L 88.572759 112.057961 
L 87.73192 112.12754 
L 86.985474 112.373937 
L 86.464809 112.769768 
L 86.2875 113.132759 
L 86.325892 113.518471 
L 86.590169 113.891609 
L 87.070068 114.215683 
L 87.988618 114.512857 
L 89.106922 114.59788 
L 90.254688 114.436236 
L 91.242535 114.031868 
L 91.770215 113.594802 
L 92.046516 113.078398 
L 92.030904 112.524595 
L 91.707677 111.981071 
L 91.088664 111.497128 
L 90.213549 111.119263 
L 89.147712 110.886814 
L 87.977752 110.828038 
L 86.804951 110.956944 
L 85.737124 111.271183 
L 84.879388 111.751192 
L 84.324507 112.360779 
L 84.159089 112.814604 
L 84.174452 113.285774 
L 84.377757 113.754801 
L 84.768711 114.20136 
L 85.339202 114.605104 
L 86.494523 115.088191 
L 87.930836 115.373652 
L 89.530488 115.418556 
L 91.152715 115.200026 
L 92.646008 114.718748 
L 93.496212 114.263528 
L 94.182955 113.715913 
L 94.671661 113.093721 
L 94.934787 112.418431 
L 94.953178 111.714386 
L 94.717084 111.007865 
L 94.226809 110.326054 
L 93.492963 109.695979 
L 92.536315 109.143423 
L 91.387261 108.691879 
L 90.084923 108.36157 
L 88.675926 108.168569 
L 87.212863 108.124045 
L 85.752527 108.233654 
L 84.35391 108.497104 
L 83.076062 108.90791 
L 81.97582 109.45335 
L 81.105499 110.114648 
L 80.510603 110.867388 
L 80.227631 111.682178 
L 80.282083 112.525549 
L 80.686764 113.361105 
L 81.440494 114.150873 
L 82.527336 114.856834 
L 83.916436 115.442571 
L 85.562542 115.874967 
L 87.407262 116.125858 
L 89.381029 116.173547 
L 91.40574 116.004091 
L 93.397948 115.612263 
L 95.272453 115.002116 
L 96.946106 114.187113 
L 98.341607 113.18979 
L 99.391093 112.040981 
L 100.039309 110.778641 
L 100.199779 110.118339 
L 100.246224 109.446336 
L 100.176334 108.768668 
L 99.988953 108.091492 
L 99.684093 107.421027 
L 98.727886 106.125041 
L 97.331245 104.929349 
L 95.535763 103.879705 
L 93.399812 103.0172 
L 90.996703 102.376647 
L 88.412368 101.985183 
L 85.742626 101.861077 
L 83.090106 102.012794 
L 80.560862 102.438311 
L 78.260734 103.124728 
L 76.291497 104.048174 
L 74.746855 105.174074 
L 74.159832 105.799365 
L 73.708378 106.457803 
L 73.400133 107.142415 
L 73.241493 107.845762 
L 73.237494 108.559998 
L 73.391712 109.276932 
L 73.706175 109.988109 
L 74.181284 110.684886 
L 74.815751 111.358524 
L 75.606552 112.000278 
L 76.548901 112.601495 
L 77.636245 113.15372 
L 80.210995 114.078963 
L 83.244267 114.71621 
L 86.624843 115.015374 
L 90.220864 114.939038 
L 93.885302 114.464905 
L 97.462583 113.587499 
L 99.16939 113.000681 
L 100.79595 112.318992 
L 102.323737 111.546684 
L 103.735093 110.689039 
L 105.013443 109.75231 
L 106.143498 108.743653 
L 107.111433 107.671044 
L 107.90505 106.543189 
L 108.513916 105.369423 
L 108.929474 104.159606 
L 109.145133 102.924014 
L 109.156335 101.673223 
L 108.96059 100.418 
L 108.557493 99.169189 
L 107.94872 97.937599 
L 107.137998 96.733899 
L 106.131059 95.568517 
L 104.935575 94.451538 
L 103.561083 93.392619 
L 102.018892 92.400899 
L 100.321974 91.484918 
L 98.484859 90.652553 
L 96.523509 89.910941 
L 94.455188 89.266428 
L 92.29833 88.724508 
L 90.072399 88.289776 
L 87.797739 87.965889 
L 85.495431 87.75552 
L 83.18713 87.66033 
L 80.894912 87.680938 
L 78.641105 87.816898 
L 76.44812 88.06668 
L 74.338271 88.427656 
L 72.333597 88.896093 
L 70.455666 89.467156 
L 68.725382 90.134908 
L 67.162784 90.892329 
L 65.78683 91.731339 
L 64.615193 92.64283 
L 63.664036 93.616712 
L 62.947799 94.641968 
L 62.478981 95.706727 
L 62.267927 96.798348 
L 62.322626 97.903515 
L 62.648515 99.008354 
L 63.24831 100.098565 
L 64.121853 101.159558 
L 65.265984 102.176619 
L 66.674454 103.135074 
L 68.33787 104.020473 
L 70.243681 104.818779 
L 72.376223 105.516557 
L 74.716797 106.101175 
L 77.243815 106.560994 
L 79.932985 106.885554 
L 82.757565 107.065748 
L 85.688649 107.09398 
L 88.695513 106.96431 
L 91.745992 106.672564 
L 94.806902 106.216423 
L 97.844472 105.595487 
L 100.824802 104.811298 
L 103.714331 103.867337 
L 106.480288 102.768987 
L 109.091138 101.523463 
L 111.517006 100.139718 
L 113.730063 98.628311 
L 115.704878 97.001265 
L 117.418722 95.271896 
L 118.851821 93.454631 
L 119.987564 91.564813 
L 120.812649 89.618498 
L 121.317186 87.63226 
L 121.494737 85.622985 
L 121.342322 83.607675 
L 120.860374 81.603266 
L 120.052657 79.62645 
L 118.926149 77.693514 
L 117.490905 75.820187 
L 115.759888 74.021512 
L 113.748789 72.311718 
L 111.475831 70.704124 
L 108.96157 69.211041 
L 106.228684 67.843694 
L 103.301767 66.612156 
L 100.207117 65.525289 
L 96.972532 64.590695 
L 93.627098 63.814678 
L 90.200994 63.202202 
L 86.725283 62.756868 
L 83.231712 62.480884 
L 79.752509 62.375043 
L 76.320176 62.438704 
L 72.967279 62.669778 
L 69.726226 63.064711 
L 66.629045 63.618479 
L 63.707135 64.324582 
L 60.991024 65.17505 
L 58.510097 66.160447 
L 56.292318 67.269898 
L 54.363936 68.491114 
L 52.749177 69.810442 
L 51.469931 71.212925 
L 50.545425 72.682384 
L 49.991898 74.201516 
L 49.822278 75.752019 
L 50.045877 77.31474 
L 50.668091 78.869845 
L 51.690145 80.397019 
L 53.108862 81.875685 
L 54.916495 83.285248 
L 57.100602 84.605358 
L 59.644007 85.816192 
L 62.524825 86.898737 
L 65.716576 87.835092 
L 69.188391 88.608755 
L 72.905302 89.204909 
L 76.828631 89.610683 
L 80.916458 89.815396 
L 85.124167 89.810761 
L 89.405067 89.591053 
L 93.711059 89.153231 
L 97.993346 88.497009 
L 102.203157 87.624878 
L 106.292482 86.54207 
L 110.214778 85.256476 
L 113.925653 83.778511 
L 117.38348 82.120931 
L 120.549968 80.298621 
L 123.390633 78.328343 
L 125.875203 76.228459 
L 127.977917 74.018646 
L 129.677745 71.719596 
L 130.958514 69.352716 
L 131.808945 66.939838 
L 132.22262 64.502936 
L 132.197873 62.063866 
L 131.737626 59.644123 
L 130.84917 57.264625 
L 129.543915 54.945516 
L 127.837108 52.706005 
L 125.747529 50.564216 
L 123.297182 48.53708 
L 120.510982 46.640229 
L 117.416446 44.88793 
L 114.043388 43.293017 
L 110.423628 41.866856 
L 106.590719 40.619306 
L 102.579679 39.558703 
L 98.426746 38.69184 
L 94.169139 38.023956 
L 89.844835 37.558734 
L 85.49235 37.298289 
L 81.150527 37.243165 
L 76.858327 37.39233 
L 72.654616 37.743166 
L 68.577941 38.29147 
L 64.666306 39.031438 
L 60.956929 39.95567 
L 57.48598 41.055166 
L 54.28831 42.31933 
L 51.397147 43.735983 
L 48.843783 45.291389 
L 46.657236 46.970289 
L 44.863893 48.755954 
L 43.487145 50.630262 
L 42.547002 52.573792 
L 42.059719 54.565943 
L 42.03742 56.585093 
L 42.487737 58.608768 
L 43.413489 60.613861 
L 44.812388 62.576868 
L 46.676806 64.474157 
L 48.993615 66.282268 
L 51.744093 67.978224 
L 54.903941 69.53987 
L 58.443385 70.946208 
L 62.327399 72.177746 
L 66.516038 73.216831 
L 70.964877 74.04796 
L 75.625568 74.658074 
L 80.446487 75.036804 
L 85.37347 75.176679 
L 90.350619 75.073272 
L 95.321148 74.725295 
L 100.228264 74.134627 
L 105.016039 73.306281 
L 109.630266 72.248305 
L 114.019264 70.971627 
L 118.134619 69.48985 
L 121.931842 67.818991 
L 125.370923 65.977195 
L 128.416785 63.984414 
L 131.03962 61.86207 
L 133.215119 59.632711 
L 134.924582 57.319666 
L 136.154937 54.946717 
L 136.898658 52.537775 
L 137.153605 50.116592 
L 136.922797 47.70649 
L 136.214124 45.330123 
L 135.040031 43.009273 
L 133.417155 40.764668 
L 131.365967 38.615843 
L 128.910388 36.581013 
L 126.077423 34.67699 
L 122.896794 32.919107 
L 119.400596 31.321171 
L 115.622969 29.895428 
L 111.599787 28.652545 
L 107.368373 27.601597 
L 102.967237 26.750063 
L 98.435826 26.103829 
L 93.814295 25.66719 
L 89.143293 25.44285 
L 84.463755 25.43193 
L 79.8167 25.633965 
L 75.243032 26.0469 
L 70.783334 26.667093 
L 66.477657 27.489303 
L 62.365294 28.506691 
L 58.484541 29.710808 
L 54.872434 31.091601 
L 51.564472 32.637414 
L 48.594309 34.335 
L 45.993431 36.169546 
L 43.790803 38.124716 
L 42.012505 40.182699 
L 40.681348 42.324299 
L 39.816482 44.529029 
L 39.433008 46.775249 
L 39.541592 49.040323 
L 40.148106 51.300817 
L 41.2533 53.532718 
L 42.852522 55.711696 
L 44.935496 57.813391 
L 47.486186 59.81372 
L 50.482735 61.689216 
L 53.897517 63.417375 
L 57.697296 64.977011 
L 61.843498 66.348608 
L 66.292605 67.514663 
L 70.996667 68.460002 
L 75.90392 69.172064 
L 80.959504 69.64115 
L 86.106263 69.860608 
L 91.28561 69.826968 
L 96.438428 69.540017 
L 101.505984 69.002796 
L 106.430841 68.221545 
L 111.157724 67.205578 
L 115.634336 65.967093 
L 119.812087 64.520942 
L 123.646733 62.884349 
L 127.098906 61.076595 
L 130.134523 59.11868 
L 132.725084 57.032969 
L 134.847846 54.842841 
L 136.48589 52.572333 
L 137.628084 50.245807 
L 138.268949 47.887632 
L 138.40846 45.521896 
L 138.051767 43.172141 
L 137.208878 40.861135 
L 135.894303 38.610676 
L 134.126673 36.441423 
L 131.928353 34.372766 
L 129.325047 32.422714 
L 126.345421 30.607814 
L 123.020729 28.943096 
L 119.384468 27.442029 
L 115.472044 26.116494 
L 111.320473 24.976775 
L 106.968096 24.03155 
L 102.45432 23.287895 
L 97.81938 22.751286 
L 93.104112 22.425606 
L 88.349749 22.313151 
L 83.597712 22.414628 
L 78.889423 22.729164 
L 74.266102 23.254298 
L 69.768565 23.98598 
L 65.437017 24.918566 
L 61.310824 26.044809 
L 57.428272 27.355858 
L 53.826308 28.841254 
L 50.540248 30.488938 
L 47.603479 32.285262 
L 45.04712 34.215017 
L 42.899671 36.261473 
L 41.186642 38.406442 
L 39.930166 40.630357 
L 39.148604 42.912387 
L 38.856156 45.230566 
L 39.062478 47.561971 
L 39.772324 49.882912 
L 40.985226 52.169174 
L 42.695223 54.396274 
L 44.890658 56.53976 
L 47.554047 58.575526 
L 50.662053 60.480157 
L 54.185554 62.231274 
L 58.089828 63.8079 
L 62.334854 65.190808 
L 66.875739 66.362861 
L 71.663253 67.309328 
L 76.644479 68.018162 
L 81.763557 68.480235 
L 86.962503 68.689518 
L 92.182094 68.643202 
L 97.362779 68.341757 
L 102.445608 67.788921 
L 107.373132 66.991625 
L 112.090277 65.959853 
L 116.545138 64.706446 
L 120.689704 63.246853 
L 124.480467 61.598843 
L 127.878937 59.782179 
L 130.852022 57.818278 
L 133.372301 55.72985 
L 135.418171 53.540545 
L 136.973891 51.274602 
L 138.029517 48.956514 
L 138.580757 46.610713 
L 138.628737 44.261292 
L 138.17972 41.931741 
L 137.244773 39.644727 
L 135.839397 37.421905 
L 133.983143 35.283754 
L 131.699221 33.249454 
L 129.014102 31.33678 
L 125.957141 29.562029 
L 122.560205 27.939963 
L 118.857331 26.483775 
L 114.884397 25.205063 
L 110.678822 24.113824 
L 106.279291 23.218447 
L 101.7255 22.525717 
L 97.057914 22.040822 
L 92.317557 21.767353 
L 87.545795 21.707318 
L 82.784148 21.861138 
L 78.074083 22.22765 
L 73.456826 22.804106 
L 68.973158 23.586168 
L 64.6632 24.567901 
L 60.566191 25.74177 
L 56.720236 27.098632 
L 53.16205 28.62774 
L 49.926661 30.316744 
L 47.047105 32.151712 
L 44.554085 34.117153 
L 42.475619 36.196067 
L 40.836662 38.370005 
L 39.658717 40.619157 
L 38.959443 42.922466 
L 38.752262 45.257774 
L 39.045984 47.601987 
L 39.84445 49.931291 
L 41.146219 52.221383 
L 42.944314 54.447746 
L 45.22602 56.585946 
L 47.972782 58.611952 
L 51.160186 60.502487 
L 54.758051 62.235372 
L 58.730633 63.789895 
L 63.036953 65.147155 
L 67.631237 66.290402 
L 72.463481 67.205345 
L 77.480113 67.880423 
L 82.624756 68.307035 
L 87.839061 68.479706 
L 93.063601 68.3962 
L 98.238785 68.057565 
L 103.305787 67.468113 
L 108.207446 66.635331 
L 112.889124 65.569731 
L 117.299497 64.284646 
L 121.391252 62.795968 
L 125.12169 61.121858 
L 128.453208 59.282413 
L 131.35367 57.299321 
L 133.796649 55.195504 
L 135.76156 52.99476 
L 137.233683 50.721414 
L 138.204081 48.399991 
L 138.669434 46.054902 
L 138.631804 43.710169 
L 138.098337 41.389169 
L 137.08092 39.114422 
L 135.595813 36.907401 
L 133.663257 34.788381 
L 131.307083 32.776313 
L 128.554318 30.888731 
L 125.434805 29.141677 
L 121.980837 27.54965 
L 118.226816 26.125575 
L 114.208932 24.880778 
L 109.964866 23.824984 
L 105.533514 22.966307 
L 100.954739 22.311261 
L 96.269139 21.864761 
L 91.517824 21.630129 
L 86.742219 21.609102 
L 81.983858 21.80183 
L 77.284196 22.206881 
L 72.684409 22.821237 
L 68.225189 23.640287 
L 63.946533 24.657826 
L 59.887513 25.866044 
L 56.086023 27.255526 
L 52.578519 28.81525 
L 49.39972 30.532596 
L 46.582291 32.393365 
L 44.156513 34.381804 
L 42.149911 36.48066 
L 40.586883 38.671246 
L 39.488312 40.933529 
L 38.871164 43.246253 
L 38.748106 45.587084 
L 39.127124 47.93279 
L 40.011184 50.259452 
L 41.397918 52.542709 
L 43.279381 54.758032 
L 45.641869 56.881028 
L 48.465822 58.887768 
L 51.72583 60.75513 
L 55.390741 62.461158 
L 59.423887 63.985418 
L 63.783427 65.309347 
L 68.422817 66.41659 
L 73.291382 67.293297 
L 78.335005 67.928394 
L 83.496901 68.313797 
L 88.718459 68.444575 
L 93.940145 68.319045 
L 99.102419 67.938814 
L 104.146662 67.308741 
L 109.016069 66.436838 
L 113.656502 65.334115 
L 118.017257 64.014358 
L 122.051757 62.49387 
L 125.718128 60.791167 
L 128.979666 58.926642 
L 131.805183 56.922223 
L 134.169235 54.801007 
L 136.052229 52.58691 
L 137.440432 50.304317 
L 138.325874 47.977759 
L 138.706167 45.631602 
L 138.584258 43.289778 
L 137.968123 40.975539 
L 136.870421 38.711239 
L 135.308118 36.518163 
L 133.302094 34.416372 
L 130.876752 32.424584 
L 128.059628 30.560087 
L 124.881007 28.838668 
L 121.373568 27.274562 
L 117.572041 25.880425 
L 113.512893 24.667316 
L 109.234031 23.644686 
L 104.774537 22.820382 
L 100.174417 22.200646 
L 95.474372 21.790125 
L 90.715584 21.591873 
L 85.93951 21.607359 
L 81.18769 21.836468 
L 76.501547 22.2775 
L 71.92219 22.927169 
L 67.490214 23.780596 
L 63.245475 24.831306 
L 59.226868 26.071218 
L 55.472065 27.490646 
L 52.01725 29.078299 
L 48.896821 30.821289 
L 46.143068 32.705152 
L 43.785831 34.713879 
L 41.852137 36.829969 
L 40.365822 39.034501 
L 39.347134 41.307228 
L 38.812344 43.6267 
L 38.773355 45.970418 
L 39.237332 48.315018 
L 40.206361 50.636488 
L 41.67715 52.910418 
L 43.640794 55.11228 
L 46.082606 57.217735 
L 48.982036 59.202964 
L 52.312695 61.045016 
L 56.042481 62.722166 
L 60.133826 64.21427 
L 64.544059 65.503114 
L 69.225893 66.572744 
L 74.128023 67.409759 
L 79.195822 68.003576 
L 84.372133 68.346631 
L 89.598126 68.434534 
L 94.814197 68.266158 
L 99.960895 67.843659 
L 104.979841 67.172436 
L 109.814622 66.26102 
L 109.814622 66.26102 
" clip-path="url(#p6a83451758)" style="fill: none; stroke: #ff7f0e; stroke-opacity: 0.5; stroke-width: 1.5; stroke-linecap: round"/>
   </g>
  </g>
 </g>
 <defs>
  <clipPath id="p6a83451758">
   <rect x="-1.8" y="-7.2" width="176.4" height="176.4"/>
  </clipPath>
 </defs>
</svg>
