<?xml version="1.0" encoding="utf-8" standalone="no"?>
<!DOCTYPE svg PUBLIC "-//W3C//DTD SVG 1.1//EN"
  "http://www.w3.org/Graphics/SVG/1.1/DTD/svg11.dtd">
<svg xmlns:xlink="http://www.w3.org/1999/xlink" width="216pt" height="180pt" viewBox="0 0 216 180" xmlns="http://www.w3.org/2000/svg" version="1.1">
 <metadata>
  <rdf:RDF xmlns:dc="http://purl.org/dc/elements/1.1/" xmlns:cc="http://creativecommons.org/ns#" xmlns:rdf="http://www.w3.org/1999/02/22-rdf-syntax-ns#">
   <cc:Work>
    <dc:type rdf:resource="http://purl.org/dc/dcmitype/StillImage"/>
    <dc:date>2023-06-14T18:48:11.337769</dc:date>
    <dc:format>image/svg+xml</dc:format>
    <dc:creator>
     <cc:Agent>
      <dc:title>Matplotlib v3.7.0, https://matplotlib.org/</dc:title>
     </cc:Agent>
    </dc:creator>
   </cc:Work>
  </rdf:RDF>
 </metadata>
 <defs>
  <style type="text/css">*{stroke-linejoin: round; stroke-linecap: butt}</style>
 </defs>
 <g id="figure_1">
  <g id="patch_1">
   <path d="M 0 180 
L 216 180 
L 216 0 
L 0 0 
z
" style="fill: #ffffff"/>
  </g>
  <g id="patch_2">
   <path d="M -1 169.2 
L 174.6 169.2 
L 174.6 -1 
" style="fill: none"/>
  </g>
  <g id="pane3d_1">
   <g id="patch_3">
    <path d="M 11.519416 125.705413 
L 69.772457 76.876559 
L 68.962684 6.456623 
L 7.921935 51.001381 
" style="fill: none; opacity: 0.5; stroke: #f2f2f2; stroke-linejoin: miter"/>
   </g>
  </g>
  <g id="pane3d_2">
   <g id="patch_4">
    <path d="M 69.772457 76.876559 
L 163.247803 104.046152 
L 166.583609 31.200681 
L 68.962684 6.456623 
" style="fill: none; opacity: 0.5; stroke: #e6e6e6; stroke-linejoin: miter"/>
   </g>
  </g>
  <g id="pane3d_3">
   <g id="patch_5">
    <path d="M 11.519416 125.705413 
L 110.607849 158.067695 
L 163.247803 104.046152 
L 69.772457 76.876559 
" style="fill: none; opacity: 0.5; stroke: #ececec; stroke-linejoin: miter"/>
   </g>
  </g>
  <g id="axis3d_1">
   <g id="line2d_1">
    <path d="M 11.519416 125.705413 
L 110.607849 158.067695 
" style="fill: none; stroke: #ffffff; stroke-width: 0.8; stroke-linecap: round"/>
   </g>
   <g id="text_1">
    <!-- x -->
    <g style="fill: #262626" transform="translate(40.437569 179.640981) scale(0.1 -0.1)">
     <defs>
      <path id="DejaVuSans-78" d="M 3513 3500 
L 2247 1797 
L 3578 0 
L 2900 0 
L 1881 1375 
L 863 0 
L 184 0 
L 1544 1831 
L 300 3500 
L 978 3500 
L 1906 2253 
L 2834 3500 
L 3513 3500 
z
" transform="scale(0.015625)"/>
     </defs>
     <use xlink:href="#DejaVuSans-78"/>
    </g>
   </g>
   <g id="Line3DCollection_1">
    <path d="M 32.815848 132.660828 
L 89.932228 82.736208 
L 89.98169 11.784328 
" style="fill: none; stroke: #d3d3d3; stroke-width: 0.8"/>
    <path d="M 59.714779 141.446018 
L 115.34079 90.121474 
L 116.500459 18.506063 
" style="fill: none; stroke: #d3d3d3; stroke-width: 0.8"/>
    <path d="M 87.407009 150.490301 
L 141.435145 97.706073 
L 143.766683 25.417256 
" style="fill: none; stroke: #d3d3d3; stroke-width: 0.8"/>
   </g>
   <g id="xtick_1">
    <g id="line2d_2">
     <path d="M 88.783784 78.616216 
" clip-path="url(#pa2ede81834)" style="fill: none; stroke: #d3d3d3; stroke-width: 0.8; stroke-linecap: round"/>
    </g>
    <g id="line2d_3">
     <path d="M 33.313551 132.225793 
L 31.818289 133.53278 
" style="fill: none; stroke: #808080; stroke-width: 0.8; stroke-linecap: round"/>
    </g>
    <g id="text_2">
     <!-- −0.2 -->
     <g style="fill: #808080" transform="translate(13.154581 156.159924) scale(0.1 -0.1)">
      <defs>
       <path id="DejaVuSans-2212" d="M 678 2272 
L 4684 2272 
L 4684 1741 
L 678 1741 
L 678 2272 
z
" transform="scale(0.015625)"/>
       <path id="DejaVuSans-30" d="M 2034 4250 
Q 1547 4250 1301 3770 
Q 1056 3291 1056 2328 
Q 1056 1369 1301 889 
Q 1547 409 2034 409 
Q 2525 409 2770 889 
Q 3016 1369 3016 2328 
Q 3016 3291 2770 3770 
Q 2525 4250 2034 4250 
z
M 2034 4750 
Q 2819 4750 3233 4129 
Q 3647 3509 3647 2328 
Q 3647 1150 3233 529 
Q 2819 -91 2034 -91 
Q 1250 -91 836 529 
Q 422 1150 422 2328 
Q 422 3509 836 4129 
Q 1250 4750 2034 4750 
z
" transform="scale(0.015625)"/>
       <path id="DejaVuSans-2e" d="M 684 794 
L 1344 794 
L 1344 0 
L 684 0 
L 684 794 
z
" transform="scale(0.015625)"/>
       <path id="DejaVuSans-32" d="M 1228 531 
L 3431 531 
L 3431 0 
L 469 0 
L 469 531 
Q 828 903 1448 1529 
Q 2069 2156 2228 2338 
Q 2531 2678 2651 2914 
Q 2772 3150 2772 3378 
Q 2772 3750 2511 3984 
Q 2250 4219 1831 4219 
Q 1534 4219 1204 4116 
Q 875 4013 500 3803 
L 500 4441 
Q 881 4594 1212 4672 
Q 1544 4750 1819 4750 
Q 2544 4750 2975 4387 
Q 3406 4025 3406 3419 
Q 3406 3131 3298 2873 
Q 3191 2616 2906 2266 
Q 2828 2175 2409 1742 
Q 1991 1309 1228 531 
z
" transform="scale(0.015625)"/>
      </defs>
      <use xlink:href="#DejaVuSans-2212"/>
      <use xlink:href="#DejaVuSans-30" x="83.789062"/>
      <use xlink:href="#DejaVuSans-2e" x="147.412109"/>
      <use xlink:href="#DejaVuSans-32" x="179.199219"/>
     </g>
    </g>
   </g>
   <g id="xtick_2">
    <g id="line2d_4">
     <path d="M 88.783784 78.616216 
" clip-path="url(#pa2ede81834)" style="fill: none; stroke: #d3d3d3; stroke-width: 0.8; stroke-linecap: round"/>
    </g>
    <g id="line2d_5">
     <path d="M 60.200072 140.998253 
L 58.742063 142.343516 
" style="fill: none; stroke: #808080; stroke-width: 0.8; stroke-linecap: round"/>
    </g>
    <g id="text_3">
     <!-- 0.0 -->
     <g style="fill: #808080" transform="translate(44.288073 165.228005) scale(0.1 -0.1)">
      <use xlink:href="#DejaVuSans-30"/>
      <use xlink:href="#DejaVuSans-2e" x="63.623047"/>
      <use xlink:href="#DejaVuSans-30" x="95.410156"/>
     </g>
    </g>
   </g>
   <g id="xtick_3">
    <g id="line2d_6">
     <path d="M 88.783784 78.616216 
" clip-path="url(#pa2ede81834)" style="fill: none; stroke: #d3d3d3; stroke-width: 0.8; stroke-linecap: round"/>
    </g>
    <g id="line2d_7">
     <path d="M 87.878938 150.029237 
L 86.461049 151.414482 
" style="fill: none; stroke: #808080; stroke-width: 0.8; stroke-linecap: round"/>
    </g>
    <g id="text_4">
     <!-- 0.2 -->
     <g style="fill: #808080" transform="translate(72.030975 174.565081) scale(0.1 -0.1)">
      <use xlink:href="#DejaVuSans-30"/>
      <use xlink:href="#DejaVuSans-2e" x="63.623047"/>
      <use xlink:href="#DejaVuSans-32" x="95.410156"/>
     </g>
    </g>
   </g>
  </g>
  <g id="axis3d_2">
   <g id="line2d_8">
    <path d="M 163.247803 104.046152 
L 110.607849 158.067695 
" style="fill: none; stroke: #ffffff; stroke-width: 0.8; stroke-linecap: round"/>
   </g>
   <g id="text_5">
    <!-- y -->
    <g style="fill: #262626" transform="translate(162.133934 160.636398) scale(0.1 -0.1)">
     <defs>
      <path id="DejaVuSans-79" d="M 2059 -325 
Q 1816 -950 1584 -1140 
Q 1353 -1331 966 -1331 
L 506 -1331 
L 506 -850 
L 844 -850 
Q 1081 -850 1212 -737 
Q 1344 -625 1503 -206 
L 1606 56 
L 191 3500 
L 800 3500 
L 1894 763 
L 2988 3500 
L 3597 3500 
L 2059 -325 
z
" transform="scale(0.015625)"/>
     </defs>
     <use xlink:href="#DejaVuSans-79"/>
    </g>
   </g>
   <g id="Line3DCollection_2">
    <path d="M 22.669788 40.23907 
L 25.553249 113.941976 
L 123.331974 145.009612 
" style="fill: none; stroke: #d3d3d3; stroke-width: 0.8"/>
    <path d="M 39.836835 27.711341 
L 41.921587 100.221711 
L 138.138543 129.81443 
" style="fill: none; stroke: #d3d3d3; stroke-width: 0.8"/>
    <path d="M 56.184063 15.781879 
L 57.540778 87.129395 
L 152.233235 115.349808 
" style="fill: none; stroke: #d3d3d3; stroke-width: 0.8"/>
   </g>
   <g id="xtick_4">
    <g id="line2d_9">
     <path d="M 88.783784 78.616216 
" clip-path="url(#pa2ede81834)" style="fill: none; stroke: #d3d3d3; stroke-width: 0.8; stroke-linecap: round"/>
    </g>
    <g id="line2d_10">
     <path d="M 122.508611 144.748002 
L 124.980798 145.5335 
" style="fill: none; stroke: #808080; stroke-width: 0.8; stroke-linecap: round"/>
    </g>
    <g id="text_6">
     <!-- −0.2 -->
     <g style="fill: #808080" transform="translate(123.891275 165.827115) scale(0.1 -0.1)">
      <use xlink:href="#DejaVuSans-2212"/>
      <use xlink:href="#DejaVuSans-30" x="83.789062"/>
      <use xlink:href="#DejaVuSans-2e" x="147.412109"/>
      <use xlink:href="#DejaVuSans-32" x="179.199219"/>
     </g>
    </g>
   </g>
   <g id="xtick_5">
    <g id="line2d_11">
     <path d="M 88.783784 78.616216 
" clip-path="url(#pa2ede81834)" style="fill: none; stroke: #d3d3d3; stroke-width: 0.8; stroke-linecap: round"/>
    </g>
    <g id="line2d_12">
     <path d="M 137.329327 129.565546 
L 139.758984 130.312817 
" style="fill: none; stroke: #808080; stroke-width: 0.8; stroke-linecap: round"/>
    </g>
    <g id="text_7">
     <!-- 0.0 -->
     <g style="fill: #808080" transform="translate(142.587436 150.292856) scale(0.1 -0.1)">
      <use xlink:href="#DejaVuSans-30"/>
      <use xlink:href="#DejaVuSans-2e" x="63.623047"/>
      <use xlink:href="#DejaVuSans-30" x="95.410156"/>
     </g>
    </g>
   </g>
   <g id="xtick_6">
    <g id="line2d_13">
     <path d="M 88.783784 78.616216 
" clip-path="url(#pa2ede81834)" style="fill: none; stroke: #d3d3d3; stroke-width: 0.8; stroke-linecap: round"/>
    </g>
    <g id="line2d_14">
     <path d="M 151.437775 115.112744 
L 153.826085 115.824512 
" style="fill: none; stroke: #808080; stroke-width: 0.8; stroke-linecap: round"/>
    </g>
    <g id="text_8">
     <!-- 0.2 -->
     <g style="fill: #808080" transform="translate(156.39572 135.506091) scale(0.1 -0.1)">
      <use xlink:href="#DejaVuSans-30"/>
      <use xlink:href="#DejaVuSans-2e" x="63.623047"/>
      <use xlink:href="#DejaVuSans-32" x="95.410156"/>
     </g>
    </g>
   </g>
  </g>
  <g id="axis3d_3">
   <g id="line2d_15">
    <path d="M 163.247803 104.046152 
L 166.583609 31.200681 
" style="fill: none; stroke: #ffffff; stroke-width: 0.8; stroke-linecap: round"/>
   </g>
   <g id="text_9">
    <!-- z -->
    <g style="fill: #262626" transform="translate(202.494937 65.789607) scale(0.1 -0.1)">
     <defs>
      <path id="DejaVuSans-7a" d="M 353 3500 
L 3084 3500 
L 3084 2975 
L 922 459 
L 3084 459 
L 3084 0 
L 275 0 
L 275 525 
L 2438 3041 
L 353 3041 
L 353 3500 
z
" transform="scale(0.015625)"/>
     </defs>
     <use xlink:href="#DejaVuSans-7a"/>
    </g>
   </g>
   <g id="Line3DCollection_3">
    <path d="M 163.314831 102.582434 
L 69.756153 75.458648 
L 11.44725 124.206828 
" style="fill: none; stroke: #d3d3d3; stroke-width: 0.8"/>
    <path d="M 164.081164 85.847682 
L 69.569837 59.256168 
L 10.621819 107.066228 
" style="fill: none; stroke: #d3d3d3; stroke-width: 0.8"/>
    <path d="M 164.86342 68.765219 
L 69.379837 42.733245 
L 9.778579 89.55579 
" style="fill: none; stroke: #d3d3d3; stroke-width: 0.8"/>
    <path d="M 165.662099 51.324095 
L 69.186041 25.880279 
L 8.916945 71.663412 
" style="fill: none; stroke: #d3d3d3; stroke-width: 0.8"/>
    <path d="M 166.477726 33.512894 
L 68.988335 8.687281 
L 8.036311 53.376461 
" style="fill: none; stroke: #d3d3d3; stroke-width: 0.8"/>
   </g>
   <g id="xtick_7">
    <g id="line2d_16">
     <path d="M 88.783784 78.616216 
" style="fill: none; stroke: #d3d3d3; stroke-width: 0.8; stroke-linecap: round"/>
    </g>
    <g id="line2d_17">
     <path d="M 162.529583 102.354781 
L 164.887197 103.038281 
" style="fill: none; stroke: #808080; stroke-width: 0.8; stroke-linecap: round"/>
    </g>
    <g id="text_10">
     <!-- 0.000 -->
     <g style="fill: #808080" transform="translate(167.237649 107.584126) scale(0.1 -0.1)">
      <use xlink:href="#DejaVuSans-30"/>
      <use xlink:href="#DejaVuSans-2e" x="63.623047"/>
      <use xlink:href="#DejaVuSans-30" x="95.410156"/>
      <use xlink:href="#DejaVuSans-30" x="159.033203"/>
      <use xlink:href="#DejaVuSans-30" x="222.65625"/>
     </g>
    </g>
   </g>
   <g id="xtick_8">
    <g id="line2d_18">
     <path d="M 88.783784 78.616216 
" style="fill: none; stroke: #d3d3d3; stroke-width: 0.8; stroke-linecap: round"/>
    </g>
    <g id="line2d_19">
     <path d="M 163.287539 85.624389 
L 165.670324 86.294805 
" style="fill: none; stroke: #808080; stroke-width: 0.8; stroke-linecap: round"/>
    </g>
    <g id="text_11">
     <!-- 0.025 -->
     <g style="fill: #808080" transform="translate(168.187139 90.899214) scale(0.1 -0.1)">
      <defs>
       <path id="DejaVuSans-35" d="M 691 4666 
L 3169 4666 
L 3169 4134 
L 1269 4134 
L 1269 2991 
Q 1406 3038 1543 3061 
Q 1681 3084 1819 3084 
Q 2600 3084 3056 2656 
Q 3513 2228 3513 1497 
Q 3513 744 3044 326 
Q 2575 -91 1722 -91 
Q 1428 -91 1123 -41 
Q 819 9 494 109 
L 494 744 
Q 775 591 1075 516 
Q 1375 441 1709 441 
Q 2250 441 2565 725 
Q 2881 1009 2881 1497 
Q 2881 1984 2565 2268 
Q 2250 2553 1709 2553 
Q 1456 2553 1204 2497 
Q 953 2441 691 2322 
L 691 4666 
z
" transform="scale(0.015625)"/>
      </defs>
      <use xlink:href="#DejaVuSans-30"/>
      <use xlink:href="#DejaVuSans-2e" x="63.623047"/>
      <use xlink:href="#DejaVuSans-30" x="95.410156"/>
      <use xlink:href="#DejaVuSans-32" x="159.033203"/>
      <use xlink:href="#DejaVuSans-35" x="222.65625"/>
     </g>
    </g>
   </g>
   <g id="xtick_9">
    <g id="line2d_20">
     <path d="M 88.783784 78.616216 
" style="fill: none; stroke: #d3d3d3; stroke-width: 0.8; stroke-linecap: round"/>
    </g>
    <g id="line2d_21">
     <path d="M 164.061236 68.546518 
L 166.469736 69.203154 
" style="fill: none; stroke: #808080; stroke-width: 0.8; stroke-linecap: round"/>
    </g>
    <g id="text_12">
     <!-- 0.050 -->
     <g style="fill: #808080" transform="translate(169.156266 73.869227) scale(0.1 -0.1)">
      <use xlink:href="#DejaVuSans-30"/>
      <use xlink:href="#DejaVuSans-2e" x="63.623047"/>
      <use xlink:href="#DejaVuSans-30" x="95.410156"/>
      <use xlink:href="#DejaVuSans-35" x="159.033203"/>
      <use xlink:href="#DejaVuSans-30" x="222.65625"/>
     </g>
    </g>
   </g>
   <g id="xtick_10">
    <g id="line2d_22">
     <path d="M 88.783784 78.616216 
" style="fill: none; stroke: #d3d3d3; stroke-width: 0.8; stroke-linecap: round"/>
    </g>
    <g id="line2d_23">
     <path d="M 164.851172 51.110228 
L 167.285947 51.752355 
" style="fill: none; stroke: #808080; stroke-width: 0.8; stroke-linecap: round"/>
    </g>
    <g id="text_13">
     <!-- 0.075 -->
     <g style="fill: #808080" transform="translate(170.145646 56.483347) scale(0.1 -0.1)">
      <defs>
       <path id="DejaVuSans-37" d="M 525 4666 
L 3525 4666 
L 3525 4397 
L 1831 0 
L 1172 0 
L 2766 4134 
L 525 4134 
L 525 4666 
z
" transform="scale(0.015625)"/>
      </defs>
      <use xlink:href="#DejaVuSans-30"/>
      <use xlink:href="#DejaVuSans-2e" x="63.623047"/>
      <use xlink:href="#DejaVuSans-30" x="95.410156"/>
      <use xlink:href="#DejaVuSans-37" x="159.033203"/>
      <use xlink:href="#DejaVuSans-35" x="222.65625"/>
     </g>
    </g>
   </g>
   <g id="xtick_11">
    <g id="line2d_24">
     <path d="M 88.783784 78.616216 
" style="fill: none; stroke: #d3d3d3; stroke-width: 0.8; stroke-linecap: round"/>
    </g>
    <g id="line2d_25">
     <path d="M 165.657861 33.304116 
L 168.11949 33.930968 
" style="fill: none; stroke: #808080; stroke-width: 0.8; stroke-linecap: round"/>
    </g>
    <g id="text_14">
     <!-- 0.100 -->
     <g style="fill: #808080" transform="translate(171.15592 38.7303) scale(0.1 -0.1)">
      <defs>
       <path id="DejaVuSans-31" d="M 794 531 
L 1825 531 
L 1825 4091 
L 703 3866 
L 703 4441 
L 1819 4666 
L 2450 4666 
L 2450 531 
L 3481 531 
L 3481 0 
L 794 0 
L 794 531 
z
" transform="scale(0.015625)"/>
      </defs>
      <use xlink:href="#DejaVuSans-30"/>
      <use xlink:href="#DejaVuSans-2e" x="63.623047"/>
      <use xlink:href="#DejaVuSans-31" x="95.410156"/>
      <use xlink:href="#DejaVuSans-30" x="159.033203"/>
      <use xlink:href="#DejaVuSans-30" x="222.65625"/>
     </g>
    </g>
   </g>
  </g>
  <g id="axes_1">
   <g id="line2d_26">
    <path d="M 88.91376 43.250644 
L 88.892387 85.279677 
L 88.69008 105.984747 
L 88.645835 112.636739 
L 88.857986 113.137033 
L 89.039638 113.184852 
L 89.041647 113.148552 
L 88.864125 113.058224 
L 88.504945 113.107968 
L 88.415815 113.286399 
L 88.600022 113.416658 
L 89.017106 113.421731 
L 89.270884 113.246683 
L 89.221282 113.061126 
L 88.938074 112.92709 
L 88.472146 112.931159 
L 88.12627 113.123721 
L 88.10225 113.338133 
L 88.326824 113.532734 
L 88.828696 113.634483 
L 89.378867 113.53464 
L 89.681082 113.300815 
L 89.706983 113.051546 
L 89.494438 112.814998 
L 88.971343 112.634075 
L 88.308872 112.639247 
L 87.736131 112.851234 
L 87.491929 113.14921 
L 87.51563 113.420797 
L 87.749944 113.675258 
L 88.303627 113.9021 
L 89.038108 113.962754 
L 89.781416 113.822823 
L 90.341327 113.496637 
L 90.544697 113.143071 
L 90.472309 112.761342 
L 90.11373 112.41082 
L 89.504791 112.150371 
L 88.725283 112.028901 
L 87.687113 112.116354 
L 86.968097 112.379812 
L 86.487439 112.784465 
L 86.344969 113.147402 
L 86.418971 113.5268 
L 86.716309 113.887372 
L 87.223462 114.193223 
L 88.164492 114.459581 
L 89.285325 114.510802 
L 90.414279 114.318468 
L 91.364205 113.892642 
L 91.854138 113.448385 
L 92.088291 112.933525 
L 92.029874 112.389873 
L 91.667062 111.863977 
L 91.015353 111.403226 
L 90.117576 111.051749 
L 89.04147 110.846417 
L 87.874997 110.813221 
L 86.719669 110.96427 
L 85.682333 111.295691 
L 84.865948 111.786671 
L 84.360013 112.39991 
L 84.229404 112.851605 
L 84.279684 113.316701 
L 84.516526 113.775551 
L 84.938141 114.207816 
L 85.894026 114.762523 
L 87.177968 115.149751 
L 88.690267 115.319123 
L 90.303187 115.238189 
L 91.871565 114.896533 
L 93.245841 114.307707 
L 93.984343 113.795251 
L 94.537885 113.205288 
L 94.876759 112.557679 
L 94.979076 111.87512 
L 94.831889 111.182304 
L 94.431974 110.505011 
L 93.786226 109.869158 
L 92.911658 109.299849 
L 91.835017 108.820437 
L 90.592032 108.451643 
L 89.226313 108.210715 
L 87.787962 108.110671 
L 86.331904 108.159627 
L 84.916004 108.36022 
L 83.598987 108.70918 
L 82.438231 109.197052 
L 81.487469 109.808132 
L 80.794484 110.520653 
L 80.398863 111.307252 
L 80.329921 112.135756 
L 80.604901 112.970295 
L 81.227559 113.772715 
L 82.187246 114.504242 
L 83.458579 115.12731 
L 85.001781 115.607433 
L 86.763703 115.914999 
L 88.679545 116.026845 
L 90.67521 115.927528 
L 92.670219 115.610203 
L 94.581038 115.077067 
L 96.32468 114.339376 
L 97.822388 113.41705 
L 99.003216 112.33789 
L 99.807325 111.136477 
L 100.188808 109.8528 
L 100.211091 109.193707 
L 100.117921 108.530696 
L 99.908354 107.869576 
L 99.14207 106.576331 
L 97.927923 105.36011 
L 96.299815 104.265138 
L 94.308834 103.332263 
L 92.021655 102.597622 
L 89.518435 102.091397 
L 86.890305 101.836654 
L 84.236514 101.848224 
L 81.661254 102.131658 
L 79.270194 102.68229 
L 77.166735 103.48448 
L 75.448022 104.511147 
L 74.760575 105.097048 
L 74.200802 105.723729 
L 73.777236 106.384661 
L 73.497247 107.072699 
L 73.366924 107.780138 
L 73.390965 108.498784 
L 73.572581 109.220036 
L 73.913411 109.934979 
L 74.413453 110.634489 
L 75.07101 111.309353 
L 75.882655 111.950383 
L 76.843223 112.548549 
L 77.945815 113.095104 
L 80.54101 114.000567 
L 83.58011 114.607133 
L 86.951551 114.867042 
L 90.524475 114.747065 
L 94.154046 114.230213 
L 97.68772 113.316488 
L 99.370502 112.715427 
L 100.972117 112.022752 
L 102.474431 111.24306 
L 103.860144 110.381863 
L 105.112998 109.445519 
L 106.21797 108.441167 
L 107.161458 107.376644 
L 107.931441 106.260407 
L 108.517625 105.101435 
L 108.911564 103.90913 
L 109.106757 102.69322 
L 109.098721 101.463651 
L 108.88504 100.230483 
L 108.465386 99.003793 
L 107.841511 97.79358 
L 107.017226 96.609672 
L 105.99835 95.461655 
L 104.792641 94.3588 
L 103.409709 93.310002 
L 101.860923 92.323733 
L 100.159292 91.407991 
L 98.319354 90.570265 
L 96.357046 89.81749 
L 94.289574 89.156016 
L 92.135286 88.591559 
L 89.913531 88.129162 
L 87.644524 87.773145 
L 85.349208 87.527053 
L 83.049111 87.393599 
L 80.766193 87.374606 
L 78.522698 87.470947 
L 76.340986 87.682481 
L 74.243363 88.008001 
L 72.251899 88.445167 
L 70.388229 88.990461 
L 68.67335 89.63914 
L 67.127403 90.385194 
L 65.769442 91.221326 
L 64.617199 92.13894 
L 63.68685 93.128149 
L 62.992769 94.177809 
L 62.547295 95.275581 
L 62.360508 96.408018 
L 62.440022 97.560694 
L 62.79079 98.71836 
L 63.414951 99.865136 
L 64.311694 100.984733 
L 65.477169 102.0607 
L 66.904435 103.07669 
L 68.583443 104.016728 
L 70.501078 104.865488 
L 72.641233 105.608554 
L 74.984935 106.232658 
L 77.510513 106.725893 
L 80.193805 107.077893 
L 83.008411 107.279971 
L 85.925972 107.325216 
L 88.916489 107.208561 
L 91.948668 106.926801 
L 94.99028 106.478599 
L 98.008546 105.864454 
L 100.970534 105.08666 
L 103.843559 104.149252 
L 106.595583 103.057937 
L 109.195619 101.820029 
L 111.614113 100.444374 
L 113.82332 98.941258 
L 115.797653 97.322316 
L 117.514007 95.600418 
L 118.952049 93.789532 
L 120.094469 91.904568 
L 120.927186 89.961195 
L 121.439511 87.97564 
L 121.624248 85.964463 
L 121.477754 83.944337 
L 120.999929 81.931813 
L 120.194168 79.943119 
L 119.067251 77.993964 
L 117.629195 76.099392 
L 115.893064 74.273662 
L 113.874759 72.530175 
L 111.592774 70.881436 
L 109.067955 69.33904 
L 106.323252 67.91368 
L 103.383469 66.615168 
L 100.275042 65.452444 
L 97.025813 64.433577 
L 93.664833 63.565756 
L 90.222173 62.855246 
L 86.728754 62.307342 
L 83.216179 61.926296 
L 79.716572 61.715238 
L 76.262413 61.676086 
L 72.886366 61.809458 
L 69.621086 62.114582 
L 66.49901 62.589206 
L 63.552117 63.22951 
L 60.811662 64.03002 
L 58.307878 64.983529 
L 56.069648 66.08102 
L 54.124147 67.311605 
L 52.496471 68.662482 
L 51.209244 70.118923 
L 50.282225 71.664308 
L 49.731929 73.280199 
L 49.571259 74.946486 
L 49.809178 76.641593 
L 50.450427 78.34275 
L 51.49529 80.02633 
L 52.939436 81.668232 
L 54.773822 83.244311 
L 56.984678 84.73082 
L 59.553573 86.104855 
L 62.457545 87.344786 
L 65.669326 88.430634 
L 69.157617 89.344416 
L 72.887448 90.070405 
L 76.820575 90.595332 
L 80.915944 90.908517 
L 85.130188 91.001928 
L 89.418155 90.870192 
L 93.733464 90.510559 
L 98.029076 89.92283 
L 102.257875 89.109282 
L 106.373245 88.074578 
L 110.329651 86.825689 
L 114.083202 85.371826 
L 117.592195 83.724376 
L 120.817642 81.896856 
L 123.72376 79.904839 
L 126.27843 77.765879 
L 128.4536 75.499377 
L 130.225645 73.126402 
L 131.575657 70.669442 
L 132.48966 68.152083 
L 132.958748 65.598621 
L 132.979138 63.03363 
L 132.552121 60.481496 
L 131.68393 57.965954 
L 130.385518 55.509671 
L 128.672256 53.133888 
L 126.56357 50.858148 
L 124.082523 48.700137 
L 121.255382 46.675622 
L 118.111166 44.798484 
L 114.68121 43.080815 
L 110.998758 41.533069 
L 107.098593 40.164219 
L 103.016718 38.981906 
L 98.790086 37.992554 
L 94.456375 37.201446 
L 90.05381 36.612753 
L 85.621011 36.229525 
L 81.196872 36.05365 
L 76.820436 36.085791 
L 72.530777 36.325319 
L 68.36686 36.770232 
L 64.367369 37.417074 
L 60.570502 38.260857 
L 57.013714 39.294968 
L 53.733417 40.511073 
L 50.764612 41.899022 
L 48.140492 43.446748 
L 45.891985 45.140182 
L 44.047274 46.963193 
L 42.631296 48.897571 
L 41.665244 50.923076 
L 41.166084 53.01755 
L 41.146109 55.157124 
L 41.612547 57.316501 
L 42.56725 59.46932 
L 44.006453 61.588586 
L 45.92065 63.647143 
L 48.294551 65.618171 
L 51.107165 67.475671 
L 54.331979 69.194939 
L 57.937235 70.752976 
L 61.886307 72.128851 
L 66.138158 73.303989 
L 70.647861 74.262389 
L 75.367186 74.990772 
L 80.245222 75.478671 
L 85.229032 75.718459 
L 90.264324 75.705346 
L 95.296131 75.437332 
L 100.26948 74.915152 
L 105.130065 74.14221 
L 109.824894 73.12452 
L 114.30292 71.870656 
L 118.515647 70.391723 
L 122.417711 68.701332 
L 125.967424 66.815585 
L 129.12728 64.753039 
L 131.864414 62.534636 
L 134.151008 60.183561 
L 135.964632 57.725023 
L 137.288498 55.185926 
L 138.11164 52.594431 
L 138.428983 49.979427 
L 138.241307 47.369916 
L 137.555103 44.79437 
L 136.382316 42.280098 
L 134.739987 39.85266 
L 132.649802 37.535404 
L 130.137585 35.349123 
L 127.232738 33.311881 
L 123.967673 31.438988 
L 120.37725 29.743111 
L 116.498253 28.234496 
L 112.368925 26.921246 
L 108.028561 25.809623 
L 103.517184 24.904331 
L 98.875283 24.208755 
L 94.143626 23.725133 
L 89.363123 23.45467 
L 84.574725 23.397583 
L 79.819353 23.553105 
L 75.137824 23.919449 
L 70.570778 24.493748 
L 66.158567 25.271981 
L 61.941109 26.248884 
L 57.95769 27.417853 
L 54.246709 28.770827 
L 50.845357 30.298169 
L 47.789233 31.988534 
L 45.111906 33.828745 
L 42.844426 35.803689 
L 41.014805 37.896241 
L 39.647477 40.087258 
L 38.762769 42.355638 
L 38.376389 44.678463 
L 38.498971 47.031246 
L 39.135679 49.388248 
L 40.285902 51.722888 
L 41.943043 54.008197 
L 44.094424 56.217305 
L 46.721301 58.323932 
L 49.798994 60.302859 
L 53.297143 62.130353 
L 57.180053 63.784536 
L 61.407149 65.245689 
L 65.933506 66.496486 
L 70.710448 67.522164 
L 75.686202 68.310643 
L 80.806577 68.852582 
L 86.015674 69.141409 
L 91.256597 69.173312 
L 96.472157 68.947209 
L 101.605575 68.464706 
L 106.601149 67.730049 
L 111.404919 66.750084 
L 115.965285 65.534226 
L 120.233612 64.094438 
L 124.164793 62.445227 
L 127.717776 60.603631 
L 130.856054 58.589185 
L 133.548096 56.423847 
L 135.767724 54.131839 
L 137.494419 51.739402 
L 138.713545 49.274435 
L 139.416473 46.766009 
L 139.600613 44.243787 
L 139.269321 41.737366 
L 138.431701 39.275581 
L 137.102293 36.885839 
L 135.300659 34.593517 
L 133.050887 32.421488 
L 130.381033 30.389796 
L 127.322531 28.515513 
L 123.909601 26.812758 
L 120.178667 25.292858 
L 116.167838 23.964633 
L 111.916445 22.834721 
L 107.464649 21.907937 
L 102.853139 21.187594 
L 98.122899 20.675773 
L 93.315041 20.373524 
L 88.470698 20.280986 
L 83.630945 20.397444 
L 78.836749 20.721329 
L 74.12891 21.250179 
L 69.547995 21.980567 
L 65.134232 22.908016 
L 60.927367 24.026891 
L 56.966459 25.330285 
L 53.289612 26.809885 
L 49.933649 28.455835 
L 46.933711 30.256595 
L 44.322809 32.1988 
L 42.131325 34.267159 
L 40.386481 36.444384 
L 39.111797 38.711191 
L 38.326562 41.046371 
L 38.045324 43.426962 
L 38.277451 45.828503 
L 39.026741 48.225381 
L 40.291143 50.591245 
L 42.062566 52.899472 
L 44.32681 55.123653 
L 47.063604 57.238079 
L 50.246776 59.218194 
L 53.844521 61.041001 
L 57.819785 62.685415 
L 62.130741 64.132534 
L 66.731341 65.365864 
L 71.571932 66.371465 
L 76.599926 67.138051 
L 81.760492 67.65705 
L 86.997269 67.922617 
L 92.253082 67.931624 
L 97.470645 67.683635 
L 102.593262 67.18086 
L 107.56549 66.428112 
L 112.333792 65.432774 
L 116.847156 64.204767 
L 121.05768 62.756542 
L 124.921129 61.103066 
L 128.397453 59.261816 
L 131.451251 57.252738 
L 134.052198 55.098156 
L 136.175398 52.822609 
L 137.801665 50.452577 
L 138.917731 48.0161 
L 139.516344 45.542278 
L 139.596267 43.06067 
L 139.162168 40.600628 
L 138.22439 38.190603 
L 136.798616 35.857487 
L 134.905439 33.626036 
L 132.569849 31.51842 
L 129.820665 29.553939 
L 126.689946 27.74891 
L 123.212396 26.116722 
L 119.424801 24.668028 
L 115.365514 23.411043 
L 111.074014 22.351885 
L 106.590531 21.494935 
L 101.955762 20.843151 
L 97.210653 20.398331 
L 92.396247 20.161295 
L 87.553587 20.131995 
L 82.723647 20.309561 
L 77.947277 20.692286 
L 73.265153 21.277578 
L 68.717703 22.061886 
L 64.344992 23.0406 
L 60.186571 24.207942 
L 56.281263 25.556847 
L 52.666881 27.078821 
L 49.379888 28.763805 
L 46.454991 30.600026 
L 43.92468 32.573869 
L 41.81872 34.669771 
L 40.163623 36.870169 
L 38.982103 39.155506 
L 38.292551 41.504328 
L 38.108542 43.893465 
L 38.438393 46.298304 
L 39.28481 48.693152 
L 40.644608 51.051656 
L 42.508557 53.347281 
L 44.861321 55.553788 
L 47.681532 57.645723 
L 50.941966 59.598858 
L 54.609845 61.390589 
L 58.647231 63.000272 
L 63.011516 64.409489 
L 67.655991 65.602252 
L 72.530469 66.565148 
L 77.581959 67.287425 
L 82.755362 67.761043 
L 87.994185 67.980686 
L 93.241251 67.943744 
L 98.439409 67.650287 
L 103.532217 67.103017 
L 108.464611 66.307227 
L 113.183545 65.270767 
L 117.638608 64.004019 
L 121.782601 62.519883 
L 125.572084 60.833775 
L 128.967888 58.963606 
L 131.935571 56.92974 
L 134.44583 54.75489 
L 136.474839 52.463934 
L 138.004524 50.083628 
L 139.022742 47.642196 
L 139.523368 45.168815 
L 139.50627 42.693001 
L 138.977178 40.243932 
L 137.947437 37.849763 
L 136.43365 35.536979 
L 134.457234 33.329842 
L 132.043894 31.24997 
L 129.223057 29.316088 
L 126.027271 27.543947 
L 122.491625 25.946405 
L 118.653187 24.533646 
L 114.550509 23.313487 
L 110.223195 22.291721 
L 105.711544 21.472474 
L 101.056281 20.858506 
L 96.298349 20.451458 
L 91.478773 20.252022 
L 86.638564 20.260033 
L 81.818658 20.474503 
L 77.059861 20.893597 
L 72.402795 21.514581 
L 67.887813 22.33374 
L 63.554888 23.346278 
L 59.443442 24.546205 
L 55.59212 25.926217 
L 52.0385 27.477551 
L 48.81874 29.189849 
L 45.967158 31.051011 
L 43.515762 33.047072 
L 41.493743 35.162103 
L 39.926933 37.378167 
L 38.837271 39.675348 
L 38.242277 42.031855 
L 38.154569 44.424225 
L 38.58144 46.827615 
L 39.524509 49.216172 
L 40.979475 51.563473 
L 42.93597 53.842997 
L 45.377531 56.028611 
L 48.281687 58.095055 
L 51.620165 60.018369 
L 55.359202 61.776286 
L 59.459965 63.348556 
L 63.879052 64.717196 
L 68.569075 65.866684 
L 73.47929 66.784096 
L 78.556277 67.459182 
L 83.744644 67.884408 
L 88.987734 68.054965 
L 94.228342 67.968747 
L 99.409412 67.626319 
L 104.474728 67.03087 
L 109.369569 66.188176 
L 114.04135 65.106562 
L 118.440226 63.796882 
L 122.519671 62.27251 
L 126.237015 60.549329 
L 129.553946 58.645717 
L 132.43696 56.582487 
L 134.857755 54.382777 
L 136.793569 52.07184 
L 138.227426 49.676742 
L 139.148305 47.225926 
L 139.551206 44.748682 
L 139.437106 42.27451 
L 138.812805 39.832447 
L 137.690658 37.45038 
L 136.0882 35.154415 
L 134.027688 32.968343 
L 131.535564 30.913256 
L 128.641877 29.007323 
L 125.379691 27.265747 
L 121.784501 25.70087 
L 117.893684 24.322414 
L 113.746017 23.137797 
L 109.381254 22.152484 
L 104.839791 21.37033 
L 100.162403 20.79388 
L 95.39006 20.424594 
L 90.563788 20.263003 
L 85.72459 20.308795 
L 80.913381 20.560829 
L 76.170938 21.01711 
L 71.537843 21.674727 
L 67.054389 22.52977 
L 62.760461 23.577226 
L 58.695355 24.810867 
L 54.897541 26.22312 
L 51.404361 27.804933 
L 48.251659 29.545624 
L 45.473358 31.432747 
L 43.100975 33.451969 
L 41.163108 35.58698 
L 39.684899 37.81946 
L 38.687491 40.129124 
L 38.187516 42.493843 
L 38.196618 44.889865 
L 38.721041 47.292121 
L 39.761307 49.674611 
L 41.311975 52.010852 
L 43.361527 54.274354 
L 45.892354 56.439111 
L 48.880874 58.48007 
L 52.297747 60.373562 
L 56.108221 62.097673 
L 60.272559 63.632559 
L 64.74656 64.960688 
L 69.482152 66.067017 
L 74.428034 66.93912 
L 79.530358 67.567256 
L 84.733439 67.944406 
L 89.980462 68.06627 
L 95.214195 67.931251 
L 100.37769 67.540411 
L 105.414961 66.897432 
L 105.414961 66.897432 
" clip-path="url(#pa2ede81834)" style="fill: none; stroke: #1f77b4; stroke-width: 1.5; stroke-linecap: round"/>
   </g>
   <g id="line2d_27">
    <path d="M 88.91376 43.250644 
L 88.8685 97.981718 
L 88.655731 108.989423 
L 88.629854 112.490526 
L 88.838667 112.998997 
L 89.044907 113.082537 
L 88.670695 112.971177 
L 88.410772 113.115228 
L 88.458117 113.274364 
L 88.767813 113.378252 
L 89.177754 113.288494 
L 89.287655 113.087059 
L 89.119764 112.908768 
L 88.690719 112.822912 
L 88.24365 112.934274 
L 88.070665 113.164678 
L 88.187042 113.384506 
L 88.539105 113.540041 
L 89.107751 113.552561 
L 89.592344 113.353511 
L 89.740891 113.063975 
L 89.603233 112.808539 
L 89.236251 112.609035 
L 88.597236 112.522073 
L 87.943567 112.648002 
L 87.563645 112.902558 
L 87.453818 113.168569 
L 87.554281 113.44716 
L 87.866149 113.692508 
L 88.498229 113.885762 
L 89.269239 113.894014 
L 89.992558 113.694173 
L 90.405725 113.402086 
L 90.582245 113.032481 
L 90.473581 112.639417 
L 90.074593 112.28504 
L 89.427653 112.029949 
L 88.619326 111.923152 
L 87.769722 111.993175 
L 87.015694 112.241754 
L 86.489979 112.641283 
L 86.311196 113.007755 
L 86.350413 113.397235 
L 86.617888 113.774092 
L 87.103212 114.101473 
L 88.031806 114.401829 
L 89.162043 114.488025 
L 90.321781 114.325159 
L 91.319629 113.917159 
L 91.852397 113.476011 
L 92.131034 112.95469 
L 92.114635 112.395533 
L 91.787392 111.846678 
L 91.161328 111.357905 
L 90.276599 110.976169 
L 89.199318 110.741202 
L 88.01702 110.681553 
L 86.832057 110.811395 
L 85.753363 111.128391 
L 84.887132 111.612824 
L 84.327068 112.228186 
L 84.160394 112.686389 
L 84.176424 113.162167 
L 84.38238 113.635843 
L 84.777949 114.086897 
L 85.354918 114.494777 
L 86.523015 114.98297 
L 87.974892 115.271695 
L 89.591591 115.317558 
L 91.230814 115.097418 
L 92.739425 114.611926 
L 93.598133 114.152548 
L 94.291531 113.599835 
L 94.784699 112.971774 
L 95.049833 112.290048 
L 95.067612 111.579235 
L 94.828223 110.865866 
L 94.332016 110.177391 
L 93.589751 109.541097 
L 92.622453 108.983016 
L 91.460864 108.526872 
L 90.144541 108.193088 
L 88.720607 107.997901 
L 87.242213 107.952597 
L 85.766738 108.062904 
L 84.353786 108.328546 
L 83.063006 108.742997 
L 81.951813 109.293435 
L 81.073054 109.960928 
L 80.472689 110.720845 
L 80.187584 111.543526 
L 80.243488 112.395193 
L 80.653324 113.239101 
L 81.41588 114.036905 
L 82.515026 114.750204 
L 83.919553 115.34221 
L 85.583698 115.779458 
L 87.448411 116.033481 
L 89.443349 116.082343 
L 91.489543 115.911938 
L 93.502627 115.516964 
L 95.39648 114.901497 
L 97.087065 114.079119 
L 98.496282 113.07258 
L 99.555583 111.913012 
L 100.209189 110.63874 
L 100.370578 109.972162 
L 100.41672 109.293753 
L 100.345294 108.609605 
L 100.155141 107.925936 
L 99.846286 107.249024 
L 98.878527 105.940521 
L 97.465884 104.733197 
L 95.650459 103.673243 
L 93.49129 102.802137 
L 91.062488 102.15503 
L 88.450891 101.759324 
L 85.753308 101.63348 
L 83.073412 101.78607 
L 80.518325 102.21509 
L 78.194953 102.907561 
L 76.206091 103.839438 
L 74.646392 104.975867 
L 74.053821 105.607095 
L 73.598261 106.271846 
L 73.287435 106.963084 
L 73.127802 107.673303 
L 73.124453 108.394582 
L 73.281002 109.118656 
L 73.599498 109.836987 
L 74.080347 110.540848 
L 74.722245 111.221413 
L 75.522135 111.869848 
L 76.475179 112.477413 
L 77.57475 113.035564 
L 80.178157 113.97105 
L 83.244842 114.615867 
L 86.662321 114.91937 
L 90.297233 114.843714 
L 94.000878 114.36633 
L 97.615928 113.481654 
L 99.340534 112.889716 
L 100.983888 112.201955 
L 102.527264 111.422665 
L 103.952817 110.557181 
L 105.243802 109.611819 
L 106.384776 108.593807 
L 107.361778 107.511202 
L 108.162498 106.372798 
L 108.77641 105.188022 
L 109.194888 103.966835 
L 109.411296 102.71961 
L 109.421053 101.45703 
L 109.22167 100.189964 
L 108.812765 98.929359 
L 108.196058 97.686128 
L 107.375341 96.471038 
L 106.356431 95.294614 
L 105.147103 94.167034 
L 103.757014 93.098043 
L 102.197605 92.096859 
L 100.482001 91.172103 
L 98.62489 90.331719 
L 96.642406 89.58291 
L 94.551996 88.932078 
L 92.372286 88.384767 
L 90.122934 87.945616 
L 87.824491 87.618315 
L 85.498245 87.405567 
L 83.166066 87.309053 
L 80.850245 87.329403 
L 78.573327 87.466176 
L 76.357943 87.717835 
L 74.226624 88.081741 
L 72.201626 88.554139 
L 70.304731 89.13016 
L 68.557052 89.803827 
L 66.978829 90.56807 
L 65.589217 91.414746 
L 64.406071 92.334677 
L 63.445727 93.31769 
L 62.722781 94.352677 
L 62.249871 95.427666 
L 62.037461 96.529901 
L 62.093635 97.645947 
L 62.4239 98.761801 
L 63.031013 99.863025 
L 63.914825 100.934886 
L 65.072152 101.962521 
L 66.496686 102.931107 
L 68.178935 103.82604 
L 70.106217 104.633133 
L 72.262692 105.338806 
L 74.629452 105.930284 
L 77.184659 106.395797 
L 79.903742 106.724762 
L 82.759644 106.907966 
L 85.723119 106.937724 
L 88.763081 106.808019 
L 91.846985 106.514625 
L 94.941253 106.055192 
L 98.011718 105.429307 
L 101.024085 104.638525 
L 103.944403 103.686362 
L 106.739529 102.578255 
L 109.377575 101.321497 
L 111.82834 99.925135 
L 114.063697 98.399843 
L 116.057954 96.75777 
L 117.78816 95.012374 
L 119.234358 93.178231 
L 120.379797 91.270843 
L 121.211078 89.306432 
L 121.718254 87.301734 
L 121.894875 85.273801 
L 121.737984 83.239801 
L 121.248077 81.216828 
L 120.429014 79.221729 
L 119.287904 77.270936 
L 117.834958 75.380318 
L 116.08332 73.565046 
L 114.048886 71.839472 
L 111.750104 70.217022 
L 109.207769 68.710108 
L 106.444812 67.330044 
L 103.486092 66.086984 
L 100.358183 64.989859 
L 97.089163 64.046331 
L 93.70841 63.262752 
L 90.246394 62.644131 
L 86.734475 62.194099 
L 83.204702 61.914886 
L 79.689606 61.8073 
L 76.221995 61.870705 
L 72.834738 62.103005 
L 69.560552 62.500634 
L 66.431766 63.058541 
L 63.480087 63.770193 
L 60.73634 64.62757 
L 58.230204 65.621179 
L 55.989931 66.740073 
L 54.042046 67.971878 
L 52.41104 69.302844 
L 51.119047 70.717901 
L 50.18552 72.200741 
L 49.626899 73.73392 
L 49.456282 75.298979 
L 49.683115 76.876597 
L 50.31289 78.446756 
L 51.34688 79.988949 
L 52.78191 81.482395 
L 54.610176 82.906289 
L 56.819127 84.24007 
L 59.391414 85.463698 
L 62.304919 86.557952 
L 65.532867 87.504727 
L 69.044033 88.287329 
L 72.803041 88.890764 
L 76.770748 89.302004 
L 80.904724 89.510234 
L 85.159807 89.50706 
L 89.488731 89.28668 
L 93.842804 88.846006 
L 98.172627 88.18474 
L 102.428834 87.305391 
L 106.562833 86.213247 
L 110.527527 84.916282 
L 114.278003 83.425023 
L 117.772164 81.75237 
L 120.971295 79.91337 
L 123.840553 77.924968 
L 126.349364 75.805725 
L 128.471735 73.575528 
L 130.186469 71.255286 
L 131.477288 68.866624 
L 132.332877 66.431594 
L 132.746836 63.972384 
L 132.717576 61.511057 
L 132.248146 59.069308 
L 131.346008 56.668239 
L 130.022784 54.32817 
L 128.293964 52.068468 
L 126.178601 49.907405 
L 123.698997 47.862042 
L 120.88038 45.948129 
L 117.750594 44.180036 
L 114.339791 42.570689 
L 110.68014 41.13153 
L 106.805542 39.872487 
L 102.75137 38.80195 
L 98.554218 37.926756 
L 94.25166 37.252184 
L 89.882028 36.781942 
L 85.484195 36.518164 
L 81.09736 36.461405 
L 76.760837 36.610634 
L 72.513845 36.963231 
L 68.395286 37.514973 
L 64.443516 38.260036 
L 60.696102 39.190985 
L 57.189564 40.298776 
L 53.959094 41.572756 
L 51.038258 43.000678 
L 48.458677 44.568723 
L 46.249685 46.261535 
L 44.43797 48.062272 
L 43.0472 49.952683 
L 42.09764 51.9132 
L 41.605766 53.923062 
L 41.583884 55.960463 
L 42.039768 58.002736 
L 42.976321 60.026563 
L 44.391287 62.008215 
L 46.277006 63.923829 
L 48.620245 65.749702 
L 51.402112 67.462614 
L 54.598056 69.040164 
L 58.177981 70.461119 
L 62.106462 71.705759 
L 66.343082 72.756215 
L 70.842881 73.596796 
L 75.556915 74.214275 
L 80.432916 74.598147 
L 85.41604 74.740834 
L 90.449679 74.637845 
L 95.476333 74.287859 
L 100.438492 73.692765 
L 105.279532 72.857621 
L 109.944577 71.79056 
L 114.381326 70.502628 
L 118.540796 69.007575 
L 122.377992 67.321597 
L 125.852473 65.463036 
L 128.928804 63.452063 
L 131.576903 61.310327 
L 133.772259 59.060615 
L 135.496055 56.726496 
L 136.735176 54.331991 
L 137.48212 51.901245 
L 137.734841 49.458235 
L 137.496506 47.026498 
L 136.775207 44.628889 
L 135.583632 42.287375 
L 133.938703 40.022856 
L 131.8612 37.855019 
L 129.375382 35.80222 
L 126.508607 33.88139 
L 123.290964 32.107972 
L 119.754923 30.495864 
L 115.935004 29.057394 
L 111.867464 27.803296 
L 107.590011 26.742699 
L 103.141533 25.883132 
L 98.561858 25.230517 
L 93.891518 24.789176 
L 89.171536 24.561836 
L 84.443218 24.54963 
L 79.747952 24.752097 
L 75.127009 25.167184 
L 70.621338 25.791237 
L 66.271354 26.618999 
L 62.116711 27.643603 
L 58.196066 28.856566 
L 54.546812 30.247786 
L 51.2048 31.80555 
L 48.204029 33.516539 
L 45.576321 35.365855 
L 43.350963 37.337058 
L 41.554339 39.412224 
L 40.209541 41.572019 
L 39.335973 43.795805 
L 38.948952 46.061772 
L 39.059321 48.347096 
L 39.673078 50.628137 
L 40.791047 52.880666 
L 42.408582 55.080119 
L 44.515352 57.201892 
L 47.095184 59.221654 
L 50.126015 61.115685 
L 53.57993 62.86123 
L 57.423323 64.436859 
L 61.617175 65.822825 
L 66.117449 67.001409 
L 70.875609 67.957246 
L 75.839245 68.677613 
L 80.952808 69.152675 
L 86.158416 69.375685 
L 91.396734 69.343114 
L 96.607893 69.054727 
L 101.732418 68.513588 
L 106.712151 67.725996 
L 111.49114 66.70136 
L 116.016454 65.452011 
L 120.238939 63.992963 
L 124.113854 62.341629 
L 127.601409 60.5175 
L 130.667186 58.541802 
L 133.28243 56.437139 
L 135.424227 54.227133 
L 137.075569 51.936067 
L 138.225307 49.588545 
L 138.868023 47.209172 
L 139.003812 44.822261 
L 138.638004 42.451567 
L 137.780836 40.120057 
L 136.447088 37.849713 
L 134.655699 35.66136 
L 132.429364 33.574537 
L 129.794145 31.607387 
L 126.779076 29.776576 
L 123.415792 28.097237 
L 119.738177 26.582926 
L 115.782029 25.245602 
L 111.584754 24.095612 
L 107.185081 23.141688 
L 102.622806 22.390948 
L 97.938545 21.848905 
L 93.173517 21.519466 
L 88.369328 21.404946 
L 83.567777 21.506066 
L 78.810654 21.821956 
L 74.139548 22.350151 
L 69.595642 23.086593 
L 65.219507 24.025617 
L 61.050871 25.15995 
L 57.128383 26.480703 
L 53.489344 27.977369 
L 50.169427 29.637829 
L 47.202361 31.448362 
L 44.6196 33.39367 
L 42.449966 35.456921 
L 40.719269 37.619804 
L 39.449919 39.862618 
L 38.660526 42.164373 
L 38.365501 44.502932 
L 38.574665 46.855178 
L 39.29289 49.197215 
L 40.519768 51.504605 
L 42.249333 53.752628 
L 44.469851 55.916588 
L 47.163691 57.972127 
L 50.307287 59.895575 
L 53.871208 61.664302 
L 57.820342 63.257088 
L 62.114203 64.654475 
L 66.707359 65.839116 
L 71.549975 66.79609 
L 76.588473 67.513192 
L 81.766285 67.981166 
L 87.024691 68.193893 
L 92.30371 68.148512 
L 97.543034 67.845482 
L 102.682966 67.288568 
L 107.66534 66.484769 
L 112.434405 65.444174 
L 116.937635 64.179761 
L 121.126459 62.707149 
L 124.956889 61.044301 
L 128.390026 59.211196 
L 131.392458 57.229479 
L 133.936526 55.122103 
L 136.000473 52.912962 
L 137.568486 50.626542 
L 138.630623 48.287577 
L 139.182663 45.920736 
L 139.22587 43.550334 
L 138.766701 41.200071 
L 137.81646 38.892813 
L 136.390932 36.650393 
L 134.509983 34.493455 
L 132.19716 32.441325 
L 129.479299 30.51191 
L 126.386126 28.721622 
L 122.949896 27.085322 
L 119.205033 25.61629 
L 115.187808 24.326197 
L 110.936033 23.225103 
L 106.488783 22.321448 
L 101.88614 21.622058 
L 97.168955 21.132154 
L 92.378629 20.855355 
L 87.556909 20.793683 
L 82.745684 20.94757 
L 77.986794 21.315859 
L 73.321834 21.895795 
L 68.791951 22.683029 
L 64.437632 23.671607 
L 60.298477 24.853965 
L 56.412954 26.22092 
L 52.818134 27.761676 
L 49.549398 29.463821 
L 46.640123 31.313346 
L 44.121348 33.294672 
L 42.021407 35.39069 
L 40.365552 37.58283 
L 39.17556 39.85114 
L 38.469331 42.174406 
L 38.260493 44.53029 
L 38.558012 46.895507 
L 39.365838 49.246031 
L 40.682579 51.557334 
L 42.501239 53.804661 
L 44.809017 55.96333 
L 47.587193 58.009059 
L 50.811111 59.918314 
L 54.450266 61.668669 
L 58.468512 63.239167 
L 62.824387 64.610682 
L 67.471568 65.766254 
L 72.359433 66.691409 
L 77.433737 67.374432 
L 82.63739 67.806601 
L 87.9113 67.982356 
L 93.195281 67.899417 
L 98.428982 67.558828 
L 103.552836 66.964934 
L 108.508968 66.125297 
L 113.242073 65.050541 
L 117.700212 63.75414 
L 121.835528 62.252163 
L 125.60485 60.562968 
L 128.970185 58.70687 
L 131.899088 56.705791 
L 134.364911 54.582894 
L 136.346929 52.362222 
L 137.830362 50.068349 
L 138.806288 47.726038 
L 139.271474 45.359936 
L 139.228128 42.994285 
L 138.683597 40.652672 
L 137.650017 38.357809 
L 136.143937 36.131348 
L 134.185918 33.993723 
L 131.800135 31.964032 
L 129.01398 30.059934 
L 125.857671 28.297586 
L 122.36389 26.691584 
L 118.567428 25.254935 
L 114.504869 23.99904 
L 110.214283 22.933681 
L 105.73496 22.067023 
L 101.107148 21.405621 
L 96.371828 20.95442 
L 91.57049 20.716768 
L 86.744935 20.694415 
L 81.937071 20.887524 
L 77.188722 21.294662 
L 72.541433 21.912808 
L 68.036263 22.737337 
L 63.713574 23.762023 
L 59.612799 24.979025 
L 55.772195 26.378888 
L 52.228572 27.950538 
L 49.017 29.68129 
L 46.170488 31.556867 
L 43.719645 33.561425 
L 41.692312 35.6776 
L 40.113182 37.886578 
L 39.003403 40.168185 
L 38.380181 42.501002 
L 38.256375 44.862515 
L 38.640126 47.229296 
L 39.534496 49.577211 
L 40.937155 51.881672 
L 42.840129 54.117911 
L 45.229614 56.261285 
L 48.085873 58.287613 
L 51.383239 60.173519 
L 55.090223 61.896798 
L 59.16974 63.436774 
L 63.579457 64.774661 
L 68.272264 65.893899 
L 73.196862 66.78046 
L 78.298452 67.42312 
L 83.519529 67.81368 
L 88.800735 67.947132 
L 94.081775 67.821755 
L 99.302353 67.439157 
L 104.40311 66.804239 
L 109.326536 65.925094 
L 114.01783 64.812847 
L 118.42569 63.481436 
L 122.503002 61.947342 
L 126.207436 60.22928 
L 129.50191 58.347869 
L 132.354944 56.325268 
L 134.740883 54.184818 
L 136.640011 51.950682 
L 138.038547 49.647491 
L 138.928549 47.300013 
L 139.307726 44.93285 
L 139.179181 42.570151 
L 138.551102 40.235374 
L 137.436402 37.951066 
L 135.852341 35.738685 
L 133.820125 33.61845 
L 131.364507 31.609222 
L 128.513386 29.728414 
L 125.297428 27.991921 
L 121.7497 26.414075 
L 117.905323 25.007614 
L 113.801155 23.783665 
L 109.475496 22.751739 
L 104.967818 21.91973 
L 100.318514 21.293919 
L 95.568666 20.878983 
L 90.759835 20.677999 
L 85.933856 20.692451 
L 81.13264 20.922232 
L 76.397979 21.365643 
L 71.771352 22.019391 
L 67.293718 22.878584 
L 63.005301 23.936722 
L 58.945355 25.185694 
L 55.151913 26.61577 
L 51.661516 28.215607 
L 48.508909 29.972248 
L 45.726724 31.87115 
L 43.345128 33.896209 
L 41.391461 36.029812 
L 39.889848 38.252908 
L 38.8608 40.545103 
L 38.320819 42.884784 
L 38.281996 45.249267 
L 38.751639 47.61499 
L 39.731922 49.957725 
L 41.219582 52.252831 
L 43.205671 54.475539 
L 45.675389 56.60126 
L 48.607997 58.605922 
L 51.976836 60.466321 
L 55.749452 62.160482 
L 59.887847 63.668025 
L 64.348846 64.970513 
L 69.084587 66.051792 
L 74.043126 66.898288 
L 79.169151 67.499272 
L 84.404778 67.847073 
L 89.690425 67.93723 
L 94.965729 67.768582 
L 100.170484 67.343297 
L 105.245576 66.666821 
L 110.133891 65.747772 
L 110.133891 65.747772 
" clip-path="url(#pa2ede81834)" style="fill: none; stroke: #ff7f0e; stroke-opacity: 0.5; stroke-width: 1.5; stroke-linecap: round"/>
   </g>
  </g>
 </g>
 <defs>
  <clipPath id="pa2ede81834">
   <rect x="-1.8" y="-7.2" width="176.4" height="176.4"/>
  </clipPath>
 </defs>
</svg>
