<?xml version="1.0" encoding="utf-8" standalone="no"?>
<!DOCTYPE svg PUBLIC "-//W3C//DTD SVG 1.1//EN"
  "http://www.w3.org/Graphics/SVG/1.1/DTD/svg11.dtd">
<svg xmlns:xlink="http://www.w3.org/1999/xlink" width="216pt" height="180pt" viewBox="0 0 216 180" xmlns="http://www.w3.org/2000/svg" version="1.1">
 <metadata>
  <rdf:RDF xmlns:dc="http://purl.org/dc/elements/1.1/" xmlns:cc="http://creativecommons.org/ns#" xmlns:rdf="http://www.w3.org/1999/02/22-rdf-syntax-ns#">
   <cc:Work>
    <dc:type rdf:resource="http://purl.org/dc/dcmitype/StillImage"/>
    <dc:date>2023-06-14T18:47:59.665668</dc:date>
    <dc:format>image/svg+xml</dc:format>
    <dc:creator>
     <cc:Agent>
      <dc:title>Matplotlib v3.7.0, https://matplotlib.org/</dc:title>
     </cc:Agent>
    </dc:creator>
   </cc:Work>
  </rdf:RDF>
 </metadata>
 <defs>
  <style type="text/css">*{stroke-linejoin: round; stroke-linecap: butt}</style>
 </defs>
 <g id="figure_1">
  <g id="patch_1">
   <path d="M 0 180 
L 216 180 
L 216 0 
L 0 0 
z
" style="fill: #ffffff"/>
  </g>
  <g id="patch_2">
   <path d="M -1 169.2 
L 174.6 169.2 
L 174.6 -1 
" style="fill: none"/>
  </g>
  <g id="pane3d_1">
   <g id="patch_3">
    <path d="M 11.519416 125.705413 
L 69.772457 76.876559 
L 68.962684 6.456623 
L 7.921935 51.001381 
" style="fill: none; opacity: 0.5; stroke: #f2f2f2; stroke-linejoin: miter"/>
   </g>
  </g>
  <g id="pane3d_2">
   <g id="patch_4">
    <path d="M 69.772457 76.876559 
L 163.247803 104.046152 
L 166.583609 31.200681 
L 68.962684 6.456623 
" style="fill: none; opacity: 0.5; stroke: #e6e6e6; stroke-linejoin: miter"/>
   </g>
  </g>
  <g id="pane3d_3">
   <g id="patch_5">
    <path d="M 11.519416 125.705413 
L 110.607849 158.067695 
L 163.247803 104.046152 
L 69.772457 76.876559 
" style="fill: none; opacity: 0.5; stroke: #ececec; stroke-linejoin: miter"/>
   </g>
  </g>
  <g id="axis3d_1">
   <g id="line2d_1">
    <path d="M 11.519416 125.705413 
L 110.607849 158.067695 
" style="fill: none; stroke: #ffffff; stroke-width: 0.8; stroke-linecap: round"/>
   </g>
   <g id="text_1">
    <!-- x -->
    <g style="fill: #262626" transform="translate(40.437569 179.640981) scale(0.1 -0.1)">
     <defs>
      <path id="DejaVuSans-78" d="M 3513 3500 
L 2247 1797 
L 3578 0 
L 2900 0 
L 1881 1375 
L 863 0 
L 184 0 
L 1544 1831 
L 300 3500 
L 978 3500 
L 1906 2253 
L 2834 3500 
L 3513 3500 
z
" transform="scale(0.015625)"/>
     </defs>
     <use xlink:href="#DejaVuSans-78"/>
    </g>
   </g>
   <g id="Line3DCollection_1">
    <path d="M 32.87982 132.681721 
L 89.992727 82.753793 
L 90.044796 11.800324 
" style="fill: none; stroke: #d3d3d3; stroke-width: 0.8"/>
    <path d="M 59.585325 141.403739 
L 115.218654 90.085974 
L 116.372914 18.473734 
" style="fill: none; stroke: #d3d3d3; stroke-width: 0.8"/>
    <path d="M 87.072652 150.3811 
L 141.120465 97.614608 
L 143.437679 25.333863 
" style="fill: none; stroke: #d3d3d3; stroke-width: 0.8"/>
   </g>
   <g id="xtick_1">
    <g id="line2d_2">
     <path d="M 88.783784 78.616216 
" clip-path="url(#p5861c4d599)" style="fill: none; stroke: #d3d3d3; stroke-width: 0.8; stroke-linecap: round"/>
    </g>
    <g id="line2d_3">
     <path d="M 33.377494 132.246656 
L 31.882318 133.553734 
" style="fill: none; stroke: #808080; stroke-width: 0.8; stroke-linecap: round"/>
    </g>
    <g id="text_2">
     <!-- −0.2 -->
     <g style="fill: #808080" transform="translate(13.218653 156.181488) scale(0.1 -0.1)">
      <defs>
       <path id="DejaVuSans-2212" d="M 678 2272 
L 4684 2272 
L 4684 1741 
L 678 1741 
L 678 2272 
z
" transform="scale(0.015625)"/>
       <path id="DejaVuSans-30" d="M 2034 4250 
Q 1547 4250 1301 3770 
Q 1056 3291 1056 2328 
Q 1056 1369 1301 889 
Q 1547 409 2034 409 
Q 2525 409 2770 889 
Q 3016 1369 3016 2328 
Q 3016 3291 2770 3770 
Q 2525 4250 2034 4250 
z
M 2034 4750 
Q 2819 4750 3233 4129 
Q 3647 3509 3647 2328 
Q 3647 1150 3233 529 
Q 2819 -91 2034 -91 
Q 1250 -91 836 529 
Q 422 1150 422 2328 
Q 422 3509 836 4129 
Q 1250 4750 2034 4750 
z
" transform="scale(0.015625)"/>
       <path id="DejaVuSans-2e" d="M 684 794 
L 1344 794 
L 1344 0 
L 684 0 
L 684 794 
z
" transform="scale(0.015625)"/>
       <path id="DejaVuSans-32" d="M 1228 531 
L 3431 531 
L 3431 0 
L 469 0 
L 469 531 
Q 828 903 1448 1529 
Q 2069 2156 2228 2338 
Q 2531 2678 2651 2914 
Q 2772 3150 2772 3378 
Q 2772 3750 2511 3984 
Q 2250 4219 1831 4219 
Q 1534 4219 1204 4116 
Q 875 4013 500 3803 
L 500 4441 
Q 881 4594 1212 4672 
Q 1544 4750 1819 4750 
Q 2544 4750 2975 4387 
Q 3406 4025 3406 3419 
Q 3406 3131 3298 2873 
Q 3191 2616 2906 2266 
Q 2828 2175 2409 1742 
Q 1991 1309 1228 531 
z
" transform="scale(0.015625)"/>
      </defs>
      <use xlink:href="#DejaVuSans-2212"/>
      <use xlink:href="#DejaVuSans-30" x="83.789062"/>
      <use xlink:href="#DejaVuSans-2e" x="147.412109"/>
      <use xlink:href="#DejaVuSans-32" x="179.199219"/>
     </g>
    </g>
   </g>
   <g id="xtick_2">
    <g id="line2d_4">
     <path d="M 88.783784 78.616216 
" clip-path="url(#p5861c4d599)" style="fill: none; stroke: #d3d3d3; stroke-width: 0.8; stroke-linecap: round"/>
    </g>
    <g id="line2d_5">
     <path d="M 60.070679 140.956035 
L 58.612487 142.301112 
" style="fill: none; stroke: #808080; stroke-width: 0.8; stroke-linecap: round"/>
    </g>
    <g id="text_3">
     <!-- 0.0 -->
     <g style="fill: #808080" transform="translate(44.158393 165.18436) scale(0.1 -0.1)">
      <use xlink:href="#DejaVuSans-30"/>
      <use xlink:href="#DejaVuSans-2e" x="63.623047"/>
      <use xlink:href="#DejaVuSans-30" x="95.410156"/>
     </g>
    </g>
   </g>
   <g id="xtick_3">
    <g id="line2d_6">
     <path d="M 88.783784 78.616216 
" clip-path="url(#p5861c4d599)" style="fill: none; stroke: #d3d3d3; stroke-width: 0.8; stroke-linecap: round"/>
    </g>
    <g id="line2d_7">
     <path d="M 87.544746 149.920198 
L 86.126362 151.304956 
" style="fill: none; stroke: #808080; stroke-width: 0.8; stroke-linecap: round"/>
    </g>
    <g id="text_4">
     <!-- 0.2 -->
     <g style="fill: #808080" transform="translate(71.695978 174.452335) scale(0.1 -0.1)">
      <use xlink:href="#DejaVuSans-30"/>
      <use xlink:href="#DejaVuSans-2e" x="63.623047"/>
      <use xlink:href="#DejaVuSans-32" x="95.410156"/>
     </g>
    </g>
   </g>
  </g>
  <g id="axis3d_2">
   <g id="line2d_8">
    <path d="M 163.247803 104.046152 
L 110.607849 158.067695 
" style="fill: none; stroke: #ffffff; stroke-width: 0.8; stroke-linecap: round"/>
   </g>
   <g id="text_5">
    <!-- y -->
    <g style="fill: #262626" transform="translate(162.133934 160.636398) scale(0.1 -0.1)">
     <defs>
      <path id="DejaVuSans-79" d="M 2059 -325 
Q 1816 -950 1584 -1140 
Q 1353 -1331 966 -1331 
L 506 -1331 
L 506 -850 
L 844 -850 
Q 1081 -850 1212 -737 
Q 1344 -625 1503 -206 
L 1606 56 
L 191 3500 
L 800 3500 
L 1894 763 
L 2988 3500 
L 3597 3500 
L 2059 -325 
z
" transform="scale(0.015625)"/>
     </defs>
     <use xlink:href="#DejaVuSans-79"/>
    </g>
   </g>
   <g id="Line3DCollection_2">
    <path d="M 22.672723 40.236929 
L 25.556045 113.939633 
L 123.334506 145.007014 
" style="fill: none; stroke: #d3d3d3; stroke-width: 0.8"/>
    <path d="M 39.718111 27.79798 
L 41.808266 100.316699 
L 138.036161 129.919499 
" style="fill: none; stroke: #d3d3d3; stroke-width: 0.8"/>
    <path d="M 55.955119 15.948952 
L 57.32181 87.312938 
L 152.03587 115.552354 
" style="fill: none; stroke: #d3d3d3; stroke-width: 0.8"/>
   </g>
   <g id="xtick_4">
    <g id="line2d_9">
     <path d="M 88.783784 78.616216 
" clip-path="url(#p5861c4d599)" style="fill: none; stroke: #d3d3d3; stroke-width: 0.8; stroke-linecap: round"/>
    </g>
    <g id="line2d_10">
     <path d="M 122.511145 144.745406 
L 124.983325 145.530897 
" style="fill: none; stroke: #808080; stroke-width: 0.8; stroke-linecap: round"/>
    </g>
    <g id="text_6">
     <!-- −0.2 -->
     <g style="fill: #808080" transform="translate(123.893756 165.824459) scale(0.1 -0.1)">
      <use xlink:href="#DejaVuSans-2212"/>
      <use xlink:href="#DejaVuSans-30" x="83.789062"/>
      <use xlink:href="#DejaVuSans-2e" x="147.412109"/>
      <use xlink:href="#DejaVuSans-32" x="179.199219"/>
     </g>
    </g>
   </g>
   <g id="xtick_5">
    <g id="line2d_11">
     <path d="M 88.783784 78.616216 
" clip-path="url(#p5861c4d599)" style="fill: none; stroke: #d3d3d3; stroke-width: 0.8; stroke-linecap: round"/>
    </g>
    <g id="line2d_12">
     <path d="M 137.226847 129.670528 
L 139.656801 130.41806 
" style="fill: none; stroke: #808080; stroke-width: 0.8; stroke-linecap: round"/>
    </g>
    <g id="text_7">
     <!-- 0.0 -->
     <g style="fill: #808080" transform="translate(142.487132 150.400267) scale(0.1 -0.1)">
      <use xlink:href="#DejaVuSans-30"/>
      <use xlink:href="#DejaVuSans-2e" x="63.623047"/>
      <use xlink:href="#DejaVuSans-30" x="95.410156"/>
     </g>
    </g>
   </g>
   <g id="xtick_6">
    <g id="line2d_13">
     <path d="M 88.783784 78.616216 
" clip-path="url(#p5861c4d599)" style="fill: none; stroke: #d3d3d3; stroke-width: 0.8; stroke-linecap: round"/>
    </g>
    <g id="line2d_14">
     <path d="M 151.240215 115.315126 
L 153.62911 116.027385 
" style="fill: none; stroke: #808080; stroke-width: 0.8; stroke-linecap: round"/>
    </g>
    <g id="text_8">
     <!-- 0.2 -->
     <g style="fill: #808080" transform="translate(156.20237 135.713143) scale(0.1 -0.1)">
      <use xlink:href="#DejaVuSans-30"/>
      <use xlink:href="#DejaVuSans-2e" x="63.623047"/>
      <use xlink:href="#DejaVuSans-32" x="95.410156"/>
     </g>
    </g>
   </g>
  </g>
  <g id="axis3d_3">
   <g id="line2d_15">
    <path d="M 163.247803 104.046152 
L 166.583609 31.200681 
" style="fill: none; stroke: #ffffff; stroke-width: 0.8; stroke-linecap: round"/>
   </g>
   <g id="text_9">
    <!-- z -->
    <g style="fill: #262626" transform="translate(202.494937 65.789607) scale(0.1 -0.1)">
     <defs>
      <path id="DejaVuSans-7a" d="M 353 3500 
L 3084 3500 
L 3084 2975 
L 922 459 
L 3084 459 
L 3084 0 
L 275 0 
L 275 525 
L 2438 3041 
L 353 3041 
L 353 3500 
z
" transform="scale(0.015625)"/>
     </defs>
     <use xlink:href="#DejaVuSans-7a"/>
    </g>
   </g>
   <g id="Line3DCollection_3">
    <path d="M 164.069017 86.112937 
L 69.572789 59.512863 
L 10.634908 107.338019 
" style="fill: none; stroke: #d3d3d3; stroke-width: 0.8"/>
    <path d="M 164.842112 69.230517 
L 69.385009 43.183085 
L 9.801556 90.032928 
" style="fill: none; stroke: #d3d3d3; stroke-width: 0.8"/>
    <path d="M 165.63125 51.997773 
L 69.193523 26.530923 
L 8.95024 72.354789 
" style="fill: none; stroke: #d3d3d3; stroke-width: 0.8"/>
    <path d="M 166.436934 34.403686 
L 68.998218 9.546734 
L 8.080371 54.291406 
" style="fill: none; stroke: #d3d3d3; stroke-width: 0.8"/>
   </g>
   <g id="xtick_7">
    <g id="line2d_16">
     <path d="M 88.783784 78.616216 
" style="fill: none; stroke: #d3d3d3; stroke-width: 0.8; stroke-linecap: round"/>
    </g>
    <g id="line2d_17">
     <path d="M 163.275525 85.889573 
L 165.657911 86.5602 
" style="fill: none; stroke: #808080; stroke-width: 0.8; stroke-linecap: round"/>
    </g>
    <g id="text_10">
     <!-- 0.025 -->
     <g style="fill: #808080" transform="translate(168.17209 91.163667) scale(0.1 -0.1)">
      <defs>
       <path id="DejaVuSans-35" d="M 691 4666 
L 3169 4666 
L 3169 4134 
L 1269 4134 
L 1269 2991 
Q 1406 3038 1543 3061 
Q 1681 3084 1819 3084 
Q 2600 3084 3056 2656 
Q 3513 2228 3513 1497 
Q 3513 744 3044 326 
Q 2575 -91 1722 -91 
Q 1428 -91 1123 -41 
Q 819 9 494 109 
L 494 744 
Q 775 591 1075 516 
Q 1375 441 1709 441 
Q 2250 441 2565 725 
Q 2881 1009 2881 1497 
Q 2881 1984 2565 2268 
Q 2250 2553 1709 2553 
Q 1456 2553 1204 2497 
Q 953 2441 691 2322 
L 691 4666 
z
" transform="scale(0.015625)"/>
      </defs>
      <use xlink:href="#DejaVuSans-30"/>
      <use xlink:href="#DejaVuSans-2e" x="63.623047"/>
      <use xlink:href="#DejaVuSans-30" x="95.410156"/>
      <use xlink:href="#DejaVuSans-32" x="159.033203"/>
      <use xlink:href="#DejaVuSans-35" x="222.65625"/>
     </g>
    </g>
   </g>
   <g id="xtick_8">
    <g id="line2d_18">
     <path d="M 88.783784 78.616216 
" style="fill: none; stroke: #d3d3d3; stroke-width: 0.8; stroke-linecap: round"/>
    </g>
    <g id="line2d_19">
     <path d="M 164.040162 69.011689 
L 166.447961 69.668706 
" style="fill: none; stroke: #808080; stroke-width: 0.8; stroke-linecap: round"/>
    </g>
    <g id="text_11">
     <!-- 0.050 -->
     <g style="fill: #808080" transform="translate(169.12987 74.333074) scale(0.1 -0.1)">
      <use xlink:href="#DejaVuSans-30"/>
      <use xlink:href="#DejaVuSans-2e" x="63.623047"/>
      <use xlink:href="#DejaVuSans-30" x="95.410156"/>
      <use xlink:href="#DejaVuSans-35" x="159.033203"/>
      <use xlink:href="#DejaVuSans-30" x="222.65625"/>
     </g>
    </g>
   </g>
   <g id="xtick_9">
    <g id="line2d_20">
     <path d="M 88.783784 78.616216 
" style="fill: none; stroke: #d3d3d3; stroke-width: 0.8; stroke-linecap: round"/>
    </g>
    <g id="line2d_21">
     <path d="M 164.82066 51.783716 
L 167.254419 52.426413 
" style="fill: none; stroke: #808080; stroke-width: 0.8; stroke-linecap: round"/>
    </g>
    <g id="text_12">
     <!-- 0.075 -->
     <g style="fill: #808080" transform="translate(170.107432 57.15486) scale(0.1 -0.1)">
      <defs>
       <path id="DejaVuSans-37" d="M 525 4666 
L 3525 4666 
L 3525 4397 
L 1831 0 
L 1172 0 
L 2766 4134 
L 525 4134 
L 525 4666 
z
" transform="scale(0.015625)"/>
      </defs>
      <use xlink:href="#DejaVuSans-30"/>
      <use xlink:href="#DejaVuSans-2e" x="63.623047"/>
      <use xlink:href="#DejaVuSans-30" x="95.410156"/>
      <use xlink:href="#DejaVuSans-37" x="159.033203"/>
      <use xlink:href="#DejaVuSans-35" x="222.65625"/>
     </g>
    </g>
   </g>
   <g id="xtick_10">
    <g id="line2d_22">
     <path d="M 88.783784 78.616216 
" style="fill: none; stroke: #d3d3d3; stroke-width: 0.8; stroke-linecap: round"/>
    </g>
    <g id="line2d_23">
     <path d="M 165.617517 34.19465 
L 168.077802 34.822277 
" style="fill: none; stroke: #808080; stroke-width: 0.8; stroke-linecap: round"/>
    </g>
    <g id="text_13">
     <!-- 0.100 -->
     <g style="fill: #808080" transform="translate(171.105396 39.618142) scale(0.1 -0.1)">
      <defs>
       <path id="DejaVuSans-31" d="M 794 531 
L 1825 531 
L 1825 4091 
L 703 3866 
L 703 4441 
L 1819 4666 
L 2450 4666 
L 2450 531 
L 3481 531 
L 3481 0 
L 794 0 
L 794 531 
z
" transform="scale(0.015625)"/>
      </defs>
      <use xlink:href="#DejaVuSans-30"/>
      <use xlink:href="#DejaVuSans-2e" x="63.623047"/>
      <use xlink:href="#DejaVuSans-31" x="95.410156"/>
      <use xlink:href="#DejaVuSans-30" x="159.033203"/>
      <use xlink:href="#DejaVuSans-30" x="222.65625"/>
     </g>
    </g>
   </g>
  </g>
  <g id="axes_1">
   <g id="line2d_24">
    <path d="M 88.668561 44.209272 
L 88.815875 56.193889 
L 88.758727 65.245449 
L 88.449927 74.33407 
L 87.978959 81.189998 
L 86.660985 97.019982 
L 86.805953 99.757132 
L 87.085746 101.516903 
L 87.653577 103.497616 
L 88.372162 105.082679 
L 89.321225 106.55001 
L 90.585289 108.294298 
L 90.438958 108.441154 
L 89.650724 108.695081 
L 88.208565 109.204437 
L 87.176105 109.829975 
L 86.546752 110.480651 
L 86.262171 111.025701 
L 86.173285 111.586664 
L 86.294123 112.129998 
L 86.6206 112.622863 
L 87.130274 113.036525 
L 88.024536 113.427438 
L 89.042262 113.607162 
L 90.027965 113.568509 
L 90.825188 113.327595 
L 91.218347 113.036726 
L 91.390708 112.678436 
L 91.321393 112.284693 
L 91.010265 111.893323 
L 90.478295 111.545483 
L 89.498256 111.218856 
L 88.340372 111.119803 
L 87.177799 111.28937 
L 86.411945 111.588834 
L 85.815511 112.011064 
L 85.445847 112.518383 
L 85.342209 113.0642 
L 85.521767 113.599063 
L 85.977381 114.076565 
L 86.677371 114.457951 
L 87.567383 114.714727 
L 88.921366 114.834282 
L 90.2764 114.687726 
L 91.164081 114.409945 
L 91.849506 114.004107 
L 92.266772 113.493972 
L 92.372357 112.913152 
L 92.149266 112.3054 
L 91.608796 111.723082 
L 90.789942 111.223156 
L 89.756609 110.860762 
L 88.592853 110.681373 
L 87.396378 110.713135 
L 86.270651 110.96119 
L 85.31615 111.405458 
L 84.6215 112.002624 
L 84.25535 112.692093 
L 84.215775 113.16894 
L 84.346462 113.635468 
L 84.645827 114.072482 
L 85.391488 114.636554 
L 86.44236 115.052688 
L 87.715037 115.292609 
L 89.103268 115.342437 
L 90.486708 115.199615 
L 91.741648 114.870272 
L 92.752646 114.368452 
L 93.242592 113.949193 
L 93.559125 113.473326 
L 93.687138 112.953603 
L 93.618727 112.40591 
L 93.353499 111.84925 
L 92.898598 111.305344 
L 91.89411 110.565284 
L 90.573901 109.988118 
L 89.043781 109.645953 
L 87.430625 109.58943 
L 85.872468 109.837312 
L 84.507013 110.371045 
L 83.766491 110.859947 
L 83.199409 111.428484 
L 82.831311 112.048952 
L 82.680556 112.691627 
L 82.757489 113.326839 
L 83.0639 113.926923 
L 83.592768 114.467794 
L 84.328291 114.929992 
L 85.24622 115.299112 
L 86.893101 115.658609 
L 88.741027 115.772955 
L 90.630755 115.641111 
L 92.393517 115.269988 
L 93.867252 114.671754 
L 94.619054 114.155971 
L 95.147117 113.556567 
L 95.42744 112.886145 
L 95.445592 112.161969 
L 95.197179 111.406516 
L 94.687921 110.647428 
L 93.93339 109.916712 
L 92.958482 109.249162 
L 91.796651 108.680111 
L 90.488909 108.242735 
L 89.082581 107.965229 
L 87.629793 107.86817 
L 86.185677 107.962396 
L 84.806345 108.247645 
L 83.546693 108.712109 
L 82.458161 109.332993 
L 81.586573 110.078064 
L 80.970216 110.90807 
L 80.638223 111.779817 
L 80.609355 112.649569 
L 80.891173 113.476383 
L 81.479568 114.224918 
L 82.358647 114.867376 
L 83.500924 115.384315 
L 84.867872 115.764328 
L 86.410876 116.002742 
L 88.928354 116.096027 
L 91.492894 115.881938 
L 93.114022 115.574546 
L 94.585558 115.138842 
L 95.845557 114.577496 
L 96.84025 113.894346 
L 97.526464 113.096375 
L 97.873345 112.195957 
L 97.863358 111.212934 
L 97.492604 110.176034 
L 96.770632 109.123172 
L 95.719867 108.100346 
L 94.37483 107.159078 
L 92.781171 106.352631 
L 90.994502 105.73145 
L 89.078923 105.338431 
L 87.105136 105.204625 
L 85.148084 105.345861 
L 83.284143 105.760675 
L 81.588 106.429734 
L 80.129424 107.316852 
L 78.97021 108.371587 
L 78.161511 109.533277 
L 77.741756 110.736197 
L 77.735192 111.915304 
L 78.151004 113.011831 
L 78.982878 113.977884 
L 80.208888 114.779318 
L 81.791626 115.396426 
L 83.678656 115.822478 
L 85.803454 116.060537 
L 88.08709 116.119353 
L 90.440838 116.009214 
L 92.769773 115.738556 
L 94.977226 115.311905 
L 96.969725 114.729436 
L 98.661931 113.988215 
L 99.981018 113.084986 
L 100.870049 112.020122 
L 101.140384 111.429309 
L 101.290058 110.80219 
L 101.317138 110.141829 
L 101.220854 109.452291 
L 100.660761 108.007211 
L 99.625713 106.520448 
L 98.148098 105.060514 
L 96.27566 103.706415 
L 94.070486 102.540878 
L 91.607935 101.642336 
L 88.975155 101.076896 
L 86.268875 100.891386 
L 83.59225 101.108245 
L 81.0508 101.722625 
L 78.747696 102.701834 
L 76.778856 103.987157 
L 75.228396 105.49808 
L 74.632179 106.308601 
L 74.164908 107.138899 
L 73.832308 107.976068 
L 73.638872 108.807415 
L 73.587845 109.620789 
L 73.681207 110.404877 
L 73.919674 111.149486 
L 74.302699 111.845772 
L 74.828466 112.486408 
L 75.493892 113.065697 
L 76.294618 113.579598 
L 77.225003 114.025688 
L 79.445694 114.712124 
L 82.084873 115.132384 
L 85.051039 115.307505 
L 88.233869 115.263657 
L 91.5076 115.024303 
L 94.736463 114.604431 
L 97.781853 114.007582 
L 100.510514 113.225847 
L 102.802632 112.242697 
L 103.752952 111.669354 
L 104.558702 111.038395 
L 105.211391 110.348098 
L 105.70425 109.597569 
L 106.03223 108.787034 
L 106.191975 107.918116 
L 106.181769 106.994075 
L 106.001453 106.020003 
L 105.652343 105.00294 
L 105.137145 103.95192 
L 104.459871 102.877912 
L 103.625777 101.793677 
L 102.64131 100.713517 
L 101.514082 99.652952 
L 100.252854 98.628319 
L 98.867531 97.656334 
L 97.369169 96.753612 
L 95.769971 95.936204 
L 94.083278 95.219135 
L 92.323538 94.615995 
L 90.50625 94.138575 
L 88.647875 93.796566 
L 86.765715 93.597319 
L 84.877756 93.545674 
L 83.002477 93.643843 
L 81.158633 93.891351 
L 79.365015 94.285021 
L 77.640196 94.819003 
L 76.00227 95.484845 
L 74.468603 96.271611 
L 73.055592 97.166038 
L 71.778451 98.152757 
L 70.651026 99.214572 
L 69.685653 100.332807 
L 68.893047 101.487728 
L 68.28224 102.659031 
L 67.860551 103.826388 
L 67.633592 104.970028 
L 67.60529 106.071332 
L 67.77793 107.113403 
L 68.152195 108.081573 
L 68.727194 108.963821 
L 69.500473 109.751051 
L 70.468002 110.437235 
L 71.624134 111.019383 
L 72.961534 111.49736 
L 74.471095 111.873562 
L 76.14185 112.152472 
L 79.913289 112.443611 
L 84.148471 112.427821 
L 88.688845 112.161078 
L 93.349275 111.684823 
L 97.927168 111.018069 
L 102.215396 110.155152 
L 106.017119 109.06808 
L 107.680403 108.427048 
L 109.160038 107.71257 
L 110.440161 106.918126 
L 111.507578 106.037573 
L 112.351832 105.065655 
L 112.96518 103.998544 
L 113.342489 102.834418 
L 113.481071 101.574009 
L 113.380479 100.221112 
L 113.042269 98.78297 
L 112.469784 97.270529 
L 111.667945 95.69849 
L 110.643097 94.085155 
L 109.402912 92.452058 
L 107.95635 90.823383 
L 106.313685 89.225218 
L 104.486578 87.684692 
L 102.488187 86.229039 
L 100.333284 84.884678 
L 98.038372 83.676347 
L 95.621759 82.626349 
L 93.103592 81.753941 
L 90.505816 81.074892 
L 87.852056 80.60119 
L 85.16743 80.340901 
L 82.478265 80.298144 
L 79.811759 80.473144 
L 77.195577 80.86234 
L 74.657411 81.458508 
L 72.224511 82.250889 
L 69.923233 83.225305 
L 67.778595 84.364278 
L 65.813888 85.64717 
L 64.050343 87.050376 
L 62.506878 88.547614 
L 61.199932 90.110346 
L 60.143386 91.708358 
L 59.34857 93.31053 
L 58.824351 94.885757 
L 58.577272 96.404016 
L 58.611728 97.837486 
L 58.930142 99.16165 
L 59.533111 100.356273 
L 60.419502 101.406157 
L 61.586456 102.301594 
L 63.029303 103.038464 
L 64.741381 103.617956 
L 66.713771 104.045943 
L 68.934976 104.332067 
L 71.39058 104.488633 
L 76.9309 104.468396 
L 83.150981 104.092314 
L 89.810315 103.442375 
L 96.619721 102.558843 
L 103.259786 101.437986 
L 109.406978 100.039606 
L 112.200638 99.216624 
L 114.762418 98.298517 
L 117.063018 97.275181 
L 119.077453 96.136477 
L 120.785329 94.872716 
L 122.170943 93.475252 
L 123.223188 91.937213 
L 123.935281 90.254345 
L 124.304371 88.425944 
L 124.331024 86.455796 
L 124.018677 84.353021 
L 123.373084 82.132695 
L 122.401825 79.816139 
L 121.113916 77.430789 
L 119.519565 75.009579 
L 117.630086 72.589871 
L 115.457978 70.211987 
L 113.017135 67.917468 
L 110.323181 65.747223 
L 107.393841 63.739728 
L 104.249339 61.929444 
L 100.912729 60.345569 
L 97.410141 59.011213 
L 93.77089 57.943019 
L 90.027418 57.151195 
L 86.215063 56.639908 
L 82.371661 56.407922 
L 78.536977 56.449383 
L 74.752014 56.754634 
L 71.058216 57.310957 
L 67.496632 58.103175 
L 64.107068 59.114052 
L 60.927292 60.324489 
L 57.992328 61.713515 
L 55.333878 63.258135 
L 52.979902 64.933097 
L 50.954374 66.710701 
L 49.277204 68.560737 
L 47.964341 70.450685 
L 47.028004 72.346239 
L 46.477042 74.212213 
L 46.317345 76.013802 
L 46.552277 77.718096 
L 47.183048 79.295701 
L 48.208994 80.722266 
L 49.627675 81.979698 
L 51.434793 83.056888 
L 53.62389 83.949811 
L 56.185851 84.660978 
L 59.108255 85.198268 
L 62.374642 85.573301 
L 65.963769 85.799535 
L 69.848966 85.890332 
L 73.997656 85.857202 
L 82.924691 85.448196 
L 92.365798 84.588178 
L 97.139281 83.975971 
L 101.867126 83.229158 
L 106.487216 82.335984 
L 110.938245 81.284726 
L 115.161362 80.064954 
L 119.101712 78.66865 
L 122.709782 77.091116 
L 125.942498 75.33162 
L 128.764008 73.393757 
L 131.14614 71.285531 
L 133.068547 69.019169 
L 134.518525 66.610731 
L 135.490566 64.07958 
L 135.985669 61.44783 
L 136.010463 58.739844 
L 135.576202 55.981886 
L 134.697696 53.201923 
L 133.392278 50.429568 
L 131.678867 47.696034 
L 129.57724 45.03396 
L 127.10757 42.476968 
L 124.290271 40.058866 
L 121.146159 37.812471 
L 117.696903 35.768169 
L 113.96566 33.952369 
L 109.977836 32.386088 
L 105.761819 31.08385 
L 101.349612 30.053102 
L 96.777251 29.29419 
L 92.084964 28.800925 
L 87.31702 28.561643 
L 82.521277 28.560633 
L 77.748438 28.779786 
L 73.05108 29.200294 
L 68.48249 29.804262 
L 64.095425 30.576102 
L 59.940838 31.503601 
L 56.066678 32.578542 
L 52.516823 33.796804 
L 49.330193 35.157848 
L 46.540095 36.66355 
L 44.173824 38.316422 
L 42.252515 40.117352 
L 40.79127 42.063125 
L 39.799522 44.144114 
L 39.281615 46.342549 
L 39.237545 48.631792 
L 39.663773 50.97685 
L 40.55403 53.336185 
L 41.899994 55.664566 
L 43.691764 57.916533 
L 45.918037 60.049884 
L 48.565962 62.028594 
L 51.620672 63.82473 
L 55.064539 65.419101 
L 58.876246 66.800678 
L 63.029798 67.964993 
L 67.493596 68.911912 
L 72.22972 69.643228 
L 77.193518 70.160488 
L 82.333607 70.463378 
L 87.592306 70.548857 
L 92.906531 70.411074 
L 98.209098 70.042034 
L 103.430357 69.432839 
L 108.500071 68.57533 
L 113.349396 67.463918 
L 117.912847 66.097423 
L 122.13013 64.480697 
L 125.947729 62.625876 
L 129.320192 60.553064 
L 132.211056 58.29029 
L 134.593389 55.872637 
L 136.449939 53.340525 
L 137.772901 50.737281 
L 138.563285 48.106283 
L 138.829947 45.488135 
L 138.588296 42.918359 
L 137.858803 40.426044 
L 136.665408 38.033678 
L 135.033984 35.758109 
L 132.991018 33.61229 
L 130.562625 31.607305 
L 127.774003 29.754111 
L 124.649349 28.064586 
L 121.21221 26.551687 
L 117.486182 25.228771 
L 113.495843 24.108332 
L 109.267756 23.200508 
L 104.831419 22.511724 
L 100.220019 22.043758 
L 95.470922 21.793388 
L 90.625813 21.75268 
L 85.730493 21.909832 
L 80.834326 22.250466 
L 75.989383 22.759173 
L 71.249343 23.421162 
L 66.66823 24.223838 
L 62.299075 25.158147 
L 58.192577 26.219556 
L 54.395869 27.408508 
L 50.95142 28.730228 
L 47.89617 30.193757 
L 45.260897 31.810183 
L 43.069878 33.59014 
L 41.34084 35.540798 
L 40.085203 37.662745 
L 39.308606 39.947262 
L 39.011658 42.374563 
L 39.190835 44.913399 
L 39.839434 47.522274 
L 40.948445 50.152149 
L 42.507247 52.750236 
L 44.504022 55.264257 
L 46.925828 57.646465 
L 49.758325 59.856791 
L 52.985168 61.864699 
L 56.587153 63.649589 
L 60.541222 65.199871 
L 64.819449 66.511027 
L 69.388159 67.583134 
L 74.20729 68.418324 
L 79.230109 69.018589 
L 84.403363 69.384239 
L 89.667867 69.513149 
L 94.959543 69.400814 
L 100.210842 69.041116 
L 105.352466 68.427625 
L 110.315277 67.555247 
L 115.032269 66.421998 
L 119.440473 65.030719 
L 123.482694 63.390513 
L 127.108969 61.517749 
L 130.277712 59.436438 
L 132.95648 57.17785 
L 135.122357 54.779318 
L 136.761951 52.28225 
L 137.870996 49.729569 
L 138.453591 47.162927 
L 138.521102 44.620161 
L 138.090804 42.133445 
L 137.18435 39.728508 
L 135.826217 37.424995 
L 134.042271 35.237806 
L 131.858588 33.178999 
L 129.300656 31.259703 
L 126.393018 29.491573 
L 123.159367 27.887435 
L 119.623036 26.46106 
L 115.807795 25.226191 
L 111.738802 24.195136 
L 107.443594 23.377287 
L 102.952954 22.777901 
L 98.301558 22.397371 
L 93.528331 22.231126 
L 88.676446 22.270124 
L 83.792985 22.501875 
L 78.928265 22.911828 
L 74.134885 23.484954 
L 69.466566 24.207357 
L 64.976855 25.067759 
L 60.71779 26.058692 
L 56.738606 27.177279 
L 53.084554 28.425445 
L 49.795903 29.809435 
L 46.907171 31.338574 
L 44.446608 33.023242 
L 42.435978 34.872215 
L 40.890619 36.889652 
L 39.819797 39.072157 
L 39.227314 41.406451 
L 39.112313 43.868154 
L 39.470188 46.422022 
L 40.293503 49.023751 
L 41.572795 51.623097 
L 43.297153 54.167854 
L 45.454503 56.608007 
L 48.031543 58.899395 
L 51.013331 61.006323 
L 54.382585 62.902817 
L 58.118761 64.572462 
L 62.197044 66.007031 
L 66.587376 67.204306 
L 71.25366 68.165539 
L 76.153258 68.893031 
L 81.236871 69.388192 
L 86.448857 69.650318 
L 91.728005 69.676171 
L 97.008726 69.460338 
L 102.222601 68.996234 
L 107.300195 68.277562 
L 112.172993 67.300033 
L 116.775366 66.06314 
L 121.046416 64.571777 
L 124.931612 62.837537 
L 128.384134 60.879483 
L 131.365867 58.724257 
L 133.84802 56.405389 
L 135.811362 53.9618 
L 137.246062 51.435576 
L 138.15115 48.869298 
L 138.533625 46.303302 
L 138.407245 43.773371 
L 137.791097 41.309266 
L 136.708045 38.934387 
L 135.183205 36.66653 
L 133.242599 34.51948 
L 130.91211 32.504958 
L 128.216852 30.634391 
L 125.18099 28.920056 
L 121.827993 27.375379 
L 118.181258 26.014385 
L 114.264977 24.850516 
L 110.105125 23.895159 
L 105.730412 23.156234 
L 101.173078 22.637149 
L 96.469432 22.336317 
L 91.660076 22.247295 
L 86.789767 22.359504 
L 81.90695 22.659416 
L 77.062964 23.132039 
L 72.311004 23.762536 
L 67.704892 24.537804 
L 63.297765 25.447865 
L 59.140735 26.486919 
L 55.281639 27.653917 
L 51.763918 28.952522 
L 48.625705 30.39034 
L 45.899145 31.977365 
L 43.609998 33.723696 
L 41.777523 35.636684 
L 40.414657 37.7179 
L 39.52847 39.960357 
L 39.120859 42.346562 
L 39.189404 44.847827 
L 39.728298 47.425116 
L 40.729234 50.031398 
L 42.18213 52.615172 
L 44.075608 55.124596 
L 46.397144 57.511524 
L 49.132864 59.734823 
L 52.267019 61.762484 
L 55.781178 63.572314 
L 59.653265 65.151278 
L 63.856543 66.493756 
L 68.358695 67.599173 
L 73.121131 68.469447 
L 78.098622 69.106726 
L 83.239347 69.511695 
L 88.485385 69.682667 
L 93.77366 69.615472 
L 99.037279 69.304087 
L 104.207196 68.741838 
L 109.214086 67.922988 
L 113.990312 66.844501 
L 118.471857 65.507779 
L 122.600099 63.920185 
L 126.32334 62.096152 
L 129.598026 60.057718 
L 132.389592 57.834334 
L 134.67294 55.461862 
L 136.432514 52.980767 
L 137.662 50.433683 
L 138.363641 47.862656 
L 138.547215 45.306512 
L 138.228729 42.798828 
L 137.428926 40.366883 
L 136.171726 38.031756 
L 134.482747 35.809456 
L 132.388068 33.712717 
L 129.913331 31.752941 
L 127.083284 29.94177 
L 123.921772 28.291919 
L 120.452149 26.817134 
L 116.698006 25.531367 
L 112.684108 24.447432 
L 108.437381 23.575521 
L 103.987818 22.921899 
L 99.369185 22.488063 
L 94.619445 22.270496 
L 89.780842 22.261039 
L 84.899636 22.447813 
L 80.025501 22.816536 
L 75.210629 23.352086 
L 70.508613 24.040118 
L 65.97317 24.868593 
L 61.656809 25.829051 
L 57.60952 26.917499 
L 53.877563 28.134761 
L 50.502421 29.486167 
L 47.519976 30.980481 
L 44.959937 32.628056 
L 42.845543 34.438292 
L 41.193569 36.416671 
L 40.014614 38.561753 
L 39.313649 40.862662 
L 39.090793 43.297574 
L 39.342202 45.833609 
L 40.061 48.42828 
L 41.238116 51.032353 
L 42.862928 53.593687 
L 44.923612 56.061411 
L 47.407165 58.389748 
L 50.299066 60.540914 
L 53.582633 62.486687 
L 57.238147 64.208559 
L 61.241845 65.696611 
L 65.564931 66.947475 
L 70.172729 67.961836 
L 75.024102 68.741944 
L 80.071241 69.289541 
L 85.259881 69.604461 
L 90.529975 69.684027 
L 95.81679 69.523245 
L 101.052389 69.115674 
L 106.167389 68.454802 
L 106.167389 68.454802 
" clip-path="url(#p5861c4d599)" style="fill: none; stroke: #1f77b4; stroke-width: 1.5; stroke-linecap: round"/>
   </g>
   <g id="line2d_25">
    <path d="M 88.668561 44.209272 
L 88.631564 98.289455 
L 88.4219 109.17133 
L 88.396632 112.633463 
L 88.604012 113.136354 
L 88.808844 113.218485 
L 88.437366 113.107583 
L 88.179252 113.250598 
L 88.226211 113.408624 
L 88.533667 113.511797 
L 88.940716 113.422673 
L 89.049898 113.222643 
L 88.88326 113.04559 
L 88.457296 112.960325 
L 88.013375 113.070911 
L 87.84155 113.299719 
L 87.957029 113.51803 
L 88.306533 113.672499 
L 88.871121 113.684954 
L 89.352324 113.487311 
L 89.499906 113.199799 
L 89.363311 112.946142 
L 88.999005 112.748024 
L 88.364563 112.661666 
L 87.715505 112.786725 
L 87.338209 113.039524 
L 87.229083 113.3037 
L 87.328744 113.580373 
L 87.638313 113.824038 
L 88.265822 114.015985 
L 89.031327 114.024221 
L 89.74955 113.825815 
L 90.159867 113.535792 
L 90.335251 113.168784 
L 90.227491 112.778473 
L 89.831457 112.426572 
L 89.189199 112.173265 
L 88.38665 112.067224 
L 87.543062 112.136782 
L 86.794319 112.383667 
L 86.272224 112.780463 
L 86.094605 113.144425 
L 86.133426 113.53124 
L 86.39888 113.905523 
L 86.880641 114.230678 
L 87.802508 114.529024 
L 88.924637 114.614712 
L 90.076138 114.453082 
L 91.066993 114.048028 
L 91.596107 113.610026 
L 91.872936 113.092401 
L 91.856845 112.537193 
L 91.532117 111.992206 
L 90.910666 111.506878 
L 90.032343 111.127842 
L 88.962781 110.894562 
L 87.788886 110.835395 
L 86.612288 110.964421 
L 85.541157 111.279316 
L 84.680942 111.760502 
L 84.124688 112.371718 
L 83.959074 112.826828 
L 83.974858 113.299392 
L 84.179211 113.769872 
L 84.571826 114.21789 
L 85.14455 114.623038 
L 86.304137 115.108005 
L 87.745516 115.39491 
L 89.350601 115.440668 
L 90.978137 115.222296 
L 92.476098 114.740434 
L 93.328816 114.284424 
L 94.01745 113.735727 
L 94.507319 113.112198 
L 94.770809 112.43537 
L 94.78872 111.729645 
L 94.551293 111.021372 
L 94.058858 110.33781 
L 93.322085 109.706061 
L 92.361834 109.151984 
L 91.208623 108.699141 
L 89.90172 108.367823 
L 88.487915 108.174159 
L 87.019986 108.129361 
L 85.554913 108.23912 
L 84.151884 108.503161 
L 82.870135 108.915003 
L 81.766681 109.461908 
L 80.893997 110.125069 
L 80.29772 110.880021 
L 80.014451 111.697307 
L 80.069752 112.543378 
L 80.47645 113.381746 
L 81.233338 114.174332 
L 82.324401 114.88301 
L 83.718656 115.471254 
L 85.370676 115.905838 
L 87.221851 116.158502 
L 89.20236 116.207465 
L 91.233821 116.038722 
L 93.232496 115.647004 
L 95.112896 115.036353 
L 96.791596 114.220244 
L 98.191053 113.221256 
L 99.243197 112.070291 
L 99.892625 110.805396 
L 100.053126 110.143699 
L 100.09921 109.470246 
L 100.028566 108.791086 
L 99.840039 108.112393 
L 99.533649 107.440404 
L 98.57327 106.141415 
L 97.171088 104.942896 
L 95.368879 103.890733 
L 93.225246 103.02614 
L 90.81377 102.384046 
L 88.220685 101.99168 
L 85.542134 101.867388 
L 82.881081 102.019689 
L 80.343921 102.446592 
L 78.036824 103.135197 
L 76.061876 104.061609 
L 74.513062 105.191198 
L 73.924608 105.818579 
L 73.472193 106.479252 
L 73.16348 107.166231 
L 73.004881 107.872058 
L 73.001445 108.588868 
L 73.156757 109.30845 
L 73.472846 110.022326 
L 73.950111 110.721832 
L 74.587254 111.398201 
L 75.381237 112.042666 
L 76.327253 112.646547 
L 77.418724 113.201361 
L 80.002965 114.131462 
L 83.047093 114.772969 
L 86.439474 115.075614 
L 90.047762 115.001827 
L 93.724402 114.529199 
L 97.313265 113.65219 
L 99.025463 113.06515 
L 100.657059 112.382962 
L 102.189467 111.609886 
L 103.604972 110.751215 
L 104.886948 109.813215 
L 106.020059 108.80306 
L 106.990443 107.728745 
L 107.785869 106.598999 
L 108.395876 105.42318 
L 108.811891 104.211175 
L 109.027313 102.973287 
L 109.037579 101.720121 
L 108.840206 100.462473 
L 108.434799 99.211217 
L 107.823053 97.977193 
L 107.00872 96.771099 
L 105.997562 95.603391 
L 104.797291 94.484186 
L 103.417485 93.423166 
L 101.869499 92.429497 
L 100.166358 91.511746 
L 98.322647 90.677811 
L 96.354385 89.934855 
L 94.278898 89.289241 
L 92.114684 88.746484 
L 89.881271 88.311197 
L 87.599071 87.987049 
L 85.289232 87.776728 
L 82.973478 87.681905 
L 80.673955 87.703208 
L 78.413057 87.840197 
L 76.213265 88.091345 
L 74.09696 88.454026 
L 72.086247 88.924506 
L 70.202757 89.497945 
L 68.467457 90.168399 
L 66.900444 90.928839 
L 65.520734 91.77117 
L 64.346049 92.686269 
L 63.392601 93.664025 
L 62.674872 94.6934 
L 62.205396 95.762495 
L 61.994548 96.85864 
L 62.050337 97.968486 
L 62.378216 99.078125 
L 62.980904 100.173216 
L 63.858238 101.23913 
L 65.007042 102.261108 
L 66.421041 103.224432 
L 68.090804 104.114606 
L 70.003734 104.917546 
L 72.144105 105.619772 
L 74.493149 106.208606 
L 77.029194 106.672366 
L 79.72786 107.000549 
L 82.562303 107.184011 
L 85.503511 107.215122 
L 88.520645 107.087912 
L 91.581425 106.798182 
L 94.652542 106.343595 
L 97.700104 105.72374 
L 100.690093 104.94015 
L 103.588828 103.996308 
L 106.363425 102.897604 
L 108.982244 101.651268 
L 111.415314 100.266269 
L 113.634717 98.753194 
L 115.614945 97.124096 
L 117.333206 95.392326 
L 118.769675 93.572349 
L 119.907703 91.67955 
L 120.733964 89.730033 
L 121.238556 87.740416 
L 121.415043 85.727633 
L 121.260461 83.708735 
L 120.775267 81.700705 
L 119.963262 79.720284 
L 118.831475 77.783804 
L 117.390013 75.907039 
L 115.651905 74.105074 
L 113.632912 72.392181 
L 111.351334 70.781715 
L 108.82781 69.286023 
L 106.085102 67.916363 
L 103.147895 66.682839 
L 100.042576 65.594341 
L 96.797038 64.658496 
L 93.440462 63.881628 
L 90.003122 63.268723 
L 86.516176 62.823398 
L 83.011467 62.547874 
L 79.52132 62.442956 
L 76.07833 62.508011 
L 72.715157 62.740954 
L 69.464304 63.138235 
L 66.357885 63.694827 
L 63.427393 64.404228 
L 60.70344 65.258455 
L 58.215494 66.248064 
L 55.991599 67.36216 
L 54.05808 68.588435 
L 52.439234 69.913211 
L 51.157012 71.3215 
L 50.2307 72.797088 
L 49.676584 74.322632 
L 49.507632 75.879784 
L 49.733182 77.449342 
L 50.358646 79.011419 
L 51.38525 80.545639 
L 52.809805 82.031363 
L 54.624534 83.447931 
L 56.816951 84.774926 
L 59.369817 85.992454 
L 62.261168 87.081434 
L 65.464426 88.023896 
L 68.948609 88.803272 
L 72.67862 89.404681 
L 76.615637 89.815196 
L 80.717584 90.024083 
L 84.93968 90.02301 
L 89.235062 89.806216 
L 93.555452 89.37063 
L 97.851874 88.715951 
L 102.075383 87.84466 
L 106.177795 86.761992 
L 110.112408 85.475851 
L 113.834675 83.996673 
L 117.302836 82.337246 
L 120.478476 80.512493 
L 123.327009 78.539224 
L 125.818078 76.435854 
L 127.92586 74.222118 
L 129.629281 71.918769 
L 130.912142 69.54728 
L 131.763161 67.129549 
L 132.175934 64.687615 
L 132.148826 62.243403 
L 131.684804 59.818471 
L 130.79122 57.4338 
L 129.479557 55.109595 
L 127.765144 52.86512 
L 125.666852 50.718554 
L 123.206786 48.686877 
L 120.409964 46.785768 
L 117.304011 45.029534 
L 113.918852 43.43105 
L 110.286422 42.001714 
L 106.440387 40.751417 
L 102.415881 39.688522 
L 98.249255 38.819844 
L 93.977842 38.150646 
L 89.639732 37.684627 
L 85.273552 37.423915 
L 80.918257 37.369068 
L 76.612914 37.519059 
L 72.396494 37.871278 
L 68.307653 38.421521 
L 64.384495 39.163984 
L 60.66434 40.091262 
L 57.183456 41.194345 
L 53.976787 42.462624 
L 51.077654 43.883904 
L 48.517438 45.444424 
L 46.325236 47.128898 
L 44.527515 48.920566 
L 43.147731 50.801266 
L 42.205957 52.751532 
L 41.718497 54.750716 
L 41.697512 56.777138 
L 42.150662 58.808263 
L 43.080774 60.820918 
L 44.485555 62.791527 
L 46.357353 64.696383 
L 48.682994 66.511947 
L 51.443695 68.215162 
L 54.615072 69.78379 
L 58.167246 71.196753 
L 62.065066 72.43448 
L 66.268442 73.479242 
L 70.732788 74.315467 
L 75.409577 74.930031 
L 80.246995 75.312512 
L 85.190677 75.455393 
L 90.184519 75.35421 
L 95.171526 75.007655 
L 100.094697 74.417594 
L 104.897904 73.589039 
L 109.526747 72.530053 
L 113.929368 71.251589 
L 118.057189 69.767282 
L 121.865578 68.093197 
L 125.314403 66.247532 
L 128.368488 64.250299 
L 130.997948 62.122988 
L 133.178421 59.888218 
L 134.891179 57.569394 
L 136.123143 55.190371 
L 136.866801 52.775139 
L 137.120049 50.347524 
L 136.885955 47.930922 
L 136.17248 45.548058 
L 134.992147 43.220781 
L 133.361688 40.969883 
L 131.301674 38.814957 
L 128.836135 36.774276 
L 125.992192 34.864699 
L 122.799685 33.101606 
L 119.290832 31.498845 
L 115.499894 30.068699 
L 111.462867 28.821869 
L 107.2172 27.767457 
L 102.801523 26.912968 
L 98.255402 26.26431 
L 93.619112 25.825795 
L 88.933419 25.600144 
L 84.239371 25.588488 
L 79.578101 25.790371 
L 74.990623 26.203746 
L 70.517629 26.824971 
L 66.199275 27.648806 
L 62.07496 28.668407 
L 58.183079 29.875318 
L 54.560769 31.259474 
L 51.243624 32.809202 
L 48.265391 34.511235 
L 45.657642 36.350737 
L 43.449426 38.311337 
L 41.666898 40.375191 
L 40.332937 42.523059 
L 39.466752 44.734407 
L 39.083492 46.987539 
L 39.193858 49.259762 
L 39.803743 51.527574 
L 40.913903 53.766892 
L 42.519673 55.95331 
L 44.610746 58.062387 
L 47.171033 60.069959 
L 50.178606 61.952474 
L 53.605743 63.687342 
L 57.419092 65.253294 
L 61.579942 66.630733 
L 66.044619 67.802079 
L 70.764997 68.752087 
L 75.689123 69.468134 
L 80.761934 69.940467 
L 85.926064 70.162389 
L 91.12271 70.130401 
L 96.292535 69.844267 
L 101.376596 69.307023 
L 106.317248 68.524915 
L 111.059023 67.507272 
L 115.549441 66.266325 
L 119.739754 64.816965 
L 123.585577 63.176467 
L 127.047422 61.364169 
L 130.091114 59.401139 
L 132.688083 57.309813 
L 134.815541 55.113644 
L 136.456549 52.836749 
L 137.599975 50.503566 
L 138.240366 48.138545 
L 138.377737 45.765849 
L 138.017299 43.409096 
L 137.169137 41.091125 
L 135.847847 38.833801 
L 134.072161 36.657848 
L 131.864549 34.582713 
L 129.250832 32.626459 
L 126.259793 30.805684 
L 122.922811 29.135462 
L 119.273504 27.6293 
L 115.347406 26.299118 
L 111.181657 25.155229 
L 106.814723 24.20634 
L 102.286133 23.45955 
L 97.636242 22.920355 
L 92.906007 22.592656 
L 88.136777 22.478762 
L 83.370088 22.579391 
L 78.647475 22.893678 
L 74.010267 23.419166 
L 69.499389 24.151807 
L 65.155153 25.085954 
L 61.017027 26.214356 
L 57.123401 27.528153 
L 53.511316 29.016872 
L 50.216189 30.668437 
L 47.271494 32.469179 
L 44.708439 34.40386 
L 42.555605 36.45572 
L 40.838576 38.606531 
L 39.579552 40.836684 
L 38.796952 43.125296 
L 38.505019 45.450348 
L 38.713444 47.788852 
L 39.426999 50.117053 
L 40.645216 52.410662 
L 42.36212 54.645119 
L 44.566016 56.79589 
L 47.239365 58.838788 
L 50.358752 60.750308 
L 53.894955 62.507989 
L 57.81313 64.090768 
L 62.073114 65.479338 
L 66.629853 66.656485 
L 71.433936 67.607409 
L 76.432253 68.320002 
L 81.568737 68.785082 
L 86.785191 68.996579 
L 92.022172 68.951656 
L 97.219914 68.650764 
L 102.319249 68.097637 
L 107.262525 67.299214 
L 111.994474 66.265499 
L 116.463014 65.009367 
L 120.619975 63.54631 
L 124.421714 61.894147 
L 127.829625 60.072705 
L 130.810528 58.103467 
L 133.336937 56.009216 
L 135.387209 53.813678 
L 136.945588 51.541172 
L 138.002137 49.216268 
L 138.552589 46.863479 
L 138.598119 44.506973 
L 138.145055 42.170315 
L 137.20454 39.876243 
L 135.792168 37.646479 
L 133.927591 35.501565 
L 131.634129 33.460739 
L 128.938369 31.541829 
L 125.869786 29.761181 
L 122.460371 28.133599 
L 118.744286 26.672317 
L 114.757533 25.388967 
L 110.53766 24.293576 
L 106.123473 23.39456 
L 101.554792 22.698729 
L 96.872203 22.211287 
L 92.116848 21.935845 
L 87.330212 21.874421 
L 82.553925 22.027448 
L 77.829571 22.393769 
L 73.198483 22.970641 
L 68.701552 23.753726 
L 64.379003 24.737086 
L 60.270178 25.91318 
L 56.413285 27.272857 
L 52.845135 28.805353 
L 49.600853 30.498303 
L 46.713564 32.33775 
L 44.214057 34.308176 
L 42.130432 36.392547 
L 40.487714 38.572375 
L 39.307474 40.827806 
L 38.607425 43.137731 
L 38.401034 45.479934 
L 38.697139 47.831261 
L 39.499597 50.167827 
L 40.806967 52.465256 
L 42.612251 54.698953 
L 44.902695 56.844401 
L 47.659685 58.877486 
L 50.858723 60.774844 
L 54.469525 62.514212 
L 58.456222 64.074792 
L 62.777689 65.437605 
L 67.387987 66.585824 
L 72.236929 67.50509 
L 77.270745 68.183782 
L 82.432852 68.613248 
L 87.664685 68.787974 
L 92.906597 68.705697 
L 98.09878 68.367449 
L 103.182195 67.77754 
L 108.099476 66.943467 
L 112.795796 65.875765 
L 117.219655 64.587802 
L 121.323586 63.095514 
L 125.064756 61.417117 
L 128.405453 59.572769 
L 131.313456 57.584228 
L 133.762277 55.474489 
L 135.731298 53.267427 
L 137.205784 50.987446 
L 138.176809 48.65915 
L 138.641086 46.307029 
L 138.600727 43.955181 
L 138.062943 41.627058 
L 137.039703 39.345249 
L 135.54736 37.131294 
L 133.60626 35.005529 
L 131.240343 32.986963 
L 128.476754 31.093183 
L 125.345456 29.340278 
L 121.878868 27.742789 
L 118.111516 26.31368 
L 114.079716 25.064312 
L 109.821273 24.004439 
L 105.375209 23.142201 
L 100.78151 22.484135 
L 96.080892 22.035174 
L 91.314585 21.798656 
L 86.524129 21.776331 
L 81.751175 21.968358 
L 77.037288 22.373313 
L 72.423753 22.988179 
L 67.95137 23.808347 
L 63.660243 24.827608 
L 59.589544 26.038145 
L 55.777271 27.430533 
L 52.259975 28.993736 
L 49.072468 30.715115 
L 46.247509 32.580445 
L 43.81546 34.573946 
L 41.803928 36.678331 
L 40.237383 38.874871 
L 39.13677 41.14349 
L 38.519108 43.462877 
L 38.397107 45.810642 
L 38.77878 48.163488 
L 39.667106 50.497426 
L 41.059713 52.788022 
L 42.948632 55.010667 
L 45.320117 57.140886 
L 48.154544 59.154664 
L 51.426418 61.028795 
L 55.104478 62.741237 
L 59.151928 64.271471 
L 63.526778 65.600857 
L 68.182314 66.712963 
L 73.067677 67.593875 
L 78.128552 68.232457 
L 83.307942 68.620579 
L 88.547021 68.75327 
L 93.786036 68.628824 
L 98.965229 68.248834 
L 104.025769 67.618158 
L 108.91065 66.744821 
L 113.565543 65.639858 
L 117.939576 64.317092 
L 121.98602 62.792872 
L 125.66287 61.085768 
L 128.933318 59.21624 
L 131.766095 57.206282 
L 134.135699 55.079068 
L 136.022509 52.85859 
L 137.412782 50.569313 
L 138.298561 48.235845 
L 138.677495 45.882633 
L 138.552583 43.533684 
L 137.931871 41.212323 
L 136.828101 38.940975 
L 135.258332 36.740989 
L 133.243553 34.632488 
L 130.808277 32.634246 
L 127.980156 30.763604 
L 124.7896 29.036393 
L 121.26941 27.466892 
L 117.454444 26.067795 
L 113.381292 24.850193 
L 109.087987 23.823568 
L 104.613735 22.99579 
L 99.998664 22.373125 
L 95.283597 21.960237 
L 90.509831 21.760195 
L 85.718942 21.774482 
L 80.952581 22.00299 
L 76.252284 22.444026 
L 71.65927 23.094306 
L 67.214239 23.948952 
L 62.957154 25.001483 
L 58.927011 26.243813 
L 55.161584 27.666244 
L 51.697153 29.257469 
L 48.568208 31.004581 
L 45.80713 32.89309 
L 43.443843 34.90696 
L 41.505452 37.028653 
L 40.015863 39.239207 
L 38.995386 41.518327 
L 38.460344 43.844511 
L 38.42268 46.195202 
L 38.889582 48.546969 
L 39.863149 50.875731 
L 41.34008 53.157002 
L 43.311444 55.366175 
L 45.762506 57.478826 
L 48.672652 59.471054 
L 52.015401 61.319821 
L 55.758541 63.003316 
L 59.86437 64.501312 
L 64.290067 65.795517 
L 68.988171 66.869903 
L 73.90719 67.711006 
L 78.992297 68.308182 
L 84.186124 68.653821 
L 89.429622 68.743499 
L 94.662968 68.576064 
L 99.826495 68.153662 
L 104.861615 67.481695 
L 109.711712 66.568707 
L 109.711712 66.568707 
" clip-path="url(#p5861c4d599)" style="fill: none; stroke: #ff7f0e; stroke-opacity: 0.5; stroke-width: 1.5; stroke-linecap: round"/>
   </g>
  </g>
 </g>
 <defs>
  <clipPath id="p5861c4d599">
   <rect x="-1.8" y="-7.2" width="176.4" height="176.4"/>
  </clipPath>
 </defs>
</svg>
