<?xml version="1.0" encoding="utf-8" standalone="no"?>
<!DOCTYPE svg PUBLIC "-//W3C//DTD SVG 1.1//EN"
  "http://www.w3.org/Graphics/SVG/1.1/DTD/svg11.dtd">
<svg xmlns:xlink="http://www.w3.org/1999/xlink" width="216pt" height="180pt" viewBox="0 0 216 180" xmlns="http://www.w3.org/2000/svg" version="1.1">
 <metadata>
  <rdf:RDF xmlns:dc="http://purl.org/dc/elements/1.1/" xmlns:cc="http://creativecommons.org/ns#" xmlns:rdf="http://www.w3.org/1999/02/22-rdf-syntax-ns#">
   <cc:Work>
    <dc:type rdf:resource="http://purl.org/dc/dcmitype/StillImage"/>
    <dc:date>2023-06-14T18:47:14.577512</dc:date>
    <dc:format>image/svg+xml</dc:format>
    <dc:creator>
     <cc:Agent>
      <dc:title>Matplotlib v3.7.0, https://matplotlib.org/</dc:title>
     </cc:Agent>
    </dc:creator>
   </cc:Work>
  </rdf:RDF>
 </metadata>
 <defs>
  <style type="text/css">*{stroke-linejoin: round; stroke-linecap: butt}</style>
 </defs>
 <g id="figure_1">
  <g id="patch_1">
   <path d="M 0 180 
L 216 180 
L 216 0 
L 0 0 
z
" style="fill: #ffffff"/>
  </g>
  <g id="patch_2">
   <path d="M -1 169.2 
L 174.6 169.2 
L 174.6 -1 
" style="fill: none"/>
  </g>
  <g id="pane3d_1">
   <g id="patch_3">
    <path d="M 11.519416 125.705413 
L 69.772457 76.876559 
L 68.962684 6.456623 
L 7.921935 51.001381 
" style="fill: none; opacity: 0.5; stroke: #f2f2f2; stroke-linejoin: miter"/>
   </g>
  </g>
  <g id="pane3d_2">
   <g id="patch_4">
    <path d="M 69.772457 76.876559 
L 163.247803 104.046152 
L 166.583609 31.200681 
L 68.962684 6.456623 
" style="fill: none; opacity: 0.5; stroke: #e6e6e6; stroke-linejoin: miter"/>
   </g>
  </g>
  <g id="pane3d_3">
   <g id="patch_5">
    <path d="M 11.519416 125.705413 
L 110.607849 158.067695 
L 163.247803 104.046152 
L 69.772457 76.876559 
" style="fill: none; opacity: 0.5; stroke: #ececec; stroke-linejoin: miter"/>
   </g>
  </g>
  <g id="axis3d_1">
   <g id="line2d_1">
    <path d="M 11.519416 125.705413 
L 110.607849 158.067695 
" style="fill: none; stroke: #ffffff; stroke-width: 0.8; stroke-linecap: round"/>
   </g>
   <g id="text_1">
    <!-- x -->
    <g style="fill: #262626" transform="translate(40.437569 179.640981) scale(0.1 -0.1)">
     <defs>
      <path id="DejaVuSans-78" d="M 3513 3500 
L 2247 1797 
L 3578 0 
L 2900 0 
L 1881 1375 
L 863 0 
L 184 0 
L 1544 1831 
L 300 3500 
L 978 3500 
L 1906 2253 
L 2834 3500 
L 3513 3500 
z
" transform="scale(0.015625)"/>
     </defs>
     <use xlink:href="#DejaVuSans-78"/>
    </g>
   </g>
   <g id="Line3DCollection_1">
    <path d="M 33.492905 132.881954 
L 90.572519 82.922316 
L 90.649585 11.95362 
" style="fill: none; stroke: #d3d3d3; stroke-width: 0.8"/>
    <path d="M 59.707915 141.443777 
L 115.334314 90.119592 
L 116.493696 18.504349 
" style="fill: none; stroke: #d3d3d3; stroke-width: 0.8"/>
    <path d="M 86.675835 150.251499 
L 140.746988 97.506053 
L 143.047208 25.23489 
" style="fill: none; stroke: #d3d3d3; stroke-width: 0.8"/>
   </g>
   <g id="xtick_1">
    <g id="line2d_2">
     <path d="M 88.783784 78.616216 
" clip-path="url(#pdc36edeaf4)" style="fill: none; stroke: #d3d3d3; stroke-width: 0.8; stroke-linecap: round"/>
    </g>
    <g id="line2d_3">
     <path d="M 33.990302 132.446601 
L 32.495957 133.754545 
" style="fill: none; stroke: #808080; stroke-width: 0.8; stroke-linecap: round"/>
    </g>
    <g id="text_2">
     <!-- −0.2 -->
     <g style="fill: #808080" transform="translate(13.832708 156.388152) scale(0.1 -0.1)">
      <defs>
       <path id="DejaVuSans-2212" d="M 678 2272 
L 4684 2272 
L 4684 1741 
L 678 1741 
L 678 2272 
z
" transform="scale(0.015625)"/>
       <path id="DejaVuSans-30" d="M 2034 4250 
Q 1547 4250 1301 3770 
Q 1056 3291 1056 2328 
Q 1056 1369 1301 889 
Q 1547 409 2034 409 
Q 2525 409 2770 889 
Q 3016 1369 3016 2328 
Q 3016 3291 2770 3770 
Q 2525 4250 2034 4250 
z
M 2034 4750 
Q 2819 4750 3233 4129 
Q 3647 3509 3647 2328 
Q 3647 1150 3233 529 
Q 2819 -91 2034 -91 
Q 1250 -91 836 529 
Q 422 1150 422 2328 
Q 422 3509 836 4129 
Q 1250 4750 2034 4750 
z
" transform="scale(0.015625)"/>
       <path id="DejaVuSans-2e" d="M 684 794 
L 1344 794 
L 1344 0 
L 684 0 
L 684 794 
z
" transform="scale(0.015625)"/>
       <path id="DejaVuSans-32" d="M 1228 531 
L 3431 531 
L 3431 0 
L 469 0 
L 469 531 
Q 828 903 1448 1529 
Q 2069 2156 2228 2338 
Q 2531 2678 2651 2914 
Q 2772 3150 2772 3378 
Q 2772 3750 2511 3984 
Q 2250 4219 1831 4219 
Q 1534 4219 1204 4116 
Q 875 4013 500 3803 
L 500 4441 
Q 881 4594 1212 4672 
Q 1544 4750 1819 4750 
Q 2544 4750 2975 4387 
Q 3406 4025 3406 3419 
Q 3406 3131 3298 2873 
Q 3191 2616 2906 2266 
Q 2828 2175 2409 1742 
Q 1991 1309 1228 531 
z
" transform="scale(0.015625)"/>
      </defs>
      <use xlink:href="#DejaVuSans-2212"/>
      <use xlink:href="#DejaVuSans-30" x="83.789062"/>
      <use xlink:href="#DejaVuSans-2e" x="147.412109"/>
      <use xlink:href="#DejaVuSans-32" x="179.199219"/>
     </g>
    </g>
   </g>
   <g id="xtick_2">
    <g id="line2d_4">
     <path d="M 88.783784 78.616216 
" clip-path="url(#pdc36edeaf4)" style="fill: none; stroke: #d3d3d3; stroke-width: 0.8; stroke-linecap: round"/>
    </g>
    <g id="line2d_5">
     <path d="M 60.193211 140.996014 
L 58.735193 142.341267 
" style="fill: none; stroke: #808080; stroke-width: 0.8; stroke-linecap: round"/>
    </g>
    <g id="text_3">
     <!-- 0.0 -->
     <g style="fill: #808080" transform="translate(44.281197 165.225691) scale(0.1 -0.1)">
      <use xlink:href="#DejaVuSans-30"/>
      <use xlink:href="#DejaVuSans-2e" x="63.623047"/>
      <use xlink:href="#DejaVuSans-30" x="95.410156"/>
     </g>
    </g>
   </g>
   <g id="xtick_3">
    <g id="line2d_6">
     <path d="M 88.783784 78.616216 
" clip-path="url(#pdc36edeaf4)" style="fill: none; stroke: #d3d3d3; stroke-width: 0.8; stroke-linecap: round"/>
    </g>
    <g id="line2d_7">
     <path d="M 87.148125 149.790789 
L 85.729153 151.174971 
" style="fill: none; stroke: #808080; stroke-width: 0.8; stroke-linecap: round"/>
    </g>
    <g id="text_4">
     <!-- 0.2 -->
     <g style="fill: #808080" transform="translate(71.298403 174.318528) scale(0.1 -0.1)">
      <use xlink:href="#DejaVuSans-30"/>
      <use xlink:href="#DejaVuSans-2e" x="63.623047"/>
      <use xlink:href="#DejaVuSans-32" x="95.410156"/>
     </g>
    </g>
   </g>
  </g>
  <g id="axis3d_2">
   <g id="line2d_8">
    <path d="M 163.247803 104.046152 
L 110.607849 158.067695 
" style="fill: none; stroke: #ffffff; stroke-width: 0.8; stroke-linecap: round"/>
   </g>
   <g id="text_5">
    <!-- y -->
    <g style="fill: #262626" transform="translate(162.133934 160.636398) scale(0.1 -0.1)">
     <defs>
      <path id="DejaVuSans-79" d="M 2059 -325 
Q 1816 -950 1584 -1140 
Q 1353 -1331 966 -1331 
L 506 -1331 
L 506 -850 
L 844 -850 
Q 1081 -850 1212 -737 
Q 1344 -625 1503 -206 
L 1606 56 
L 191 3500 
L 800 3500 
L 1894 763 
L 2988 3500 
L 3597 3500 
L 2059 -325 
z
" transform="scale(0.015625)"/>
     </defs>
     <use xlink:href="#DejaVuSans-79"/>
    </g>
   </g>
   <g id="Line3DCollection_2">
    <path d="M 22.738985 40.188573 
L 25.619157 113.886731 
L 123.391667 144.948352 
" style="fill: none; stroke: #d3d3d3; stroke-width: 0.8"/>
    <path d="M 39.783952 27.749933 
L 41.87111 100.264022 
L 138.092939 129.861231 
" style="fill: none; stroke: #d3d3d3; stroke-width: 0.8"/>
    <path d="M 56.020502 15.901238 
L 57.384344 87.260521 
L 152.092235 115.494509 
" style="fill: none; stroke: #d3d3d3; stroke-width: 0.8"/>
   </g>
   <g id="xtick_4">
    <g id="line2d_9">
     <path d="M 88.783784 78.616216 
" clip-path="url(#pdc36edeaf4)" style="fill: none; stroke: #d3d3d3; stroke-width: 0.8; stroke-linecap: round"/>
    </g>
    <g id="line2d_10">
     <path d="M 122.56836 144.686794 
L 125.040378 145.472136 
" style="fill: none; stroke: #808080; stroke-width: 0.8; stroke-linecap: round"/>
    </g>
    <g id="text_6">
     <!-- −0.2 -->
     <g style="fill: #808080" transform="translate(123.949759 165.764487) scale(0.1 -0.1)">
      <use xlink:href="#DejaVuSans-2212"/>
      <use xlink:href="#DejaVuSans-30" x="83.789062"/>
      <use xlink:href="#DejaVuSans-2e" x="147.412109"/>
      <use xlink:href="#DejaVuSans-32" x="179.199219"/>
     </g>
    </g>
   </g>
   <g id="xtick_5">
    <g id="line2d_11">
     <path d="M 88.783784 78.616216 
" clip-path="url(#pdc36edeaf4)" style="fill: none; stroke: #d3d3d3; stroke-width: 0.8; stroke-linecap: round"/>
    </g>
    <g id="line2d_12">
     <path d="M 137.283679 129.612308 
L 139.713469 130.359695 
" style="fill: none; stroke: #808080; stroke-width: 0.8; stroke-linecap: round"/>
    </g>
    <g id="text_7">
     <!-- 0.0 -->
     <g style="fill: #808080" transform="translate(142.542757 150.3407) scale(0.1 -0.1)">
      <use xlink:href="#DejaVuSans-30"/>
      <use xlink:href="#DejaVuSans-2e" x="63.623047"/>
      <use xlink:href="#DejaVuSans-30" x="95.410156"/>
     </g>
    </g>
   </g>
   <g id="xtick_6">
    <g id="line2d_13">
     <path d="M 88.783784 78.616216 
" clip-path="url(#pdc36edeaf4)" style="fill: none; stroke: #d3d3d3; stroke-width: 0.8; stroke-linecap: round"/>
    </g>
    <g id="line2d_14">
     <path d="M 151.296636 115.257328 
L 153.685363 115.969447 
" style="fill: none; stroke: #808080; stroke-width: 0.8; stroke-linecap: round"/>
    </g>
    <g id="text_8">
     <!-- 0.2 -->
     <g style="fill: #808080" transform="translate(156.257588 135.654011) scale(0.1 -0.1)">
      <use xlink:href="#DejaVuSans-30"/>
      <use xlink:href="#DejaVuSans-2e" x="63.623047"/>
      <use xlink:href="#DejaVuSans-32" x="95.410156"/>
     </g>
    </g>
   </g>
  </g>
  <g id="axis3d_3">
   <g id="line2d_15">
    <path d="M 163.247803 104.046152 
L 166.583609 31.200681 
" style="fill: none; stroke: #ffffff; stroke-width: 0.8; stroke-linecap: round"/>
   </g>
   <g id="text_9">
    <!-- z -->
    <g style="fill: #262626" transform="translate(202.494937 65.789607) scale(0.1 -0.1)">
     <defs>
      <path id="DejaVuSans-7a" d="M 353 3500 
L 3084 3500 
L 3084 2975 
L 922 459 
L 3084 459 
L 3084 0 
L 275 0 
L 275 525 
L 2438 3041 
L 353 3041 
L 353 3500 
z
" transform="scale(0.015625)"/>
     </defs>
     <use xlink:href="#DejaVuSans-7a"/>
    </g>
   </g>
   <g id="Line3DCollection_3">
    <path d="M 164.015864 87.273675 
L 69.585706 60.636192 
L 10.69218 108.527321 
" style="fill: none; stroke: #d3d3d3; stroke-width: 0.8"/>
    <path d="M 164.733672 71.598579 
L 69.411338 45.472665 
L 9.918488 92.461092 
" style="fill: none; stroke: #d3d3d3; stroke-width: 0.8"/>
    <path d="M 165.46531 55.621481 
L 69.233773 30.031165 
L 9.129311 76.073325 
" style="fill: none; stroke: #d3d3d3; stroke-width: 0.8"/>
    <path d="M 166.21118 39.333569 
L 69.052923 14.303977 
L 8.324181 59.35427 
" style="fill: none; stroke: #d3d3d3; stroke-width: 0.8"/>
   </g>
   <g id="xtick_7">
    <g id="line2d_16">
     <path d="M 88.783784 78.616216 
" style="fill: none; stroke: #d3d3d3; stroke-width: 0.8; stroke-linecap: round"/>
    </g>
    <g id="line2d_17">
     <path d="M 163.222952 87.050005 
L 165.603592 87.721552 
" style="fill: none; stroke: #808080; stroke-width: 0.8; stroke-linecap: round"/>
    </g>
    <g id="text_10">
     <!-- 0.025 -->
     <g style="fill: #808080" transform="translate(168.106235 92.3209) scale(0.1 -0.1)">
      <defs>
       <path id="DejaVuSans-35" d="M 691 4666 
L 3169 4666 
L 3169 4134 
L 1269 4134 
L 1269 2991 
Q 1406 3038 1543 3061 
Q 1681 3084 1819 3084 
Q 2600 3084 3056 2656 
Q 3513 2228 3513 1497 
Q 3513 744 3044 326 
Q 2575 -91 1722 -91 
Q 1428 -91 1123 -41 
Q 819 9 494 109 
L 494 744 
Q 775 591 1075 516 
Q 1375 441 1709 441 
Q 2250 441 2565 725 
Q 2881 1009 2881 1497 
Q 2881 1984 2565 2268 
Q 2250 2553 1709 2553 
Q 1456 2553 1204 2497 
Q 953 2441 691 2322 
L 691 4666 
z
" transform="scale(0.015625)"/>
      </defs>
      <use xlink:href="#DejaVuSans-30"/>
      <use xlink:href="#DejaVuSans-2e" x="63.623047"/>
      <use xlink:href="#DejaVuSans-30" x="95.410156"/>
      <use xlink:href="#DejaVuSans-32" x="159.033203"/>
      <use xlink:href="#DejaVuSans-35" x="222.65625"/>
     </g>
    </g>
   </g>
   <g id="xtick_8">
    <g id="line2d_18">
     <path d="M 88.783784 78.616216 
" style="fill: none; stroke: #d3d3d3; stroke-width: 0.8; stroke-linecap: round"/>
    </g>
    <g id="line2d_19">
     <path d="M 163.932908 71.379106 
L 166.337142 72.038057 
" style="fill: none; stroke: #808080; stroke-width: 0.8; stroke-linecap: round"/>
    </g>
    <g id="text_11">
     <!-- 0.050 -->
     <g style="fill: #808080" transform="translate(168.995529 76.693771) scale(0.1 -0.1)">
      <use xlink:href="#DejaVuSans-30"/>
      <use xlink:href="#DejaVuSans-2e" x="63.623047"/>
      <use xlink:href="#DejaVuSans-30" x="95.410156"/>
      <use xlink:href="#DejaVuSans-35" x="159.033203"/>
      <use xlink:href="#DejaVuSans-30" x="222.65625"/>
     </g>
    </g>
   </g>
   <g id="xtick_9">
    <g id="line2d_20">
     <path d="M 88.783784 78.616216 
" style="fill: none; stroke: #d3d3d3; stroke-width: 0.8; stroke-linecap: round"/>
    </g>
    <g id="line2d_21">
     <path d="M 164.656537 55.406408 
L 167.084836 56.052152 
" style="fill: none; stroke: #808080; stroke-width: 0.8; stroke-linecap: round"/>
    </g>
    <g id="text_12">
     <!-- 0.075 -->
     <g style="fill: #808080" transform="translate(169.901878 60.766964) scale(0.1 -0.1)">
      <defs>
       <path id="DejaVuSans-37" d="M 525 4666 
L 3525 4666 
L 3525 4397 
L 1831 0 
L 1172 0 
L 2766 4134 
L 525 4134 
L 525 4666 
z
" transform="scale(0.015625)"/>
      </defs>
      <use xlink:href="#DejaVuSans-30"/>
      <use xlink:href="#DejaVuSans-2e" x="63.623047"/>
      <use xlink:href="#DejaVuSans-30" x="95.410156"/>
      <use xlink:href="#DejaVuSans-37" x="159.033203"/>
      <use xlink:href="#DejaVuSans-35" x="222.65625"/>
     </g>
    </g>
   </g>
   <g id="xtick_10">
    <g id="line2d_22">
     <path d="M 88.783784 78.616216 
" style="fill: none; stroke: #d3d3d3; stroke-width: 0.8; stroke-linecap: round"/>
    </g>
    <g id="line2d_23">
     <path d="M 165.394237 39.12311 
L 167.847088 39.755006 
" style="fill: none; stroke: #808080; stroke-width: 0.8; stroke-linecap: round"/>
    </g>
    <g id="text_13">
     <!-- 0.100 -->
     <g style="fill: #808080" transform="translate(170.825775 44.531777) scale(0.1 -0.1)">
      <defs>
       <path id="DejaVuSans-31" d="M 794 531 
L 1825 531 
L 1825 4091 
L 703 3866 
L 703 4441 
L 1819 4666 
L 2450 4666 
L 2450 531 
L 3481 531 
L 3481 0 
L 794 0 
L 794 531 
z
" transform="scale(0.015625)"/>
      </defs>
      <use xlink:href="#DejaVuSans-30"/>
      <use xlink:href="#DejaVuSans-2e" x="63.623047"/>
      <use xlink:href="#DejaVuSans-31" x="95.410156"/>
      <use xlink:href="#DejaVuSans-30" x="159.033203"/>
      <use xlink:href="#DejaVuSans-30" x="222.65625"/>
     </g>
    </g>
   </g>
  </g>
  <g id="axes_1">
   <g id="line2d_24">
    <path d="M 88.85267 49.187268 
L 88.952305 60.576861 
L 88.794715 69.807386 
L 88.440392 77.352897 
L 87.852889 84.975604 
L 86.871128 96.887493 
L 86.860896 100.009159 
L 87.091479 102.605529 
L 87.544893 104.720143 
L 88.166171 106.391305 
L 88.870651 107.659425 
L 89.858884 108.909042 
L 90.543259 109.742529 
L 90.323572 109.845094 
L 88.127561 110.394468 
L 87.193402 110.910231 
L 86.65609 111.432629 
L 86.408492 111.996455 
L 86.44636 112.406994 
L 86.681243 112.776153 
L 87.099288 113.079827 
L 87.886575 113.351468 
L 88.832078 113.447324 
L 89.794356 113.360329 
L 90.623072 113.102346 
L 91.182571 112.704365 
L 91.364121 112.34406 
L 91.314998 111.962463 
L 91.032239 111.593793 
L 90.533152 111.274923 
L 89.596993 110.988154 
L 88.474707 110.918826 
L 87.332401 111.095947 
L 86.347178 111.500439 
L 85.809737 111.915163 
L 85.505962 112.381776 
L 85.470938 112.85581 
L 85.717288 113.294022 
L 86.233159 113.659094 
L 86.982315 113.922477 
L 88.240615 114.084022 
L 89.623603 114.011253 
L 90.918818 113.706482 
L 91.706588 113.339039 
L 92.252581 112.872854 
L 92.501253 112.336192 
L 92.485457 111.957878 
L 92.183531 111.394155 
L 91.56411 110.882142 
L 90.671141 110.476687 
L 89.573521 110.227482 
L 88.360079 110.170806 
L 87.132783 110.322358 
L 85.998554 110.673071 
L 85.060232 111.189209 
L 84.407408 111.817044 
L 84.107945 112.491192 
L 84.125314 112.933024 
L 84.321351 113.347174 
L 84.692604 113.717782 
L 85.553277 114.164797 
L 86.719716 114.455458 
L 88.098852 114.573667 
L 89.57516 114.513869 
L 91.02038 114.277612 
L 92.304914 113.872019 
L 93.309755 113.31099 
L 93.775058 112.862025 
L 94.050731 112.365103 
L 94.122383 111.834295 
L 93.983307 111.287278 
L 93.634797 110.745111 
L 93.086174 110.231531 
L 92.354524 109.77174 
L 90.968936 109.237176 
L 89.336424 108.953194 
L 87.590444 108.968525 
L 85.879224 109.295551 
L 84.353811 109.905233 
L 83.510469 110.436747 
L 82.84931 111.037216 
L 82.400674 111.676037 
L 82.18734 112.321751 
L 82.22341 112.944437 
L 82.513518 113.517729 
L 83.052383 114.020223 
L 83.824753 114.436125 
L 84.80572 114.75512 
L 86.592051 115.040672 
L 88.623866 115.091115 
L 90.72762 114.909667 
L 92.71716 114.501497 
L 94.410936 113.872611 
L 95.295624 113.336086 
L 95.938591 112.713313 
L 96.31033 112.015711 
L 96.391595 111.260528 
L 96.174137 110.471624 
L 95.661005 109.679444 
L 94.866437 108.920011 
L 93.815415 108.232901 
L 92.542906 107.658365 
L 91.092823 107.2339 
L 89.516714 106.990675 
L 87.872164 106.950259 
L 86.220918 107.122054 
L 84.626733 107.501769 
L 83.153012 108.071154 
L 81.860296 108.799134 
L 80.803745 109.644281 
L 80.030727 110.558451 
L 79.578667 111.49115 
L 79.473274 112.39408 
L 79.727214 113.225166 
L 80.339278 113.951472 
L 81.294075 114.550564 
L 82.562229 115.010235 
L 84.101102 115.326824 
L 85.856042 115.502599 
L 88.749405 115.513882 
L 91.731644 115.237161 
L 94.535769 114.678712 
L 96.177271 114.147353 
L 97.55463 113.48569 
L 98.608591 112.693414 
L 99.292442 111.775772 
L 99.573865 110.746831 
L 99.436011 109.632136 
L 98.877881 108.470066 
L 97.91411 107.31134 
L 96.574321 106.21641 
L 94.902162 105.250928 
L 92.954075 104.479821 
L 90.797789 103.960791 
L 88.510493 103.738092 
L 86.176587 103.837359 
L 83.884977 104.262064 
L 81.725892 104.992002 
L 79.787333 105.984106 
L 78.151313 107.175739 
L 76.890156 108.490367 
L 76.063133 109.845184 
L 75.71366 111.159712 
L 75.726705 111.77941 
L 75.867202 112.364018 
L 76.13531 112.90748 
L 76.52994 113.405026 
L 77.04875 113.853184 
L 78.443332 114.593667 
L 80.275772 115.124402 
L 82.48418 115.454488 
L 84.989721 115.600534 
L 87.698988 115.580524 
L 91.913548 115.268506 
L 94.659015 114.87987 
L 97.220172 114.341555 
L 99.488839 113.641167 
L 101.367932 112.762912 
L 102.776228 111.692864 
L 103.283705 111.083675 
L 103.652 110.425516 
L 103.876805 109.720155 
L 103.955228 108.970713 
L 103.885788 108.181795 
L 103.668393 107.359576 
L 103.304311 106.511817 
L 102.796129 105.647814 
L 102.14771 104.778272 
L 100.451712 103.071206 
L 98.270946 101.495531 
L 95.677434 100.160697 
L 94.252774 99.616142 
L 92.759005 99.168926 
L 91.209276 98.828836 
L 89.617475 98.603885 
L 87.998134 98.500079 
L 86.366327 98.521224 
L 84.737557 98.668787 
L 83.127617 98.9418 
L 81.552442 99.336817 
L 80.027945 99.847934 
L 78.569845 100.46685 
L 77.193478 101.183012 
L 75.913614 101.983815 
L 74.744273 102.85488 
L 73.698542 103.780406 
L 72.788413 104.743585 
L 72.024628 105.727082 
L 71.416552 106.713554 
L 70.972059 107.686182 
L 70.697449 108.629198 
L 70.59738 109.528371 
L 70.674823 110.371412 
L 70.93103 111.14829 
L 71.365529 111.851423 
L 71.976116 112.47574 
L 72.758866 113.018611 
L 73.708158 113.479665 
L 74.816694 113.8605 
L 77.474169 114.395551 
L 80.641038 114.661368 
L 84.203609 114.701749 
L 88.027655 114.555455 
L 91.962585 114.248316 
L 95.847183 113.788959 
L 99.516973 113.16781 
L 102.812914 112.358898 
L 105.590561 111.324474 
L 106.745985 110.709514 
L 107.728482 110.022754 
L 108.527516 109.260156 
L 109.134627 108.418962 
L 109.543467 107.498143 
L 109.749783 106.49883 
L 109.751373 105.424684 
L 109.548003 104.282174 
L 109.141316 103.080736 
L 108.534724 101.832789 
L 107.733307 100.553589 
L 106.743716 99.260924 
L 105.574085 97.974671 
L 104.233966 96.71623 
L 102.73426 95.507879 
L 101.087178 94.372084 
L 99.306198 93.330814 
L 97.406028 92.404879 
L 95.402573 91.61334 
L 93.312895 90.972995 
L 91.155154 90.497949 
L 88.948546 90.199276 
L 86.713199 90.084757 
L 84.47006 90.158682 
L 82.240732 90.421712 
L 80.047281 90.870792 
L 77.912012 91.499105 
L 75.857204 92.296087 
L 73.904822 93.247506 
L 72.076206 94.335637 
L 70.391759 95.539542 
L 68.870637 96.835499 
L 67.530461 98.197573 
L 66.387059 99.598353 
L 65.454253 101.00982 
L 64.743692 102.404331 
L 64.264734 103.755638 
L 64.024374 105.039888 
L 64.027217 106.236514 
L 64.275481 107.328947 
L 64.769018 108.30507 
L 65.505357 109.157406 
L 66.47975 109.882997 
L 67.685222 110.483023 
L 69.112611 110.962203 
L 70.750621 111.328031 
L 72.585858 111.589946 
L 76.784215 111.844504 
L 81.56036 111.809951 
L 86.737042 111.556519 
L 92.110734 111.129055 
L 97.457901 110.542596 
L 102.544808 109.782597 
L 107.140968 108.807704 
L 109.187774 108.220579 
L 111.03501 107.554739 
L 112.661812 106.800311 
L 114.050288 105.947486 
L 115.185755 104.987169 
L 116.056865 103.91174 
L 116.655608 102.715898 
L 116.97722 101.397516 
L 117.019997 99.958452 
L 116.78506 98.405204 
L 116.276081 96.749352 
L 115.499013 95.007695 
L 114.461839 93.202051 
L 113.174357 91.358723 
L 111.648005 89.507651 
L 109.895741 87.68133 
L 107.931959 85.913588 
L 105.772454 84.238317 
L 103.434409 82.688273 
L 100.936415 81.294011 
L 98.298502 80.083019 
L 95.542171 79.079067 
L 92.690427 78.301765 
L 89.767779 77.766304 
L 86.800219 77.483331 
L 83.815136 77.4589 
L 80.841174 77.694465 
L 77.90801 78.186865 
L 75.046044 78.928274 
L 72.286012 79.906143 
L 69.658516 81.10312 
L 67.193498 82.497036 
L 64.919681 84.060989 
L 62.86401 85.763627 
L 61.051123 87.56969 
L 59.502897 89.440883 
L 58.238085 91.337071 
L 57.272069 93.217791 
L 56.61673 95.043966 
L 56.280428 96.779688 
L 56.268076 98.39389 
L 56.58127 99.861705 
L 57.218467 101.165386 
L 58.175163 102.29465 
L 59.444068 103.246459 
L 61.01525 104.024259 
L 62.876254 104.636814 
L 65.01218 105.096789 
L 67.405721 105.419245 
L 70.037185 105.620199 
L 75.923069 105.719179 
L 82.463782 105.499931 
L 89.414093 105.031448 
L 96.49184 104.341449 
L 103.385768 103.420774 
L 109.771434 102.230089 
L 112.674499 101.514343 
L 115.335383 100.705448 
L 117.721393 99.792405 
L 119.804076 98.763541 
L 121.559862 97.607053 
L 122.97048 96.311783 
L 124.023116 94.868252 
L 124.710316 93.269887 
L 125.029655 91.514355 
L 124.983234 89.604858 
L 124.577066 87.551195 
L 123.820427 85.370423 
L 122.725232 83.086973 
L 121.305494 80.732146 
L 119.576885 78.34301 
L 117.556422 75.960812 
L 115.262264 73.629062 
L 112.713629 71.391525 
L 109.93079 69.290316 
L 106.935153 67.364278 
L 103.749398 65.64776 
L 100.397655 64.169825 
L 96.905715 62.953892 
L 93.30123 62.01772 
L 89.613898 61.373639 
L 85.875583 61.028935 
L 82.120349 60.986254 
L 78.384373 61.243954 
L 74.705695 61.796339 
L 71.123805 62.633721 
L 67.679044 63.742318 
L 64.411845 65.104019 
L 61.361832 66.696068 
L 58.566857 68.4908 
L 56.062012 70.45552 
L 53.878731 72.552714 
L 52.044036 74.740684 
L 50.579988 76.974695 
L 49.503395 79.20865 
L 48.825767 81.397156 
L 48.553497 83.497799 
L 48.688218 85.473353 
L 49.227269 87.29361 
L 50.164205 88.936592 
L 51.489284 90.388993 
L 53.189899 91.645815 
L 55.250907 92.709296 
L 57.654856 93.58735 
L 60.3821 94.291727 
L 63.410805 94.836167 
L 66.716869 95.234731 
L 70.273751 95.500445 
L 74.052261 95.644327 
L 82.142671 95.597461 
L 90.69282 95.128072 
L 95.033441 94.73451 
L 99.354403 94.231006 
L 103.604928 93.613015 
L 107.732532 92.875361 
L 111.684115 92.012645 
L 115.407282 91.01957 
L 118.851854 89.891167 
L 121.971449 88.622948 
L 124.725009 87.21102 
L 127.078128 85.652246 
L 129.004039 83.944526 
L 130.484172 82.087287 
L 131.508217 80.082215 
L 132.073718 77.934202 
L 132.185261 75.652406 
L 131.853386 73.251249 
L 131.093354 70.751128 
L 129.923914 68.178642 
L 128.366186 65.566204 
L 126.442739 62.951009 
L 124.176904 60.373457 
L 121.59233 57.875222 
L 118.71277 55.497229 
L 115.56206 53.277776 
L 112.164275 51.251003 
L 108.544005 49.445838 
L 104.726735 47.885447 
L 100.739293 46.587144 
L 96.61032 45.562688 
L 92.370738 44.818825 
L 88.054157 44.357973 
L 83.697171 44.178942 
L 79.339501 44.277586 
L 75.023912 44.647344 
L 70.795882 45.279606 
L 66.702962 46.163897 
L 62.793869 47.287861 
L 59.117294 48.637059 
L 55.720528 50.194638 
L 52.648003 51.940918 
L 49.939858 53.853003 
L 47.630691 55.904531 
L 45.748605 58.065686 
L 44.314638 60.303578 
L 43.342612 62.583035 
L 42.839388 64.867804 
L 42.805453 67.122029 
L 43.235737 69.311849 
L 44.120543 71.40688 
L 45.446469 73.38137 
L 47.197238 75.214881 
L 49.354353 76.892423 
L 51.897564 78.404065 
L 54.805105 79.744136 
L 58.053736 80.910169 
L 61.618596 81.901742 
L 65.472902 82.719372 
L 69.58754 83.363563 
L 73.930577 83.834082 
L 78.466751 84.129496 
L 83.156998 84.246961 
L 87.958068 84.182271 
L 92.822318 83.930125 
L 97.697733 83.484596 
L 102.528275 82.839766 
L 107.254587 81.990482 
L 111.815114 80.933186 
L 116.147625 79.666759 
L 120.19108 78.193284 
L 123.887729 76.518661 
L 127.185282 74.652987 
L 130.038934 72.610631 
L 132.413039 70.41001 
L 134.282233 68.073069 
L 135.631891 65.624568 
L 136.457874 63.091277 
L 136.765624 60.501205 
L 136.568755 57.88294 
L 135.887323 55.265158 
L 134.74601 52.676265 
L 133.172391 50.144116 
L 131.195448 47.695743 
L 128.844421 45.357019 
L 126.148026 43.152252 
L 123.13404 41.103723 
L 119.829206 39.231213 
L 116.259416 37.551593 
L 112.450096 36.07852 
L 108.426753 34.82229 
L 104.21562 33.789846 
L 99.844353 32.984931 
L 95.342726 32.408377 
L 90.743278 32.058471 
L 86.081848 31.931384 
L 81.397944 32.021626 
L 76.73487 32.322492 
L 72.139557 32.826497 
L 67.662048 33.525758 
L 63.354609 34.412308 
L 59.270485 35.478323 
L 55.46235 36.716204 
L 51.980572 38.118501 
L 48.871434 39.677634 
L 46.175494 41.38539 
L 43.926238 43.232243 
L 42.149194 45.206534 
L 40.861548 47.293669 
L 40.072302 49.475465 
L 39.782896 51.729827 
L 39.988179 54.030882 
L 40.677576 56.349597 
L 41.83631 58.654842 
L 43.446529 60.914734 
L 45.488245 63.098054 
L 47.940029 65.175522 
L 50.779412 67.12076 
L 53.983033 68.910837 
L 57.52652 70.526387 
L 61.384173 71.951347 
L 65.528481 73.172436 
L 69.929527 74.178483 
L 74.554331 74.959743 
L 79.3662 75.507302 
L 84.324135 75.812661 
L 89.382383 75.86756 
L 94.490202 75.664077 
L 99.591931 75.19503 
L 104.627436 74.454663 
L 109.533007 73.439605 
L 114.242728 72.150014 
L 118.690308 70.590828 
L 122.811288 68.772958 
L 126.545476 66.714246 
L 129.839394 64.439998 
L 132.648496 61.982879 
L 134.938891 59.382072 
L 136.688385 56.681667 
L 137.886712 53.928403 
L 138.534958 51.169041 
L 138.644272 48.447731 
L 138.234063 45.803767 
L 137.329925 43.270053 
L 135.961532 40.87244 
L 134.160717 38.629926 
L 131.95989 36.55552 
L 129.390866 34.657505 
L 126.484147 32.940785 
L 123.268606 31.408082 
L 119.771543 30.060838 
L 116.019015 28.899764 
L 112.036389 27.925083 
L 107.849036 27.136537 
L 103.48311 26.533273 
L 98.966353 26.113672 
L 94.328873 25.875227 
L 89.603844 25.814476 
L 84.828061 25.927053 
L 80.042284 26.207838 
L 75.291318 26.651206 
L 70.623746 27.251377 
L 66.091282 28.002814 
L 61.747731 28.900657 
L 57.647567 29.941111 
L 53.844224 31.121739 
L 50.388222 32.441538 
L 47.325307 33.900725 
L 44.694789 35.500138 
L 42.528264 37.240229 
L 40.848839 39.119712 
L 39.670937 41.134026 
L 39.000653 43.273849 
L 38.836575 45.523974 
L 39.17092 47.862794 
L 39.990828 50.262558 
L 41.279648 52.690389 
L 43.018089 55.109931 
L 45.185133 57.483315 
L 47.75867 59.773156 
L 50.715832 61.944272 
L 54.033047 63.964918 
L 57.685843 65.807467 
L 61.648445 67.448534 
L 65.893222 68.868666 
L 70.390024 70.051734 
L 75.105482 70.984203 
L 80.002319 71.65442 
L 85.038744 72.052065 
L 90.168002 72.167837 
L 95.338167 71.993474 
L 100.492261 71.522106 
L 105.568775 70.748978 
L 110.502668 69.672484 
L 115.226851 68.295456 
L 119.674147 66.626573 
L 123.779618 64.681704 
L 127.4831 62.484958 
L 130.731706 60.069182 
L 133.482048 57.475657 
L 135.70191 54.752843 
L 137.371179 51.954148 
L 138.481933 49.134897 
L 139.037695 46.34888 
L 139.051983 43.644985 
L 138.546372 41.06444 
L 137.548316 38.6391 
L 136.088987 36.390973 
L 134.201338 34.332917 
L 131.918538 32.470238 
L 129.272847 30.802753 
L 126.294959 29.326906 
L 123.013751 28.037579 
L 119.456408 26.929429 
L 115.648816 25.997658 
L 111.616174 25.238312 
L 107.383726 24.648214 
L 102.97758 24.224674 
L 98.425536 23.965135 
L 93.757874 23.866828 
L 89.00805 23.926535 
L 84.213239 24.140479 
L 79.414656 24.50437 
L 74.657587 25.013589 
L 69.991076 25.66351 
L 65.467221 26.449902 
L 61.140067 27.369401 
L 57.064127 28.41994 
L 53.292635 29.601082 
L 49.875639 30.914122 
L 46.858153 32.361852 
L 44.278519 33.94789 
L 42.167192 35.675552 
L 40.546041 37.546317 
L 39.428236 39.558084 
L 38.818689 41.703485 
L 38.714931 43.968593 
L 39.108303 46.332313 
L 39.985261 48.766623 
L 41.32866 51.237669 
L 43.118887 53.707543 
L 45.334738 56.136436 
L 47.954011 58.484824 
L 50.95381 60.71536 
L 54.310552 62.794263 
L 57.999743 64.692091 
L 61.995553 66.383932 
L 66.270233 67.849113 
L 70.793451 69.070588 
L 75.531578 70.034185 
L 80.447004 70.727866 
L 85.497541 71.141144 
L 90.635994 71.264759 
L 95.809974 71.090676 
L 100.962062 70.612453 
L 106.030369 69.825972 
L 110.949584 68.7305 
L 115.652512 67.330007 
L 120.072071 65.634587 
L 124.143657 63.661807 
L 127.807688 61.437722 
L 131.012093 58.997302 
L 133.714494 56.384014 
L 135.883822 53.648403 
L 137.501163 50.845678 
L 138.559771 48.032504 
L 139.064241 45.263402 
L 139.029001 42.5873 
L 138.47634 40.044783 
L 137.434212 37.666469 
L 135.934093 35.472688 
L 134.009065 33.474375 
L 131.692288 31.674861 
L 129.015923 30.072093 
L 126.010509 28.660872 
L 122.704753 27.434733 
L 119.125682 26.387293 
L 115.299065 25.513015 
L 111.250033 24.807465 
L 107.003831 24.267202 
L 102.586634 23.889438 
L 98.026377 23.671644 
L 93.353538 23.611167 
L 88.601821 23.70497 
L 83.80868 23.949505 
L 79.015618 24.340744 
L 74.268192 24.874367 
L 69.615662 25.546072 
L 65.110259 26.351996 
L 60.80604 27.289164 
L 56.757392 28.355931 
L 53.017263 29.552293 
L 49.635264 30.879965 
L 46.655825 32.342109 
L 44.116607 33.942625 
L 42.047313 35.684972 
L 40.469053 37.570608 
L 39.394273 39.597223 
L 38.827235 41.757072 
L 38.764927 44.035726 
L 39.198262 46.411521 
L 40.113388 48.855882 
L 41.492955 51.334487 
L 43.317228 53.809096 
L 45.564938 56.239733 
L 48.213853 58.586869 
L 51.241051 60.813295 
L 54.622909 62.885463 
L 58.334863 64.774226 
L 62.350967 66.454982 
L 66.643304 67.907355 
L 71.181317 69.114568 
L 75.931101 70.062678 
L 80.85472 70.739844 
L 85.909628 71.135762 
L 91.048255 71.241351 
L 96.21785 71.048789 
L 101.360672 70.551892 
L 101.360672 70.551892 
" clip-path="url(#pdc36edeaf4)" style="fill: none; stroke: #1f77b4; stroke-width: 1.5; stroke-linecap: round"/>
   </g>
   <g id="line2d_25">
    <path d="M 88.85267 49.187268 
L 88.798995 100.643199 
L 88.576576 110.130269 
L 88.576692 112.665971 
L 88.780536 113.135391 
L 88.984083 113.203978 
L 88.989134 113.180318 
L 88.860012 113.099822 
L 88.500028 113.123382 
L 88.352474 113.293204 
L 88.484379 113.439416 
L 88.84007 113.489226 
L 89.187075 113.334691 
L 89.201803 113.147519 
L 88.973707 112.990121 
L 88.522922 112.952841 
L 88.125203 113.112256 
L 88.030996 113.321607 
L 88.183341 113.533287 
L 88.633715 113.677701 
L 89.196266 113.62718 
L 89.600637 113.377176 
L 89.659808 113.126648 
L 89.481151 112.881073 
L 89.086341 112.704139 
L 88.44305 112.654522 
L 87.821651 112.817137 
L 87.491636 113.091817 
L 87.429437 113.362405 
L 87.576496 113.633461 
L 88.041024 113.903737 
L 88.731721 114.024654 
L 89.492233 113.947576 
L 90.131435 113.670464 
L 90.433388 113.336682 
L 90.475935 112.952629 
L 90.230955 112.576962 
L 89.71564 112.271519 
L 88.993103 112.091406 
L 88.165612 112.07547 
L 87.361068 112.238684 
L 86.714334 112.567725 
L 86.345835 113.020693 
L 86.304997 113.402625 
L 86.486434 113.783166 
L 86.887396 114.125944 
L 87.719952 114.463875 
L 88.788987 114.602914 
L 89.935593 114.5008 
L 90.974524 114.152163 
L 91.572477 113.748719 
L 91.941124 113.255042 
L 92.032586 112.710469 
L 91.822069 112.161206 
L 91.311328 111.656391 
L 90.529853 111.24374 
L 89.533611 110.965135 
L 88.401424 110.852543 
L 87.22919 110.924594 
L 86.122339 111.184128 
L 85.187006 111.61693 
L 84.520542 112.191862 
L 84.265689 112.631722 
L 84.18317 113.097425 
L 84.283798 113.570171 
L 84.571322 114.02998 
L 85.041899 114.456469 
L 86.063392 114.99041 
L 87.397403 115.343841 
L 88.938068 115.468781 
L 90.55296 115.335802 
L 92.09436 114.938116 
L 93.412833 114.293571 
L 94.099518 113.746583 
L 94.591372 113.126061 
L 94.860847 112.453554 
L 94.888647 111.753438 
L 94.664746 111.051977 
L 94.189051 110.376308 
L 93.471659 109.753364 
L 92.532736 109.208797 
L 91.401997 108.765941 
L 90.117845 108.444832 
L 88.726157 108.261334 
L 87.278798 108.226394 
L 85.831862 108.345442 
L 84.443715 108.61796 
L 83.172867 109.037248 
L 82.075735 109.590386 
L 81.20435 110.258427 
L 80.604083 111.016819 
L 80.311466 111.836078 
L 80.352204 112.682693 
L 80.739481 113.52028 
L 81.472663 114.31094 
L 82.536513 115.016789 
L 83.901014 115.601606 
L 85.521861 116.032526 
L 87.341681 116.281683 
L 89.291962 116.327715 
L 91.295647 116.157038 
L 93.270276 115.764786 
L 95.131533 115.155364 
L 96.797003 114.342557 
L 98.189931 113.34918 
L 99.242773 112.206286 
L 99.900353 110.951984 
L 100.067713 110.296524 
L 100.122463 109.629917 
L 100.062232 108.958198 
L 99.885786 108.287517 
L 99.185106 106.974095 
L 98.033754 105.738883 
L 96.463347 104.629106 
L 94.522855 103.688138 
L 92.277078 102.953818 
L 89.804606 102.456942 
L 87.195335 102.219982 
L 84.547607 102.256026 
L 81.965021 102.567981 
L 79.552957 103.148041 
L 77.414868 103.977452 
L 75.648378 105.026613 
L 74.341269 106.255539 
L 73.883728 106.922285 
L 73.567446 107.614737 
L 73.398856 108.325439 
L 73.383048 109.046535 
L 73.523675 109.769833 
L 73.822861 110.48688 
L 74.281121 111.189044 
L 74.897298 111.867602 
L 75.668522 112.513834 
L 76.590174 113.119119 
L 77.655886 113.67504 
L 80.185381 114.606754 
L 83.172215 115.249627 
L 86.507064 115.554111 
L 90.060036 115.483404 
L 93.686055 115.015858 
L 97.231385 114.146656 
L 98.925164 113.564744 
L 100.540905 112.888596 
L 102.060239 112.122533 
L 103.46564 111.271898 
L 104.740643 110.343 
L 105.870037 109.343043 
L 106.840048 108.280045 
L 107.638501 107.162743 
L 108.254953 106.000497 
L 108.680806 104.803183 
L 108.909402 103.581084 
L 108.936082 102.344776 
L 108.758229 101.105017 
L 108.375284 99.872634 
L 107.788742 98.658416 
L 107.002127 97.473001 
L 106.020949 96.326782 
L 104.852637 95.229803 
L 103.50647 94.191676 
L 101.993486 93.221487 
L 100.326376 92.327725 
L 98.519381 91.518208 
L 96.588169 90.800012 
L 94.549709 90.17942 
L 92.422139 89.66186 
L 90.224631 89.25186 
L 87.977244 88.953005 
L 85.70078 88.7679 
L 83.416626 88.698133 
L 81.146605 88.74425 
L 78.912802 88.905732 
L 76.737405 89.180974 
L 74.642523 89.567275 
L 72.650009 90.060829 
L 70.781267 90.656729 
L 69.057064 91.348966 
L 67.49732 92.130453 
L 66.120909 92.993042 
L 64.945438 93.927564 
L 63.987042 94.923869 
L 63.260158 95.970888 
L 62.777314 97.056704 
L 62.548917 98.168634 
L 62.583047 99.293332 
L 62.885272 100.416902 
L 63.458467 101.52503 
L 64.302667 102.603127 
L 65.414942 103.636488 
L 66.789301 104.610463 
L 68.416642 105.510637 
L 70.284738 106.323022 
L 72.378272 107.034246 
L 74.678921 107.631751 
L 77.165491 108.103984 
L 79.814109 108.440582 
L 82.598458 108.632546 
L 85.490074 108.672397 
L 88.458673 108.554314 
L 91.472534 108.274251 
L 94.498903 107.830019 
L 97.50443 107.221345 
L 100.455616 106.4499 
L 103.319272 105.519288 
L 106.062968 104.43501 
L 108.655474 103.20439 
L 111.067176 101.83648 
L 113.270461 100.341932 
L 115.24006 98.732844 
L 116.953355 97.0226 
L 118.390631 95.225677 
L 119.535275 93.35746 
L 120.373933 91.434032 
L 120.896602 89.471983 
L 121.096686 87.488201 
L 120.970991 85.499681 
L 120.519693 83.523344 
L 119.746254 81.575854 
L 118.657315 79.673462 
L 117.262558 77.831859 
L 115.574545 76.066037 
L 113.608541 74.390174 
L 111.382328 72.817529 
L 108.916004 71.360351 
L 106.231783 70.029799 
L 103.353787 68.835875 
L 100.307847 67.787369 
L 97.121292 66.891807 
L 93.822754 66.155411 
L 90.441964 65.583063 
L 87.009553 65.178278 
L 83.556854 64.943174 
L 80.115701 64.87845 
L 76.718224 64.983367 
L 73.396643 65.255735 
L 70.183046 65.691895 
L 67.109167 66.286713 
L 64.206148 67.033579 
L 61.504288 67.924404 
L 59.032778 68.949636 
L 56.819425 70.09828 
L 54.890359 71.357926 
L 53.269728 72.714804 
L 51.979384 74.153838 
L 51.038559 75.658736 
L 50.463544 77.212087 
L 50.267368 78.79549 
L 50.459489 80.389701 
L 51.045502 81.974809 
L 52.026879 83.530437 
L 53.400747 85.035958 
L 55.15971 86.47075 
L 57.291733 87.814453 
L 59.780095 89.047255 
L 62.603413 90.150178 
L 65.735758 91.105376 
L 69.14685 91.896425 
L 72.802347 92.508606 
L 76.664224 92.929166 
L 80.691236 93.14756 
L 84.839457 93.155652 
L 89.062885 92.94788 
L 93.314105 92.521375 
L 97.544984 91.87603 
L 101.707388 91.014514 
L 105.753901 89.942242 
L 109.638527 88.667276 
L 113.317356 87.2002 
L 116.749181 85.553929 
L 119.896049 83.743492 
L 122.723737 81.785782 
L 125.202146 79.699281 
L 127.305605 77.503767 
L 129.013083 75.220019 
L 130.308319 72.869514 
L 131.179868 70.474141 
L 131.621064 68.055918 
L 131.629919 65.636729 
L 131.208969 63.238087 
L 130.36506 60.880917 
L 129.109105 58.58536 
L 127.455812 56.370613 
L 125.423387 54.254781 
L 123.033233 52.254768 
L 120.309647 50.386174 
L 117.279514 48.663224 
L 113.97201 47.09871 
L 110.418324 45.703945 
L 106.651379 44.488733 
L 102.705578 43.461344 
L 98.61656 42.628502 
L 94.420964 41.995372 
L 90.156212 41.56555 
L 85.860291 41.341062 
L 81.571544 41.322352 
L 77.328463 41.508277 
L 73.169475 41.896106 
L 69.132728 42.481506 
L 65.255859 43.258541 
L 61.575758 44.219666 
L 58.128308 45.355729 
L 54.94811 46.655974 
L 52.068189 48.108057 
L 49.519676 49.69807 
L 47.331475 51.410579 
L 45.529908 53.228681 
L 44.138351 55.134077 
L 43.176854 57.107176 
L 42.661765 59.127213 
L 42.605361 61.172408 
L 43.015489 63.220149 
L 43.895242 65.247202 
L 45.24267 67.229956 
L 47.05055 69.144698 
L 49.306223 70.967908 
L 51.9915 72.676582 
L 55.082677 74.248563 
L 58.550635 75.662884 
L 62.361058 76.900117 
L 66.474756 77.942698 
L 70.848104 78.775249 
L 75.433579 79.38486 
L 80.180406 79.761336 
L 85.035277 79.897401 
L 89.943142 79.788843 
L 94.848048 79.434598 
L 99.693996 78.836781 
L 104.425808 78.000642 
L 108.989964 76.934467 
L 113.335399 75.649419 
L 117.414227 74.159323 
L 121.182396 72.480412 
L 124.600233 70.631029 
L 127.632892 68.631311 
L 130.250692 66.502844 
L 132.429338 64.268325 
L 134.150046 61.951213 
L 135.399555 59.575402 
L 136.170058 57.164896 
L 136.459047 54.743526 
L 136.269092 52.334674 
L 135.607572 49.961044 
L 134.486354 47.644449 
L 132.921457 45.40564 
L 130.932689 43.264161 
L 128.543285 41.238228 
L 125.77954 39.344641 
L 122.67046 37.598713 
L 119.24742 36.014222 
L 115.543841 34.603378 
L 111.594893 33.376799 
L 107.437209 32.343506 
L 103.10863 31.510913 
L 98.647958 30.884832 
L 94.094732 30.469473 
L 89.489016 30.267448 
L 84.871192 30.279772 
L 80.281761 30.505863 
L 75.761145 30.943543 
L 71.349483 31.589031 
L 67.086422 32.436937 
L 63.01089 33.480262 
L 59.160858 34.710388 
L 55.573084 36.117082 
L 52.282828 37.688499 
L 49.323555 39.411196 
L 46.726606 41.270161 
L 44.520853 43.248851 
L 42.732334 45.329253 
L 41.383871 47.491964 
L 40.494685 49.7163 
L 40.080002 51.980431 
L 40.15068 54.261543 
L 40.712845 56.536039 
L 41.767567 58.779764 
L 43.31058 60.968268 
L 45.332068 63.077097 
L 47.816518 65.082104 
L 50.742665 66.95979 
L 54.083543 68.687653 
L 57.806633 70.244543 
L 61.874133 71.611013 
L 66.243349 72.769666 
L 70.867191 73.705465 
L 75.694781 74.406018 
L 80.672166 74.861818 
L 85.743096 75.066429 
L 90.849879 75.016619 
L 95.934263 74.712419 
L 100.938342 74.157129 
L 105.805447 73.35725 
L 110.481 72.322351 
L 114.913319 71.064887 
L 119.054334 69.599951 
L 122.86022 67.944997 
L 126.29192 66.119522 
L 129.315549 64.144721 
L 131.902691 62.04314 
L 134.030578 59.838314 
L 135.682155 57.55442 
L 136.846052 55.21594 
L 137.516459 52.847344 
L 137.692929 50.4728 
L 137.380118 48.115918 
L 136.587471 45.799516 
L 135.328879 43.545426 
L 133.62231 41.374332 
L 131.48943 39.305629 
L 128.955223 37.357327 
L 126.047616 35.54596 
L 122.797121 33.886534 
L 119.236491 32.392485 
L 115.4004 31.075651 
L 111.325142 29.946264 
L 107.048359 29.01294 
L 102.608782 28.282682 
L 98.045994 27.760884 
L 93.400214 27.451336 
L 88.712087 27.356229 
L 84.022487 27.476159 
L 79.372317 27.810124 
L 74.802322 28.355527 
L 70.35288 29.108169 
L 66.063797 30.062245 
L 61.974084 31.210337 
L 58.121712 32.543413 
L 54.543355 34.050822 
L 51.274106 35.720305 
L 48.34717 37.538008 
L 45.793536 39.488509 
L 43.641624 41.554865 
L 41.916915 43.718672 
L 40.641569 45.960153 
L 39.834033 48.258268 
L 39.508651 50.590857 
L 39.675287 52.934812 
L 40.338969 55.266279 
L 41.499567 57.560895 
L 43.151532 59.794059 
L 45.283683 61.941224 
L 47.879086 63.978224 
L 50.915017 65.881611 
L 54.363035 67.629016 
L 58.189157 69.199499 
L 62.354158 70.573912 
L 66.813985 71.735229 
L 71.520288 72.668864 
L 76.421052 73.362943 
L 81.461333 73.808539 
L 86.584066 73.999846 
L 91.730925 73.934296 
L 96.843231 73.612614 
L 101.862855 73.038799 
L 106.73311 72.220044 
L 111.39961 71.166597 
L 115.811052 69.891553 
L 119.919927 68.410607 
L 123.68313 66.741757 
L 127.062456 64.904982 
L 130.024989 62.921894 
L 132.543368 60.815382 
L 134.59594 58.609254 
L 136.166804 56.327883 
L 137.245755 53.995882 
L 137.828142 51.637781 
L 137.914653 49.277753 
L 137.511036 46.939351 
L 136.627774 44.64529 
L 135.279735 42.417257 
L 133.485795 40.275753 
L 131.268454 38.239962 
L 128.653452 36.327656 
L 125.669399 34.555116 
L 122.347416 32.937078 
L 118.720791 31.486697 
L 114.824668 30.215528 
L 110.695747 29.13351 
L 106.372014 28.248966 
L 101.892488 27.568607 
L 97.296991 27.097533 
L 92.62593 26.83924 
L 87.920093 26.795628 
L 83.220449 26.966999 
L 78.567961 27.35206 
L 74.003383 27.947922 
L 69.567064 28.750092 
L 65.298735 29.752473 
L 61.237285 30.947353 
L 57.420513 32.325403 
L 53.88487 33.875681 
L 50.665168 35.585635 
L 47.794271 37.441122 
L 45.302762 39.426437 
L 43.218586 41.524362 
L 41.56668 43.716232 
L 40.368586 45.982024 
L 39.642058 48.300475 
L 39.400677 50.649229 
L 39.65347 53.005013 
L 40.404566 55.343846 
L 41.652878 57.641283 
L 43.39185 59.87269 
L 45.60926 62.013543 
L 48.287113 64.039755 
L 51.401625 65.928023 
L 54.923306 67.656182 
L 58.817165 69.203563 
L 63.043028 70.551351 
L 67.555973 71.682911 
L 72.306879 72.584103 
L 77.243085 73.243545 
L 82.309131 73.652841 
L 87.447588 73.806743 
L 92.599923 73.703259 
L 97.707411 73.343694 
L 102.71204 72.732622 
L 107.557401 71.877795 
L 112.18953 70.789986 
L 116.557687 69.482782 
L 120.615049 67.972319 
L 124.319295 66.276986 
L 127.633092 64.417093 
L 130.524458 62.414521 
L 132.967008 60.292366 
L 134.940086 58.074581 
L 136.428792 55.785626 
L 137.423909 53.450138 
L 137.921746 51.092625 
L 137.92391 48.737186 
L 137.437015 46.407259 
L 136.472359 44.125408 
L 135.045558 41.913137 
L 133.176169 39.790738 
L 130.887309 37.777167 
L 128.205268 35.889952 
L 125.159145 34.145115 
L 121.780482 32.557129 
L 118.102937 31.138879 
L 114.161966 29.901645 
L 109.994532 28.855092 
L 105.638835 28.007269 
L 101.134071 27.36461 
L 96.520192 26.931942 
L 91.837702 26.712489 
L 87.127449 26.707876 
L 82.430429 26.918135 
L 77.787593 27.3417 
L 73.239652 27.975408 
L 68.826876 28.814496 
L 64.588877 29.852588 
L 60.564384 31.081699 
L 56.790994 32.492224 
L 53.304905 34.072946 
L 50.140627 35.81104 
L 47.330665 37.692094 
L 44.905183 39.70014 
L 42.891646 41.817709 
L 41.314445 44.025896 
L 40.194507 46.304455 
L 39.548907 48.631926 
L 39.390478 50.98578 
L 39.727439 53.342606 
L 40.563052 55.678323 
L 41.895315 57.96843 
L 43.716718 60.188287 
L 46.01406 62.313417 
L 48.768355 64.319836 
L 51.954832 66.184407 
L 55.543043 67.885189 
L 59.497081 69.4018 
L 63.775921 70.715769 
L 68.333874 71.81086 
L 73.121157 72.673381 
L 78.084566 73.292441 
L 83.168233 73.660165 
L 88.314466 73.771851 
L 93.464621 73.626066 
L 98.560016 73.224672 
L 103.542837 72.572792 
L 108.357019 71.678703 
L 112.949083 70.553674 
L 117.268896 69.211746 
L 121.27035 67.669462 
L 124.911934 65.945564 
L 128.157192 64.060656 
L 130.975072 62.036854 
L 133.340151 59.897427 
L 135.232748 57.666443 
L 136.638933 55.368416 
L 137.550438 53.027989 
L 137.964489 50.66962 
L 137.883564 48.317316 
L 137.315099 45.994386 
L 136.271152 43.723228 
L 134.768035 41.525154 
L 132.825941 39.420239 
L 130.468553 37.427206 
L 127.722669 35.563333 
L 124.617827 33.844386 
L 121.185957 32.284573 
L 117.461045 30.896509 
L 113.478825 29.691202 
L 109.276492 28.678045 
L 104.892436 27.864814 
L 100.365996 27.257673 
L 95.737238 26.861178 
L 91.04674 26.678283 
L 86.33539 26.710344 
L 81.644193 26.957124 
L 77.014077 27.416788 
L 72.485693 28.085903 
L 68.099218 28.959435 
L 63.894133 30.030738 
L 59.908995 31.291553 
L 56.181186 32.732004 
L 52.746643 34.340601 
L 49.63956 36.10425 
L 46.892074 38.008274 
L 44.53392 40.036449 
L 42.592073 42.171057 
L 41.090367 44.39296 
L 40.049109 46.681698 
L 39.484687 49.015618 
L 39.409181 51.37203 
L 39.829999 53.727392 
L 40.749536 56.057534 
L 42.164878 58.337913 
L 44.067564 60.54389 
L 46.443423 62.651048 
L 49.272492 64.635522 
L 52.52903 66.474349 
L 56.18165 68.145824 
L 60.193555 69.629865 
L 64.522896 70.908352 
L 69.12325 71.965458 
L 73.944207 72.787944 
L 78.932056 73.365414 
L 84.030559 73.690517 
L 89.181798 73.759098 
L 94.327056 73.570277 
L 99.407734 73.126471 
L 104.366248 72.433341 
L 109.146909 71.499684 
L 109.146909 71.499684 
" clip-path="url(#pdc36edeaf4)" style="fill: none; stroke: #ff7f0e; stroke-opacity: 0.5; stroke-width: 1.5; stroke-linecap: round"/>
   </g>
  </g>
 </g>
 <defs>
  <clipPath id="pdc36edeaf4">
   <rect x="-1.8" y="-7.2" width="176.4" height="176.4"/>
  </clipPath>
 </defs>
</svg>
