<?xml version="1.0" encoding="utf-8" standalone="no"?>
<!DOCTYPE svg PUBLIC "-//W3C//DTD SVG 1.1//EN"
  "http://www.w3.org/Graphics/SVG/1.1/DTD/svg11.dtd">
<svg xmlns:xlink="http://www.w3.org/1999/xlink" width="216pt" height="180pt" viewBox="0 0 216 180" xmlns="http://www.w3.org/2000/svg" version="1.1">
 <metadata>
  <rdf:RDF xmlns:dc="http://purl.org/dc/elements/1.1/" xmlns:cc="http://creativecommons.org/ns#" xmlns:rdf="http://www.w3.org/1999/02/22-rdf-syntax-ns#">
   <cc:Work>
    <dc:type rdf:resource="http://purl.org/dc/dcmitype/StillImage"/>
    <dc:date>2023-06-14T18:46:27.163910</dc:date>
    <dc:format>image/svg+xml</dc:format>
    <dc:creator>
     <cc:Agent>
      <dc:title>Matplotlib v3.7.0, https://matplotlib.org/</dc:title>
     </cc:Agent>
    </dc:creator>
   </cc:Work>
  </rdf:RDF>
 </metadata>
 <defs>
  <style type="text/css">*{stroke-linejoin: round; stroke-linecap: butt}</style>
 </defs>
 <g id="figure_1">
  <g id="patch_1">
   <path d="M 0 180 
L 216 180 
L 216 0 
L 0 0 
z
" style="fill: #ffffff"/>
  </g>
  <g id="patch_2">
   <path d="M -1 169.2 
L 174.6 169.2 
L 174.6 -1 
" style="fill: none"/>
  </g>
  <g id="pane3d_1">
   <g id="patch_3">
    <path d="M 11.519416 125.705413 
L 69.772457 76.876559 
L 68.962684 6.456623 
L 7.921935 51.001381 
" style="fill: none; opacity: 0.5; stroke: #f2f2f2; stroke-linejoin: miter"/>
   </g>
  </g>
  <g id="pane3d_2">
   <g id="patch_4">
    <path d="M 69.772457 76.876559 
L 163.247803 104.046152 
L 166.583609 31.200681 
L 68.962684 6.456623 
" style="fill: none; opacity: 0.5; stroke: #e6e6e6; stroke-linejoin: miter"/>
   </g>
  </g>
  <g id="pane3d_3">
   <g id="patch_5">
    <path d="M 11.519416 125.705413 
L 110.607849 158.067695 
L 163.247803 104.046152 
L 69.772457 76.876559 
" style="fill: none; opacity: 0.5; stroke: #ececec; stroke-linejoin: miter"/>
   </g>
  </g>
  <g id="axis3d_1">
   <g id="line2d_1">
    <path d="M 11.519416 125.705413 
L 110.607849 158.067695 
" style="fill: none; stroke: #ffffff; stroke-width: 0.8; stroke-linecap: round"/>
   </g>
   <g id="text_1">
    <!-- x -->
    <g style="fill: #262626" transform="translate(40.437569 179.640981) scale(0.1 -0.1)">
     <defs>
      <path id="DejaVuSans-78" d="M 3513 3500 
L 2247 1797 
L 3578 0 
L 2900 0 
L 1881 1375 
L 863 0 
L 184 0 
L 1544 1831 
L 300 3500 
L 978 3500 
L 1906 2253 
L 2834 3500 
L 3513 3500 
z
" transform="scale(0.015625)"/>
     </defs>
     <use xlink:href="#DejaVuSans-78"/>
    </g>
   </g>
   <g id="Line3DCollection_1">
    <path d="M 19.44564 128.294118 
L 77.28011 79.058737 
L 76.788088 8.440135 
" style="fill: none; stroke: #d3d3d3; stroke-width: 0.8"/>
    <path d="M 39.163754 134.734054 
L 95.933916 84.480662 
L 96.242873 13.371355 
" style="fill: none; stroke: #d3d3d3; stroke-width: 0.8"/>
    <path d="M 59.309602 141.313688 
L 114.958514 90.010362 
L 116.101255 18.404876 
" style="fill: none; stroke: #d3d3d3; stroke-width: 0.8"/>
    <path d="M 79.897255 148.037615 
L 134.365071 95.651082 
L 136.375924 23.543914 
" style="fill: none; stroke: #d3d3d3; stroke-width: 0.8"/>
    <path d="M 100.941407 154.910635 
L 154.165207 101.4062 
L 157.08011 28.791822 
" style="fill: none; stroke: #d3d3d3; stroke-width: 0.8"/>
   </g>
   <g id="xtick_1">
    <g id="line2d_2">
     <path d="M 88.783784 78.616216 
" clip-path="url(#pdf2727f348)" style="fill: none; stroke: #d3d3d3; stroke-width: 0.8; stroke-linecap: round"/>
    </g>
    <g id="line2d_3">
     <path d="M 19.949302 127.865342 
L 18.436152 129.153511 
" style="fill: none; stroke: #808080; stroke-width: 0.8; stroke-linecap: round"/>
    </g>
    <g id="text_2">
     <!-- −0.4 -->
     <g style="fill: #808080" transform="translate(-0.236204 151.653158) scale(0.1 -0.1)">
      <defs>
       <path id="DejaVuSans-2212" d="M 678 2272 
L 4684 2272 
L 4684 1741 
L 678 1741 
L 678 2272 
z
" transform="scale(0.015625)"/>
       <path id="DejaVuSans-30" d="M 2034 4250 
Q 1547 4250 1301 3770 
Q 1056 3291 1056 2328 
Q 1056 1369 1301 889 
Q 1547 409 2034 409 
Q 2525 409 2770 889 
Q 3016 1369 3016 2328 
Q 3016 3291 2770 3770 
Q 2525 4250 2034 4250 
z
M 2034 4750 
Q 2819 4750 3233 4129 
Q 3647 3509 3647 2328 
Q 3647 1150 3233 529 
Q 2819 -91 2034 -91 
Q 1250 -91 836 529 
Q 422 1150 422 2328 
Q 422 3509 836 4129 
Q 1250 4750 2034 4750 
z
" transform="scale(0.015625)"/>
       <path id="DejaVuSans-2e" d="M 684 794 
L 1344 794 
L 1344 0 
L 684 0 
L 684 794 
z
" transform="scale(0.015625)"/>
       <path id="DejaVuSans-34" d="M 2419 4116 
L 825 1625 
L 2419 1625 
L 2419 4116 
z
M 2253 4666 
L 3047 4666 
L 3047 1625 
L 3713 1625 
L 3713 1100 
L 3047 1100 
L 3047 0 
L 2419 0 
L 2419 1100 
L 313 1100 
L 313 1709 
L 2253 4666 
z
" transform="scale(0.015625)"/>
      </defs>
      <use xlink:href="#DejaVuSans-2212"/>
      <use xlink:href="#DejaVuSans-30" x="83.789062"/>
      <use xlink:href="#DejaVuSans-2e" x="147.412109"/>
      <use xlink:href="#DejaVuSans-34" x="179.199219"/>
     </g>
    </g>
   </g>
   <g id="xtick_2">
    <g id="line2d_4">
     <path d="M 88.783784 78.616216 
" clip-path="url(#pdf2727f348)" style="fill: none; stroke: #d3d3d3; stroke-width: 0.8; stroke-linecap: round"/>
    </g>
    <g id="line2d_5">
     <path d="M 39.658579 134.296031 
L 38.171956 135.612001 
" style="fill: none; stroke: #808080; stroke-width: 0.8; stroke-linecap: round"/>
    </g>
    <g id="text_3">
     <!-- −0.2 -->
     <g style="fill: #808080" transform="translate(19.51264 158.299775) scale(0.1 -0.1)">
      <defs>
       <path id="DejaVuSans-32" d="M 1228 531 
L 3431 531 
L 3431 0 
L 469 0 
L 469 531 
Q 828 903 1448 1529 
Q 2069 2156 2228 2338 
Q 2531 2678 2651 2914 
Q 2772 3150 2772 3378 
Q 2772 3750 2511 3984 
Q 2250 4219 1831 4219 
Q 1534 4219 1204 4116 
Q 875 4013 500 3803 
L 500 4441 
Q 881 4594 1212 4672 
Q 1544 4750 1819 4750 
Q 2544 4750 2975 4387 
Q 3406 4025 3406 3419 
Q 3406 3131 3298 2873 
Q 3191 2616 2906 2266 
Q 2828 2175 2409 1742 
Q 1991 1309 1228 531 
z
" transform="scale(0.015625)"/>
      </defs>
      <use xlink:href="#DejaVuSans-2212"/>
      <use xlink:href="#DejaVuSans-30" x="83.789062"/>
      <use xlink:href="#DejaVuSans-2e" x="147.412109"/>
      <use xlink:href="#DejaVuSans-32" x="179.199219"/>
     </g>
    </g>
   </g>
   <g id="xtick_3">
    <g id="line2d_6">
     <path d="M 88.783784 78.616216 
" clip-path="url(#pdf2727f348)" style="fill: none; stroke: #d3d3d3; stroke-width: 0.8; stroke-linecap: round"/>
    </g>
    <g id="line2d_7">
     <path d="M 59.795086 140.866115 
L 58.336504 142.210797 
" style="fill: none; stroke: #808080; stroke-width: 0.8; stroke-linecap: round"/>
    </g>
    <g id="text_4">
     <!-- 0.0 -->
     <g style="fill: #808080" transform="translate(43.88219 165.091402) scale(0.1 -0.1)">
      <use xlink:href="#DejaVuSans-30"/>
      <use xlink:href="#DejaVuSans-2e" x="63.623047"/>
      <use xlink:href="#DejaVuSans-30" x="95.410156"/>
     </g>
    </g>
   </g>
   <g id="xtick_4">
    <g id="line2d_8">
     <path d="M 88.783784 78.616216 
" clip-path="url(#pdf2727f348)" style="fill: none; stroke: #d3d3d3; stroke-width: 0.8; stroke-linecap: round"/>
    </g>
    <g id="line2d_9">
     <path d="M 80.372867 147.580177 
L 78.943921 148.954521 
" style="fill: none; stroke: #808080; stroke-width: 0.8; stroke-linecap: round"/>
    </g>
    <g id="text_5">
     <!-- 0.2 -->
     <g style="fill: #808080" transform="translate(64.507014 172.032837) scale(0.1 -0.1)">
      <use xlink:href="#DejaVuSans-30"/>
      <use xlink:href="#DejaVuSans-2e" x="63.623047"/>
      <use xlink:href="#DejaVuSans-32" x="95.410156"/>
     </g>
    </g>
   </g>
   <g id="xtick_5">
    <g id="line2d_10">
     <path d="M 88.783784 78.616216 
" clip-path="url(#pdf2727f348)" style="fill: none; stroke: #d3d3d3; stroke-width: 0.8; stroke-linecap: round"/>
    </g>
    <g id="line2d_11">
     <path d="M 101.406587 154.443001 
L 100.008958 155.848 
" style="fill: none; stroke: #808080; stroke-width: 0.8; stroke-linecap: round"/>
    </g>
    <g id="text_6">
     <!-- 0.4 -->
     <g style="fill: #808080" transform="translate(85.591849 179.129092) scale(0.1 -0.1)">
      <use xlink:href="#DejaVuSans-30"/>
      <use xlink:href="#DejaVuSans-2e" x="63.623047"/>
      <use xlink:href="#DejaVuSans-34" x="95.410156"/>
     </g>
    </g>
   </g>
  </g>
  <g id="axis3d_2">
   <g id="line2d_12">
    <path d="M 163.247803 104.046152 
L 110.607849 158.067695 
" style="fill: none; stroke: #ffffff; stroke-width: 0.8; stroke-linecap: round"/>
   </g>
   <g id="text_7">
    <!-- y -->
    <g style="fill: #262626" transform="translate(162.133934 160.636398) scale(0.1 -0.1)">
     <defs>
      <path id="DejaVuSans-79" d="M 2059 -325 
Q 1816 -950 1584 -1140 
Q 1353 -1331 966 -1331 
L 506 -1331 
L 506 -850 
L 844 -850 
Q 1081 -850 1212 -737 
Q 1344 -625 1503 -206 
L 1606 56 
L 191 3500 
L 800 3500 
L 1894 763 
L 2988 3500 
L 3597 3500 
L 2059 -325 
z
" transform="scale(0.015625)"/>
     </defs>
     <use xlink:href="#DejaVuSans-79"/>
    </g>
   </g>
   <g id="Line3DCollection_2">
    <path d="M 12.320709 47.791357 
L 15.702532 122.199043 
L 114.403412 154.172513 
" style="fill: none; stroke: #d3d3d3; stroke-width: 0.8"/>
    <path d="M 26.206362 37.658239 
L 28.922425 111.117867 
L 126.382688 141.878829 
" style="fill: none; stroke: #d3d3d3; stroke-width: 0.8"/>
    <path d="M 39.560872 27.912726 
L 41.658187 100.442499 
L 137.900565 130.058653 
" style="fill: none; stroke: #d3d3d3; stroke-width: 0.8"/>
    <path d="M 52.414143 18.532994 
L 53.935934 90.151047 
L 148.983198 118.685146 
" style="fill: none; stroke: #d3d3d3; stroke-width: 0.8"/>
    <path d="M 64.793874 9.49883 
L 65.779937 80.223169 
L 159.654799 107.733458 
" style="fill: none; stroke: #d3d3d3; stroke-width: 0.8"/>
   </g>
   <g id="xtick_6">
    <g id="line2d_13">
     <path d="M 88.783784 78.616216 
" clip-path="url(#pdf2727f348)" style="fill: none; stroke: #d3d3d3; stroke-width: 0.8; stroke-linecap: round"/>
    </g>
    <g id="line2d_14">
     <path d="M 113.571667 153.903075 
L 116.069052 154.712086 
" style="fill: none; stroke: #808080; stroke-width: 0.8; stroke-linecap: round"/>
    </g>
    <g id="text_8">
     <!-- −0.4 -->
     <g style="fill: #808080" transform="translate(115.143462 175.194814) scale(0.1 -0.1)">
      <use xlink:href="#DejaVuSans-2212"/>
      <use xlink:href="#DejaVuSans-30" x="83.789062"/>
      <use xlink:href="#DejaVuSans-2e" x="147.412109"/>
      <use xlink:href="#DejaVuSans-34" x="179.199219"/>
     </g>
    </g>
   </g>
   <g id="xtick_7">
    <g id="line2d_15">
     <path d="M 88.783784 78.616216 
" clip-path="url(#pdf2727f348)" style="fill: none; stroke: #d3d3d3; stroke-width: 0.8; stroke-linecap: round"/>
    </g>
    <g id="line2d_16">
     <path d="M 125.562215 141.619867 
L 128.025714 142.397411 
" style="fill: none; stroke: #808080; stroke-width: 0.8; stroke-linecap: round"/>
    </g>
    <g id="text_9">
     <!-- −0.2 -->
     <g style="fill: #808080" transform="translate(126.880178 162.626414) scale(0.1 -0.1)">
      <use xlink:href="#DejaVuSans-2212"/>
      <use xlink:href="#DejaVuSans-30" x="83.789062"/>
      <use xlink:href="#DejaVuSans-2e" x="147.412109"/>
      <use xlink:href="#DejaVuSans-32" x="179.199219"/>
     </g>
    </g>
   </g>
   <g id="xtick_8">
    <g id="line2d_17">
     <path d="M 88.783784 78.616216 
" clip-path="url(#pdf2727f348)" style="fill: none; stroke: #d3d3d3; stroke-width: 0.8; stroke-linecap: round"/>
    </g>
    <g id="line2d_18">
     <path d="M 137.09112 129.809567 
L 139.521468 130.557445 
" style="fill: none; stroke: #808080; stroke-width: 0.8; stroke-linecap: round"/>
    </g>
    <g id="text_10">
     <!-- 0.0 -->
     <g style="fill: #808080" transform="translate(142.354289 150.542523) scale(0.1 -0.1)">
      <use xlink:href="#DejaVuSans-30"/>
      <use xlink:href="#DejaVuSans-2e" x="63.623047"/>
      <use xlink:href="#DejaVuSans-30" x="95.410156"/>
     </g>
    </g>
   </g>
   <g id="xtick_9">
    <g id="line2d_19">
     <path d="M 88.783784 78.616216 
" clip-path="url(#pdf2727f348)" style="fill: none; stroke: #d3d3d3; stroke-width: 0.8; stroke-linecap: round"/>
    </g>
    <g id="line2d_20">
     <path d="M 148.184541 118.445382 
L 150.582459 119.16526 
" style="fill: none; stroke: #808080; stroke-width: 0.8; stroke-linecap: round"/>
    </g>
    <g id="text_11">
     <!-- 0.2 -->
     <g style="fill: #808080" transform="translate(153.211776 138.915656) scale(0.1 -0.1)">
      <use xlink:href="#DejaVuSans-30"/>
      <use xlink:href="#DejaVuSans-2e" x="63.623047"/>
      <use xlink:href="#DejaVuSans-32" x="95.410156"/>
     </g>
    </g>
   </g>
   <g id="xtick_10">
    <g id="line2d_21">
     <path d="M 88.783784 78.616216 
" clip-path="url(#pdf2727f348)" style="fill: none; stroke: #d3d3d3; stroke-width: 0.8; stroke-linecap: round"/>
    </g>
    <g id="line2d_22">
     <path d="M 158.866694 107.502502 
L 161.232895 108.195923 
" style="fill: none; stroke: #808080; stroke-width: 0.8; stroke-linecap: round"/>
    </g>
    <g id="text_12">
     <!-- 0.4 -->
     <g style="fill: #808080" transform="translate(163.666245 127.720365) scale(0.1 -0.1)">
      <use xlink:href="#DejaVuSans-30"/>
      <use xlink:href="#DejaVuSans-2e" x="63.623047"/>
      <use xlink:href="#DejaVuSans-34" x="95.410156"/>
     </g>
    </g>
   </g>
  </g>
  <g id="axis3d_3">
   <g id="line2d_23">
    <path d="M 163.247803 104.046152 
L 166.583609 31.200681 
" style="fill: none; stroke: #ffffff; stroke-width: 0.8; stroke-linecap: round"/>
   </g>
   <g id="text_13">
    <!-- z -->
    <g style="fill: #262626" transform="translate(202.494937 65.789607) scale(0.1 -0.1)">
     <defs>
      <path id="DejaVuSans-7a" d="M 353 3500 
L 3084 3500 
L 3084 2975 
L 922 459 
L 3084 459 
L 3084 0 
L 275 0 
L 275 525 
L 2438 3041 
L 353 3041 
L 353 3500 
z
" transform="scale(0.015625)"/>
     </defs>
     <use xlink:href="#DejaVuSans-7a"/>
    </g>
   </g>
   <g id="Line3DCollection_3">
    <path d="M 164.052268 86.478708 
L 69.576859 59.866838 
L 10.652956 107.712798 
" style="fill: none; stroke: #d3d3d3; stroke-width: 0.8"/>
    <path d="M 164.807924 69.977107 
L 69.39331 43.904898 
L 9.838423 90.798496 
" style="fill: none; stroke: #d3d3d3; stroke-width: 0.8"/>
    <path d="M 165.578907 53.140812 
L 69.206218 27.634937 
L 9.006728 73.527807 
" style="fill: none; stroke: #d3d3d3; stroke-width: 0.8"/>
    <path d="M 166.365687 35.959535 
L 69.015481 11.047952 
L 8.157322 55.889348 
" style="fill: none; stroke: #d3d3d3; stroke-width: 0.8"/>
   </g>
   <g id="xtick_11">
    <g id="line2d_24">
     <path d="M 88.783784 78.616216 
" style="fill: none; stroke: #d3d3d3; stroke-width: 0.8; stroke-linecap: round"/>
    </g>
    <g id="line2d_25">
     <path d="M 163.258958 86.255248 
L 165.640794 86.926164 
" style="fill: none; stroke: #808080; stroke-width: 0.8; stroke-linecap: round"/>
    </g>
    <g id="text_14">
     <!-- 0.025 -->
     <g style="fill: #808080" transform="translate(168.151338 91.528332) scale(0.1 -0.1)">
      <defs>
       <path id="DejaVuSans-35" d="M 691 4666 
L 3169 4666 
L 3169 4134 
L 1269 4134 
L 1269 2991 
Q 1406 3038 1543 3061 
Q 1681 3084 1819 3084 
Q 2600 3084 3056 2656 
Q 3513 2228 3513 1497 
Q 3513 744 3044 326 
Q 2575 -91 1722 -91 
Q 1428 -91 1123 -41 
Q 819 9 494 109 
L 494 744 
Q 775 591 1075 516 
Q 1375 441 1709 441 
Q 2250 441 2565 725 
Q 2881 1009 2881 1497 
Q 2881 1984 2565 2268 
Q 2250 2553 1709 2553 
Q 1456 2553 1204 2497 
Q 953 2441 691 2322 
L 691 4666 
z
" transform="scale(0.015625)"/>
      </defs>
      <use xlink:href="#DejaVuSans-30"/>
      <use xlink:href="#DejaVuSans-2e" x="63.623047"/>
      <use xlink:href="#DejaVuSans-30" x="95.410156"/>
      <use xlink:href="#DejaVuSans-32" x="159.033203"/>
      <use xlink:href="#DejaVuSans-35" x="222.65625"/>
     </g>
    </g>
   </g>
   <g id="xtick_12">
    <g id="line2d_26">
     <path d="M 88.783784 78.616216 
" style="fill: none; stroke: #d3d3d3; stroke-width: 0.8; stroke-linecap: round"/>
    </g>
    <g id="line2d_27">
     <path d="M 164.006348 69.758075 
L 166.413023 70.415703 
" style="fill: none; stroke: #808080; stroke-width: 0.8; stroke-linecap: round"/>
    </g>
    <g id="text_15">
     <!-- 0.050 -->
     <g style="fill: #808080" transform="translate(169.087516 75.077339) scale(0.1 -0.1)">
      <use xlink:href="#DejaVuSans-30"/>
      <use xlink:href="#DejaVuSans-2e" x="63.623047"/>
      <use xlink:href="#DejaVuSans-30" x="95.410156"/>
      <use xlink:href="#DejaVuSans-35" x="159.033203"/>
      <use xlink:href="#DejaVuSans-30" x="222.65625"/>
     </g>
    </g>
   </g>
   <g id="xtick_13">
    <g id="line2d_28">
     <path d="M 88.783784 78.616216 
" style="fill: none; stroke: #d3d3d3; stroke-width: 0.8; stroke-linecap: round"/>
    </g>
    <g id="line2d_29">
     <path d="M 164.76889 52.926434 
L 167.200927 53.570094 
" style="fill: none; stroke: #808080; stroke-width: 0.8; stroke-linecap: round"/>
    </g>
    <g id="text_16">
     <!-- 0.075 -->
     <g style="fill: #808080" transform="translate(170.042594 58.294231) scale(0.1 -0.1)">
      <defs>
       <path id="DejaVuSans-37" d="M 525 4666 
L 3525 4666 
L 3525 4397 
L 1831 0 
L 1172 0 
L 2766 4134 
L 525 4134 
L 525 4666 
z
" transform="scale(0.015625)"/>
      </defs>
      <use xlink:href="#DejaVuSans-30"/>
      <use xlink:href="#DejaVuSans-2e" x="63.623047"/>
      <use xlink:href="#DejaVuSans-30" x="95.410156"/>
      <use xlink:href="#DejaVuSans-37" x="159.033203"/>
      <use xlink:href="#DejaVuSans-35" x="222.65625"/>
     </g>
    </g>
   </g>
   <g id="xtick_14">
    <g id="line2d_30">
     <path d="M 88.783784 78.616216 
" style="fill: none; stroke: #d3d3d3; stroke-width: 0.8; stroke-linecap: round"/>
    </g>
    <g id="line2d_31">
     <path d="M 165.547051 35.750049 
L 168.004989 36.379027 
" style="fill: none; stroke: #808080; stroke-width: 0.8; stroke-linecap: round"/>
    </g>
    <g id="text_17">
     <!-- 0.100 -->
     <g style="fill: #808080" transform="translate(171.01715 41.168849) scale(0.1 -0.1)">
      <defs>
       <path id="DejaVuSans-31" d="M 794 531 
L 1825 531 
L 1825 4091 
L 703 3866 
L 703 4441 
L 1819 4666 
L 2450 4666 
L 2450 531 
L 3481 531 
L 3481 0 
L 794 0 
L 794 531 
z
" transform="scale(0.015625)"/>
      </defs>
      <use xlink:href="#DejaVuSans-30"/>
      <use xlink:href="#DejaVuSans-2e" x="63.623047"/>
      <use xlink:href="#DejaVuSans-31" x="95.410156"/>
      <use xlink:href="#DejaVuSans-30" x="159.033203"/>
      <use xlink:href="#DejaVuSans-30" x="222.65625"/>
     </g>
    </g>
   </g>
  </g>
  <g id="axes_1">
   <g id="line2d_32">
    <path d="M 88.205932 45.822629 
L 88.195032 45.769712 
L 88.149564 45.753942 
L 87.752773 45.814807 
L 87.215594 46.132031 
L 86.913964 46.531195 
L 86.817506 47.021106 
L 86.960483 47.543657 
L 87.364083 48.131244 
L 88.192215 49.219086 
L 88.258044 49.772023 
L 88.086285 50.49255 
L 87.094981 53.695879 
L 86.893121 55.411937 
L 86.93253 57.352814 
L 87.209991 59.458213 
L 88.480818 67.176077 
L 88.501145 69.288903 
L 88.284174 71.97873 
L 87.636601 76.373344 
L 87.094793 80.582328 
L 86.943157 83.273426 
L 87.002668 85.929874 
L 87.277464 88.474425 
L 87.822371 91.279036 
L 89.129984 97.037758 
L 89.115543 98.421427 
L 88.830199 99.720618 
L 88.209684 101.256585 
L 86.95963 104.162728 
L 86.680829 105.494765 
L 86.692661 106.518183 
L 86.931041 107.460722 
L 87.375589 108.277817 
L 87.971707 108.929211 
L 88.802113 109.473555 
L 89.663919 109.744408 
L 90.087999 109.711043 
L 90.050477 109.67762 
L 89.631804 109.633052 
L 88.615881 109.765352 
L 87.548022 110.094222 
L 86.540771 110.628884 
L 85.952152 111.183289 
L 85.711449 111.650731 
L 85.679038 112.137805 
L 85.869566 112.614971 
L 86.2786 113.046981 
L 86.881899 113.395891 
L 87.63639 113.625897 
L 88.773469 113.701645 
L 89.902589 113.493148 
L 90.634436 113.167759 
L 91.187534 112.734819 
L 91.502786 112.242558 
L 91.539677 111.745085 
L 91.280744 111.294287 
L 90.733996 110.932927 
L 89.933158 110.690531 
L 88.57263 110.577833 
L 87.054589 110.711204 
L 85.607165 111.079984 
L 84.709953 111.499843 
L 84.074896 112.02865 
L 83.833518 112.431318 
L 83.756147 112.862848 
L 83.852001 113.309773 
L 84.123796 113.755019 
L 84.850447 114.374526 
L 85.918978 114.866501 
L 87.253099 115.153124 
L 88.747853 115.17114 
L 90.27709 114.887093 
L 91.70369 114.30839 
L 92.89201 113.486258 
L 93.491211 112.845321 
L 93.900844 112.166976 
L 94.098376 111.484833 
L 94.069249 110.831189 
L 93.80757 110.234464 
L 93.316416 109.71722 
L 92.607789 109.294978 
L 91.702265 108.975997 
L 90.039261 108.693481 
L 88.124848 108.633022 
L 86.112956 108.773009 
L 84.175361 109.098556 
L 82.488472 109.608898 
L 81.585809 110.055933 
L 80.911562 110.590344 
L 80.501126 111.209201 
L 80.380625 111.902358 
L 80.565556 112.650285 
L 81.05988 113.423021 
L 81.855586 114.180534 
L 82.932648 114.874598 
L 84.259344 115.452144 
L 85.792892 115.859881 
L 87.48042 116.049769 
L 89.26035 115.984761 
L 91.064265 115.644022 
L 92.819363 115.026789 
L 94.451487 114.154073 
L 95.888621 113.067739 
L 97.064603 111.826904 
L 97.922691 110.502099 
L 98.418595 109.168044 
L 98.522635 107.89608 
L 98.220884 106.747293 
L 97.515325 105.767164 
L 96.423238 104.982359 
L 94.976138 104.399994 
L 93.218545 104.009539 
L 91.206776 103.787248 
L 87.861643 103.702623 
L 84.361586 103.837812 
L 81.004618 104.159112 
L 78.999822 104.495977 
L 77.285994 104.963108 
L 75.944026 105.59277 
L 75.042153 106.4107 
L 74.77316 106.894134 
L 74.632168 107.426554 
L 74.622659 108.005438 
L 74.746836 108.626504 
L 75.005617 109.283664 
L 75.924272 110.672966 
L 77.360694 112.090084 
L 79.277548 113.428799 
L 81.618917 114.567749 
L 82.926406 115.022907 
L 84.310973 115.381497 
L 85.760698 115.62949 
L 87.26264 115.754443 
L 88.802889 115.74599 
L 90.366645 115.5963 
L 91.938315 115.300475 
L 93.501651 114.856869 
L 95.039921 114.267286 
L 96.536116 113.537066 
L 97.973188 112.675015 
L 99.334319 111.693205 
L 100.603209 110.606624 
L 101.764371 109.432725 
L 102.803418 108.190858 
L 103.707331 106.901656 
L 104.464694 105.586377 
L 105.065875 104.266258 
L 105.503159 102.961884 
L 105.770817 101.692627 
L 105.865118 100.476141 
L 105.784281 99.327944 
L 105.528392 98.261083 
L 105.099275 97.285883 
L 104.500352 96.409776 
L 103.736488 95.637214 
L 102.813852 94.969658 
L 101.739779 94.405647 
L 100.522666 93.940952 
L 99.171893 93.568817 
L 96.111527 93.064678 
L 92.652168 92.803858 
L 86.956983 92.656948 
L 75.432476 92.57499 
L 72.126522 92.700902 
L 69.356627 93.062725 
L 68.217584 93.367847 
L 67.263026 93.772035 
L 66.505717 94.284293 
L 65.956055 94.910358 
L 65.621974 95.652332 
L 65.508922 96.508491 
L 65.619931 97.473244 
L 65.95573 98.537196 
L 66.514911 99.687281 
L 67.29411 100.906948 
L 68.288178 102.176351 
L 69.490342 103.472577 
L 70.892325 104.769898 
L 72.484418 106.040082 
L 74.25551 107.252793 
L 76.193059 108.376107 
L 78.283024 109.377193 
L 80.509753 110.223159 
L 82.855859 110.882074 
L 85.302071 111.324153 
L 87.827121 111.523048 
L 90.40766 111.457186 
L 93.018245 111.111039 
L 95.631435 110.47624 
L 98.218 109.552407 
L 100.747288 108.347583 
L 103.18774 106.878221 
L 105.507557 105.168677 
L 107.675493 103.250228 
L 109.661721 101.159711 
L 111.438721 98.937874 
L 112.982109 96.627608 
L 114.271338 94.27219 
L 115.290206 91.913681 
L 116.027134 89.591565 
L 116.475193 87.341675 
L 116.631895 85.195426 
L 116.498793 83.179319 
L 116.080934 81.314669 
L 115.386245 79.617506 
L 114.424901 78.098588 
L 113.208744 76.763496 
L 111.750781 75.612771 
L 110.064805 74.642094 
L 108.165134 73.842527 
L 106.066497 73.20082 
L 103.784027 72.699858 
L 101.333381 72.319263 
L 95.994129 71.826568 
L 87.173863 71.405435 
L 74.902916 70.784271 
L 66.401314 70.405041 
L 63.891457 70.412997 
L 61.602809 70.536824 
L 59.567486 70.803215 
L 57.813783 71.234042 
L 56.365313 71.844874 
L 55.240439 72.644217 
L 54.452052 73.633452 
L 54.007678 74.807322 
L 53.909878 76.154777 
L 54.156857 77.659962 
L 54.743188 79.303177 
L 55.660571 81.061649 
L 56.898536 82.910061 
L 58.445035 84.820795 
L 60.286885 86.763933 
L 62.410048 88.707075 
L 64.799727 90.615074 
L 67.440307 92.449821 
L 70.315136 94.170206 
L 73.406177 95.732401 
L 76.693539 97.090568 
L 80.154927 98.198108 
L 83.765041 99.009442 
L 87.49497 99.482312 
L 91.311649 99.580425 
L 95.177452 99.276239 
L 99.050029 98.553538 
L 102.882476 97.409471 
L 106.623951 95.855695 
L 110.220781 93.918389 
L 113.618081 91.637042 
L 116.761812 89.062127 
L 119.601109 86.25195 
L 122.090644 83.269099 
L 124.192744 80.176946 
L 125.878987 77.036599 
L 127.131081 73.90455 
L 127.940927 70.831094 
L 128.30991 67.859492 
L 128.24757 65.025703 
L 127.769875 62.358522 
L 126.897344 59.879972 
L 125.653237 57.605788 
L 124.06199 55.54594 
L 122.147992 53.705115 
L 119.934751 52.083144 
L 117.444435 50.675378 
L 114.697754 49.473032 
L 111.71414 48.463539 
L 108.512148 47.630988 
L 105.110055 46.956703 
L 101.52659 46.420074 
L 93.89775 45.67469 
L 85.817049 45.241573 
L 77.537262 45.035354 
L 69.389419 45.086665 
L 65.48907 45.252749 
L 61.777058 45.547051 
L 58.308785 45.997491 
L 55.137607 46.629354 
L 52.312355 47.462056 
L 49.87506 48.506771 
L 47.859176 49.765215 
L 46.288541 51.229671 
L 45.177142 52.884061 
L 44.529679 54.705722 
L 44.34274 56.667512 
L 44.606385 58.739859 
L 45.305883 60.89252 
L 46.423377 63.09587 
L 47.939321 65.321659 
L 49.83359 67.543277 
L 52.086217 69.735563 
L 54.677764 71.874276 
L 57.58937 73.93533 
L 60.802504 75.893915 
L 64.298488 77.723657 
L 68.057816 79.395934 
L 72.059318 80.879525 
L 76.279211 82.140727 
L 80.690054 83.14406 
L 85.259685 83.853649 
L 89.950209 84.235246 
L 94.717142 84.258784 
L 99.50886 83.901177 
L 104.266537 83.149017 
L 108.924745 82.000719 
L 113.412878 80.467717 
L 117.657467 78.574475 
L 121.585328 76.357234 
L 125.127288 73.861745 
L 128.222083 71.140335 
L 130.819903 68.248798 
L 132.885046 65.243505 
L 134.397295 62.178989 
L 135.35183 59.106123 
L 135.757769 56.070856 
L 135.635651 53.113427 
L 135.014332 50.267974 
L 133.927752 47.562452 
L 132.411988 45.018808 
L 130.502863 42.653356 
L 128.23423 40.477288 
L 125.636957 38.497284 
L 122.738524 36.716143 
L 119.563142 35.133414 
L 116.13226 33.746 
L 112.465364 32.54874 
L 108.580979 31.534992 
L 104.497806 30.697262 
L 100.235951 30.027912 
L 95.818183 29.519979 
L 91.271184 29.168091 
L 86.626693 28.969409 
L 81.922464 28.924473 
L 77.20288 29.037753 
L 72.519101 29.3177 
L 67.928556 29.776111 
L 63.493698 30.426747 
L 59.279967 31.283282 
L 55.353069 32.356872 
L 51.775789 33.653735 
L 48.604733 35.173195 
L 45.887395 36.906543 
L 43.659984 38.836896 
L 41.946289 40.940011 
L 40.757683 43.185854 
L 40.094181 45.540593 
L 39.946285 47.968691 
L 40.29728 50.434812 
L 41.125613 52.905353 
L 42.407086 55.349498 
L 44.116634 57.739789 
L 46.229616 60.052256 
L 48.722585 62.26618 
L 51.573579 64.363587 
L 54.762007 66.328554 
L 58.268196 68.146425 
L 62.072683 69.802995 
L 66.15529 71.283754 
L 70.494061 72.573257 
L 75.06407 73.654703 
L 79.836182 74.509805 
L 84.775807 75.119032 
L 89.841748 75.462279 
L 94.98526 75.519977 
L 100.149495 75.274602 
L 105.269508 74.712449 
L 110.273047 73.825473 
L 115.082277 72.612937 
L 119.616511 71.082634 
L 123.795864 69.251463 
L 127.54554 67.145288 
L 130.800248 64.798062 
L 133.508163 62.250355 
L 135.633786 59.547439 
L 137.159276 56.737134 
L 138.084056 53.867613 
L 138.422842 50.985352 
L 138.202506 48.133382 
L 137.458345 45.349965 
L 136.230323 42.667769 
L 134.559742 40.113533 
L 132.486636 37.708179 
L 130.048009 35.467274 
L 127.27688 33.401726 
L 124.202027 31.518603 
L 120.848298 29.82199 
L 117.237317 28.313799 
L 113.388492 26.994526 
L 109.320207 25.863914 
L 105.051132 24.921557 
L 100.601602 24.167433 
L 95.995012 23.602394 
L 91.259157 23.228593 
L 86.427447 23.049807 
L 81.539868 23.071586 
L 76.643563 23.301142 
L 71.792858 23.746867 
L 67.048592 24.417448 
L 62.476627 25.320565 
L 58.145551 26.461306 
L 54.123667 27.840513 
L 50.475579 29.453314 
L 47.258741 31.288139 
L 44.520464 33.326388 
L 42.29578 35.54285 
L 40.606462 37.906782 
L 39.46126 40.383484 
L 38.85724 42.936118 
L 38.781901 45.52753 
L 39.215705 48.121853 
L 40.134627 50.685771 
L 41.512433 53.189353 
L 43.322495 55.606478 
L 45.539042 57.914889 
L 48.137863 60.09595 
L 51.096508 62.134194 
L 54.394073 64.016727 
L 58.01064 65.732569 
L 61.92647 67.271965 
L 66.120988 68.625722 
L 70.571631 69.784589 
L 75.252591 70.738734 
L 80.133525 71.477356 
L 85.178284 71.988492 
L 90.343776 72.25909 
L 95.579079 72.275423 
L 100.824988 72.023891 
L 106.014178 71.492221 
L 111.072178 70.671005 
L 115.919311 69.555421 
L 120.473628 68.146928 
L 124.654733 66.454656 
L 128.388163 64.496235 
L 131.609826 62.297887 
L 134.269858 59.893684 
L 136.335317 57.324061 
L 137.791259 54.63374 
L 138.640077 51.869345 
L 138.899281 49.077008 
L 138.598159 46.300231 
L 137.77393 43.578221 
L 136.467937 40.944804 
L 134.722348 38.427941 
L 132.577628 36.049762 
L 130.070872 33.82703 
L 127.23496 31.771874 
L 124.098412 29.892661 
L 120.685781 28.194915 
L 117.018445 26.682191 
L 113.115671 25.356859 
L 108.995856 24.220788 
L 104.677879 23.27592 
L 100.182501 22.524739 
L 95.533768 21.970632 
L 90.760347 21.618143 
L 85.896704 21.473075 
L 80.984013 21.542393 
L 76.070648 21.833883 
L 71.212099 22.355496 
L 66.470164 23.114385 
L 61.911335 24.115669 
L 57.604381 25.361053 
L 53.61727 26.847481 
L 50.013728 28.566056 
L 46.849858 30.501413 
L 44.171247 32.631692 
L 42.011003 34.929137 
L 40.38894 37.361249 
L 39.311992 39.892321 
L 38.775666 42.485152 
L 38.766246 45.102727 
L 39.263334 47.709675 
L 40.242381 50.273389 
L 41.676907 52.764771 
L 43.540241 55.158579 
L 45.806697 57.433447 
L 48.452201 59.571646 
L 51.454427 61.558655 
L 54.792532 63.382617 
L 58.446553 65.033737 
L 62.396565 66.503665 
L 66.621647 67.78488 
L 71.098712 68.870107 
L 75.801252 69.751784 
L 80.698057 70.421614 
L 85.751973 70.87025 
L 90.918824 71.087193 
L 96.146606 71.060982 
L 101.375142 70.779768 
L 106.536377 70.23232 
L 111.555489 69.409437 
L 116.352961 68.305661 
L 120.847599 66.921083 
L 124.960393 65.262933 
L 128.618834 63.346678 
L 131.761219 61.196354 
L 134.340297 58.84403 
L 136.325711 56.328426 
L 137.704843 53.692876 
L 138.481958 50.982915 
L 138.675871 48.243832 
L 138.316591 45.518482 
L 137.441523 42.845575 
L 136.091771 40.258575 
L 134.308974 37.785201 
L 132.132905 35.44747 
L 129.599928 33.262155 
L 126.742243 31.241518 
L 123.587798 29.394184 
L 120.16073 27.726046 
L 116.482174 26.241131 
L 112.571338 24.94237 
L 108.446739 23.83226 
L 104.127544 22.913416 
L 99.634952 22.188996 
L 94.993572 21.66303 
L 90.232712 21.340603 
L 85.387513 21.227895 
L 80.499786 21.332017 
L 75.618418 21.660603 
L 70.799205 22.221117 
L 66.103955 23.019885 
L 61.598799 24.060898 
L 57.351738 25.344518 
L 53.429569 26.866254 
L 49.894513 28.615819 
L 46.800936 30.576634 
L 44.192615 32.725906 
L 42.100927 35.035286 
L 40.54418 37.472031 
L 39.528127 40.00051 
L 39.047475 42.583861 
L 39.088076 45.185589 
L 39.629429 47.770945 
L 40.647126 50.307986 
L 42.114993 52.768251 
L 44.006741 55.127082 
L 46.297065 57.363632 
L 48.962222 59.460622 
L 51.980122 61.403933 
L 55.330031 63.182094 
L 58.991964 64.785716 
L 62.945829 66.206907 
L 67.1704 67.438702 
L 71.642156 68.474499 
L 76.334048 69.307545 
L 81.214245 69.930482 
L 86.244944 70.33501 
L 91.38135 70.511733 
L 96.570948 70.450288 
L 101.753253 70.13984 
L 106.860206 69.57001 
L 111.817381 68.732225 
L 116.546123 67.621387 
L 120.966602 66.237661 
L 125.001627 64.58808 
L 128.580866 62.687672 
L 131.644971 60.559835 
L 134.149013 58.235844 
L 136.06471 55.753512 
L 137.381077 53.155196 
L 138.103466 50.485427 
L 138.251196 47.788503 
L 137.854246 45.106351 
L 136.949567 42.476856 
L 135.577521 39.932791 
L 133.778859 37.501337 
L 131.592446 35.204135 
L 129.053808 33.057735 
L 126.194444 31.074309 
L 123.041774 29.262504 
L 119.619591 27.628316 
L 115.94887 26.175927 
L 112.048826 24.908449 
L 107.938133 23.828562 
L 103.636236 22.939042 
L 99.164707 22.243171 
L 94.548578 21.745034 
L 89.817591 21.449701 
L 85.007276 21.363237 
L 80.159723 21.492529 
L 75.323932 21.844874 
L 70.555569 22.427286 
L 65.916026 23.245547 
L 61.470695 24.303042 
L 57.286518 25.599512 
L 53.428961 27.129891 
L 49.958726 28.883419 
L 46.928594 30.843201 
L 44.380823 32.986313 
L 42.345468 35.284478 
L 40.839811 37.705214 
L 39.868928 40.213308 
L 39.4272 42.772428 
L 39.500468 45.346665 
L 40.068461 47.901862 
L 41.107166 50.406631 
L 42.590877 52.833 
L 44.493776 55.156715 
L 46.790981 57.357244 
L 49.459077 59.417549 
L 52.476189 61.323688 
L 55.821677 63.064336 
L 59.475521 64.630239 
L 63.41748 66.013668 
L 67.626077 67.20787 
L 72.077459 68.206535 
L 76.74419 69.003298 
L 81.594036 69.591299 
L 86.588823 69.96284 
L 91.683467 70.109226 
L 96.825325 70.020862 
L 101.95401 69.687707 
L 107.00186 69.100153 
L 107.00186 69.100153 
" clip-path="url(#pdf2727f348)" style="fill: none; stroke: #1f77b4; stroke-width: 1.5; stroke-linecap: round"/>
   </g>
   <g id="line2d_33">
    <path d="M 88.205932 45.822629 
L 88.165336 102.481331 
L 88.137881 113.107327 
L 88.332954 113.264328 
L 88.080301 113.191245 
L 87.849178 113.325024 
L 87.922602 113.458836 
L 88.21808 113.507638 
L 88.501899 113.365257 
L 88.472053 113.197648 
L 88.210073 113.088253 
L 87.769924 113.151136 
L 87.596742 113.349715 
L 87.678192 113.518427 
L 87.996179 113.645998 
L 88.490215 113.610632 
L 88.806636 113.412529 
L 88.844945 113.175386 
L 88.620378 112.959876 
L 88.183744 112.848288 
L 87.59133 112.918316 
L 87.220545 113.145922 
L 87.131305 113.40594 
L 87.292456 113.664584 
L 87.688685 113.853214 
L 88.360392 113.907458 
L 89.031157 113.732914 
L 89.406306 113.434664 
L 89.49925 113.138049 
L 89.372733 112.837153 
L 89.0298 112.58042 
L 88.359449 112.389125 
L 87.559354 112.397741 
L 86.823096 112.622332 
L 86.414042 112.933576 
L 86.255317 113.316009 
L 86.330873 113.614273 
L 86.697855 113.973919 
L 87.3339 114.230479 
L 88.155635 114.330173 
L 89.041419 114.240782 
L 89.848717 113.958939 
L 90.436548 113.51304 
L 90.662314 113.104818 
L 90.666398 112.66937 
L 90.435256 112.24402 
L 89.976325 111.867195 
L 89.31845 111.574968 
L 88.218632 111.368063 
L 87.01324 111.410586 
L 85.892059 111.711387 
L 85.222773 112.088144 
L 84.78137 112.563245 
L 84.623412 113.096363 
L 84.781843 113.638924 
L 85.262251 114.138041 
L 86.04034 114.54118 
L 87.062076 114.801199 
L 88.246801 114.881254 
L 89.493231 114.759049 
L 90.687979 114.429921 
L 91.715812 113.908333 
L 92.470675 113.227527 
L 92.778565 112.709221 
L 92.907468 112.160098 
L 92.845365 111.600081 
L 92.587636 111.05017 
L 92.137468 110.531623 
L 91.505957 110.065104 
L 90.261783 109.504347 
L 88.746587 109.158053 
L 87.083152 109.064199 
L 85.414879 109.239816 
L 83.894453 109.67822 
L 83.037168 110.101986 
L 82.352741 110.613843 
L 81.87653 111.194189 
L 81.637046 111.819637 
L 81.654418 112.463753 
L 81.939113 113.097987 
L 82.490964 113.692749 
L 83.298596 114.218601 
L 84.339312 114.64754 
L 85.579488 114.954278 
L 86.9755 115.11749 
L 88.475179 115.120948 
L 90.019741 114.954461 
L 91.54614 114.614581 
L 92.989708 114.105007 
L 94.286971 113.436664 
L 95.378486 112.627445 
L 96.211549 111.701613 
L 96.742645 110.688913 
L 96.939499 109.623421 
L 96.782671 108.542206 
L 96.266597 107.483853 
L 95.400084 106.486937 
L 94.206235 105.588487 
L 92.721849 104.822515 
L 90.996323 104.218646 
L 89.09011 103.800894 
L 87.072793 103.586604 
L 85.020809 103.585598 
L 83.014897 103.799533 
L 81.137294 104.221501 
L 79.468743 104.835889 
L 78.085375 105.618526 
L 77.055526 106.537138 
L 76.436598 107.552141 
L 76.295437 108.081694 
L 76.272073 108.617782 
L 76.369326 109.153966 
L 76.588835 109.683629 
L 76.931001 110.200035 
L 77.978483 111.165982 
L 79.488928 111.998325 
L 81.418348 112.646441 
L 83.702366 113.065048 
L 86.258081 113.216605 
L 88.987022 113.073459 
L 91.779113 112.619597 
L 94.517439 111.85186 
L 97.083575 110.780505 
L 99.363122 109.429076 
L 100.362117 108.659134 
L 101.251126 107.833574 
L 102.01932 106.9586 
L 102.657044 106.040981 
L 103.155923 105.087975 
L 103.508962 104.107252 
L 103.710618 103.106813 
L 103.756866 102.094901 
L 103.645235 101.079919 
L 103.37484 100.070343 
L 102.946385 99.074631 
L 102.36216 98.101146 
L 101.626016 97.158068 
L 100.743329 96.253322 
L 99.72095 95.394495 
L 98.567144 94.588775 
L 97.291521 93.842875 
L 94.419471 92.554686 
L 91.205211 91.572031 
L 87.764599 90.926059 
L 84.2253 90.635693 
L 80.722791 90.70667 
L 77.396048 91.130893 
L 74.382923 91.886131 
L 71.815242 92.936084 
L 70.736726 93.556504 
L 69.813652 94.230895 
L 69.058488 94.951069 
L 68.482338 95.708152 
L 68.094787 96.492641 
L 67.90374 97.294481 
L 67.915282 98.10315 
L 68.133535 98.907756 
L 68.560546 99.697136 
L 69.196181 100.459978 
L 70.038044 101.18494 
L 71.081425 101.860781 
L 72.31927 102.476499 
L 73.742184 103.021468 
L 75.33847 103.485585 
L 77.094196 103.859406 
L 78.993303 104.134286 
L 81.017752 104.30251 
L 83.147695 104.357416 
L 85.36169 104.293503 
L 87.636943 104.10653 
L 89.949575 103.793592 
L 92.274916 103.353181 
L 94.587812 102.785226 
L 96.862948 102.09111 
L 99.07517 101.273662 
L 101.199815 100.337135 
L 103.213023 99.287154 
L 105.092046 98.130649 
L 106.815531 96.875764 
L 108.363781 95.531754 
L 109.718991 94.108867 
L 110.865448 92.618212 
L 111.789698 91.071618 
L 112.480683 89.481493 
L 112.929839 87.860673 
L 113.131156 86.222272 
L 113.081213 84.57954 
L 112.779173 82.945714 
L 112.226756 81.333888 
L 111.428177 79.756878 
L 110.390075 78.227106 
L 109.121404 76.756487 
L 107.633326 75.356325 
L 105.939074 74.037225 
L 104.053813 72.809005 
L 101.994495 71.68063 
L 99.779694 70.660141 
L 97.429455 69.754605 
L 94.96512 68.970059 
L 92.409166 68.311475 
L 89.785034 67.782719 
L 87.116954 67.386526 
L 84.429771 67.124471 
L 81.748766 66.996951 
L 79.099474 67.003169 
L 76.507497 67.141127 
L 73.998308 67.407616 
L 71.597058 67.798223 
L 69.328362 68.30733 
L 67.216094 68.928138 
L 65.283162 69.65268 
L 63.551279 70.471858 
L 62.040735 71.375485 
L 60.770155 72.352337 
L 59.756262 73.390219 
L 59.013637 74.47605 
L 58.554482 75.595956 
L 58.388401 76.735382 
L 58.522178 77.879221 
L 58.959593 79.011959 
L 59.701246 80.117833 
L 60.744425 81.18101 
L 62.083007 82.185765 
L 63.707396 83.11669 
L 65.604523 83.95889 
L 67.757887 84.698196 
L 70.14766 85.321371 
L 72.75085 85.816317 
L 75.541521 86.172263 
L 78.491072 86.379951 
L 81.568574 86.431789 
L 84.741153 86.321991 
L 87.974419 86.046683 
L 91.232925 85.603982 
L 94.480657 84.994037 
L 97.681528 84.219039 
L 100.799889 83.283195 
L 103.801014 82.192663 
L 106.651576 80.955463 
L 109.320092 79.581351 
L 111.777323 78.08167 
L 113.996635 76.469174 
L 115.954298 74.757845 
L 117.629738 72.962682 
L 119.005728 71.099499 
L 120.068515 69.184709 
L 120.8079 67.235111 
L 121.217259 65.26769 
L 121.293514 63.299414 
L 121.03706 61.347056 
L 120.451661 59.427018 
L 119.544301 57.555181 
L 118.325019 55.746762 
L 116.806722 54.016193 
L 115.004978 52.377015 
L 112.937805 50.841788 
L 110.62545 49.42201 
L 108.090173 48.128058 
L 105.35602 46.969132 
L 102.448611 45.953216 
L 99.394925 45.087043 
L 96.223087 44.376068 
L 92.96217 43.82445 
L 89.641985 43.435034 
L 86.292889 43.209342 
L 82.945587 43.147561 
L 79.630926 43.248542 
L 76.379705 43.509798 
L 73.222461 43.927501 
L 70.189262 44.49649 
L 67.309487 45.21028 
L 64.611598 46.061078 
L 62.122904 47.039805 
L 59.869312 48.136125 
L 57.875074 49.338488 
L 56.162517 50.634183 
L 54.75178 52.009403 
L 53.660537 53.449329 
L 52.90373 54.938229 
L 52.493299 56.459574 
L 52.437938 57.996174 
L 52.742855 59.530335 
L 53.409573 61.044034 
L 54.435756 62.519106 
L 55.81508 63.937461 
L 57.537158 65.281301 
L 59.587518 66.533353 
L 61.947643 67.677111 
L 64.595091 68.697072 
L 67.503668 69.578976 
L 70.643691 70.310029 
L 73.982311 70.879113 
L 77.483907 71.276979 
L 81.110542 71.4964 
L 84.822472 71.532307 
L 88.578688 71.381875 
L 92.337503 71.04458 
L 96.057138 70.522211 
L 99.696322 69.818835 
L 103.214872 68.940734 
L 106.57425 67.896291 
L 109.738076 66.695851 
L 112.6726 65.351543 
L 115.347104 63.877083 
L 117.73425 62.287557 
L 119.810348 60.599186 
L 121.55556 58.829091 
L 122.954032 56.995046 
L 123.993959 55.115246 
L 124.667584 53.208073 
L 124.97114 51.291883 
L 124.904751 49.384798 
L 124.472273 47.504527 
L 123.681119 45.668194 
L 122.542042 43.892198 
L 121.068905 42.192079 
L 119.278438 40.582412 
L 117.189986 39.076718 
L 114.825252 37.687388 
L 112.20805 36.425622 
L 109.364053 35.301386 
L 106.320554 34.323369 
L 103.106235 33.498962 
L 99.75094 32.834238 
L 96.285467 32.333932 
L 92.74135 32.001439 
L 89.150667 31.838803 
L 85.545836 31.846714 
L 81.959422 32.024505 
L 78.423942 32.370157 
L 74.971663 32.880296 
L 71.634401 33.550196 
L 68.44331 34.373793 
L 65.428663 35.343693 
L 62.61962 36.451186 
L 60.043992 37.686278 
L 57.727986 39.037718 
L 55.695947 40.493046 
L 53.970087 42.038648 
L 52.57021 43.659827 
L 51.513435 45.340895 
L 50.813921 47.065273 
L 50.482601 48.815621 
L 50.526929 50.573981 
L 50.950657 52.321942 
L 51.753628 54.040828 
L 52.931623 55.711895 
L 54.476248 57.316557 
L 56.374875 58.836617 
L 58.610649 60.254507 
L 61.162563 61.553538 
L 64.005604 62.718144 
L 67.110976 63.734126 
L 70.446397 64.588876 
L 73.976471 65.271588 
L 77.663123 65.773441 
L 81.4661 66.087752 
L 85.34352 66.210099 
L 89.252452 66.138395 
L 93.149534 65.872926 
L 96.991585 65.416351 
L 100.736225 64.77365 
L 104.342462 63.952036 
L 107.771258 62.960826 
L 110.986036 61.811286 
L 113.953138 60.516431 
L 116.642215 59.090821 
L 119.026547 57.55032 
L 121.083288 55.911861 
L 122.793638 54.193194 
L 124.142944 52.412642 
L 125.120731 50.588858 
L 125.720668 48.740597 
L 125.940484 46.8865 
L 125.78183 45.04489 
L 125.250107 43.233598 
L 124.354254 41.4698 
L 123.106518 39.769876 
L 121.52221 38.14929 
L 119.619439 36.622488 
L 117.418856 35.202818 
L 114.943392 33.902457 
L 112.217996 32.73236 
L 109.269389 31.702222 
L 106.12582 30.82044 
L 102.816836 30.094099 
L 99.373057 29.528948 
L 95.825966 29.129394 
L 92.207701 28.898495 
L 88.550858 28.837953 
L 84.888294 28.948115 
L 81.252935 29.227972 
L 77.677582 29.675155 
L 74.194713 30.285945 
L 70.836279 31.055275 
L 67.633496 31.976736 
L 64.616623 33.042594 
L 61.814734 34.243804 
L 59.255474 35.57004 
L 56.964809 37.009727 
L 54.966759 38.550089 
L 53.283133 40.177207 
L 51.933248 41.876096 
L 50.933654 43.630793 
L 50.297859 45.424472 
L 50.036064 47.239567 
L 50.154916 49.057926 
L 50.657284 50.860982 
L 51.542068 52.629937 
L 52.804047 54.345975 
L 54.433781 55.990485 
L 56.417565 57.545294 
L 58.73745 58.992917 
L 61.371334 60.3168 
L 64.293129 61.501574 
L 67.472998 62.533289 
L 70.877677 63.39964 
L 74.470856 64.090176 
L 78.213644 64.596476 
L 82.065077 64.912298 
L 85.982678 65.033688 
L 89.923061 64.959052 
L 93.842541 64.689188 
L 97.697763 64.227267 
L 101.446312 63.578775 
L 105.047308 62.751423 
L 108.461958 61.755001 
L 111.654054 60.601217 
L 114.590427 59.303494 
L 117.241313 57.876754 
L 119.580664 56.337182 
L 121.586376 54.701979 
L 123.240445 52.989114 
L 124.529047 51.217078 
L 125.442559 49.404643 
L 125.975508 47.570633 
L 126.126475 45.733713 
L 125.897943 43.912191 
L 125.296118 42.123842 
L 124.330706 40.385752 
L 123.014682 38.714181 
L 121.364031 37.124448 
L 119.397494 35.630831 
L 117.136297 34.246491 
L 114.603891 32.983405 
L 111.825695 31.852316 
L 108.828847 30.862694 
L 105.641963 30.022709 
L 102.294906 29.339208 
L 98.818566 28.817704 
L 95.24465 28.462362 
L 91.605476 28.275996 
L 87.933777 28.260064 
L 84.262505 28.414669 
L 80.62464 28.738554 
L 77.052996 29.229109 
L 73.580021 29.882369 
L 70.237597 30.693022 
L 67.056824 31.65442 
L 64.067804 32.758589 
L 61.299403 33.996249 
L 58.779014 35.356844 
L 56.532299 36.828575 
L 54.582923 38.398452 
L 52.952287 40.052355 
L 51.659248 41.775108 
L 50.719842 43.550579 
L 50.14701 45.361789 
L 49.950339 47.191047 
L 50.135815 49.020103 
L 50.705604 50.830321 
L 51.657869 52.602873 
L 52.986627 54.318949 
L 54.681656 55.959984 
L 56.728465 57.507894 
L 59.108325 58.945329 
L 61.798376 60.255913 
L 64.7718 61.424498 
L 67.998081 62.437398 
L 71.443333 63.282612 
L 75.070703 63.950028 
L 78.840838 64.431593 
L 82.712406 64.721456 
L 86.64267 64.816075 
L 90.588089 64.714277 
L 94.504936 64.417281 
L 98.349924 63.928676 
L 102.08082 63.254357 
L 105.657025 62.402417 
L 109.040125 61.383007 
L 112.194382 60.208164 
L 115.087168 58.891604 
L 117.689327 57.448502 
L 119.97547 55.895252 
L 121.924188 54.249225 
L 123.518194 52.528513 
L 124.7444 50.751689 
L 125.59391 48.937564 
L 126.061976 47.104964 
L 126.147879 45.27252 
L 125.854777 43.45847 
L 125.189515 41.680493 
L 124.162402 39.955552 
L 122.786972 38.29976 
L 121.079726 36.728271 
L 119.059873 35.255184 
L 116.749063 33.893465 
L 114.171126 32.654888 
L 111.351813 31.549983 
L 108.318554 30.588002 
L 105.100213 29.776895 
L 101.726862 29.123281 
L 98.229562 28.632445 
L 94.640155 28.308324 
L 90.991057 28.153502 
L 87.315065 28.169205 
L 83.645162 28.355306 
L 80.014324 28.710317 
L 76.455326 29.231396 
L 73.000544 29.914351 
L 69.681749 30.75364 
L 66.529894 31.742388 
L 63.574894 32.872396 
L 60.845389 34.134167 
L 58.368497 35.516929 
L 56.169565 37.008676 
L 54.271897 38.596221 
L 52.696483 40.265256 
L 51.461722 42.000437 
L 50.583143 43.785475 
L 50.073139 45.60326 
L 49.940699 47.435994 
L 50.191173 49.265346 
L 50.826059 51.072631 
L 51.842821 52.839006 
L 53.234757 54.545684 
L 54.990917 56.174164 
L 57.09608 57.706466 
L 59.5308 59.125384 
L 62.271523 60.414733 
L 65.290776 61.559594 
L 68.557437 62.54655 
L 72.037077 63.363905 
L 75.692374 64.001883 
L 79.483591 64.452795 
L 83.369107 64.711177 
L 87.305996 64.773882 
L 91.250629 64.640144 
L 95.159303 64.311587 
L 98.988857 63.792197 
L 102.697285 63.088252 
L 106.244315 62.208207 
L 109.591946 61.162547 
L 112.704933 59.96361 
L 115.551206 58.625379 
L 118.102226 57.163254 
L 120.333261 55.593817 
L 122.22359 53.934578 
L 123.756634 52.203733 
L 124.920014 50.419912 
L 125.705546 48.60195 
L 126.109169 46.768654 
L 126.130837 44.938605 
L 125.774348 43.129962 
L 125.047151 41.360292 
L 123.960122 39.646426 
L 122.527318 38.004325 
L 120.765719 36.448971 
L 118.69497 34.994279 
L 116.33711 33.653018 
L 113.716315 32.436756 
L 110.858641 31.35581 
L 107.791778 30.419216 
L 104.544815 29.634699 
L 101.148009 29.008657 
L 97.632569 28.546146 
L 94.030451 28.250875 
L 90.374151 28.125201 
L 86.696514 28.170123 
L 83.030537 28.385282 
L 79.409177 28.768963 
L 75.865159 29.318097 
L 72.430771 30.028262 
L 69.137664 30.893693 
L 66.016634 31.907289 
L 63.097397 33.060632 
L 60.408356 34.344006 
L 57.97635 35.74643 
L 55.8264 37.255693 
L 53.981442 38.858415 
L 52.462047 40.540108 
L 51.286152 42.28526 
L 50.468777 44.077436 
L 50.021758 45.899399 
L 49.953487 47.733249 
L 50.268681 49.560583 
L 50.968167 51.362674 
L 52.048716 53.120674 
L 53.502915 54.815826 
L 55.319091 56.429699 
L 57.481308 57.944426 
L 59.969416 59.342957 
L 62.759183 60.6093 
L 65.8225 61.728774 
L 69.12766 62.688236 
L 72.639715 63.4763 
L 76.320899 64.083532 
L 80.131117 64.502607 
L 84.028486 64.728446 
L 87.969916 64.7583 
L 91.911721 64.591806 
L 95.810243 64.230989 
L 99.622472 63.680227 
L 103.306654 62.946174 
L 103.306654 62.946174 
" clip-path="url(#pdf2727f348)" style="fill: none; stroke: #ff7f0e; stroke-opacity: 0.5; stroke-width: 1.5; stroke-linecap: round"/>
   </g>
  </g>
 </g>
 <defs>
  <clipPath id="pdf2727f348">
   <rect x="-1.8" y="-7.2" width="176.4" height="176.4"/>
  </clipPath>
 </defs>
</svg>
