<?xml version="1.0" encoding="utf-8" standalone="no"?>
<!DOCTYPE svg PUBLIC "-//W3C//DTD SVG 1.1//EN"
  "http://www.w3.org/Graphics/SVG/1.1/DTD/svg11.dtd">
<svg xmlns:xlink="http://www.w3.org/1999/xlink" width="216pt" height="180pt" viewBox="0 0 216 180" xmlns="http://www.w3.org/2000/svg" version="1.1">
 <metadata>
  <rdf:RDF xmlns:dc="http://purl.org/dc/elements/1.1/" xmlns:cc="http://creativecommons.org/ns#" xmlns:rdf="http://www.w3.org/1999/02/22-rdf-syntax-ns#">
   <cc:Work>
    <dc:type rdf:resource="http://purl.org/dc/dcmitype/StillImage"/>
    <dc:date>2023-06-14T18:47:37.346400</dc:date>
    <dc:format>image/svg+xml</dc:format>
    <dc:creator>
     <cc:Agent>
      <dc:title>Matplotlib v3.7.0, https://matplotlib.org/</dc:title>
     </cc:Agent>
    </dc:creator>
   </cc:Work>
  </rdf:RDF>
 </metadata>
 <defs>
  <style type="text/css">*{stroke-linejoin: round; stroke-linecap: butt}</style>
 </defs>
 <g id="figure_1">
  <g id="patch_1">
   <path d="M 0 180 
L 216 180 
L 216 0 
L 0 0 
z
" style="fill: #ffffff"/>
  </g>
  <g id="patch_2">
   <path d="M -1 169.2 
L 174.6 169.2 
L 174.6 -1 
" style="fill: none"/>
  </g>
  <g id="pane3d_1">
   <g id="patch_3">
    <path d="M 11.519416 125.705413 
L 69.772457 76.876559 
L 68.962684 6.456623 
L 7.921935 51.001381 
" style="fill: none; opacity: 0.5; stroke: #f2f2f2; stroke-linejoin: miter"/>
   </g>
  </g>
  <g id="pane3d_2">
   <g id="patch_4">
    <path d="M 69.772457 76.876559 
L 163.247803 104.046152 
L 166.583609 31.200681 
L 68.962684 6.456623 
" style="fill: none; opacity: 0.5; stroke: #e6e6e6; stroke-linejoin: miter"/>
   </g>
  </g>
  <g id="pane3d_3">
   <g id="patch_5">
    <path d="M 11.519416 125.705413 
L 110.607849 158.067695 
L 163.247803 104.046152 
L 69.772457 76.876559 
" style="fill: none; opacity: 0.5; stroke: #ececec; stroke-linejoin: miter"/>
   </g>
  </g>
  <g id="axis3d_1">
   <g id="line2d_1">
    <path d="M 11.519416 125.705413 
L 110.607849 158.067695 
" style="fill: none; stroke: #ffffff; stroke-width: 0.8; stroke-linecap: round"/>
   </g>
   <g id="text_1">
    <!-- x -->
    <g style="fill: #262626" transform="translate(40.437569 179.640981) scale(0.1 -0.1)">
     <defs>
      <path id="DejaVuSans-78" d="M 3513 3500 
L 2247 1797 
L 3578 0 
L 2900 0 
L 1881 1375 
L 863 0 
L 184 0 
L 1544 1831 
L 300 3500 
L 978 3500 
L 1906 2253 
L 2834 3500 
L 3513 3500 
z
" transform="scale(0.015625)"/>
     </defs>
     <use xlink:href="#DejaVuSans-78"/>
    </g>
   </g>
   <g id="Line3DCollection_1">
    <path d="M 32.825873 132.664102 
L 89.941708 82.738964 
L 89.991579 11.786834 
" style="fill: none; stroke: #d3d3d3; stroke-width: 0.8"/>
    <path d="M 59.773715 141.465267 
L 115.396393 90.137636 
L 116.558525 18.520781 
" style="fill: none; stroke: #d3d3d3; stroke-width: 0.8"/>
    <path d="M 87.51776 150.526472 
L 141.539377 97.736369 
L 143.87566 25.444878 
" style="fill: none; stroke: #d3d3d3; stroke-width: 0.8"/>
   </g>
   <g id="xtick_1">
    <g id="line2d_2">
     <path d="M 88.783784 78.616216 
" clip-path="url(#p6b2830b4d6)" style="fill: none; stroke: #d3d3d3; stroke-width: 0.8; stroke-linecap: round"/>
    </g>
    <g id="line2d_3">
     <path d="M 33.323571 132.229062 
L 31.828323 133.536064 
" style="fill: none; stroke: #808080; stroke-width: 0.8; stroke-linecap: round"/>
    </g>
    <g id="text_2">
     <!-- −0.2 -->
     <g style="fill: #808080" transform="translate(13.164621 156.163303) scale(0.1 -0.1)">
      <defs>
       <path id="DejaVuSans-2212" d="M 678 2272 
L 4684 2272 
L 4684 1741 
L 678 1741 
L 678 2272 
z
" transform="scale(0.015625)"/>
       <path id="DejaVuSans-30" d="M 2034 4250 
Q 1547 4250 1301 3770 
Q 1056 3291 1056 2328 
Q 1056 1369 1301 889 
Q 1547 409 2034 409 
Q 2525 409 2770 889 
Q 3016 1369 3016 2328 
Q 3016 3291 2770 3770 
Q 2525 4250 2034 4250 
z
M 2034 4750 
Q 2819 4750 3233 4129 
Q 3647 3509 3647 2328 
Q 3647 1150 3233 529 
Q 2819 -91 2034 -91 
Q 1250 -91 836 529 
Q 422 1150 422 2328 
Q 422 3509 836 4129 
Q 1250 4750 2034 4750 
z
" transform="scale(0.015625)"/>
       <path id="DejaVuSans-2e" d="M 684 794 
L 1344 794 
L 1344 0 
L 684 0 
L 684 794 
z
" transform="scale(0.015625)"/>
       <path id="DejaVuSans-32" d="M 1228 531 
L 3431 531 
L 3431 0 
L 469 0 
L 469 531 
Q 828 903 1448 1529 
Q 2069 2156 2228 2338 
Q 2531 2678 2651 2914 
Q 2772 3150 2772 3378 
Q 2772 3750 2511 3984 
Q 2250 4219 1831 4219 
Q 1534 4219 1204 4116 
Q 875 4013 500 3803 
L 500 4441 
Q 881 4594 1212 4672 
Q 1544 4750 1819 4750 
Q 2544 4750 2975 4387 
Q 3406 4025 3406 3419 
Q 3406 3131 3298 2873 
Q 3191 2616 2906 2266 
Q 2828 2175 2409 1742 
Q 1991 1309 1228 531 
z
" transform="scale(0.015625)"/>
      </defs>
      <use xlink:href="#DejaVuSans-2212"/>
      <use xlink:href="#DejaVuSans-30" x="83.789062"/>
      <use xlink:href="#DejaVuSans-2e" x="147.412109"/>
      <use xlink:href="#DejaVuSans-32" x="179.199219"/>
     </g>
    </g>
   </g>
   <g id="xtick_2">
    <g id="line2d_4">
     <path d="M 88.783784 78.616216 
" clip-path="url(#p6b2830b4d6)" style="fill: none; stroke: #d3d3d3; stroke-width: 0.8; stroke-linecap: round"/>
    </g>
    <g id="line2d_5">
     <path d="M 60.258979 141.017473 
L 58.801055 142.36282 
" style="fill: none; stroke: #808080; stroke-width: 0.8; stroke-linecap: round"/>
    </g>
    <g id="text_3">
     <!-- 0.0 -->
     <g style="fill: #808080" transform="translate(44.347111 165.247875) scale(0.1 -0.1)">
      <use xlink:href="#DejaVuSans-30"/>
      <use xlink:href="#DejaVuSans-2e" x="63.623047"/>
      <use xlink:href="#DejaVuSans-30" x="95.410156"/>
     </g>
    </g>
   </g>
   <g id="xtick_3">
    <g id="line2d_6">
     <path d="M 88.783784 78.616216 
" clip-path="url(#p6b2830b4d6)" style="fill: none; stroke: #d3d3d3; stroke-width: 0.8; stroke-linecap: round"/>
    </g>
    <g id="line2d_7">
     <path d="M 87.989635 150.065355 
L 86.57191 151.450761 
" style="fill: none; stroke: #808080; stroke-width: 0.8; stroke-linecap: round"/>
    </g>
    <g id="text_4">
     <!-- 0.2 -->
     <g style="fill: #808080" transform="translate(72.141938 174.602426) scale(0.1 -0.1)">
      <use xlink:href="#DejaVuSans-30"/>
      <use xlink:href="#DejaVuSans-2e" x="63.623047"/>
      <use xlink:href="#DejaVuSans-32" x="95.410156"/>
     </g>
    </g>
   </g>
  </g>
  <g id="axis3d_2">
   <g id="line2d_8">
    <path d="M 163.247803 104.046152 
L 110.607849 158.067695 
" style="fill: none; stroke: #ffffff; stroke-width: 0.8; stroke-linecap: round"/>
   </g>
   <g id="text_5">
    <!-- y -->
    <g style="fill: #262626" transform="translate(162.133934 160.636398) scale(0.1 -0.1)">
     <defs>
      <path id="DejaVuSans-79" d="M 2059 -325 
Q 1816 -950 1584 -1140 
Q 1353 -1331 966 -1331 
L 506 -1331 
L 506 -850 
L 844 -850 
Q 1081 -850 1212 -737 
Q 1344 -625 1503 -206 
L 1606 56 
L 191 3500 
L 800 3500 
L 1894 763 
L 2988 3500 
L 3597 3500 
L 2059 -325 
z
" transform="scale(0.015625)"/>
     </defs>
     <use xlink:href="#DejaVuSans-79"/>
    </g>
   </g>
   <g id="Line3DCollection_2">
    <path d="M 22.913802 40.061 
L 25.785666 113.74716 
L 123.542472 144.793589 
" style="fill: none; stroke: #d3d3d3; stroke-width: 0.8"/>
    <path d="M 39.742202 27.7804 
L 41.83126 100.297425 
L 138.056936 129.898179 
" style="fill: none; stroke: #d3d3d3; stroke-width: 0.8"/>
    <path d="M 55.782168 16.075163 
L 57.156401 87.451588 
L 151.886775 115.705362 
" style="fill: none; stroke: #d3d3d3; stroke-width: 0.8"/>
   </g>
   <g id="xtick_4">
    <g id="line2d_9">
     <path d="M 88.783784 78.616216 
" clip-path="url(#p6b2830b4d6)" style="fill: none; stroke: #d3d3d3; stroke-width: 0.8; stroke-linecap: round"/>
    </g>
    <g id="line2d_10">
     <path d="M 122.719308 144.532162 
L 125.190897 145.31711 
" style="fill: none; stroke: #808080; stroke-width: 0.8; stroke-linecap: round"/>
    </g>
    <g id="text_6">
     <!-- −0.2 -->
     <g style="fill: #808080" transform="translate(124.097509 165.606267) scale(0.1 -0.1)">
      <use xlink:href="#DejaVuSans-2212"/>
      <use xlink:href="#DejaVuSans-30" x="83.789062"/>
      <use xlink:href="#DejaVuSans-2e" x="147.412109"/>
      <use xlink:href="#DejaVuSans-32" x="179.199219"/>
     </g>
    </g>
   </g>
   <g id="xtick_5">
    <g id="line2d_11">
     <path d="M 88.783784 78.616216 
" clip-path="url(#p6b2830b4d6)" style="fill: none; stroke: #d3d3d3; stroke-width: 0.8; stroke-linecap: round"/>
    </g>
    <g id="line2d_12">
     <path d="M 137.247641 129.649226 
L 139.677535 130.396705 
" style="fill: none; stroke: #808080; stroke-width: 0.8; stroke-linecap: round"/>
    </g>
    <g id="text_7">
     <!-- 0.0 -->
     <g style="fill: #808080" transform="translate(142.507485 150.378472) scale(0.1 -0.1)">
      <use xlink:href="#DejaVuSans-30"/>
      <use xlink:href="#DejaVuSans-2e" x="63.623047"/>
      <use xlink:href="#DejaVuSans-30" x="95.410156"/>
     </g>
    </g>
   </g>
   <g id="xtick_6">
    <g id="line2d_13">
     <path d="M 88.783784 78.616216 
" clip-path="url(#p6b2830b4d6)" style="fill: none; stroke: #d3d3d3; stroke-width: 0.8; stroke-linecap: round"/>
    </g>
    <g id="line2d_14">
     <path d="M 151.090973 115.468011 
L 153.480309 116.180641 
" style="fill: none; stroke: #808080; stroke-width: 0.8; stroke-linecap: round"/>
    </g>
    <g id="text_8">
     <!-- 0.2 -->
     <g style="fill: #808080" transform="translate(156.056307 135.869556) scale(0.1 -0.1)">
      <use xlink:href="#DejaVuSans-30"/>
      <use xlink:href="#DejaVuSans-2e" x="63.623047"/>
      <use xlink:href="#DejaVuSans-32" x="95.410156"/>
     </g>
    </g>
   </g>
  </g>
  <g id="axis3d_3">
   <g id="line2d_15">
    <path d="M 163.247803 104.046152 
L 166.583609 31.200681 
" style="fill: none; stroke: #ffffff; stroke-width: 0.8; stroke-linecap: round"/>
   </g>
   <g id="text_9">
    <!-- z -->
    <g style="fill: #262626" transform="translate(202.494937 65.789607) scale(0.1 -0.1)">
     <defs>
      <path id="DejaVuSans-7a" d="M 353 3500 
L 3084 3500 
L 3084 2975 
L 922 459 
L 3084 459 
L 3084 0 
L 275 0 
L 275 525 
L 2438 3041 
L 353 3041 
L 353 3500 
z
" transform="scale(0.015625)"/>
     </defs>
     <use xlink:href="#DejaVuSans-7a"/>
    </g>
   </g>
   <g id="Line3DCollection_3">
    <path d="M 163.31709 102.533106 
L 69.755603 75.410866 
L 11.444818 124.156324 
" style="fill: none; stroke: #d3d3d3; stroke-width: 0.8"/>
    <path d="M 164.075343 85.974797 
L 69.571252 59.379181 
L 10.628092 107.196476 
" style="fill: none; stroke: #d3d3d3; stroke-width: 0.8"/>
    <path d="M 164.849183 69.076119 
L 69.383293 43.033815 
L 9.793932 89.874602 
" style="fill: none; stroke: #d3d3d3; stroke-width: 0.8"/>
    <path d="M 165.639094 51.826467 
L 69.19162 26.365471 
L 8.941773 72.178984 
" style="fill: none; stroke: #d3d3d3; stroke-width: 0.8"/>
    <path d="M 166.445584 34.214793 
L 68.996122 9.364482 
L 8.071028 54.097394 
" style="fill: none; stroke: #d3d3d3; stroke-width: 0.8"/>
   </g>
   <g id="xtick_7">
    <g id="line2d_16">
     <path d="M 88.783784 78.616216 
" style="fill: none; stroke: #d3d3d3; stroke-width: 0.8; stroke-linecap: round"/>
    </g>
    <g id="line2d_17">
     <path d="M 162.531817 102.305466 
L 164.889505 102.988928 
" style="fill: none; stroke: #808080; stroke-width: 0.8; stroke-linecap: round"/>
    </g>
    <g id="text_10">
     <!-- 0.000 -->
     <g style="fill: #808080" transform="translate(167.240448 107.534942) scale(0.1 -0.1)">
      <use xlink:href="#DejaVuSans-30"/>
      <use xlink:href="#DejaVuSans-2e" x="63.623047"/>
      <use xlink:href="#DejaVuSans-30" x="95.410156"/>
      <use xlink:href="#DejaVuSans-30" x="159.033203"/>
      <use xlink:href="#DejaVuSans-30" x="222.65625"/>
     </g>
    </g>
   </g>
   <g id="xtick_8">
    <g id="line2d_18">
     <path d="M 88.783784 78.616216 
" style="fill: none; stroke: #d3d3d3; stroke-width: 0.8; stroke-linecap: round"/>
    </g>
    <g id="line2d_19">
     <path d="M 163.281781 85.75147 
L 165.664375 86.421987 
" style="fill: none; stroke: #808080; stroke-width: 0.8; stroke-linecap: round"/>
    </g>
    <g id="text_11">
     <!-- 0.025 -->
     <g style="fill: #808080" transform="translate(168.179927 91.025945) scale(0.1 -0.1)">
      <defs>
       <path id="DejaVuSans-35" d="M 691 4666 
L 3169 4666 
L 3169 4134 
L 1269 4134 
L 1269 2991 
Q 1406 3038 1543 3061 
Q 1681 3084 1819 3084 
Q 2600 3084 3056 2656 
Q 3513 2228 3513 1497 
Q 3513 744 3044 326 
Q 2575 -91 1722 -91 
Q 1428 -91 1123 -41 
Q 819 9 494 109 
L 494 744 
Q 775 591 1075 516 
Q 1375 441 1709 441 
Q 2250 441 2565 725 
Q 2881 1009 2881 1497 
Q 2881 1984 2565 2268 
Q 2250 2553 1709 2553 
Q 1456 2553 1204 2497 
Q 953 2441 691 2322 
L 691 4666 
z
" transform="scale(0.015625)"/>
      </defs>
      <use xlink:href="#DejaVuSans-30"/>
      <use xlink:href="#DejaVuSans-2e" x="63.623047"/>
      <use xlink:href="#DejaVuSans-30" x="95.410156"/>
      <use xlink:href="#DejaVuSans-32" x="159.033203"/>
      <use xlink:href="#DejaVuSans-35" x="222.65625"/>
     </g>
    </g>
   </g>
   <g id="xtick_9">
    <g id="line2d_20">
     <path d="M 88.783784 78.616216 
" style="fill: none; stroke: #d3d3d3; stroke-width: 0.8; stroke-linecap: round"/>
    </g>
    <g id="line2d_21">
     <path d="M 164.047155 68.857332 
L 166.455187 69.514223 
" style="fill: none; stroke: #808080; stroke-width: 0.8; stroke-linecap: round"/>
    </g>
    <g id="text_12">
     <!-- 0.050 -->
     <g style="fill: #808080" transform="translate(169.138629 74.179157) scale(0.1 -0.1)">
      <use xlink:href="#DejaVuSans-30"/>
      <use xlink:href="#DejaVuSans-2e" x="63.623047"/>
      <use xlink:href="#DejaVuSans-30" x="95.410156"/>
      <use xlink:href="#DejaVuSans-35" x="159.033203"/>
      <use xlink:href="#DejaVuSans-30" x="222.65625"/>
     </g>
    </g>
   </g>
   <g id="xtick_10">
    <g id="line2d_22">
     <path d="M 88.783784 78.616216 
" style="fill: none; stroke: #d3d3d3; stroke-width: 0.8; stroke-linecap: round"/>
    </g>
    <g id="line2d_23">
     <path d="M 164.828418 51.612458 
L 167.262436 52.25501 
" style="fill: none; stroke: #808080; stroke-width: 0.8; stroke-linecap: round"/>
    </g>
    <g id="text_13">
     <!-- 0.075 -->
     <g style="fill: #808080" transform="translate(170.117149 56.984104) scale(0.1 -0.1)">
      <defs>
       <path id="DejaVuSans-37" d="M 525 4666 
L 3525 4666 
L 3525 4397 
L 1831 0 
L 1172 0 
L 2766 4134 
L 525 4134 
L 525 4666 
z
" transform="scale(0.015625)"/>
      </defs>
      <use xlink:href="#DejaVuSans-30"/>
      <use xlink:href="#DejaVuSans-2e" x="63.623047"/>
      <use xlink:href="#DejaVuSans-30" x="95.410156"/>
      <use xlink:href="#DejaVuSans-37" x="159.033203"/>
      <use xlink:href="#DejaVuSans-35" x="222.65625"/>
     </g>
    </g>
   </g>
   <g id="xtick_11">
    <g id="line2d_24">
     <path d="M 88.783784 78.616216 
" style="fill: none; stroke: #d3d3d3; stroke-width: 0.8; stroke-linecap: round"/>
    </g>
    <g id="line2d_25">
     <path d="M 165.626072 34.005811 
L 168.086642 34.633274 
" style="fill: none; stroke: #808080; stroke-width: 0.8; stroke-linecap: round"/>
    </g>
    <g id="text_14">
     <!-- 0.100 -->
     <g style="fill: #808080" transform="translate(171.11611 39.429874) scale(0.1 -0.1)">
      <defs>
       <path id="DejaVuSans-31" d="M 794 531 
L 1825 531 
L 1825 4091 
L 703 3866 
L 703 4441 
L 1819 4666 
L 2450 4666 
L 2450 531 
L 3481 531 
L 3481 0 
L 794 0 
L 794 531 
z
" transform="scale(0.015625)"/>
      </defs>
      <use xlink:href="#DejaVuSans-30"/>
      <use xlink:href="#DejaVuSans-2e" x="63.623047"/>
      <use xlink:href="#DejaVuSans-31" x="95.410156"/>
      <use xlink:href="#DejaVuSans-30" x="159.033203"/>
      <use xlink:href="#DejaVuSans-30" x="222.65625"/>
     </g>
    </g>
   </g>
  </g>
  <g id="axes_1">
   <g id="line2d_26">
    <path d="M 88.883695 44.051243 
L 88.94941 61.332156 
L 88.770182 74.125694 
L 88.433524 83.680702 
L 87.825124 93.831103 
L 87.238172 103.237466 
L 87.265175 105.997611 
L 87.505392 108.135797 
L 87.940197 109.75425 
L 88.517883 110.925669 
L 89.160399 111.709727 
L 89.912595 112.234391 
L 90.506758 112.365749 
L 90.609334 112.267713 
L 90.592984 112.231295 
L 90.359455 112.07424 
L 89.731113 111.933328 
L 88.857125 111.95147 
L 87.936722 112.180523 
L 87.191502 112.608617 
L 86.852797 113.048245 
L 86.79423 113.398535 
L 86.917008 113.736064 
L 87.216764 114.032944 
L 87.854666 114.321646 
L 88.682313 114.445164 
L 89.578314 114.378174 
L 90.404952 114.122998 
L 91.029419 113.710987 
L 91.299413 113.33273 
L 91.365357 112.929543 
L 91.214855 112.536213 
L 90.854091 112.187844 
L 90.091285 111.848178 
L 89.104896 111.703817 
L 88.038334 111.784794 
L 87.053872 112.086666 
L 86.30864 112.570242 
L 85.98522 113.011621 
L 85.905084 113.479889 
L 86.084081 113.934579 
L 86.515765 114.335082 
L 87.171003 114.644062 
L 87.999637 114.830724 
L 89.25575 114.854 
L 90.509268 114.605196 
L 91.328346 114.252532 
L 91.958374 113.784125 
L 92.33774 113.236285 
L 92.425084 112.653901 
L 92.203439 112.086735 
L 91.682353 111.585022 
L 90.897778 111.194802 
L 89.909714 110.953478 
L 88.797748 110.886086 
L 87.654805 111.002726 
L 86.579621 111.297382 
L 85.668507 111.748238 
L 85.007043 112.319349 
L 84.662333 112.963473 
L 84.630449 113.406565 
L 84.76385 113.840584 
L 85.061394 114.24828 
L 85.796984 114.774395 
L 86.830701 115.153832 
L 88.081225 115.346947 
L 89.444703 115.328517 
L 90.803543 115.090525 
L 92.036831 114.643698 
L 93.031274 114.017572 
L 93.691549 113.258907 
L 93.91093 112.709043 
L 93.938398 112.147538 
L 93.768924 111.59589 
L 93.405002 111.075753 
L 92.856693 110.608023 
L 92.141362 110.211924 
L 90.80969 109.787724 
L 89.263634 109.603315 
L 87.630739 109.679752 
L 86.050213 110.015136 
L 84.661515 110.58468 
L 83.592646 111.342785 
L 83.111015 111.922531 
L 82.842545 112.536623 
L 82.803176 113.16154 
L 83.000379 113.772892 
L 83.432541 114.346268 
L 84.088684 114.858127 
L 84.948552 115.286663 
L 85.983111 115.61265 
L 87.779984 115.875704 
L 89.735145 115.837224 
L 91.678796 115.485401 
L 92.881985 115.082924 
L 93.953326 114.558209 
L 94.847999 113.927446 
L 95.527396 113.211555 
L 95.960683 112.435532 
L 96.126074 111.627592 
L 96.01177 110.818098 
L 95.61655 110.038341 
L 94.949984 109.31921 
L 94.032265 108.689813 
L 92.893626 108.176142 
L 91.573383 107.799851 
L 90.118602 107.577231 
L 88.582449 107.518464 
L 87.022284 107.62718 
L 85.497595 107.90035 
L 84.06783 108.328474 
L 82.790233 108.896018 
L 81.717724 109.582045 
L 80.896887 110.360975 
L 80.366095 111.203449 
L 80.15381 112.077276 
L 80.277105 112.948485 
L 80.740493 113.78245 
L 81.535133 114.545104 
L 82.638545 115.204183 
L 84.014919 115.730445 
L 85.616102 116.098818 
L 87.383269 116.289407 
L 89.249226 116.288357 
L 91.141215 116.088539 
L 92.984019 115.690056 
L 94.703184 115.100565 
L 96.228137 114.33535 
L 97.495055 113.417131 
L 98.449396 112.375543 
L 99.048006 111.246269 
L 99.260808 110.069825 
L 99.072046 108.890026 
L 98.481056 107.752187 
L 97.502557 106.70114 
L 96.166393 105.779147 
L 94.516722 105.023844 
L 92.610613 104.466358 
L 90.516094 104.129745 
L 88.309709 104.02791 
L 86.073722 104.16509 
L 83.893109 104.535895 
L 81.852487 105.125845 
L 80.033128 105.912221 
L 78.510106 106.865086 
L 77.349622 107.948347 
L 76.606487 109.120829 
L 76.404855 109.726547 
L 76.321758 110.337407 
L 76.359819 110.947361 
L 76.520538 111.550288 
L 76.804247 112.140043 
L 77.210058 112.710516 
L 78.378193 113.769697 
L 79.992668 114.681855 
L 82.001219 115.405275 
L 84.332893 115.904161 
L 86.90061 116.150039 
L 89.604843 116.122864 
L 92.338175 115.811903 
L 94.990286 115.216451 
L 97.452955 114.346365 
L 99.624687 113.22236 
L 101.414741 111.875934 
L 102.142061 111.131974 
L 102.74648 110.348789 
L 103.221062 109.533 
L 103.560059 108.69169 
L 103.758957 107.832342 
L 103.814529 106.962763 
L 103.724869 106.091006 
L 103.489418 105.225285 
L 103.108989 104.373888 
L 102.58577 103.545077 
L 101.92333 102.746991 
L 101.126599 101.987551 
L 100.201847 101.274348 
L 97.999775 100.014793 
L 95.392084 99.018766 
L 92.470985 98.325462 
L 89.342546 97.960711 
L 86.122607 97.935904 
L 82.932302 98.24809 
L 79.893537 98.8811 
L 77.124725 99.807259 
L 74.736955 100.989174 
L 73.717822 101.662064 
L 72.830561 102.381186 
L 72.085514 103.139705 
L 71.491962 103.930377 
L 71.05802 104.745574 
L 70.790539 105.577318 
L 70.694997 106.417316 
L 70.775394 107.25702 
L 71.034148 108.087694 
L 71.471989 108.900498 
L 72.087868 109.68658 
L 72.878874 110.437185 
L 73.840176 111.143758 
L 74.964984 111.798051 
L 76.244541 112.392229 
L 77.668158 112.918952 
L 80.895577 113.743623 
L 84.526623 114.225905 
L 88.41824 114.331127 
L 92.412335 114.036956 
L 96.344281 113.334135 
L 98.235825 112.830379 
L 100.051417 112.22737 
L 101.772269 111.528038 
L 103.380577 110.736294 
L 104.859676 109.857034 
L 106.194167 108.896136 
L 107.370029 107.860431 
L 108.374716 106.757662 
L 109.197238 105.596429 
L 109.828239 104.38611 
L 110.260059 103.136783 
L 110.486801 101.859124 
L 110.504386 100.564314 
L 110.310606 99.263924 
L 109.905169 97.969801 
L 109.289738 96.693952 
L 108.467957 95.448411 
L 107.445462 94.2451 
L 106.229882 93.095684 
L 104.830813 92.011401 
L 103.259768 91.002898 
L 101.530105 90.080047 
L 99.656926 89.251774 
L 97.656939 88.52589 
L 95.548297 87.908951 
L 93.350408 87.40614 
L 91.083722 87.021199 
L 88.769503 86.756405 
L 86.429583 86.612602 
L 84.086128 86.589267 
L 81.761401 86.68463 
L 79.477546 86.895812 
L 77.256381 87.218981 
L 75.119232 87.649496 
L 73.086775 88.182042 
L 71.178907 88.810728 
L 69.41464 89.529143 
L 67.812004 90.330376 
L 66.387954 91.206994 
L 65.158285 92.150985 
L 64.137534 93.153686 
L 63.33887 94.205709 
L 62.77397 95.296876 
L 62.452866 96.416189 
L 62.383779 97.551843 
L 62.572927 98.691296 
L 63.024314 99.821399 
L 63.739515 100.928574 
L 64.717449 101.999054 
L 65.954177 103.019142 
L 67.442714 103.975487 
L 69.172892 104.855346 
L 71.131283 105.646819 
L 73.301196 106.339032 
L 75.66277 106.922258 
L 78.19316 107.387983 
L 80.866833 107.728907 
L 83.655945 107.93891 
L 86.530805 108.012997 
L 89.460391 107.947228 
L 92.412895 107.738678 
L 95.356262 107.385417 
L 98.258712 106.886532 
L 101.089194 106.242181 
L 103.817793 105.45367 
L 106.416047 104.523551 
L 108.857199 103.455708 
L 111.116385 102.255425 
L 113.170757 100.929429 
L 114.999579 99.485885 
L 116.584286 97.934346 
L 117.908534 96.285676 
L 118.958246 94.55193 
L 119.721663 92.746221 
L 120.189405 90.882582 
L 120.354535 88.975826 
L 120.212639 87.041434 
L 119.761911 85.095445 
L 119.003242 83.154371 
L 117.940304 81.235107 
L 116.57963 79.354831 
L 114.930687 77.530868 
L 113.005918 75.780501 
L 110.820758 74.120712 
L 108.393609 72.567852 
L 105.745753 71.137247 
L 102.901206 69.842773 
L 99.886491 68.696423 
L 96.730332 67.707928 
L 93.463281 66.884483 
L 90.117278 66.230603 
L 86.72517 65.748153 
L 83.320227 65.43654 
L 79.935667 65.293061 
L 76.604229 65.313341 
L 73.357812 65.491834 
L 70.227199 65.822294 
L 67.241854 66.298174 
L 64.429802 66.912897 
L 61.817574 67.659965 
L 59.430192 68.532901 
L 57.291173 69.525027 
L 55.422546 70.629105 
L 53.844834 71.836899 
L 52.57702 73.138695 
L 51.636448 74.522855 
L 51.038679 75.975471 
L 50.797278 77.480157 
L 50.923529 79.018053 
L 51.426089 80.56803 
L 52.310573 82.107141 
L 53.579086 83.611252 
L 55.229714 85.05584 
L 57.256012 86.416863 
L 59.646516 87.67162 
L 62.384333 88.799522 
L 65.446869 89.782679 
L 68.805743 90.606243 
L 72.426951 91.258495 
L 76.271293 91.730672 
L 80.295091 92.016598 
L 84.451138 92.112195 
L 88.689846 92.014966 
L 92.960473 91.723562 
L 97.212353 91.237468 
L 101.396019 90.556894 
L 105.464144 89.682827 
L 109.372255 88.617239 
L 113.079215 87.363389 
L 116.547478 85.926142 
L 119.743168 84.312241 
L 122.636036 82.530493 
L 125.199333 80.591818 
L 127.409677 78.509166 
L 129.246916 76.297317 
L 130.694036 73.972584 
L 131.737118 71.552492 
L 132.365334 69.055453 
L 132.571003 66.50053 
L 132.349667 63.907288 
L 131.700201 61.295795 
L 130.624948 58.686731 
L 129.12987 56.10159 
L 127.224717 53.562903 
L 124.923215 51.094376 
L 122.243255 48.720852 
L 119.207073 46.468008 
L 115.841376 44.361719 
L 112.177383 42.427105 
L 108.25071 40.687338 
L 104.101068 39.162349 
L 99.771729 37.867633 
L 95.308766 36.813368 
L 90.760107 36.004002 
L 86.17447 35.438401 
L 81.600292 35.110561 
L 77.08473 35.010759 
L 72.672856 35.126967 
L 68.407073 35.446319 
L 64.326785 35.956407 
L 60.468301 36.64625 
L 56.864924 37.506824 
L 53.547171 38.531116 
L 50.543046 39.713716 
L 47.878333 41.050028 
L 45.576845 42.535196 
L 43.660601 44.162888 
L 42.149918 45.924068 
L 41.063408 47.805907 
L 40.417861 49.790962 
L 40.228028 51.856725 
L 40.506281 53.975645 
L 41.262163 56.115638 
L 42.501797 58.241096 
L 44.227184 60.314317 
L 46.435371 62.297253 
L 49.117549 64.153394 
L 52.258118 65.849589 
L 55.833845 67.357599 
L 59.813206 68.655175 
L 64.156086 69.72655 
L 68.813943 70.562267 
L 73.730553 71.158421 
L 78.843322 71.515461 
L 84.085115 71.63677 
L 89.386427 71.527299 
L 94.677658 71.192467 
L 99.891258 70.637482 
L 104.963525 69.867163 
L 109.83592 68.886187 
L 114.455849 67.699666 
L 118.776962 66.313875 
L 122.759042 64.736971 
L 126.36765 62.979557 
L 129.573622 61.05501 
L 132.352547 58.979512 
L 134.684307 56.771819 
L 136.552707 54.452799 
L 137.94523 52.044828 
L 138.852895 49.571152 
L 139.270213 47.055309 
L 139.195202 44.520708 
L 138.629446 41.990431 
L 137.578192 39.48728 
L 136.05046 37.034043 
L 134.059191 34.653897 
L 131.621422 32.370807 
L 128.758494 30.209768 
L 125.496269 28.196718 
L 121.865333 26.358009 
L 117.901108 24.719395 
L 113.643811 23.30462 
L 109.138168 22.133775 
L 104.432847 21.221717 
L 99.579566 20.576845 
L 94.631948 20.200489 
L 89.644208 20.087063 
L 84.669806 20.224984 
L 79.760222 20.598209 
L 74.963975 21.188135 
L 70.325956 21.975575 
L 65.887104 22.942512 
L 61.684392 24.073433 
L 57.751049 25.356094 
L 54.116939 26.781696 
L 50.809017 28.344474 
L 47.851771 30.040824 
L 45.26762 31.868065 
L 43.077208 33.823012 
L 41.299594 35.900489 
L 39.952326 38.091952 
L 39.051392 40.384364 
L 38.611059 42.759437 
L 38.643594 45.19334 
L 39.158871 47.656938 
L 40.163838 50.116574 
L 41.661872 52.535343 
L 43.651985 54.874789 
L 46.127928 57.096842 
L 49.077232 59.165824 
L 52.48025 61.050289 
L 56.30934 62.724474 
L 60.528304 64.16919 
L 65.092257 65.372035 
L 69.948038 66.326924 
L 75.035228 67.03305 
L 80.287768 67.493471 
L 85.636028 67.713577 
L 91.009137 67.699731 
L 96.337308 67.458268 
L 101.55391 66.994994 
L 106.597089 66.315192 
L 111.410861 65.424046 
L 115.945639 64.32733 
L 120.158301 63.032192 
L 124.011908 61.54785 
L 127.475205 59.886098 
L 130.522056 58.061529 
L 133.13089 56.091463 
L 135.284244 53.995614 
L 136.968411 51.79556 
L 138.173225 49.5141 
L 138.891946 47.174622 
L 139.121232 44.800561 
L 138.861164 42.415044 
L 138.115323 40.040775 
L 136.890881 37.700149 
L 135.198728 35.415565 
L 133.053614 33.209834 
L 130.474338 31.106532 
L 127.483945 29.130141 
L 124.109931 27.305841 
L 120.384411 25.658854 
L 116.344167 24.21334 
L 112.03053 22.990969 
L 107.489003 22.009358 
L 102.768597 21.280665 
L 97.920886 20.810615 
L 92.998839 20.598166 
L 88.05553 20.635914 
L 83.142883 20.911189 
L 78.310559 21.407658 
L 73.605114 22.107193 
L 69.069467 22.991699 
L 64.742687 24.044682 
L 60.660056 25.252343 
L 56.853336 26.604127 
L 53.351161 28.092696 
L 50.179471 29.713375 
L 47.361927 31.463183 
L 44.920257 33.339558 
L 42.874513 35.338936 
L 41.243209 37.455335 
L 40.043352 39.679079 
L 39.290356 41.995804 
L 38.997839 44.385857 
L 39.177313 46.824174 
L 39.837748 49.280675 
L 40.985012 51.721183 
L 42.621186 54.108812 
L 44.743751 56.405701 
L 47.344686 58.574954 
L 50.409516 60.58256 
L 53.916417 62.399098 
L 57.835481 64.000995 
L 62.128292 65.37121 
L 66.747958 66.499238 
L 71.639697 67.380479 
L 76.742018 68.015105 
L 81.98845 68.406634 
L 87.309668 68.560475 
L 92.635784 68.482697 
L 97.898569 68.179199 
L 103.033364 67.655378 
L 107.980525 66.916259 
L 112.686331 65.967006 
L 117.103374 64.813628 
L 121.190526 63.463729 
L 124.912595 61.927146 
L 128.239826 60.216353 
L 131.14735 58.3466 
L 133.614669 56.335759 
L 135.625244 54.203933 
L 137.1662 51.972896 
L 138.228137 49.66546 
L 138.805058 47.304873 
L 138.894355 44.914341 
L 138.496862 42.516749 
L 137.616927 40.134622 
L 136.262527 37.790309 
L 134.445395 35.506334 
L 132.181184 33.3058 
L 129.489654 31.212694 
L 126.394885 29.251931 
L 122.925475 27.449019 
L 119.114686 25.829259 
L 115.000451 24.416535 
L 110.625194 23.231806 
L 106.035375 22.291561 
L 101.280746 21.606498 
L 96.413337 21.180708 
L 91.48624 21.011538 
L 86.552315 21.090197 
L 81.662961 21.403011 
L 76.86707 21.933129 
L 72.210263 22.662396 
L 67.73445 23.573144 
L 63.477691 24.649627 
L 59.474324 25.878978 
L 55.755275 27.251592 
L 52.34846 28.760943 
L 49.279221 30.402904 
L 46.570723 32.174673 
L 44.244277 34.073446 
L 42.319558 36.094983 
L 40.814716 38.232217 
L 39.746374 40.474046 
L 39.129501 42.804454 
L 38.977185 45.202034 
L 39.300282 47.640029 
L 40.106945 50.086884 
L 41.402027 52.507317 
L 43.18635 54.863828 
L 45.455864 57.118527 
L 48.20072 59.235084 
L 51.40432 61.180626 
L 55.042452 62.927319 
L 59.082635 64.453479 
L 63.48381 65.744049 
L 68.196535 66.790403 
L 73.163748 67.589541 
L 78.322133 68.142835 
L 83.603991 68.454558 
L 88.939448 68.53047 
L 94.258764 68.376685 
L 99.494488 67.998989 
L 104.583244 67.402649 
L 109.467023 66.59268 
L 114.093929 65.574433 
L 118.418427 64.354334 
L 122.401198 62.940624 
L 126.008736 61.343928 
L 129.212816 59.577592 
L 131.989944 57.657723 
L 134.320869 55.602962 
L 136.190201 53.434027 
L 137.586152 51.17312 
L 138.500381 48.843285 
L 138.927946 46.46784 
L 138.867309 44.069944 
L 138.320395 41.672392 
L 137.292684 39.297645 
L 135.793322 36.968076 
L 133.83526 34.706353 
L 131.43543 32.535827 
L 128.614934 30.480779 
L 125.399264 28.566356 
L 121.818484 26.818099 
L 117.907344 25.261006 
L 113.705238 23.918208 
L 109.255942 22.809422 
L 104.607071 21.94944 
L 99.809246 21.346937 
L 94.915002 21.003853 
L 89.977537 20.915486 
L 85.04942 21.071316 
L 80.1814 21.456429 
L 75.421447 22.05331 
L 70.814079 22.843724 
L 66.40002 23.810416 
L 62.216157 24.938418 
L 58.295729 26.215834 
L 54.668674 27.634039 
L 51.362059 29.187339 
L 48.400498 30.87215 
L 45.806542 32.68583 
L 43.600965 34.625303 
L 41.802954 36.685618 
L 40.430183 38.858601 
L 39.498773 41.131732 
L 39.023135 43.487378 
L 39.015707 45.902472 
L 39.486563 48.348707 
L 40.442905 50.79325 
L 41.888428 53.199963 
L 43.822547 55.531021 
L 46.239531 57.748801 
L 49.127553 59.817843 
L 52.467763 61.706667 
L 56.233464 63.389236 
L 60.389548 64.845881 
L 64.892336 66.06357 
L 69.689933 67.035519 
L 74.72318 67.760224 
L 79.927192 68.24011 
L 85.233352 68.480056 
L 90.57158 68.486038 
L 95.872617 68.264124 
L 101.070089 67.819944 
L 106.102154 67.158644 
L 110.912625 66.28527 
L 115.45155 65.205424 
L 119.675335 63.926016 
L 123.5465 62.455966 
L 127.033223 60.806711 
L 130.10879 58.992453 
L 132.751063 57.030113 
L 134.942014 54.939023 
L 136.667386 52.740423 
L 137.916463 50.45684 
L 138.681955 48.111459 
L 138.95996 45.727583 
L 138.75 43.328269 
L 138.055082 40.936195 
L 136.881796 38.573758 
L 135.240442 36.263376 
L 133.145173 34.027883 
L 130.614174 31.890897 
L 127.669872 29.876982 
L 124.33914 28.011474 
L 120.65347 26.319859 
L 116.649045 24.826715 
L 112.366637 23.55429 
L 107.851264 22.520938 
L 103.151559 21.739682 
L 98.318848 21.217168 
L 93.406002 20.953256 
L 88.466155 20.941349 
L 83.55143 21.16941 
L 78.711812 21.621536 
L 73.994262 22.279799 
L 69.442157 23.126103 
L 65.095036 24.143782 
L 60.988638 25.318757 
L 57.155146 26.640139 
L 53.623574 28.100265 
L 50.420192 29.694192 
L 47.568945 31.418762 
L 45.091815 33.271354 
L 43.009073 35.248471 
L 41.339441 37.34431 
L 40.100127 39.549473 
L 39.30675 41.849941 
L 38.973153 44.22643 
L 39.111094 46.654229 
L 39.72983 49.103549 
L 40.835563 51.540398 
L 42.430764 53.927939 
L 44.513373 56.228207 
L 47.075894 58.404035 
L 50.10445 60.421006 
L 53.577867 62.249172 
L 57.466922 63.864377 
L 61.733885 65.248986 
L 66.332499 66.391948 
L 71.208524 67.288219 
L 76.300866 67.937647 
L 81.543275 68.343563 
L 86.866444 68.51131 
L 92.200314 68.446977 
L 97.476309 68.156529 
L 102.629296 67.645428 
L 107.599069 66.918735 
L 107.599069 66.918735 
" clip-path="url(#p6b2830b4d6)" style="fill: none; stroke: #1f77b4; stroke-width: 1.5; stroke-linecap: round"/>
   </g>
   <g id="line2d_27">
    <path d="M 88.883695 44.051243 
L 88.837613 98.187673 
L 88.625734 109.079317 
L 88.602774 112.543448 
L 88.811546 113.04755 
L 89.015236 113.131624 
L 88.639129 113.020232 
L 88.382454 113.161028 
L 88.432371 113.318185 
L 88.742823 113.422146 
L 89.149847 113.335646 
L 89.255909 113.137551 
L 89.08551 112.960915 
L 88.656433 112.874145 
L 88.212816 112.981762 
L 88.044431 113.208104 
L 88.164253 113.425435 
L 88.517855 113.580522 
L 89.084848 113.595649 
L 89.564422 113.401741 
L 89.707509 113.116953 
L 89.565934 112.864386 
L 89.196767 112.665847 
L 88.558437 112.576951 
L 87.909204 112.697913 
L 87.535037 112.947054 
L 87.43025 113.208809 
L 87.535266 113.483996 
L 87.850401 113.727437 
L 88.483786 113.921078 
L 89.252443 113.932978 
L 89.969991 113.739452 
L 90.376827 113.453441 
L 90.546479 113.089823 
L 90.431497 112.701665 
L 90.027826 112.350228 
L 89.378747 112.095482 
L 88.571397 111.986181 
L 87.725994 112.051043 
L 86.978973 112.292445 
L 86.462149 112.683805 
L 86.290486 113.044265 
L 86.336492 113.428473 
L 86.609769 113.801344 
L 87.099301 114.126494 
L 88.030199 114.427156 
L 89.15837 114.517643 
L 90.311677 114.36269 
L 91.299458 113.96522 
L 91.823097 113.53278 
L 92.092093 113.02002 
L 92.06639 112.468486 
L 91.731057 111.925573 
L 91.098928 111.440435 
L 90.210844 111.059583 
L 89.133403 110.822528 
L 87.954363 110.757852 
L 86.776005 110.880029 
L 85.706872 111.187275 
L 84.852465 111.660654 
L 84.305524 112.264613 
L 84.147756 112.71554 
L 84.172388 113.184677 
L 84.386268 113.65266 
L 84.788723 114.099255 
L 85.725123 114.684832 
L 87.002854 115.112526 
L 88.523408 115.328578 
L 90.158658 115.295723 
L 91.761452 114.997939 
L 93.178882 114.44332 
L 93.948913 113.946091 
L 94.534573 113.364272 
L 94.904748 112.717352 
L 95.03619 112.028132 
L 94.914703 111.321863 
L 94.535971 110.625274 
L 93.905993 109.965525 
L 93.041116 109.369126 
L 91.967669 108.860876 
L 90.72122 108.462837 
L 89.345481 108.193408 
L 87.890895 108.066491 
L 86.412956 108.090807 
L 84.97029 108.269367 
L 83.622559 108.599114 
L 82.428224 109.070776 
L 81.442237 109.668913 
L 80.713722 110.372211 
L 80.283719 111.154001 
L 80.18308 111.98303 
L 80.430619 112.824471 
L 81.031623 113.641161 
L 81.976828 114.395037 
L 83.241965 115.048721 
L 84.787969 115.567196 
L 86.561897 115.919484 
L 88.498579 116.080247 
L 90.522974 116.031205 
L 92.553131 115.762277 
L 94.503645 115.272377 
L 96.289412 114.569778 
L 97.829478 113.672036 
L 99.05078 112.605453 
L 99.89156 111.404119 
L 100.304275 110.108579 
L 100.339712 109.439522 
L 100.25787 108.764211 
L 100.057698 108.088772 
L 99.304067 106.762297 
L 98.094073 105.509357 
L 96.461549 104.377365 
L 94.457894 103.410045 
L 92.150449 102.645723 
L 89.620365 102.115817 
L 86.960013 101.843524 
L 84.270026 101.842751 
L 81.656019 102.117291 
L 79.225031 102.660267 
L 77.081741 103.453877 
L 75.324507 104.469459 
L 74.61867 105.048662 
L 74.041304 105.667925 
L 73.601117 106.320871 
L 73.305668 107.000599 
L 73.161251 107.699738 
L 73.172786 108.410505 
L 73.343716 109.124767 
L 73.675924 109.834121 
L 74.16965 110.529967 
L 74.823434 111.203603 
L 75.634068 111.84631 
L 76.596577 112.449454 
L 77.704208 113.004584 
L 80.319094 113.938545 
L 83.390532 114.588221 
L 86.805657 114.903159 
L 90.431048 114.845399 
L 94.118265 114.391932 
L 97.710538 113.536451 
L 99.421624 112.960781 
L 101.050199 112.290205 
L 102.577674 111.528855 
L 103.986352 110.681895 
L 105.259646 109.755461 
L 106.382275 108.756596 
L 107.34045 107.693171 
L 108.122035 106.573792 
L 108.716682 105.407704 
L 109.115944 104.204683 
L 109.313368 102.974933 
L 109.30455 101.72897 
L 109.087179 100.477509 
L 108.66105 99.231352 
L 108.028055 98.001283 
L 107.19215 96.797953 
L 106.159313 95.631782 
L 104.937475 94.512863 
L 103.536435 93.450866 
L 101.967771 92.454954 
L 100.244731 91.533705 
L 98.382117 90.695038 
L 96.396159 89.946144 
L 94.304388 89.293428 
L 92.125496 88.742453 
L 89.879189 88.297892 
L 87.586047 87.963482 
L 85.267366 87.741985 
L 82.944999 87.635158 
L 80.641202 87.64372 
L 78.378456 87.767331 
L 76.179305 88.004569 
L 74.06617 88.352923 
L 72.061165 88.808779 
L 70.185911 89.367422 
L 68.461333 90.023039 
L 66.907458 90.768737 
L 65.543208 91.596563 
L 64.386184 92.497536 
L 63.452448 93.461691 
L 62.756312 94.478135 
L 62.310114 95.535119 
L 62.124011 96.620112 
L 62.205778 97.719908 
L 62.560614 98.820732 
L 63.190971 99.908369 
L 64.096409 100.968306 
L 65.273465 101.985888 
L 66.715574 102.946487 
L 68.413011 103.835679 
L 70.352889 104.639431 
L 72.519194 105.344298 
L 74.892881 105.93761 
L 77.45201 106.407672 
L 80.171949 106.743943 
L 83.025617 106.937214 
L 85.983784 106.979769 
L 89.015414 106.865524 
L 92.088054 106.590146 
L 95.168248 106.151142 
L 98.221981 105.547924 
L 101.21514 104.781836 
L 104.11398 103.856156 
L 106.885579 102.776061 
L 109.498292 101.548559 
L 111.92217 100.1824 
L 114.129351 98.687949 
L 116.094413 97.077042 
L 117.794677 95.362822 
L 119.210463 93.559557 
L 120.325295 91.682447 
L 121.126048 89.747427 
L 121.603045 87.770962 
L 121.750102 85.769853 
L 121.564527 83.761037 
L 121.047071 81.761402 
L 120.201844 79.787612 
L 119.036198 77.855943 
L 117.560577 75.982132 
L 115.788352 74.181241 
L 113.735633 72.467542 
L 111.42107 70.854401 
L 108.865647 69.354192 
L 106.092468 67.978217 
L 103.126547 66.736632 
L 99.994593 65.638392 
L 96.724796 64.691204 
L 93.346621 63.901478 
L 89.890598 63.274297 
L 86.38812 62.813384 
L 82.87123 62.521077 
L 79.372424 62.398305 
L 75.924437 62.444567 
L 72.560026 62.65792 
L 69.311759 63.034962 
L 66.211772 63.570826 
L 63.291541 64.259174 
L 60.581619 65.092199 
L 58.111375 66.060636 
L 55.908711 67.153781 
L 53.999771 68.35952 
L 52.40863 69.664373 
L 51.156983 71.053558 
L 50.263822 72.511066 
L 49.74511 74.019757 
L 49.613461 75.56149 
L 49.877837 77.117259 
L 50.543252 78.667365 
L 51.61052 80.191611 
L 53.07603 81.669519 
L 54.931576 83.080571 
L 57.164248 84.40447 
L 59.756381 85.621414 
L 62.6856 86.712385 
L 65.924932 87.659441 
L 69.443016 88.446009 
L 73.204401 89.057162 
L 77.169939 89.479893 
L 81.297255 89.703347 
L 85.541304 89.719035 
L 89.854992 89.521005 
L 94.189849 89.105962 
L 98.496739 88.473352 
L 102.726601 87.625383 
L 106.831172 86.566994 
L 110.763709 85.305785 
L 114.479666 83.851878 
L 117.937323 82.217748 
L 121.098347 80.418011 
L 123.928272 78.469177 
L 126.396899 76.38938 
L 128.478603 74.198091 
L 130.152542 71.915822 
L 131.402788 69.56383 
L 132.218361 67.163824 
L 132.593189 64.737684 
L 132.525997 62.3072 
L 132.020139 59.893828 
L 131.083372 57.51847 
L 129.727603 55.20128 
L 127.968597 52.961494 
L 125.825671 50.817289 
L 123.321377 48.785657 
L 120.481184 46.882311 
L 117.333159 45.12161 
L 113.907662 43.516493 
L 110.237047 42.078434 
L 106.355381 40.817416 
L 102.298178 39.7419 
L 98.102142 38.85881 
L 93.804927 38.173526 
L 89.444912 37.689872 
L 85.060976 37.410111 
L 80.692283 37.334938 
L 76.378071 37.463479 
L 72.157437 37.793277 
L 68.06911 38.320292 
L 64.151226 39.038895 
L 60.441082 39.941861 
L 56.974876 41.02037 
L 53.787433 42.264011 
L 50.911902 43.660796 
L 48.379442 45.197181 
L 46.218888 46.858102 
L 44.456392 48.627027 
L 43.115059 50.486027 
L 42.21457 52.415874 
L 41.770805 54.396152 
L 41.795473 56.405414 
L 42.295755 58.421352 
L 43.273985 60.421004 
L 44.727365 62.380994 
L 46.647733 64.277794 
L 49.021408 66.088019 
L 51.829106 67.788737 
L 55.045956 69.357801 
L 58.641615 70.774188 
L 62.580489 72.01834 
L 66.822076 73.072495 
L 71.321412 73.921009 
L 76.029626 74.550636 
L 80.894602 74.950789 
L 85.861712 75.113742 
L 90.874631 75.034789 
L 95.876187 74.712338 
L 100.809247 74.147947 
L 105.617591 73.346297 
L 110.246775 72.315101 
L 114.644938 71.064956 
L 118.763547 69.60914 
L 122.558052 67.963363 
L 125.988451 66.145484 
L 129.019739 64.175191 
L 131.622243 62.073671 
L 133.771853 59.863269 
L 135.45013 57.567146 
L 136.644322 55.208941 
L 137.347277 52.812464 
L 137.55728 50.401391 
L 137.277817 47.999001 
L 136.51729 45.627935 
L 135.288679 43.309983 
L 133.609192 41.065908 
L 131.499883 38.915298 
L 128.985271 36.876442 
L 126.092964 34.966237 
L 122.853287 33.200117 
L 119.29893 31.592 
L 115.464615 30.154251 
L 111.386778 28.897664 
L 107.103283 27.831446 
L 102.653149 26.963215 
L 98.076301 26.298999 
L 93.413336 25.843238 
L 88.705302 25.598788 
L 83.993492 25.566921 
L 79.319235 25.74733 
L 74.723696 26.138123 
L 70.247671 26.735822 
L 65.931367 27.535358 
L 61.814183 28.530065 
L 57.934464 29.711677 
L 54.329241 31.070324 
L 51.033951 32.594541 
L 48.082132 34.271276 
L 45.505097 36.085914 
L 43.331589 38.022317 
L 41.587411 40.062878 
L 40.295048 42.188598 
L 39.473278 44.379186 
L 39.136787 46.613191 
L 39.295785 48.868156 
L 39.955656 51.12081 
L 41.116629 53.34729 
L 42.773505 55.52339 
L 44.915444 57.624849 
L 47.525827 59.627656 
L 50.582208 61.508378 
L 54.056369 63.244511 
L 57.914482 64.814829 
L 62.11739 66.199738 
L 66.621007 67.38161 
L 71.376832 68.345109 
L 76.332575 69.077475 
L 81.432879 69.568767 
L 86.620128 69.812062 
L 91.835311 69.803594 
L 97.018931 69.542826 
L 102.111927 69.032466 
L 107.056583 68.27841 
L 111.797404 67.289625 
L 116.281929 66.077969 
L 120.461471 64.657967 
L 124.291752 63.046533 
L 127.733434 61.262661 
L 130.752532 59.32709 
L 133.320711 57.261957 
L 135.415455 55.090444 
L 137.020135 52.836425 
L 138.123966 50.524134 
L 138.721874 48.177846 
L 138.814283 45.821583 
L 138.406839 43.478857 
L 137.510082 41.17243 
L 136.139084 38.92412 
L 134.313064 36.754631 
L 132.054986 34.683413 
L 129.391169 32.728556 
L 126.350894 30.906702 
L 122.966026 29.232985 
L 119.270665 27.72099 
L 115.300803 26.382724 
L 111.094021 25.228599 
L 106.689199 24.267431 
L 102.126253 23.506434 
L 97.445889 22.951231 
L 92.68938 22.605851 
L 87.898349 22.472741 
L 83.114568 22.552765 
L 78.379755 22.845207 
L 73.735382 23.347768 
L 69.222461 24.056566 
L 64.881343 24.966128 
L 60.751483 26.069384 
L 56.871202 27.357664 
L 53.277423 28.820696 
L 50.005387 30.446613 
L 47.088347 32.221962 
L 44.557234 34.131733 
L 42.440306 36.159397 
L 40.762783 38.286968 
L 39.546455 40.49508 
L 38.809296 42.763094 
L 38.565078 45.069236 
L 38.822986 47.390758 
L 39.587274 49.704133 
L 40.856941 51.985291 
L 42.625471 54.20987 
L 44.88063 56.353513 
L 47.604349 58.392179 
L 50.772695 60.30248 
L 54.355947 62.062031 
L 58.318791 63.649807 
L 62.620622 65.046491 
L 67.215977 66.234817 
L 72.05508 67.199881 
L 77.084489 67.929425 
L 82.247852 68.414074 
L 87.48673 68.647521 
L 92.741485 68.62665 
L 97.952195 68.351607 
L 103.059588 67.825788 
L 108.00595 67.055778 
L 112.735996 66.051213 
L 117.197674 64.824595 
L 121.342884 63.391047 
L 125.128101 61.76803 
L 128.514879 59.975023 
L 131.470239 58.033188 
L 133.966937 55.965012 
L 135.983613 53.793956 
L 137.504831 51.5441 
L 138.521008 49.239815 
L 139.028266 46.905448 
L 139.028194 44.565031 
L 138.527562 42.24203 
L 137.537975 39.959111 
L 136.075507 37.737955 
L 134.1603 35.59909 
L 131.816172 33.561761 
L 129.070209 31.643827 
L 125.952384 29.861682 
L 122.495177 28.230196 
L 118.733225 26.76268 
L 114.702991 25.470858 
L 110.442455 24.364859 
L 105.990839 23.453208 
L 101.388339 22.742833 
L 96.67589 22.239065 
L 91.894941 21.945646 
L 87.087246 21.864734 
L 82.294659 21.996906 
L 77.558943 22.34116 
L 72.921561 22.894909 
L 68.423483 23.653984 
L 64.104965 24.612622 
L 60.005323 25.763465 
L 56.162688 27.097553 
L 52.613741 28.604326 
L 49.393423 30.271628 
L 46.534624 32.085721 
L 44.067852 34.031317 
L 42.020871 36.091614 
L 40.418335 38.248366 
L 39.281395 40.481962 
L 38.627316 42.771541 
L 38.469082 45.095129 
L 38.815026 47.429811 
L 39.668481 49.751929 
L 41.027469 52.037324 
L 42.88445 54.261595 
L 45.226134 56.400397 
L 48.033374 58.42976 
L 51.281158 60.326426 
L 54.938709 62.068206 
L 58.969689 63.634331 
L 63.332537 65.005803 
L 67.980914 66.165734 
L 72.864269 67.099654 
L 77.928514 67.795787 
L 83.116783 68.245275 
L 88.370281 68.44236 
L 93.62917 68.384496 
L 98.833498 68.072404 
L 103.924126 67.510051 
L 108.843638 66.704577 
L 113.537195 65.666148 
L 117.953336 64.407757 
L 122.044673 62.944974 
L 125.768497 61.295655 
L 129.087266 59.479618 
L 131.968964 57.518302 
L 134.387356 55.43441 
L 136.322112 53.251555 
L 137.758824 50.993914 
L 138.688928 48.685893 
L 139.109527 46.351821 
L 139.023155 44.015669 
L 138.437471 41.700793 
L 137.364907 39.429717 
L 135.822299 37.223944 
L 133.830485 35.1038 
L 131.413905 33.088306 
L 128.600202 31.195082 
L 125.419837 29.440269 
L 121.905715 27.838477 
L 118.092837 26.402748 
L 114.017973 25.144539 
L 109.719362 24.073704 
L 105.23643 23.198498 
L 100.609539 22.525575 
L 95.879745 22.059996 
L 91.088581 21.805233 
L 86.277846 21.763174 
L 81.489408 21.934127 
L 76.765003 22.316819 
L 72.146039 22.908397 
L 67.673386 23.704418 
L 63.387167 24.698849 
L 59.326522 25.884059 
L 55.529361 27.250817 
L 52.032097 28.788289 
L 48.869349 30.484049 
L 46.073633 32.324093 
L 43.675019 34.29287 
L 41.700773 36.373328 
L 40.174983 38.54698 
L 39.118171 40.793995 
L 38.546902 43.093307 
L 38.473396 45.422769 
L 38.90516 47.759322 
L 39.844642 50.079204 
L 41.288936 52.358191 
L 43.229531 54.571866 
L 45.652141 56.695923 
L 48.536615 58.706483 
L 51.856946 60.580444 
L 55.581384 62.295826 
L 59.672668 63.832134 
L 64.08838 65.170703 
L 68.78141 66.29503 
L 73.700544 67.191083 
L 78.791152 67.847561 
L 83.995966 68.256121 
L 89.255935 68.411544 
L 94.511123 68.311835 
L 99.701636 67.958267 
L 104.768552 67.355354 
L 109.65482 66.510762 
L 114.30611 65.435154 
L 118.671593 64.141981 
L 122.704628 62.647224 
L 126.363343 60.969098 
L 129.611103 59.127724 
L 132.416856 57.144783 
L 134.755357 55.043162 
L 136.60728 52.846596 
L 137.959216 50.579326 
L 138.803573 48.265772 
L 139.138397 45.930224 
L 138.967115 43.596567 
L 138.298222 41.288035 
L 137.144928 39.026993 
L 135.524776 36.83476 
L 133.459249 34.731449 
L 130.97336 32.735853 
L 128.09526 30.865349 
L 124.855855 29.135822 
L 121.288431 27.561622 
L 117.428316 26.155525 
L 113.312553 24.928717 
L 108.979603 23.890784 
L 104.469073 23.049711 
L 99.821461 22.411883 
L 95.077921 21.982092 
L 90.280048 21.763545 
L 85.469672 21.757861 
L 80.688652 21.965083 
L 75.978686 22.383672 
L 71.381107 23.010506 
L 66.936678 23.840876 
L 62.685372 24.86848 
L 58.666143 26.085417 
L 54.916668 27.482186 
L 51.473081 29.047684 
L 48.369671 30.769216 
L 45.638565 32.632517 
L 43.309388 34.621779 
L 41.408898 36.719702 
L 39.96061 38.907566 
L 38.984408 41.165322 
L 38.49615 43.471712 
L 38.507289 45.804421 
L 39.024501 48.140255 
L 40.049355 50.455357 
L 41.578011 52.72545 
L 43.600998 54.926115 
L 46.103044 57.033091 
L 49.063008 59.022607 
L 52.453901 60.871724 
L 56.243024 62.558686 
L 60.392219 64.063283 
L 64.858239 65.367189 
L 69.593236 66.454298 
L 74.545369 67.311018 
L 79.659503 67.926534 
L 84.878006 68.293018 
L 90.141612 68.405787 
L 95.390324 68.263396 
L 100.564345 67.867668 
L 105.605004 67.223655 
L 110.455647 66.339542 
L 110.455647 66.339542 
" clip-path="url(#p6b2830b4d6)" style="fill: none; stroke: #ff7f0e; stroke-opacity: 0.5; stroke-width: 1.5; stroke-linecap: round"/>
   </g>
  </g>
 </g>
 <defs>
  <clipPath id="p6b2830b4d6">
   <rect x="-1.8" y="-7.2" width="176.4" height="176.4"/>
  </clipPath>
 </defs>
</svg>
