<?xml version="1.0" encoding="utf-8" standalone="no"?>
<!DOCTYPE svg PUBLIC "-//W3C//DTD SVG 1.1//EN"
  "http://www.w3.org/Graphics/SVG/1.1/DTD/svg11.dtd">
<svg xmlns:xlink="http://www.w3.org/1999/xlink" width="216pt" height="180pt" viewBox="0 0 216 180" xmlns="http://www.w3.org/2000/svg" version="1.1">
 <metadata>
  <rdf:RDF xmlns:dc="http://purl.org/dc/elements/1.1/" xmlns:cc="http://creativecommons.org/ns#" xmlns:rdf="http://www.w3.org/1999/02/22-rdf-syntax-ns#">
   <cc:Work>
    <dc:type rdf:resource="http://purl.org/dc/dcmitype/StillImage"/>
    <dc:date>2023-06-14T18:51:52.259569</dc:date>
    <dc:format>image/svg+xml</dc:format>
    <dc:creator>
     <cc:Agent>
      <dc:title>Matplotlib v3.7.0, https://matplotlib.org/</dc:title>
     </cc:Agent>
    </dc:creator>
   </cc:Work>
  </rdf:RDF>
 </metadata>
 <defs>
  <style type="text/css">*{stroke-linejoin: round; stroke-linecap: butt}</style>
 </defs>
 <g id="figure_1">
  <g id="patch_1">
   <path d="M 0 180 
L 216 180 
L 216 0 
L 0 0 
z
" style="fill: #ffffff"/>
  </g>
  <g id="patch_2">
   <path d="M -1 169.2 
L 174.6 169.2 
L 174.6 -1 
" style="fill: none"/>
  </g>
  <g id="pane3d_1">
   <g id="patch_3">
    <path d="M 11.519416 125.705413 
L 69.772457 76.876559 
L 68.962684 6.456623 
L 7.921935 51.001381 
" style="fill: none; opacity: 0.5; stroke: #f2f2f2; stroke-linejoin: miter"/>
   </g>
  </g>
  <g id="pane3d_2">
   <g id="patch_4">
    <path d="M 69.772457 76.876559 
L 163.247803 104.046152 
L 166.583609 31.200681 
L 68.962684 6.456623 
" style="fill: none; opacity: 0.5; stroke: #e6e6e6; stroke-linejoin: miter"/>
   </g>
  </g>
  <g id="pane3d_3">
   <g id="patch_5">
    <path d="M 11.519416 125.705413 
L 110.607849 158.067695 
L 163.247803 104.046152 
L 69.772457 76.876559 
" style="fill: none; opacity: 0.5; stroke: #ececec; stroke-linejoin: miter"/>
   </g>
  </g>
  <g id="axis3d_1">
   <g id="line2d_1">
    <path d="M 11.519416 125.705413 
L 110.607849 158.067695 
" style="fill: none; stroke: #ffffff; stroke-width: 0.8; stroke-linecap: round"/>
   </g>
   <g id="text_1">
    <!-- x -->
    <g style="fill: #262626" transform="translate(40.437569 179.640981) scale(0.1 -0.1)">
     <defs>
      <path id="DejaVuSans-78" d="M 3513 3500 
L 2247 1797 
L 3578 0 
L 2900 0 
L 1881 1375 
L 863 0 
L 184 0 
L 1544 1831 
L 300 3500 
L 978 3500 
L 1906 2253 
L 2834 3500 
L 3513 3500 
z
" transform="scale(0.015625)"/>
     </defs>
     <use xlink:href="#DejaVuSans-78"/>
    </g>
   </g>
   <g id="Line3DCollection_1">
    <path d="M 33.741851 132.96326 
L 90.807938 82.990743 
L 90.895157 12.015865 
" style="fill: none; stroke: #d3d3d3; stroke-width: 0.8"/>
    <path d="M 57.117524 140.597755 
L 112.890095 89.409154 
L 113.941358 17.857405 
" style="fill: none; stroke: #d3d3d3; stroke-width: 0.8"/>
    <path d="M 81.090833 148.427438 
L 135.489084 95.977788 
L 137.550762 23.841701 
" style="fill: none; stroke: #d3d3d3; stroke-width: 0.8"/>
    <path d="M 105.684995 156.459891 
L 158.623262 102.70198 
L 161.744272 29.97405 
" style="fill: none; stroke: #d3d3d3; stroke-width: 0.8"/>
   </g>
   <g id="xtick_1">
    <g id="line2d_2">
     <path d="M 88.783784 78.616216 
" clip-path="url(#p9271e5d348)" style="fill: none; stroke: #d3d3d3; stroke-width: 0.8; stroke-linecap: round"/>
    </g>
    <g id="line2d_3">
     <path d="M 34.239136 132.52779 
L 32.745128 133.836086 
" style="fill: none; stroke: #808080; stroke-width: 0.8; stroke-linecap: round"/>
    </g>
    <g id="text_2">
     <!-- −10 -->
     <g style="fill: #808080" transform="translate(15.671112 156.47207) scale(0.1 -0.1)">
      <defs>
       <path id="DejaVuSans-2212" d="M 678 2272 
L 4684 2272 
L 4684 1741 
L 678 1741 
L 678 2272 
z
" transform="scale(0.015625)"/>
       <path id="DejaVuSans-31" d="M 794 531 
L 1825 531 
L 1825 4091 
L 703 3866 
L 703 4441 
L 1819 4666 
L 2450 4666 
L 2450 531 
L 3481 531 
L 3481 0 
L 794 0 
L 794 531 
z
" transform="scale(0.015625)"/>
       <path id="DejaVuSans-30" d="M 2034 4250 
Q 1547 4250 1301 3770 
Q 1056 3291 1056 2328 
Q 1056 1369 1301 889 
Q 1547 409 2034 409 
Q 2525 409 2770 889 
Q 3016 1369 3016 2328 
Q 3016 3291 2770 3770 
Q 2525 4250 2034 4250 
z
M 2034 4750 
Q 2819 4750 3233 4129 
Q 3647 3509 3647 2328 
Q 3647 1150 3233 529 
Q 2819 -91 2034 -91 
Q 1250 -91 836 529 
Q 422 1150 422 2328 
Q 422 3509 836 4129 
Q 1250 4750 2034 4750 
z
" transform="scale(0.015625)"/>
      </defs>
      <use xlink:href="#DejaVuSans-2212"/>
      <use xlink:href="#DejaVuSans-31" x="83.789062"/>
      <use xlink:href="#DejaVuSans-30" x="147.412109"/>
     </g>
    </g>
   </g>
   <g id="xtick_2">
    <g id="line2d_4">
     <path d="M 88.783784 78.616216 
" clip-path="url(#p9271e5d348)" style="fill: none; stroke: #d3d3d3; stroke-width: 0.8; stroke-linecap: round"/>
    </g>
    <g id="line2d_5">
     <path d="M 57.604039 140.151226 
L 56.14236 141.492769 
" style="fill: none; stroke: #808080; stroke-width: 0.8; stroke-linecap: round"/>
    </g>
    <g id="text_3">
     <!-- 0 -->
     <g style="fill: #808080" transform="translate(46.456619 164.352361) scale(0.1 -0.1)">
      <use xlink:href="#DejaVuSans-30"/>
     </g>
    </g>
   </g>
   <g id="xtick_3">
    <g id="line2d_6">
     <path d="M 88.783784 78.616216 
" clip-path="url(#p9271e5d348)" style="fill: none; stroke: #d3d3d3; stroke-width: 0.8; stroke-linecap: round"/>
    </g>
    <g id="line2d_7">
     <path d="M 81.565863 147.969424 
L 80.138665 149.345498 
" style="fill: none; stroke: #808080; stroke-width: 0.8; stroke-linecap: round"/>
    </g>
    <g id="text_4">
     <!-- 10 -->
     <g style="fill: #808080" transform="translate(67.29189 172.435296) scale(0.1 -0.1)">
      <use xlink:href="#DejaVuSans-31"/>
      <use xlink:href="#DejaVuSans-30" x="63.623047"/>
     </g>
    </g>
   </g>
   <g id="xtick_4">
    <g id="line2d_8">
     <path d="M 88.783784 78.616216 
" clip-path="url(#p9271e5d348)" style="fill: none; stroke: #d3d3d3; stroke-width: 0.8; stroke-linecap: round"/>
    </g>
    <g id="line2d_9">
     <path d="M 106.147777 155.989944 
L 104.75735 157.401899 
" style="fill: none; stroke: #808080; stroke-width: 0.8; stroke-linecap: round"/>
    </g>
    <g id="text_5">
     <!-- 20 -->
     <g style="fill: #808080" transform="translate(91.934046 180.728794) scale(0.1 -0.1)">
      <defs>
       <path id="DejaVuSans-32" d="M 1228 531 
L 3431 531 
L 3431 0 
L 469 0 
L 469 531 
Q 828 903 1448 1529 
Q 2069 2156 2228 2338 
Q 2531 2678 2651 2914 
Q 2772 3150 2772 3378 
Q 2772 3750 2511 3984 
Q 2250 4219 1831 4219 
Q 1534 4219 1204 4116 
Q 875 4013 500 3803 
L 500 4441 
Q 881 4594 1212 4672 
Q 1544 4750 1819 4750 
Q 2544 4750 2975 4387 
Q 3406 4025 3406 3419 
Q 3406 3131 3298 2873 
Q 3191 2616 2906 2266 
Q 2828 2175 2409 1742 
Q 1991 1309 1228 531 
z
" transform="scale(0.015625)"/>
      </defs>
      <use xlink:href="#DejaVuSans-32"/>
      <use xlink:href="#DejaVuSans-30" x="63.623047"/>
     </g>
    </g>
   </g>
  </g>
  <g id="axis3d_2">
   <g id="line2d_10">
    <path d="M 163.247803 104.046152 
L 110.607849 158.067695 
" style="fill: none; stroke: #ffffff; stroke-width: 0.8; stroke-linecap: round"/>
   </g>
   <g id="text_6">
    <!-- y -->
    <g style="fill: #262626" transform="translate(162.133934 160.636398) scale(0.1 -0.1)">
     <defs>
      <path id="DejaVuSans-79" d="M 2059 -325 
Q 1816 -950 1584 -1140 
Q 1353 -1331 966 -1331 
L 506 -1331 
L 506 -850 
L 844 -850 
Q 1081 -850 1212 -737 
Q 1344 -625 1503 -206 
L 1606 56 
L 191 3500 
L 800 3500 
L 1894 763 
L 2988 3500 
L 3597 3500 
L 2059 -325 
z
" transform="scale(0.015625)"/>
     </defs>
     <use xlink:href="#DejaVuSans-79"/>
    </g>
   </g>
   <g id="Line3DCollection_2">
    <path d="M 15.377505 45.560646 
L 18.61081 119.761266 
L 117.040827 151.465877 
" style="fill: none; stroke: #d3d3d3; stroke-width: 0.8"/>
    <path d="M 28.084372 36.287754 
L 30.712144 109.617689 
L 128.002605 140.216396 
" style="fill: none; stroke: #d3d3d3; stroke-width: 0.8"/>
    <path d="M 40.343837 27.341354 
L 42.405531 99.816059 
L 138.575753 129.365745 
" style="fill: none; stroke: #d3d3d3; stroke-width: 0.8"/>
    <path d="M 52.179122 18.704502 
L 53.71126 90.339374 
L 148.780579 118.893083 
" style="fill: none; stroke: #d3d3d3; stroke-width: 0.8"/>
    <path d="M 63.611867 10.361406 
L 64.648292 81.171736 
L 158.635998 108.778999 
" style="fill: none; stroke: #d3d3d3; stroke-width: 0.8"/>
   </g>
   <g id="xtick_5">
    <g id="line2d_11">
     <path d="M 88.783784 78.616216 
" clip-path="url(#p9271e5d348)" style="fill: none; stroke: #d3d3d3; stroke-width: 0.8; stroke-linecap: round"/>
    </g>
    <g id="line2d_12">
     <path d="M 116.211546 151.198763 
L 118.701523 152.000792 
" style="fill: none; stroke: #808080; stroke-width: 0.8; stroke-linecap: round"/>
    </g>
    <g id="text_7">
     <!-- −20 -->
     <g style="fill: #808080" transform="translate(119.316572 172.427656) scale(0.1 -0.1)">
      <use xlink:href="#DejaVuSans-2212"/>
      <use xlink:href="#DejaVuSans-32" x="83.789062"/>
      <use xlink:href="#DejaVuSans-30" x="147.412109"/>
     </g>
    </g>
   </g>
   <g id="xtick_6">
    <g id="line2d_13">
     <path d="M 88.783784 78.616216 
" clip-path="url(#p9271e5d348)" style="fill: none; stroke: #d3d3d3; stroke-width: 0.8; stroke-linecap: round"/>
    </g>
    <g id="line2d_14">
     <path d="M 127.183671 139.958834 
L 129.642543 140.732171 
" style="fill: none; stroke: #808080; stroke-width: 0.8; stroke-linecap: round"/>
    </g>
    <g id="text_8">
     <!-- −10 -->
     <g style="fill: #808080" transform="translate(130.056325 160.926866) scale(0.1 -0.1)">
      <use xlink:href="#DejaVuSans-2212"/>
      <use xlink:href="#DejaVuSans-31" x="83.789062"/>
      <use xlink:href="#DejaVuSans-30" x="147.412109"/>
     </g>
    </g>
   </g>
   <g id="xtick_7">
    <g id="line2d_15">
     <path d="M 88.783784 78.616216 
" clip-path="url(#p9271e5d348)" style="fill: none; stroke: #d3d3d3; stroke-width: 0.8; stroke-linecap: round"/>
    </g>
    <g id="line2d_16">
     <path d="M 137.76696 129.117231 
L 140.195347 129.863388 
" style="fill: none; stroke: #808080; stroke-width: 0.8; stroke-linecap: round"/>
    </g>
    <g id="text_9">
     <!-- 0 -->
     <g style="fill: #808080" transform="translate(147.786083 149.834168) scale(0.1 -0.1)">
      <use xlink:href="#DejaVuSans-30"/>
     </g>
    </g>
   </g>
   <g id="xtick_8">
    <g id="line2d_17">
     <path d="M 88.783784 78.616216 
" clip-path="url(#p9271e5d348)" style="fill: none; stroke: #d3d3d3; stroke-width: 0.8; stroke-linecap: round"/>
    </g>
    <g id="line2d_18">
     <path d="M 147.981723 118.65315 
L 150.380239 119.373535 
" style="fill: none; stroke: #808080; stroke-width: 0.8; stroke-linecap: round"/>
    </g>
    <g id="text_10">
     <!-- 10 -->
     <g style="fill: #808080" transform="translate(154.602338 139.128222) scale(0.1 -0.1)">
      <use xlink:href="#DejaVuSans-31"/>
      <use xlink:href="#DejaVuSans-30" x="63.623047"/>
     </g>
    </g>
   </g>
   <g id="xtick_9">
    <g id="line2d_19">
     <path d="M 88.783784 78.616216 
" clip-path="url(#p9271e5d348)" style="fill: none; stroke: #d3d3d3; stroke-width: 0.8; stroke-linecap: round"/>
    </g>
    <g id="line2d_20">
     <path d="M 157.846879 108.547208 
L 160.216128 109.243134 
" style="fill: none; stroke: #808080; stroke-width: 0.8; stroke-linecap: round"/>
    </g>
    <g id="text_11">
     <!-- 20 -->
     <g style="fill: #808080" transform="translate(164.25725 128.789146) scale(0.1 -0.1)">
      <use xlink:href="#DejaVuSans-32"/>
      <use xlink:href="#DejaVuSans-30" x="63.623047"/>
     </g>
    </g>
   </g>
  </g>
  <g id="axis3d_3">
   <g id="line2d_21">
    <path d="M 163.247803 104.046152 
L 166.583609 31.200681 
" style="fill: none; stroke: #ffffff; stroke-width: 0.8; stroke-linecap: round"/>
   </g>
   <g id="text_12">
    <!-- z -->
    <g style="fill: #262626" transform="translate(202.494937 65.789607) scale(0.1 -0.1)">
     <defs>
      <path id="DejaVuSans-7a" d="M 353 3500 
L 3084 3500 
L 3084 2975 
L 922 459 
L 3084 459 
L 3084 0 
L 275 0 
L 275 525 
L 2438 3041 
L 353 3041 
L 353 3500 
z
" transform="scale(0.015625)"/>
     </defs>
     <use xlink:href="#DejaVuSans-7a"/>
    </g>
   </g>
   <g id="Line3DCollection_3">
    <path d="M 163.472347 99.142702 
L 69.717842 72.127038 
L 11.27764 120.68476 
" style="fill: none; stroke: #d3d3d3; stroke-width: 0.8"/>
    <path d="M 164.370623 79.526644 
L 69.499509 53.14027 
L 10.309872 100.58844 
" style="fill: none; stroke: #d3d3d3; stroke-width: 0.8"/>
    <path d="M 165.290769 59.432999 
L 69.276118 33.713612 
L 9.317631 79.983915 
" style="fill: none; stroke: #d3d3d3; stroke-width: 0.8"/>
    <path d="M 166.233594 38.844111 
L 69.047491 13.831599 
L 8.299977 58.851661 
" style="fill: none; stroke: #d3d3d3; stroke-width: 0.8"/>
   </g>
   <g id="xtick_10">
    <g id="line2d_22">
     <path d="M 88.783784 78.616216 
" style="fill: none; stroke: #d3d3d3; stroke-width: 0.8; stroke-linecap: round"/>
    </g>
    <g id="line2d_23">
     <path d="M 162.685377 98.915934 
L 165.048163 99.596779 
" style="fill: none; stroke: #808080; stroke-width: 0.8; stroke-linecap: round"/>
    </g>
    <g id="text_13">
     <!-- 10 -->
     <g style="fill: #808080" transform="translate(175.384381 104.154512) scale(0.1 -0.1)">
      <use xlink:href="#DejaVuSans-31"/>
      <use xlink:href="#DejaVuSans-30" x="63.623047"/>
     </g>
    </g>
   </g>
   <g id="xtick_11">
    <g id="line2d_24">
     <path d="M 88.783784 78.616216 
" style="fill: none; stroke: #d3d3d3; stroke-width: 0.8; stroke-linecap: round"/>
    </g>
    <g id="line2d_25">
     <path d="M 163.573831 79.305034 
L 165.96613 79.9704 
" style="fill: none; stroke: #808080; stroke-width: 0.8; stroke-linecap: round"/>
    </g>
    <g id="text_14">
     <!-- 20 -->
     <g style="fill: #808080" transform="translate(176.497319 84.597406) scale(0.1 -0.1)">
      <use xlink:href="#DejaVuSans-32"/>
      <use xlink:href="#DejaVuSans-30" x="63.623047"/>
     </g>
    </g>
   </g>
   <g id="xtick_12">
    <g id="line2d_26">
     <path d="M 88.783784 78.616216 
" style="fill: none; stroke: #d3d3d3; stroke-width: 0.8; stroke-linecap: round"/>
    </g>
    <g id="line2d_27">
     <path d="M 164.483908 59.216866 
L 166.906464 59.865794 
" style="fill: none; stroke: #808080; stroke-width: 0.8; stroke-linecap: round"/>
    </g>
    <g id="text_15">
     <!-- 30 -->
     <g style="fill: #808080" transform="translate(177.637228 64.566357) scale(0.1 -0.1)">
      <defs>
       <path id="DejaVuSans-33" d="M 2597 2516 
Q 3050 2419 3304 2112 
Q 3559 1806 3559 1356 
Q 3559 666 3084 287 
Q 2609 -91 1734 -91 
Q 1441 -91 1130 -33 
Q 819 25 488 141 
L 488 750 
Q 750 597 1062 519 
Q 1375 441 1716 441 
Q 2309 441 2620 675 
Q 2931 909 2931 1356 
Q 2931 1769 2642 2001 
Q 2353 2234 1838 2234 
L 1294 2234 
L 1294 2753 
L 1863 2753 
Q 2328 2753 2575 2939 
Q 2822 3125 2822 3475 
Q 2822 3834 2567 4026 
Q 2313 4219 1838 4219 
Q 1578 4219 1281 4162 
Q 984 4106 628 3988 
L 628 4550 
Q 988 4650 1302 4700 
Q 1616 4750 1894 4750 
Q 2613 4750 3031 4423 
Q 3450 4097 3450 3541 
Q 3450 3153 3228 2886 
Q 3006 2619 2597 2516 
z
" transform="scale(0.015625)"/>
      </defs>
      <use xlink:href="#DejaVuSans-33"/>
      <use xlink:href="#DejaVuSans-30" x="63.623047"/>
     </g>
    </g>
   </g>
   <g id="xtick_13">
    <g id="line2d_28">
     <path d="M 88.783784 78.616216 
" style="fill: none; stroke: #d3d3d3; stroke-width: 0.8; stroke-linecap: round"/>
    </g>
    <g id="line2d_29">
     <path d="M 165.416405 38.633793 
L 167.869994 39.265266 
" style="fill: none; stroke: #808080; stroke-width: 0.8; stroke-linecap: round"/>
    </g>
    <g id="text_16">
     <!-- 40 -->
     <g style="fill: #808080" transform="translate(178.8051 44.043926) scale(0.1 -0.1)">
      <defs>
       <path id="DejaVuSans-34" d="M 2419 4116 
L 825 1625 
L 2419 1625 
L 2419 4116 
z
M 2253 4666 
L 3047 4666 
L 3047 1625 
L 3713 1625 
L 3713 1100 
L 3047 1100 
L 3047 0 
L 2419 0 
L 2419 1100 
L 313 1100 
L 313 1709 
L 2253 4666 
z
" transform="scale(0.015625)"/>
      </defs>
      <use xlink:href="#DejaVuSans-34"/>
      <use xlink:href="#DejaVuSans-30" x="63.623047"/>
     </g>
    </g>
   </g>
  </g>
  <g id="axes_1">
   <g id="line2d_30">
    <path d="M 120.621152 105.468068 
L 123.930596 102.837394 
L 127.342198 99.800166 
L 130.804714 96.347922 
L 134.255729 92.493447 
L 137.623801 88.276897 
L 140.831415 83.770694 
L 143.797828 79.082035 
L 146.440658 74.352054 
L 148.675572 69.750915 
L 150.414752 65.468244 
L 151.56664 61.698362 
L 152.040599 58.62012 
L 151.759275 56.372722 
L 150.677795 55.03193 
L 148.803696 54.594052 
L 146.208315 54.975052 
L 143.022518 56.027249 
L 139.416878 57.568517 
L 131.661432 61.400178 
L 114.587254 70.180116 
L 109.543352 72.563243 
L 105.431111 74.339147 
L 100.644406 76.116821 
L 97.075154 77.140795 
L 94.355576 77.67214 
L 92.237659 77.887767 
L 90.073655 77.879566 
L 88.101421 77.618105 
L 86.456202 77.156062 
L 85.201389 76.579668 
L 84.355567 75.968302 
L 83.907836 75.37784 
L 83.819382 74.890951 
L 83.972773 74.497481 
L 84.37419 74.127697 
L 85.083001 73.807561 
L 86.134863 73.593499 
L 87.507853 73.547018 
L 89.487966 73.726387 
L 92.258332 73.966794 
L 93.747811 73.867469 
L 94.995282 73.57595 
L 95.938464 73.140762 
L 96.394633 72.717581 
L 96.46015 72.393781 
L 96.272972 72.155183 
L 95.78927 71.961818 
L 94.893946 71.866461 
L 93.797487 71.967325 
L 93.325234 72.190003 
L 93.357447 72.350756 
L 93.660298 72.478157 
L 94.164177 72.460282 
L 94.237266 72.389306 
L 94.152556 72.346808 
L 94.004427 72.368593 
L 94.054405 72.376317 
" clip-path="url(#p9271e5d348)" style="fill: none; stroke: #1f77b4; stroke-width: 1.5; stroke-linecap: round"/>
   </g>
   <g id="line2d_31">
    <path d="M 120.621152 105.468068 
L 122.560452 102.301985 
L 127.171207 95.566925 
L 132.432433 88.043131 
L 135.1541 83.934695 
L 137.831986 79.604398 
L 140.371361 75.090165 
L 142.665377 70.459717 
L 144.598394 65.812682 
L 146.051942 61.279442 
L 146.913384 57.015377 
L 147.086737 53.189638 
L 146.504361 49.968674 
L 145.137512 47.496316 
L 143.003367 45.873841 
L 140.166445 45.144426 
L 136.733409 45.286066 
L 132.841858 46.215117 
L 128.645284 47.799777 
L 124.297292 49.880065 
L 119.93804 52.289452 
L 115.684891 54.873551 
L 107.829371 60.079561 
L 101.137121 64.83605 
L 95.688814 68.913272 
L 91.378714 72.346071 
L 88.022862 75.275372 
L 85.421942 77.852528 
L 83.39097 80.198664 
L 81.770156 82.396018 
L 79.82371 85.512425 
L 75.9232 92.149413 
L 74.672427 93.856902 
L 73.266519 95.452121 
L 71.661222 96.910824 
L 69.814762 98.200628 
L 67.688197 99.277672 
L 65.247479 100.082394 
L 63.901034 100.358548 
L 62.467861 100.534733 
L 60.94756 100.596986 
L 59.341475 100.529582 
L 57.653152 100.315041 
L 55.888882 99.934257 
L 54.058287 99.366776 
L 52.17495 98.591299 
L 50.257044 97.586445 
L 48.327896 96.331852 
L 46.416412 94.809644 
L 44.557252 93.00628 
L 42.790629 90.914758 
L 41.161611 88.537053 
L 39.718782 85.886589 
L 38.512224 82.990448 
L 37.590798 79.890893 
L 36.998882 76.645807 
L 36.772812 73.327608 
L 36.937459 70.020424 
L 37.503392 66.815533 
L 38.465132 63.805412 
L 39.800835 61.07708 
L 41.47354 58.705626 
L 43.433858 56.748854 
L 45.623716 55.243804 
L 47.980607 54.205543 
L 50.441775 53.628212 
L 52.947843 53.487918 
L 55.445559 53.746849 
L 57.889545 54.357876 
L 60.243087 55.269026 
L 62.47813 56.427349 
L 64.574699 57.781942 
L 66.519954 59.286037 
L 68.307078 60.898249 
L 69.934133 62.583102 
L 71.402973 64.311029 
L 72.718277 66.058018 
L 74.916298 69.537392 
L 76.594137 72.916812 
L 77.823687 76.140326 
L 78.673181 79.183291 
L 79.20203 82.039932 
L 79.458541 84.715035 
L 79.479318 87.218648 
L 79.289609 89.562777 
L 78.904066 91.759291 
L 78.327603 93.818504 
L 77.556199 95.748056 
L 76.577555 97.551813 
L 75.371638 99.228527 
L 73.911202 100.770016 
L 72.16251 102.158607 
L 70.086581 103.363533 
L 67.641541 104.33602 
L 66.267728 104.713388 
L 64.786923 105.002894 
L 63.195512 105.190317 
L 61.491151 105.258931 
L 59.673298 105.18929 
L 57.743851 104.959081 
L 55.707924 104.543114 
L 53.574735 103.913502 
L 51.358607 103.040124 
L 49.080032 101.891495 
L 46.766721 100.436136 
L 44.454522 98.644576 
L 42.188031 96.492065 
L 40.020674 93.961993 
L 38.014006 91.049899 
L 36.235959 87.767779 
L 34.757857 84.14815 
L 33.650145 80.247139 
L 32.977018 76.145712 
L 32.790443 71.948205 
L 33.12435 67.777591 
L 33.98997 63.767495 
L 35.373237 60.051691 
L 37.23494 56.752534 
L 39.513733 53.970189 
L 42.131595 51.774507 
L 45.000763 50.20083 
L 48.031019 49.250134 
L 51.136203 48.893036 
L 54.239218 49.076484 
L 57.275184 49.731689 
L 60.192785 50.781953 
L 62.954155 52.149405 
L 65.533736 53.76012 
L 67.916558 55.547499 
L 70.096292 57.454067 
L 72.073339 59.432032 
L 73.853109 61.442951 
L 75.444546 63.45686 
L 76.85893 65.451127 
L 79.207888 69.319617 
L 81.006228 72.969516 
L 82.356859 76.371224 
L 83.351635 79.522935 
L 84.06831 82.437116 
L 84.756588 86.404842 
L 85.116983 89.950543 
L 85.260598 94.133929 
L 85.137335 97.813504 
L 84.795248 101.091989 
L 84.220283 104.050609 
L 83.598282 106.10013 
L 82.760775 108.031373 
L 81.638266 109.864414 
L 80.685264 111.03895 
L 79.526557 112.177166 
L 78.117178 113.275988 
L 76.402763 114.325527 
L 74.318466 115.304899 
L 71.788545 116.175771 
L 68.727543 116.872587 
L 65.044774 117.288324 
L 62.942898 117.341276 
L 60.655047 117.254826 
L 58.174974 116.994365 
L 55.500394 116.518323 
L 52.634753 115.777566 
L 49.58943 114.715201 
L 46.386388 113.267055 
L 43.061197 111.363255 
L 39.666233 108.931377 
L 36.273653 105.901724 
L 32.977526 102.215176 
L 29.894206 97.833767 
L 27.159846 92.75354 
L 24.923951 87.018247 
L 23.338293 80.731257 
L 22.541443 74.061989 
L 22.640628 67.242889 
L 23.694179 60.554165 
L 25.698818 54.296373 
L 28.585652 48.754929 
L 32.22678 44.16402 
L 36.451422 40.678511 
L 41.067678 38.360299 
L 45.884774 37.181125 
L 50.731216 37.039046 
L 55.46631 37.782688 
L 59.984729 39.236845 
L 64.215502 41.22447 
L 68.117485 43.582476 
L 71.673288 46.170926 
L 74.883103 48.876615 
L 77.759266 51.612653 
L 80.321886 54.315652 
L 82.595571 56.941809 
L 86.383781 61.861948 
L 89.339061 66.26776 
L 91.660909 70.15236 
L 94.327737 75.081684 
L 97.058499 80.214668 
L 98.298047 82.246247 
L 99.555564 83.951449 
L 100.890902 85.339478 
L 102.35422 86.408789 
L 103.987864 87.14719 
L 105.827103 87.532027 
L 107.899467 87.530713 
L 110.222411 87.102065 
L 112.798994 86.199196 
L 115.611341 84.775031 
L 118.611978 82.791719 
L 121.713856 80.235148 
L 123.26241 78.748769 
L 124.781199 77.134793 
L 126.244907 75.40752 
L 127.625154 73.586774 
L 128.891054 71.6983 
L 130.010078 69.77384 
L 130.949244 67.850761 
L 131.676634 65.971136 
L 132.163155 64.180227 
L 132.384439 62.52438 
L 132.322713 61.048445 
L 131.968432 59.79294 
L 131.321474 58.791239 
L 130.391691 58.067163 
L 129.198722 57.633278 
L 127.77102 57.490186 
L 126.144207 57.6269 
L 124.358915 58.022251 
L 122.458386 58.647116 
L 120.486079 59.467127 
L 118.48354 60.44549 
L 114.534645 62.73309 
L 110.853782 65.252924 
L 107.595259 67.818335 
L 104.834231 70.31737 
L 102.586652 72.696798 
L 100.830785 74.940272 
L 99.525143 77.049528 
L 98.621372 79.031695 
L 98.072531 80.89226 
L 97.83787 82.632001 
L 97.885199 84.246166 
L 98.191739 85.724615 
L 98.744052 87.052163 
L 99.537449 88.208702 
L 100.575079 89.168966 
L 101.866729 89.9019 
L 103.42727 90.369754 
L 105.274504 90.527085 
L 107.426077 90.320017 
L 109.894952 89.686365 
L 112.682851 88.557555 
L 115.771101 86.863787 
L 119.108621 84.544345 
L 120.842545 83.137634 
L 122.597691 81.565066 
L 124.352231 79.83075 
L 126.079903 77.944062 
L 127.749978 75.920706 
L 129.327529 73.783658 
L 130.774074 71.563845 
L 132.048668 69.30038 
L 133.109493 67.040163 
L 133.915911 64.836681 
L 134.430928 62.747889 
L 134.623864 60.833212 
L 134.472988 59.149798 
L 133.967797 57.748403 
L 133.11059 56.669363 
L 131.917081 55.939244 
L 130.415846 55.568702 
L 128.646652 55.551902 
L 126.65781 55.86763 
L 124.50292 56.481903 
L 122.237417 57.351632 
L 119.915317 58.428764 
L 117.586515 59.664307 
L 113.076816 62.429571 
L 108.970019 65.343513 
L 105.411739 68.210125 
L 102.453068 70.931517 
L 100.081209 73.477425 
L 98.247383 75.853927 
L 96.887534 78.080551 
L 95.935749 80.177008 
L 95.331999 82.157243 
L 95.026017 84.027869 
L 94.978772 85.788697 
L 95.162575 87.433897 
L 95.560508 88.953046 
L 96.16557 90.331702 
L 96.979771 91.551424 
L 98.013255 92.589236 
L 99.283434 93.416592 
L 100.813997 93.9979 
L 102.633556 94.288728 
L 104.773548 94.233885 
L 107.264834 93.765789 
L 110.132193 92.8039 
L 113.38575 91.256622 
L 115.153481 90.233297 
L 117.008273 89.027919 
L 118.940831 87.630167 
L 120.937725 86.031879 
L 122.980664 84.228196 
L 125.045803 82.218943 
L 127.103171 80.010211 
L 129.116321 77.616055 
L 131.042343 75.06018 
L 132.83238 72.377391 
L 134.432814 69.614519 
L 135.787222 66.830499 
L 136.839162 64.095233 
L 137.535716 61.486969 
L 137.831574 59.08809 
L 137.693244 56.979471 
L 137.102868 55.233918 
L 136.061017 53.909513 
L 134.587918 53.04392 
L 132.722764 52.650676 
L 130.521075 52.718202 
L 128.050436 53.211796 
L 125.385239 54.078198 
L 122.601208 55.251907 
L 119.770443 56.662078 
L 116.957541 58.238928 
L 111.592306 61.647648 
L 106.807926 65.091304 
L 102.744171 68.354432 
L 99.421012 71.35867 
L 96.786331 74.107745 
L 94.753612 76.640865 
L 93.226646 79.003561 
L 92.113635 81.233748 
L 91.334111 83.357524 
L 90.821496 85.38991 
L 90.523242 87.337421 
L 90.394384 90.100164 
L 90.574523 92.66187 
L 91.023257 95.002935 
L 91.468896 96.428947 
L 92.039265 97.736889 
L 92.747583 98.915734 
L 93.613001 99.951486 
L 94.660762 100.825896 
L 95.922505 101.514793 
L 97.436578 101.98593 
L 99.248136 102.196265 
L 101.408689 102.088621 
L 103.974481 101.587815 
L 107.002768 100.596692 
L 110.544513 98.993193 
L 112.5191 97.916843 
L 114.631403 96.630882 
L 116.878896 95.114567 
L 119.254625 93.347462 
L 121.74595 91.31069 
L 124.333138 88.98866 
L 126.987862 86.371351 
L 129.671753 83.457159 
L 132.335159 80.256258 
L 134.916414 76.794295 
L 137.341927 73.116027 
L 139.527522 69.288323 
L 141.38139 65.401692 
L 142.808935 61.569393 
L 143.719546 57.923195 
L 144.034889 54.605213 
L 143.697851 51.755984 
L 142.680753 49.499948 
L 140.991196 47.93058 
L 138.67405 47.098142 
L 135.808726 47.002906 
L 132.501903 47.595692 
L 128.876946 48.785758 
L 125.062021 50.454208 
L 121.179049 52.469852 
L 117.335159 54.704226 
L 113.617493 57.043267 
L 106.800771 61.68927 
L 101.0138 65.949056 
L 96.300067 69.674377 
L 92.565186 72.90061 
L 89.655704 75.735323 
L 87.405954 78.291856 
L 85.661271 80.660895 
L 84.28718 82.904389 
L 82.680452 86.110322 
L 78.754875 94.856723 
L 77.722309 96.607114 
L 76.539314 98.270984 
L 75.165246 99.835571 
L 73.557716 101.282516 
L 71.671995 102.584768 
L 69.461448 103.70233 
L 66.879564 104.57663 
L 65.435909 104.897462 
L 63.884466 105.12346 
L 62.222082 105.238765 
L 60.447217 105.224911 
L 58.560532 105.060645 
L 56.565596 104.721854 
L 54.469726 104.181648 
L 52.284944 103.410696 
L 50.029008 102.377917 
L 47.726481 101.051618 
L 45.409714 99.401236 
L 43.119601 97.399737 
L 40.905905 95.026752 
L 38.826905 92.272361 
L 36.948103 89.141318 
L 35.339762 85.657283 
L 34.073159 81.866397 
L 33.215629 77.83938 
L 32.824771 73.671247 
L 32.942472 69.477954 
L 33.589665 65.389712 
L 34.762795 61.541395 
L 36.432792 58.061226 
L 38.546931 55.059465 
L 41.033363 52.619029 
L 43.807567 50.789587 
L 46.779612 49.585936 
L 49.861092 48.990529 
L 52.970806 48.959214 
L 56.038676 49.428809 
L 59.00781 50.325105 
L 61.834935 51.570122 
L 64.489635 53.087919 
L 66.952811 54.808676 
L 69.214808 56.671109 
L 71.27346 58.623495 
L 73.132288 60.62366 
L 74.798917 62.638303 
L 76.283769 64.64193 
L 78.75778 68.546017 
L 80.659485 72.243307 
L 82.093166 75.696046 
L 83.153195 78.897972 
L 83.920224 81.859347 
L 84.662238 85.890416 
L 85.05749 89.490323 
L 85.216181 92.725702 
L 85.170669 96.571457 
L 84.894233 99.983366 
L 84.391421 103.049488 
L 83.837503 105.165448 
L 83.088151 107.152691 
L 82.082764 109.0331 
L 81.229412 110.235852 
L 80.19235 111.401357 
L 78.931499 112.529144 
L 77.398141 113.613566 
L 75.533696 114.640577 
L 73.268863 115.582696 
L 70.523763 116.391291 
L 67.210292 116.985069 
L 65.312147 117.163141 
L 63.238844 117.233658 
L 60.981346 117.169066 
L 58.533053 116.935776 
L 55.89111 116.493381 
L 53.058108 115.794028 
L 50.044209 114.78216 
L 46.869723 113.394885 
L 43.568065 111.563374 
L 40.188916 109.215756 
L 36.80124 106.282037 
L 33.495546 102.701525 
L 30.384557 98.432957 
L 27.601194 93.466992 
L 25.292783 87.839798 
L 23.610711 81.645292 
L 22.695638 75.04252 
L 22.659723 68.254185 
L 23.5689 61.55333 
L 25.429319 55.237749 
L 28.181941 49.595579 
L 31.707538 44.869094 
L 35.841456 41.225203 
L 40.394671 38.739551 
L 45.17608 37.396919 
L 50.011339 37.105819 
L 54.755364 37.721772 
L 59.297873 39.072838 
L 63.563124 40.9822 
L 67.505846 43.284854 
L 71.105354 45.837711 
L 74.359377 48.523946 
L 77.278519 51.253101 
L 79.881749 53.958593 
L 82.192977 56.593941 
L 86.045797 61.544518 
L 89.051402 65.988034 
L 91.41024 69.911731 
L 94.111026 74.897325 
L 97.476056 81.173515 
L 98.709876 83.073083 
L 99.987878 84.652737 
L 101.365565 85.917192 
L 102.889767 86.860479 
L 104.600099 87.466024 
L 106.529171 87.706892 
L 108.70131 87.546509 
L 111.129475 86.940441 
L 113.810057 85.840112 
L 116.715413 84.199623 
L 119.784417 81.987042 
L 122.912257 79.201148 
L 124.451422 77.606529 
L 125.942285 75.893233 
L 127.35693 74.079737 
L 128.664716 72.19045 
L 129.83306 70.255895 
L 130.828564 68.31246 
L 131.618472 66.40162 
L 132.172402 64.568557 
L 132.464264 62.860161 
L 132.474182 61.322518 
L 132.190247 59.998052 
L 131.609862 58.922626 
L 130.740482 58.122943 
L 129.599619 57.614612 
L 128.214046 57.401153 
L 126.618269 57.474109 
L 124.852436 57.814249 
L 122.959928 58.39366 
L 120.984893 59.178439 
L 118.970002 60.131566 
L 114.973337 62.395177 
L 111.224375 64.917658 
L 107.888716 67.501397 
L 105.049895 70.025677 
L 102.729031 72.431782 
L 100.90688 74.700782 
L 99.542555 76.833803 
L 98.587136 78.838438 
L 97.992484 80.721085 
L 97.716376 82.483534 
L 97.725095 84.121989 
L 97.994402 85.627197 
L 98.509539 86.984819 
L 99.264676 88.175626 
L 100.262039 89.175307 
L 101.510767 89.953897 
L 103.025447 90.474867 
L 104.824111 90.694086 
L 106.925374 90.558949 
L 109.344224 90.008218 
L 112.085871 88.973449 
L 115.137058 87.383367 
L 118.454439 85.173045 
L 120.187725 83.820531 
L 121.950426 82.300007 
L 123.72225 80.613696 
L 125.478463 78.768727 
L 127.189763 76.778232 
L 128.822418 74.662376 
L 130.33875 72.449188 
L 131.698056 70.175014 
L 132.858022 67.884395 
L 133.776634 65.629189 
L 134.414544 63.466794 
L 134.73774 61.457422 
L 134.720296 59.660539 
L 134.346877 58.130745 
L 133.614679 56.913548 
L 132.534457 56.0416 
L 131.130425 55.531967 
L 129.438972 55.384906 
L 127.506294 55.584356 
L 125.385251 56.100082 
L 123.131858 56.891091 
L 120.801831 57.909782 
L 118.447598 59.106167 
L 113.846819 61.841975 
L 109.616142 64.772187 
L 105.922375 67.678476 
L 102.83118 70.446758 
L 100.337923 73.037784 
L 98.397131 75.454233 
L 96.944909 77.715588 
L 95.913722 79.84307 
L 95.241057 81.852565 
L 94.873862 83.752524 
L 94.770334 85.544316 
L 94.900174 87.223427 
L 95.244067 88.780611 
L 95.792832 90.202617 
L 96.546512 91.472343 
L 97.513493 92.568432 
L 98.709677 93.464345 
L 100.157587 94.126979 
L 101.885212 94.514903 
L 103.924253 94.576389 
L 106.307263 94.247535 
L 109.062953 93.451128 
L 112.208732 92.097406 
L 113.927558 91.181088 
L 115.739361 90.088702 
L 117.637303 88.808681 
L 119.610843 87.330958 
L 121.645003 85.647971 
L 123.719612 83.755918 
L 125.808627 81.656234 
L 127.879585 79.35728 
L 129.893344 76.876103 
L 131.804218 74.240134 
L 133.560709 71.488563 
L 135.106941 68.673077 
L 136.384943 65.85759 
L 137.337776 63.116627 
L 137.913386 60.532111 
L 138.068916 58.188502 
L 137.77498 56.166589 
L 137.019332 54.53657 
L 135.809264 53.351371 
L 134.172242 52.641338 
L 132.15449 52.411292 
L 129.817636 52.640576 
L 127.233864 53.286115 
L 124.480314 54.287918 
L 121.633546 55.575959 
L 118.76477 57.077263 
L 115.936343 58.722105 
L 110.594548 62.205691 
L 105.882385 65.664624 
L 101.914051 68.910477 
L 98.690953 71.885323 
L 96.14957 74.604812 
L 94.197478 77.113368 
L 92.736169 79.457686 
L 91.67365 81.674943 
L 90.930326 83.789935 
L 90.440908 85.816499 
L 90.154164 87.760349 
L 90.023057 90.520941 
L 90.179637 93.084902 
L 90.584214 95.434424 
L 91.232875 97.547544 
L 91.812832 98.811629 
L 92.527353 99.947956 
L 93.396992 100.942881 
L 94.448264 101.778378 
L 95.714071 102.430336 
L 97.234119 102.866359 
L 99.055139 103.042962 
L 101.230538 102.902091 
L 103.818893 102.367044 
L 106.88028 101.338207 
L 110.468937 99.689724 
L 112.473252 98.586501 
L 114.620025 97.269611 
L 116.907083 95.717302 
L 119.32772 93.908013 
L 121.869367 91.821661 
L 124.512108 89.441445 
L 127.227084 86.756226 
L 129.974926 83.763535 
L 132.704412 80.473143 
L 135.35163 76.911013 
L 137.840022 73.123222 
L 140.081737 69.179239 
L 141.980721 65.17364 
L 143.437854 61.225235 
L 144.358157 57.47257 
L 144.659676 54.065177 
L 144.283051 51.150721 
L 143.200296 48.85935 
L 141.420974 47.287719 
L 138.994151 46.48595 
L 136.00522 46.450686 
L 132.567838 47.126143 
L 128.81239 48.413118 
L 124.873224 50.183808 
L 120.876975 52.298989 
L 116.933744 54.623969 
L 109.536764 59.454729 
L 103.119181 64.025325 
L 97.817668 68.057519 
L 93.579508 71.527964 
L 90.260562 74.533474 
L 87.688226 77.199275 
L 85.694499 79.634135 
L 84.130246 81.916393 
L 82.869304 84.095267 
L 81.324327 87.224118 
L 78.562705 93.047249 
L 76.974238 95.712701 
L 75.735298 97.376723 
L 74.30332 98.932881 
L 72.635561 100.359445 
L 70.688129 101.625285 
L 68.416769 102.685535 
L 65.779446 103.476016 
L 64.31225 103.743128 
L 62.741647 103.906558 
L 61.066012 103.949811 
L 59.285631 103.853947 
L 57.40331 103.597503 
L 55.425091 103.156551 
L 53.361069 102.504957 
L 51.226284 101.614911 
L 49.041657 100.457851 
L 46.834862 99.005845 
L 44.641055 97.233541 
L 42.503262 95.120721 
L 40.472266 92.65544 
L 38.605743 89.837603 
L 36.966458 86.682671 
L 35.61939 83.225017 
L 34.627776 79.520286 
L 34.048293 75.645998 
L 33.925839 71.699762 
L 34.288592 67.794687 
L 35.144169 64.052104 
L 36.477629 60.592309 
L 38.251841 57.524559 
L 40.41027 54.937925 
L 42.881786 52.894454 
L 45.586703 51.425698 
L 48.44308 50.532898 
L 51.372397 50.19043 
L 54.30395 50.351519 
L 57.177696 50.955058 
L 59.94556 51.93239 
L 62.571462 53.213226 
L 65.030439 54.730232 
L 67.307212 56.422135 
L 69.394524 58.235484 
L 71.291463 60.125299 
L 73.001919 62.054925 
L 74.533248 63.995368 
L 75.895161 65.92436 
L 78.15618 69.686328 
L 79.880503 73.258693 
L 81.162106 76.607116 
L 82.085501 79.725154 
L 82.722317 82.621387 
L 83.130513 85.311644 
L 83.409193 89.001713 
L 83.375668 92.333401 
L 83.08576 95.363958 
L 82.556878 98.142108 
L 81.774434 100.70758 
L 81.091538 102.315148 
L 80.256967 103.848244 
L 79.244403 105.310431 
L 78.020797 106.701451 
L 76.545716 108.015499 
L 74.770764 109.238514 
L 72.639397 110.344032 
L 70.087682 111.287026 
L 67.046974 111.995072 
L 65.321932 112.227961 
L 63.450155 112.356265 
L 61.425504 112.35732 
L 59.243985 112.203991 
L 56.904731 111.864207 
L 54.41125 111.300632 
L 51.772942 110.470635 
L 49.006889 109.326702 
L 46.139867 107.81755 
L 43.210445 105.890224 
L 40.270962 103.493466 
L 37.389006 100.582626 
L 34.647904 97.126222 
L 32.145591 93.113955 
L 29.991228 88.565509 
L 28.299064 83.538841 
L 27.179464 78.136062 
L 26.727701 72.504651 
L 27.011963 66.831984 
L 28.06274 61.332252 
L 29.866057 56.226662 
L 32.362491 51.719966 
L 35.452674 47.977864 
L 39.008313 45.110043 
L 42.886413 43.162205 
L 46.943734 42.117981 
L 51.04891 41.909138 
L 55.090677 42.430786 
L 58.981855 43.557913 
L 62.659698 45.160273 
L 66.083713 47.113812 
L 69.232099 49.308091 
L 72.097748 51.650033 
L 74.684442 54.06481 
L 77.003572 56.494806 
L 79.071502 58.897498 
L 80.907542 61.242899 
L 83.967491 65.689377 
L 86.35056 69.754143 
L 88.212801 73.424616 
L 90.323029 78.23584 
L 93.797583 86.744094 
L 94.73991 88.582555 
L 95.756863 90.180133 
L 96.891842 91.536642 
L 98.185956 92.643327 
L 99.679603 93.481953 
L 101.413307 94.023591 
L 103.4276 94.22718 
L 105.761551 94.038098 
L 108.449374 93.387248 
L 111.514262 92.191708 
L 113.189993 91.360849 
L 114.958474 90.358681 
L 116.814322 89.173692 
L 118.748753 87.795498 
L 120.748867 86.215752 
L 122.796925 84.429275 
L 124.869643 82.435432 
L 126.9376 80.239708 
L 128.964863 77.855423 
L 130.908949 75.305445 
L 132.721298 72.623687 
L 134.348389 69.856124 
L 135.733636 67.060963 
L 136.820122 64.307634 
L 137.554106 61.674303 
L 137.889104 59.243766 
L 137.790157 57.097875 
L 137.237738 55.310964 
L 136.230692 53.943098 
L 134.787644 53.034191 
L 132.94647 52.600041 
L 130.761803 52.631085 
L 128.300847 53.094149 
L 125.638125 53.936878 
L 122.849938 55.09401 
L 120.009301 56.494344 
L 117.181917 58.067284 
L 111.778551 61.481496 
L 106.950688 64.940732 
L 102.84411 68.22224 
L 99.482137 71.243459 
L 96.813957 74.006521 
L 94.753074 76.550628 
L 93.202631 78.922008 
L 92.069889 81.159434 
L 91.273369 83.289771 
L 90.745519 85.328629 
L 90.43289 87.282953 
L 90.28232 90.057217 
L 90.438368 92.632745 
L 90.858278 94.990825 
L 91.536836 97.107648 
L 92.144863 98.37024 
L 92.894373 99.500769 
L 93.806513 100.484352 
L 94.908562 101.301416 
L 96.234286 101.925896 
L 97.82425 102.322927 
L 99.725854 102.445932 
L 101.992667 102.233077 
L 104.682398 101.603247 
L 107.852403 100.452109 
L 111.551091 98.649667 
L 113.607855 97.456884 
L 115.802922 96.042233 
L 118.131664 94.384692 
L 120.584342 92.464121 
L 123.14474 90.262775 
L 125.788675 87.767341 
L 128.482472 84.971557 
L 131.181565 81.8794 
L 133.829455 78.508722 
L 136.357344 74.895059 
L 138.684826 71.0951 
L 140.722056 67.189093 
L 142.373742 63.281259 
L 143.545131 59.497195 
L 144.149812 55.977478 
L 144.118677 52.867219 
L 143.408848 50.302248 
L 142.010981 48.393744 
L 139.953278 47.214077 
L 137.300972 46.786992 
L 134.150917 47.084618 
L 130.622101 48.03224 
L 126.843835 49.519806 
L 122.943834 51.417456 
L 119.0382 53.591648 
L 115.224566 55.918844 
L 108.154457 60.639624 
L 102.087754 65.034193 
L 97.110946 68.895448 
L 93.149563 72.231706 
L 90.055406 75.14494 
L 87.660513 77.753193 
L 85.804803 80.154857 
L 84.347599 82.419019 
L 82.655893 85.644735 
L 78.128296 95.325834 
L 77.021026 97.043468 
L 75.745988 98.667748 
L 74.261623 100.182998 
L 72.524579 101.566577 
L 70.489572 102.7853 
L 68.110527 103.790598 
L 65.34371 104.512317 
L 63.803297 104.737194 
L 62.153911 104.851288 
L 60.39423 104.836389 
L 58.525125 104.671595 
L 56.550358 104.333241 
L 54.477389 103.795011 
L 52.31831 103.028279 
L 50.090841 102.002806 
L 47.819351 100.687872 
L 45.535793 99.053986 
L 43.280409 97.075234 
L 41.102015 94.732317 
L 39.057621 92.016214 
L 37.211143 88.932236 
L 35.631 85.504067 
L 34.386475 81.777164 
L 33.542934 77.820706 
L 33.156259 73.727276 
L 33.267112 69.609598 
L 33.895909 65.594114 
L 35.039429 61.811788 
L 36.669801 58.38727 
L 38.736245 55.428052 
L 41.16937 53.015426 
L 43.887322 51.19873 
L 46.802743 49.993667 
L 49.829454 49.384574 
L 52.887982 49.329818 
L 55.909412 49.768994 
L 58.83748 50.630593 
L 61.629091 51.839029 
L 64.253651 53.320313 
L 66.691655 55.006086 
L 68.93289 56.836062 
L 70.974574 58.759114 
L 72.819595 60.733346 
L 74.47497 62.725497 
L 75.95056 64.709956 
L 78.410036 68.58474 
L 80.299774 72.262879 
L 81.721437 75.704392 
L 82.767392 78.901148 
L 83.516712 81.861992 
L 84.034195 84.60384 
L 84.484352 88.349773 
L 84.648633 91.715207 
L 84.602036 94.76093 
L 84.382748 97.538812 
L 84.000742 100.09226 
L 83.442941 102.457558 
L 82.675174 104.665034 
L 81.64124 106.739285 
L 80.764908 108.057032 
L 79.702871 109.32585 
L 78.41626 110.544517 
L 76.857971 111.706152 
L 74.971701 112.794967 
L 72.691438 113.781249 
L 69.942058 114.613805 
L 66.642269 115.2089 
L 64.760554 115.378639 
L 62.71199 115.434851 
L 60.489244 115.350328 
L 58.087629 115.092237 
L 55.506375 114.621502 
L 52.750258 113.892376 
L 49.83159 112.852411 
L 46.772584 111.443083 
L 43.607994 109.601401 
L 40.387845 107.262944 
L 37.179896 104.36672 
L 34.07128 100.862219 
L 31.168556 96.718698 
L 28.595259 91.936253 
L 26.48608 86.557409 
L 24.977163 80.677023 
L 24.192791 74.447462 
L 24.229894 68.075879 
L 25.143043 61.811332 
L 26.933361 55.921827 
L 29.54454 50.664443 
L 32.867636 46.254476 
L 36.753989 42.840581 
L 41.033321 40.491404 
L 45.532907 39.195871 
L 50.093926 38.875395 
L 54.582599 39.403558 
L 58.89548 40.627981 
L 62.959751 42.390021 
L 66.730118 44.539712 
L 70.183942 46.945179 
L 73.315954 49.497083 
L 76.133347 52.109287 
L 78.651695 54.717094 
L 80.891754 57.274208 
L 82.877121 59.749259 
L 86.182894 64.382612 
L 88.76353 68.548026 
L 90.796631 72.247952 
L 93.809426 78.387745 
L 96.166465 83.095632 
L 97.308777 84.981657 
L 98.511161 86.574545 
L 99.825331 87.876197 
L 101.296831 88.878363 
L 102.966516 89.562225 
L 104.870914 89.897972 
L 107.04121 89.844625 
L 109.500441 89.350603 
L 112.258431 88.355894 
L 115.303983 86.797138 
L 118.594095 84.617413 
L 120.305503 83.282544 
L 122.040773 81.782677 
L 123.779649 80.121124 
L 125.497569 78.306053 
L 127.165594 76.351525 
L 128.750597 74.27844 
L 130.215808 72.115269 
L 131.521763 69.898395 
L 132.627731 67.671891 
L 133.493599 65.486556 
L 134.082166 63.3981 
L 134.361694 61.464456 
L 134.30849 59.742334 
L 133.909226 58.283308 
L 133.16267 57.129863 
L 132.080548 56.311949 
L 130.687333 55.844545 
L 129.018919 55.726666 
L 127.120316 55.941966 
L 125.04264 56.460863 
L 122.839797 57.243815 
L 120.565244 58.245227 
L 118.269198 59.417407 
L 113.785244 62.093087 
L 109.662647 64.959932 
L 106.062077 67.808965 
L 103.047788 70.529565 
L 100.616691 73.082024 
L 98.72628 75.466723 
L 97.316036 77.700421 
L 96.321664 79.801897 
L 95.683535 81.785088 
L 95.351074 83.656932 
L 95.28458 85.417566 
L 95.455555 87.061355 
L 95.846254 88.577888 
L 96.448882 89.952567 
L 97.264709 91.166658 
L 98.303168 92.19679 
L 99.580934 93.01396 
L 101.120863 93.58211 
L 102.950525 93.856399 
L 105.09998 93.781402 
L 107.598197 93.289664 
L 110.467367 92.301428 
L 113.714142 90.726964 
L 115.473909 89.690751 
L 117.316851 88.47376 
L 119.232992 87.066478 
L 121.208203 85.461719 
L 123.223512 83.655782 
L 125.254467 81.649808 
L 127.270625 79.451324 
L 129.23529 77.07587 
L 131.105622 74.548568 
L 132.833254 71.90542 
L 134.365574 69.194044 
L 135.647751 66.473536 
L 136.625538 63.813127 
L 137.248775 61.28941 
L 137.475331 58.982068 
L 137.275086 56.968317 
L 136.633451 55.316602 
L 135.553811 54.080358 
L 134.058438 53.292832 
L 132.187552 52.963913 
L 129.996572 53.079579 
L 127.551903 53.604138 
L 124.925863 54.48481 
L 122.1915 55.657827 
L 119.417967 57.054968 
L 116.666941 58.609523 
L 111.429265 61.958038 
L 106.765257 65.337032 
L 102.806626 68.542992 
L 99.571224 71.501692 
L 97.008382 74.216125 
L 95.03469 76.722673 
L 93.557538 79.063705 
L 92.48863 81.274429 
L 91.750676 83.378891 
L 91.279913 85.390629 
L 91.026303 87.315053 
L 90.95257 89.151983 
L 91.125257 91.734547 
L 91.599456 94.090185 
L 92.078582 95.520678 
L 92.695271 96.827203 
L 93.462993 97.996879 
L 94.401549 99.013438 
L 95.537131 99.855826 
L 96.902475 100.496395 
L 98.536939 100.898587 
L 100.48623 101.01408 
L 102.801337 100.779413 
L 105.535961 100.112335 
L 108.741298 98.908593 
L 112.456565 97.040779 
L 114.510662 95.812503 
L 116.693113 94.362352 
L 118.996954 92.671391 
L 121.409861 90.722248 
L 123.91286 88.500722 
L 126.47897 85.997883 
L 129.071882 83.212669 
L 131.644862 80.154944 
L 134.140093 76.848831 
L 136.488785 73.335988 
L 138.61239 69.678306 
L 140.425262 65.959308 
L 141.83901 62.283411 
L 142.768559 58.772233 
L 143.139609 55.557458 
L 142.896717 52.770314 
L 142.010843 50.528663 
L 140.484912 48.923565 
L 138.356077 48.007869 
L 135.693823 47.78938 
L 132.593963 48.23033 
L 129.169465 49.253457 
L 125.539795 50.753308 
L 121.82067 52.610248 
L 118.115773 54.704268 
L 114.511346 56.926228 
L 107.849723 61.411954 
L 102.142621 65.596165 
L 97.460642 69.302679 
L 93.732478 72.540725 
L 90.821261 75.399908 
L 88.572233 77.98358 
L 86.837628 80.378002 
L 85.487342 82.643919 
L 84.411827 84.818849 
L 83.121602 87.951541 
L 80.525586 94.725239 
L 79.220433 97.381596 
L 78.191863 99.059264 
L 76.993158 100.654008 
L 75.584429 102.154623 
L 73.922165 103.543669 
L 71.958823 104.79399 
L 69.64343 105.863892 
L 66.923885 106.690646 
L 65.39713 106.98547 
L 63.752025 107.182145 
L 61.984711 107.26295 
L 60.0931 107.207088 
L 58.077561 106.990442 
L 55.941766 106.585447 
L 53.693699 105.96116 
L 51.346802 105.083632 
L 48.921252 103.916705 
L 46.445259 102.4234 
L 43.956281 100.568036 
L 41.501942 98.319221 
L 39.140399 95.653764 
L 36.939824 92.561424 
L 34.976663 89.05018 
L 33.33238 85.151422 
L 32.088561 80.924162 
L 31.320548 76.457114 
L 31.090167 71.867518 
L 31.438505 67.295859 
L 32.38 62.896387 
L 33.899084 58.824293 
L 35.950276 55.221396 
L 38.461925 52.202799 
L 41.343028 49.846935 
L 44.49186 48.190689 
L 47.804889 47.23006 
L 51.184579 46.92563 
L 54.545148 47.211223 
L 57.815935 48.003837 
L 60.942558 49.213132 
L 63.886326 50.749321 
L 66.622542 52.528896 
L 69.138217 54.478146 
L 71.429666 56.534795 
L 73.500233 58.648197 
L 75.358315 60.778583 
L 77.015728 62.89578 
L 79.785487 67.008816 
L 81.930614 70.881325 
L 83.571546 74.472662 
L 84.817602 77.778488 
L 85.762781 80.812585 
L 86.782876 84.901774 
L 87.698922 89.612187 
L 89.086431 97.04117 
L 89.693847 99.265057 
L 90.446121 101.210632 
L 91.06069 102.352083 
L 91.792085 103.363277 
L 92.66706 104.234443 
L 93.717192 104.950355 
L 94.979914 105.488773 
L 96.499476 105.818274 
L 98.327672 105.895335 
L 100.523999 105.660526 
L 103.154652 105.033826 
L 106.289314 103.909357 
L 109.994061 102.150603 
L 112.076728 100.981769 
L 114.317802 99.588675 
L 116.716876 97.946181 
L 119.268818 96.028781 
L 121.96225 93.811948 
L 124.77779 91.274076 
L 127.686128 88.39915 
L 130.646045 85.180205 
L 133.602617 81.623576 
L 136.485925 77.753736 
L 139.210732 73.618319 
L 141.67768 69.292547 
L 143.77659 64.881969 
L 145.392325 60.522107 
L 146.413359 56.373612 
L 146.742618 52.61192 
L 146.30942 49.41145 
L 145.080554 46.925907 
L 143.068125 45.267972 
L 140.331947 44.49277 
L 136.975265 44.589413 
L 133.134196 45.483172 
L 128.962895 47.047987 
L 124.61753 49.126158 
L 120.242155 51.550368 
L 115.958651 54.16326 
L 108.017239 59.452145 
L 101.228537 64.299272 
L 95.690187 68.454617 
L 91.303559 71.945673 
L 87.885964 74.914163 
L 85.236613 77.51556 
L 83.168078 79.875512 
L 81.517996 82.07994 
L 79.538189 85.199591 
L 75.580445 91.825141 
L 74.314226 93.524049 
L 72.892643 95.107046 
L 71.271722 96.548799 
L 69.410452 97.815636 
L 67.271261 98.862269 
L 64.822252 99.627694 
L 63.474222 99.880471 
L 62.04181 100.030652 
L 60.52519 100.064244 
L 58.926359 99.965586 
L 57.249592 99.717399 
L 55.501969 99.300946 
L 53.693943 98.696369 
L 51.839937 97.883237 
L 49.958916 96.841367 
L 48.07489 95.551962 
L 46.217239 93.9991 
L 44.420789 92.171583 
L 42.725493 90.06507 
L 41.175604 87.684403 
L 39.818251 85.045871 
L 38.701357 82.179146 
L 37.870937 79.128476 
L 37.367938 75.952757 
L 37.224894 72.724136 
L 37.462798 69.524969 
L 38.088637 66.443218 
L 39.094007 63.566681 
L 40.455113 60.976727 
L 42.134214 58.742375 
L 44.082353 56.915576 
L 46.242983 55.528303 
L 48.555981 54.59179 
L 50.961517 54.097805 
L 53.403351 54.021566 
L 55.831299 54.325684 
L 58.202755 54.964484 
L 60.483352 55.888134 
L 62.646891 57.046192 
L 64.674768 58.390344 
L 66.555072 59.876294 
L 68.281534 61.464863 
L 69.852454 63.12246 
L 71.269689 64.821053 
L 72.537748 66.53783 
L 74.653092 69.957499 
L 76.261277 73.281491 
L 77.430597 76.455618 
L 78.225719 79.455443 
L 78.702748 82.274575 
L 78.906995 84.916776 
L 78.872375 87.390867 
L 78.621682 89.707479 
L 78.167285 91.876931 
L 77.511932 93.907723 
L 76.649517 95.805262 
L 75.565757 97.570542 
L 74.238833 99.19852 
L 72.640123 100.675914 
L 70.735327 101.97817 
L 68.486387 103.065327 
L 65.854931 103.87658 
L 64.385071 104.152419 
L 62.80821 104.323619 
L 61.122738 104.373654 
L 59.328911 104.283437 
L 57.429478 104.031221 
L 55.430426 103.592644 
L 53.341829 102.940973 
L 51.178786 102.047634 
L 48.962394 100.88313 
L 46.720688 99.418449 
L 44.489413 97.627059 
L 42.312482 95.487537 
L 40.241891 92.986831 
L 38.336878 90.123989 
L 36.662094 86.914067 
L 35.284643 83.391683 
L 34.269978 79.613561 
L 33.67688 75.659246 
L 33.551983 71.62931 
L 33.924584 67.64059 
L 34.802598 63.818586 
L 36.170463 60.287737 
L 37.989534 57.160918 
L 40.201039 54.529841 
L 42.731163 52.45793 
L 45.4974 50.976755 
L 48.415163 50.086356 
L 51.403684 49.758969 
L 54.390548 49.945123 
L 57.314579 50.580825 
L 60.127099 51.594659 
L 62.791879 52.913921 
L 65.284145 54.469321 
L 67.58904 56.19812 
L 69.699868 58.045866 
L 71.616344 59.96697 
L 73.343003 61.924485 
L 74.887825 63.889359 
L 74.887825 63.889359 
" clip-path="url(#p9271e5d348)" style="fill: none; stroke: #ff7f0e; stroke-opacity: 0.5; stroke-width: 1.5; stroke-linecap: round"/>
   </g>
  </g>
 </g>
 <defs>
  <clipPath id="p9271e5d348">
   <rect x="-1.8" y="-7.2" width="176.4" height="176.4"/>
  </clipPath>
 </defs>
</svg>
