<?xml version="1.0" encoding="utf-8" standalone="no"?>
<!DOCTYPE svg PUBLIC "-//W3C//DTD SVG 1.1//EN"
  "http://www.w3.org/Graphics/SVG/1.1/DTD/svg11.dtd">
<svg xmlns:xlink="http://www.w3.org/1999/xlink" width="216pt" height="180pt" viewBox="0 0 216 180" xmlns="http://www.w3.org/2000/svg" version="1.1">
 <metadata>
  <rdf:RDF xmlns:dc="http://purl.org/dc/elements/1.1/" xmlns:cc="http://creativecommons.org/ns#" xmlns:rdf="http://www.w3.org/1999/02/22-rdf-syntax-ns#">
   <cc:Work>
    <dc:type rdf:resource="http://purl.org/dc/dcmitype/StillImage"/>
    <dc:date>2023-06-14T18:54:03.833122</dc:date>
    <dc:format>image/svg+xml</dc:format>
    <dc:creator>
     <cc:Agent>
      <dc:title>Matplotlib v3.7.0, https://matplotlib.org/</dc:title>
     </cc:Agent>
    </dc:creator>
   </cc:Work>
  </rdf:RDF>
 </metadata>
 <defs>
  <style type="text/css">*{stroke-linejoin: round; stroke-linecap: butt}</style>
 </defs>
 <g id="figure_1">
  <g id="patch_1">
   <path d="M 0 180 
L 216 180 
L 216 0 
L 0 0 
z
" style="fill: #ffffff"/>
  </g>
  <g id="patch_2">
   <path d="M -1 169.2 
L 174.6 169.2 
L 174.6 -1 
" style="fill: none"/>
  </g>
  <g id="pane3d_1">
   <g id="patch_3">
    <path d="M 11.519416 125.705413 
L 69.772457 76.876559 
L 68.962684 6.456623 
L 7.921935 51.001381 
" style="fill: none; opacity: 0.5; stroke: #f2f2f2; stroke-linejoin: miter"/>
   </g>
  </g>
  <g id="pane3d_2">
   <g id="patch_4">
    <path d="M 69.772457 76.876559 
L 163.247803 104.046152 
L 166.583609 31.200681 
L 68.962684 6.456623 
" style="fill: none; opacity: 0.5; stroke: #e6e6e6; stroke-linejoin: miter"/>
   </g>
  </g>
  <g id="pane3d_3">
   <g id="patch_5">
    <path d="M 11.519416 125.705413 
L 110.607849 158.067695 
L 163.247803 104.046152 
L 69.772457 76.876559 
" style="fill: none; opacity: 0.5; stroke: #ececec; stroke-linejoin: miter"/>
   </g>
  </g>
  <g id="axis3d_1">
   <g id="line2d_1">
    <path d="M 11.519416 125.705413 
L 110.607849 158.067695 
" style="fill: none; stroke: #ffffff; stroke-width: 0.8; stroke-linecap: round"/>
   </g>
   <g id="text_1">
    <!-- x -->
    <g style="fill: #262626" transform="translate(40.437569 179.640981) scale(0.1 -0.1)">
     <defs>
      <path id="DejaVuSans-78" d="M 3513 3500 
L 2247 1797 
L 3578 0 
L 2900 0 
L 1881 1375 
L 863 0 
L 184 0 
L 1544 1831 
L 300 3500 
L 978 3500 
L 1906 2253 
L 2834 3500 
L 3513 3500 
z
" transform="scale(0.015625)"/>
     </defs>
     <use xlink:href="#DejaVuSans-78"/>
    </g>
   </g>
   <g id="Line3DCollection_1">
    <path d="M 35.087867 133.402869 
L 92.080721 83.36069 
L 92.222882 12.352405 
" style="fill: none; stroke: #d3d3d3; stroke-width: 0.8"/>
    <path d="M 60.03979 141.552167 
L 115.64742 90.2106 
L 116.820673 18.587228 
" style="fill: none; stroke: #d3d3d3; stroke-width: 0.8"/>
    <path d="M 85.67275 149.923892 
L 139.802843 97.231628 
L 142.060133 24.984695 
" style="fill: none; stroke: #d3d3d3; stroke-width: 0.8"/>
   </g>
   <g id="xtick_1">
    <g id="line2d_2">
     <path d="M 88.783784 78.616216 
" clip-path="url(#p56419e8054)" style="fill: none; stroke: #d3d3d3; stroke-width: 0.8; stroke-linecap: round"/>
    </g>
    <g id="line2d_3">
     <path d="M 35.584544 132.966766 
L 34.092363 134.276965 
" style="fill: none; stroke: #808080; stroke-width: 0.8; stroke-linecap: round"/>
    </g>
    <g id="text_2">
     <!-- −10 -->
     <g style="fill: #808080" transform="translate(17.019268 156.925802) scale(0.1 -0.1)">
      <defs>
       <path id="DejaVuSans-2212" d="M 678 2272 
L 4684 2272 
L 4684 1741 
L 678 1741 
L 678 2272 
z
" transform="scale(0.015625)"/>
       <path id="DejaVuSans-31" d="M 794 531 
L 1825 531 
L 1825 4091 
L 703 3866 
L 703 4441 
L 1819 4666 
L 2450 4666 
L 2450 531 
L 3481 531 
L 3481 0 
L 794 0 
L 794 531 
z
" transform="scale(0.015625)"/>
       <path id="DejaVuSans-30" d="M 2034 4250 
Q 1547 4250 1301 3770 
Q 1056 3291 1056 2328 
Q 1056 1369 1301 889 
Q 1547 409 2034 409 
Q 2525 409 2770 889 
Q 3016 1369 3016 2328 
Q 3016 3291 2770 3770 
Q 2525 4250 2034 4250 
z
M 2034 4750 
Q 2819 4750 3233 4129 
Q 3647 3509 3647 2328 
Q 3647 1150 3233 529 
Q 2819 -91 2034 -91 
Q 1250 -91 836 529 
Q 422 1150 422 2328 
Q 422 3509 836 4129 
Q 1250 4750 2034 4750 
z
" transform="scale(0.015625)"/>
      </defs>
      <use xlink:href="#DejaVuSans-2212"/>
      <use xlink:href="#DejaVuSans-31" x="83.789062"/>
      <use xlink:href="#DejaVuSans-30" x="147.412109"/>
     </g>
    </g>
   </g>
   <g id="xtick_2">
    <g id="line2d_4">
     <path d="M 88.783784 78.616216 
" clip-path="url(#p56419e8054)" style="fill: none; stroke: #d3d3d3; stroke-width: 0.8; stroke-linecap: round"/>
    </g>
    <g id="line2d_5">
     <path d="M 60.524929 141.104246 
L 59.067381 142.449975 
" style="fill: none; stroke: #808080; stroke-width: 0.8; stroke-linecap: round"/>
    </g>
    <g id="text_3">
     <!-- 0 -->
     <g style="fill: #808080" transform="translate(49.383963 165.33758) scale(0.1 -0.1)">
      <use xlink:href="#DejaVuSans-30"/>
     </g>
    </g>
   </g>
   <g id="xtick_3">
    <g id="line2d_6">
     <path d="M 88.783784 78.616216 
" clip-path="url(#p56419e8054)" style="fill: none; stroke: #d3d3d3; stroke-width: 0.8; stroke-linecap: round"/>
    </g>
    <g id="line2d_7">
     <path d="M 86.145534 149.463667 
L 84.725079 150.84639 
" style="fill: none; stroke: #808080; stroke-width: 0.8; stroke-linecap: round"/>
    </g>
    <g id="text_4">
     <!-- 10 -->
     <g style="fill: #808080" transform="translate(71.882467 173.980289) scale(0.1 -0.1)">
      <use xlink:href="#DejaVuSans-31"/>
      <use xlink:href="#DejaVuSans-30" x="63.623047"/>
     </g>
    </g>
   </g>
  </g>
  <g id="axis3d_2">
   <g id="line2d_8">
    <path d="M 163.247803 104.046152 
L 110.607849 158.067695 
" style="fill: none; stroke: #ffffff; stroke-width: 0.8; stroke-linecap: round"/>
   </g>
   <g id="text_5">
    <!-- y -->
    <g style="fill: #262626" transform="translate(162.133934 160.636398) scale(0.1 -0.1)">
     <defs>
      <path id="DejaVuSans-79" d="M 2059 -325 
Q 1816 -950 1584 -1140 
Q 1353 -1331 966 -1331 
L 506 -1331 
L 506 -850 
L 844 -850 
Q 1081 -850 1212 -737 
Q 1344 -625 1503 -206 
L 1606 56 
L 191 3500 
L 800 3500 
L 1894 763 
L 2988 3500 
L 3597 3500 
L 2059 -325 
z
" transform="scale(0.015625)"/>
     </defs>
     <use xlink:href="#DejaVuSans-79"/>
    </g>
   </g>
   <g id="Line3DCollection_2">
    <path d="M 16.784608 44.533806 
L 19.949918 118.638799 
L 118.254825 150.220016 
" style="fill: none; stroke: #d3d3d3; stroke-width: 0.8"/>
    <path d="M 40.412483 27.291259 
L 42.471058 99.761134 
L 138.63495 129.304995 
" style="fill: none; stroke: #d3d3d3; stroke-width: 0.8"/>
    <path d="M 62.513559 11.162901 
L 63.596929 82.05301 
L 157.689317 109.750526 
" style="fill: none; stroke: #d3d3d3; stroke-width: 0.8"/>
   </g>
   <g id="xtick_4">
    <g id="line2d_9">
     <path d="M 88.783784 78.616216 
" clip-path="url(#p56419e8054)" style="fill: none; stroke: #d3d3d3; stroke-width: 0.8; stroke-linecap: round"/>
    </g>
    <g id="line2d_10">
     <path d="M 117.426682 149.953969 
L 119.913239 150.752794 
" style="fill: none; stroke: #808080; stroke-width: 0.8; stroke-linecap: round"/>
    </g>
    <g id="text_6">
     <!-- −20 -->
     <g style="fill: #808080" transform="translate(120.505999 171.153945) scale(0.1 -0.1)">
      <defs>
       <path id="DejaVuSans-32" d="M 1228 531 
L 3431 531 
L 3431 0 
L 469 0 
L 469 531 
Q 828 903 1448 1529 
Q 2069 2156 2228 2338 
Q 2531 2678 2651 2914 
Q 2772 3150 2772 3378 
Q 2772 3750 2511 3984 
Q 2250 4219 1831 4219 
Q 1534 4219 1204 4116 
Q 875 4013 500 3803 
L 500 4441 
Q 881 4594 1212 4672 
Q 1544 4750 1819 4750 
Q 2544 4750 2975 4387 
Q 3406 4025 3406 3419 
Q 3406 3131 3298 2873 
Q 3191 2616 2906 2266 
Q 2828 2175 2409 1742 
Q 1991 1309 1228 531 
z
" transform="scale(0.015625)"/>
      </defs>
      <use xlink:href="#DejaVuSans-2212"/>
      <use xlink:href="#DejaVuSans-32" x="83.789062"/>
      <use xlink:href="#DejaVuSans-30" x="147.412109"/>
     </g>
    </g>
   </g>
   <g id="xtick_5">
    <g id="line2d_11">
     <path d="M 88.783784 78.616216 
" clip-path="url(#p56419e8054)" style="fill: none; stroke: #d3d3d3; stroke-width: 0.8; stroke-linecap: round"/>
    </g>
    <g id="line2d_12">
     <path d="M 137.826214 129.056532 
L 140.254429 129.802538 
" style="fill: none; stroke: #808080; stroke-width: 0.8; stroke-linecap: round"/>
    </g>
    <g id="text_7">
     <!-- 0 -->
     <g style="fill: #808080" transform="translate(147.844078 149.772064) scale(0.1 -0.1)">
      <use xlink:href="#DejaVuSans-30"/>
     </g>
    </g>
   </g>
   <g id="xtick_6">
    <g id="line2d_13">
     <path d="M 88.783784 78.616216 
" clip-path="url(#p56419e8054)" style="fill: none; stroke: #d3d3d3; stroke-width: 0.8; stroke-linecap: round"/>
    </g>
    <g id="line2d_14">
     <path d="M 156.899257 109.51796 
L 159.271336 110.216217 
" style="fill: none; stroke: #808080; stroke-width: 0.8; stroke-linecap: round"/>
    </g>
    <g id="text_8">
     <!-- 20 -->
     <g style="fill: #808080" transform="translate(163.329841 129.782272) scale(0.1 -0.1)">
      <use xlink:href="#DejaVuSans-32"/>
      <use xlink:href="#DejaVuSans-30" x="63.623047"/>
     </g>
    </g>
   </g>
  </g>
  <g id="axis3d_3">
   <g id="line2d_15">
    <path d="M 163.247803 104.046152 
L 166.583609 31.200681 
" style="fill: none; stroke: #ffffff; stroke-width: 0.8; stroke-linecap: round"/>
   </g>
   <g id="text_9">
    <!-- z -->
    <g style="fill: #262626" transform="translate(202.494937 65.789607) scale(0.1 -0.1)">
     <defs>
      <path id="DejaVuSans-7a" d="M 353 3500 
L 3084 3500 
L 3084 2975 
L 922 459 
L 3084 459 
L 3084 0 
L 275 0 
L 275 525 
L 2438 3041 
L 353 3041 
L 353 3500 
z
" transform="scale(0.015625)"/>
     </defs>
     <use xlink:href="#DejaVuSans-7a"/>
    </g>
   </g>
   <g id="Line3DCollection_3">
    <path d="M 163.63183 95.659998 
L 69.67906 68.754483 
L 11.105883 117.11812 
" style="fill: none; stroke: #d3d3d3; stroke-width: 0.8"/>
    <path d="M 164.484286 77.04453 
L 69.4719 50.739322 
L 10.187353 98.044255 
" style="fill: none; stroke: #d3d3d3; stroke-width: 0.8"/>
    <path d="M 165.356384 58.000148 
L 69.260198 32.329187 
L 9.246841 78.513901 
" style="fill: none; stroke: #d3d3d3; stroke-width: 0.8"/>
    <path d="M 166.248809 38.511855 
L 69.043803 13.510945 
L 8.283546 58.510472 
" style="fill: none; stroke: #d3d3d3; stroke-width: 0.8"/>
   </g>
   <g id="xtick_7">
    <g id="line2d_16">
     <path d="M 88.783784 78.616216 
" style="fill: none; stroke: #d3d3d3; stroke-width: 0.8; stroke-linecap: round"/>
    </g>
    <g id="line2d_17">
     <path d="M 162.843117 95.434132 
L 165.211141 96.11227 
" style="fill: none; stroke: #808080; stroke-width: 0.8; stroke-linecap: round"/>
    </g>
    <g id="text_10">
     <!-- 10 -->
     <g style="fill: #808080" transform="translate(175.581985 100.682119) scale(0.1 -0.1)">
      <use xlink:href="#DejaVuSans-31"/>
      <use xlink:href="#DejaVuSans-30" x="63.623047"/>
     </g>
    </g>
   </g>
   <g id="xtick_8">
    <g id="line2d_18">
     <path d="M 88.783784 78.616216 
" style="fill: none; stroke: #d3d3d3; stroke-width: 0.8; stroke-linecap: round"/>
    </g>
    <g id="line2d_19">
     <path d="M 163.686251 76.823585 
L 166.082286 77.486954 
" style="fill: none; stroke: #808080; stroke-width: 0.8; stroke-linecap: round"/>
    </g>
    <g id="text_11">
     <!-- 20 -->
     <g style="fill: #808080" transform="translate(176.638136 82.122903) scale(0.1 -0.1)">
      <use xlink:href="#DejaVuSans-32"/>
      <use xlink:href="#DejaVuSans-30" x="63.623047"/>
     </g>
    </g>
   </g>
   <g id="xtick_9">
    <g id="line2d_20">
     <path d="M 88.783784 78.616216 
" style="fill: none; stroke: #d3d3d3; stroke-width: 0.8; stroke-linecap: round"/>
    </g>
    <g id="line2d_21">
     <path d="M 164.548804 57.784413 
L 166.973519 58.432147 
" style="fill: none; stroke: #808080; stroke-width: 0.8; stroke-linecap: round"/>
    </g>
    <g id="text_12">
     <!-- 30 -->
     <g style="fill: #808080" transform="translate(177.718508 63.138055) scale(0.1 -0.1)">
      <defs>
       <path id="DejaVuSans-33" d="M 2597 2516 
Q 3050 2419 3304 2112 
Q 3559 1806 3559 1356 
Q 3559 666 3084 287 
Q 2609 -91 1734 -91 
Q 1441 -91 1130 -33 
Q 819 25 488 141 
L 488 750 
Q 750 597 1062 519 
Q 1375 441 1716 441 
Q 2309 441 2620 675 
Q 2931 909 2931 1356 
Q 2931 1769 2642 2001 
Q 2353 2234 1838 2234 
L 1294 2234 
L 1294 2753 
L 1863 2753 
Q 2328 2753 2575 2939 
Q 2822 3125 2822 3475 
Q 2822 3834 2567 4026 
Q 2313 4219 1838 4219 
Q 1578 4219 1281 4162 
Q 984 4106 628 3988 
L 628 4550 
Q 988 4650 1302 4700 
Q 1616 4750 1894 4750 
Q 2613 4750 3031 4423 
Q 3450 4097 3450 3541 
Q 3450 3153 3228 2886 
Q 3006 2619 2597 2516 
z
" transform="scale(0.015625)"/>
      </defs>
      <use xlink:href="#DejaVuSans-33"/>
      <use xlink:href="#DejaVuSans-30" x="63.623047"/>
     </g>
    </g>
   </g>
   <g id="xtick_10">
    <g id="line2d_22">
     <path d="M 88.783784 78.616216 
" style="fill: none; stroke: #d3d3d3; stroke-width: 0.8; stroke-linecap: round"/>
    </g>
    <g id="line2d_23">
     <path d="M 165.431453 38.301633 
L 167.885543 38.93282 
" style="fill: none; stroke: #808080; stroke-width: 0.8; stroke-linecap: round"/>
    </g>
    <g id="text_13">
     <!-- 40 -->
     <g style="fill: #808080" transform="translate(178.823946 43.712762) scale(0.1 -0.1)">
      <defs>
       <path id="DejaVuSans-34" d="M 2419 4116 
L 825 1625 
L 2419 1625 
L 2419 4116 
z
M 2253 4666 
L 3047 4666 
L 3047 1625 
L 3713 1625 
L 3713 1100 
L 3047 1100 
L 3047 0 
L 2419 0 
L 2419 1100 
L 313 1100 
L 313 1709 
L 2253 4666 
z
" transform="scale(0.015625)"/>
      </defs>
      <use xlink:href="#DejaVuSans-34"/>
      <use xlink:href="#DejaVuSans-30" x="63.623047"/>
     </g>
    </g>
   </g>
  </g>
  <g id="axes_1">
   <g id="line2d_24">
    <path d="M 124.626383 103.723783 
L 126.092897 101.027498 
L 127.849728 98.217654 
L 132.072782 92.133898 
L 136.928445 85.292681 
L 139.44519 81.580086 
L 141.919301 77.702651 
L 144.257982 73.710022 
L 146.356295 69.676126 
L 148.100676 65.69868 
L 149.37536 61.895461 
L 150.071744 58.396769 
L 150.099914 55.334223 
L 149.400656 52.827031 
L 147.955519 50.967878 
L 145.792359 49.811086 
L 142.98451 49.365604 
L 139.643234 49.594379 
L 135.904858 50.420261 
L 131.91538 51.737103 
L 127.81574 53.423665 
L 123.73031 55.357595 
L 119.759937 57.427101 
L 112.439156 61.621807 
L 106.176208 65.526063 
L 101.021367 68.964671 
L 96.878081 71.952373 
L 93.591499 74.582241 
L 90.996623 76.957143 
L 88.939935 79.160135 
L 87.287042 81.247834 
L 85.320187 84.232021 
L 80.009161 93.158888 
L 78.746783 94.71867 
L 77.308863 96.175675 
L 75.65122 97.508785 
L 73.728945 98.688054 
L 71.496709 99.670795 
L 68.910592 100.396597 
L 67.472439 100.637971 
L 65.932219 100.781384 
L 64.287257 100.811598 
L 62.536453 100.711162 
L 60.680832 100.460338 
L 58.72421 100.037134 
L 56.673987 99.417505 
L 54.542065 98.575797 
L 52.345846 97.485508 
L 50.109278 96.120474 
L 47.863824 94.456556 
L 45.64923 92.473902 
L 43.513852 90.159795 
L 41.514298 87.512003 
L 39.714095 84.542391 
L 38.181117 81.280385 
L 36.983666 77.775665 
L 36.185309 74.099329 
L 35.838932 70.342756 
L 35.980792 66.613632 
L 36.625614 63.02908 
L 37.763779 59.706487 
L 39.361322 56.753345 
L 41.3629 54.257765 
L 43.697197 52.281377 
L 46.283745 50.855718 
L 49.039909 49.982475 
L 51.886971 49.637067 
L 54.754609 49.774483 
L 57.583571 50.336093 
L 60.326671 51.256292 
L 62.948507 52.468175 
L 65.424335 53.907827 
L 67.738503 55.517181 
L 69.882765 57.245574 
L 71.854659 59.050295 
L 73.656081 60.896406 
L 75.292074 62.756113 
L 78.098082 66.435531 
L 80.344043 69.97466 
L 82.108348 73.316964 
L 83.466957 76.441366 
L 84.488546 79.347206 
L 85.232352 82.044748 
L 85.747565 84.549515 
L 86.175485 87.983666 
L 86.271258 91.082721 
L 86.091162 93.901101 
L 85.658093 96.486163 
L 84.965723 98.877393 
L 84.344565 100.379486 
L 83.57692 101.815967 
L 82.640105 103.190839 
L 81.505031 104.504565 
L 80.135514 105.752596 
L 78.48754 106.923069 
L 76.508664 107.993326 
L 74.137899 108.924756 
L 71.306745 109.655356 
L 67.942538 110.08943 
L 66.03845 110.152901 
L 63.976149 110.084154 
L 61.750058 109.855394 
L 59.357395 109.433951 
L 56.799449 108.781989 
L 54.083203 107.856499 
L 51.22335 106.609743 
L 48.244671 104.990398 
L 45.184714 102.94571 
L 42.09654 100.424965 
L 39.051128 97.384627 
L 36.138779 93.795306 
L 33.468607 89.65043 
L 31.165033 84.97594 
L 29.360353 79.839525 
L 28.183008 74.357061 
L 27.742394 68.693341 
L 28.112551 63.054477 
L 29.31845 57.670918 
L 31.328824 52.772771 
L 34.058207 48.562148 
L 37.378137 45.188935 
L 41.134636 42.735791 
L 45.167446 41.215229 
L 49.326661 40.577933 
L 53.484093 40.728566 
L 57.538747 41.544334 
L 61.417357 42.892259 
L 65.071652 44.64271 
L 68.473999 46.678374 
L 71.612677 48.899011 
L 74.487541 51.22293 
L 77.106413 53.586264 
L 79.48229 55.94099 
L 83.571168 60.496504 
L 86.897279 64.726384 
L 89.605484 68.570562 
L 92.799368 73.607635 
L 98.067262 82.35858 
L 99.384474 84.188512 
L 100.736667 85.744129 
L 102.176661 87.026032 
L 103.752562 88.026137 
L 105.508777 88.726896 
L 107.486231 89.100528 
L 109.721495 89.108467 
L 112.2444 88.701506 
L 115.073551 87.821434 
L 118.209101 86.40547 
L 121.622135 84.395281 
L 125.240534 81.752662 
L 127.088334 80.193443 
L 128.932487 78.483296 
L 130.744717 76.634838 
L 132.491592 74.667361 
L 134.134784 72.607597 
L 135.631789 70.490094 
L 136.93722 68.357036 
L 138.00475 66.257306 
L 138.789676 64.244705 
L 139.251982 62.375291 
L 139.359645 60.703997 
L 139.091806 59.280797 
L 138.441329 58.146888 
L 137.416326 57.331381 
L 136.040301 56.849013 
L 134.350798 56.699225 
L 132.396713 56.866778 
L 130.234619 57.323777 
L 127.924664 58.032783 
L 125.526586 58.950518 
L 123.096308 60.031639 
L 118.329735 62.51175 
L 113.924851 65.177218 
L 110.053315 67.829933 
L 106.782314 70.366219 
L 104.108786 72.75007 
L 101.989872 74.9832 
L 100.364855 77.08235 
L 99.169058 79.065856 
L 98.341803 80.947483 
L 97.830508 82.734679 
L 97.592447 84.428962 
L 97.595178 86.027008 
L 97.816282 87.521686 
L 98.242781 88.902706 
L 98.87047 90.156779 
L 99.703267 91.267293 
L 100.752614 92.213517 
L 102.036897 92.969401 
L 103.580767 93.50197 
L 105.414168 93.769418 
L 107.570735 93.719042 
L 110.085068 93.285383 
L 112.988135 92.389296 
L 116.299746 90.939318 
L 120.016796 88.837601 
L 122.015977 87.513203 
L 124.095879 85.993789 
L 126.240891 84.273476 
L 128.429644 82.350895 
L 130.634103 80.230818 
L 132.818805 77.925923 
L 134.940372 75.458544 
L 136.947524 72.862193 
L 138.781831 70.18253 
L 140.379424 67.477431 
L 141.673878 64.815771 
L 142.60029 62.274676 
L 143.100375 59.935144 
L 143.128104 57.876288 
L 142.655128 56.168773 
L 141.675059 54.868328 
L 140.205703 54.010381 
L 138.28864 53.606748 
L 135.986041 53.645001 
L 133.375186 54.090639 
L 130.541613 54.891633 
L 127.572066 55.984537 
L 124.548272 57.301092 
L 121.542307 58.774343 
L 115.809042 61.957129 
L 110.691836 65.166517 
L 106.327854 68.202667 
L 102.728518 70.997072 
L 99.834593 73.557849 
L 97.555573 75.924546 
L 95.793366 78.140887 
L 94.454828 80.24248 
L 93.457521 82.253664 
L 92.731682 84.188718 
L 92.220202 86.054528 
L 91.758349 88.727371 
L 91.567379 91.246455 
L 91.576822 93.605684 
L 91.837833 96.492945 
L 92.206206 98.458536 
L 92.734608 100.246615 
L 93.453635 101.847467 
L 94.062569 102.802419 
L 94.797864 103.658231 
L 95.684454 104.402912 
L 96.752969 105.01945 
L 98.040608 105.483992 
L 99.59207 105.763396 
L 101.460385 105.811951 
L 103.707374 105.56711 
L 106.403219 104.944153 
L 109.624227 103.830087 
L 113.447184 102.077863 
L 115.605824 100.906392 
L 117.937636 99.503789 
L 120.445464 97.842417 
L 123.127862 95.894161 
L 125.977407 93.631978 
L 128.97861 91.032181 
L 132.1054 88.077586 
L 135.318266 84.761627 
L 138.56123 81.093376 
L 141.759048 77.103192 
L 144.815306 72.848352 
L 147.612348 68.417581 
L 150.014258 63.93298 
L 151.874039 59.547637 
L 153.045672 55.43747 
L 153.400587 51.786826 
L 152.846414 48.768978 
L 151.344248 46.524576 
L 148.919842 45.142409 
L 145.664916 44.646978 
L 141.727254 44.995934 
L 137.291538 46.087993 
L 132.555629 47.779351 
L 127.707921 49.904751 
L 122.9103 52.298669 
L 118.288803 54.812703 
L 109.892436 59.75377 
L 99.838709 66.088629 
L 92.616249 70.937732 
L 89.041992 73.560371 
L 86.214124 75.870046 
L 83.94717 77.976747 
L 82.083753 79.950234 
L 79.764685 82.736538 
L 76.358004 86.967265 
L 74.939326 88.484661 
L 73.402257 89.870486 
L 71.700321 91.094632 
L 69.793981 92.118839 
L 67.651313 92.894521 
L 65.250367 93.360352 
L 63.949958 93.453919 
L 62.583642 93.440314 
L 61.153893 93.307678 
L 59.665119 93.043363 
L 58.124028 92.634152 
L 56.540019 92.066598 
L 54.925579 91.327511 
L 53.296654 90.404615 
L 51.672945 89.2874 
L 50.078084 87.968162 
L 48.539598 86.44322 
L 47.088601 84.714263 
L 45.759125 82.789717 
L 44.587028 80.686014 
L 43.608464 78.428562 
L 42.857943 76.05221 
L 42.3661 73.600986 
L 42.157367 71.126955 
L 42.247822 68.688117 
L 42.643511 66.34543 
L 43.339514 64.159212 
L 44.319935 62.185296 
L 45.558858 60.471436 
L 47.022152 59.054412 
L 48.669872 57.958203 
L 50.458921 57.193385 
L 52.345652 56.757737 
L 54.288135 56.637823 
L 56.247902 56.811253 
L 58.191119 57.249238 
L 60.089202 57.919132 
L 61.918956 58.786721 
L 63.662363 59.818096 
L 65.306126 60.981059 
L 66.841089 62.246075 
L 68.261592 63.586819 
L 70.750342 66.407299 
L 72.774329 69.298942 
L 74.356871 72.164598 
L 75.531337 74.942886 
L 76.333545 77.597741 
L 76.79696 80.109792 
L 76.949837 82.469841 
L 76.813671 84.674098 
L 76.40252 86.720682 
L 75.722911 88.606882 
L 74.774155 90.326821 
L 73.549058 91.869174 
L 72.035059 93.214726 
L 70.216016 94.333596 
L 68.074964 95.182079 
L 65.598368 95.69927 
L 64.232474 95.809119 
L 62.782553 95.804007 
L 61.251226 95.670365 
L 59.643098 95.393344 
L 57.965255 94.957024 
L 56.227802 94.344762 
L 54.444435 93.539734 
L 52.633 92.525697 
L 50.815997 91.288023 
L 49.020936 89.815013 
L 47.280459 88.099493 
L 45.632097 86.140631 
L 44.11755 83.94587 
L 42.781371 81.53279 
L 41.668991 78.930623 
L 40.82413 76.181104 
L 40.285726 73.338315 
L 40.084686 70.467241 
L 40.240866 67.640915 
L 40.760744 64.936242 
L 41.636219 62.428914 
L 42.844788 60.188004 
L 44.351153 58.27102 
L 46.110004 56.72012 
L 48.069557 55.559984 
L 50.175313 54.797542 
L 52.373542 54.423394 
L 54.614116 54.414515 
L 56.852518 54.737703 
L 59.050983 55.353219 
L 61.178893 56.218186 
L 63.212589 57.289438 
L 65.134782 58.525702 
L 66.933754 59.889075 
L 68.602464 61.345889 
L 70.13767 62.867075 
L 71.539109 64.42814 
L 73.950347 67.593121 
L 75.869106 70.723344 
L 77.340794 73.748133 
L 78.413742 76.629208 
L 79.133413 79.349227 
L 79.539107 81.903526 
L 79.662258 84.294465 
L 79.525709 86.527625 
L 79.143566 88.609166 
L 78.521382 90.543849 
L 77.656511 92.333328 
L 76.538598 93.974421 
L 75.150235 95.457093 
L 73.467916 96.761946 
L 71.463578 97.856996 
L 69.107182 98.69363 
L 67.788047 98.99413 
L 66.371031 99.201799 
L 64.854194 99.303694 
L 63.236835 99.284933 
L 61.519961 99.12863 
L 59.706842 98.815911 
L 57.803681 98.326062 
L 55.820365 97.636865 
L 53.77131 96.725175 
L 51.676336 95.567829 
L 49.561517 94.14295 
L 47.459893 92.4317 
L 45.411884 90.420525 
L 43.465221 88.103826 
L 41.674161 85.486942 
L 40.097772 82.589145 
L 38.797135 79.446239 
L 37.831477 76.112184 
L 37.253446 72.659129 
L 37.104033 69.175324 
L 37.407877 65.76064 
L 38.169804 62.519884 
L 39.373348 59.554644 
L 40.981665 56.954847 
L 42.940765 54.7914 
L 45.184494 53.11113 
L 47.640369 51.934741 
L 50.235308 51.257825 
L 52.90046 51.054409 
L 55.574681 51.282087 
L 58.206539 51.887755 
L 60.755008 52.813066 
L 63.189158 53.99903 
L 65.487189 55.389481 
L 67.635126 56.93337 
L 69.62541 58.586024 
L 71.455542 60.309588 
L 73.126875 62.072882 
L 76.011829 65.624019 
L 78.333557 69.099833 
L 80.158859 72.423091 
L 81.5564 75.557499 
L 82.59023 78.491789 
L 83.316474 81.229034 
L 83.781918 83.779926 
L 84.023688 86.15871 
L 84.069514 88.380784 
L 83.938275 90.461278 
L 83.640603 92.414186 
L 83.179432 94.251762 
L 82.550405 95.984003 
L 81.742108 97.618043 
L 80.736128 99.157339 
L 79.506972 100.600469 
L 78.021932 101.939327 
L 76.24105 103.156482 
L 74.117474 104.221342 
L 71.598703 105.084765 
L 68.629553 105.671792 
L 66.95951 105.828935 
L 65.158244 105.872422 
L 63.221666 105.781307 
L 61.147742 105.531181 
L 58.937362 105.093995 
L 56.595423 104.438044 
L 54.132144 103.528249 
L 51.564611 102.326846 
L 48.918513 100.794671 
L 46.229949 98.893221 
L 43.547098 96.587687 
L 40.931441 93.851082 
L 38.458046 90.669479 
L 36.214344 87.048094 
L 34.29681 83.01762 
L 32.805103 78.639732 
L 31.833682 74.01028 
L 31.461592 69.258516 
L 31.741957 64.541016 
L 32.693318 60.029967 
L 34.295037 55.896974 
L 36.488244 52.295116 
L 39.18239 49.342893 
L 42.265959 47.113408 
L 45.618908 45.630727 
L 49.124261 44.873392 
L 52.676992 44.783313 
L 56.189405 45.277459 
L 59.593169 46.259757 
L 62.838794 47.631358 
L 65.893492 49.298304 
L 68.738289 51.176422 
L 71.365027 53.1938 
L 73.773609 55.291405 
L 75.969684 57.422465 
L 77.962798 59.551143 
L 81.389732 63.70275 
L 84.163736 67.615786 
L 86.398056 71.236015 
L 88.199449 74.55195 
L 90.296189 78.980133 
L 92.814178 85.077121 
L 94.478003 88.976906 
L 95.758025 91.402767 
L 96.697611 92.793403 
L 97.748082 94.001082 
L 98.945964 95.01725 
L 100.329686 95.825758 
L 101.940496 96.401279 
L 103.822927 96.707299 
L 106.024531 96.693698 
L 108.594412 96.29417 
L 111.579813 95.424056 
L 115.019574 93.979902 
L 116.917025 93.005851 
L 118.932813 91.843135 
L 121.063264 90.476493 
L 123.300724 88.891912 
L 125.632476 87.077858 
L 128.03954 85.026871 
L 130.495378 82.737527 
L 132.964627 80.216731 
L 135.402017 77.482197 
L 137.751722 74.564891 
L 139.94748 71.511049 
L 141.913853 68.383284 
L 143.56901 65.260181 
L 144.829287 62.233868 
L 145.615496 59.40521 
L 145.860541 56.876689 
L 145.517396 54.743592 
L 144.566096 53.084656 
L 143.018246 51.953715 
L 140.917844 51.373911 
L 138.337929 51.335637 
L 135.373518 51.798633 
L 132.132136 52.697806 
L 128.723743 53.951616 
L 125.251772 55.471439 
L 121.806505 57.170339 
L 115.271256 60.805369 
L 109.493886 64.397853 
L 104.614583 67.716443 
L 100.62071 70.701429 
L 97.420948 73.385978 
L 94.894128 75.835449 
L 92.916028 78.113727 
L 91.372052 80.269997 
L 90.162089 82.336892 
L 89.201376 84.333443 
L 88.076914 87.215638 
L 84.462806 97.468164 
L 83.229239 99.710987 
L 82.229632 101.13353 
L 81.048546 102.493702 
L 79.646672 103.783327 
L 77.978838 104.987525 
L 75.993278 106.081159 
L 73.631567 107.023767 
L 70.82984 107.75249 
L 69.243339 108.008591 
L 67.522414 108.172567 
L 65.659864 108.225619 
L 63.649733 108.145367 
L 61.488024 107.905441 
L 59.173624 107.475169 
L 56.709498 106.819413 
L 54.104174 105.898702 
L 51.373547 104.66981 
L 48.542957 103.086974 
L 45.649462 101.104034 
L 42.744064 98.677723 
L 39.893537 95.772358 
L 37.181265 92.366013 
L 34.706338 88.457964 
L 32.580091 84.076766 
L 30.919375 79.287645 
L 29.836423 74.197298 
L 29.426092 68.953813 
L 29.752417 63.739762 
L 30.837402 58.757777 
L 32.655119 54.210073 
L 35.133154 50.275592 
L 38.161438 47.089771 
L 41.606341 44.731493 
L 45.326571 43.219654 
L 49.187422 42.518956 
L 53.071059 42.55225 
L 56.882087 43.215742 
L 60.548926 44.39374 
L 64.022202 45.970736 
L 67.271479 47.839872 
L 70.281398 49.907883 
L 73.047945 52.097117 
L 75.57522 54.345498 
L 77.872833 56.605211 
L 79.953919 58.840736 
L 83.52837 63.145749 
L 86.428589 67.143357 
L 88.783363 70.793077 
L 91.548736 75.619902 
L 97.184608 86.101989 
L 98.334706 87.735879 
L 99.562398 89.134843 
L 100.912677 90.294291 
L 102.428962 91.201238 
L 104.154022 91.833116 
L 106.130188 92.156405 
L 108.398561 92.125251 
L 110.996718 91.680513 
L 113.954228 90.750029 
L 117.285 89.251589 
L 120.975373 87.10088 
L 122.939501 85.75773 
L 124.967003 84.227535 
L 127.03996 82.508161 
L 129.134739 80.602459 
L 131.2213 78.519758 
L 133.262715 76.277382 
L 135.215048 73.902043 
L 137.027786 71.430859 
L 138.645025 68.911724 
L 140.007571 66.402718 
L 141.056048 63.970305 
L 141.734936 61.686173 
L 141.997254 59.622806 
L 141.809364 57.848116 
L 141.155187 56.419771 
L 140.039077 55.380011 
L 138.486693 54.751795 
L 136.543573 54.536943 
L 134.271522 54.716625 
L 131.743366 55.254079 
L 129.036942 56.099091 
L 126.229249 57.193451 
L 123.391533 58.476512 
L 117.862841 61.382281 
L 112.810523 64.43806 
L 108.421135 67.408068 
L 104.748848 70.186017 
L 101.765466 72.75164 
L 99.40076 75.127392 
L 97.568993 77.34862 
L 96.184205 79.447828 
L 95.168048 81.448803 
L 94.453183 83.366105 
L 93.984224 85.206807 
L 93.717392 86.972728 
L 93.626321 89.477591 
L 93.844936 91.798133 
L 94.340515 93.917116 
L 94.824088 95.207308 
L 95.438582 96.390258 
L 96.197679 97.455603 
L 97.120867 98.389729 
L 98.23364 99.174428 
L 99.567806 99.78517 
L 101.161775 100.188878 
L 103.060656 100.34114 
L 105.315808 100.182819 
L 107.983318 99.636221 
L 111.120488 98.601385 
L 114.778885 96.953871 
L 116.815162 95.855142 
L 118.991783 94.546902 
L 121.306581 93.009205 
L 123.752956 91.223047 
L 126.31851 89.171858 
L 128.983443 86.843483 
L 131.718787 84.23273 
L 134.484562 81.344427 
L 137.228093 78.196869 
L 139.882798 74.825322 
L 142.367956 71.285069 
L 144.590022 67.653247 
L 146.44613 64.028588 
L 147.83023 60.528188 
L 148.641894 57.280758 
L 148.797146 54.416447 
L 148.239793 52.054218 
L 146.95111 50.288681 
L 144.955487 49.178806 
L 142.320296 48.740887 
L 139.149492 48.947304 
L 135.572103 49.731366 
L 131.728034 50.997167 
L 127.754106 52.632354 
L 123.772797 54.521305 
L 119.885076 56.556479 
L 112.672658 60.720097 
L 106.46084 64.637166 
L 101.322251 68.115841 
L 97.177495 71.154921 
L 93.882957 73.837171 
L 91.280368 76.260556 
L 89.220019 78.506735 
L 87.569584 80.632698 
L 86.215988 82.673118 
L 84.538554 85.609661 
L 81.579429 91.066949 
L 79.929113 93.555929 
L 78.660805 95.105391 
L 77.207857 96.549814 
L 75.526725 97.867719 
L 73.572733 99.028325 
L 71.300559 99.987473 
L 68.666293 100.682452 
L 67.201078 100.904713 
L 65.631934 101.025875 
L 63.956379 101.030105 
L 62.173606 100.899289 
L 60.285066 100.612971 
L 58.295178 100.148402 
L 56.212159 99.480789 
L 54.048979 98.58379 
L 51.824406 97.430365 
L 49.56407 95.994068 
L 47.30144 94.250882 
L 45.078544 92.181641 
L 42.946208 89.775067 
L 40.963526 87.03127 
L 39.196262 83.965482 
L 37.713955 80.611511 
L 36.58562 77.024267 
L 35.874236 73.28055 
L 35.630559 69.477318 
L 35.887147 65.726975 
L 36.653698 62.149725 
L 37.914755 58.863806 
L 39.630389 55.975036 
L 41.739898 53.567493 
L 44.167808 51.696954 
L 46.83103 50.388122 
L 49.64591 49.635767 
L 52.534111 49.40908 
L 55.426759 49.658046 
L 58.266719 50.320497 
L 61.009228 51.328745 
L 63.621333 52.615064 
L 66.080572 54.115713 
L 68.373305 55.773482 
L 70.492978 57.538985 
L 72.438513 59.370984 
L 74.212896 61.23605 
L 77.273744 64.966078 
L 79.74212 68.585976 
L 81.696812 72.020803 
L 83.216858 75.238807 
L 84.375256 78.233631 
L 85.236006 81.012819 
L 85.85307 83.590857 
L 86.415371 87.11908 
L 86.63597 90.294505 
L 86.584124 93.173778 
L 86.295136 95.806853 
L 85.775463 98.236303 
L 85.005607 100.497153 
L 84.332252 101.924311 
L 83.508294 103.294054 
L 82.50785 104.60909 
L 81.298424 105.868313 
L 79.840081 107.065076 
L 78.084611 108.184501 
L 75.974898 109.199414 
L 73.44493 110.064344 
L 70.421249 110.706891 
L 68.700244 110.911935 
L 66.827281 111.015864 
L 64.793882 110.996213 
L 62.593067 110.82606 
L 60.220262 110.473496 
L 57.6745 109.90122 
L 54.959986 109.066347 
L 52.088067 107.920623 
L 49.079625 106.411271 
L 45.967856 104.482758 
L 42.801254 102.07987 
L 39.646463 99.152447 
L 36.590378 95.662076 
L 33.740592 91.590785 
L 31.223039 86.951268 
L 29.17567 81.797371 
L 27.737424 76.232605 
L 27.032861 70.413587 
L 27.154451 64.545236 
L 28.146229 58.865715 
L 29.993318 53.621907 
L 32.620968 49.039631 
L 35.904064 45.295434 
L 39.684731 42.496934 
L 43.793269 40.676017 
L 48.06732 39.795037 
L 52.365694 39.762491 
L 56.575675 40.452949 
L 60.614545 41.726431 
L 64.427109 43.444067 
L 67.981133 45.478795 
L 71.26218 47.72128 
L 74.26878 50.082029 
L 77.008396 52.490897 
L 79.494275 54.895078 
L 83.773568 59.548479 
L 87.256338 63.862972 
L 90.09449 67.772598 
L 93.447104 72.870755 
L 99.002276 81.615107 
L 100.396251 83.409143 
L 101.8271 84.91376 
L 103.34874 86.12873 
L 105.009457 87.044786 
L 106.85266 87.643063 
L 108.916732 87.894676 
L 111.233616 87.76077 
L 113.825729 87.193606 
L 116.700642 86.139637 
L 119.843042 84.5459 
L 123.203669 82.371404 
L 126.685812 79.604939 
L 128.425822 78.010234 
L 130.131652 76.28932 
L 131.772608 74.46047 
L 133.313807 72.548482 
L 134.716867 70.584941 
L 135.941082 68.607997 
L 136.945121 66.661526 
L 137.689245 64.793567 
L 138.137915 63.054057 
L 138.26259 61.491964 
L 138.044399 60.152059 
L 137.47632 59.071682 
L 136.564513 58.277919 
L 135.328536 57.785581 
L 133.800332 57.596303 
L 132.022088 57.698889 
L 130.043243 58.070851 
L 127.917062 58.680889 
L 125.697214 59.491936 
L 123.434768 60.464355 
L 118.960164 62.738909 
L 114.781032 65.232449 
L 111.072728 67.753106 
L 107.914383 70.191967 
L 105.317165 72.503121 
L 103.251455 74.678343 
L 101.66754 76.72644 
L 100.509391 78.660136 
L 99.722968 80.489422 
L 99.260785 82.219114 
L 99.0841 83.848621 
L 99.163706 85.372554 
L 99.479927 86.781426 
L 100.022214 88.062042 
L 100.788551 89.197471 
L 101.784776 90.166549 
L 103.023819 90.942962 
L 104.52478 91.493963 
L 106.311658 91.778835 
L 108.411428 91.747311 
L 110.851004 91.338356 
L 113.652429 90.480057 
L 116.825386 89.091901 
L 120.356034 87.091456 
L 122.240954 85.838548 
L 124.191245 84.408204 
L 126.190785 82.79739 
L 128.218302 81.007439 
L 130.246708 79.045394 
L 132.242603 76.925405 
L 134.166063 74.670057 
L 135.970895 72.311412 
L 137.605519 69.891548 
L 139.014653 67.462302 
L 140.141891 65.083975 
L 140.933163 62.822831 
L 141.340882 60.747399 
L 141.328378 58.923791 
L 140.874033 57.410522 
L 139.974436 56.253495 
L 138.645925 55.481916 
L 136.924115 55.105818 
L 134.861351 55.115622 
L 132.522444 55.48381 
L 129.979362 56.168417 
L 127.305703 57.117727 
L 124.571728 58.275417 
L 121.84051 59.585398 
L 116.58923 62.461646 
L 111.850933 65.422505 
L 107.770171 68.277071 
L 104.378591 70.945837 
L 101.639784 73.419237 
L 99.483841 75.720339 
L 97.829648 77.88047 
L 96.597636 79.926942 
L 95.716279 81.87883 
L 95.124877 83.746979 
L 94.77427 85.535672 
L 94.626471 87.244581 
L 94.653811 88.870367 
L 94.837935 90.40775 
L 95.168844 91.850026 
L 95.644094 93.189129 
L 96.2682 94.415298 
L 97.052256 95.516399 
L 98.013757 96.476921 
L 99.176575 97.276613 
L 100.571004 97.888738 
L 102.233747 98.277857 
L 104.207592 98.397133 
L 106.54042 98.18521 
L 109.282905 97.562962 
L 112.483955 96.430903 
L 116.182375 94.668923 
L 118.224134 93.509642 
L 120.392676 92.141545 
L 122.682299 90.547899 
L 125.082359 88.713938 
L 127.575951 86.628476 
L 130.138447 84.285958 
L 132.735973 81.688948 
L 135.32399 78.85094 
L 137.846226 75.799277 
L 140.234297 72.577815 
L 142.408499 69.24875 
L 144.280215 65.892974 
L 145.75637 62.608212 
L 146.746055 59.504444 
L 147.168998 56.696448 
L 146.96494 54.294002 
L 146.102401 52.390939 
L 144.584972 51.054861 
L 142.453516 50.319448 
L 139.78338 50.180956 
L 136.676902 50.599667 
L 133.252656 51.505965 
L 129.633564 52.809773 
L 125.93609 54.411498 
L 122.262112 56.212515 
L 115.294089 60.070592 
L 109.148145 63.862512 
L 103.973984 67.330218 
L 99.750279 70.413597 
L 96.370665 73.157418 
L 93.698672 75.640653 
L 91.596734 77.938281 
L 89.939185 80.107035 
L 88.616766 82.184019 
L 87.063402 85.170868 
L 85.042747 89.85984 
L 83.471194 93.34799 
L 82.105221 95.795976 
L 81.036618 97.339605 
L 79.797897 98.804042 
L 78.348759 100.177377 
L 76.645266 101.440901 
L 74.639357 102.565623 
L 72.279248 103.507506 
L 69.511355 104.201145 
L 67.958287 104.426658 
L 66.284814 104.551789 
L 64.486435 104.558594 
L 62.56026 104.426154 
L 60.505697 104.130364 
L 58.32531 103.643853 
L 56.025882 102.936096 
L 53.619673 101.973837 
L 51.125857 100.721932 
L 48.572087 99.144789 
L 45.996039 97.208549 
L 43.446733 94.884157 
L 40.985302 92.151391 
L 38.684758 89.003773 
L 36.628285 85.454035 
L 34.905559 81.539496 
L 33.606878 77.3263 
L 32.815247 72.911213 
L 32.597248 68.41963 
L 32.994133 63.998874 
L 34.014998 59.806826 
L 35.633805 55.99723 
L 37.791225 52.704171 
L 40.401105 50.028807 
L 43.360169 48.030968 
L 46.558846 46.726972 
L 49.891147 46.093393 
L 53.262146 46.075164 
L 56.59246 46.595843 
L 59.819939 47.567912 
L 62.899188 48.901623 
L 65.799733 50.511618 
L 68.503543 52.321194 
L 71.002418 54.264491 
L 73.295583 56.287093 
L 75.387627 58.345541 
L 77.28685 60.40622 
L 80.551146 64.440483 
L 83.187564 68.263737 
L 85.300138 71.820905 
L 86.987617 75.097823 
L 88.913128 79.506578 
L 90.331668 83.363106 
L 93.637008 93.057131 
L 94.674818 95.189745 
L 95.470625 96.430246 
L 96.383525 97.522068 
L 97.445161 98.456019 
L 98.690667 99.21627 
L 100.159652 99.778704 
L 101.896933 100.108711 
L 103.95282 100.158355 
L 106.382581 99.862948 
L 109.244414 99.137331 
L 112.594853 97.872713 
L 116.479899 95.935962 
L 118.630732 94.668404 
L 120.919362 93.175075 
L 123.339968 91.436944 
L 125.881173 89.437141 
L 128.524501 87.162856 
L 131.242636 84.607769 
L 133.99761 81.775013 
L 136.739091 78.680541 
L 139.403096 75.356612 
L 141.911578 71.854917 
L 144.173462 68.24863 
L 146.08774 64.632536 
L 147.54913 61.120341 
L 148.456394 57.838555 
L 148.722807 54.916925 
L 148.287426 52.476233 
L 147.125082 50.615196 
L 145.252768 49.398832 
L 142.730518 48.85066 
L 139.656076 48.950471 
L 136.154223 49.638144 
L 132.362982 50.822679 
L 128.419583 52.39451 
L 124.44873 54.238642 
L 120.554757 56.246328 
L 113.29497 60.396302 
L 107.012018 64.333546 
L 101.797882 67.844589 
L 97.583716 70.915328 
L 94.230442 73.623276 
L 91.581009 76.065698 
L 89.485359 78.325521 
L 87.810187 80.461475 
L 86.44129 82.509783 
L 84.756345 85.456699 
L 81.316146 91.792685 
L 79.617651 94.237448 
L 78.298381 95.753019 
L 76.779572 97.158385 
L 75.01733 98.42971 
L 72.966478 99.532648 
L 70.581455 100.417887 
L 67.819018 101.015575 
L 66.284663 101.177566 
L 64.643739 101.228893 
L 62.894634 101.152195 
L 61.037756 100.927739 
L 59.076203 100.533417 
L 57.016557 99.944904 
L 54.869805 99.136042 
L 52.652377 98.079545 
L 50.387232 96.748117 
L 48.104912 95.11608 
L 45.844413 93.1616 
L 43.653661 90.869531 
L 41.589333 88.234824 
L 39.715699 85.266289 
L 38.102222 81.990315 
L 36.819731 78.453923 
L 35.935238 74.726377 
L 35.505789 70.898509 
L 35.572155 67.079117 
L 36.153413 63.388252 
L 37.243574 59.947927 
L 38.811098 56.871486 
L 40.801571 54.253429 
L 43.143087 52.161488 
L 45.753287 50.632307 
L 48.546744 49.671186 
L 51.441498 49.255469 
L 54.363964 49.340479 
L 57.251906 49.866624 
L 60.055633 50.766432 
L 62.737784 51.970628 
L 65.272191 53.412764 
L 67.642252 55.032325 
L 69.839159 56.776449 
L 71.860186 58.600558 
L 73.707186 60.468198 
L 75.385315 62.350393 
L 78.266189 66.074395 
L 80.57651 69.654322 
L 82.397368 73.031826 
L 83.807433 76.18542 
L 84.877957 79.114707 
L 85.670604 81.830475 
L 86.23687 84.348824 
L 86.750401 87.795803 
L 86.949431 90.9 
L 86.89856 93.717202 
L 86.630428 96.296243 
L 86.15074 98.678769 
L 85.441068 100.899425 
L 84.459242 102.985513 
L 83.621131 104.310929 
L 82.605186 105.587135 
L 81.377405 106.812597 
L 79.896163 107.980171 
L 78.111273 109.074283 
L 75.963268 110.06665 
L 73.383335 110.909937 
L 70.294762 111.528611 
L 68.534608 111.719371 
L 66.617436 111.806303 
L 64.534364 111.765802 
L 62.278094 111.569535 
L 59.843874 111.183871 
L 57.230798 110.569446 
L 54.443487 109.68097 
L 51.494215 108.467465 
L 48.405503 106.873209 
L 45.21312 104.839696 
L 41.969301 102.309037 
L 38.745784 99.229184 
L 35.635965 95.561318 
L 32.755153 91.289385 
L 30.237624 86.431215 
L 28.229225 81.049713 
L 26.874821 75.26153 
L 26.301192 69.239733 
L 26.597876 63.207025 
L 27.800295 57.417702 
L 29.880116 52.129789 
L 32.74646 47.572655 
L 36.258301 43.917919 
L 40.244738 41.260969 
L 44.527586 39.616941 
L 48.940874 38.930267 
L 53.343962 39.093242 
L 57.627552 39.967781 
L 61.713876 41.405436 
L 65.553134 43.262801 
L 69.11821 45.411437 
L 72.399128 47.742858 
L 75.39809 50.169775 
L 78.125456 52.624913 
L 80.596697 55.058509 
L 84.845783 59.731507 
L 88.303745 64.028745 
L 91.12707 67.897575 
L 94.480867 72.907358 
L 99.429092 80.405045 
L 100.886207 82.249022 
L 102.363947 83.789367 
L 103.918786 85.027918 
L 105.600351 85.957417 
L 107.452187 86.561159 
L 109.511588 86.812863 
L 111.808159 86.67709 
L 114.360734 86.110782 
L 117.172194 85.06682 
L 120.221792 83.500819 
L 123.454963 81.382531 
L 126.771399 78.712858 
L 128.414169 77.185412 
L 130.013968 75.54585 
L 131.541416 73.813043 
L 132.963648 72.011725 
L 134.245067 70.172578 
L 135.348539 68.331859 
L 136.237015 66.530468 
L 136.875573 64.81242 
L 137.23373 63.222723 
L 137.287843 61.804819 
L 137.023323 60.597775 
L 136.436354 59.633568 
L 135.534839 58.93478 
L 134.338384 58.513033 
L 132.87725 58.368393 
L 131.190399 58.489816 
L 129.322858 58.856579 
L 127.322774 59.440464 
L 125.238493 60.208382 
L 120.997014 62.155649 
L 116.907236 64.431791 
L 113.181648 66.825627 
L 109.938076 69.199732 
L 107.219996 71.481876 
L 105.021359 73.644683 
L 103.30802 75.685289 
L 102.033336 77.610419 
L 101.148304 79.427552 
L 100.607609 81.140748 
L 100.372897 82.749271 
L 100.414294 84.247577 
L 100.710864 85.625707 
L 101.250476 86.869595 
L 102.029318 87.961047 
L 103.051208 88.877315 
L 104.326701 89.59031 
L 105.871923 90.065496 
L 107.706934 90.260666 
L 109.853294 90.124855 
L 112.33036 89.597927 
L 115.149685 88.611695 
L 118.306711 87.093954 
L 121.769024 84.977383 
L 125.460851 82.215633 
L 127.352825 80.590029 
L 129.244875 78.80829 
L 131.107426 76.882953 
L 132.905403 74.833672 
L 134.598456 72.688076 
L 136.141696 70.482213 
L 137.487049 68.260383 
L 138.585331 66.07416 
L 139.389005 63.980473 
L 139.85551 62.03872 
L 139.950861 60.307081 
L 139.6531 58.838334 
L 138.955079 57.675699 
L 137.866077 56.849255 
L 136.411897 56.3735 
L 134.633299 56.246448 
L 132.582973 56.450409 
L 130.321472 56.954317 
L 127.912716 57.717212 
L 125.41969 58.692329 
L 122.900845 59.831188 
L 117.982382 62.418353 
L 113.462361 65.170789 
L 109.509191 67.888141 
L 106.182844 70.470467 
L 103.472259 72.887582 
L 101.32742 75.146682 
L 99.681807 77.268694 
L 98.46625 79.274804 
L 97.616643 81.180631 
L 97.077756 82.994889 
L 96.804749 84.720109 
L 96.763395 86.353984 
L 96.929671 87.890582 
L 97.289065 89.321133 
L 97.835845 90.634298 
L 98.572389 91.815958 
L 99.508629 92.848534 
L 100.66158 93.709899 
L 102.054898 94.371871 
L 103.718293 94.798334 
L 105.686568 94.943024 
L 107.997889 94.747195 
L 110.69067 94.137574 
L 113.79818 93.025548 
L 117.339607 91.309273 
L 119.271852 90.190865 
L 121.305978 88.881598 
L 123.433051 87.370168 
L 125.639367 85.647959 
L 127.90543 83.710466 
L 130.204888 81.559019 
L 132.503556 79.202719 
L 134.758656 76.660471 
L 136.918495 73.96289 
L 138.922846 71.153766 
L 140.704341 68.290668 
L 142.191106 65.444259 
L 143.310826 62.695926 
L 143.996114 60.133522 
L 144.190797 57.845346 
L 143.856334 55.912873 
L 142.9773 54.403194 
L 141.564836 53.362331 
L 139.657168 52.810629 
L 137.316867 52.741111 
L 134.625195 53.121102 
L 131.674542 53.896818 
L 128.560273 55.000031 
L 125.373329 56.355622 
L 122.194535 57.888784 
L 116.115164 61.223589 
L 110.682539 64.588287 
L 106.05073 67.755791 
L 102.231988 70.65008 
L 99.159943 73.28315 
L 96.734262 75.702548 
L 94.846948 77.959937 
L 93.395861 80.097182 
L 92.290661 82.142999 
L 91.454639 84.11455 
L 90.570063 86.950303 
L 89.986722 89.647442 
L 89.481305 93.027374 
L 88.19474 102.999006 
L 87.605865 105.411421 
L 87.003685 107.132392 
L 86.207269 108.795155 
L 85.147307 110.413811 
L 84.249263 111.473322 
L 83.157594 112.517836 
L 81.82876 113.543936 
L 80.209617 114.542058 
L 78.235719 115.492642 
L 75.829819 116.360153 
L 72.901127 117.083944 
L 69.346558 117.564662 
L 67.300218 117.667594 
L 65.056328 117.644834 
L 62.602459 117.46337 
L 59.928394 117.083048 
L 57.027668 116.455644 
L 53.89968 115.524136 
L 50.552521 114.222432 
L 47.006616 112.475908 
L 43.299232 110.203297 
L 39.489683 107.320592 
L 35.664764 103.74779 
L 31.943386 99.41925 
L 28.478696 94.298105 
L 25.455276 88.394214 
L 23.078732 81.783452 
L 21.555855 74.623759 
L 21.066015 67.161229 
L 21.066015 67.161229 
" clip-path="url(#p56419e8054)" style="fill: none; stroke: #1f77b4; stroke-width: 1.5; stroke-linecap: round"/>
   </g>
   <g id="line2d_25">
    <path d="M 124.626383 103.723783 
L 126.490579 100.719161 
L 128.643729 97.611711 
L 139.095247 83.416713 
L 141.835478 79.348128 
L 144.453312 75.10705 
L 146.840229 70.756501 
L 148.878532 66.389734 
L 150.447108 62.129082 
L 151.429917 58.120434 
L 151.726723 54.522527 
L 151.264807 51.491314 
L 150.009701 49.161143 
L 147.97257 47.626017 
L 145.212147 46.925119 
L 141.830131 47.036398 
L 137.960553 47.880185 
L 133.755159 49.3321 
L 129.367798 51.241958 
L 124.940759 53.454072 
L 120.595062 55.824691 
L 112.499339 60.591137 
L 102.508037 66.868584 
L 95.219724 71.765953 
L 91.631204 74.432277 
L 88.834217 76.78564 
L 86.642859 78.938092 
L 84.893561 80.964288 
L 82.803253 83.853855 
L 78.710967 90.042612 
L 77.425133 91.634621 
L 75.987852 93.118405 
L 74.352908 94.469633 
L 72.476918 95.656364 
L 70.319584 96.635874 
L 67.845654 97.350667 
L 65.029239 97.723991 
L 63.488827 97.752297 
L 61.861276 97.655669 
L 60.149957 97.41756 
L 58.360965 97.019928 
L 56.503704 96.443525 
L 54.591517 95.668379 
L 52.642307 94.674533 
L 50.679112 93.443101 
L 48.730532 91.957662 
L 46.830919 90.20602 
L 45.020211 88.182284 
L 43.343259 85.889163 
L 41.84855 83.340278 
L 40.586247 80.562217 
L 39.605549 77.595927 
L 38.951485 74.497075 
L 38.661427 71.33497 
L 38.761678 68.189842 
L 39.26462 65.148493 
L 40.166887 62.298657 
L 41.448913 59.722694 
L 43.076005 57.491488 
L 45.000836 55.659399 
L 47.166995 54.260996 
L 49.513095 53.309938 
L 51.976875 52.79998 
L 54.498804 52.707743 
L 57.024889 52.996621 
L 59.508516 53.621169 
L 61.911376 54.531358 
L 64.203599 55.67627 
L 66.363309 57.006975 
L 68.375796 58.478537 
L 70.232489 60.0512 
L 71.92987 61.6909 
L 73.468434 63.369268 
L 74.851727 65.063286 
L 77.177122 68.429595 
L 78.967229 71.690268 
L 80.291903 74.792513 
L 81.219262 77.713727 
L 81.809805 80.449431 
L 82.113551 83.005206 
L 82.169045 85.391538 
L 82.003438 87.620606 
L 81.633092 89.70426 
L 81.064369 91.652658 
L 80.294402 93.473207 
L 79.311762 95.16952 
L 78.097022 96.740152 
L 76.623305 98.17689 
L 74.857029 99.462329 
L 72.759176 100.566485 
L 70.287648 101.442174 
L 67.40155 102.019029 
L 65.792328 102.165326 
L 64.068634 102.196393 
L 62.229786 102.093736 
L 60.277515 101.836193 
L 58.21673 101.39993 
L 56.0564 100.758638 
L 53.810547 99.883996 
L 51.499308 98.74651 
L 49.149974 97.31684 
L 46.79792 95.567715 
L 44.487226 93.476507 
L 42.270794 91.028476 
L 40.209694 88.220545 
L 38.371502 85.065337 
L 36.827418 81.594959 
L 35.648125 77.863849 
L 34.898557 73.949845 
L 34.632035 69.952708 
L 34.884525 65.989569 
L 35.669941 62.187337 
L 36.977419 58.672756 
L 38.771215 55.561481 
L 40.993393 52.947932 
L 43.568926 50.897653 
L 46.412321 49.443373 
L 49.434682 48.585176 
L 52.550139 48.294313 
L 55.680894 48.51955 
L 58.760522 49.194709 
L 61.735536 50.246108 
L 64.565515 51.598978 
L 67.222187 53.18235 
L 69.687905 54.932282 
L 71.953846 56.793596 
L 74.018198 58.720412 
L 75.884489 60.675843 
L 77.56013 62.63116 
L 80.381527 66.460711 
L 82.579178 70.099933 
L 84.25686 73.50109 
L 85.512962 76.652582 
L 86.434359 79.562237 
L 87.09411 82.247185 
L 87.719048 85.898666 
L 88.032938 89.161098 
L 88.126955 93.012913 
L 87.956023 96.405135 
L 87.557885 99.43158 
L 87.097842 101.506099 
L 86.46764 103.442029 
L 85.619152 105.261312 
L 84.482631 106.981694 
L 83.518328 108.079474 
L 82.346471 109.13869 
L 80.921781 110.155513 
L 79.189523 111.119435 
L 77.084414 112.009275 
L 74.530198 112.787024 
L 71.440809 113.388584 
L 67.724802 113.710319 
L 65.604186 113.718615 
L 63.295967 113.590604 
L 60.793687 113.293268 
L 58.094792 112.78706 
L 55.20237 112.025385 
L 52.127334 110.954449 
L 48.891026 109.513788 
L 45.52821 107.637822 
L 42.090225 105.258917 
L 38.647947 102.312436 
L 35.293924 98.744206 
L 32.142834 94.520512 
L 29.329163 89.640174 
L 27.001067 84.147333 
L 25.309711 78.142465 
L 24.394315 71.788169 
L 24.364515 65.306045 
L 25.283113 58.9621 
L 27.153311 53.04082 
L 29.91416 47.811747 
L 33.446206 43.495571 
L 37.58641 40.237742 
L 42.14879 38.095655 
L 46.945911 37.041299 
L 51.806799 36.976791 
L 56.588711 37.757276 
L 61.1823 39.215177 
L 65.511349 41.181081 
L 69.528961 43.498805 
L 73.212072 46.034206 
L 76.555693 48.678666 
L 79.567707 51.348745 
L 82.264604 53.983542 
L 84.668197 56.540979 
L 88.695656 61.326318 
L 91.8563 65.604512 
L 94.347849 69.370652 
L 97.208329 74.141279 
L 100.762224 80.123751 
L 102.055561 81.929451 
L 103.389037 83.429278 
L 104.820946 84.628525 
L 106.400417 85.522038 
L 108.168852 86.094376 
L 110.160118 86.320128 
L 112.399186 86.164731 
L 114.898932 85.58635 
L 117.654767 84.539675 
L 120.63697 82.982769 
L 123.781091 80.888227 
L 126.977761 78.259455 
L 128.547299 76.759283 
L 130.064895 75.151412 
L 131.501956 73.454308 
L 132.827245 71.692017 
L 134.007719 69.89423 
L 135.009705 68.095934 
L 135.800401 66.336549 
L 136.34964 64.658492 
L 136.631799 63.105192 
L 136.627705 61.718666 
L 136.326317 60.536842 
L 135.725991 59.59093 
L 134.835112 58.903164 
L 133.672002 58.485225 
L 132.264039 58.337599 
L 130.646083 58.449948 
L 128.858383 58.802459 
L 126.944197 59.367945 
L 124.947399 60.114392 
L 120.871937 62.013617 
L 116.923621 64.240639 
L 113.312354 66.588846 
L 110.162202 68.922715 
L 107.525482 71.169989 
L 105.403692 73.302308 
L 103.7676 75.315532 
L 102.573107 77.215054 
L 101.772283 79.006931 
L 101.320314 80.693582 
L 101.17941 82.272304 
L 101.320672 83.735201 
L 101.724655 85.069551 
L 102.381167 86.258098 
L 103.288583 87.27902 
L 104.452854 88.105502 
L 105.886168 88.704977 
L 107.605148 89.038151 
L 109.628296 89.058089 
L 111.972251 88.709765 
L 114.646325 87.930813 
L 117.644674 86.654585 
L 120.935629 84.817113 
L 124.448234 82.369934 
L 126.251044 80.911642 
L 128.05731 79.300433 
L 129.840795 77.544907 
L 131.570693 75.659616 
L 133.211864 73.665963 
L 134.725445 71.592841 
L 136.069903 69.476857 
L 137.202597 67.361957 
L 138.081816 65.298281 
L 138.669227 63.340172 
L 138.932566 61.543336 
L 138.848313 59.961313 
L 138.404041 58.641603 
L 137.600091 57.621888 
L 136.450298 56.926906 
L 134.981581 56.566466 
L 133.232388 56.534945 
L 131.250161 56.812369 
L 129.088157 57.366895 
L 126.802005 58.158268 
L 124.446442 59.141713 
L 119.725631 61.50509 
L 115.258618 64.134815 
L 111.26249 66.800085 
L 107.845654 69.370073 
L 105.034083 71.791582 
L 102.801022 74.058246 
L 101.091838 76.184769 
L 99.841668 78.190393 
L 98.986557 80.090539 
L 98.469744 81.89385 
L 98.244709 83.602116 
L 98.276216 85.21132 
L 98.540249 86.712809 
L 99.023391 88.094116 
L 99.722 89.339246 
L 100.641335 90.428422 
L 101.794707 91.337313 
L 103.202566 92.035815 
L 104.891368 92.48645 
L 106.891918 92.642537 
L 109.236715 92.446383 
L 111.955637 91.828052 
L 115.069057 90.705682 
L 118.577322 88.989062 
L 120.470534 87.879585 
L 122.445629 86.589083 
L 124.48949 85.109656 
L 126.584119 83.436493 
L 128.705926 81.569169 
L 130.825121 79.513148 
L 132.905331 77.281389 
L 134.903567 74.895943 
L 136.770691 72.389323 
L 138.45254 69.805386 
L 139.891832 67.199396 
L 141.030908 64.636947 
L 141.815243 62.191476 
L 142.197532 59.940274 
L 142.141942 57.959157 
L 141.628017 56.316279 
L 140.653609 55.065882 
L 139.23629 54.242972 
L 137.412868 53.859889 
L 135.236953 53.905449 
L 132.774876 54.346882 
L 130.100541 55.134185 
L 127.289991 56.20608 
L 124.416408 57.49649 
L 121.546109 58.940522 
L 116.031432 62.062525 
L 111.068317 65.215559 
L 106.815786 68.203362 
L 103.309037 70.956793 
L 100.506065 73.481921 
L 98.325778 75.816489 
L 96.673812 78.00298 
L 95.457826 80.075973 
L 94.595425 82.05857 
L 94.017464 83.963362 
L 93.668673 85.795014 
L 93.506897 87.552938 
L 93.551212 90.042948 
L 93.889407 92.339276 
L 94.502664 94.418406 
L 95.071095 95.6701 
L 95.781206 96.802395 
L 96.651944 97.802208 
L 97.708574 98.652555 
L 98.982968 99.330967 
L 100.513933 99.807436 
L 102.347336 100.041831 
L 104.53569 99.980704 
L 107.136609 99.553578 
L 110.209175 98.669116 
L 113.806739 97.212222 
L 115.814494 96.226601 
L 117.964059 95.044366 
L 120.253407 93.6458 
L 122.676126 92.01143 
L 125.220153 90.123195 
L 127.866343 87.96609 
L 130.58695 85.530319 
L 133.344132 82.813989 
L 136.088657 79.826304 
L 138.759091 76.591063 
L 141.281797 73.150107 
L 143.572164 69.566159 
L 145.537429 65.924262 
L 147.081418 62.330905 
L 148.111213 58.909973 
L 148.545408 55.794985 
L 148.323095 53.117788 
L 147.412224 50.994847 
L 145.815725 49.513269 
L 143.573881 48.719369 
L 140.762057 48.612461 
L 137.483863 49.145565 
L 133.860937 50.232999 
L 130.021244 51.7631 
L 126.088018 53.613149 
L 122.171013 55.663423 
L 114.727289 59.961453 
L 108.164265 64.065082 
L 102.664129 67.71222 
L 98.212709 70.871892 
L 94.692206 73.625164 
L 91.945054 76.081765 
L 89.810066 78.338202 
L 88.139768 80.464084 
L 86.80685 82.502797 
L 85.212507 85.444087 
L 81.581808 92.66893 
L 80.523091 94.307979 
L 79.315939 95.862895 
L 77.918337 97.320461 
L 76.286758 98.662158 
L 74.375492 99.861206 
L 72.137017 100.878506 
L 69.523957 101.657333 
L 66.493523 102.116705 
L 64.811591 102.192811 
L 63.015722 102.143893 
L 61.106397 101.949762 
L 59.086977 101.587571 
L 56.964533 101.031917 
L 54.750793 100.255175 
L 52.463171 99.228177 
L 50.125828 97.921317 
L 47.770655 96.30621 
L 45.438039 94.357995 
L 43.177211 92.058296 
L 41.04594 89.398801 
L 39.109305 86.385232 
L 37.437333 83.041293 
L 36.101372 79.411986 
L 35.169273 75.565506 
L 34.699726 71.592877 
L 34.736366 67.604704 
L 35.302551 63.724793 
L 36.397733 60.081051 
L 37.996231 56.794797 
L 40.048789 53.970098 
L 42.486759 51.684932 
L 45.228211 49.985649 
L 48.184943 48.885463 
L 51.269264 48.366865 
L 54.399664 48.387075 
L 57.504847 48.885243 
L 60.525981 49.790044 
L 63.417372 51.026592 
L 66.145929 52.521981 
L 68.689851 54.20918 
L 71.036897 56.029351 
L 73.182571 57.932837 
L 75.12837 59.879162 
L 76.880246 61.836384 
L 78.447294 63.780085 
L 81.07283 67.55996 
L 83.105428 71.130841 
L 84.648081 74.457772 
L 85.796092 77.536194 
L 86.632277 80.377426 
L 87.225459 83.000048 
L 87.776887 86.570026 
L 88.038846 89.764313 
L 88.082033 93.542739 
L 87.867437 96.877493 
L 87.42139 99.858979 
L 86.916616 101.906547 
L 86.229149 103.820455 
L 85.305433 105.621756 
L 84.521651 106.768373 
L 83.569764 107.875339 
L 82.413292 108.943171 
L 81.007691 109.968367 
L 79.299087 110.940952 
L 77.223172 111.840616 
L 74.704731 112.630752 
L 71.658668 113.249482 
L 67.994151 113.596593 
L 65.902303 113.622168 
L 63.624658 113.515552 
L 61.154412 113.244689 
L 58.48845 112.771127 
L 55.62902 112.049463 
L 52.585835 111.027148 
L 49.378612 109.644895 
L 46.03999 107.83807 
L 42.618655 105.539503 
L 39.182329 102.684209 
L 35.820045 99.216456 
L 32.642874 95.099338 
L 29.782074 90.326525 
L 27.383567 84.934955 
L 25.598012 79.016175 
L 24.566512 72.723024 
L 24.403352 66.267985 
L 25.178611 59.9104 
L 26.90461 53.932248 
L 29.530044 48.605735 
L 32.944068 44.159249 
L 36.989895 40.749664 
L 41.484704 38.447396 
L 46.24112 37.236796 
L 51.085731 37.029901 
L 55.871769 37.688416 
L 60.485213 39.047884 
L 64.845244 40.939123 
L 68.900908 43.204131 
L 72.625836 45.705769 
L 76.012509 48.331955 
L 79.066981 50.995837 
L 81.804484 53.633448 
L 84.246023 56.200135 
L 88.339707 61.015531 
L 91.55283 65.330682 
L 94.083611 69.134979 
L 96.98103 73.960232 
L 100.550729 80.024995 
L 101.838241 81.862118 
L 103.160509 83.393711 
L 104.576658 84.62594 
L 106.136594 85.55454 
L 107.88256 86.164932 
L 109.849468 86.432475 
L 112.063726 86.32316 
L 114.540245 85.795279 
L 117.277289 84.802904 
L 120.249003 83.302289 
L 123.39586 81.262495 
L 126.614233 78.681181 
L 128.20358 77.199555 
L 129.747835 75.60521 
L 131.218904 73.915344 
L 132.585831 72.152744 
L 133.815562 70.34595 
L 134.874049 68.529027 
L 135.727695 66.740831 
L 136.345081 65.023704 
L 136.698893 63.42159 
L 136.767873 61.977665 
L 136.538615 60.731652 
L 136.006977 59.717098 
L 135.178909 58.95894 
L 134.07054 58.471709 
L 132.707482 58.258612 
L 131.123386 58.311671 
L 129.357913 58.612866 
L 127.45436 59.136124 
L 125.457203 59.849844 
L 121.352557 61.710686 
L 117.346923 63.928846 
L 113.662389 66.287464 
L 110.433237 68.641623 
L 107.718903 70.912496 
L 105.524991 73.06816 
L 103.824029 75.103196 
L 102.572077 77.023089 
L 101.72041 78.834639 
L 101.222915 80.541204 
L 101.040304 82.141014 
L 101.142158 83.627021 
L 101.507609 84.987293 
L 102.12518 86.20536 
L 102.992165 87.260237 
L 104.113666 88.126057 
L 105.501339 88.771332 
L 107.171705 89.157978 
L 109.143782 89.24031 
L 111.435609 88.964414 
L 114.059155 88.268546 
L 117.01294 87.085588 
L 120.271831 85.349107 
L 123.773877 83.004968 
L 125.582932 81.595989 
L 127.405179 80.030376 
L 129.21595 78.314613 
L 130.985914 76.46083 
L 132.681188 74.48778 
L 134.263782 72.421625 
L 135.692491 70.296362 
L 136.924267 68.153711 
L 137.916113 66.042285 
L 138.62743 64.015903 
L 139.022697 62.131018 
L 139.074245 60.443359 
L 138.764831 59.004048 
L 138.089661 57.855632 
L 137.057532 57.028561 
L 135.690871 56.538648 
L 134.024581 56.385958 
L 132.103789 56.555315 
L 129.980798 57.01834 
L 127.711613 57.736696 
L 125.352493 58.66598 
L 122.956895 59.759686 
L 118.242596 62.264127 
L 113.8695 64.948509 
L 110.019416 67.612688 
L 106.771036 70.153481 
L 104.129364 72.536663 
L 102.05499 74.766083 
L 100.487027 76.860321 
L 99.358687 78.838846 
L 98.606735 80.715685 
L 98.176571 82.497686 
L 98.024487 84.185021 
L 98.118247 85.77242 
L 98.436763 87.25032 
L 98.969353 88.605565 
L 99.71488 89.82156 
L 100.680895 90.87787 
L 101.882807 91.749326 
L 103.342983 92.404688 
L 105.089598 92.804945 
L 107.154887 92.901404 
L 109.572307 92.633855 
L 112.37187 91.929414 
L 115.5727 90.703143 
L 119.171688 88.862307 
L 121.109558 87.682774 
L 123.127291 86.317137 
L 125.210224 84.758053 
L 127.338482 83.001691 
L 129.486264 81.049138 
L 131.621272 78.907987 
L 133.704402 76.594013 
L 135.689837 74.132776 
L 137.52572 71.560923 
L 139.155535 68.926884 
L 140.52033 66.290617 
L 141.561802 63.722067 
L 142.226136 61.298118 
L 142.468317 59.097999 
L 142.256473 57.197416 
L 141.575641 55.662039 
L 140.430334 54.541232 
L 138.845367 53.863105 
L 136.864665 53.631809 
L 134.54811 53.827658 
L 131.966861 54.410072 
L 129.197846 55.322796 
L 126.318232 56.500385 
L 123.400584 57.874841 
L 117.697922 60.962796 
L 112.473696 64.172305 
L 107.937531 67.25412 
L 104.15784 70.104394 
L 101.110112 72.712753 
L 98.719606 75.112981 
L 96.891563 77.350017 
L 95.529689 79.463118 
L 94.546107 81.480029 
L 93.865807 83.417059 
L 93.427868 85.28152 
L 93.184947 87.074597 
L 93.112427 89.624266 
L 93.327274 91.991271 
L 93.797781 94.15557 
L 94.527504 96.094031 
L 95.173751 97.246927 
L 95.967359 98.275595 
L 96.931809 99.165495 
L 98.096947 99.897306 
L 99.499429 100.445078 
L 101.183092 100.77387 
L 103.198993 100.836755 
L 105.604634 100.571189 
L 108.461614 99.894918 
L 111.830469 98.702086 
L 115.760827 96.861155 
L 117.945084 95.650079 
L 120.274307 94.217933 
L 122.742355 92.544174 
L 125.337264 90.609601 
L 128.03974 88.398057 
L 130.821541 85.898679 
L 133.643864 83.108748 
L 136.455945 80.037076 
L 139.194142 76.707751 
L 141.781878 73.163854 
L 144.130874 69.470563 
L 146.144113 65.716761 
L 147.720847 62.014178 
L 148.7637 58.493094 
L 149.187508 55.294011 
L 148.928928 52.55547 
L 147.955381 50.399265 
L 146.271518 48.915427 
L 143.921591 48.150066 
L 140.986765 48.099009 
L 137.577526 48.709013 
L 133.822528 49.886429 
L 129.856014 51.511243 
L 125.80611 53.453245 
L 121.785777 55.586935 
L 114.180191 60.013503 
L 107.511093 64.191365 
L 101.947487 67.869382 
L 97.460168 71.03243 
L 93.918718 73.774754 
L 91.156317 76.214576 
L 89.005394 78.452893 
L 87.314145 80.561155 
L 85.952258 82.583066 
L 84.294693 85.499538 
L 80.880737 91.800581 
L 79.764121 93.443613 
L 78.498994 94.997117 
L 77.041801 96.445181 
L 75.348525 97.766049 
L 73.374188 98.929051 
L 71.07356 99.890495 
L 68.403669 100.588402 
L 66.918648 100.812637 
L 65.329016 100.936267 
L 63.633 100.943569 
L 61.83072 100.816544 
L 59.924791 100.534845 
L 57.921033 100.075854 
L 55.829284 99.414939 
L 53.664283 98.525983 
L 51.446603 97.38227 
L 49.203525 95.957822 
L 46.969769 94.229253 
L 44.787904 92.178203 
L 42.708265 89.794298 
L 40.788144 87.078519 
L 39.09006 84.046674 
L 37.678984 80.732519 
L 36.618493 77.18991 
L 35.966067 73.493305 
L 35.767961 69.735992 
L 36.0543 66.025687 
L 36.835195 62.477617 
L 38.098624 59.205752 
L 39.810564 56.313365 
L 41.917502 53.884402 
L 44.350933 51.97706 
L 47.033145 50.620527 
L 49.88333 49.815189 
L 52.823192 49.535906 
L 55.781376 49.73745 
L 58.696443 50.360981 
L 61.518362 51.340499 
L 64.208745 52.608487 
L 66.740168 54.100276 
L 69.094912 55.75703 
L 71.26343 57.527422 
L 73.242759 59.368272 
L 75.035036 61.244405 
L 76.646172 63.128024 
L 79.361056 66.837935 
L 81.472788 70.387485 
L 83.075199 73.724742 
L 84.258329 76.833372 
L 85.102075 79.716956 
L 85.673538 82.389195 
L 86.026572 84.868156 
L 86.233905 88.266088 
L 86.133896 91.333748 
L 85.774023 94.124791 
L 85.164218 96.683547 
L 84.282366 99.044909 
L 83.518828 100.522218 
L 82.588812 101.927482 
L 81.462726 103.261879 
L 80.103799 104.522073 
L 78.467458 105.698135 
L 76.500897 106.770342 
L 74.143278 107.704349 
L 71.327272 108.444186 
L 67.983224 108.902443 
L 66.09281 108.986956 
L 64.047973 108.947405 
L 61.844534 108.757919 
L 59.481403 108.388003 
L 56.9618 107.802261 
L 54.294764 106.960392 
L 51.496919 105.817625 
L 48.594463 104.325821 
L 45.62525 102.435502 
L 42.640759 100.09908 
L 39.70758 97.275539 
L 36.907954 93.936641 
L 34.33874 90.074477 
L 32.108197 85.709699 
L 30.330083 80.899234 
L 29.114987 75.741667 
L 28.559434 70.378202 
L 28.734137 64.987335 
L 29.673477 59.772392 
L 31.368578 54.942808 
L 33.765892 50.692005 
L 36.772032 47.176136 
L 40.264047 44.498139 
L 44.102952 42.700262 
L 48.147739 41.765891 
L 52.267353 41.629199 
L 56.349061 42.18954 
L 60.302806 43.327125 
L 64.062032 44.917169 
L 67.581972 46.840776 
L 70.836509 48.992043 
L 73.814484 51.281664 
L 76.516093 53.637809 
L 78.949715 56.00516 
L 81.129301 58.342905 
L 83.072331 60.622297 
L 86.327477 64.936853 
L 88.876811 68.87312 
L 90.875806 72.420758 
L 93.141334 77.061057 
L 97.297696 86.160983 
L 98.301506 87.81563 
L 99.398118 89.242949 
L 100.63172 90.439925 
L 102.044782 91.394893 
L 103.679393 92.086562 
L 105.577759 92.482761 
L 107.781574 92.53904 
L 110.329777 92.197441 
L 113.253977 91.386164 
L 116.570605 90.021386 
L 118.37418 89.103318 
L 120.268776 88.013362 
L 122.245945 86.741568 
L 124.293122 85.279875 
L 126.392884 83.623176 
L 128.52222 81.770621 
L 130.651913 79.727107 
L 132.746128 77.504905 
L 134.762331 75.125276 
L 136.651706 72.6199 
L 138.36022 70.031823 
L 139.830464 67.415626 
L 141.004335 64.836463 
L 141.826516 62.367694 
L 142.248558 60.087007 
L 142.233176 58.07114 
L 141.758246 56.389692 
L 140.819886 55.098771 
L 139.434031 54.235496 
L 137.636126 53.814326 
L 135.47883 53.825955 
L 133.028022 54.239033 
L 130.357663 55.004387 
L 127.54431 56.060945 
L 124.662002 57.342279 
L 121.778132 58.782721 
L 116.226373 61.909802 
L 111.219872 65.077097 
L 106.923884 68.081584 
L 103.377233 70.850278 
L 100.539461 73.387833 
L 98.329681 75.732041 
L 96.652985 77.926073 
L 95.416152 80.005326 
L 94.535795 81.993622 
L 93.941786 83.904097 
L 93.57794 85.741802 
L 93.401261 87.506429 
L 93.421821 90.008188 
L 93.732401 92.318957 
L 94.311722 94.416203 
L 94.852711 95.682726 
L 95.530502 96.832769 
L 96.363056 97.854101 
L 97.374537 98.730877 
L 98.595625 99.442132 
L 100.063876 99.95984 
L 101.82396 100.246437 
L 103.92745 100.251741 
L 106.43165 99.909291 
L 109.396586 99.132399 
L 112.87882 97.810785 
L 116.920094 95.809722 
L 119.15486 94.506728 
L 121.528205 92.97549 
L 124.030957 91.196783 
L 126.647498 89.153589 
L 129.354241 86.833022 
L 132.118082 84.228808 
L 134.894945 81.344307 
L 137.628672 78.19596 
L 140.250574 74.816897 
L 142.680014 71.260227 
L 144.826453 67.601309 
L 146.593321 63.938118 
L 147.88389 60.388755 
L 148.609008 57.085356 
L 148.696054 54.164167 
L 148.097962 51.752478 
L 146.800751 49.954134 
L 144.827877 48.836279 
L 142.240148 48.42025 
L 139.130796 48.678962 
L 135.616398 49.541597 
L 131.825344 50.90457 
L 127.886002 52.646192 
L 123.916575 54.641793 
L 116.269965 58.953807 
L 109.438 63.163907 
L 103.660977 66.940276 
L 98.957548 70.213211 
L 95.223563 73.050618 
L 92.303745 75.563426 
L 90.033583 77.854869 
L 88.26007 80.001909 
L 86.849943 82.053876 
L 85.176658 85.008728 
L 81.458625 92.267043 
L 80.392798 93.914711 
L 79.181881 95.477644 
L 77.783425 96.942173 
L 76.153859 98.289368 
L 74.247792 99.492121 
L 72.018378 100.511159 
L 69.419277 101.28984 
L 66.409074 101.74771 
L 64.740115 101.822909 
L 62.959413 101.773289 
L 61.067662 101.578996 
L 59.068415 101.217616 
L 56.968889 100.66429 
L 54.780888 99.892065 
L 52.521795 98.872571 
L 50.215585 97.57712 
L 47.893765 95.978337 
L 45.59609 94.052406 
L 43.370865 91.781952 
L 41.274614 89.159487 
L 39.370861 86.19123 
L 37.727813 82.900877 
L 36.414846 79.332747 
L 35.49785 75.553543 
L 35.033783 71.651963 
L 35.065017 67.735539 
L 35.614329 63.924498 
L 36.681412 60.343053 
L 38.241675 57.109153 
L 40.247696 54.324259 
L 42.633187 52.064831 
L 45.318816 50.376925 
L 48.218916 49.274628 
L 51.248027 48.742236 
L 54.326408 48.739374 
L 57.38399 49.207838 
L 60.362651 50.078884 
L 63.21696 51.279912 
L 65.913733 52.73988 
L 68.430829 54.393156 
L 70.755513 56.181856 
L 72.882711 58.056895 
L 74.81332 59.978062 
L 76.552699 61.913453 
L 78.109387 63.838535 
L 80.718623 67.589895 
L 82.737995 71.142051 
L 84.26777 74.457876 
L 85.401128 77.53098 
L 86.219205 80.371289 
L 86.789412 82.996378 
L 87.294477 86.574991 
L 87.491914 89.782751 
L 87.463302 92.680061 
L 87.251613 95.317866 
L 86.870035 97.738255 
L 86.307476 99.975873 
L 85.530823 102.059134 
L 84.484243 104.010457 
L 83.597332 105.245786 
L 82.522828 106.430953 
L 81.221631 107.56402 
L 79.64633 108.637496 
L 77.740246 109.635223 
L 75.436911 110.527599 
L 72.660657 111.264401 
L 69.32952 111.764332 
L 67.430193 111.888094 
L 65.362546 111.900543 
L 63.119082 111.775665 
L 60.6949 111.482164 
L 58.088964 110.982895 
L 55.305702 110.234502 
L 52.356979 109.187435 
L 49.264423 107.786586 
L 46.062039 105.972886 
L 42.798908 103.68623 
L 39.541642 100.870133 
L 36.376042 97.478425 
L 33.407227 93.484028 
L 30.757343 88.889349 
L 28.560004 83.7371 
L 26.950953 78.119448 
L 26.055179 72.182672 
L 25.971833 66.124349 
L 26.759467 60.181042 
L 28.424903 54.606554 
L 30.918804 49.643785 
L 34.139677 45.495712 
L 37.945788 42.302028 
L 42.172303 40.126601 
L 46.649768 38.957751 
L 51.220191 38.719775 
L 55.748326 39.291543 
L 60.127423 40.527211 
L 64.280146 42.274921 
L 68.156086 44.391035 
L 71.727445 46.749143 
L 74.984132 49.244353 
L 77.929118 51.793972 
L 80.574463 54.335864 
L 82.938155 56.825568 
L 85.04172 59.232991 
L 88.562335 63.733599 
L 91.32506 67.772533 
L 93.507312 71.354024 
L 96.028237 75.943444 
L 99.220736 81.826124 
L 100.408987 83.647153 
L 101.649542 85.188778 
L 102.997285 86.454331 
L 104.500458 87.437272 
L 106.202246 88.120837 
L 108.14126 88.477659 
L 110.350628 88.469606 
L 112.855288 88.048295 
L 115.666998 87.157106 
L 118.776543 85.735923 
L 122.142905 83.730316 
L 123.897612 82.496553 
L 125.679885 81.107015 
L 127.469605 79.564619 
L 129.242271 77.876842 
L 130.968907 76.056701 
L 132.616226 74.123654 
L 134.147131 72.104289 
L 135.521643 70.032647 
L 136.698292 67.950015 
L 137.635978 65.90401 
L 138.296262 63.946869 
L 138.645921 62.132905 
L 138.659567 60.515257 
L 138.322023 59.14221 
L 137.630151 58.053482 
L 136.593816 57.276995 
L 135.235805 56.826626 
L 133.59063 56.701296 
L 131.702325 56.885583 
L 129.621524 57.351743 
L 127.402173 58.062815 
L 125.09829 58.976284 
L 120.43688 61.234417 
L 115.979089 63.80262 
L 111.956268 66.439743 
L 108.491291 69.002403 
L 105.621956 71.42696 
L 103.329868 73.700157 
L 101.565618 75.833011 
L 100.267176 77.843277 
L 99.371786 79.746112 
L 98.82286 81.550416 
L 98.573463 83.25834 
L 98.587659 84.86613 
L 98.840624 86.365229 
L 99.318131 87.743084 
L 100.015758 88.983469 
L 100.938028 90.066259 
L 102.097517 90.966698 
L 103.513885 91.654216 
L 105.212653 92.09089 
L 107.223422 92.229691 
L 109.577068 92.012821 
L 112.301241 91.370696 
L 115.413283 90.222606 
L 118.909547 88.480769 
L 120.791257 87.360127 
L 122.750271 86.060377 
L 124.772757 84.574541 
L 126.840015 82.898896 
L 128.927821 81.034261 
L 131.005881 78.987456 
L 133.037538 76.772843 
L 134.979829 74.413813 
L 136.78406 71.944011 
L 138.397027 69.40804 
L 139.762995 66.861315 
L 140.826464 64.3688 
L 141.535645 62.002366 
L 141.846407 59.836761 
L 141.72632 57.944352 
L 141.15825 56.389194 
L 140.142956 55.221167 
L 138.700176 54.471147 
L 136.867887 54.148073 
L 134.699753 54.238505 
L 132.261064 54.708782 
L 129.623777 55.509389 
L 126.861347 56.580701 
L 124.044052 57.859119 
L 118.48916 60.795183 
L 113.348212 63.907979 
L 108.845971 66.937596 
L 105.068109 69.76458 
L 102.005123 72.364793 
L 99.593589 74.762527 
L 97.746564 76.997264 
L 96.37287 79.105624 
L 95.387881 81.114324 
L 94.718687 83.039346 
L 94.305855 84.887825 
L 94.103309 86.660612 
L 94.077282 88.354533 
L 94.204946 89.964011 
L 94.473054 91.482004 
L 94.876766 92.900371 
L 95.418771 94.209761 
L 96.108698 95.39912 
L 96.962822 96.454875 
L 98.004015 97.359768 
L 99.261852 98.09134 
L 100.772758 98.619966 
L 102.579968 98.906401 
L 104.732971 98.898784 
L 107.285861 98.529218 
L 110.293691 97.710317 
L 113.805466 96.332761 
L 115.761115 95.394377 
L 117.851852 94.265995 
L 120.075379 92.92924 
L 122.425239 91.366061 
L 124.889641 89.559834 
L 127.450159 87.496879 
L 130.08034 85.168443 
L 132.744356 82.573168 
L 135.395846 79.719979 
L 137.977193 76.631249 
L 140.419546 73.345901 
L 142.643931 69.921966 
L 144.563809 66.437889 
L 146.089315 62.991813 
L 147.133238 59.698058 
L 147.618441 56.680327 
L 147.48598 54.06174 
L 146.702775 51.952642 
L 145.26742 50.437961 
L 143.212776 49.566555 
L 140.60449 49.344912 
L 137.535387 49.736839 
L 134.116638 50.669324 
L 130.467299 52.043284 
L 126.704079 53.74676 
L 122.932901 55.667843 
L 115.705181 59.774587 
L 109.269005 63.774871 
L 103.831388 67.384585 
L 99.403637 70.546028 
L 95.88821 73.319513 
L 93.141754 75.802149 
L 91.012435 78.08425 
L 89.358802 80.233245 
L 88.057504 82.292459 
L 86.544638 85.261711 
L 82.518868 94.260415 
L 81.53907 95.869409 
L 80.409174 97.401299 
L 79.089636 98.84649 
L 77.537926 100.190712 
L 75.707698 101.412207 
L 73.548771 102.477814 
L 71.008423 103.337642 
L 68.034847 103.918086 
L 66.371268 104.071964 
L 64.584095 104.113246 
L 62.671078 104.022118 
L 60.632392 103.775665 
L 58.471482 103.347767 
L 56.196051 102.709186 
L 53.819208 101.827945 
L 51.360727 100.670112 
L 48.848338 99.201138 
L 46.318943 97.387894 
L 43.819544 95.20152 
L 41.407639 92.621131 
L 39.150758 89.638301 
L 37.124815 86.262006 
L 35.410977 82.52347 
L 34.090929 78.480047 
L 33.240686 74.217084 
L 32.923474 69.846693 
L 33.18261 65.502672 
L 34.035577 61.331486 
L 35.470514 57.480129 
L 37.446007 54.082623 
L 39.89443 51.247449 
L 42.728313 49.048188 
L 45.848585 47.518947 
L 49.153223 46.655011 
L 52.544952 46.418037 
L 55.937077 46.744272 
L 59.257049 47.553972 
L 62.447891 48.760433 
L 65.467919 50.277501 
L 68.289308 52.025037 
L 70.896036 53.932295 
L 73.281635 55.939492 
L 75.447022 57.998013 
L 77.398567 60.069702 
L 79.146471 62.125632 
L 82.083749 66.112032 
L 84.374108 69.856431 
L 86.136254 73.321177 
L 87.480436 76.503705 
L 88.50307 79.418908 
L 89.607343 83.33954 
L 90.592025 87.845602 
L 92.038333 94.941387 
L 92.656776 97.067643 
L 93.418991 98.931759 
L 94.040623 100.028687 
L 94.780058 101.004027 
L 95.664576 101.849027 
L 96.726307 102.549825 
L 98.00331 103.085989 
L 99.540588 103.428474 
L 101.390864 103.536855 
L 103.614826 103.355718 
L 106.280211 102.810174 
L 109.458729 101.800805 
L 113.21911 100.199009 
L 115.335057 99.127202 
L 117.613727 97.845154 
L 120.055292 96.328996 
L 122.655262 94.554455 
L 125.402954 92.49812 
L 128.279723 90.139276 
L 131.257 87.462425 
L 134.294281 84.460573 
L 137.337256 81.139249 
L 140.316434 77.521103 
L 143.146705 73.650669 
L 145.728392 69.598553 
L 147.950391 65.46401 
L 149.695869 61.374572 
L 150.850695 57.481396 
L 151.314204 53.949408 
L 151.011164 50.942302 
L 149.903035 48.603922 
L 147.996167 47.039161 
L 145.344705 46.29855 
L 142.046921 46.370545 
L 138.235258 47.183862 
L 134.061958 48.61949 
L 129.683262 50.529348 
L 125.245207 52.75698 
L 120.873247 55.155831 
L 112.696788 60.001354 
L 102.564144 66.402441 
L 95.153069 71.3874 
L 91.500208 74.089205 
L 88.652155 76.464052 
L 86.420832 78.628326 
L 84.640216 80.660168 
L 82.514161 83.551563 
L 78.361527 89.727528 
L 77.059739 91.310955 
L 75.606355 92.782721 
L 73.955405 94.117456 
L 72.064239 95.282006 
L 69.893907 96.232313 
L 67.411289 96.909548 
L 66.045165 97.122295 
L 64.593605 97.235883 
L 63.05663 97.237003 
L 61.436072 97.110799 
L 59.736028 96.840924 
L 57.963384 96.409708 
L 56.128375 95.798483 
L 54.245186 94.988117 
L 52.332521 93.959807 
L 50.414107 92.696162 
L 48.51904 91.182627 
L 46.681863 89.409228 
L 44.942286 87.372595 
L 43.344395 85.078134 
L 41.935279 82.542158 
L 40.763008 79.79367 
L 39.874002 76.875448 
L 39.309929 73.844066 
L 39.104411 70.768518 
L 39.279899 67.727298 
L 39.845181 64.804021 
L 40.793914 62.081947 
L 42.104481 59.638058 
L 43.741272 57.537475 
L 45.657223 55.829002 
L 47.79728 54.542412 
L 50.102278 53.687736 
L 52.512743 53.256496 
L 54.972194 53.224482 
L 57.429652 53.55551 
L 59.84127 54.205536 
L 62.171116 55.126589 
L 64.39124 56.270155 
L 66.481215 57.589789 
L 68.427348 59.042924 
L 70.221703 60.591927 
L 71.86109 62.204542 
L 73.34608 63.853873 
L 74.680114 65.518058 
L 76.918872 68.825529 
L 78.635681 72.031646 
L 79.896936 75.085288 
L 80.767223 77.964012 
L 81.303694 80.662703 
L 81.553307 83.185909 
L 81.551827 85.542887 
L 81.323862 87.744452 
L 80.883412 89.800922 
L 80.234595 91.720676 
L 79.372397 93.508946 
L 78.283349 95.166565 
L 76.946186 96.68844 
L 75.332611 98.06147 
L 73.408432 99.261696 
L 71.135503 100.250406 
L 68.47516 100.969048 
L 66.988867 101.201858 
L 65.394135 101.333024 
L 63.689242 101.346808 
L 61.874307 101.225074 
L 59.951915 100.947211 
L 57.92785 100.490193 
L 55.811944 99.828825 
L 53.619003 98.936267 
L 51.369781 97.784927 
L 49.091917 96.34781 
L 46.820712 94.600426 
L 44.599608 92.523292 
L 42.480132 90.105009 
L 40.521113 87.34578 
L 38.786931 84.261062 
L 37.344657 80.884882 
L 36.260072 77.272156 
L 35.59276 73.499292 
L 35.390739 69.662407 
L 35.685306 65.872764 
L 36.486957 62.24954 
L 37.783152 58.910621 
L 39.538475 55.962691 
L 41.697294 53.492182 
L 44.188515 51.558572 
L 46.931674 50.191049 
L 49.843343 49.388841 
L 52.842961 49.124762 
L 55.857419 49.351009 
L 58.824067 50.005986 
L 61.692189 51.021061 
L 64.423155 52.326406 
L 66.989648 53.855482 
L 69.374297 55.548052 
L 71.568057 57.35183 
L 73.568553 59.223051 
L 75.378531 61.126264 
L 77.00451 63.033615 
L 77.00451 63.033615 
" clip-path="url(#p56419e8054)" style="fill: none; stroke: #ff7f0e; stroke-opacity: 0.5; stroke-width: 1.5; stroke-linecap: round"/>
   </g>
  </g>
 </g>
 <defs>
  <clipPath id="p56419e8054">
   <rect x="-1.8" y="-7.2" width="176.4" height="176.4"/>
  </clipPath>
 </defs>
</svg>
