<?xml version="1.0" encoding="utf-8" standalone="no"?>
<!DOCTYPE svg PUBLIC "-//W3C//DTD SVG 1.1//EN"
  "http://www.w3.org/Graphics/SVG/1.1/DTD/svg11.dtd">
<svg xmlns:xlink="http://www.w3.org/1999/xlink" width="216pt" height="180pt" viewBox="0 0 216 180" xmlns="http://www.w3.org/2000/svg" version="1.1">
 <metadata>
  <rdf:RDF xmlns:dc="http://purl.org/dc/elements/1.1/" xmlns:cc="http://creativecommons.org/ns#" xmlns:rdf="http://www.w3.org/1999/02/22-rdf-syntax-ns#">
   <cc:Work>
    <dc:type rdf:resource="http://purl.org/dc/dcmitype/StillImage"/>
    <dc:date>2023-06-14T18:49:57.767608</dc:date>
    <dc:format>image/svg+xml</dc:format>
    <dc:creator>
     <cc:Agent>
      <dc:title>Matplotlib v3.7.0, https://matplotlib.org/</dc:title>
     </cc:Agent>
    </dc:creator>
   </cc:Work>
  </rdf:RDF>
 </metadata>
 <defs>
  <style type="text/css">*{stroke-linejoin: round; stroke-linecap: butt}</style>
 </defs>
 <g id="figure_1">
  <g id="patch_1">
   <path d="M 0 180 
L 216 180 
L 216 0 
L 0 0 
z
" style="fill: #ffffff"/>
  </g>
  <g id="patch_2">
   <path d="M -1 169.2 
L 174.6 169.2 
L 174.6 -1 
" style="fill: none"/>
  </g>
  <g id="pane3d_1">
   <g id="patch_3">
    <path d="M 11.519416 125.705413 
L 69.772457 76.876559 
L 68.962684 6.456623 
L 7.921935 51.001381 
" style="fill: none; opacity: 0.5; stroke: #f2f2f2; stroke-linejoin: miter"/>
   </g>
  </g>
  <g id="pane3d_2">
   <g id="patch_4">
    <path d="M 69.772457 76.876559 
L 163.247803 104.046152 
L 166.583609 31.200681 
L 68.962684 6.456623 
" style="fill: none; opacity: 0.5; stroke: #e6e6e6; stroke-linejoin: miter"/>
   </g>
  </g>
  <g id="pane3d_3">
   <g id="patch_5">
    <path d="M 11.519416 125.705413 
L 110.607849 158.067695 
L 163.247803 104.046152 
L 69.772457 76.876559 
" style="fill: none; opacity: 0.5; stroke: #ececec; stroke-linejoin: miter"/>
   </g>
  </g>
  <g id="axis3d_1">
   <g id="line2d_1">
    <path d="M 11.519416 125.705413 
L 110.607849 158.067695 
" style="fill: none; stroke: #ffffff; stroke-width: 0.8; stroke-linecap: round"/>
   </g>
   <g id="text_1">
    <!-- x -->
    <g style="fill: #262626" transform="translate(40.437569 179.640981) scale(0.1 -0.1)">
     <defs>
      <path id="DejaVuSans-78" d="M 3513 3500 
L 2247 1797 
L 3578 0 
L 2900 0 
L 1881 1375 
L 863 0 
L 184 0 
L 1544 1831 
L 300 3500 
L 978 3500 
L 1906 2253 
L 2834 3500 
L 3513 3500 
z
" transform="scale(0.015625)"/>
     </defs>
     <use xlink:href="#DejaVuSans-78"/>
    </g>
   </g>
   <g id="Line3DCollection_1">
    <path d="M 34.979271 133.367402 
L 91.978039 83.330845 
L 92.115765 12.325254 
" style="fill: none; stroke: #d3d3d3; stroke-width: 0.8"/>
    <path d="M 60.17922 141.597705 
L 115.778963 90.248834 
L 116.958045 18.622048 
" style="fill: none; stroke: #d3d3d3; stroke-width: 0.8"/>
    <path d="M 86.07395 150.054924 
L 140.180479 97.341391 
L 142.454935 25.084766 
" style="fill: none; stroke: #d3d3d3; stroke-width: 0.8"/>
   </g>
   <g id="xtick_1">
    <g id="line2d_2">
     <path d="M 88.783784 78.616216 
" clip-path="url(#p6955587ced)" style="fill: none; stroke: #d3d3d3; stroke-width: 0.8; stroke-linecap: round"/>
    </g>
    <g id="line2d_3">
     <path d="M 35.475997 132.93135 
L 33.983668 134.241395 
" style="fill: none; stroke: #808080; stroke-width: 0.8; stroke-linecap: round"/>
    </g>
    <g id="text_2">
     <!-- −10 -->
     <g style="fill: #808080" transform="translate(16.910499 156.889195) scale(0.1 -0.1)">
      <defs>
       <path id="DejaVuSans-2212" d="M 678 2272 
L 4684 2272 
L 4684 1741 
L 678 1741 
L 678 2272 
z
" transform="scale(0.015625)"/>
       <path id="DejaVuSans-31" d="M 794 531 
L 1825 531 
L 1825 4091 
L 703 3866 
L 703 4441 
L 1819 4666 
L 2450 4666 
L 2450 531 
L 3481 531 
L 3481 0 
L 794 0 
L 794 531 
z
" transform="scale(0.015625)"/>
       <path id="DejaVuSans-30" d="M 2034 4250 
Q 1547 4250 1301 3770 
Q 1056 3291 1056 2328 
Q 1056 1369 1301 889 
Q 1547 409 2034 409 
Q 2525 409 2770 889 
Q 3016 1369 3016 2328 
Q 3016 3291 2770 3770 
Q 2525 4250 2034 4250 
z
M 2034 4750 
Q 2819 4750 3233 4129 
Q 3647 3509 3647 2328 
Q 3647 1150 3233 529 
Q 2819 -91 2034 -91 
Q 1250 -91 836 529 
Q 422 1150 422 2328 
Q 422 3509 836 4129 
Q 1250 4750 2034 4750 
z
" transform="scale(0.015625)"/>
      </defs>
      <use xlink:href="#DejaVuSans-2212"/>
      <use xlink:href="#DejaVuSans-31" x="83.789062"/>
      <use xlink:href="#DejaVuSans-30" x="147.412109"/>
     </g>
    </g>
   </g>
   <g id="xtick_2">
    <g id="line2d_4">
     <path d="M 88.783784 78.616216 
" clip-path="url(#p6955587ced)" style="fill: none; stroke: #d3d3d3; stroke-width: 0.8; stroke-linecap: round"/>
    </g>
    <g id="line2d_5">
     <path d="M 60.664293 141.149718 
L 59.206943 142.495646 
" style="fill: none; stroke: #808080; stroke-width: 0.8; stroke-linecap: round"/>
    </g>
    <g id="text_3">
     <!-- 0 -->
     <g style="fill: #808080" transform="translate(49.523638 165.384589) scale(0.1 -0.1)">
      <use xlink:href="#DejaVuSans-30"/>
     </g>
    </g>
   </g>
   <g id="xtick_3">
    <g id="line2d_6">
     <path d="M 88.783784 78.616216 
" clip-path="url(#p6955587ced)" style="fill: none; stroke: #d3d3d3; stroke-width: 0.8; stroke-linecap: round"/>
    </g>
    <g id="line2d_7">
     <path d="M 86.546536 149.594505 
L 85.126674 150.977811 
" style="fill: none; stroke: #808080; stroke-width: 0.8; stroke-linecap: round"/>
    </g>
    <g id="text_4">
     <!-- 10 -->
     <g style="fill: #808080" transform="translate(72.284431 174.115572) scale(0.1 -0.1)">
      <use xlink:href="#DejaVuSans-31"/>
      <use xlink:href="#DejaVuSans-30" x="63.623047"/>
     </g>
    </g>
   </g>
  </g>
  <g id="axis3d_2">
   <g id="line2d_8">
    <path d="M 163.247803 104.046152 
L 110.607849 158.067695 
" style="fill: none; stroke: #ffffff; stroke-width: 0.8; stroke-linecap: round"/>
   </g>
   <g id="text_5">
    <!-- y -->
    <g style="fill: #262626" transform="translate(162.133934 160.636398) scale(0.1 -0.1)">
     <defs>
      <path id="DejaVuSans-79" d="M 2059 -325 
Q 1816 -950 1584 -1140 
Q 1353 -1331 966 -1331 
L 506 -1331 
L 506 -850 
L 844 -850 
Q 1081 -850 1212 -737 
Q 1344 -625 1503 -206 
L 1606 56 
L 191 3500 
L 800 3500 
L 1894 763 
L 2988 3500 
L 3597 3500 
L 2059 -325 
z
" transform="scale(0.015625)"/>
     </defs>
     <use xlink:href="#DejaVuSans-79"/>
    </g>
   </g>
   <g id="Line3DCollection_2">
    <path d="M 15.377505 45.560646 
L 18.61081 119.761266 
L 117.040827 151.465877 
" style="fill: none; stroke: #d3d3d3; stroke-width: 0.8"/>
    <path d="M 28.084372 36.287754 
L 30.712144 109.617689 
L 128.002605 140.216396 
" style="fill: none; stroke: #d3d3d3; stroke-width: 0.8"/>
    <path d="M 40.343837 27.341354 
L 42.405531 99.816059 
L 138.575753 129.365745 
" style="fill: none; stroke: #d3d3d3; stroke-width: 0.8"/>
    <path d="M 52.179122 18.704502 
L 53.71126 90.339374 
L 148.780579 118.893083 
" style="fill: none; stroke: #d3d3d3; stroke-width: 0.8"/>
    <path d="M 63.611867 10.361406 
L 64.648292 81.171736 
L 158.635998 108.778999 
" style="fill: none; stroke: #d3d3d3; stroke-width: 0.8"/>
   </g>
   <g id="xtick_4">
    <g id="line2d_9">
     <path d="M 88.783784 78.616216 
" clip-path="url(#p6955587ced)" style="fill: none; stroke: #d3d3d3; stroke-width: 0.8; stroke-linecap: round"/>
    </g>
    <g id="line2d_10">
     <path d="M 116.211546 151.198763 
L 118.701523 152.000792 
" style="fill: none; stroke: #808080; stroke-width: 0.8; stroke-linecap: round"/>
    </g>
    <g id="text_6">
     <!-- −20 -->
     <g style="fill: #808080" transform="translate(119.316572 172.427656) scale(0.1 -0.1)">
      <defs>
       <path id="DejaVuSans-32" d="M 1228 531 
L 3431 531 
L 3431 0 
L 469 0 
L 469 531 
Q 828 903 1448 1529 
Q 2069 2156 2228 2338 
Q 2531 2678 2651 2914 
Q 2772 3150 2772 3378 
Q 2772 3750 2511 3984 
Q 2250 4219 1831 4219 
Q 1534 4219 1204 4116 
Q 875 4013 500 3803 
L 500 4441 
Q 881 4594 1212 4672 
Q 1544 4750 1819 4750 
Q 2544 4750 2975 4387 
Q 3406 4025 3406 3419 
Q 3406 3131 3298 2873 
Q 3191 2616 2906 2266 
Q 2828 2175 2409 1742 
Q 1991 1309 1228 531 
z
" transform="scale(0.015625)"/>
      </defs>
      <use xlink:href="#DejaVuSans-2212"/>
      <use xlink:href="#DejaVuSans-32" x="83.789062"/>
      <use xlink:href="#DejaVuSans-30" x="147.412109"/>
     </g>
    </g>
   </g>
   <g id="xtick_5">
    <g id="line2d_11">
     <path d="M 88.783784 78.616216 
" clip-path="url(#p6955587ced)" style="fill: none; stroke: #d3d3d3; stroke-width: 0.8; stroke-linecap: round"/>
    </g>
    <g id="line2d_12">
     <path d="M 127.183671 139.958834 
L 129.642543 140.732171 
" style="fill: none; stroke: #808080; stroke-width: 0.8; stroke-linecap: round"/>
    </g>
    <g id="text_7">
     <!-- −10 -->
     <g style="fill: #808080" transform="translate(130.056325 160.926866) scale(0.1 -0.1)">
      <use xlink:href="#DejaVuSans-2212"/>
      <use xlink:href="#DejaVuSans-31" x="83.789062"/>
      <use xlink:href="#DejaVuSans-30" x="147.412109"/>
     </g>
    </g>
   </g>
   <g id="xtick_6">
    <g id="line2d_13">
     <path d="M 88.783784 78.616216 
" clip-path="url(#p6955587ced)" style="fill: none; stroke: #d3d3d3; stroke-width: 0.8; stroke-linecap: round"/>
    </g>
    <g id="line2d_14">
     <path d="M 137.76696 129.117231 
L 140.195347 129.863388 
" style="fill: none; stroke: #808080; stroke-width: 0.8; stroke-linecap: round"/>
    </g>
    <g id="text_8">
     <!-- 0 -->
     <g style="fill: #808080" transform="translate(147.786083 149.834168) scale(0.1 -0.1)">
      <use xlink:href="#DejaVuSans-30"/>
     </g>
    </g>
   </g>
   <g id="xtick_7">
    <g id="line2d_15">
     <path d="M 88.783784 78.616216 
" clip-path="url(#p6955587ced)" style="fill: none; stroke: #d3d3d3; stroke-width: 0.8; stroke-linecap: round"/>
    </g>
    <g id="line2d_16">
     <path d="M 147.981723 118.65315 
L 150.380239 119.373535 
" style="fill: none; stroke: #808080; stroke-width: 0.8; stroke-linecap: round"/>
    </g>
    <g id="text_9">
     <!-- 10 -->
     <g style="fill: #808080" transform="translate(154.602338 139.128222) scale(0.1 -0.1)">
      <use xlink:href="#DejaVuSans-31"/>
      <use xlink:href="#DejaVuSans-30" x="63.623047"/>
     </g>
    </g>
   </g>
   <g id="xtick_8">
    <g id="line2d_17">
     <path d="M 88.783784 78.616216 
" clip-path="url(#p6955587ced)" style="fill: none; stroke: #d3d3d3; stroke-width: 0.8; stroke-linecap: round"/>
    </g>
    <g id="line2d_18">
     <path d="M 157.846879 108.547208 
L 160.216128 109.243134 
" style="fill: none; stroke: #808080; stroke-width: 0.8; stroke-linecap: round"/>
    </g>
    <g id="text_10">
     <!-- 20 -->
     <g style="fill: #808080" transform="translate(164.25725 128.789146) scale(0.1 -0.1)">
      <use xlink:href="#DejaVuSans-32"/>
      <use xlink:href="#DejaVuSans-30" x="63.623047"/>
     </g>
    </g>
   </g>
  </g>
  <g id="axis3d_3">
   <g id="line2d_19">
    <path d="M 163.247803 104.046152 
L 166.583609 31.200681 
" style="fill: none; stroke: #ffffff; stroke-width: 0.8; stroke-linecap: round"/>
   </g>
   <g id="text_11">
    <!-- z -->
    <g style="fill: #262626" transform="translate(202.494937 65.789607) scale(0.1 -0.1)">
     <defs>
      <path id="DejaVuSans-7a" d="M 353 3500 
L 3084 3500 
L 3084 2975 
L 922 459 
L 3084 459 
L 3084 0 
L 275 0 
L 275 525 
L 2438 3041 
L 353 3041 
L 353 3500 
z
" transform="scale(0.015625)"/>
     </defs>
     <use xlink:href="#DejaVuSans-7a"/>
    </g>
   </g>
   <g id="Line3DCollection_3">
    <path d="M 163.472347 99.142702 
L 69.717842 72.127038 
L 11.27764 120.68476 
" style="fill: none; stroke: #d3d3d3; stroke-width: 0.8"/>
    <path d="M 164.370623 79.526644 
L 69.499509 53.14027 
L 10.309872 100.58844 
" style="fill: none; stroke: #d3d3d3; stroke-width: 0.8"/>
    <path d="M 165.290769 59.432999 
L 69.276118 33.713612 
L 9.317631 79.983915 
" style="fill: none; stroke: #d3d3d3; stroke-width: 0.8"/>
    <path d="M 166.233594 38.844111 
L 69.047491 13.831599 
L 8.299977 58.851661 
" style="fill: none; stroke: #d3d3d3; stroke-width: 0.8"/>
   </g>
   <g id="xtick_9">
    <g id="line2d_20">
     <path d="M 88.783784 78.616216 
" style="fill: none; stroke: #d3d3d3; stroke-width: 0.8; stroke-linecap: round"/>
    </g>
    <g id="line2d_21">
     <path d="M 162.685377 98.915934 
L 165.048163 99.596779 
" style="fill: none; stroke: #808080; stroke-width: 0.8; stroke-linecap: round"/>
    </g>
    <g id="text_12">
     <!-- 10 -->
     <g style="fill: #808080" transform="translate(175.384381 104.154512) scale(0.1 -0.1)">
      <use xlink:href="#DejaVuSans-31"/>
      <use xlink:href="#DejaVuSans-30" x="63.623047"/>
     </g>
    </g>
   </g>
   <g id="xtick_10">
    <g id="line2d_22">
     <path d="M 88.783784 78.616216 
" style="fill: none; stroke: #d3d3d3; stroke-width: 0.8; stroke-linecap: round"/>
    </g>
    <g id="line2d_23">
     <path d="M 163.573831 79.305034 
L 165.96613 79.9704 
" style="fill: none; stroke: #808080; stroke-width: 0.8; stroke-linecap: round"/>
    </g>
    <g id="text_13">
     <!-- 20 -->
     <g style="fill: #808080" transform="translate(176.497319 84.597406) scale(0.1 -0.1)">
      <use xlink:href="#DejaVuSans-32"/>
      <use xlink:href="#DejaVuSans-30" x="63.623047"/>
     </g>
    </g>
   </g>
   <g id="xtick_11">
    <g id="line2d_24">
     <path d="M 88.783784 78.616216 
" style="fill: none; stroke: #d3d3d3; stroke-width: 0.8; stroke-linecap: round"/>
    </g>
    <g id="line2d_25">
     <path d="M 164.483908 59.216866 
L 166.906464 59.865794 
" style="fill: none; stroke: #808080; stroke-width: 0.8; stroke-linecap: round"/>
    </g>
    <g id="text_14">
     <!-- 30 -->
     <g style="fill: #808080" transform="translate(177.637228 64.566357) scale(0.1 -0.1)">
      <defs>
       <path id="DejaVuSans-33" d="M 2597 2516 
Q 3050 2419 3304 2112 
Q 3559 1806 3559 1356 
Q 3559 666 3084 287 
Q 2609 -91 1734 -91 
Q 1441 -91 1130 -33 
Q 819 25 488 141 
L 488 750 
Q 750 597 1062 519 
Q 1375 441 1716 441 
Q 2309 441 2620 675 
Q 2931 909 2931 1356 
Q 2931 1769 2642 2001 
Q 2353 2234 1838 2234 
L 1294 2234 
L 1294 2753 
L 1863 2753 
Q 2328 2753 2575 2939 
Q 2822 3125 2822 3475 
Q 2822 3834 2567 4026 
Q 2313 4219 1838 4219 
Q 1578 4219 1281 4162 
Q 984 4106 628 3988 
L 628 4550 
Q 988 4650 1302 4700 
Q 1616 4750 1894 4750 
Q 2613 4750 3031 4423 
Q 3450 4097 3450 3541 
Q 3450 3153 3228 2886 
Q 3006 2619 2597 2516 
z
" transform="scale(0.015625)"/>
      </defs>
      <use xlink:href="#DejaVuSans-33"/>
      <use xlink:href="#DejaVuSans-30" x="63.623047"/>
     </g>
    </g>
   </g>
   <g id="xtick_12">
    <g id="line2d_26">
     <path d="M 88.783784 78.616216 
" style="fill: none; stroke: #d3d3d3; stroke-width: 0.8; stroke-linecap: round"/>
    </g>
    <g id="line2d_27">
     <path d="M 165.416405 38.633793 
L 167.869994 39.265266 
" style="fill: none; stroke: #808080; stroke-width: 0.8; stroke-linecap: round"/>
    </g>
    <g id="text_15">
     <!-- 40 -->
     <g style="fill: #808080" transform="translate(178.8051 44.043926) scale(0.1 -0.1)">
      <defs>
       <path id="DejaVuSans-34" d="M 2419 4116 
L 825 1625 
L 2419 1625 
L 2419 4116 
z
M 2253 4666 
L 3047 4666 
L 3047 1625 
L 3713 1625 
L 3713 1100 
L 3047 1100 
L 3047 0 
L 2419 0 
L 2419 1100 
L 313 1100 
L 313 1709 
L 2253 4666 
z
" transform="scale(0.015625)"/>
      </defs>
      <use xlink:href="#DejaVuSans-34"/>
      <use xlink:href="#DejaVuSans-30" x="63.623047"/>
     </g>
    </g>
   </g>
  </g>
  <g id="axes_1">
   <g id="line2d_28">
    <path d="M 125.410022 106.894117 
L 129.098123 102.451426 
L 133.250696 97.05184 
L 137.803164 90.606611 
L 140.170087 86.993406 
L 142.540495 83.142314 
L 144.851612 79.089118 
L 147.021972 74.888895 
L 148.949902 70.619756 
L 150.51364 66.386177 
L 151.574789 62.320421 
L 151.98739 58.579471 
L 151.614566 55.33434 
L 150.35284 52.749667 
L 148.160438 50.955114 
L 145.081236 50.015721 
L 141.253339 49.913022 
L 136.894127 50.547496 
L 132.262846 51.763998 
L 127.613019 53.389741 
L 123.152039 55.268605 
L 119.020252 57.280244 
L 115.290879 59.342883 
L 111.983546 61.406029 
L 109.082231 63.440388 
L 106.55128 65.429372 
L 104.346959 67.363476 
L 102.424593 69.2371 
L 99.262969 72.791182 
L 96.787841 76.081113 
L 94.79352 79.111189 
L 92.392212 83.200182 
L 87.481936 91.903954 
L 85.713395 94.528271 
L 83.796294 96.881873 
L 82.382757 98.314993 
L 80.823084 99.643099 
L 79.083408 100.862819 
L 77.128276 101.962825 
L 74.921001 102.921108 
L 72.424796 103.701308 
L 69.604981 104.248097 
L 66.432679 104.481805 
L 64.708248 104.448352 
L 62.890463 104.293023 
L 60.980278 103.996834 
L 58.980569 103.538637 
L 56.896597 102.895259 
L 54.736566 102.041792 
L 52.512296 100.952088 
L 50.24003 99.599494 
L 47.941399 97.957919 
L 45.644534 96.003302 
L 43.385288 93.715594 
L 41.208455 91.081368 
L 39.168759 88.097134 
L 37.331257 84.773361 
L 35.770624 81.139006 
L 34.568685 77.246035 
L 33.809551 73.172973 
L 33.571999 69.026104 
L 33.91938 64.936709 
L 34.88834 61.053122 
L 36.478749 57.52751 
L 38.647879 54.499079 
L 41.311437 52.077172 
L 44.352334 50.32845 
L 47.635561 49.271354 
L 51.025431 48.878813 
L 54.400844 49.087574 
L 57.665372 49.811005 
L 60.751154 50.952082 
L 63.617538 52.414148 
L 66.246469 54.10839 
L 68.636672 55.958001 
L 70.798075 57.899682 
L 72.74723 59.883308 
L 74.503939 61.87056 
L 77.522712 65.750676 
L 80.011136 69.400155 
L 83.033757 74.322967 
L 88.336437 83.223264 
L 90.347203 86.05288 
L 91.709168 87.646575 
L 93.130433 89.014571 
L 94.645465 90.15816 
L 96.288346 91.072737 
L 98.093303 91.747274 
L 100.094763 92.163821 
L 102.326857 92.297079 
L 104.822241 92.114208 
L 107.610087 91.575028 
L 110.713123 90.632844 
L 114.143556 89.236101 
L 117.897607 87.33115 
L 121.947955 84.866691 
L 126.232481 81.801455 
L 128.429491 80.036684 
L 130.636721 78.118479 
L 132.82736 76.052829 
L 134.967579 73.851499 
L 137.01544 71.533854 
L 138.920066 69.12888 
L 140.621412 66.677136 
L 142.051077 64.232203 
L 143.134705 61.861003 
L 143.796482 59.642193 
L 143.965995 57.661907 
L 143.587188 56.006484 
L 142.628321 54.752628 
L 141.090922 53.956614 
L 139.015128 53.645143 
L 136.479061 53.810719 
L 133.591288 54.413415 
L 130.477569 55.388768 
L 127.265078 56.659367 
L 124.068092 58.146594 
L 120.978233 59.779556 
L 118.060453 61.499902 
L 115.354022 63.262876 
L 112.876696 65.035946 
L 110.630156 66.796367 
L 106.786537 70.222557 
L 103.691577 73.470821 
L 101.191498 76.513483 
L 99.14809 79.344418 
L 96.699494 83.207404 
L 94.17167 87.711499 
L 90.169027 94.977776 
L 88.692908 97.255813 
L 87.092748 99.35292 
L 85.281134 101.296892 
L 83.909318 102.515576 
L 82.370352 103.672364 
L 80.630517 104.760949 
L 78.653548 105.766955 
L 76.401258 106.664696 
L 73.834948 107.412878 
L 70.917886 107.949262 
L 67.619141 108.184635 
L 65.819865 108.152732 
L 63.919051 107.997009 
L 61.91722 107.696446 
L 59.816663 107.227685 
L 57.621847 106.565188 
L 55.339916 105.681515 
L 52.981331 104.547768 
L 50.560682 103.134252 
L 48.097735 101.411395 
L 45.618734 99.351043 
L 43.157956 96.928264 
L 40.759442 94.123841 
L 38.47869 90.927645 
L 36.383929 87.343049 
L 34.556364 83.392329 
L 33.088538 79.122672 
L 32.079846 74.611804 
L 31.628399 69.971554 
L 31.819066 65.347085 
L 32.708868 60.90959 
L 34.312521 56.841459 
L 36.592365 53.315325 
L 39.456907 50.471285 
L 42.770154 48.398302 
L 46.370266 47.124993 
L 50.092492 46.621853 
L 53.789991 46.813022 
L 57.347576 47.593149 
L 60.686711 48.844531 
L 63.763188 50.451103 
L 66.560502 52.307804 
L 69.081893 54.325434 
L 71.343047 56.432014 
L 73.366384 58.571878 
L 75.177058 60.703571 
L 78.260598 64.832658 
L 80.777603 68.679334 
L 83.810396 73.816937 
L 88.42549 81.884085 
L 90.451697 84.950953 
L 91.805623 86.679965 
L 93.206379 88.169643 
L 94.689382 89.424842 
L 96.289144 90.444242 
L 98.040009 91.219903 
L 99.976417 91.736813 
L 102.132619 91.972481 
L 104.541727 91.896688 
L 107.233955 91.471589 
L 110.23388 90.652393 
L 113.556578 89.388863 
L 117.202351 87.627952 
L 121.149519 85.318081 
L 125.343986 82.416303 
L 129.683406 78.901099 
L 131.856645 76.918 
L 133.993513 74.79559 
L 136.055867 72.550145 
L 137.997172 70.206562 
L 139.762043 67.800275 
L 141.286609 65.378863 
L 142.500203 63.00283 
L 143.328871 60.744839 
L 143.70108 58.686667 
L 143.5556 56.913364 
L 142.850847 55.504684 
L 141.574127 54.52486 
L 139.748473 54.012861 
L 137.434625 53.975854 
L 134.726602 54.388192 
L 131.741075 55.196598 
L 128.602871 56.330078 
L 125.430195 57.711501 
L 122.323072 59.26762 
L 119.356959 60.935555 
L 116.581626 62.665388 
L 114.02393 64.419806 
L 111.692621 66.17214 
L 107.684529 69.602701 
L 104.446964 72.871096 
L 101.831307 75.941656 
L 99.697575 78.803889 
L 97.152344 82.714878 
L 94.549288 87.278423 
L 90.036217 95.426712 
L 88.55283 97.664585 
L 86.933444 99.728919 
L 85.090248 101.645682 
L 83.689954 102.848155 
L 82.116027 103.989141 
L 80.334244 105.060957 
L 78.307895 106.047314 
L 75.998546 106.919873 
L 73.367628 107.633732 
L 70.379153 108.121915 
L 67.003827 108.289291 
L 65.165156 108.213839 
L 63.224836 108.006991 
L 61.18399 107.646815 
L 59.045647 107.109089 
L 56.815171 106.3675 
L 54.500808 105.393975 
L 52.114381 104.159203 
L 49.672182 102.633374 
L 47.196117 100.787212 
L 44.715103 98.59344 
L 42.266722 96.028792 
L 39.898974 93.076809 
L 37.671901 89.731578 
L 35.658589 86.00253 
L 33.944861 81.920164 
L 32.626732 77.542104 
L 31.80467 72.958265 
L 31.574012 68.293177 
L 32.011768 63.703107 
L 33.161552 59.366023 
L 35.020089 55.464158 
L 37.529747 52.161639 
L 40.580889 49.58236 
L 44.025032 47.794193 
L 47.695891 46.803857 
L 51.432427 46.56303 
L 55.097638 46.982644 
L 58.589185 47.950469 
L 61.84144 49.347503 
L 64.821177 51.060411 
L 67.520093 52.989207 
L 69.946875 55.050703 
L 72.120382 57.178888 
L 74.064553 59.323454 
L 77.366748 63.524784 
L 80.046351 67.474896 
L 83.242987 72.781319 
L 89.369324 83.346654 
L 91.388074 86.152553 
L 92.770099 87.717797 
L 94.223368 89.047462 
L 95.782582 90.142248 
L 97.482088 90.996371 
L 99.356299 91.597111 
L 101.439592 91.924379 
L 103.76558 91.950403 
L 106.365629 91.639702 
L 109.26644 90.949553 
L 112.486556 89.831209 
L 116.03157 88.232144 
L 119.887607 86.099736 
L 124.012093 83.387329 
L 128.31989 80.064856 
L 130.499287 78.174472 
L 132.662266 76.138176 
L 134.775492 73.96783 
L 136.797773 71.682718 
L 138.679292 69.311471 
L 140.361399 66.893912 
L 141.77742 64.48243 
L 142.854967 62.142256 
L 143.520246 59.949937 
L 143.704601 57.989276 
L 143.353071 56.344415 
L 142.433917 55.090476 
L 140.947247 54.283222 
L 138.930296 53.950199 
L 136.457104 54.086066 
L 133.631633 54.653941 
L 130.57533 55.59263 
L 127.412091 56.827554 
L 124.254355 58.282068 
L 121.193356 59.886302 
L 118.2948 61.582133 
L 115.5994 63.32453 
L 113.126628 65.080443 
L 110.87984 66.826563 
L 107.02688 70.230748 
L 103.9173 73.463383 
L 101.401907 76.494865 
L 99.344651 79.317834 
L 96.879729 83.17308 
L 94.339064 87.671807 
L 90.339099 94.935147 
L 88.873599 97.213356 
L 87.289886 99.31131 
L 85.501325 101.257289 
L 83.413642 103.066569 
L 81.803874 104.195467 
L 79.979616 105.252937 
L 77.903761 106.220747 
L 75.537698 107.067861 
L 72.843095 107.745727 
L 69.784845 108.182614 
L 66.335478 108.277519 
L 64.459094 108.155808 
L 62.481275 107.89485 
L 60.403808 107.47185 
L 58.230528 106.861781 
L 55.967796 106.037628 
L 53.625091 104.970791 
L 51.215773 103.63167 
L 48.758066 101.990514 
L 46.276292 100.018589 
L 43.802373 97.68983 
L 41.377542 94.983118 
L 39.054089 91.885403 
L 36.896821 88.395835 
L 34.983677 84.53094 
L 33.404703 80.330562 
L 32.258436 75.863782 
L 31.644781 71.233285 
L 31.653993 66.576043 
L 32.352492 62.057949 
L 33.767893 57.860948 
L 35.877207 54.163311 
L 38.602679 51.116653 
L 41.818224 48.825473 
L 45.366048 47.334977 
L 49.079215 46.63026 
L 52.803764 46.645954 
L 56.41476 47.28234 
L 59.823618 48.422929 
L 62.977444 49.949609 
L 65.853184 51.753331 
L 68.449717 53.740111 
L 70.780208 55.833195 
L 72.865899 57.97262 
L 74.731659 60.113322 
L 77.904812 64.277879 
L 80.487992 68.171146 
L 83.586995 73.382182 
L 88.943749 82.684321 
L 90.962306 85.60992 
L 92.329248 87.250474 
L 93.756307 88.65395 
L 95.278458 89.823001 
L 96.930091 90.753933 
L 98.745584 91.436259 
L 100.759371 91.852251 
L 103.005426 91.976578 
L 105.516037 91.776163 
L 108.319695 91.210471 
L 111.437962 90.232466 
L 114.881114 88.790492 
L 118.642244 86.831446 
L 122.689038 84.305927 
L 126.951637 81.177077 
L 129.127377 79.382028 
L 131.304111 77.436609 
L 133.45293 75.348923 
L 135.537701 73.133366 
L 137.514105 70.812458 
L 139.329033 68.418776 
L 140.920699 65.99668 
L 142.219949 63.603363 
L 143.153252 61.30855 
L 143.647837 59.192097 
L 143.639043 57.338888 
L 143.079398 55.83091 
L 141.94808 54.7373 
L 140.258594 54.104231 
L 138.062194 53.947313 
L 135.445146 54.249024 
L 132.519556 54.962371 
L 129.409551 56.019833 
L 126.236231 57.344828 
L 123.105032 58.862387 
L 120.09795 60.506623 
L 117.271153 62.224268 
L 114.656942 63.974946 
L 112.268195 65.729502 
L 108.152646 69.175449 
L 104.825088 72.46676 
L 102.13835 75.56312 
L 99.950139 78.451654 
L 97.347469 82.400358 
L 94.699521 87.008118 
L 90.161734 95.227426 
L 88.686205 97.48151 
L 87.081995 99.559382 
L 85.261814 101.487978 
L 83.881664 102.69809 
L 82.33211 103.847245 
L 80.579276 104.92867 
L 78.586745 105.927364 
L 76.316236 106.816776 
L 73.729073 107.554444 
L 70.788731 108.076584 
L 67.464763 108.292051 
L 65.652392 108.247374 
L 63.738344 108.076599 
L 61.723308 107.758406 
L 59.609783 107.26915 
L 57.402477 106.583034 
L 55.108831 105.672399 
L 52.73966 104.508195 
L 50.309999 103.060651 
L 47.840171 101.300235 
L 45.357125 99.19898 
L 42.896025 96.732345 
L 40.502002 93.881785 
L 38.231842 90.638232 
L 36.155212 87.006614 
L 34.354771 83.01138 
L 32.9243 78.702553 
L 31.963884 74.161295 
L 31.571336 69.503186 
L 31.82985 64.876918 
L 32.793149 60.456241 
L 34.471166 56.424317 
L 36.820585 52.952231 
L 39.744408 50.176199 
L 43.102424 48.179602 
L 46.730702 46.98486 
L 50.464755 46.556801 
L 54.159949 46.815274 
L 57.704426 47.652361 
L 61.023246 48.94942 
L 64.075421 50.590708 
L 66.846968 52.472287 
L 69.342886 54.506468 
L 71.579961 56.622865 
L 73.581208 58.767301 
L 75.372034 60.899613 
L 78.422586 65.022106 
L 80.914623 68.856424 
L 83.921817 73.971763 
L 88.514216 81.995643 
L 90.53865 85.043169 
L 91.894125 86.759866 
L 93.298435 88.237402 
L 94.786929 89.480342 
L 96.394098 90.487039 
L 98.15429 91.24919 
L 100.101948 91.751394 
L 102.271287 91.970743 
L 104.695309 91.876592 
L 107.403984 91.430687 
L 110.421465 90.587885 
L 113.762135 89.297713 
L 117.425249 87.507082 
L 121.387573 85.164696 
L 125.592711 82.228455 
L 129.934871 78.678705 
L 132.104998 76.679351 
L 134.234726 74.542235 
L 136.284988 72.284539 
L 138.208251 69.932284 
L 139.948127 67.522235 
L 141.439871 65.103438 
L 142.612249 62.737858 
L 143.391295 60.499386 
L 143.706272 58.470491 
L 143.497768 56.736045 
L 142.727122 55.374495 
L 141.385503 54.447581 
L 139.500297 53.990819 
L 137.136404 54.007523 
L 134.391038 54.468504 
L 131.382516 55.317913 
L 128.235543 56.483513 
L 125.066668 57.888208 
L 121.973255 59.459734 
L 119.027746 61.136662 
L 116.277066 62.870603 
L 113.745729 64.625593 
L 111.440755 66.376034 
L 107.481153 69.798357 
L 104.283666 73.055532 
L 101.699417 76.113825 
L 99.589636 78.963738 
L 97.069552 82.857245 
L 94.48607 87.400479 
L 89.983674 95.516406 
L 88.496832 97.74693 
L 86.870802 99.805141 
L 85.017549 101.71657 
L 83.60846 102.915611 
L 82.023897 104.052942 
L 80.22949 105.120472 
L 78.188406 106.10134 
L 75.862152 106.966411 
L 73.21222 107.66971 
L 70.202871 108.14285 
L 66.805339 108.288956 
L 64.955328 108.199911 
L 63.003707 107.977148 
L 60.951794 107.598473 
L 58.802853 107.03942 
L 56.562537 106.273458 
L 54.239453 105.27235 
L 51.845869 104.006686 
L 49.39864 102.446656 
L 46.920373 100.563126 
L 44.440863 98.329149 
L 41.998758 95.722061 
L 39.643323 92.726367 
L 37.436013 89.337598 
L 35.45138 85.567225 
L 33.776556 81.448458 
L 32.508406 77.042283 
L 31.747385 72.442416 
L 31.587511 67.777175 
L 32.102847 63.205879 
L 33.33241 58.907967 
L 35.26711 55.06483 
L 37.843224 51.837172 
L 40.945964 49.343292 
L 44.423725 47.644322 
L 48.109681 46.740383 
L 51.844649 46.577815 
L 55.495101 47.064092 
L 58.96281 48.085469 
L 62.186038 49.523033 
L 65.134723 51.264629 
L 67.802832 53.212026 
L 70.200489 55.283962 
L 72.347341 57.416261 
L 74.267652 59.560223 
L 77.530487 63.751207 
L 80.180617 67.684582 
L 83.347351 72.962519 
L 88.767422 82.404007 
L 90.787651 85.379522 
L 92.14943 87.051315 
L 93.566701 88.485242 
L 95.074581 89.684749 
L 96.707494 90.646991 
L 98.499803 91.362384 
L 100.485951 91.814164 
L 102.700025 91.977999 
L 105.174629 91.821813 
L 107.9389 91.306 
L 111.015515 90.38428 
L 114.41651 89.005453 
L 118.137606 87.116364 
L 122.150363 84.666737 
L 126.390671 81.617386 
L 128.562215 79.862032 
L 130.7412 77.955033 
L 132.900415 75.903131 
L 135.005701 73.718923 
L 137.014939 71.422638 
L 138.877322 69.044064 
L 140.533248 66.624368 
L 141.915261 64.217378 
L 142.950564 61.889703 
L 143.565569 59.718946 
L 143.692693 57.78934 
L 143.279085 56.184521 
L 142.29616 54.977966 
L 140.747983 54.222681 
L 138.676013 53.942684 
L 136.158078 54.128945 
L 133.300774 54.741427 
L 130.226575 55.716871 
L 127.058734 56.979935 
L 123.907716 58.454357 
L 120.862029 60.071402 
L 117.984496 61.774393 
L 115.313245 63.519719 
L 112.865691 65.275534 
L 110.643724 67.019458 
L 106.835874 70.415473 
L 103.763238 73.637417 
L 101.276686 76.657347 
L 99.241391 79.468769 
L 96.799495 83.307678 
L 94.27664 87.787459 
L 90.285957 95.023238 
L 88.817583 97.294143 
L 87.22786 99.386022 
L 85.429963 101.326759 
L 84.069432 102.544602 
L 82.54369 103.701895 
L 80.81921 104.792743 
L 78.85988 105.803374 
L 76.627597 106.70896 
L 74.083618 107.469383 
L 71.190951 108.02396 
L 67.918084 108.285435 
L 66.132 108.270259 
L 64.244309 108.134127 
L 62.255294 107.85633 
L 60.166946 107.413816 
L 57.983359 106.781323 
L 55.711207 105.931637 
L 53.360358 104.836014 
L 50.944662 103.46479 
L 48.482952 101.788262 
L 46.000318 99.777901 
L 43.529628 97.408065 
L 41.11326 94.658361 
L 38.804832 91.51687 
L 36.670604 87.984401 
L 34.789946 84.079767 
L 33.254088 79.845783 
L 32.162139 75.355094 
L 31.613546 70.714254 
L 31.696659 66.063843 
L 32.474304 61.572316 
L 33.968954 57.422284 
L 36.151561 53.790201 
L 38.938478 50.82335 
L 42.199117 48.620047 
L 45.773503 47.218645 
L 49.495119 46.597993 
L 53.212589 46.688043 
L 56.804817 47.386359 
L 60.18734 48.575597 
L 63.310932 50.138211 
L 66.155378 51.966611 
L 68.721503 53.968679 
L 71.023644 56.069584 
L 73.083633 58.211129 
L 74.926541 60.349756 
L 78.062234 64.5022 
L 80.617519 68.377972 
L 83.688374 73.560302 
L 89.019143 82.803092 
L 91.037299 85.707414 
L 92.406642 87.334623 
L 93.838076 88.72506 
L 95.366521 89.881038 
L 97.026356 90.798497 
L 98.851964 91.466558 
L 100.877774 91.86708 
L 103.137706 91.974302 
L 105.6639 91.75472 
L 108.484556 91.167405 
L 111.620734 90.165005 
L 115.081928 88.695687 
L 118.860061 86.706394 
L 122.9211 84.148144 
L 127.192626 80.985157 
L 129.369703 79.173155 
L 131.544885 77.211425 
L 133.688513 75.108686 
L 135.763587 72.880142 
L 137.724832 70.549336 
L 139.518151 68.150076 
L 141.08085 65.728116 
L 142.343101 63.342087 
L 143.231166 61.063005 
L 143.672772 58.971589 
L 143.604697 57.152841 
L 142.981978 55.687835 
L 141.787282 54.643633 
L 140.038242 54.063314 
L 137.790261 53.958823 
L 135.133037 54.309069 
L 132.180751 55.06426 
L 129.05792 56.155289 
L 125.884456 57.505271 
L 122.763472 59.039947 
L 119.774117 60.694729 
L 116.96975 62.417815 
L 114.380263 64.17018 
L 112.016702 65.923775 
L 107.948359 69.362941 
L 104.660376 72.644136 
L 102.0049 75.729112 
L 99.840646 78.606047 
L 97.263229 82.538129 
L 94.635037 87.126416 
L 90.108386 95.31447 
L 88.629598 97.561427 
L 87.018981 99.633357 
L 85.18903 101.556781 
L 83.80031 102.763576 
L 82.240374 103.909208 
L 80.475198 104.98652 
L 78.468238 105.979964 
L 76.181143 106.86223 
L 73.575278 107.58982 
L 70.61434 108.097593 
L 67.268364 108.292705 
L 65.444709 108.234994 
L 63.519373 108.048934 
L 61.493233 107.712939 
L 59.369008 107.203117 
L 57.151685 106.493447 
L 54.849042 105.556088 
L 52.47232 104.361871 
L 50.037082 102.881002 
L 47.564318 101.084045 
L 45.081807 98.943313 
L 42.625733 96.434789 
L 40.242443 93.540791 
L 37.990107 90.253563 
L 35.939858 86.579914 
L 34.17573 82.546833 
L 32.792506 78.207554 
L 31.890513 73.646964 
L 31.566615 68.984494 
L 31.901485 64.372158 
L 32.944638 59.985656 
L 34.700424 56.007944 
L 37.119387 52.607323 
L 40.099014 49.914878 
L 43.495372 48.007406 
L 47.14332 46.90056 
L 50.879678 46.553417 
L 54.562977 46.881856 
L 58.085412 47.775967 
L 61.376062 49.11684 
L 64.397326 50.789692 
L 67.137722 52.692243 
L 69.603891 54.738725 
L 71.81355 56.860636 
L 73.790143 59.005476 
L 75.559168 61.134484 
L 78.574175 65.243462 
L 81.03987 69.059764 
L 84.020618 74.146394 
L 88.590362 82.119152 
L 90.613308 85.144983 
L 91.970541 86.848171 
L 93.378613 88.312608 
L 94.8728 89.542524 
L 96.48757 90.535913 
L 98.257274 91.284093 
L 100.216357 91.771252 
L 102.399 91.974057 
L 104.838091 91.861433 
L 107.563362 91.394717 
L 110.598536 90.52842 
L 113.957312 89.21184 
L 117.637911 87.391853 
L 121.615578 85.017441 
L 125.83166 82.04733 
L 127.99758 80.331825 
L 130.176992 78.463691 
L 132.344314 76.448411 
L 134.467289 74.296901 
L 136.505946 72.027231 
L 138.411776 69.666525 
L 140.127416 67.252845 
L 141.587277 64.836667 
L 142.719599 62.481368 
L 143.450436 60.262005 
L 143.709878 58.261673 
L 143.44034 56.565007 
L 142.606056 55.249115 
L 141.201978 54.373249 
L 139.259711 53.969556 
L 136.848122 54.037632 
L 134.067418 54.544936 
L 131.037382 55.433238 
L 127.882492 56.6292 
L 124.717621 58.055843 
L 121.637545 59.641883 
L 118.711816 61.327298 
L 115.984667 63.065144 
L 113.478407 64.820726 
L 111.198442 66.569448 
L 107.284831 69.984141 
L 104.125353 73.230851 
L 101.570914 76.27766 
L 99.483889 79.116008 
L 96.987718 82.993068 
L 94.422822 87.51715 
L 90.409903 94.817437 
L 88.948057 97.105443 
L 87.372174 99.211541 
L 85.595858 101.164531 
L 83.525323 102.980469 
L 81.930027 104.114201 
L 80.1229 105.177454 
L 78.06699 106.152785 
L 75.723751 107.010254 
L 73.054743 107.702794 
L 70.024491 108.160596 
L 66.60477 108.285027 
L 64.743455 108.182145 
L 62.780591 107.943195 
L 60.717695 107.545723 
L 58.558271 106.965022 
L 56.308272 106.17435 
L 53.976672 105.145309 
L 51.5762 103.848403 
L 49.124287 102.253836 
L 46.644264 100.332635 
L 44.166823 98.05821 
L 41.731706 95.408538 
L 39.38946 92.369137 
L 37.202973 88.937048 
L 35.248252 85.125862 
L 33.613705 80.971581 
L 32.396968 76.538619 
L 31.698346 71.924527 
L 31.61036 67.261367 
L 32.203924 62.711373 
L 33.513273 58.455216 
L 35.523406 54.673143 
L 38.164545 51.52214 
L 41.31693 49.114706 
L 44.826116 47.505163 
L 48.52504 46.687121 
L 52.256615 46.60177 
L 55.890926 47.153351 
L 59.333878 48.226814 
L 62.527572 49.703494 
L 65.445013 51.472516 
L 68.082341 53.437446 
L 70.451036 55.518958 
L 72.571467 57.654697 
L 74.468182 59.797542 
L 77.69218 63.977525 
L 80.313287 67.893837 
L 83.45063 73.143114 
L 88.843092 82.524719 
L 90.862478 85.478789 
L 92.226394 87.137173 
L 93.647789 88.55804 
L 95.161716 89.744499 
L 96.802583 90.69334 
L 98.604759 91.394594 
L 100.602684 91.831084 
L 102.8304 91.978051 
L 105.320379 91.802988 
L 108.101488 91.26589 
L 111.195933 90.320149 
L 114.615009 88.914363 
L 118.353326 86.99539 
L 122.380808 84.513312 
L 126.630917 81.42991 
L 128.80444 79.657517 
L 130.982689 77.733989 
L 133.137736 75.666638 
L 135.234583 73.468818 
L 137.230173 71.161724 
L 139.072713 68.776323 
L 140.701657 66.355142 
L 142.048798 63.953452 
L 143.040984 61.639213 
L 143.604921 59.491033 
L 143.674203 57.593486 
L 143.198205 56.029585 
L 142.151602 54.871029 
L 140.54247 54.167966 
L 138.416481 53.940839 
L 135.855151 54.176953 
L 132.96755 54.833218 
L 129.876986 55.844453 
L 126.7059 57.134693 
L 123.562674 58.628164 
L 120.533045 60.257319 
L 117.676974 61.966936 
L 115.030052 63.714806 
L 112.607708 65.470256 
L 110.410427 67.211805 
L 106.647231 70.599462 
L 103.611039 73.810651 
L 101.152888 76.819027 
L 99.139197 79.618934 
L 96.719933 83.441584 
L 94.214544 87.902536 
L 90.232744 95.110962 
L 88.76138 97.374622 
L 87.165526 99.460472 
L 85.358164 101.395991 
L 83.989287 102.610521 
L 82.453407 103.764338 
L 80.716847 104.851176 
L 78.743364 105.856742 
L 76.494775 106.755478 
L 73.932361 107.506274 
L 71.019322 108.047129 
L 67.724592 108.289132 
L 65.927248 108.261463 
L 64.028255 108.110654 
L 62.028068 107.815733 
L 59.928891 107.353393 
L 57.73508 106.698139 
L 55.45363 105.822565 
L 53.094809 104.697789 
L 50.672967 103.294095 
L 48.207564 101.581841 
L 45.724475 99.532725 
L 43.257538 97.121558 
L 40.850296 94.328712 
L 38.557714 91.143452 
L 36.447508 87.568309 
L 34.600472 83.624462 
L 33.108964 79.357768 
L 32.072577 74.844489 
L 31.590157 70.195052 
L 31.747965 65.553572 
L 32.605049 61.090895 
L 34.178594 56.990043 
L 36.433455 53.425361 
L 39.280185 50.539548 
L 42.583916 48.424601 
L 46.182782 47.112024 
L 49.91096 46.574559 
L 53.619845 46.737683 
L 57.19226 47.496466 
L 60.547843 48.73289 
L 63.640957 50.330104 
L 66.454126 52.182041 
L 68.990024 54.198472 
L 71.264086 56.30648 
L 73.298685 58.449607 
L 75.119057 60.585774 
L 78.217869 64.725659 
L 80.745732 68.583765 
L 83.788957 73.737379 
L 89.094424 82.921043 
L 91.112367 85.804156 
L 92.484223 87.418046 
L 93.92014 88.795452 
L 95.454985 89.938344 
L 97.123128 90.842295 
L 98.958958 91.496036 
L 100.996895 91.881008 
L 103.270804 91.971021 
L 105.812669 91.732146 
L 108.650389 91.123062 
L 111.804509 90.096106 
L 115.283722 88.599279 
L 119.078757 86.579586 
L 123.153821 83.98849 
L 127.43388 80.79134 
L 129.612007 78.962432 
L 131.785273 76.984498 
L 133.923254 74.866891 
L 135.988074 72.625649 
L 137.933492 70.28536 
L 139.704427 67.881086 
L 141.237292 65.459986 
L 142.461631 63.082125 
L 143.303558 60.819775 
L 143.691395 58.754454 
L 143.563477 56.971179 
L 142.877461 55.549982 
L 141.619603 54.555726 
L 139.811698 54.028307 
L 137.513254 53.975976 
L 134.81728 54.374131 
L 131.839851 55.1703 
L 128.705689 56.293936 
L 125.533361 57.66798 
L 122.42357 59.218973 
L 119.452598 60.883661 
L 116.671023 62.611707 
L 114.106391 64.365417 
L 111.76798 66.117811 
L 107.746492 69.549928 
L 104.497614 72.820896 
L 101.872961 75.894455 
L 99.732297 78.7598 
L 97.179726 82.675311 
L 94.570933 87.244221 
L 90.054974 95.401223 
L 88.57281 97.641103 
L 86.955666 99.707128 
L 85.115813 101.625399 
L 83.718427 102.828873 
L 82.148005 103.970962 
L 80.370374 105.044113 
L 78.348866 106.032223 
L 76.045065 106.90721 
L 73.420385 107.624523 
L 70.438756 108.117644 
L 67.070717 108.292013 
L 65.235767 108.221031 
L 63.299156 108.019417 
L 61.261944 107.665326 
L 59.12708 107.134618 
L 56.899834 106.401048 
L 54.588333 105.436604 
L 52.204251 104.212007 
L 49.763695 102.697446 
L 47.288337 100.863605 
L 44.806806 98.683097 
L 42.356329 96.132462 
L 39.984487 93.194926 
L 37.750854 89.8641 
L 35.728026 86.148748 
L 34.001387 82.078472 
L 32.666658 77.709786 
L 31.824299 73.13134 
L 31.570061 68.466395 
L 31.981913 63.870177 
L 33.104984 59.520134 
L 34.937928 55.598737 
L 37.425158 52.271217 
L 40.458789 49.663315 
L 43.891425 47.845157 
L 47.557007 46.825686 
L 51.293911 46.558403 
L 54.963981 46.955433 
L 58.463501 47.905086 
L 61.725524 49.288347 
L 64.715743 50.991495 
L 67.425079 52.913959 
L 69.861722 54.971897 
L 72.04426 57.098677 
L 73.996515 59.243445 
L 77.312044 63.448289 
L 80.001627 67.404083 
L 83.208382 72.720168 
L 89.344642 83.308244 
L 91.363214 86.121157 
L 92.744252 87.690825 
L 94.195885 89.024838 
L 95.752825 90.124013 
L 97.449423 90.98269 
L 99.320089 91.588282 
L 101.399204 91.920838 
L 103.720408 91.952734 
L 106.315126 91.648625 
L 109.210173 90.965915 
L 112.424282 89.855953 
L 115.963337 88.266253 
L 119.813896 86.144151 
L 123.934022 83.442803 
L 128.239526 80.131698 
L 130.418971 78.246855 
L 132.58309 76.215781 
L 134.698819 74.0501 
L 136.725274 71.768788 
L 138.612961 69.400098 
L 140.303553 66.983411 
L 141.730641 64.570637 
L 142.821986 62.226549 
L 143.503743 60.027327 
L 143.706928 58.056613 
L 143.375906 56.398691 
L 142.477915 55.129197 
L 141.011769 54.304783 
L 139.013295 53.954152 
L 136.555261 54.073192 
L 133.740714 54.626089 
L 130.690716 55.552366 
L 127.529339 56.777729 
L 124.369648 58.225434 
L 121.303767 59.825246 
L 118.398361 61.518568 
L 115.695013 63.259893 
L 113.213891 65.015767 
L 110.958852 66.762564 
L 107.090844 70.169396 
L 103.968905 73.405548 
L 101.443848 76.440849 
L 99.379228 79.267644 
L 96.90658 83.128313 
L 94.359929 87.63334 
L 90.356802 94.905855 
L 88.892235 97.186496 
L 87.310498 99.286473 
L 85.525017 101.234196 
L 83.44164 103.045136 
L 81.835504 104.175245 
L 80.015543 105.234167 
L 77.944687 106.20387 
L 75.584343 107.053594 
L 72.896149 107.735161 
L 69.844905 108.177322 
L 66.402948 108.279669 
L 64.530326 108.162702 
L 62.556238 107.907286 
L 60.482401 107.490713 
L 58.312568 106.888032 
L 56.052996 106.072299 
L 53.713037 105.014961 
L 51.305891 103.686444 
L 48.84958 102.056981 
L 46.368178 100.097777 
L 43.893295 97.78263 
L 41.465787 95.09019 
L 39.137508 92.00704 
L 36.972783 88.531795 
L 35.049069 84.680232 
L 33.456012 80.491227 
L 32.291936 76.032683 
L 31.65687 71.406001 
L 31.641664 66.746936 
L 32.313892 62.220495 
L 33.702847 58.008344 
L 35.787546 54.289296 
L 38.492215 51.216352 
L 41.692315 48.896036 
L 45.23084 47.375833 
L 48.940774 46.642945 
L 52.667343 46.63361 
L 56.28435 47.249058 
L 59.701836 48.373129 
L 62.86567 49.88755 
L 65.751829 51.682803 
L 68.358524 53.664288 
L 70.698513 55.754609 
L 72.792829 57.893208 
L 74.666267 60.034515 
L 77.85202 64.203005 
L 80.444591 68.102059 
L 83.553081 73.32265 
L 88.918637 82.644599 
L 90.937369 85.577297 
L 92.303536 87.222299 
L 93.729163 88.630117 
L 95.249243 89.803517 
L 96.89817 90.738927 
L 98.710319 91.425988 
L 100.720127 91.847112 
L 102.961586 91.97711 
L 105.46703 91.783046 
L 108.265046 91.22452 
L 111.377358 90.254598 
L 114.8145 88.821688 
L 118.569949 86.872675 
L 122.611955 84.358024 
L 126.871497 81.240529 
L 129.046729 79.451131 
L 131.223899 77.511163 
L 133.374347 75.428527 
L 135.462223 73.217354 
L 137.443526 70.899831 
L 139.265474 68.508128 
L 140.866591 66.086144 
L 142.177951 63.690595 
L 143.12611 61.390767 
L 143.638149 59.266216 
L 143.648953 57.401764 
L 143.110244 55.879676 
L 142.000058 54.769748 
L 140.330537 54.119164 
L 138.151545 53.944746 
L 135.548181 54.230172 
L 132.63182 54.929404 
L 129.526417 55.975481 
L 126.353435 57.291953 
L 123.219061 58.803634 
L 120.20623 60.444215 
L 117.372056 62.159939 
L 114.749648 63.909977 
L 112.352514 65.664798 
L 108.221179 69.112941 
L 104.880347 72.407591 
L 102.183106 75.507733 
L 99.986839 78.400128 
L 97.375672 82.354375 
L 94.721069 86.968637 
L 90.179477 95.198392 
L 88.705007 97.454859 
L 87.102904 99.534717 
L 85.285946 101.465038 
L 83.908627 102.676254 
L 82.362505 103.826576 
L 80.613754 104.90936 
L 78.625999 105.909783 
L 76.360984 106.801546 
L 73.78002 107.542524 
L 70.846512 108.069384 
L 67.529856 108.29154 
L 65.721239 108.251149 
L 63.810949 108.085404 
L 61.799617 107.77307 
L 59.689665 107.290589 
L 57.485715 106.612236 
L 55.195093 105.710417 
L 52.828476 104.55612 
L 50.400727 103.119588 
L 47.93195 101.371257 
L 45.448822 99.283073 
L 42.986174 96.83033 
L 40.588734 93.994203 
L 38.312834 90.7652 
L 36.227651 87.147639 
L 34.415381 83.165139 
L 32.969461 78.866671 
L 31.989869 74.332167 
L 31.574702 69.675921 
L 31.80795 65.045497 
L 32.744696 60.613951 
L 34.396705 56.564455 
L 36.722706 53.068957 
L 39.627564 50.26533 
L 42.972364 48.239125 
L 46.593639 47.015024 
L 50.326529 46.559807 
L 54.025377 46.794692 
L 57.576989 47.61247 
L 60.905077 48.894627 
L 63.967505 50.525126 
L 66.749436 52.399485 
L 69.255304 54.42938 
L 71.501568 56.543795 
L 73.511092 58.687988 
L 75.309243 60.821322 
L 78.371751 64.948226 
L 80.872658 68.788509 
L 83.888766 73.913406 
L 88.488836 81.954346 
L 90.513809 85.009111 
L 91.868725 86.730311 
L 93.271806 88.21221 
L 94.758429 89.459484 
L 96.363092 90.470604 
L 98.120142 91.237395 
L 100.06402 91.744591 
L 102.228954 91.969425 
L 104.64798 91.881396 
L 107.351149 91.442388 
L 110.362751 90.607371 
L 113.697394 89.325951 
L 117.354673 87.545056 
L 121.311853 85.2133 
L 125.513277 82.288318 
L 129.854258 78.749864 
L 132.025233 76.755839 
L 134.157101 74.623561 
L 136.211095 72.369922 
L 138.140005 70.020582 
L 139.88777 67.611875 
L 141.389929 65.192377 
L 142.575436 62.823579 
L 143.370332 60.578975 
L 143.70363 58.540807 
L 143.515334 56.794003 
L 142.765846 55.417427 
L 141.445092 54.473618 
L 139.579061 53.9992 
L 137.231314 53.998722 
L 134.498038 54.444127 
L 131.497022 55.280391 
L 128.353005 56.435671 
L 128.353005 56.435671 
" clip-path="url(#p6955587ced)" style="fill: none; stroke: #1f77b4; stroke-width: 1.5; stroke-linecap: round"/>
   </g>
   <g id="line2d_29">
    <path d="M 125.410022 106.894117 
L 127.359868 103.721918 
L 132.074573 96.997198 
L 137.5264 89.505346 
L 140.367831 85.418237 
L 143.177347 81.111479 
L 145.856438 76.621991 
L 148.293919 72.016478 
L 150.369153 67.393544 
L 151.958007 62.882543 
L 152.941612 58.63784 
L 153.217446 54.827603 
L 152.711436 51.617358 
L 151.389051 49.150094 
L 149.262948 47.526369 
L 146.394948 46.788812 
L 142.891233 46.915093 
L 138.891247 47.821531 
L 134.552463 49.376616 
L 130.034124 51.421004 
L 125.483044 53.789108 
L 121.023581 56.327718 
L 112.738195 61.435361 
L 105.628324 66.09196 
L 97.34625 71.821962 
L 93.240898 74.906971 
L 90.04288 77.579279 
L 87.551814 79.976821 
L 85.586875 82.199503 
L 83.993688 84.309738 
L 82.027301 87.33117 
L 79.099521 92.030608 
L 77.843937 93.770591 
L 76.455558 95.407622 
L 74.885644 96.919699 
L 73.088619 98.278055 
L 71.021651 99.444297 
L 68.645754 100.366597 
L 65.928964 100.975127 
L 64.436072 101.133795 
L 62.852347 101.177276 
L 61.179048 101.089808 
L 59.419704 100.853897 
L 57.580661 100.450447 
L 55.671694 99.859046 
L 53.706657 99.058477 
L 51.704133 98.027489 
L 49.688023 96.745906 
L 47.687992 95.196101 
L 45.739666 93.364852 
L 43.884447 91.245548 
L 42.168812 88.840627 
L 40.642971 86.164042 
L 39.358816 83.243449 
L 38.367151 80.121722 
L 37.714359 76.857353 
L 37.438747 73.523338 
L 37.567005 70.20432 
L 38.11126 66.991993 
L 39.067203 63.979122 
L 40.413681 61.252873 
L 42.113878 58.888323 
L 44.117983 56.943119 
L 46.366948 55.454005 
L 48.796804 54.435634 
L 51.34294 53.881643 
L 53.94385 53.767572 
L 56.544002 54.055005 
L 59.095706 54.696203 
L 61.56001 55.638597 
L 63.906779 56.828678 
L 66.114174 58.215029 
L 68.16775 59.750434 
L 70.059356 61.393122 
L 71.785992 63.107299 
L 73.34871 64.863151 
L 74.751625 66.636478 
L 77.10483 70.1633 
L 78.910693 73.582878 
L 80.242195 76.839367 
L 81.169772 79.908583 
L 81.755533 82.785395 
L 82.050522 85.475282 
L 82.093845 87.988949 
L 81.912853 90.338964 
L 81.523822 92.537637 
L 80.932798 94.595587 
L 80.136404 96.520625 
L 79.122521 98.316647 
L 77.870863 99.982305 
L 76.353532 101.509193 
L 74.535772 102.879288 
L 72.377268 104.061365 
L 69.834564 105.006097 
L 68.405727 105.367557 
L 66.865486 105.639696 
L 65.210025 105.808219 
L 63.436827 105.856332 
L 61.545211 105.764529 
L 59.536998 105.510462 
L 57.417299 105.068928 
L 55.195438 104.412062 
L 52.885978 103.509818 
L 50.509825 102.330839 
L 48.095311 100.843851 
L 45.679156 99.019678 
L 43.307113 96.83396 
L 41.034085 94.270585 
L 38.923433 91.325699 
L 37.045231 88.012009 
L 35.473243 84.362821 
L 34.280582 80.435103 
L 33.534231 76.310671 
L 33.288917 72.094659 
L 33.581121 67.910739 
L 34.424218 63.893078 
L 35.8057 60.175799 
L 37.687172 56.88138 
L 40.007275 54.109893 
L 42.687125 51.930881 
L 45.637315 50.379197 
L 48.765321 49.455183 
L 51.982199 49.128721 
L 55.207781 49.345962 
L 58.374026 50.037304 
L 61.426538 51.125247 
L 64.324589 52.531166 
L 67.040075 54.180454 
L 69.555852 56.005908 
L 71.863815 57.949548 
L 73.962985 59.963171 
L 75.85776 62.008016 
L 77.556407 64.05389 
L 79.069821 66.078013 
L 81.591927 69.999623 
L 83.53133 73.693928 
L 84.993871 77.131923 
L 86.075267 80.312725 
L 86.857371 83.249846 
L 87.612481 87.2427 
L 88.011939 90.805094 
L 88.168008 94.005125 
L 88.110446 97.807754 
L 87.81294 101.180696 
L 87.27888 104.210933 
L 86.692929 106.301161 
L 85.901651 108.262887 
L 84.84109 110.117058 
L 83.941356 111.301296 
L 82.848203 112.446866 
L 81.519378 113.552577 
L 79.903531 114.61178 
L 77.938948 115.60902 
L 75.552675 116.514811 
L 72.660724 117.277645 
L 69.170671 117.812131 
L 67.171804 117.953762 
L 64.988928 117.982146 
L 62.612746 117.868684 
L 60.036599 117.578612 
L 57.257872 117.070225 
L 54.279802 116.294302 
L 51.113735 115.193923 
L 47.781855 113.704984 
L 44.320287 111.757803 
L 40.782397 109.280316 
L 37.24188 106.203387 
L 33.794995 102.468694 
L 30.561031 98.03933 
L 27.67987 92.912655 
L 25.305522 87.133953 
L 23.594915 80.808265 
L 22.692172 74.106693 
L 22.710077 67.263229 
L 23.712038 60.559327 
L 25.698818 54.296373 
L 28.604046 48.760114 
L 32.300486 44.184575 
L 36.616046 40.724007 
L 41.355691 38.439339 
L 46.324039 37.301084 
L 51.344013 37.205915 
L 56.268893 38.001004 
L 60.987367 39.509698 
L 65.422897 41.553581 
L 69.529459 43.96832 
L 73.2856 46.612895 
L 76.688312 49.373202 
L 79.74756 52.161644 
L 82.481839 54.914309 
L 84.914793 57.587045 
L 88.983129 62.590395 
L 92.168997 67.066135 
L 94.677231 71.008418 
L 97.556742 76.005148 
L 101.147581 82.273352 
L 102.461646 84.163988 
L 103.820495 85.73238 
L 105.282994 86.983488 
L 106.898755 87.911379 
L 108.70958 88.499372 
L 110.749619 88.720371 
L 113.043946 88.537727 
L 115.605234 87.907224 
L 118.428206 86.781109 
L 121.48176 85.115328 
L 124.699103 82.881312 
L 127.96733 80.083164 
L 129.57055 78.488094 
L 131.119476 76.779534 
L 132.584713 74.977078 
L 133.934168 73.106216 
L 135.133924 71.198412 
L 136.149446 69.290735 
L 136.947136 67.424953 
L 137.496146 65.646017 
L 137.770346 63.999973 
L 137.750284 62.531394 
L 137.424917 61.280546 
L 136.7929 60.280603 
L 135.863234 59.555236 
L 134.655146 59.116932 
L 133.197168 58.966291 
L 131.525493 59.092404 
L 129.681796 59.474265 
L 127.710763 60.082993 
L 125.657619 60.88453 
L 121.475557 62.920554 
L 117.43429 65.305518 
L 113.747246 67.818525 
L 110.539037 70.314297 
L 107.860589 72.715084 
L 105.711077 74.990154 
L 104.058758 77.134871 
L 102.857264 79.155012 
L 102.056836 81.057256 
L 101.611313 82.844533 
L 101.482017 84.514385 
L 101.639545 86.058839 
L 102.064277 87.464776 
L 102.746093 88.714223 
L 103.683642 89.784318 
L 104.883291 90.646872 
L 106.35774 91.26757 
L 108.124153 91.604973 
L 110.201528 91.609565 
L 112.606844 91.223312 
L 115.349433 90.380487 
L 118.422943 89.010933 
L 121.794372 87.047451 
L 123.570852 85.825971 
L 125.390266 84.439347 
L 127.23459 82.887348 
L 129.081433 81.173913 
L 130.903777 79.308215 
L 132.669922 77.305718 
L 134.343734 75.18912 
L 135.885276 72.989039 
L 137.251906 70.74425 
L 138.399878 68.501291 
L 139.28645 66.313271 
L 139.872407 64.237768 
L 140.124835 62.333837 
L 140.019873 60.658284 
L 139.545126 59.261558 
L 138.701389 58.183746 
L 137.50337 57.451241 
L 135.979253 57.074607 
L 134.169062 57.048021 
L 132.122028 57.350384 
L 129.893266 57.947939 
L 127.540223 58.797919 
L 125.11928 59.852686 
L 122.682908 61.063725 
L 117.942292 63.775668 
L 113.599477 66.634041 
L 109.815506 69.446572 
L 106.651876 72.118183 
L 104.101494 74.620377 
L 102.117607 76.96007 
L 100.635672 79.156918 
L 99.58781 81.230306 
L 98.911333 83.193595 
L 98.55317 85.052725 
L 98.471677 86.806841 
L 98.636949 88.44953 
L 99.030332 89.969892 
L 99.64361 91.353139 
L 100.478094 92.580609 
L 101.543726 93.62923 
L 102.858181 94.470473 
L 104.445844 95.068861 
L 106.336421 95.380158 
L 108.562784 95.349422 
L 111.157485 94.909341 
L 114.147114 93.979616 
L 117.543485 92.468778 
L 119.390732 91.465263 
L 121.330551 90.28071 
L 123.353618 88.904731 
L 125.446352 87.329068 
L 127.590157 85.548727 
L 129.760689 83.563356 
L 131.92724 81.378825 
L 134.052354 79.008918 
L 136.091791 76.477019 
L 137.995019 73.817562 
L 139.706383 71.076967 
L 141.167067 68.313721 
L 142.317921 65.597248 
L 143.103091 63.00531 
L 143.474223 60.619806 
L 143.394849 58.521154 
L 142.844406 56.781742 
L 141.821253 55.459302 
L 140.344107 54.591237 
L 138.451515 54.190934 
L 136.199307 54.2468 
L 133.656334 54.724258 
L 130.89912 55.570332 
L 128.006212 56.719944 
L 125.053001 58.102797 
L 122.107602 59.649749 
L 116.461095 62.993724 
L 111.394106 66.370603 
L 107.064972 69.569594 
L 103.504996 72.515619 
L 100.667199 75.214237 
L 98.465741 77.705287 
L 96.802313 80.034093 
L 95.581575 82.237863 
L 94.718994 84.341755 
L 94.143994 86.359797 
L 93.800412 88.29757 
L 93.645605 90.155003 
L 93.703289 92.78234 
L 94.058559 95.201602 
L 94.693469 97.388569 
L 95.279564 98.703122 
L 96.010551 99.890378 
L 96.906041 100.936452 
L 97.99208 101.823289 
L 99.301457 102.526996 
L 100.874028 103.015688 
L 102.756846 103.246762 
L 105.003716 103.163549 
L 107.673589 102.691423 
L 110.826788 101.733804 
L 114.517583 100.169154 
L 116.576779 99.114357 
L 118.780921 97.8514 
L 121.12779 96.359534 
L 123.610652 94.618283 
L 126.216948 92.608682 
L 128.926835 90.315007 
L 131.71163 87.727037 
L 134.532272 84.842897 
L 137.33801 81.672418 
L 140.065573 78.240817 
L 142.639185 74.592345 
L 144.971831 70.793284 
L 146.968179 66.933497 
L 148.529462 63.125546 
L 149.560357 59.500477 
L 149.977498 56.199679 
L 149.71875 53.36299 
L 148.751837 51.114203 
L 147.08066 49.546242 
L 144.747733 48.708941 
L 141.83178 48.602326 
L 138.44061 49.177192 
L 134.700453 50.343027 
L 130.743783 51.981433 
L 126.697822 53.961972 
L 122.675492 56.157133 
L 115.051151 60.760943 
L 108.351735 65.159363 
L 102.755795 69.070091 
L 98.240772 72.457729 
L 94.679795 75.407232 
L 91.907506 78.035 
L 89.756745 80.444031 
L 88.075741 82.709116 
L 86.734213 84.877346 
L 85.126643 87.999896 
L 81.931352 94.758465 
L 80.349213 97.394787 
L 79.110959 99.044827 
L 77.675934 100.593694 
L 75.999597 102.022356 
L 74.035079 103.303077 
L 71.73359 104.395149 
L 69.046448 105.239265 
L 67.544136 105.543012 
L 65.929689 105.75048 
L 64.199738 105.845728 
L 62.352561 105.810218 
L 60.388694 105.622648 
L 58.311652 105.258872 
L 56.128797 104.692004 
L 53.852317 103.892763 
L 51.500301 102.830165 
L 49.097834 101.472693 
L 46.678024 99.790032 
L 44.282796 97.755499 
L 41.963248 95.349175 
L 39.779326 92.561701 
L 37.798533 89.3985 
L 36.093451 85.88399 
L 34.737935 82.065136 
L 33.802072 78.013507 
L 33.346246 73.824942 
L 33.414999 69.616143 
L 34.031594 65.517931 
L 35.19429 61.665612 
L 36.87515 58.187626 
L 39.021782 55.194227 
L 41.561819 52.76811 
L 44.409404 50.958525 
L 47.472558 49.779691 
L 50.660266 49.213364 
L 53.888354 49.214614 
L 57.083602 49.719451 
L 60.185987 50.652855 
L 63.149277 51.936071 
L 65.940371 53.492443 
L 68.537844 55.251517 
L 70.930099 57.151462 
L 73.113433 59.140103 
L 75.090205 61.174914 
L 76.867232 63.222327 
L 78.454435 65.256671 
L 81.108279 69.215656 
L 83.157354 72.959081 
L 84.708562 76.449685 
L 85.860007 79.682076 
L 86.696428 82.66755 
L 87.287907 85.425082 
L 87.83477 89.181265 
L 88.09084 92.544436 
L 88.124671 96.525093 
L 87.89844 100.040455 
L 87.437007 103.185425 
L 86.91691 105.346847 
L 86.209462 107.36895 
L 85.259365 109.274432 
L 84.453317 110.489075 
L 83.474406 111.66345 
L 82.285062 112.798458 
L 80.839409 113.890844 
L 79.081947 114.930629 
L 76.946412 115.897052 
L 74.355273 116.752294 
L 71.22078 117.432006 
L 67.449228 117.831486 
L 65.296004 117.877795 
L 62.951337 117.786582 
L 60.408212 117.5241 
L 57.663433 117.049805 
L 54.719363 116.315752 
L 51.586109 115.266346 
L 48.284161 113.838749 
L 44.847439 111.964307 
L 41.326546 109.57148 
L 37.791897 106.590804 
L 34.336086 102.962345 
L 31.074652 98.645861 
L 28.144118 93.633284 
L 25.696187 87.962279 
L 23.887297 81.728416 
L 22.863594 75.092419 
L 22.742793 68.278559 
L 23.595975 61.561172 
L 25.433491 55.238942 
L 28.199059 49.600413 
L 31.77439 44.887768 
L 35.993816 41.267369 
L 40.665446 38.813942 
L 45.593784 37.511082 
L 50.599045 37.265938 
L 55.530183 37.932589 
L 60.270927 39.337652 
L 64.739913 41.302929 
L 68.886895 43.662151 
L 72.687012 46.271129 
L 76.134673 49.012109 
L 79.237997 51.793901 
L 82.014232 54.549372 
L 84.486232 57.231668 
L 86.679894 59.810098 
L 90.340794 64.590802 
L 93.209984 68.836608 
L 95.482192 72.564034 
L 101.585172 83.174163 
L 102.904497 84.935596 
L 104.294318 86.379502 
L 105.809427 87.506301 
L 107.49623 88.305584 
L 109.39372 88.756261 
L 111.533047 88.827007 
L 113.935385 88.477419 
L 116.607757 87.660616 
L 119.536535 86.328303 
L 122.67861 84.439603 
L 125.950903 81.974932 
L 127.596425 80.530988 
L 129.22019 78.955401 
L 130.7967 77.261 
L 132.297065 75.466039 
L 133.689475 73.594676 
L 134.93999 71.677158 
L 136.013685 69.749576 
L 136.876133 67.853099 
L 137.495189 66.032594 
L 137.842973 64.334648 
L 137.897881 62.805056 
L 137.646428 61.48598 
L 137.084699 60.413066 
L 136.219185 59.612854 
L 135.066865 59.100851 
L 133.654465 58.880555 
L 132.016948 58.943569 
L 130.195408 59.270802 
L 128.234596 59.83457 
L 126.180381 60.601265 
L 124.077389 61.534233 
L 119.886135 63.752946 
L 115.931682 66.227316 
L 112.393825 68.763014 
L 109.366689 71.242008 
L 106.878145 73.607475 
L 104.91237 75.841591 
L 103.429404 77.945933 
L 102.379607 79.92807 
L 101.713197 81.794088 
L 101.385927 83.545311 
L 101.362051 85.17744 
L 101.61553 86.680751 
L 102.13017 88.04051 
L 102.899138 89.237189 
L 103.924106 90.246285 
L 105.214097 91.03774 
L 106.783987 91.57502 
L 108.65245 91.814058 
L 110.839013 91.702352 
L 113.359721 91.17876 
L 116.220806 90.174879 
L 119.40971 88.619338 
L 122.883057 86.446884 
L 124.700818 85.114359 
L 126.551911 83.614371 
L 128.415545 81.948986 
L 130.266307 80.125142 
L 132.074007 78.155743 
L 133.803791 76.060689 
L 135.416612 73.86771 
L 136.870145 71.612819 
L 138.120211 69.340199 
L 139.122727 67.101333 
L 139.836129 64.953235 
L 140.22413 62.955737 
L 140.258582 61.167945 
L 139.922121 59.644132 
L 139.210241 58.42953 
L 138.132467 57.556583 
L 136.712366 57.04223 
L 134.986336 56.886698 
L 133.001256 57.074003 
L 130.811307 57.574093 
L 128.474372 58.34627 
L 126.048458 59.343316 
L 123.588544 60.51571 
L 118.757626 63.198579 
L 114.28839 66.072823 
L 110.364122 68.924028 
L 107.061915 71.641144 
L 104.383658 74.186891 
L 102.286462 76.564938 
L 100.706266 78.795003 
L 99.573708 80.898027 
L 98.823636 82.889336 
L 98.400135 84.776698 
L 98.258687 86.560799 
L 98.366652 88.236509 
L 98.702851 89.794078 
L 99.256764 91.219875 
L 100.027611 92.496549 
L 101.023464 93.602619 
L 102.260381 94.511541 
L 103.761485 95.190305 
L 105.555776 95.597666 
L 107.676327 95.682142 
L 110.157359 95.380113 
L 113.029428 94.614634 
L 116.311769 93.296132 
L 118.106931 92.399047 
L 120.000617 91.326953 
L 121.98603 90.068236 
L 124.052575 88.612753 
L 126.18508 86.952835 
L 128.363017 85.084528 
L 130.559769 83.00908 
L 132.742054 80.734607 
L 134.869607 78.277868 
L 136.895292 75.665952 
L 138.765791 72.937662 
L 140.42304 70.144249 
L 141.806525 67.349162 
L 142.856457 64.626439 
L 143.517736 62.057504 
L 143.744394 59.726333 
L 143.504073 57.713259 
L 142.7819 56.088074 
L 141.583122 54.903376 
L 139.933941 54.189278 
L 137.880246 53.950491 
L 135.48432 54.166389 
L 132.819964 54.794082 
L 129.966767 55.773913 
L 127.004369 57.036337 
L 124.007454 58.508973 
L 121.041996 60.122775 
L 115.413346 63.54003 
L 110.417093 66.931525 
L 106.184927 70.113355 
L 102.72844 73.030645 
L 99.988275 75.700644 
L 97.871975 78.168213 
L 96.278472 80.479706 
L 95.111968 82.671504 
L 94.288679 84.767419 
L 93.73928 86.780274 
L 93.408945 88.714844 
L 93.236715 91.46809 
L 93.374642 94.030768 
L 93.778068 96.383681 
L 94.440476 98.504112 
L 95.037491 99.775126 
L 95.775625 100.920078 
L 96.676 101.925462 
L 97.766028 102.773475 
L 99.079835 103.440308 
L 100.658714 103.893949 
L 102.551364 104.091371 
L 104.813577 103.975052 
L 107.506728 103.468873 
L 110.694084 102.473822 
L 114.433336 100.864596 
L 116.523271 99.783187 
L 118.763083 98.489606 
L 121.150935 96.962096 
L 123.680364 95.179057 
L 126.338908 93.120325 
L 129.106565 90.76896 
L 131.954129 88.11362 
L 134.841548 85.151563 
L 137.716488 81.892203 
L 140.5134 78.361063 
L 143.153478 74.603696 
L 145.545934 70.688966 
L 147.591056 66.710778 
L 149.185373 62.787222 
L 150.228981 59.056093 
L 150.634651 55.666173 
L 150.33776 52.764401 
L 149.305511 50.480257 
L 147.54362 48.909819 
L 145.098735 48.10277 
L 142.055617 48.055496 
L 138.529216 48.712192 
L 134.653035 49.973903 
L 130.566037 51.71336 
L 126.400479 53.792134 
L 122.272548 56.07654 
L 114.48365 60.818229 
L 107.677362 65.296726 
L 102.018222 69.241249 
L 97.467955 72.63323 
L 93.886651 75.571669 
L 91.099477 78.182048 
L 88.932797 80.5722 
L 87.23048 82.818921 
L 85.859235 84.969688 
L 84.186593 88.066598 
L 81.241151 93.844994 
L 79.570057 96.490135 
L 78.272664 98.139377 
L 76.776697 99.678898 
L 75.037153 101.086261 
L 73.007953 102.329634 
L 70.642699 103.36344 
L 67.897279 104.122792 
L 66.370102 104.372367 
L 64.735277 104.516842 
L 62.991004 104.539654 
L 61.137445 104.42181 
L 59.177344 104.141818 
L 57.116764 103.675746 
L 54.965932 102.997493 
L 52.74016 102.079333 
L 50.460806 100.892843 
L 48.156188 99.410304 
L 45.862342 97.606656 
L 43.623443 95.462068 
L 41.491714 92.965079 
L 39.526572 90.116172 
L 37.792817 86.931476 
L 36.357718 83.446102 
L 35.286984 79.716467 
L 34.639851 75.820864 
L 34.463715 71.857624 
L 34.789038 67.940479 
L 35.625326 64.191241 
L 36.958984 60.730505 
L 38.753547 57.667632 
L 40.952398 55.09159 
L 43.483564 53.06414 
L 46.265816 51.616377 
L 49.215083 50.748958 
L 52.250283 50.435577 
L 55.29789 50.628725 
L 58.294955 51.266539 
L 61.19056 52.279621 
L 63.945975 53.596979 
L 66.533864 55.150639 
L 68.936911 56.878765 
L 71.146177 58.727424 
L 73.159427 60.651246 
L 74.979571 62.61327 
L 76.613291 64.584278 
L 78.069893 66.541851 
L 80.496687 70.35474 
L 82.356132 73.969711 
L 83.744714 77.35291 
L 84.750389 80.498708 
L 85.448496 83.416621 
L 85.900546 86.123415 
L 86.154629 88.638579 
L 86.240049 92.094908 
L 86.035546 95.225793 
L 85.574625 98.084124 
L 84.854892 100.713245 
L 84.215785 102.355691 
L 83.42963 103.918825 
L 82.472603 105.407502 
L 81.314146 106.82325 
L 79.916333 108.16291 
L 78.233209 109.416457 
L 76.210345 110.563627 
L 73.785023 111.568833 
L 70.88783 112.373758 
L 69.239728 112.674187 
L 67.446945 112.886961 
L 65.501611 112.993226 
L 63.397252 112.970193 
L 61.129574 112.790611 
L 58.69748 112.422314 
L 56.104344 111.827908 
L 53.359572 110.964748 
L 50.480441 109.785376 
L 47.494169 108.238657 
L 44.440089 106.271899 
L 41.371692 103.834248 
L 38.358181 100.881625 
L 35.485029 97.383302 
L 32.852884 93.329925 
L 30.574189 88.742287 
L 28.766981 83.679589 
L 27.545786 78.245245 
L 27.010188 72.588005 
L 27.232526 66.896378 
L 28.246933 61.385449 
L 30.042202 56.276998 
L 32.560493 51.775989 
L 35.702637 48.047967 
L 39.339117 45.20213 
L 43.324396 43.283414 
L 47.511627 42.274482 
L 51.765116 42.105999 
L 55.968909 42.671905 
L 60.031117 43.846022 
L 63.884548 45.496981 
L 67.48473 47.4997 
L 70.806466 49.742833 
L 73.839895 52.132535 
L 76.586683 54.593358 
L 79.056702 57.067213 
L 81.265327 59.511242 
L 83.231338 61.895246 
L 86.518733 66.410384 
L 89.087978 70.532639 
L 91.099859 74.250426 
L 93.379246 79.116774 
L 97.583792 88.665596 
L 98.607474 90.400194 
L 99.728391 91.894581 
L 100.991354 93.145152 
L 102.439504 94.139232 
L 104.115661 94.854028 
L 106.062803 95.255307 
L 108.323385 95.295923 
L 110.936998 94.914541 
L 113.935638 94.03531 
L 117.335611 92.569819 
L 119.183934 91.587617 
L 121.12504 90.423582 
L 123.150145 89.067273 
L 125.246233 87.510253 
L 127.395287 85.747218 
L 129.573556 83.777362 
L 131.750918 81.605956 
L 133.89046 79.246055 
L 135.948405 76.72021 
L 137.874551 74.061972 
L 139.613366 71.316905 
L 141.105897 68.542768 
L 142.292533 65.808517 
L 143.116598 63.19183 
L 143.528553 60.775017 
L 143.490427 58.639465 
L 142.979939 56.859086 
L 141.993658 55.493585 
L 140.548613 54.582606 
L 138.681953 54.141784 
L 136.448537 54.161528 
L 133.916762 54.608779 
L 131.163229 55.431453 
L 128.26703 56.564701 
L 125.304463 57.937865 
L 122.344762 59.480986 
L 116.659603 62.830413 
L 111.547741 66.22261 
L 107.173904 69.43957 
L 103.573061 72.402091 
L 100.699754 75.114198 
L 98.468289 77.61576 
L 96.779758 79.95282 
L 95.537885 82.163454 
L 94.657105 84.273579 
L 94.065826 86.297809 
L 93.706947 88.242141 
L 93.536962 90.106808 
L 93.570388 92.746776 
L 93.897387 95.181526 
L 94.497502 97.387895 
L 95.055441 98.718319 
L 95.75326 99.92456 
L 96.609559 100.993638 
L 97.64926 101.908706 
L 98.903931 102.647467 
L 100.412155 103.180128 
L 102.219765 103.466799 
L 104.379621 103.454254 
L 106.950374 103.072094 
L 109.993353 102.228622 
L 113.566165 100.807345 
L 115.56551 99.836532 
L 117.71098 98.66615 
L 120.002215 97.275366 
L 122.434858 95.643132 
L 124.999331 93.749248 
L 127.679413 91.575857 
L 130.450695 89.109478 
L 133.278981 86.343613 
L 136.118808 83.281926 
L 138.912317 79.941879 
L 141.588794 76.358532 
L 144.065286 72.588019 
L 146.248714 68.709964 
L 148.039869 64.827903 
L 149.339462 61.066713 
L 150.056101 57.566236 
L 150.115532 54.470859 
L 149.469955 51.915732 
L 148.105791 50.011423 
L 146.048172 48.829806 
L 143.36082 48.394286 
L 140.14089 48.676855 
L 136.509502 49.602908 
L 132.59972 51.062772 
L 128.544248 52.927237 
L 124.464902 55.063638 
L 120.465237 57.349485 
L 113.008251 61.98141 
L 106.564893 66.286012 
L 101.245776 70.062896 
L 96.98812 73.324449 
L 93.646311 76.174322 
L 91.049391 78.73052 
L 89.031436 81.090371 
L 87.444885 83.321404 
L 86.164508 85.464398 
L 84.596536 88.555906 
L 81.809419 94.330972 
L 80.215292 96.981286 
L 78.973399 98.639889 
L 77.537665 100.196163 
L 75.86352 101.630644 
L 73.904443 102.915253 
L 71.612353 104.00909 
L 68.939646 104.85293 
L 67.446872 105.155918 
L 65.843782 105.36237 
L 64.127226 105.456533 
L 62.29571 105.420133 
L 60.349987 105.232215 
L 58.293772 104.869089 
L 56.13458 104.304445 
L 53.884677 103.509707 
L 51.562115 102.454738 
L 49.191788 101.108991 
L 46.806404 99.443225 
L 44.447226 97.431869 
L 42.164389 95.056071 
L 40.016543 92.307361 
L 38.069568 89.191702 
L 36.394151 85.733522 
L 35.062097 81.979079 
L 34.141455 77.998381 
L 33.690819 73.884815 
L 33.753436 69.751832 
L 34.351991 65.726468 
L 35.485029 61.940111 
L 37.125787 58.517627 
L 39.223818 55.566508 
L 41.709242 53.167831 
L 44.498919 51.370535 
L 47.503509 50.18976 
L 50.634308 49.609166 
L 53.808948 49.586364 
L 56.955454 50.060156 
L 60.014502 50.958242 
L 62.940093 52.204276 
L 65.698995 53.723563 
L 68.269404 55.447119 
L 70.639186 57.314116 
L 72.804025 59.272981 
L 74.765647 61.281462 
L 76.530251 63.306035 
L 78.107182 65.320904 
L 80.744877 69.250088 
L 82.780785 72.973983 
L 84.319033 76.453059 
L 85.45558 79.68002 
L 86.273468 82.664708 
L 86.841358 85.425057 
L 87.340543 89.190759 
L 87.530239 92.568699 
L 87.492279 95.621627 
L 87.26929 98.40272 
L 86.873719 100.956138 
L 86.293398 103.318461 
L 85.493764 105.519929 
L 84.811354 106.91042 
L 83.982843 108.245703 
L 82.978739 109.529162 
L 81.76262 110.76119 
L 80.290059 111.937564 
L 78.507541 113.046842 
L 76.351632 114.066293 
L 73.748887 114.95571 
L 70.617444 115.648216 
L 68.826677 115.889299 
L 66.871937 116.037139 
L 64.743803 116.069286 
L 62.434542 115.95838 
L 59.939114 115.671452 
L 57.256478 115.169315 
L 54.391259 114.406155 
L 51.355795 113.32952 
L 48.172563 111.880967 
L 44.876899 109.997708 
L 41.519817 107.615671 
L 38.170563 104.674404 
L 34.918354 101.124144 
L 31.872498 96.93513 
L 29.159987 92.108662 
L 26.919645 86.688662 
L 25.292317 80.771502 
L 24.407323 74.511078 
L 24.36663 68.115952 
L 25.229418 61.83634 
L 27.00052 55.941038 
L 29.626008 50.687482 
L 32.997687 46.290879 
L 36.965894 42.899382 
L 41.357698 40.580797 
L 45.996354 39.322959 
L 50.718073 39.046026 
L 55.383624 39.622245 
L 59.884053 40.897895 
L 64.141347 42.713047 
L 68.105569 44.91655 
L 71.750157 47.375492 
L 75.066679 49.979655 
L 78.059936 52.642201 
L 80.743806 55.297902 
L 83.137977 57.900088 
L 85.265501 60.417164 
L 88.819598 65.125096 
L 91.60325 69.352799 
L 93.799729 73.10394 
L 96.337736 77.91369 
L 99.565248 84.080945 
L 100.773391 85.988867 
L 102.038372 87.602241 
L 103.415686 88.92401 
L 104.954146 89.946809 
L 106.697481 90.652568 
L 108.684798 91.012109 
L 110.949614 90.984979 
L 113.517039 90.520001 
L 116.398614 89.557417 
L 119.584292 88.033919 
L 123.031297 85.892356 
L 124.827129 84.577485 
L 126.650405 83.098078 
L 128.480375 81.457296 
L 130.291797 79.663122 
L 132.054845 77.729392 
L 133.735278 75.676749 
L 135.294968 73.533372 
L 136.692854 71.335319 
L 137.886381 69.126315 
L 138.833422 66.956796 
L 139.494633 64.882103 
L 139.836092 62.959803 
L 139.831993 61.246264 
L 139.467093 59.79275 
L 138.738579 58.641489 
L 137.657059 57.822238 
L 136.246453 57.349867 
L 134.542731 57.223374 
L 132.591619 57.426499 
L 130.445557 57.929851 
L 128.160284 58.694179 
L 125.791482 59.674269 
L 123.391833 60.822882 
L 118.682828 63.446717 
L 114.327348 66.25889 
L 110.501903 69.054189 
L 107.281759 71.724912 
L 104.670155 74.233252 
L 102.627136 76.580553 
L 101.092088 78.783813 
L 99.999016 80.861555 
L 99.285794 82.827186 
L 98.899124 84.686997 
L 98.796729 86.440475 
L 98.947889 88.081402 
L 99.333101 89.598887 
L 99.943326 90.977977 
L 100.779101 92.19971 
L 101.849619 93.240607 
L 103.171786 94.071671 
L 104.769116 94.656947 
L 106.670234 94.951776 
L 108.906585 94.900966 
L 111.508766 94.437315 
L 114.500689 93.481276 
L 117.890576 91.94322 
L 119.729887 90.926762 
L 121.65777 89.73051 
L 123.664189 88.344877 
L 125.734833 86.762576 
L 127.850387 84.979762 
L 129.98586 82.997398 
L 132.110035 80.822782 
L 134.185166 78.471181 
L 136.16705 75.967393 
L 138.005621 73.347053 
L 139.646219 70.657368 
L 141.031627 67.956991 
L 142.104927 65.314687 
L 142.813087 62.806575 
L 143.111026 60.511869 
L 142.96578 58.507346 
L 142.360208 56.861054 
L 141.295654 55.626101 
L 139.793051 54.835498 
L 137.892129 54.499009 
L 135.648738 54.602618 
L 133.130628 55.11078 
L 130.412273 55.971009 
L 127.569518 57.119968 
L 124.674739 58.489981 
L 121.793028 60.014969 
L 116.279044 63.299752 
L 111.338351 66.613293 
L 107.120402 69.756562 
L 103.653849 72.65847 
L 100.8929 75.323749 
L 98.754758 77.789374 
L 97.144772 80.097505 
L 95.971227 82.282663 
L 95.152918 84.367991 
L 94.622236 86.366071 
L 94.325679 88.281414 
L 94.22304 90.113062 
L 94.28604 91.856647 
L 94.496857 93.505742 
L 94.846795 95.05254 
L 95.335217 96.487984 
L 95.968802 97.801452 
L 96.761098 98.980066 
L 97.732368 100.007659 
L 98.90963 100.863377 
L 100.326815 101.519849 
L 102.024851 101.940884 
L 104.051406 102.078598 
L 106.459827 101.87003 
L 109.306539 101.233461 
L 112.645752 100.065155 
L 114.514124 99.242774 
L 116.519786 98.238123 
L 118.663506 97.032317 
L 120.942797 95.606018 
L 123.350884 93.940249 
L 125.875501 92.017555 
L 128.497551 89.823603 
L 131.189692 87.349274 
L 133.914945 84.593248 
L 136.625519 81.565062 
L 139.262075 78.288434 
L 141.753761 74.804541 
L 144.019365 71.174724 
L 145.969951 67.481891 
L 147.513238 63.8298 
L 148.559764 60.339385 
L 149.030535 57.141638 
L 148.865407 54.367122 
L 148.030997 52.133083 
L 146.526679 50.530049 
L 144.387246 49.610457 
L 141.68133 49.381864 
L 138.505555 49.806458 
L 134.975318 50.807165 
L 131.213903 52.278973 
L 127.341838 54.102922 
L 123.468167 56.159869 
L 116.062631 60.55851 
L 109.490089 64.84545 
L 103.955288 68.715138 
L 99.462193 72.103765 
L 95.904809 75.074147 
L 93.132279 77.729167 
L 90.986892 80.165144 
L 89.322911 82.454466 
L 88.013993 84.644089 
L 86.49054 87.79552 
L 82.396697 97.326915 
L 81.392404 99.031931 
L 80.232829 100.656726 
L 78.877541 102.191631 
L 77.282955 103.622068 
L 75.401494 104.925595 
L 73.181583 106.067781 
L 70.568992 106.99658 
L 67.510411 107.634923 
L 65.799133 107.812026 
L 63.960645 107.871588 
L 61.992649 107.792731 
L 59.895365 107.551274 
L 57.672395 107.119618 
L 55.331759 106.46682 
L 52.887082 105.558981 
L 50.358902 104.360059 
L 47.776018 102.83327 
L 45.17675 100.943223 
L 42.609904 98.658932 
L 40.135182 95.957734 
L 37.822686 92.830043 
L 35.751189 89.284618 
L 34.004845 85.353733 
L 32.668221 81.097346 
L 31.819819 76.605137 
L 31.524618 71.99526 
L 31.826651 67.409005 
L 32.742851 63.001243 
L 34.259475 58.927561 
L 36.332007 55.329916 
L 38.888793 52.323292 
L 41.837836 49.985763 
L 45.07551 48.353647 
L 48.495625 47.422219 
L 51.997453 47.151226 
L 55.491717 47.473597 
L 58.904191 48.305417 
L 62.177056 49.555465 
L 65.268468 51.133125 
L 68.150958 52.954146 
L 70.809213 54.944172 
L 73.237679 57.04039 
L 75.438283 59.191727 
L 77.418418 61.358094 
L 79.189264 63.509093 
L 80.764448 65.622496 
L 83.388572 69.679445 
L 85.415133 73.460192 
L 86.963512 76.945918 
L 88.140164 80.144164 
L 89.40201 84.447083 
L 90.268055 88.229352 
L 92.587796 99.484777 
L 93.312179 101.533888 
L 94.23121 103.305657 
L 94.990341 104.326518 
L 95.898647 105.20875 
L 96.989066 105.937492 
L 98.300625 106.490917 
L 99.879463 106.838079 
L 101.779622 106.935997 
L 104.063265 106.725857 
L 106.799706 106.128309 
L 110.06221 105.038176 
L 113.920794 103.319611 
L 116.091403 102.173237 
L 118.428422 100.80424 
L 120.93188 99.18749 
L 123.596991 97.297456 
L 126.41259 95.109537 
L 129.359316 92.601995 
L 132.407605 89.758611 
L 135.515625 86.572138 
L 138.627367 83.048531 
L 141.671245 79.211792 
L 144.559651 75.108983 
L 147.190055 70.814664 
L 149.448239 66.433641 
L 151.214178 62.100635 
L 152.37072 57.975463 
L 152.814697 54.232719 
L 152.469273 51.046006 
L 151.295583 48.568269 
L 149.301203 46.911524 
L 146.543138 46.13038 
L 143.123983 46.213639 
L 139.181525 47.08653 
L 134.873764 48.623272 
L 130.362444 50.666784 
L 125.798296 53.050682 
L 121.310293 55.618783 
L 112.939589 60.809946 
L 105.73104 65.557022 
L 97.31315 71.39574 
L 93.134726 74.528133 
L 89.878235 77.230649 
L 87.341358 79.645863 
L 85.340719 81.877892 
L 83.719412 83.992263 
L 81.720249 87.014217 
L 78.749399 91.704776 
L 77.477585 93.437382 
L 76.072818 95.063873 
L 74.486404 96.561256 
L 72.673271 97.899568 
L 70.59165 99.039057 
L 68.204333 99.926446 
L 65.482045 100.490565 
L 63.989763 100.623161 
L 62.409652 100.637936 
L 60.743646 100.519204 
L 58.996024 100.249676 
L 57.173949 99.810635 
L 55.288059 99.182276 
L 53.353077 98.344262 
L 51.388413 97.276549 
L 49.418682 95.960537 
L 47.474056 94.380565 
L 45.590355 92.52576 
L 43.808733 90.392178 
L 42.174861 87.985123 
L 40.737483 85.321405 
L 39.5463 82.43126 
L 38.649216 79.359523 
L 38.089105 76.165673 
L 37.900367 72.922402 
L 38.105697 69.71254 
L 38.713497 66.624428 
L 39.716398 63.746113 
L 41.091162 61.159076 
L 42.80008 58.932301 
L 44.793684 57.11756 
L 47.014401 55.746521 
L 49.400629 54.830003 
L 51.890702 54.359277 
L 54.426304 54.309007 
L 56.955042 54.64122 
L 59.432092 55.309651 
L 61.820944 56.263898 
L 64.093421 57.452983 
L 66.22915 58.828104 
L 68.2147 60.344536 
L 70.042541 61.962737 
L 71.709973 63.648813 
L 73.218099 65.374499 
L 74.570899 67.116805 
L 76.836126 70.582406 
L 78.567673 73.945197 
L 79.834893 77.151095 
L 80.704563 80.176105 
L 81.235351 83.014444 
L 81.475163 85.670531 
L 81.460269 88.1538 
L 81.215426 90.475405 
L 80.754501 92.646068 
L 80.081251 94.674556 
L 79.190101 96.566408 
L 78.066846 98.322616 
L 76.689316 99.938002 
L 75.028158 101.399025 
L 73.047992 102.680759 
L 70.70941 103.742769 
L 67.972509 104.523702 
L 66.443514 104.782263 
L 64.803003 104.934679 
L 63.049217 104.964369 
L 61.182304 104.852196 
L 59.204964 104.576385 
L 57.123217 104.112575 
L 54.947277 103.434068 
L 52.692519 102.512375 
L 50.380486 101.31814 
L 48.039864 99.822566 
L 45.707293 97.99942 
L 43.427852 95.827672 
L 41.255006 93.294764 
L 39.249772 90.400338 
L 37.478885 87.160133 
L 36.011799 83.609528 
L 34.916514 79.80604 
L 34.254445 75.830014 
L 34.074808 71.782765 
L 34.409258 67.781775 
L 35.267668 63.953038 
L 36.635864 60.421298 
L 38.475889 57.299537 
L 40.728881 54.679359 
L 43.320148 52.623884 
L 46.165581 51.164213 
L 49.178389 50.29978 
L 52.275152 50.00212 
L 55.380551 50.221003 
L 58.430417 50.891665 
L 61.373159 51.941928 
L 64.169838 53.298372 
L 66.793262 54.891054 
L 69.226504 56.656663 
L 71.461171 58.540259 
L 73.495649 60.495862 
L 75.333494 62.486216 
L 76.982019 64.482048 
L 76.982019 64.482048 
" clip-path="url(#p6955587ced)" style="fill: none; stroke: #ff7f0e; stroke-opacity: 0.5; stroke-width: 1.5; stroke-linecap: round"/>
   </g>
  </g>
 </g>
 <defs>
  <clipPath id="p6955587ced">
   <rect x="-1.8" y="-7.2" width="176.4" height="176.4"/>
  </clipPath>
 </defs>
</svg>
