<?xml version="1.0" encoding="utf-8" standalone="no"?>
<!DOCTYPE svg PUBLIC "-//W3C//DTD SVG 1.1//EN"
  "http://www.w3.org/Graphics/SVG/1.1/DTD/svg11.dtd">
<svg xmlns:xlink="http://www.w3.org/1999/xlink" width="216pt" height="180pt" viewBox="0 0 216 180" xmlns="http://www.w3.org/2000/svg" version="1.1">
 <metadata>
  <rdf:RDF xmlns:dc="http://purl.org/dc/elements/1.1/" xmlns:cc="http://creativecommons.org/ns#" xmlns:rdf="http://www.w3.org/1999/02/22-rdf-syntax-ns#">
   <cc:Work>
    <dc:type rdf:resource="http://purl.org/dc/dcmitype/StillImage"/>
    <dc:date>2023-06-14T18:50:30.380523</dc:date>
    <dc:format>image/svg+xml</dc:format>
    <dc:creator>
     <cc:Agent>
      <dc:title>Matplotlib v3.7.0, https://matplotlib.org/</dc:title>
     </cc:Agent>
    </dc:creator>
   </cc:Work>
  </rdf:RDF>
 </metadata>
 <defs>
  <style type="text/css">*{stroke-linejoin: round; stroke-linecap: butt}</style>
 </defs>
 <g id="figure_1">
  <g id="patch_1">
   <path d="M 0 180 
L 216 180 
L 216 0 
L 0 0 
z
" style="fill: #ffffff"/>
  </g>
  <g id="patch_2">
   <path d="M -1 169.2 
L 174.6 169.2 
L 174.6 -1 
" style="fill: none"/>
  </g>
  <g id="pane3d_1">
   <g id="patch_3">
    <path d="M 11.519416 125.705413 
L 69.772457 76.876559 
L 68.962684 6.456623 
L 7.921935 51.001381 
" style="fill: none; opacity: 0.5; stroke: #f2f2f2; stroke-linejoin: miter"/>
   </g>
  </g>
  <g id="pane3d_2">
   <g id="patch_4">
    <path d="M 69.772457 76.876559 
L 163.247803 104.046152 
L 166.583609 31.200681 
L 68.962684 6.456623 
" style="fill: none; opacity: 0.5; stroke: #e6e6e6; stroke-linejoin: miter"/>
   </g>
  </g>
  <g id="pane3d_3">
   <g id="patch_5">
    <path d="M 11.519416 125.705413 
L 110.607849 158.067695 
L 163.247803 104.046152 
L 69.772457 76.876559 
" style="fill: none; opacity: 0.5; stroke: #ececec; stroke-linejoin: miter"/>
   </g>
  </g>
  <g id="axis3d_1">
   <g id="line2d_1">
    <path d="M 11.519416 125.705413 
L 110.607849 158.067695 
" style="fill: none; stroke: #ffffff; stroke-width: 0.8; stroke-linecap: round"/>
   </g>
   <g id="text_1">
    <!-- x -->
    <g style="fill: #262626" transform="translate(40.437569 179.640981) scale(0.1 -0.1)">
     <defs>
      <path id="DejaVuSans-78" d="M 3513 3500 
L 2247 1797 
L 3578 0 
L 2900 0 
L 1881 1375 
L 863 0 
L 184 0 
L 1544 1831 
L 300 3500 
L 978 3500 
L 1906 2253 
L 2834 3500 
L 3513 3500 
z
" transform="scale(0.015625)"/>
     </defs>
     <use xlink:href="#DejaVuSans-78"/>
    </g>
   </g>
   <g id="Line3DCollection_1">
    <path d="M 34.938002 133.353923 
L 91.939016 83.319503 
L 92.075057 12.314935 
" style="fill: none; stroke: #d3d3d3; stroke-width: 0.8"/>
    <path d="M 60.077013 141.564324 
L 115.682538 90.220807 
L 116.857347 18.596524 
" style="fill: none; stroke: #d3d3d3; stroke-width: 0.8"/>
    <path d="M 85.907442 150.000542 
L 140.023752 97.295837 
L 142.291083 25.043234 
" style="fill: none; stroke: #d3d3d3; stroke-width: 0.8"/>
   </g>
   <g id="xtick_1">
    <g id="line2d_2">
     <path d="M 88.783784 78.616216 
" clip-path="url(#p89408c9138)" style="fill: none; stroke: #d3d3d3; stroke-width: 0.8; stroke-linecap: round"/>
    </g>
    <g id="line2d_3">
     <path d="M 35.434746 132.91789 
L 33.942361 134.227877 
" style="fill: none; stroke: #808080; stroke-width: 0.8; stroke-linecap: round"/>
    </g>
    <g id="text_2">
     <!-- −10 -->
     <g style="fill: #808080" transform="translate(16.869163 156.875283) scale(0.1 -0.1)">
      <defs>
       <path id="DejaVuSans-2212" d="M 678 2272 
L 4684 2272 
L 4684 1741 
L 678 1741 
L 678 2272 
z
" transform="scale(0.015625)"/>
       <path id="DejaVuSans-31" d="M 794 531 
L 1825 531 
L 1825 4091 
L 703 3866 
L 703 4441 
L 1819 4666 
L 2450 4666 
L 2450 531 
L 3481 531 
L 3481 0 
L 794 0 
L 794 531 
z
" transform="scale(0.015625)"/>
       <path id="DejaVuSans-30" d="M 2034 4250 
Q 1547 4250 1301 3770 
Q 1056 3291 1056 2328 
Q 1056 1369 1301 889 
Q 1547 409 2034 409 
Q 2525 409 2770 889 
Q 3016 1369 3016 2328 
Q 3016 3291 2770 3770 
Q 2525 4250 2034 4250 
z
M 2034 4750 
Q 2819 4750 3233 4129 
Q 3647 3509 3647 2328 
Q 3647 1150 3233 529 
Q 2819 -91 2034 -91 
Q 1250 -91 836 529 
Q 422 1150 422 2328 
Q 422 3509 836 4129 
Q 1250 4750 2034 4750 
z
" transform="scale(0.015625)"/>
      </defs>
      <use xlink:href="#DejaVuSans-2212"/>
      <use xlink:href="#DejaVuSans-31" x="83.789062"/>
      <use xlink:href="#DejaVuSans-30" x="147.412109"/>
     </g>
    </g>
   </g>
   <g id="xtick_2">
    <g id="line2d_4">
     <path d="M 88.783784 78.616216 
" clip-path="url(#p89408c9138)" style="fill: none; stroke: #d3d3d3; stroke-width: 0.8; stroke-linecap: round"/>
    </g>
    <g id="line2d_5">
     <path d="M 60.562135 141.116386 
L 59.10464 142.462168 
" style="fill: none; stroke: #808080; stroke-width: 0.8; stroke-linecap: round"/>
    </g>
    <g id="text_3">
     <!-- 0 -->
     <g style="fill: #808080" transform="translate(49.421252 165.35013) scale(0.1 -0.1)">
      <use xlink:href="#DejaVuSans-30"/>
     </g>
    </g>
   </g>
   <g id="xtick_3">
    <g id="line2d_6">
     <path d="M 88.783784 78.616216 
" clip-path="url(#p89408c9138)" style="fill: none; stroke: #d3d3d3; stroke-width: 0.8; stroke-linecap: round"/>
    </g>
    <g id="line2d_7">
     <path d="M 86.380109 149.540203 
L 84.960002 150.923268 
" style="fill: none; stroke: #808080; stroke-width: 0.8; stroke-linecap: round"/>
    </g>
    <g id="text_4">
     <!-- 10 -->
     <g style="fill: #808080" transform="translate(72.117605 174.059426) scale(0.1 -0.1)">
      <use xlink:href="#DejaVuSans-31"/>
      <use xlink:href="#DejaVuSans-30" x="63.623047"/>
     </g>
    </g>
   </g>
  </g>
  <g id="axis3d_2">
   <g id="line2d_8">
    <path d="M 163.247803 104.046152 
L 110.607849 158.067695 
" style="fill: none; stroke: #ffffff; stroke-width: 0.8; stroke-linecap: round"/>
   </g>
   <g id="text_5">
    <!-- y -->
    <g style="fill: #262626" transform="translate(162.133934 160.636398) scale(0.1 -0.1)">
     <defs>
      <path id="DejaVuSans-79" d="M 2059 -325 
Q 1816 -950 1584 -1140 
Q 1353 -1331 966 -1331 
L 506 -1331 
L 506 -850 
L 844 -850 
Q 1081 -850 1212 -737 
Q 1344 -625 1503 -206 
L 1606 56 
L 191 3500 
L 800 3500 
L 1894 763 
L 2988 3500 
L 3597 3500 
L 2059 -325 
z
" transform="scale(0.015625)"/>
     </defs>
     <use xlink:href="#DejaVuSans-79"/>
    </g>
   </g>
   <g id="Line3DCollection_2">
    <path d="M 15.438775 45.515934 
L 18.669115 119.712395 
L 117.093689 151.411627 
" style="fill: none; stroke: #d3d3d3; stroke-width: 0.8"/>
    <path d="M 28.059842 36.305654 
L 30.688765 109.637285 
L 127.981447 140.238109 
" style="fill: none; stroke: #d3d3d3; stroke-width: 0.8"/>
    <path d="M 40.23944 27.417538 
L 42.30588 99.899589 
L 138.485727 129.458133 
" style="fill: none; stroke: #d3d3d3; stroke-width: 0.8"/>
    <path d="M 52.000334 18.834974 
L 53.540347 90.482636 
L 148.626439 119.051269 
" style="fill: none; stroke: #d3d3d3; stroke-width: 0.8"/>
    <path d="M 63.363749 10.542471 
L 64.410767 81.370835 
L 158.422136 108.998474 
" style="fill: none; stroke: #d3d3d3; stroke-width: 0.8"/>
   </g>
   <g id="xtick_4">
    <g id="line2d_9">
     <path d="M 88.783784 78.616216 
" clip-path="url(#p89408c9138)" style="fill: none; stroke: #d3d3d3; stroke-width: 0.8; stroke-linecap: round"/>
    </g>
    <g id="line2d_10">
     <path d="M 116.264458 151.14456 
L 118.754286 151.94645 
" style="fill: none; stroke: #808080; stroke-width: 0.8; stroke-linecap: round"/>
    </g>
    <g id="text_6">
     <!-- −20 -->
     <g style="fill: #808080" transform="translate(119.368364 172.372194) scale(0.1 -0.1)">
      <defs>
       <path id="DejaVuSans-32" d="M 1228 531 
L 3431 531 
L 3431 0 
L 469 0 
L 469 531 
Q 828 903 1448 1529 
Q 2069 2156 2228 2338 
Q 2531 2678 2651 2914 
Q 2772 3150 2772 3378 
Q 2772 3750 2511 3984 
Q 2250 4219 1831 4219 
Q 1534 4219 1204 4116 
Q 875 4013 500 3803 
L 500 4441 
Q 881 4594 1212 4672 
Q 1544 4750 1819 4750 
Q 2544 4750 2975 4387 
Q 3406 4025 3406 3419 
Q 3406 3131 3298 2873 
Q 3191 2616 2906 2266 
Q 2828 2175 2409 1742 
Q 1991 1309 1228 531 
z
" transform="scale(0.015625)"/>
      </defs>
      <use xlink:href="#DejaVuSans-2212"/>
      <use xlink:href="#DejaVuSans-32" x="83.789062"/>
      <use xlink:href="#DejaVuSans-30" x="147.412109"/>
     </g>
    </g>
   </g>
   <g id="xtick_5">
    <g id="line2d_11">
     <path d="M 88.783784 78.616216 
" clip-path="url(#p89408c9138)" style="fill: none; stroke: #d3d3d3; stroke-width: 0.8; stroke-linecap: round"/>
    </g>
    <g id="line2d_12">
     <path d="M 127.162493 139.980529 
L 129.621425 140.75392 
" style="fill: none; stroke: #808080; stroke-width: 0.8; stroke-linecap: round"/>
    </g>
    <g id="text_7">
     <!-- −10 -->
     <g style="fill: #808080" transform="translate(130.035596 160.949063) scale(0.1 -0.1)">
      <use xlink:href="#DejaVuSans-2212"/>
      <use xlink:href="#DejaVuSans-31" x="83.789062"/>
      <use xlink:href="#DejaVuSans-30" x="147.412109"/>
     </g>
    </g>
   </g>
   <g id="xtick_6">
    <g id="line2d_13">
     <path d="M 88.783784 78.616216 
" clip-path="url(#p89408c9138)" style="fill: none; stroke: #d3d3d3; stroke-width: 0.8; stroke-linecap: round"/>
    </g>
    <g id="line2d_14">
     <path d="M 137.676848 129.209544 
L 140.105496 129.95593 
" style="fill: none; stroke: #808080; stroke-width: 0.8; stroke-linecap: round"/>
    </g>
    <g id="text_8">
     <!-- 0 -->
     <g style="fill: #808080" transform="translate(147.697885 149.928616) scale(0.1 -0.1)">
      <use xlink:href="#DejaVuSans-30"/>
     </g>
    </g>
   </g>
   <g id="xtick_7">
    <g id="line2d_15">
     <path d="M 88.783784 78.616216 
" clip-path="url(#p89408c9138)" style="fill: none; stroke: #d3d3d3; stroke-width: 0.8; stroke-linecap: round"/>
    </g>
    <g id="line2d_16">
     <path d="M 147.827432 118.811207 
L 150.226402 119.531978 
" style="fill: none; stroke: #808080; stroke-width: 0.8; stroke-linecap: round"/>
    </g>
    <g id="text_9">
     <!-- 10 -->
     <g style="fill: #808080" transform="translate(154.451332 139.289928) scale(0.1 -0.1)">
      <use xlink:href="#DejaVuSans-31"/>
      <use xlink:href="#DejaVuSans-30" x="63.623047"/>
     </g>
    </g>
   </g>
   <g id="xtick_8">
    <g id="line2d_17">
     <path d="M 88.783784 78.616216 
" clip-path="url(#p89408c9138)" style="fill: none; stroke: #d3d3d3; stroke-width: 0.8; stroke-linecap: round"/>
    </g>
    <g id="line2d_18">
     <path d="M 157.632804 108.766508 
L 160.002693 109.46296 
" style="fill: none; stroke: #808080; stroke-width: 0.8; stroke-linecap: round"/>
    </g>
    <g id="text_10">
     <!-- 20 -->
     <g style="fill: #808080" transform="translate(164.047742 129.0135) scale(0.1 -0.1)">
      <use xlink:href="#DejaVuSans-32"/>
      <use xlink:href="#DejaVuSans-30" x="63.623047"/>
     </g>
    </g>
   </g>
  </g>
  <g id="axis3d_3">
   <g id="line2d_19">
    <path d="M 163.247803 104.046152 
L 166.583609 31.200681 
" style="fill: none; stroke: #ffffff; stroke-width: 0.8; stroke-linecap: round"/>
   </g>
   <g id="text_11">
    <!-- z -->
    <g style="fill: #262626" transform="translate(202.494937 65.789607) scale(0.1 -0.1)">
     <defs>
      <path id="DejaVuSans-7a" d="M 353 3500 
L 3084 3500 
L 3084 2975 
L 922 459 
L 3084 459 
L 3084 0 
L 275 0 
L 275 525 
L 2438 3041 
L 353 3041 
L 353 3500 
z
" transform="scale(0.015625)"/>
     </defs>
     <use xlink:href="#DejaVuSans-7a"/>
    </g>
   </g>
   <g id="Line3DCollection_3">
    <path d="M 163.471163 99.168549 
L 69.71813 72.15207 
L 11.278914 120.711228 
" style="fill: none; stroke: #d3d3d3; stroke-width: 0.8"/>
    <path d="M 164.362727 79.699066 
L 69.501427 53.307066 
L 10.318382 100.765162 
" style="fill: none; stroke: #d3d3d3; stroke-width: 0.8"/>
    <path d="M 165.275834 59.759141 
L 69.279742 34.028748 
L 9.333744 80.318502 
" style="fill: none; stroke: #d3d3d3; stroke-width: 0.8"/>
    <path d="M 166.211274 39.331516 
L 69.0529 14.301996 
L 8.324079 59.352162 
" style="fill: none; stroke: #d3d3d3; stroke-width: 0.8"/>
   </g>
   <g id="xtick_9">
    <g id="line2d_20">
     <path d="M 88.783784 78.616216 
" style="fill: none; stroke: #d3d3d3; stroke-width: 0.8; stroke-linecap: round"/>
    </g>
    <g id="line2d_21">
     <path d="M 162.684206 98.941775 
L 165.046953 99.622639 
" style="fill: none; stroke: #808080; stroke-width: 0.8; stroke-linecap: round"/>
    </g>
    <g id="text_12">
     <!-- 10 -->
     <g style="fill: #808080" transform="translate(175.382914 104.180283) scale(0.1 -0.1)">
      <use xlink:href="#DejaVuSans-31"/>
      <use xlink:href="#DejaVuSans-30" x="63.623047"/>
     </g>
    </g>
   </g>
   <g id="xtick_10">
    <g id="line2d_22">
     <path d="M 88.783784 78.616216 
" style="fill: none; stroke: #d3d3d3; stroke-width: 0.8; stroke-linecap: round"/>
    </g>
    <g id="line2d_23">
     <path d="M 163.566022 79.477409 
L 165.958061 80.142915 
" style="fill: none; stroke: #808080; stroke-width: 0.8; stroke-linecap: round"/>
    </g>
    <g id="text_13">
     <!-- 20 -->
     <g style="fill: #808080" transform="translate(176.487537 84.7693) scale(0.1 -0.1)">
      <use xlink:href="#DejaVuSans-32"/>
      <use xlink:href="#DejaVuSans-30" x="63.623047"/>
     </g>
    </g>
   </g>
   <g id="xtick_11">
    <g id="line2d_24">
     <path d="M 88.783784 78.616216 
" style="fill: none; stroke: #d3d3d3; stroke-width: 0.8; stroke-linecap: round"/>
    </g>
    <g id="line2d_25">
     <path d="M 164.469136 59.542917 
L 166.891201 60.192118 
" style="fill: none; stroke: #808080; stroke-width: 0.8; stroke-linecap: round"/>
    </g>
    <g id="text_14">
     <!-- 30 -->
     <g style="fill: #808080" transform="translate(177.618727 64.891465) scale(0.1 -0.1)">
      <defs>
       <path id="DejaVuSans-33" d="M 2597 2516 
Q 3050 2419 3304 2112 
Q 3559 1806 3559 1356 
Q 3559 666 3084 287 
Q 2609 -91 1734 -91 
Q 1441 -91 1130 -33 
Q 819 25 488 141 
L 488 750 
Q 750 597 1062 519 
Q 1375 441 1716 441 
Q 2309 441 2620 675 
Q 2931 909 2931 1356 
Q 2931 1769 2642 2001 
Q 2353 2234 1838 2234 
L 1294 2234 
L 1294 2753 
L 1863 2753 
Q 2328 2753 2575 2939 
Q 2822 3125 2822 3475 
Q 2822 3834 2567 4026 
Q 2313 4219 1838 4219 
Q 1578 4219 1281 4162 
Q 984 4106 628 3988 
L 628 4550 
Q 988 4650 1302 4700 
Q 1616 4750 1894 4750 
Q 2613 4750 3031 4423 
Q 3450 4097 3450 3541 
Q 3450 3153 3228 2886 
Q 3006 2619 2597 2516 
z
" transform="scale(0.015625)"/>
      </defs>
      <use xlink:href="#DejaVuSans-33"/>
      <use xlink:href="#DejaVuSans-30" x="63.623047"/>
     </g>
    </g>
   </g>
   <g id="xtick_12">
    <g id="line2d_26">
     <path d="M 88.783784 78.616216 
" style="fill: none; stroke: #d3d3d3; stroke-width: 0.8; stroke-linecap: round"/>
    </g>
    <g id="line2d_27">
     <path d="M 165.39433 39.121059 
L 167.847184 39.752952 
" style="fill: none; stroke: #808080; stroke-width: 0.8; stroke-linecap: round"/>
    </g>
    <g id="text_15">
     <!-- 40 -->
     <g style="fill: #808080" transform="translate(178.777454 44.529731) scale(0.1 -0.1)">
      <defs>
       <path id="DejaVuSans-34" d="M 2419 4116 
L 825 1625 
L 2419 1625 
L 2419 4116 
z
M 2253 4666 
L 3047 4666 
L 3047 1625 
L 3713 1625 
L 3713 1100 
L 3047 1100 
L 3047 0 
L 2419 0 
L 2419 1100 
L 313 1100 
L 313 1709 
L 2253 4666 
z
" transform="scale(0.015625)"/>
      </defs>
      <use xlink:href="#DejaVuSans-34"/>
      <use xlink:href="#DejaVuSans-30" x="63.623047"/>
     </g>
    </g>
   </g>
  </g>
  <g id="axes_1">
   <g id="line2d_28">
    <path d="M 125.090449 107.026115 
L 126.950894 104.033034 
L 129.100849 100.919324 
L 142.519959 82.416345 
L 145.249135 78.085452 
L 147.757035 73.630633 
L 149.911375 69.147732 
L 151.574323 64.764156 
L 152.615066 60.632758 
L 152.92537 56.919498 
L 152.435095 53.785611 
L 151.12369 51.367018 
L 149.024254 49.755328 
L 146.218877 48.984979 
L 142.826715 49.029642 
L 138.98829 49.808451 
L 134.849864 51.200011 
L 130.550715 53.060505 
L 126.214503 55.241875 
L 121.944566 57.606897 
L 113.907921 62.449041 
L 103.736937 69.019919 
L 96.049227 74.289834 
L 92.14518 77.181651 
L 89.027334 79.71935 
L 86.524898 82.011285 
L 84.480831 84.136355 
L 81.980373 87.114303 
L 77.017538 93.329803 
L 75.482381 94.890647 
L 73.78673 96.320336 
L 71.881147 97.586665 
L 69.720835 98.646433 
L 67.266684 99.441824 
L 65.919467 99.717252 
L 64.488398 99.896066 
L 62.972052 99.964985 
L 61.370515 99.909053 
L 59.685808 99.711617 
L 57.922401 99.3544 
L 56.087807 98.817715 
L 54.193274 98.080866 
L 52.254527 97.122814 
L 50.292535 95.923168 
L 48.33422 94.463565 
L 46.412996 92.729493 
L 44.56898 90.712548 
L 42.84867 88.413054 
L 41.303867 85.842841 
L 39.989656 83.027864 
L 38.961329 80.010158 
L 38.270348 76.84858 
L 37.959685 73.617758 
L 38.059157 70.404913 
L 38.581562 67.304537 
L 39.520449 64.411462 
L 40.85006 61.813259 
L 42.52757 59.583193 
L 44.497203 57.774875 
L 46.695408 56.419372 
L 49.056159 55.524998 
L 51.515559 55.079455 
L 54.015268 55.053645 
L 56.504608 55.40632 
L 58.941483 56.088837 
L 61.292393 57.049436 
L 63.531854 58.236719 
L 65.641508 59.602206 
L 67.609098 61.101991 
L 69.427451 62.697634 
L 71.093537 64.356441 
L 72.607617 66.051315 
L 75.192958 69.466164 
L 77.225939 72.818102 
L 78.764512 76.036533 
L 79.870993 79.086708 
L 80.604737 81.95628 
L 81.017708 84.645974 
L 81.152124 87.163437 
L 81.039534 89.519293 
L 80.700781 91.724588 
L 80.146444 93.789064 
L 79.377498 95.719833 
L 78.386001 97.520146 
L 77.155768 99.187995 
L 75.663043 100.714297 
L 73.87731 102.080407 
L 71.76251 103.25467 
L 69.279086 104.187744 
L 67.886666 104.542112 
L 66.387608 104.806519 
L 64.778035 104.966895 
L 63.055086 105.006726 
L 61.217398 104.90682 
L 59.265698 104.64514 
L 57.203557 104.196739 
L 55.038308 103.533873 
L 52.782149 102.626382 
L 50.453414 101.442464 
L 48.077977 99.949984 
L 45.690675 98.118481 
L 43.336568 95.922015 
L 41.071734 93.342938 
L 38.963186 90.376504 
L 37.087403 87.036029 
L 35.526975 83.357926 
L 34.365064 79.405584 
L 33.677831 75.270782 
L 33.525611 71.071377 
L 33.944388 66.944491 
L 34.939497 63.035494 
L 36.483342 59.484299 
L 38.517977 56.411514 
L 40.962065 53.907205 
L 43.720518 52.024355 
L 46.694569 50.777776 
L 49.790325 50.14787 
L 52.924658 50.087719 
L 56.028273 50.531669 
L 59.046418 51.403827 
L 61.938014 52.625398 
L 64.673965 54.120299 
L 67.235176 55.818959 
L 69.610642 57.660481 
L 71.795747 59.59349 
L 73.790833 61.576035 
L 75.60001 63.574884 
L 77.230193 65.564478 
L 79.990626 69.445065 
L 82.156797 73.123372 
L 83.820621 76.559844 
L 85.071357 79.746914 
L 85.989807 82.694139 
L 86.645441 85.419242 
L 87.258216 89.135937 
L 87.550846 92.469206 
L 87.618335 95.481359 
L 87.450093 99.087407 
L 87.030805 102.314421 
L 86.545159 104.533199 
L 85.884821 106.609386 
L 85.005948 108.565518 
L 83.845409 110.419422 
L 82.87371 111.604205 
L 81.706613 112.748663 
L 80.30512 113.848986 
L 78.622696 114.895149 
L 76.604345 115.867511 
L 74.185963 116.731683 
L 71.29439 117.43091 
L 67.849029 117.875015 
L 65.892531 117.960349 
L 63.766646 117.924816 
L 61.462353 117.739952 
L 58.972434 117.371388 
L 56.292598 116.778038 
L 53.423037 115.91141 
L 50.370538 114.715211 
L 47.151278 113.125519 
L 43.794406 111.071971 
L 40.346398 108.480535 
L 36.875963 105.278654 
L 33.478813 101.403565 
L 30.280998 96.814413 
L 27.438672 91.508017 
L 25.131517 85.536638 
L 23.547324 79.023833 
L 22.857105 72.172241 
L 23.184162 65.256546 
L 24.575307 58.597727 
L 26.984919 52.52142 
L 30.279585 47.310746 
L 34.262958 43.167532 
L 38.711799 40.19253 
L 43.41074 38.38711 
L 48.176369 37.671311 
L 52.867784 37.909782 
L 57.386169 38.93803 
L 61.668162 40.584352 
L 65.677293 42.685654 
L 69.396123 45.097208 
L 72.820137 47.697402 
L 75.953461 50.388747 
L 78.806003 53.096457 
L 81.391573 55.765639 
L 85.82929 60.848067 
L 89.414822 65.468374 
L 92.304993 69.580786 
L 95.666897 74.835239 
L 100.474222 82.540898 
L 101.882117 84.403179 
L 103.322419 85.944689 
L 104.855372 87.169412 
L 106.532252 88.070857 
L 108.396482 88.632151 
L 110.483663 88.826363 
L 112.820161 88.617427 
L 115.41981 87.962237 
L 118.278282 86.814812 
L 121.364769 85.13377 
L 124.611086 82.894469 
L 127.899518 80.106743 
L 129.506624 78.525228 
L 131.052954 76.837442 
L 132.50692 75.064422 
L 133.834046 73.233185 
L 134.998084 71.376677 
L 135.96258 69.533215 
L 136.69283 67.745311 
L 137.158114 66.057867 
L 137.333984 64.515802 
L 137.204337 63.161294 
L 136.762999 62.030919 
L 136.01457 61.153051 
L 134.974384 60.545869 
L 133.667592 60.216258 
L 132.127488 60.159755 
L 130.393316 60.361523 
L 128.507836 60.798178 
L 126.514938 61.440174 
L 124.457499 62.254409 
L 120.305498 64.264091 
L 116.320214 66.576522 
L 112.689485 68.997883 
L 109.5226 71.402741 
L 106.864713 73.724072 
L 104.715449 75.93481 
L 103.046436 78.030016 
L 101.81534 80.013712 
L 100.975909 81.890847 
L 100.484485 83.663263 
L 100.303829 85.328195 
L 100.405059 86.87806 
L 100.768374 88.300701 
L 101.383017 89.579581 
L 102.246807 90.693697 
L 103.365386 91.617124 
L 104.751219 92.318192 
L 106.422251 92.758391 
L 108.400024 92.891185 
L 110.706854 92.661037 
L 113.361528 92.00323 
L 116.372717 90.845428 
L 119.729139 89.112513 
L 123.385536 86.736894 
L 125.298326 85.293339 
L 127.244245 83.676948 
L 129.199449 81.891274 
L 131.134348 79.945597 
L 133.013354 77.856216 
L 134.795042 75.647618 
L 136.432879 73.353338 
L 137.876691 71.016269 
L 139.074921 68.688139 
L 139.977688 66.427946 
L 140.540405 64.299226 
L 140.727608 62.366222 
L 140.516453 60.689275 
L 139.899319 59.319977 
L 138.885033 58.296784 
L 137.498495 57.641785 
L 135.77874 57.359175 
L 133.775792 57.435649 
L 131.546819 57.842615 
L 129.152162 58.539768 
L 126.651692 59.479419 
L 124.101821 60.61091 
L 119.049969 63.254626 
L 114.315361 66.132906 
L 110.096823 69.014775 
L 106.488222 71.775477 
L 103.505669 74.368706 
L 101.115609 76.793962 
L 99.258047 79.070729 
L 97.86322 81.222348 
L 96.86228 83.267988 
L 96.193395 85.219905 
L 95.804728 87.08352 
L 95.655449 88.858636 
L 95.715635 90.540822 
L 95.965625 92.122506 
L 96.395182 93.593594 
L 97.002671 94.94159 
L 97.794373 96.151263 
L 98.783953 97.203885 
L 99.992074 98.076063 
L 101.446078 98.738175 
L 103.179584 99.152405 
L 105.23178 99.270399 
L 107.645992 99.030684 
L 110.466929 98.356165 
L 113.735571 97.152495 
L 117.480155 95.308869 
L 119.53271 94.109263 
L 121.70104 92.704101 
L 123.976901 91.079227 
L 126.346721 89.2227 
L 128.790248 87.126314 
L 131.279126 84.787541 
L 133.7755 82.211862 
L 136.230901 79.41541 
L 138.585718 76.427693 
L 140.769707 73.29402 
L 142.70397 70.077064 
L 144.304795 66.856876 
L 145.489449 63.728646 
L 146.183551 60.797732 
L 146.329106 58.171983 
L 145.891774 55.95204 
L 144.865831 54.221051 
L 143.275651 53.035646 
L 141.173335 52.41997 
L 138.633072 52.363975 
L 135.743522 52.826201 
L 132.599735 53.740305 
L 129.295894 55.02387 
L 125.919642 56.587819 
L 122.548251 58.344896 
L 116.065996 62.135435 
L 110.211711 65.92388 
L 105.161982 69.456932 
L 100.953938 72.651805 
L 97.536109 75.525435 
L 94.810538 78.136449 
L 92.662127 80.549653 
L 90.976418 82.819359 
L 89.648841 84.984527 
L 88.588459 87.069871 
L 87.334492 90.076322 
L 83.559741 99.976602 
L 82.206417 102.359566 
L 81.11955 103.866317 
L 79.843385 105.301308 
L 78.337649 106.654431 
L 76.556903 107.908556 
L 74.450001 109.035803 
L 71.960244 109.992252 
L 69.026821 110.710578 
L 67.374456 110.950617 
L 65.588562 111.090109 
L 63.662723 111.109175 
L 61.591849 110.984155 
L 59.372884 110.687144 
L 57.005739 110.185623 
L 54.494519 109.442238 
L 51.849087 108.414886 
L 49.087005 107.057288 
L 46.235867 105.320329 
L 43.335913 103.154472 
L 40.442722 100.513639 
L 37.629498 97.360882 
L 34.988208 93.675985 
L 32.628483 89.464684 
L 30.673052 84.768486 
L 29.248707 79.673062 
L 28.472672 74.312336 
L 28.435944 68.865204 
L 29.187028 63.542933 
L 30.720757 58.567851 
L 32.976237 54.147208 
L 35.845258 50.448335 
L 39.188845 47.581115 
L 42.856978 45.591235 
L 46.706207 44.464116 
L 50.611746 44.136552 
L 54.47322 44.512052 
L 58.215223 45.476267 
L 61.784693 46.910155 
L 65.146937 48.699787 
L 68.281566 50.742682 
L 71.178964 52.951116 
L 73.837486 55.25311 
L 76.261322 57.591821 
L 78.45889 59.923981 
L 80.441624 62.217894 
L 83.817959 66.6095 
L 86.511042 70.668221 
L 88.646937 74.366058 
L 90.346422 77.711222 
L 92.313332 82.121774 
L 95.657991 90.049721 
L 96.57953 91.797185 
L 97.575773 93.332688 
L 98.688348 94.655263 
L 99.957473 95.756395 
L 101.423547 96.619104 
L 103.128266 97.216701 
L 105.115095 97.511187 
L 107.428817 97.451415 
L 110.113668 96.971297 
L 113.209263 95.988727 
L 116.743055 94.40653 
L 118.676531 93.357252 
L 120.717576 92.1178 
L 122.859316 90.675495 
L 125.090314 89.019432 
L 127.393454 87.141735 
L 129.744742 85.039148 
L 132.112115 82.714955 
L 134.454443 80.18117 
L 136.720945 77.460841 
L 138.851362 74.590203 
L 140.777239 71.620251 
L 142.424649 68.61721 
L 143.71852 65.661344 
L 144.58843 62.84361 
L 144.975293 60.26003 
L 144.837949 58.004102 
L 144.158433 56.158151 
L 142.944797 54.785022 
L 141.230825 53.921605 
L 139.072706 53.575476 
L 136.543411 53.72525 
L 133.72592 54.324468 
L 130.706474 55.308109 
L 127.56875 56.600423 
L 124.389447 58.122733 
L 121.235408 59.80009 
L 115.213295 63.36597 
L 109.808604 66.909282 
L 105.165534 70.22644 
L 101.308454 73.253535 
L 98.186334 76.006748 
L 95.70901 78.535059 
L 93.772379 80.89166 
L 92.273704 83.120654 
L 91.119669 85.253295 
L 90.229704 87.309045 
L 89.246073 90.269853 
L 88.328967 94.004322 
L 86.455727 102.27902 
L 85.719023 104.478954 
L 84.78995 106.563306 
L 83.594109 108.541388 
L 82.604084 109.803718 
L 81.421788 111.019874 
L 80.007998 112.184787 
L 78.316496 113.287213 
L 76.293185 114.306277 
L 73.875543 115.206349 
L 70.992893 115.929539 
L 67.568343 116.384929 
L 65.62831 116.471178 
L 63.524044 116.433646 
L 61.247551 116.244281 
L 58.792815 115.869402 
L 56.156924 115.269002 
L 53.341611 114.396195 
L 50.355314 113.196987 
L 47.215859 111.610644 
L 43.953829 109.571077 
L 40.616584 107.009768 
L 37.27263 103.860936 
L 34.015692 100.069613 
L 30.967204 95.603069 
L 28.275309 90.465264 
L 26.107974 84.712641 
L 24.638228 78.467594 
L 24.021364 71.924199 
L 24.367413 65.340517 
L 25.716181 59.014551 
L 28.023878 53.246692 
L 31.167687 48.297759 
L 34.96772 44.354559 
L 39.218686 41.512016 
L 43.720719 39.774151 
L 48.301272 39.069709 
L 52.825376 39.275229 
L 57.196173 40.238862 
L 61.34968 41.800657 
L 65.247483 43.807465 
L 68.869746 46.122377 
L 72.20961 48.629481 
L 75.269118 51.235127 
L 78.056413 53.866834 
L 80.583827 56.470841 
L 84.921739 61.455982 
L 88.423149 66.019706 
L 91.238877 70.109831 
L 94.497218 75.381504 
L 99.750481 84.270024 
L 101.079805 86.068923 
L 102.465811 87.567972 
L 103.964738 88.767356 
L 105.625817 89.657001 
L 107.492377 90.216313 
L 109.601881 90.414053 
L 111.984513 90.208695 
L 114.659823 89.549835 
L 117.630831 88.381648 
L 120.874989 86.649783 
L 124.331703 84.313533 
L 126.106734 82.91431 
L 127.887266 81.3649 
L 129.648398 79.673726 
L 131.360462 77.85478 
L 132.989174 75.928492 
L 134.496209 73.92237 
L 135.840286 71.871235 
L 136.97883 69.816884 
L 137.870204 67.807005 
L 138.476375 65.89327 
L 138.765794 64.128627 
L 138.716139 62.563967 
L 138.316541 61.244509 
L 137.568927 60.206353 
L 136.488254 59.473698 
L 135.101583 59.057141 
L 133.446128 58.953322 
L 131.566582 59.145927 
L 129.512114 59.607868 
L 127.333382 60.30424 
L 125.07988 61.195631 
L 120.528485 63.40198 
L 116.164146 65.929955 
L 112.197013 68.554545 
L 108.744894 71.135767 
L 105.851558 73.604575 
L 103.509388 75.938914 
L 101.680105 78.141517 
L 100.310906 80.224138 
L 99.345664 82.198411 
L 98.731949 84.071641 
L 98.424962 85.845586 
L 98.389392 87.516696 
L 98.599981 89.076808 
L 99.041359 90.513747 
L 99.707523 91.811566 
L 100.60115 92.950339 
L 101.732862 93.905489 
L 103.12041 94.646701 
L 104.787691 95.136469 
L 106.763355 95.328398 
L 109.078646 95.165506 
L 111.763874 94.578951 
L 114.842672 93.488055 
L 118.322804 91.803108 
L 120.208108 90.709175 
L 122.182049 89.433388 
L 124.233822 87.966977 
L 126.347851 86.303869 
L 128.50286 84.441949 
L 130.670979 82.384574 
L 132.817002 80.142264 
L 134.897986 77.734463 
L 136.863403 75.191166 
L 138.656116 72.554123 
L 140.214386 69.877244 
L 141.475057 67.225812 
L 142.377838 64.67416 
L 142.870343 62.30166 
L 142.913246 60.187211 
L 142.484731 58.402747 
L 141.583398 57.006696 
L 140.229004 56.038435 
L 138.4609 55.514762 
L 136.334457 55.428981 
L 133.91618 55.75274 
L 131.278357 56.440166 
L 128.49401 57.433477 
L 125.632675 58.669089 
L 122.757288 60.083296 
L 117.172255 63.218209 
L 112.058998 66.465005 
L 107.593272 69.599146 
L 103.835541 72.522854 
L 100.767787 75.220581 
L 98.326645 77.717646 
L 96.428313 80.051943 
L 94.984947 82.258667 
L 93.914211 84.364233 
L 93.14405 86.385465 
L 92.61442 88.331179 
L 92.277274 90.204444 
L 92.05429 92.876635 
L 92.098503 95.374498 
L 92.3645 97.68461 
L 92.838344 99.791952 
L 93.532182 101.678942 
L 94.133617 102.803385 
L 94.864495 103.810451 
L 95.745961 104.687839 
L 96.804425 105.419088 
L 98.072091 105.98208 
L 99.587564 106.347097 
L 101.396386 106.474324 
L 103.551339 106.310685 
L 106.112112 105.785976 
L 109.143711 104.808445 
L 112.71242 103.260434 
L 116.877261 100.995638 
L 119.195877 99.541266 
L 121.67351 97.841429 
L 124.305998 95.872711 
L 127.082931 93.61297 
L 129.985543 91.043295 
L 132.984225 88.150727 
L 136.035789 84.931835 
L 139.080804 81.397143 
L 142.04153 77.576199 
L 144.821305 73.52272 
L 147.306444 69.318816 
L 149.371721 65.076852 
L 150.89004 60.937276 
L 151.745849 57.061003 
L 151.850352 53.615983 
L 151.155217 50.759262 
L 149.661109 48.617628 
L 147.418459 47.271051 
L 144.520288 46.742791 
L 141.089304 46.998389 
L 137.262869 47.953331 
L 133.179225 49.487123 
L 128.96703 51.460331 
L 124.738777 53.731167 
L 120.587582 56.169004 
L 112.789179 61.128543 
L 102.911844 67.849213 
L 95.415353 73.253275 
L 91.591777 76.22194 
L 88.527842 78.824141 
L 86.060959 81.168265 
L 84.04031 83.334434 
L 81.561489 86.356906 
L 77.347257 91.794984 
L 75.880183 93.416498 
L 74.281029 94.914931 
L 72.499311 96.262505 
L 70.489572 97.421901 
L 68.21175 98.343342 
L 65.633274 98.960879 
L 64.224204 99.129652 
L 62.733557 99.188361 
L 61.161902 99.122538 
L 59.511754 98.916174 
L 57.78806 98.551822 
L 55.998769 98.010835 
L 54.155468 97.273801 
L 52.274067 96.321214 
L 50.375478 95.134459 
L 48.486232 93.697158 
L 46.638903 91.996901 
L 44.872206 90.027369 
L 43.230583 87.790732 
L 41.763081 85.300156 
L 40.521375 82.582087 
L 39.556858 79.677879 
L 38.916902 76.644264 
L 38.640635 73.552187 
L 38.754772 70.483735 
L 39.270237 67.527205 
L 40.180252 64.77078 
L 41.460371 62.295686 
L 43.070539 60.16988 
L 44.958789 58.443261 
L 47.065891 57.14507 
L 49.330117 56.283661 
L 51.691439 55.848377 
L 54.094694 55.812932 
L 56.491594 56.139592 
L 58.841676 56.783476 
L 61.112411 57.696482 
L 63.278765 58.830516 
L 65.322425 60.139905 
L 67.230902 61.582999 
L 68.996597 63.123066 
L 70.615931 64.728632 
L 72.088546 66.373399 
L 74.60418 69.699023 
L 76.580696 72.976809 
L 78.071071 76.134847 
L 79.133157 79.136112 
L 79.822426 81.965728 
L 80.187498 84.621946 
L 80.267706 87.110078 
L 80.092066 89.438495 
L 79.679135 91.615959 
L 79.037381 93.649717 
L 78.16579 95.543961 
L 77.054583 97.298314 
L 75.685986 98.906097 
L 74.03514 100.352075 
L 72.071335 101.609457 
L 69.759934 102.635878 
L 67.065584 103.36819 
L 65.564823 103.597099 
L 63.957623 103.716142 
L 62.242357 103.708678 
L 60.419103 103.555574 
L 58.490261 103.235114 
L 56.46131 102.723051 
L 54.341719 101.99285 
L 52.146004 101.016233 
L 49.894909 99.76413 
L 47.616643 98.20817 
L 45.34805 96.322836 
L 43.135502 94.088375 
L 41.035213 91.494477 
L 39.112595 88.544545 
L 37.440217 85.260189 
L 36.094039 81.68521 
L 35.1478 77.888134 
L 34.665921 73.962163 
L 34.695819 70.021647 
L 35.261082 66.194738 
L 36.357095 62.612853 
L 37.95038 59.398531 
L 39.982004 56.653916 
L 42.374343 54.452059 
L 45.039623 52.832469 
L 47.888407 51.801255 
L 50.836565 51.335136 
L 53.80996 51.387962 
L 56.746805 51.898251 
L 59.598139 52.796471 
L 62.327051 54.011236 
L 64.907229 55.474008 
L 67.321287 57.122262 
L 69.559119 58.901256 
L 71.616431 60.764714 
L 73.493466 62.674709 
L 75.193946 64.601039 
L 76.724189 66.520319 
L 79.307956 70.272207 
L 81.322566 73.841854 
L 82.852455 77.19061 
L 83.979398 80.309463 
L 84.776993 83.205702 
L 85.307902 85.894717 
L 85.622955 88.395201 
L 85.773792 91.834449 
L 85.613823 94.953649 
L 85.187165 97.80538 
L 84.50102 100.432687 
L 83.888642 102.076409 
L 83.136347 103.642721 
L 82.224041 105.136517 
L 81.125699 106.559604 
L 79.80896 107.909571 
L 78.234637 109.177984 
L 76.356263 110.347618 
L 74.119908 111.388311 
L 71.464669 112.25092 
L 68.324568 112.858735 
L 66.551733 113.032764 
L 64.633157 113.09573 
L 62.562026 113.024507 
L 60.333146 112.79149 
L 57.943813 112.364065 
L 55.394991 111.704184 
L 52.692843 110.768173 
L 49.850707 109.506951 
L 46.891549 107.866934 
L 43.850883 105.791973 
L 40.779992 103.226786 
L 37.749083 100.122345 
L 34.849645 96.443587 
L 32.194873 92.179457 
L 29.91664 87.354531 
L 28.15747 82.040361 
L 27.056669 76.363369 
L 26.731465 70.505321 
L 27.256543 64.693011 
L 28.647547 59.176407 
L 30.854402 54.198643 
L 33.767659 49.964907 
L 37.236329 46.618324 
L 41.091498 44.22837 
L 45.168693 42.792803 
L 49.323896 42.249995 
L 53.441497 42.496669 
L 57.435419 43.406329 
L 61.245963 44.845235 
L 64.834841 46.684414 
L 68.180121 48.807484 
L 71.271903 51.114801 
L 74.108977 53.52478 
L 76.696362 55.973264 
L 79.043514 58.411732 
L 81.163017 60.804953 
L 84.779323 65.366479 
L 87.675955 69.55247 
L 89.988896 73.336114 
L 92.645712 78.288915 
L 97.988395 88.859679 
L 99.12833 90.477618 
L 100.373637 91.847726 
L 101.770503 92.962765 
L 103.362863 93.806007 
L 105.193435 94.350249 
L 107.303859 94.55668 
L 109.733562 94.37383 
L 112.516799 93.737116 
L 115.676995 92.569915 
L 119.217247 90.787839 
L 121.121811 89.640022 
L 123.105627 88.308757 
L 125.155818 86.787279 
L 127.254415 85.072047 
L 129.377505 83.164076 
L 131.494464 81.070465 
L 133.567428 78.806037 
L 135.551194 76.394952 
L 137.393764 73.872042 
L 139.037775 71.283579 
L 140.422966 68.687093 
L 141.48973 66.149903 
L 142.183547 63.746125 
L 142.459848 61.552163 
L 142.288632 59.641004 
L 141.658031 58.076 
L 140.576131 56.905071 
L 139.070684 56.156298 
L 137.186738 55.835702 
L 134.982657 55.927575 
L 132.525254 56.397222 
L 129.884803 57.19554 
L 127.130548 58.264588 
L 124.327125 59.54322 
L 121.532039 60.97205 
L 116.15315 64.072922 
L 111.275182 67.23765 
L 107.045344 70.276062 
L 103.506713 73.110569 
L 100.633131 75.733775 
L 98.359568 78.171553 
L 96.604473 80.458712 
L 95.284279 82.626288 
L 94.321753 84.696795 
L 93.650078 86.683895 
L 93.214262 88.594006 
L 92.97102 90.428394 
L 92.898849 93.03297 
L 93.118796 95.447873 
L 93.60038 97.653891 
L 94.06683 98.997205 
L 94.658095 100.228997 
L 95.387603 101.338888 
L 96.274228 102.31365 
L 97.342475 103.136044 
L 98.62281 103.783321 
L 100.152047 104.225303 
L 101.97366 104.421963 
L 104.137795 104.320415 
L 106.700587 103.851342 
L 109.722092 102.925095 
L 113.26165 101.428178 
L 117.368649 99.221821 
L 119.643684 97.803144 
L 122.065459 96.146148 
L 124.627708 94.230189 
L 127.317841 92.036468 
L 130.114999 89.549991 
L 132.987832 86.762191 
L 135.892176 83.674273 
L 138.768929 80.301221 
L 141.542652 76.676179 
L 144.121649 72.854667 
L 146.400388 68.917679 
L 148.265058 64.972433 
L 149.602589 61.149429 
L 150.312494 57.594829 
L 150.319777 54.458124 
L 149.586115 51.876413 
L 148.116453 49.958052 
L 145.959108 48.769088 
L 143.199401 48.325578 
L 139.948644 48.593425 
L 136.331364 49.495421 
L 132.473432 50.923556 
L 128.492824 52.75372 
L 124.493553 54.859934 
L 120.562481 57.125943 
L 113.162358 61.763794 
L 106.641401 66.134282 
L 98.744255 71.754494 
L 94.668593 74.888987 
L 91.399345 77.641871 
L 88.786232 80.116584 
L 86.681993 82.397317 
L 84.953221 84.543149 
L 82.815379 87.583757 
L 79.092941 93.153656 
L 77.766076 94.845499 
L 76.303799 96.433302 
L 74.65717 97.895561 
L 72.779496 99.202811 
L 70.626037 100.314532 
L 68.155065 101.174948 
L 66.788988 101.488061 
L 65.330899 101.707873 
L 63.778253 101.820734 
L 62.12984 101.811034 
L 60.386232 101.661095 
L 58.550321 101.351148 
L 56.627983 100.859443 
L 54.628849 100.162539 
L 52.567193 99.235863 
L 50.462887 98.054632 
L 48.342379 96.59521 
L 46.239551 94.837016 
L 44.196315 92.765014 
L 42.262685 90.372763 
L 40.496037 87.665874 
L 38.959256 84.665531 
L 37.717541 81.411526 
L 36.83382 77.964068 
L 36.363087 74.403566 
L 36.346336 70.827722 
L 36.805145 67.345733 
L 37.73808 64.070028 
L 39.119846 61.106685 
L 40.903531 58.546149 
L 43.025521 56.455882 
L 45.412022 54.876133 
L 47.985875 53.819236 
L 50.672509 53.272084 
L 53.404293 53.200862 
L 56.123123 53.55692 
L 58.781424 54.282762 
L 61.341993 55.317412 
L 63.777127 56.600702 
L 66.067398 58.076357 
L 68.200335 59.693934 
L 70.169165 61.409781 
L 71.971676 63.187264 
L 73.609232 64.996472 
L 75.085932 66.813612 
L 77.582688 70.402443 
L 79.525257 73.855965 
L 80.986111 77.125602 
L 82.037231 80.193529 
L 82.744143 83.059846 
L 83.162645 85.734296 
L 83.337415 88.23115 
L 83.301826 90.566144 
L 83.078448 92.754664 
L 82.67986 94.810652 
L 82.109506 96.745892 
L 81.362445 98.569424 
L 80.425922 100.286884 
L 79.27974 101.899605 
L 77.896484 103.403268 
L 76.241703 104.785875 
L 74.274255 106.024762 
L 71.947113 107.082283 
L 69.209216 107.89979 
L 67.670041 108.192526 
L 66.009242 108.38956 
L 64.221542 108.473719 
L 62.302845 108.424664 
L 60.250833 108.21855 
L 58.065744 107.827745 
L 55.751363 107.220686 
L 53.316278 106.36198 
L 50.775403 105.212872 
L 48.151795 103.732297 
L 45.478662 101.878729 
L 42.801442 99.613106 
L 40.179603 96.90305 
L 37.687684 93.728526 
L 35.414832 90.088749 
L 33.461995 86.009759 
L 31.935981 81.551372 
L 30.940085 76.811649 
L 30.561945 71.926652 
L 30.860544 67.0637 
L 31.855401 62.407703 
L 33.521171 58.142278 
L 35.789677 54.429357 
L 38.559183 51.391853 
L 41.708333 49.103078 
L 45.111048 47.58449 
L 48.649001 46.810879 
L 52.219789 46.720569 
L 55.74063 47.227689 
L 59.148534 48.23409 
L 62.39833 49.639315 
L 65.459763 51.347973 
L 68.314488 53.274443 
L 70.953393 55.34531 
L 73.374384 57.50004 
L 75.580632 59.690455 
L 77.579199 61.879486 
L 79.379954 64.039588 
L 82.436588 68.200501 
L 84.857153 72.082742 
L 86.753517 75.656638 
L 88.2328 78.925251 
L 89.877924 83.298297 
L 91.407195 88.269629 
L 93.183877 94.235317 
L 94.126233 96.652123 
L 94.844711 98.068816 
L 95.668476 99.329181 
L 96.626958 100.426972 
L 97.751979 101.350135 
L 99.078892 102.079682 
L 100.647516 102.588116 
L 102.502786 102.83732 
L 104.6949 102.775889 
L 107.278584 102.33597 
L 110.310783 101.429913 
L 113.845567 99.947597 
L 115.815261 98.949638 
L 117.924287 97.756247 
L 120.172937 96.348239 
L 122.557873 94.706368 
L 125.070844 92.812331 
L 127.697129 90.650211 
L 130.413711 88.208451 
L 133.187279 85.482431 
L 135.972215 82.477649 
L 138.708932 79.213405 
L 141.323036 75.726657 
L 143.726007 72.075477 
L 145.818122 68.341222 
L 147.494209 64.628321 
L 148.652291 61.060597 
L 149.204374 57.773456 
L 149.087653 54.902196 
L 148.273733 52.567842 
L 146.773533 50.863013 
L 144.636542 49.840773 
L 141.944636 49.508901 
L 138.802161 49.830752 
L 135.324671 50.732224 
L 131.628539 52.113025 
L 127.822814 53.859735 
L 124.003799 55.85824 
L 120.252126 58.003731 
L 113.190672 62.39944 
L 106.964999 66.565954 
L 101.696299 70.29668 
L 97.36565 73.569042 
L 93.874165 76.450617 
L 91.08774 79.034531 
L 88.865349 81.405766 
L 87.074333 83.628713 
L 84.943907 86.773704 
L 82.11311 91.654583 
L 80.459356 94.380194 
L 78.6114 96.927685 
L 77.19188 98.506488 
L 75.568763 99.968108 
L 73.696136 101.285573 
L 71.527713 102.420596 
L 69.017809 103.318829 
L 66.124198 103.903841 
L 64.522593 104.047236 
L 62.8139 104.07005 
L 60.997123 103.953356 
L 59.073471 103.675617 
L 57.047083 103.212679 
L 54.9259 102.537934 
L 52.722708 101.622761 
L 50.456311 100.437348 
L 48.152811 98.952034 
L 45.846855 97.139297 
L 43.582683 94.976512 
L 41.414691 92.449521 
L 39.407118 89.556908 
L 37.632419 86.31465 
L 36.167921 82.760519 
L 35.090542 78.957276 
L 34.469794 74.993516 
L 34.35983 70.981098 
L 34.791939 67.048596 
L 35.76916 63.331133 
L 37.264501 59.957994 
L 39.223441 57.04027 
L 41.570221 54.660904 
L 44.216462 52.868907 
L 47.070163 51.678392 
L 50.04341 51.071906 
L 53.057789 51.006734 
L 56.047323 51.422609 
L 58.959307 52.249406 
L 61.753692 53.413858 
L 64.401663 54.844765 
L 66.883908 56.47659 
L 69.18889 58.251562 
L 71.311279 60.120578 
L 73.250606 62.043218 
L 75.010131 63.987169 
L 76.595912 65.92733 
L 79.279954 69.725661 
L 81.381047 73.34237 
L 82.985379 76.734972 
L 84.177145 79.892764 
L 85.032664 82.822539 
L 85.617384 85.539801 
L 85.984856 88.063639 
L 86.217399 91.529843 
L 86.150333 94.667881 
L 85.836229 97.532116 
L 85.291382 100.167627 
L 84.50199 102.610586 
L 83.820835 104.146161 
L 82.99483 105.614241 
L 81.999887 107.018088 
L 80.805979 108.357637 
L 79.376569 109.628074 
L 77.667986 110.817611 
L 75.628931 111.904091 
L 73.20037 112.849966 
L 70.31636 113.594999 
L 66.906729 114.045966 
L 64.983142 114.119677 
L 62.903328 114.062751 
L 60.661179 113.847486 
L 58.252905 113.440976 
L 55.678197 112.8046 
L 52.941758 111.893709 
L 50.055307 110.657705 
L 47.040104 109.04077 
L 43.930014 106.983628 
L 40.774974 104.426815 
L 37.64454 101.315994 
L 34.630774 97.609786 
L 31.849311 93.290233 
L 29.436954 88.375306 
L 27.543998 82.931607 
L 26.320091 77.083962 
L 25.894208 71.017491 
L 26.352096 64.968107 
L 27.717267 59.200074 
L 29.942313 53.97383 
L 32.914619 49.511713 
L 36.475259 45.970759 
L 40.444844 43.429116 
L 44.648336 41.887502 
L 48.932849 41.282324 
L 53.17642 41.504892 
L 57.289103 42.421431 
L 61.209305 43.890387 
L 64.898191 45.775378 
L 68.334064 47.95358 
L 71.507661 50.320129 
L 74.418565 52.789469 
L 77.072622 55.294619 
L 79.480093 57.7852 
L 81.654327 60.224886 
L 85.366185 64.860705 
L 88.344194 69.096525 
L 90.729109 72.908084 
L 93.485417 77.868316 
L 97.995317 86.461444 
L 99.169253 88.266073 
L 100.409973 89.805693 
L 101.769136 91.079511 
L 103.293923 92.077276 
L 105.02846 92.778569 
L 107.014416 93.15197 
L 109.290433 93.154293 
L 111.889945 92.730281 
L 114.836707 91.813522 
L 118.137103 90.329878 
L 121.768196 88.205453 
L 123.688485 86.883476 
L 125.660726 85.381844 
L 127.6655 83.699843 
L 129.67775 81.841532 
L 131.66624 79.81711 
L 133.593298 77.644312 
L 135.415019 75.349676 
L 137.082101 72.96945 
L 138.541494 70.549877 
L 139.738933 68.146545 
L 140.622318 65.822573 
L 141.145697 63.645508 
L 141.27339 61.683051 
L 140.983674 59.997978 
L 140.271392 58.642911 
L 139.148986 57.655703 
L 137.645756 57.056221 
L 135.805464 56.845059 
L 133.682725 57.004371 
L 131.338772 57.500622 
L 128.83722 58.288706 
L 126.240301 59.316728 
L 123.605875 60.530716 
L 118.422344 63.313709 
L 113.602867 66.292829 
L 109.337511 69.241277 
L 105.709225 72.043359 
L 102.72367 74.662131 
L 100.338592 77.104544 
L 98.487358 79.39516 
L 97.095418 81.560428 
L 96.090575 83.621307 
L 95.408656 85.591118 
L 94.996107 87.476064 
L 94.810698 89.276734 
L 94.821207 90.989682 
L 95.0066 92.608639 
L 95.355084 94.125238 
L 95.863208 95.529236 
L 96.535134 96.808311 
L 97.382117 97.947448 
L 98.422181 98.927973 
L 99.679942 99.726203 
L 101.186501 100.311717 
L 102.979247 100.645193 
L 105.101306 100.675827 
L 107.600241 100.33844 
L 110.525307 99.55062 
L 113.92214 98.210713 
L 117.82314 96.198392 
L 119.96533 94.898739 
L 122.230927 93.381038 
L 124.611227 91.629658 
L 127.091634 89.631385 
L 129.650117 87.37715 
L 132.255561 84.864254 
L 134.866165 82.099057 
L 137.428154 79.100025 
L 139.875227 75.900869 
L 142.12924 72.5533 
L 144.102697 69.128699 
L 145.703465 65.717871 
L 146.841774 62.428052 
L 147.438955 59.376651 
L 147.436642 56.681875 
L 146.804676 54.451267 
L 145.545848 52.769997 
L 143.696322 51.691176 
L 141.3216 51.230231 
L 138.50908 51.364457 
L 135.358934 52.037675 
L 131.975096 53.168784 
L 128.457681 54.662328 
L 124.897469 56.419088 
L 121.372508 58.345097 
L 114.668882 62.39124 
L 108.688599 66.331981 
L 103.580169 69.939136 
L 99.353739 73.158685 
L 95.93583 76.030491 
L 93.212274 78.62811 
L 91.056782 81.024626 
L 89.347389 83.278187 
L 87.974402 85.42902 
L 86.342527 88.513349 
L 81.928504 97.801744 
L 80.871781 99.463909 
L 79.66289 101.048163 
L 78.261493 102.543926 
L 76.624596 103.935184 
L 74.705736 105.197516 
L 72.454835 106.293931 
L 69.819161 107.169167 
L 68.340466 107.499762 
L 66.746142 107.742145 
L 65.030607 107.880589 
L 63.189293 107.896484 
L 61.219158 107.768002 
L 59.119355 107.469801 
L 56.892094 106.972835 
L 54.54374 106.244354 
L 52.086152 105.248205 
L 49.538303 103.945595 
L 46.928111 102.296527 
L 44.294398 100.262142 
L 41.688731 97.808189 
L 39.176755 94.909817 
L 36.838431 91.55764 
L 34.766415 87.764708 
L 33.061812 83.573496 
L 31.82677 79.061388 
L 31.154079 74.342704 
L 31.115013 69.565317 
L 31.747789 64.900775 
L 33.049679 60.528548 
L 34.97534 56.616979 
L 37.442253 53.30497 
L 40.341956 50.688427 
L 43.554014 48.814003 
L 46.959283 47.68049 
L 50.449933 47.246247 
L 53.935232 47.440054 
L 57.343472 48.172806 
L 60.621161 49.348111 
L 63.730728 50.870715 
L 66.647706 52.652379 
L 69.358013 54.615391 
L 71.855591 56.694116 
L 74.140481 58.83512 
L 76.217293 60.996348 
L 78.093999 63.14578 
L 81.290224 67.322019 
L 83.82822 71.250105 
L 85.816312 74.885608 
L 87.36064 78.222977 
L 88.558485 81.27626 
L 89.88834 85.373238 
L 91.136855 90.060466 
L 92.641141 95.74733 
L 93.465511 98.078733 
L 94.454097 100.09292 
L 95.24599 101.257124 
L 96.175712 102.270329 
L 97.273752 103.119567 
L 98.574792 103.785256 
L 100.118607 104.239537 
L 101.950759 104.444045 
L 104.12287 104.347057 
L 106.692137 103.880032 
L 109.719397 102.953791 
L 113.264577 101.455056 
L 117.37751 99.245063 
L 119.655731 97.823837 
L 122.08087 96.163764 
L 124.646668 94.24416 
L 127.340522 92.046191 
L 130.141527 89.554835 
L 133.018257 86.761518 
L 135.926421 83.667472 
L 138.806738 80.287758 
L 141.583534 76.655668 
L 144.164823 72.826954 
L 146.44475 68.882936 
L 148.30919 64.931244 
L 149.644806 61.102845 
L 150.350973 57.544368 
L 150.352715 54.405695 
L 149.611927 51.824173 
L 148.133936 49.908191 
L 145.967556 48.723606 
L 143.19863 48.286086 
L 139.938948 48.561007 
L 136.31341 49.470583 
L 132.448135 50.906259 
L 128.461231 52.743475 
L 124.456742 54.855931 
L 120.521488 57.127192 
L 120.521488 57.127192 
" clip-path="url(#p89408c9138)" style="fill: none; stroke: #1f77b4; stroke-width: 1.5; stroke-linecap: round"/>
   </g>
   <g id="line2d_29">
    <path d="M 125.090449 107.026115 
L 127.029003 103.875672 
L 131.719966 97.198973 
L 137.147229 89.762694 
L 139.97653 85.706542 
L 142.774385 81.432805 
L 145.442643 76.978158 
L 147.87054 72.408848 
L 149.937914 67.822779 
L 151.521134 63.348355 
L 152.501826 59.138763 
L 152.777903 55.360823 
L 152.275611 52.178655 
L 150.960564 49.733934 
L 148.845337 48.126166 
L 145.991425 47.397341 
L 142.504456 47.525014 
L 138.523146 48.425924 
L 134.204152 49.969452 
L 129.705902 51.997465 
L 125.174488 54.34573 
L 120.733687 56.862364 
L 112.481151 61.924098 
L 105.397253 66.537168 
L 97.142303 72.211816 
L 93.048951 75.266598 
L 89.859575 77.912911 
L 87.374861 80.287621 
L 85.414809 82.489764 
L 83.825662 84.581127 
L 81.864711 87.576527 
L 78.946753 92.237123 
L 77.695971 93.962994 
L 76.313144 95.586766 
L 74.749686 97.086533 
L 72.960177 98.433679 
L 70.901936 99.590045 
L 68.536123 100.50414 
L 65.830892 101.106614 
L 64.344355 101.263258 
L 62.767369 101.305516 
L 61.101186 101.217741 
L 59.349313 100.982569 
L 57.518063 100.581049 
L 55.61716 99.992925 
L 53.660385 99.197143 
L 51.666228 98.172623 
L 49.658465 96.899351 
L 47.666611 95.359847 
L 45.72611 93.541006 
L 43.878152 91.436289 
L 42.168979 89.048134 
L 40.64855 86.390412 
L 39.368499 83.490591 
L 38.37939 80.391238 
L 37.727396 77.150414 
L 37.450669 73.840576 
L 37.575819 70.545732 
L 38.114981 67.356886 
L 39.063951 64.366111 
L 40.401771 61.65992 
L 42.091904 59.312841 
L 44.084868 57.382103 
L 46.321978 55.904195 
L 48.739626 54.893683 
L 51.27354 54.344267 
L 53.862506 54.231683 
L 56.451231 54.517803 
L 58.992205 55.155237 
L 61.446595 56.091791 
L 63.784337 57.274329 
L 65.983619 58.651788 
L 68.029987 60.177269 
L 69.915259 61.809278 
L 71.636385 63.512256 
L 73.194359 65.256582 
L 74.593231 67.018212 
L 76.940195 70.521589 
L 78.741868 73.918172 
L 80.070806 77.152484 
L 80.997103 80.200521 
L 81.582611 83.057217 
L 81.878189 85.728049 
L 81.922826 88.223685 
L 81.743808 90.556641 
L 81.35739 92.739168 
L 80.76964 94.781833 
L 79.977232 96.692404 
L 78.968132 98.474758 
L 77.722169 100.127556 
L 76.211588 101.642443 
L 74.4018 103.001515 
L 72.25268 104.173755 
L 69.720973 105.110173 
L 68.298301 105.4682 
L 66.764698 105.737497 
L 65.116366 105.903873 
L 63.350798 105.950654 
L 61.467316 105.858479 
L 59.467729 105.605165 
L 57.357122 105.165699 
L 55.14477 104.512428 
L 52.845162 103.615538 
L 50.479096 102.443919 
L 48.074759 100.966546 
L 45.66868 99.154484 
L 43.306374 96.98358 
L 41.042458 94.437874 
L 38.939966 91.513573 
L 37.068609 88.223317 
L 35.501776 84.60019 
L 34.312217 80.700751 
L 33.566603 76.606209 
L 33.319431 72.420909 
L 33.607073 68.267585 
L 34.442939 64.279387 
L 35.814713 60.589423 
L 37.684331 57.319258 
L 39.990885 54.56823 
L 42.65601 52.405392 
L 45.590839 50.865375 
L 48.703358 49.948558 
L 51.905072 49.62508 
L 55.116173 49.841516 
L 58.268881 50.528782 
L 61.308972 51.609941 
L 64.195803 53.006925 
L 66.901293 54.645637 
L 69.408268 56.459329 
L 71.70856 58.390404 
L 73.801105 60.390971 
L 75.690204 62.422515 
L 77.384026 64.455033 
L 78.893368 66.465887 
L 81.409223 70.361597 
L 83.344367 74.031219 
L 84.804113 77.445948 
L 85.883768 80.604934 
L 86.664886 83.521648 
L 87.419466 87.486349 
L 87.819123 91.023242 
L 87.975862 94.200094 
L 87.919729 97.974899 
L 87.624248 101.322953 
L 87.092966 104.330673 
L 86.50978 106.405264 
L 85.722079 108.352201 
L 84.666193 110.192246 
L 83.770376 111.367353 
L 82.681952 112.503979 
L 81.358851 113.600915 
L 79.74995 114.65153 
L 77.793809 115.640446 
L 75.417795 116.538345 
L 72.538304 117.294043 
L 69.06333 117.822712 
L 67.073123 117.962202 
L 64.899724 117.989163 
L 62.533879 117.875202 
L 59.968963 117.585803 
L 57.202374 117.079571 
L 54.237331 116.307649 
L 51.085126 115.213551 
L 47.767829 113.733668 
L 44.321377 111.798866 
L 40.798857 109.337661 
L 37.27357 106.281491 
L 33.841255 102.57254 
L 30.62055 98.174254 
L 27.750571 93.084086 
L 25.384488 87.347038 
L 23.678387 81.06739 
L 22.775659 74.414944 
L 22.788585 67.621875 
L 23.780408 60.967441 
L 25.752146 54.75068 
L 28.638099 49.25515 
L 32.31204 44.713136 
L 36.603084 41.277819 
L 41.317435 39.009805 
L 46.260822 37.879979 
L 51.257057 37.785911 
L 56.160035 38.575992 
L 60.858797 40.074906 
L 65.276937 42.105526 
L 69.368396 44.504662 
L 73.111579 47.13224 
L 76.503274 49.874895 
L 79.553216 52.645576 
L 82.279667 55.380755 
L 84.706051 58.036533 
L 88.764235 63.008107 
L 91.942857 67.455263 
L 94.445737 71.37213 
L 97.319188 76.336178 
L 100.901319 82.562545 
L 102.211511 84.440451 
L 103.565957 85.998332 
L 105.023374 87.241194 
L 106.633243 88.163212 
L 108.437259 88.747883 
L 110.469484 88.968355 
L 112.754937 88.788285 
L 115.306275 88.163819 
L 118.118286 87.047584 
L 121.160025 85.395885 
L 124.36501 83.180401 
L 127.620824 80.405248 
L 129.218029 78.823247 
L 130.761208 77.128687 
L 132.22109 75.34102 
L 133.565715 73.485549 
L 134.761304 71.593501 
L 135.773465 69.701666 
L 136.568738 67.851485 
L 137.116397 66.087554 
L 137.390417 64.455543 
L 137.371418 62.999649 
L 137.048393 61.759788 
L 136.419986 60.768828 
L 135.495141 60.050202 
L 134.292981 59.616247 
L 132.84189 59.467507 
L 131.177883 59.593117 
L 129.342431 59.972204 
L 127.380008 60.576098 
L 125.335631 61.371007 
L 121.170819 63.389597 
L 117.145432 65.753555 
L 113.472135 68.244038 
L 110.275223 70.717232 
L 107.605635 73.096261 
L 105.462752 75.350826 
L 103.815114 77.47644 
L 102.616646 79.478884 
L 101.81785 81.364793 
L 101.372773 83.137051 
L 101.242888 84.793179 
L 101.398896 86.325222 
L 101.821224 87.720114 
L 102.499767 88.959978 
L 103.433151 90.022091 
L 104.627693 90.878446 
L 106.096023 91.49497 
L 107.855226 91.830515 
L 109.924215 91.835929 
L 112.319903 91.453607 
L 115.051597 90.618313 
L 118.112983 89.260425 
L 121.471219 87.313259 
L 125.053176 84.726532 
L 126.890414 83.187181 
L 128.730214 81.487682 
L 130.54567 79.63715 
L 132.305214 77.650942 
L 133.972862 75.551598 
L 135.508844 73.369515 
L 136.870692 71.143181 
L 138.014841 68.918786 
L 138.898725 66.749027 
L 139.483291 64.691028 
L 139.735755 62.803362 
L 139.632348 61.142355 
L 139.160715 59.758011 
L 138.321627 58.690039 
L 137.129708 57.964552 
L 135.61299 57.591959 
L 133.811294 57.566413 
L 131.773605 57.866929 
L 129.554771 58.459975 
L 127.211964 59.30311 
L 124.801307 60.349074 
L 122.375035 61.549759 
L 117.653333 64.237912 
L 113.326908 67.070623 
L 109.55638 69.857553 
L 106.403279 72.504721 
L 103.860805 74.984103 
L 101.882598 77.302702 
L 100.404515 79.480084 
L 99.359024 81.535487 
L 98.683718 83.482137 
L 98.325733 85.325875 
L 98.243568 87.065797 
L 98.407402 88.695479 
L 98.798618 90.204056 
L 99.408997 91.576806 
L 100.239812 92.795174 
L 101.300938 93.836236 
L 102.609957 94.671657 
L 104.191143 95.266215 
L 106.074073 95.575998 
L 108.291486 95.546474 
L 110.875811 95.110834 
L 113.853544 94.189385 
L 117.236477 92.691351 
L 119.07645 91.696168 
L 121.008658 90.521352 
L 123.02382 89.156604 
L 125.108415 87.593729 
L 127.243928 85.827783 
L 129.406117 83.858428 
L 131.564405 81.691505 
L 133.681491 79.340712 
L 135.713319 76.829278 
L 137.609569 74.191399 
L 139.314814 71.473164 
L 140.770484 68.732629 
L 141.917676 66.038698 
L 142.70077 63.468527 
L 143.07161 61.10336 
L 142.993878 59.02294 
L 142.447086 57.299021 
L 141.429581 55.98879 
L 139.959971 55.129248 
L 138.0766 54.733563 
L 135.835012 54.790129 
L 133.303711 55.26456 
L 130.558842 56.104243 
L 127.678573 57.244594 
L 124.737945 58.615885 
L 121.804765 60.149558 
L 116.180706 63.463998 
L 111.132642 66.810241 
L 106.818613 69.979726 
L 103.270193 72.898404 
L 100.440938 75.572068 
L 98.245605 78.040387 
L 96.586433 80.348371 
L 95.368534 82.532914 
L 94.507731 84.618916 
L 93.933707 86.620221 
L 93.590483 88.542286 
L 93.435537 90.384968 
L 93.49223 92.991894 
L 93.845641 95.392788 
L 94.477776 97.563492 
L 95.061438 98.868442 
L 95.789443 100.047165 
L 96.681309 101.085871 
L 97.762965 101.966641 
L 99.067062 102.665762 
L 100.633293 103.151593 
L 102.50852 103.381857 
L 104.746339 103.300318 
L 107.405473 102.83292 
L 110.546024 101.883811 
L 114.222072 100.332373 
L 116.273072 99.286283 
L 118.468467 98.033635 
L 120.806054 96.553839 
L 123.279134 94.826576 
L 125.875206 92.833035 
L 128.574515 90.557619 
L 131.3485 87.990205 
L 134.158265 85.128957 
L 136.953271 81.983667 
L 139.670507 78.579407 
L 142.234513 74.960144 
L 144.558633 71.191714 
L 146.547936 67.36335 
L 148.104072 63.586794 
L 149.132127 59.992099 
L 149.549096 56.719534 
L 149.293116 53.907772 
L 148.332047 51.679502 
L 146.669757 50.126728 
L 144.348532 49.298671 
L 141.446693 49.19513 
L 138.07149 49.767094 
L 134.348508 50.924629 
L 130.409552 52.550209 
L 126.38122 54.514437 
L 122.375903 56.69088 
L 114.782255 61.253911 
L 108.107869 65.611874 
L 102.531192 69.485663 
L 98.030443 72.840828 
L 94.479825 75.762027 
L 91.715019 78.364896 
L 89.569736 80.751628 
L 87.892886 82.996352 
L 86.554705 85.145674 
L 84.95145 88.241904 
L 81.271234 95.837424 
L 80.191243 97.561454 
L 78.958124 99.198423 
L 77.529139 100.734936 
L 75.859916 102.152054 
L 73.903774 103.422203 
L 71.612122 104.504931 
L 68.936486 105.341329 
L 67.440612 105.642002 
L 65.833087 105.847043 
L 64.110554 105.940622 
L 62.2713 105.90434 
L 60.315853 105.717049 
L 58.247709 105.354785 
L 56.074192 104.790865 
L 53.807428 103.99623 
L 51.465409 102.940141 
L 49.073093 101.591329 
L 46.663417 99.919725 
L 44.278086 97.89887 
L 41.967934 95.509023 
L 39.792594 92.740926 
L 37.819221 89.599993 
L 36.120022 86.110485 
L 34.768485 82.319038 
L 33.834358 78.296696 
L 33.377757 74.138583 
L 33.443063 69.960517 
L 34.053512 65.892326 
L 35.207491 62.068292 
L 36.87734 58.61589 
L 39.011072 55.64456 
L 41.536817 53.2364 
L 44.369253 51.44033 
L 47.416927 50.270503 
L 50.589305 49.708846 
L 53.802606 49.710791 
L 56.983915 50.212834 
L 60.073416 51.140507 
L 63.024995 52.415615 
L 65.805599 53.962037 
L 68.39379 55.709795 
L 70.777923 57.597473 
L 72.954216 59.573235 
L 74.924937 61.594828 
L 76.696803 63.628896 
L 78.279639 65.649926 
L 80.926748 69.58282 
L 82.971205 73.301295 
L 84.519355 76.768339 
L 85.668875 79.97862 
L 86.50418 82.943404 
L 87.095116 85.681589 
L 87.64189 89.411062 
L 87.898445 92.749997 
L 87.933528 96.701632 
L 87.709143 100.19112 
L 87.250252 103.312771 
L 86.732678 105.458062 
L 86.028475 107.464971 
L 85.082604 109.356002 
L 84.280083 110.561336 
L 83.305422 111.726613 
L 82.121214 112.852703 
L 80.681782 113.936349 
L 78.931873 114.967611 
L 76.805515 115.925839 
L 74.225524 116.773442 
L 71.10455 117.446484 
L 67.349319 117.840967 
L 65.205439 117.885741 
L 62.870968 117.793883 
L 60.338925 117.531893 
L 57.606131 117.059523 
L 54.674936 116.329184 
L 51.555396 115.285703 
L 48.267899 113.866726 
L 44.846187 112.004138 
L 41.340601 109.626973 
L 37.821177 106.666339 
L 34.380013 103.062822 
L 31.132018 98.776552 
L 28.212965 93.799599 
L 25.773732 88.169405 
L 23.969914 81.980854 
L 22.946907 75.393455 
L 22.821886 68.629743 
L 23.665715 61.961913 
L 25.488937 55.686321 
L 28.235874 50.089293 
L 31.789201 45.411202 
L 35.98443 41.817238 
L 40.630905 39.381695 
L 45.534262 38.088438 
L 50.515638 37.845443 
L 55.424641 38.507963 
L 60.145387 39.903935 
L 64.596679 41.856457 
L 68.728255 44.200425 
L 72.515128 46.792621 
L 75.951513 49.516058 
L 79.045302 52.28012 
L 81.81351 55.018078 
L 84.278771 57.683349 
L 86.466777 60.245413 
L 90.118912 64.99569 
L 92.981774 69.214269 
L 96.213191 74.589115 
L 100.686493 82.461018 
L 101.990467 84.37182 
L 103.333263 85.963003 
L 104.77444 87.240478 
L 106.364268 88.199341 
L 108.145293 88.823984 
L 110.152648 89.088352 
L 112.412819 88.956669 
L 114.940548 88.385201 
L 117.733542 87.325912 
L 120.764815 85.733193 
L 123.972916 83.575005 
L 127.251289 80.849425 
L 128.868945 79.286747 
L 130.439586 77.606223 
L 131.934442 75.825978 
L 133.321835 73.969993 
L 134.567966 72.068289 
L 135.638053 70.156687 
L 136.497809 68.276035 
L 137.115221 66.470849 
L 137.462519 64.787336 
L 137.518181 63.27091 
L 137.268769 61.96337 
L 136.710369 60.900036 
L 135.849426 60.107191 
L 134.702825 59.600165 
L 133.297153 59.382378 
L 131.667199 59.44545 
L 129.853855 59.770409 
L 127.901658 60.329765 
L 125.856264 61.090171 
L 123.762098 62.015269 
L 119.587825 64.214745 
L 115.64861 66.667148 
L 112.123662 69.180009 
L 109.106937 71.636532 
L 106.626411 73.98058 
L 104.666514 76.194628 
L 103.187585 78.280329 
L 102.140272 80.245226 
L 101.475038 82.095348 
L 101.147825 83.831978 
L 101.123021 85.450808 
L 101.374667 86.94214 
L 101.886607 88.29131 
L 102.652006 89.478899 
L 103.672502 90.480556 
L 104.957059 91.266424 
L 106.520478 91.800224 
L 108.381347 92.038208 
L 110.55911 91.928257 
L 113.069754 91.409687 
L 115.919496 90.414606 
L 119.095849 88.872189 
L 122.555639 86.717689 
L 124.366356 85.396076 
L 126.210317 83.90832 
L 128.06682 82.256483 
L 129.910559 80.44746 
L 131.711468 78.494067 
L 133.43484 76.416069 
L 135.041788 74.240996 
L 136.490163 72.004598 
L 137.735969 69.75073 
L 138.735303 67.530482 
L 139.446773 65.40042 
L 139.83424 63.419896 
L 139.869665 61.647523 
L 139.535746 60.137105 
L 138.82798 58.933459 
L 137.755829 58.068702 
L 136.342734 57.559566 
L 134.624901 57.406204 
L 132.648976 57.592695 
L 130.468874 58.08918 
L 128.142198 58.855257 
L 125.726685 59.844078 
L 123.277066 61.006528 
L 118.465612 63.665988 
L 114.013421 66.51451 
L 110.103248 69.339797 
L 106.81216 72.032047 
L 104.142313 74.554539 
L 102.051209 76.911078 
L 100.4752 79.121302 
L 99.345289 81.206004 
L 98.596621 83.180358 
L 98.173503 85.052026 
L 98.031575 86.821629 
L 98.138291 88.484017 
L 98.472522 90.029462 
L 99.023749 91.44439 
L 99.791164 92.711545 
L 100.782777 93.80958 
L 102.014558 94.712129 
L 103.509522 95.386418 
L 105.296542 95.791501 
L 107.408556 95.876281 
L 109.879649 95.577611 
L 112.74027 94.819128 
L 116.009595 93.511935 
L 117.797671 92.622355 
L 119.683906 91.559124 
L 121.661538 90.310722 
L 123.720017 88.867086 
L 125.84424 87.220613 
L 128.013765 85.36739 
L 130.20209 83.308666 
L 132.376072 81.052516 
L 134.495613 78.615591 
L 136.513773 76.024799 
L 138.377457 73.318669 
L 140.028841 70.548087 
L 141.407663 67.776032 
L 142.454384 65.07598 
L 143.114133 62.528717 
L 143.341134 60.217536 
L 143.103157 58.222089 
L 142.38538 56.611543 
L 141.193004 55.437979 
L 139.552087 54.731161 
L 137.508279 54.495649 
L 135.123545 54.710877 
L 132.471316 55.334217 
L 129.630792 56.306441 
L 126.681231 57.558544 
L 123.696972 59.018741 
L 117.876148 62.29749 
L 112.558058 65.704088 
L 107.952604 68.973973 
L 104.12506 71.996307 
L 101.046457 74.759367 
L 98.637636 77.298507 
L 96.800106 79.661239 
L 95.434717 81.889341 
L 94.451548 84.012599 
L 93.774221 86.048783 
L 93.34096 88.006168 
L 93.103943 89.886508 
L 93.042167 92.557053 
L 93.270108 95.033069 
L 93.75669 97.294147 
L 94.22574 98.670489 
L 94.82031 99.932271 
L 95.555455 101.069039 
L 96.452201 102.067385 
L 97.537838 102.909639 
L 98.846351 103.572175 
L 100.418863 104.023227 
L 102.303879 104.220099 
L 104.556971 104.105709 
L 107.239281 103.604518 
L 110.413841 102.618262 
L 114.138142 101.022586 
L 116.219751 99.950084 
L 118.450667 98.667042 
L 120.829069 97.151869 
L 123.348525 95.383132 
L 125.996633 93.340825 
L 128.753478 91.00815 
L 131.58998 88.373869 
L 134.466256 85.435287 
L 137.330189 82.201787 
L 140.116501 78.698743 
L 142.746712 74.971422 
L 145.130411 71.088224 
L 147.168305 67.142401 
L 148.757359 63.251182 
L 149.798099 59.551322 
L 150.203677 56.190424 
L 149.909752 53.314202 
L 148.883671 51.050976 
L 147.131105 49.495865 
L 144.698458 48.697926 
L 141.670055 48.653331 
L 138.16025 49.306512 
L 134.301863 50.559155 
L 130.233153 52.284935 
L 126.085728 54.346536 
L 121.97523 56.61141 
L 114.217603 61.310981 
L 107.43663 65.748153 
L 101.796848 69.655278 
L 97.260858 73.01461 
L 93.689887 75.924736 
L 90.910182 78.51029 
L 88.748998 80.878251 
L 87.050899 83.104728 
L 85.683114 85.236704 
L 84.015062 88.307461 
L 81.079658 94.039014 
L 79.415181 96.663106 
L 78.123132 98.29921 
L 76.633434 99.82638 
L 74.901253 101.222296 
L 72.880689 102.455315 
L 70.525532 103.480155 
L 67.791853 104.232367 
L 66.271212 104.479247 
L 64.643385 104.621741 
L 62.906579 104.643406 
L 61.060952 104.525388 
L 59.109231 104.246355 
L 57.057449 103.782556 
L 54.915777 103.108089 
L 52.69945 102.195442 
L 50.429715 101.016417 
L 48.134745 99.543517 
L 45.850387 97.751892 
L 43.620591 95.621882 
L 41.497306 93.14214 
L 39.539645 90.313173 
L 37.812076 87.151016 
L 36.38153 83.690541 
L 35.313396 79.987755 
L 34.666639 76.120374 
L 34.488464 72.185989 
L 34.809252 68.297473 
L 35.638559 64.575718 
L 36.962972 61.140409 
L 38.746336 58.100093 
L 40.932442 55.543089 
L 43.449785 53.530721 
L 46.217621 52.093885 
L 49.152343 51.233266 
L 52.173271 50.922781 
L 55.207213 51.115291 
L 58.191463 51.749394 
L 61.075266 52.756193 
L 63.819981 54.065199 
L 66.398301 55.608906 
L 68.79289 57.325893 
L 70.994759 59.162589 
L 73.001601 61.073915 
L 74.816242 63.023149 
L 76.445276 64.981257 
L 77.89792 66.925962 
L 80.318651 70.713594 
L 82.174005 74.304338 
L 83.559981 77.664571 
L 84.564148 80.788726 
L 85.261563 83.686301 
L 85.713535 86.373995 
L 85.968013 88.87121 
L 86.05473 92.302571 
L 85.852261 95.410552 
L 85.394115 98.247743 
L 84.678016 100.857221 
L 84.041913 102.487283 
L 83.25933 104.038536 
L 82.306557 105.51579 
L 81.153179 106.920544 
L 79.761438 108.249643 
L 78.085589 109.493109 
L 76.071442 110.630793 
L 73.656563 111.627331 
L 70.771851 112.424787 
L 69.130858 112.722113 
L 67.345814 112.932343 
L 65.408888 113.036755 
L 63.313634 113.012722 
L 61.05578 112.833193 
L 58.634231 112.466238 
L 56.052344 111.874742 
L 53.319476 111.016382 
L 50.452816 109.844066 
L 47.479443 108.307061 
L 44.438481 106.353093 
L 41.383142 103.931727 
L 38.382261 100.99926 
L 35.520853 97.525247 
L 32.899026 93.500456 
L 30.628622 88.945574 
L 28.827057 83.919392 
L 27.608272 78.524559 
L 27.071379 72.908698 
L 27.288437 67.258867 
L 28.293552 61.788489 
L 30.075777 56.717644 
L 32.577809 52.249741 
L 35.701234 48.549109 
L 39.317415 45.724187 
L 43.281713 43.819662 
L 47.448105 42.818419 
L 51.681572 42.651715 
L 55.866657 43.214328 
L 59.911787 44.381029 
L 63.749925 46.021401 
L 67.336626 48.011236 
L 70.646629 50.239943 
L 73.669952 52.614295 
L 76.408104 55.059327 
L 78.87079 57.517312 
L 81.073216 59.94565 
L 83.034004 62.31432 
L 86.313309 66.800275 
L 88.876797 70.895635 
L 90.884485 74.588874 
L 93.159282 79.422576 
L 97.353441 88.905648 
L 98.3738 90.628196 
L 99.490804 92.112268 
L 100.749131 93.354336 
L 102.191791 94.341856 
L 103.86146 95.052239 
L 105.800973 95.451534 
L 108.05264 95.492968 
L 110.655922 95.115686 
L 113.642711 94.244418 
L 117.029286 92.791435 
L 118.870349 91.81742 
L 120.803854 90.662981 
L 122.821058 89.317763 
L 124.909001 87.773398 
L 127.049747 86.02463 
L 129.219646 84.070674 
L 131.388703 81.916775 
L 133.520159 79.575909 
L 135.57042 77.070478 
L 137.489491 74.4338 
L 139.222074 71.711117 
L 140.709458 68.959765 
L 141.892284 66.248183 
L 142.714109 63.653446 
L 143.125602 61.257208 
L 143.088947 59.140177 
L 142.581946 57.375619 
L 141.601164 56.022682 
L 140.163531 55.120588 
L 138.305997 54.684737 
L 136.08314 54.705506 
L 133.563013 55.15001 
L 130.821837 55.96652 
L 127.938321 57.090678 
L 124.988404 58.45239 
L 122.041012 59.982291 
L 116.378511 63.302172 
L 111.285791 66.663617 
L 106.927256 69.850912 
L 103.338133 72.785925 
L 100.473498 75.472936 
L 98.24826 77.951648 
L 96.564063 80.267788 
L 95.325094 82.459109 
L 94.446145 84.55127 
L 93.855892 86.558693 
L 93.49742 88.487249 
L 93.327348 90.337092 
L 93.359871 92.956533 
L 93.685119 95.372779 
L 94.282598 97.56272 
L 94.838218 98.883407 
L 95.533189 100.080958 
L 96.386023 101.142479 
L 97.42153 102.051249 
L 98.671143 102.785139 
L 100.173286 103.314585 
L 101.973608 103.600003 
L 104.124758 103.588574 
L 106.685164 103.210435 
L 109.715925 102.374585 
L 113.274444 100.96541 
L 115.265818 100.002656 
L 117.40276 98.84187 
L 119.684915 97.462375 
L 122.107955 95.843289 
L 124.662344 93.964567 
L 127.331937 91.808499 
L 130.09243 89.361718 
L 132.909771 86.617799 
L 135.738689 83.58041 
L 138.521563 80.266922 
L 141.187973 76.71218 
L 143.655308 72.971947 
L 145.83088 69.125301 
L 147.615895 65.275039 
L 148.911487 61.545107 
L 149.62666 58.074266 
L 149.687485 55.005731 
L 149.046368 52.473483 
L 147.68978 50.587056 
L 145.642716 49.417546 
L 142.968566 48.98794 
L 139.763984 49.270233 
L 136.149466 50.19024 
L 132.257401 51.639058 
L 128.219829 53.488472 
L 124.15798 55.606914 
L 120.174942 57.872962 
L 112.74739 62.463365 
L 106.32757 66.728014 
L 101.026323 70.469 
L 96.7818 73.699199 
L 93.44949 76.521749 
L 90.859445 79.05383 
L 88.846568 81.39198 
L 87.263937 83.603107 
L 85.986799 85.727548 
L 84.423163 88.793149 
L 81.645627 94.521656 
L 80.057843 97.150971 
L 78.82108 98.796418 
L 77.391375 100.340266 
L 75.724325 101.763151 
L 73.773594 103.037152 
L 71.491296 104.121632 
L 68.830028 104.957759 
L 67.343649 105.257682 
L 65.747428 105.461718 
L 64.03823 105.554228 
L 62.214564 105.51707 
L 60.277178 105.329443 
L 58.229767 104.967836 
L 56.079803 104.406136 
L 53.839491 103.615987 
L 51.52679 102.567487 
L 49.166466 101.230331 
L 46.791055 99.575516 
L 44.441609 97.577686 
L 42.168001 95.218158 
L 40.028575 92.488555 
L 38.088873 89.394826 
L 36.419221 85.961242 
L 35.091062 82.233736 
L 34.17212 78.281804 
L 33.720732 74.198134 
L 33.779986 70.095321 
L 34.372543 66.099437 
L 35.497069 62.340876 
L 37.127069 58.943568 
L 39.212487 56.014207 
L 41.683919 53.633289 
L 44.458747 51.849421 
L 47.448144 50.677668 
L 50.56387 50.101846 
L 53.723949 50.079908 
L 56.856703 50.55112 
L 59.903019 51.443715 
L 62.817016 52.681889 
L 65.565516 54.19147 
L 68.126707 55.903942 
L 70.488411 57.758884 
L 72.646238 59.705058 
L 74.601826 61.700487 
L 76.361281 63.711855 
L 77.93385 65.71353 
L 80.564819 69.616802 
L 82.596121 73.315861 
L 84.131339 76.771439 
L 85.266008 79.976312 
L 86.082848 82.940301 
L 86.65029 85.681269 
L 87.149588 89.420167 
L 87.340051 92.77373 
L 87.303356 95.804385 
L 87.082093 98.565013 
L 86.688759 101.099501 
L 86.111307 103.444187 
L 85.315371 105.629086 
L 84.243462 107.678151 
L 83.335248 108.977188 
L 82.234964 110.225333 
L 80.902503 111.420916 
L 79.289235 112.556531 
L 77.33702 113.6158 
L 74.977657 114.568374 
L 72.133488 115.362416 
L 68.720369 115.913637 
L 66.774088 116.059316 
L 64.65518 116.090047 
L 62.355948 115.978663 
L 59.871375 115.692437 
L 57.200426 115.192471 
L 54.347702 114.433294 
L 51.325479 113.362852 
L 48.156119 111.923155 
L 44.874775 110.05191 
L 41.53219 107.685563 
L 38.197245 104.764163 
L 34.958675 101.238382 
L 31.925196 97.078749 
L 29.223109 92.286619 
L 26.99049 86.905634 
L 25.367438 81.03147 
L 24.482621 74.816857 
L 24.437556 68.468747 
L 25.291265 62.235412 
L 27.04878 56.383563 
L 29.656738 51.168665 
L 33.00781 46.804323 
L 36.953389 43.437646 
L 41.321646 41.136041 
L 45.936856 39.88756 
L 50.636068 39.613069 
L 55.280658 40.185839 
L 59.762051 41.453319 
L 64.002402 43.256743 
L 67.951793 45.446022 
L 71.583562 47.889144 
L 74.889118 50.476614 
L 77.873061 53.122143 
L 80.549063 55.760902 
L 82.936611 58.3465 
L 85.058568 60.847519 
L 88.60404 65.525312 
L 91.381498 69.725729 
L 93.573358 73.45239 
L 96.106043 78.230267 
L 99.325629 84.355825 
L 100.530154 86.250737 
L 101.790982 87.853148 
L 103.163457 89.166054 
L 104.696258 90.182201 
L 106.432989 90.8837 
L 108.412644 91.24163 
L 110.668642 91.215868 
L 113.226028 90.755647 
L 116.096332 89.801678 
L 119.269584 88.291151 
L 122.703219 86.167373 
L 124.492128 84.863305 
L 126.308412 83.395998 
L 128.13141 81.768597 
L 129.935987 79.989035 
L 131.69244 78.071056 
L 133.366672 76.035157 
L 134.920714 73.909315 
L 136.313675 71.729325 
L 137.503174 69.538584 
L 138.447258 67.38714 
L 139.106746 65.3299 
L 139.447851 63.423966 
L 139.444869 61.725233 
L 139.082608 60.284521 
L 138.358251 59.143667 
L 137.282339 58.332126 
L 135.878661 57.864581 
L 134.183003 57.73997 
L 132.240863 57.942103 
L 130.104423 58.44178 
L 127.829156 59.200039 
L 125.470484 60.172019 
L 123.080854 61.310873 
L 118.390781 63.911799 
L 114.051885 66.698811 
L 110.240168 69.468727 
L 107.030863 72.115046 
L 104.427459 74.600517 
L 102.390374 76.926631 
L 100.859385 79.110326 
L 99.768845 81.169996 
L 99.056912 83.118915 
L 98.670504 84.963278 
L 98.567489 86.702522 
L 98.717238 88.330418 
L 99.100291 89.836107 
L 99.707608 91.204707 
L 100.539692 92.417361 
L 101.605671 93.450743 
L 102.922362 94.276052 
L 104.51317 94.85759 
L 106.406596 95.151025 
L 108.633958 95.101577 
L 111.225737 94.642544 
L 114.205763 93.694982 
L 117.582248 92.169939 
L 119.414323 91.161913 
L 121.33465 89.975493 
L 123.33324 88.601167 
L 125.395841 87.031711 
L 127.503225 85.26332 
L 129.630505 83.296958 
L 131.746595 81.139887 
L 133.813908 78.807274 
L 135.788423 76.323753 
L 137.620284 73.724707 
L 139.255056 71.057004 
L 140.63576 68.378866 
L 141.705717 65.758535 
L 142.412113 63.271536 
L 142.710055 60.996442 
L 142.566711 59.009384 
L 141.964999 57.377808 
L 140.906239 56.154313 
L 139.411242 55.371546 
L 137.519531 55.039086 
L 135.286671 55.142932 
L 132.780071 55.647742 
L 130.073839 56.501398 
L 127.243458 57.641046 
L 124.360964 58.99956 
L 121.491164 60.511425 
L 115.999022 63.767156 
L 111.076723 67.050629 
L 106.873452 70.16493 
L 103.418128 73.039945 
L 100.665474 75.680636 
L 98.533266 78.123822 
L 96.927379 80.411371 
L 95.756533 82.577512 
L 94.939863 84.645148 
L 94.410009 86.62669 
L 94.11364 88.526536 
L 94.010665 90.343664 
L 94.072869 92.073678 
L 94.282458 93.710147 
L 94.630729 95.245282 
L 95.117017 96.670063 
L 95.747946 97.973924 
L 96.536991 99.14407 
L 97.504314 100.164448 
L 98.676815 101.014354 
L 100.088281 101.666625 
L 101.779471 102.085345 
L 103.797863 102.222996 
L 106.196597 102.017095 
L 109.031884 101.386543 
L 112.35774 100.228389 
L 116.216349 98.416602 
L 118.351569 97.220671 
L 120.621853 95.805947 
L 123.02046 94.153597 
L 125.535181 92.246307 
L 128.147004 90.069865 
L 130.828702 87.615233 
L 133.543453 84.881129 
L 136.243666 81.877049 
L 138.870247 78.62657 
L 141.352639 75.170606 
L 143.609966 71.570082 
L 145.553665 67.907324 
L 147.091842 64.28533 
L 148.13542 60.824121 
L 148.605744 57.653654 
L 148.442928 54.903408 
L 147.613732 52.689592 
L 146.117515 51.101857 
L 143.988882 50.19203 
L 141.29611 49.967398 
L 138.135324 50.390265 
L 134.621334 51.384031 
L 130.876799 52.844443 
L 127.021657 54.653477 
L 123.164438 56.692987 
L 115.788889 61.052873 
L 109.241117 65.300597 
L 103.725585 69.133947 
L 99.246888 72.490281 
L 95.700002 75.432311 
L 92.935052 78.062282 
L 90.795171 80.475782 
L 89.135292 82.744567 
L 87.829584 84.915123 
L 86.310071 88.040028 
L 82.230484 97.495333 
L 81.230325 99.186988 
L 80.075615 100.799011 
L 78.726072 102.321761 
L 77.138282 103.740727 
L 75.264864 105.033593 
L 73.054459 106.16614 
L 70.45307 107.086662 
L 67.407621 107.718618 
L 65.703698 107.893469 
L 63.873115 107.951569 
L 61.913583 107.872193 
L 59.82532 107.63134 
L 57.611908 107.201613 
L 55.281323 106.552305 
L 52.847122 105.649778 
L 50.329735 104.458271 
L 47.757813 102.941291 
L 45.169476 101.063737 
L 42.613277 98.794883 
L 40.148601 96.11227 
L 37.845185 93.006421 
L 35.781389 89.486065 
L 34.040932 85.583264 
L 32.707957 81.357548 
L 31.860586 76.897932 
L 31.563518 72.32168 
L 31.860643 67.769004 
L 32.768928 63.393596 
L 34.274845 59.349861 
L 36.334269 55.778694 
L 38.876074 52.794236 
L 41.808873 50.474015 
L 45.029665 48.854128 
L 48.432852 47.929934 
L 51.918205 47.661523 
L 55.396844 47.982351 
L 58.79482 48.809132 
L 62.054481 50.051302 
L 65.134055 51.618888 
L 68.006073 53.428212 
L 70.655168 55.40542 
L 73.075701 57.488107 
L 75.26949 59.62553 
L 77.243813 61.77785 
L 79.009733 63.914857 
L 80.580767 66.014459 
L 83.198508 70.044724 
L 85.220657 73.800318 
L 86.766025 77.262553 
L 87.94063 80.438957 
L 89.200526 84.712029 
L 90.065319 88.467635 
L 92.379644 99.642221 
L 93.101474 101.67665 
L 94.017054 103.435867 
L 94.773244 104.449614 
L 95.677973 105.325826 
L 96.764051 106.049766 
L 98.070351 106.599785 
L 99.642829 106.94518 
L 101.535315 107.043309 
L 103.809731 106.835809 
L 106.535128 106.243938 
L 109.784496 105.163314 
L 113.627606 103.459115 
L 115.789543 102.322133 
L 118.117255 100.964234 
L 120.610777 99.360481 
L 123.265352 97.485537 
L 126.069867 95.314994 
L 129.005049 92.827291 
L 132.041461 90.006351 
L 135.137447 86.845011 
L 138.237231 83.349224 
L 141.269521 79.542867 
L 144.147071 75.472715 
L 146.767774 71.212841 
L 149.017893 66.867331 
L 150.77791 62.569941 
L 151.931181 58.47929 
L 152.374992 54.768601 
L 152.032855 51.61003 
L 150.866078 49.155151 
L 148.882193 47.514851 
L 146.137909 46.743015 
L 142.735294 46.828238 
L 138.81142 47.696096 
L 134.52347 49.22164 
L 130.032364 51.248973 
L 125.488084 53.613064 
L 121.019002 56.159079 
L 112.681729 61.303814 
L 105.499703 66.006682 
L 97.109568 71.789121 
L 92.943429 74.890835 
L 89.69578 77.567036 
L 87.165392 79.959202 
L 85.169737 82.17055 
L 83.552541 84.265959 
L 81.558896 87.261808 
L 78.597994 91.913513 
L 77.331038 93.63204 
L 75.931883 95.245331 
L 74.351989 96.730494 
L 72.546435 98.057729 
L 70.473599 99.187525 
L 68.096409 100.066954 
L 65.385693 100.625338 
L 63.899759 100.756101 
L 62.326365 100.769865 
L 60.667434 100.651059 
L 58.927222 100.382523 
L 57.112853 99.945683 
L 55.234909 99.320885 
L 53.308039 98.487951 
L 51.351553 97.426997 
L 49.38994 96.119575 
L 47.453218 94.550156 
L 45.577023 92.707966 
L 43.802302 90.589112 
L 42.174496 88.198877 
L 40.742105 85.553966 
L 39.554587 82.684404 
L 38.659623 79.634706 
L 38.099897 76.463911 
L 37.909676 73.244172 
L 38.111595 70.057699 
L 38.714086 66.99217 
L 39.709894 64.134974 
L 41.075988 61.566986 
L 42.774932 59.356684 
L 44.757581 57.555468 
L 46.966708 56.194789 
L 49.341055 55.285403 
L 51.819274 54.818661 
L 54.34332 54.769427 
L 56.861024 55.10001 
L 59.327726 55.764481 
L 61.707026 56.712797 
L 63.97081 57.894334 
L 66.09873 59.260624 
L 68.077343 60.767243 
L 69.899089 62.374911 
L 71.561222 64.049956 
L 73.06479 65.764296 
L 74.413708 67.495091 
L 76.672961 70.93761 
L 78.400532 74.277741 
L 79.665371 77.461763 
L 80.533931 80.465856 
L 81.064636 83.284306 
L 81.305223 85.921537 
L 81.291852 88.386954 
L 81.049225 90.691665 
L 80.591197 92.846345 
L 79.921553 94.859716 
L 79.03478 96.737293 
L 77.916763 98.480065 
L 76.545457 100.08289 
L 74.891655 101.532317 
L 72.920149 102.803586 
L 70.591716 103.856537 
L 67.866639 104.630247 
L 66.344233 104.886071 
L 64.710785 105.036467 
L 62.964541 105.064972 
L 61.105647 104.95259 
L 59.13679 104.677711 
L 57.063956 104.216155 
L 54.897308 103.54143 
L 52.652142 102.625265 
L 50.34989 101.43854 
L 48.019092 99.952687 
L 45.696196 98.14169 
L 43.426049 95.984704 
L 41.261839 93.469291 
L 39.264267 90.595126 
L 37.499728 87.377858 
L 36.037323 83.852623 
L 34.944722 80.076526 
L 34.283056 76.129315 
L 34.101342 72.111544 
L 34.431151 68.139805 
L 35.282405 64.33914 
L 36.641121 60.833353 
L 38.469664 57.734582 
L 40.709597 55.133763 
L 43.286713 53.093573 
L 46.117408 51.644914 
L 49.115364 50.787259 
L 52.19758 50.492384 
L 55.289074 50.710452 
L 58.325922 51.377178 
L 61.256699 52.420909 
L 64.042549 53.768742 
L 66.656303 55.351214 
L 69.081014 57.105443 
L 71.308231 58.976852 
L 73.336264 60.919758 
L 75.16858 62.897146 
L 76.812401 64.879924 
L 76.812401 64.879924 
" clip-path="url(#p89408c9138)" style="fill: none; stroke: #ff7f0e; stroke-opacity: 0.5; stroke-width: 1.5; stroke-linecap: round"/>
   </g>
  </g>
 </g>
 <defs>
  <clipPath id="p89408c9138">
   <rect x="-1.8" y="-7.2" width="176.4" height="176.4"/>
  </clipPath>
 </defs>
</svg>
