<?xml version="1.0" encoding="utf-8" standalone="no"?>
<!DOCTYPE svg PUBLIC "-//W3C//DTD SVG 1.1//EN"
  "http://www.w3.org/Graphics/SVG/1.1/DTD/svg11.dtd">
<svg xmlns:xlink="http://www.w3.org/1999/xlink" width="216pt" height="180pt" viewBox="0 0 216 180" xmlns="http://www.w3.org/2000/svg" version="1.1">
 <metadata>
  <rdf:RDF xmlns:dc="http://purl.org/dc/elements/1.1/" xmlns:cc="http://creativecommons.org/ns#" xmlns:rdf="http://www.w3.org/1999/02/22-rdf-syntax-ns#">
   <cc:Work>
    <dc:type rdf:resource="http://purl.org/dc/dcmitype/StillImage"/>
    <dc:date>2023-06-14T18:51:03.053453</dc:date>
    <dc:format>image/svg+xml</dc:format>
    <dc:creator>
     <cc:Agent>
      <dc:title>Matplotlib v3.7.0, https://matplotlib.org/</dc:title>
     </cc:Agent>
    </dc:creator>
   </cc:Work>
  </rdf:RDF>
 </metadata>
 <defs>
  <style type="text/css">*{stroke-linejoin: round; stroke-linecap: butt}</style>
 </defs>
 <g id="figure_1">
  <g id="patch_1">
   <path d="M 0 180 
L 216 180 
L 216 0 
L 0 0 
z
" style="fill: #ffffff"/>
  </g>
  <g id="patch_2">
   <path d="M -1 169.2 
L 174.6 169.2 
L 174.6 -1 
" style="fill: none"/>
  </g>
  <g id="pane3d_1">
   <g id="patch_3">
    <path d="M 11.519416 125.705413 
L 69.772457 76.876559 
L 68.962684 6.456623 
L 7.921935 51.001381 
" style="fill: none; opacity: 0.5; stroke: #f2f2f2; stroke-linejoin: miter"/>
   </g>
  </g>
  <g id="pane3d_2">
   <g id="patch_4">
    <path d="M 69.772457 76.876559 
L 163.247803 104.046152 
L 166.583609 31.200681 
L 68.962684 6.456623 
" style="fill: none; opacity: 0.5; stroke: #e6e6e6; stroke-linejoin: miter"/>
   </g>
  </g>
  <g id="pane3d_3">
   <g id="patch_5">
    <path d="M 11.519416 125.705413 
L 110.607849 158.067695 
L 163.247803 104.046152 
L 69.772457 76.876559 
" style="fill: none; opacity: 0.5; stroke: #ececec; stroke-linejoin: miter"/>
   </g>
  </g>
  <g id="axis3d_1">
   <g id="line2d_1">
    <path d="M 11.519416 125.705413 
L 110.607849 158.067695 
" style="fill: none; stroke: #ffffff; stroke-width: 0.8; stroke-linecap: round"/>
   </g>
   <g id="text_1">
    <!-- x -->
    <g style="fill: #262626" transform="translate(40.437569 179.640981) scale(0.1 -0.1)">
     <defs>
      <path id="DejaVuSans-78" d="M 3513 3500 
L 2247 1797 
L 3578 0 
L 2900 0 
L 1881 1375 
L 863 0 
L 184 0 
L 1544 1831 
L 300 3500 
L 978 3500 
L 1906 2253 
L 2834 3500 
L 3513 3500 
z
" transform="scale(0.015625)"/>
     </defs>
     <use xlink:href="#DejaVuSans-78"/>
    </g>
   </g>
   <g id="Line3DCollection_1">
    <path d="M 34.923787 133.349281 
L 91.925576 83.315596 
L 92.061036 12.311381 
" style="fill: none; stroke: #d3d3d3; stroke-width: 0.8"/>
    <path d="M 60.041811 141.552827 
L 115.649328 90.211154 
L 116.822665 18.587733 
" style="fill: none; stroke: #d3d3d3; stroke-width: 0.8"/>
    <path d="M 85.850096 149.981813 
L 139.969775 97.280148 
L 142.234652 25.028931 
" style="fill: none; stroke: #d3d3d3; stroke-width: 0.8"/>
   </g>
   <g id="xtick_1">
    <g id="line2d_2">
     <path d="M 88.783784 78.616216 
" clip-path="url(#p5a71b08b66)" style="fill: none; stroke: #d3d3d3; stroke-width: 0.8; stroke-linecap: round"/>
    </g>
    <g id="line2d_3">
     <path d="M 35.420538 132.913254 
L 33.928134 134.223221 
" style="fill: none; stroke: #808080; stroke-width: 0.8; stroke-linecap: round"/>
    </g>
    <g id="text_2">
     <!-- −10 -->
     <g style="fill: #808080" transform="translate(16.854926 156.870491) scale(0.1 -0.1)">
      <defs>
       <path id="DejaVuSans-2212" d="M 678 2272 
L 4684 2272 
L 4684 1741 
L 678 1741 
L 678 2272 
z
" transform="scale(0.015625)"/>
       <path id="DejaVuSans-31" d="M 794 531 
L 1825 531 
L 1825 4091 
L 703 3866 
L 703 4441 
L 1819 4666 
L 2450 4666 
L 2450 531 
L 3481 531 
L 3481 0 
L 794 0 
L 794 531 
z
" transform="scale(0.015625)"/>
       <path id="DejaVuSans-30" d="M 2034 4250 
Q 1547 4250 1301 3770 
Q 1056 3291 1056 2328 
Q 1056 1369 1301 889 
Q 1547 409 2034 409 
Q 2525 409 2770 889 
Q 3016 1369 3016 2328 
Q 3016 3291 2770 3770 
Q 2525 4250 2034 4250 
z
M 2034 4750 
Q 2819 4750 3233 4129 
Q 3647 3509 3647 2328 
Q 3647 1150 3233 529 
Q 2819 -91 2034 -91 
Q 1250 -91 836 529 
Q 422 1150 422 2328 
Q 422 3509 836 4129 
Q 1250 4750 2034 4750 
z
" transform="scale(0.015625)"/>
      </defs>
      <use xlink:href="#DejaVuSans-2212"/>
      <use xlink:href="#DejaVuSans-31" x="83.789062"/>
      <use xlink:href="#DejaVuSans-30" x="147.412109"/>
     </g>
    </g>
   </g>
   <g id="xtick_2">
    <g id="line2d_4">
     <path d="M 88.783784 78.616216 
" clip-path="url(#p5a71b08b66)" style="fill: none; stroke: #d3d3d3; stroke-width: 0.8; stroke-linecap: round"/>
    </g>
    <g id="line2d_5">
     <path d="M 60.52695 141.104906 
L 59.069405 142.450637 
" style="fill: none; stroke: #808080; stroke-width: 0.8; stroke-linecap: round"/>
    </g>
    <g id="text_3">
     <!-- 0 -->
     <g style="fill: #808080" transform="translate(49.385989 165.338262) scale(0.1 -0.1)">
      <use xlink:href="#DejaVuSans-30"/>
     </g>
    </g>
   </g>
   <g id="xtick_3">
    <g id="line2d_6">
     <path d="M 88.783784 78.616216 
" clip-path="url(#p5a71b08b66)" style="fill: none; stroke: #d3d3d3; stroke-width: 0.8; stroke-linecap: round"/>
    </g>
    <g id="line2d_7">
     <path d="M 86.322793 149.521502 
L 84.9026 150.904484 
" style="fill: none; stroke: #808080; stroke-width: 0.8; stroke-linecap: round"/>
    </g>
    <g id="text_4">
     <!-- 10 -->
     <g style="fill: #808080" transform="translate(72.060151 174.040089) scale(0.1 -0.1)">
      <use xlink:href="#DejaVuSans-31"/>
      <use xlink:href="#DejaVuSans-30" x="63.623047"/>
     </g>
    </g>
   </g>
  </g>
  <g id="axis3d_2">
   <g id="line2d_8">
    <path d="M 163.247803 104.046152 
L 110.607849 158.067695 
" style="fill: none; stroke: #ffffff; stroke-width: 0.8; stroke-linecap: round"/>
   </g>
   <g id="text_5">
    <!-- y -->
    <g style="fill: #262626" transform="translate(162.133934 160.636398) scale(0.1 -0.1)">
     <defs>
      <path id="DejaVuSans-79" d="M 2059 -325 
Q 1816 -950 1584 -1140 
Q 1353 -1331 966 -1331 
L 506 -1331 
L 506 -850 
L 844 -850 
Q 1081 -850 1212 -737 
Q 1344 -625 1503 -206 
L 1606 56 
L 191 3500 
L 800 3500 
L 1894 763 
L 2988 3500 
L 3597 3500 
L 2059 -325 
z
" transform="scale(0.015625)"/>
     </defs>
     <use xlink:href="#DejaVuSans-79"/>
    </g>
   </g>
   <g id="Line3DCollection_2">
    <path d="M 15.377505 45.560646 
L 18.61081 119.761266 
L 117.040827 151.465877 
" style="fill: none; stroke: #d3d3d3; stroke-width: 0.8"/>
    <path d="M 28.084372 36.287754 
L 30.712144 109.617689 
L 128.002605 140.216396 
" style="fill: none; stroke: #d3d3d3; stroke-width: 0.8"/>
    <path d="M 40.343837 27.341354 
L 42.405531 99.816059 
L 138.575753 129.365745 
" style="fill: none; stroke: #d3d3d3; stroke-width: 0.8"/>
    <path d="M 52.179122 18.704502 
L 53.71126 90.339374 
L 148.780579 118.893083 
" style="fill: none; stroke: #d3d3d3; stroke-width: 0.8"/>
    <path d="M 63.611867 10.361406 
L 64.648292 81.171736 
L 158.635998 108.778999 
" style="fill: none; stroke: #d3d3d3; stroke-width: 0.8"/>
   </g>
   <g id="xtick_4">
    <g id="line2d_9">
     <path d="M 88.783784 78.616216 
" clip-path="url(#p5a71b08b66)" style="fill: none; stroke: #d3d3d3; stroke-width: 0.8; stroke-linecap: round"/>
    </g>
    <g id="line2d_10">
     <path d="M 116.211546 151.198763 
L 118.701523 152.000792 
" style="fill: none; stroke: #808080; stroke-width: 0.8; stroke-linecap: round"/>
    </g>
    <g id="text_6">
     <!-- −20 -->
     <g style="fill: #808080" transform="translate(119.316572 172.427656) scale(0.1 -0.1)">
      <defs>
       <path id="DejaVuSans-32" d="M 1228 531 
L 3431 531 
L 3431 0 
L 469 0 
L 469 531 
Q 828 903 1448 1529 
Q 2069 2156 2228 2338 
Q 2531 2678 2651 2914 
Q 2772 3150 2772 3378 
Q 2772 3750 2511 3984 
Q 2250 4219 1831 4219 
Q 1534 4219 1204 4116 
Q 875 4013 500 3803 
L 500 4441 
Q 881 4594 1212 4672 
Q 1544 4750 1819 4750 
Q 2544 4750 2975 4387 
Q 3406 4025 3406 3419 
Q 3406 3131 3298 2873 
Q 3191 2616 2906 2266 
Q 2828 2175 2409 1742 
Q 1991 1309 1228 531 
z
" transform="scale(0.015625)"/>
      </defs>
      <use xlink:href="#DejaVuSans-2212"/>
      <use xlink:href="#DejaVuSans-32" x="83.789062"/>
      <use xlink:href="#DejaVuSans-30" x="147.412109"/>
     </g>
    </g>
   </g>
   <g id="xtick_5">
    <g id="line2d_11">
     <path d="M 88.783784 78.616216 
" clip-path="url(#p5a71b08b66)" style="fill: none; stroke: #d3d3d3; stroke-width: 0.8; stroke-linecap: round"/>
    </g>
    <g id="line2d_12">
     <path d="M 127.183671 139.958834 
L 129.642543 140.732171 
" style="fill: none; stroke: #808080; stroke-width: 0.8; stroke-linecap: round"/>
    </g>
    <g id="text_7">
     <!-- −10 -->
     <g style="fill: #808080" transform="translate(130.056325 160.926866) scale(0.1 -0.1)">
      <use xlink:href="#DejaVuSans-2212"/>
      <use xlink:href="#DejaVuSans-31" x="83.789062"/>
      <use xlink:href="#DejaVuSans-30" x="147.412109"/>
     </g>
    </g>
   </g>
   <g id="xtick_6">
    <g id="line2d_13">
     <path d="M 88.783784 78.616216 
" clip-path="url(#p5a71b08b66)" style="fill: none; stroke: #d3d3d3; stroke-width: 0.8; stroke-linecap: round"/>
    </g>
    <g id="line2d_14">
     <path d="M 137.76696 129.117231 
L 140.195347 129.863388 
" style="fill: none; stroke: #808080; stroke-width: 0.8; stroke-linecap: round"/>
    </g>
    <g id="text_8">
     <!-- 0 -->
     <g style="fill: #808080" transform="translate(147.786083 149.834168) scale(0.1 -0.1)">
      <use xlink:href="#DejaVuSans-30"/>
     </g>
    </g>
   </g>
   <g id="xtick_7">
    <g id="line2d_15">
     <path d="M 88.783784 78.616216 
" clip-path="url(#p5a71b08b66)" style="fill: none; stroke: #d3d3d3; stroke-width: 0.8; stroke-linecap: round"/>
    </g>
    <g id="line2d_16">
     <path d="M 147.981723 118.65315 
L 150.380239 119.373535 
" style="fill: none; stroke: #808080; stroke-width: 0.8; stroke-linecap: round"/>
    </g>
    <g id="text_9">
     <!-- 10 -->
     <g style="fill: #808080" transform="translate(154.602338 139.128222) scale(0.1 -0.1)">
      <use xlink:href="#DejaVuSans-31"/>
      <use xlink:href="#DejaVuSans-30" x="63.623047"/>
     </g>
    </g>
   </g>
   <g id="xtick_8">
    <g id="line2d_17">
     <path d="M 88.783784 78.616216 
" clip-path="url(#p5a71b08b66)" style="fill: none; stroke: #d3d3d3; stroke-width: 0.8; stroke-linecap: round"/>
    </g>
    <g id="line2d_18">
     <path d="M 157.846879 108.547208 
L 160.216128 109.243134 
" style="fill: none; stroke: #808080; stroke-width: 0.8; stroke-linecap: round"/>
    </g>
    <g id="text_10">
     <!-- 20 -->
     <g style="fill: #808080" transform="translate(164.25725 128.789146) scale(0.1 -0.1)">
      <use xlink:href="#DejaVuSans-32"/>
      <use xlink:href="#DejaVuSans-30" x="63.623047"/>
     </g>
    </g>
   </g>
  </g>
  <g id="axis3d_3">
   <g id="line2d_19">
    <path d="M 163.247803 104.046152 
L 166.583609 31.200681 
" style="fill: none; stroke: #ffffff; stroke-width: 0.8; stroke-linecap: round"/>
   </g>
   <g id="text_11">
    <!-- z -->
    <g style="fill: #262626" transform="translate(202.494937 65.789607) scale(0.1 -0.1)">
     <defs>
      <path id="DejaVuSans-7a" d="M 353 3500 
L 3084 3500 
L 3084 2975 
L 922 459 
L 3084 459 
L 3084 0 
L 275 0 
L 275 525 
L 2438 3041 
L 353 3041 
L 353 3500 
z
" transform="scale(0.015625)"/>
     </defs>
     <use xlink:href="#DejaVuSans-7a"/>
    </g>
   </g>
   <g id="Line3DCollection_3">
    <path d="M 163.472347 99.142702 
L 69.717842 72.127038 
L 11.27764 120.68476 
" style="fill: none; stroke: #d3d3d3; stroke-width: 0.8"/>
    <path d="M 164.370623 79.526644 
L 69.499509 53.14027 
L 10.309872 100.58844 
" style="fill: none; stroke: #d3d3d3; stroke-width: 0.8"/>
    <path d="M 165.290769 59.432999 
L 69.276118 33.713612 
L 9.317631 79.983915 
" style="fill: none; stroke: #d3d3d3; stroke-width: 0.8"/>
    <path d="M 166.233594 38.844111 
L 69.047491 13.831599 
L 8.299977 58.851661 
" style="fill: none; stroke: #d3d3d3; stroke-width: 0.8"/>
   </g>
   <g id="xtick_9">
    <g id="line2d_20">
     <path d="M 88.783784 78.616216 
" style="fill: none; stroke: #d3d3d3; stroke-width: 0.8; stroke-linecap: round"/>
    </g>
    <g id="line2d_21">
     <path d="M 162.685377 98.915934 
L 165.048163 99.596779 
" style="fill: none; stroke: #808080; stroke-width: 0.8; stroke-linecap: round"/>
    </g>
    <g id="text_12">
     <!-- 10 -->
     <g style="fill: #808080" transform="translate(175.384381 104.154512) scale(0.1 -0.1)">
      <use xlink:href="#DejaVuSans-31"/>
      <use xlink:href="#DejaVuSans-30" x="63.623047"/>
     </g>
    </g>
   </g>
   <g id="xtick_10">
    <g id="line2d_22">
     <path d="M 88.783784 78.616216 
" style="fill: none; stroke: #d3d3d3; stroke-width: 0.8; stroke-linecap: round"/>
    </g>
    <g id="line2d_23">
     <path d="M 163.573831 79.305034 
L 165.96613 79.9704 
" style="fill: none; stroke: #808080; stroke-width: 0.8; stroke-linecap: round"/>
    </g>
    <g id="text_13">
     <!-- 20 -->
     <g style="fill: #808080" transform="translate(176.497319 84.597406) scale(0.1 -0.1)">
      <use xlink:href="#DejaVuSans-32"/>
      <use xlink:href="#DejaVuSans-30" x="63.623047"/>
     </g>
    </g>
   </g>
   <g id="xtick_11">
    <g id="line2d_24">
     <path d="M 88.783784 78.616216 
" style="fill: none; stroke: #d3d3d3; stroke-width: 0.8; stroke-linecap: round"/>
    </g>
    <g id="line2d_25">
     <path d="M 164.483908 59.216866 
L 166.906464 59.865794 
" style="fill: none; stroke: #808080; stroke-width: 0.8; stroke-linecap: round"/>
    </g>
    <g id="text_14">
     <!-- 30 -->
     <g style="fill: #808080" transform="translate(177.637228 64.566357) scale(0.1 -0.1)">
      <defs>
       <path id="DejaVuSans-33" d="M 2597 2516 
Q 3050 2419 3304 2112 
Q 3559 1806 3559 1356 
Q 3559 666 3084 287 
Q 2609 -91 1734 -91 
Q 1441 -91 1130 -33 
Q 819 25 488 141 
L 488 750 
Q 750 597 1062 519 
Q 1375 441 1716 441 
Q 2309 441 2620 675 
Q 2931 909 2931 1356 
Q 2931 1769 2642 2001 
Q 2353 2234 1838 2234 
L 1294 2234 
L 1294 2753 
L 1863 2753 
Q 2328 2753 2575 2939 
Q 2822 3125 2822 3475 
Q 2822 3834 2567 4026 
Q 2313 4219 1838 4219 
Q 1578 4219 1281 4162 
Q 984 4106 628 3988 
L 628 4550 
Q 988 4650 1302 4700 
Q 1616 4750 1894 4750 
Q 2613 4750 3031 4423 
Q 3450 4097 3450 3541 
Q 3450 3153 3228 2886 
Q 3006 2619 2597 2516 
z
" transform="scale(0.015625)"/>
      </defs>
      <use xlink:href="#DejaVuSans-33"/>
      <use xlink:href="#DejaVuSans-30" x="63.623047"/>
     </g>
    </g>
   </g>
   <g id="xtick_12">
    <g id="line2d_26">
     <path d="M 88.783784 78.616216 
" style="fill: none; stroke: #d3d3d3; stroke-width: 0.8; stroke-linecap: round"/>
    </g>
    <g id="line2d_27">
     <path d="M 165.416405 38.633793 
L 167.869994 39.265266 
" style="fill: none; stroke: #808080; stroke-width: 0.8; stroke-linecap: round"/>
    </g>
    <g id="text_15">
     <!-- 40 -->
     <g style="fill: #808080" transform="translate(178.8051 44.043926) scale(0.1 -0.1)">
      <defs>
       <path id="DejaVuSans-34" d="M 2419 4116 
L 825 1625 
L 2419 1625 
L 2419 4116 
z
M 2253 4666 
L 3047 4666 
L 3047 1625 
L 3713 1625 
L 3713 1100 
L 3047 1100 
L 3047 0 
L 2419 0 
L 2419 1100 
L 313 1100 
L 313 1709 
L 2253 4666 
z
" transform="scale(0.015625)"/>
      </defs>
      <use xlink:href="#DejaVuSans-34"/>
      <use xlink:href="#DejaVuSans-30" x="63.623047"/>
     </g>
    </g>
   </g>
  </g>
  <g id="axes_1">
   <g id="line2d_28">
    <path d="M 125.194926 106.830065 
L 130.237701 101.021311 
L 132.928851 97.727655 
L 135.686539 94.163266 
L 138.465803 90.330853 
L 141.213061 86.246045 
L 143.865895 81.940811 
L 146.353025 77.46663 
L 148.594475 72.896969 
L 150.502004 68.328505 
L 151.980205 63.880315 
L 152.929038 59.690105 
L 153.248902 55.906534 
L 152.849322 52.677043 
L 151.661455 50.131677 
L 149.652866 48.365094 
L 146.840898 47.420795 
L 143.299692 47.282413 
L 139.156917 47.875574 
L 134.579613 49.080538 
L 129.752716 50.752036 
L 124.856285 52.740585 
L 120.047146 54.910078 
L 115.448065 57.148741 
L 107.187728 61.527753 
L 100.381299 65.513221 
L 94.98548 69.025309 
L 90.794242 72.119584 
L 87.557657 74.889684 
L 85.039177 77.421112 
L 83.036338 79.776226 
L 80.646616 83.058097 
L 76.680156 88.856046 
L 75.307396 90.547004 
L 73.812971 92.094113 
L 72.151626 93.475189 
L 70.28426 94.660791 
L 68.178113 95.612044 
L 65.808529 96.278057 
L 63.162594 96.593395 
L 61.736542 96.594683 
L 60.244905 96.476395 
L 58.692312 96.225869 
L 57.0856 95.829718 
L 55.434153 95.27412 
L 53.750236 94.545257 
L 52.049298 93.629912 
L 50.350223 92.516247 
L 48.675471 91.194783 
L 47.051089 89.659558 
L 45.506514 87.909456 
L 44.074145 85.949622 
L 42.788606 83.792876 
L 41.685682 81.46095 
L 40.800886 78.985385 
L 40.167694 76.407832 
L 39.815482 73.779547 
L 39.767318 71.159908 
L 40.037798 68.613877 
L 40.631191 66.208502 
L 41.540199 64.008751 
L 42.745592 62.073143 
L 44.216891 60.449747 
L 45.914103 59.173116 
L 47.79032 58.262577 
L 49.794855 57.722038 
L 51.876485 57.541235 
L 53.986387 57.698067 
L 56.080476 58.161586 
L 58.120968 58.895149 
L 60.077155 59.859377 
L 61.925494 61.014631 
L 63.649177 62.322901 
L 65.237351 63.749104 
L 66.684169 65.261829 
L 67.987789 66.833668 
L 69.149426 68.441218 
L 70.172502 70.064872 
L 71.823504 73.298942 
L 72.988122 76.440832 
L 73.715642 79.431367 
L 74.049879 82.235812 
L 74.025719 84.834817 
L 73.668036 87.217547 
L 72.991986 89.376476 
L 72.004086 91.303264 
L 70.703859 92.98524 
L 69.086061 94.402141 
L 67.14367 95.522921 
L 66.049052 95.958838 
L 64.871985 96.302618 
L 63.613164 96.546015 
L 62.27423 96.679627 
L 60.858054 96.692893 
L 59.369055 96.574145 
L 57.81354 96.310734 
L 56.200072 95.889262 
L 54.539832 95.295924 
L 52.846984 94.517017 
L 51.138983 93.53962 
L 49.436817 92.352465 
L 47.765133 90.947028 
L 46.152193 89.3188 
L 44.62961 87.468712 
L 43.231819 85.404642 
L 41.995209 83.142854 
L 40.95691 80.709216 
L 40.153186 78.139965 
L 39.61749 75.481781 
L 39.378249 72.790931 
L 39.456543 70.131341 
L 39.863921 67.57157 
L 40.60065 65.180836 
L 41.654705 63.024507 
L 43.00178 61.159573 
L 44.606409 59.63075 
L 46.424173 58.467765 
L 48.404688 57.684175 
L 50.495 57.277806 
L 52.642907 57.232586 
L 54.799818 57.521349 
L 56.922875 58.10912 
L 58.976239 58.956384 
L 60.93157 60.022003 
L 62.767853 61.265552 
L 64.470755 62.649017 
L 66.031703 64.137873 
L 67.44685 65.70165 
L 68.716035 67.314095 
L 69.841838 68.953048 
L 71.68248 72.240431 
L 73.016189 75.455077 
L 73.895174 78.528842 
L 74.367374 81.421688 
L 74.472034 84.111662 
L 74.238102 86.587317 
L 73.684232 88.842047 
L 72.819678 90.869722 
L 71.645742 92.66107 
L 70.157725 94.200416 
L 68.347509 95.462474 
L 67.318945 95.978199 
L 66.207073 96.409132 
L 65.011702 96.747995 
L 63.733346 96.986346 
L 62.373483 97.114537 
L 60.934846 97.121705 
L 59.421747 96.995815 
L 57.840433 96.723791 
L 56.199467 96.291735 
L 54.510108 95.685286 
L 52.786693 94.890128 
L 51.046962 93.892688 
L 49.312322 92.681047 
L 47.607986 91.246056 
L 45.962938 89.58267 
L 44.409679 87.691442 
L 42.983679 85.580104 
L 41.722498 83.265095 
L 40.66452 80.77286 
L 39.847292 78.140676 
L 39.305483 75.416756 
L 39.068565 72.659367 
L 39.158373 69.934815 
L 39.586792 67.314239 
L 40.353918 64.869431 
L 41.446995 62.668047 
L 42.840442 60.768847 
L 44.497073 59.2176 
L 46.370454 58.044277 
L 48.408089 57.261899 
L 50.555018 56.867086 
L 52.757298 56.842096 
L 54.964983 57.157846 
L 57.13429 57.777405 
L 59.228874 58.659435 
L 61.22026 59.761211 
L 63.08759 61.041023 
L 64.816899 62.459874 
L 66.400117 63.98255 
L 67.833966 65.578138 
L 69.118878 67.220145 
L 70.258006 68.886331 
L 72.120185 72.221415 
L 73.471567 75.475767 
L 74.367145 78.582924 
L 74.856865 81.504696 
L 74.981358 84.220966 
L 74.770467 86.722088 
L 74.243343 89.003259 
L 73.409358 91.060227 
L 72.269526 92.885761 
L 70.818343 94.466446 
L 69.046201 95.779529 
L 68.036427 96.325252 
L 66.942659 96.789645 
L 65.764208 97.165778 
L 64.50099 97.445536 
L 63.153778 97.619556 
L 61.724485 97.677187 
L 60.216481 97.606506 
L 58.634954 97.394393 
L 56.987292 97.026705 
L 55.283492 96.488567 
L 53.536561 95.764811 
L 51.762898 94.840605 
L 49.982618 93.702284 
L 48.219772 92.33842 
L 46.502423 90.741113 
L 44.862505 88.907505 
L 43.335424 86.841423 
L 41.959316 84.555061 
L 40.773927 82.070527 
L 39.819066 79.421019 
L 39.132638 76.651354 
L 38.74831 73.817589 
L 38.692945 70.985463 
L 38.984038 68.227567 
L 39.627461 65.619321 
L 40.615903 63.234074 
L 41.928344 61.137907 
L 43.530792 59.384855 
L 45.378301 58.013256 
L 47.41807 57.043763 
L 49.593164 56.479227 
L 51.846361 56.306311 
L 54.123582 56.49841 
L 56.376559 57.019277 
L 58.56454 57.826786 
L 60.655044 58.876358 
L 62.623818 60.123763 
L 64.454194 61.527181 
L 66.136095 63.048538 
L 67.664863 64.654219 
L 69.040092 66.3153 
L 70.264531 68.007438 
L 71.343139 69.71054 
L 73.089152 73.087806 
L 74.335793 76.353615 
L 75.140578 79.452466 
L 75.553555 82.354212 
L 75.614141 85.044469 
L 75.350333 87.517605 
L 74.779162 89.771615 
L 73.907783 91.804195 
L 72.734937 93.609451 
L 71.252776 95.174845 
L 69.449219 96.47807 
L 67.311166 97.483726 
L 66.113406 97.85947 
L 64.829013 98.139863 
L 63.458375 98.315305 
L 62.00302 98.374822 
L 60.465946 98.306066 
L 58.851994 98.095377 
L 57.168252 97.727938 
L 55.424487 97.188052 
L 53.633575 96.459576 
L 51.811922 95.526548 
L 49.979825 94.374036 
L 48.161735 92.989232 
L 46.386372 91.362813 
L 44.686627 89.490526 
L 43.099184 87.374955 
L 41.663797 85.027353 
L 40.422155 82.469357 
L 39.416293 79.734348 
L 38.686537 76.868148 
L 38.26903 73.928755 
L 38.19298 70.984813 
L 38.477858 68.112685 
L 39.130905 65.39218 
L 40.145345 62.901274 
L 41.499715 60.71045 
L 43.158573 58.877446 
L 45.074635 57.443214 
L 47.192108 56.429711 
L 49.450742 55.839757 
L 51.790011 55.658809 
L 54.152849 55.858171 
L 56.488527 56.398972 
L 58.754463 57.236264 
L 60.916995 58.322727 
L 62.951271 59.611664 
L 64.840513 61.059167 
L 66.574894 62.625497 
L 68.150266 64.275779 
L 69.566884 65.980194 
L 70.82824 67.713812 
L 71.940054 69.456199 
L 73.744278 72.904988 
L 75.042584 76.233354 
L 75.896916 79.38728 
L 76.360813 82.338684 
L 76.47639 85.075522 
L 76.273685 87.594706 
L 75.771209 89.897026 
L 74.977047 91.983343 
L 73.890239 93.851464 
L 72.502396 95.493258 
L 70.799718 96.891695 
L 68.765676 98.017579 
L 67.619392 98.464986 
L 66.384837 98.825963 
L 65.061154 99.091823 
L 63.648361 99.252454 
L 62.147659 99.296256 
L 60.561783 99.210124 
L 58.895398 98.979497 
L 57.155537 98.588511 
L 55.352066 98.020269 
L 53.498155 97.257297 
L 51.610743 96.282192 
L 49.710939 95.078523 
L 47.824329 93.632015 
L 45.981119 91.932004 
L 44.216056 89.973185 
L 42.568043 87.757547 
L 41.079384 85.296414 
L 39.794569 82.612365 
L 38.75856 79.740776 
L 38.014553 76.730638 
L 37.601261 73.644288 
L 37.549867 70.555726 
L 37.880923 67.547333 
L 38.601571 64.705076 
L 39.703595 62.112577 
L 41.162726 59.844796 
L 42.939541 57.962233 
L 44.981967 56.506594 
L 47.229109 55.498582 
L 49.615833 54.938051 
L 52.077391 54.806287 
L 54.553472 55.069812 
L 56.991203 55.684915 
L 59.346932 56.602194 
L 61.586852 57.770538 
L 63.686686 59.140258 
L 65.63072 60.665257 
L 67.410488 62.304334 
L 69.023328 64.021766 
L 70.470986 65.787367 
L 71.758374 67.576192 
L 72.892506 69.368046 
L 74.734702 72.90023 
L 76.06812 76.294765 
L 76.960193 79.502045 
L 77.468401 82.498192 
L 77.637691 85.275057 
L 77.500169 87.83324 
L 77.075846 90.177221 
L 76.373809 92.311811 
L 75.393539 94.239313 
L 74.126311 95.956936 
L 72.556812 97.454125 
L 70.665215 98.709526 
L 68.430126 99.687459 
L 67.177687 100.056328 
L 65.832928 100.333912 
L 64.39501 100.509916 
L 62.864217 100.572417 
L 61.242321 100.507808 
L 59.532996 100.300803 
L 57.742283 99.934532 
L 55.879097 99.390771 
L 53.955754 98.65033 
L 51.988508 97.693669 
L 49.998035 96.501771 
L 48.009841 95.057323 
L 46.054523 93.34623 
L 44.1678 91.359464 
L 42.390253 89.095193 
L 40.766665 86.561104 
L 39.344884 83.776695 
L 38.174122 80.775282 
L 37.302651 77.605318 
L 36.774901 74.3306 
L 36.628089 71.028927 
L 36.888628 67.788928 
L 37.568753 64.705011 
L 38.663919 61.870792 
L 40.151547 59.371796 
L 41.991576 57.278484 
L 44.128955 55.640799 
L 46.497812 54.485114 
L 49.02666 53.813993 
L 51.643814 53.608559 
L 54.282191 53.832774 
L 56.882922 54.438685 
L 59.397518 55.371726 
L 61.788649 56.575378 
L 64.029784 57.994804 
L 66.104074 59.579353 
L 68.002807 61.284014 
L 69.723739 63.070034 
L 71.269485 64.904931 
L 72.646101 66.762101 
L 73.86189 68.620221 
L 75.850002 72.276198 
L 77.314607 75.781471 
L 78.33221 79.087163 
L 78.967979 82.171684 
L 79.273319 85.030013 
L 79.285816 87.666463 
L 79.030204 90.08984 
L 78.519664 92.310102 
L 77.757119 94.335872 
L 76.736435 96.172325 
L 75.44357 97.819084 
L 73.857838 99.267842 
L 71.953577 100.499457 
L 69.702614 101.480329 
L 67.078124 102.158013 
L 65.619213 102.360404 
L 64.060639 102.456288 
L 62.402593 102.431648 
L 60.647057 102.270485 
L 58.798294 101.95483 
L 56.863406 101.464863 
L 54.852936 100.779203 
L 52.781492 99.875414 
L 50.668373 98.730781 
L 48.538124 97.323431 
L 46.420986 95.63384 
L 44.353141 93.646757 
L 42.376672 91.353543 
L 40.53913 88.754837 
L 38.8926 85.863405 
L 37.492152 82.706871 
L 36.393571 79.329937 
L 35.650337 75.795559 
L 35.309882 72.184492 
L 35.409333 68.592705 
L 35.971178 65.126375 
L 36.999478 61.894655 
L 38.477415 59.000931 
L 40.366892 56.533874 
L 42.61059 54.559793 
L 45.136372 53.117707 
L 47.863366 52.217928 
L 50.708674 51.844139 
L 53.593595 51.958227 
L 56.448468 52.506642 
L 59.215708 53.427036 
L 61.851013 54.654191 
L 64.323082 56.124669 
L 66.61228 57.779983 
L 68.70876 59.568436 
L 70.610393 61.445853 
L 72.320796 63.375553 
L 73.847592 65.327829 
L 75.200981 67.27916 
L 77.434733 71.110594 
L 79.119001 74.772725 
L 80.345059 78.216106 
L 81.190914 81.42123 
L 81.719075 84.386497 
L 81.976921 87.120426 
L 81.998135 89.636735 
L 81.804357 91.95122 
L 81.406717 94.079703 
L 80.807067 96.036575 
L 79.998927 97.833579 
L 78.968161 99.478585 
L 77.693526 100.974134 
L 76.147228 102.315523 
L 74.295753 103.488204 
L 72.101351 104.464247 
L 69.524726 105.197671 
L 66.529728 105.618576 
L 64.866732 105.681802 
L 63.091122 105.626437 
L 61.203417 105.434078 
L 59.206607 105.083749 
L 57.106816 104.551938 
L 54.914055 103.812813 
L 52.643015 102.838693 
L 50.313889 101.600846 
L 47.953142 100.070713 
L 45.59418 98.221642 
L 43.2778 96.031198 
L 41.052325 93.484066 
L 38.973278 90.575513 
L 37.102458 87.315207 
L 35.506242 83.73109 
L 34.252954 79.872739 
L 33.409164 75.813504 
L 33.034906 71.650503 
L 33.178006 67.501653 
L 33.868068 63.499187 
L 35.111049 59.779791 
L 36.88563 56.47242 
L 39.142556 53.685762 
L 41.807628 51.497764 
L 44.788129 49.949369 
L 47.981591 49.043578 
L 51.285174 48.749566 
L 54.603937 49.01043 
L 57.856797 49.752533 
L 60.979706 50.894603 
L 63.926287 52.355255 
L 66.666566 54.058376 
L 69.184577 55.936361 
L 71.475498 57.931563 
L 73.542822 59.996445 
L 75.39584 62.092918 
L 77.047565 64.191231 
L 78.513116 66.268719 
L 80.949874 70.298582 
L 82.831894 74.098448 
L 84.272368 77.631685 
L 85.366436 80.889514 
L 86.521471 85.277067 
L 87.258793 89.114866 
L 87.808948 93.491897 
L 88.028358 97.166011 
L 88.01213 100.276115 
L 87.795849 102.939681 
L 87.372 105.254575 
L 86.892073 106.811537 
L 86.236776 108.247829 
L 85.356977 109.588445 
L 84.184591 110.853033 
L 82.627473 112.052845 
L 81.316625 112.815775 
L 79.73598 113.541375 
L 77.83245 114.213904 
L 75.544901 114.804853 
L 72.805263 115.266506 
L 69.541939 115.522803 
L 65.687216 115.45706 
L 63.521221 115.25216 
L 61.191155 114.896843 
L 58.697366 114.358251 
L 56.044852 113.598315 
L 53.244643 112.57375 
L 50.31533 111.236475 
L 47.284671 109.534654 
L 44.191175 107.414593 
L 41.085508 104.823722 
L 38.031564 101.714916 
L 35.10699 98.052306 
L 32.402947 93.818606 
L 30.022829 89.023707 
L 28.079522 83.713824 
L 26.690643 77.979843 
L 25.971064 71.962683 
L 26.022231 65.852827 
L 26.918547 59.881111 
L 28.692614 54.299213 
L 31.322863 49.351229 
L 34.728104 45.241627 
L 38.772473 42.107737 
L 43.281018 40.004574 
L 48.062244 38.9058 
L 52.931448 38.71894 
L 57.729171 39.308706 
L 62.331669 40.52127 
L 66.65347 42.204183 
L 70.644073 44.219637 
L 74.281525 46.451213 
L 77.565112 48.805648 
L 80.508622 51.211431 
L 83.134842 53.615802 
L 85.471435 55.981228 
L 87.548045 58.282006 
L 91.039125 62.628756 
L 93.829145 66.58798 
L 97.105218 71.774283 
L 101.28986 78.509035 
L 102.8086 80.575759 
L 104.346956 82.296762 
L 105.959067 83.672742 
L 107.689117 84.698139 
L 109.572359 85.361063 
L 111.634946 85.643664 
L 113.892485 85.523247 
L 116.347259 84.97458 
L 118.984143 83.973992 
L 121.765456 82.505889 
L 124.625335 80.572153 
L 127.464783 78.204286 
L 130.149116 75.476978 
L 132.510241 72.519876 
L 133.510182 71.012083 
L 134.356612 69.52218 
L 135.025263 68.0816 
L 135.493592 66.723284 
L 135.742031 65.480306 
L 135.755308 64.384242 
L 135.523754 63.463415 
L 135.044428 62.741181 
L 134.321931 62.234448 
L 133.36873 61.952616 
L 132.204911 61.8971 
L 130.857312 62.061502 
L 129.358112 62.432402 
L 127.743021 62.990662 
L 124.31371 64.57398 
L 120.852336 66.606903 
L 117.589885 68.893162 
L 114.68389 71.27305 
L 112.220486 73.631791 
L 110.229972 75.894667 
L 108.705988 78.016685 
L 107.622327 79.972032 
L 106.945194 81.745645 
L 106.641003 83.327289 
L 106.680687 84.70771 
L 107.041586 85.876213 
L 107.70775 86.819138 
L 108.669201 87.518873 
L 109.920435 87.953235 
L 111.45824 88.095228 
L 113.278785 87.913339 
L 115.373843 87.372714 
L 117.72603 86.437696 
L 120.303041 85.076398 
L 123.051117 83.267961 
L 125.888409 81.012936 
L 128.699477 78.346496 
L 131.33288 75.352721 
L 133.604459 72.176109 
L 134.540804 70.581828 
L 135.309382 69.024044 
L 135.885237 67.536241 
L 136.245768 66.152931 
L 136.372102 64.908055 
L 136.25051 63.833152 
L 135.873745 62.955472 
L 135.242123 62.296222 
L 134.364184 61.869164 
L 133.256774 61.679759 
L 131.944465 61.724994 
L 130.458335 61.993912 
L 128.834212 62.468773 
L 127.110599 63.126672 
L 123.519512 64.885196 
L 119.970223 67.05142 
L 116.683391 69.427742 
L 113.800091 71.86073 
L 111.38958 74.244718 
L 109.468182 76.513736 
L 108.019559 78.629734 
L 107.011239 80.571781 
L 106.406064 82.32793 
L 106.169119 83.889739 
L 106.271319 85.248824 
L 106.69078 86.394728 
L 107.412779 87.313573 
L 108.428784 87.987168 
L 109.734806 88.39243 
L 111.329097 88.501149 
L 113.209108 88.280295 
L 115.367556 87.693222 
L 117.787442 86.702327 
L 120.435999 85.273861 
L 123.257808 83.385628 
L 126.167799 81.038038 
L 129.045456 78.26821 
L 131.732317 75.16522 
L 134.035566 71.88226 
L 134.976642 70.239587 
L 135.741044 68.638895 
L 136.30285 67.115445 
L 136.638742 65.705423 
L 136.729482 64.444188 
L 136.561429 63.364299 
L 136.127957 62.49349 
L 135.430574 61.852824 
L 134.479559 61.455266 
L 133.293956 61.304877 
L 131.90084 61.396758 
L 130.333903 61.717762 
L 128.631476 62.24786 
L 126.834266 62.96196 
L 123.116593 64.828462 
L 119.473661 67.088593 
L 116.125991 69.540566 
L 113.209423 72.031619 
L 110.785938 74.459301 
L 108.864758 76.761562 
L 107.423709 78.903932 
L 106.426053 80.868336 
L 105.831798 82.644938 
L 105.604344 84.226802 
L 105.713794 85.606608 
L 106.138113 86.774643 
L 106.862935 87.71754 
L 107.880536 88.417406 
L 109.188168 88.851207 
L 110.785786 88.990445 
L 112.673057 88.801306 
L 114.845475 88.245647 
L 117.289374 87.283389 
L 119.975771 85.877032 
L 122.853222 83.999145 
L 125.840291 81.643441 
L 128.818953 78.839368 
L 131.63096 75.66859 
L 132.914392 73.989153 
L 134.080078 72.279285 
L 135.09945 70.568772 
L 135.943713 68.891273 
L 136.584964 67.283367 
L 136.997555 65.783151 
L 137.159643 64.428454 
L 137.054843 63.25475 
L 136.673817 62.292948 
L 136.015621 61.56731 
L 135.088577 61.093746 
L 133.910477 60.878743 
L 132.508001 60.91911 
L 130.915352 61.20256 
L 129.172231 61.709071 
L 127.32141 62.412791 
L 125.406203 63.284216 
L 121.545092 65.406626 
L 117.869729 67.841785 
L 114.573669 70.398249 
L 111.762344 72.94049 
L 109.471551 75.383256 
L 107.691549 77.678282 
L 106.388299 79.800742 
L 105.518797 81.738646 
L 105.040664 83.48564 
L 104.917353 85.036542 
L 105.120433 86.384678 
L 105.630071 87.520277 
L 106.434448 88.42942 
L 107.528485 89.093256 
L 108.912039 89.487401 
L 110.587517 89.581587 
L 112.556752 89.339777 
L 114.816925 88.721168 
L 117.355284 87.682693 
L 120.14259 86.183849 
L 123.125434 84.194777 
L 126.218152 81.708312 
L 129.295699 78.755934 
L 132.189774 75.425814 
L 133.504017 73.66615 
L 134.69135 71.878353 
L 135.721379 70.094634 
L 136.563537 68.351315 
L 137.188334 66.687726 
L 137.568864 65.144613 
L 137.682535 63.762113 
L 137.512879 62.577423 
L 137.0513 61.622362 
L 136.298498 60.921123 
L 135.265327 60.488505 
L 133.972875 60.32891 
L 132.451647 60.436267 
L 130.739874 60.794913 
L 128.881143 61.381283 
L 126.921642 62.16615 
L 124.907392 63.117069 
L 120.883677 65.384865 
L 117.095824 67.939555 
L 113.732167 70.588186 
L 110.88773 73.199216 
L 108.586969 75.693422 
L 106.810299 78.028441 
L 105.516198 80.184293 
L 104.656484 82.152619 
L 104.185489 83.929687 
L 104.064798 85.512207 
L 104.265143 86.89493 
L 104.766626 88.069222 
L 105.55799 89.022114 
L 106.635316 89.735533 
L 108.00027 90.185637 
L 109.657844 90.342299 
L 111.613418 90.168944 
L 113.868867 89.623129 
L 116.417449 88.658469 
L 119.237252 87.228767 
L 122.283268 85.295376 
L 125.478589 82.838798 
L 128.70598 79.874893 
L 131.801963 76.47454 
L 133.236705 74.652728 
L 134.556577 72.782798 
L 135.729624 70.896301 
L 136.722949 69.029824 
L 137.503887 67.224093 
L 138.041497 65.522518 
L 138.308352 63.969209 
L 138.282532 62.606524 
L 137.949667 61.472364 
L 137.304797 60.597475 
L 136.353746 60.003118 
L 135.113724 59.699464 
L 133.612948 59.684978 
L 131.889217 59.946918 
L 129.98756 60.46287 
L 127.957274 61.203069 
L 125.848741 62.133128 
L 123.710459 63.216788 
L 119.515319 65.704484 
L 115.648152 68.416553 
L 112.27512 71.168879 
L 109.466463 73.843923 
L 107.225349 76.376114 
L 105.516574 78.733943 
L 104.28844 80.905113 
L 103.486867 82.886328 
L 103.063272 84.677083 
L 102.978269 86.276156 
L 103.202839 87.679699 
L 103.718109 88.880116 
L 104.5144 89.86527 
L 105.589863 90.617754 
L 106.94878 91.114163 
L 108.599462 91.324406 
L 110.551513 91.211248 
L 112.812171 90.730438 
L 115.381381 89.832026 
L 118.245293 88.463717 
L 121.368088 86.577441 
L 124.682459 84.140368 
L 128.079791 81.151258 
L 131.402067 77.661705 
L 132.971206 75.765551 
L 134.438622 73.799095 
L 135.770708 71.792981 
L 136.932058 69.783906 
L 137.886551 67.813963 
L 138.598793 65.929398 
L 139.035945 64.178698 
L 139.169878 62.610075 
L 138.979534 61.26847 
L 138.453256 60.192367 
L 137.590777 59.4108 
L 136.404482 58.940998 
L 134.919614 58.787056 
L 133.173242 58.939906 
L 131.212011 59.378599 
L 129.08896 60.072686 
L 126.859851 60.985287 
L 124.579544 62.07636 
L 120.062363 64.635402 
L 115.8609 67.464884 
L 112.17363 70.353169 
L 109.086566 73.166271 
L 106.606016 75.831432 
L 104.692405 78.3159 
L 103.286245 80.609225 
L 102.324811 82.711254 
L 101.75135 84.625012 
L 101.51934 86.352879 
L 101.593816 87.894659 
L 101.951156 89.246587 
L 102.578133 90.400665 
L 103.470646 91.344047 
L 104.63228 92.058315 
L 106.072667 92.518629 
L 107.80547 92.69284 
L 109.845746 92.540753 
L 112.206287 92.013938 
L 114.892551 91.056706 
L 117.895761 89.609238 
L 121.183986 87.614206 
L 124.691456 85.028446 
L 128.30716 81.840984 
L 130.106007 80.032874 
L 131.864887 78.09733 
L 133.553547 76.0534 
L 135.13813 73.926922 
L 136.581635 71.75092 
L 137.84469 69.565561 
L 138.886703 67.417526 
L 139.667449 65.358666 
L 140.149141 63.443847 
L 140.298941 61.728013 
L 140.091795 60.262616 
L 139.513306 59.091753 
L 138.562242 58.2485 
L 137.252195 57.752003 
L 135.611924 57.60587 
L 133.684127 57.798197 
L 131.522675 58.303243 
L 129.188667 59.084477 
L 126.745918 60.098421 
L 124.256565 61.29866 
L 121.777391 62.639417 
L 117.035539 65.578291 
L 112.797532 68.643476 
L 109.198197 71.658858 
L 106.264904 74.528593 
L 103.960028 77.210855 
L 102.215512 79.694351 
L 100.95562 81.982084 
L 100.109683 84.081818 
L 99.61807 86.00116 
L 99.434171 87.745339 
L 99.524313 89.316299 
L 99.866759 90.712314 
L 100.450411 91.927669 
L 101.273483 92.952212 
L 102.342248 93.77067 
L 103.669764 94.361726 
L 105.274445 94.696871 
L 107.178213 94.739166 
L 109.403857 94.442127 
L 111.971156 93.749185 
L 114.891214 92.594486 
L 118.158495 90.906249 
L 121.74026 88.614432 
L 125.563709 85.664787 
L 127.52893 83.935948 
L 129.502114 82.041137 
L 131.456975 79.989313 
L 133.362608 77.795945 
L 135.183506 75.484072 
L 136.87981 73.085166 
L 138.407868 70.639586 
L 139.721191 68.196464 
L 140.7719 65.812775 
L 141.512782 63.55142 
L 141.900005 61.478219 
L 141.896466 59.657855 
L 141.475549 58.149057 
L 140.624874 56.999544 
L 139.349371 56.241499 
L 137.672966 55.888392 
L 135.638262 55.933834 
L 133.303993 56.352782 
L 130.740503 57.104873 
L 128.023996 58.139239 
L 125.230543 59.399875 
L 122.430796 60.830654 
L 119.686083 62.379324 
L 114.548431 65.655333 
L 110.072036 68.9571 
L 106.3483 72.130664 
L 103.359805 75.107276 
L 101.032062 77.868483 
L 99.270075 80.420153 
L 97.979666 82.776879 
L 97.077843 84.954095 
L 96.496589 86.964804 
L 96.18319 88.818648 
L 96.099013 90.521948 
L 96.21779 92.077994 
L 96.523925 93.487247 
L 97.011049 94.747328 
L 97.680883 95.852743 
L 98.542403 96.794332 
L 99.611201 97.558432 
L 100.908955 98.12573 
L 102.462824 98.46982 
L 104.304538 98.555457 
L 106.468837 98.336628 
L 108.990783 97.754694 
L 111.901296 96.737164 
L 115.220151 95.198147 
L 118.945647 93.042275 
L 123.040525 90.17472 
L 125.200874 88.449117 
L 127.414558 86.52065 
L 129.658929 84.388315 
L 131.905769 82.05707 
L 134.120919 79.53947 
L 136.264066 76.857332 
L 138.288776 74.043266 
L 140.142834 71.141837 
L 141.769014 68.210069 
L 143.106454 65.31695 
L 144.092833 62.541575 
L 144.667594 59.969618 
L 144.776341 57.688027 
L 144.376291 55.77815 
L 143.442282 54.308 
L 141.9723 53.324841 
L 139.991204 52.849582 
L 137.551344 52.874352 
L 134.72937 53.363995 
L 131.619524 54.261261 
L 128.324665 55.494522 
L 124.946853 56.986304 
L 121.579227 58.661007 
L 118.300339 60.450676 
L 112.235378 64.159596 
L 107.036948 67.801644 
L 102.772176 71.227778 
L 99.376622 74.39378 
L 96.726387 77.308285 
L 94.683449 79.999357 
L 93.118891 82.4974 
L 91.922161 84.828386 
L 91.002868 87.012408 
L 89.991165 90.044611 
L 89.063945 93.685412 
L 87.194586 101.765465 
L 86.326948 104.150417 
L 85.484856 105.793007 
L 84.405852 107.329731 
L 83.006768 108.772475 
L 81.844957 109.683406 
L 80.455881 110.549428 
L 78.794541 111.360405 
L 76.808985 112.097031 
L 74.440626 112.726235 
L 71.625986 113.194648 
L 68.30095 113.419624 
L 64.409251 113.27768 
L 62.238966 113.016076 
L 59.917394 112.591169 
L 57.447806 111.970285 
L 54.838427 111.116233 
L 52.103731 109.987554 
L 49.265825 108.539266 
L 46.355853 106.724238 
L 43.415306 104.495436 
L 40.497091 101.809204 
L 37.666209 98.629756 
L 34.99982 94.934937 
L 32.586489 90.723123 
L 30.524295 86.020841 
L 28.917405 80.89021 
L 27.870637 75.434753 
L 27.481554 69.801506 
L 27.830066 64.177102 
L 28.966344 58.775968 
L 30.899173 53.820439 
L 33.587953 49.515266 
L 36.941664 46.021813 
L 40.826571 43.438451 
L 45.081648 41.792353 
L 49.537976 41.044129 
L 54.037255 41.102653 
L 58.445484 41.844851 
L 62.6601 43.135156 
L 66.611027 44.840988 
L 70.257429 46.842878 
L 73.582234 49.039561 
L 76.586105 51.349237 
L 79.281904 53.708412 
L 81.690158 56.069481 
L 83.835618 58.397894 
L 85.744813 60.669393 
L 88.960163 64.981866 
L 91.535413 68.936451 
L 94.566011 74.160344 
L 98.448686 81.049334 
L 99.863208 83.207581 
L 101.301892 85.038585 
L 102.819053 86.544544 
L 104.461763 87.721017 
L 106.27122 88.556127 
L 108.283034 89.029956 
L 110.52629 89.114356 
L 113.021161 88.77355 
L 115.774852 87.966159 
L 118.775706 86.649565 
L 121.985571 84.787722 
L 125.331008 82.363522 
L 128.694689 79.396167 
L 130.333105 77.729924 
L 131.909314 75.962342 
L 133.394556 74.115416 
L 134.75746 72.216934 
L 135.964689 70.300455 
L 136.981887 68.404855 
L 137.774946 66.573334 
L 138.31163 64.851831 
L 138.563512 63.286849 
L 138.508139 61.922789 
L 138.131247 60.799012 
L 137.428738 59.946951 
L 136.408114 59.387667 
L 135.089031 59.130223 
L 133.502758 59.171187 
L 131.690489 59.495347 
L 129.700677 60.077537 
L 127.585762 60.885263 
L 125.398726 61.881695 
L 123.189967 63.0286 
L 118.881821 65.628336 
L 114.938916 68.430008 
L 111.521416 71.251041 
L 108.690617 73.978566 
L 106.440871 76.552287 
L 104.729736 78.945291 
L 103.500182 81.148821 
L 102.694468 83.162174 
L 102.261643 84.986754 
L 102.160873 86.622845 
L 102.362338 88.067914 
L 102.846851 89.315646 
L 103.604833 90.355232 
L 104.63498 91.170677 
L 105.942681 91.740032 
L 107.538114 92.034583 
L 109.433809 92.018144 
L 111.641365 91.64677 
L 114.166951 90.869392 
L 117.005201 89.630207 
L 120.131277 87.873972 
L 123.491171 85.555587 
L 126.991038 82.655271 
L 130.487234 79.199705 
L 132.173751 77.290929 
L 133.779964 75.287164 
L 135.272331 73.215711 
L 136.614641 71.110623 
L 137.768888 69.012452 
L 138.696513 66.96742 
L 139.36006 65.025883 
L 139.725269 63.240065 
L 139.763522 61.661117 
L 139.454492 60.335697 
L 138.788693 59.30244 
L 137.769548 58.588768 
L 136.414512 58.208559 
L 134.754935 58.161118 
L 132.83447 58.431639 
L 130.706179 58.993126 
L 128.428717 59.809409 
L 126.062179 60.838743 
L 123.66421 62.037407 
L 118.974421 64.775981 
L 114.677389 67.734891 
L 110.953764 70.709609 
L 107.868729 73.578037 
L 105.410428 76.278993 
L 103.525779 78.788845 
L 102.146266 81.103544 
L 101.203597 83.227174 
L 100.637829 85.165557 
L 100.400757 86.92305 
L 100.456631 88.501071 
L 100.781582 89.897396 
L 101.362485 91.105699 
L 102.195663 92.115034 
L 103.285535 92.90915 
L 104.643186 93.465606 
L 106.284699 93.754729 
L 108.228999 93.738561 
L 110.494826 93.370082 
L 113.096418 92.593214 
L 116.037385 91.344454 
L 119.302387 89.557408 
L 122.846513 87.171921 
L 126.582937 84.149628 
L 128.481561 82.399189 
L 130.370464 80.49708 
L 132.221908 78.45602 
L 134.003902 76.295383 
L 135.680384 74.042014 
L 137.211655 71.730763 
L 138.555157 69.404542 
L 139.666663 67.113738 
L 140.501969 64.914797 
L 141.019153 62.867875 
L 141.181388 61.033549 
L 140.960178 59.468752 
L 140.338716 58.222311 
L 139.314874 57.330676 
L 137.90322 56.814519 
L 136.135506 56.676873 
L 134.059262 56.90322 
L 131.734559 57.463551 
L 129.229365 58.316021 
L 126.614276 59.411505 
L 123.95745 60.698248 
L 121.320462 62.125932 
L 116.303887 65.227131 
L 111.852271 68.428578 
L 108.095066 71.552571 
L 105.046611 74.50876 
L 102.654702 77.262917 
L 100.838245 79.810817 
L 99.510982 82.161128 
L 98.594117 84.325922 
L 98.021775 86.316179 
L 97.742433 88.140026 
L 97.718371 89.802259 
L 97.924341 91.304292 
L 98.346063 92.644138 
L 98.978854 93.816196 
L 99.826448 94.810795 
L 100.900006 95.613436 
L 102.2172 96.203755 
L 103.80119 96.554195 
L 105.679253 96.628476 
L 107.880687 96.380026 
L 110.433525 95.750709 
L 113.359436 94.670544 
L 116.666162 93.059562 
L 120.336928 90.833612 
L 124.316758 87.916567 
L 126.391042 86.182306 
L 128.496558 84.261605 
L 130.608612 82.158445 
L 132.697334 79.883169 
L 134.727496 77.453876 
L 136.658523 74.897709 
L 138.444779 72.251879 
L 140.036216 69.564188 
L 141.379503 66.892781 
L 142.419789 64.304866 
L 143.103251 61.874139 
L 143.380528 59.676799 
L 143.21099 57.78627 
L 142.567507 56.267035 
L 141.441088 55.168411 
L 139.844419 54.519313 
L 137.813319 54.325121 
L 135.405398 54.567436 
L 132.695804 55.206868 
L 129.770715 56.188308 
L 126.71977 57.447562 
L 123.628827 58.918041 
L 120.574182 60.53642 
L 117.618862 62.246637 
L 112.184351 65.766195 
L 107.544932 69.220574 
L 103.746042 72.483658 
L 100.728943 75.513565 
L 98.387898 78.312181 
L 96.606336 80.89882 
L 95.275744 83.296284 
L 94.303497 85.524909 
L 93.614621 87.600882 
L 93.15068 89.536431 
L 92.783391 92.195636 
L 92.725126 94.580108 
L 92.920549 96.703345 
L 93.348521 98.57263 
L 94.015246 100.188581 
L 94.606329 101.121542 
L 95.331146 101.933131 
L 96.209092 102.614746 
L 97.26454 103.15358 
L 98.52714 103.531334 
L 100.03204 103.722561 
L 101.819852 103.692559 
L 103.93606 103.394806 
L 106.429392 102.768018 
L 109.348452 101.733193 
L 112.735633 100.191483 
L 116.617084 98.024585 
L 120.987591 95.100635 
L 123.341052 93.313466 
L 125.789913 91.290103 
L 128.314775 89.019872 
L 130.889779 86.497277 
L 133.481879 83.724117 
L 136.05024 80.711881 
L 138.545821 77.484273 
L 140.911197 74.079668 
L 143.080691 70.553164 
L 144.980974 66.977787 
L 146.532389 63.444283 
L 147.651448 60.058838 
L 148.255031 56.938089 
L 148.266796 54.20105 
L 147.625843 51.958176 
L 146.296797 50.298773 
L 144.279366 49.279009 
L 141.614575 48.913475 
L 138.385053 49.172894 
L 134.708223 49.989022 
L 130.723484 51.265658 
L 126.576464 52.892828 
L 122.404083 54.760668 
L 118.323377 56.770252 
L 114.425379 58.840086 
L 107.407052 62.932463 
L 101.581861 66.753619 
L 96.921883 70.22191 
L 93.270701 73.358725 
L 90.43181 76.220479 
L 88.214512 78.864036 
L 86.452483 81.333886 
L 84.369135 84.775872 
L 79.906997 92.680469 
L 78.693114 94.374599 
L 77.342725 95.945618 
L 75.813526 97.381319 
L 74.064403 98.663048 
L 72.055284 99.763093 
L 69.748206 100.641285 
L 67.110037 101.240882 
L 64.117466 101.484028 
L 62.485561 101.440773 
L 60.764935 101.267593 
L 58.95955 100.947303 
L 57.076114 100.46113 
L 55.12462 99.789004 
L 53.118908 98.910044 
L 51.077218 97.803296 
L 49.022681 96.448774 
L 46.983701 94.828855 
L 44.994153 92.930025 
L 43.093312 90.744996 
L 41.325422 88.27509 
L 39.73881 85.532763 
L 38.384438 82.544001 
L 37.313829 79.350243 
L 36.576317 76.00937 
L 36.215697 72.595274 
L 36.266432 69.195568 
L 36.749816 65.907221 
L 37.670614 62.830258 
L 39.014847 60.060135 
L 40.749319 57.679838 
L 42.823249 55.753008 
L 45.171953 54.319267 
L 47.722045 53.392516 
L 50.397321 52.962275 
L 53.124358 52.997531 
L 55.837052 53.452106 
L 58.479638 54.2705 
L 61.008126 55.393299 
L 63.390356 56.761577 
L 65.605049 58.320066 
L 67.640267 60.01912 
L 69.491619 61.815668 
L 71.160477 63.673406 
L 72.652365 65.562494 
L 73.975586 67.458945 
L 75.140123 69.343886 
L 77.036603 73.024717 
L 78.428202 76.528125 
L 79.393429 79.815825 
L 79.997585 82.873694 
L 80.291409 85.701946 
L 80.311618 88.30867 
L 80.082186 90.705586 
L 79.61575 92.905177 
L 78.914906 94.918577 
L 77.973309 96.753802 
L 76.776632 98.413975 
L 75.303529 99.895287 
L 73.526829 101.184429 
L 71.415323 102.255286 
L 68.936664 103.064729 
L 66.06208 103.547505 
L 64.470061 103.638577 
L 62.773814 103.610671 
L 60.974665 103.447037 
L 59.076263 103.128733 
L 57.085165 102.634715 
L 55.011493 101.942085 
L 52.86962 101.026576 
L 50.678857 99.863315 
L 48.464101 98.427964 
L 46.256362 96.698282 
L 44.093097 94.656159 
L 42.018253 92.290128 
L 40.081899 89.598294 
L 38.339325 86.59151 
L 36.849476 83.296519 
L 35.672607 79.758607 
L 34.867068 76.043184 
L 34.485238 72.235605 
L 34.56882 68.438602 
L 35.143918 64.766944 
L 36.21664 61.339461 
L 37.770138 58.269219 
L 39.763947 55.653325 
L 42.136161 53.564164 
L 44.808357 52.043753 
L 47.692477 51.102162 
L 50.69845 50.720006 
L 53.7412 50.854068 
L 56.746038 51.444622 
L 59.651926 52.422956 
L 62.412645 53.717976 
L 64.996288 55.261257 
L 67.383623 56.990392 
L 69.565889 58.85081 
L 71.542456 60.796393 
L 73.318626 62.789276 
L 74.90375 64.799147 
L 76.309691 66.802305 
L 78.637268 70.720674 
L 80.408975 74.449802 
L 81.118107 76.227701 
L 81.118107 76.227701 
" clip-path="url(#p5a71b08b66)" style="fill: none; stroke: #1f77b4; stroke-width: 1.5; stroke-linecap: round"/>
   </g>
   <g id="line2d_29">
    <path d="M 125.194926 106.830065 
L 127.144298 103.65814 
L 131.854324 96.932954 
L 137.29757 89.43966 
L 140.133608 85.35159 
L 142.937196 81.04377 
L 145.609994 76.553166 
L 148.041012 71.946529 
L 150.109839 67.322507 
L 151.692596 62.810501 
L 152.670695 58.564924 
L 152.941911 54.753987 
L 152.432457 51.543257 
L 151.108068 49.075763 
L 148.981601 47.452094 
L 146.115001 46.714904 
L 142.61447 46.841877 
L 138.619371 47.749334 
L 134.286995 49.305753 
L 129.776331 51.35176 
L 125.233894 53.721724 
L 120.783723 56.262385 
L 112.517695 61.37446 
L 105.426623 66.035557 
L 97.169164 71.771698 
L 93.077185 74.86014 
L 89.890142 77.5353 
L 87.407922 79.935154 
L 85.450055 82.159683 
L 83.862529 84.271388 
L 81.902726 87.294509 
L 78.983114 91.99601 
L 77.73044 93.736731 
L 76.345015 95.374523 
L 74.77823 96.887425 
L 72.984629 98.246705 
L 70.921482 99.414005 
L 68.549899 100.337526 
L 65.837999 100.947469 
L 64.347788 101.106924 
L 62.766911 101.151248 
L 61.096629 101.064681 
L 59.340473 100.829729 
L 57.504787 100.427297 
L 55.599337 99.836969 
L 53.637967 99.037526 
L 51.639241 98.007711 
L 49.627033 96.727339 
L 47.630975 95.178772 
L 45.68665 93.348774 
L 43.835406 91.230717 
L 42.123656 88.827017 
L 40.601539 86.151603 
L 39.320863 83.232107 
L 38.332349 80.111375 
L 37.682287 76.84787 
L 37.408896 73.514564 
L 37.538786 70.196077 
L 38.084013 66.984083 
L 39.040216 63.971336 
L 40.386211 61.244993 
L 42.085175 58.880133 
L 44.087317 56.934411 
L 46.333631 55.444582 
L 48.760215 54.42532 
L 51.302541 53.870282 
L 53.899197 53.755034 
L 56.494753 54.041189 
L 59.041625 54.681033 
L 61.500959 55.622026 
L 63.842714 56.810681 
L 66.045136 58.195607 
L 68.09385 59.729607 
L 69.980767 61.370927 
L 71.702932 63.083788 
L 73.261435 64.838386 
L 74.660417 66.61053 
L 77.006653 70.135222 
L 78.806767 73.552997 
L 80.133689 76.808004 
L 81.057759 79.876042 
L 81.640964 82.751948 
L 81.934224 85.441171 
L 81.976534 87.954386 
L 81.79515 90.304137 
L 81.406276 92.502713 
L 80.815906 94.56072 
L 80.020635 96.485961 
L 79.008335 98.282331 
L 77.758731 99.948486 
L 76.243956 101.47603 
L 74.429299 102.846956 
L 72.274503 104.030059 
L 69.736186 104.976037 
L 68.309819 105.338212 
L 66.772247 105.611131 
L 65.119662 105.780503 
L 63.349555 105.829536 
L 61.46125 105.738728 
L 59.456573 105.485732 
L 57.340635 105.045345 
L 55.122754 104.389703 
L 52.817483 103.488754 
L 50.445709 102.311138 
L 48.035737 100.825569 
L 45.624246 99.00286 
L 43.256938 96.818631 
L 40.98865 94.256749 
L 38.882662 91.313335 
L 37.008952 88.001061 
L 35.441175 84.353198 
L 34.252323 80.426678 
L 33.509255 76.303277 
L 33.266574 72.088095 
L 33.560648 67.904771 
L 34.404755 63.88745 
L 35.786317 60.170236 
L 37.666903 56.875605 
L 39.985153 54.103631 
L 42.662224 51.923872 
L 45.608782 50.371202 
L 48.732405 49.445992 
L 51.944273 49.118155 
L 55.164358 49.333881 
L 58.324759 50.023601 
L 61.371219 51.109854 
L 64.263137 52.514048 
L 66.972524 54.161604 
L 69.482334 55.985349 
L 71.784542 57.927326 
L 73.878229 59.939348 
L 75.767841 61.98267 
L 77.461674 64.027109 
L 78.97064 66.049891 
L 81.48497 69.969115 
L 83.418036 73.661425 
L 84.87555 77.097791 
L 85.953054 80.277286 
L 86.732218 83.213377 
L 87.484325 87.205102 
L 87.882027 90.766746 
L 88.037207 93.966298 
L 87.979359 97.768579 
L 87.682271 101.141409 
L 87.149179 104.17172 
L 86.564312 106.262123 
L 85.77448 108.22414 
L 84.71582 110.078747 
L 83.817672 111.263375 
L 82.726424 112.409435 
L 81.399888 113.515754 
L 79.786799 114.575711 
L 77.825541 115.573883 
L 75.443279 116.480821 
L 72.556164 117.245065 
L 69.071928 117.781279 
L 67.076389 117.923911 
L 64.89715 117.953398 
L 62.524934 117.84115 
L 59.9531 117.552407 
L 57.179049 117.045472 
L 54.206025 116.271127 
L 51.045378 115.172455 
L 47.719279 113.685346 
L 44.26383 111.740112 
L 40.732353 109.264671 
L 37.198472 106.189863 
L 33.758348 102.457329 
L 30.53114 98.030116 
L 27.656561 92.905523 
L 25.288421 87.128767 
L 23.583415 80.804814 
L 22.685417 74.10469 
L 22.706965 67.262317 
L 23.711237 60.559096 
L 25.698818 54.296373 
L 28.603222 48.759882 
L 32.297183 44.183654 
L 36.608669 40.721969 
L 41.342784 38.435797 
L 46.304351 37.295708 
L 51.316545 37.198436 
L 56.232915 37.991217 
L 60.942415 39.497465 
L 65.368761 41.538824 
L 69.466143 43.951018 
L 73.213293 46.593074 
L 76.607346 49.35093 
L 79.658375 52.137019 
L 82.384946 54.887454 
L 84.810747 57.558098 
L 88.8665 62.557711 
L 92.042008 67.030309 
L 94.541866 70.970001 
L 97.411817 75.963701 
L 100.99194 82.228415 
L 102.30269 84.117969 
L 103.658425 85.685361 
L 105.117825 86.935499 
L 106.730343 87.862407 
L 108.537644 88.44937 
L 110.573764 88.669263 
L 112.86368 88.485416 
L 115.419983 87.853599 
L 118.237348 86.726052 
L 121.284651 85.058726 
L 124.495139 82.823073 
L 127.756015 80.023232 
L 129.355434 78.427309 
L 130.900523 76.717907 
L 132.361934 74.914627 
L 133.707627 73.042972 
L 134.903747 71.134417 
L 135.915831 69.226046 
L 136.710355 67.359639 
L 137.25655 65.580163 
L 137.528367 63.933677 
L 137.506428 62.464766 
L 137.179758 61.213708 
L 136.547068 60.213686 
L 135.617396 59.488376 
L 134.409989 59.050272 
L 132.953374 58.899971 
L 131.28372 59.026561 
L 129.442653 59.40903 
L 127.474796 60.018485 
L 125.425292 60.820854 
L 121.251546 62.85879 
L 117.219355 65.245868 
L 113.541466 67.761039 
L 110.341955 70.258895 
L 107.671381 72.661585 
L 105.528712 74.938317 
L 103.882126 77.084423 
L 102.68526 79.105674 
L 101.888416 81.008759 
L 101.445518 82.796627 
L 101.317979 84.46684 
L 101.476481 86.01145 
L 101.901475 87.417354 
L 102.58289 88.666595 
L 103.519411 89.736322 
L 104.717415 90.59835 
L 106.189594 91.218369 
L 107.953092 91.554935 
L 110.026869 91.558529 
L 112.427857 91.171112 
L 115.165346 90.326955 
L 118.232944 88.955905 
L 121.597642 86.990772 
L 123.37046 85.768415 
L 125.186026 84.380887 
L 127.026336 82.827961 
L 128.869025 81.113586 
L 130.687107 79.246943 
L 132.448927 77.243505 
L 134.118405 75.125986 
L 135.65567 72.925016 
L 137.018155 70.679385 
L 138.162202 68.435648 
L 139.045163 66.246931 
L 139.627925 64.170829 
L 139.877673 62.266413 
L 139.770642 60.590505 
L 139.294524 59.193568 
L 138.450179 58.115701 
L 137.252363 57.383303 
L 135.729277 57.006943 
L 133.920933 56.980798 
L 131.876519 57.283764 
L 129.651085 57.882071 
L 127.301983 58.732942 
L 124.885493 59.788716 
L 122.453964 61.00086 
L 117.723745 63.715204 
L 113.391555 66.57608 
L 109.617742 69.391045 
L 106.463334 72.064897 
L 103.920984 74.569059 
L 101.943848 76.910408 
L 100.467404 79.108596 
L 99.423862 81.183021 
L 98.750656 83.147073 
L 98.39484 85.00672 
L 98.314887 86.761139 
L 98.480992 88.40394 
L 98.87458 89.924248 
L 99.487489 91.307289 
L 100.321061 92.53441 
L 101.385247 93.582546 
L 102.697711 94.423165 
L 104.282807 95.020785 
L 106.17019 95.331161 
L 108.392668 95.299341 
L 110.982718 94.858 
L 113.966847 93.926827 
L 117.356794 92.41435 
L 119.200463 91.409943 
L 121.136457 90.224452 
L 123.155451 88.847494 
L 125.243872 87.270812 
L 127.383137 85.489419 
L 129.548925 83.502974 
L 131.710562 81.317352 
L 133.830635 78.946352 
L 135.864965 76.413373 
L 137.763097 73.752865 
L 139.469465 71.011266 
L 140.925362 68.247083 
L 142.07176 65.529762 
L 142.852939 62.937088 
L 143.220679 60.550981 
L 143.138649 58.451879 
L 142.586406 56.712189 
L 141.56241 55.38966 
L 140.085446 54.521707 
L 138.194089 54.121721 
L 135.944157 54.178113 
L 133.404443 54.656298 
L 130.651374 55.503288 
L 127.763369 56.653986 
L 124.815673 58.03807 
L 121.876241 59.586369 
L 116.242399 62.933261 
L 111.188132 66.313148 
L 106.870941 69.515026 
L 103.32162 72.463671 
L 100.49296 75.164559 
L 98.299092 77.657501 
L 96.641801 79.987832 
L 95.425907 82.19279 
L 94.567061 84.297577 
L 93.994865 86.316264 
L 93.653321 88.254475 
L 93.499922 90.112176 
L 93.558776 92.739659 
L 93.914314 95.158826 
L 94.548743 97.345499 
L 95.134131 98.659754 
L 95.864099 99.846633 
L 96.758237 100.892243 
L 97.842555 101.778521 
L 99.14979 102.481563 
L 100.719732 102.969465 
L 102.599346 103.199607 
L 104.842335 103.115295 
L 107.507527 102.64188 
L 110.655109 101.682753 
L 114.339199 100.116355 
L 116.39459 99.060589 
L 118.594599 97.796596 
L 120.936998 96.30363 
L 123.415039 94.561215 
L 126.016161 92.550391 
L 128.720526 90.255439 
L 131.499467 87.666147 
L 134.313953 84.780654 
L 137.113283 81.608804 
L 139.834258 78.175835 
L 142.401201 74.52602 
L 144.727223 70.725668 
L 146.717153 66.86467 
L 148.272411 63.055621 
L 149.297885 59.429598 
L 149.71044 56.128024 
L 149.448163 53.290768 
L 148.478987 51.041654 
L 146.806981 49.473629 
L 144.474764 48.636547 
L 141.561093 48.530445 
L 138.173723 49.106119 
L 134.438756 50.273046 
L 130.488472 51.912807 
L 126.449854 53.894929 
L 122.435561 56.091857 
L 114.828354 60.699559 
L 108.146026 65.10202 
L 102.565882 69.01661 
L 98.0647 72.407718 
L 94.515395 75.360196 
L 91.752686 77.990427 
L 89.609646 80.401448 
L 87.934802 82.668113 
L 86.598184 84.837588 
L 84.996254 87.961541 
L 81.810018 94.722281 
L 80.231345 97.359445 
L 78.995574 99.010106 
L 77.563288 100.55968 
L 75.890041 101.989163 
L 73.929063 103.270852 
L 71.631658 104.364068 
L 68.949244 105.209539 
L 67.449566 105.514054 
L 65.837948 105.722354 
L 64.11103 105.818502 
L 62.2671 105.783965 
L 60.306698 105.597441 
L 58.233341 105.234787 
L 56.054391 104.669116 
L 53.782027 103.871144 
L 51.434323 102.809885 
L 49.036341 101.453811 
L 46.621154 99.772599 
L 44.230642 97.739548 
L 41.915843 95.334719 
L 39.736627 92.54873 
L 37.760408 89.386971 
L 36.059665 85.873827 
L 34.708136 82.056227 
L 33.775785 78.005702 
L 33.322872 73.818053 
L 33.39382 69.609949 
L 34.011786 65.512184 
L 35.17495 61.660045 
L 36.855323 58.18196 
L 39.000498 55.188187 
L 41.538132 52.761428 
L 44.382427 50.950952 
L 47.441496 49.771006 
L 50.624441 49.203375 
L 53.84722 49.203164 
L 57.036754 49.70642 
L 60.133161 50.638159 
L 63.090342 51.919661 
L 65.875315 53.474303 
L 68.466761 55.231657 
L 70.85317 57.129918 
L 73.030907 59.116932 
L 75.002384 61.150188 
L 76.774454 63.19613 
L 78.357061 65.229094 
L 81.002828 69.185614 
L 83.045284 72.926967 
L 84.591212 76.41587 
L 85.738549 79.646893 
L 86.571853 82.631284 
L 87.161026 85.387972 
L 87.705606 89.143244 
L 87.960425 92.505822 
L 87.993659 96.486029 
L 87.767641 100.001209 
L 87.307012 103.146197 
L 86.787876 105.307751 
L 86.081727 107.330098 
L 85.133346 109.235956 
L 84.328729 110.45094 
L 83.351536 111.625747 
L 82.164255 112.761292 
L 80.721083 113.854345 
L 78.966611 114.894956 
L 76.83468 115.862398 
L 74.247888 116.718894 
L 71.118629 117.400145 
L 67.353362 117.801505 
L 65.203726 117.848901 
L 62.862973 117.758883 
L 60.324106 117.497712 
L 57.583943 117.024849 
L 54.644859 116.292353 
L 51.516962 115.244632 
L 48.220734 113.818845 
L 44.790072 111.94633 
L 41.275539 109.555531 
L 37.747483 106.576961 
L 34.298405 102.950653 
L 31.043718 98.636317 
L 28.119782 93.62583 
L 25.678107 87.95679 
L 23.874902 81.724691 
L 22.856067 75.090182 
L 22.73907 68.277466 
L 23.594761 61.560821 
L 25.433304 55.238889 
L 28.198292 49.600197 
L 31.771394 44.886931 
L 35.986988 41.265479 
L 40.653311 38.810608 
L 45.575062 37.505965 
L 50.572702 37.258761 
L 55.49545 37.923138 
L 60.227303 39.32578 
L 64.68715 41.288548 
L 68.824967 43.645233 
L 72.616081 46.251692 
L 76.05505 48.990215 
L 79.150106 51.769644 
L 81.918572 54.522871 
L 84.383353 57.203058 
L 86.570365 59.779526 
L 90.219673 64.556756 
L 93.079401 68.799667 
L 96.306788 74.206277 
L 100.776902 82.12647 
L 102.08137 84.049149 
L 103.425391 85.650083 
L 104.868488 86.935094 
L 106.460903 87.899132 
L 108.245156 88.526382 
L 110.256354 88.790521 
L 112.520945 88.655447 
L 115.05361 88.077052 
L 117.851951 87.006906 
L 120.888813 85.399032 
L 124.102484 83.221132 
L 127.386044 80.471261 
L 129.006 78.894816 
L 130.578655 77.199564 
L 132.075161 75.403768 
L 133.46376 73.531597 
L 134.710575 71.613311 
L 135.78075 69.685015 
L 136.63993 67.78789 
L 137.256053 65.96682 
L 137.601318 64.268402 
L 137.654199 62.738447 
L 137.401283 61.419128 
L 136.838714 60.346101 
L 135.973025 59.545911 
L 134.821221 59.034074 
L 133.410029 58.814086 
L 131.774392 58.877547 
L 129.95536 59.205362 
L 127.997625 59.769835 
L 125.946975 60.537345 
L 123.847951 61.471222 
L 119.665458 63.691957 
L 115.720256 66.168494 
L 112.1915 68.706354 
L 109.172839 71.187387 
L 106.69184 73.554684 
L 104.732526 75.790369 
L 103.254897 77.896001 
L 102.209345 79.879152 
L 101.546162 81.745918 
L 101.221194 83.497645 
L 101.198784 85.13006 
L 101.452975 86.633456 
L 101.967637 87.993119 
L 102.735983 89.189534 
L 103.759709 90.198207 
L 105.047844 90.989083 
L 106.615252 91.52563 
L 108.480576 91.763777 
L 110.663303 91.651016 
L 113.179429 91.126203 
L 116.03514 90.120932 
L 119.217848 88.563837 
L 122.684177 86.389679 
L 124.498136 85.056254 
L 126.345251 83.55534 
L 128.204752 81.889013 
L 130.051258 80.064218 
L 131.854619 78.093868 
L 133.58003 75.997877 
L 135.188507 73.803988 
L 136.637797 71.548227 
L 137.883805 69.274796 
L 138.882542 67.035194 
L 139.592544 64.886451 
L 139.977625 62.888417 
L 140.009739 61.100215 
L 139.671612 59.576132 
L 138.958817 58.361413 
L 137.880932 57.48851 
L 136.461555 56.97437 
L 134.737082 56.81922 
L 132.754362 57.007072 
L 130.567517 57.507867 
L 128.234345 58.280892 
L 125.812749 59.278914 
L 123.357594 60.452388 
L 118.537039 63.137642 
L 114.078542 66.014406 
L 110.164648 68.868092 
L 106.871937 71.587511 
L 104.202004 74.135296 
L 102.111843 76.515071 
L 100.537403 78.746543 
L 99.409404 80.850668 
L 98.662814 82.842795 
L 98.241844 84.730724 
L 98.102102 86.515171 
L 98.21105 88.191034 
L 98.547595 89.748586 
L 99.101276 91.174213 
L 99.871352 92.450575 
L 100.865907 93.556196 
L 102.100992 94.464533 
L 103.599704 95.142572 
L 105.390997 95.549059 
L 107.507883 95.632501 
L 109.984506 95.329265 
L 112.851341 94.562394 
L 116.127538 93.242308 
L 117.919267 92.344358 
L 119.809268 91.27135 
L 121.790746 90.011674 
L 123.853105 88.55519 
L 125.981184 86.894233 
L 128.15447 85.024857 
L 130.346373 82.948317 
L 132.523646 80.672742 
L 134.646076 78.214901 
L 136.666592 75.601902 
L 138.531957 72.872562 
L 140.184206 70.078155 
L 141.56294 67.282148 
L 142.608498 64.558602 
L 143.265917 61.988964 
L 143.489371 59.657232 
L 143.246634 57.643759 
L 142.522952 56.018356 
L 141.323665 54.833634 
L 139.675032 54.119719 
L 137.622955 53.881326 
L 135.22969 54.097827 
L 132.568964 54.726325 
L 129.720255 55.707146 
L 126.763066 56.970725 
L 123.771922 58.444652 
L 120.812635 60.059853 
L 115.1969 63.480096 
L 110.213435 66.874627 
L 105.993142 70.059339 
L 102.547156 72.97922 
L 99.815933 75.651445 
L 97.707018 78.120859 
L 96.11946 80.433828 
L 94.957632 82.626772 
L 94.137938 84.723544 
L 93.591236 86.737016 
L 93.26286 88.672004 
L 93.09248 91.42558 
L 93.231244 93.988316 
L 93.634723 96.341076 
L 94.296513 98.46118 
L 94.892761 99.731882 
L 95.629833 100.876447 
L 96.528827 101.88136 
L 97.617112 102.72881 
L 98.928762 103.394975 
L 100.504995 103.847824 
L 102.394425 104.04431 
L 104.652735 103.926887 
L 107.341173 103.41941 
L 110.522864 102.422838 
L 114.255342 100.811847 
L 116.341426 99.729456 
L 118.577052 98.434826 
L 120.96037 96.9062 
L 123.484903 95.12198 
L 126.138187 93.062004 
L 128.900222 90.709339 
L 131.741818 88.052654 
L 134.622954 85.089217 
L 137.491345 81.828459 
L 140.281517 78.295922 
L 142.914764 74.537184 
L 145.30043 70.621135 
L 147.33897 66.641711 
L 148.927106 62.717033 
L 149.965158 58.984933 
L 150.366134 55.594223 
L 150.065649 52.691879 
L 149.031123 50.407408 
L 147.268445 48.836916 
L 144.824373 48.030104 
L 141.783697 47.983372 
L 138.261306 48.640913 
L 134.390565 49.903764 
L 130.310228 51.644629 
L 126.152297 53.725044 
L 122.032686 56.011279 
L 114.261436 60.75698 
L 107.472647 65.239625 
L 101.8296 69.188095 
L 97.293375 72.583607 
L 93.723871 75.525063 
L 90.946358 78.137935 
L 88.787453 80.530097 
L 87.091342 82.778416 
L 85.725055 84.930447 
L 84.05815 88.028793 
L 81.120968 93.809198 
L 79.453586 96.455253 
L 78.158819 98.105159 
L 76.665727 99.645427 
L 74.929407 101.053653 
L 72.90388 102.298035 
L 70.542843 103.333029 
L 67.802277 104.093779 
L 66.277793 104.344141 
L 64.645851 104.489468 
L 62.904661 104.513197 
L 61.054387 104.39634 
L 59.097777 104.117405 
L 57.040895 103.652461 
L 54.893959 102.975404 
L 52.672271 102.058506 
L 50.397167 100.873337 
L 48.09694 99.392168 
L 45.807582 97.589926 
L 43.573219 95.446763 
L 41.446009 92.951196 
L 39.48529 90.103683 
L 37.755772 86.920322 
L 36.324621 83.436191 
L 35.257435 79.707673 
L 34.613335 75.813026 
L 34.439606 71.850548 
L 34.766607 67.933944 
L 35.60376 64.185005 
L 36.937409 60.724311 
L 38.73106 57.661219 
L 40.928098 55.084703 
L 43.45659 53.056534 
L 46.235374 51.60783 
L 49.180476 50.739273 
L 52.210927 50.424587 
L 55.253329 50.616297 
L 58.244862 51.252574 
L 61.134736 52.264051 
L 63.88434 53.579771 
L 66.466444 55.131787 
L 68.863824 56.858286 
L 71.067616 58.705361 
L 73.075645 60.627656 
L 74.890864 62.588225 
L 76.519986 64.557861 
L 77.972336 66.514151 
L 80.391686 70.324753 
L 82.24506 73.93781 
L 83.628837 77.319448 
L 84.630816 80.463999 
L 85.326168 83.380937 
L 85.776248 86.086989 
L 86.029002 88.601602 
L 86.113378 92.057396 
L 85.908713 95.188021 
L 85.448324 98.046311 
L 84.729726 100.675585 
L 84.091702 102.318237 
L 83.30691 103.881666 
L 82.351552 105.370736 
L 81.195114 106.786986 
L 79.799727 108.127277 
L 78.119509 109.381606 
L 76.100116 110.529737 
L 73.678934 111.536117 
L 70.786666 112.342471 
L 69.141362 112.643722 
L 67.351621 112.857399 
L 65.409589 112.964654 
L 63.308809 112.942702 
L 61.045 112.764299 
L 58.617074 112.397283 
L 56.028411 111.804261 
L 53.288417 110.942589 
L 50.414361 109.764807 
L 47.433441 108.219775 
L 44.384954 106.254786 
L 41.32234 103.818969 
L 38.314731 100.86822 
L 35.447501 97.371778 
L 32.821179 93.320243 
L 30.548058 88.734363 
L 28.746009 83.673281 
L 27.529368 78.240352 
L 26.997528 72.584269 
L 27.222641 66.893492 
L 28.238679 61.383065 
L 30.034308 56.274742 
L 32.551619 51.773478 
L 35.691435 48.044825 
L 39.324291 45.198003 
L 43.304765 43.277981 
L 47.486172 42.267467 
L 51.733011 42.097174 
L 55.929538 42.661096 
L 59.984074 43.833105 
L 63.829628 45.481884 
L 67.421905 47.482397 
L 70.735862 49.723337 
L 73.761761 52.110895 
L 76.501362 54.569651 
L 78.964606 57.041537 
L 81.166913 59.48371 
L 83.127087 61.86598 
L 86.404265 66.378034 
L 88.965145 70.497707 
L 90.970302 74.213368 
L 93.242088 79.077239 
L 97.434707 88.621975 
L 98.456156 90.355806 
L 99.574817 91.849437 
L 100.835375 93.09923 
L 102.280858 94.092478 
L 103.953977 94.80636 
L 105.897603 95.206618 
L 108.154086 95.24608 
L 110.76291 94.863392 
L 113.755965 93.982684 
L 117.149465 92.515534 
L 118.994195 91.532434 
L 120.931465 90.367455 
L 122.952491 89.010161 
L 125.044259 87.452118 
L 127.188768 85.688027 
L 129.362286 83.717091 
L 131.534723 81.54459 
L 133.66921 79.18359 
L 135.722029 76.656658 
L 137.643051 73.99736 
L 139.376834 71.251279 
L 140.864533 68.476194 
L 142.046659 65.741083 
L 142.866666 63.123645 
L 143.275153 60.706213 
L 143.234287 58.570194 
L 142.721909 56.78952 
L 141.734692 55.423912 
L 140.289737 54.513026 
L 138.424225 54.072505 
L 136.193004 54.092758 
L 133.66442 54.540721 
L 130.914977 55.364299 
L 128.023643 56.498624 
L 125.066567 57.873012 
L 122.112826 59.417476 
L 116.440355 62.769822 
L 111.341277 66.165038 
L 106.979468 69.384904 
L 103.389373 72.350067 
L 100.525294 75.064466 
L 98.301502 77.567943 
L 96.619181 79.906547 
L 95.382215 82.118385 
L 94.505223 84.22942 
L 93.916795 86.254308 
L 93.559996 88.19909 
L 93.391458 90.064034 
L 93.426109 92.704164 
L 93.753433 95.138834 
L 94.353133 97.344927 
L 94.910417 98.675068 
L 95.607278 99.880947 
L 96.462296 100.94958 
L 97.50036 101.864111 
L 98.752989 102.602232 
L 100.258701 103.134133 
L 102.063246 103.419907 
L 104.219385 103.406303 
L 106.785649 103.022898 
L 109.823233 102.177969 
L 113.389592 100.754999 
L 115.385267 99.783243 
L 117.526746 98.611853 
L 119.813654 97.219994 
L 122.241622 95.586621 
L 124.801064 93.691536 
L 127.475761 91.516887 
L 130.241311 89.049199 
L 133.063543 86.281986 
L 135.897035 83.218926 
L 138.683987 79.877499 
L 141.353773 76.292786 
L 143.823554 72.520946 
L 146.000397 68.64163 
L 147.785269 64.758407 
L 149.079085 60.996185 
L 149.790679 57.494839 
L 149.846029 54.39879 
L 149.197555 51.843218 
L 147.831872 49.938719 
L 145.774248 48.75719 
L 143.088475 48.32205 
L 139.871693 48.605298 
L 136.244926 49.532323 
L 132.34107 50.993436 
L 128.292602 52.859397 
L 124.22108 54.997502 
L 120.229794 57.285212 
L 112.790229 61.92114 
L 106.363826 66.229793 
L 101.060112 70.010475 
L 96.815784 73.275389 
L 93.485113 76.128112 
L 90.897277 78.686652 
L 88.886616 81.048382 
L 87.305879 83.280905 
L 86.030146 85.425075 
L 84.467555 88.517917 
L 81.68823 94.294857 
L 80.097636 96.94603 
L 78.858252 98.605262 
L 77.425272 100.162246 
L 75.754226 101.597551 
L 73.798689 102.883126 
L 71.510676 103.978106 
L 68.84268 104.823296 
L 67.352529 105.127047 
L 65.752253 105.334327 
L 64.038713 105.429385 
L 62.210422 105.39395 
L 60.268139 105.20707 
L 58.215581 104.845057 
L 56.060259 104.281598 
L 53.814431 103.488117 
L 51.496137 102.434472 
L 49.130246 101.090108 
L 46.749431 99.425772 
L 44.39491 97.415878 
L 42.116758 95.041556 
L 39.973552 92.294308 
L 38.031084 89.18007 
L 36.359941 85.723236 
L 35.031812 81.970028 
L 34.114627 77.990417 
L 33.666859 73.877754 
L 33.731638 69.745457 
L 34.331549 65.720536 
L 35.465057 61.93436 
L 37.105349 58.511785 
L 39.201964 55.560302 
L 41.685043 53.161 
L 44.471504 51.362834 
L 47.472097 50.18097 
L 50.598228 49.599098 
L 53.76766 49.574863 
L 56.908556 50.047102 
L 59.961728 50.943551 
L 62.881308 52.187898 
L 65.634182 53.70548 
L 68.198648 55.42734 
L 70.562661 57.292676 
L 72.721971 59.249933 
L 74.678358 61.256877 
L 76.438058 63.279994 
L 78.010438 65.293498 
L 80.640129 69.220239 
L 82.669472 72.942079 
L 84.202482 76.419468 
L 85.33496 79.645071 
L 86.149767 82.628688 
L 86.715391 85.388207 
L 87.212374 89.15302 
L 87.400927 92.530399 
L 87.362579 95.583003 
L 87.139757 98.363952 
L 86.744795 100.917372 
L 86.165486 103.279829 
L 85.367284 105.481567 
L 84.686095 106.872323 
L 83.859054 108.20795 
L 82.856717 109.491845 
L 81.642716 110.72442 
L 80.172695 111.901473 
L 78.393227 113.011588 
L 76.240978 114.03207 
L 73.642627 114.922751 
L 70.516447 115.616801 
L 68.728685 115.858777 
L 66.777224 116.0076 
L 64.652663 116.040828 
L 62.347287 115.931106 
L 59.85607 115.645473 
L 57.177986 115.144745 
L 54.317664 114.383113 
L 51.287442 113.308124 
L 48.109785 111.861331 
L 44.820003 109.979938 
L 41.469064 107.599856 
L 38.126149 104.660609 
L 34.88038 101.112402 
L 31.840943 96.925428 
L 29.134674 92.100934 
L 26.900213 86.682779 
L 25.278193 80.767267 
L 24.397709 74.508227 
L 24.360503 68.114156 
L 25.225548 61.835219 
L 26.99751 55.940177 
L 29.622357 50.686449 
L 32.991859 46.289248 
L 36.956397 42.896747 
L 41.34316 40.576791 
L 45.975582 39.317263 
L 50.690096 39.038378 
L 55.347715 39.612442 
L 59.839733 40.885794 
L 64.088368 42.698563 
L 68.043892 44.899653 
L 71.679919 47.356194 
L 74.98816 49.958012 
L 77.973522 52.618298 
L 80.649959 55.271849 
L 83.03721 57.872011 
L 85.158349 60.3872 
L 88.701291 65.091781 
L 91.475821 69.316685 
L 93.664958 73.065526 
L 96.194603 77.872586 
L 99.41269 84.036718 
L 100.617873 85.943656 
L 101.88004 87.556109 
L 103.254515 88.876974 
L 104.789963 89.898845 
L 106.529986 90.603619 
L 108.513574 90.96209 
L 110.774139 90.93378 
L 113.336697 90.467496 
L 116.212712 89.503466 
L 119.392085 87.978382 
L 122.83203 85.835101 
L 124.624064 84.519329 
L 126.443379 83.039001 
L 128.269248 81.397284 
L 130.076462 79.602168 
L 131.835232 77.667502 
L 133.511368 75.613938 
L 135.066804 73.469668 
L 136.460551 71.270767 
L 137.650134 69.060975 
L 138.593519 66.890743 
L 139.251458 64.815428 
L 139.590127 62.892617 
L 139.583816 61.178691 
L 139.217367 59.724928 
L 138.48804 58.573568 
L 137.406493 57.754377 
L 135.99667 57.28223 
L 134.294538 57.156125 
L 132.345791 57.359798 
L 130.202809 57.863851 
L 127.921249 58.629018 
L 125.556691 59.610069 
L 123.161708 60.759743 
L 118.462836 63.385914 
L 114.11784 66.200549 
L 110.302515 68.998268 
L 107.091635 71.671236 
L 104.488153 74.181562 
L 102.451999 76.530546 
L 100.922565 78.735174 
L 99.833931 80.813985 
L 99.124086 82.780406 
L 98.739855 84.640758 
L 98.639074 86.394558 
L 98.791125 88.035614 
L 99.176583 89.553056 
L 99.786467 90.931949 
L 100.621345 92.153337 
L 101.690422 93.193751 
L 103.010592 94.02419 
L 104.605341 94.608696 
L 106.503245 94.902601 
L 108.735688 94.850704 
L 111.333193 94.385789 
L 114.319595 93.428302 
L 117.703043 91.888607 
L 119.538775 90.87126 
L 121.462837 89.674075 
L 123.465194 88.287467 
L 125.531542 86.704154 
L 127.642585 84.9203 
L 129.773353 82.936872 
L 131.892666 80.761181 
L 133.962823 78.408505 
L 135.939684 75.903658 
L 137.773261 73.28229 
L 139.408982 70.591627 
L 140.78974 67.890342 
L 141.858738 65.247222 
L 142.563072 62.738406 
L 142.857795 60.44313 
L 142.710071 58.438191 
L 142.102873 56.791654 
L 141.03764 55.556642 
L 139.535362 54.766178 
L 137.635792 54.430029 
L 135.394763 54.534181 
L 132.87996 55.043082 
L 130.165763 55.904233 
L 127.327891 57.054276 
L 124.438572 58.425512 
L 121.562747 59.951832 
L 116.061203 63.239486 
L 111.132965 66.555974 
L 106.926687 69.702065 
L 103.470534 72.606529 
L 100.718497 75.27402 
L 98.587752 77.741487 
L 96.98374 80.051097 
L 95.8149 82.237406 
L 95.000204 84.323594 
L 94.472216 86.322289 
L 94.17759 88.23804 
L 94.07625 90.069925 
L 94.140024 91.813606 
L 94.35117 93.462677 
L 94.701045 95.009347 
L 95.18905 96.444569 
L 95.821875 97.757724 
L 96.613067 98.935936 
L 97.582866 99.963034 
L 98.758254 100.818152 
L 100.173108 101.47391 
L 101.868286 101.894097 
L 103.891367 102.030812 
L 106.295592 101.821071 
L 109.137263 101.183129 
L 112.470454 100.013229 
L 114.335405 99.189961 
L 116.337347 98.184362 
L 118.477035 96.977545 
L 120.751969 95.550172 
L 123.155365 93.883269 
L 125.674955 91.959384 
L 128.291648 89.764191 
L 130.978116 87.288578 
L 133.697412 84.531237 
L 136.401791 81.50172 
L 139.031983 78.223764 
L 141.51723 74.738566 
L 143.776438 71.107492 
L 145.720821 67.41348 
L 147.258272 63.760315 
L 148.299528 60.268963 
L 148.765806 57.070447 
L 148.597172 54.295361 
L 147.760442 52.060978 
L 146.25515 50.45785 
L 144.116193 49.538434 
L 141.412245 49.310296 
L 138.23989 49.735627 
L 134.714417 50.737345 
L 130.958937 52.210418 
L 127.093762 54.035853 
L 123.227693 56.094472 
L 119.452177 58.27809 
L 112.437792 62.682323 
L 106.389486 66.784808 
L 101.39836 70.415107 
L 97.40294 73.585891 
L 94.268408 76.388144 
L 91.837264 78.925134 
L 89.956546 81.282161 
L 88.49005 83.51858 
L 87.322149 85.670404 
L 85.926003 88.777282 
L 82.729924 96.409816 
L 81.272718 98.99596 
L 80.115423 100.621318 
L 78.762685 102.156874 
L 77.171009 103.588079 
L 75.29291 104.892519 
L 73.07691 106.035796 
L 70.468879 106.965897 
L 67.415613 107.60579 
L 65.707307 107.783772 
L 63.872014 107.844287 
L 61.907448 107.766463 
L 59.813834 107.52612 
L 57.594777 107.095661 
L 55.258296 106.444143 
L 52.818008 105.537664 
L 50.294433 104.340178 
L 47.716346 102.814891 
L 45.122026 100.926401 
L 42.560228 98.643701 
L 40.090583 95.944106 
L 37.783107 92.818001 
L 35.716469 89.274109 
L 33.974701 85.344664 
L 32.642239 81.089583 
L 31.797441 76.598502 
L 31.505146 71.989535 
L 31.809254 67.403934 
L 32.726588 62.996544 
L 34.243323 58.922933 
L 36.314898 55.325053 
L 38.86966 52.317891 
L 41.815658 49.97954 
L 45.049349 48.346343 
L 48.464663 47.413606 
L 51.961013 47.141113 
L 55.44928 47.461834 
L 58.855399 48.291896 
L 62.121704 49.540115 
L 65.206491 51.115915 
L 68.082417 52.935075 
L 70.734272 54.923271 
L 73.156588 57.017713 
L 75.351354 59.167347 
L 77.326009 61.332099 
L 79.091761 63.481581 
L 80.662253 65.593569 
L 83.278196 69.64801 
L 85.298106 73.426666 
L 86.8412 76.910683 
L 88.013728 80.107551 
L 89.271111 84.408908 
L 90.134189 88.190064 
L 92.448244 99.443047 
L 93.171397 101.491656 
L 94.088914 103.262859 
L 94.846798 104.283286 
L 95.753606 105.165021 
L 96.842214 105.893186 
L 98.151577 106.445936 
L 99.727751 106.792305 
L 101.624674 106.889285 
L 103.904391 106.678035 
L 106.636075 106.079177 
L 109.89283 104.987499 
L 113.744495 103.267126 
L 115.911148 102.119742 
L 118.243851 100.74966 
L 120.742613 99.131751 
L 123.402632 97.240485 
L 126.212733 95.051264 
L 129.153555 92.542357 
L 132.195545 89.697553 
L 135.296898 86.509617 
L 138.401654 82.984522 
L 141.438302 79.146291 
L 144.319341 75.042012 
L 146.942382 70.746275 
L 149.193391 66.363918 
L 150.952561 62.029701 
L 152.102997 57.903476 
L 152.541804 54.159877 
L 152.192423 50.972542 
L 151.016245 48.494452 
L 149.021051 46.837653 
L 146.263972 46.056777 
L 142.847631 46.140639 
L 138.909742 47.014471 
L 134.608129 48.552479 
L 130.104287 50.597554 
L 125.548643 52.983269 
L 121.069852 55.553389 
L 112.71848 60.748954 
L 105.528831 65.500536 
L 97.135809 71.345443 
L 92.970939 74.48131 
L 89.725587 77.18672 
L 87.197698 79.604283 
L 85.204247 81.838191 
L 83.588696 83.954059 
L 81.596225 86.977733 
L 78.633667 91.670392 
L 77.364803 93.403749 
L 75.963026 95.031013 
L 74.379777 96.529232 
L 72.570102 97.86848 
L 70.492335 99.009037 
L 68.10936 99.897658 
L 65.391982 100.463199 
L 63.902389 100.596584 
L 62.325129 100.612204 
L 60.662138 100.494374 
L 58.917697 100.225803 
L 57.098964 99.787776 
L 55.216568 99.160485 
L 53.28522 98.323587 
L 51.32431 97.257034 
L 49.358425 95.942216 
L 47.417702 94.36346 
L 45.537915 92.509879 
L 43.760166 90.377512 
L 42.130061 87.97164 
L 40.696273 85.309052 
L 39.508422 82.419958 
L 38.614328 79.349166 
L 38.056777 76.156129 
L 37.870089 72.913514 
L 38.076879 69.704132 
L 38.685488 66.616305 
L 39.6885 63.738071 
L 41.062651 61.150902 
L 42.770233 58.923788 
L 44.761798 57.108505 
L 46.97982 55.736739 
L 49.362764 54.819324 
L 51.849046 54.347555 
L 54.380441 54.29612 
L 56.904658 54.627073 
L 59.376971 55.294174 
L 61.760965 56.247049 
L 64.028554 57.434741 
L 66.159444 58.808473 
L 68.140269 60.323537 
L 69.963559 61.940407 
L 71.626659 63.625205 
L 73.130705 65.349674 
L 74.4797 67.090834 
L 76.738197 70.554373 
L 78.464204 73.915422 
L 79.727026 77.119893 
L 80.593347 80.143772 
L 81.12172 82.981248 
L 81.359935 85.636711 
L 81.344154 88.119568 
L 81.099048 90.440949 
L 80.638416 92.611558 
L 79.965971 94.64015 
L 79.076112 96.532258 
L 77.954631 98.288873 
L 76.579374 99.904825 
L 74.921021 101.366583 
L 72.94424 102.64924 
L 70.609684 103.712379 
L 67.877518 104.494673 
L 66.351178 104.75401 
L 64.713525 104.90727 
L 62.962807 104.937873 
L 61.099175 104.826686 
L 59.125332 104.551934 
L 57.047298 104.089257 
L 54.875278 103.411955 
L 52.624636 102.491533 
L 50.316895 101.298633 
L 47.980712 99.804446 
L 45.652686 97.982724 
L 43.377844 95.812422 
L 41.209584 93.280958 
L 39.208846 90.387949 
L 37.442269 87.149103 
L 35.979203 83.599762 
L 34.887533 79.797412 
L 34.228557 75.82236 
L 34.051374 71.775887 
L 34.387534 67.775447 
L 35.246823 63.947011 
L 36.615005 60.415312 
L 38.45409 57.293324 
L 40.705222 54.672657 
L 43.293747 52.616445 
L 46.13563 51.15581 
L 49.144175 50.290213 
L 52.236084 49.991219 
L 55.336167 50.208635 
L 58.380387 50.877728 
L 61.317288 51.926357 
L 64.108048 53.281133 
L 66.725587 54.872141 
L 69.153069 56.636098 
L 71.382176 58.518086 
L 73.411357 60.47214 
L 75.24421 62.46102 
L 76.888079 64.455461 
L 76.888079 64.455461 
" clip-path="url(#p5a71b08b66)" style="fill: none; stroke: #ff7f0e; stroke-opacity: 0.5; stroke-width: 1.5; stroke-linecap: round"/>
   </g>
  </g>
 </g>
 <defs>
  <clipPath id="p5a71b08b66">
   <rect x="-1.8" y="-7.2" width="176.4" height="176.4"/>
  </clipPath>
 </defs>
</svg>
