<?xml version="1.0" encoding="utf-8" standalone="no"?>
<!DOCTYPE svg PUBLIC "-//W3C//DTD SVG 1.1//EN"
  "http://www.w3.org/Graphics/SVG/1.1/DTD/svg11.dtd">
<svg xmlns:xlink="http://www.w3.org/1999/xlink" width="216pt" height="180pt" viewBox="0 0 216 180" xmlns="http://www.w3.org/2000/svg" version="1.1">
 <metadata>
  <rdf:RDF xmlns:dc="http://purl.org/dc/elements/1.1/" xmlns:cc="http://creativecommons.org/ns#" xmlns:rdf="http://www.w3.org/1999/02/22-rdf-syntax-ns#">
   <cc:Work>
    <dc:type rdf:resource="http://purl.org/dc/dcmitype/StillImage"/>
    <dc:date>2023-06-14T18:51:35.837632</dc:date>
    <dc:format>image/svg+xml</dc:format>
    <dc:creator>
     <cc:Agent>
      <dc:title>Matplotlib v3.7.0, https://matplotlib.org/</dc:title>
     </cc:Agent>
    </dc:creator>
   </cc:Work>
  </rdf:RDF>
 </metadata>
 <defs>
  <style type="text/css">*{stroke-linejoin: round; stroke-linecap: butt}</style>
 </defs>
 <g id="figure_1">
  <g id="patch_1">
   <path d="M 0 180 
L 216 180 
L 216 0 
L 0 0 
z
" style="fill: #ffffff"/>
  </g>
  <g id="patch_2">
   <path d="M -1 169.2 
L 174.6 169.2 
L 174.6 -1 
" style="fill: none"/>
  </g>
  <g id="pane3d_1">
   <g id="patch_3">
    <path d="M 11.519416 125.705413 
L 69.772457 76.876559 
L 68.962684 6.456623 
L 7.921935 51.001381 
" style="fill: none; opacity: 0.5; stroke: #f2f2f2; stroke-linejoin: miter"/>
   </g>
  </g>
  <g id="pane3d_2">
   <g id="patch_4">
    <path d="M 69.772457 76.876559 
L 163.247803 104.046152 
L 166.583609 31.200681 
L 68.962684 6.456623 
" style="fill: none; opacity: 0.5; stroke: #e6e6e6; stroke-linejoin: miter"/>
   </g>
  </g>
  <g id="pane3d_3">
   <g id="patch_5">
    <path d="M 11.519416 125.705413 
L 110.607849 158.067695 
L 163.247803 104.046152 
L 69.772457 76.876559 
" style="fill: none; opacity: 0.5; stroke: #ececec; stroke-linejoin: miter"/>
   </g>
  </g>
  <g id="axis3d_1">
   <g id="line2d_1">
    <path d="M 11.519416 125.705413 
L 110.607849 158.067695 
" style="fill: none; stroke: #ffffff; stroke-width: 0.8; stroke-linecap: round"/>
   </g>
   <g id="text_1">
    <!-- x -->
    <g style="fill: #262626" transform="translate(40.437569 179.640981) scale(0.1 -0.1)">
     <defs>
      <path id="DejaVuSans-78" d="M 3513 3500 
L 2247 1797 
L 3578 0 
L 2900 0 
L 1881 1375 
L 863 0 
L 184 0 
L 1544 1831 
L 300 3500 
L 978 3500 
L 1906 2253 
L 2834 3500 
L 3513 3500 
z
" transform="scale(0.015625)"/>
     </defs>
     <use xlink:href="#DejaVuSans-78"/>
    </g>
   </g>
   <g id="Line3DCollection_1">
    <path d="M 33.606062 132.918912 
L 90.679528 82.953419 
L 90.761209 11.981913 
" style="fill: none; stroke: #d3d3d3; stroke-width: 0.8"/>
    <path d="M 56.781905 140.488142 
L 112.573374 89.317096 
L 113.610647 17.77358 
" style="fill: none; stroke: #d3d3d3; stroke-width: 0.8"/>
    <path d="M 80.545191 148.249231 
L 134.975258 95.828439 
L 137.013695 23.70557 
" style="fill: none; stroke: #d3d3d3; stroke-width: 0.8"/>
    <path d="M 104.91854 156.209567 
L 157.90307 102.492649 
L 160.990719 29.783047 
" style="fill: none; stroke: #d3d3d3; stroke-width: 0.8"/>
   </g>
   <g id="xtick_1">
    <g id="line2d_2">
     <path d="M 88.783784 78.616216 
" clip-path="url(#p56721d3f83)" style="fill: none; stroke: #d3d3d3; stroke-width: 0.8; stroke-linecap: round"/>
    </g>
    <g id="line2d_3">
     <path d="M 34.103408 132.483505 
L 32.609216 133.791609 
" style="fill: none; stroke: #808080; stroke-width: 0.8; stroke-linecap: round"/>
    </g>
    <g id="text_2">
     <!-- −10 -->
     <g style="fill: #808080" transform="translate(15.535107 156.426297) scale(0.1 -0.1)">
      <defs>
       <path id="DejaVuSans-2212" d="M 678 2272 
L 4684 2272 
L 4684 1741 
L 678 1741 
L 678 2272 
z
" transform="scale(0.015625)"/>
       <path id="DejaVuSans-31" d="M 794 531 
L 1825 531 
L 1825 4091 
L 703 3866 
L 703 4441 
L 1819 4666 
L 2450 4666 
L 2450 531 
L 3481 531 
L 3481 0 
L 794 0 
L 794 531 
z
" transform="scale(0.015625)"/>
       <path id="DejaVuSans-30" d="M 2034 4250 
Q 1547 4250 1301 3770 
Q 1056 3291 1056 2328 
Q 1056 1369 1301 889 
Q 1547 409 2034 409 
Q 2525 409 2770 889 
Q 3016 1369 3016 2328 
Q 3016 3291 2770 3770 
Q 2525 4250 2034 4250 
z
M 2034 4750 
Q 2819 4750 3233 4129 
Q 3647 3509 3647 2328 
Q 3647 1150 3233 529 
Q 2819 -91 2034 -91 
Q 1250 -91 836 529 
Q 422 1150 422 2328 
Q 422 3509 836 4129 
Q 1250 4750 2034 4750 
z
" transform="scale(0.015625)"/>
      </defs>
      <use xlink:href="#DejaVuSans-2212"/>
      <use xlink:href="#DejaVuSans-31" x="83.789062"/>
      <use xlink:href="#DejaVuSans-30" x="147.412109"/>
     </g>
    </g>
   </g>
   <g id="xtick_2">
    <g id="line2d_4">
     <path d="M 88.783784 78.616216 
" clip-path="url(#p56721d3f83)" style="fill: none; stroke: #d3d3d3; stroke-width: 0.8; stroke-linecap: round"/>
    </g>
    <g id="line2d_5">
     <path d="M 57.268578 140.041773 
L 55.806426 141.382836 
" style="fill: none; stroke: #808080; stroke-width: 0.8; stroke-linecap: round"/>
    </g>
    <g id="text_3">
     <!-- 0 -->
     <g style="fill: #808080" transform="translate(46.120421 164.239211) scale(0.1 -0.1)">
      <use xlink:href="#DejaVuSans-30"/>
     </g>
    </g>
   </g>
   <g id="xtick_3">
    <g id="line2d_6">
     <path d="M 88.783784 78.616216 
" clip-path="url(#p56721d3f83)" style="fill: none; stroke: #d3d3d3; stroke-width: 0.8; stroke-linecap: round"/>
    </g>
    <g id="line2d_7">
     <path d="M 81.020487 147.791481 
L 79.592489 149.166764 
" style="fill: none; stroke: #808080; stroke-width: 0.8; stroke-linecap: round"/>
    </g>
    <g id="text_4">
     <!-- 10 -->
     <g style="fill: #808080" transform="translate(66.745225 172.251312) scale(0.1 -0.1)">
      <use xlink:href="#DejaVuSans-31"/>
      <use xlink:href="#DejaVuSans-30" x="63.623047"/>
     </g>
    </g>
   </g>
   <g id="xtick_4">
    <g id="line2d_8">
     <path d="M 88.783784 78.616216 
" clip-path="url(#p56721d3f83)" style="fill: none; stroke: #d3d3d3; stroke-width: 0.8; stroke-linecap: round"/>
    </g>
    <g id="line2d_9">
     <path d="M 105.381711 155.739994 
L 103.990116 157.150824 
" style="fill: none; stroke: #808080; stroke-width: 0.8; stroke-linecap: round"/>
    </g>
    <g id="text_5">
     <!-- 20 -->
     <g style="fill: #808080" transform="translate(91.166039 180.470315) scale(0.1 -0.1)">
      <defs>
       <path id="DejaVuSans-32" d="M 1228 531 
L 3431 531 
L 3431 0 
L 469 0 
L 469 531 
Q 828 903 1448 1529 
Q 2069 2156 2228 2338 
Q 2531 2678 2651 2914 
Q 2772 3150 2772 3378 
Q 2772 3750 2511 3984 
Q 2250 4219 1831 4219 
Q 1534 4219 1204 4116 
Q 875 4013 500 3803 
L 500 4441 
Q 881 4594 1212 4672 
Q 1544 4750 1819 4750 
Q 2544 4750 2975 4387 
Q 3406 4025 3406 3419 
Q 3406 3131 3298 2873 
Q 3191 2616 2906 2266 
Q 2828 2175 2409 1742 
Q 1991 1309 1228 531 
z
" transform="scale(0.015625)"/>
      </defs>
      <use xlink:href="#DejaVuSans-32"/>
      <use xlink:href="#DejaVuSans-30" x="63.623047"/>
     </g>
    </g>
   </g>
  </g>
  <g id="axis3d_2">
   <g id="line2d_10">
    <path d="M 163.247803 104.046152 
L 110.607849 158.067695 
" style="fill: none; stroke: #ffffff; stroke-width: 0.8; stroke-linecap: round"/>
   </g>
   <g id="text_6">
    <!-- y -->
    <g style="fill: #262626" transform="translate(162.133934 160.636398) scale(0.1 -0.1)">
     <defs>
      <path id="DejaVuSans-79" d="M 2059 -325 
Q 1816 -950 1584 -1140 
Q 1353 -1331 966 -1331 
L 506 -1331 
L 506 -850 
L 844 -850 
Q 1081 -850 1212 -737 
Q 1344 -625 1503 -206 
L 1606 56 
L 191 3500 
L 800 3500 
L 1894 763 
L 2988 3500 
L 3597 3500 
L 2059 -325 
z
" transform="scale(0.015625)"/>
     </defs>
     <use xlink:href="#DejaVuSans-79"/>
    </g>
   </g>
   <g id="Line3DCollection_2">
    <path d="M 15.377505 45.560646 
L 18.61081 119.761266 
L 117.040827 151.465877 
" style="fill: none; stroke: #d3d3d3; stroke-width: 0.8"/>
    <path d="M 28.084372 36.287754 
L 30.712144 109.617689 
L 128.002605 140.216396 
" style="fill: none; stroke: #d3d3d3; stroke-width: 0.8"/>
    <path d="M 40.343837 27.341354 
L 42.405531 99.816059 
L 138.575753 129.365745 
" style="fill: none; stroke: #d3d3d3; stroke-width: 0.8"/>
    <path d="M 52.179122 18.704502 
L 53.71126 90.339374 
L 148.780579 118.893083 
" style="fill: none; stroke: #d3d3d3; stroke-width: 0.8"/>
    <path d="M 63.611867 10.361406 
L 64.648292 81.171736 
L 158.635998 108.778999 
" style="fill: none; stroke: #d3d3d3; stroke-width: 0.8"/>
   </g>
   <g id="xtick_5">
    <g id="line2d_11">
     <path d="M 88.783784 78.616216 
" clip-path="url(#p56721d3f83)" style="fill: none; stroke: #d3d3d3; stroke-width: 0.8; stroke-linecap: round"/>
    </g>
    <g id="line2d_12">
     <path d="M 116.211546 151.198763 
L 118.701523 152.000792 
" style="fill: none; stroke: #808080; stroke-width: 0.8; stroke-linecap: round"/>
    </g>
    <g id="text_7">
     <!-- −20 -->
     <g style="fill: #808080" transform="translate(119.316572 172.427656) scale(0.1 -0.1)">
      <use xlink:href="#DejaVuSans-2212"/>
      <use xlink:href="#DejaVuSans-32" x="83.789062"/>
      <use xlink:href="#DejaVuSans-30" x="147.412109"/>
     </g>
    </g>
   </g>
   <g id="xtick_6">
    <g id="line2d_13">
     <path d="M 88.783784 78.616216 
" clip-path="url(#p56721d3f83)" style="fill: none; stroke: #d3d3d3; stroke-width: 0.8; stroke-linecap: round"/>
    </g>
    <g id="line2d_14">
     <path d="M 127.183671 139.958834 
L 129.642543 140.732171 
" style="fill: none; stroke: #808080; stroke-width: 0.8; stroke-linecap: round"/>
    </g>
    <g id="text_8">
     <!-- −10 -->
     <g style="fill: #808080" transform="translate(130.056325 160.926866) scale(0.1 -0.1)">
      <use xlink:href="#DejaVuSans-2212"/>
      <use xlink:href="#DejaVuSans-31" x="83.789062"/>
      <use xlink:href="#DejaVuSans-30" x="147.412109"/>
     </g>
    </g>
   </g>
   <g id="xtick_7">
    <g id="line2d_15">
     <path d="M 88.783784 78.616216 
" clip-path="url(#p56721d3f83)" style="fill: none; stroke: #d3d3d3; stroke-width: 0.8; stroke-linecap: round"/>
    </g>
    <g id="line2d_16">
     <path d="M 137.76696 129.117231 
L 140.195347 129.863388 
" style="fill: none; stroke: #808080; stroke-width: 0.8; stroke-linecap: round"/>
    </g>
    <g id="text_9">
     <!-- 0 -->
     <g style="fill: #808080" transform="translate(147.786083 149.834168) scale(0.1 -0.1)">
      <use xlink:href="#DejaVuSans-30"/>
     </g>
    </g>
   </g>
   <g id="xtick_8">
    <g id="line2d_17">
     <path d="M 88.783784 78.616216 
" clip-path="url(#p56721d3f83)" style="fill: none; stroke: #d3d3d3; stroke-width: 0.8; stroke-linecap: round"/>
    </g>
    <g id="line2d_18">
     <path d="M 147.981723 118.65315 
L 150.380239 119.373535 
" style="fill: none; stroke: #808080; stroke-width: 0.8; stroke-linecap: round"/>
    </g>
    <g id="text_10">
     <!-- 10 -->
     <g style="fill: #808080" transform="translate(154.602338 139.128222) scale(0.1 -0.1)">
      <use xlink:href="#DejaVuSans-31"/>
      <use xlink:href="#DejaVuSans-30" x="63.623047"/>
     </g>
    </g>
   </g>
   <g id="xtick_9">
    <g id="line2d_19">
     <path d="M 88.783784 78.616216 
" clip-path="url(#p56721d3f83)" style="fill: none; stroke: #d3d3d3; stroke-width: 0.8; stroke-linecap: round"/>
    </g>
    <g id="line2d_20">
     <path d="M 157.846879 108.547208 
L 160.216128 109.243134 
" style="fill: none; stroke: #808080; stroke-width: 0.8; stroke-linecap: round"/>
    </g>
    <g id="text_11">
     <!-- 20 -->
     <g style="fill: #808080" transform="translate(164.25725 128.789146) scale(0.1 -0.1)">
      <use xlink:href="#DejaVuSans-32"/>
      <use xlink:href="#DejaVuSans-30" x="63.623047"/>
     </g>
    </g>
   </g>
  </g>
  <g id="axis3d_3">
   <g id="line2d_21">
    <path d="M 163.247803 104.046152 
L 166.583609 31.200681 
" style="fill: none; stroke: #ffffff; stroke-width: 0.8; stroke-linecap: round"/>
   </g>
   <g id="text_12">
    <!-- z -->
    <g style="fill: #262626" transform="translate(202.494937 65.789607) scale(0.1 -0.1)">
     <defs>
      <path id="DejaVuSans-7a" d="M 353 3500 
L 3084 3500 
L 3084 2975 
L 922 459 
L 3084 459 
L 3084 0 
L 275 0 
L 275 525 
L 2438 3041 
L 353 3041 
L 353 3500 
z
" transform="scale(0.015625)"/>
     </defs>
     <use xlink:href="#DejaVuSans-7a"/>
    </g>
   </g>
   <g id="Line3DCollection_3">
    <path d="M 163.472347 99.142702 
L 69.717842 72.127038 
L 11.27764 120.68476 
" style="fill: none; stroke: #d3d3d3; stroke-width: 0.8"/>
    <path d="M 164.370623 79.526644 
L 69.499509 53.14027 
L 10.309872 100.58844 
" style="fill: none; stroke: #d3d3d3; stroke-width: 0.8"/>
    <path d="M 165.290769 59.432999 
L 69.276118 33.713612 
L 9.317631 79.983915 
" style="fill: none; stroke: #d3d3d3; stroke-width: 0.8"/>
    <path d="M 166.233594 38.844111 
L 69.047491 13.831599 
L 8.299977 58.851661 
" style="fill: none; stroke: #d3d3d3; stroke-width: 0.8"/>
   </g>
   <g id="xtick_10">
    <g id="line2d_22">
     <path d="M 88.783784 78.616216 
" style="fill: none; stroke: #d3d3d3; stroke-width: 0.8; stroke-linecap: round"/>
    </g>
    <g id="line2d_23">
     <path d="M 162.685377 98.915934 
L 165.048163 99.596779 
" style="fill: none; stroke: #808080; stroke-width: 0.8; stroke-linecap: round"/>
    </g>
    <g id="text_13">
     <!-- 10 -->
     <g style="fill: #808080" transform="translate(175.384381 104.154512) scale(0.1 -0.1)">
      <use xlink:href="#DejaVuSans-31"/>
      <use xlink:href="#DejaVuSans-30" x="63.623047"/>
     </g>
    </g>
   </g>
   <g id="xtick_11">
    <g id="line2d_24">
     <path d="M 88.783784 78.616216 
" style="fill: none; stroke: #d3d3d3; stroke-width: 0.8; stroke-linecap: round"/>
    </g>
    <g id="line2d_25">
     <path d="M 163.573831 79.305034 
L 165.96613 79.9704 
" style="fill: none; stroke: #808080; stroke-width: 0.8; stroke-linecap: round"/>
    </g>
    <g id="text_14">
     <!-- 20 -->
     <g style="fill: #808080" transform="translate(176.497319 84.597406) scale(0.1 -0.1)">
      <use xlink:href="#DejaVuSans-32"/>
      <use xlink:href="#DejaVuSans-30" x="63.623047"/>
     </g>
    </g>
   </g>
   <g id="xtick_12">
    <g id="line2d_26">
     <path d="M 88.783784 78.616216 
" style="fill: none; stroke: #d3d3d3; stroke-width: 0.8; stroke-linecap: round"/>
    </g>
    <g id="line2d_27">
     <path d="M 164.483908 59.216866 
L 166.906464 59.865794 
" style="fill: none; stroke: #808080; stroke-width: 0.8; stroke-linecap: round"/>
    </g>
    <g id="text_15">
     <!-- 30 -->
     <g style="fill: #808080" transform="translate(177.637228 64.566357) scale(0.1 -0.1)">
      <defs>
       <path id="DejaVuSans-33" d="M 2597 2516 
Q 3050 2419 3304 2112 
Q 3559 1806 3559 1356 
Q 3559 666 3084 287 
Q 2609 -91 1734 -91 
Q 1441 -91 1130 -33 
Q 819 25 488 141 
L 488 750 
Q 750 597 1062 519 
Q 1375 441 1716 441 
Q 2309 441 2620 675 
Q 2931 909 2931 1356 
Q 2931 1769 2642 2001 
Q 2353 2234 1838 2234 
L 1294 2234 
L 1294 2753 
L 1863 2753 
Q 2328 2753 2575 2939 
Q 2822 3125 2822 3475 
Q 2822 3834 2567 4026 
Q 2313 4219 1838 4219 
Q 1578 4219 1281 4162 
Q 984 4106 628 3988 
L 628 4550 
Q 988 4650 1302 4700 
Q 1616 4750 1894 4750 
Q 2613 4750 3031 4423 
Q 3450 4097 3450 3541 
Q 3450 3153 3228 2886 
Q 3006 2619 2597 2516 
z
" transform="scale(0.015625)"/>
      </defs>
      <use xlink:href="#DejaVuSans-33"/>
      <use xlink:href="#DejaVuSans-30" x="63.623047"/>
     </g>
    </g>
   </g>
   <g id="xtick_13">
    <g id="line2d_28">
     <path d="M 88.783784 78.616216 
" style="fill: none; stroke: #d3d3d3; stroke-width: 0.8; stroke-linecap: round"/>
    </g>
    <g id="line2d_29">
     <path d="M 165.416405 38.633793 
L 167.869994 39.265266 
" style="fill: none; stroke: #808080; stroke-width: 0.8; stroke-linecap: round"/>
    </g>
    <g id="text_16">
     <!-- 40 -->
     <g style="fill: #808080" transform="translate(178.8051 44.043926) scale(0.1 -0.1)">
      <defs>
       <path id="DejaVuSans-34" d="M 2419 4116 
L 825 1625 
L 2419 1625 
L 2419 4116 
z
M 2253 4666 
L 3047 4666 
L 3047 1625 
L 3713 1625 
L 3713 1100 
L 3047 1100 
L 3047 0 
L 2419 0 
L 2419 1100 
L 313 1100 
L 313 1709 
L 2253 4666 
z
" transform="scale(0.015625)"/>
      </defs>
      <use xlink:href="#DejaVuSans-34"/>
      <use xlink:href="#DejaVuSans-30" x="63.623047"/>
     </g>
    </g>
   </g>
  </g>
  <g id="axes_1">
   <g id="line2d_30">
    <path d="M 120.096691 105.311891 
L 123.682822 103.142582 
L 127.397881 100.595756 
L 131.177752 97.643286 
L 134.940481 94.272698 
L 138.589421 90.495519 
L 142.019313 86.356231 
L 145.124258 81.940398 
L 147.8053 77.379874 
L 149.974742 72.852563 
L 151.555503 68.573885 
L 152.476833 64.777641 
L 152.671292 61.685904 
L 152.079266 59.47181 
L 150.663962 58.224675 
L 148.432617 57.930204 
L 145.453308 58.475241 
L 141.856871 59.676383 
L 137.820835 61.321144 
L 113.765263 71.876294 
L 107.883805 74.152234 
L 103.188841 75.775313 
L 99.470899 76.885887 
L 95.270896 77.86879 
L 92.233336 78.317434 
L 89.97641 78.446757 
L 87.771357 78.343809 
L 85.845445 78.004087 
L 84.285945 77.488208 
L 83.101495 76.864389 
L 82.26964 76.175719 
L 81.802837 75.519095 
L 81.582692 74.813787 
L 81.605643 74.144396 
L 81.854137 73.452875 
L 82.338561 72.774246 
L 83.048699 72.15262 
L 84.01857 71.597977 
L 85.186905 71.181048 
L 86.515539 70.939169 
L 87.929238 70.912361 
L 89.366001 71.113614 
L 94.006412 72.000427 
L 95.262574 71.883253 
L 96.363021 71.563402 
L 97.002437 71.168735 
L 97.100447 70.898918 
L 96.919979 70.763312 
L 96.432227 70.719509 
L 95.804969 70.871254 
L 95.740258 70.968258 
L 95.800923 71.002414 
L 96.040263 70.961397 
L 95.986756 70.958273 
" clip-path="url(#p56721d3f83)" style="fill: none; stroke: #1f77b4; stroke-width: 1.5; stroke-linecap: round"/>
   </g>
   <g id="line2d_31">
    <path d="M 120.096691 105.311891 
L 122.034837 102.146479 
L 126.634236 95.410295 
L 131.874645 87.883019 
L 134.583235 83.772258 
L 137.246749 79.439395 
L 139.770872 74.922465 
L 142.04923 70.289301 
L 143.966727 65.639641 
L 145.405512 61.10398 
L 146.253628 56.837808 
L 146.415803 53.010382 
L 145.825101 49.788253 
L 144.453404 47.315343 
L 142.318385 45.693005 
L 139.484855 44.96448 
L 136.059531 45.107794 
L 132.17981 46.039311 
L 127.998753 47.627194 
L 123.669348 49.711396 
L 119.331031 52.125285 
L 115.100403 54.714347 
L 107.291819 59.931091 
L 100.645188 64.698487 
L 95.238151 68.785931 
L 90.963576 72.227757 
L 87.637267 75.164692 
L 85.060359 77.748109 
L 83.048647 80.099279 
L 81.443224 82.300642 
L 79.514481 85.421613 
L 75.64228 92.06576 
L 74.398608 93.775064 
L 73.000078 95.372203 
L 71.402736 96.833028 
L 69.565079 98.125237 
L 67.448408 99.20505 
L 65.018892 100.012977 
L 63.678598 100.290918 
L 62.251968 100.469022 
L 60.738617 100.533332 
L 59.139897 100.468126 
L 57.459357 100.255927 
L 55.703282 99.877627 
L 53.881276 99.312768 
L 52.006895 98.540041 
L 50.098265 97.538052 
L 48.178651 96.286419 
L 46.276876 94.767237 
L 44.427494 92.966931 
L 42.670588 90.878455 
L 41.051069 88.503735 
L 39.617346 85.856137 
L 38.419301 82.962678 
L 37.505581 79.865556 
L 36.920344 76.622586 
L 36.69971 73.306122 
L 36.86835 70.000236 
L 37.436662 66.796161 
L 38.399039 63.786342 
L 39.733559 61.057782 
L 41.403247 58.68557 
L 43.35876 56.727529 
L 45.542133 55.22073 
L 47.891018 54.180288 
L 50.342865 53.600396 
L 52.838529 53.457226 
L 55.32501 53.71303 
L 57.757182 54.320749 
L 60.098579 55.228472 
L 62.321372 56.383314 
L 64.405791 57.734425 
L 66.339173 59.235088 
L 68.114846 60.84396 
L 69.730988 62.525598 
L 71.189541 64.250465 
L 72.495247 65.994569 
L 74.676268 69.468745 
L 76.340084 72.843766 
L 77.55847 76.063668 
L 78.399412 79.103758 
L 78.922031 81.95819 
L 79.174328 84.631673 
L 79.192636 87.134184 
L 79.001974 89.477669 
L 78.616812 91.673946 
L 78.041943 93.733296 
L 77.273276 95.663342 
L 76.298491 97.467946 
L 75.097582 99.14587 
L 73.643376 100.688958 
L 71.902248 102.079574 
L 69.835363 103.287002 
L 67.401021 104.262529 
L 66.033235 104.64164 
L 64.558941 104.933047 
L 62.974547 105.122541 
L 61.277728 105.193402 
L 59.467957 105.126188 
L 57.547142 104.898594 
L 55.520396 104.485429 
L 53.396925 103.858804 
L 51.191027 102.988591 
L 48.923149 101.843289 
L 46.620934 100.391397 
L 44.320134 98.603413 
L 42.065218 96.454545 
L 39.909452 93.928124 
L 37.91419 91.019627 
L 36.14713 87.740971 
L 34.679329 84.124586 
L 33.580938 80.226505 
L 32.915847 76.127603 
L 32.735718 71.932126 
L 33.074203 67.762973 
L 33.942294 63.753707 
L 35.325758 60.038066 
L 37.18529 56.738388 
L 39.45955 53.954851 
L 42.070608 51.757341 
L 44.930886 50.18125 
L 47.950416 49.227626 
L 51.043344 48.867167 
L 54.132914 49.046907 
L 57.154591 49.698149 
L 60.057396 50.744281 
L 62.803779 52.107515 
L 65.368461 53.714001 
L 67.73671 55.497206 
L 69.902389 57.399711 
L 71.866054 59.373769 
L 73.633222 61.38097 
L 75.212914 63.391377 
L 76.616451 65.382373 
L 78.946445 69.245045 
L 80.729337 72.89008 
L 82.067715 76.287815 
L 83.053008 79.436341 
L 83.762521 82.348009 
L 84.443483 86.312983 
L 84.799603 89.856857 
L 84.940678 94.038797 
L 84.81721 97.717686 
L 84.476494 100.996015 
L 83.904208 103.954921 
L 83.285123 106.004957 
L 82.451477 107.937018 
L 81.334038 109.771257 
L 80.38527 110.946858 
L 79.231649 112.086403 
L 77.828392 113.186876 
L 76.121356 114.238457 
L 74.045961 115.22035 
L 71.526779 116.094324 
L 68.478714 116.794948 
L 64.811482 117.215339 
L 62.71848 117.270982 
L 60.440307 117.187491 
L 57.97076 116.930276 
L 55.307593 116.457777 
L 52.454274 115.720875 
L 49.422186 114.662676 
L 46.233269 113.219003 
L 42.923031 111.319959 
L 39.543741 108.893083 
L 36.167386 105.868616 
L 32.887798 102.187349 
L 29.821007 97.811202 
L 27.102756 92.736072 
L 24.882057 87.005543 
L 23.310116 80.722801 
L 22.524892 74.05708 
L 22.633001 67.240656 
L 23.692217 60.553598 
L 25.698818 54.296373 
L 28.583632 48.754359 
L 32.218686 44.161763 
L 36.433345 40.673515 
L 41.036055 38.35162 
L 45.836547 37.167955 
L 50.663945 37.020728 
L 55.378214 37.758725 
L 59.874687 39.206899 
L 64.083004 41.188354 
L 67.962555 43.540139 
L 71.496396 46.122436 
L 74.68507 48.822139 
L 77.541171 51.552435 
L 80.084986 54.249992 
L 82.341225 56.871046 
L 86.09876 61.782073 
L 89.028796 66.180229 
L 91.330245 70.058514 
L 93.9738 74.980462 
L 96.682868 80.106388 
L 97.91391 82.135179 
L 99.163671 83.837865 
L 100.491506 85.223511 
L 101.947156 86.290458 
L 103.572611 87.026422 
L 105.402835 87.40867 
L 107.465101 87.404557 
L 109.776649 86.972853 
L 112.340376 86.06665 
L 115.13832 84.63887 
L 118.123023 82.65169 
L 121.207608 80.091065 
L 122.747115 78.602623 
L 124.256682 76.986583 
L 125.711081 75.257268 
L 127.082046 73.434525 
L 128.338822 71.544129 
L 129.44903 69.617853 
L 130.379859 67.693094 
L 131.099574 65.81196 
L 131.579274 64.019746 
L 131.794782 62.362829 
L 131.728508 60.886093 
L 131.371072 59.630081 
L 130.722484 58.62819 
L 129.792689 57.904255 
L 128.601371 57.470852 
L 127.176975 57.328584 
L 125.55506 57.466455 
L 123.776145 57.863278 
L 121.883313 58.489905 
L 119.919832 59.311931 
L 117.927033 60.292525 
L 113.999452 62.585049 
L 110.340895 65.110113 
L 107.104178 67.68071 
L 104.363355 70.184606 
L 102.133691 72.568375 
L 100.39311 74.815558 
L 99.100047 76.927848 
L 98.206233 78.91238 
L 97.664912 80.774676 
L 97.43555 82.515567 
L 97.486177 84.130353 
L 97.7942 85.608944 
L 98.346331 86.936197 
L 99.137985 88.092035 
L 100.172361 89.051211 
L 101.459257 89.782679 
L 103.013503 90.248689 
L 104.852831 90.403791 
L 106.994786 90.194098 
L 109.452218 89.557416 
L 112.226746 88.42517 
L 115.299637 86.727576 
L 118.619841 84.403959 
L 120.344425 82.995055 
L 122.089827 81.420241 
L 123.834284 79.683645 
L 125.551614 77.794666 
L 127.211196 75.769034 
L 128.778234 73.629754 
L 130.214405 71.407788 
L 131.478951 69.142286 
L 132.530261 66.880188 
L 133.32793 64.67502 
L 133.835204 62.58478 
L 134.021646 60.668931 
L 133.86576 58.984662 
L 133.357247 57.582759 
L 132.498571 56.503585 
L 131.305555 55.773728 
L 129.806819 55.403851 
L 128.042101 55.388118 
L 126.059611 55.705305 
L 123.912786 56.321402 
L 121.65684 57.193285 
L 119.345531 58.272858 
L 117.028475 59.511075 
L 112.543994 62.282159 
L 108.462977 65.202167 
L 104.929356 68.074686 
L 101.993084 70.801516 
L 99.640737 73.352201 
L 97.823316 75.732726 
L 96.476816 77.962603 
L 95.535538 80.061582 
L 94.939741 82.043669 
L 94.639467 83.915552 
L 94.595967 85.677113 
L 94.781796 87.322587 
L 95.180227 88.841603 
L 95.784391 90.219757 
L 96.596373 91.438631 
L 97.62634 92.47526 
L 98.891677 93.301096 
L 100.415994 93.880536 
L 102.227786 94.169126 
L 104.358334 94.111648 
L 106.838311 93.640488 
L 109.692303 92.675084 
L 112.930248 91.123824 
L 114.689288 90.098335 
L 116.534787 88.890681 
L 118.457454 87.490551 
L 120.443875 85.889792 
L 122.475793 84.08356 
L 124.529419 82.0717 
L 126.57486 79.860326 
L 128.575781 77.463524 
L 130.489417 74.905034 
L 132.267094 72.219699 
L 133.855417 69.454397 
L 135.198223 66.668112 
L 136.239366 63.930798 
L 136.926249 61.320755 
L 137.213892 58.920418 
L 137.06913 56.810714 
L 136.474398 55.064493 
L 135.430508 53.739875 
L 133.957852 52.874553 
L 132.095693 52.482078 
L 129.899518 52.550878 
L 127.436774 53.046231 
L 124.781621 53.914851 
L 122.009475 55.091188 
L 119.192078 56.504339 
L 116.393642 58.084452 
L 111.059123 61.500238 
L 106.305613 64.951186 
L 102.270855 68.221319 
L 98.973578 71.231917 
L 96.361102 73.986506 
L 94.346833 76.524224 
L 92.83479 78.890625 
L 91.733561 81.123701 
L 90.963123 83.249651 
L 90.457333 85.283605 
L 90.164037 87.232181 
L 90.039835 89.995767 
L 90.222032 92.557616 
L 90.67078 94.898278 
L 91.383584 96.992785 
L 92.018809 98.236895 
L 92.800032 99.345152 
L 93.749349 100.301599 
L 94.895051 101.085236 
L 96.271956 101.668123 
L 97.92164 102.012948 
L 99.892321 102.070009 
L 102.237906 101.77357 
L 105.015479 101.037871 
L 108.28001 99.75347 
L 112.074534 97.785642 
L 114.176798 96.497166 
L 116.413429 94.97818 
L 118.777449 93.208252 
L 121.256211 91.168512 
L 123.829992 88.843386 
L 126.470506 86.222874 
L 129.139459 83.305401 
L 131.787321 80.101181 
L 134.352598 76.635905 
L 136.761941 72.954388 
L 138.931484 69.123561 
L 140.769801 65.234004 
L 142.182751 61.399053 
L 143.080238 57.750553 
L 143.384475 54.4307 
L 143.038898 51.580106 
L 142.016328 49.323282 
L 140.324768 47.753763 
L 138.009346 46.921856 
L 135.149547 46.827861 
L 131.851928 47.422601 
L 128.239541 48.615309 
L 124.440085 50.287035 
L 120.574901 52.306508 
L 116.75049 54.545159 
L 113.05336 56.888809 
L 106.278611 61.544537 
L 100.531832 65.813992 
L 95.854216 69.548259 
L 92.15035 72.782335 
L 89.266653 75.623652 
L 87.03786 78.185582 
L 85.309973 80.558941 
L 83.949262 82.805848 
L 82.357786 86.015605 
L 78.461167 94.768974 
L 77.434273 96.520747 
L 76.257329 98.186131 
L 74.889935 99.752438 
L 73.289939 101.201385 
L 71.412847 102.505994 
L 69.212261 103.626348 
L 66.641907 104.503954 
L 65.204677 104.826657 
L 63.660136 105.054686 
L 62.005155 105.172188 
L 60.238213 105.160706 
L 58.359985 104.998994 
L 56.374047 104.662941 
L 54.287711 104.125657 
L 52.112979 103.357806 
L 49.867576 102.328295 
L 47.576006 101.005415 
L 45.270537 99.358572 
L 42.991951 97.360696 
L 40.789864 94.991367 
L 38.722373 92.240605 
L 36.854759 89.11309 
L 35.257032 85.632398 
L 34.000185 81.844581 
L 33.151251 77.820265 
L 32.767522 73.654374 
L 32.890595 69.462783 
L 33.541147 65.375635 
L 34.715422 61.527757 
L 36.384226 58.047349 
L 38.494799 55.04467 
L 40.975348 52.602663 
L 43.741499 50.771041 
L 46.703546 49.564667 
L 49.773371 48.96607 
L 52.870098 48.931182 
L 55.923997 49.396911 
L 58.878516 50.289138 
L 61.69071 51.529966 
L 64.330455 53.043533 
L 66.77891 54.76009 
L 69.026629 56.618411 
L 71.071618 58.566824 
L 72.917522 60.563193 
L 74.572056 62.574244 
L 76.045696 64.574507 
L 78.50001 68.47258 
L 80.385577 72.164817 
L 81.806389 75.61341 
L 82.85641 78.812 
L 83.615843 81.770736 
L 84.350046 85.798905 
L 84.740681 89.396879 
L 84.896977 92.631017 
L 84.850584 96.475861 
L 84.575058 99.887456 
L 84.074534 102.95373 
L 83.523215 105.070098 
L 82.777341 107.058034 
L 81.776531 108.939485 
L 80.926999 110.143171 
L 79.894521 111.309849 
L 78.639182 112.439096 
L 77.11246 113.525327 
L 75.256016 114.554574 
L 73.000833 115.49945 
L 70.267366 116.311432 
L 66.967888 116.909359 
L 65.077754 117.089837 
L 63.013206 117.163007 
L 60.765259 117.101331 
L 58.327357 116.87124 
L 55.696683 116.43234 
L 52.875853 115.736791 
L 49.875037 114.729037 
L 46.714524 113.346182 
L 43.427675 111.519379 
L 40.06407 109.176718 
L 36.692513 106.24815 
L 33.403287 102.672897 
L 30.308804 98.409586 
L 27.541591 93.448736 
L 25.248493 87.82635 
L 23.580342 81.636165 
L 22.677196 75.03704 
L 22.650601 68.251508 
L 23.565927 61.552469 
L 25.42886 55.237618 
L 28.180062 49.595048 
L 31.700197 44.867043 
L 35.824726 41.220573 
L 40.36494 38.731383 
L 45.13022 37.384385 
L 49.946822 37.088241 
L 54.670315 37.698631 
L 59.191077 39.043774 
L 63.433982 40.947003 
L 67.354307 43.243454 
L 70.931822 45.790159 
L 74.164622 48.470393 
L 77.063582 51.19378 
L 79.647858 53.893796 
L 81.941476 56.524001 
L 85.763271 61.465375 
L 88.743296 65.901144 
L 91.081441 69.818444 
L 93.758616 74.796562 
L 97.097289 81.064165 
L 98.323018 82.961086 
L 99.59346 84.538302 
L 100.963656 85.800403 
L 102.480047 86.741313 
L 104.181915 87.344373 
L 106.101584 87.582577 
L 108.26314 87.419297 
L 110.679343 86.810062 
L 113.346446 85.70628 
L 116.236754 84.06206 
L 119.289205 81.845512 
L 122.39923 79.055499 
L 123.929153 77.458803 
L 125.41066 75.743444 
L 126.815943 73.927925 
L 128.114488 72.036683 
L 129.273859 70.100269 
L 130.260825 68.155105 
L 131.042813 66.242699 
L 131.589635 64.408266 
L 131.875392 62.698731 
L 131.880399 61.160211 
L 131.59292 59.835158 
L 131.010499 58.759458 
L 130.140698 57.959834 
L 129.001087 57.451905 
L 127.618443 57.239192 
L 126.027223 57.313233 
L 124.267472 57.654781 
L 122.382421 58.2359 
L 120.416032 59.022651 
L 118.41076 59.977978 
L 114.435345 62.246491 
L 110.708829 64.774224 
L 107.395259 67.363209 
L 104.577015 69.892435 
L 102.274477 72.30298 
L 100.468025 74.575791 
L 99.116671 76.711946 
L 98.171571 78.71904 
L 97.584765 80.603505 
L 97.314251 82.36718 
L 97.326534 84.006327 
L 97.597573 85.511741 
L 98.112764 86.869129 
L 98.866388 88.059293 
L 99.860732 89.057944 
L 101.104948 89.835127 
L 102.613589 90.354313 
L 104.404621 90.571365 
L 106.496558 90.433667 
L 108.904271 89.879969 
L 111.632862 88.841824 
L 114.668996 87.247968 
L 117.969333 85.033509 
L 119.693387 83.678813 
L 121.446432 82.156046 
L 123.208225 80.467451 
L 124.95411 78.620176 
L 126.65488 76.627379 
L 128.276927 74.509252 
L 129.782722 72.29386 
L 131.13174 70.017582 
L 132.281869 67.725 
L 133.191321 65.468012 
L 133.820991 63.304059 
L 134.137114 61.293393 
L 134.114005 59.49552 
L 133.736554 57.965075 
L 133.00214 56.747596 
L 131.921651 55.875757 
L 130.519374 55.36664 
L 128.831696 55.220503 
L 126.904738 55.421279 
L 124.791219 55.93871 
L 122.546945 56.731775 
L 120.227387 57.752826 
L 117.884693 58.95183 
L 113.309045 61.693416 
L 109.104426 64.629738 
L 105.435841 67.542042 
L 102.367706 70.315914 
L 99.894669 72.911887 
L 97.970976 75.332533 
L 96.532747 77.597308 
L 95.512645 79.727463 
L 94.848444 81.738946 
L 94.487408 83.640282 
L 94.388027 85.432914 
L 94.52026 87.112396 
L 94.864994 88.669538 
L 95.413196 90.091129 
L 96.164997 91.360095 
L 97.12882 92.455091 
L 98.320549 93.349582 
L 99.762641 94.01045 
L 101.482975 94.396249 
L 103.513103 94.455221 
L 105.885393 94.123434 
L 108.628359 93.323647 
L 111.759209 91.966075 
L 113.469691 91.047656 
L 115.272544 89.953053 
L 117.160926 88.670704 
L 119.124303 87.190552 
L 121.147717 85.505046 
L 123.211037 83.6104 
L 125.288282 81.508071 
L 127.34708 79.206445 
L 129.34841 76.7226 
L 131.246747 74.084007 
L 132.990789 71.329897 
L 134.5249 68.512004 
L 135.791388 65.694292 
L 136.733623 62.951342 
L 137.299884 60.365128 
L 137.447652 58.020164 
L 137.147867 55.997289 
L 136.388567 54.366744 
L 135.177269 53.181492 
L 133.541575 52.471903 
L 131.527747 52.242811 
L 129.19734 52.473554 
L 126.622363 53.121041 
L 123.879691 54.12524 
L 121.045545 55.416076 
L 118.190759 56.920507 
L 115.377293 58.568737 
L 110.066825 62.059563 
L 105.385696 65.52586 
L 101.446191 68.778706 
L 98.248602 71.759841 
L 95.728951 74.484738 
L 93.794814 76.997774 
L 92.347963 79.345681 
L 91.296818 81.565722 
L 90.562241 83.6828 
L 90.079383 85.710863 
L 89.797409 87.655728 
L 89.670801 90.417122 
L 89.829422 92.981222 
L 90.234125 95.330372 
L 90.881281 97.442692 
L 91.459371 98.706018 
L 92.171309 99.841402 
L 93.037585 100.835182 
L 94.084617 101.669309 
L 95.345173 102.31964 
L 96.858785 102.753736 
L 98.671969 102.928061 
L 100.837873 102.784505 
L 103.414766 102.246302 
L 106.462378 101.21377 
L 110.034569 99.560997 
L 112.029524 98.45539 
L 114.166126 97.135953 
L 116.442168 95.580935 
L 118.850914 93.768777 
L 121.379787 91.679409 
L 124.008879 89.296043 
L 126.70937 86.607562 
L 129.441965 83.611527 
L 132.155565 80.31775 
L 134.786437 76.752238 
L 137.258268 72.96113 
L 139.483528 69.013957 
L 141.366562 65.00537 
L 142.808724 61.054258 
L 143.715574 57.299248 
L 144.005731 53.889952 
L 143.620409 50.974116 
L 142.532148 48.68196 
L 140.750927 47.1102 
L 138.326076 46.309008 
L 135.343059 46.275054 
L 131.915389 46.952556 
L 128.173115 48.242286 
L 124.250082 50.016382 
L 120.272311 52.135533 
L 116.349242 54.464939 
L 108.995055 59.305419 
L 102.619929 63.88607 
L 97.357496 67.92784 
L 93.153452 71.406861 
L 89.863194 74.419702 
L 87.314355 77.091563 
L 85.339549 79.531314 
L 83.790402 81.817459 
L 82.541531 83.999408 
L 81.010526 87.131754 
L 78.269026 92.95978 
L 76.689606 95.627455 
L 75.457066 97.293095 
L 74.032094 98.851074 
L 72.372196 100.27974 
L 70.433719 101.548041 
L 68.172643 102.611186 
L 65.547162 103.405078 
L 64.086537 103.67411 
L 62.52297 103.839617 
L 60.854855 103.88511 
L 59.082492 103.791654 
L 57.208695 103.53779 
L 55.239503 103.099592 
L 53.184995 102.450919 
L 51.060184 101.563956 
L 48.885941 100.410122 
L 46.689872 98.961464 
L 44.507034 97.192596 
L 42.380329 95.08326 
L 40.360382 92.621457 
L 38.504676 89.807029 
L 36.875754 86.655361 
L 35.538345 83.200749 
L 34.555412 79.49875 
L 33.983352 75.626802 
L 33.86679 71.682432 
L 34.233652 67.778681 
L 35.091345 64.036829 
L 36.424783 60.577137 
L 38.196762 57.508852 
L 40.350755 54.921055 
L 42.815724 52.875826 
L 45.512154 51.404766 
L 48.35834 50.509182 
L 51.27604 50.163523 
L 54.194863 50.321095 
L 57.055084 50.920875 
L 59.808938 51.894286 
L 62.420639 53.171118 
L 64.865483 54.684105 
L 67.128415 56.372038 
L 69.202361 58.181516 
L 71.086553 60.067604 
L 72.78499 61.99368 
L 74.305102 63.930774 
L 75.656642 65.856635 
L 77.899504 69.613026 
L 79.60903 73.180725 
L 80.878919 76.525338 
L 81.793305 79.640337 
L 82.423411 82.534196 
L 82.826808 85.222641 
L 83.101125 88.910847 
L 83.065841 92.241472 
L 82.776139 95.271583 
L 82.249056 98.049794 
L 81.469851 100.615788 
L 80.789928 102.223965 
L 79.959039 103.757894 
L 78.950955 105.221166 
L 77.732747 106.613559 
L 76.264138 107.92932 
L 74.496928 109.15445 
L 72.374804 110.262559 
L 69.834103 111.208712 
L 66.806483 111.92059 
L 65.088862 112.155682 
L 63.225142 112.2864 
L 61.209224 112.290094 
L 59.037145 112.139642 
L 56.708065 111.802982 
L 54.225506 111.242787 
L 51.598867 110.416424 
L 48.84521 109.276375 
L 45.991261 107.771342 
L 43.075508 105.84834 
L 40.150162 103.456067 
L 37.282636 100.54981 
L 34.556019 97.098004 
L 32.067951 93.090248 
L 29.927232 88.546103 
L 28.247694 83.523389 
L 27.139244 78.124075 
L 26.696685 72.495499 
L 26.987745 66.824914 
L 28.042515 61.326411 
L 29.846715 56.221135 
L 32.34075 51.713815 
L 35.425227 47.970167 
L 38.971992 45.099933 
L 42.838328 43.148897 
L 46.881391 42.1008 
L 50.970292 41.887529 
L 54.994283 42.40432 
L 58.866699 43.526293 
L 62.525285 45.123324 
L 65.929984 47.07147 
L 69.059367 49.260393 
L 71.906626 51.5971 
L 74.475776 54.006831 
L 76.778375 56.432021 
L 78.830891 58.830185 
L 80.652695 61.171358 
L 83.687738 65.610315 
L 86.050424 69.668787 
L 87.896285 73.33408 
L 89.988 78.13927 
L 93.43633 86.638547 
L 94.373121 88.475091 
L 95.384651 90.070828 
L 96.513996 91.42548 
L 97.801974 92.530215 
L 99.288715 93.366725 
L 101.014482 93.906016 
L 103.019548 94.106969 
L 105.342726 93.914903 
L 108.017969 93.260676 
L 111.06823 92.061329 
L 112.735815 91.228399 
L 114.495569 90.22405 
L 116.3421 89.036771 
L 118.266621 87.656187 
L 120.256248 86.073958 
L 122.293271 84.284922 
L 124.354457 82.28846 
L 126.410464 80.090081 
L 128.425462 77.703135 
L 130.357114 75.150524 
L 132.157037 72.466201 
L 133.77193 69.696184 
L 135.145465 66.898731 
L 136.221019 64.143322 
L 136.945171 61.508177 
L 137.271772 59.076145 
L 137.166189 56.929128 
L 136.609194 55.141506 
L 135.599885 53.773384 
L 134.157056 52.864703 
L 132.318664 52.431282 
L 130.139319 52.463559 
L 127.686092 52.928347 
L 125.033282 53.773264 
L 122.256886 54.933002 
L 119.429559 56.3363 
L 116.616622 57.912494 
L 111.244028 61.333777 
L 106.447187 64.800332 
L 102.369811 68.08889 
L 99.033945 71.116522 
L 96.388189 73.885153 
L 94.345958 76.43391 
L 92.810615 78.809041 
L 91.689809 81.049398 
L 90.902507 83.181944 
L 90.381595 85.222402 
L 90.074026 87.177818 
L 89.928249 89.952963 
L 90.086489 92.52867 
L 90.50656 94.886386 
L 91.18355 97.002389 
L 91.789617 98.264197 
L 92.53641 99.393744 
L 93.445012 100.376135 
L 94.542601 101.191771 
L 95.862805 101.814553 
L 97.446012 102.209574 
L 99.3394 102.330207 
L 101.596272 102.114559 
L 104.274027 101.481453 
L 107.429675 100.326494 
L 111.111255 98.519629 
L 113.158322 97.324398 
L 115.342877 95.90714 
L 117.660263 94.246834 
L 120.100723 92.323348 
L 122.648044 90.118949 
L 125.278065 87.620343 
L 127.95717 84.821293 
L 130.640892 81.72581 
L 133.272879 78.351791 
L 135.784543 74.734821 
L 138.095758 70.93165 
L 140.11703 67.022597 
L 141.753494 63.111954 
L 142.910894 59.325398 
L 143.503361 55.803586 
L 143.462347 52.691707 
L 142.74551 50.125666 
L 141.343968 48.216706 
L 139.286259 47.037253 
L 136.637778 46.611089 
L 133.495348 46.910356 
L 129.977724 47.86033 
L 126.21381 49.350916 
L 122.330776 51.252186 
L 118.444102 53.430499 
L 114.650777 55.762206 
L 107.622914 60.492684 
L 101.597357 64.897076 
L 96.657956 68.767549 
L 92.728962 72.111971 
L 89.661885 75.032131 
L 87.289089 77.646078 
L 85.451129 80.052315 
L 84.008077 82.3201 
L 82.33248 85.549877 
L 77.837863 95.238963 
L 76.736502 96.958057 
L 75.467849 98.583959 
L 73.990589 100.101068 
L 72.261608 101.486819 
L 70.235858 102.708103 
L 67.8675 103.71643 
L 65.113033 104.441726 
L 63.579486 104.668622 
L 61.937459 104.784899 
L 60.185649 104.772356 
L 58.324941 104.610096 
L 56.359098 104.274457 
L 54.29558 103.739121 
L 52.146456 102.975459 
L 49.929411 101.953219 
L 47.668757 100.641664 
L 45.396364 99.011274 
L 43.152362 97.036096 
L 40.985423 94.696786 
L 38.952375 91.98426 
L 37.116922 88.903757 
L 35.547231 85.478881 
L 34.31231 81.754999 
L 33.47723 77.801201 
L 33.097574 73.709981 
L 33.21372 69.593983 
L 33.845838 65.579583 
L 34.990508 61.797699 
L 36.61974 58.372959 
L 38.682717 55.412852 
L 41.110102 52.998695 
L 43.820183 51.17987 
L 46.725819 49.972142 
L 49.74111 49.359922 
L 52.786899 49.301661 
L 55.79461 49.737039 
L 58.708313 50.594637 
L 61.485232 51.79895 
L 64.095063 53.276067 
L 66.518552 54.957698 
L 68.745697 56.783617 
L 70.773885 58.702743 
L 72.606129 60.673222 
L 74.249537 62.661821 
L 75.714025 64.642948 
L 78.15398 68.511773 
L 80.027712 72.184901 
L 81.436609 75.6223 
L 82.472646 78.815748 
L 83.214459 81.773981 
L 83.726425 84.513804 
L 84.171215 88.257572 
L 84.332715 91.621637 
L 84.285172 94.666569 
L 84.066289 97.444099 
L 83.685768 99.99755 
L 83.130432 102.363173 
L 82.366154 104.571306 
L 81.336902 106.646595 
L 80.464497 107.965287 
L 79.407173 109.235296 
L 78.126215 110.455448 
L 76.574709 111.618921 
L 74.696583 112.710001 
L 72.426098 113.699066 
L 69.688447 114.535028 
L 66.402692 115.134277 
L 64.528977 115.306414 
L 62.489129 115.365263 
L 60.275863 115.28363 
L 57.884527 115.028699 
L 55.314383 114.561405 
L 52.570223 113.836009 
L 49.664358 112.800064 
L 46.61897 111.395036 
L 43.468752 109.557913 
L 40.26362 107.224234 
L 37.071169 104.332951 
L 33.978304 100.83347 
L 31.091284 96.694941 
L 28.533263 91.917326 
L 26.43848 86.542999 
L 24.942561 80.666649 
L 24.169235 74.440477 
L 24.21488 68.071479 
L 25.133558 61.808586 
L 26.925986 55.919718 
L 29.535593 50.661913 
L 32.853355 46.250479 
L 36.730721 42.834125 
L 40.997706 40.481589 
L 45.482026 39.181918 
L 50.025409 38.856664 
L 54.494675 39.379554 
L 58.786981 40.598357 
L 62.830083 42.354572 
L 66.579192 44.498362 
L 70.012103 46.897967 
L 73.123891 49.444142 
L 75.922014 52.05083 
L 78.422226 54.65339 
L 80.645404 57.205565 
L 82.615202 59.676014 
L 85.893783 64.3012 
L 88.452194 68.459794 
L 90.467415 72.154114 
L 93.454401 78.28557 
L 95.793955 82.98764 
L 96.929065 84.87127 
L 98.124603 86.461917 
L 99.431866 87.761368 
L 100.896043 88.761277 
L 102.557674 89.442744 
L 104.453005 89.775889 
L 106.612966 89.719676 
L 109.060368 89.22248 
L 111.804848 88.22426 
L 114.835084 86.661651 
L 118.108051 84.477757 
L 119.810234 83.140705 
L 121.535888 81.638603 
L 123.264812 79.974782 
L 124.972519 78.157431 
L 126.630164 76.200632 
L 128.204745 74.125316 
L 129.659639 71.959986 
L 130.955556 69.74106 
L 132.051964 67.512647 
L 132.908971 65.325587 
L 133.489608 63.235631 
L 133.762377 61.300751 
L 133.703814 59.577694 
L 133.3008 58.118068 
L 132.552276 56.964386 
L 131.47009 56.146618 
L 130.078774 55.679757 
L 128.414214 55.562818 
L 126.521343 55.779446 
L 124.451133 56.300039 
L 122.257289 57.085024 
L 119.993026 58.088762 
L 117.708292 59.263513 
L 113.248915 61.944852 
L 109.151755 64.817667 
L 105.575754 67.672568 
L 102.583961 70.398616 
L 100.172593 72.955896 
L 98.298865 75.344681 
L 96.902266 77.581706 
L 95.918687 79.685776 
L 95.28877 81.670887 
L 94.962237 83.544045 
L 94.89967 85.305462 
L 95.072813 86.949563 
L 95.464111 88.465991 
L 96.065908 89.840187 
L 96.879553 91.053441 
L 97.914505 92.082396 
L 99.187415 92.898046 
L 100.721066 93.464323 
L 102.542913 93.736366 
L 104.682866 93.658724 
L 107.169716 93.163916 
L 110.025465 92.17216 
L 113.256596 90.593718 
L 115.007669 89.555346 
L 116.841328 88.33609 
L 118.747603 86.926443 
L 120.712386 85.319232 
L 122.716743 83.51077 
L 124.73628 81.502218 
L 126.740639 79.301129 
L 128.693239 76.923072 
L 130.551388 74.393205 
L 132.266906 71.747569 
L 133.787405 69.033827 
L 135.058312 66.311124 
L 136.025673 63.648741 
L 136.639643 61.123324 
L 136.858408 58.814605 
L 136.652163 56.79985 
L 136.006594 55.147545 
L 134.925309 53.911161 
L 133.430726 53.123972 
L 131.563119 52.795878 
L 129.37786 52.912861 
L 126.941207 53.439208 
L 124.325244 54.32211 
L 121.602713 55.497752 
L 118.842416 56.897852 
L 116.105659 58.455633 
L 110.898158 61.811105 
L 106.264374 65.197245 
L 102.334078 68.410053 
L 99.123939 71.374958 
L 96.582754 74.094762 
L 94.627043 76.605784 
L 93.164417 78.950412 
L 92.106954 81.163931 
L 91.377789 83.270485 
L 90.913581 85.283717 
L 90.664669 87.209133 
L 90.594099 89.046641 
L 90.769194 91.62944 
L 91.243514 93.984701 
L 91.721623 95.414652 
L 92.336464 96.720417 
L 93.101498 97.889115 
L 94.036474 98.904466 
L 95.167496 99.745396 
L 96.527169 100.384225 
L 98.154679 100.784356 
L 100.095518 100.897418 
L 102.40042 100.659897 
L 105.122786 99.989483 
L 108.313484 98.781868 
L 112.011394 96.909597 
L 114.055694 95.678865 
L 116.227561 94.226108 
L 118.520008 92.532395 
L 120.920708 90.580363 
L 123.410699 88.355827 
L 125.963039 85.849875 
L 128.541495 83.061475 
L 131.099447 80.000527 
L 133.579245 76.691197 
L 135.912324 73.175196 
L 138.020427 69.514476 
L 139.818268 65.792626 
L 141.217878 62.114135 
L 142.134664 58.600696 
L 142.494834 55.384066 
L 142.24346 52.595548 
L 141.351973 50.353069 
L 139.823687 48.747747 
L 137.69601 47.832478 
L 135.038521 47.615091 
L 131.946946 48.057825 
L 128.533986 49.083396 
L 124.918694 50.586305 
L 121.216261 52.446843 
L 117.529786 54.544907 
L 113.944919 56.771248 
L 107.323636 61.266288 
L 101.655565 65.459844 
L 97.008962 69.175076 
L 93.31139 72.42082 
L 90.425742 75.28652 
L 88.197572 77.875537 
L 86.479703 80.274242 
L 85.142731 82.543537 
L 84.0778 84.721113 
L 82.799713 87.856763 
L 80.223112 94.634977 
L 78.925371 97.293072 
L 77.902105 98.972027 
L 76.709258 100.568242 
L 75.307156 102.070577 
L 73.652508 103.461661 
L 71.698001 104.714414 
L 69.392905 105.787222 
L 66.685372 106.617443 
L 65.165345 106.914238 
L 63.527489 107.113056 
L 61.767973 107.196189 
L 59.884731 107.142847 
L 57.878149 106.92892 
L 55.751909 106.526846 
L 53.513986 105.905684 
L 51.177807 105.031478 
L 48.763508 103.868059 
L 46.299235 102.378425 
L 43.822351 100.526865 
L 41.38035 98.28194 
L 39.03122 95.620403 
L 36.842922 92.531941 
L 34.891646 89.024446 
L 33.258562 85.129214 
L 32.024926 80.90515 
L 31.265736 76.440864 
L 31.042469 71.853493 
L 31.395889 67.283436 
L 32.340161 62.884874 
L 33.859516 58.812955 
L 35.908365 55.209482 
L 38.41506 52.18957 
L 41.288706 49.831694 
L 44.427787 48.1728 
L 47.729065 47.208966 
L 51.095355 46.900867 
L 54.441257 47.182426 
L 57.696503 47.970739 
L 60.807088 49.175565 
L 63.734667 50.707208 
L 66.454846 52.482238 
L 68.954893 54.427019 
L 71.231326 56.479331 
L 73.287644 58.588575 
L 75.132353 60.71502 
L 76.77734 62.828514 
L 79.525196 66.934912 
L 81.652286 70.801821 
L 83.278732 74.38854 
L 84.51339 77.690621 
L 85.449746 80.721715 
L 86.460345 84.807505 
L 87.368471 89.514833 
L 88.747378 96.940034 
L 89.352047 99.162736 
L 90.101138 101.107047 
L 90.713154 102.247557 
L 91.441513 103.257693 
L 92.312841 104.127648 
L 93.358566 104.842156 
L 94.615945 105.378932 
L 96.129022 105.706501 
L 97.949346 105.78128 
L 100.136122 105.543773 
L 102.755204 104.913886 
L 105.875885 103.785662 
L 109.563811 102.022516 
L 111.636863 100.851227 
L 113.867449 99.4555 
L 116.255113 97.810193 
L 118.794687 95.889804 
L 121.474767 93.669812 
L 124.275974 91.128628 
L 127.169021 88.250259 
L 130.112761 85.02777 
L 133.052386 81.467537 
L 135.91816 77.594086 
L 138.625105 73.455113 
L 141.074211 69.125913 
L 143.155738 64.712113 
L 144.755083 60.349326 
L 145.761333 56.198291 
L 146.07808 52.434537 
L 145.635309 49.23257 
L 144.400427 46.746179 
L 142.386033 45.088116 
L 139.652244 44.313563 
L 136.302379 44.411665 
L 132.472372 45.3077 
L 128.31596 46.875575 
L 123.988704 48.957525 
L 119.633931 51.38613 
L 115.372749 54.003908 
L 107.47821 59.303457 
L 100.735369 64.161508 
L 95.238686 68.327148 
L 90.888025 71.827328 
L 87.500396 74.803556 
L 84.87543 77.41131 
L 82.826468 79.77638 
L 81.192033 81.984889 
L 79.230223 85.109188 
L 75.301218 91.742025 
L 74.042194 93.442777 
L 72.628077 95.027724 
L 71.015196 96.471625 
L 69.16281 97.740895 
L 67.033589 98.790324 
L 64.595845 99.558978 
L 63.25399 99.813552 
L 61.828137 99.965659 
L 60.318474 100.001312 
L 58.727004 99.904855 
L 57.058002 99.659006 
L 55.318539 99.245028 
L 53.519047 98.643058 
L 51.673917 97.832654 
L 49.802066 96.793617 
L 47.927436 95.507129 
L 46.079322 93.95724 
L 44.292441 92.132715 
L 42.606611 90.029172 
L 41.065934 87.651398 
L 39.717359 85.01563 
L 38.608615 82.151474 
L 37.785508 79.103115 
L 37.288775 75.929385 
L 37.150745 72.702372 
L 37.392224 69.504378 
L 38.020042 66.423325 
L 39.025683 63.546984 
L 40.385291 60.956709 
L 42.06112 58.721527 
L 44.004269 56.893404 
L 46.158307 55.50435 
L 48.463271 54.565643 
L 50.859532 54.069107 
L 53.291081 53.990019 
L 55.707975 54.291056 
L 58.067851 54.926606 
L 60.336577 55.846901 
L 62.488173 57.001557 
L 64.504227 58.342315 
L 66.372995 59.824923 
L 68.088345 61.410245 
L 69.648689 63.064721 
L 71.055965 64.760344 
L 72.314739 66.474324 
L 74.413664 69.888962 
L 76.008337 73.208703 
L 77.166935 76.37935 
L 77.953894 79.376417 
L 78.425036 82.193445 
L 78.62539 84.834125 
L 78.58861 87.30721 
L 78.337277 89.623275 
L 77.883595 91.792595 
L 77.230201 93.823639 
L 76.370932 95.721799 
L 75.291497 97.488073 
L 73.970114 99.117429 
L 72.378244 100.596615 
L 70.481701 101.901118 
L 68.24258 102.99103 
L 65.622675 103.805604 
L 64.159293 104.083336 
L 62.589405 104.256593 
L 60.911418 104.308857 
L 59.1256 104.221046 
L 57.234704 103.971416 
L 55.244715 103.535604 
L 53.165691 102.886874 
L 51.012701 101.996643 
L 48.806794 100.835399 
L 46.575933 99.374105 
L 44.355766 97.586197 
L 42.190077 95.450209 
L 40.130701 92.953035 
L 38.236682 90.093658 
L 36.572441 86.887058 
L 35.204824 83.367771 
L 34.199005 79.592432 
L 33.613476 75.6405 
L 33.494586 71.612463 
L 33.871374 67.62509 
L 34.75154 63.803825 
L 36.119368 60.273073 
L 37.936139 57.145699 
L 40.143091 54.513427 
L 42.666505 52.439712 
L 45.424052 50.956177 
L 48.331386 50.062929 
L 51.308031 49.732281 
L 54.281893 49.914844 
L 57.192121 50.546712 
L 59.990361 51.556551 
L 62.640679 52.871736 
L 65.118566 54.423048 
L 67.409392 56.147813 
L 69.506646 57.991629 
L 71.410192 59.908953 
L 73.124669 61.86287 
L 74.658128 63.824352 
L 74.658128 63.824352 
" clip-path="url(#p56721d3f83)" style="fill: none; stroke: #ff7f0e; stroke-opacity: 0.5; stroke-width: 1.5; stroke-linecap: round"/>
   </g>
  </g>
 </g>
 <defs>
  <clipPath id="p56721d3f83">
   <rect x="-1.8" y="-7.2" width="176.4" height="176.4"/>
  </clipPath>
 </defs>
</svg>
