<?xml version="1.0" encoding="utf-8" standalone="no"?>
<!DOCTYPE svg PUBLIC "-//W3C//DTD SVG 1.1//EN"
  "http://www.w3.org/Graphics/SVG/1.1/DTD/svg11.dtd">
<svg xmlns:xlink="http://www.w3.org/1999/xlink" width="216pt" height="180pt" viewBox="0 0 216 180" xmlns="http://www.w3.org/2000/svg" version="1.1">
 <metadata>
  <rdf:RDF xmlns:dc="http://purl.org/dc/elements/1.1/" xmlns:cc="http://creativecommons.org/ns#" xmlns:rdf="http://www.w3.org/1999/02/22-rdf-syntax-ns#">
   <cc:Work>
    <dc:type rdf:resource="http://purl.org/dc/dcmitype/StillImage"/>
    <dc:date>2023-06-14T18:52:08.863538</dc:date>
    <dc:format>image/svg+xml</dc:format>
    <dc:creator>
     <cc:Agent>
      <dc:title>Matplotlib v3.7.0, https://matplotlib.org/</dc:title>
     </cc:Agent>
    </dc:creator>
   </cc:Work>
  </rdf:RDF>
 </metadata>
 <defs>
  <style type="text/css">*{stroke-linejoin: round; stroke-linecap: butt}</style>
 </defs>
 <g id="figure_1">
  <g id="patch_1">
   <path d="M 0 180 
L 216 180 
L 216 0 
L 0 0 
z
" style="fill: #ffffff"/>
  </g>
  <g id="patch_2">
   <path d="M -1 169.2 
L 174.6 169.2 
L 174.6 -1 
" style="fill: none"/>
  </g>
  <g id="pane3d_1">
   <g id="patch_3">
    <path d="M 11.519416 125.705413 
L 69.772457 76.876559 
L 68.962684 6.456623 
L 7.921935 51.001381 
" style="fill: none; opacity: 0.5; stroke: #f2f2f2; stroke-linejoin: miter"/>
   </g>
  </g>
  <g id="pane3d_2">
   <g id="patch_4">
    <path d="M 69.772457 76.876559 
L 163.247803 104.046152 
L 166.583609 31.200681 
L 68.962684 6.456623 
" style="fill: none; opacity: 0.5; stroke: #e6e6e6; stroke-linejoin: miter"/>
   </g>
  </g>
  <g id="pane3d_3">
   <g id="patch_5">
    <path d="M 11.519416 125.705413 
L 110.607849 158.067695 
L 163.247803 104.046152 
L 69.772457 76.876559 
" style="fill: none; opacity: 0.5; stroke: #ececec; stroke-linejoin: miter"/>
   </g>
  </g>
  <g id="axis3d_1">
   <g id="line2d_1">
    <path d="M 11.519416 125.705413 
L 110.607849 158.067695 
" style="fill: none; stroke: #ffffff; stroke-width: 0.8; stroke-linecap: round"/>
   </g>
   <g id="text_1">
    <!-- x -->
    <g style="fill: #262626" transform="translate(40.437569 179.640981) scale(0.1 -0.1)">
     <defs>
      <path id="DejaVuSans-78" d="M 3513 3500 
L 2247 1797 
L 3578 0 
L 2900 0 
L 1881 1375 
L 863 0 
L 184 0 
L 1544 1831 
L 300 3500 
L 978 3500 
L 1906 2253 
L 2834 3500 
L 3513 3500 
z
" transform="scale(0.015625)"/>
     </defs>
     <use xlink:href="#DejaVuSans-78"/>
    </g>
   </g>
   <g id="Line3DCollection_1">
    <path d="M 34.873859 133.332974 
L 91.878366 83.301874 
L 92.011787 12.298898 
" style="fill: none; stroke: #d3d3d3; stroke-width: 0.8"/>
    <path d="M 59.918173 141.512447 
L 115.532682 90.17725 
L 116.700852 18.556857 
" style="fill: none; stroke: #d3d3d3; stroke-width: 0.8"/>
    <path d="M 85.648693 149.916035 
L 139.780199 97.225046 
L 142.03646 24.978695 
" style="fill: none; stroke: #d3d3d3; stroke-width: 0.8"/>
   </g>
   <g id="xtick_1">
    <g id="line2d_2">
     <path d="M 88.783784 78.616216 
" clip-path="url(#pdd5380207e)" style="fill: none; stroke: #d3d3d3; stroke-width: 0.8; stroke-linecap: round"/>
    </g>
    <g id="line2d_3">
     <path d="M 35.370632 132.896971 
L 33.878161 134.206868 
" style="fill: none; stroke: #808080; stroke-width: 0.8; stroke-linecap: round"/>
    </g>
    <g id="text_2">
     <!-- −10 -->
     <g style="fill: #808080" transform="translate(16.804918 156.853661) scale(0.1 -0.1)">
      <defs>
       <path id="DejaVuSans-2212" d="M 678 2272 
L 4684 2272 
L 4684 1741 
L 678 1741 
L 678 2272 
z
" transform="scale(0.015625)"/>
       <path id="DejaVuSans-31" d="M 794 531 
L 1825 531 
L 1825 4091 
L 703 3866 
L 703 4441 
L 1819 4666 
L 2450 4666 
L 2450 531 
L 3481 531 
L 3481 0 
L 794 0 
L 794 531 
z
" transform="scale(0.015625)"/>
       <path id="DejaVuSans-30" d="M 2034 4250 
Q 1547 4250 1301 3770 
Q 1056 3291 1056 2328 
Q 1056 1369 1301 889 
Q 1547 409 2034 409 
Q 2525 409 2770 889 
Q 3016 1369 3016 2328 
Q 3016 3291 2770 3770 
Q 2525 4250 2034 4250 
z
M 2034 4750 
Q 2819 4750 3233 4129 
Q 3647 3509 3647 2328 
Q 3647 1150 3233 529 
Q 2819 -91 2034 -91 
Q 1250 -91 836 529 
Q 422 1150 422 2328 
Q 422 3509 836 4129 
Q 1250 4750 2034 4750 
z
" transform="scale(0.015625)"/>
      </defs>
      <use xlink:href="#DejaVuSans-2212"/>
      <use xlink:href="#DejaVuSans-31" x="83.789062"/>
      <use xlink:href="#DejaVuSans-30" x="147.412109"/>
     </g>
    </g>
   </g>
   <g id="xtick_2">
    <g id="line2d_4">
     <path d="M 88.783784 78.616216 
" clip-path="url(#pdd5380207e)" style="fill: none; stroke: #d3d3d3; stroke-width: 0.8; stroke-linecap: round"/>
    </g>
    <g id="line2d_5">
     <path d="M 60.403369 141.064584 
L 58.945649 142.410139 
" style="fill: none; stroke: #808080; stroke-width: 0.8; stroke-linecap: round"/>
    </g>
    <g id="text_3">
     <!-- 0 -->
     <g style="fill: #808080" transform="translate(49.262134 165.296578) scale(0.1 -0.1)">
      <use xlink:href="#DejaVuSans-30"/>
     </g>
    </g>
   </g>
   <g id="xtick_3">
    <g id="line2d_6">
     <path d="M 88.783784 78.616216 
" clip-path="url(#pdd5380207e)" style="fill: none; stroke: #d3d3d3; stroke-width: 0.8; stroke-linecap: round"/>
    </g>
    <g id="line2d_7">
     <path d="M 86.121488 149.455821 
L 84.700998 150.83851 
" style="fill: none; stroke: #808080; stroke-width: 0.8; stroke-linecap: round"/>
    </g>
    <g id="text_4">
     <!-- 10 -->
     <g style="fill: #808080" transform="translate(71.858364 173.972177) scale(0.1 -0.1)">
      <use xlink:href="#DejaVuSans-31"/>
      <use xlink:href="#DejaVuSans-30" x="63.623047"/>
     </g>
    </g>
   </g>
  </g>
  <g id="axis3d_2">
   <g id="line2d_8">
    <path d="M 163.247803 104.046152 
L 110.607849 158.067695 
" style="fill: none; stroke: #ffffff; stroke-width: 0.8; stroke-linecap: round"/>
   </g>
   <g id="text_5">
    <!-- y -->
    <g style="fill: #262626" transform="translate(162.133934 160.636398) scale(0.1 -0.1)">
     <defs>
      <path id="DejaVuSans-79" d="M 2059 -325 
Q 1816 -950 1584 -1140 
Q 1353 -1331 966 -1331 
L 506 -1331 
L 506 -850 
L 844 -850 
Q 1081 -850 1212 -737 
Q 1344 -625 1503 -206 
L 1606 56 
L 191 3500 
L 800 3500 
L 1894 763 
L 2988 3500 
L 3597 3500 
L 2059 -325 
z
" transform="scale(0.015625)"/>
     </defs>
     <use xlink:href="#DejaVuSans-79"/>
    </g>
   </g>
   <g id="Line3DCollection_2">
    <path d="M 15.592931 45.403438 
L 18.815811 119.589431 
L 117.226691 151.275135 
" style="fill: none; stroke: #d3d3d3; stroke-width: 0.8"/>
    <path d="M 39.519619 27.942831 
L 41.618812 100.475503 
L 137.86499 130.095162 
" style="fill: none; stroke: #d3d3d3; stroke-width: 0.8"/>
    <path d="M 61.883829 11.622449 
L 62.994181 82.558245 
L 157.146517 110.307573 
" style="fill: none; stroke: #d3d3d3; stroke-width: 0.8"/>
   </g>
   <g id="xtick_4">
    <g id="line2d_9">
     <path d="M 88.783784 78.616216 
" clip-path="url(#pdd5380207e)" style="fill: none; stroke: #d3d3d3; stroke-width: 0.8; stroke-linecap: round"/>
    </g>
    <g id="line2d_10">
     <path d="M 116.397584 151.008185 
L 118.887037 151.809723 
" style="fill: none; stroke: #808080; stroke-width: 0.8; stroke-linecap: round"/>
    </g>
    <g id="text_6">
     <!-- −20 -->
     <g style="fill: #808080" transform="translate(119.498674 172.23265) scale(0.1 -0.1)">
      <defs>
       <path id="DejaVuSans-32" d="M 1228 531 
L 3431 531 
L 3431 0 
L 469 0 
L 469 531 
Q 828 903 1448 1529 
Q 2069 2156 2228 2338 
Q 2531 2678 2651 2914 
Q 2772 3150 2772 3378 
Q 2772 3750 2511 3984 
Q 2250 4219 1831 4219 
Q 1534 4219 1204 4116 
Q 875 4013 500 3803 
L 500 4441 
Q 881 4594 1212 4672 
Q 1544 4750 1819 4750 
Q 2544 4750 2975 4387 
Q 3406 4025 3406 3419 
Q 3406 3131 3298 2873 
Q 3191 2616 2906 2266 
Q 2828 2175 2409 1742 
Q 1991 1309 1228 531 
z
" transform="scale(0.015625)"/>
      </defs>
      <use xlink:href="#DejaVuSans-2212"/>
      <use xlink:href="#DejaVuSans-32" x="83.789062"/>
      <use xlink:href="#DejaVuSans-30" x="147.412109"/>
     </g>
    </g>
   </g>
   <g id="xtick_5">
    <g id="line2d_11">
     <path d="M 88.783784 78.616216 
" clip-path="url(#pdd5380207e)" style="fill: none; stroke: #d3d3d3; stroke-width: 0.8; stroke-linecap: round"/>
    </g>
    <g id="line2d_12">
     <path d="M 137.055511 129.846046 
L 139.485962 130.594014 
" style="fill: none; stroke: #808080; stroke-width: 0.8; stroke-linecap: round"/>
    </g>
    <g id="text_7">
     <!-- 0 -->
     <g style="fill: #808080" transform="translate(147.089749 150.579846) scale(0.1 -0.1)">
      <use xlink:href="#DejaVuSans-30"/>
     </g>
    </g>
   </g>
   <g id="xtick_6">
    <g id="line2d_13">
     <path d="M 88.783784 78.616216 
" clip-path="url(#pdd5380207e)" style="fill: none; stroke: #d3d3d3; stroke-width: 0.8; stroke-linecap: round"/>
    </g>
    <g id="line2d_14">
     <path d="M 156.355917 110.074561 
L 158.729616 110.774157 
" style="fill: none; stroke: #808080; stroke-width: 0.8; stroke-linecap: round"/>
    </g>
    <g id="text_8">
     <!-- 20 -->
     <g style="fill: #808080" transform="translate(162.79809 130.351705) scale(0.1 -0.1)">
      <use xlink:href="#DejaVuSans-32"/>
      <use xlink:href="#DejaVuSans-30" x="63.623047"/>
     </g>
    </g>
   </g>
  </g>
  <g id="axis3d_3">
   <g id="line2d_15">
    <path d="M 163.247803 104.046152 
L 166.583609 31.200681 
" style="fill: none; stroke: #ffffff; stroke-width: 0.8; stroke-linecap: round"/>
   </g>
   <g id="text_9">
    <!-- z -->
    <g style="fill: #262626" transform="translate(202.494937 65.789607) scale(0.1 -0.1)">
     <defs>
      <path id="DejaVuSans-7a" d="M 353 3500 
L 3084 3500 
L 3084 2975 
L 922 459 
L 3084 459 
L 3084 0 
L 275 0 
L 275 525 
L 2438 3041 
L 353 3041 
L 353 3500 
z
" transform="scale(0.015625)"/>
     </defs>
     <use xlink:href="#DejaVuSans-7a"/>
    </g>
   </g>
   <g id="Line3DCollection_3">
    <path d="M 163.511883 98.27933 
L 69.708227 71.290908 
L 11.235063 119.800634 
" style="fill: none; stroke: #d3d3d3; stroke-width: 0.8"/>
    <path d="M 164.386899 79.171215 
L 69.495555 52.796442 
L 10.292329 100.22414 
" style="fill: none; stroke: #d3d3d3; stroke-width: 0.8"/>
    <path d="M 165.28265 59.610312 
L 69.278088 33.88494 
L 9.326391 80.165819 
" style="fill: none; stroke: #d3d3d3; stroke-width: 0.8"/>
    <path d="M 166.19988 39.580333 
L 69.055661 14.542136 
L 8.336383 59.60766 
" style="fill: none; stroke: #d3d3d3; stroke-width: 0.8"/>
   </g>
   <g id="xtick_7">
    <g id="line2d_16">
     <path d="M 88.783784 78.616216 
" style="fill: none; stroke: #d3d3d3; stroke-width: 0.8; stroke-linecap: round"/>
    </g>
    <g id="line2d_17">
     <path d="M 162.724481 98.052785 
L 165.088566 98.73296 
" style="fill: none; stroke: #808080; stroke-width: 0.8; stroke-linecap: round"/>
    </g>
    <g id="text_10">
     <!-- 10 -->
     <g style="fill: #808080" transform="translate(175.433368 103.29369) scale(0.1 -0.1)">
      <use xlink:href="#DejaVuSans-31"/>
      <use xlink:href="#DejaVuSans-30" x="63.623047"/>
     </g>
    </g>
   </g>
   <g id="xtick_8">
    <g id="line2d_18">
     <path d="M 88.783784 78.616216 
" style="fill: none; stroke: #d3d3d3; stroke-width: 0.8; stroke-linecap: round"/>
    </g>
    <g id="line2d_19">
     <path d="M 163.589929 78.9497 
L 165.982763 79.614781 
" style="fill: none; stroke: #808080; stroke-width: 0.8; stroke-linecap: round"/>
    </g>
    <g id="text_11">
     <!-- 20 -->
     <g style="fill: #808080" transform="translate(176.517484 84.243064) scale(0.1 -0.1)">
      <use xlink:href="#DejaVuSans-32"/>
      <use xlink:href="#DejaVuSans-30" x="63.623047"/>
     </g>
    </g>
   </g>
   <g id="xtick_9">
    <g id="line2d_20">
     <path d="M 88.783784 78.616216 
" style="fill: none; stroke: #d3d3d3; stroke-width: 0.8; stroke-linecap: round"/>
    </g>
    <g id="line2d_21">
     <path d="M 164.475877 59.394129 
L 166.898166 60.043205 
" style="fill: none; stroke: #808080; stroke-width: 0.8; stroke-linecap: round"/>
    </g>
    <g id="text_12">
     <!-- 30 -->
     <g style="fill: #808080" transform="translate(177.62717 64.743107) scale(0.1 -0.1)">
      <defs>
       <path id="DejaVuSans-33" d="M 2597 2516 
Q 3050 2419 3304 2112 
Q 3559 1806 3559 1356 
Q 3559 666 3084 287 
Q 2609 -91 1734 -91 
Q 1441 -91 1130 -33 
Q 819 25 488 141 
L 488 750 
Q 750 597 1062 519 
Q 1375 441 1716 441 
Q 2309 441 2620 675 
Q 2931 909 2931 1356 
Q 2931 1769 2642 2001 
Q 2353 2234 1838 2234 
L 1294 2234 
L 1294 2753 
L 1863 2753 
Q 2328 2753 2575 2939 
Q 2822 3125 2822 3475 
Q 2822 3834 2567 4026 
Q 2313 4219 1838 4219 
Q 1578 4219 1281 4162 
Q 984 4106 628 3988 
L 628 4550 
Q 988 4650 1302 4700 
Q 1616 4750 1894 4750 
Q 2613 4750 3031 4423 
Q 3450 4097 3450 3541 
Q 3450 3153 3228 2886 
Q 3006 2619 2597 2516 
z
" transform="scale(0.015625)"/>
      </defs>
      <use xlink:href="#DejaVuSans-33"/>
      <use xlink:href="#DejaVuSans-30" x="63.623047"/>
     </g>
    </g>
   </g>
   <g id="xtick_10">
    <g id="line2d_22">
     <path d="M 88.783784 78.616216 
" style="fill: none; stroke: #d3d3d3; stroke-width: 0.8; stroke-linecap: round"/>
    </g>
    <g id="line2d_23">
     <path d="M 165.383061 39.369804 
L 167.835539 40.001912 
" style="fill: none; stroke: #808080; stroke-width: 0.8; stroke-linecap: round"/>
    </g>
    <g id="text_13">
     <!-- 40 -->
     <g style="fill: #808080" transform="translate(178.763341 44.777731) scale(0.1 -0.1)">
      <defs>
       <path id="DejaVuSans-34" d="M 2419 4116 
L 825 1625 
L 2419 1625 
L 2419 4116 
z
M 2253 4666 
L 3047 4666 
L 3047 1625 
L 3713 1625 
L 3713 1100 
L 3047 1100 
L 3047 0 
L 2419 0 
L 2419 1100 
L 313 1100 
L 313 1709 
L 2253 4666 
z
" transform="scale(0.015625)"/>
      </defs>
      <use xlink:href="#DejaVuSans-34"/>
      <use xlink:href="#DejaVuSans-30" x="63.623047"/>
     </g>
    </g>
   </g>
  </g>
  <g id="axes_1">
   <g id="line2d_24">
    <path d="M 123.871117 107.009816 
L 129.924524 98.877891 
L 134.831415 92.2574 
L 140.088825 84.678203 
L 142.677551 80.581337 
L 145.110384 76.3452 
L 147.268856 72.050403 
L 149.024155 67.805305 
L 150.247791 63.743912 
L 150.825745 60.018612 
L 150.67372 56.787508 
L 149.749891 54.197668 
L 148.061489 52.367137 
L 145.66312 51.369361 
L 142.64738 51.223192 
L 139.130826 51.890139 
L 135.239437 53.278861 
L 131.097065 55.255638 
L 126.818494 57.65918 
L 118.252856 63.068522 
L 106.565434 70.658036 
L 97.397475 76.261701 
L 90.874763 80.276493 
L 87.688631 82.482778 
L 85.162688 84.501767 
L 83.094986 86.412566 
L 80.507291 89.141628 
L 76.640536 93.322906 
L 75.016829 94.825383 
L 73.257027 96.19542 
L 71.309733 97.399683 
L 69.129022 98.394495 
L 66.675335 99.122241 
L 63.918688 99.507269 
L 62.421463 99.541729 
L 60.844915 99.452097 
L 59.191412 99.222463 
L 57.465829 98.835555 
L 55.67612 98.273019 
L 53.833944 97.5159 
L 51.955304 96.545366 
L 50.061163 95.343734 
L 48.177925 93.895835 
L 46.337701 92.190715 
L 44.578185 90.223637 
L 42.942017 87.998252 
L 41.475477 85.52875 
L 40.226441 82.841673 
L 39.241627 79.977039 
L 38.563299 76.988395 
L 38.225787 73.941505 
L 38.252277 70.911554 
L 38.652408 67.978981 
L 39.421087 65.224381 
L 40.538756 62.723054 
L 41.973066 60.539948 
L 43.681617 58.72562 
L 45.615299 57.313662 
L 47.721705 56.319777 
L 49.948211 55.742417 
L 52.244447 55.564705 
L 54.5641 55.757271 
L 56.866098 56.281581 
L 59.115271 57.093384 
L 61.282625 58.145966 
L 63.345321 59.39296 
L 65.286414 60.79057 
L 67.094404 62.299134 
L 68.762637 63.884046 
L 70.288603 65.516114 
L 72.91988 68.831167 
L 75.022644 72.108884 
L 76.652622 75.272777 
L 77.871299 78.285566 
L 78.736358 81.133509 
L 79.296825 83.815755 
L 79.591258 86.33777 
L 79.647594 88.707511 
L 79.483742 90.933225 
L 79.108386 93.022113 
L 78.521738 94.979359 
L 77.716138 96.807183 
L 76.676498 98.503695 
L 75.380674 100.061314 
L 73.799899 101.464527 
L 71.899554 102.686753 
L 69.64067 103.686011 
L 66.98285 104.399206 
L 65.49258 104.621317 
L 63.889676 104.735051 
L 62.171758 104.723312 
L 60.338209 104.566329 
L 58.390855 104.241544 
L 56.334799 103.723669 
L 54.179423 102.984957 
L 51.939535 101.995815 
L 49.636626 100.725878 
L 47.30013 99.145658 
L 44.96854 97.228893 
L 42.69012 94.955649 
L 40.52289 92.316096 
L 38.533519 89.314736 
L 36.794774 85.974586 
L 35.381333 82.340608 
L 34.364092 78.481486 
L 33.803507 74.488886 
L 33.742958 70.473629 
L 34.203395 66.558761 
L 35.18044 62.870247 
L 36.644637 59.52665 
L 38.544813 56.629436 
L 40.813712 54.255433 
L 43.374675 52.452393 
L 46.148069 51.237916 
L 49.056537 50.601378 
L 52.028691 50.508102 
L 55.001307 50.904913 
L 57.920373 51.726254 
L 60.741422 52.90022 
L 63.429438 54.35397 
L 65.958506 56.018168 
L 68.311235 57.830219 
L 70.477954 59.736238 
L 72.455682 61.691852 
L 74.246936 63.662043 
L 75.858483 65.620329 
L 78.583597 69.430573 
L 80.72746 73.03369 
L 82.393046 76.399012 
L 83.6752 79.526383 
L 84.65453 82.429357 
L 85.694669 86.403356 
L 86.360662 89.975934 
L 86.76171 93.201918 
L 87.000948 97.042412 
L 86.982177 100.436948 
L 86.737222 103.459212 
L 86.251912 106.173197 
L 85.697342 108.041442 
L 84.934009 109.791643 
L 83.900491 111.444135 
L 83.020117 112.499539 
L 81.949048 113.521054 
L 80.646747 114.507799 
L 79.063782 115.453433 
L 77.140369 116.342707 
L 74.805042 117.14606 
L 71.97396 117.811233 
L 68.551881 118.250581 
L 66.587376 118.344075 
L 64.436942 118.322488 
L 62.088893 118.155487 
L 59.533514 117.805836 
L 56.764516 117.228396 
L 53.781068 116.369322 
L 50.590551 115.165708 
L 47.212163 113.546103 
L 43.681371 111.432487 
L 40.055028 108.744435 
L 36.416528 105.406299 
L 32.879807 101.358016 
L 29.590276 96.569541 
L 26.720268 91.057611 
L 24.456779 84.901793 
L 22.980806 78.254956 
L 22.440687 71.342649 
L 22.925504 64.447608 
L 24.446865 57.879899 
L 26.935858 51.938705 
L 30.256689 46.875303 
L 34.231994 42.866289 
L 38.671033 40.001758 
L 43.392617 38.287824 
L 48.238586 37.659205 
L 53.078099 37.996789 
L 57.805926 39.146327 
L 62.338634 40.93614 
L 66.611543 43.192945 
L 70.577457 45.755147 
L 74.206513 48.482781 
L 77.485828 51.263318 
L 80.417967 54.013119 
L 83.01811 56.675255 
L 85.310468 59.215027 
L 89.092656 63.868072 
L 92.016502 67.947276 
L 95.292307 73.111533 
L 100.523466 81.761539 
L 101.857386 83.525947 
L 103.241989 85.002203 
L 104.724867 86.18745 
L 106.346459 87.070026 
L 108.141134 87.630119 
L 110.136958 87.84044 
L 112.354029 87.667349 
L 114.801119 87.073001 
L 117.470367 86.019309 
L 120.329837 84.474665 
L 123.314247 82.424406 
L 126.315217 79.885471 
L 129.174236 76.924249 
L 130.48729 75.323905 
L 131.683886 73.673764 
L 132.733143 72.002336 
L 133.604267 70.342427 
L 134.268153 68.730212 
L 134.699162 67.203828 
L 134.876916 65.801536 
L 134.787899 64.559587 
L 134.426674 63.509965 
L 133.79653 62.678272 
L 132.909475 62.082003 
L 131.785573 61.729432 
L 130.451719 61.619272 
L 128.940032 61.741146 
L 127.286048 62.076808 
L 125.526899 62.601944 
L 123.699633 63.288332 
L 119.980092 65.025672 
L 116.374109 67.064135 
L 113.064132 69.227591 
L 110.162525 71.402919 
L 107.719401 73.530561 
L 105.738395 75.58538 
L 104.194275 77.559055 
L 103.048037 79.448529 
L 102.257661 81.250156 
L 101.784669 82.957521 
L 101.597501 84.561024 
L 101.672836 86.048045 
L 101.995744 87.403087 
L 102.559243 88.607682 
L 103.363558 89.639993 
L 104.415221 90.474145 
L 105.725969 91.079363 
L 107.311306 91.419045 
L 109.188482 91.449946 
L 111.37349 91.121856 
L 113.87657 90.378307 
L 116.695537 89.159236 
L 119.806239 87.406914 
L 123.149728 85.076817 
L 126.616737 82.155095 
L 128.344811 80.482343 
L 130.032481 78.683037 
L 131.646338 76.775651 
L 133.148828 74.785477 
L 134.499261 72.744973 
L 135.655388 70.693601 
L 136.575558 68.676982 
L 137.221332 66.745265 
L 137.560332 64.950701 
L 137.568979 63.344529 
L 137.234748 61.973467 
L 136.557557 60.876187 
L 135.550088 60.08025 
L 134.236959 59.599947 
L 132.652928 59.435348 
L 130.840412 59.572726 
L 128.846702 59.986285 
L 126.721209 60.640932 
L 124.512986 61.495703 
L 120.030856 63.633929 
L 115.718515 66.084234 
L 111.802445 68.613594 
L 108.411291 71.09022 
L 105.589228 73.461589 
L 103.320427 75.719967 
L 101.555041 77.874629 
L 100.230064 79.936254 
L 99.282903 81.910835 
L 98.658651 83.798684 
L 98.31309 85.59538 
L 98.213262 87.292994 
L 98.336893 88.880971 
L 98.67142 90.346508 
L 99.212985 91.674459 
L 99.965566 92.846833 
L 100.940251 93.841935 
L 102.154603 94.633207 
L 103.631964 95.187795 
L 105.400495 95.464903 
L 107.491609 95.414111 
L 109.937294 94.97395 
L 112.765561 94.071382 
L 115.992932 92.623339 
L 119.612526 90.542223 
L 121.556604 89.2385 
L 123.576212 87.748299 
L 125.654869 86.066634 
L 127.77018 84.192617 
L 129.892953 82.13094 
L 131.986521 79.893513 
L 134.006441 77.501152 
L 135.900849 74.985085 
L 137.61169 72.388024 
L 139.077057 69.764403 
L 140.234711 67.179436 
L 141.026617 64.70667 
L 141.40407 62.423946 
L 141.332668 60.407945 
L 140.796273 58.727886 
L 139.799182 57.439214 
L 138.366046 56.578268 
L 136.539592 56.158825 
L 134.376665 56.171086 
L 131.943397 56.583287 
L 129.310345 57.345631 
L 126.548185 58.395935 
L 123.72429 59.666122 
L 118.129778 62.601954 
L 112.92108 65.70635 
L 108.346006 68.709137 
L 104.510178 71.507384 
L 101.408438 74.100951 
L 98.968446 76.528958 
L 97.089712 78.83237 
L 95.669645 81.04019 
L 94.61696 83.16835 
L 93.856477 85.223011 
L 93.329296 87.204268 
L 92.882213 90.031162 
L 92.762155 92.6695 
L 92.914513 95.101478 
L 93.319767 97.30848 
L 93.986957 99.269137 
L 94.593434 100.425964 
L 95.347971 101.449969 
L 96.272656 102.326555 
L 97.395426 103.036311 
L 98.750613 103.553295 
L 100.379473 103.842852 
L 102.33052 103.85886 
L 104.659345 103.540387 
L 107.427347 102.807899 
L 110.698347 101.559502 
L 114.531315 99.668495 
L 116.672366 98.435861 
L 118.966213 96.984919 
L 121.410687 95.295021 
L 123.998305 93.346305 
L 126.71442 91.121202 
L 129.535014 88.606549 
L 132.424221 85.796392 
L 135.331812 82.695512 
L 138.19105 79.323584 
L 140.917608 75.71961 
L 143.410427 71.945977 
L 145.5555 68.091091 
L 147.233307 64.269244 
L 148.329877 60.61643 
L 148.750263 57.281301 
L 148.431895 54.411626 
L 147.354519 52.138033 
L 145.543896 50.557984 
L 143.068131 49.723303 
L 140.027878 49.633781 
L 136.543422 50.237959 
L 132.742053 51.440614 
L 128.748184 53.115422 
L 124.677007 55.120658 
L 116.698217 59.575075 
L 106.213515 65.905285 
L 100.651394 69.419846 
L 96.256394 72.419169 
L 92.872624 75.065307 
L 90.29107 77.49701 
L 88.309699 79.802422 
L 86.758185 82.027774 
L 85.501724 84.192714 
L 83.949109 87.335851 
L 81.187295 93.19784 
L 79.645138 95.873775 
L 78.464561 97.54531 
L 77.116612 99.113875 
L 75.560698 100.563244 
L 73.753798 101.869821 
L 71.650406 102.998995 
L 69.20363 103.900276 
L 66.368115 104.501055 
L 64.792203 104.658198 
L 63.105985 104.699156 
L 61.307635 104.605272 
L 59.397489 104.355183 
L 57.378801 103.924798 
L 55.258656 103.287452 
L 53.049039 102.414366 
L 50.768041 101.275479 
L 48.44111 99.840826 
L 46.102246 98.082542 
L 43.794901 95.977602 
L 41.572336 93.511281 
L 39.497038 90.681182 
L 37.638866 87.501463 
L 36.071642 84.006667 
L 34.86814 80.254321 
L 34.093837 76.32542 
L 33.800189 72.322055 
L 34.018605 68.361902 
L 34.756342 64.56995 
L 35.995289 61.068547 
L 37.693932 57.967315 
L 39.792021 55.354551 
L 42.216869 53.291334 
L 44.889966 51.808939 
L 47.732802 50.909437 
L 50.671268 50.568904 
L 53.638495 50.742385 
L 56.576393 51.369798 
L 59.436275 52.382021 
L 62.178934 53.706591 
L 64.774411 55.272596 
L 67.201522 57.01445 
L 69.447159 58.874425 
L 71.505362 60.80397 
L 73.376201 62.763967 
L 75.064545 64.724197 
L 77.92991 68.562465 
L 80.192208 72.210934 
L 81.953733 75.627776 
L 83.311294 78.807037 
L 84.348448 81.759646 
L 85.133508 84.502973 
L 85.953032 88.266242 
L 86.456297 91.658991 
L 86.779159 95.691565 
L 86.805382 99.250577 
L 86.580761 102.415215 
L 86.245538 104.57094 
L 85.746501 106.568874 
L 85.047945 108.432928 
L 84.095722 110.184698 
L 83.28301 111.299044 
L 82.294034 112.374695 
L 81.092059 113.412216 
L 79.632177 114.407669 
L 77.859925 115.349779 
L 75.709951 116.215485 
L 73.105085 116.963041 
L 69.956585 117.5215 
L 68.148213 117.695962 
L 66.167136 117.77516 
L 64.001292 117.734042 
L 61.639774 117.541662 
L 59.073899 117.160207 
L 56.298716 116.544079 
L 53.3151 115.639209 
L 50.132554 114.382889 
L 46.77282 112.704524 
L 43.274275 110.527918 
L 39.696851 107.775782 
L 36.126811 104.377239 
L 32.680115 100.278803 
L 29.5025 95.458644 
L 26.763957 89.942664 
L 24.645706 83.819186 
L 23.319417 77.247516 
L 22.921471 70.455313 
L 23.528396 63.721687 
L 25.141253 57.347262 
L 27.684828 51.617421 
L 31.022209 46.767853 
L 34.979499 42.960516 
L 39.3723 40.273894 
L 44.026701 38.706506 
L 48.791281 38.189514 
L 53.540701 38.603737 
L 58.173987 39.797577 
L 62.611074 41.603954 
L 66.790139 43.85539 
L 70.666497 46.396565 
L 74.212398 49.093556 
L 77.416501 51.839039 
L 80.282225 54.553396 
L 82.824926 57.18244 
L 85.068429 59.69307 
L 88.775448 64.30193 
L 91.647627 68.354802 
L 94.874388 73.505061 
L 100.048795 82.18926 
L 101.372021 83.9736 
L 102.747182 85.473119 
L 104.222122 86.684655 
L 105.838033 87.596208 
L 107.630578 88.187429 
L 109.629738 88.430097 
L 111.858235 88.288994 
L 114.328256 87.723746 
L 117.036129 86.692438 
L 119.954678 85.158044 
L 123.023373 83.098777 
L 126.13741 80.523135 
L 129.138758 77.489027 
L 130.532649 75.836604 
L 131.81493 74.123466 
L 132.952863 72.378354 
L 133.91328 70.634926 
L 134.664261 68.930903 
L 135.177052 67.306683 
L 135.428064 65.803438 
L 135.400736 64.460834 
L 135.087003 63.314535 
L 134.488175 62.393796 
L 133.615096 61.719413 
L 132.487546 61.302315 
L 131.133 61.142992 
L 129.584903 61.231826 
L 127.880707 61.550301 
L 126.05986 62.072904 
L 124.161942 62.769472 
L 120.284474 64.555461 
L 116.513963 66.663387 
L 113.047579 68.900735 
L 110.006775 71.145043 
L 107.445278 73.333792 
L 105.366128 75.442782 
L 103.740968 77.466157 
L 102.526614 79.403438 
L 101.676794 81.253134 
L 101.149212 83.01051 
L 100.909096 84.667325 
L 100.930535 86.212176 
L 101.196565 87.630798 
L 101.698671 88.906075 
L 102.436028 90.017706 
L 103.414644 90.94156 
L 104.646383 91.64878 
L 106.147764 92.10473 
L 107.938303 92.267938 
L 110.038058 92.08931 
L 112.463858 91.512071 
L 115.223562 90.473223 
L 118.307501 88.907739 
L 121.676347 86.757205 
L 125.245227 83.98497 
L 127.061243 82.36576 
L 128.86571 80.599365 
L 130.627683 78.698876 
L 132.311051 76.684141 
L 133.875082 74.58256 
L 135.275551 72.429488 
L 136.466545 70.268051 
L 137.402922 68.148168 
L 138.043302 66.124675 
L 138.353293 64.254508 
L 138.308569 62.593136 
L 137.897311 61.190553 
L 137.121622 60.087318 
L 135.997653 59.311203 
L 134.554437 58.874926 
L 132.831653 58.77534 
L 130.876708 58.994195 
L 128.741575 59.500357 
L 126.479768 60.253151 
L 124.143713 61.206353 
L 119.440841 63.525508 
L 114.962288 66.119288 
L 110.934472 68.751056 
L 107.477819 71.297229 
L 104.624137 73.71704 
L 102.344812 76.012728 
L 100.579156 78.200155 
L 99.256066 80.293733 
L 98.307388 82.301431 
L 97.674574 84.22471 
L 97.311036 86.060036 
L 97.182207 87.800438 
L 97.264609 89.436549 
L 97.544651 90.957089 
L 98.017513 92.348833 
L 98.686237 93.596178 
L 99.561053 94.680354 
L 100.658872 95.578318 
L 102.002842 96.261346 
L 103.621796 96.693339 
L 105.549337 96.828903 
L 107.822145 96.611389 
L 110.476901 95.971277 
L 113.544868 94.825717 
L 117.04273 93.080703 
L 120.957864 90.638386 
L 123.054653 89.127842 
L 125.226118 87.413284 
L 127.45121 85.490837 
L 129.701594 83.36205 
L 131.940664 81.035752 
L 134.122912 78.530058 
L 136.19391 75.874314 
L 138.091244 73.110673 
L 139.746703 70.294888 
L 141.089906 67.495846 
L 142.053313 64.793388 
L 142.578181 62.27419 
L 142.620674 60.025787 
L 142.15703 58.129284 
L 141.186742 56.651739 
L 139.733037 55.639419 
L 137.840592 55.113085 
L 135.57103 55.066149 
L 132.997236 55.465977 
L 130.197548 56.258111 
L 127.250665 57.372682 
L 124.231652 58.732046 
L 121.209054 60.258488 
L 115.383483 63.53993 
L 110.132829 66.800386 
L 105.649032 69.840399 
L 101.977596 72.623315 
L 99.063235 75.190093 
L 96.799873 77.597599 
L 95.068455 79.890982 
L 93.758373 82.098 
L 92.776259 84.232273 
L 92.04751 86.298288 
L 91.307333 89.267482 
L 90.873003 92.071644 
L 90.625118 95.53473 
L 90.658563 98.664965 
L 90.933915 101.449994 
L 91.3054 103.305754 
L 91.84231 104.954096 
L 92.583101 106.382415 
L 93.217379 107.202051 
L 93.989203 107.90442 
L 94.925946 108.475516 
L 96.061077 108.895897 
L 97.435178 109.138788 
L 99.097011 109.167546 
L 101.104497 108.932321 
L 103.525308 108.365777 
L 106.436505 107.377835 
L 109.92211 105.849811 
L 114.066505 103.629085 
L 116.408856 102.201382 
L 118.939698 100.527295 
L 121.660685 98.578991 
L 124.567546 96.328505 
L 127.647548 93.749524 
L 130.876292 90.82004 
L 134.213896 87.52612 
L 137.600796 83.866934 
L 140.9538 79.861033 
L 144.163462 75.553455 
L 147.094406 71.02266 
L 149.590508 66.385498 
L 151.486492 61.797756 
L 152.62606 57.447762 
L 152.884163 53.541559 
L 152.188269 50.280499 
L 150.5322 47.834993 
L 147.977677 46.32024 
L 144.643005 45.779644 
L 140.683128 46.17938 
L 136.267862 47.414455 
L 131.564311 49.324157 
L 126.726261 51.713848 
L 121.889822 54.37983 
L 108.46648 62.340783 
L 92.949993 71.59202 
L 89.120023 74.187384 
L 86.253948 76.509067 
L 84.079295 78.687922 
L 82.376119 80.787258 
L 80.350876 83.832919 
L 76.321362 90.380805 
L 75.050736 92.047423 
L 73.639166 93.589155 
L 72.046846 94.980692 
L 70.236839 96.189633 
L 68.175436 97.173605 
L 65.834034 97.876892 
L 63.193044 98.226924 
L 61.758101 98.241445 
L 60.248482 98.131428 
L 58.667763 97.882159 
L 57.021954 97.477872 
L 55.320008 96.902073 
L 53.574359 96.138049 
L 51.801464 95.169601 
L 50.022276 93.982039 
L 48.26258 92.56346 
L 46.553099 90.906292 
L 44.929231 89.009047 
L 43.430327 86.878166 
L 42.098386 84.529759 
L 40.976149 81.990985 
L 40.104639 79.300772 
L 39.520323 76.509588 
L 39.252189 73.678046 
L 39.31915 70.874303 
L 39.728146 68.170379 
L 40.473294 65.637761 
L 41.536222 63.342811 
L 42.887535 61.34254 
L 44.489142 59.68125 
L 46.297064 58.388418 
L 48.264324 57.477928 
L 50.34357 56.948619 
L 52.489236 56.785903 
L 54.659165 56.96417 
L 56.815705 57.449616 
L 58.926363 58.203204 
L 60.964107 59.183465 
L 62.907391 60.348948 
L 64.739949 61.66018 
L 66.450427 63.081076 
L 68.031861 64.579805 
L 69.481074 66.129173 
L 71.985085 69.29394 
L 73.987855 72.444305 
L 75.535632 75.502741 
L 76.681316 78.428498 
L 77.475403 81.20369 
L 77.961093 83.823443 
L 78.172216 86.289534 
L 78.13276 88.606489 
L 77.857191 90.779158 
L 77.35106 92.811092 
L 76.611655 94.703217 
L 75.628618 96.45248 
L 74.384547 98.050196 
L 72.855723 99.479849 
L 71.013201 100.714138 
L 68.824672 101.711043 
L 66.257728 102.408833 
L 64.82351 102.619436 
L 63.285486 102.720173 
L 61.642691 102.695152 
L 59.895959 102.526231 
L 58.048546 102.193014 
L 56.106867 101.672987 
L 54.081358 100.941885 
L 51.987425 99.97435 
L 49.846454 98.744993 
L 47.68676 97.229932 
L 45.544352 95.408891 
L 43.46331 93.267845 
L 41.495507 90.802146 
L 39.699424 88.019874 
L 38.137817 84.945037 
L 36.874163 81.620031 
L 35.968014 78.106718 
L 35.469721 74.485493 
L 35.415283 70.851989 
L 35.822217 67.31144 
L 36.687296 63.971273 
L 37.98666 60.932923 
L 39.678255 58.284089 
L 41.706079 56.092551 
L 44.005347 54.402325 
L 46.507634 53.232409 
L 49.145305 52.577938 
L 51.854828 52.413244 
L 54.57896 52.696165 
L 57.267974 53.372968 
L 59.880216 54.383321 
L 62.382209 55.664874 
L 64.748452 57.15711 
L 66.960987 58.804269 
L 69.00874 60.557265 
L 70.886684 62.374641 
L 72.594852 64.222725 
L 74.137299 66.075174 
L 76.755241 69.719272 
L 78.816593 73.207849 
L 80.407621 76.498436 
L 81.610398 79.580729 
L 82.495901 82.460642 
L 83.121854 85.151151 
L 83.53307 87.667518 
L 83.817292 91.148718 
L 83.762802 94.319422 
L 83.401317 97.220177 
L 82.990214 99.020912 
L 82.434575 100.724841 
L 81.720575 102.338295 
L 80.828348 103.865305 
L 79.731599 105.306716 
L 78.397067 106.658747 
L 76.783949 107.910769 
L 74.843465 109.041938 
L 72.518893 110.016185 
L 69.746711 110.774972 
L 68.171809 111.046702 
L 66.459959 111.227151 
L 64.603493 111.297636 
L 62.595858 111.235615 
L 60.432349 111.01418 
L 58.111081 110.601622 
L 55.634276 109.961151 
L 53.009899 109.050948 
L 50.253681 107.824709 
L 47.391493 106.232996 
L 44.461948 104.22567 
L 41.518948 101.755772 
L 38.633647 98.785055 
L 35.895099 95.291201 
L 33.40861 91.276247 
L 31.290868 86.775163 
L 29.661286 81.86278 
L 28.629918 76.656812 
L 28.283584 71.31486 
L 28.67307 66.024292 
L 29.80474 60.985769 
L 31.639086 56.393152 
L 34.096726 52.413822 
L 37.070058 49.173297 
L 40.437224 46.746614 
L 44.074947 45.15692 
L 47.867964 44.380061 
L 51.714382 44.353152 
L 55.527672 44.985132 
L 59.236618 46.16775 
L 62.784521 47.78594 
L 66.128376 49.726857 
L 69.23821 51.887014 
L 72.096318 54.177128 
L 74.696132 56.524563 
L 77.040595 58.873585 
L 79.140154 61.18398 
L 82.671192 65.590995 
L 85.446307 69.638326 
L 87.631231 73.30968 
L 89.375282 76.62794 
L 91.430454 81.018017 
L 94.588036 88.038149 
L 96.098253 90.784933 
L 97.184511 92.347047 
L 98.380832 93.688823 
L 99.72649 94.798194 
L 101.261707 95.655257 
L 103.02843 96.230983 
L 105.070417 96.485616 
L 107.432317 96.366947 
L 110.157189 95.808867 
L 113.281547 94.731007 
L 116.826564 93.040943 
L 118.755831 91.93579 
L 120.783603 90.64149 
L 122.900516 89.14779 
L 125.092107 87.446873 
L 127.337697 85.534686 
L 129.609254 83.412558 
L 131.870391 81.089085 
L 134.07569 78.582161 
L 136.170649 75.920969 
L 138.092576 73.147618 
L 139.77275 70.317998 
L 141.140052 67.501373 
L 142.126007 64.778251 
L 142.670834 62.236267 
L 142.729669 59.964163 
L 142.277875 58.044413 
L 141.314354 56.545462 
L 139.862106 55.514819 
L 137.965958 54.974209 
L 135.688022 54.917609 
L 133.10191 55.312515 
L 130.286824 56.104173 
L 127.322364 57.222072 
L 124.284464 58.587689 
L 121.242463 60.122333 
L 115.379168 63.422377 
L 110.095378 66.700018 
L 105.584947 69.753508 
L 101.893426 72.546377 
L 98.964378 75.120727 
L 96.690138 77.534547 
L 94.950125 79.83375 
L 93.632472 82.046534 
L 92.642839 84.186755 
L 91.905874 86.259027 
L 91.150776 89.23838 
L 90.696878 92.053919 
L 90.412662 95.534874 
L 90.393463 98.687711 
L 90.592971 101.502994 
L 91.014441 103.974459 
L 91.502033 105.596165 
L 92.174828 107.008634 
L 92.751301 107.825528 
L 93.453394 108.533172 
L 94.306405 109.1196 
L 95.341341 109.568078 
L 96.595939 109.855428 
L 98.115777 109.949787 
L 99.955394 109.807602 
L 102.179214 109.369704 
L 104.861853 108.556337 
L 108.087004 107.261242 
L 111.943315 105.345474 
L 116.51424 102.632892 
L 119.087362 100.912754 
L 121.856269 98.91193 
L 124.816822 96.601289 
L 127.956084 93.953352 
L 131.248924 90.945086 
L 134.653948 87.561881 
L 138.109017 83.802893 
L 141.527026 79.687725 
L 144.793125 75.26401 
L 147.765169 70.614778 
L 150.279464 65.863643 
L 152.1635 61.175128 
L 153.25566 56.747386 
L 153.429125 52.795843 
L 152.614177 49.528882 
L 150.811887 47.119871 
L 148.09423 45.681945 
L 144.59057 45.251553 
L 140.465643 45.784131 
L 135.896568 47.161814 
L 131.055112 49.210714 
L 126.097701 51.72445 
L 121.161874 54.490522 
L 92.070186 71.730995 
L 88.287766 74.274407 
L 85.465432 76.552492 
L 83.324753 78.694527 
L 81.644151 80.761228 
L 79.632083 83.761026 
L 76.16107 89.335199 
L 74.91654 91.015199 
L 73.545723 92.574327 
L 72.008223 93.987727 
L 70.267325 95.224229 
L 68.290009 96.243757 
L 66.048437 96.994293 
L 63.523304 97.40871 
L 62.15206 97.464097 
L 60.709599 97.402184 
L 59.198965 97.209489 
L 57.625378 96.871562 
L 55.996683 96.373249 
L 54.323829 95.699121 
L 52.621354 94.834097 
L 50.907824 93.764286 
L 49.206162 92.478078 
L 47.543796 90.967469 
L 45.95251 89.2296 
L 44.467915 87.268386 
L 43.128429 85.096124 
L 41.973733 82.734841 
L 41.042717 80.217148 
L 40.371028 77.586337 
L 39.98845 74.895506 
L 39.91643 72.205616 
L 40.16609 69.582533 
L 40.737058 67.093299 
L 41.617296 64.802025 
L 42.783972 62.765892 
L 44.20521 61.031741 
L 45.842441 59.633626 
L 47.652989 58.591529 
L 49.592582 57.911293 
L 51.617552 57.585616 
L 53.686569 57.59589 
L 55.76192 57.914589 
L 57.810338 58.507912 
L 59.803473 59.338415 
L 61.718059 60.367424 
L 63.535856 61.557063 
L 65.24339 62.871818 
L 66.831551 64.279605 
L 68.295079 65.752374 
L 70.842917 68.80175 
L 72.899279 71.877134 
L 74.501043 74.889517 
L 75.695111 77.788696 
L 76.528564 80.549679 
L 77.042947 83.162462 
L 77.271506 85.625134 
L 77.238249 87.939459 
L 76.957963 90.108047 
L 76.436679 92.132418 
L 75.672285 94.011435 
L 74.655185 95.739743 
L 73.369034 97.305937 
L 71.791688 98.690208 
L 69.896645 99.861278 
L 67.655404 100.772459 
L 66.396435 101.110625 
L 65.041431 101.356873 
L 63.588454 101.498829 
L 62.036707 101.522225 
L 60.386976 101.410817 
L 58.642165 101.146372 
L 56.807933 100.708788 
L 54.893431 100.07639 
L 52.912117 99.226476 
L 50.882622 98.136187 
L 48.82958 96.783774 
L 46.784325 95.150324 
L 44.785289 93.221957 
L 42.877898 90.992438 
L 41.113758 88.466048 
L 39.548917 85.660412 
L 38.241106 82.608857 
L 37.246002 79.361759 
L 36.612812 75.986365 
L 36.379708 72.564689 
L 36.569834 69.189364 
L 37.188611 65.95778 
L 38.222893 62.965152 
L 39.642151 60.297513 
L 41.401432 58.025598 
L 43.445482 56.200446 
L 45.713279 54.851138 
L 48.14227 53.984725 
L 50.671845 53.588051 
L 53.24587 53.630975 
L 55.81431 54.070448 
L 58.334133 54.854914 
L 60.769684 55.928574 
L 63.092709 57.235197 
L 65.282095 58.721195 
L 67.323398 60.337862 
L 69.208175 62.042746 
L 70.933166 63.800236 
L 72.499382 65.581513 
L 75.175306 69.130832 
L 77.295187 72.571452 
L 78.934349 75.844764 
L 80.168465 78.929037 
L 81.065027 81.822634 
L 81.679857 84.533709 
L 82.056508 87.074436 
L 82.227036 89.458024 
L 82.213233 91.697244 
L 82.027846 93.803736 
L 81.675582 95.787634 
L 81.153814 97.657265 
L 80.452992 99.418749 
L 79.556786 101.075374 
L 78.442029 102.626592 
L 77.078532 104.066468 
L 75.428915 105.381325 
L 73.4487 106.54627 
L 71.087051 107.520184 
L 68.288889 108.238727 
L 66.708815 108.47353 
L 64.999584 108.605011 
L 63.155955 108.614094 
L 61.174268 108.478197 
L 59.053223 108.17091 
L 56.794882 107.661807 
L 54.405923 106.9165 
L 51.899177 105.897053 
L 49.295407 104.562976 
L 46.625268 102.872984 
L 43.931239 100.78777 
L 41.269218 98.27397 
L 38.709285 95.309345 
L 36.335005 91.888982 
L 34.240593 88.031882 
L 32.525448 83.78686 
L 31.286026 79.23627 
L 30.605767 74.495973 
L 30.544711 69.710374 
L 31.130994 65.042329 
L 32.356406 60.659089 
L 34.177244 56.716653 
L 36.520264 53.345408 
L 39.292094 50.639587 
L 42.389712 48.651918 
L 45.709794 47.393517 
L 49.155558 46.838076 
L 52.640809 46.928895 
L 56.091692 47.587369 
L 59.44703 48.72177 
L 62.657999 50.235509 
L 65.68763 52.034248 
L 68.510206 54.031446 
L 71.110474 56.152048 
L 73.482534 58.33433 
L 75.628394 60.53009 
L 77.556299 62.703624 
L 80.81218 66.89281 
L 83.37921 70.794231 
L 85.396246 74.380274 
L 86.990636 77.661388 
L 88.819894 82.065751 
L 91.011102 88.23623 
L 92.837209 93.187396 
L 93.99867 95.634884 
L 94.865293 97.052612 
L 95.841944 98.293889 
L 96.961726 99.348349 
L 98.26089 100.199295 
L 99.779813 100.822196 
L 101.563703 101.182701 
L 103.662849 101.234164 
L 106.13203 100.914745 
L 109.028421 100.144402 
L 112.40683 98.822554 
L 116.310367 96.828072 
L 118.465393 95.536291 
L 120.753551 94.024819 
L 123.167526 92.276997 
L 125.693826 90.278297 
L 128.311021 88.018072 
L 130.987809 85.491823 
L 133.68107 82.704025 
L 136.334233 79.671394 
L 138.876428 76.42637 
L 141.223069 73.020309 
L 143.278563 69.525665 
L 144.941692 66.036202 
L 146.11376 62.664267 
L 146.708808 59.534456 
L 146.664291 56.773735 
L 145.949944 54.499014 
L 144.572608 52.80415 
L 142.575691 51.748814 
L 140.033493 51.351398 
L 137.042048 51.587289 
L 133.708894 52.392678 
L 130.143941 53.673078 
L 126.452616 55.315058 
L 122.731433 57.199362 
L 115.525984 61.261514 
L 109.04146 65.193611 
L 103.555428 68.697237 
L 99.126839 71.755932 
L 95.662206 74.475665 
L 92.996307 76.972702 
L 90.952232 79.330845 
L 89.372042 81.598698 
L 88.126409 83.799678 
L 86.669211 86.992132 
L 84.765667 92.014112 
L 83.292904 95.734604 
L 82.032206 98.337319 
L 81.057366 99.978129 
L 79.935973 101.538717 
L 78.631292 103.012051 
L 77.102425 104.386403 
L 75.303487 105.642582 
L 73.183267 106.750015 
L 70.685804 107.661228 
L 67.752631 108.304294 
L 66.104895 108.493729 
L 64.32802 108.572985 
L 62.417172 108.521498 
L 60.369428 108.315084 
L 58.184635 107.925671 
L 55.866512 107.3212 
L 53.424007 106.465808 
L 50.872932 105.320467 
L 48.237815 103.844264 
L 45.55386 101.996553 
L 42.868767 99.740194 
L 40.244027 97.046001 
L 37.755145 93.898366 
L 35.490123 90.301661 
L 33.545593 86.286648 
L 32.020243 81.915611 
L 31.005818 77.284668 
L 30.576756 72.521791 
L 30.780391 67.779707 
L 31.629959 63.22404 
L 33.102291 59.018378 
L 35.140853 55.308922 
L 37.663316 52.211561 
L 40.571609 49.803424 
L 43.762089 48.119763 
L 47.133897 47.155744 
L 50.594611 46.871936 
L 54.063264 47.202034 
L 57.471418 48.061533 
L 60.763175 49.356325 
L 63.894757 50.990509 
L 66.833968 52.87286 
L 69.559534 54.921605 
L 72.060192 57.06733 
L 74.333435 59.254101 
L 76.383963 61.43912 
L 78.221983 63.59135 
L 81.318892 67.720485 
L 83.756903 71.554129 
L 85.672974 75.074627 
L 87.190177 78.296251 
L 88.938087 82.624064 
L 91.054415 88.694939 
L 92.487675 92.682492 
L 93.603917 95.218035 
L 94.425575 96.697262 
L 95.344506 98.004431 
L 96.392545 99.131462 
L 97.604293 100.0645 
L 99.018168 100.782587 
L 100.677249 101.255879 
L 102.629774 101.443358 
L 104.928999 101.290068 
L 107.631908 100.724038 
L 110.795849 99.653433 
L 114.471552 97.965122 
L 116.512316 96.848606 
L 118.690031 95.527109 
L 121.001747 93.982922 
L 123.439673 92.199274 
L 125.989624 90.161671 
L 128.629214 87.859707 
L 131.325865 85.28943 
L 134.034842 82.45625 
L 136.697623 79.378312 
L 139.241133 76.090032 
L 141.578504 72.645309 
L 143.612064 69.119603 
L 145.239105 65.609912 
L 146.360451 62.231656 
L 146.891015 59.111843 
L 146.770611 56.378657 
L 145.972649 54.148627 
L 144.508473 52.513466 
L 142.426157 51.529092 
L 139.804167 51.208981 
L 136.741742 51.523086 
L 133.348496 52.402343 
L 129.73536 53.747824 
L 126.007971 55.442955 
L 122.262466 57.366907 
L 115.04013 61.469299 
L 108.572307 65.402934 
L 103.123396 68.889966 
L 98.739418 71.929064 
L 95.317521 74.632817 
L 92.687504 77.118547 
L 90.670731 79.468968 
L 89.109294 81.731303 
L 87.874575 83.927912 
L 86.420798 87.114568 
L 82.123551 97.583765 
L 81.169107 99.254918 
L 80.076983 100.845871 
L 78.811031 102.349972 
L 77.331356 103.756347 
L 75.593416 105.047339 
L 73.547576 106.194888 
L 71.139486 107.155439 
L 68.311936 107.862954 
L 66.723232 108.092822 
L 65.009374 108.219731 
L 63.165165 108.224693 
L 61.187041 108.085322 
L 59.073832 107.775533 
L 56.827743 107.265381 
L 54.45558 106.521138 
L 51.970232 105.505729 
L 49.392399 104.179733 
L 46.752458 102.503131 
L 44.092302 100.438025 
L 41.466831 97.952501 
L 38.94462 95.025643 
L 36.607173 91.653494 
L 34.546129 87.855354 
L 32.857968 83.679384 
L 31.636178 79.206109 
L 30.96163 74.548324 
L 30.892636 69.84631 
L 31.456823 65.258167 
L 32.646819 60.94638 
L 34.420973 57.06282 
L 36.708914 53.734926 
L 39.420466 51.05546 
L 42.455655 49.07718 
L 45.713737 47.812538 
L 49.099911 47.237534 
L 52.529384 47.298386 
L 55.92923 47.919655 
L 59.238833 49.012732 
L 62.409664 50.483854 
L 65.404809 52.241048 
L 68.198393 54.199561 
L 70.774804 56.285535 
L 73.127616 58.437888 
L 75.258192 60.608603 
L 77.17407 62.761828 
L 80.412853 66.923021 
L 82.967886 70.809999 
L 84.974072 74.391459 
L 86.555969 77.675074 
L 88.359328 82.09274 
L 90.108536 87.165463 
L 92.178625 93.32545 
L 93.230704 95.832946 
L 94.426978 97.974703 
L 95.352931 99.193978 
L 96.418209 100.235828 
L 97.657835 101.08462 
L 99.111211 101.717296 
L 100.822924 102.101417 
L 102.843188 102.192664 
L 105.227611 101.93183 
L 108.035675 101.241505 
L 111.326914 100.023076 
L 115.153004 98.155405 
L 117.277166 96.934712 
L 119.542895 95.498039 
L 121.946004 93.826896 
L 124.476785 91.904098 
L 127.118265 89.715324 
L 129.844179 87.251217 
L 132.616805 84.510093 
L 135.384887 81.501248 
L 138.082079 78.248681 
L 140.62655 74.794889 
L 142.922505 71.204041 
L 144.864389 67.563593 
L 146.344241 63.983217 
L 146.344241 63.983217 
" clip-path="url(#pdd5380207e)" style="fill: none; stroke: #1f77b4; stroke-width: 1.5; stroke-linecap: round"/>
   </g>
   <g id="line2d_25">
    <path d="M 123.871117 107.009816 
L 125.753062 103.94222 
L 127.924281 100.766128 
L 138.449037 86.223029 
L 141.206469 82.046397 
L 143.840142 77.689201 
L 146.240873 73.215759 
L 148.290199 68.721485 
L 149.866173 64.331812 
L 150.851921 60.196619 
L 151.146459 56.479337 
L 150.676518 53.340944 
L 149.407397 50.920622 
L 147.35044 49.316414 
L 144.565001 48.570184 
L 141.153816 48.660811 
L 137.252253 49.50771 
L 133.013525 50.983949 
L 128.592906 52.935619 
L 124.133909 55.202722 
L 119.758486 57.637175 
L 111.612135 62.5429 
L 101.568123 69.021714 
L 96.410005 72.541142 
L 92.337465 75.517668 
L 89.159342 78.099692 
L 86.680803 80.419437 
L 84.724908 82.572484 
L 83.139895 84.618271 
L 81.187752 87.548793 
L 77.692597 92.958654 
L 76.40035 94.594535 
L 74.955214 96.118212 
L 73.310735 97.504847 
L 71.42328 98.721754 
L 69.252293 99.725152 
L 66.762267 100.456092 
L 65.388908 100.695691 
L 63.927093 100.83587 
L 62.376258 100.862999 
L 60.737581 100.761773 
L 59.014446 100.515229 
L 57.212981 100.10488 
L 55.342646 99.511007 
L 53.416871 98.713153 
L 51.453684 97.69089 
L 49.476292 96.424894 
L 47.51351 94.898385 
L 45.599965 93.098926 
L 43.775921 91.020562 
L 42.086606 88.666171 
L 40.580932 86.049839 
L 39.309509 83.198954 
L 38.321982 80.155645 
L 37.663799 76.97713 
L 37.372677 73.734608 
L 37.475154 70.510451 
L 37.98371 67.393732 
L 38.894911 64.47442 
L 40.188956 61.836914 
L 41.830762 59.553772 
L 43.772487 57.680549 
L 45.957132 56.252456 
L 48.322692 55.283236 
L 50.806306 54.766224 
L 53.347905 54.677209 
L 55.893043 54.978458 
L 58.394752 55.623233 
L 60.814472 56.560153 
L 63.122175 57.736982 
L 65.295908 59.10357 
L 67.320948 60.613901 
L 69.188762 62.227294 
L 70.895904 63.908922 
L 72.44296 65.6298 
L 73.833583 67.366425 
L 76.170583 70.816867 
L 77.968914 74.158767 
L 79.299157 77.338398 
L 80.230005 80.332795 
L 80.822393 83.137438 
L 81.126641 85.758024 
L 81.181488 88.205218 
L 81.014188 90.491395 
L 80.641131 92.628579 
L 80.068645 94.627058 
L 79.293776 96.494304 
L 78.304956 98.233904 
L 77.082572 99.844263 
L 75.599514 101.316845 
L 73.821918 102.633689 
L 71.710442 103.763936 
L 69.222627 104.659085 
L 67.824474 104.997037 
L 66.317207 105.246869 
L 64.697077 105.394637 
L 62.961593 105.42398 
L 61.110051 105.315928 
L 59.144173 105.048778 
L 57.06888 104.598097 
L 54.893184 103.936918 
L 52.631187 103.036222 
L 50.303155 101.865797 
L 47.93657 100.395604 
L 45.567067 98.59774 
L 43.239072 96.449089 
L 41.005916 93.934639 
L 38.929192 91.051367 
L 37.077073 87.812372 
L 35.52141 84.250762 
L 34.333555 80.422559 
L 33.579064 76.407793 
L 33.311781 72.308959 
L 33.568014 68.246336 
L 34.36179 64.350164 
L 35.682089 60.750421 
L 37.492738 57.565603 
L 39.735142 54.892316 
L 42.333442 52.79745 
L 45.201233 51.31418 
L 48.248711 50.442175 
L 51.38918 50.151562 
L 54.544151 50.389471 
L 57.646668 51.087796 
L 60.642881 52.170835 
L 63.492156 53.561869 
L 66.166136 55.188155 
L 68.647189 56.984222 
L 70.926575 58.893624 
L 73.002613 60.869472 
L 74.878987 62.874103 
L 76.563275 64.878216 
L 78.065734 66.859741 
L 80.573915 70.695741 
L 82.507003 74.306223 
L 83.96808 77.663842 
L 85.050949 80.768508 
L 85.8362 83.634005 
L 86.597527 87.527751 
L 87.003873 91.000289 
L 87.167077 94.118586 
L 87.119605 97.82278 
L 86.833734 101.106799 
L 86.314308 104.054992 
L 85.742483 106.086631 
L 84.969278 107.991004 
L 83.93225 109.787791 
L 83.052217 110.933073 
L 81.982856 112.038623 
L 80.682854 113.102812 
L 79.102012 114.118597 
L 77.180002 115.070244 
L 74.845512 115.928223 
L 72.016458 116.641445 
L 68.602503 117.125756 
L 66.647295 117.24283 
L 64.512139 117.247648 
L 62.187924 117.112291 
L 59.668101 116.802885 
L 56.950046 116.278869 
L 54.036813 115.492457 
L 50.939328 114.388501 
L 47.679025 112.905024 
L 44.290864 110.974826 
L 40.826521 108.528624 
L 37.35739 105.500246 
L 33.976758 101.834291 
L 30.800283 97.496394 
L 27.963681 92.485622 
L 25.61654 86.847598 
L 23.911566 80.685798 
L 22.989465 74.167472 
L 22.96108 67.520396 
L 23.889917 61.017811 
L 25.779188 54.951736 
L 28.567184 49.598572 
L 32.132991 45.184265 
L 36.311612 41.857252 
L 40.914911 39.675416 
L 45.753389 38.608969 
L 50.654331 38.556538 
L 55.473705 39.368801 
L 60.101348 40.873417 
L 64.460648 42.896456 
L 68.504646 45.277807 
L 72.210449 47.880142 
L 75.573378 50.592422 
L 78.601699 53.329473 
L 81.312301 56.029234 
L 83.727386 58.648917 
L 87.772594 63.549298 
L 90.945947 67.929645 
L 93.44697 71.785967 
L 96.318344 76.672381 
L 99.887966 82.805087 
L 101.188121 84.65788 
L 102.529166 86.197752 
L 103.969604 87.429904 
L 105.558737 88.348847 
L 107.338112 88.938555 
L 109.341704 89.172778 
L 111.594553 89.015857 
L 114.109531 88.424628 
L 116.881942 87.35228 
L 119.881808 85.755354 
L 123.044202 83.605157 
L 126.259004 80.904466 
L 127.837229 79.36236 
L 129.363039 77.708855 
L 130.807653 75.962803 
L 132.139627 74.148797 
L 133.325697 72.297253 
L 134.331968 70.444059 
L 135.125422 68.6297 
L 135.675696 66.897798 
L 135.957007 65.29308 
L 135.950074 63.858888 
L 135.643813 62.634428 
L 135.036609 61.652061 
L 134.136965 60.93496 
L 132.963395 60.495471 
L 131.543539 60.334425 
L 129.912578 60.441497 
L 128.111111 60.79657 
L 126.182758 61.37188 
L 124.171743 62.134626 
L 120.06892 64.082135 
L 116.096213 66.371902 
L 112.4646 68.790426 
L 109.298459 71.197042 
L 106.649896 73.516192 
L 104.519921 75.717688 
L 102.878728 77.796538 
L 101.681668 79.757829 
L 100.880348 81.60756 
L 100.429591 83.348152 
L 100.291351 84.976881 
L 100.436559 86.485749 
L 100.845685 87.861839 
L 101.508511 89.087589 
L 102.423446 90.140745 
L 103.596507 90.993915 
L 105.039983 91.613777 
L 106.770612 91.960079 
L 108.807008 91.984676 
L 111.1659 91.631061 
L 113.856629 90.835106 
L 116.873274 89.528161 
L 120.183922 87.644162 
L 123.717117 85.132742 
L 125.530311 83.635266 
L 127.346837 81.980089 
L 129.140285 80.175898 
L 130.879643 78.237485 
L 132.52954 76.186679 
L 134.050851 74.05301 
L 135.401768 71.873962 
L 136.539362 69.694595 
L 137.421641 67.566399 
L 138.010016 65.545254 
L 138.272015 63.688535 
L 138.18398 62.051486 
L 137.733432 60.683235 
L 136.92077 59.6229 
L 135.759995 58.896345 
L 134.278304 58.514105 
L 132.514509 58.470833 
L 130.516487 58.746375 
L 128.337961 59.308294 
L 126.035025 60.115405 
L 123.66285 61.12177 
L 118.910769 63.547398 
L 114.41673 66.253014 
L 110.39876 68.999722 
L 106.965283 71.651263 
L 104.141744 74.151417 
L 101.900638 76.49249 
L 100.186561 78.68884 
L 98.933976 80.759832 
L 98.078383 82.721149 
L 97.562619 84.581681 
L 97.339879 86.343378 
L 97.374751 88.002284 
L 97.643127 89.549703 
L 98.131568 90.973024 
L 98.836463 92.256006 
L 99.763156 93.378512 
L 100.925074 94.315713 
L 102.342819 95.036829 
L 104.043023 95.503492 
L 106.056676 95.667851 
L 108.416463 95.470711 
L 111.152413 94.840237 
L 114.284981 93.692246 
L 117.814458 91.933822 
L 119.718974 90.796462 
L 121.70576 89.472939 
L 123.761608 87.955024 
L 125.868399 86.237632 
L 128.002385 84.320157 
L 130.13358 82.208015 
L 132.225371 79.914299 
L 134.234483 77.461425 
L 136.111447 74.882559 
L 137.801736 72.222541 
L 139.247677 69.537976 
L 140.391209 66.89616 
L 141.17743 64.372553 
L 141.558709 62.046713 
L 141.498976 59.996829 
L 140.977663 58.293367 
L 139.992664 56.992623 
L 138.561763 56.131211 
L 136.722145 55.722474 
L 134.527941 55.755547 
L 132.046096 56.19728 
L 129.351177 56.996678 
L 126.519877 58.090992 
L 123.625966 59.412378 
L 120.736252 60.894067 
L 115.186861 64.10429 
L 110.195668 67.352961 
L 105.92181 70.435801 
L 102.399724 73.279517 
L 99.586299 75.8887 
L 97.399329 78.301089 
L 95.743481 80.559777 
L 94.525648 82.700082 
L 93.662863 84.745757 
L 93.085568 86.709883 
L 92.738215 88.597466 
L 92.578473 90.408133 
L 92.626755 92.971548 
L 92.96994 95.334565 
L 93.589315 97.47362 
L 94.162573 98.761375 
L 94.87824 99.926447 
L 95.755403 100.955513 
L 96.819499 101.831243 
L 98.102606 102.530668 
L 99.643766 103.023084 
L 101.489119 103.267385 
L 103.691479 103.208788 
L 106.308777 102.775004 
L 109.40041 101.872279 
L 113.01999 100.382362 
L 115.039908 99.373487 
L 117.202408 98.162756 
L 119.50544 96.729844 
L 121.942541 95.054636 
L 124.501562 93.118435 
L 127.163231 90.905633 
L 129.899621 88.405914 
L 132.672644 85.617026 
L 135.432747 82.548053 
L 138.118094 79.223022 
L 140.65456 75.684465 
L 142.956954 71.996371 
L 144.931868 68.245719 
L 146.482436 64.541645 
L 147.515054 61.011365 
L 147.947704 57.792259 
L 147.719018 55.020313 
L 146.796725 52.816016 
L 145.183845 51.269955 
L 142.921092 50.430947 
L 140.084589 50.299517 
L 136.778963 50.828467 
L 133.127011 51.93056 
L 129.257876 53.491525 
L 125.295854 55.385385 
L 121.351573 57.488942 
L 113.86011 61.909123 
L 107.259934 66.13925 
L 101.732754 69.905474 
L 97.262601 73.1724 
L 93.729591 76.020972 
L 90.974299 78.562621 
L 88.834061 80.895931 
L 87.160295 83.092319 
L 85.824891 85.196518 
L 84.227441 88.228546 
L 80.584288 95.660606 
L 79.52029 97.344138 
L 78.306584 98.940444 
L 76.900922 100.436027 
L 75.259512 101.811918 
L 73.336341 103.040639 
L 71.083547 104.082059 
L 68.453389 104.877948 
L 66.982939 105.159027 
L 65.402708 105.345199 
L 63.709368 105.420924 
L 61.901194 105.368162 
L 59.978652 105.16621 
L 57.945106 104.791646 
L 55.807656 104.218429 
L 53.578095 103.418253 
L 51.273944 102.361234 
L 48.919528 101.017056 
L 46.546969 99.356672 
L 44.196963 97.354661 
L 41.919136 94.992278 
L 39.771742 92.261121 
L 37.820427 89.167203 
L 36.13585 85.735003 
L 34.790025 82.010862 
L 33.851454 78.064917 
L 33.379393 73.990715 
L 33.417904 69.901857 
L 33.990555 65.92543 
L 35.096755 62.192646 
L 36.710505 58.827857 
L 38.781979 55.937607 
L 41.241757 53.601579 
L 44.007025 51.866936 
L 46.988659 50.74682 
L 50.098103 50.222869 
L 53.253097 50.250853 
L 56.381748 50.768093 
L 59.424791 51.701262 
L 62.336261 52.973483 
L 65.082935 54.509996 
L 67.642985 56.242138 
L 70.004232 58.109695 
L 72.162291 60.061898 
L 74.118807 62.057405 
L 75.879897 64.063622 
L 77.454821 66.055657 
L 80.092744 69.929019 
L 82.1342 73.588105 
L 83.683133 76.997549 
L 84.835581 80.1529 
L 85.674901 83.065813 
L 86.270298 85.755275 
L 86.823885 89.417344 
L 87.08706 92.695059 
L 87.13083 96.573169 
L 86.915752 99.996411 
L 86.467994 103.056997 
L 85.960889 105.158629 
L 85.269902 107.122677 
L 84.341094 108.970611 
L 83.552793 110.146511 
L 82.595258 111.281348 
L 81.431756 112.375582 
L 80.017437 113.425539 
L 78.298045 114.420885 
L 76.208804 115.340665 
L 73.673936 116.147186 
L 70.607677 116.776821 
L 66.918428 117.126617 
L 64.81226 117.149218 
L 62.518855 117.03587 
L 60.031321 116.753684 
L 57.346469 116.263217 
L 54.466507 115.517911 
L 51.401155 114.463888 
L 48.17021 113.040377 
L 44.806489 111.181144 
L 41.358994 108.817379 
L 37.895936 105.882548 
L 34.507049 102.319643 
L 31.304347 98.091018 
L 28.420275 93.190447 
L 26.002157 87.656153 
L 24.202174 81.582441 
L 23.162926 75.126543 
L 22.999949 68.506881 
L 23.784108 61.989875 
L 25.527841 55.865004 
L 28.179199 50.411445 
L 31.625979 45.863095 
L 35.709508 42.380157 
L 40.244834 40.033906 
L 45.042501 38.807238 
L 49.927308 38.608943 
L 54.751134 39.296389 
L 59.399073 40.700395 
L 63.789855 42.647226 
L 67.872417 44.974871 
L 71.620529 47.542903 
L 75.026964 50.236717 
L 78.098145 52.967633 
L 80.849704 55.670446 
L 83.303035 58.29973 
L 87.414925 63.231044 
L 90.641062 67.649287 
L 93.181503 71.54467 
L 96.089939 76.48696 
L 99.67532 82.703843 
L 100.969576 84.588806 
L 102.299317 86.161217 
L 103.723883 87.427174 
L 105.293355 88.382097 
L 107.050126 89.010848 
L 109.029222 89.287971 
L 111.257128 89.178379 
L 113.748763 88.639048 
L 116.502305 87.622544 
L 119.491661 86.083567 
L 122.656861 83.989812 
L 125.89356 81.338171 
L 127.491748 79.815305 
L 129.044419 78.175906 
L 130.52329 76.437523 
L 131.8972 74.623449 
L 133.132875 72.762909 
L 134.196042 70.890833 
L 135.052881 69.047115 
L 135.67177 67.275281 
L 136.025219 65.620573 
L 136.091847 64.127509 
L 135.858184 62.837127 
L 135.320102 61.784178 
L 134.483645 60.994613 
L 133.365119 60.483707 
L 131.990386 60.255099 
L 130.39341 60.300904 
L 128.6142 60.602865 
L 126.696422 61.134384 
L 124.684907 61.863103 
L 122.623361 62.753688 
L 118.508308 64.87953 
L 114.617992 67.257544 
L 111.130692 69.699792 
L 108.140964 72.091866 
L 105.678226 74.378393 
L 103.728613 76.541637 
L 102.254073 78.582611 
L 101.206579 80.508145 
L 100.53758 82.323676 
L 100.203681 84.030094 
L 100.169651 85.622917 
L 100.409687 87.092476 
L 100.90761 88.424312 
L 101.656428 89.599378 
L 102.657522 90.593844 
L 103.919535 91.378514 
L 105.45691 91.917918 
L 107.28789 92.169243 
L 109.431637 92.081429 
L 111.903998 91.594913 
L 114.711313 90.64291 
L 117.841624 89.155509 
L 121.252889 87.068434 
L 123.038986 85.785116 
L 124.858515 84.338529 
L 126.691176 82.730473 
L 128.512136 80.967466 
L 130.291872 79.061811 
L 131.996275 77.032611 
L 133.587103 74.906583 
L 135.022873 72.718512 
L 136.260251 70.511155 
L 137.255948 68.334399 
L 137.969094 66.243558 
L 138.363932 64.296736 
L 138.412623 62.551393 
L 138.097834 61.06035 
L 137.414784 59.867704 
L 136.372399 59.005179 
L 134.993344 58.489491 
L 133.312862 58.32116 
L 131.376501 58.484993 
L 129.237027 58.952156 
L 126.950926 59.683477 
L 124.57491 60.633441 
L 122.162844 61.754269 
L 117.418161 64.327022 
L 113.019415 67.090535 
L 109.149021 69.837299 
L 105.88546 72.459494 
L 103.233093 74.920494 
L 101.151716 77.223229 
L 99.579685 79.386151 
L 98.449567 81.428946 
L 97.697623 83.36593 
L 97.268883 85.204189 
L 97.119391 86.944038 
L 97.21676 88.580244 
L 97.539831 90.103183 
L 98.077917 91.499537 
L 98.82993 92.752447 
L 99.803515 93.841094 
L 101.014207 94.739786 
L 102.484536 95.416573 
L 104.242857 95.831508 
L 106.3216 95.934669 
L 108.754408 95.664267 
L 111.571442 94.94543 
L 114.791896 93.690793 
L 118.412584 91.804817 
L 120.361993 90.595486 
L 122.391636 89.194743 
L 124.486749 87.594922 
L 126.627325 85.791932 
L 128.787391 83.786709 
L 130.934435 81.586843 
L 133.029095 79.208306 
L 135.02525 76.677113 
L 136.870693 74.030674 
L 138.508524 71.318533 
L 139.879386 68.602132 
L 140.924572 65.953265 
L 141.589891 63.450977 
L 141.830019 61.176865 
L 141.612879 59.209067 
L 140.923442 57.615552 
L 139.766321 56.447652 
L 138.166606 55.734928 
L 136.168662 55.48232 
L 133.832943 55.670211 
L 131.231262 56.257396 
L 128.441227 57.186401 
L 125.540652 58.390141 
L 122.602672 59.798743 
L 116.862949 62.971387 
L 111.608103 66.276436 
L 107.048281 69.455094 
L 103.251316 72.398199 
L 100.19162 75.093219 
L 97.793289 77.573624 
L 95.960518 79.884891 
L 94.596169 82.067049 
L 93.611722 84.148567 
L 92.9317 86.146317 
L 92.494862 88.068014 
L 92.253651 89.915107 
L 92.184582 92.540112 
L 92.403803 94.975859 
L 92.879647 97.202369 
L 93.61587 99.19638 
L 94.267256 100.382437 
L 95.066797 101.440954 
L 96.038138 102.357106 
L 97.211316 103.111152 
L 98.623214 103.67655 
L 100.317931 104.017525 
L 102.346822 104.085997 
L 104.767711 103.81784 
L 107.642532 103.128658 
L 111.032133 101.909754 
L 114.986371 100.025925 
L 117.18377 98.785707 
L 119.526914 97.318454 
L 122.009613 95.602955 
L 124.61982 93.619337 
L 127.338112 91.3508 
L 130.136061 88.785927 
L 132.974614 85.921602 
L 135.80268 82.766488 
L 138.556198 79.344886 
L 141.158082 75.700578 
L 143.519453 71.900043 
L 145.542615 68.034178 
L 147.126093 64.217487 
L 148.171788 60.583746 
L 148.59389 57.277525 
L 148.328572 54.441721 
L 147.343027 52.202358 
L 145.642009 50.653098 
L 143.27024 49.842627 
L 140.3097 49.76795 
L 136.871961 50.375483 
L 133.08691 51.569821 
L 129.09002 53.228105 
L 125.010527 55.216629 
L 120.962281 57.406222 
L 113.30815 61.959363 
L 106.601586 66.266715 
L 101.010913 70.065491 
L 96.504959 73.336509 
L 92.951115 76.174254 
L 90.180642 78.698912 
L 88.024466 81.01372 
L 86.329666 83.192021 
L 84.96512 85.278904 
L 83.304017 88.285267 
L 80.3967 93.892714 
L 78.755776 96.45531 
L 77.483791 98.050311 
L 76.018188 99.53623 
L 74.314688 100.890788 
L 72.328015 102.082535 
L 70.012616 103.066638 
L 67.325183 103.779496 
L 65.83025 104.007642 
L 64.229898 104.132355 
L 62.522328 104.137512 
L 60.707645 104.004651 
L 58.788464 103.712916 
L 56.770631 103.23912 
L 54.664033 102.558022 
L 52.483503 101.642866 
L 50.249749 100.466293 
L 47.990249 99.001713 
L 45.739982 97.225211 
L 43.541857 95.118044 
L 41.446621 92.669677 
L 39.512057 89.881244 
L 37.801238 86.769103 
L 36.37973 83.368038 
L 35.311705 79.733457 
L 34.655192 75.9419 
L 34.456891 72.089201 
L 34.747206 68.285954 
L 35.536322 64.650394 
L 36.812048 61.299386 
L 38.539962 58.338724 
L 40.665943 55.854288 
L 43.120741 53.905463 
L 45.82582 52.521834 
L 48.699559 51.703428 
L 51.662914 51.424116 
L 54.643901 51.637227 
L 57.580594 52.282204 
L 60.422615 53.291238 
L 63.13137 54.595044 
L 65.679342 56.127335 
L 68.048809 57.827857 
L 70.230286 59.644098 
L 72.220922 61.531917 
L 74.022986 63.455391 
L 75.642535 65.386156 
L 77.088294 67.302483 
L 79.501317 71.031931 
L 81.354705 74.564547 
L 82.74234 77.86819 
L 83.750359 80.938087 
L 84.4529 83.784079 
L 84.910737 86.42293 
L 85.171554 88.873932 
L 85.268523 92.24042 
L 85.077432 95.288006 
L 84.632404 98.068199 
L 83.932064 100.622935 
L 83.308501 102.217174 
L 82.540577 103.73272 
L 81.60509 105.174017 
L 80.472227 106.5422 
L 79.104951 107.833763 
L 77.458363 109.038431 
L 75.479268 110.135864 
L 73.106362 111.09072 
L 70.271781 111.84546 
L 66.905278 112.310299 
L 65.00199 112.393944 
L 62.943086 112.350028 
L 60.724326 112.15201 
L 58.344576 111.768613 
L 55.80704 111.16354 
L 53.12078 110.295475 
L 50.302497 109.118531 
L 47.378541 107.583383 
L 44.387018 105.639353 
L 41.379779 103.237727 
L 38.423935 100.336559 
L 35.602409 96.907049 
L 33.01291 92.941282 
L 30.764697 88.46069 
L 28.972629 83.523951 
L 27.748406 78.232505 
L 27.189555 72.731523 
L 27.367534 67.204393 
L 28.317074 61.859885 
L 30.029161 56.912884 
L 32.449587 52.561644 
L 35.483854 48.965966 
L 39.007584 46.230866 
L 42.880235 44.398971 
L 46.9593 43.452501 
L 51.112423 43.32326 
L 55.225866 43.907484 
L 59.208883 45.081966 
L 62.994526 46.718568 
L 66.537889 48.69537 
L 69.812897 50.903907 
L 72.808562 53.252825 
L 75.525327 55.668737 
L 77.97185 58.095202 
L 80.16237 60.490641 
L 82.114648 62.825819 
L 85.38424 67.245252 
L 87.944042 71.27707 
L 89.950877 74.911337 
L 92.225348 79.666586 
L 96.40221 89.001492 
L 97.412138 90.700839 
L 98.515696 92.167463 
L 99.757255 93.398166 
L 101.179473 94.380901 
L 102.824631 95.093766 
L 104.735136 95.5037 
L 106.952881 95.565031 
L 109.516985 95.218192 
L 112.459185 94.389343 
L 115.795944 92.992182 
L 117.610348 92.051496 
L 119.516232 90.934146 
L 121.505087 89.629822 
L 123.56426 88.130125 
L 125.676208 86.429671 
L 127.817767 84.527415 
L 129.959527 82.428192 
L 132.065414 80.144386 
L 134.092611 77.697602 
L 135.991976 75.120144 
L 137.709111 72.456015 
L 139.186214 69.761111 
L 140.36478 67.102264 
L 141.189107 64.554845 
L 141.610411 62.198804 
L 141.591157 60.113268 
L 141.109098 58.370176 
L 140.160377 57.027737 
L 138.761129 56.124734 
L 136.947164 55.676696 
L 134.771653 55.674695 
L 132.301088 56.087058 
L 129.610099 56.863656 
L 126.775896 57.941966 
L 123.87312 59.2538 
L 120.969665 60.731601 
L 115.382812 63.946742 
L 110.34786 67.209902 
L 106.030222 70.309835 
L 102.467976 73.169264 
L 99.619554 75.791291 
L 97.402942 78.213682 
L 95.722254 80.480216 
L 94.483488 82.627045 
L 93.602674 84.678653 
L 93.009267 86.648679 
L 92.646795 88.542527 
L 92.472081 90.360111 
L 92.496486 92.935615 
L 92.811904 95.313458 
L 93.397144 97.471084 
L 93.942798 98.774031 
L 94.625951 99.957281 
L 95.4647 101.008385 
L 96.483377 101.911179 
L 97.712857 102.644241 
L 99.190931 103.178898 
L 100.962532 103.476682 
L 103.079532 103.486168 
L 105.599554 103.139196 
L 108.582947 102.346803 
L 112.086558 100.995715 
L 114.047587 100.068274 
L 116.152305 98.947397 
L 118.400471 97.612694 
L 120.78795 96.043523 
L 123.305505 94.220008 
L 125.937408 92.124493 
L 128.65992 89.743518 
L 131.43972 87.070351 
L 134.232447 84.108099 
L 136.981577 80.873245 
L 139.617967 77.399377 
L 142.060438 73.74059 
L 144.217825 69.973871 
L 145.992874 66.199534 
L 147.288151 62.538741 
L 148.013837 59.127318 
L 148.096758 56.105624 
L 147.489502 53.605139 
L 146.178023 51.733556 
L 144.186053 50.561064 
L 141.575025 50.110857 
L 138.439095 50.356287 
L 134.895969 51.225539 
L 131.07524 52.612809 
L 127.106422 54.393332 
L 123.108699 56.438953 
L 119.183706 58.631298 
L 111.851213 63.080882 
L 105.498613 67.222365 
L 100.241147 70.86097 
L 96.02309 74.007459 
L 92.705702 76.760861 
L 90.123626 79.234181 
L 88.115081 81.520542 
L 86.535402 83.684362 
L 85.261309 85.764294 
L 83.704381 88.766126 
L 80.953958 94.37159 
L 79.388845 96.939926 
L 78.171395 98.544573 
L 76.764907 100.047394 
L 75.125546 101.429004 
L 73.207625 102.661596 
L 70.963963 103.704863 
L 68.347864 104.50067 
L 66.886713 104.781129 
L 65.317557 104.966453 
L 63.637281 105.041287 
L 61.844383 104.987849 
L 59.939541 104.785778 
L 57.926314 104.412095 
L 55.811952 103.841321 
L 53.608323 103.045837 
L 51.332918 101.99658 
L 49.009878 100.664173 
L 46.670938 99.020605 
L 44.356156 97.041528 
L 42.114228 94.709218 
L 40.002151 92.016119 
L 38.084001 88.96875 
L 36.428603 85.591578 
L 35.105977 81.930238 
L 34.182641 78.053331 
L 33.716104 74.052012 
L 33.749149 70.036721 
L 34.304757 66.130873 
L 35.382581 62.461887 
L 36.957724 59.150661 
L 38.982217 56.301074 
L 41.38903 53.99126 
L 44.097971 52.268097 
L 47.022484 51.145635 
L 50.076266 50.607378 
L 53.178839 50.611571 
L 56.259548 51.098255 
L 59.259841 51.996751 
L 62.13401 53.232525 
L 64.848735 54.732723 
L 67.381841 56.430109 
L 69.720643 58.265443 
L 71.860172 60.188536 
L 73.801465 62.158311 
L 75.55004 64.142208 
L 77.114596 66.115214 
L 79.736211 69.959445 
L 81.764429 73.599409 
L 83.300452 76.997509 
L 84.438186 80.147423 
L 85.259297 83.059378 
L 85.831579 85.751337 
L 86.338503 89.422179 
L 86.536733 92.713592 
L 86.508082 95.687092 
L 86.295567 98.394577 
L 85.912293 100.878946 
L 85.346979 103.175532 
L 84.56622 105.313308 
L 83.513763 107.315107 
L 82.621673 108.581955 
L 81.54073 109.796921 
L 80.231556 110.957942 
L 78.646409 112.057242 
L 76.728199 113.078138 
L 74.409964 113.990142 
L 71.615449 114.741595 
L 68.262017 115.248961 
L 66.349803 115.372728 
L 64.267987 115.381988 
L 62.008982 115.250048 
L 59.567816 114.944801 
L 56.943398 114.428151 
L 54.140138 113.65564 
L 51.169929 112.57647 
L 48.054502 111.134161 
L 44.828063 109.268189 
L 41.540026 106.916993 
L 38.257496 104.022756 
L 35.066961 100.538281 
L 32.074441 96.435996 
L 29.403194 91.718629 
L 27.188118 86.430305 
L 25.566323 80.665937 
L 24.66411 74.575975 
L 24.581704 68.36349 
L 25.378297 62.271468 
L 27.060755 56.560423 
L 29.579126 51.47944 
L 32.830682 47.23636 
L 36.672004 43.973833 
L 40.936358 41.756518 
L 45.452429 40.571508 
L 50.060612 40.340284 
L 54.624415 40.937909 
L 59.036255 42.214338 
L 63.21834 44.013613 
L 67.120123 46.188434 
L 70.71389 48.609342 
L 73.989788 51.169053 
L 76.951104 53.783109 
L 79.61025 56.38814 
L 81.985566 58.938885 
L 84.098912 61.404777 
L 87.634734 66.013823 
L 90.40849 70.14986 
L 92.599106 73.817977 
L 95.129888 78.520144 
L 98.337126 84.552367 
L 99.531883 86.421376 
L 100.779703 88.004516 
L 102.135675 89.305016 
L 103.648229 90.316007 
L 105.360716 91.02015 
L 107.3119 91.389235 
L 109.535033 91.383995 
L 112.055133 90.954604 
L 114.883956 90.042709 
L 118.012157 88.586256 
L 121.398386 86.528854 
L 123.163303 85.262467 
L 124.955833 83.835627 
L 126.755721 82.251202 
L 128.538303 80.516731 
L 130.27441 78.645433 
L 131.930532 76.657141 
L 133.469326 74.579017 
L 134.850545 72.445905 
L 136.032438 70.300125 
L 136.973632 68.190558 
L 137.63543 66.170899 
L 137.984393 64.297064 
L 137.994976 62.623855 
L 137.651931 61.201174 
L 136.952146 60.0702 
L 135.905619 59.260049 
L 134.535379 58.785421 
L 132.87627 58.645637 
L 130.972734 58.825229 
L 128.875853 59.295993 
L 126.640029 60.020151 
L 124.319715 60.954122 
L 121.966534 62.052328 
L 117.341264 64.568655 
L 113.054279 67.272679 
L 109.281255 69.965799 
L 106.098763 72.543449 
L 103.512385 74.968515 
L 101.484726 77.241697 
L 99.957477 79.378837 
L 98.866493 81.397297 
L 98.151001 83.309554 
L 97.758611 85.121274 
L 97.647575 86.831625 
L 97.787407 88.434326 
L 98.158604 89.918653 
L 98.75195 91.270013 
L 99.567658 92.46998 
L 100.614486 93.495799 
L 101.908817 94.319385 
L 103.473578 94.905914 
L 105.33678 95.212095 
L 107.529281 95.184362 
L 110.081204 94.757376 
L 113.01624 93.853647 
L 116.342834 92.385626 
L 118.148358 91.411423 
L 120.041288 90.262492 
L 122.011878 88.929344 
L 124.046202 87.404696 
L 126.125436 85.684579 
L 128.225192 83.769666 
L 130.314978 81.666769 
L 132.357893 79.390424 
L 134.310689 76.964436 
L 136.124346 74.423145 
L 137.745299 71.812171 
L 139.117431 69.188297 
L 140.184862 66.618191 
L 140.895441 64.17573 
L 141.204738 61.937875 
L 141.080111 59.979287 
L 140.504344 58.366223 
L 139.478262 57.150491 
L 138.021832 56.364442 
L 136.173415 56.017897 
L 133.987192 56.097638 
L 131.529056 56.569566 
L 128.871602 57.383149 
L 126.088907 58.477314 
L 123.251807 59.786748 
L 120.424171 61.247638 
L 115.004347 64.401414 
L 110.137071 67.589503 
L 105.972652 70.619004 
L 102.542779 73.420501 
L 99.805378 75.997805 
L 97.681136 78.385905 
L 96.078257 80.624854 
L 94.907165 82.747393 
L 94.088152 84.77534 
L 93.554581 86.720395 
L 93.253522 88.586545 
L 93.145049 90.372571 
L 93.200953 92.074043 
L 93.403328 93.684611 
L 93.743275 95.196652 
L 94.219865 96.601392 
L 94.839395 97.888586 
L 95.614956 99.04585 
L 96.566263 100.057646 
L 97.719698 100.90392 
L 99.108458 101.558321 
L 100.772643 101.98595 
L 102.75901 102.140547 
L 105.11995 101.961171 
L 107.910961 101.368564 
L 111.1855 100.261901 
L 114.985547 98.517452 
L 117.088874 97.361844 
L 119.325699 95.992211 
L 121.689513 94.389907 
L 124.168442 92.537715 
L 126.743936 90.4214 
L 129.389369 88.031738 
L 132.068679 85.367043 
L 134.735203 82.436143 
L 137.330946 79.261634 
L 139.786596 75.883088 
L 142.022647 72.359709 
L 143.951954 68.771729 
L 145.484012 65.21973 
L 146.530974 61.821091 
L 147.015128 58.703076 
L 146.877094 55.992637 
L 146.083565 53.803881 
L 144.633186 52.225047 
L 142.55918 51.307454 
L 139.927857 51.058911 
L 136.832954 51.443248 
L 133.386701 52.386235 
L 129.709248 53.786554 
L 125.918317 55.52934 
L 122.120683 57.499498 
L 114.846134 61.721545 
L 108.372986 65.843915 
L 102.908107 69.570399 
L 98.461272 72.838222 
L 94.933013 75.706982 
L 92.178197 78.275077 
L 90.043546 80.63466 
L 88.386509 82.854842 
L 87.082936 84.980252 
L 85.567554 88.041347 
L 81.528746 97.297109 
L 80.54398 98.949392 
L 79.407896 100.521784 
L 78.080724 102.004477 
L 76.519665 103.382836 
L 74.678061 104.634517 
L 72.505375 105.725456 
L 69.948479 106.604416 
L 66.955137 107.19583 
L 65.280335 107.351302 
L 63.480984 107.391018 
L 61.554797 107.294656 
L 59.501928 107.038715 
L 57.32582 106.596414 
L 55.034206 105.937782 
L 52.640263 105.030049 
L 50.163887 103.838451 
L 47.632993 102.327607 
L 45.084753 100.463611 
L 42.566529 98.216953 
L 40.136284 95.566331 
L 37.862124 92.503245 
L 35.820636 89.037071 
L 34.093733 85.200029 
L 32.763879 81.051165 
L 31.907833 76.678244 
L 31.589448 72.196472 
L 31.852471 67.743259 
L 32.714535 63.468931 
L 34.16361 59.524252 
L 36.157782 56.046544 
L 38.628645 53.146797 
L 41.487748 50.900086 
L 44.634949 49.34092 
L 47.967173 48.463971 
L 51.386204 48.229457 
L 54.804575 48.571618 
L 58.149166 49.408406 
L 61.36263 50.650761 
L 64.403086 52.210299 
L 67.242655 54.004901 
L 69.865369 55.962147 
L 72.264886 58.020906 
L 74.442293 60.131516 
L 76.404152 62.255041 
L 78.160863 64.362 
L 81.111989 68.446657 
L 83.412306 72.283121 
L 85.181637 75.83338 
L 86.531089 79.095093 
L 87.557713 82.083605 
L 88.666533 86.104285 
L 89.656063 90.727647 
L 91.112316 98.013149 
L 91.735499 100.197436 
L 92.503441 102.113012 
L 93.129612 103.240594 
L 93.874314 104.243562 
L 94.764983 105.112971 
L 95.833936 105.834644 
L 97.119457 106.387674 
L 98.666806 106.742323 
L 100.529014 106.857184 
L 102.76711 106.675461 
L 105.449206 106.12036 
L 108.647392 105.089859 
L 112.43075 103.451885 
L 114.559507 102.354986 
L 116.851885 101.042317 
L 119.308047 99.489288 
L 121.923464 97.670857 
L 124.687376 95.56282 
L 127.581013 93.143685 
L 130.575623 90.397251 
L 133.630442 87.315972 
L 136.690812 83.905085 
L 139.686793 80.187344 
L 142.53271 76.207924 
L 145.12821 72.038779 
L 147.361411 67.78135 
L 149.114632 63.566277 
L 150.27288 59.548727 
L 150.734706 55.89837 
L 150.424281 52.784028 
L 149.302774 50.354554 
L 147.376644 48.719121 
L 144.7006 47.931225 
L 141.373906 47.980554 
L 137.530318 48.795175 
L 133.323551 50.253723 
L 128.911297 52.204499 
L 124.44086 54.486756 
L 120.038675 56.949557 
L 111.810529 61.935621 
L 101.623842 68.540969 
L 94.181609 73.697447 
L 90.516455 76.495004 
L 87.660357 78.953826 
L 85.423634 81.193068 
L 83.639097 83.293047 
L 81.508185 86.276991 
L 77.340738 92.634733 
L 76.032445 94.26184 
L 74.571104 95.773204 
L 72.910507 97.142923 
L 71.007763 98.337072 
L 68.823672 99.310509 
L 66.324872 100.002922 
L 64.949686 100.219682 
L 63.48839 100.334512 
L 61.940999 100.333768 
L 60.309346 100.202224 
L 58.597549 99.923125 
L 56.81253 99.478365 
L 54.964591 98.848821 
L 53.068009 98.014904 
L 51.141623 96.957367 
L 49.209336 95.658423 
L 47.300465 94.103206 
L 45.449832 92.281561 
L 43.697473 90.190117 
L 42.087848 87.834519 
L 40.668458 85.23161 
L 39.487804 82.411254 
L 38.592727 79.41745 
L 38.025281 76.308338 
L 37.819393 73.154783 
L 37.997714 70.037363 
L 38.569091 67.041868 
L 39.527084 64.253668 
L 40.849822 61.751633 
L 42.501297 59.602406 
L 44.433942 57.855844 
L 46.592133 56.542247 
L 48.916115 55.671649 
L 51.345852 55.235112 
L 53.824356 55.20759 
L 56.300229 55.551803 
L 58.729298 56.222462 
L 61.075399 57.17031 
L 63.310439 58.345582 
L 65.413922 59.700681 
L 67.372147 61.192018 
L 69.177215 62.781089 
L 70.826004 64.434913 
L 72.319175 66.126012 
L 73.660267 67.832063 
L 75.910187 71.222244 
L 77.634872 74.508297 
L 78.901402 77.638176 
L 79.774909 80.589067 
L 80.312955 83.355786 
L 80.562778 85.94297 
L 80.56032 88.360023 
L 80.33028 90.617921 
L 79.88667 92.727118 
L 79.233562 94.69608 
L 78.36584 96.530046 
L 77.269883 98.229752 
L 75.924225 99.789859 
L 74.300322 101.196817 
L 72.36369 102.425945 
L 70.075857 103.43743 
L 67.397811 104.171122 
L 65.901511 104.407887 
L 64.295952 104.540174 
L 62.579381 104.551838 
L 60.751903 104.424277 
L 58.816098 104.136356 
L 56.777774 103.664471 
L 54.64681 102.982799 
L 52.438103 102.063843 
L 50.172544 100.87934 
L 47.877966 99.40166 
L 45.589938 97.605754 
L 43.35224 95.471728 
L 41.216824 92.987997 
L 39.243024 90.154898 
L 37.495789 86.988434 
L 36.042805 83.523671 
L 34.95047 79.81711 
L 34.27894 75.947298 
L 34.076696 72.012978 
L 34.375329 68.128388 
L 35.18541 64.415818 
L 36.494227 60.996149 
L 38.265944 57.978673 
L 40.444298 55.451808 
L 42.957418 53.476242 
L 45.723986 52.081543 
L 48.659731 51.266536 
L 51.683326 51.002982 
L 54.721014 51.241558 
L 57.709651 51.918878 
L 60.598174 52.96443 
L 63.347751 54.306565 
L 65.930975 55.877082 
L 68.330482 57.614298 
L 70.5373 59.464721 
L 72.549169 61.383623 
L 74.36898 63.334797 
L 76.003403 65.28983 
L 76.003403 65.28983 
" clip-path="url(#pdd5380207e)" style="fill: none; stroke: #ff7f0e; stroke-opacity: 0.5; stroke-width: 1.5; stroke-linecap: round"/>
   </g>
  </g>
 </g>
 <defs>
  <clipPath id="pdd5380207e">
   <rect x="-1.8" y="-7.2" width="176.4" height="176.4"/>
  </clipPath>
 </defs>
</svg>
