<?xml version="1.0" encoding="utf-8" standalone="no"?>
<!DOCTYPE svg PUBLIC "-//W3C//DTD SVG 1.1//EN"
  "http://www.w3.org/Graphics/SVG/1.1/DTD/svg11.dtd">
<svg xmlns:xlink="http://www.w3.org/1999/xlink" width="216pt" height="180pt" viewBox="0 0 216 180" xmlns="http://www.w3.org/2000/svg" version="1.1">
 <metadata>
  <rdf:RDF xmlns:dc="http://purl.org/dc/elements/1.1/" xmlns:cc="http://creativecommons.org/ns#" xmlns:rdf="http://www.w3.org/1999/02/22-rdf-syntax-ns#">
   <cc:Work>
    <dc:type rdf:resource="http://purl.org/dc/dcmitype/StillImage"/>
    <dc:date>2023-06-14T18:52:41.655219</dc:date>
    <dc:format>image/svg+xml</dc:format>
    <dc:creator>
     <cc:Agent>
      <dc:title>Matplotlib v3.7.0, https://matplotlib.org/</dc:title>
     </cc:Agent>
    </dc:creator>
   </cc:Work>
  </rdf:RDF>
 </metadata>
 <defs>
  <style type="text/css">*{stroke-linejoin: round; stroke-linecap: butt}</style>
 </defs>
 <g id="figure_1">
  <g id="patch_1">
   <path d="M 0 180 
L 216 180 
L 216 0 
L 0 0 
z
" style="fill: #ffffff"/>
  </g>
  <g id="patch_2">
   <path d="M -1 169.2 
L 174.6 169.2 
L 174.6 -1 
" style="fill: none"/>
  </g>
  <g id="pane3d_1">
   <g id="patch_3">
    <path d="M 11.519416 125.705413 
L 69.772457 76.876559 
L 68.962684 6.456623 
L 7.921935 51.001381 
" style="fill: none; opacity: 0.5; stroke: #f2f2f2; stroke-linejoin: miter"/>
   </g>
  </g>
  <g id="pane3d_2">
   <g id="patch_4">
    <path d="M 69.772457 76.876559 
L 163.247803 104.046152 
L 166.583609 31.200681 
L 68.962684 6.456623 
" style="fill: none; opacity: 0.5; stroke: #e6e6e6; stroke-linejoin: miter"/>
   </g>
  </g>
  <g id="pane3d_3">
   <g id="patch_5">
    <path d="M 11.519416 125.705413 
L 110.607849 158.067695 
L 163.247803 104.046152 
L 69.772457 76.876559 
" style="fill: none; opacity: 0.5; stroke: #ececec; stroke-linejoin: miter"/>
   </g>
  </g>
  <g id="axis3d_1">
   <g id="line2d_1">
    <path d="M 11.519416 125.705413 
L 110.607849 158.067695 
" style="fill: none; stroke: #ffffff; stroke-width: 0.8; stroke-linecap: round"/>
   </g>
   <g id="text_1">
    <!-- x -->
    <g style="fill: #262626" transform="translate(40.437569 179.640981) scale(0.1 -0.1)">
     <defs>
      <path id="DejaVuSans-78" d="M 3513 3500 
L 2247 1797 
L 3578 0 
L 2900 0 
L 1881 1375 
L 863 0 
L 184 0 
L 1544 1831 
L 300 3500 
L 978 3500 
L 1906 2253 
L 2834 3500 
L 3513 3500 
z
" transform="scale(0.015625)"/>
     </defs>
     <use xlink:href="#DejaVuSans-78"/>
    </g>
   </g>
   <g id="Line3DCollection_1">
    <path d="M 35.693016 133.600511 
L 92.652894 83.526999 
L 92.819779 12.503701 
" style="fill: none; stroke: #d3d3d3; stroke-width: 0.8"/>
    <path d="M 60.52148 141.709487 
L 116.101854 90.342686 
L 117.295247 18.707518 
" style="fill: none; stroke: #d3d3d3; stroke-width: 0.8"/>
    <path d="M 86.023993 150.038608 
L 140.133457 97.327724 
L 142.405775 25.072305 
" style="fill: none; stroke: #d3d3d3; stroke-width: 0.8"/>
   </g>
   <g id="xtick_1">
    <g id="line2d_2">
     <path d="M 88.783784 78.616216 
" clip-path="url(#p6830c4e30f)" style="fill: none; stroke: #d3d3d3; stroke-width: 0.8; stroke-linecap: round"/>
    </g>
    <g id="line2d_3">
     <path d="M 36.189418 133.164123 
L 34.69806 134.475178 
" style="fill: none; stroke: #808080; stroke-width: 0.8; stroke-linecap: round"/>
    </g>
    <g id="text_2">
     <!-- −10 -->
     <g style="fill: #808080" transform="translate(17.625382 157.129794) scale(0.1 -0.1)">
      <defs>
       <path id="DejaVuSans-2212" d="M 678 2272 
L 4684 2272 
L 4684 1741 
L 678 1741 
L 678 2272 
z
" transform="scale(0.015625)"/>
       <path id="DejaVuSans-31" d="M 794 531 
L 1825 531 
L 1825 4091 
L 703 3866 
L 703 4441 
L 1819 4666 
L 2450 4666 
L 2450 531 
L 3481 531 
L 3481 0 
L 794 0 
L 794 531 
z
" transform="scale(0.015625)"/>
       <path id="DejaVuSans-30" d="M 2034 4250 
Q 1547 4250 1301 3770 
Q 1056 3291 1056 2328 
Q 1056 1369 1301 889 
Q 1547 409 2034 409 
Q 2525 409 2770 889 
Q 3016 1369 3016 2328 
Q 3016 3291 2770 3770 
Q 2525 4250 2034 4250 
z
M 2034 4750 
Q 2819 4750 3233 4129 
Q 3647 3509 3647 2328 
Q 3647 1150 3233 529 
Q 2819 -91 2034 -91 
Q 1250 -91 836 529 
Q 422 1150 422 2328 
Q 422 3509 836 4129 
Q 1250 4750 2034 4750 
z
" transform="scale(0.015625)"/>
      </defs>
      <use xlink:href="#DejaVuSans-2212"/>
      <use xlink:href="#DejaVuSans-31" x="83.789062"/>
      <use xlink:href="#DejaVuSans-30" x="147.412109"/>
     </g>
    </g>
   </g>
   <g id="xtick_2">
    <g id="line2d_4">
     <path d="M 88.783784 78.616216 
" clip-path="url(#p6830c4e30f)" style="fill: none; stroke: #d3d3d3; stroke-width: 0.8; stroke-linecap: round"/>
    </g>
    <g id="line2d_5">
     <path d="M 61.006392 141.261337 
L 59.549527 142.607756 
" style="fill: none; stroke: #808080; stroke-width: 0.8; stroke-linecap: round"/>
    </g>
    <g id="text_3">
     <!-- 0 -->
     <g style="fill: #808080" transform="translate(49.866496 165.49998) scale(0.1 -0.1)">
      <use xlink:href="#DejaVuSans-30"/>
     </g>
    </g>
   </g>
   <g id="xtick_3">
    <g id="line2d_6">
     <path d="M 88.783784 78.616216 
" clip-path="url(#p6830c4e30f)" style="fill: none; stroke: #d3d3d3; stroke-width: 0.8; stroke-linecap: round"/>
    </g>
    <g id="line2d_7">
     <path d="M 86.496603 149.578213 
L 85.076668 150.961447 
" style="fill: none; stroke: #808080; stroke-width: 0.8; stroke-linecap: round"/>
    </g>
    <g id="text_4">
     <!-- 10 -->
     <g style="fill: #808080" transform="translate(72.234379 174.098727) scale(0.1 -0.1)">
      <use xlink:href="#DejaVuSans-31"/>
      <use xlink:href="#DejaVuSans-30" x="63.623047"/>
     </g>
    </g>
   </g>
  </g>
  <g id="axis3d_2">
   <g id="line2d_8">
    <path d="M 163.247803 104.046152 
L 110.607849 158.067695 
" style="fill: none; stroke: #ffffff; stroke-width: 0.8; stroke-linecap: round"/>
   </g>
   <g id="text_5">
    <!-- y -->
    <g style="fill: #262626" transform="translate(162.133934 160.636398) scale(0.1 -0.1)">
     <defs>
      <path id="DejaVuSans-79" d="M 2059 -325 
Q 1816 -950 1584 -1140 
Q 1353 -1331 966 -1331 
L 506 -1331 
L 506 -850 
L 844 -850 
Q 1081 -850 1212 -737 
Q 1344 -625 1503 -206 
L 1606 56 
L 191 3500 
L 800 3500 
L 1894 763 
L 2988 3500 
L 3597 3500 
L 2059 -325 
z
" transform="scale(0.015625)"/>
     </defs>
     <use xlink:href="#DejaVuSans-79"/>
    </g>
   </g>
   <g id="Line3DCollection_2">
    <path d="M 17.724817 43.847685 
L 20.844824 117.888672 
L 119.065984 149.387567 
" style="fill: none; stroke: #d3d3d3; stroke-width: 0.8"/>
    <path d="M 41.248653 26.68106 
L 43.269275 99.092053 
L 139.356006 128.565014 
" style="fill: none; stroke: #d3d3d3; stroke-width: 0.8"/>
    <path d="M 63.256942 10.620414 
L 64.308521 81.456539 
L 158.330075 109.092951 
" style="fill: none; stroke: #d3d3d3; stroke-width: 0.8"/>
   </g>
   <g id="xtick_4">
    <g id="line2d_9">
     <path d="M 88.783784 78.616216 
" clip-path="url(#p6830c4e30f)" style="fill: none; stroke: #d3d3d3; stroke-width: 0.8; stroke-linecap: round"/>
    </g>
    <g id="line2d_10">
     <path d="M 118.238602 149.122231 
L 120.722871 149.91892 
" style="fill: none; stroke: #808080; stroke-width: 0.8; stroke-linecap: round"/>
    </g>
    <g id="text_6">
     <!-- −20 -->
     <g style="fill: #808080" transform="translate(121.300737 170.30289) scale(0.1 -0.1)">
      <defs>
       <path id="DejaVuSans-32" d="M 1228 531 
L 3431 531 
L 3431 0 
L 469 0 
L 469 531 
Q 828 903 1448 1529 
Q 2069 2156 2228 2338 
Q 2531 2678 2651 2914 
Q 2772 3150 2772 3378 
Q 2772 3750 2511 3984 
Q 2250 4219 1831 4219 
Q 1534 4219 1204 4116 
Q 875 4013 500 3803 
L 500 4441 
Q 881 4594 1212 4672 
Q 1544 4750 1819 4750 
Q 2544 4750 2975 4387 
Q 3406 4025 3406 3419 
Q 3406 3131 3298 2873 
Q 3191 2616 2906 2266 
Q 2828 2175 2409 1742 
Q 1991 1309 1228 531 
z
" transform="scale(0.015625)"/>
      </defs>
      <use xlink:href="#DejaVuSans-2212"/>
      <use xlink:href="#DejaVuSans-32" x="83.789062"/>
      <use xlink:href="#DejaVuSans-30" x="147.412109"/>
     </g>
    </g>
   </g>
   <g id="xtick_5">
    <g id="line2d_11">
     <path d="M 88.783784 78.616216 
" clip-path="url(#p6830c4e30f)" style="fill: none; stroke: #d3d3d3; stroke-width: 0.8; stroke-linecap: round"/>
    </g>
    <g id="line2d_12">
     <path d="M 138.547968 128.317162 
L 140.974086 129.061332 
" style="fill: none; stroke: #808080; stroke-width: 0.8; stroke-linecap: round"/>
    </g>
    <g id="text_7">
     <!-- 0 -->
     <g style="fill: #808080" transform="translate(148.550495 149.015589) scale(0.1 -0.1)">
      <use xlink:href="#DejaVuSans-30"/>
     </g>
    </g>
   </g>
   <g id="xtick_6">
    <g id="line2d_13">
     <path d="M 88.783784 78.616216 
" clip-path="url(#p6830c4e30f)" style="fill: none; stroke: #d3d3d3; stroke-width: 0.8; stroke-linecap: round"/>
    </g>
    <g id="line2d_14">
     <path d="M 157.540651 108.860911 
L 159.910815 109.55759 
" style="fill: none; stroke: #808080; stroke-width: 0.8; stroke-linecap: round"/>
    </g>
    <g id="text_8">
     <!-- 20 -->
     <g style="fill: #808080" transform="translate(163.957554 129.110078) scale(0.1 -0.1)">
      <use xlink:href="#DejaVuSans-32"/>
      <use xlink:href="#DejaVuSans-30" x="63.623047"/>
     </g>
    </g>
   </g>
  </g>
  <g id="axis3d_3">
   <g id="line2d_15">
    <path d="M 163.247803 104.046152 
L 166.583609 31.200681 
" style="fill: none; stroke: #ffffff; stroke-width: 0.8; stroke-linecap: round"/>
   </g>
   <g id="text_9">
    <!-- z -->
    <g style="fill: #262626" transform="translate(202.494937 65.789607) scale(0.1 -0.1)">
     <defs>
      <path id="DejaVuSans-7a" d="M 353 3500 
L 3084 3500 
L 3084 2975 
L 922 459 
L 3084 459 
L 3084 0 
L 275 0 
L 275 525 
L 2438 3041 
L 353 3041 
L 353 3500 
z
" transform="scale(0.015625)"/>
     </defs>
     <use xlink:href="#DejaVuSans-7a"/>
    </g>
   </g>
   <g id="Line3DCollection_3">
    <path d="M 163.693375 94.316001 
L 69.664096 67.453175 
L 11.039593 115.741578 
" style="fill: none; stroke: #d3d3d3; stroke-width: 0.8"/>
    <path d="M 164.46765 77.407811 
L 69.475941 51.090701 
L 10.205286 98.416639 
" style="fill: none; stroke: #d3d3d3; stroke-width: 0.8"/>
    <path d="M 165.258099 60.14644 
L 69.284045 34.402983 
L 9.352877 80.715822 
" style="fill: none; stroke: #d3d3d3; stroke-width: 0.8"/>
    <path d="M 166.065232 42.520705 
L 69.088297 17.380226 
L 8.481772 62.626763 
" style="fill: none; stroke: #d3d3d3; stroke-width: 0.8"/>
   </g>
   <g id="xtick_7">
    <g id="line2d_16">
     <path d="M 88.783784 78.616216 
" style="fill: none; stroke: #d3d3d3; stroke-width: 0.8; stroke-linecap: round"/>
    </g>
    <g id="line2d_17">
     <path d="M 162.90399 94.090484 
L 165.274035 94.767573 
" style="fill: none; stroke: #808080; stroke-width: 0.8; stroke-linecap: round"/>
    </g>
    <g id="text_10">
     <!-- 10 -->
     <g style="fill: #808080" transform="translate(175.65824 99.342118) scale(0.1 -0.1)">
      <use xlink:href="#DejaVuSans-31"/>
      <use xlink:href="#DejaVuSans-30" x="63.623047"/>
     </g>
    </g>
   </g>
   <g id="xtick_8">
    <g id="line2d_18">
     <path d="M 88.783784 78.616216 
" style="fill: none; stroke: #d3d3d3; stroke-width: 0.8; stroke-linecap: round"/>
    </g>
    <g id="line2d_19">
     <path d="M 163.669797 77.186768 
L 166.065285 77.85043 
" style="fill: none; stroke: #808080; stroke-width: 0.8; stroke-linecap: round"/>
    </g>
    <g id="text_11">
     <!-- 20 -->
     <g style="fill: #808080" transform="translate(176.617526 82.485067) scale(0.1 -0.1)">
      <use xlink:href="#DejaVuSans-32"/>
      <use xlink:href="#DejaVuSans-30" x="63.623047"/>
     </g>
    </g>
   </g>
   <g id="xtick_9">
    <g id="line2d_20">
     <path d="M 88.783784 78.616216 
" style="fill: none; stroke: #d3d3d3; stroke-width: 0.8; stroke-linecap: round"/>
    </g>
    <g id="line2d_21">
     <path d="M 164.451595 59.930108 
L 166.873076 60.579631 
" style="fill: none; stroke: #808080; stroke-width: 0.8; stroke-linecap: round"/>
    </g>
    <g id="text_12">
     <!-- 30 -->
     <g style="fill: #808080" transform="translate(177.596757 65.277536) scale(0.1 -0.1)">
      <defs>
       <path id="DejaVuSans-33" d="M 2597 2516 
Q 3050 2419 3304 2112 
Q 3559 1806 3559 1356 
Q 3559 666 3084 287 
Q 2609 -91 1734 -91 
Q 1441 -91 1130 -33 
Q 819 25 488 141 
L 488 750 
Q 750 597 1062 519 
Q 1375 441 1716 441 
Q 2309 441 2620 675 
Q 2931 909 2931 1356 
Q 2931 1769 2642 2001 
Q 2353 2234 1838 2234 
L 1294 2234 
L 1294 2753 
L 1863 2753 
Q 2328 2753 2575 2939 
Q 2822 3125 2822 3475 
Q 2822 3834 2567 4026 
Q 2313 4219 1838 4219 
Q 1578 4219 1281 4162 
Q 984 4106 628 3988 
L 628 4550 
Q 988 4650 1302 4700 
Q 1616 4750 1894 4750 
Q 2613 4750 3031 4423 
Q 3450 4097 3450 3541 
Q 3450 3153 3228 2886 
Q 3006 2619 2597 2516 
z
" transform="scale(0.015625)"/>
      </defs>
      <use xlink:href="#DejaVuSans-33"/>
      <use xlink:href="#DejaVuSans-30" x="63.623047"/>
     </g>
    </g>
   </g>
   <g id="xtick_10">
    <g id="line2d_22">
     <path d="M 88.783784 78.616216 
" style="fill: none; stroke: #d3d3d3; stroke-width: 0.8; stroke-linecap: round"/>
    </g>
    <g id="line2d_23">
     <path d="M 165.249888 42.309334 
L 167.697933 42.943969 
" style="fill: none; stroke: #808080; stroke-width: 0.8; stroke-linecap: round"/>
    </g>
    <g id="text_13">
     <!-- 40 -->
     <g style="fill: #808080" transform="translate(178.596561 47.708481) scale(0.1 -0.1)">
      <defs>
       <path id="DejaVuSans-34" d="M 2419 4116 
L 825 1625 
L 2419 1625 
L 2419 4116 
z
M 2253 4666 
L 3047 4666 
L 3047 1625 
L 3713 1625 
L 3713 1100 
L 3047 1100 
L 3047 0 
L 2419 0 
L 2419 1100 
L 313 1100 
L 313 1709 
L 2253 4666 
z
" transform="scale(0.015625)"/>
      </defs>
      <use xlink:href="#DejaVuSans-34"/>
      <use xlink:href="#DejaVuSans-30" x="63.623047"/>
     </g>
    </g>
   </g>
  </g>
  <g id="axes_1">
   <g id="line2d_24">
    <path d="M 125.698062 101.793889 
L 129.299406 97.07429 
L 139.004852 85.014778 
L 141.685638 81.479448 
L 144.312592 77.788928 
L 146.777403 74.001415 
L 148.958132 70.197619 
L 150.726175 66.480414 
L 151.956552 62.971056 
L 152.540448 59.801515 
L 152.397883 57.103254 
L 151.487755 54.993733 
L 149.812825 53.562668 
L 147.418516 52.860336 
L 144.386234 52.890007 
L 140.823402 53.605896 
L 136.85284 54.917273 
L 132.603462 56.698551 
L 128.202995 58.804168 
L 119.420402 63.410209 
L 101.353333 73.055258 
L 94.23249 76.872687 
L 90.761665 78.917083 
L 88.033456 80.73763 
L 85.834781 82.425623 
L 83.160484 84.809949 
L 77.842131 89.844876 
L 76.207426 91.104139 
L 74.416013 92.243155 
L 72.422027 93.227161 
L 70.18598 94.010474 
L 67.676755 94.533476 
L 64.875935 94.719665 
L 63.365616 94.657441 
L 61.785087 94.473878 
L 60.139438 94.154378 
L 58.436557 93.683661 
L 56.687648 93.046196 
L 54.907758 92.226844 
L 53.116282 91.211699 
L 51.337364 89.989181 
L 49.600127 88.551341 
L 47.938609 86.895352 
L 46.39129 85.025099 
L 45.000096 82.952713 
L 43.808774 80.699865 
L 42.86064 78.298594 
L 42.195771 75.791408 
L 41.847876 73.230479 
L 41.8412 70.675803 
L 42.18791 68.192356 
L 42.886429 65.846452 
L 43.921045 63.701634 
L 45.262942 61.814577 
L 46.872502 60.231477 
L 48.702512 58.985344 
L 50.701753 58.094486 
L 52.818445 57.5623 
L 55.003139 57.378285 
L 57.210825 57.520078 
L 59.402217 57.956181 
L 61.544319 58.649022 
L 63.610443 59.557988 
L 65.579877 60.642142 
L 67.437347 61.862413 
L 69.172383 63.183163 
L 70.778648 64.573135 
L 73.596256 67.459615 
L 75.897737 70.365026 
L 77.718069 73.194839 
L 79.105081 75.899208 
L 80.109094 78.456862 
L 80.776429 80.863151 
L 81.145903 83.122141 
L 81.24731 85.241731 
L 81.101066 87.230696 
L 80.718435 89.096858 
L 80.101986 90.845764 
L 79.246116 92.479516 
L 78.137591 93.995433 
L 76.756158 95.384304 
L 75.075415 96.628008 
L 73.064208 97.696282 
L 70.689057 98.542466 
L 67.918312 99.098268 
L 66.376835 99.238594 
L 64.729113 99.268003 
L 62.975492 99.169443 
L 61.118574 98.923714 
L 59.163915 98.509604 
L 57.120838 97.904216 
L 55.00336 97.083567 
L 52.831191 96.023528 
L 50.630749 94.701186 
L 48.43607 93.096656 
L 46.289457 91.195384 
L 44.241624 88.990839 
L 42.351054 86.487455 
L 40.682289 83.703501 
L 39.302897 80.673477 
L 38.27908 77.449496 
L 37.67013 74.101148 
L 37.522344 70.713412 
L 37.863342 67.382482 
L 38.697906 64.209721 
L 40.006335 61.294387 
L 41.745846 58.726053 
L 43.854845 56.5778 
L 46.259238 54.901079 
L 48.879494 53.722889 
L 51.637194 53.045452 
L 54.460111 52.848247 
L 57.285412 53.091904 
L 60.061073 53.723322 
L 62.745913 54.681259 
L 65.308804 55.901702 
L 67.72748 57.32244 
L 69.98727 58.886482 
L 72.07989 60.544208 
L 74.002339 62.254334 
L 75.755886 63.983924 
L 78.777219 67.407315 
L 81.206304 70.68613 
L 83.123827 73.763577 
L 84.613145 76.624555 
L 85.751138 79.275424 
L 86.603983 81.732059 
L 87.464425 85.094479 
L 87.940281 88.125581 
L 88.121744 90.880876 
L 88.061777 93.407139 
L 87.783741 95.743554 
L 87.286112 97.923207 
L 86.544439 99.974088 
L 85.510803 101.919038 
L 84.624088 103.165039 
L 83.545873 104.373231 
L 82.239849 105.542038 
L 80.661954 106.664251 
L 78.759626 107.723821 
L 76.471468 108.690953 
L 73.727856 109.51479 
L 70.453456 110.112917 
L 68.593504 110.28953 
L 66.57337 110.357143 
L 64.38582 110.289714 
L 62.02579 110.056131 
L 59.491498 109.619797 
L 56.785893 108.93848 
L 53.918525 107.964609 
L 50.907888 106.646251 
L 47.784224 104.929074 
L 44.592715 102.759579 
L 41.396763 100.089899 
L 38.280797 96.884249 
L 35.351674 93.126862 
L 32.737346 88.830758 
L 30.581308 84.046081 
L 29.03166 78.866147 
L 28.224719 73.429005 
L 28.265125 67.912543 
L 29.206581 62.522293 
L 31.03875 57.472898 
L 33.685093 52.966253 
L 37.01326 49.170497 
L 40.855389 46.203903 
L 45.032385 44.126188 
L 49.375651 42.937808 
L 53.741735 42.586211 
L 58.018643 42.977184 
L 62.125304 43.989149 
L 66.007074 45.488172 
L 69.630059 47.341605 
L 72.976024 49.428674 
L 76.038548 51.64713 
L 78.820274 53.915956 
L 81.330841 56.174933 
L 85.601697 60.510518 
L 89.005853 64.475922 
L 91.71635 68.027583 
L 94.835354 72.623349 
L 100.467834 81.444252 
L 101.720983 83.006745 
L 103.031325 84.3324 
L 104.44541 85.417274 
L 106.005746 86.249477 
L 107.75168 86.808985 
L 109.719272 87.06748 
L 111.939886 86.98852 
L 114.437102 86.528569 
L 117.221368 85.639681 
L 120.281819 84.274947 
L 123.574929 82.39805 
L 127.010572 79.998095 
L 130.438059 77.10971 
L 132.082815 75.511234 
L 133.637942 73.83563 
L 135.066366 72.109324 
L 136.328887 70.36439 
L 137.385876 68.637948 
L 138.199383 66.970993 
L 138.735526 65.406651 
L 138.966933 63.987915 
L 138.874952 62.755033 
L 138.451344 61.742784 
L 137.699225 60.977962 
L 136.633129 60.477368 
L 135.278193 60.246602 
L 133.668593 60.279822 
L 131.84544 60.560531 
L 129.854388 61.063307 
L 127.743178 61.756241 
L 123.34804 63.569472 
L 119.003022 65.720508 
L 114.971289 67.98286 
L 111.417817 70.212208 
L 108.416251 72.339035 
L 105.971388 74.34382 
L 104.045775 76.232067 
L 102.582308 78.017098 
L 101.519776 79.711009 
L 100.801857 81.321201 
L 100.381414 82.849836 
L 100.22195 84.294436 
L 100.297594 85.648664 
L 100.592434 86.902878 
L 101.099683 88.044309 
L 101.820871 89.056832 
L 102.76514 89.920376 
L 103.948588 90.609992 
L 105.393553 91.094637 
L 107.127603 91.335769 
L 109.181892 91.285938 
L 111.588338 90.887751 
L 114.374825 90.073901 
L 117.55734 88.769444 
L 121.12768 86.8982 
L 125.035562 84.395778 
L 127.083169 82.896245 
L 129.165196 81.231866 
L 131.252736 79.409532 
L 133.309937 77.442755 
L 135.293923 75.352873 
L 137.155303 73.169986 
L 138.839476 70.933418 
L 140.288828 68.691452 
L 141.445862 66.500108 
L 142.257064 64.420849 
L 142.677151 62.517213 
L 142.673156 60.850577 
L 142.227735 59.47547 
L 141.341147 58.434989 
L 140.031606 57.756957 
L 138.333957 57.451403 
L 136.296988 57.509779 
L 133.979832 57.906077 
L 131.447976 58.599737 
L 128.76932 59.539938 
L 126.010585 60.670642 
L 120.496036 63.283155 
L 115.313825 66.056999 
L 110.727562 68.748933 
L 106.855163 71.25234 
L 103.701667 73.552281 
L 101.203694 75.676635 
L 99.267941 77.66341 
L 97.796624 79.545228 
L 96.700867 81.344804 
L 95.905966 83.075569 
L 95.352188 84.743951 
L 94.993544 86.351684 
L 94.749531 88.646549 
L 94.795059 90.791632 
L 95.094075 92.772098 
L 95.641773 94.569213 
L 96.155078 95.653572 
L 96.8015 96.636006 
L 97.599552 97.504036 
L 98.573511 98.241254 
L 99.753954 98.825912 
L 101.17837 99.229095 
L 102.891715 99.412407 
L 104.946643 99.32514 
L 107.402951 98.901011 
L 110.3254 98.054837 
L 113.77845 96.680159 
L 117.815496 94.649858 
L 120.062036 93.345092 
L 122.45894 91.823684 
L 124.998638 90.069428 
L 127.666457 88.069015 
L 130.438611 85.813998 
L 133.280059 83.303257 
L 136.142462 80.545895 
L 138.962618 77.56438 
L 141.661941 74.397584 
L 144.147635 71.103162 
L 146.31623 67.758555 
L 148.059874 64.459809 
L 149.275216 61.317577 
L 149.873947 58.450058 
L 149.793247 55.973273 
L 149.003996 53.989824 
L 147.514877 52.577816 
L 145.371485 51.781826 
L 142.650916 51.607523 
L 139.453379 52.02098 
L 135.892818 52.952886 
L 132.08811 54.307151 
L 128.155675 55.972553 
L 124.203605 57.835542 
L 116.60499 61.755689 
L 106.875605 67.167819 
L 101.790041 70.194337 
L 97.77164 72.803528 
L 94.652185 75.10747 
L 92.239606 77.207483 
L 90.35715 79.17582 
L 88.856977 81.05738 
L 87.071345 83.767682 
L 82.14808 92.013632 
L 80.970676 93.49346 
L 79.631789 94.898218 
L 78.090361 96.21285 
L 76.303574 97.415331 
L 74.226856 98.473345 
L 71.815034 99.339862 
L 69.025256 99.947556 
L 67.477202 100.126172 
L 65.822691 100.202357 
L 64.060236 100.159147 
L 62.190398 99.977256 
L 60.216454 99.635104 
L 58.145199 99.109022 
L 55.987878 98.373709 
L 53.761242 97.403006 
L 51.488669 96.171101 
L 49.201263 94.654217 
L 46.938786 92.832833 
L 44.750192 90.694421 
L 42.693476 88.236569 
L 40.834496 85.47025 
L 39.24444 82.42282 
L 37.995749 79.14021 
L 37.156549 75.687707 
L 36.784065 72.148756 
L 36.917914 68.621457 
L 37.574512 65.212785 
L 38.743872 62.031062 
L 40.389673 59.177602 
L 42.452793 56.738711 
L 44.857613 54.779185 
L 47.519777 53.338156 
L 50.353878 52.427693 
L 53.279771 52.034129 
L 56.226833 52.121672 
L 59.136078 52.637647 
L 61.960541 53.51854 
L 64.664526 54.696059 
L 67.222307 56.102493 
L 69.616682 57.674883 
L 71.837601 59.357798 
L 73.880919 61.104731 
L 75.747282 62.87836 
L 78.969654 66.398467 
L 81.569286 69.771691 
L 83.63226 72.932831 
L 85.248687 75.864069 
L 86.502364 78.571788 
L 87.465968 81.072927 
L 88.496172 84.481644 
L 89.162272 87.537402 
L 89.665048 91.160361 
L 89.86891 94.365104 
L 89.858754 97.234656 
L 89.667874 99.834535 
L 89.290345 102.219443 
L 88.684215 104.438326 
L 88.031727 106.021556 
L 87.151624 107.556584 
L 85.968848 109.060843 
L 84.96266 110.053185 
L 83.737694 111.038811 
L 82.246284 112.014651 
L 80.430939 112.970409 
L 78.223187 113.88372 
L 75.543016 114.712579 
L 72.299751 115.383814 
L 70.436553 115.624923 
L 68.3959 115.776275 
L 66.16611 115.811473 
L 63.73681 115.697972 
L 61.099961 115.396214 
L 58.251246 114.858892 
L 55.191994 114.030579 
L 51.931728 112.847982 
L 48.491502 111.24122 
L 44.908073 109.13661 
L 41.238841 106.461469 
L 37.567127 103.151394 
L 34.00686 99.160187 
L 30.704957 94.472073 
L 27.838931 89.114968 
L 25.606902 83.172464 
L 24.208041 76.791147 
L 23.814106 70.179456 
L 24.537008 63.595241 
L 26.401509 57.321849 
L 29.333238 51.636371 
L 33.168134 46.77685 
L 37.681325 42.91588 
L 42.625807 40.145701 
L 47.76859 38.476054 
L 52.915118 37.842911 
L 57.919125 38.124791 
L 62.680621 39.163208 
L 67.137425 40.783993 
L 71.255291 42.816455 
L 75.019674 45.107901 
L 78.430016 47.532223 
L 81.495999 49.992709 
L 84.234916 52.420406 
L 86.669498 54.769874 
L 90.732225 59.138844 
L 93.906394 63.017343 
L 96.40438 66.422409 
L 99.274782 70.752431 
L 103.440296 77.183243 
L 104.685242 78.775832 
L 105.960508 80.116024 
L 107.311348 81.205158 
L 108.775652 82.037405 
L 110.384894 82.600452 
L 112.164026 82.876309 
L 114.130205 82.842527 
L 116.290227 82.474234 
L 118.636518 81.747491 
L 121.141718 80.644473 
L 123.752235 79.160907 
L 126.38189 77.315687 
L 128.907823 75.16164 
L 131.171992 72.794876 
L 132.992068 70.358481 
L 133.677295 69.170278 
L 134.184077 68.035447 
L 134.494526 66.979602 
L 134.594929 66.027445 
L 134.476698 65.201507 
L 134.137066 64.52091 
L 133.579443 64.000279 
L 132.813405 63.648919 
L 131.854294 63.470343 
L 130.722495 63.462224 
L 129.442439 63.616773 
L 128.041444 63.921489 
L 124.992923 64.914407 
L 121.807168 66.290303 
L 118.689214 67.897672 
L 115.797856 69.611288 
L 113.238203 71.343167 
L 111.065679 73.040021 
L 109.296923 74.673807 
L 107.922778 76.231334 
L 106.920011 77.706098 
L 106.260196 79.093057 
L 105.91562 80.385799 
L 105.862727 81.575222 
L 106.083815 82.648981 
L 106.567578 83.591231 
L 107.308892 84.382396 
L 108.30809 84.998884 
L 109.569752 85.412773 
L 111.100949 85.591598 
L 112.908725 85.498489 
L 114.996514 85.093052 
L 117.359097 84.333553 
L 119.975771 83.181174 
L 122.801593 81.60716 
L 125.757266 79.603506 
L 128.71947 77.197009 
L 131.5154 74.46474 
L 133.927207 71.546265 
L 134.913295 70.078631 
L 135.712357 68.645152 
L 136.296568 67.278452 
L 136.642125 66.011763 
L 136.730875 64.87721 
L 136.551691 63.90396 
L 136.101453 63.1164 
L 135.385503 62.532544 
L 134.417511 62.162846 
L 133.218792 62.009599 
L 131.81713 62.066973 
L 130.245266 62.321727 
L 128.539191 62.754485 
L 124.874192 64.056264 
L 121.111313 65.762735 
L 117.495976 67.678258 
L 114.205653 69.655269 
L 111.345104 71.602457 
L 108.956563 73.474579 
L 107.037427 75.255679 
L 105.558531 76.944136 
L 104.478948 78.542664 
L 103.756082 80.052956 
L 103.351651 81.473436 
L 103.234694 82.798636 
L 103.382716 84.019229 
L 103.781798 85.122137 
L 104.426154 86.090475 
L 105.317403 86.90324 
L 106.46364 87.534745 
L 107.878225 87.953896 
L 109.578116 88.123452 
L 111.581411 87.999555 
L 113.903626 87.531979 
L 116.552085 86.665837 
L 119.517691 85.34581 
L 122.763507 83.524304 
L 126.210233 81.174953 
L 129.720366 78.312123 
L 131.437112 76.70963 
L 133.085987 75.014704 
L 134.630023 73.250927 
L 136.029129 71.448027 
L 137.241574 69.641588 
L 138.225973 67.872181 
L 138.943696 66.183879 
L 139.361482 64.622146 
L 139.453997 63.231236 
L 139.206007 62.05129 
L 138.613871 61.115466 
L 137.686142 60.44742 
L 136.443194 60.059486 
L 134.915952 59.951814 
L 133.14391 60.11262 
L 131.172705 60.519512 
L 129.051505 61.141751 
L 126.830446 61.94313 
L 122.280431 63.92968 
L 117.863484 66.19195 
L 113.828145 68.51302 
L 110.31867 70.765638 
L 107.387997 72.896507 
L 105.024175 74.897555 
L 103.178274 76.780751 
L 101.786443 78.562323 
L 100.784191 80.255275 
L 100.114103 81.867038 
L 99.729166 83.399566 
L 99.593595 84.850249 
L 99.68243 86.212814 
L 99.980686 87.477904 
L 100.482433 88.633244 
L 101.189986 89.663397 
L 102.113238 90.549143 
L 103.269111 91.266511 
L 104.680974 91.78551 
L 106.37785 92.068617 
L 108.393072 92.069178 
L 110.76188 91.730043 
L 113.517182 90.983035 
L 116.68236 89.750381 
L 120.259677 87.949924 
L 124.212752 85.506722 
L 126.302452 84.027597 
L 128.442494 82.374132 
L 130.606038 80.550279 
L 132.75894 78.566405 
L 134.859383 76.440692 
L 136.858062 74.20036 
L 138.69914 71.882489 
L 140.322172 69.534169 
L 141.66507 67.211696 
L 142.66804 64.978623 
L 143.278154 62.90257 
L 143.454033 61.050942 
L 143.169938 59.485896 
L 142.4186 58.259157 
L 141.212308 57.407355 
L 139.582092 56.948598 
L 137.575221 56.880827 
L 135.251508 57.182257 
L 132.679007 57.813905 
L 129.929649 58.72385 
L 127.075207 59.852627 
L 121.316958 62.524872 
L 115.85888 65.403357 
L 111.002131 68.205591 
L 106.888244 70.803626 
L 103.531544 73.176916 
L 100.867546 75.356379 
L 98.796396 77.385809 
L 97.211993 79.303317 
L 96.017359 81.135828 
L 95.13065 82.899735 
L 94.486027 84.603519 
L 93.864297 87.052704 
L 93.551659 89.372639 
L 93.471786 91.556317 
L 93.582817 93.594796 
L 93.869127 95.478225 
L 94.33665 97.194846 
L 95.011102 98.728632 
L 95.597583 99.638224 
L 96.315334 100.446072 
L 97.188783 101.138509 
L 98.248295 101.697022 
L 99.531075 102.096557 
L 101.082131 102.303304 
L 102.955137 102.271834 
L 105.212896 101.941553 
L 107.926771 101.232572 
L 111.17396 100.041549 
L 115.030555 98.238892 
L 119.556895 95.670371 
L 122.079319 94.046519 
L 124.769827 92.168854 
L 127.615944 90.019548 
L 130.595206 87.585492 
L 133.67242 84.861163 
L 136.796867 81.852121 
L 139.899913 78.578974 
L 142.893712 75.081417 
L 145.671917 71.421674 
L 148.113384 67.686379 
L 150.089564 63.985812 
L 151.475579 60.449496 
L 152.163821 57.217694 
L 152.077705 54.429267 
L 151.1825 52.207362 
L 149.490518 50.645236 
L 147.05944 49.79476 
L 143.984588 49.659736 
L 140.387556 50.195309 
L 136.404082 51.313706 
L 132.173294 52.895536 
L 127.829199 54.804891 
L 123.494222 56.905678 
L 115.25501 61.219442 
L 104.922748 66.943842 
L 99.636392 70.033541 
L 95.518295 72.644872 
L 92.352982 74.923249 
L 89.914854 76.987913 
L 88.006119 78.918899 
L 86.466442 80.763434 
L 84.581239 83.417655 
L 80.720984 89.149509 
L 79.492512 90.643677 
L 78.123119 92.052834 
L 76.571028 93.358533 
L 74.795426 94.535517 
L 72.756528 95.548878 
L 70.41694 96.350416 
L 67.744833 96.874379 
L 66.277013 97.005831 
L 64.71972 97.033091 
L 63.073703 96.941246 
L 61.341839 96.713787 
L 59.5297 96.332776 
L 57.646195 95.779165 
L 55.70428 95.033337 
L 53.721708 94.075911 
L 51.721758 92.888849 
L 49.733851 91.456919 
L 47.793936 89.769471 
L 45.944473 87.822499 
L 44.233829 85.620846 
L 42.714882 83.180327 
L 41.44271 80.529492 
L 40.471324 77.710658 
L 39.849609 74.779846 
L 39.616867 71.805342 
L 39.798571 68.864752 
L 40.403066 66.040672 
L 41.419907 63.415349 
L 42.82025 61.06496 
L 44.559336 59.054214 
L 46.580607 57.431991 
L 48.820734 56.228525 
L 51.21465 55.4544 
L 53.699885 55.10137 
L 56.219721 55.144725 
L 58.72508 55.546801 
L 61.175273 56.261111 
L 63.537931 57.236563 
L 65.78842 58.421295 
L 67.909015 59.765812 
L 69.887994 61.225222 
L 71.718731 62.760564 
L 73.398839 64.339345 
L 76.313993 67.528567 
L 78.669802 70.649505 
L 80.525377 73.627061 
L 81.94734 76.430045 
L 82.999965 79.052506 
L 83.739775 81.501539 
L 84.213246 83.790088 
L 84.456336 85.933001 
L 84.494927 87.944976 
L 84.345615 89.839537 
L 84.016497 91.628501 
L 83.507827 93.321616 
L 82.812457 94.926167 
L 81.916077 96.446387 
L 80.797289 97.882523 
L 79.427602 99.22937 
L 77.771507 100.474029 
L 75.786866 101.592609 
L 73.426048 102.5455 
L 70.638487 103.270924 
L 69.069246 103.520955 
L 67.375759 103.676628 
L 65.553827 103.72008 
L 63.600891 103.630373 
L 61.516738 103.383306 
L 59.304389 102.951388 
L 56.971196 102.304035 
L 54.530152 101.408122 
L 52.001413 100.229026 
L 49.413967 98.732281 
L 46.80732 96.885997 
L 44.232973 94.6641 
L 41.755314 92.050384 
L 39.451426 89.04314 
L 37.409221 85.659957 
L 35.723313 81.941972 
L 34.488355 77.95665 
L 33.790052 73.79809 
L 33.694884 69.584017 
L 34.240366 65.449132 
L 35.428097 61.535229 
L 37.221614 57.979329 
L 39.549966 54.901644 
L 42.316361 52.395306 
L 45.409851 50.519397 
L 48.717336 49.296068 
L 52.133499 48.711781 
L 55.567295 48.722052 
L 58.944822 49.258723 
L 62.209321 50.238553 
L 65.319458 51.571913 
L 68.246934 53.170489 
L 70.974129 54.95321 
L 73.492076 56.850032 
L 75.798785 58.803652 
L 77.897821 60.769528 
L 81.507484 64.616258 
L 84.415831 68.233732 
L 86.738847 71.564258 
L 88.593082 74.6025 
L 90.722959 78.653293 
L 92.784719 83.242169 
L 95.177724 88.722314 
L 96.372577 90.921413 
L 97.248574 92.196578 
L 98.226953 93.314989 
L 99.342458 94.267084 
L 100.632517 95.036836 
L 102.138283 95.60039 
L 103.905356 95.924295 
L 105.983938 95.96336 
L 108.427987 95.658306 
L 111.292579 94.933697 
L 114.628207 93.697168 
L 118.470009 91.841916 
L 122.819223 89.255787 
L 125.168281 87.656872 
L 127.613961 85.841879 
L 130.131961 83.807261 
L 132.688547 81.55625 
L 135.239247 79.101075 
L 137.728074 76.465233 
L 140.087631 73.685532 
L 142.240563 70.813487 
L 144.102709 67.915567 
L 145.588122 65.071793 
L 146.615733 62.37231 
L 147.11696 59.911851 
L 147.043084 57.782458 
L 146.371044 56.065234 
L 145.106478 54.822296 
L 143.283414 54.090196 
L 140.960844 53.875917 
L 138.217046 54.156188 
L 135.142856 54.880329 
L 131.834958 55.976268 
L 128.389886 57.358833 
L 124.898994 58.939015 
L 118.096091 62.367487 
L 111.925866 65.751266 
L 106.656927 68.833492 
L 102.352188 71.560389 
L 98.937709 73.982783 
L 96.27495 76.179841 
L 94.21155 78.221516 
L 92.607678 80.157701 
L 91.345499 82.019605 
L 89.890039 84.708916 
L 88.409394 88.133795 
L 86.420232 92.940391 
L 85.280203 95.191519 
L 83.906764 97.337671 
L 82.807844 98.706429 
L 81.520127 100.019618 
L 80.00245 101.267245 
L 78.208336 102.432105 
L 76.085737 103.485898 
L 73.577709 104.38372 
L 70.624751 105.05652 
L 68.963329 105.277992 
L 67.170035 105.401336 
L 65.239835 105.406515 
L 63.169524 105.269968 
L 60.958532 104.964386 
L 58.609954 104.458659 
L 56.131814 103.718114 
L 53.538623 102.705177 
L 50.853171 101.380629 
L 48.108521 99.705623 
L 45.350022 97.644633 
L 42.63704 95.169398 
L 40.043936 92.263818 
L 37.659617 88.929504 
L 35.584917 85.191372 
L 33.927084 81.102373 
L 32.791121 76.746147 
L 32.268468 72.236391 
L 32.424602 67.712024 
L 33.288116 63.328007 
L 34.844157 59.242686 
L 37.034418 55.603495 
L 39.764133 52.533432 
L 42.914467 50.120538 
L 46.357187 48.411876 
L 49.968185 47.412505 
L 53.637367 47.089042 
L 57.273928 47.37681 
L 60.807535 48.189236 
L 64.186737 49.42805 
L 67.376095 50.992903 
L 70.353149 52.789244 
L 73.105793 54.733789 
L 75.630171 56.757431 
L 77.928983 58.805911 
L 80.010034 60.838859 
L 83.567926 64.754309 
L 86.422253 68.37974 
L 88.70462 71.681034 
L 90.540858 74.667412 
L 92.696813 78.613937 
L 96.823236 86.616843 
L 98.304912 88.824787 
L 99.390661 90.068954 
L 100.600523 91.123225 
L 101.974364 91.973252 
L 103.553848 92.596608 
L 105.382987 92.961402 
L 107.507921 93.024687 
L 109.975455 92.730969 
L 112.829593 92.011391 
L 116.104891 90.78474 
L 119.814981 88.962204 
L 123.934388 86.458826 
L 126.12265 84.931429 
L 128.372396 83.215336 
L 130.656765 81.312944 
L 132.9408 79.233386 
L 135.180863 76.994184 
L 137.324615 74.62276 
L 139.311867 72.157558 
L 141.076522 69.64845 
L 142.549778 67.156083 
L 143.664529 64.749903 
L 144.360617 62.504705 
L 144.590334 60.495837 
L 144.323305 58.793437 
L 143.549943 57.456387 
L 142.282813 56.526805 
L 140.555734 56.025922 
L 138.42086 55.952025 
L 135.944358 56.280855 
L 133.201433 56.968456 
L 130.271342 57.956115 
L 127.232852 59.176637 
L 121.120701 62.044572 
L 115.356811 65.097386 
L 110.259656 68.030887 
L 105.969918 70.717669 
L 102.489577 73.148366 
L 99.737813 75.366319 
L 97.599431 77.42487 
L 95.955974 79.368295 
L 94.701159 81.227153 
L 93.74618 83.019942 
L 93.019755 84.756476 
L 92.239868 87.264307 
L 91.576692 90.429706 
L 91.076309 94.093426 
L 89.983853 103.228144 
L 89.376983 105.772515 
L 88.655289 107.691985 
L 87.904912 109.088171 
L 86.90203 110.465846 
L 85.555245 111.840665 
L 84.406862 112.760785 
L 83.004817 113.683316 
L 81.292526 114.601503 
L 79.202086 115.498311 
L 76.65323 116.339506 
L 73.553356 117.06288 
L 69.799915 117.56207 
L 67.644944 117.676771 
L 65.287583 117.663564 
L 62.716906 117.485415 
L 59.924725 117.097256 
L 56.90724 116.445218 
L 53.667309 115.466328 
L 50.217498 114.089029 
L 46.584078 112.235019 
L 42.812038 109.822986 
L 38.970941 106.774838 
L 35.161034 103.024897 
L 31.518213 98.532096 
L 28.215517 93.29446 
L 25.457911 87.364006 
L 23.467044 80.858827 
L 22.454437 73.968056 
L 22.585692 66.945427 
L 23.943934 60.089145 
L 26.50477 53.709757 
L 30.133693 48.092375 
L 34.609087 43.462165 
L 39.663367 39.960965 
L 45.027927 37.638635 
L 50.468287 36.458236 
L 55.802439 36.311445 
L 60.903204 37.040073 
L 65.690293 38.459856 
L 70.118688 40.383018 
L 74.168045 42.63653 
L 77.835024 45.074036 
L 81.128346 47.581038 
L 84.065536 50.074453 
L 86.67043 52.498563 
L 90.997323 57.018739 
L 94.349168 61.031957 
L 96.957286 64.549695 
L 99.90106 69.014147 
L 104.60129 76.506314 
L 105.785997 78.03482 
L 107.008109 79.316566 
L 108.308869 80.352402 
L 109.722119 81.136686 
L 111.275066 81.658101 
L 112.988031 81.90063 
L 114.873139 81.844972 
L 116.931844 81.470746 
L 119.15128 80.759902 
L 121.49956 79.701711 
L 123.920545 78.299536 
L 126.329234 76.579089 
L 128.609745 74.59702 
L 130.618624 72.447451 
L 132.196188 70.262941 
L 132.773771 69.207705 
L 133.18703 68.206175 
L 133.421705 67.280181 
L 133.467293 66.450456 
L 133.317758 65.735621 
L 132.972029 65.151231 
L 132.434225 64.708947 
L 131.713577 64.415945 
L 130.824072 64.274608 
L 129.783824 64.282546 
L 128.614251 64.432942 
L 125.98356 65.115706 
L 123.132349 66.208512 
L 120.252717 67.580889 
L 117.505954 69.112772 
L 115.010576 70.710067 
L 112.840765 72.308267 
L 111.032452 73.867851 
L 109.593207 75.3664 
L 108.512607 76.791048 
L 107.771032 78.13286 
L 107.346124 79.383296 
L 107.216982 80.532249 
L 107.366546 81.567063 
L 107.78266 82.472042 
L 108.458214 83.228149 
L 109.390612 83.812788 
L 110.580655 84.199645 
L 112.03082 84.358705 
L 113.742769 84.256685 
L 115.713888 83.858205 
L 117.932575 83.128205 
L 120.372115 82.036191 
L 122.983215 80.562896 
L 125.685942 78.709659 
L 128.362829 76.510021 
L 130.856372 74.041536 
L 132.975279 71.433792 
L 133.829619 70.13233 
L 134.513491 68.866849 
L 135.00416 67.665021 
L 135.282505 66.554662 
L 135.334256 65.56237 
L 135.151033 64.712076 
L 134.731056 64.02365 
L 134.079467 63.511708 
L 133.208201 63.18474 
L 132.135434 63.044684 
L 130.884672 63.086984 
L 129.483553 63.301152 
L 127.962504 63.671743 
L 124.687903 64.803551 
L 121.308718 66.311609 
L 118.039485 68.031912 
L 115.040533 69.83512 
L 112.412452 71.635312 
L 110.202781 73.384234 
L 108.419367 75.059303 
L 107.045026 76.651869 
L 106.050072 78.158681 
L 105.401366 79.576822 
L 105.068047 80.901204 
L 105.024689 82.123547 
L 105.252718 83.232044 
L 105.740747 84.211213 
L 106.484243 85.04171 
L 107.484762 85.699998 
L 108.748783 86.157925 
L 110.28605 86.38233 
L 112.107205 86.334915 
L 114.22036 85.972764 
L 116.626163 85.250106 
L 119.310894 84.12212 
L 122.237252 82.551792 
L 125.333129 80.520736 
L 128.479872 78.044264 
L 131.503711 75.189227 
L 132.900062 73.658852 
L 134.17663 72.090123 
L 135.299365 70.511477 
L 136.234267 68.955334 
L 136.949125 67.457058 
L 137.415438 66.053484 
L 137.610353 64.781049 
L 137.518402 63.673693 
L 137.132829 62.760692 
L 136.456331 62.064673 
L 135.501133 61.600041 
L 134.288371 61.372022 
L 132.84688 61.376471 
L 131.211536 61.60046 
L 129.421338 62.023604 
L 127.517392 62.619944 
L 123.531821 64.21379 
L 119.557853 66.145893 
L 115.835155 68.217129 
L 112.521979 70.292298 
L 109.698083 72.298254 
L 107.381467 74.206305 
L 105.54991 76.012328 
L 104.160394 77.721814 
L 103.163328 79.34117 
L 102.511401 80.873762 
L 102.164286 82.318709 
L 102.090653 83.670894 
L 102.268631 84.921318 
L 102.68551 86.057347 
L 103.337093 87.062671 
L 104.22693 87.916934 
L 105.365456 88.59507 
L 106.768962 89.066392 
L 108.458201 89.293597 
L 110.456292 89.231888 
L 112.785447 88.828654 
L 115.461805 88.024392 
L 118.487531 86.75597 
L 121.839263 84.963806 
L 125.452451 82.604812 
L 129.202604 79.672594 
L 131.06926 78.006112 
L 132.887683 76.22438 
L 134.619278 74.349219 
L 136.220917 72.409564 
L 137.646289 70.441506 
L 138.8479 68.487724 
L 139.779676 66.596186 
L 140.400007 64.818061 
L 140.674907 63.204909 
L 140.58093 61.805349 
L 140.107405 60.661535 
L 139.257674 59.805846 
L 138.049141 59.258233 
L 136.512161 59.024617 
L 134.687947 59.096574 
L 132.625832 59.452405 
L 130.38021 60.05945 
L 128.007484 60.87735 
L 123.099723 62.968199 
L 118.296492 65.386061 
L 113.889543 67.870139 
L 110.050061 70.267893 
L 106.841326 72.518262 
L 104.249322 74.616089 
L 102.216149 76.580382 
L 100.666519 78.434648 
L 99.52464 80.197909 
L 98.723049 81.882208 
L 98.206146 83.493082 
L 97.930814 85.030973 
L 97.865675 86.492586 
L 97.9899 87.871855 
L 98.292012 89.160441 
L 98.768887 90.347791 
L 99.425025 91.420816 
L 100.272062 92.363221 
L 101.328492 93.154503 
L 102.619486 93.768617 
L 104.176669 94.172316 
L 106.037594 94.323202 
L 108.244542 94.167644 
L 110.841988 93.638923 
L 113.871731 92.656387 
L 117.364183 91.127071 
L 121.323756 88.952273 
L 123.467581 87.59389 
L 125.706137 86.042725 
L 128.021035 84.293704 
L 130.386487 82.346735 
L 132.768154 80.208436 
L 135.122292 77.893996 
L 137.395437 75.428968 
L 139.52496 72.850736 
L 141.440809 70.209296 
L 143.068654 67.566966 
L 144.334473 64.996642 
L 145.17028 62.578412 
L 145.520349 60.394534 
L 145.346989 58.523173 
L 144.634856 57.031597 
L 143.392982 55.969749 
L 141.654177 55.365212 
L 139.472037 55.22038 
L 136.916239 55.512369 
L 134.067 56.195757 
L 131.009517 57.207798 
L 127.828881 58.47535 
L 121.412899 61.477223 
L 115.354464 64.674292 
L 110.001128 67.728941 
L 105.505296 70.503225 
L 101.866651 72.991947 
L 98.994503 75.247631 
L 96.761765 77.332209 
L 95.039094 79.296159 
L 93.711303 81.173985 
L 92.682561 82.986526 
L 91.536432 85.605668 
L 90.699404 88.116851 
L 89.44667 92.822875 
L 88.433562 96.428257 
L 87.426243 99.123189 
L 86.454017 101.047819 
L 85.208138 102.899663 
L 84.176938 104.096181 
L 82.943546 105.260858 
L 81.464816 106.387921 
L 79.689909 107.464602 
L 77.559578 108.466951 
L 75.006161 109.353548 
L 71.955036 110.056357 
L 70.218564 110.307241 
L 68.328866 110.467969 
L 66.277377 110.516259 
L 64.056986 110.425184 
L 61.662902 110.162627 
L 59.093812 109.690891 
L 56.353408 108.966594 
L 53.452333 107.941041 
L 50.410614 106.561336 
L 47.260569 104.772521 
L 44.050075 102.521059 
L 40.845871 99.759918 
L 37.736272 96.455345 
L 34.832296 92.595072 
L 32.265798 88.197225 
L 30.183103 83.318556 
L 28.733072 78.06003 
L 28.049766 72.567531 
L 28.232047 67.025785 
L 29.324628 61.644895 
L 31.306258 56.640808 
L 34.089535 52.213008 
L 37.533364 48.523815 
L 41.464666 45.68318 
L 45.703015 43.741253 
L 50.081711 42.688949 
L 54.46121 42.465292 
L 58.734156 42.969555 
L 62.823911 44.075985 
L 66.679587 45.648887 
L 70.270274 47.555982 
L 73.580078 49.678454 
L 76.604443 51.91695 
L 79.34752 54.193686 
L 81.82016 56.451539 
L 86.020847 60.768011 
L 89.365828 64.703688 
L 92.029567 68.223126 
L 95.100363 72.772823 
L 100.699569 81.48938 
L 101.959792 83.026861 
L 103.281886 84.326475 
L 104.711917 85.383526 
L 106.291928 86.185364 
L 108.06071 86.711221 
L 110.053535 86.932104 
L 112.300571 86.811089 
L 114.823553 86.30454 
L 117.630155 85.365111 
L 120.70551 83.947631 
L 124.000651 82.01921 
L 127.418659 79.574582 
L 130.801422 76.656397 
L 132.411567 75.051633 
L 133.923168 73.377183 
L 135.298997 71.660649 
L 136.500157 69.935063 
L 137.487861 68.238143 
L 138.225581 66.611 
L 138.681428 65.096285 
L 138.830501 63.735863 
L 138.656947 62.568207 
L 138.155445 61.625762 
L 137.331919 60.932577 
L 136.203384 60.502527 
L 134.79695 60.338352 
L 133.148147 60.431677 
L 131.298775 60.764022 
L 129.294526 61.30868 
L 127.182595 62.033223 
L 122.818915 63.880358 
L 118.538693 66.033874 
L 114.591013 68.279481 
L 111.128164 70.483831 
L 108.214599 72.58454 
L 108.214599 72.58454 
" clip-path="url(#p6830c4e30f)" style="fill: none; stroke: #1f77b4; stroke-width: 1.5; stroke-linecap: round"/>
   </g>
   <g id="line2d_25">
    <path d="M 125.698062 101.793889 
L 127.552709 98.934455 
L 129.693915 95.997783 
L 142.791506 79.061448 
L 145.384655 75.192884 
L 147.745961 71.248255 
L 149.758666 67.314896 
L 151.302906 63.505829 
L 152.264172 59.954169 
L 152.543922 56.802851 
L 152.071112 54.190077 
L 150.812678 52.232171 
L 148.780668 51.006919 
L 146.033986 50.541174 
L 142.673724 50.80603 
L 138.832616 51.721161 
L 134.660637 53.167399 
L 130.309674 55.004402 
L 125.920136 57.089191 
L 117.477068 61.505186 
L 106.668076 67.554854 
L 98.574591 72.278664 
L 94.545246 74.793636 
L 91.39758 76.966974 
L 88.940522 78.922749 
L 87.000062 80.74829 
L 85.426655 82.496394 
L 83.488257 85.026432 
L 80.020398 89.774725 
L 78.739867 91.229837 
L 77.308714 92.59422 
L 75.681025 93.845311 
L 73.813726 94.9538 
L 71.666848 95.880637 
L 69.205509 96.573251 
L 66.40423 96.961276 
L 64.872479 97.013182 
L 63.254394 96.952468 
L 61.553403 96.763792 
L 59.77565 96.430374 
L 57.930583 95.934233 
L 56.031569 95.256624 
L 54.096516 94.378696 
L 52.14843 93.282449 
L 50.215833 91.95201 
L 48.332945 90.375247 
L 46.539491 88.545688 
L 44.880029 86.46466 
L 43.402658 84.143457 
L 42.157061 81.605282 
L 41.191872 78.886618 
L 40.551506 76.037648 
L 40.272703 73.12137 
L 40.381173 70.211192 
L 40.888804 67.387018 
L 41.791892 64.730104 
L 43.070728 62.317261 
L 44.690694 60.215184 
L 46.60475 58.475713 
L 48.756951 57.132671 
L 51.086504 56.200677 
L 53.53181 55.675914 
L 56.034011 55.538533 
L 58.539745 55.75616 
L 61.002956 56.287888 
L 63.385793 57.088189 
L 65.658749 58.110348 
L 67.800207 59.309177 
L 69.795632 60.642929 
L 71.636552 62.074468 
L 73.319493 63.571803 
L 74.844943 65.108154 
L 77.439623 68.214994 
L 79.471098 71.270419 
L 81.005892 74.202983 
L 82.113314 76.977368 
L 82.857602 79.581022 
L 83.293739 82.01476 
L 83.465656 84.286558 
L 83.405852 86.407604 
L 83.13578 88.389817 
L 82.66657 90.244252 
L 81.999815 91.979969 
L 81.128289 93.603072 
L 80.036553 95.115683 
L 78.701495 96.514601 
L 77.092941 97.78945 
L 75.174619 98.920041 
L 72.905895 99.872688 
L 70.244975 100.595276 
L 67.154604 101.011036 
L 65.44023 101.071396 
L 63.611676 101.011546 
L 61.67076 100.811966 
L 59.622481 100.450596 
L 57.475891 99.902985 
L 55.245085 99.142692 
L 52.950248 98.142032 
L 50.618684 96.873269 
L 48.28572 95.310354 
L 45.995309 93.431281 
L 43.800119 91.221073 
L 41.760857 88.675281 
L 39.944578 85.803747 
L 38.421805 82.634182 
L 37.262398 79.214898 
L 36.530361 75.615959 
L 36.278049 71.927989 
L 36.540524 68.258165 
L 37.330966 64.723377 
L 38.638046 61.441158 
L 40.425897 58.519629 
L 42.636824 56.048058 
L 45.19637 54.089625 
L 48.019874 52.677529 
L 51.019414 51.814858 
L 54.110139 51.477828 
L 57.215215 51.62144 
L 60.269059 52.186302 
L 63.218865 53.10546 
L 66.024723 54.310355 
L 68.658718 55.735426 
L 71.103416 57.321206 
L 73.350101 59.016046 
L 75.396979 60.776725 
L 77.247538 62.568262 
L 78.909109 64.363222 
L 81.706906 67.885546 
L 83.886181 71.237314 
L 85.549727 74.370558 
L 86.795046 77.272248 
L 87.708264 79.948495 
L 88.361831 82.414827 
L 88.980221 85.763173 
L 89.289843 88.74899 
L 89.380474 92.268365 
L 89.207936 95.36494 
L 88.809569 98.128386 
L 88.350229 100.025127 
L 87.721574 101.798874 
L 86.875656 103.471068 
L 85.743007 105.059643 
L 84.782204 106.07862 
L 83.614763 107.067178 
L 82.195612 108.022835 
L 80.470283 108.937203 
L 78.373832 109.79236 
L 75.830451 110.5552 
L 72.754671 111.1689 
L 69.055843 111.540419 
L 66.945475 111.592233 
L 64.648823 111.523237 
L 62.159617 111.303205 
L 59.475516 110.895795 
L 56.599842 110.258017 
L 53.543755 109.340041 
L 50.328847 108.085602 
L 46.990103 106.433357 
L 43.579015 104.319611 
L 40.166482 101.682897 
L 36.844864 98.47079 
L 33.728341 94.649107 
L 30.950495 90.213092 
L 28.658097 85.199355 
L 27.000441 79.696314 
L 26.114494 73.849954 
L 26.107485 67.86148 
L 27.040016 61.974445 
L 28.913681 56.451354 
L 31.66686 51.54314 
L 35.180506 47.457828 
L 39.29299 44.335746 
L 43.820465 42.23692 
L 48.577954 41.142577 
L 53.39689 40.968601 
L 58.136603 41.58606 
L 62.68934 42.843297 
L 66.979972 44.585252 
L 70.962243 46.667637 
L 74.613375 48.965449 
L 77.928413 51.376579 
L 80.915109 53.821844 
L 83.589723 56.24281 
L 85.973792 58.598543 
L 89.969319 63.017191 
L 93.105683 66.973758 
L 95.578679 70.4565 
L 98.418726 74.859657 
L 101.949232 80.348097 
L 103.234746 81.99132 
L 104.560489 83.347901 
L 105.984369 84.423723 
L 107.555189 85.215006 
L 109.314064 85.708492 
L 111.294594 85.881836 
L 113.521499 85.704501 
L 116.007409 85.139667 
L 118.747512 84.147931 
L 121.711918 82.693825 
L 124.83612 80.756227 
L 128.010919 78.343324 
L 131.074771 75.511326 
L 132.499982 73.973599 
L 133.813537 72.383261 
L 134.982644 70.767995 
L 135.973927 69.160117 
L 136.754919 67.595715 
L 137.295809 66.113278 
L 137.571338 64.751836 
L 137.562672 63.548728 
L 137.25906 62.537175 
L 136.659064 61.743933 
L 135.771176 61.187329 
L 134.613702 60.875946 
L 133.213882 60.808173 
L 131.606325 60.972687 
L 129.830938 61.349801 
L 127.930569 61.913472 
L 123.927088 63.478823 
L 119.914797 65.422399 
L 116.143935 67.531301 
L 112.778904 69.655964 
L 109.904694 71.711103 
L 107.545396 73.660184 
L 105.685118 75.495916 
L 104.285965 77.224104 
L 103.301319 78.853129 
L 102.684628 80.388433 
L 102.394657 81.830378 
L 102.398253 83.173947 
L 102.671479 84.409172 
L 103.199747 85.52164 
L 103.977357 86.492736 
L 105.006651 87.299519 
L 106.296869 87.914237 
L 107.862606 88.303582 
L 109.721681 88.427872 
L 111.892052 88.240483 
L 114.387299 87.688051 
L 117.210057 86.712287 
L 120.342843 85.254639 
L 123.73597 83.26544 
L 127.293175 80.719191 
L 129.086891 79.241157 
L 130.857303 77.636774 
L 132.573733 75.920367 
L 134.201224 74.112511 
L 135.701157 72.240544 
L 137.032317 70.338686 
L 138.152439 68.447594 
L 139.020248 66.613218 
L 139.597888 64.884884 
L 139.853575 63.312631 
L 139.764245 61.943968 
L 139.317846 60.820352 
L 138.514981 59.973841 
L 137.369597 59.424379 
L 135.908549 59.178173 
L 134.170052 59.227445 
L 132.20117 59.551618 
L 130.054658 60.119731 
L 127.785585 60.893708 
L 123.092733 62.892705 
L 118.500761 65.230498 
L 114.282756 67.657962 
L 110.597328 70.021129 
L 107.507372 72.249257 
L 105.009161 74.326782 
L 103.059874 76.26598 
L 101.598658 78.08766 
L 100.560709 79.810456 
L 99.8857 81.44644 
L 99.522236 83.000384 
L 99.429773 84.47068 
L 99.579018 85.850654 
L 99.951545 87.129673 
L 100.53905 88.293749 
L 101.342502 89.325618 
L 102.37129 90.204301 
L 103.642357 90.904212 
L 105.179214 91.39389 
L 107.010586 91.634465 
L 109.168328 91.57804 
L 111.684037 91.166366 
L 114.58357 90.330507 
L 117.878492 88.992715 
L 121.553367 87.072485 
L 125.548245 84.499572 
L 127.629494 82.954639 
L 129.737035 81.237032 
L 131.841131 79.353054 
L 133.905522 77.315977 
L 135.887398 75.147432 
L 137.737893 72.878577 
L 139.403216 70.550779 
L 140.826567 68.215518 
L 141.950871 65.933235 
L 142.722267 63.770895 
L 143.094156 61.798209 
L 143.031389 60.082688 
L 142.514101 58.684015 
L 141.540568 57.648452 
L 140.128556 57.004216 
L 138.314799 56.758647 
L 136.152567 56.897774 
L 133.707613 57.388398 
L 131.053101 58.182327 
L 128.264247 59.221952 
L 125.413401 60.446198 
L 119.778482 63.218049 
L 114.552367 66.112187 
L 109.969764 68.890985 
L 106.121082 71.453014 
L 102.997734 73.787051 
L 100.534998 75.925671 
L 98.643615 77.913098 
L 97.229779 79.788327 
L 96.206286 81.579021 
L 95.497818 83.301359 
L 95.042722 84.962358 
L 94.792834 86.562706 
L 94.727479 88.841861 
L 94.969506 90.957981 
L 95.487334 92.887505 
L 95.987036 94.056999 
L 96.620684 95.122187 
L 97.404083 96.07167 
L 98.359226 96.891087 
L 99.514523 97.561822 
L 100.905126 98.059343 
L 102.573184 98.351103 
L 104.567748 98.393932 
L 106.943868 98.130957 
L 109.760138 97.488242 
L 113.073483 96.371835 
L 116.929402 94.666729 
L 121.345289 92.240715 
L 123.754739 90.714449 
L 126.284182 88.958288 
L 128.914374 86.959919 
L 131.6175 84.71211 
L 134.355692 82.215195 
L 137.079769 79.479954 
L 139.728461 76.530742 
L 142.228449 73.408504 
L 144.495634 70.173138 
L 146.437998 66.904519 
L 147.960343 63.701328 
L 148.970941 60.676961 
L 149.389701 57.952097 
L 149.157025 55.644168 
L 148.241993 53.854849 
L 146.648299 52.657593 
L 144.416482 52.087748 
L 141.621576 52.137638 
L 138.366318 52.757978 
L 134.771052 53.865473 
L 130.962223 55.354844 
L 127.061521 57.112577 
L 119.399155 61.010854 
L 112.414746 64.885226 
L 103.828454 69.942381 
L 99.409865 72.731754 
L 95.913892 75.146952 
L 93.18473 77.297349 
L 91.062781 79.275835 
L 89.401899 81.147829 
L 88.075833 82.95307 
L 86.488721 85.576532 
L 82.87176 92.110467 
L 81.817068 93.60987 
L 80.614687 95.039025 
L 79.222841 96.385893 
L 77.598258 97.633816 
L 75.695519 98.758763 
L 73.467448 99.725564 
L 70.867084 100.482935 
L 67.852143 100.957244 
L 66.179188 101.057377 
L 64.393228 101.04538 
L 62.494832 100.902649 
L 60.487449 100.608056 
L 58.378239 100.138021 
L 56.179008 99.4668 
L 53.907231 98.567069 
L 51.587097 97.410925 
L 49.250477 95.971382 
L 46.937668 94.224469 
L 44.697713 92.151955 
L 42.588073 89.744652 
L 40.673374 87.006108 
L 39.023031 83.956312 
L 37.707625 80.634858 
L 36.794118 77.102826 
L 36.340237 73.442622 
L 36.38868 69.755169 
L 36.961988 66.154188 
L 38.059027 62.757955 
L 39.65385 59.679482 
L 41.697292 57.016648 
L 44.121146 54.8439 
L 46.844218 53.206913 
L 49.779233 52.120915 
L 52.839511 51.572628 
L 55.944538 51.525063 
L 59.023913 51.923998 
L 62.019553 52.704913 
L 64.886346 53.799381 
L 67.591618 55.14025 
L 70.113837 56.665347 
L 72.440909 58.319744 
L 74.568389 60.056787 
L 76.497758 61.838199 
L 78.234901 63.633567 
L 79.788814 65.419466 
L 82.392402 68.897935 
L 84.407979 72.187293 
L 85.937575 75.25187 
L 87.075645 78.085532 
L 87.9043 80.697898 
L 88.712709 84.239599 
L 89.150029 87.38833 
L 89.333452 90.207657 
L 89.303254 93.54812 
L 89.029912 96.504785 
L 88.523203 99.158789 
L 87.963451 100.989934 
L 87.206371 102.710212 
L 86.191513 104.33917 
L 85.330837 105.382034 
L 84.285566 106.393577 
L 83.015526 107.373562 
L 81.471894 108.317277 
L 79.595985 109.212732 
L 77.318412 110.036268 
L 74.559252 110.745809 
L 71.230408 111.270791 
L 67.242325 111.497759 
L 64.976045 111.447663 
L 62.518638 111.251169 
L 59.867199 110.872957 
L 57.024205 110.271162 
L 53.999615 109.39713 
L 50.813393 108.195727 
L 47.498403 106.606538 
L 44.103494 104.566371 
L 40.696432 102.013524 
L 37.366095 98.894233 
L 34.223109 95.171475 
L 31.397892 90.835839 
L 29.035059 85.917361 
L 27.283474 80.496252 
L 26.282047 74.709453 
L 26.142677 68.749629 
L 26.933203 62.853968 
L 28.664245 57.282367 
L 31.283676 52.28787 
L 34.680899 48.085282 
L 38.700392 44.82522 
L 43.161369 42.579595 
L 47.878872 41.341051 
L 52.681907 41.034763 
L 57.425832 41.538069 
L 61.998284 42.702443 
L 66.319606 44.373282 
L 70.339544 46.404819 
L 74.032063 48.66943 
L 77.389714 51.061906 
L 80.41844 53.499957 
L 83.13326 55.922326 
L 85.554909 58.28569 
L 89.616042 62.730996 
L 92.804409 66.721314 
L 95.316284 70.23936 
L 98.192927 74.69346 
L 101.73902 80.258863 
L 103.018708 81.931402 
L 104.33328 83.317536 
L 105.741468 84.423946 
L 107.29285 85.247659 
L 109.029378 85.776192 
L 110.985698 85.987879 
L 113.187961 85.852643 
L 115.65083 85.333712 
L 118.372342 84.391028 
L 121.326456 82.987356 
L 124.453566 81.098224 
L 127.650171 78.726473 
L 130.760467 75.920896 
L 132.219604 74.388124 
L 133.574652 72.795744 
L 134.792801 71.170441 
L 135.840292 69.543756 
L 136.683856 67.951345 
L 137.292435 66.431719 
L 137.639082 65.024475 
L 137.702893 63.768101 
L 137.470771 62.697533 
L 136.93881 61.841712 
L 136.113092 61.221455 
L 135.009764 60.84793 
L 133.654328 60.721963 
L 132.080206 60.834304 
L 130.326731 61.166801 
L 128.436801 61.694318 
L 124.422602 63.213222 
L 120.365816 65.14063 
L 116.528758 67.254753 
L 113.087142 69.396588 
L 110.134582 71.473566 
L 107.700663 73.444797 
L 105.772307 75.301132 
L 104.312485 77.048145 
L 103.2742 78.694834 
L 102.609818 80.247566 
L 102.276688 81.707648 
L 102.240146 83.070923 
L 102.474785 84.32819 
L 102.964669 85.465752 
L 103.702918 86.465724 
L 104.69091 87.305959 
L 105.937192 87.959606 
L 107.45603 88.394366 
L 109.265428 88.571638 
L 111.384268 88.445824 
L 113.828109 87.964287 
L 116.603037 87.068726 
L 119.696954 85.699155 
L 123.067905 83.802073 
L 126.629794 81.344601 
L 130.237423 78.335696 
L 131.993944 76.64531 
L 133.675472 74.853191 
L 135.244242 72.984242 
L 136.659336 71.070394 
L 137.878069 69.150405 
L 138.857863 67.268995 
L 139.558593 65.475203 
L 139.945228 63.81996 
L 139.990578 62.35297 
L 139.677822 61.119169 
L 139.00248 60.155173 
L 137.973525 59.486187 
L 136.613392 59.12387 
L 134.956807 59.065528 
L 133.048565 59.294783 
L 130.940499 59.783619 
L 128.688062 60.495471 
L 126.346919 61.388839 
L 121.6049 63.550677 
L 117.067259 65.962032 
L 112.972339 68.400518 
L 109.445922 70.740289 
L 106.525722 72.931895 
L 104.191544 74.972323 
L 102.391459 76.879311 
L 101.060785 78.674687 
L 100.134288 80.375921 
L 99.553177 81.993207 
L 99.268596 83.529504 
L 99.242922 84.981754 
L 99.449823 86.34223 
L 99.873688 87.599547 
L 100.508818 88.739132 
L 101.358562 89.743162 
L 102.434483 90.589995 
L 103.755519 91.253166 
L 105.346992 91.700025 
L 107.239207 91.890112 
L 109.46523 91.7735 
L 112.057243 91.289497 
L 115.040617 90.366479 
L 118.424667 88.924228 
L 122.188991 86.880893 
L 124.194759 85.611173 
L 126.26482 84.167574 
L 128.379288 82.547664 
L 130.512385 80.753673 
L 132.631883 78.793922 
L 134.698807 76.684316 
L 136.667552 74.44973 
L 138.486567 72.125105 
L 140.099751 69.75594 
L 141.448678 67.397897 
L 142.475674 65.11522 
L 143.127622 62.977784 
L 143.360234 61.056772 
L 143.142316 59.419269 
L 142.459467 58.122364 
L 141.316561 57.207589 
L 139.738522 56.696669 
L 137.769104 56.589391 
L 135.467748 56.864063 
L 132.904955 57.480522 
L 130.156849 58.385115 
L 127.299739 59.516732 
L 121.537262 62.214746 
L 116.081368 65.140534 
L 111.223638 68.002597 
L 107.096072 70.659437 
L 103.714694 73.07813 
L 101.026018 75.283893 
L 98.943291 77.321862 
L 97.370261 79.235366 
L 96.214871 81.056963 
L 95.396088 82.806983 
L 94.846504 84.495491 
L 94.512561 86.125233 
L 94.330112 88.454829 
L 94.452995 90.631625 
L 94.83655 92.634929 
L 95.473412 94.44174 
L 96.049517 95.524098 
L 96.762939 96.497503 
L 97.634048 97.349601 
L 98.689349 98.064338 
L 99.961897 98.620471 
L 101.491725 98.989649 
L 103.32609 99.134002 
L 105.519162 99.00316 
L 108.130569 98.530812 
L 111.221815 97.631164 
L 114.849029 96.196352 
L 119.049828 94.097006 
L 121.366868 92.753516 
L 123.821487 91.190146 
L 126.401605 89.39048 
L 129.087821 87.341195 
L 131.851811 85.034152 
L 134.654737 82.469014 
L 137.44588 79.656318 
L 140.161757 76.620817 
L 142.726114 73.404742 
L 145.051205 70.070391 
L 147.040788 66.701286 
L 148.595146 63.400994 
L 149.61816 60.288774 
L 150.02606 57.491605 
L 149.756893 55.132834 
L 148.77927 53.318696 
L 147.09864 52.124926 
L 144.759496 51.586271 
L 141.842621 51.691495 
L 138.457538 52.38532 
L 134.731504 53.577031 
L 130.797138 55.153726 
L 126.780941 56.995166 
L 118.928682 61.031678 
L 111.8127 64.993483 
L 103.116915 70.100085 
L 98.662544 72.889108 
L 95.145618 75.291988 
L 92.401163 77.425748 
L 90.26325 79.3872 
L 88.581429 81.243267 
L 87.226463 83.033835 
L 85.576362 85.636381 
L 82.175613 91.334792 
L 81.063335 92.83717 
L 79.803305 94.264819 
L 78.352224 95.603142 
L 76.666346 96.832422 
L 74.700996 97.924971 
L 72.411297 98.841282 
L 69.754699 99.525096 
L 66.696199 99.897488 
L 65.009509 99.934481 
L 63.217492 99.850606 
L 61.322842 99.627055 
L 59.331456 99.242846 
L 57.253242 98.675036 
L 55.102995 97.899186 
L 52.901316 96.89015 
L 50.675477 95.623281 
L 48.460129 94.076126 
L 46.297696 92.230645 
L 44.238265 90.075956 
L 42.33876 87.611449 
L 40.6612 84.850045 
L 39.269912 81.821144 
L 38.227714 78.572728 
L 37.591244 75.171956 
L 37.405898 71.703691 
L 37.701013 68.266602 
L 38.486073 64.966912 
L 39.748671 61.910394 
L 41.454704 59.193672 
L 43.550891 56.896174 
L 45.969252 55.07404 
L 48.632814 53.756897 
L 51.461645 52.947792 
L 54.378358 52.625987 
L 57.312467 52.751793 
L 60.203296 53.272439 
L 63.001442 54.127984 
L 65.668999 55.256557 
L 68.17888 56.598461 
L 70.513584 58.099025 
L 72.663675 59.710261 
L 74.626226 61.391549 
L 76.403349 63.109597 
L 78.000891 64.837922 
L 80.692896 68.248738 
L 82.786758 71.5168 
L 84.375417 74.590538 
L 85.548096 77.452672 
L 86.383993 80.105439 
L 86.949643 82.561204 
L 87.298453 84.836853 
L 87.501714 87.952373 
L 87.399683 90.76238 
L 87.039398 93.318545 
L 86.430605 95.663815 
L 85.551194 97.832365 
L 84.79016 99.192652 
L 83.863456 100.490485 
L 82.741618 101.727751 
L 81.388052 102.902319 
L 79.758409 104.00616 
L 77.800179 105.022429 
L 75.452898 105.921038 
L 72.649732 106.652177 
L 69.321667 107.137186 
L 67.440672 107.252003 
L 65.406368 107.256474 
L 63.214714 107.126895 
L 60.864771 106.835222 
L 58.359924 106.348781 
L 55.709382 105.630224 
L 52.929929 104.637879 
L 50.047904 103.326713 
L 47.101252 101.650136 
L 44.141455 99.56293 
L 41.234973 97.025519 
L 38.46372 94.00967 
L 35.923978 90.505479 
L 33.723125 86.529047 
L 31.973721 82.129748 
L 30.784867 77.395435 
L 30.25142 72.453651 
L 30.442425 67.467087 
L 31.390825 62.622457 
L 33.086775 58.113517 
L 35.476405 54.120782 
L 38.466722 50.791806 
L 41.935813 48.226139 
L 45.746205 46.467891 
L 49.758628 45.506826 
L 53.843758 45.286708 
L 57.890407 45.718186 
L 61.809763 46.693067 
L 65.53618 48.097362 
L 69.025493 49.821488 
L 72.251918 51.76705 
L 75.204424 53.850425 
L 77.883191 56.003815 
L 80.296485 58.174551 
L 82.458087 60.32338 
L 84.385274 62.422316 
L 87.614315 66.40176 
L 90.143627 70.035199 
L 92.127231 73.308237 
L 94.375774 77.580765 
L 98.503785 85.897211 
L 99.501584 87.393955 
L 100.591943 88.678059 
L 101.818799 89.747119 
L 103.224388 90.590652 
L 104.850562 91.189261 
L 106.739279 91.513564 
L 108.93196 91.523029 
L 111.467231 91.165034 
L 114.376341 90.374806 
L 117.675321 89.077447 
L 121.352857 87.193985 
L 125.353196 84.654222 
L 127.439612 83.124051 
L 129.55471 81.419514 
L 131.669323 79.546402 
L 133.747718 77.517358 
L 135.747534 75.35331 
L 137.62022 73.084676 
L 139.312107 70.752115 
L 140.766259 68.406533 
L 141.925151 66.108027 
L 142.734132 63.923563 
L 143.145459 61.923287 
L 143.122542 60.175623 
L 142.643866 58.741624 
L 141.705994 57.669295 
L 140.325079 56.988785 
L 138.536515 56.709343 
L 136.392641 56.818657 
L 133.958772 57.284751 
L 131.308133 58.060102 
L 128.516452 59.087203 
L 125.656927 60.304582 
L 119.991428 63.076384 
L 114.724502 65.981977 
L 110.098257 68.776479 
L 106.207948 71.35375 
L 103.047461 73.700457 
L 100.552858 75.84883 
L 98.634654 77.843638 
L 97.198306 79.72469 
L 96.155658 81.520421 
L 95.430407 83.24762 
L 94.959954 84.913738 
L 94.695263 86.519768 
L 94.607009 88.808979 
L 94.823094 90.937574 
L 95.309514 92.88279 
L 95.783985 94.065099 
L 96.387997 95.145558 
L 97.136428 96.11345 
L 98.050229 96.955326 
L 99.156668 97.653777 
L 100.489673 98.185858 
L 102.090161 98.521084 
L 104.006092 98.618927 
L 106.291844 98.425789 
L 109.006248 97.871622 
L 112.208171 96.866697 
L 115.948014 95.299813 
L 120.252802 93.040525 
L 122.61342 91.607602 
L 125.102169 89.950055 
L 127.703321 88.053596 
L 130.393204 85.908031 
L 133.138659 83.509552 
L 135.895618 80.863488 
L 138.608029 77.987408 
L 141.207442 74.914313 
L 143.613639 71.695453 
L 145.736719 68.402138 
L 147.480995 65.125726 
L 148.750851 61.974951 
L 149.458425 59.069973 
L 149.532452 56.533029 
L 148.927126 54.476392 
L 147.629438 52.989314 
L 145.663356 52.126361 
L 143.089628 51.899806 
L 140.000839 52.278027 
L 136.512419 53.190543 
L 132.75129 54.538576 
L 128.844235 56.208694 
L 124.907954 58.086584 
L 117.32536 62.068403 
L 107.547823 67.636222 
L 100.14928 72.157041 
L 96.441632 74.648006 
L 93.541184 76.84726 
L 91.285091 78.854688 
L 89.521745 80.742937 
L 88.119008 82.557454 
L 86.453479 85.189754 
L 82.23425 92.510159 
L 81.105566 93.982715 
L 79.811483 95.378805 
L 78.309379 96.683924 
L 76.555077 97.877742 
L 74.502643 98.93092 
L 72.105486 99.800832 
L 69.319428 100.426083 
L 66.108818 100.71994 
L 64.337977 100.706855 
L 62.457093 100.563477 
L 60.469804 100.269072 
L 58.383412 99.800559 
L 56.209795 99.132809 
L 53.966391 98.239234 
L 51.6772 97.092782 
L 49.373705 95.667408 
L 47.095564 93.940122 
L 44.890898 91.89364 
L 42.815923 89.519567 
L 40.933717 86.821954 
L 39.311891 83.820835 
L 38.019073 80.555226 
L 37.120289 77.084892 
L 36.671568 73.490143 
L 36.714376 69.869103 
L 37.270698 66.332213 
L 38.339662 62.994327 
L 39.896414 59.965308 
L 41.893614 57.340564 
L 44.265395 55.193054 
L 46.933124 53.568081 
L 49.81203 52.481584 
L 52.81763 51.921871 
L 55.871149 51.854113 
L 58.903393 52.226497 
L 61.856977 52.976879 
L 64.687045 54.038954 
L 67.360831 55.347318 
L 69.856465 56.841127 
L 72.161367 58.466375 
L 74.270522 60.176973 
L 76.184814 61.934924 
L 77.909546 63.70988 
L 79.453162 65.478331 
L 82.040531 68.930027 
L 84.042928 72.201806 
L 85.559681 75.256022 
L 86.683139 78.084857 
L 87.493743 80.696629 
L 88.058344 83.107441 
L 88.557579 86.388685 
L 88.751384 89.324972 
L 88.720684 91.974067 
L 88.508079 94.384819 
L 88.126585 96.597639 
L 87.565085 98.645894 
L 86.790561 100.557187 
L 85.74739 102.353774 
L 84.863623 103.495875 
L 83.793119 104.59643 
L 82.496952 105.654565 
L 80.927941 106.664502 
L 79.0297 107.612726 
L 76.73614 108.473616 
L 73.972091 109.202836 
L 70.656245 109.727647 
L 68.765984 109.87966 
L 66.708522 109.93339 
L 64.476513 109.865087 
L 62.065229 109.646069 
L 59.473826 109.242167 
L 56.706941 108.613341 
L 53.776653 107.713643 
L 50.704801 106.49174 
L 47.525566 104.892309 
L 44.288139 102.858658 
L 41.059117 100.336952 
L 37.92409 97.282331 
L 34.987692 93.666994 
L 32.371226 89.489836 
L 30.207054 84.786567 
L 28.629253 79.638396 
L 27.760827 74.176695 
L 27.698817 68.580866 
L 28.499833 63.067478 
L 30.169252 57.870658 
L 32.657072 53.216382 
L 35.862056 49.29569 
L 39.643605 46.242776 
L 43.838679 44.122767 
L 48.279961 42.931203 
L 52.811613 42.603905 
L 57.300304 43.033572 
L 61.64081 44.088604 
L 65.756886 45.63034 
L 69.598816 47.526387 
L 73.139157 49.659243 
L 76.367927 51.930589 
L 79.288035 54.262236 
L 81.911372 56.594856 
L 84.255699 58.885493 
L 88.1942 63.233296 
L 91.288342 67.180789 
L 93.721263 70.698787 
L 96.488049 75.212051 
L 100.416656 81.917741 
L 101.597687 83.572629 
L 102.831041 84.965673 
L 104.171255 86.100734 
L 105.666271 86.972503 
L 107.359001 87.56622 
L 109.287788 87.857419 
L 111.485494 87.811911 
L 113.976777 87.386448 
L 116.773109 86.5308 
L 119.864998 85.192405 
L 123.2112 83.325093 
L 126.725439 80.903524 
L 130.262728 77.944208 
L 131.976143 76.285885 
L 133.609995 74.531536 
L 135.127413 72.706397 
L 136.488708 70.842373 
L 137.652761 68.977754 
L 138.578887 67.156279 
L 139.2291 65.425481 
L 139.570647 63.834287 
L 139.57859 62.430017 
L 139.238143 61.255032 
L 138.546453 60.343417 
L 137.513535 59.718159 
L 136.162165 59.389264 
L 134.526673 59.35313 
L 132.650762 59.593292 
L 130.584611 60.082445 
L 128.381633 60.785382 
L 126.095281 61.662401 
L 121.470248 63.777246 
L 117.047597 66.134655 
L 113.05624 68.5225 
L 109.617872 70.819664 
L 106.770048 72.977217 
L 104.494687 74.990402 
L 102.742956 76.874483 
L 101.453476 78.648939 
L 100.564105 80.329342 
L 100.018788 81.924447 
L 99.771027 83.436112 
L 99.785221 84.860345 
L 100.036789 86.188511 
L 100.511665 87.408207 
L 101.205519 88.503632 
L 102.122903 89.455442 
L 103.276363 90.240109 
L 104.685478 90.828877 
L 106.375638 91.186395 
L 108.37626 91.269192 
L 110.717983 91.024269 
L 113.428162 90.388366 
L 116.52379 89.288842 
L 120.000836 87.647781 
L 123.819165 85.39166 
L 125.829171 84.015424 
L 127.883081 82.46949 
L 129.956689 80.755762 
L 132.019769 78.881763 
L 134.035784 76.86201 
L 135.961966 74.719303 
L 137.749901 72.485759 
L 139.346769 70.203324 
L 140.697316 67.923502 
L 141.746623 65.70603 
L 142.443548 63.616319 
L 142.74464 61.721647 
L 142.618113 60.086302 
L 142.047381 58.766196 
L 141.033579 57.803645 
L 139.596592 57.223189 
L 137.77429 57.029216 
L 135.619974 57.205878 
L 133.198362 57.719366 
L 130.580681 58.522116 
L 127.839588 59.558191 
L 125.044564 60.76889 
L 119.534217 63.494439 
L 114.434349 66.332916 
L 109.967353 69.060116 
L 106.218188 71.580484 
L 103.177651 73.883271 
L 100.783105 75.998827 
L 98.948537 77.968421 
L 97.583662 79.828366 
L 96.604629 81.60426 
L 95.93917 83.310811 
L 95.528356 84.953996 
L 95.326492 86.533706 
L 95.300094 88.046011 
L 95.542627 90.174247 
L 95.876369 91.488361 
L 96.345526 92.708466 
L 96.956314 93.82443 
L 97.721672 94.824268 
L 98.661098 95.693218 
L 99.800692 96.412509 
L 101.173297 96.957769 
L 102.818587 97.297023 
L 104.78281 97.388236 
L 107.117768 97.176442 
L 109.878292 96.590693 
L 113.117098 95.541478 
L 116.875404 93.920054 
L 121.167099 91.602462 
L 123.504004 90.142708 
L 125.954208 88.462934 
L 128.499198 86.551954 
L 131.112463 84.403383 
L 133.758159 82.017897 
L 136.389981 79.405852 
L 138.950469 76.590106 
L 141.371073 73.608726 
L 143.573295 70.517129 
L 145.471277 67.389005 
L 146.976049 64.315338 
L 148.001486 61.400834 
L 148.471655 58.757408 
L 148.32882 56.494888 
L 147.540961 54.709866 
L 146.107417 53.4744 
L 144.061348 52.826755 
L 141.468174 52.766312 
L 138.419993 53.25397 
L 135.026842 54.218131 
L 131.406406 55.564922 
L 127.67396 57.190402 
L 123.934101 58.992283 
L 116.766438 62.776616 
L 110.382523 66.399573 
L 102.669222 71.074031 
L 98.74247 73.678933 
L 95.651885 75.973289 
L 93.248157 78.052886 
L 91.384541 79.993976 
L 89.929307 81.847928 
L 88.769943 83.644593 
L 87.385979 86.260655 
L 84.245792 92.778519 
L 82.825721 95.010809 
L 81.700176 96.419709 
L 80.385941 97.755513 
L 78.84072 99.005591 
L 77.018444 100.150657 
L 74.869263 101.161142 
L 72.340866 101.992243 
L 69.38195 102.577386 
L 67.726907 102.748998 
L 65.949193 102.820131 
L 64.046653 102.772601 
L 62.019569 102.585301 
L 59.871492 102.234091 
L 57.610233 101.691848 
L 55.248999 100.928777 
L 52.80764 99.913108 
L 50.313932 98.612285 
L 47.804757 96.994814 
L 45.327017 95.032859 
L 42.937986 92.705651 
L 40.704825 90.003625 
L 38.702893 86.933029 
L 37.012609 83.520471 
L 35.714722 79.816638 
L 34.884167 75.898189 
L 34.583031 71.866847 
L 34.853548 67.844937 
L 35.712311 63.967277 
L 37.146895 60.370129 
L 39.115735 57.17877 
L 41.5515 54.495808 
L 44.367415 52.392316 
L 47.465408 50.903291 
L 50.744619 50.027898 
L 54.108968 49.733926 
L 57.472865 49.965118 
L 60.764706 50.649724 
L 63.928257 51.708801 
L 66.922373 53.063209 
L 69.719578 54.638774 
L 72.304049 56.369559 
L 74.669392 58.199465 
L 76.816508 60.082554 
L 78.751694 61.982504 
L 80.485038 63.871552 
L 83.398031 67.54101 
L 85.66958 70.991653 
L 87.417267 74.184544 
L 88.75036 77.114913 
L 89.764459 79.795411 
L 90.859321 83.39256 
L 91.835379 87.513124 
L 93.269748 93.966862 
L 93.883925 95.890345 
L 94.641441 97.570441 
L 95.259545 98.554868 
L 95.995018 99.425922 
L 96.875023 100.175167 
L 97.931556 100.78938 
L 99.202515 101.249215 
L 100.732703 101.527349 
L 102.574606 101.585978 
L 104.788609 101.373578 
L 107.442073 100.820937 
L 110.606221 99.836762 
L 114.349164 98.303851 
L 118.722473 96.078103 
L 121.151629 94.654347 
L 123.737834 92.994972 
L 126.470258 91.07977 
L 129.330111 88.891359 
L 132.288704 86.417539 
L 135.305451 83.654316 
L 138.326044 80.609576 
L 141.281122 77.30721 
L 144.085887 73.791309 
L 146.641223 70.129729 
L 148.836885 66.416057 
L 150.557223 62.768784 
L 151.689586 59.326516 
L 152.134981 56.23848 
L 151.819865 53.650518 
L 150.707155 51.688092 
L 148.804167 50.439247 
L 146.165312 49.941332 
L 142.888349 50.174997 
L 139.104485 51.067389 
L 134.964221 52.503976 
L 130.62182 54.34605 
L 126.221397 56.449674 
L 117.715775 60.932802 
L 106.769765 67.104595 
L 98.545699 71.922774 
L 94.44547 74.477584 
L 91.240763 76.675511 
L 88.73881 78.644982 
L 86.763243 80.477155 
L 85.162124 82.227602 
L 83.191416 84.756686 
L 79.673384 89.492963 
L 78.376996 90.940225 
L 76.929851 92.293696 
L 75.28628 93.529829 
L 73.403947 94.618162 
L 71.24423 95.51837 
L 68.774372 96.176594 
L 65.971998 96.521392 
L 64.443767 96.548193 
L 62.832752 96.460089 
L 61.143102 96.241905 
L 59.381746 95.877179 
L 57.558956 95.348445 
L 55.688932 94.63771 
L 53.790371 93.727163 
L 51.886957 92.600165 
L 50.007694 91.242549 
L 48.186977 89.644227 
L 46.46429 87.801056 
L 44.883414 85.716875 
L 43.491042 83.405495 
L 42.334766 80.892409 
L 41.460454 78.215868 
L 40.909182 75.426988 
L 40.713973 72.588585 
L 40.896734 69.772584 
L 41.465812 67.056054 
L 42.414577 64.51621 
L 43.721318 62.224958 
L 45.350534 60.243691 
L 47.255468 58.619095 
L 49.381531 57.380501 
L 51.670138 56.539079 
L 54.062451 56.088831 
L 56.502624 56.009017 
L 58.940271 56.267539 
L 61.332069 56.82468 
L 63.642514 57.636739 
L 65.843989 58.65917 
L 67.916311 59.849056 
L 69.845946 61.166833 
L 71.625053 62.577335 
L 73.250479 64.050266 
L 74.72279 65.560237 
L 77.223761 68.612516 
L 79.17627 71.615432 
L 80.643622 74.500341 
L 81.69162 77.232817 
L 82.381072 79.800129 
L 82.763777 82.202347 
L 82.880772 84.446424 
L 82.76192 86.542374 
L 82.426247 88.500805 
L 81.8826 90.331281 
L 81.130394 92.041082 
L 80.160319 93.634092 
L 78.954998 95.109542 
L 77.489673 96.460385 
L 75.733116 97.671063 
L 73.649108 98.714416 
L 71.199035 99.547519 
L 68.346422 100.106346 
L 66.760147 100.255604 
L 65.064588 100.299555 
L 63.259945 100.221511 
L 61.348883 100.002443 
L 59.337267 99.62101 
L 57.235002 99.053765 
L 55.056955 98.275614 
L 52.823913 97.260607 
L 50.563509 95.983161 
L 48.310983 94.419794 
L 46.109629 92.551415 
L 44.010729 90.366168 
L 42.07274 87.862687 
L 40.359526 85.053522 
L 38.937502 81.968265 
L 37.87166 78.655815 
L 37.220714 75.18507 
L 37.031787 71.643454 
L 37.335357 68.132873 
L 38.141264 64.763185 
L 39.436571 61.643799 
L 41.18578 58.874538 
L 43.333505 56.537204 
L 45.809204 54.689219 
L 48.533187 53.360313 
L 51.422935 52.552562 
L 54.398836 52.24342 
L 57.388673 52.390879 
L 60.330584 52.939651 
L 63.174488 53.82737 
L 65.882245 54.990015 
L 68.426875 56.366134 
L 70.791219 57.899722 
L 72.966338 59.541864 
L 74.949886 61.251366 
L 76.744578 62.99464 
L 78.356861 64.745123 
L 78.356861 64.745123 
" clip-path="url(#p6830c4e30f)" style="fill: none; stroke: #ff7f0e; stroke-opacity: 0.5; stroke-width: 1.5; stroke-linecap: round"/>
   </g>
  </g>
 </g>
 <defs>
  <clipPath id="p6830c4e30f">
   <rect x="-1.8" y="-7.2" width="176.4" height="176.4"/>
  </clipPath>
 </defs>
</svg>
