<?xml version="1.0" encoding="utf-8" standalone="no"?>
<!DOCTYPE svg PUBLIC "-//W3C//DTD SVG 1.1//EN"
  "http://www.w3.org/Graphics/SVG/1.1/DTD/svg11.dtd">
<svg xmlns:xlink="http://www.w3.org/1999/xlink" width="216pt" height="180pt" viewBox="0 0 216 180" xmlns="http://www.w3.org/2000/svg" version="1.1">
 <metadata>
  <rdf:RDF xmlns:dc="http://purl.org/dc/elements/1.1/" xmlns:cc="http://creativecommons.org/ns#" xmlns:rdf="http://www.w3.org/1999/02/22-rdf-syntax-ns#">
   <cc:Work>
    <dc:type rdf:resource="http://purl.org/dc/dcmitype/StillImage"/>
    <dc:date>2023-06-14T18:51:19.349823</dc:date>
    <dc:format>image/svg+xml</dc:format>
    <dc:creator>
     <cc:Agent>
      <dc:title>Matplotlib v3.7.0, https://matplotlib.org/</dc:title>
     </cc:Agent>
    </dc:creator>
   </cc:Work>
  </rdf:RDF>
 </metadata>
 <defs>
  <style type="text/css">*{stroke-linejoin: round; stroke-linecap: butt}</style>
 </defs>
 <g id="figure_1">
  <g id="patch_1">
   <path d="M 0 180 
L 216 180 
L 216 0 
L 0 0 
z
" style="fill: #ffffff"/>
  </g>
  <g id="patch_2">
   <path d="M -1 169.2 
L 174.6 169.2 
L 174.6 -1 
" style="fill: none"/>
  </g>
  <g id="pane3d_1">
   <g id="patch_3">
    <path d="M 11.519416 125.705413 
L 69.772457 76.876559 
L 68.962684 6.456623 
L 7.921935 51.001381 
" style="fill: none; opacity: 0.5; stroke: #f2f2f2; stroke-linejoin: miter"/>
   </g>
  </g>
  <g id="pane3d_2">
   <g id="patch_4">
    <path d="M 69.772457 76.876559 
L 163.247803 104.046152 
L 166.583609 31.200681 
L 68.962684 6.456623 
" style="fill: none; opacity: 0.5; stroke: #e6e6e6; stroke-linejoin: miter"/>
   </g>
  </g>
  <g id="pane3d_3">
   <g id="patch_5">
    <path d="M 11.519416 125.705413 
L 110.607849 158.067695 
L 163.247803 104.046152 
L 69.772457 76.876559 
" style="fill: none; opacity: 0.5; stroke: #ececec; stroke-linejoin: miter"/>
   </g>
  </g>
  <g id="axis3d_1">
   <g id="line2d_1">
    <path d="M 11.519416 125.705413 
L 110.607849 158.067695 
" style="fill: none; stroke: #ffffff; stroke-width: 0.8; stroke-linecap: round"/>
   </g>
   <g id="text_1">
    <!-- x -->
    <g style="fill: #262626" transform="translate(40.437569 179.640981) scale(0.1 -0.1)">
     <defs>
      <path id="DejaVuSans-78" d="M 3513 3500 
L 2247 1797 
L 3578 0 
L 2900 0 
L 1881 1375 
L 863 0 
L 184 0 
L 1544 1831 
L 300 3500 
L 978 3500 
L 1906 2253 
L 2834 3500 
L 3513 3500 
z
" transform="scale(0.015625)"/>
     </defs>
     <use xlink:href="#DejaVuSans-78"/>
    </g>
   </g>
   <g id="Line3DCollection_1">
    <path d="M 34.866957 133.33072 
L 91.87184 83.299977 
L 92.004979 12.297173 
" style="fill: none; stroke: #d3d3d3; stroke-width: 0.8"/>
    <path d="M 59.901083 141.506865 
L 115.516559 90.172563 
L 116.684014 18.552589 
" style="fill: none; stroke: #d3d3d3; stroke-width: 0.8"/>
    <path d="M 85.620855 149.906943 
L 139.753995 97.217429 
L 142.009065 24.971751 
" style="fill: none; stroke: #d3d3d3; stroke-width: 0.8"/>
   </g>
   <g id="xtick_1">
    <g id="line2d_2">
     <path d="M 88.783784 78.616216 
" clip-path="url(#pf2a5ec4802)" style="fill: none; stroke: #d3d3d3; stroke-width: 0.8; stroke-linecap: round"/>
    </g>
    <g id="line2d_3">
     <path d="M 35.363734 132.894721 
L 33.871253 134.204607 
" style="fill: none; stroke: #808080; stroke-width: 0.8; stroke-linecap: round"/>
    </g>
    <g id="text_2">
     <!-- −10 -->
     <g style="fill: #808080" transform="translate(16.798006 156.851334) scale(0.1 -0.1)">
      <defs>
       <path id="DejaVuSans-2212" d="M 678 2272 
L 4684 2272 
L 4684 1741 
L 678 1741 
L 678 2272 
z
" transform="scale(0.015625)"/>
       <path id="DejaVuSans-31" d="M 794 531 
L 1825 531 
L 1825 4091 
L 703 3866 
L 703 4441 
L 1819 4666 
L 2450 4666 
L 2450 531 
L 3481 531 
L 3481 0 
L 794 0 
L 794 531 
z
" transform="scale(0.015625)"/>
       <path id="DejaVuSans-30" d="M 2034 4250 
Q 1547 4250 1301 3770 
Q 1056 3291 1056 2328 
Q 1056 1369 1301 889 
Q 1547 409 2034 409 
Q 2525 409 2770 889 
Q 3016 1369 3016 2328 
Q 3016 3291 2770 3770 
Q 2525 4250 2034 4250 
z
M 2034 4750 
Q 2819 4750 3233 4129 
Q 3647 3509 3647 2328 
Q 3647 1150 3233 529 
Q 2819 -91 2034 -91 
Q 1250 -91 836 529 
Q 422 1150 422 2328 
Q 422 3509 836 4129 
Q 1250 4750 2034 4750 
z
" transform="scale(0.015625)"/>
      </defs>
      <use xlink:href="#DejaVuSans-2212"/>
      <use xlink:href="#DejaVuSans-31" x="83.789062"/>
      <use xlink:href="#DejaVuSans-30" x="147.412109"/>
     </g>
    </g>
   </g>
   <g id="xtick_2">
    <g id="line2d_4">
     <path d="M 88.783784 78.616216 
" clip-path="url(#pf2a5ec4802)" style="fill: none; stroke: #d3d3d3; stroke-width: 0.8; stroke-linecap: round"/>
    </g>
    <g id="line2d_5">
     <path d="M 60.386288 141.059011 
L 58.928543 142.404541 
" style="fill: none; stroke: #808080; stroke-width: 0.8; stroke-linecap: round"/>
    </g>
    <g id="text_3">
     <!-- 0 -->
     <g style="fill: #808080" transform="translate(49.245014 165.290816) scale(0.1 -0.1)">
      <use xlink:href="#DejaVuSans-30"/>
     </g>
    </g>
   </g>
   <g id="xtick_3">
    <g id="line2d_6">
     <path d="M 88.783784 78.616216 
" clip-path="url(#pf2a5ec4802)" style="fill: none; stroke: #d3d3d3; stroke-width: 0.8; stroke-linecap: round"/>
    </g>
    <g id="line2d_7">
     <path d="M 86.093664 149.446743 
L 84.673133 150.829391 
" style="fill: none; stroke: #808080; stroke-width: 0.8; stroke-linecap: round"/>
    </g>
    <g id="text_4">
     <!-- 10 -->
     <g style="fill: #808080" transform="translate(71.830473 173.96279) scale(0.1 -0.1)">
      <use xlink:href="#DejaVuSans-31"/>
      <use xlink:href="#DejaVuSans-30" x="63.623047"/>
     </g>
    </g>
   </g>
  </g>
  <g id="axis3d_2">
   <g id="line2d_8">
    <path d="M 163.247803 104.046152 
L 110.607849 158.067695 
" style="fill: none; stroke: #ffffff; stroke-width: 0.8; stroke-linecap: round"/>
   </g>
   <g id="text_5">
    <!-- y -->
    <g style="fill: #262626" transform="translate(162.133934 160.636398) scale(0.1 -0.1)">
     <defs>
      <path id="DejaVuSans-79" d="M 2059 -325 
Q 1816 -950 1584 -1140 
Q 1353 -1331 966 -1331 
L 506 -1331 
L 506 -850 
L 844 -850 
Q 1081 -850 1212 -737 
Q 1344 -625 1503 -206 
L 1606 56 
L 191 3500 
L 800 3500 
L 1894 763 
L 2988 3500 
L 3597 3500 
L 2059 -325 
z
" transform="scale(0.015625)"/>
     </defs>
     <use xlink:href="#DejaVuSans-79"/>
    </g>
   </g>
   <g id="Line3DCollection_2">
    <path d="M 15.292081 45.622985 
L 18.529521 119.829404 
L 116.967124 151.541514 
" style="fill: none; stroke: #d3d3d3; stroke-width: 0.8"/>
    <path d="M 27.670696 36.589635 
L 30.31788 109.948168 
L 127.645786 140.58258 
" style="fill: none; stroke: #d3d3d3; stroke-width: 0.8"/>
    <path d="M 39.624585 27.866232 
L 41.718998 100.391526 
L 137.955508 130.002269 
" style="fill: none; stroke: #d3d3d3; stroke-width: 0.8"/>
    <path d="M 51.175236 19.437092 
L 52.751645 91.143742 
L 147.915086 119.781292 
" style="fill: none; stroke: #d3d3d3; stroke-width: 0.8"/>
    <path d="M 62.342717 11.287574 
L 63.433402 82.190081 
L 157.542059 109.901649 
" style="fill: none; stroke: #d3d3d3; stroke-width: 0.8"/>
   </g>
   <g id="xtick_4">
    <g id="line2d_9">
     <path d="M 88.783784 78.616216 
" clip-path="url(#pf2a5ec4802)" style="fill: none; stroke: #d3d3d3; stroke-width: 0.8; stroke-linecap: round"/>
    </g>
    <g id="line2d_10">
     <path d="M 116.137775 151.274335 
L 118.627959 152.076559 
" style="fill: none; stroke: #808080; stroke-width: 0.8; stroke-linecap: round"/>
    </g>
    <g id="text_6">
     <!-- −20 -->
     <g style="fill: #808080" transform="translate(119.244361 172.504984) scale(0.1 -0.1)">
      <defs>
       <path id="DejaVuSans-32" d="M 1228 531 
L 3431 531 
L 3431 0 
L 469 0 
L 469 531 
Q 828 903 1448 1529 
Q 2069 2156 2228 2338 
Q 2531 2678 2651 2914 
Q 2772 3150 2772 3378 
Q 2772 3750 2511 3984 
Q 2250 4219 1831 4219 
Q 1534 4219 1204 4116 
Q 875 4013 500 3803 
L 500 4441 
Q 881 4594 1212 4672 
Q 1544 4750 1819 4750 
Q 2544 4750 2975 4387 
Q 3406 4025 3406 3419 
Q 3406 3131 3298 2873 
Q 3191 2616 2906 2266 
Q 2828 2175 2409 1742 
Q 1991 1309 1228 531 
z
" transform="scale(0.015625)"/>
      </defs>
      <use xlink:href="#DejaVuSans-2212"/>
      <use xlink:href="#DejaVuSans-32" x="83.789062"/>
      <use xlink:href="#DejaVuSans-30" x="147.412109"/>
     </g>
    </g>
   </g>
   <g id="xtick_5">
    <g id="line2d_11">
     <path d="M 88.783784 78.616216 
" clip-path="url(#pf2a5ec4802)" style="fill: none; stroke: #d3d3d3; stroke-width: 0.8; stroke-linecap: round"/>
    </g>
    <g id="line2d_12">
     <path d="M 126.826513 140.32471 
L 129.286404 141.098972 
" style="fill: none; stroke: #808080; stroke-width: 0.8; stroke-linecap: round"/>
    </g>
    <g id="text_7">
     <!-- −10 -->
     <g style="fill: #808080" transform="translate(129.706739 161.301224) scale(0.1 -0.1)">
      <use xlink:href="#DejaVuSans-2212"/>
      <use xlink:href="#DejaVuSans-31" x="83.789062"/>
      <use xlink:href="#DejaVuSans-30" x="147.412109"/>
     </g>
    </g>
   </g>
   <g id="xtick_6">
    <g id="line2d_13">
     <path d="M 88.783784 78.616216 
" clip-path="url(#pf2a5ec4802)" style="fill: none; stroke: #d3d3d3; stroke-width: 0.8; stroke-linecap: round"/>
    </g>
    <g id="line2d_14">
     <path d="M 137.146116 129.753229 
L 139.576304 130.500967 
" style="fill: none; stroke: #808080; stroke-width: 0.8; stroke-linecap: round"/>
    </g>
    <g id="text_8">
     <!-- 0 -->
     <g style="fill: #808080" transform="translate(147.178429 150.484882) scale(0.1 -0.1)">
      <use xlink:href="#DejaVuSans-30"/>
     </g>
    </g>
   </g>
   <g id="xtick_7">
    <g id="line2d_15">
     <path d="M 88.783784 78.616216 
" clip-path="url(#pf2a5ec4802)" style="fill: none; stroke: #d3d3d3; stroke-width: 0.8; stroke-linecap: round"/>
    </g>
    <g id="line2d_16">
     <path d="M 147.115382 119.540637 
L 149.516448 120.26319 
" style="fill: none; stroke: #808080; stroke-width: 0.8; stroke-linecap: round"/>
    </g>
    <g id="text_9">
     <!-- 10 -->
     <g style="fill: #808080" transform="translate(153.754441 140.036203) scale(0.1 -0.1)">
      <use xlink:href="#DejaVuSans-31"/>
      <use xlink:href="#DejaVuSans-30" x="63.623047"/>
     </g>
    </g>
   </g>
   <g id="xtick_8">
    <g id="line2d_17">
     <path d="M 88.783784 78.616216 
" clip-path="url(#pf2a5ec4802)" style="fill: none; stroke: #d3d3d3; stroke-width: 0.8; stroke-linecap: round"/>
    </g>
    <g id="line2d_18">
     <path d="M 156.751853 109.668962 
L 159.124371 110.367582 
" style="fill: none; stroke: #808080; stroke-width: 0.8; stroke-linecap: round"/>
    </g>
    <g id="text_10">
     <!-- 20 -->
     <g style="fill: #808080" transform="translate(163.185581 129.936755) scale(0.1 -0.1)">
      <use xlink:href="#DejaVuSans-32"/>
      <use xlink:href="#DejaVuSans-30" x="63.623047"/>
     </g>
    </g>
   </g>
  </g>
  <g id="axis3d_3">
   <g id="line2d_19">
    <path d="M 163.247803 104.046152 
L 166.583609 31.200681 
" style="fill: none; stroke: #ffffff; stroke-width: 0.8; stroke-linecap: round"/>
   </g>
   <g id="text_11">
    <!-- z -->
    <g style="fill: #262626" transform="translate(202.494937 65.789607) scale(0.1 -0.1)">
     <defs>
      <path id="DejaVuSans-7a" d="M 353 3500 
L 3084 3500 
L 3084 2975 
L 922 459 
L 3084 459 
L 3084 0 
L 275 0 
L 275 525 
L 2438 3041 
L 353 3041 
L 353 3500 
z
" transform="scale(0.015625)"/>
     </defs>
     <use xlink:href="#DejaVuSans-7a"/>
    </g>
   </g>
   <g id="Line3DCollection_3">
    <path d="M 163.506351 98.400127 
L 69.709572 71.407891 
L 11.24102 119.924337 
" style="fill: none; stroke: #d3d3d3; stroke-width: 0.8"/>
    <path d="M 164.39487 78.99715 
L 69.493619 52.628062 
L 10.283737 100.045729 
" style="fill: none; stroke: #d3d3d3; stroke-width: 0.8"/>
    <path d="M 165.304773 59.127183 
L 69.27272 33.418122 
L 9.302523 79.670175 
" style="fill: none; stroke: #d3d3d3; stroke-width: 0.8"/>
    <path d="M 166.236843 38.77316 
L 69.046703 13.763125 
L 8.296468 58.778803 
" style="fill: none; stroke: #d3d3d3; stroke-width: 0.8"/>
   </g>
   <g id="xtick_9">
    <g id="line2d_20">
     <path d="M 88.783784 78.616216 
" style="fill: none; stroke: #d3d3d3; stroke-width: 0.8; stroke-linecap: round"/>
    </g>
    <g id="line2d_21">
     <path d="M 162.71901 98.173551 
L 165.082913 98.85382 
" style="fill: none; stroke: #808080; stroke-width: 0.8; stroke-linecap: round"/>
    </g>
    <g id="text_12">
     <!-- 10 -->
     <g style="fill: #808080" transform="translate(175.426514 103.41413) scale(0.1 -0.1)">
      <use xlink:href="#DejaVuSans-31"/>
      <use xlink:href="#DejaVuSans-30" x="63.623047"/>
     </g>
    </g>
   </g>
   <g id="xtick_10">
    <g id="line2d_22">
     <path d="M 88.783784 78.616216 
" style="fill: none; stroke: #d3d3d3; stroke-width: 0.8; stroke-linecap: round"/>
    </g>
    <g id="line2d_23">
     <path d="M 163.597813 78.775682 
L 165.990908 79.440623 
" style="fill: none; stroke: #808080; stroke-width: 0.8; stroke-linecap: round"/>
    </g>
    <g id="text_13">
     <!-- 20 -->
     <g style="fill: #808080" transform="translate(176.527359 84.069533) scale(0.1 -0.1)">
      <use xlink:href="#DejaVuSans-32"/>
      <use xlink:href="#DejaVuSans-30" x="63.623047"/>
     </g>
    </g>
   </g>
   <g id="xtick_11">
    <g id="line2d_24">
     <path d="M 88.783784 78.616216 
" style="fill: none; stroke: #d3d3d3; stroke-width: 0.8; stroke-linecap: round"/>
    </g>
    <g id="line2d_25">
     <path d="M 164.497759 58.911134 
L 166.920776 59.559808 
" style="fill: none; stroke: #808080; stroke-width: 0.8; stroke-linecap: round"/>
    </g>
    <g id="text_14">
     <!-- 30 -->
     <g style="fill: #808080" transform="translate(177.654576 64.261511) scale(0.1 -0.1)">
      <defs>
       <path id="DejaVuSans-33" d="M 2597 2516 
Q 3050 2419 3304 2112 
Q 3559 1806 3559 1356 
Q 3559 666 3084 287 
Q 2609 -91 1734 -91 
Q 1441 -91 1130 -33 
Q 819 25 488 141 
L 488 750 
Q 750 597 1062 519 
Q 1375 441 1716 441 
Q 2309 441 2620 675 
Q 2931 909 2931 1356 
Q 2931 1769 2642 2001 
Q 2353 2234 1838 2234 
L 1294 2234 
L 1294 2753 
L 1863 2753 
Q 2328 2753 2575 2939 
Q 2822 3125 2822 3475 
Q 2822 3834 2567 4026 
Q 2313 4219 1838 4219 
Q 1578 4219 1281 4162 
Q 984 4106 628 3988 
L 628 4550 
Q 988 4650 1302 4700 
Q 1616 4750 1894 4750 
Q 2613 4750 3031 4423 
Q 3450 4097 3450 3541 
Q 3450 3153 3228 2886 
Q 3006 2619 2597 2516 
z
" transform="scale(0.015625)"/>
      </defs>
      <use xlink:href="#DejaVuSans-33"/>
      <use xlink:href="#DejaVuSans-30" x="63.623047"/>
     </g>
    </g>
   </g>
   <g id="xtick_12">
    <g id="line2d_26">
     <path d="M 88.783784 78.616216 
" style="fill: none; stroke: #d3d3d3; stroke-width: 0.8; stroke-linecap: round"/>
    </g>
    <g id="line2d_27">
     <path d="M 165.419619 38.562863 
L 167.873314 39.194275 
" style="fill: none; stroke: #808080; stroke-width: 0.8; stroke-linecap: round"/>
    </g>
    <g id="text_15">
     <!-- 40 -->
     <g style="fill: #808080" transform="translate(178.809124 43.973208) scale(0.1 -0.1)">
      <defs>
       <path id="DejaVuSans-34" d="M 2419 4116 
L 825 1625 
L 2419 1625 
L 2419 4116 
z
M 2253 4666 
L 3047 4666 
L 3047 1625 
L 3713 1625 
L 3713 1100 
L 3047 1100 
L 3047 0 
L 2419 0 
L 2419 1100 
L 313 1100 
L 313 1709 
L 2253 4666 
z
" transform="scale(0.015625)"/>
      </defs>
      <use xlink:href="#DejaVuSans-34"/>
      <use xlink:href="#DejaVuSans-30" x="63.623047"/>
     </g>
    </g>
   </g>
  </g>
  <g id="axes_1">
   <g id="line2d_28">
    <path d="M 124.097927 106.876789 
L 125.693983 104.040707 
L 127.589691 101.088759 
L 132.101605 94.683828 
L 137.234515 87.433429 
L 139.875852 83.472266 
L 142.459857 79.313886 
L 144.889227 75.008909 
L 147.053614 70.636523 
L 148.832584 66.305547 
L 150.101657 62.151822 
L 150.741964 58.330532 
L 150.653369 55.002752 
L 149.769635 52.316963 
L 148.072559 50.388337 
L 145.600782 49.280439 
L 142.449316 48.994582 
L 138.758398 49.470354 
L 134.694119 50.597354 
L 130.426302 52.234477 
L 126.109483 54.231186 
L 121.870703 56.44569 
L 117.804801 58.757168 
L 110.420491 63.32216 
L 104.185203 67.48281 
L 99.082702 71.110695 
L 94.985142 74.249012 
L 91.728002 77.004187 
L 89.145425 79.485701 
L 87.085032 81.781128 
L 85.413063 83.95084 
L 83.387768 87.044691 
L 78.836119 94.555808 
L 77.549702 96.239144 
L 76.100855 97.818254 
L 74.442462 99.271014 
L 72.527966 100.566873 
L 70.311513 101.663162 
L 67.749606 102.500244 
L 66.327055 102.79687 
L 64.805 102.995618 
L 63.180941 103.081547 
L 61.453912 103.037521 
L 59.624986 102.844098 
L 57.697882 102.47953 
L 55.67968 101.919904 
L 53.581639 101.139517 
L 51.420089 100.11155 
L 49.217356 98.809151 
L 47.002641 97.207013 
L 44.812728 95.283539 
L 42.692355 93.023611 
L 40.694039 90.421917 
L 38.877114 87.486634 
L 37.305744 84.243076 
L 36.045754 80.736707 
L 35.160283 77.034757 
L 34.704477 73.225625 
L 34.719798 69.41542 
L 35.228783 65.721472 
L 36.231262 62.26331 
L 37.702957 59.15234 
L 39.596963 56.481958 
L 41.848017 54.319896 
L 44.378773 52.704063 
L 47.106905 51.642326 
L 49.951789 51.115763 
L 52.839793 51.084291 
L 55.707731 51.493334 
L 58.504446 52.280384 
L 61.190892 53.380629 
L 63.739169 54.731256 
L 66.130994 56.274366 
L 68.355966 57.958653 
L 70.409886 59.740102 
L 72.293257 61.581992 
L 74.010027 63.454434 
L 76.970914 67.201221 
L 79.359627 70.849044 
L 81.253004 74.32612 
L 82.727487 77.599463 
L 83.853632 80.659801 
L 84.69341 83.511505 
L 85.299198 86.166217 
L 85.860213 89.812175 
L 86.095943 93.103158 
L 86.074199 96.091023 
L 85.83001 98.822011 
L 85.370728 101.335976 
L 84.679056 103.66643 
L 83.713744 105.840307 
L 82.88633 107.212292 
L 81.881352 108.526091 
L 80.665484 109.781108 
L 79.198109 110.971681 
L 77.430524 112.084484 
L 75.305397 113.094571 
L 72.756903 113.95947 
L 69.712332 114.610603 
L 67.980422 114.824558 
L 66.096565 114.941256 
L 64.052571 114.938785 
L 61.841761 114.790679 
L 59.459825 114.465304 
L 56.905962 113.925319 
L 54.184322 113.127323 
L 51.305808 112.021854 
L 48.290249 110.553975 
L 45.168892 108.664774 
L 41.987091 106.294173 
L 38.806923 103.385482 
L 35.709259 99.892112 
L 32.794598 95.786587 
L 30.181747 91.071562 
L 28.00332 85.791643 
L 26.397148 80.043749 
L 25.493336 73.982622 
L 25.397828 67.817699 
L 26.175022 61.798571 
L 27.833512 56.189193 
L 30.319546 51.235118 
L 33.52134 47.131539 
L 37.284056 44.00053 
L 41.431566 41.882906 
L 45.789012 40.744929 
L 50.200778 40.495604 
L 54.541064 41.008317 
L 58.717116 42.141344 
L 62.667044 43.753955 
L 66.354691 45.717077 
L 69.763608 47.919023 
L 72.891437 50.267467 
L 75.745302 52.68895 
L 78.338329 55.127001 
L 80.687177 57.53963 
L 84.727186 62.177479 
L 88.01869 66.461606 
L 90.710317 70.340821 
L 93.916636 75.398173 
L 97.974564 81.972438 
L 99.411249 84.018337 
L 100.850065 85.752682 
L 102.350698 87.179637 
L 103.965734 88.29456 
L 105.741731 89.083405 
L 107.719498 89.522306 
L 109.93326 89.577504 
L 112.408347 89.206042 
L 115.156944 88.35794 
L 118.171466 86.980918 
L 121.415239 85.029161 
L 124.810745 82.477712 
L 126.526833 80.98006 
L 128.226839 79.343527 
L 129.884287 77.581159 
L 131.468492 75.712013 
L 132.944882 73.761816 
L 134.275697 71.763296 
L 135.421148 69.756028 
L 136.341081 67.785622 
L 136.997164 65.902146 
L 137.355473 64.157731 
L 137.38932 62.603465 
L 137.08197 61.285818 
L 136.428882 60.243016 
L 135.439036 59.501884 
L 134.135038 59.075666 
L 132.55185 58.963203 
L 130.734291 59.149642 
L 128.733651 59.60851 
L 126.603962 60.304787 
L 124.398447 61.198443 
L 122.166584 62.247905 
L 117.791457 64.657305 
L 113.742341 67.263126 
L 110.172465 69.881103 
L 107.146386 72.408448 
L 104.668719 74.801694 
L 102.709083 77.05228 
L 101.220236 79.167509 
L 100.149979 81.158512 
L 99.44842 83.033949 
L 99.072071 84.79747 
L 98.985908 86.447221 
L 99.164162 87.976186 
L 99.590378 89.372671 
L 100.257042 90.620548 
L 101.164982 91.699121 
L 102.322605 92.582558 
L 103.744933 93.238938 
L 105.4523 93.628992 
L 107.468473 93.704725 
L 109.81777 93.408237 
L 112.520635 92.671352 
L 115.586904 91.41707 
L 119.005911 89.564504 
L 120.835436 88.390016 
L 122.732664 87.039685 
L 124.683676 85.508549 
L 126.670009 83.795134 
L 128.66803 81.902681 
L 130.648393 79.840528 
L 132.575687 77.625544 
L 134.408398 75.283478 
L 136.09934 72.850031 
L 137.596698 70.371376 
L 138.845871 67.903815 
L 139.79218 65.512292 
L 140.384469 63.267519 
L 140.57939 61.241701 
L 140.345964 59.503116 
L 139.669758 58.110129 
L 138.555885 57.105555 
L 137.030061 56.512364 
L 135.137277 56.331634 
L 132.938123 56.543174 
L 130.503387 57.108717 
L 127.907902 57.976965 
L 125.224724 59.0895 
L 122.520463 60.386502 
L 117.266147 63.314607 
L 112.470562 66.398974 
L 108.299838 69.414342 
L 104.802975 72.254737 
L 101.95726 74.893092 
L 99.70287 77.343195 
L 97.965367 79.633286 
L 96.669008 81.791334 
L 95.744033 83.838698 
L 95.130233 85.788666 
L 94.778311 87.6473 
L 94.64999 89.415041 
L 94.717476 91.088245 
L 94.962653 92.660311 
L 95.37624 94.122298 
L 95.957045 95.463059 
L 96.711377 96.66892 
L 97.652622 97.722958 
L 98.800969 98.603888 
L 100.183186 99.284547 
L 101.832315 99.729961 
L 103.787061 99.895005 
L 106.090495 99.721722 
L 108.787512 99.136593 
L 111.920165 98.048402 
L 115.519637 96.348075 
L 117.498127 95.230298 
L 119.593202 93.912989 
L 121.798769 92.380815 
L 124.104304 90.619963 
L 126.493766 88.619462 
L 128.944427 86.372882 
L 131.425653 83.880438 
L 133.897763 81.151468 
L 136.311113 78.207156 
L 138.605656 75.083269 
L 140.711269 71.832495 
L 142.549237 68.525815 
L 144.035287 65.252197 
L 145.084487 62.115844 
L 145.618125 59.230439 
L 145.572177 56.71028 
L 144.906358 54.659011 
L 143.61202 53.157587 
L 141.716791 52.253914 
L 139.284186 51.956648 
L 136.407605 52.234904 
L 133.199805 53.024005 
L 129.780302 54.235762 
L 126.263536 55.770696 
L 122.750003 57.529561 
L 119.321247 59.422254 
L 112.943793 63.324258 
L 107.408665 67.073037 
L 102.783771 70.494853 
L 99.019118 73.565014 
L 96.010817 76.330855 
L 93.637812 78.860702 
L 91.780772 81.21757 
L 90.330914 83.449419 
L 89.193403 85.588289 
L 87.900591 88.661252 
L 86.62671 92.542957 
L 84.664652 98.762698 
L 83.647146 101.201841 
L 82.38438 103.504292 
L 81.35475 104.961325 
L 80.133665 106.351558 
L 78.680201 107.666606 
L 76.947382 108.891259 
L 74.881579 109.999731 
L 72.422691 110.950273 
L 69.505778 111.677569 
L 67.854921 111.928158 
L 66.065365 112.082381 
L 64.130297 112.120351 
L 62.04438 112.018282 
L 59.804501 111.748014 
L 57.410754 111.276627 
L 54.867664 110.566219 
L 52.185695 109.574002 
L 49.383035 108.252887 
L 46.487623 106.552818 
L 43.539298 104.423146 
L 40.591863 101.816364 
L 37.714699 98.693487 
L 34.993401 95.03117 
L 32.528772 90.83032 
L 30.433383 86.125354 
L 28.825075 80.992481 
L 27.817106 75.554636 
L 27.505521 69.980297 
L 27.955367 64.474004 
L 29.18859 59.258156 
L 31.176931 54.548456 
L 33.842529 50.528053 
L 37.066895 47.326561 
L 40.706308 45.008894 
L 44.609706 43.57562 
L 48.6348 42.973019 
L 52.659432 43.108782 
L 56.58723 43.868921 
L 60.348288 45.132608 
L 63.896543 46.783241 
L 67.205505 48.71548 
L 70.263657 50.838806 
L 73.070284 53.078516 
L 75.632076 55.375053 
L 77.960535 57.682404 
L 80.070104 59.966108 
L 83.697601 64.370242 
L 86.64865 68.468628 
L 89.054429 72.215941 
L 91.901762 77.172231 
L 96.68389 85.944238 
L 97.913463 87.813545 
L 99.192351 89.417838 
L 100.570796 90.755758 
L 102.09552 91.817618 
L 103.810798 92.584416 
L 105.758819 93.026778 
L 107.979037 93.103954 
L 110.506107 92.763221 
L 113.365792 91.940355 
L 116.568142 90.562354 
L 120.097108 88.554255 
L 121.968442 87.29308 
L 123.896068 85.852567 
L 125.863569 84.230321 
L 127.849607 82.428133 
L 129.827367 80.453286 
L 131.764148 78.319955 
L 133.621218 76.050565 
L 135.354072 73.676959 
L 136.913241 71.241108 
L 138.245814 68.7951 
L 139.297799 66.400103 
L 140.017341 64.12404 
L 140.358704 62.037899 
L 140.286681 60.210794 
L 139.780876 58.704262 
L 138.839127 57.566536 
L 137.479284 56.82779 
L 135.738796 56.497264 
L 133.671937 56.562884 
L 131.345093 56.993478 
L 128.830928 57.7431 
L 126.202487 58.756576 
L 123.528149 59.975236 
L 120.868003 61.341969 
L 115.778511 64.320366 
L 111.204983 67.375364 
L 107.272658 70.323475 
L 104.005576 73.08698 
L 101.368439 75.653592 
L 99.296865 78.042307 
L 97.716532 80.281163 
L 96.554322 82.395571 
L 95.744288 84.403764 
L 95.230466 86.316178 
L 94.96782 88.136576 
L 94.922151 89.863609 
L 95.069485 91.492196 
L 95.395277 93.014437 
L 95.893613 94.420041 
L 96.566531 95.696253 
L 97.423488 96.827358 
L 98.480984 97.793765 
L 99.762267 98.570695 
L 101.297028 99.126453 
L 103.120873 99.420295 
L 105.274287 99.399932 
L 107.800604 98.998868 
L 110.742239 98.134054 
L 114.134144 96.704916 
L 116.005283 95.742966 
L 117.992995 94.595715 
L 120.093758 93.247807 
L 122.300398 91.68468 
L 124.601136 89.893597 
L 126.978511 87.865026 
L 129.408232 85.594389 
L 131.858018 83.084191 
L 134.28654 80.346485 
L 136.642653 77.405519 
L 138.865146 74.300298 
L 140.883335 71.086634 
L 142.618859 67.838105 
L 143.989046 64.645208 
L 144.912123 61.612034 
L 145.314245 58.849992 
L 145.137875 56.46867 
L 144.350341 54.564699 
L 142.95085 53.210395 
L 140.973946 52.444531 
L 138.487966 52.267541 
L 135.588249 52.642482 
L 132.386466 53.501556 
L 128.998517 54.756504 
L 125.533638 56.310332 
L 122.086545 58.067973 
L 118.73329 59.944269 
L 112.516317 63.787075 
L 107.134992 67.466226 
L 102.645843 70.825621 
L 98.996058 73.846998 
L 96.083123 76.577568 
L 93.78906 79.082752 
L 91.998107 81.422116 
L 90.605021 83.640651 
L 89.518258 85.768208 
L 88.296751 88.824982 
L 87.122636 92.68323 
L 85.129504 99.67706 
L 84.20501 102.052309 
L 83.048914 104.296682 
L 82.102142 105.720654 
L 80.976096 107.084738 
L 79.63216 108.383475 
L 78.025498 109.605768 
L 76.104218 110.731662 
L 73.809077 111.727627 
L 71.074253 112.539775 
L 67.830183 113.084346 
L 65.995922 113.218875 
L 64.01014 113.234954 
L 61.867057 113.107537 
L 59.563224 112.806876 
L 57.098569 112.298083 
L 54.477724 111.540871 
L 51.711656 110.489631 
L 48.819617 109.094055 
L 45.831355 107.300576 
L 42.78947 105.054967 
L 39.751675 102.306469 
L 36.792543 99.013754 
L 34.004161 95.152845 
L 31.494899 90.726676 
L 29.385443 85.775313 
L 27.801353 80.384911 
L 26.861915 74.692651 
L 26.665975 68.884507 
L 27.276822 63.183507 
L 28.70939 57.828365 
L 30.923617 53.045662 
L 33.826744 49.021717 
L 37.284842 45.881158 
L 41.140808 43.677243 
L 45.234101 42.395003 
L 49.417508 41.96436 
L 53.568063 42.27828 
L 57.591611 43.211127 
L 61.422234 44.633945 
L 65.018551 46.425278 
L 68.358706 48.477577 
L 71.435345 50.700043 
L 74.251276 53.018953 
L 76.816049 55.376459 
L 79.143441 57.728595 
L 83.152198 62.296761 
L 86.417604 66.56559 
L 89.079765 70.470007 
L 92.22371 75.620267 
L 97.43483 84.641669 
L 98.749428 86.536121 
L 100.105331 88.147328 
L 101.555645 89.47453 
L 103.148757 90.508264 
L 104.929298 91.229528 
L 106.938301 91.608978 
L 109.212233 91.606356 
L 111.780471 91.170578 
L 114.660661 90.24126 
L 117.851333 88.752926 
L 121.321184 86.643748 
L 123.139444 85.341657 
L 124.99495 83.871035 
L 126.868722 82.233504 
L 128.737003 80.435397 
L 130.570916 78.488929 
L 132.336341 76.413347 
L 133.994107 74.235924 
L 135.500643 71.992606 
L 136.809193 69.728095 
L 137.871711 67.495123 
L 138.641457 65.35272 
L 139.076231 63.363365 
L 139.142019 61.589094 
L 138.816641 60.086863 
L 138.092856 58.903728 
L 136.980314 58.072546 
L 135.505846 57.608983 
L 133.711856 57.510391 
L 131.652986 57.756794 
L 129.391575 58.313783 
L 126.992699 59.136724 
L 124.519559 60.175525 
L 122.02982 61.37917 
L 117.19025 64.093652 
L 112.762036 66.967977 
L 108.898334 69.802715 
L 105.650644 72.498212 
L 103.006056 75.022609 
L 100.916826 77.380653 
L 99.320424 79.591301 
L 98.151891 81.674701 
L 97.350922 83.646155 
L 96.865546 85.514314 
L 96.653746 87.281471 
L 96.683848 88.944596 
L 96.934268 90.496366 
L 97.392944 91.925858 
L 98.056679 93.21876 
L 98.930501 94.3571 
L 100.027052 95.31851 
L 101.365987 96.075045 
L 102.973239 96.591603 
L 104.879935 96.824021 
L 107.120619 96.71699 
L 109.730238 96.202168 
L 112.739131 95.197189 
L 116.164963 93.606922 
L 118.033348 92.560364 
L 120.000339 91.329252 
L 122.058151 89.901977 
L 124.194855 88.268865 
L 126.3935 86.423359 
L 128.631196 84.363495 
L 130.878231 82.093644 
L 133.097304 79.626474 
L 135.243045 76.984991 
L 137.261986 74.204441 
L 139.093247 71.333741 
L 140.670178 68.435991 
L 141.923221 65.587583 
L 142.78413 62.875423 
L 143.191482 60.392003 
L 143.097104 58.228398 
L 142.47255 56.465851 
L 141.314442 55.16715 
L 139.647313 54.369438 
L 137.522918 54.080049 
L 135.015764 54.276402 
L 132.215605 54.910017 
L 129.218454 55.913675 
L 126.117954 57.210098 
L 122.998531 58.720396 
L 119.931105 60.370955 
L 114.159797 63.850358 
L 109.078851 67.287251 
L 104.783932 70.502591 
L 101.259933 73.445757 
L 98.434707 76.135525 
L 96.213156 78.616996 
L 94.496515 80.937034 
L 93.19237 83.133483 
L 92.21928 85.23252 
L 91.508338 87.24992 
L 91.003035 89.193672 
L 90.534736 91.976597 
L 90.318309 94.598264 
L 90.301539 97.832035 
L 90.51685 100.753812 
L 90.939965 103.353404 
L 91.407963 105.085453 
L 92.035192 106.622814 
L 92.865583 107.951843 
L 93.561949 108.71092 
L 94.399714 109.35634 
L 95.407948 109.873022 
L 96.62176 110.240067 
L 98.083185 110.428737 
L 99.841983 110.399734 
L 101.956151 110.099634 
L 104.491706 109.456361 
L 107.521022 108.373753 
L 111.11847 106.725779 
L 115.351346 104.351991 
L 117.721238 102.833245 
L 120.262999 101.057848 
L 122.973575 98.998148 
L 125.843911 96.627117 
L 128.85706 93.920344 
L 131.985966 90.858843 
L 135.191003 87.43282 
L 138.417382 83.646467 
L 141.592721 79.523675 
L 144.625203 75.114274 
L 147.402997 70.5 
L 149.79586 65.798801 
L 151.660094 61.165557 
L 152.848085 56.786918 
L 153.223229 52.868267 
L 152.67975 49.612225 
L 151.164429 47.190892 
L 148.694398 45.717526 
L 145.363775 45.225797 
L 141.33428 45.663963 
L 136.811 46.906575 
L 132.010838 48.779747 
L 127.133561 51.091597 
L 122.342624 53.659279 
L 117.757672 56.327349 
L 109.481356 61.523776 
L 99.594403 68.177148 
L 92.450067 73.313484 
L 88.890441 76.105446 
L 86.062909 78.563492 
L 83.791408 80.800185 
L 81.923651 82.890633 
L 79.602144 85.840653 
L 76.196745 90.350091 
L 74.774961 91.989383 
L 73.228542 93.505538 
L 71.507263 94.869256 
L 69.566893 96.04236 
L 67.369647 96.975191 
L 64.886359 97.603369 
L 63.53172 97.778244 
L 62.100891 97.844499 
L 60.595085 97.788642 
L 59.01742 97.595917 
L 57.373337 97.250441 
L 55.671058 96.735472 
L 53.922078 96.03384 
L 52.141664 95.128596 
L 50.349317 94.003899 
L 48.569141 92.646195 
L 46.830037 91.045678 
L 45.165635 89.198017 
L 43.613855 87.106261 
L 42.215988 84.782778 
L 41.015225 82.250981 
L 40.054593 79.546553 
L 39.374369 76.717807 
L 39.009127 73.824876 
L 38.984717 70.9375 
L 39.315567 68.131419 
L 40.002736 65.483625 
L 41.033113 63.067009 
L 42.379964 60.94514 
L 44.004828 59.167916 
L 45.860482 57.768714 
L 47.894538 56.76335 
L 50.05312 56.150812 
L 52.284153 55.915434 
L 54.539928 56.030007 
L 56.778806 56.45927 
L 58.966065 57.163306 
L 61.074047 58.10051 
L 63.081788 59.229956 
L 64.974321 60.513101 
L 66.741827 61.914887 
L 68.378747 63.404323 
L 69.882932 64.954674 
L 72.497118 68.151691 
L 74.609197 71.369523 
L 76.260593 74.520741 
L 77.498616 77.553636 
L 78.369722 80.440884 
L 78.915469 83.170882 
L 79.170255 85.741534 
L 79.160192 88.155919 
L 78.902696 90.419255 
L 78.406478 92.536685 
L 77.671766 94.51148 
L 76.690662 96.343361 
L 75.447603 98.026662 
L 73.920022 99.548079 
L 72.079393 100.883744 
L 69.893011 101.995396 
L 67.32705 102.825463 
L 65.892071 103.110183 
L 64.351771 103.291121 
L 62.704462 103.352925 
L 60.950025 103.277906 
L 59.090464 103.045954 
L 57.130562 102.634558 
L 55.078655 102.019003 
L 52.9475 101.172808 
L 50.755218 100.068511 
L 48.526252 98.678887 
L 46.292256 96.978706 
L 44.092771 94.947112 
L 41.975506 92.570629 
L 39.995999 89.846715 
L 38.216399 86.78761 
L 36.703133 83.424022 
L 35.52333 79.807979 
L 34.740045 76.014006 
L 34.406605 72.137801 
L 34.560753 68.291841 
L 35.219523 64.597875 
L 36.375913 61.177064 
L 37.998233 58.139225 
L 40.032499 55.573072 
L 42.407556 53.539226 
L 45.041967 52.067113 
L 47.851369 51.155902 
L 50.755031 50.778766 
L 53.680768 50.889194 
L 56.567877 51.427978 
L 59.36822 52.329763 
L 62.045889 53.528455 
L 64.575956 54.961183 
L 66.942773 56.570859 
L 69.138175 58.307536 
L 71.159789 60.12884 
L 73.009573 61.999777 
L 74.692609 63.892147 
L 77.588827 67.657501 
L 79.920097 71.303878 
L 81.765616 74.767057 
L 83.202842 78.019199 
L 84.302587 81.054367 
L 85.126686 83.878997 
L 85.957344 87.750156 
L 86.418972 91.230403 
L 86.605125 94.374252 
L 86.573818 97.231692 
L 86.354069 99.846473 
L 85.950759 102.256183 
L 85.347362 104.492836 
L 84.506465 106.58318 
L 83.785337 107.906019 
L 82.908479 109.17741 
L 81.845937 110.399137 
L 80.561001 111.569374 
L 79.00925 112.680752 
L 77.137659 113.71737 
L 74.884028 114.65022 
L 72.177252 115.430372 
L 68.939386 115.979069 
L 67.096316 116.13053 
L 65.091183 116.173856 
L 62.915807 116.083929 
L 60.563952 115.830445 
L 58.03237 115.37726 
L 55.322171 114.68185 
L 52.440556 113.695047 
L 49.40296 112.361268 
L 46.235588 110.619527 
L 42.978279 108.40566 
L 39.687456 105.656227 
L 36.438804 102.314599 
L 33.328992 98.339593 
L 30.475557 93.716619 
L 28.013801 88.470544 
L 26.089568 82.678326 
L 24.847181 76.478085 
L 24.412819 70.070373 
L 24.87534 63.707675 
L 26.268498 57.670657 
L 28.559788 52.234057 
L 31.650445 47.629812 
L 35.388054 44.017248 
L 39.588743 41.4682 
L 44.062645 39.969431 
L 48.635882 39.438894 
L 53.164786 39.74902 
L 57.541531 40.750248 
L 61.692939 42.290302 
L 65.575284 44.227429 
L 69.167629 46.437845 
L 72.465393 48.818657 
L 75.474987 51.28774 
L 78.209752 53.781853 
L 80.687075 56.253941 
L 84.94825 61.00752 
L 88.420316 65.390675 
L 91.25994 69.346017 
L 94.642428 74.473533 
L 98.917802 81.06178 
L 100.426886 83.08234 
L 101.93388 84.775293 
L 103.499834 86.145263 
L 105.177555 87.187798 
L 107.012493 87.889037 
L 109.042744 88.225675 
L 111.297849 88.16547 
L 113.796043 87.668773 
L 116.539578 86.691844 
L 119.507835 85.193035 
L 122.64824 83.143097 
L 125.865743 80.540685 
L 127.459595 79.044515 
L 129.012989 77.432981 
L 130.498513 75.723348 
L 131.88545 73.938586 
L 133.140394 72.107622 
L 134.228242 70.265199 
L 135.113596 68.451205 
L 135.76257 66.70938 
L 136.144931 65.08539 
L 136.236425 63.624304 
L 136.021043 62.367694 
L 135.492922 61.350643 
L 134.657579 60.599063 
L 133.532184 60.127719 
L 132.144771 59.939289 
L 130.532416 60.024609 
L 128.738635 60.364066 
L 126.810369 60.929876 
L 124.79498 61.688885 
L 120.67922 63.64408 
L 116.694738 65.958075 
L 113.051109 68.413133 
L 109.866695 70.864096 
L 107.18874 73.230525 
L 105.016939 75.477589 
L 103.323426 77.596691 
L 102.067337 79.590791 
L 101.20449 81.465212 
L 100.693374 83.222812 
L 100.498569 84.861964 
L 100.592483 86.376046 
L 100.956004 87.753516 
L 101.578481 88.978042 
L 102.457277 90.028414 
L 103.596997 90.878128 
L 105.008398 91.49466 
L 106.706847 91.838531 
L 108.7101 91.862383 
L 111.035024 91.510449 
L 113.692737 90.719081 
L 116.681556 89.419395 
L 119.977093 87.543603 
L 123.51916 85.037091 
L 125.350186 83.538572 
L 127.195989 81.878347 
L 129.031891 80.063606 
L 130.828208 78.107559 
L 132.550195 76.030526 
L 134.158312 73.860836 
L 135.60897 71.635352 
L 136.855841 69.399395 
L 137.851837 67.205851 
L 138.551762 65.113274 
L 138.915547 63.182909 
L 138.911807 61.474763 
L 138.521321 60.043033 
L 137.739858 58.931484 
L 136.579798 58.169474 
L 135.070098 57.76934 
L 133.25442 57.725658 
L 131.187678 58.016517 
L 128.93153 58.606562 
L 126.549588 59.451194 
L 124.103076 60.501172 
L 121.647446 61.706914 
L 116.889929 64.405436 
L 112.550402 67.248461 
L 108.772438 70.047284 
L 105.602662 72.708462 
L 103.026559 75.202614 
L 100.996709 77.534612 
L 99.451899 79.722403 
L 98.328929 81.784757 
L 97.569375 83.735629 
L 97.123127 85.582499 
L 96.949929 87.326654 
L 97.019756 88.964166 
L 97.312567 90.486823 
L 97.817752 91.882728 
L 98.533492 93.136418 
L 99.466111 94.228508 
L 100.629446 95.134861 
L 102.044167 95.825338 
L 103.736901 96.262162 
L 105.7389 96.398009 
L 108.083869 96.174041 
L 110.804337 95.518343 
L 113.92575 94.345654 
L 117.457184 92.559994 
L 119.371707 91.406199 
L 121.377429 90.062768 
L 123.463763 88.519796 
L 125.615479 86.77009 
L 127.811833 84.810509 
L 130.025701 82.643573 
L 132.22281 80.279292 
L 134.361193 77.737109 
L 136.391033 75.047783 
L 138.255118 72.254908 
L 139.890142 69.415688 
L 141.229098 66.600515 
L 142.204943 63.890877 
L 142.755523 61.375271 
L 142.829505 59.143095 
L 142.392646 57.276947 
L 141.433351 55.844322 
L 139.966278 54.890149 
L 138.032849 54.431723 
L 135.698185 54.457235 
L 133.044825 54.928279 
L 130.164491 55.785753 
L 127.14956 56.957779 
L 124.085809 58.367993 
L 121.047362 59.942762 
L 115.27126 63.334576 
L 110.131182 66.746275 
L 105.751609 69.971196 
L 102.136798 72.938073 
L 99.226107 75.65344 
L 96.930607 78.156653 
L 95.154419 80.492816 
L 93.806129 82.700001 
L 92.804296 84.805319 
L 92.079578 86.825504 
L 91.574959 88.769222 
L 91.134092 91.547387 
L 90.977044 94.158113 
L 91.034119 96.593076 
L 91.268326 98.842572 
L 91.668575 100.896789 
L 92.245435 102.744694 
L 93.029361 104.371363 
L 93.691206 105.322109 
L 94.487735 106.154806 
L 95.444481 106.855915 
L 96.592614 107.406849 
L 97.969642 107.782194 
L 99.620075 107.947364 
L 101.595848 107.85555 
L 103.956179 107.443879 
L 106.766246 106.628808 
L 110.093716 105.301168 
L 114.001494 103.322031 
L 116.188221 102.036306 
L 118.534266 100.522122 
L 121.038597 98.754909 
L 123.695451 96.710142 
L 126.492804 94.364794 
L 129.410586 91.699421 
L 132.418632 88.701006 
L 135.474493 85.366623 
L 138.521255 81.707936 
L 141.485669 77.75632 
L 144.277048 73.568139 
L 146.787581 69.229317 
L 148.894904 64.85787 
L 150.467914 60.602709 
L 151.376689 56.636879 
L 151.506776 53.144006 
L 150.776741 50.298187 
L 149.155802 48.240028 
L 146.676399 47.054098 
L 143.436339 46.754349 
L 139.587817 47.282546 
L 135.315535 48.520586 
L 130.810453 50.312693 
L 126.246705 52.490656 
L 121.766721 54.895636 
L 117.475585 57.392802 
L 109.707208 62.279007 
L 103.178222 66.670271 
L 97.856417 70.442099 
L 93.593693 73.657528 
L 90.207898 76.444386 
L 87.519228 78.929246 
L 85.364428 81.211281 
L 83.601146 83.357685 
L 81.429934 86.404268 
L 77.66544 91.996046 
L 76.323423 93.68974 
L 74.84314 95.271596 
L 73.175376 96.716511 
L 71.274237 97.991004 
L 69.097319 99.050111 
L 66.60744 99.833371 
L 65.235859 100.097291 
L 63.776578 100.260202 
L 62.228666 100.308151 
L 60.592851 100.225452 
L 58.871962 99.994687 
L 57.071461 99.596817 
L 55.200033 99.01145 
L 53.270245 98.21732 
L 51.299219 97.193033 
L 49.309289 95.918155 
L 47.328551 94.374687 
L 45.39121 92.548963 
L 43.537586 90.433936 
L 41.813628 88.031772 
L 40.269767 85.356517 
L 38.958993 82.436531 
L 37.934087 79.316204 
L 37.244103 76.056454 
L 36.930325 72.733481 
L 37.022175 69.435508 
L 37.533664 66.257493 
L 38.461039 63.294327 
L 39.782179 60.633387 
L 41.45798 58.347618 
L 43.43559 56.490247 
L 45.652963 55.091925 
L 48.043955 54.160532 
L 50.543163 53.683362 
L 53.089877 53.630997 
L 55.630816 53.962027 
L 58.121588 54.627831 
L 60.527053 55.576836 
L 62.820887 56.757941 
L 64.984632 58.122983 
L 67.006519 59.628311 
L 68.880235 61.235603 
L 70.60377 62.912114 
L 72.178393 64.630518 
L 74.897401 68.108207 
L 77.084175 71.540147 
L 78.79779 74.850498 
L 80.099387 77.999503 
L 81.046277 80.970674 
L 81.688713 83.761733 
L 82.068317 86.378557 
L 82.217536 88.83125 
L 82.159679 91.131627 
L 81.909245 93.291586 
L 81.472351 95.321994 
L 80.847129 97.231803 
L 80.024026 99.027198 
L 78.985987 100.710585 
L 77.708559 102.279206 
L 76.160014 103.723169 
L 74.301676 105.022604 
L 72.088789 106.143609 
L 69.472498 107.032633 
L 67.997604 107.366243 
L 66.403825 107.608997 
L 64.686226 107.745047 
L 62.841069 107.755628 
L 60.866376 107.618758 
L 58.762644 107.308997 
L 56.533729 106.797342 
L 54.187906 106.05133 
L 51.739111 105.035472 
L 49.208334 103.712165 
L 46.625087 102.043261 
L 44.028843 99.992477 
L 41.470199 97.528817 
L 39.011506 94.631078 
L 36.726535 91.293354 
L 34.69876 87.531132 
L 33.017806 83.387205 
L 31.773798 78.93616 
L 31.049715 74.285902 
L 30.912368 69.574682 
L 31.40332 64.962715 
L 32.531566 60.61868 
L 34.269882 56.702973 
L 36.556186 53.350884 
L 39.3 50.65925 
L 42.392735 48.679285 
L 45.719475 47.416514 
L 49.169835 46.836828 
L 52.646075 46.876397 
L 56.067763 47.452875 
L 59.373215 48.475785 
L 62.518547 49.85483 
L 65.475322 51.505698 
L 68.227636 53.353508 
L 70.769228 55.334354 
L 73.100921 57.395488 
L 75.228537 59.494629 
L 77.161275 61.598802 
L 80.488816 65.728736 
L 83.185991 69.656657 
L 85.359153 73.322424 
L 87.109387 76.70657 
L 89.139088 81.264035 
L 91.127866 86.454526 
L 93.112035 91.714288 
L 94.300086 94.293527 
L 95.167249 95.786292 
L 96.134197 97.097125 
L 97.235385 98.219309 
L 98.507058 99.139539 
L 99.988268 99.836599 
L 101.721546 100.279626 
L 103.753037 100.425911 
L 106.131732 100.218332 
L 108.907241 99.582674 
L 112.125194 98.425569 
L 115.818982 96.634507 
L 117.848179 95.461872 
L 119.996078 94.082668 
L 122.256107 92.481111 
L 124.616961 90.643105 
L 127.061452 88.557664 
L 129.565265 86.218762 
L 132.09568 83.627599 
L 134.610382 80.795262 
L 137.056536 77.745631 
L 139.370394 74.518251 
L 141.477774 71.170717 
L 143.29582 67.779926 
L 144.736466 64.441412 
L 145.711951 61.265957 
L 146.142417 58.372914 
L 145.965106 55.880257 
L 145.143918 53.89228 
L 143.677338 52.486938 
L 141.602431 51.705507 
L 138.993167 51.547239 
L 135.9528 51.970544 
L 132.601859 52.900459 
L 129.064646 54.240388 
L 125.45726 55.885185 
L 121.879203 57.732851 
L 118.409207 59.693064 
L 112.003767 63.673962 
L 106.487771 67.447064 
L 101.904642 70.862836 
L 98.188218 73.914364 
L 95.224926 76.659399 
L 92.888232 79.171143 
L 91.05584 81.514147 
L 89.617417 83.736237 
L 88.477294 85.868683 
L 87.153035 88.936387 
L 85.782311 92.815722 
L 84.186225 97.332558 
L 83.076598 99.858925 
L 81.720673 102.241296 
L 80.624033 103.744636 
L 79.329696 105.173013 
L 77.795272 106.515157 
L 75.972881 107.752071 
L 73.808814 108.852944 
L 71.244179 109.769366 
L 68.217332 110.42737 
L 66.511835 110.626829 
L 64.669434 110.716933 
L 62.684973 110.676193 
L 60.555243 110.479224 
L 58.27983 110.096389 
L 55.862179 109.49358 
L 53.3109 108.632263 
L 50.641319 107.469913 
L 47.877246 105.96107 
L 45.052879 104.059242 
L 42.214675 101.719928 
L 39.422905 98.90503 
L 36.752491 95.588757 
L 34.29256 91.764914 
L 32.144066 87.455004 
L 30.414903 82.715967 
L 29.212113 77.645718 
L 28.631434 72.384201 
L 28.745249 67.107819 
L 29.591001 62.016262 
L 31.162827 57.312749 
L 33.409045 53.181145 
L 36.236879 49.764978 
L 39.52374 47.153238 
L 43.132366 45.375781 
L 46.926184 44.408196 
L 50.781715 44.183468 
L 54.596297 44.606684 
L 58.291066 45.569386 
L 61.810225 46.961363 
L 65.118063 48.678989 
L 68.195039 50.63021 
L 71.03384 52.736805 
L 73.63594 54.934699 
L 76.008829 57.173061 
L 78.163915 59.412754 
L 81.877224 63.787248 
L 84.897962 67.911677 
L 87.350767 71.721517 
L 89.353055 75.19909 
L 91.740398 79.809904 
L 95.894223 88.065751 
L 97.011135 89.852588 
L 98.193327 91.399189 
L 99.486345 92.702657 
L 100.933878 93.752234 
L 102.57887 94.528179 
L 104.464019 95.000454 
L 106.631406 95.127272 
L 109.120849 94.853795 
L 111.966372 94.111511 
L 115.189977 92.819379 
L 116.94479 91.939414 
L 118.791682 90.888539 
L 120.72481 89.656226 
L 122.734833 88.233349 
L 124.80817 86.613141 
L 126.926226 84.792377 
L 129.064603 82.772797 
L 131.192407 80.562731 
L 133.271719 78.178839 
L 135.257409 75.64782 
L 137.097451 73.007848 
L 138.733956 70.30942 
L 140.105138 67.615222 
L 141.148372 64.9986 
L 141.804378 62.540342 
L 142.022361 60.323647 
L 141.765604 58.427572 
L 141.016704 56.919666 
L 139.781385 55.848967 
L 138.089881 55.240682 
L 135.995249 55.093728 
L 133.568688 55.381735 
L 130.892702 56.057274 
L 128.053454 57.058352 
L 125.133723 58.315805 
L 122.207509 59.76023 
L 116.570127 62.962364 
L 111.480199 66.267541 
L 107.094636 69.444352 
L 103.444252 72.396801 
L 100.48725 75.112999 
L 98.147113 77.620916 
L 96.33581 79.95969 
L 94.966793 82.164821 
L 93.96166 84.26262 
L 93.253101 86.269704 
L 92.785686 88.194678 
L 92.515494 90.040374 
L 92.409627 92.657565 
L 92.600534 95.081963 
L 93.053469 97.296054 
L 93.766687 99.278043 
L 94.399173 100.456897 
L 95.173989 101.50941 
L 96.111736 102.42153 
L 97.238848 103.174756 
L 98.587919 103.744494 
L 100.19801 104.097948 
L 102.114713 104.191457 
L 104.389679 103.967249 
L 107.079028 103.34971 
L 110.239808 102.241621 
L 113.923116 100.521455 
L 115.972212 99.387274 
L 118.161921 98.044142 
L 120.490242 96.471639 
L 122.950953 94.649712 
L 125.532362 92.559924 
L 128.215847 90.187198 
L 130.974237 87.522127 
L 133.770103 84.563896 
L 136.554111 81.323788 
L 139.263657 77.829103 
L 141.822157 74.12713 
L 144.139447 70.288521 
L 146.113916 66.409152 
L 147.637022 62.609268 
L 148.60075 59.028688 
L 148.908149 55.817197 
L 148.486218 53.120199 
L 147.299118 51.061239 
L 145.358479 49.724683 
L 142.727173 49.142883 
L 139.514202 49.291663 
L 135.861161 50.095722 
L 131.923729 51.442375 
L 127.853154 53.199658 
L 123.781985 55.234094 
L 119.816081 57.424605 
L 112.48212 61.89727 
L 106.177955 66.099819 
L 100.957068 69.83254 
L 96.732838 73.091434 
L 93.362878 75.958942 
L 90.692464 78.536146 
L 88.574358 80.910607 
L 86.876812 83.146265 
L 85.485813 85.284236 
L 83.766395 88.355093 
L 80.212927 94.962623 
L 79.063599 96.687868 
L 77.767732 98.323026 
L 76.280343 99.852273 
L 74.555769 101.253342 
L 72.54714 102.494348 
L 70.206918 103.529435 
L 67.489088 104.293102 
L 65.975704 104.545624 
L 64.353911 104.693268 
L 62.621131 104.719116 
L 60.776548 104.603684 
L 58.821709 104.324788 
L 56.761254 103.857552 
L 54.603777 103.1746 
L 52.362807 102.246534 
L 50.057874 101.042803 
L 47.71561 99.533086 
L 45.37076 97.689306 
L 43.066955 95.488383 
L 40.857017 92.91573 
L 38.802521 89.969388 
L 36.972308 86.664494 
L 35.439671 83.037504 
L 34.278067 79.149323 
L 33.555434 75.086323 
L 33.327576 70.958265 
L 33.631458 66.892488 
L 34.479622 63.024527 
L 35.856988 59.486224 
L 37.721003 56.393329 
L 40.005387 53.834895 
L 42.626859 51.866475 
L 45.493494 50.508134 
L 48.513072 49.747077 
L 51.600044 49.54371 
L 54.680283 49.83948 
L 57.693496 50.5649 
L 60.593613 51.64661 
L 63.347782 53.012857 
L 63.347782 53.012857 
" clip-path="url(#pf2a5ec4802)" style="fill: none; stroke: #1f77b4; stroke-width: 1.5; stroke-linecap: round"/>
   </g>
   <g id="line2d_29">
    <path d="M 124.097927 106.876789 
L 126.006337 103.76089 
L 130.6381 97.149488 
L 136.008799 89.773941 
L 138.811809 85.745929 
L 141.585548 81.498211 
L 144.232679 77.066779 
L 146.643365 72.517073 
L 148.698436 67.946118 
L 150.275245 63.481448 
L 151.256299 59.275474 
L 151.54018 55.494446 
L 151.053472 52.302212 
L 149.761702 49.840561 
L 147.676863 48.209541 
L 144.859382 47.45211 
L 141.413403 47.547141 
L 137.475891 48.412931 
L 133.201666 49.920481 
L 128.747438 51.913188 
L 124.257848 54.228104 
L 119.855595 56.7143 
L 111.667982 61.725882 
L 104.632171 66.303376 
L 96.422992 71.94645 
L 92.347737 74.989634 
L 89.170295 77.628398 
L 86.693794 79.997494 
L 84.739997 82.194573 
L 83.156366 84.280581 
L 81.204058 87.266432 
L 78.305535 91.905582 
L 77.06525 93.620739 
L 75.69489 95.232518 
L 74.146144 96.718967 
L 72.373878 98.051436 
L 70.335701 99.191755 
L 67.993037 100.088489 
L 65.31423 100.672468 
L 63.842152 100.819549 
L 62.280437 100.852125 
L 60.630295 100.754648 
L 58.895162 100.509882 
L 57.081243 100.099028 
L 55.198113 99.502026 
L 53.259352 98.698052 
L 51.283187 97.666292 
L 49.293072 96.387038 
L 47.318129 94.843144 
L 45.393342 93.021861 
L 43.559383 90.917007 
L 41.86193 88.531361 
L 40.35036 85.879082 
L 39.075743 82.987849 
L 38.088136 79.900328 
L 37.433315 76.674537 
L 37.149193 73.382725 
L 37.262342 70.108529 
L 37.785079 66.942428 
L 38.713616 63.975841 
L 40.027615 61.294553 
L 41.691316 58.972337 
L 43.656117 57.0657 
L 45.864233 55.610491 
L 48.252918 54.620751 
L 50.758661 54.089796 
L 53.320874 53.993121 
L 55.884732 54.292494 
L 58.403039 54.940539 
L 60.837135 55.885168 
L 63.157003 57.073422 
L 65.340788 58.454461 
L 67.37392 59.981633 
L 69.248058 61.613699 
L 70.959964 63.315349 
L 72.510434 65.057195 
L 73.903323 66.815409 
L 76.242143 70.309877 
L 78.039694 73.69577 
L 79.367484 76.918473 
L 80.294839 79.954539 
L 80.883077 82.799219 
L 81.182723 85.458136 
L 81.232584 87.941977 
L 81.059886 90.263192 
L 80.680924 92.433905 
L 80.101878 94.464519 
L 79.319606 96.362607 
L 78.322319 98.131831 
L 77.090145 99.770626 
L 75.595683 101.270408 
L 73.804748 102.613051 
L 71.677652 103.767351 
L 69.171585 104.684207 
L 67.763216 105.031847 
L 66.24496 105.290379 
L 64.613046 105.445656 
L 62.864972 105.481073 
L 61.000043 105.377365 
L 59.020016 105.112485 
L 56.929879 104.661599 
L 54.738754 103.997283 
L 52.460908 103.090009 
L 50.116833 101.909015 
L 47.734317 100.423687 
L 45.349383 98.605553 
L 43.006933 96.43097 
L 40.760866 93.884507 
L 38.673414 90.962888 
L 36.813438 87.679209 
L 35.25348 84.066896 
L 34.065526 80.182679 
L 33.315644 76.107713 
L 33.057978 71.946034 
L 33.328872 67.819797 
L 34.142072 63.861331 
L 35.48596 60.202743 
L 37.323486 56.964501 
L 39.594976 54.244844 
L 42.223402 52.111825 
L 45.121207 50.59924 
L 48.19756 49.706847 
L 51.364932 49.404397 
L 54.544236 49.638292 
L 57.668158 50.339464 
L 60.682705 51.431145 
L 63.547278 52.835537 
L 66.233688 54.478881 
L 68.724559 56.294797 
L 71.011453 58.226061 
L 73.093012 60.225138 
L 74.973235 62.253844 
L 76.659997 64.282471 
L 78.163824 66.288637 
L 80.672328 70.173422 
L 82.603709 73.831116 
L 84.062064 77.233788 
L 85.141843 80.381114 
L 85.924013 83.286839 
L 86.681125 87.236529 
L 87.083873 90.760123 
L 87.243994 93.925116 
L 87.192811 97.685724 
L 86.903103 101.020609 
L 86.379033 104.015302 
L 85.802733 106.079644 
L 85.023755 108.015409 
L 83.979132 109.842783 
L 83.092691 111.008262 
L 82.015546 112.13402 
L 80.706064 113.218545 
L 79.113656 114.254861 
L 77.177518 115.227204 
L 74.825777 116.105845 
L 71.975693 116.839204 
L 68.536203 117.342161 
L 66.566308 117.467499 
L 64.415073 117.47948 
L 62.07332 117.349787 
L 59.534459 117.04404 
L 56.795869 116.52105 
L 53.860664 115.73227 
L 50.739919 114.621634 
L 47.455331 113.126096 
L 44.042274 111.177245 
L 40.553029 108.704487 
L 37.059818 105.640309 
L 33.657006 101.928062 
L 30.461573 97.532408 
L 27.610763 92.451939 
L 25.255793 86.732559 
L 23.550928 80.479023 
L 22.638133 73.86101 
L 22.628956 67.10986 
L 23.586827 60.503279 
L 25.513974 54.338168 
L 28.346852 48.895614 
L 31.962062 44.405413 
L 36.191833 41.01854 
L 40.845345 38.793899 
L 45.730836 37.701279 
L 50.673955 37.637757 
L 55.529712 38.451742 
L 60.187613 39.968324 
L 64.571206 42.011033 
L 68.634027 44.41747 
L 72.35387 47.048387 
L 75.726817 49.791217 
L 78.761887 52.559636 
L 81.476667 55.290753 
L 83.89397 57.941208 
L 87.939719 62.900046 
L 91.110881 67.333698 
L 93.608964 71.237864 
L 96.476946 76.186177 
L 100.047583 82.397781 
L 101.350957 84.274041 
L 102.696881 85.832731 
L 104.143867 87.078878 
L 105.741219 88.006701 
L 107.530484 88.599759 
L 109.54562 88.831266 
L 111.811609 88.66492 
L 114.341188 88.056832 
L 117.1294 86.959461 
L 120.145816 85.328723 
L 123.324814 83.135596 
L 126.555264 80.383088 
L 128.140552 78.812049 
L 129.672662 77.127902 
L 131.122605 75.34984 
L 132.45872 73.502892 
L 133.647526 71.618003 
L 134.654926 69.731689 
L 135.447722 67.885137 
L 135.995412 66.122731 
L 136.272129 64.489983 
L 136.258572 63.031005 
L 135.943721 61.78571 
L 135.326105 60.787052 
L 134.41445 60.058646 
L 133.22757 59.613091 
L 131.79346 59.451261 
L 130.14769 59.562672 
L 128.331257 59.926857 
L 126.388166 60.515549 
L 124.362985 61.295336 
L 120.234644 63.285201 
L 116.24132 65.623977 
L 112.594469 68.093742 
L 109.418152 70.550756 
L 106.763715 72.917677 
L 104.631261 75.163503 
L 102.990136 77.283033 
L 101.794996 79.281441 
L 100.996937 81.164912 
L 100.550445 82.936038 
L 100.417283 84.592194 
L 100.568308 86.125393 
L 100.984001 87.522628 
L 101.654219 88.766151 
L 102.577485 89.833421 
L 103.759962 90.696654 
L 105.214093 91.322022 
L 106.956768 91.668642 
L 109.006724 91.687611 
L 111.380756 91.321534 
L 114.088171 90.50529 
L 117.122859 89.169201 
L 120.452481 87.24626 
L 124.004838 84.685464 
L 125.827343 83.159353 
L 127.652763 81.473009 
L 129.454474 79.635295 
L 131.201227 77.661278 
L 132.857387 75.573179 
L 134.383558 73.401047 
L 135.737653 71.183016 
L 136.87648 68.964923 
L 137.757812 66.799146 
L 138.34288 64.742536 
L 138.599101 62.853472 
L 138.502799 61.188181 
L 138.041585 59.796682 
L 137.21606 58.718823 
L 136.040539 57.980976 
L 134.542625 57.59392 
L 132.761611 57.552264 
L 130.745888 57.835533 
L 128.549694 58.410726 
L 126.229602 59.235912 
L 123.841197 60.264296 
L 121.436252 61.44816 
L 116.753078 64.106069 
L 112.45842 66.914038 
L 108.712559 69.681855 
L 105.577587 72.314895 
L 103.047706 74.784156 
L 101.077645 77.095651 
L 99.604244 79.268109 
L 98.560766 81.320147 
L 97.885392 83.264581 
L 97.525652 85.107025 
L 97.440284 86.846485 
L 97.599572 88.476557 
L 97.984904 89.986471 
L 98.587983 91.361664 
L 99.409937 92.583785 
L 100.460442 93.630155 
L 101.756836 94.472718 
L 103.323116 95.076565 
L 105.188563 95.398118 
L 107.385629 95.383189 
L 109.946498 94.96529 
L 112.897534 94.064969 
L 116.250594 92.591538 
L 118.074547 91.609909 
L 119.990128 90.449409 
L 121.988185 89.099637 
L 124.05537 87.55226 
L 126.173391 85.802144 
L 128.318284 83.848712 
L 130.459805 81.697505 
L 132.561045 79.361869 
L 134.578392 76.864622 
L 136.462013 74.239507 
L 138.156998 71.532133 
L 139.605294 68.800067 
L 140.748491 66.111749 
L 141.531396 63.543935 
L 141.906176 61.177559 
L 141.836689 59.092192 
L 141.302447 57.359576 
L 140.301595 56.037065 
L 138.852333 55.162012 
L 136.992414 54.748098 
L 134.776642 54.784361 
L 132.272692 55.237138 
L 129.555853 56.05456 
L 126.703479 57.172752 
L 123.789887 58.522608 
L 120.8823 60.036075 
L 115.303498 63.315105 
L 110.291587 66.633497 
L 106.004739 69.782351 
L 102.475725 72.686362 
L 99.659685 75.349806 
L 97.472916 77.810962 
L 95.81895 80.113747 
L 94.603897 82.294283 
L 93.744294 84.376979 
L 93.170307 86.375401 
L 92.826262 88.294881 
L 92.669803 90.135256 
L 92.723062 92.739354 
L 93.071571 95.138485 
L 93.697029 97.308947 
L 94.275009 98.614856 
L 94.996125 99.795661 
L 95.879653 100.8378 
L 96.951242 101.723621 
L 98.243209 102.429723 
L 99.794867 102.924833 
L 101.652646 103.167099 
L 103.869672 103.100766 
L 106.504186 102.652297 
L 109.615849 101.726368 
L 113.258425 100.202809 
L 115.290944 99.172509 
L 117.466733 97.936887 
L 119.783669 96.475312 
L 122.23518 94.767376 
L 124.808957 92.79412 
L 127.485514 90.539727 
L 130.236644 87.993765 
L 133.023905 85.153993 
L 135.797315 82.029692 
L 138.494529 78.645317 
L 141.040842 75.044124 
L 143.350432 71.291163 
L 145.329238 67.474849 
L 146.879759 63.706127 
L 147.907841 60.11434 
L 148.33107 56.839219 
L 148.087907 54.019135 
L 147.146206 51.776784 
L 145.509443 50.204518 
L 143.219124 49.352252 
L 140.352438 49.220776 
L 137.015268 49.762287 
L 133.331713 50.888154 
L 129.432131 52.482128 
L 125.441837 54.415939 
L 121.4722 56.564049 
L 113.940264 61.078869 
L 107.313249 65.400982 
L 101.770617 69.250027 
L 97.293205 72.588903 
L 93.758125 75.499474 
L 91.003607 78.095057 
L 88.865343 80.476165 
L 87.193694 82.715813 
L 85.859907 84.859921 
L 84.263205 87.947269 
L 80.609197 95.509665 
L 79.539162 97.222898 
L 78.317872 98.847895 
L 76.902901 100.371131 
L 75.250232 101.773527 
L 73.313581 103.027362 
L 71.044784 104.092072 
L 68.39579 104.908709 
L 66.914773 105.198878 
L 65.323172 105.393043 
L 63.617647 105.475437 
L 61.796475 105.427746 
L 59.860146 105.228943 
L 57.812079 104.855225 
L 55.659468 104.28012 
L 53.414246 103.474832 
L 51.094136 102.408945 
L 48.723735 101.051573 
L 46.335518 99.373093 
L 43.970624 97.347538 
L 41.679208 94.955691 
L 39.520135 92.188822 
L 37.559723 89.052828 
L 35.869327 85.572369 
L 34.521627 81.794326 
L 33.585691 77.789789 
L 33.121174 73.653677 
L 33.172286 69.501341 
L 33.762449 65.461883 
L 34.890601 61.668651 
L 36.529975 58.248051 
L 38.629739 55.308416 
L 41.119329 52.930795 
L 43.914759 51.163198 
L 46.92582 50.019068 
L 50.063037 49.479847 
L 53.243455 49.50071 
L 56.394724 50.018097 
L 59.457353 50.957647 
L 62.385345 52.241401 
L 65.145594 53.793552 
L 67.716497 55.54448 
L 70.086161 57.43314 
L 72.250518 59.408064 
L 74.211534 61.427339 
L 75.97563 63.457919 
L 77.552349 65.474564 
L 80.191183 69.396894 
L 82.231253 73.103567 
L 83.77761 76.558529 
L 84.927003 79.757037 
L 85.763215 82.710675 
L 86.355676 85.438482 
L 86.905357 89.153857 
L 87.165207 92.480272 
L 87.20511 96.417084 
L 86.986247 99.89307 
L 86.534113 103.001643 
L 86.022894 105.136847 
L 85.326665 107.132942 
L 84.391014 109.0119 
L 83.596961 110.208169 
L 82.632455 111.363296 
L 81.46048 112.477875 
L 80.035835 113.548331 
L 78.303841 114.564359 
L 76.199214 115.504912 
L 73.645571 116.33199 
L 70.556464 116.981297 
L 66.839561 117.348626 
L 64.717541 117.378562 
L 62.406842 117.271108 
L 59.900523 116.992887 
L 57.195393 116.50385 
L 54.293713 115.756697 
L 51.205336 114.696659 
L 47.950304 113.261924 
L 44.561825 111.38507 
L 41.089474 108.995996 
L 37.602255 106.026831 
L 34.190937 102.419309 
L 30.968818 98.134767 
L 28.069836 93.166425 
L 25.642927 87.552666 
L 23.841844 81.388915 
L 22.810494 74.834655 
L 22.665209 68.111695 
L 23.476896 61.490785 
L 25.257153 55.266232 
L 27.952317 49.721935 
L 31.447797 45.095777 
L 35.58218 41.550699 
L 40.167814 39.159217 
L 45.012913 37.904012 
L 49.940549 37.692481 
L 54.801547 38.379825 
L 59.480582 39.794331 
L 63.896475 41.75972 
L 67.998614 44.111659 
L 71.761428 46.707751 
L 75.178439 49.43181 
L 78.256827 52.193955 
L 81.012926 54.928107 
L 83.468751 57.588236 
L 87.581532 62.57831 
L 90.805628 67.050266 
L 93.34315 70.993941 
L 96.248091 75.998813 
L 99.834157 82.295756 
L 101.131479 84.204675 
L 102.465943 85.796421 
L 103.896896 87.076927 
L 105.474427 88.041333 
L 107.24093 88.674096 
L 109.231422 88.949232 
L 111.47234 88.831014 
L 113.978482 88.275692 
L 116.747785 87.235086 
L 119.753736 85.663234 
L 122.9357 83.527438 
L 126.18836 80.82472 
L 127.793833 79.273193 
L 129.353074 77.603334 
L 130.837593 75.83301 
L 132.21601 73.985926 
L 133.454831 72.091821 
L 134.519571 70.186232 
L 135.376223 68.309747 
L 135.99301 66.50665 
L 136.342342 64.822977 
L 136.4028 63.304032 
L 136.160956 61.99159 
L 135.612806 60.921038 
L 134.764602 60.118816 
L 133.632936 59.600503 
L 132.244017 59.369836 
L 130.632197 59.418814 
L 128.83789 59.72887 
L 126.905156 60.272928 
L 124.879189 61.018032 
L 122.804001 61.928174 
L 118.664999 64.099892 
L 114.755992 66.528604 
L 111.255387 69.022404 
L 108.257201 71.464311 
L 105.789988 73.797589 
L 103.838969 76.00397 
L 102.365285 78.084413 
L 101.320276 80.045904 
L 100.654947 81.89408 
L 100.325623 83.629989 
L 100.29693 85.249221 
L 100.543027 86.742083 
L 101.047773 88.094 
L 101.804268 89.285701 
L 102.814024 90.293037 
L 104.085836 91.086384 
L 105.634307 91.629722 
L 107.477828 91.879567 
L 109.635673 91.784048 
L 112.123734 91.282672 
L 114.94828 90.307625 
L 118.097099 88.787959 
L 121.527638 86.6585 
L 123.323405 85.350015 
L 125.152439 83.875591 
L 126.994266 82.237093 
L 128.823847 80.441177 
L 130.611428 78.500381 
L 132.322641 76.434157 
L 133.918973 74.269691 
L 135.358658 72.042377 
L 136.598085 69.795707 
L 137.593714 67.580429 
L 138.304467 65.452813 
L 138.694442 63.471979 
L 138.735744 61.696398 
L 138.411087 60.179843 
L 137.71585 58.967223 
L 136.659234 58.090874 
L 135.264287 57.567863 
L 133.566715 57.398777 
L 131.612578 57.568196 
L 129.455173 58.046798 
L 127.151489 58.794712 
L 124.758685 59.765584 
L 122.330994 60.910723 
L 117.559533 63.538749 
L 113.140678 66.361278 
L 109.256632 69.166329 
L 105.984916 71.843536 
L 103.328662 74.355214 
L 101.246486 76.704143 
L 99.675767 78.909073 
L 98.548353 80.990127 
L 97.800019 82.962028 
L 97.37551 84.832174 
L 97.230729 86.601073 
L 97.333265 88.263575 
L 97.66201 89.810034 
L 98.206384 91.227022 
L 98.965448 92.497476 
L 99.947021 93.600284 
L 101.16684 94.509354 
L 102.647646 95.192216 
L 104.418013 95.608259 
L 106.510577 95.706731 
L 108.959153 95.424828 
L 111.794001 94.686471 
L 115.034273 93.402924 
L 116.806661 92.526473 
L 118.676518 91.477195 
L 120.637186 90.243491 
L 122.678262 88.815189 
L 124.78483 87.18453 
L 126.936693 85.347393 
L 129.107647 83.304765 
L 131.264907 81.064401 
L 133.368791 78.64257 
L 135.372828 76.065748 
L 137.22443 73.371994 
L 138.866306 70.611693 
L 140.238716 67.847332 
L 141.282609 65.151928 
L 141.943521 62.605883 
L 142.175964 60.292216 
L 141.947832 58.290454 
L 141.244234 56.669811 
L 140.070096 55.482603 
L 138.450993 54.759013 
L 136.43191 54.504178 
L 134.074018 54.698224 
L 131.449882 55.299279 
L 128.637834 56.248869 
L 125.716327 57.478689 
L 122.759009 58.91755 
L 116.986704 62.158177 
L 111.708169 65.534162 
L 107.132942 68.781037 
L 103.327284 71.786877 
L 100.263792 74.538427 
L 97.864929 77.069546 
L 96.033617 79.426526 
L 94.671814 81.650261 
L 93.690414 83.769952 
L 93.013599 85.803026 
L 92.579955 87.757584 
L 92.341873 89.635329 
L 92.277428 92.302479 
L 92.501428 94.775947 
L 92.982577 97.035726 
L 93.725077 99.058317 
L 94.381444 100.260609 
L 95.186807 101.332875 
L 96.165012 102.260007 
L 97.346324 103.02189 
L 98.767881 103.591479 
L 100.474074 103.932338 
L 102.516569 103.995518 
L 104.953517 103.715766 
L 107.847161 103.00725 
L 111.258585 101.759476 
L 113.174915 100.891465 
L 115.237722 99.83508 
L 117.448668 98.569432 
L 119.806007 97.072894 
L 122.303438 95.323945 
L 124.928751 93.30243 
L 127.662304 90.991325 
L 130.475384 88.379078 
L 133.328573 85.462574 
L 136.170332 82.250666 
L 138.936074 78.768088 
L 141.548107 75.059362 
L 143.916891 71.192069 
L 145.944043 67.258602 
L 147.527422 63.375353 
L 148.56835 59.678337 
L 148.980595 56.31459 
L 148.700158 53.429518 
L 147.694367 51.151458 
L 145.968466 49.575912 
L 143.568023 48.752678 
L 140.576158 48.678989 
L 137.105771 49.300556 
L 133.288118 50.520443 
L 129.259945 52.213658 
L 125.151533 54.244053 
L 121.077482 56.479995 
L 113.382509 61.130697 
L 106.649228 65.531917 
L 101.043456 69.414507 
L 96.530628 72.757858 
L 92.975022 75.657637 
L 90.205508 78.236096 
L 88.051362 80.598511 
L 86.358606 82.819877 
L 84.99549 84.946497 
L 83.334648 88.007975 
L 80.419395 93.714701 
L 78.769747 96.322783 
L 77.489947 97.946711 
L 76.01474 99.460382 
L 74.299635 100.841359 
L 72.299107 102.057889 
L 69.967333 103.064626 
L 67.260742 103.797157 
L 65.755121 104.033662 
L 64.143322 104.165488 
L 62.423547 104.176271 
L 60.595921 104.04726 
L 58.663108 103.757264 
L 56.631028 103.282715 
L 54.509693 102.597937 
L 52.314104 101.6757 
L 50.065202 100.488141 
L 47.790767 99.008149 
L 45.526155 97.211309 
L 43.314732 95.078429 
L 41.207776 92.598637 
L 39.263659 89.772898 
L 37.54608 86.617637 
L 36.121217 83.168002 
L 35.053796 79.480123 
L 34.402271 75.631626 
L 34.213577 71.719787 
L 34.518108 67.856928 
L 35.325762 64.163181 
L 36.623784 60.757319 
L 38.376947 57.746898 
L 40.530158 55.219249 
L 43.013113 53.234795 
L 45.746249 51.823678 
L 48.647021 50.98602 
L 51.635631 50.695375 
L 54.63955 50.904436 
L 57.59651 51.551801 
L 60.455991 52.568711 
L 63.17941 53.884913 
L 65.739386 55.433195 
L 68.118415 57.152469 
L 70.307277 58.989497 
L 72.303406 60.899531 
L 74.109357 62.84615 
L 75.731458 64.800596 
L 77.178679 66.740831 
L 79.592205 70.517899 
L 81.44398 74.096926 
L 82.828857 77.445137 
L 83.833591 80.557476 
L 84.532687 83.443713 
L 84.987099 86.120654 
L 85.244574 88.607698 
L 85.336633 92.024728 
L 85.140524 95.119127 
L 84.689993 97.942988 
L 83.983198 100.538827 
L 83.354536 102.159325 
L 82.580653 103.700397 
L 81.638126 105.166629 
L 80.496881 106.559272 
L 79.119572 107.874892 
L 77.460936 109.10321 
L 75.467354 110.223761 
L 73.077034 111.200875 
L 70.221577 111.976371 
L 66.830189 112.459332 
L 64.912802 112.550505 
L 62.838632 112.512686 
L 60.603423 112.318937 
L 58.20605 111.937494 
L 55.649778 111.331479 
L 52.943789 110.458889 
L 50.104989 109.273048 
L 47.160036 107.723748 
L 44.147475 105.759356 
L 41.119746 103.330186 
L 38.144715 100.393374 
L 35.306231 96.919358 
L 32.703072 92.899767 
L 30.445662 88.356031 
L 28.650023 83.347448 
L 27.42889 77.976825 
L 26.880533 72.391489 
L 27.076708 66.777709 
L 28.051881 61.347646 
L 29.796155 56.31975 
L 32.253893 51.895612 
L 35.328765 48.237743 
L 38.894391 45.452971 
L 42.808298 43.584704 
L 46.926324 42.614966 
L 51.11487 42.474569 
L 55.25941 43.058218 
L 59.268847 44.240904 
L 63.076242 45.892637 
L 66.636961 47.88976 
L 69.925373 50.122287 
L 72.931016 52.497602 
L 75.654886 54.941313 
L 78.106174 57.396212 
L 80.299608 59.820152 
L 82.253374 62.183498 
L 85.523071 66.657256 
L 88.080914 70.739835 
L 90.085174 74.420893 
L 92.356459 79.238851 
L 96.536401 88.699802 
L 97.550293 90.42163 
L 98.659197 91.906999 
L 99.907566 93.152489 
L 101.33816 94.145716 
L 102.99339 94.864295 
L 104.915807 95.274529 
L 107.147446 95.329921 
L 109.727533 94.969887 
L 112.687833 94.119371 
L 116.044685 92.690708 
L 117.86978 91.730142 
L 119.786688 90.589936 
L 121.786795 89.259636 
L 123.857311 87.730739 
L 125.980519 85.997803 
L 128.133042 84.059803 
L 130.285217 81.921692 
L 132.400671 79.596092 
L 134.436254 77.104998 
L 136.342459 74.481277 
L 138.064502 71.769686 
L 139.544198 69.02707 
L 140.722686 66.321399 
L 141.543962 63.729333 
L 141.95903 61.332205 
L 141.930269 59.210538 
L 141.435498 57.437567 
L 140.471095 56.072594 
L 139.0536 55.155177 
L 137.219382 54.701222 
L 135.022285 54.701743 
L 132.529532 55.124579 
L 129.816482 55.918751 
L 126.961019 57.020619 
L 124.038346 58.360725 
L 121.116784 59.870221 
L 115.500056 63.154269 
L 110.443983 66.487469 
L 106.113046 69.653815 
L 102.543657 72.573928 
L 99.692483 75.250559 
L 97.475988 77.722002 
L 95.797133 80.03287 
L 94.561115 82.220131 
L 93.683457 84.308938 
L 93.093329 86.313427 
L 92.734126 88.239337 
L 92.562643 90.086797 
L 92.591919 92.703264 
L 92.912507 95.117546 
L 93.503623 97.30698 
L 94.053822 98.628403 
L 94.742214 99.827767 
L 95.587077 100.892402 
L 96.612951 101.805842 
L 97.850944 102.546259 
L 99.339109 103.084447 
L 101.122671 103.381233 
L 103.253813 103.384272 
L 105.790474 103.02422 
L 108.793286 102.210613 
L 112.319289 100.828323 
L 114.292641 99.880861 
L 116.4104 98.736621 
L 118.672272 97.374905 
L 121.074028 95.774766 
L 123.606297 93.916041 
L 126.253163 91.780834 
L 128.990636 89.355512 
L 131.785076 86.633288 
L 134.591723 83.617365 
L 137.353577 80.324541 
L 140.000942 76.788982 
L 142.452018 73.06569 
L 144.614987 69.23292 
L 146.391932 65.392644 
L 147.684814 61.668039 
L 148.403326 58.197226 
L 148.474005 55.122991 
L 147.849419 52.579174 
L 146.515824 50.675498 
L 144.497601 49.483604 
L 141.85715 49.027355 
L 138.689827 49.279886 
L 135.114658 50.168306 
L 131.262526 51.585037 
L 127.264081 53.403088 
L 123.239389 55.491916 
L 119.290672 57.730849 
L 111.921334 62.276132 
L 105.54524 66.508064 
L 100.274907 70.226888 
L 96.051337 73.442637 
L 92.732908 76.255715 
L 90.1521 78.781134 
L 88.145656 81.113905 
L 86.567981 83.319953 
L 85.295242 85.43902 
L 83.738498 88.495325 
L 80.980344 94.199254 
L 79.406826 96.812843 
L 78.181856 98.446353 
L 76.766118 99.976965 
L 75.115561 101.385178 
L 73.184235 102.642938 
L 70.92467 103.709502 
L 68.28987 104.526013 
L 66.818236 104.815523 
L 65.237809 105.008791 
L 63.545464 105.090236 
L 61.739701 105.041805 
L 59.821228 104.842819 
L 57.793658 104.469926 
L 55.664335 103.897221 
L 53.445269 103.096609 
L 51.154153 102.038504 
L 48.815395 100.692978 
L 46.46108 99.031462 
L 44.131698 97.029081 
L 41.876463 94.667662 
L 39.75297 91.939335 
L 37.825946 88.850521 
L 36.164891 85.42587 
L 34.840466 81.711552 
L 33.919742 77.777103 
L 33.460605 73.715011 
L 33.505984 69.637416 
L 34.078715 65.66969 
L 35.177998 61.941321 
L 36.778197 58.575204 
L 38.830371 55.676959 
L 41.266383 53.326061 
L 44.004907 51.570226 
L 46.958329 50.423822 
L 50.039447 49.870185 
L 53.167098 49.867002 
L 56.270171 50.353475 
L 59.289881 51.257932 
L 62.180476 52.50479 
L 64.90874 54.020174 
L 67.452706 55.735916 
L 69.799966 57.591955 
L 71.945854 59.537409 
L 73.891718 61.530637 
L 75.643373 63.538626 
L 77.209794 65.536012 
L 79.832438 69.42887 
L 81.859339 73.116211 
L 83.3928 76.559725 
L 84.527436 79.752778 
L 85.345341 82.705513 
L 85.914532 85.435935 
L 86.417213 89.160368 
L 86.611638 92.500896 
L 86.579408 95.519586 
L 86.363243 98.2689 
L 85.975909 100.792287 
L 85.405748 103.125619 
L 84.618916 105.298402 
L 83.558621 107.333998 
L 82.659989 108.622956 
L 81.571157 109.859852 
L 80.252438 111.042727 
L 78.655713 112.163851 
L 76.723444 113.206488 
L 74.388139 114.139916 
L 71.572939 114.911958 
L 68.194549 115.438089 
L 66.26805 115.570055 
L 64.170651 115.586341 
L 61.894712 115.459865 
L 59.435235 115.158038 
L 56.791147 114.642168 
L 53.966931 113.867083 
L 50.974636 112.781133 
L 47.836259 111.326857 
L 44.586406 109.442635 
L 41.275064 107.065727 
L 37.97011 104.137134 
L 34.759021 100.608576 
L 31.749014 96.45166 
L 29.064713 91.668743 
L 26.842459 86.304258 
L 25.220737 80.454291 
L 24.326958 74.271469 
L 24.261972 67.962021 
L 25.084928 61.772871 
L 26.801871 55.968866 
L 29.361278 50.80329 
L 32.658274 46.487521 
L 36.547 43.166646 
L 40.858314 40.906466 
L 45.418812 39.693938 
L 50.067317 39.449369 
L 54.666349 40.045941 
L 59.107898 41.331378 
L 63.314201 43.147448 
L 67.235071 45.344741 
L 70.843361 47.791978 
L 74.129873 50.380394 
L 77.098575 53.024379 
L 79.762518 55.659711 
L 82.14062 58.240517 
L 84.255236 60.735819 
L 87.790663 65.400756 
L 90.562067 69.588039 
L 92.749954 73.302537 
L 95.277864 78.065428 
L 98.486717 84.176764 
L 99.684757 86.06996 
L 100.937434 87.672969 
L 102.299872 88.988836 
L 103.82054 90.010393 
L 105.542843 90.71987 
L 107.505591 91.088487 
L 109.742064 91.076257 
L 112.277248 90.632512 
L 115.122762 89.697958 
L 118.268952 88.209591 
L 121.673912 86.110226 
L 123.448206 84.818943 
L 125.249934 83.364599 
L 127.058661 81.750141 
L 128.84952 79.983261 
L 130.593114 78.077429 
L 132.25568 76.052833 
L 133.799609 73.937115 
L 135.184384 71.765725 
L 136.367991 69.581712 
L 137.308819 67.434802 
L 137.96798 65.379621 
L 138.311906 63.473059 
L 138.315012 61.77089 
L 137.962108 60.323914 
L 137.250249 59.174073 
L 136.18971 58.351041 
L 134.803893 57.869833 
L 133.128093 57.729809 
L 131.207245 57.915265 
L 129.092936 58.397514 
L 126.840049 59.138101 
L 124.50346 60.092635 
L 122.135141 61.214672 
L 117.483929 63.785055 
L 113.177445 66.546777 
L 109.39116 69.296954 
L 106.200734 71.928561 
L 103.610579 74.40343 
L 101.58217 76.722079 
L 100.056267 78.900604 
L 98.96803 80.956758 
L 98.256223 82.903385 
L 97.868178 84.746432 
L 97.762016 86.485232 
L 97.907229 88.113563 
L 98.28437 89.620657 
L 98.884332 90.991783 
L 99.707477 92.208284 
L 100.762742 93.247077 
L 102.066705 94.079638 
L 103.642502 94.670577 
L 105.51835 94.975891 
L 107.72529 94.941131 
L 110.29358 94.499901 
L 113.246943 93.573478 
L 116.593692 92.072961 
L 118.409867 91.078407 
L 120.313729 89.906182 
L 122.295423 88.546669 
L 124.340877 86.992497 
L 126.431091 85.239668 
L 128.541459 83.288902 
L 130.641232 81.147158 
L 132.693211 78.82925 
L 134.653817 76.359405 
L 136.473671 73.772561 
L 138.098841 71.11512 
L 139.472847 68.444832 
L 140.539476 65.829501 
L 141.246311 63.344274 
L 141.548751 61.067449 
L 141.414106 59.075012 
L 140.825263 57.434425 
L 139.783315 56.198476 
L 138.308655 55.400174 
L 136.44021 55.049615 
L 134.232817 55.13343 
L 131.753077 55.61698 
L 129.074275 56.448863 
L 126.271114 57.566901 
L 123.414948 58.904559 
L 120.570028 60.396794 
L 115.121818 63.618168 
L 110.234583 66.874622 
L 106.057669 69.968879 
L 102.621159 72.829612 
L 99.8813 75.460325 
L 97.757345 77.896511 
L 96.156409 80.178992 
L 94.988168 82.341265 
L 94.17244 84.405763 
L 93.642324 86.384638 
L 93.344776 88.282176 
L 93.239853 90.097345 
L 93.299398 91.825807 
L 93.505593 93.461234 
L 93.849662 94.99597 
L 94.330816 96.421156 
L 94.955511 97.726409 
L 95.737016 98.899148 
L 96.695244 99.923562 
L 97.8568 100.779233 
L 99.255128 101.439329 
L 100.930598 101.868313 
L 102.930259 102.019103 
L 105.306798 101.829695 
L 108.115987 101.219489 
L 111.411479 100.086 
L 115.235295 98.303524 
L 117.351501 97.124019 
L 119.601782 95.726855 
L 121.979521 94.093114 
L 124.472695 92.20534 
L 127.062547 90.049109 
L 129.722187 87.615094 
L 132.41522 84.901631 
L 135.094579 81.917737 
L 137.701791 78.686415 
L 140.167008 75.247913 
L 142.410131 71.662425 
L 144.343409 68.011513 
L 145.875745 64.39743 
L 146.918776 60.939525 
L 147.39441 57.767236 
L 147.243091 55.00974 
L 146.431602 52.783219 
L 144.958981 51.17761 
L 142.859146 50.245343 
L 140.19937 49.994593 
L 137.07453 50.388758 
L 133.598064 51.352442 
L 129.891274 52.782589 
L 126.072865 54.562255 
L 122.250359 56.574177 
L 114.935517 60.886505 
L 108.435019 65.098227 
L 102.953914 68.906282 
L 98.499071 72.245695 
L 94.968171 75.176568 
L 92.213783 77.798909 
L 90.08099 80.20664 
L 88.426161 82.470396 
L 87.124483 84.635961 
L 85.610579 87.75261 
L 81.560124 97.168546 
L 80.569475 98.849648 
L 79.426067 100.450001 
L 78.089935 101.95981 
L 76.518036 103.364386 
L 74.663415 104.64122 
L 72.475192 105.755913 
L 69.899868 106.656635 
L 66.884845 107.266848 
L 65.197889 107.430158 
L 63.385476 107.47635 
L 61.445317 107.384791 
L 59.377589 107.131614 
L 57.185793 106.689605 
L 54.877763 106.028295 
L 52.466835 105.114349 
L 49.973132 103.91238 
L 47.42489 102.386345 
L 44.859687 100.501662 
L 42.325409 98.228183 
L 39.880644 95.544062 
L 37.594222 92.440435 
L 35.543522 88.926584 
L 33.811272 85.035002 
L 32.480698 80.825459 
L 31.629184 76.386949 
L 31.32098 71.836406 
L 31.599905 67.313392 
L 32.483293 62.970657 
L 33.958425 58.961441 
L 35.982361 55.425361 
L 38.485426 52.475286 
L 41.377795 50.187595 
L 44.557988 48.597443 
L 47.921749 47.699515 
L 51.369932 47.453498 
L 54.814427 47.792699 
L 58.181756 48.633902 
L 61.414466 49.886778 
L 64.470771 51.461696 
L 67.323028 53.275386 
L 69.955595 55.254426 
L 72.362501 57.336838 
L 74.545209 59.472281 
L 76.510644 61.621281 
L 78.269541 63.753948 
L 79.835111 65.848465 
L 82.445553 69.867215 
L 84.463825 73.610598 
L 86.007452 77.060813 
L 87.181547 80.225911 
L 88.441701 84.483904 
L 89.306914 88.226913 
L 91.614424 99.373731 
L 92.33091 101.406522 
L 93.238915 103.166524 
L 93.988507 104.182359 
L 94.885125 105.06213 
L 95.961283 105.791349 
L 97.2555 106.348678 
L 98.813319 106.703796 
L 100.688088 106.814516 
L 102.941191 106.623013 
L 105.641107 106.051147 
L 108.860269 104.995171 
L 112.668 103.320847 
L 114.810237 102.200899 
L 117.116924 100.861459 
L 119.588162 99.277567 
L 122.219312 97.423811 
L 124.999457 95.275639 
L 127.909599 92.811263 
L 130.920684 90.014276 
L 133.991557 86.877066 
L 137.067073 83.405009 
L 140.076701 79.621267 
L 142.934088 75.571776 
L 145.538119 71.329667 
L 147.776109 66.99803 
L 149.529589 62.709644 
L 150.682864 58.622245 
L 151.133964 54.908381 
L 150.806823 51.739833 
L 149.662747 49.268189 
L 147.708768 47.604786 
L 145.000599 46.804398 
L 141.63887 46.85689 
L 137.758919 47.689363 
L 133.516085 49.178497 
L 129.06953 51.169947 
L 124.567737 53.500009 
L 120.137939 56.014853 
L 111.867086 61.108001 
L 104.734444 65.774097 
L 96.391438 71.523793 
L 92.243951 74.613488 
L 89.008589 77.28191 
L 86.486635 79.668351 
L 84.497372 81.874591 
L 82.885786 83.964634 
L 80.900896 86.950926 
L 77.959643 91.581139 
L 76.703295 93.288921 
L 75.316729 94.890186 
L 73.751676 96.362009 
L 71.963491 97.674565 
L 69.910826 98.788352 
L 67.556849 99.650521 
L 64.872546 100.190601 
L 63.401022 100.311941 
L 61.842813 100.316201 
L 60.199792 100.187913 
L 58.476133 99.910047 
L 56.678846 99.464192 
L 54.818353 98.830889 
L 52.909091 97.99019 
L 50.970102 96.922481 
L 49.025543 95.609612 
L 47.105041 94.036383 
L 45.243772 92.19236 
L 43.482174 90.073989 
L 41.865145 87.686866 
L 40.440628 85.047955 
L 39.257554 82.18746 
L 38.363141 79.149955 
L 37.799726 75.994404 
L 37.601392 72.792727 
L 37.790781 69.626746 
L 38.376545 66.583608 
L 39.351869 63.750064 
L 40.694341 61.206282 
L 42.367292 59.020025 
L 44.322421 57.242013 
L 46.503359 55.903099 
L 48.849658 55.01356 
L 51.300678 54.564398 
L 53.798954 54.530263 
L 56.292745 54.873379 
L 58.737676 55.547842 
L 61.097499 56.503716 
L 63.34414 57.690552 
L 65.457201 59.060098 
L 67.423129 60.568163 
L 69.234209 62.175713 
L 70.887518 63.849313 
L 72.383914 65.561102 
L 73.72713 67.288444 
L 75.978679 70.72205 
L 77.702466 74.051528 
L 78.966449 77.223974 
L 79.836352 80.216097 
L 80.370102 83.022486 
L 80.615121 85.647693 
L 80.60741 88.101138 
L 80.371628 90.393857 
L 79.921682 92.536394 
L 79.26149 94.537306 
L 78.385737 96.401909 
L 77.280568 98.130982 
L 75.924251 99.719161 
L 74.287943 101.152779 
L 72.336839 102.406886 
L 70.032132 103.441189 
L 67.334496 104.194741 
L 65.827302 104.439965 
L 64.210088 104.57947 
L 62.4811 104.596866 
L 60.640456 104.47326 
L 58.690781 104.187179 
L 56.637956 103.714627 
L 54.49198 103.02934 
L 52.267918 102.103332 
L 49.986895 100.907821 
L 47.677049 99.414638 
L 45.374332 97.598212 
L 43.122992 95.438179 
L 40.975526 92.922595 
L 38.991874 90.051608 
L 37.237633 86.841277 
L 35.781125 83.327031 
L 34.689325 79.566102 
L 34.022835 75.638154 
L 33.830382 71.643415 
L 34.143554 67.697911 
L 34.972623 63.925894 
L 36.30429 60.450223 
L 38.101886 57.38201 
L 40.308132 54.811169 
L 42.85007 52.799447 
L 45.645313 51.376973 
L 48.608638 50.542647 
L 51.657949 50.26788 
L 54.718933 50.502672 
L 57.728108 51.182752 
L 60.634272 52.236616 
L 63.39862 53.591611 
L 65.993894 55.178587 
L 68.402963 56.935004 
L 70.617132 58.806633 
L 72.63444 60.748128 
L 74.458073 62.722783 
L 76.094979 64.701789 
L 76.094979 64.701789 
" clip-path="url(#pf2a5ec4802)" style="fill: none; stroke: #ff7f0e; stroke-opacity: 0.5; stroke-width: 1.5; stroke-linecap: round"/>
   </g>
  </g>
 </g>
 <defs>
  <clipPath id="pf2a5ec4802">
   <rect x="-1.8" y="-7.2" width="176.4" height="176.4"/>
  </clipPath>
 </defs>
</svg>
