<?xml version="1.0" encoding="utf-8" standalone="no"?>
<!DOCTYPE svg PUBLIC "-//W3C//DTD SVG 1.1//EN"
  "http://www.w3.org/Graphics/SVG/1.1/DTD/svg11.dtd">
<svg xmlns:xlink="http://www.w3.org/1999/xlink" width="216pt" height="180pt" viewBox="0 0 216 180" xmlns="http://www.w3.org/2000/svg" version="1.1">
 <metadata>
  <rdf:RDF xmlns:dc="http://purl.org/dc/elements/1.1/" xmlns:cc="http://creativecommons.org/ns#" xmlns:rdf="http://www.w3.org/1999/02/22-rdf-syntax-ns#">
   <cc:Work>
    <dc:type rdf:resource="http://purl.org/dc/dcmitype/StillImage"/>
    <dc:date>2023-06-14T18:50:14.037951</dc:date>
    <dc:format>image/svg+xml</dc:format>
    <dc:creator>
     <cc:Agent>
      <dc:title>Matplotlib v3.7.0, https://matplotlib.org/</dc:title>
     </cc:Agent>
    </dc:creator>
   </cc:Work>
  </rdf:RDF>
 </metadata>
 <defs>
  <style type="text/css">*{stroke-linejoin: round; stroke-linecap: butt}</style>
 </defs>
 <g id="figure_1">
  <g id="patch_1">
   <path d="M 0 180 
L 216 180 
L 216 0 
L 0 0 
z
" style="fill: #ffffff"/>
  </g>
  <g id="patch_2">
   <path d="M -1 169.2 
L 174.6 169.2 
L 174.6 -1 
" style="fill: none"/>
  </g>
  <g id="pane3d_1">
   <g id="patch_3">
    <path d="M 11.519416 125.705413 
L 69.772457 76.876559 
L 68.962684 6.456623 
L 7.921935 51.001381 
" style="fill: none; opacity: 0.5; stroke: #f2f2f2; stroke-linejoin: miter"/>
   </g>
  </g>
  <g id="pane3d_2">
   <g id="patch_4">
    <path d="M 69.772457 76.876559 
L 163.247803 104.046152 
L 166.583609 31.200681 
L 68.962684 6.456623 
" style="fill: none; opacity: 0.5; stroke: #e6e6e6; stroke-linejoin: miter"/>
   </g>
  </g>
  <g id="pane3d_3">
   <g id="patch_5">
    <path d="M 11.519416 125.705413 
L 110.607849 158.067695 
L 163.247803 104.046152 
L 69.772457 76.876559 
" style="fill: none; opacity: 0.5; stroke: #ececec; stroke-linejoin: miter"/>
   </g>
  </g>
  <g id="axis3d_1">
   <g id="line2d_1">
    <path d="M 11.519416 125.705413 
L 110.607849 158.067695 
" style="fill: none; stroke: #ffffff; stroke-width: 0.8; stroke-linecap: round"/>
   </g>
   <g id="text_1">
    <!-- x -->
    <g style="fill: #262626" transform="translate(40.437569 179.640981) scale(0.1 -0.1)">
     <defs>
      <path id="DejaVuSans-78" d="M 3513 3500 
L 2247 1797 
L 3578 0 
L 2900 0 
L 1881 1375 
L 863 0 
L 184 0 
L 1544 1831 
L 300 3500 
L 978 3500 
L 1906 2253 
L 2834 3500 
L 3513 3500 
z
" transform="scale(0.015625)"/>
     </defs>
     <use xlink:href="#DejaVuSans-78"/>
    </g>
   </g>
   <g id="Line3DCollection_1">
    <path d="M 35.810612 133.638918 
L 92.764079 83.559316 
L 92.93577 12.533101 
" style="fill: none; stroke: #d3d3d3; stroke-width: 0.8"/>
    <path d="M 60.521164 141.709384 
L 116.101555 90.342599 
L 117.294935 18.707439 
" style="fill: none; stroke: #d3d3d3; stroke-width: 0.8"/>
    <path d="M 85.89929 149.99788 
L 140.01608 97.293607 
L 142.283062 25.041201 
" style="fill: none; stroke: #d3d3d3; stroke-width: 0.8"/>
   </g>
   <g id="xtick_1">
    <g id="line2d_2">
     <path d="M 88.783784 78.616216 
" clip-path="url(#pae48fbeea2)" style="fill: none; stroke: #d3d3d3; stroke-width: 0.8; stroke-linecap: round"/>
    </g>
    <g id="line2d_3">
     <path d="M 36.306961 133.202474 
L 34.815763 134.513696 
" style="fill: none; stroke: #808080; stroke-width: 0.8; stroke-linecap: round"/>
    </g>
    <g id="text_2">
     <!-- −10 -->
     <g style="fill: #808080" transform="translate(17.743166 157.169435) scale(0.1 -0.1)">
      <defs>
       <path id="DejaVuSans-2212" d="M 678 2272 
L 4684 2272 
L 4684 1741 
L 678 1741 
L 678 2272 
z
" transform="scale(0.015625)"/>
       <path id="DejaVuSans-31" d="M 794 531 
L 1825 531 
L 1825 4091 
L 703 3866 
L 703 4441 
L 1819 4666 
L 2450 4666 
L 2450 531 
L 3481 531 
L 3481 0 
L 794 0 
L 794 531 
z
" transform="scale(0.015625)"/>
       <path id="DejaVuSans-30" d="M 2034 4250 
Q 1547 4250 1301 3770 
Q 1056 3291 1056 2328 
Q 1056 1369 1301 889 
Q 1547 409 2034 409 
Q 2525 409 2770 889 
Q 3016 1369 3016 2328 
Q 3016 3291 2770 3770 
Q 2525 4250 2034 4250 
z
M 2034 4750 
Q 2819 4750 3233 4129 
Q 3647 3509 3647 2328 
Q 3647 1150 3233 529 
Q 2819 -91 2034 -91 
Q 1250 -91 836 529 
Q 422 1150 422 2328 
Q 422 3509 836 4129 
Q 1250 4750 2034 4750 
z
" transform="scale(0.015625)"/>
      </defs>
      <use xlink:href="#DejaVuSans-2212"/>
      <use xlink:href="#DejaVuSans-31" x="83.789062"/>
      <use xlink:href="#DejaVuSans-30" x="147.412109"/>
     </g>
    </g>
   </g>
   <g id="xtick_2">
    <g id="line2d_4">
     <path d="M 88.783784 78.616216 
" clip-path="url(#pae48fbeea2)" style="fill: none; stroke: #d3d3d3; stroke-width: 0.8; stroke-linecap: round"/>
    </g>
    <g id="line2d_5">
     <path d="M 61.006076 141.261234 
L 59.54921 142.607652 
" style="fill: none; stroke: #808080; stroke-width: 0.8; stroke-linecap: round"/>
    </g>
    <g id="text_3">
     <!-- 0 -->
     <g style="fill: #808080" transform="translate(49.866179 165.499874) scale(0.1 -0.1)">
      <use xlink:href="#DejaVuSans-30"/>
     </g>
    </g>
   </g>
   <g id="xtick_3">
    <g id="line2d_6">
     <path d="M 88.783784 78.616216 
" clip-path="url(#pae48fbeea2)" style="fill: none; stroke: #d3d3d3; stroke-width: 0.8; stroke-linecap: round"/>
    </g>
    <g id="line2d_7">
     <path d="M 86.371962 149.537545 
L 84.951843 150.920598 
" style="fill: none; stroke: #808080; stroke-width: 0.8; stroke-linecap: round"/>
    </g>
    <g id="text_4">
     <!-- 10 -->
     <g style="fill: #808080" transform="translate(72.109439 174.056678) scale(0.1 -0.1)">
      <use xlink:href="#DejaVuSans-31"/>
      <use xlink:href="#DejaVuSans-30" x="63.623047"/>
     </g>
    </g>
   </g>
  </g>
  <g id="axis3d_2">
   <g id="line2d_8">
    <path d="M 163.247803 104.046152 
L 110.607849 158.067695 
" style="fill: none; stroke: #ffffff; stroke-width: 0.8; stroke-linecap: round"/>
   </g>
   <g id="text_5">
    <!-- y -->
    <g style="fill: #262626" transform="translate(162.133934 160.636398) scale(0.1 -0.1)">
     <defs>
      <path id="DejaVuSans-79" d="M 2059 -325 
Q 1816 -950 1584 -1140 
Q 1353 -1331 966 -1331 
L 506 -1331 
L 506 -850 
L 844 -850 
Q 1081 -850 1212 -737 
Q 1344 -625 1503 -206 
L 1606 56 
L 191 3500 
L 800 3500 
L 1894 763 
L 2988 3500 
L 3597 3500 
L 2059 -325 
z
" transform="scale(0.015625)"/>
     </defs>
     <use xlink:href="#DejaVuSans-79"/>
    </g>
   </g>
   <g id="Line3DCollection_2">
    <path d="M 16.179893 44.9751 
L 19.374396 119.121213 
L 117.733103 150.755431 
" style="fill: none; stroke: #d3d3d3; stroke-width: 0.8"/>
    <path d="M 39.953224 27.626406 
L 42.03268 100.128591 
L 138.23891 129.711428 
" style="fill: none; stroke: #d3d3d3; stroke-width: 0.8"/>
    <path d="M 62.182482 11.404505 
L 63.280032 82.318639 
L 157.403944 110.043389 
" style="fill: none; stroke: #d3d3d3; stroke-width: 0.8"/>
   </g>
   <g id="xtick_4">
    <g id="line2d_9">
     <path d="M 88.783784 78.616216 
" clip-path="url(#pae48fbeea2)" style="fill: none; stroke: #d3d3d3; stroke-width: 0.8; stroke-linecap: round"/>
    </g>
    <g id="line2d_10">
     <path d="M 116.904471 150.488926 
L 119.392498 151.289127 
" style="fill: none; stroke: #808080; stroke-width: 0.8; stroke-linecap: round"/>
    </g>
    <g id="text_6">
     <!-- −20 -->
     <g style="fill: #808080" transform="translate(119.994837 171.701329) scale(0.1 -0.1)">
      <defs>
       <path id="DejaVuSans-32" d="M 1228 531 
L 3431 531 
L 3431 0 
L 469 0 
L 469 531 
Q 828 903 1448 1529 
Q 2069 2156 2228 2338 
Q 2531 2678 2651 2914 
Q 2772 3150 2772 3378 
Q 2772 3750 2511 3984 
Q 2250 4219 1831 4219 
Q 1534 4219 1204 4116 
Q 875 4013 500 3803 
L 500 4441 
Q 881 4594 1212 4672 
Q 1544 4750 1819 4750 
Q 2544 4750 2975 4387 
Q 3406 4025 3406 3419 
Q 3406 3131 3298 2873 
Q 3191 2616 2906 2266 
Q 2828 2175 2409 1742 
Q 1991 1309 1228 531 
z
" transform="scale(0.015625)"/>
      </defs>
      <use xlink:href="#DejaVuSans-2212"/>
      <use xlink:href="#DejaVuSans-32" x="83.789062"/>
      <use xlink:href="#DejaVuSans-30" x="147.412109"/>
     </g>
    </g>
   </g>
   <g id="xtick_5">
    <g id="line2d_11">
     <path d="M 88.783784 78.616216 
" clip-path="url(#pae48fbeea2)" style="fill: none; stroke: #d3d3d3; stroke-width: 0.8; stroke-linecap: round"/>
    </g>
    <g id="line2d_12">
     <path d="M 137.429792 129.462629 
L 139.859157 130.209645 
" style="fill: none; stroke: #808080; stroke-width: 0.8; stroke-linecap: round"/>
    </g>
    <g id="text_7">
     <!-- 0 -->
     <g style="fill: #808080" transform="translate(147.456078 150.187558) scale(0.1 -0.1)">
      <use xlink:href="#DejaVuSans-30"/>
     </g>
    </g>
   </g>
   <g id="xtick_6">
    <g id="line2d_13">
     <path d="M 88.783784 78.616216 
" clip-path="url(#pae48fbeea2)" style="fill: none; stroke: #d3d3d3; stroke-width: 0.8; stroke-linecap: round"/>
    </g>
    <g id="line2d_14">
     <path d="M 156.6136 109.810589 
L 158.986531 110.509549 
" style="fill: none; stroke: #808080; stroke-width: 0.8; stroke-linecap: round"/>
    </g>
    <g id="text_8">
     <!-- 20 -->
     <g style="fill: #808080" transform="translate(163.050277 130.081647) scale(0.1 -0.1)">
      <use xlink:href="#DejaVuSans-32"/>
      <use xlink:href="#DejaVuSans-30" x="63.623047"/>
     </g>
    </g>
   </g>
  </g>
  <g id="axis3d_3">
   <g id="line2d_15">
    <path d="M 163.247803 104.046152 
L 166.583609 31.200681 
" style="fill: none; stroke: #ffffff; stroke-width: 0.8; stroke-linecap: round"/>
   </g>
   <g id="text_9">
    <!-- z -->
    <g style="fill: #262626" transform="translate(202.494937 65.789607) scale(0.1 -0.1)">
     <defs>
      <path id="DejaVuSans-7a" d="M 353 3500 
L 3084 3500 
L 3084 2975 
L 922 459 
L 3084 459 
L 3084 0 
L 275 0 
L 275 525 
L 2438 3041 
L 353 3041 
L 353 3500 
z
" transform="scale(0.015625)"/>
     </defs>
     <use xlink:href="#DejaVuSans-7a"/>
    </g>
   </g>
   <g id="Line3DCollection_3">
    <path d="M 163.565238 97.114199 
L 69.695252 70.162608 
L 11.177603 118.607438 
" style="fill: none; stroke: #d3d3d3; stroke-width: 0.8"/>
    <path d="M 164.402041 78.840562 
L 69.491877 52.476588 
L 10.276008 99.88523 
" style="fill: none; stroke: #d3d3d3; stroke-width: 0.8"/>
    <path d="M 165.257783 60.153334 
L 69.284122 34.409645 
L 9.353218 80.722895 
" style="fill: none; stroke: #d3d3d3; stroke-width: 0.8"/>
    <path d="M 166.133115 41.038312 
L 69.071843 15.949339 
L 8.408477 61.104729 
" style="fill: none; stroke: #d3d3d3; stroke-width: 0.8"/>
   </g>
   <g id="xtick_7">
    <g id="line2d_16">
     <path d="M 88.783784 78.616216 
" style="fill: none; stroke: #d3d3d3; stroke-width: 0.8; stroke-linecap: round"/>
    </g>
    <g id="line2d_17">
     <path d="M 162.777253 96.887955 
L 165.143089 97.567225 
" style="fill: none; stroke: #808080; stroke-width: 0.8; stroke-linecap: round"/>
    </g>
    <g id="text_10">
     <!-- 10 -->
     <g style="fill: #808080" transform="translate(175.499476 102.132006) scale(0.1 -0.1)">
      <use xlink:href="#DejaVuSans-31"/>
      <use xlink:href="#DejaVuSans-30" x="63.623047"/>
     </g>
    </g>
   </g>
   <g id="xtick_8">
    <g id="line2d_18">
     <path d="M 88.783784 78.616216 
" style="fill: none; stroke: #d3d3d3; stroke-width: 0.8; stroke-linecap: round"/>
    </g>
    <g id="line2d_19">
     <path d="M 163.604905 78.619135 
L 165.998236 79.28395 
" style="fill: none; stroke: #808080; stroke-width: 0.8; stroke-linecap: round"/>
    </g>
    <g id="text_11">
     <!-- 20 -->
     <g style="fill: #808080" transform="translate(176.536242 83.913424) scale(0.1 -0.1)">
      <use xlink:href="#DejaVuSans-32"/>
      <use xlink:href="#DejaVuSans-30" x="63.623047"/>
     </g>
    </g>
   </g>
   <g id="xtick_9">
    <g id="line2d_20">
     <path d="M 88.783784 78.616216 
" style="fill: none; stroke: #d3d3d3; stroke-width: 0.8; stroke-linecap: round"/>
    </g>
    <g id="line2d_21">
     <path d="M 164.451283 59.937001 
L 166.872754 60.586529 
" style="fill: none; stroke: #808080; stroke-width: 0.8; stroke-linecap: round"/>
    </g>
    <g id="text_12">
     <!-- 30 -->
     <g style="fill: #808080" transform="translate(177.596366 65.284409) scale(0.1 -0.1)">
      <defs>
       <path id="DejaVuSans-33" d="M 2597 2516 
Q 3050 2419 3304 2112 
Q 3559 1806 3559 1356 
Q 3559 666 3084 287 
Q 2609 -91 1734 -91 
Q 1441 -91 1130 -33 
Q 819 25 488 141 
L 488 750 
Q 750 597 1062 519 
Q 1375 441 1716 441 
Q 2309 441 2620 675 
Q 2931 909 2931 1356 
Q 2931 1769 2642 2001 
Q 2353 2234 1838 2234 
L 1294 2234 
L 1294 2753 
L 1863 2753 
Q 2328 2753 2575 2939 
Q 2822 3125 2822 3475 
Q 2822 3834 2567 4026 
Q 2313 4219 1838 4219 
Q 1578 4219 1281 4162 
Q 984 4106 628 3988 
L 628 4550 
Q 988 4650 1302 4700 
Q 1616 4750 1894 4750 
Q 2613 4750 3031 4423 
Q 3450 4097 3450 3541 
Q 3450 3153 3228 2886 
Q 3006 2619 2597 2516 
z
" transform="scale(0.015625)"/>
      </defs>
      <use xlink:href="#DejaVuSans-33"/>
      <use xlink:href="#DejaVuSans-30" x="63.623047"/>
     </g>
    </g>
   </g>
   <g id="xtick_10">
    <g id="line2d_22">
     <path d="M 88.783784 78.616216 
" style="fill: none; stroke: #d3d3d3; stroke-width: 0.8; stroke-linecap: round"/>
    </g>
    <g id="line2d_23">
     <path d="M 165.317027 40.827365 
L 167.767307 41.460728 
" style="fill: none; stroke: #808080; stroke-width: 0.8; stroke-linecap: round"/>
    </g>
    <g id="text_13">
     <!-- 40 -->
     <g style="fill: #808080" transform="translate(178.680644 46.230933) scale(0.1 -0.1)">
      <defs>
       <path id="DejaVuSans-34" d="M 2419 4116 
L 825 1625 
L 2419 1625 
L 2419 4116 
z
M 2253 4666 
L 3047 4666 
L 3047 1625 
L 3713 1625 
L 3713 1100 
L 3047 1100 
L 3047 0 
L 2419 0 
L 2419 1100 
L 313 1100 
L 313 1709 
L 2253 4666 
z
" transform="scale(0.015625)"/>
      </defs>
      <use xlink:href="#DejaVuSans-34"/>
      <use xlink:href="#DejaVuSans-30" x="63.623047"/>
     </g>
    </g>
   </g>
  </g>
  <g id="axes_1">
   <g id="line2d_24">
    <path d="M 124.462064 105.59305 
L 129.945206 98.944795 
L 134.521641 93.014765 
L 137.021201 89.5839 
L 139.595015 85.862369 
L 142.166705 81.887365 
L 144.637214 77.718747 
L 146.886737 73.442289 
L 148.780797 69.17094 
L 150.181095 65.042572 
L 150.960474 61.21276 
L 151.019591 57.842057 
L 150.301384 55.079025 
L 148.799185 53.042189 
L 146.555963 51.805131 
L 143.655186 51.388161 
L 140.206607 51.757782 
L 136.33156 52.832716 
L 132.15156 54.493872 
L 127.781984 56.595929 
L 123.330318 58.979516 
L 106.591413 68.425664 
L 97.014745 73.398735 
L 92.307909 75.894497 
L 88.691823 78.095734 
L 85.881338 80.161286 
L 83.628496 82.142892 
L 80.888629 84.963921 
L 76.247744 89.92217 
L 74.6669 91.324295 
L 72.979805 92.573332 
L 71.145703 93.64478 
L 69.130631 94.505641 
L 66.9084 95.111999 
L 64.46338 95.406876 
L 61.795371 95.319005 
L 60.383609 95.105514 
L 58.926728 94.763744 
L 57.432563 94.28183 
L 55.911587 93.648023 
L 54.377219 92.851242 
L 52.846078 91.881784 
L 51.338143 90.732184 
L 49.876748 89.398228 
L 48.48837 87.880052 
L 47.202135 86.183277 
L 46.049001 84.320068 
L 45.060592 82.309965 
L 44.267706 80.180354 
L 43.698562 77.966391 
L 43.376939 75.710279 
L 43.320381 73.459827 
L 43.538706 71.266322 
L 44.033001 69.181882 
L 44.795292 67.256525 
L 45.808907 65.535287 
L 47.049525 64.055707 
L 48.486734 62.845962 
L 50.08591 61.923806 
L 51.810191 61.296364 
L 53.622357 60.960707 
L 55.486464 60.905038 
L 57.36917 61.110301 
L 59.240693 61.552 
L 61.07544 62.202071 
L 62.852303 63.030632 
L 64.55468 64.007551 
L 66.170273 65.103727 
L 67.69071 66.29207 
L 70.429226 68.850658 
L 72.761886 71.525164 
L 74.709156 74.20588 
L 76.305968 76.824046 
L 77.591648 79.341254 
L 78.603822 81.739557 
L 79.375237 84.013784 
L 79.932429 86.16619 
L 80.295398 88.202964 
L 80.477753 90.13205 
L 80.486996 91.961779 
L 80.324782 93.699986 
L 79.987067 95.353333 
L 79.464112 96.92668 
L 78.740355 98.422304 
L 77.79418 99.838838 
L 76.597676 101.169707 
L 75.116511 102.400837 
L 73.310178 103.507301 
L 71.133047 104.448559 
L 68.536911 105.161922 
L 67.067146 105.405457 
L 65.476185 105.554131 
L 63.7603 105.589907 
L 61.917468 105.491639 
L 59.948079 105.234888 
L 57.855811 104.791881 
L 55.648684 104.13173 
L 53.340283 103.220993 
L 50.951125 102.024744 
L 48.510076 100.508267 
L 46.055683 98.639518 
L 43.637195 96.392414 
L 41.314945 93.750926 
L 39.159697 90.713757 
L 37.250538 87.299186 
L 35.670957 83.54934 
L 34.503036 79.532965 
L 33.820089 75.34559 
L 33.678671 71.106205 
L 34.111366 66.950064 
L 35.121936 63.018119 
L 36.684079 59.444584 
L 38.74416 56.344811 
L 41.227239 53.805723 
L 44.04493 51.880383 
L 47.103393 50.587153 
L 50.310166 49.912769 
L 53.579223 49.817967 
L 56.8343 50.244183 
L 60.010873 51.120188 
L 63.057198 52.368089 
L 65.934617 53.908522 
L 68.617204 55.665068 
L 71.090734 57.567849 
L 73.351054 59.556129 
L 75.402064 61.579775 
L 77.253573 63.599544 
L 80.415105 67.520144 
L 82.964045 71.181958 
L 85.03014 74.539068 
L 87.468595 79.012727 
L 90.466425 85.174523 
L 92.904219 90.040115 
L 94.363754 92.435008 
L 95.407513 93.824399 
L 96.548124 95.044676 
L 97.82242 96.085773 
L 99.270661 96.930016 
L 100.937513 97.550521 
L 102.872638 97.909113 
L 105.130572 97.953803 
L 107.76932 97.616071 
L 110.846714 96.808541 
L 114.412965 95.424351 
L 116.38986 94.477985 
L 118.497121 93.340576 
L 120.731358 91.996125 
L 123.084373 90.429791 
L 125.541759 88.629148 
L 128.081327 86.58585 
L 130.671452 84.297725 
L 133.269512 81.771325 
L 135.820738 79.024782 
L 138.25787 76.090749 
L 140.50218 73.018939 
L 142.46637 69.877585 
L 144.059736 66.752984 
L 145.195489 63.746331 
L 145.799542 60.967412 
L 145.819287 58.525459 
L 145.230513 56.518333 
L 144.040783 55.021935 
L 142.288406 54.081919 
L 140.037423 53.709287 
L 137.370063 53.880452 
L 134.37858 54.541347 
L 131.158075 55.614509 
L 127.801118 57.007918 
L 124.394145 58.624514 
L 117.731352 62.168211 
L 111.658578 65.681463 
L 106.456457 68.902094 
L 102.198121 71.809954 
L 98.807359 74.481944 
L 96.137763 76.991555 
L 94.031678 79.381013 
L 92.34902 81.668754 
L 90.975476 83.861738 
L 89.303318 86.98053 
L 84.356503 96.861476 
L 82.76352 99.196476 
L 81.529765 100.674773 
L 80.113716 102.085897 
L 78.471937 103.419513 
L 76.555779 104.656311 
L 74.311321 105.763655 
L 71.680465 106.68941 
L 68.604109 107.35353 
L 66.881674 107.552242 
L 65.028878 107.637397 
L 63.042 107.586189 
L 60.919706 107.372002 
L 58.663992 106.964279 
L 56.281331 106.328626 
L 53.784051 105.427308 
L 51.191912 104.220271 
L 48.533817 102.666884 
L 45.849514 100.728565 
L 43.191045 98.372417 
L 40.62357 95.575897 
L 38.225076 92.332341 
L 36.084391 88.656899 
L 34.296983 84.592079 
L 32.9583 80.2117 
L 32.15492 75.621876 
L 31.954619 70.95769 
L 32.397137 66.37491 
L 33.487836 62.037202 
L 35.195986 58.100719 
L 37.458244 54.698965 
L 40.186416 51.930983 
L 43.277413 49.854964 
L 46.623107 48.487811 
L 50.11838 47.809606 
L 53.666709 47.771013 
L 57.183556 48.301616 
L 60.598227 49.317771 
L 63.854812 50.729383 
L 66.912464 52.445652 
L 69.744968 54.379976 
L 72.3395 56.454035 
L 74.694633 58.600773 
L 76.817829 60.765991 
L 78.722825 62.908474 
L 81.950515 67.01799 
L 84.5329 70.802537 
L 86.619216 74.231226 
L 89.090069 78.744972 
L 94.346417 88.723442 
L 95.98933 91.106339 
L 97.173595 92.457113 
L 98.47353 93.611576 
L 99.929161 94.555847 
L 101.583388 95.267026 
L 103.482538 95.711558 
L 105.67616 95.843277 
L 108.215551 95.601387 
L 111.150203 94.908958 
L 114.520854 93.673108 
L 116.377167 92.818861 
L 118.347327 91.788963 
L 120.427326 90.570234 
L 122.608887 89.150735 
L 124.878329 87.520849 
L 127.215329 85.674682 
L 129.591643 83.611774 
L 131.969967 81.339131 
L 134.303129 78.87344 
L 136.533956 76.243294 
L 138.596163 73.491048 
L 140.416651 70.673852 
L 141.919436 67.863248 
L 143.031178 65.142806 
L 143.687817 62.603491 
L 143.841369 60.336909 
L 143.465627 58.427159 
L 142.559513 56.942567 
L 141.147352 55.928755 
L 139.276046 55.404298 
L 137.009962 55.359673 
L 134.424742 55.75944 
L 131.601268 56.547083 
L 128.620595 57.651614 
L 125.560129 58.995034 
L 119.475473 62.095394 
L 113.805812 65.340609 
L 108.837426 68.442578 
L 104.680614 71.316887 
L 101.308976 73.987092 
L 98.620009 76.50019 
L 96.486743 78.890427 
L 94.787836 81.175777 
L 93.419741 83.364424 
L 91.809622 86.475108 
L 90.176445 90.320724 
L 86.826191 98.680559 
L 85.658196 100.919513 
L 84.261949 103.064779 
L 83.152952 104.447154 
L 81.858597 105.790369 
L 80.335268 107.088455 
L 78.532003 108.327892 
L 76.389728 109.483369 
L 73.841257 110.511406 
L 70.812881 111.34105 
L 69.094958 111.648674 
L 67.229027 111.86089 
L 65.20701 111.954712 
L 63.022471 111.902416 
L 60.671527 111.671013 
L 58.154051 111.221882 
L 55.475197 110.510708 
L 52.647301 109.487922 
L 49.692133 108.099885 
L 46.643459 106.291122 
L 43.549712 104.007885 
L 40.476432 101.203297 
L 37.507886 97.844176 
L 34.747039 93.919327 
L 32.312832 89.448625 
L 30.333775 84.491562 
L 28.937344 79.153215 
L 28.235771 73.585101 
L 28.310369 67.978623 
L 29.198003 62.550157 
L 30.883666 57.519249 
L 33.301753 53.084106 
L 36.345817 49.400005 
L 39.883684 46.565637 
L 43.773425 44.619633 
L 47.87639 43.546259 
L 52.065583 43.286834 
L 56.229856 43.752831 
L 60.275587 44.837574 
L 64.127498 46.425283 
L 67.729392 48.397933 
L 71.044546 50.641149 
L 74.055029 53.04988 
L 76.759508 55.533513 
L 79.169764 58.019343 
L 81.30663 60.453596 
L 84.866475 65.03717 
L 87.660165 69.148921 
L 90.846584 74.430796 
L 96.580383 84.459491 
L 97.834968 86.256843 
L 99.129496 87.810398 
L 100.508166 89.12313 
L 102.013012 90.188745 
L 103.685334 90.991401 
L 105.566272 91.505099 
L 107.696367 91.692936 
L 110.113722 91.506597 
L 112.850137 90.886714 
L 115.924348 89.765204 
L 119.331308 88.07123 
L 123.026632 85.743098 
L 124.952897 84.32925 
L 126.906426 82.74862 
L 128.861356 81.006773 
L 130.785695 79.115364 
L 132.64126 77.093365 
L 134.384144 74.968091 
L 135.965864 72.775821 
L 137.335316 70.561749 
L 138.441548 68.379015 
L 139.23722 66.286643 
L 139.682407 64.346347 
L 139.748252 62.618418 
L 139.41989 61.157116 
L 138.698117 60.006186 
L 137.599519 59.195184 
L 136.155051 58.737175 
L 134.407401 58.628129 
L 132.407619 58.848065 
L 130.211568 59.363671 
L 127.876613 60.132013 
L 125.4588 61.10478 
L 120.579174 63.468691 
L 115.921807 66.109483 
L 111.722062 68.79215 
L 108.09769 71.399496 
L 105.069837 73.894328 
L 102.597063 76.275686 
L 100.607912 78.55155 
L 99.02386 80.728458 
L 97.771929 82.810034 
L 96.789926 84.798199 
L 95.715949 87.608453 
L 95.013495 90.217289 
L 94.60164 92.631161 
L 94.433378 94.855963 
L 94.488458 96.894867 
L 94.769473 98.745919 
L 95.300799 100.399098 
L 95.816533 101.381018 
L 96.484672 102.254807 
L 97.331781 103.005085 
L 98.391335 103.610286 
L 99.70472 104.040621 
L 101.322208 104.255383 
L 103.303654 104.1995 
L 105.718441 103.799323 
L 108.643757 102.957929 
L 112.159631 101.550815 
L 116.338013 99.423992 
L 118.69101 98.03537 
L 121.221571 96.398452 
L 123.924279 94.489876 
L 126.785919 92.288243 
L 129.782928 89.776323 
L 132.878486 86.944076 
L 136.019467 83.792598 
L 139.133695 80.338977 
L 142.128317 76.621759 
L 144.890371 72.706267 
L 147.290872 68.688406 
L 149.193446 64.695074 
L 150.467639 60.8792 
L 151.005314 57.408289 
L 150.736735 54.447113 
L 149.641884 52.137514 
L 147.753396 50.579887 
L 145.150196 49.82077 
L 141.944214 49.848986 
L 138.264692 50.599962 
L 134.244541 51.965834 
L 130.011369 53.808491 
L 125.683386 55.973763 
L 117.163659 60.664245 
L 95.567332 72.996204 
L 92.095795 75.482879 
L 89.437495 77.830466 
L 87.35658 80.086207 
L 85.66845 82.257962 
L 83.57971 85.348961 
L 79.923657 90.876107 
L 77.957992 93.286655 
L 76.492249 94.747468 
L 74.854959 96.074927 
L 73.006894 97.246162 
L 70.910264 98.22716 
L 68.530433 98.969078 
L 65.839572 99.404077 
L 64.372155 99.479078 
L 62.822976 99.441314 
L 61.193865 99.275434 
L 59.488944 98.964564 
L 57.715161 98.490537 
L 55.882903 97.834301 
L 54.00662 96.976566 
L 52.105451 95.898721 
L 50.203764 94.584078 
L 48.331523 93.019438 
L 46.524368 91.196974 
L 44.823257 89.116328 
L 43.273534 86.786772 
L 41.923304 84.229187 
L 40.821074 81.477521 
L 40.012725 78.579374 
L 39.538058 75.595338 
L 39.427285 72.59688 
L 39.697985 69.662724 
L 40.353026 66.874 
L 41.379866 64.308712 
L 42.751359 62.036255 
L 44.42795 60.112748 
L 46.360842 58.577811 
L 48.495628 57.453087 
L 50.775872 56.742506 
L 53.146265 56.433975 
L 55.555149 56.502062 
L 57.956351 56.911202 
L 60.31038 57.619025 
L 62.585034 58.579532 
L 64.755529 59.745929 
L 66.804201 61.072997 
L 68.719879 62.518917 
L 70.497021 64.046527 
L 72.134723 65.624009 
L 75.005267 68.828745 
L 77.379864 71.983488 
L 79.325211 75.004997 
L 80.910392 77.855376 
L 82.198566 80.524127 
L 83.689387 84.19841 
L 84.773636 87.515999 
L 85.552584 90.526313 
L 86.23287 94.14241 
L 86.593278 97.390445 
L 86.682969 100.348479 
L 86.509801 103.081392 
L 86.190358 105.017296 
L 85.677598 106.87964 
L 84.92568 108.688177 
L 83.867045 110.460064 
L 82.944838 111.627042 
L 81.80695 112.783755 
L 80.407073 113.926628 
L 78.688376 115.044862 
L 76.581935 116.115578 
L 74.005663 117.096073 
L 70.864589 117.911745 
L 69.049787 118.221424 
L 67.054307 118.437961 
L 64.865239 118.533769 
L 62.470945 118.474563 
L 59.86219 118.218293 
L 57.033717 117.714211 
L 53.986375 116.902278 
L 50.729911 115.713244 
L 47.28652 114.069839 
L 43.695113 111.889618 
L 40.016119 109.090077 
L 36.33629 105.596609 
L 32.772476 101.353632 
L 29.472718 96.338725 
L 26.612416 90.578679 
L 24.383184 84.164923 
L 22.973099 77.264065 
L 22.539754 70.117977 
L 23.181634 63.028446 
L 24.916677 56.325212 
L 27.676536 50.322723 
L 31.319711 45.276931 
L 35.658674 41.354777 
L 40.490632 38.624134 
L 45.621872 37.063775 
L 50.880712 36.586222 
L 56.120092 37.063877 
L 61.21477 38.350368 
L 66.058711 40.29301 
L 70.56613 42.737304 
L 74.675831 45.528651 
L 78.355356 48.517277 
L 81.601173 51.568101 
L 84.433871 54.571611 
L 86.890266 57.450119 
L 90.855891 62.671359 
L 93.857764 67.118236 
L 98.103072 74.013625 
L 101.211949 78.931277 
L 102.619727 80.826667 
L 104.024476 82.398029 
L 105.478336 83.663622 
L 107.023863 84.629047 
L 108.69628 85.289347 
L 110.524125 85.630685 
L 112.52841 85.632075 
L 114.720241 85.267712 
L 117.096784 84.510546 
L 119.635562 83.33782 
L 122.287394 81.739223 
L 124.96907 79.727904 
L 127.558035 77.353548 
L 129.892855 74.71485 
L 130.906272 73.342516 
L 131.78405 71.966322 
L 132.502138 70.61339 
L 133.03849 69.312659 
L 133.374367 68.093694 
L 133.495569 66.98527 
L 133.39347 66.01384 
L 133.06573 65.202034 
L 132.516594 64.567344 
L 131.756744 64.121162 
L 130.802723 63.868257 
L 129.676008 63.806774 
L 128.401838 63.928721 
L 127.007929 64.220888 
L 123.976437 65.244475 
L 120.806107 66.716995 
L 117.691734 68.477425 
L 114.780588 70.39258 
L 112.167486 72.367454 
L 109.900067 74.34142 
L 107.989982 76.278194 
L 106.425597 78.156032 
L 105.183073 79.960885 
L 104.234509 81.682465 
L 103.553165 83.312208 
L 103.116423 84.842147 
L 102.907228 86.264155 
L 102.914657 87.569241 
L 103.134006 88.746824 
L 103.566664 89.783901 
L 104.219867 90.664118 
L 105.106368 91.366707 
L 106.243927 91.865318 
L 107.65446 92.12679 
L 109.362578 92.110008 
L 111.393068 91.765145 
L 113.766713 91.033849 
L 116.49364 89.851295 
L 119.563282 88.151549 
L 122.930225 85.878134 
L 126.496271 83.001832 
L 128.304099 81.342186 
L 130.091515 79.546741 
L 131.823984 77.632107 
L 133.461869 75.622151 
L 134.96137 73.548546 
L 136.276125 71.450784 
L 137.359502 69.375451 
L 138.167493 67.37461 
L 138.661949 65.503241 
L 138.813788 63.815875 
L 138.605706 62.362717 
L 138.03394 61.185753 
L 137.108803 60.315371 
L 135.853886 59.768012 
L 134.304138 59.545186 
L 132.503153 59.633958 
L 130.500119 60.008794 
L 128.346817 60.634451 
L 126.094933 61.469495 
L 121.488716 63.593094 
L 117.019604 66.056401 
L 112.928193 68.621514 
L 109.348671 71.154278 
L 106.323073 73.599494 
L 103.829361 75.94379 
L 101.810956 78.188547 
L 100.19935 80.337253 
L 98.927759 82.392033 
L 97.937666 84.353774 
L 97.180976 86.222901 
L 96.403526 88.853932 
L 95.97898 91.279372 
L 95.856182 93.499924 
L 96.01535 95.512584 
L 96.280818 96.734302 
L 96.683258 97.853808 
L 97.236808 98.86258 
L 97.961347 99.748204 
L 98.883041 100.493134 
L 100.035014 101.073071 
L 101.458025 101.454849 
L 103.200964 101.593754 
L 105.320808 101.430253 
L 107.881379 100.88632 
L 110.949804 99.861941 
L 114.588794 98.23314 
L 118.841828 95.85424 
L 121.200825 94.334527 
L 123.70704 92.569169 
L 126.346243 90.541609 
L 129.095074 88.23957 
L 131.918801 85.657616 
L 134.769085 82.800364 
L 137.582155 79.686257 
L 140.277964 76.351602 
L 142.761136 72.85427 
L 144.924519 69.276075 
L 146.656004 65.722551 
L 147.848531 62.318886 
L 148.412217 59.201297 
L 148.286309 56.504318 
L 147.448077 54.345886 
L 145.916129 52.813226 
L 143.747257 51.952588 
L 141.02792 51.764876 
L 137.86308 52.207454 
L 134.365381 53.200971 
L 130.646808 54.639387 
L 126.81346 56.401595 
L 119.181863 60.410561 
L 108.93433 66.245777 
L 103.411411 69.544704 
L 99.003407 72.426162 
L 95.567573 75.043675 
L 92.900073 77.502822 
L 90.804571 79.851772 
L 89.118092 82.106185 
L 87.085295 85.316393 
L 82.142498 93.735174 
L 80.303942 96.148715 
L 78.904974 97.643029 
L 77.319852 99.034269 
L 75.505599 100.304242 
L 73.417139 101.423584 
L 71.008385 102.347259 
L 68.235084 103.008759 
L 66.699705 103.21286 
L 65.060431 103.31324 
L 63.315429 103.292467 
L 61.464864 103.130575 
L 59.511559 102.805053 
L 57.461781 102.291003 
L 55.326146 101.56156 
L 53.120625 100.588637 
L 50.867599 99.344117 
L 48.596867 97.801566 
L 46.346474 95.938531 
L 44.163139 93.739427 
L 42.102045 91.198905 
L 40.225685 88.325472 
L 38.601503 85.144932 
L 37.298193 81.703062 
L 36.380725 78.06681 
L 35.904535 74.323291 
L 35.909645 70.576112 
L 36.415756 66.938982 
L 37.419338 63.527213 
L 38.893412 60.448292 
L 40.790095 57.793089 
L 43.045357 55.629143 
L 45.58495 53.996994 
L 48.330418 52.90976 
L 51.204341 52.355491 
L 54.134374 52.301377 
L 57.056067 52.698858 
L 59.914614 53.48885 
L 62.665778 54.606622 
L 65.27613 55.986106 
L 67.722681 57.563535 
L 69.991995 59.280321 
L 72.07887 61.085084 
L 73.984772 62.934765 
L 77.283044 66.639069 
L 79.972509 70.208933 
L 82.157914 73.555702 
L 83.940808 76.650326 
L 86.05036 80.829228 
L 88.159788 85.635075 
L 91.669681 93.975706 
L 92.82544 96.138334 
L 94.123604 98.013463 
L 95.116709 99.096071 
L 96.251011 100.031694 
L 97.565508 100.801683 
L 99.105362 101.378729 
L 100.922883 101.724399 
L 103.078088 101.786001 
L 105.63836 101.492819 
L 108.676285 100.752083 
L 112.264154 99.445619 
L 114.284205 98.536099 
L 116.462576 97.429228 
L 118.801558 96.103881 
L 121.299285 94.538724 
L 123.948154 92.713285 
L 126.732894 90.609513 
L 129.628304 88.213928 
L 132.59675 85.520489 
L 135.585678 82.534215 
L 138.525576 79.275482 
L 141.329089 75.784627 
L 143.892213 72.126142 
L 146.098576 68.391237 
L 147.827477 64.697256 
L 148.965556 61.182496 
L 149.420593 57.995736 
L 149.134612 55.281288 
L 148.09283 53.162059 
L 146.325778 51.724282 
L 143.904019 51.007338 
L 140.927344 51.000573 
L 137.511887 51.646921 
L 133.778593 52.851571 
L 129.8451 54.493529 
L 125.821279 56.438462 
L 117.892128 60.712748 
L 104.496437 68.369206 
L 99.55449 71.389938 
L 95.709746 74.068989 
L 92.746844 76.556156 
L 90.443053 78.924517 
L 88.609689 81.198466 
L 86.429233 84.439993 
L 81.243427 92.918718 
L 80.002268 94.546663 
L 78.634476 96.075502 
L 77.099505 97.49564 
L 75.35595 98.790467 
L 73.361314 99.933397 
L 71.072828 100.88397 
L 68.449871 101.582917 
L 65.458775 101.946365 
L 63.818516 101.967883 
L 62.081179 101.860031 
L 60.24904 101.60315 
L 58.32732 101.175505 
L 56.324951 100.553616 
L 54.255412 99.712842 
L 52.137622 98.628325 
L 49.996802 97.276348 
L 47.86521 95.63617 
L 45.782589 93.692351 
L 43.796137 91.437506 
L 41.959764 88.87532 
L 40.332422 86.023546 
L 38.975359 82.916524 
L 37.948285 79.606692 
L 37.304701 76.164502 
L 37.086885 72.67625 
L 37.321305 69.239663 
L 38.015286 65.957461 
L 39.155647 62.92967 
L 40.709609 60.245783 
L 42.627823 57.978033 
L 44.848862 56.176768 
L 47.304341 54.86845 
L 49.923841 54.056216 
L 52.639085 53.722481 
L 55.387113 53.832834 
L 58.112476 54.340486 
L 60.768574 55.190733 
L 63.318286 56.325086 
L 65.733999 57.68488 
L 67.997126 59.214266 
L 70.097188 60.862478 
L 72.030596 62.585346 
L 73.799264 64.346013 
L 76.869327 67.869645 
L 79.383214 71.274678 
L 81.432312 74.482892 
L 83.105324 77.466786 
L 85.076598 81.526293 
L 86.58355 85.131605 
L 88.462554 90.297726 
L 90.810035 96.864073 
L 91.717432 98.880864 
L 92.747679 100.667904 
L 93.542722 101.726011 
L 94.457397 102.667882 
L 95.525478 103.479512 
L 96.78692 104.140147 
L 98.289161 104.620178 
L 100.088355 104.878315 
L 102.250307 104.857909 
L 104.850594 104.482395 
L 107.972955 103.650143 
L 111.704265 102.229553 
L 113.823697 101.248573 
L 116.123224 100.056485 
L 118.607764 98.628302 
L 121.278009 96.938181 
L 124.128599 94.9605 
L 127.145811 92.671505 
L 130.304731 90.051703 
L 133.56598 87.089205 
L 136.872229 83.784192 
L 140.145031 80.15449 
L 143.282879 76.241937 
L 146.161849 72.118622 
L 148.64038 67.891305 
L 150.569477 63.701713 
L 151.808362 59.720333 
L 152.243514 56.132472 
L 151.806735 53.11767 
L 150.486833 50.826404 
L 148.330913 49.359729 
L 145.434892 48.756897 
L 141.926836 48.993176 
L 137.948866 49.986599 
L 133.642738 51.610293 
L 129.141583 53.707067 
L 124.567353 56.104614 
L 93.604582 73.368229 
L 90.178789 75.751599 
L 87.571476 78.016185 
L 85.531094 80.201907 
L 83.866613 82.309695 
L 81.140083 86.2568 
L 78.641839 89.796898 
L 76.633308 92.15326 
L 75.145246 93.563639 
L 73.491845 94.826393 
L 71.636675 95.916223 
L 69.546528 96.796923 
L 67.193455 97.418216 
L 64.558743 97.712545 
L 63.133987 97.710621 
L 61.639414 97.592628 
L 60.078682 97.344549 
L 58.457813 96.951378 
L 56.78566 96.397444 
L 55.074395 95.666918 
L 53.339985 94.744524 
L 51.602611 93.616487 
L 49.886958 92.271721 
L 48.222294 90.703257 
L 46.642237 88.909833 
L 45.184121 86.897562 
L 43.887857 84.681496 
L 42.794253 82.286869 
L 41.942831 79.74977 
L 41.36925 77.116972 
L 41.102589 74.444727 
L 41.162805 71.796448 
L 41.55874 69.239376 
L 42.287011 66.840525 
L 43.331964 64.662375 
L 44.666733 62.758861 
L 46.255222 61.172154 
L 48.054699 59.930616 
L 50.018622 59.048065 
L 52.099387 58.524285 
L 54.250716 58.346534 
L 56.429584 58.491744 
L 58.59762 58.929072 
L 60.722005 59.622528 
L 62.775923 60.533478 
L 64.738616 61.622855 
L 66.59511 62.852996 
L 68.335694 64.189044 
L 69.955224 65.599895 
L 72.828642 68.543053 
L 75.235733 71.519497 
L 77.222419 74.427539 
L 78.843752 77.211763 
L 80.153932 79.847604 
L 81.201274 82.329183 
L 82.365952 85.77363 
L 83.132352 88.916139 
L 83.568796 91.797935 
L 83.713904 94.459119 
L 83.580912 96.935738 
L 83.159761 99.258807 
L 82.703363 100.734911 
L 82.088338 102.159721 
L 81.292894 103.536804 
L 80.288926 104.866763 
L 79.041206 106.145759 
L 77.506572 107.363163 
L 75.633309 108.497919 
L 73.36111 109.513009 
L 70.622339 110.347302 
L 69.055709 110.668192 
L 67.34587 110.904023 
L 65.484784 111.034637 
L 63.46568 111.035599 
L 61.283846 110.877661 
L 58.937664 110.526319 
L 56.429943 109.941615 
L 53.769588 109.078311 
L 50.973618 107.886681 
L 48.069478 106.314165 
L 45.097554 104.308183 
L 42.113589 101.820353 
L 39.190581 98.812286 
L 36.419467 95.262874 
L 33.907726 91.176642 
L 31.77494 86.592179 
L 30.14463 81.589035 
L 29.132406 76.290933 
L 28.83172 70.863011 
L 29.299932 65.501561 
L 30.54827 60.416527 
L 32.538801 55.809404 
L 35.189581 51.85119 
L 38.386432 48.665449 
L 41.997735 46.319954 
L 45.888324 44.827535 
L 49.929808 44.154058 
L 54.006734 44.230008 
L 58.019541 44.962312 
L 61.885864 46.244323 
L 65.541337 47.963549 
L 68.940152 50.007869 
L 72.054916 52.271168 
L 74.875285 54.658545 
L 77.405274 57.090466 
L 79.659677 59.504947 
L 81.660318 61.857455 
L 85.00363 66.272686 
L 87.643629 70.23355 
L 90.682815 75.339833 
L 96.261038 85.124851 
L 97.500526 86.892397 
L 98.784572 88.423896 
L 100.156554 89.720929 
L 101.658296 90.776072 
L 103.331415 91.572454 
L 105.217901 92.082983 
L 107.359698 92.269416 
L 109.796919 92.081612 
L 112.564022 91.457636 
L 115.683009 90.325778 
L 119.152477 88.610255 
L 121.007941 87.511559 
L 122.931458 86.243028 
L 124.9082 84.800775 
L 126.918003 83.184596 
L 128.934676 81.399223 
L 130.92549 79.455675 
L 132.851042 77.372617 
L 134.66564 75.177537 
L 136.318431 72.907516 
L 137.755407 70.60931 
L 138.922321 68.338441 
L 139.768405 66.157087 
L 140.250501 64.130726 
L 140.337101 62.323698 
L 140.011593 60.794193 
L 139.274168 59.589312 
L 138.141996 58.740991 
L 136.647697 58.263426 
L 134.836451 58.152363 
L 132.76232 58.386315 
L 130.48439 58.929423 
L 128.063212 59.73548 
L 125.557813 60.752571 
L 120.509171 63.211195 
L 115.703852 65.937407 
L 111.385887 68.686263 
L 107.674085 71.341328 
L 104.585061 73.871062 
L 102.070304 76.280091 
L 100.051247 78.580066 
L 98.443424 80.779495 
L 97.16933 82.883021 
L 96.163415 84.893191 
L 95.044874 87.737743 
L 94.281462 90.384269 
L 93.785985 92.841864 
L 93.452455 95.840852 
L 93.414427 97.891498 
L 93.553241 99.776074 
L 93.883663 101.492312 
L 94.438984 103.029674 
L 94.960144 103.94468 
L 95.627512 104.759626 
L 96.469643 105.45898 
L 97.522252 106.020963 
L 98.82944 106.415407 
L 100.444958 106.600884 
L 102.433279 106.520939 
L 104.87003 106.099372 
L 107.840898 105.234732 
L 111.437413 103.79479 
L 115.746776 101.612872 
L 118.190026 100.182468 
L 120.830942 98.489993 
L 123.666934 96.508018 
L 126.687489 94.210334 
L 129.871268 91.574211 
L 133.182644 88.58361 
L 136.567854 85.233593 
L 139.951232 81.536037 
L 143.232396 77.526439 
L 146.285779 73.271066 
L 148.964283 68.8728 
L 151.10873 64.47321 
L 152.563706 60.248003 
L 153.198159 56.393895 
L 152.926318 53.107346 
L 151.722752 50.558928 
L 149.626279 48.869575 
L 146.731295 48.094928 
L 143.169925 48.22099 
L 139.091507 49.170221 
L 134.645669 50.81423 
L 129.972481 52.988975 
L 125.199664 55.510272 
L 103.566889 67.59912 
L 92.496711 73.388244 
L 88.919682 75.680364 
L 86.21944 77.859071 
L 84.11909 79.969769 
L 82.411202 82.010419 
L 79.612164 85.830276 
L 77.033982 89.229546 
L 75.673563 90.747754 
L 74.204289 92.128935 
L 72.587485 93.355277 
L 70.788831 94.401715 
L 68.778694 95.233498 
L 66.533955 95.803638 
L 64.041613 96.050593 
L 61.304565 95.896936 
L 59.851501 95.641523 
L 58.349824 95.250441 
L 56.808407 94.710777 
L 55.239019 94.009793 
L 53.656667 93.135562 
L 52.079875 92.077781 
L 50.530838 90.828762 
L 49.035388 89.384583 
L 47.622704 87.746329 
L 46.3247 85.921356 
L 45.175031 83.924427 
L 44.207704 81.778569 
L 43.455337 79.515459 
L 42.947152 77.175158 
L 42.706907 74.805085 
L 42.750973 72.458164 
L 43.086828 70.19025 
L 43.712188 68.057033 
L 44.61492 66.110754 
L 45.773757 64.397104 
L 47.159711 62.952674 
L 48.737993 61.803234 
L 50.470168 60.962954 
L 52.316316 60.434575 
L 54.237006 60.210375 
L 56.19493 60.273735 
L 58.156176 60.601052 
L 60.091089 61.163797 
L 61.974777 61.930531 
L 63.787272 62.868746 
L 65.513424 63.946437 
L 67.142563 65.13335 
L 68.668012 66.401877 
L 71.397515 69.089634 
L 73.70545 71.855822 
L 75.621494 74.597944 
L 77.187021 77.254813 
L 78.445516 79.794606 
L 79.437132 82.204544 
L 80.196102 84.483291 
L 80.749862 86.635874 
L 81.119034 88.670498 
L 81.317773 90.596621 
L 81.354188 92.423816 
L 81.230669 94.161059 
L 80.944083 95.816227 
L 80.485788 97.395629 
L 79.841482 98.903432 
L 78.990918 100.340834 
L 77.907523 101.704823 
L 76.558031 102.986295 
L 74.902311 104.167233 
L 72.8937 105.21656 
L 70.480401 106.084222 
L 67.608858 106.6931 
L 65.985615 106.866498 
L 64.230627 106.92873 
L 62.340694 106.857772 
L 60.314954 106.627923 
L 58.155813 106.209683 
L 55.870069 105.569864 
L 53.470255 104.672083 
L 50.976162 103.477776 
L 48.41648 101.947906 
L 45.8304 100.04553 
L 43.268952 97.739332 
L 40.795707 95.008131 
L 38.486389 91.846177 
L 36.426871 88.268784 
L 34.709077 84.317515 
L 33.424603 80.063819 
L 32.656367 75.609793 
L 32.469287 71.084923 
L 32.901674 66.638194 
L 33.959315 62.426069 
L 35.613815 58.59805 
L 37.805746 55.282488 
L 40.451758 52.575406 
L 43.453825 50.534316 
L 46.708508 49.177521 
L 50.114652 48.488037 
L 53.57886 48.420371 
L 57.01892 48.908317 
L 60.365738 49.872433 
L 63.564338 51.226594 
L 66.574172 52.883587 
L 69.36874 54.759883 
L 71.934439 56.779581 
L 74.268705 58.877302 
L 76.377683 60.999778 
L 78.27375 63.106075 
L 81.494485 67.161718 
L 84.077818 70.912875 
L 86.167401 74.323146 
L 88.640432 78.827951 
L 94.36414 89.707406 
L 95.437841 91.274511 
L 96.580959 92.657637 
L 97.830864 93.852099 
L 99.226733 94.845824 
L 100.810696 95.618185 
L 102.628571 96.1384 
L 104.729985 96.363535 
L 107.167418 96.236304 
L 109.993486 95.683092 
L 113.255254 94.613185 
L 116.983856 92.920952 
L 119.0245 91.806196 
L 121.177109 90.494024 
L 123.431816 88.972391 
L 125.772751 87.232015 
L 128.176703 85.267952 
L 130.611774 83.081506 
L 133.036218 80.682468 
L 135.397736 78.091516 
L 137.633594 75.342536 
L 139.671969 72.484422 
L 141.434923 69.581795 
L 142.843169 66.713992 
L 143.822455 63.971769 
L 144.310872 61.451545 
L 144.265871 59.247526 
L 143.669591 57.442769 
L 142.531245 56.10067 
L 140.886062 55.258465 
L 138.79112 54.923899 
L 136.319215 55.075507 
L 133.552167 55.666167 
L 130.574779 56.629123 
L 127.470078 57.885478 
L 124.315893 59.35222 
L 118.130501 62.609248 
L 112.458956 65.91038 
L 107.557236 69.009764 
L 103.501741 71.861122 
L 100.238442 74.507873 
L 97.64787 77.002278 
L 95.595247 79.377794 
L 93.957035 81.650677 
L 92.630143 83.828041 
L 91.048187 86.9233 
L 89.39552 90.751579 
L 86.883801 96.744638 
L 85.700916 99.087943 
L 84.322113 101.320729 
L 83.243508 102.752733 
L 81.996392 104.139424 
L 80.539716 105.476107 
L 78.825993 106.751448 
L 76.800511 107.943858 
L 74.401195 109.016078 
L 71.559773 109.907292 
L 69.951069 110.256933 
L 68.205461 110.522105 
L 66.315042 110.683127 
L 64.273161 110.716231 
L 62.075166 110.593066 
L 59.719375 110.280297 
L 57.208322 109.739419 
L 54.550313 108.926931 
L 51.761304 107.79506 
L 48.86707 106.293281 
L 45.905561 104.37089 
L 42.929212 101.980868 
L 40.006812 99.085208 
L 37.224321 95.661656 
L 34.683834 91.711531 
L 32.499794 87.267782 
L 30.791736 82.401854 
L 29.673474 77.227405 
L 29.239747 71.898694 
L 29.552648 66.602013 
L 30.631158 61.540061 
L 32.446883 56.911355 
L 34.927521 52.888797 
L 37.967063 49.602216 
L 41.439643 47.128593 
L 45.213265 45.491091 
L 49.160587 44.665423 
L 53.16578 44.590415 
L 57.128078 45.179473 
L 60.963401 46.330706 
L 64.605235 47.934977 
L 68.005165 49.882351 
L 71.13281 52.06775 
L 73.974655 54.396131 
L 76.531649 56.786684 
L 78.815888 59.175281 
L 80.847018 61.514767 
L 84.247312 65.932012 
L 86.933523 69.917892 
L 90.017224 75.081191 
L 96.181905 85.994791 
L 97.401089 87.700891 
L 98.675876 89.179285 
L 100.048339 90.429157 
L 101.559802 91.440894 
L 103.252028 92.195451 
L 105.167679 92.663406 
L 107.349787 92.80385 
L 109.839807 92.563497 
L 112.673525 91.876682 
L 115.873791 90.667434 
L 119.438779 88.855506 
L 121.346567 87.700221 
L 123.324582 86.369045 
L 125.356951 84.857987 
L 127.422083 83.167042 
L 129.491919 81.30155 
L 131.531407 79.273666 
L 133.498383 77.103814 
L 135.344056 74.821943 
L 137.014313 72.468301 
L 138.452005 70.093426 
L 139.600232 67.757009 
L 140.406453 65.525434 
L 140.826989 63.467936 
L 140.831291 61.651667 
L 140.40523 60.136206 
L 139.552785 58.968344 
L 138.295818 58.177933 
L 136.672033 57.775514 
L 134.731569 57.752018 
L 132.53292 58.080515 
L 130.138837 58.719652 
L 127.612672 59.618212 
L 125.015394 60.720183 
L 119.826184 63.315477 
L 119.826184 63.315477 
" clip-path="url(#pae48fbeea2)" style="fill: none; stroke: #1f77b4; stroke-width: 1.5; stroke-linecap: round"/>
   </g>
   <g id="line2d_25">
    <path d="M 124.462064 105.59305 
L 126.331007 102.602726 
L 128.484383 99.514723 
L 138.900811 85.461518 
L 141.625045 81.447866 
L 144.224712 77.270472 
L 146.591767 72.992251 
L 148.609119 68.70578 
L 150.156408 64.532015 
L 151.118504 60.614699 
L 151.396208 57.109686 
L 150.917903 54.169474 
L 149.650192 51.924676 
L 147.60517 50.465693 
L 144.842243 49.828671 
L 141.463442 49.989454 
L 137.602757 50.867425 
L 133.411532 52.338428 
L 129.042927 54.25351 
L 124.638346 56.458919 
L 120.317837 58.81321 
L 112.276876 63.527402 
L 102.367173 69.705242 
L 95.148727 74.503419 
L 91.597975 77.109461 
L 88.831834 79.407933 
L 86.665166 81.510598 
L 84.935397 83.491649 
L 82.866939 86.321335 
L 78.806 92.403826 
L 77.527036 93.974225 
L 76.096579 95.440732 
L 74.468777 96.779472 
L 72.600572 97.959131 
L 70.451959 98.937803 
L 67.987968 99.659022 
L 65.182984 100.047291 
L 63.648933 100.086709 
L 62.028217 100.003876 
L 60.32424 99.782438 
L 58.543126 99.404544 
L 56.694307 98.851116 
L 54.791144 98.102322 
L 52.851556 97.138301 
L 50.898578 95.940192 
L 48.960794 94.49151 
L 47.072521 92.779877 
L 45.273627 90.799076 
L 43.608862 88.551326 
L 42.126568 86.049574 
L 40.876719 83.319545 
L 39.908269 80.401148 
L 39.265962 77.348865 
L 38.986841 74.230724 
L 39.096857 71.125659 
L 39.608037 68.119244 
L 40.516679 65.298144 
L 41.802934 62.743905 
L 43.431896 60.526908 
L 45.356119 58.701364 
L 47.519176 57.302034 
L 49.859765 56.343082 
L 52.315804 55.819011 
L 54.828017 55.707353 
L 57.342719 55.972492 
L 59.813637 56.569977 
L 62.20281 57.450715 
L 64.480711 58.564622 
L 66.625782 59.863476 
L 68.623598 61.30292 
L 70.465831 62.843647 
L 72.149172 64.451926 
L 73.674274 66.099623 
L 75.044808 67.763872 
L 77.347115 71.073668 
L 79.117624 74.281987 
L 80.426196 77.335891 
L 81.34073 80.212486 
L 81.921396 82.906999 
L 82.21784 85.424766 
L 82.268248 87.776105 
L 82.099449 89.973101 
L 81.72754 92.027585 
L 81.158678 93.949774 
L 80.389854 95.747214 
L 79.409558 97.423749 
L 78.198333 98.978279 
L 76.729327 100.40307 
L 74.969031 101.681375 
L 72.878549 102.784079 
L 70.415953 103.665136 
L 67.540565 104.255625 
L 65.937447 104.412384 
L 64.220404 104.456675 
L 62.388793 104.370277 
L 60.444389 104.132308 
L 58.392141 103.719224 
L 56.241061 103.104996 
L 54.005211 102.261554 
L 51.704757 101.159609 
L 49.367014 99.769947 
L 47.027361 98.065308 
L 44.729854 96.022925 
L 42.527336 93.62771 
L 40.48077 90.876002 
L 38.657563 87.77956 
L 37.128673 84.369332 
L 35.96446 80.698309 
L 35.229459 76.842644 
L 34.97652 72.900248 
L 35.241096 68.986379 
L 36.03658 65.226189 
L 37.351621 61.744949 
L 39.150073 58.657267 
L 41.373722 56.057043 
L 43.947414 54.009861 
L 46.785693 52.54902 
L 49.799851 51.67561 
L 52.904337 51.36219 
L 56.021767 51.558988 
L 59.086186 52.201309 
L 62.044599 53.216857 
L 64.857062 54.532084 
L 67.495752 56.077032 
L 69.943414 57.788557 
L 72.191562 59.612066 
L 74.238657 61.502087 
L 76.088439 63.421991 
L 77.748476 65.343189 
L 80.541756 69.108883 
L 82.715655 72.689851 
L 84.373851 76.037756 
L 85.614359 79.140307 
L 86.523542 82.004711 
L 87.173915 84.647592 
L 87.788977 88.241115 
L 88.096711 91.450953 
L 88.186377 95.239936 
L 88.013915 98.576802 
L 87.616083 101.55478 
L 87.15721 103.597289 
L 86.528948 105.504932 
L 85.683251 107.299815 
L 84.550554 109.000075 
L 83.589509 110.087154 
L 82.421605 111.138216 
L 81.001707 112.149908 
L 79.275255 113.112388 
L 77.177183 114.005405 
L 74.631501 114.792243 
L 71.552472 115.410579 
L 67.849059 115.759182 
L 65.73573 115.785658 
L 63.435556 115.679612 
L 60.942159 115.408559 
L 58.253077 114.933538 
L 55.371501 114.20857 
L 52.308448 113.180499 
L 49.085379 111.789472 
L 45.737168 109.970445 
L 42.315258 107.656165 
L 38.890599 104.782124 
L 35.555765 101.293896 
L 32.425368 97.157004 
L 29.633703 92.368857 
L 27.328555 86.971435 
L 25.660506 81.062284 
L 24.767962 74.800389 
L 24.759535 68.403296 
L 25.696866 62.132905 
L 27.581981 56.270037 
L 30.352894 51.081519 
L 33.889391 46.786658 
L 38.028058 43.531028 
L 42.58296 41.373569 
L 47.367095 40.288912 
L 52.210222 40.182459 
L 56.970521 40.912818 
L 61.539646 42.315655 
L 65.842362 44.224327 
L 69.83267 46.484823 
L 73.488286 48.964563 
L 76.804854 51.555944 
L 79.79075 54.176097 
L 82.462824 56.764355 
L 84.843133 59.278634 
L 88.829139 63.98709 
L 91.95528 68.199186 
L 94.418795 71.907758 
L 97.24739 76.603949 
L 100.766807 82.484298 
L 102.050216 84.254984 
L 103.374854 85.722768 
L 104.798423 86.892959 
L 106.369551 87.760585 
L 108.129212 88.31056 
L 110.110896 88.518019 
L 112.339239 88.349172 
L 114.826814 87.763204 
L 117.568762 86.716093 
L 120.535149 85.167432 
L 123.661402 83.091485 
L 126.838189 80.493252 
L 128.397108 79.013213 
L 129.903716 77.428817 
L 131.329517 75.758509 
L 132.6434 74.026206 
L 133.81248 72.261348 
L 134.803278 70.498532 
L 135.583214 68.776641 
L 136.122371 67.13741 
L 136.395393 65.623463 
L 136.383377 64.275914 
L 136.075546 63.131734 
L 135.470488 62.221182 
L 134.576781 61.565599 
L 133.412879 61.175897 
L 132.006224 61.051954 
L 130.391666 61.18303 
L 128.609368 61.549119 
L 126.702435 62.123049 
L 124.714536 62.873007 
L 120.660785 64.765941 
L 116.737533 66.972214 
L 113.152525 69.289422 
L 110.028029 71.585807 
L 107.415066 73.792032 
L 105.314333 75.881791 
L 103.696214 77.852292 
L 102.516528 79.709764 
L 101.727465 81.460767 
L 101.284439 83.108016 
L 101.149934 84.648994 
L 101.29532 86.075928 
L 101.701394 87.376202 
L 102.358156 88.532679 
L 103.264121 89.523692 
L 104.425318 90.322651 
L 105.853956 90.897315 
L 107.566621 91.208861 
L 109.581722 91.211014 
L 111.915759 90.849656 
L 114.57786 90.063634 
L 117.561976 88.787855 
L 120.83624 86.960254 
L 124.329554 84.53452 
L 126.121737 83.091975 
L 127.916749 81.500193 
L 129.688399 79.767963 
L 131.405955 77.909954 
L 133.034388 75.94758 
L 134.534981 73.90961 
L 135.866395 71.832366 
L 136.986228 69.759319 
L 137.853048 67.739937 
L 138.428841 65.827694 
L 138.681686 64.07725 
L 138.588414 62.540974 
L 138.136935 61.26513 
L 137.327887 60.28618 
L 136.175341 59.627747 
L 134.70637 59.298707 
L 132.959475 59.292756 
L 130.982058 59.589524 
L 128.827232 60.157065 
L 126.550399 60.955295 
L 124.206006 61.939833 
L 119.51172 64.290455 
L 115.074446 66.892092 
L 111.108688 69.519299 
L 107.720846 72.045619 
L 104.935567 74.420961 
L 102.72538 76.640951 
L 101.035408 78.721469 
L 99.800863 80.682402 
L 98.958055 82.539497 
L 98.45058 84.301543 
L 98.23229 85.970385 
L 98.268302 87.542012 
L 98.534903 89.007765 
L 99.018921 90.355172 
L 99.716887 91.568256 
L 100.634175 92.627299 
L 101.784141 93.508093 
L 103.187223 94.18075 
L 104.869806 94.608143 
L 106.86256 94.744128 
L 109.197796 94.53181 
L 111.905146 93.902385 
L 115.004685 92.775555 
L 118.496429 91.063176 
L 120.380284 89.959876 
L 122.34524 88.678736 
L 124.37815 87.212246 
L 126.460999 85.555986 
L 128.570194 83.709913 
L 130.675972 81.679828 
L 132.742019 79.478951 
L 134.725446 77.129477 
L 136.577268 74.663895 
L 138.24354 72.125825 
L 139.667262 69.570033 
L 140.791126 67.061323 
L 141.561023 64.672038 
L 141.930111 62.478099 
L 141.863044 60.553727 
L 141.339845 58.965357 
L 140.358798 57.765516 
L 138.937821 56.987637 
L 137.113947 56.642765 
L 134.940872 56.718805 
L 132.484858 57.182517 
L 129.819601 57.983873 
L 127.020816 59.061969 
L 124.161264 60.351415 
L 118.513664 63.314392 
L 113.281668 66.449408 
L 108.699204 69.488612 
L 104.855074 72.310855 
L 101.73896 74.894361 
L 99.28469 77.267384 
L 97.401971 79.47335 
L 95.99635 81.552076 
L 94.98028 83.532586 
L 94.278311 85.432427 
L 93.828791 87.259787 
L 93.583629 89.016284 
L 93.524023 91.512033 
L 93.770549 93.825029 
L 94.291999 95.932694 
L 94.79378 97.210729 
L 95.429323 98.376201 
L 96.214494 99.417433 
L 97.171335 100.31954 
L 98.328296 101.063044 
L 99.720565 101.622101 
L 101.390322 101.962227 
L 103.386646 102.037468 
L 105.764623 101.787012 
L 108.582889 101.131449 
L 111.898429 99.969369 
L 115.756843 98.175872 
L 117.896847 96.997585 
L 120.17567 95.606149 
L 122.586819 93.982651 
L 125.118149 92.109659 
L 127.750444 89.972837 
L 130.455904 87.563083 
L 133.196659 84.879182 
L 135.923494 81.930945 
L 138.575055 78.742626 
L 141.077869 75.35628 
L 143.347594 71.834495 
L 145.291863 68.261717 
L 146.815036 64.743294 
L 147.824862 61.401367 
L 148.240716 58.367143 
L 148.002534 55.769694 
L 147.079103 53.722465 
L 145.4741 52.309583 
L 143.228378 51.574747 
L 140.41762 51.515311 
L 137.145473 52.083187 
L 133.533324 53.192495 
L 129.708641 54.732216 
L 125.793978 56.580927 
L 121.898303 58.620609 
L 114.502303 62.87716 
L 107.988937 66.923542 
L 102.536037 70.507749 
L 98.126849 73.604741 
L 94.642454 76.298414 
L 91.925177 78.699502 
L 89.81432 80.904629 
L 88.163186 82.983182 
L 86.845342 84.97825 
L 85.267788 87.860435 
L 81.663747 94.962246 
L 80.610251 96.578513 
L 79.408451 98.114187 
L 78.016604 99.556413 
L 76.391436 100.887185 
L 74.487481 102.080419 
L 72.25747 103.097948 
L 69.654293 103.884259 
L 66.635454 104.359905 
L 64.960059 104.448019 
L 63.171278 104.414033 
L 61.269635 104.238038 
L 59.258537 103.897473 
L 57.145098 103.367217 
L 54.941089 102.619913 
L 52.663962 101.626616 
L 50.337904 100.357882 
L 47.99482 98.78539 
L 45.675087 96.884204 
L 43.427895 94.63569 
L 41.310926 92.031055 
L 39.389116 89.075275 
L 37.732284 85.791015 
L 36.411488 82.22195 
L 35.494213 78.434677 
L 35.038703 74.51843 
L 35.088098 70.581937 
L 35.665231 66.747178 
L 36.769051 63.140459 
L 38.373433 59.881861 
L 40.428791 57.074709 
L 42.866284 54.796792 
L 45.603954 53.094818 
L 48.553726 51.982843 
L 51.628177 51.444555 
L 54.746177 51.43859 
L 57.836881 51.905583 
L 60.841941 52.775645 
L 63.716152 53.975184 
L 66.426884 55.432393 
L 68.952751 57.081123 
L 71.281875 58.863207 
L 73.410056 60.729466 
L 75.33903 62.639739 
L 77.074927 64.562269 
L 78.626966 66.472725 
L 81.225674 70.190461 
L 83.235817 73.704648 
L 84.760188 76.979679 
L 85.893664 80.010316 
L 86.718534 82.807293 
L 87.303078 85.388716 
L 87.845479 88.901867 
L 88.101878 92.044553 
L 88.141244 95.761334 
L 87.925467 99.04183 
L 87.48 101.975911 
L 86.976595 103.992282 
L 86.291292 105.878769 
L 85.370639 107.656643 
L 84.589497 108.79008 
L 83.640827 109.886068 
L 82.488259 110.945451 
L 81.08739 111.965188 
L 79.384519 112.935958 
L 77.315551 113.838357 
L 74.805532 114.637038 
L 71.76969 115.271857 
L 68.117592 115.644951 
L 66.032929 115.688167 
L 63.763213 115.602901 
L 61.301721 115.357621 
L 58.645428 114.914446 
L 55.796681 114.22859 
L 52.765299 113.248132 
L 49.571113 111.9144 
L 46.246874 110.163306 
L 42.841371 107.928084 
L 39.422408 105.143916 
L 36.079046 101.754879 
L 32.922311 97.723385 
L 30.083284 93.041795 
L 27.70755 87.745009 
L 25.945216 81.921762 
L 24.93661 75.721391 
L 24.795023 69.352389 
L 25.589397 63.069996 
L 27.330877 57.152455 
L 29.967095 51.869104 
L 33.386405 47.446747 
L 37.431589 44.042156 
L 41.919808 41.727085 
L 46.664065 40.488372 
L 51.491638 40.24125 
L 56.256656 40.850864 
L 60.846086 42.156034 
L 65.180096 43.990415 
L 69.208642 46.19826 
L 72.906147 48.644074 
L 76.265749 51.21687 
L 79.294012 53.830426 
L 82.006549 56.421053 
L 84.424622 58.944127 
L 88.476429 63.681782 
L 91.654614 67.930098 
L 94.156959 71.676221 
L 97.022006 76.426323 
L 100.55676 82.388048 
L 101.834265 84.189823 
L 103.147667 85.689029 
L 104.555493 86.891831 
L 106.107143 87.794129 
L 107.844425 88.381677 
L 109.801874 88.630361 
L 112.005558 88.506914 
L 114.47008 87.970627 
L 117.193429 86.976835 
L 120.149525 85.483312 
L 123.278701 83.460802 
L 126.477336 80.908609 
L 128.05611 79.446399 
L 129.589397 77.874835 
L 131.049193 76.211118 
L 132.40466 74.477935 
L 133.622895 72.703607 
L 134.670038 70.921845 
L 135.512709 69.170999 
L 136.119736 67.492758 
L 136.46407 65.930281 
L 136.524729 64.52585 
L 136.288576 63.31823 
L 135.751717 62.339993 
L 134.920306 61.615155 
L 133.810623 61.157429 
L 132.448364 60.969365 
L 130.867186 61.042526 
L 129.106684 61.358645 
L 127.210014 61.891619 
L 125.221455 62.61001 
L 121.138147 64.466459 
L 117.157497 66.66516 
L 113.499387 68.993532 
L 110.296228 71.310543 
L 107.606089 73.54042 
L 105.433715 75.653404 
L 103.751205 77.645495 
L 102.514515 79.523062 
L 101.675025 81.293434 
L 101.186845 82.960281 
L 101.010963 84.52202 
L 101.117239 85.971726 
L 101.485051 87.29757 
L 102.103128 88.483188 
L 102.968908 89.507739 
L 104.087583 90.345561 
L 105.470837 90.96547 
L 107.135164 91.329817 
L 109.099495 91.393539 
L 111.381734 91.103582 
L 113.99367 90.399357 
L 116.933616 89.215248 
L 120.176228 87.486682 
L 123.659391 85.161672 
L 125.458008 83.767165 
L 127.26917 82.219645 
L 129.068244 80.525817 
L 130.825964 78.697963 
L 132.508539 76.754896 
L 134.078115 74.722713 
L 135.493661 72.635192 
L 136.712355 70.533651 
L 137.691465 68.466102 
L 138.390704 66.485558 
L 138.774889 64.647477 
L 138.816708 63.006441 
L 138.499269 61.612333 
L 137.818097 60.506441 
L 136.782257 59.718031 
L 135.414367 59.26189 
L 133.749423 59.137291 
L 131.832549 59.328541 
L 129.715937 59.807053 
L 127.455393 60.534566 
L 125.106902 61.467004 
L 120.353385 63.764247 
L 115.809253 66.364363 
L 111.712705 69.020147 
L 108.188598 71.5872 
L 105.273421 74.004233 
L 102.94582 76.261755 
L 101.152937 78.374584 
L 99.829446 80.363653 
L 98.909716 82.246513 
L 98.334752 84.033797 
L 98.055629 85.72894 
L 98.034738 87.329237 
L 98.245809 88.82714 
L 98.673323 90.211221 
L 99.31167 91.466625 
L 100.164292 92.574957 
L 101.242833 93.513651 
L 102.566307 94.254874 
L 104.160096 94.764028 
L 106.054563 94.997974 
L 108.282826 94.903165 
L 110.877117 94.41414 
L 113.862866 93.453158 
L 117.249452 91.932437 
L 121.016548 89.761297 
L 123.02381 88.406225 
L 125.095441 86.861444 
L 127.21155 85.123526 
L 129.346343 83.193938 
L 131.467555 81.080599 
L 133.536151 78.799523 
L 135.506435 76.376371 
L 137.326723 73.84771 
L 138.940737 71.26165 
L 140.289838 68.677549 
L 141.316104 66.164448 
L 141.966159 63.798019 
L 142.195475 61.656004 
L 141.972679 59.812426 
L 141.283287 58.33118 
L 140.13223 57.259907 
L 138.544638 56.62519 
L 136.56462 56.429984 
L 134.252091 56.653824 
L 131.678089 57.255816 
L 128.919282 58.179836 
L 126.052463 59.360954 
L 123.149747 60.731969 
L 117.481386 63.796103 
L 112.294184 66.966012 
L 107.794563 69.999505 
L 104.048704 72.797784 
L 101.030823 75.353604 
L 98.665673 77.702449 
L 96.858513 79.890072 
L 95.513392 81.956042 
L 94.542926 83.928165 
L 93.872654 85.822696 
L 93.442181 87.646845 
L 93.204638 89.401676 
L 93.137127 91.897584 
L 93.354206 94.214789 
L 93.824853 96.332851 
L 94.553014 98.228279 
L 95.197355 99.354114 
L 95.988357 100.356946 
L 96.949457 101.222206 
L 98.110413 101.930595 
L 99.507751 102.456265 
L 101.185141 102.764492 
L 103.193414 102.808752 
L 105.589788 102.527162 
L 108.435505 101.838519 
L 111.79066 100.638562 
L 115.704341 98.798098 
L 117.87895 97.591092 
L 120.197539 96.166234 
L 122.653878 94.503567 
L 125.235918 92.584542 
L 127.924287 90.393703 
L 130.690681 87.920919 
L 133.496265 85.164187 
L 136.290288 82.132965 
L 139.009185 78.851833 
L 141.576541 75.364115 
L 143.904356 71.734859 
L 145.896024 68.052337 
L 147.451351 64.427085 
L 148.473665 60.987553 
L 148.878619 57.871802 
L 148.603761 55.215444 
L 147.617391 53.13709 
L 145.924943 51.723641 
L 143.571257 51.018481 
L 140.63782 51.015427 
L 137.235137 51.660142 
L 133.491579 52.858858 
L 129.540846 54.492324 
L 125.510338 56.43176 
L 121.512183 58.55351 
L 113.955923 62.93597 
L 107.337807 67.054472 
L 101.822427 70.668131 
L 97.378018 73.767686 
L 93.873111 76.450069 
L 91.14085 78.83437 
L 89.014217 81.021605 
L 87.34224 83.082939 
L 85.995519 85.06175 
L 84.354912 87.920179 
L 80.965789 94.114713 
L 79.854844 95.73492 
L 78.595459 97.269341 
L 77.14438 98.70245 
L 75.457864 100.01303 
L 73.491192 101.171142 
L 71.199395 102.134055 
L 68.539776 102.841027 
L 67.06052 103.073109 
L 65.477123 103.207083 
L 63.787853 103.227466 
L 61.992868 103.116505 
L 60.094826 102.854114 
L 58.099587 102.417932 
L 56.017025 101.783568 
L 53.861916 100.925119 
L 51.654856 99.816029 
L 49.423141 98.430397 
L 47.201482 96.744804 
L 45.032419 94.740703 
L 42.966217 92.407345 
L 41.060052 89.745111 
L 39.376271 86.768958 
L 37.979606 83.511525 
L 36.933325 80.025307 
L 36.294531 76.383201 
L 36.109044 72.676807 
L 36.406521 69.012151 
L 37.196608 65.502896 
L 38.466849 62.261713 
L 40.182872 59.390963 
L 42.290923 56.97415 
L 44.722397 55.069522 
L 47.399619 53.706784 
L 50.241961 52.887223 
L 53.171415 52.586868 
L 56.117004 52.7618 
L 59.017717 53.354512 
L 61.823969 54.300265 
L 64.497814 55.532656 
L 67.012238 56.987957 
L 69.349889 58.608077 
L 71.501533 60.342256 
L 73.464467 62.147714 
L 75.241029 63.98954 
L 76.837282 65.840093 
L 79.525279 69.48783 
L 81.614227 72.980386 
L 83.19791 76.265376 
L 84.366047 79.325896 
L 85.198081 82.164992 
L 85.760621 84.795928 
L 86.107043 87.236429 
L 86.307879 90.581472 
L 86.204477 93.601524 
L 85.843507 96.349931 
L 85.234396 98.870926 
L 84.354775 101.199511 
L 83.593549 102.657911 
L 82.666541 104.046837 
L 81.544222 105.367757 
L 80.189922 106.617748 
L 78.559204 107.787462 
L 76.599437 108.857973 
L 74.250001 109.79603 
L 71.443839 110.547136 
L 68.111627 111.025832 
L 66.228001 111.124766 
L 64.190606 111.102923 
L 61.995329 110.93484 
L 59.641146 110.590464 
L 57.131353 110.034864 
L 54.475064 109.228207 
L 51.688983 108.126174 
L 48.799381 106.681018 
L 45.844178 104.843543 
L 42.874897 102.566275 
L 39.958134 99.808057 
L 37.176081 96.540168 
L 34.62546 92.753788 
L 32.414286 88.468159 
L 30.655935 83.73826 
L 29.46046 78.660214 
L 28.9237 73.372368 
L 29.115562 68.050158 
L 30.069561 62.893942 
L 31.775982 58.110603 
L 34.180561 53.891738 
L 37.18941 50.392626 
L 40.679345 47.716372 
L 44.511443 45.90635 
L 48.545029 44.947829 
L 52.649591 44.777329 
L 56.713086 45.296712 
L 60.646214 46.388604 
L 64.383175 47.930347 
L 67.879914 49.804789 
L 71.110943 51.907353 
L 74.065634 54.149668 
L 76.74461 56.4605 
L 79.156573 58.784858 
L 81.315707 61.082054 
L 83.239642 63.323327 
L 86.460952 67.56844 
L 88.982235 71.443151 
L 90.9585 74.93563 
L 93.19828 79.502434 
L 97.316102 88.442475 
L 98.31355 90.063215 
L 99.404121 91.458739 
L 100.631629 92.626039 
L 102.038215 93.553563 
L 103.665662 94.220256 
L 105.555879 94.594356 
L 107.750255 94.632041 
L 110.287408 94.276284 
L 113.198597 93.456598 
L 116.499881 92.090943 
L 120.179992 90.091892 
L 122.147003 88.829144 
L 124.183221 87.380047 
L 126.271202 85.739891 
L 128.387929 83.90821 
L 130.504208 81.890248 
L 132.584255 79.698548 
L 134.585633 77.354531 
L 136.459674 74.88987 
L 138.152555 72.347398 
L 139.607143 69.781222 
L 140.765683 67.255727 
L 141.57327 64.843204 
L 141.981915 62.619983 
L 141.954825 60.661215 
L 141.470359 59.034773 
L 140.525076 57.795033 
L 139.135269 56.977512 
L 137.336621 56.595336 
L 135.181889 56.638245 
L 132.736896 57.074379 
L 130.075407 57.854506 
L 127.273655 58.917899 
L 124.405264 60.198801 
L 118.726744 63.15981 
L 113.453643 66.305884 
L 108.827331 69.361337 
L 104.94146 72.199816 
L 101.788166 74.797107 
L 99.30204 77.180952 
L 97.39254 79.395255 
L 95.964458 81.480642 
L 94.929288 83.466927 
L 94.210585 85.372289 
L 93.745751 87.205378 
L 93.485821 88.968138 
L 93.40335 91.474798 
L 93.623952 93.801159 
L 94.113999 95.925506 
L 94.590545 97.217115 
L 95.196445 98.398736 
L 95.946636 99.459423 
L 96.862119 100.385265 
L 97.970203 101.158079 
L 99.304852 101.753728 
L 100.907013 102.139952 
L 102.824674 102.273655 
L 105.112247 102.097593 
L 107.828601 101.536621 
L 111.03266 100.494019 
L 114.774913 98.849228 
L 116.857844 97.757126 
L 119.082523 96.459732 
L 121.444765 94.937579 
L 123.935317 93.172046 
L 126.53848 91.146773 
L 129.230603 88.849573 
L 131.978539 86.274874 
L 134.738203 83.426695 
L 137.453485 80.322026 
L 140.055816 76.994349 
L 142.464777 73.49682 
L 144.590166 69.904431 
L 146.335886 66.314273 
L 147.605825 62.842971 
L 148.311571 59.620575 
L 148.381337 56.780715 
L 147.768923 54.447697 
L 146.461158 52.722282 
L 144.482168 51.668747 
L 141.893211 51.306106 
L 138.787688 51.60574 
L 135.282052 52.496218 
L 131.504294 53.874248 
L 127.582164 55.619194 
L 123.633107 57.60797 
L 116.033423 61.883371 
L 109.25153 66.038211 
L 103.522926 69.751844 
L 98.863279 72.961408 
L 95.167032 75.738212 
L 92.278624 78.194479 
L 90.033939 80.433677 
L 88.280721 82.532573 
L 86.886583 84.540194 
L 85.231104 87.435058 
L 81.541032 94.568659 
L 80.480564 96.193237 
L 79.275095 97.736655 
L 77.882459 99.185604 
L 76.259345 100.52166 
L 74.360613 101.718405 
L 72.13967 102.737488 
L 69.550444 103.523463 
L 66.551808 103.997385 
L 64.889364 104.084457 
L 63.115722 104.049613 
L 61.231619 103.873269 
L 59.240648 103.533289 
L 57.150073 103.005089 
L 54.971737 102.261971 
L 52.723057 101.275779 
L 50.428036 100.017977 
L 48.11819 98.461244 
L 45.833261 96.58168 
L 43.621513 94.36165 
L 41.539381 91.793187 
L 39.650249 88.881774 
L 38.022115 85.650089 
L 36.724072 82.141151 
L 35.821651 78.420109 
L 35.371377 74.57392 
L 35.415141 70.708288 
L 35.97521 66.941674 
L 37.050786 63.396726 
L 38.616853 60.190191 
L 40.625663 57.422797 
L 43.01074 55.170803 
L 45.692719 53.480599 
L 48.586055 52.367068 
L 51.605546 51.815656 
L 54.671814 51.787352 
L 57.715227 52.225392 
L 60.678137 53.062429 
L 63.515585 54.22713 
L 66.194841 55.649534 
L 68.694172 57.264882 
L 71.0012 59.015962 
L 73.111145 60.854167 
L 75.025141 62.739609 
L 76.748726 64.640578 
L 78.290565 66.532635 
L 80.873225 70.222186 
L 82.870321 73.717876 
L 84.381942 76.981971 
L 85.500863 80.007436 
L 86.307708 82.80363 
L 86.869361 85.387672 
L 87.365551 88.909734 
L 87.557638 92.066253 
L 87.526158 94.917093 
L 87.313364 97.512855 
L 86.932002 99.895422 
L 86.370747 102.099369 
L 85.59642 104.153187 
L 84.55326 106.079577 
L 83.66933 107.301061 
L 82.59847 108.474911 
L 81.301696 109.599584 
L 79.731749 110.668143 
L 77.832135 111.665204 
L 75.536618 112.562235 
L 72.769812 113.310479 
L 69.450102 113.830627 
L 67.55736 113.968581 
L 65.496963 113.99846 
L 63.261478 113.894696 
L 60.846084 113.626486 
L 58.249828 113.15722 
L 55.47723 112.444102 
L 52.540249 111.438148 
L 49.460615 110.084787 
L 46.272427 108.325408 
L 43.024851 106.100207 
L 39.784552 103.352767 
L 36.637337 100.036635 
L 33.688245 96.123986 
L 31.059228 91.615904 
L 28.88355 86.553121 
L 27.296417 81.025152 
L 26.422081 75.175033 
L 26.358778 69.196718 
L 27.164029 63.323094 
L 28.843607 57.80466 
L 31.347239 52.881802 
L 34.572733 48.756125 
L 38.377981 45.567257 
L 42.598144 43.380251 
L 47.064107 42.185626 
L 51.618498 41.910513 
L 56.126878 42.436851 
L 60.483391 43.62175 
L 64.611599 45.31594 
L 68.461936 47.377875 
L 72.007339 49.682705 
L 75.238334 52.126602 
L 78.158381 54.62752 
L 80.779907 57.123643 
L 83.121155 59.570591 
L 85.203814 61.938194 
L 88.687503 66.367203 
L 91.419731 70.343653 
L 93.577328 73.869878 
L 96.070294 78.386606 
L 99.232492 84.167364 
L 100.411929 85.952837 
L 101.644564 87.461566 
L 102.984751 88.69688 
L 104.480282 89.652377 
L 106.173948 90.311587 
L 108.104003 90.647621 
L 110.30324 90.623047 
L 112.796278 90.190462 
L 115.594565 89.294541 
L 118.688595 87.876814 
L 122.037109 85.884807 
L 125.553775 83.287381 
L 127.332425 81.763162 
L 129.093456 80.097331 
L 130.807955 78.303037 
L 132.442732 76.399772 
L 133.960826 74.414034 
L 135.322434 72.379625 
L 136.486304 70.337414 
L 137.411604 68.334411 
L 138.060193 66.42205 
L 138.399179 64.653667 
L 138.403514 63.081287 
L 138.058355 61.751998 
L 137.360865 60.704316 
L 136.321158 59.965043 
L 134.962193 59.547088 
L 133.318563 59.448632 
L 131.434287 59.653781 
L 129.359888 60.134608 
L 127.149113 60.854236 
L 124.855713 61.770473 
L 120.219692 64.018893 
L 115.790876 66.56143 
L 111.798025 69.162236 
L 108.361946 71.682384 
L 105.519027 74.061479 
L 103.250076 76.288394 
L 101.505373 78.375429 
L 100.222914 80.34106 
L 99.340173 82.200819 
L 98.800896 83.963787 
L 98.558513 85.63219 
L 98.577435 87.202299 
L 98.833143 88.665558 
L 99.311653 90.009422 
L 100.008725 91.217694 
L 100.928997 92.270317 
L 102.085098 93.142668 
L 103.496677 93.804408 
L 105.189186 94.217981 
L 107.192099 94.336913 
L 109.536105 94.104221 
L 112.248615 93.451474 
L 115.34668 92.299539 
L 118.826333 90.562702 
L 120.698651 89.448662 
L 122.6475 88.158721 
L 124.659023 86.68628 
L 126.71451 85.027993 
L 128.789738 83.185036 
L 130.854448 81.164541 
L 132.872047 78.981101 
L 134.799683 76.658212 
L 136.588823 74.229458 
L 138.186485 71.73916 
L 139.537222 69.242203 
L 140.585887 66.802729 
L 141.281099 64.491507 
L 141.579184 62.381916 
L 141.44818 60.54476 
L 140.871412 59.042427 
L 139.850045 57.923154 
L 138.404134 57.216332 
L 136.571856 56.929695 
L 134.406934 57.048976 
L 131.974577 57.54011 
L 129.346522 58.353602 
L 126.595896 59.43022 
L 123.792564 60.707048 
L 118.270227 63.622838 
L 113.164942 66.698991 
L 108.698306 69.682489 
L 104.953718 72.458985 
L 101.920315 75.007617 
L 99.534074 77.354532 
L 97.707994 79.540147 
L 96.351167 81.601485 
L 95.379417 83.56538 
L 94.720345 85.447799 
L 94.315025 87.255798 
L 94.117836 88.990127 
L 94.095402 90.6475 
L 94.342806 92.976407 
L 94.679243 94.413418 
L 95.15077 95.747841 
L 95.763686 96.969474 
L 96.531002 98.06607 
L 97.472274 99.022354 
L 98.61365 99.818713 
L 99.988015 100.429486 
L 101.635078 100.820806 
L 103.601122 100.947922 
L 105.937983 100.752052 
L 108.700534 100.156969 
L 111.941553 99.066017 
L 115.702347 97.361037 
L 117.78371 96.236246 
L 119.99694 94.906175 
L 122.335501 93.353302 
L 124.78753 91.561586 
L 127.334537 89.517974 
L 129.950021 87.214357 
L 132.598134 84.650003 
L 135.232535 81.834395 
L 137.795685 78.790324 
L 140.218888 75.556911 
L 142.423425 72.192061 
L 144.323123 68.77368 
L 145.82861 65.39887 
L 146.853293 62.180367 
L 147.320755 59.239761 
L 147.172831 56.697633 
L 146.377225 54.661535 
L 144.933235 53.213612 
L 142.874274 52.400232 
L 140.26632 52.225957 
L 137.202274 52.653418 
L 133.793115 53.60926 
L 130.157475 54.994841 
L 126.411455 56.699277 
L 122.660262 58.612163 
L 115.47783 62.681874 
L 109.089406 66.628332 
L 103.697697 70.177362 
L 99.311348 73.277372 
L 95.831571 75.991772 
L 93.114778 78.418906 
L 91.009517 80.649366 
L 89.375032 82.750457 
L 88.088792 84.765256 
L 86.592602 87.673919 
L 82.59675 96.517997 
L 81.62151 98.104812 
L 80.496403 99.617778 
L 79.182117 101.047635 
L 77.636341 102.380592 
L 75.812954 103.595548 
L 73.66201 104.660235 
L 71.131045 105.525942 
L 68.168543 106.120599 
L 66.511236 106.285294 
L 64.730886 106.34023 
L 62.825289 106.265896 
L 60.794672 106.039697 
L 58.64253 105.635844 
L 56.376621 105.025431 
L 54.010104 104.17679 
L 51.562798 103.056258 
L 49.06247 101.629475 
L 46.546042 99.863386 
L 44.060507 97.729038 
L 41.663319 95.205237 
L 39.42191 92.28297 
L 37.412027 88.970307 
L 35.714584 85.297216 
L 34.410921 81.319447 
L 33.576608 77.120439 
L 33.27434 72.810192 
L 33.546845 68.520329 
L 34.410996 64.395268 
L 35.854364 60.580287 
L 37.835061 57.208194 
L 40.285135 54.386889 
L 43.11697 52.190047 
L 46.231545 50.652496 
L 49.527065 49.770751 
L 52.906634 49.508039 
L 56.284042 49.80233 
L 59.587283 50.575596 
L 62.759941 51.742709 
L 65.760872 53.218871 
L 68.562744 54.925041 
L 71.149966 56.791306 
L 73.516431 58.758477 
L 75.663343 60.778331 
L 77.597289 62.812934 
L 79.328627 64.833463 
L 82.236217 68.754096 
L 84.501656 72.438953 
L 86.243447 75.849531 
L 87.571362 78.982401 
L 88.581218 81.851712 
L 89.671511 85.709327 
L 90.644344 90.140156 
L 92.078393 97.108443 
L 92.69356 99.193151 
L 93.452374 101.018499 
L 94.071469 102.090959 
L 94.808015 103.042842 
L 95.689169 103.865338 
L 96.746927 104.54457 
L 98.01919 105.060147 
L 99.55077 105.383158 
L 101.394167 105.473456 
L 103.609783 105.276121 
L 106.265008 104.717092 
L 109.431115 103.698262 
L 113.176297 102.093036 
L 115.283399 101.022656 
L 117.55227 99.744743 
L 119.982984 98.235989 
L 122.570945 96.47277 
L 125.305366 94.432407 
L 128.1675 92.094989 
L 131.128694 89.445875 
L 134.148382 86.478928 
L 137.172244 83.200478 
L 140.130844 79.633827 
L 142.939226 75.823883 
L 145.497996 71.841221 
L 147.696491 67.784496 
L 149.418496 63.77995 
L 150.55068 59.976675 
L 150.99333 56.536774 
L 150.672254 53.620508 
L 149.549958 51.367956 
L 147.633713 49.880321 
L 144.978352 49.204951 
L 141.682509 49.328027 
L 137.878613 50.177137 
L 133.718532 51.63334 
L 129.357831 53.549672 
L 124.941667 55.771553 
L 120.59451 58.154722 
L 112.472511 62.948474 
L 102.421793 69.249442 
L 95.081307 74.134266 
L 91.466723 76.775225 
L 88.649979 79.094732 
L 86.443746 81.208884 
L 84.682987 83.195347 
L 82.579159 86.026664 
L 78.458395 92.096498 
L 77.163581 93.658506 
L 75.717119 95.11326 
L 74.073408 96.435855 
L 72.190126 97.593769 
L 70.028616 98.543764 
L 67.556039 99.228037 
L 64.749888 99.569997 
L 63.219321 99.582583 
L 61.605642 99.470528 
L 59.912979 99.217668 
L 58.148244 98.806509 
L 56.321696 98.218536 
L 54.447537 97.434741 
L 52.544479 96.436388 
L 50.636244 95.206086 
L 48.751905 93.729184 
L 46.925961 91.995496 
L 45.198046 90.001294 
L 43.612137 87.751466 
L 42.215172 85.261631 
L 41.055024 82.559918 
L 40.17787 79.688076 
L 39.625092 76.701516 
L 39.429991 73.667997 
L 39.614679 70.66478 
L 40.187607 67.774331 
L 41.142122 65.078934 
L 42.456347 62.654846 
L 44.094486 60.566766 
L 46.009382 58.863412 
L 48.145981 57.574793 
L 50.445218 56.71146 
L 52.847805 56.265674 
L 55.297512 56.214108 
L 57.743662 56.521527 
L 60.142738 57.144829 
L 62.459143 58.036926 
L 64.665253 59.150089 
L 66.740942 60.43854 
L 68.672787 61.860255 
L 70.453086 63.378022 
L 72.078841 64.959899 
L 73.550775 66.579214 
L 74.872445 68.214249 
L 77.088855 71.466328 
L 78.786721 74.621072 
L 80.032437 77.627243 
L 80.89038 80.462147 
L 81.417387 83.120413 
L 81.660062 85.60638 
L 81.653828 87.929168 
L 81.422992 90.099527 
L 80.981302 92.127794 
L 80.332691 94.022442 
L 79.472013 95.788886 
L 78.385733 97.42825 
L 77.05257 98.935848 
L 75.444264 100.299146 
L 73.52671 101.49494 
L 71.261897 102.485509 
L 68.611345 103.213567 
L 67.130645 103.454399 
L 65.542013 103.596091 
L 63.843764 103.62315 
L 62.036053 103.517698 
L 60.121503 103.259392 
L 58.105937 102.825473 
L 55.999225 102.190999 
L 53.816206 101.329358 
L 51.577661 100.213128 
L 49.311241 98.815406 
L 47.052246 97.111677 
L 44.844084 95.082279 
L 42.738215 92.71544 
L 40.793353 90.010759 
L 39.073703 86.982826 
L 37.646093 83.664527 
L 36.575987 80.10938 
L 35.922581 76.392181 
L 35.733445 72.607309 
L 36.039394 68.864275 
L 36.850437 65.280638 
L 38.15359 61.972942 
L 39.913071 59.046934 
L 42.073001 56.588597 
L 44.562183 54.657476 
L 47.300196 53.283311 
L 50.203797 52.466276 
L 53.192732 52.180406 
L 56.194278 52.379261 
L 59.146233 53.002626 
L 61.998339 53.983164 
L 64.712421 55.25219 
L 67.26158 56.744124 
L 69.628821 58.399481 
L 71.805418 60.166542 
L 73.789255 62.001942 
L 75.583285 63.870484 
L 77.194176 65.744464 
L 77.194176 65.744464 
" clip-path="url(#pae48fbeea2)" style="fill: none; stroke: #ff7f0e; stroke-opacity: 0.5; stroke-width: 1.5; stroke-linecap: round"/>
   </g>
  </g>
 </g>
 <defs>
  <clipPath id="pae48fbeea2">
   <rect x="-1.8" y="-7.2" width="176.4" height="176.4"/>
  </clipPath>
 </defs>
</svg>
