<?xml version="1.0" encoding="utf-8" standalone="no"?>
<!DOCTYPE svg PUBLIC "-//W3C//DTD SVG 1.1//EN"
  "http://www.w3.org/Graphics/SVG/1.1/DTD/svg11.dtd">
<svg xmlns:xlink="http://www.w3.org/1999/xlink" width="216pt" height="180pt" viewBox="0 0 216 180" xmlns="http://www.w3.org/2000/svg" version="1.1">
 <metadata>
  <rdf:RDF xmlns:dc="http://purl.org/dc/elements/1.1/" xmlns:cc="http://creativecommons.org/ns#" xmlns:rdf="http://www.w3.org/1999/02/22-rdf-syntax-ns#">
   <cc:Work>
    <dc:type rdf:resource="http://purl.org/dc/dcmitype/StillImage"/>
    <dc:date>2023-06-14T18:53:30.819247</dc:date>
    <dc:format>image/svg+xml</dc:format>
    <dc:creator>
     <cc:Agent>
      <dc:title>Matplotlib v3.7.0, https://matplotlib.org/</dc:title>
     </cc:Agent>
    </dc:creator>
   </cc:Work>
  </rdf:RDF>
 </metadata>
 <defs>
  <style type="text/css">*{stroke-linejoin: round; stroke-linecap: butt}</style>
 </defs>
 <g id="figure_1">
  <g id="patch_1">
   <path d="M 0 180 
L 216 180 
L 216 0 
L 0 0 
z
" style="fill: #ffffff"/>
  </g>
  <g id="patch_2">
   <path d="M -1 169.2 
L 174.6 169.2 
L 174.6 -1 
" style="fill: none"/>
  </g>
  <g id="pane3d_1">
   <g id="patch_3">
    <path d="M 11.519416 125.705413 
L 69.772457 76.876559 
L 68.962684 6.456623 
L 7.921935 51.001381 
" style="fill: none; opacity: 0.5; stroke: #f2f2f2; stroke-linejoin: miter"/>
   </g>
  </g>
  <g id="pane3d_2">
   <g id="patch_4">
    <path d="M 69.772457 76.876559 
L 163.247803 104.046152 
L 166.583609 31.200681 
L 68.962684 6.456623 
" style="fill: none; opacity: 0.5; stroke: #e6e6e6; stroke-linejoin: miter"/>
   </g>
  </g>
  <g id="pane3d_3">
   <g id="patch_5">
    <path d="M 11.519416 125.705413 
L 110.607849 158.067695 
L 163.247803 104.046152 
L 69.772457 76.876559 
" style="fill: none; opacity: 0.5; stroke: #ececec; stroke-linejoin: miter"/>
   </g>
  </g>
  <g id="axis3d_1">
   <g id="line2d_1">
    <path d="M 11.519416 125.705413 
L 110.607849 158.067695 
" style="fill: none; stroke: #ffffff; stroke-width: 0.8; stroke-linecap: round"/>
   </g>
   <g id="text_1">
    <!-- x -->
    <g style="fill: #262626" transform="translate(40.437569 179.640981) scale(0.1 -0.1)">
     <defs>
      <path id="DejaVuSans-78" d="M 3513 3500 
L 2247 1797 
L 3578 0 
L 2900 0 
L 1881 1375 
L 863 0 
L 184 0 
L 1544 1831 
L 300 3500 
L 978 3500 
L 1906 2253 
L 2834 3500 
L 3513 3500 
z
" transform="scale(0.015625)"/>
     </defs>
     <use xlink:href="#DejaVuSans-78"/>
    </g>
   </g>
   <g id="Line3DCollection_1">
    <path d="M 35.158178 133.425833 
L 92.147202 83.380014 
L 92.292235 12.369984 
" style="fill: none; stroke: #d3d3d3; stroke-width: 0.8"/>
    <path d="M 59.282158 141.304724 
L 114.93262 90.002836 
L 116.074215 18.398022 
" style="fill: none; stroke: #d3d3d3; stroke-width: 0.8"/>
    <path d="M 84.042418 149.391425 
L 138.268128 96.785546 
L 140.455724 24.578024 
" style="fill: none; stroke: #d3d3d3; stroke-width: 0.8"/>
   </g>
   <g id="xtick_1">
    <g id="line2d_2">
     <path d="M 88.783784 78.616216 
" clip-path="url(#p21f50fa574)" style="fill: none; stroke: #d3d3d3; stroke-width: 0.8; stroke-linecap: round"/>
    </g>
    <g id="line2d_3">
     <path d="M 35.654823 132.989696 
L 34.162738 134.299995 
" style="fill: none; stroke: #808080; stroke-width: 0.8; stroke-linecap: round"/>
    </g>
    <g id="text_2">
     <!-- −10 -->
     <g style="fill: #808080" transform="translate(17.089691 156.949503) scale(0.1 -0.1)">
      <defs>
       <path id="DejaVuSans-2212" d="M 678 2272 
L 4684 2272 
L 4684 1741 
L 678 1741 
L 678 2272 
z
" transform="scale(0.015625)"/>
       <path id="DejaVuSans-31" d="M 794 531 
L 1825 531 
L 1825 4091 
L 703 3866 
L 703 4441 
L 1819 4666 
L 2450 4666 
L 2450 531 
L 3481 531 
L 3481 0 
L 794 0 
L 794 531 
z
" transform="scale(0.015625)"/>
       <path id="DejaVuSans-30" d="M 2034 4250 
Q 1547 4250 1301 3770 
Q 1056 3291 1056 2328 
Q 1056 1369 1301 889 
Q 1547 409 2034 409 
Q 2525 409 2770 889 
Q 3016 1369 3016 2328 
Q 3016 3291 2770 3770 
Q 2525 4250 2034 4250 
z
M 2034 4750 
Q 2819 4750 3233 4129 
Q 3647 3509 3647 2328 
Q 3647 1150 3233 529 
Q 2819 -91 2034 -91 
Q 1250 -91 836 529 
Q 422 1150 422 2328 
Q 422 3509 836 4129 
Q 1250 4750 2034 4750 
z
" transform="scale(0.015625)"/>
      </defs>
      <use xlink:href="#DejaVuSans-2212"/>
      <use xlink:href="#DejaVuSans-31" x="83.789062"/>
      <use xlink:href="#DejaVuSans-30" x="147.412109"/>
     </g>
    </g>
   </g>
   <g id="xtick_2">
    <g id="line2d_4">
     <path d="M 88.783784 78.616216 
" clip-path="url(#p21f50fa574)" style="fill: none; stroke: #d3d3d3; stroke-width: 0.8; stroke-linecap: round"/>
    </g>
    <g id="line2d_5">
     <path d="M 59.767655 140.857165 
L 58.309034 142.201808 
" style="fill: none; stroke: #808080; stroke-width: 0.8; stroke-linecap: round"/>
    </g>
    <g id="text_3">
     <!-- 0 -->
     <g style="fill: #808080" transform="translate(48.62501 165.082149) scale(0.1 -0.1)">
      <use xlink:href="#DejaVuSans-30"/>
     </g>
    </g>
   </g>
   <g id="xtick_3">
    <g id="line2d_6">
     <path d="M 88.783784 78.616216 
" clip-path="url(#p21f50fa574)" style="fill: none; stroke: #d3d3d3; stroke-width: 0.8; stroke-linecap: round"/>
    </g>
    <g id="line2d_7">
     <path d="M 84.516002 148.931988 
L 83.093143 150.312343 
" style="fill: none; stroke: #808080; stroke-width: 0.8; stroke-linecap: round"/>
    </g>
    <g id="text_4">
     <!-- 10 -->
     <g style="fill: #808080" transform="translate(70.249038 173.430546) scale(0.1 -0.1)">
      <use xlink:href="#DejaVuSans-31"/>
      <use xlink:href="#DejaVuSans-30" x="63.623047"/>
     </g>
    </g>
   </g>
  </g>
  <g id="axis3d_2">
   <g id="line2d_8">
    <path d="M 163.247803 104.046152 
L 110.607849 158.067695 
" style="fill: none; stroke: #ffffff; stroke-width: 0.8; stroke-linecap: round"/>
   </g>
   <g id="text_5">
    <!-- y -->
    <g style="fill: #262626" transform="translate(162.133934 160.636398) scale(0.1 -0.1)">
     <defs>
      <path id="DejaVuSans-79" d="M 2059 -325 
Q 1816 -950 1584 -1140 
Q 1353 -1331 966 -1331 
L 506 -1331 
L 506 -850 
L 844 -850 
Q 1081 -850 1212 -737 
Q 1344 -625 1503 -206 
L 1606 56 
L 191 3500 
L 800 3500 
L 1894 763 
L 2988 3500 
L 3597 3500 
L 2059 -325 
z
" transform="scale(0.015625)"/>
     </defs>
     <use xlink:href="#DejaVuSans-79"/>
    </g>
   </g>
   <g id="Line3DCollection_2">
    <path d="M 16.123473 45.016273 
L 19.320701 119.166222 
L 117.684425 150.805387 
" style="fill: none; stroke: #d3d3d3; stroke-width: 0.8"/>
    <path d="M 39.468923 27.979827 
L 41.570425 100.516062 
L 137.821272 130.140028 
" style="fill: none; stroke: #d3d3d3; stroke-width: 0.8"/>
    <path d="M 61.324626 12.03053 
L 62.458977 83.006864 
L 156.6645 110.802241 
" style="fill: none; stroke: #d3d3d3; stroke-width: 0.8"/>
   </g>
   <g id="xtick_4">
    <g id="line2d_9">
     <path d="M 88.783784 78.616216 
" clip-path="url(#p21f50fa574)" style="fill: none; stroke: #d3d3d3; stroke-width: 0.8; stroke-linecap: round"/>
    </g>
    <g id="line2d_10">
     <path d="M 116.855747 150.538839 
L 119.343912 151.339169 
" style="fill: none; stroke: #808080; stroke-width: 0.8; stroke-linecap: round"/>
    </g>
    <g id="text_6">
     <!-- −20 -->
     <g style="fill: #808080" transform="translate(119.947144 171.752401) scale(0.1 -0.1)">
      <defs>
       <path id="DejaVuSans-32" d="M 1228 531 
L 3431 531 
L 3431 0 
L 469 0 
L 469 531 
Q 828 903 1448 1529 
Q 2069 2156 2228 2338 
Q 2531 2678 2651 2914 
Q 2772 3150 2772 3378 
Q 2772 3750 2511 3984 
Q 2250 4219 1831 4219 
Q 1534 4219 1204 4116 
Q 875 4013 500 3803 
L 500 4441 
Q 881 4594 1212 4672 
Q 1544 4750 1819 4750 
Q 2544 4750 2975 4387 
Q 3406 4025 3406 3419 
Q 3406 3131 3298 2873 
Q 3191 2616 2906 2266 
Q 2828 2175 2409 1742 
Q 1991 1309 1228 531 
z
" transform="scale(0.015625)"/>
      </defs>
      <use xlink:href="#DejaVuSans-2212"/>
      <use xlink:href="#DejaVuSans-32" x="83.789062"/>
      <use xlink:href="#DejaVuSans-30" x="147.412109"/>
     </g>
    </g>
   </g>
   <g id="xtick_5">
    <g id="line2d_11">
     <path d="M 88.783784 78.616216 
" clip-path="url(#p21f50fa574)" style="fill: none; stroke: #d3d3d3; stroke-width: 0.8; stroke-linecap: round"/>
    </g>
    <g id="line2d_12">
     <path d="M 137.01175 129.890874 
L 139.442328 130.638955 
" style="fill: none; stroke: #808080; stroke-width: 0.8; stroke-linecap: round"/>
    </g>
    <g id="text_7">
     <!-- 0 -->
     <g style="fill: #808080" transform="translate(147.046918 150.625712) scale(0.1 -0.1)">
      <use xlink:href="#DejaVuSans-30"/>
     </g>
    </g>
   </g>
   <g id="xtick_6">
    <g id="line2d_13">
     <path d="M 88.783784 78.616216 
" clip-path="url(#p21f50fa574)" style="fill: none; stroke: #d3d3d3; stroke-width: 0.8; stroke-linecap: round"/>
    </g>
    <g id="line2d_14">
     <path d="M 155.873422 110.568833 
L 158.248559 111.269618 
" style="fill: none; stroke: #808080; stroke-width: 0.8; stroke-linecap: round"/>
    </g>
    <g id="text_8">
     <!-- 20 -->
     <g style="fill: #808080" transform="translate(162.325884 130.857372) scale(0.1 -0.1)">
      <use xlink:href="#DejaVuSans-32"/>
      <use xlink:href="#DejaVuSans-30" x="63.623047"/>
     </g>
    </g>
   </g>
  </g>
  <g id="axis3d_3">
   <g id="line2d_15">
    <path d="M 163.247803 104.046152 
L 166.583609 31.200681 
" style="fill: none; stroke: #ffffff; stroke-width: 0.8; stroke-linecap: round"/>
   </g>
   <g id="text_9">
    <!-- z -->
    <g style="fill: #262626" transform="translate(202.494937 65.789607) scale(0.1 -0.1)">
     <defs>
      <path id="DejaVuSans-7a" d="M 353 3500 
L 3084 3500 
L 3084 2975 
L 922 459 
L 3084 459 
L 3084 0 
L 275 0 
L 275 525 
L 2438 3041 
L 353 3041 
L 353 3500 
z
" transform="scale(0.015625)"/>
     </defs>
     <use xlink:href="#DejaVuSans-7a"/>
    </g>
   </g>
   <g id="Line3DCollection_3">
    <path d="M 163.62234 95.867223 
L 69.681367 68.955135 
L 11.116103 117.330356 
" style="fill: none; stroke: #d3d3d3; stroke-width: 0.8"/>
    <path d="M 164.45477 77.689086 
L 69.479069 51.362768 
L 10.21917 98.704958 
" style="fill: none; stroke: #d3d3d3; stroke-width: 0.8"/>
    <path d="M 165.305926 59.10201 
L 69.27244 33.393799 
L 9.301279 79.644349 
" style="fill: none; stroke: #d3d3d3; stroke-width: 0.8"/>
    <path d="M 166.176448 40.092037 
L 69.06134 15.036006 
L 8.361686 60.133095 
" style="fill: none; stroke: #d3d3d3; stroke-width: 0.8"/>
   </g>
   <g id="xtick_7">
    <g id="line2d_16">
     <path d="M 88.783784 78.616216 
" style="fill: none; stroke: #d3d3d3; stroke-width: 0.8; stroke-linecap: round"/>
    </g>
    <g id="line2d_17">
     <path d="M 162.833731 95.641304 
L 165.201443 96.319603 
" style="fill: none; stroke: #808080; stroke-width: 0.8; stroke-linecap: round"/>
    </g>
    <g id="text_10">
     <!-- 10 -->
     <g style="fill: #808080" transform="translate(175.570227 100.888729) scale(0.1 -0.1)">
      <use xlink:href="#DejaVuSans-31"/>
      <use xlink:href="#DejaVuSans-30" x="63.623047"/>
     </g>
    </g>
   </g>
   <g id="xtick_8">
    <g id="line2d_18">
     <path d="M 88.783784 78.616216 
" style="fill: none; stroke: #d3d3d3; stroke-width: 0.8; stroke-linecap: round"/>
    </g>
    <g id="line2d_19">
     <path d="M 163.657058 77.467969 
L 166.052122 78.131857 
" style="fill: none; stroke: #808080; stroke-width: 0.8; stroke-linecap: round"/>
    </g>
    <g id="text_11">
     <!-- 20 -->
     <g style="fill: #808080" transform="translate(176.601569 82.765479) scale(0.1 -0.1)">
      <use xlink:href="#DejaVuSans-32"/>
      <use xlink:href="#DejaVuSans-30" x="63.623047"/>
     </g>
    </g>
   </g>
   <g id="xtick_9">
    <g id="line2d_20">
     <path d="M 88.783784 78.616216 
" style="fill: none; stroke: #d3d3d3; stroke-width: 0.8; stroke-linecap: round"/>
    </g>
    <g id="line2d_21">
     <path d="M 164.498899 58.885968 
L 166.921954 59.534621 
" style="fill: none; stroke: #808080; stroke-width: 0.8; stroke-linecap: round"/>
    </g>
    <g id="text_12">
     <!-- 30 -->
     <g style="fill: #808080" transform="translate(177.656004 64.236417) scale(0.1 -0.1)">
      <defs>
       <path id="DejaVuSans-33" d="M 2597 2516 
Q 3050 2419 3304 2112 
Q 3559 1806 3559 1356 
Q 3559 666 3084 287 
Q 2609 -91 1734 -91 
Q 1441 -91 1130 -33 
Q 819 25 488 141 
L 488 750 
Q 750 597 1062 519 
Q 1375 441 1716 441 
Q 2309 441 2620 675 
Q 2931 909 2931 1356 
Q 2931 1769 2642 2001 
Q 2353 2234 1838 2234 
L 1294 2234 
L 1294 2753 
L 1863 2753 
Q 2328 2753 2575 2939 
Q 2822 3125 2822 3475 
Q 2822 3834 2567 4026 
Q 2313 4219 1838 4219 
Q 1578 4219 1281 4162 
Q 984 4106 628 3988 
L 628 4550 
Q 988 4650 1302 4700 
Q 1616 4750 1894 4750 
Q 2613 4750 3031 4423 
Q 3450 4097 3450 3541 
Q 3450 3153 3228 2886 
Q 3006 2619 2597 2516 
z
" transform="scale(0.015625)"/>
      </defs>
      <use xlink:href="#DejaVuSans-33"/>
      <use xlink:href="#DejaVuSans-30" x="63.623047"/>
     </g>
    </g>
   </g>
   <g id="xtick_10">
    <g id="line2d_22">
     <path d="M 88.783784 78.616216 
" style="fill: none; stroke: #d3d3d3; stroke-width: 0.8; stroke-linecap: round"/>
    </g>
    <g id="line2d_23">
     <path d="M 165.359885 39.881361 
L 167.811592 40.51391 
" style="fill: none; stroke: #808080; stroke-width: 0.8; stroke-linecap: round"/>
    </g>
    <g id="text_13">
     <!-- 40 -->
     <g style="fill: #808080" transform="translate(178.734317 45.287758) scale(0.1 -0.1)">
      <defs>
       <path id="DejaVuSans-34" d="M 2419 4116 
L 825 1625 
L 2419 1625 
L 2419 4116 
z
M 2253 4666 
L 3047 4666 
L 3047 1625 
L 3713 1625 
L 3713 1100 
L 3047 1100 
L 3047 0 
L 2419 0 
L 2419 1100 
L 313 1100 
L 313 1709 
L 2253 4666 
z
" transform="scale(0.015625)"/>
      </defs>
      <use xlink:href="#DejaVuSans-34"/>
      <use xlink:href="#DejaVuSans-30" x="63.623047"/>
     </g>
    </g>
   </g>
  </g>
  <g id="axes_1">
   <g id="line2d_24">
    <path d="M 122.095195 104.38179 
L 124.45154 101.797973 
L 126.846361 98.937377 
L 129.272727 95.810203 
L 131.7215 92.432247 
L 134.176831 88.825301 
L 136.610812 85.018431 
L 138.978348 81.050401 
L 141.213687 76.973104 
L 143.230222 72.855324 
L 144.924861 68.785505 
L 146.187408 64.871847 
L 146.913958 61.23819 
L 147.021638 58.014994 
L 146.460914 55.32616 
L 145.221893 53.273913 
L 143.333004 51.924848 
L 140.853394 51.300169 
L 137.86287 51.3722 
L 134.453559 52.067991 
L 130.725459 53.279481 
L 126.784872 54.878448 
L 122.742655 56.733252 
L 114.789124 60.75257 
L 107.612403 64.665044 
L 101.634051 68.185222 
L 96.92779 71.283974 
L 93.347431 74.037073 
L 90.665637 76.536359 
L 88.657115 78.856024 
L 87.131554 81.046833 
L 85.939249 83.140193 
L 84.533396 86.134255 
L 81.375984 93.38556 
L 79.975412 95.828736 
L 78.880841 97.364508 
L 77.61855 98.816551 
L 76.153199 100.17172 
L 74.446745 101.409813 
L 72.45791 102.500355 
L 70.14228 103.398237 
L 67.453498 104.037947 
L 65.954911 104.233172 
L 64.346614 104.32629 
L 62.624414 104.299948 
L 60.785499 104.134026 
L 58.829141 103.805467 
L 56.757621 103.288232 
L 54.577424 102.553476 
L 52.300699 101.570049 
L 49.946967 100.305482 
L 47.544951 98.727593 
L 45.134311 96.806901 
L 42.766905 94.519919 
L 40.507056 91.853296 
L 38.430233 88.808568 
L 36.619605 85.406944 
L 35.160263 81.693287 
L 34.131445 77.738218 
L 33.597886 73.637351 
L 33.601986 69.50707 
L 34.158656 65.477 
L 35.254139 61.680081 
L 36.848977 58.241761 
L 38.884052 55.26992 
L 41.287834 52.846844 
L 43.983002 51.024046 
L 46.891324 49.820272 
L 49.936666 49.222664 
L 53.046773 49.190772 
L 56.154664 49.662825 
L 59.200193 50.563338 
L 62.131813 51.810932 
L 64.908155 53.325279 
L 67.498962 55.032396 
L 69.885091 56.867964 
L 72.057604 58.778778 
L 74.01618 60.722736 
L 75.767195 62.667865 
L 77.321786 64.590851 
L 79.899897 68.310774 
L 81.876556 71.810417 
L 83.375414 75.068249 
L 84.503771 78.088166 
L 85.348698 80.885224 
L 86.228642 84.704279 
L 86.783751 88.127433 
L 87.194305 92.171099 
L 87.366362 96.537454 
L 87.273662 100.29032 
L 86.946729 103.558273 
L 86.495545 105.895708 
L 85.830004 108.039521 
L 85.149102 109.546677 
L 84.267106 110.985601 
L 83.128868 112.368903 
L 81.661757 113.702583 
L 80.45478 114.561654 
L 79.023739 115.388956 
L 77.324864 116.17023 
L 75.304371 116.880478 
L 72.895737 117.478296 
L 70.016559 117.897227 
L 66.565884 118.032633 
L 64.589598 117.946237 
L 62.42478 117.722202 
L 60.05546 117.326746 
L 57.467061 116.71869 
L 54.648439 115.848409 
L 51.594971 114.657061 
L 48.312956 113.076473 
L 44.825501 111.030271 
L 41.179769 108.437083 
L 37.454847 105.216807 
L 33.768538 101.300868 
L 30.280172 96.646839 
L 27.185602 91.256384 
L 24.700917 85.193386 
L 23.034209 78.596836 
L 22.350134 71.682246 
L 22.737802 64.727484 
L 24.194509 58.044141 
L 26.632653 51.941161 
L 29.906667 46.689815 
L 33.84751 42.496781 
L 38.290184 39.48742 
L 43.085714 37.698368 
L 48.098641 37.078822 
L 53.198566 37.501406 
L 58.255677 38.783083 
L 63.145229 40.713294 
L 67.758648 43.082953 
L 72.014693 45.70728 
L 75.86518 48.438519 
L 79.293829 51.168759 
L 82.310158 53.825906 
L 84.94148 56.366406 
L 87.225345 58.767484 
L 90.918409 63.125112 
L 93.713764 66.913061 
L 96.808461 71.665281 
L 100.548887 77.594156 
L 101.890578 79.37979 
L 103.25669 80.858037 
L 104.698342 82.032401 
L 106.255024 82.897676 
L 107.956787 83.441264 
L 109.824875 83.644567 
L 111.870858 83.484834 
L 114.094198 82.937935 
L 116.478169 81.982639 
L 118.98416 80.607016 
L 121.544943 78.817411 
L 124.058442 76.649823 
L 126.385141 74.18217 
L 128.353603 71.543693 
L 129.145316 70.215252 
L 129.778374 68.915537 
L 130.232485 67.672897 
L 130.490778 66.516085 
L 130.540916 65.472877 
L 130.375989 64.568577 
L 129.995074 63.824568 
L 129.403403 63.257066 
L 128.612155 62.876207 
L 127.637891 62.685594 
L 126.501734 62.682335 
L 125.228368 62.857582 
L 123.84495 63.197476 
L 120.862283 64.298277 
L 117.779038 65.822926 
L 114.795072 67.610555 
L 112.06397 69.527437 
L 109.68496 71.476402 
L 107.706893 73.393789 
L 106.139853 75.24072 
L 104.969002 76.993882 
L 104.166775 78.638236 
L 103.701792 80.162145 
L 103.544469 81.554423 
L 103.670009 82.802662 
L 104.059605 83.892287 
L 104.700517 84.805966 
L 105.585446 85.523199 
L 106.711458 86.02002 
L 108.078493 86.268843 
L 109.687406 86.238608 
L 111.537324 85.895454 
L 113.622026 85.204303 
L 115.924946 84.131895 
L 118.412477 82.651969 
L 121.025586 80.753324 
L 123.670708 78.451197 
L 126.21256 75.801294 
L 128.473783 72.913589 
L 129.434981 71.431882 
L 130.247537 69.959844 
L 130.885845 68.527435 
L 131.326958 67.166411 
L 131.552062 65.908891 
L 131.547798 64.785671 
L 131.307266 63.824417 
L 130.830605 63.047947 
L 130.125082 62.472787 
L 129.20471 62.108175 
L 128.089471 61.955655 
L 126.804267 62.009296 
L 125.377699 62.256495 
L 123.840784 62.679268 
L 120.564404 63.962296 
L 117.224284 65.668227 
L 114.034871 67.618087 
L 111.153965 69.670976 
L 108.676296 71.730473 
L 106.640978 73.73767 
L 105.046703 75.659454 
L 103.868102 77.477687 
L 103.069159 79.181387 
L 102.612401 80.761874 
L 102.464259 82.210066 
L 102.597669 83.515044 
L 102.99289 84.663294 
L 103.637298 85.638211 
L 104.524598 86.419697 
L 105.65369 86.983789 
L 107.027222 87.302346 
L 108.649765 87.342931 
L 110.525368 87.069119 
L 112.654161 86.441587 
L 115.027501 85.42057 
L 117.621144 83.970456 
L 120.386079 82.067514 
L 123.237484 79.711657 
L 126.044004 76.942336 
L 128.622431 73.856461 
L 129.756201 72.244489 
L 130.745522 70.622376 
L 131.559745 69.022329 
L 132.170172 67.479687 
L 132.551898 66.031433 
L 132.685574 64.714296 
L 132.558888 63.562585 
L 132.167566 62.605959 
L 131.51577 61.867423 
L 130.615874 61.361764 
L 129.487697 61.094678 
L 128.157339 61.062665 
L 126.655779 61.253731 
L 125.017375 61.648759 
L 123.278351 62.223381 
L 119.643964 63.800235 
L 116.026397 65.761577 
L 112.648338 67.915131 
L 109.66087 70.121917 
L 107.14224 72.295373 
L 105.111698 74.388259 
L 103.549579 76.377589 
L 102.41609 78.252768 
L 101.665181 80.007973 
L 101.253126 81.637915 
L 101.142981 83.135747 
L 101.306328 84.492087 
L 101.723472 85.694532 
L 102.382827 86.727307 
L 103.27992 87.570882 
L 104.416205 88.201515 
L 105.797702 88.590767 
L 107.433359 88.705091 
L 109.3329 88.505718 
L 111.503778 87.949166 
L 113.946665 86.988943 
L 116.648744 85.579296 
L 119.574042 83.682199 
L 122.650575 81.278999 
L 125.755725 78.387775 
L 128.704561 75.08555 
L 130.045204 73.326065 
L 131.250287 71.530201 
L 132.283202 69.732032 
L 133.108095 67.970552 
L 133.692114 66.288249 
L 134.007769 64.729052 
L 134.035091 63.335754 
L 133.763289 62.147168 
L 133.191679 61.195326 
L 132.329765 60.503096 
L 131.196544 60.082543 
L 129.819203 59.934266 
L 128.231463 60.047814 
L 126.471767 60.40309 
L 124.581469 60.972546 
L 122.60308 61.723834 
L 118.547797 63.634728 
L 114.608 65.877151 
L 111.01358 68.248037 
L 107.904322 70.615152 
L 105.336306 72.906189 
L 103.304076 75.088512 
L 101.766333 77.150869 
L 100.666975 79.09099 
L 99.948927 80.908618 
L 99.561694 82.602183 
L 99.464614 84.167473 
L 99.627614 85.597193 
L 100.030707 86.880807 
L 100.662971 88.004346 
L 101.521367 88.950072 
L 102.609569 89.695957 
L 103.936778 90.215012 
L 105.516437 90.474553 
L 107.364634 90.435533 
L 109.497848 90.052211 
L 111.929484 89.272594 
L 114.664367 88.040408 
L 117.690059 86.29981 
L 120.963823 84.004619 
L 124.394878 81.134255 
L 127.824332 77.717942 
L 129.466289 75.83537 
L 131.01075 73.865528 
L 132.415574 71.839468 
L 133.636167 69.795848 
L 134.627854 67.780248 
L 135.348828 65.843598 
L 135.763348 64.039674 
L 135.844766 62.421776 
L 135.577899 61.038916 
L 134.960368 59.931955 
L 134.002734 59.130236 
L 132.727507 58.649211 
L 131.167336 58.489431 
L 129.362787 58.637047 
L 127.360032 59.065742 
L 125.208628 59.739766 
L 122.959423 60.617614 
L 118.365313 62.812213 
L 113.935385 65.332689 
L 109.934594 67.944224 
L 106.513108 70.506928 
L 103.717722 72.955015 
L 101.52344 75.267381 
L 99.867305 77.444064 
L 98.674016 79.49192 
L 97.871325 81.417567 
L 97.397471 83.224657 
L 97.203667 84.913237 
L 97.254024 86.4799 
L 97.524361 87.918061 
L 98.000726 89.218083 
L 98.677975 90.367141 
L 99.558561 91.348819 
L 100.651532 92.142451 
L 101.971681 92.722222 
L 103.538732 93.056097 
L 105.376373 93.10464 
L 107.510838 92.8199 
L 109.968523 92.144684 
L 112.771781 91.012836 
L 115.931489 89.35166 
L 119.434424 87.088454 
L 123.223343 84.164224 
L 125.18842 82.445348 
L 127.169328 80.558434 
L 129.133744 78.513231 
L 131.041627 76.327296 
L 132.845431 74.027495 
L 134.491225 71.651111 
L 135.920941 69.246232 
L 137.075787 66.871035 
L 137.900613 64.591677 
L 138.348715 62.478682 
L 138.386326 60.602023 
L 137.995948 59.025383 
L 137.177909 57.800418 
L 135.949934 56.96188 
L 134.345035 56.524422 
L 132.408427 56.481631 
L 130.194214 56.807425 
L 127.762365 57.459599 
L 125.176062 58.384896 
L 122.499238 59.524773 
L 117.118236 62.219886 
L 112.048973 65.152792 
L 107.584535 68.069177 
L 103.860693 70.845429 
L 100.884975 73.444269 
L 98.587632 75.871096 
L 96.867059 78.145635 
L 95.619043 80.287914 
L 94.751313 82.313146 
L 94.188655 84.230919 
L 93.873094 86.046026 
L 93.762045 87.75961 
L 93.825901 89.370111 
L 94.04577 90.873878 
L 94.411605 92.265424 
L 94.920778 93.537389 
L 95.577056 94.680238 
L 96.389931 95.681724 
L 97.374227 96.526126 
L 98.549927 97.193239 
L 99.942145 97.657106 
L 101.581178 97.884463 
L 103.5025 97.83289 
L 105.74647 97.448717 
L 108.357281 96.664863 
L 111.380176 95.39909 
L 114.855097 93.553751 
L 118.803515 91.019369 
L 123.203635 87.68654 
L 125.544661 85.692896 
L 127.949192 83.473718 
L 130.381413 81.031852 
L 132.793093 78.380149 
L 135.122706 75.544534 
L 137.295969 72.566872 
L 139.228407 69.507006 
L 140.830359 66.443098 
L 142.014332 63.469475 
L 142.703875 60.691421 
L 142.842363 58.216996 
L 142.399695 56.14675 
L 141.375212 54.562917 
L 139.796246 53.520015 
L 137.713189 53.03863 
L 135.193063 53.103535 
L 132.313702 53.666507 
L 129.159657 54.653352 
L 125.819521 55.973878 
L 122.383396 57.532975 
L 115.568826 61.020197 
L 109.311832 64.570703 
L 103.976914 67.902414 
L 99.674404 70.934249 
L 96.334392 73.687828 
L 93.80228 76.217171 
L 91.906544 78.574691 
L 90.492397 80.800216 
L 89.432846 82.920491 
L 88.628616 84.952104 
L 87.740357 87.853425 
L 86.698276 92.335461 
L 85.588588 97.17625 
L 84.68534 100.107867 
L 83.827042 102.167803 
L 82.746077 104.118726 
L 81.866507 105.36127 
L 80.830583 106.556653 
L 79.60862 107.700965 
L 78.165749 108.785577 
L 76.46079 109.794705 
L 74.444981 110.701844 
L 72.060647 111.464541 
L 69.240201 112.01682 
L 65.906518 112.25838 
L 64.021403 112.218354 
L 61.977217 112.039802 
L 59.765039 111.693328 
L 57.378266 111.144092 
L 54.814309 110.351374 
L 52.07697 109.268481 
L 49.179564 107.843258 
L 46.148816 106.019605 
L 43.029276 103.740443 
L 39.887668 100.952647 
L 36.816067 97.614279 
L 33.932292 93.704084 
L 31.375604 89.232392 
L 29.296257 84.251585 
L 27.838864 78.863277 
L 27.122093 73.219086 
L 27.219657 67.512879 
L 28.148635 61.964669 
L 29.869258 56.798967 
L 32.296043 52.22209 
L 35.315605 48.402585 
L 38.804382 45.457289 
L 42.640816 43.443763 
L 46.71028 42.359005 
L 50.904871 42.144296 
L 55.122098 42.695921 
L 59.265786 43.880498 
L 63.249987 45.552366 
L 67.004282 47.56965 
L 70.47799 49.806243 
L 73.641597 52.158442 
L 76.485203 54.546672 
L 79.01488 56.913706 
L 81.248201 59.221031 
L 83.209939 61.444668 
L 86.433409 65.594819 
L 88.915295 69.331256 
L 90.861392 72.673591 
L 93.779535 78.318359 
L 96.128648 82.780976 
L 97.278117 84.617557 
L 98.482953 86.201042 
L 99.787284 87.52937 
L 101.230752 88.592758 
L 102.850278 89.373389 
L 104.680964 89.844903 
L 106.75602 89.971892 
L 109.105479 89.709673 
L 111.753148 89.0049 
L 114.710897 87.79792 
L 117.969028 86.028386 
L 121.48139 83.646314 
L 123.30358 82.217309 
L 125.144989 80.631273 
L 126.980102 78.895053 
L 128.777316 77.021457 
L 130.498917 75.030443 
L 132.101663 72.950099 
L 133.538119 70.817193 
L 134.758843 68.677015 
L 135.715383 66.582291 
L 136.363828 64.590994 
L 136.668478 62.76309 
L 136.605083 61.156419 
L 136.163086 59.822189 
L 135.346506 58.800665 
L 134.173393 58.117704 
L 132.674125 57.782679 
L 130.889005 57.78812 
L 128.865641 58.111123 
L 126.656442 58.716294 
L 124.316294 59.559733 
L 121.900351 60.593457 
L 117.049953 63.043768 
L 112.47136 65.739548 
L 108.41677 68.458466 
L 105.010077 71.081856 
L 102.269156 73.563483 
L 100.14505 75.896194 
L 98.558322 78.088569 
L 97.423872 80.152215 
L 96.664406 82.096308 
L 96.216022 83.925983 
L 96.029357 85.642386 
L 96.068654 87.243208 
L 96.310094 88.723168 
L 96.740067 90.07425 
L 97.353664 91.285644 
L 98.153469 92.343391 
L 99.148645 93.22976 
L 100.354247 93.922368 
L 101.790663 94.393062 
L 103.483058 94.6066 
L 105.460618 94.519203 
L 107.755224 94.077156 
L 110.398945 93.215822 
L 113.41923 91.859833 
L 116.829937 89.925885 
L 120.615561 87.330752 
L 124.705847 84.008644 
L 126.819767 82.066666 
L 128.940613 79.943109 
L 131.028205 77.651755 
L 133.033095 75.216352 
L 134.89723 72.672342 
L 136.555935 70.067945 
L 137.941382 67.464101 
L 138.987473 64.932808 
L 139.635645 62.553575 
L 139.840686 60.408037 
L 139.575481 58.573215 
L 138.833668 57.114323 
L 137.629739 56.07826 
L 135.996791 55.48889 
L 133.982816 55.344954 
L 131.646619 55.620958 
L 129.054188 56.270901 
L 126.27573 57.234175 
L 123.38307 58.442629 
L 120.44693 59.827605 
L 114.703049 62.883525 
L 109.473023 66.019203 
L 105.007224 69.026117 
L 101.379793 71.82918 
L 98.541955 74.426401 
L 96.384286 76.843809 
L 94.782045 79.111385 
L 93.619678 81.253582 
L 92.800496 83.287328 
L 92.248252 85.223005 
L 91.905185 87.066174 
L 91.693667 89.661964 
L 91.767286 92.054165 
L 92.077909 94.23659 
L 92.610034 96.198533 
L 93.373376 97.923878 
L 94.025304 98.931169 
L 94.807755 99.812806 
L 95.739165 100.555586 
L 96.842373 101.142112 
L 98.145043 101.549513 
L 99.680196 101.74784 
L 101.486852 101.698045 
L 103.61065 101.349484 
L 106.10422 100.636944 
L 109.02665 99.477315 
L 112.440596 97.766485 
L 116.403998 95.37796 
L 120.95076 92.1669 
L 123.437896 90.206412 
L 126.051805 87.987371 
L 128.768021 85.498563 
L 131.548293 82.736534 
L 134.337637 79.709575 
L 137.062258 76.442354 
L 139.629317 72.980646 
L 141.929717 69.39519 
L 143.844788 65.783265 
L 145.257016 62.266507 
L 146.063573 58.983836 
L 146.189915 56.079476 
L 145.599821 53.687426 
L 144.298783 51.915107 
L 142.329922 50.82943 
L 139.764548 50.448093 
L 136.691587 50.737824 
L 133.209833 51.619926 
L 129.42444 52.982202 
L 125.445859 54.695105 
L 117.36224 58.668155 
L 109.797637 62.723923 
L 103.320854 66.440982 
L 98.130223 69.717105 
L 94.143223 72.606815 
L 91.147284 75.205424 
L 88.907547 77.597514 
L 87.216679 79.843613 
L 85.908347 81.982237 
L 84.391904 85.034737 
L 80.678904 93.269428 
L 79.180978 95.701257 
L 78.004334 97.221773 
L 76.645045 98.649387 
L 75.066698 99.967228 
L 73.230335 101.149953 
L 71.094275 102.160077 
L 68.614819 102.943108 
L 65.748535 103.421315 
L 64.158032 103.513653 
L 62.457518 103.486322 
L 60.644852 103.319741 
L 58.720025 102.991586 
L 56.686059 102.476796 
L 54.550129 101.747783 
L 52.324945 100.774981 
L 50.030316 99.527833 
L 47.694814 97.976385 
L 45.357297 96.093608 
L 43.067958 93.858516 
L 40.888415 91.260036 
L 38.890335 88.301371 
L 37.15212 85.004337 
L 35.753509 81.412891 
L 34.768453 77.594907 
L 34.257251 73.641333 
L 34.259477 69.66222 
L 34.789301 65.779769 
L 35.834357 62.119227 
L 37.358303 58.798957 
L 39.306166 55.921135 
L 41.610865 53.564277 
L 44.199302 51.778359 
L 46.99701 50.582843 
L 49.931171 49.96763 
L 52.932493 49.896636 
L 55.936668 50.313463 
L 58.885868 51.148324 
L 61.730355 52.325225 
L 64.429915 53.768426 
L 66.954712 55.407464 
L 69.285329 57.180414 
L 71.411989 59.035452 
L 73.333144 60.93104 
L 75.053744 62.835182 
L 76.583447 64.724158 
L 79.122815 68.394452 
L 81.067586 71.864336 
L 82.534153 75.107299 
L 83.624633 78.123445 
L 84.422339 80.925224 
L 85.207611 84.763841 
L 85.631752 88.219236 
L 85.790727 91.34667 
L 85.738866 94.193962 
L 85.501089 96.802039 
L 85.080492 99.206064 
L 84.462416 101.436254 
L 83.615969 103.517981 
L 82.493555 105.470711 
L 81.560023 106.706654 
L 80.449671 107.890212 
L 79.132219 109.017193 
L 77.57127 110.07738 
L 75.723135 111.051657 
L 73.535417 111.907754 
L 70.945538 112.593979 
L 67.879743 113.030081 
L 66.14245 113.118343 
L 64.254195 113.094253 
L 62.204028 112.93321 
L 59.981878 112.605607 
L 57.57969 112.076157 
L 54.993123 111.303351 
L 52.223951 110.239234 
L 49.28331 108.82976 
L 46.195813 107.01615 
L 43.004336 104.737741 
L 39.774911 101.936906 
L 36.60058 98.566479 
L 33.602468 94.599739 
L 30.925961 90.042182 
L 28.73015 84.943167 
L 27.170289 79.404353 
L 26.375676 73.581412 
L 26.428428 67.676443 
L 27.349936 61.921053 
L 29.099989 56.553102 
L 31.588724 51.792067 
L 34.696291 47.817764 
L 38.292499 44.755193 
L 42.250178 42.666257 
L 46.450203 41.548162 
L 50.780645 41.338405 
L 55.134764 41.926176 
L 59.411715 43.168961 
L 63.520912 44.911487 
L 67.388092 47.003256 
L 70.960139 49.311471 
L 74.20671 51.727993 
L 77.11848 54.170868 
L 79.703064 56.582072 
L 81.980086 58.923354 
L 83.976512 61.171585 
L 87.250414 65.34732 
L 89.768392 69.085076 
L 91.74562 72.411259 
L 95.367669 79.182231 
L 97.179465 82.34086 
L 98.391902 84.107687 
L 99.670188 85.609425 
L 101.05865 86.842069 
L 102.596595 87.793508 
L 104.319849 88.443359 
L 106.261256 88.762724 
L 108.45001 88.714133 
L 110.909461 88.252104 
L 113.65278 87.325036 
L 116.675547 85.879568 
L 119.944265 83.869074 
L 123.380335 81.26835 
L 125.119577 79.75002 
L 126.841251 78.096162 
L 128.515032 76.320859 
L 130.105483 74.444733 
L 131.572763 72.495637 
L 132.873979 70.508919 
L 133.965232 68.527046 
L 134.804274 66.598416 
L 135.353535 64.775269 
L 135.583169 63.110754 
L 135.473644 61.655378 
L 135.017487 60.453214 
L 134.219908 59.538386 
L 133.098281 58.932308 
L 131.680702 58.64212 
L 130.003963 58.660548 
L 128.111312 58.967192 
L 126.050239 59.53105 
L 123.870373 60.313864 
L 121.621468 61.273785 
L 117.104543 63.559863 
L 112.829402 66.097801 
L 109.026235 68.683131 
L 105.813475 71.199963 
L 103.215889 73.596877 
L 101.197228 75.859292 
L 99.691503 77.989002 
L 98.625269 79.992329 
L 97.930381 81.874522 
L 97.54982 83.637714 
L 97.439366 85.280522 
L 97.5672 86.798213 
L 97.912651 88.18291 
L 98.464762 89.423609 
L 99.220948 90.505949 
L 100.185852 91.411711 
L 101.370383 92.118074 
L 102.790848 92.596671 
L 104.468044 92.812495 
L 106.426069 92.722774 
L 108.690487 92.276064 
L 111.285187 91.411973 
L 114.226892 90.062356 
L 117.515696 88.155413 
L 121.11962 85.625086 
L 124.951665 82.429109 
L 126.90392 80.581944 
L 128.841031 78.579139 
L 130.724354 76.437539 
L 132.507999 74.182909 
L 134.13986 71.851023 
L 135.563705 69.488063 
L 136.722378 67.150001 
L 137.561928 64.900657 
L 138.036194 62.808343 
L 138.111159 60.94122 
L 137.768272 59.361857 
L 137.006134 58.121698 
L 135.840289 57.256282 
L 134.301385 56.782007 
L 132.432297 56.694963 
L 130.284952 56.972044 
L 127.917339 57.574122 
L 125.39088 58.45077 
L 122.767995 59.545733 
L 117.472756 62.16777 
L 112.456895 65.052146 
L 108.016533 67.940484 
L 104.295462 70.702255 
L 101.31032 73.294017 
L 98.998864 75.716954 
L 97.264591 77.988326 
L 96.00631 80.12686 
L 95.133365 82.147092 
L 94.571331 84.058225 
L 94.262622 85.864743 
L 94.164886 87.567447 
L 94.248748 89.164344 
L 94.495628 90.651208 
L 94.895908 92.021812 
L 95.447527 93.267846 
L 96.154961 94.378572 
L 97.028553 95.340233 
L 98.084099 96.135217 
L 99.342642 96.740984 
L 100.830389 97.128709 
L 102.578642 97.261666 
L 104.623581 97.093351 
L 107.005568 96.565469 
L 109.767309 95.60608 
L 112.949638 94.128615 
L 116.582601 92.03329 
L 120.66814 89.21397 
L 122.866399 87.501938 
L 125.149704 85.575962 
L 127.494255 83.431996 
L 129.866216 81.072719 
L 132.220171 78.510136 
L 134.498276 75.768407 
L 136.63068 72.886518 
L 138.537751 69.920209 
L 140.134526 66.942426 
L 141.337329 64.04153 
L 142.071892 61.316743 
L 142.281582 58.870833 
L 141.933973 56.800739 
L 141.024145 55.187516 
L 139.574031 54.087328 
L 137.62837 53.525161 
L 135.248934 53.492418 
L 132.508923 53.948842 
L 129.488724 54.82843 
L 126.273012 56.048296 
L 122.948212 57.518862 
L 116.305495 60.87627 
L 110.145642 64.358224 
L 104.843535 67.665235 
L 100.532229 70.696339 
L 97.164331 73.458963 
L 94.601314 75.999259 
L 92.681034 78.366055 
L 91.253428 80.597888 
L 90.193619 82.721239 
L 89.403242 84.752796 
L 88.563381 87.648468 
L 87.826908 91.250195 
L 86.09014 101.121911 
L 85.326217 103.676667 
L 84.577146 105.474806 
L 83.621773 107.185292 
L 82.397329 108.816852 
L 81.392967 109.861845 
L 80.204828 110.869767 
L 78.798116 111.833344 
L 77.131075 112.738552 
L 75.153359 113.561131 
L 72.804095 114.261372 
L 70.009904 114.776363 
L 66.68374 115.008537 
L 64.7906 114.974685 
L 62.726969 114.809276 
L 60.48046 114.482139 
L 58.040293 113.956931 
L 55.399 113.19039 
L 52.554928 112.13185 
L 49.515696 110.723311 
L 46.302747 108.90051 
L 42.956823 106.595564 
L 39.543877 103.74191 
L 36.160186 100.28216 
L 32.934716 96.179127 
L 30.026101 91.429398 
L 27.611764 86.07738 
L 25.868298 80.226272 
L 24.945534 74.04153 
L 24.940698 67.743356 
L 25.881257 61.587756 
L 27.723164 55.839657 
L 30.365114 50.744198 
L 33.672502 46.502062 
L 37.501193 43.252122 
L 41.712994 41.062008 
L 46.180379 39.926162 
L 50.783843 39.771362 
L 55.408278 40.469848 
L 59.943457 41.858838 
L 64.289639 43.762931 
L 68.365431 46.014612 
L 72.113857 48.468857 
L 75.504193 51.010342 
L 78.529517 53.554175 
L 81.201571 56.042406 
L 83.544805 58.438651 
L 85.590965 60.722493 
L 88.931505 64.922866 
L 91.493374 68.63964 
L 94.370523 73.399913 
L 97.903996 79.530864 
L 99.182795 81.441772 
L 100.490888 83.065757 
L 101.879827 84.404698 
L 103.392503 85.451798 
L 105.06541 86.191991 
L 106.92963 86.602276 
L 109.010496 86.652254 
L 111.325734 86.305283 
L 113.881693 85.520884 
L 116.667099 84.259315 
L 119.643872 82.489499 
L 122.735144 80.201602 
L 125.812389 77.424874 
L 127.28912 75.878341 
L 128.686808 74.249239 
L 129.973156 72.561504 
L 131.113881 70.844644 
L 132.074239 69.133352 
L 132.820934 67.466559 
L 133.324267 65.885885 
L 133.560297 64.43354 
L 133.512721 63.149805 
L 133.17424 62.070354 
L 132.547191 61.223732 
L 131.643428 60.629304 
L 130.483506 60.295977 
L 129.095361 60.221853 
L 127.512709 60.394869 
L 125.773326 60.79432 
L 123.917335 61.393029 
L 121.985546 62.159856 
L 118.051864 64.068328 
L 114.255783 66.278381 
L 110.809268 68.602729 
L 107.838688 70.919745 
L 105.392824 73.162391 
L 103.464302 75.299544 
L 102.013426 77.31945 
L 100.987403 79.218527 
L 100.332928 80.995032 
L 100.003065 82.645985 
L 99.960223 84.165872 
L 100.176849 85.546168 
L 100.634957 86.775095 
L 101.325159 87.837376 
L 102.245515 88.713843 
L 103.400351 89.380903 
L 104.798998 89.809897 
L 106.454356 89.96646 
L 108.381008 89.810054 
L 110.592511 89.294016 
L 113.09723 88.36663 
L 115.891835 86.974134 
L 118.95139 85.066974 
L 122.21521 82.611136 
L 125.569105 79.606395 
L 127.225129 77.913531 
L 128.828172 76.111845 
L 130.342928 74.222754 
L 131.730113 72.274643 
L 132.947902 70.302985 
L 133.954005 68.34982 
L 134.708289 66.462451 
L 135.175694 64.691285 
L 135.329073 63.086926 
L 135.151534 61.696732 
L 134.637929 60.561255 
L 133.795267 59.71101 
L 132.642078 59.164048 
L 131.206939 58.92471 
L 129.526508 58.983719 
L 127.643372 59.31962 
L 125.60393 59.901309 
L 123.456362 60.691273 
L 121.248684 61.649057 
L 116.833085 63.910276 
L 112.670877 66.408108 
L 108.978237 68.949405 
L 105.864588 71.424458 
L 103.351115 73.783868 
L 101.401995 76.012709 
L 99.953821 78.11147 
L 98.93646 80.084992 
L 98.28501 81.937173 
L 97.945291 83.668977 
L 97.87545 85.277982 
L 98.045604 86.758461 
L 98.436672 88.101496 
L 99.039013 89.29493 
L 99.851129 90.323061 
L 100.878543 91.166105 
L 102.132806 91.799419 
L 103.630543 92.192555 
L 105.392379 92.308223 
L 107.441458 92.101324 
L 109.801099 91.518355 
L 112.490839 90.497751 
L 115.519663 88.972165 
L 118.874747 86.874381 
L 122.503941 84.149477 
L 126.291562 80.776488 
L 128.184546 78.857686 
L 130.031615 76.801764 
L 131.790166 74.631943 
L 133.411553 72.380706 
L 134.842853 70.090288 
L 136.029639 67.812282 
L 136.919661 65.606088 
L 137.46705 63.536049 
L 137.636466 61.667378 
L 137.406475 60.061225 
L 136.771543 58.769495 
L 135.742326 57.830181 
L 134.344373 57.263936 
L 132.615684 57.072468 
L 130.603787 57.238995 
L 128.362842 57.730695 
L 125.951018 58.502733 
L 123.428093 59.503195 
L 120.853102 60.67816 
L 115.764982 63.351533 
L 111.056538 66.191104 
L 106.962599 68.991484 
L 103.578178 71.656402 
L 100.892136 74.158232 
L 98.833007 76.502158 
L 97.306697 78.703862 
L 96.219816 80.778694 
L 95.490996 82.737769 
L 95.054674 84.587378 
L 94.861014 86.329625 
L 94.874229 87.963279 
L 95.070505 89.484428 
L 95.436065 90.886825 
L 95.965581 92.161912 
L 96.660968 93.298547 
L 97.530522 94.282475 
L 98.588344 95.095528 
L 99.853967 95.714595 
L 101.352103 96.110317 
L 103.112391 96.245551 
L 105.168931 96.073638 
L 107.559253 95.536625 
L 110.322029 94.563814 
L 113.492222 93.071417 
L 117.091428 90.964962 
L 121.109987 88.147519 
L 123.257868 86.445619 
L 125.477001 84.538975 
L 127.741852 82.426306 
L 130.017296 80.113309 
L 132.257453 77.615048 
L 134.405278 74.958428 
L 136.393413 72.18437 
L 138.146733 69.349153 
L 139.586833 66.524254 
L 140.638296 63.794096 
L 141.235982 61.251355 
L 141.332094 58.989967 
L 140.901489 57.096595 
L 139.944023 55.641806 
L 138.483522 54.67248 
L 136.564021 54.206812 
L 134.244712 54.232829 
L 131.595084 54.710673 
L 128.691127 55.578273 
L 125.612506 56.759382 
L 122.439926 58.172551 
L 116.121257 61.391426 
L 110.269861 64.743225 
L 105.225624 67.951261 
L 101.110853 70.915553 
L 97.885592 73.635136 
L 95.426184 76.146713 
L 93.585502 78.491774 
L 92.225783 80.703984 
L 91.231423 82.806833 
L 90.510948 84.815218 
L 89.795612 87.668772 
L 89.376962 90.343575 
L 89.105001 93.642021 
L 89.039264 97.345476 
L 89.210657 101.19708 
L 89.531884 103.935986 
L 89.928223 105.829583 
L 90.49133 107.458963 
L 91.060122 108.500991 
L 91.794483 109.376336 
L 92.74241 110.064785 
L 93.523075 110.404487 
L 94.448825 110.633163 
L 95.546915 110.732364 
L 96.849971 110.677603 
L 98.397255 110.436449 
L 100.236317 109.965966 
L 102.425143 109.209271 
L 105.034751 108.090913 
L 108.151817 106.510773 
L 111.87976 104.336393 
L 116.334063 101.394648 
L 121.622194 97.466754 
L 124.598187 95.053977 
L 127.789705 92.298534 
L 131.174158 89.171706 
L 134.706742 85.653751 
L 138.313418 81.74136 
L 141.884877 77.457282 
L 145.273937 72.86118 
L 148.299563 68.059467 
L 150.760455 63.210484 
L 152.458993 58.520761 
L 153.231996 54.229258 
L 152.97975 50.579884 
L 151.682218 47.787066 
L 149.394901 46.002314 
L 146.226281 45.289644 
L 142.308949 45.614925 
L 137.780056 46.851085 
L 132.779486 48.798949 
L 127.460381 51.220931 
L 111.376175 59.166479 
L 94.916777 67.415043 
L 89.537774 70.388581 
L 85.645048 72.887923 
L 82.82602 75.093637 
L 80.738751 77.12127 
L 79.126167 79.036247 
L 77.203579 81.761844 
L 74.37575 85.945634 
L 73.161521 87.465299 
L 71.824375 88.869373 
L 70.326805 90.131834 
L 68.637942 91.219813 
L 66.73339 92.091854 
L 64.596573 92.695978 
L 62.221843 92.968055 
L 60.94772 92.956042 
L 59.619701 92.831287 
L 58.242877 92.58253 
L 56.824432 92.198194 
L 55.373992 91.666732 
L 53.903966 90.977104 
L 52.429847 90.119399 
L 50.970426 89.085611 
L 49.547841 87.870562 
L 48.187413 86.472934 
L 46.917179 84.896348 
L 45.767076 83.150411 
L 44.767746 81.251572 
L 43.949015 79.223676 
L 43.338125 77.098042 
L 42.9579 74.912952 
L 42.825061 72.712497 
L 42.948919 70.544798 
L 43.330608 68.459714 
L 43.962987 66.506244 
L 44.831172 64.729868 
L 45.913593 63.170098 
L 47.183399 61.858471 
L 48.610009 60.817166 
L 50.160648 60.058348 
L 51.801749 59.584239 
L 53.500186 59.387881 
L 55.22431 59.454429 
L 56.944801 59.762835 
L 58.635343 60.287696 
L 60.273105 61.001103 
L 61.839028 61.874312 
L 63.317918 62.879138 
L 64.698343 63.989016 
L 65.972371 65.179713 
L 68.184623 67.720434 
L 69.945011 70.363331 
L 71.270856 73.011926 
L 72.19299 75.6027 
L 72.745891 78.095618 
L 72.961491 80.46591 
L 72.865901 82.697688 
L 72.478132 84.77918 
L 71.810057 86.699138 
L 70.867131 88.443948 
L 69.649611 89.995091 
L 68.154232 91.326712 
L 66.37644 92.403163 
L 64.313494 93.176603 
L 63.175776 93.430892 
L 61.968875 93.584969 
L 60.695237 93.628702 
L 59.358627 93.551077 
L 57.964474 93.340341 
L 56.520258 92.984233 
L 55.03593 92.470335 
L 53.52434 91.78657 
L 52.001631 90.921868 
L 50.487551 89.867004 
L 49.005601 88.615623 
L 47.582946 87.165401 
L 46.249974 85.519302 
L 45.039457 83.686792 
L 43.985249 81.684903 
L 43.120575 79.538929 
L 42.476 77.282615 
L 42.077294 74.957646 
L 41.943454 72.612392 
L 42.085151 70.299896 
L 42.503841 68.075263 
L 43.191662 65.992671 
L 44.132081 64.102317 
L 45.301167 62.447604 
L 46.669236 61.06286 
L 48.202647 59.971794 
L 49.865528 59.186794 
L 51.62134 58.709084 
L 53.434206 58.529666 
L 55.270029 58.630883 
L 57.097402 58.98839 
L 58.888329 59.573311 
L 60.618735 60.354352 
L 62.268768 61.29968 
L 63.82287 62.378465 
L 65.269632 63.562 
L 66.601472 64.824428 
L 67.814174 66.143109 
L 69.87886 68.87501 
L 71.476417 71.639288 
L 71.476417 71.639288 
" clip-path="url(#p21f50fa574)" style="fill: none; stroke: #1f77b4; stroke-width: 1.5; stroke-linecap: round"/>
   </g>
   <g id="line2d_25">
    <path d="M 122.095195 104.38179 
L 123.934268 101.428905 
L 128.396658 95.179169 
L 133.567989 88.228431 
L 136.265054 84.440667 
L 138.932122 80.452244 
L 141.475086 76.297833 
L 143.787904 72.039794 
L 145.755725 67.770015 
L 147.260608 63.6087 
L 148.189906 59.69886 
L 148.446792 56.195743 
L 147.961697 53.251477 
L 146.702707 50.996656 
L 144.682611 49.522081 
L 141.960569 48.864742 
L 138.637401 49.001717 
L 134.845009 49.853887 
L 130.732011 51.298683 
L 126.4485 53.18863 
L 122.132791 55.371194 
L 117.902087 57.705775 
L 110.034423 62.391394 
L 100.348276 68.550971 
L 93.299352 73.349022 
L 89.83413 75.958709 
L 87.135624 78.260829 
L 85.022478 80.365764 
L 83.335599 82.347083 
L 81.318011 85.173199 
L 77.351012 91.232724 
L 76.099643 92.794116 
L 74.699309 94.251011 
L 73.105145 95.579769 
L 71.275004 96.749319 
L 69.169723 97.718043 
L 66.755066 98.429865 
L 64.005967 98.809834 
L 62.502405 98.845746 
L 60.913864 98.759998 
L 59.243692 98.536383 
L 57.497902 98.15722 
L 55.685751 97.603628 
L 53.82035 96.855994 
L 51.919277 95.894699 
L 50.005128 94.701135 
L 48.105937 93.259078 
L 46.255356 91.556399 
L 44.492478 89.587104 
L 42.861179 87.353575 
L 41.408855 84.868847 
L 40.184494 82.158618 
L 39.236087 79.262639 
L 38.607488 76.235071 
L 38.335005 73.143466 
L 38.444063 70.066125 
L 38.946436 67.08787 
L 39.838476 64.294535 
L 41.100692 61.766816 
L 42.698831 59.574289 
L 44.586336 57.770461 
L 46.70784 56.389545 
L 49.003196 55.445329 
L 51.411495 54.932135 
L 53.874585 54.827488 
L 56.339811 55.095926 
L 58.761796 55.693269 
L 61.103334 56.570785 
L 63.335498 57.678802 
L 65.437187 58.969534 
L 67.394305 60.39905 
L 69.198739 61.92845 
L 70.847297 63.524374 
L 72.34067 65.159014 
L 73.682506 66.809786 
L 75.936181 70.092268 
L 77.668903 73.273879 
L 78.949309 76.302501 
L 79.84402 79.155642 
L 80.412009 81.828645 
L 80.701892 84.326775 
L 80.751022 86.660173 
L 80.585614 88.840696 
L 80.22136 90.879929 
L 79.664217 92.787845 
L 78.911167 94.571766 
L 77.950864 96.235337 
L 76.764184 97.777293 
L 75.324763 99.189779 
L 73.599718 100.455985 
L 71.550896 101.546822 
L 69.13718 102.416393 
L 66.318694 102.996114 
L 64.747249 103.147936 
L 63.064106 103.187728 
L 61.268642 103.097406 
L 59.362603 102.856261 
L 57.350855 102.440957 
L 55.242244 101.825711 
L 53.050571 100.982745 
L 50.795622 99.883097 
L 48.504192 98.497917 
L 46.21098 96.80033 
L 43.959192 94.767953 
L 41.800644 92.386062 
L 39.795107 89.65129 
L 38.008666 86.57558 
L 36.51088 83.189903 
L 35.370723 79.547063 
L 34.651448 75.722778 
L 34.404857 71.814267 
L 34.665693 67.935848 
L 35.447066 64.211545 
L 36.737828 60.765394 
L 38.502505 57.710762 
L 40.683981 55.140419 
L 43.208512 53.119017 
L 45.992247 51.679193 
L 48.948143 50.82167 
L 51.992256 50.518928 
L 55.048664 50.721379 
L 58.052673 51.364701 
L 60.952321 52.377121 
L 63.70847 53.685689 
L 66.293884 55.221073 
L 68.691708 56.920744 
L 70.893693 58.730683 
L 72.898408 60.605931 
L 74.709593 62.510303 
L 76.334736 64.415585 
L 79.06874 68.149446 
L 81.196038 71.69992 
L 82.818478 75.019613 
L 84.03222 78.096636 
L 84.92191 80.938246 
L 85.558559 83.560915 
L 86.161164 87.128378 
L 86.4634 90.316362 
L 86.552912 94.081101 
L 86.385929 97.397621 
L 85.998123 100.357743 
L 85.549868 102.38784 
L 84.93544 104.283479 
L 84.107694 106.066394 
L 82.998396 107.754336 
L 82.056871 108.832802 
L 80.912437 109.874779 
L 79.520831 110.876775 
L 77.828551 111.828824 
L 75.771791 112.710581 
L 73.276045 113.485304 
L 70.257258 114.090793 
L 66.626196 114.426203 
L 64.554139 114.446192 
L 62.29889 114.333941 
L 59.854214 114.057193 
L 57.217717 113.577283 
L 54.392551 112.84862 
L 51.389548 111.818533 
L 48.229779 110.427766 
L 44.947472 108.611989 
L 41.593095 106.304769 
L 38.236237 103.442496 
L 34.967672 99.971669 
L 31.899771 95.858659 
L 29.164183 91.101528 
L 26.905767 85.74255 
L 25.27212 79.879037 
L 24.398904 73.669085 
L 24.392588 67.328634 
L 25.313611 61.117331 
L 27.163973 55.313301 
L 29.882907 50.180542 
L 33.352514 45.935752 
L 37.412484 42.722431 
L 41.880364 40.598171 
L 46.572612 39.537051 
L 51.322123 39.444637 
L 55.989688 40.180273 
L 60.468984 41.580741 
L 64.686228 43.480708 
L 68.596375 45.727521 
L 72.177681 48.189891 
L 75.426022 50.761375 
L 78.349771 53.360093 
L 80.965606 55.926188 
L 83.295299 58.418217 
L 87.195449 63.08373 
L 90.253415 67.256815 
L 92.662945 70.931369 
L 95.429981 75.586238 
L 98.875696 81.420771 
L 100.133411 83.179855 
L 101.432025 84.639274 
L 102.827938 85.80405 
L 104.368677 86.669018 
L 106.094277 87.21898 
L 108.03744 87.429025 
L 110.222185 87.26535 
L 112.660682 86.687127 
L 115.347978 85.650262 
L 118.254486 84.114147 
L 121.316608 82.052627 
L 124.426813 79.469972 
L 125.95236 77.997821 
L 127.426127 76.421152 
L 128.820145 74.758207 
L 130.103893 73.032681 
L 131.245133 71.273782 
L 132.211063 69.515871 
L 132.969798 67.797605 
L 133.492092 66.16052 
L 133.753208 64.647082 
L 133.73477 63.298304 
L 133.426393 62.151128 
L 132.826891 61.235864 
L 131.94488 60.573987 
L 130.798643 60.176619 
L 129.415254 60.043918 
L 127.829007 60.165464 
L 126.079363 60.521598 
L 124.208614 61.085491 
L 122.259555 61.825643 
L 118.287941 63.70068 
L 114.447428 65.892409 
L 110.940627 68.198842 
L 107.886395 70.487861 
L 105.333936 72.689356 
L 103.283365 74.776146 
L 101.705301 76.744671 
L 100.556258 78.6006 
L 99.789311 80.350152 
L 99.360772 81.995897 
L 99.233923 83.53532 
L 99.38078 84.960761 
L 99.782603 86.259788 
L 100.429666 87.415495 
L 101.320582 88.406473 
L 102.461313 89.206412 
L 103.86386 89.783362 
L 105.544494 90.098797 
L 107.521244 90.106739 
L 109.810232 89.753344 
L 112.420306 88.977681 
L 115.345371 87.714777 
L 118.553941 85.902503 
L 121.97598 83.494197 
L 123.731022 82.060935 
L 125.488351 80.478636 
L 127.222231 78.755911 
L 128.902476 76.907215 
L 130.494694 74.953714 
L 131.960894 72.923901 
L 133.260539 70.853801 
L 134.352079 68.78658 
L 135.194959 66.771416 
L 135.752018 64.861525 
L 135.992121 63.111366 
L 135.892757 61.573186 
L 135.442317 60.293224 
L 134.641694 59.308032 
L 133.504953 58.641433 
L 132.058885 58.302613 
L 130.341447 58.285658 
L 128.399261 58.570645 
L 126.284481 59.12609 
L 124.051436 59.912353 
L 121.753447 60.885443 
L 117.155488 63.215901 
L 112.812959 65.80206 
L 108.934758 68.41858 
L 105.623979 70.938207 
L 102.903883 73.309675 
L 100.746971 75.527447 
L 99.099139 77.606473 
L 97.896757 79.56601 
L 97.077393 81.421457 
L 96.585824 83.181482 
L 96.376915 84.847964 
L 96.416585 86.417036 
L 96.681698 87.88024 
L 97.15944 89.225347 
L 97.846499 90.436638 
L 98.748211 91.494668 
L 99.877726 92.375516 
L 101.255114 93.049591 
L 102.906259 93.480086 
L 104.861224 93.621191 
L 107.151646 93.416355 
L 109.806498 92.797113 
L 112.845323 91.683448 
L 116.26791 89.987377 
L 118.114099 88.893398 
L 120.039474 87.622307 
L 122.031081 86.166519 
L 124.071182 84.521504 
L 126.136567 82.687062 
L 128.197965 80.668788 
L 130.219684 78.479647 
L 132.159589 76.141521 
L 133.969585 73.686541 
L 135.596737 71.157928 
L 136.985158 68.610026 
L 138.078713 66.107219 
L 138.824472 63.721465 
L 139.176707 61.528367 
L 139.101038 59.601938 
L 138.578216 58.008545 
L 137.606941 56.800812 
L 136.205172 56.012448 
L 134.409584 55.654932 
L 132.27312 55.716739 
L 129.860956 56.165279 
L 127.245445 56.951197 
L 124.500809 58.01422 
L 121.698279 59.289502 
L 116.167589 62.228394 
L 111.048413 65.346099 
L 106.568144 68.374448 
L 102.81228 71.190828 
L 99.769661 73.771654 
L 97.37483 76.143566 
L 95.539012 78.348794 
L 94.169576 80.426402 
L 93.180773 82.405038 
L 92.498779 84.302137 
L 92.063311 86.125947 
L 91.827384 87.878249 
L 91.774378 90.366952 
L 92.020408 92.672654 
L 92.535187 94.773479 
L 93.029177 96.047525 
L 93.654111 97.209681 
L 94.425583 98.248459 
L 95.365231 99.149175 
L 96.500973 99.892578 
L 97.867322 100.453086 
L 99.505637 100.796524 
L 101.46403 100.877305 
L 103.796482 100.635043 
L 106.560425 99.990809 
L 109.81162 98.843705 
L 113.59458 97.069309 
L 115.692454 95.90223 
L 117.926171 94.523131 
L 120.289291 92.913081 
L 122.769813 91.054585 
L 125.348786 88.933193 
L 127.998819 86.539618 
L 130.682629 83.872381 
L 133.351794 80.940932 
L 135.945982 77.769067 
L 138.392991 74.398281 
L 140.60999 70.89051 
L 142.506348 67.329486 
L 143.988316 63.819819 
L 144.965607 60.482953 
L 145.359488 57.449507 
L 145.111551 54.848167 
L 144.191818 52.792262 
L 142.604612 51.366137 
L 140.39071 50.61406 
L 137.624961 50.534277 
L 134.409469 51.079823 
L 130.863507 52.166061 
L 127.112083 53.68318 
L 123.275171 55.510809 
L 119.459268 57.531729 
L 112.220478 61.75942 
L 105.851217 65.788665 
L 100.522841 69.365186 
L 96.216987 72.460572 
L 92.816064 75.1556 
L 90.165122 77.558697 
L 88.106618 79.76505 
L 86.496923 81.843308 
L 85.212345 83.836301 
L 83.674381 86.712149 
L 80.154728 93.783331 
L 79.124016 95.389966 
L 77.947576 96.915514 
L 76.584541 98.347214 
L 74.992525 99.667149 
L 73.126986 100.849344 
L 70.941604 101.855802 
L 68.390219 102.631289 
L 65.431201 103.096829 
L 63.788939 103.180381 
L 62.035502 103.142328 
L 60.171414 102.962921 
L 58.200026 102.619794 
L 56.128326 102.088061 
L 53.967868 101.340638 
L 51.735776 100.348895 
L 49.455782 99.083739 
L 47.159178 97.517229 
L 44.885564 95.624815 
L 42.683177 93.388241 
L 40.608573 90.799041 
L 38.72542 87.862425 
L 37.10216 84.601156 
L 35.808452 81.058811 
L 34.910445 77.301657 
L 34.465228 73.418344 
L 34.51508 69.516756 
L 35.08237 65.717819 
L 36.166048 62.146634 
L 37.740472 58.922036 
L 39.756987 56.146161 
L 42.148048 53.895777 
L 44.833236 52.216817 
L 47.726127 51.122844 
L 50.74094 50.597357 
L 53.798074 50.599069 
L 56.828029 51.068919 
L 59.773588 51.937485 
L 62.590439 53.131749 
L 65.24663 54.580522 
L 67.721245 56.21828 
L 70.00271 57.987446 
L 72.086979 59.839381 
L 73.975832 61.734397 
L 75.675349 63.64114 
L 77.194633 65.53561 
L 79.738011 69.221787 
L 81.704969 72.706095 
L 83.196444 75.95369 
L 84.305489 78.959615 
L 85.112735 81.734582 
L 85.900274 85.503921 
L 86.326696 88.862595 
L 86.506146 91.875633 
L 86.477932 95.451064 
L 86.212429 98.618149 
L 85.71844 101.460049 
L 85.171648 103.418329 
L 84.43114 105.25442 
L 83.437517 106.987895 
L 82.594321 108.093888 
L 81.569861 109.162836 
L 80.324687 110.193741 
L 78.810846 111.180664 
L 76.970692 112.109711 
L 74.736044 112.954335 
L 72.028329 113.668154 
L 68.76088 114.17429 
L 66.889431 114.313487 
L 64.845484 114.350209 
L 62.620102 114.258707 
L 60.206708 114.007665 
L 57.602356 113.559494 
L 54.80937 112.869775 
L 51.837408 111.887057 
L 48.705942 110.553247 
L 45.447116 108.804951 
L 42.108799 106.576205 
L 38.757493 103.803076 
L 35.480534 100.430558 
L 32.386776 96.421925 
L 29.604721 91.770223 
L 27.277074 86.510698 
L 25.550966 80.73194 
L 24.563941 74.582498 
L 24.427056 68.269369 
L 25.2079 62.045639 
L 26.917417 56.186919 
L 29.50427 50.959735 
L 32.85897 46.588243 
L 36.827287 43.227058 
L 41.229816 40.946482 
L 45.883025 39.732682 
L 50.617373 39.500955 
L 55.289678 40.117102 
L 59.789008 41.421003 
L 64.037064 43.247597 
L 67.984821 45.442489 
L 71.607305 47.871483 
L 74.897924 50.424767 
L 77.863274 53.017132 
L 80.518821 55.585725 
L 82.88556 58.086584 
L 86.850216 62.781166 
L 89.959153 66.990181 
L 92.406677 70.701923 
L 95.209333 75.410131 
L 98.669938 81.325176 
L 99.921831 83.115044 
L 101.209409 84.605597 
L 102.589881 85.802709 
L 104.111529 86.702079 
L 105.815208 87.289347 
L 107.734645 87.54035 
L 109.895264 87.421814 
L 112.311229 86.893022 
L 114.980385 85.909254 
L 117.87693 84.428108 
L 120.942079 82.419941 
L 124.073901 79.883371 
L 127.119061 76.865431 
L 128.546524 75.209262 
L 129.871156 73.483096 
L 131.060692 71.71502 
L 132.081953 69.938505 
L 132.902259 68.191669 
L 133.491128 66.51599 
L 133.822155 64.954455 
L 133.874917 63.549228 
L 133.636715 62.339023 
L 133.103928 61.356445 
L 132.282798 60.625624 
L 131.189485 60.160469 
L 129.84936 59.963798 
L 128.295562 60.027489 
L 126.567005 60.333626 
L 124.706046 60.856455 
L 122.756088 61.564867 
L 118.755086 63.402937 
L 114.858038 65.586552 
L 111.279448 67.903653 
L 108.148088 70.212916 
L 105.520037 72.437806 
L 103.399346 74.547673 
L 101.758288 76.537721 
L 100.553497 78.413722 
L 99.737241 80.182638 
L 99.264551 81.847969 
L 99.097241 83.408121 
L 99.205845 84.85627 
L 99.570233 86.180766 
L 100.179438 87.365469 
L 101.031019 88.389798 
L 102.13012 89.228368 
L 103.488233 89.850284 
L 105.121541 90.218198 
L 107.04859 90.287344 
L 109.286889 90.004954 
L 111.847902 89.310679 
L 114.729822 88.139049 
L 117.907575 86.425477 
L 121.319946 84.117689 
L 123.081466 82.732436 
L 124.85482 81.194438 
L 126.615795 79.510232 
L 128.335639 77.691898 
L 129.981172 75.758011 
L 131.515239 73.734397 
L 132.897593 71.65454 
L 134.086258 69.559452 
L 135.039389 67.496838 
L 135.717577 65.519435 
L 136.086473 63.68247 
L 136.119489 62.040367 
L 135.8003 60.642942 
L 135.124782 59.531531 
L 134.1021 58.735559 
L 132.754693 58.27009 
L 131.117101 58.134763 
L 129.233741 58.314326 
L 127.155894 58.780658 
L 124.938309 59.495965 
L 122.63584 60.416589 
L 117.979077 62.692702 
L 113.531345 65.276301 
L 109.524748 67.920502 
L 106.080403 70.480212 
L 103.233112 72.892975 
L 100.961308 75.14809 
L 99.212825 77.25938 
L 97.923479 79.247083 
L 97.028918 81.12835 
L 96.471375 82.913655 
L 96.202989 84.606442 
L 96.187008 86.204134 
L 96.397795 87.699378 
L 96.820236 89.08098 
L 97.448927 90.334342 
L 98.287312 91.441337 
L 99.346868 92.379681 
L 100.646274 93.121833 
L 102.210437 93.633509 
L 104.069125 93.871898 
L 106.254779 93.783803 
L 108.798936 93.304108 
L 111.726408 92.355388 
L 115.046199 90.850081 
L 118.738078 88.69753 
L 120.704817 87.352861 
L 122.734246 85.819118 
L 124.806787 84.092747 
L 126.897064 82.175041 
L 128.973352 80.073696 
L 130.997288 77.804445 
L 132.923986 75.392617 
L 134.702707 72.874397 
L 136.278242 70.297477 
L 137.593109 67.720782 
L 138.590594 65.212932 
L 139.218512 62.84922 
L 139.433434 60.707096 
L 139.204905 58.860412 
L 138.519089 57.373047 
L 137.381219 56.292805 
L 135.816331 55.646607 
L 133.868027 55.437906 
L 131.595328 55.646856 
L 129.068057 56.233245 
L 126.361444 57.141632 
L 123.550729 58.307708 
L 120.706475 59.664785 
L 115.156437 62.705694 
L 110.081867 65.859381 
L 105.683196 68.883031 
L 102.02381 71.676214 
L 99.077464 74.229835 
L 96.769875 76.577796 
L 95.007959 78.764716 
L 93.697644 80.829476 
L 92.753368 82.79956 
L 92.102279 84.691147 
L 91.685339 86.511534 
L 91.456755 88.261959 
L 91.395847 90.750511 
L 91.612893 93.060111 
L 92.077781 95.170995 
L 92.794598 97.060276 
L 93.428043 98.182873 
L 94.20514 99.183361 
L 95.148893 100.047367 
L 96.288496 100.75581 
L 97.659775 101.283106 
L 99.305546 101.594844 
L 101.275641 101.644867 
L 103.626131 101.371734 
L 106.417005 100.694738 
L 109.707073 99.510152 
L 113.544268 97.689287 
L 115.676099 96.493788 
L 117.948834 95.081602 
L 120.35629 93.432758 
L 122.886557 91.528646 
L 125.520526 89.353694 
L 128.230307 86.897583 
L 130.977663 84.158039 
L 133.712654 81.144148 
L 136.372771 77.880013 
L 138.882915 74.408372 
L 141.156659 70.793593 
L 143.099203 67.123197 
L 144.612335 63.506945 
L 145.601436 60.07255 
L 145.984144 56.957458 
L 145.699739 54.296876 
L 144.717805 52.209302 
L 143.044428 50.781878 
L 140.724341 50.058607 
L 137.838112 50.034258 
L 134.494581 50.655701 
L 130.819868 51.830478 
L 126.945069 53.440611 
L 122.99488 55.358413 
L 119.078863 57.461042 
L 111.683715 61.814461 
L 105.212434 65.916163 
L 99.823314 69.52271 
L 95.483273 72.621255 
L 92.062443 75.305493 
L 89.396912 77.692166 
L 87.322976 79.880854 
L 85.692837 81.942004 
L 84.379912 83.918759 
L 82.780053 86.77076 
L 79.971827 92.104801 
L 78.382775 94.549418 
L 77.149976 96.073781 
L 75.728943 97.496426 
L 74.076837 98.796261 
L 72.149855 99.943501 
L 69.90394 100.895635 
L 67.297262 101.592268 
L 65.847362 101.819506 
L 64.295341 101.948974 
L 62.639506 101.965303 
L 60.880023 101.850885 
L 59.019506 101.585805 
L 57.063711 101.147908 
L 55.022333 100.513045 
L 52.909871 99.655588 
L 50.746532 98.549291 
L 48.55909 97.168589 
L 46.381592 95.490411 
L 44.255752 93.496552 
L 42.230858 91.176575 
L 40.362969 88.531101 
L 38.713209 85.575218 
L 37.345034 82.341543 
L 36.320462 78.882358 
L 35.695466 75.270122 
L 35.514952 71.59577 
L 35.807981 67.964456 
L 36.58399 64.488808 
L 37.830746 61.280377 
L 39.514514 58.440413 
L 41.582552 56.051407 
L 43.967541 54.170776 
L 46.593268 52.827631 
L 49.380617 52.022925 
L 52.253051 51.732612 
L 55.140936 51.912926 
L 57.984433 52.506691 
L 60.734926 53.44963 
L 63.35523 54.675876 
L 65.818903 56.122269 
L 68.108987 57.731279 
L 70.216494 59.452671 
L 72.138844 61.244142 
L 73.878395 63.071198 
L 75.441156 64.906551 
L 78.072223 68.5237 
L 80.116473 71.986718 
L 81.666041 75.244166 
L 82.808958 78.279562 
L 83.623092 81.096037 
L 84.173671 83.706732 
L 84.512924 86.129137 
L 84.710062 89.450437 
L 84.609598 92.449961 
L 84.257009 95.180168 
L 83.661331 97.684526 
L 82.800484 99.997391 
L 82.055168 101.445537 
L 81.147264 102.824211 
L 80.047801 104.13474 
L 78.720811 105.374074 
L 77.122711 106.532758 
L 75.201891 107.591802 
L 72.898909 108.517964 
L 70.148024 109.256886 
L 66.881285 109.723473 
L 65.034627 109.816589 
L 63.037205 109.789257 
L 60.884995 109.616198 
L 58.577009 109.267592 
L 56.116495 108.708802 
L 53.51241 107.900361 
L 50.781154 106.798388 
L 47.948509 105.355655 
L 45.051676 103.523558 
L 42.141192 101.255267 
L 39.282366 98.510288 
L 36.555788 95.260533 
L 34.056284 91.497701 
L 31.889742 87.241347 
L 30.167295 82.546445 
L 28.996819 77.508707 
L 28.472254 72.265589 
L 28.662124 66.991162 
L 29.599282 61.88401 
L 31.274193 57.148995 
L 33.633633 52.97565 
L 36.585502 49.517378 
L 40.008941 46.875785 
L 43.76763 45.093251 
L 47.72351 44.154595 
L 51.748493 43.996397 
L 55.732626 44.520995 
L 59.588295 45.611786 
L 63.25098 47.147055 
L 66.677527 49.010663 
L 69.843027 51.099025 
L 72.737163 53.324691 
L 75.360667 55.617236 
L 77.722192 57.922358 
L 79.835757 60.199932 
L 81.718747 62.42164 
L 84.870813 66.629072 
L 87.337417 70.469348 
L 89.270748 73.931396 
L 91.462362 78.460304 
L 95.497043 87.337902 
L 96.475542 88.949964 
L 97.545567 90.339101 
L 98.749983 91.502207 
L 100.130028 92.427713 
L 101.726598 93.09463 
L 103.580715 93.471331 
L 105.732884 93.514195 
L 108.220871 93.16643 
L 111.075188 92.35779 
L 114.311386 91.006419 
L 117.91813 89.024916 
L 119.845524 87.772098 
L 121.840391 86.333612 
L 123.88555 84.704638 
L 125.958355 82.884555 
L 128.030094 80.878405 
L 130.065592 78.698476 
L 132.023154 76.36588 
L 133.854994 73.911932 
L 135.508293 71.379065 
L 136.927028 68.820962 
L 138.054619 66.301585 
L 138.837352 63.89283 
L 139.228366 61.670699 
L 139.191855 59.71012 
L 138.706941 58.078885 
L 137.770629 56.831452 
L 136.399289 56.003598 
L 134.628278 55.608875 
L 132.509632 55.637587 
L 130.108103 56.058523 
L 127.496122 56.823128 
L 124.748429 57.871321 
L 121.937106 59.137899 
L 119.127584 60.55852 
L 113.727425 63.635792 
L 108.866688 66.746575 
L 104.702713 69.693332 
L 101.270333 72.405792 
L 98.528049 74.889494 
L 96.395808 77.1822 
L 94.780549 79.326737 
L 93.591286 81.35817 
L 92.746888 83.300103 
L 92.179288 85.165586 
L 91.834064 86.959684 
L 91.669657 88.682155 
L 91.69908 91.123612 
L 92.009234 93.377888 
L 92.580137 95.422748 
L 93.111237 96.656769 
L 93.775564 97.776365 
L 94.590752 98.769438 
L 95.580472 99.620332 
L 96.774733 100.308358 
L 98.210238 100.805895 
L 99.930611 101.075966 
L 101.986176 101.069234 
L 104.432792 100.720431 
L 107.32888 99.94454 
L 110.729321 98.633549 
L 114.674276 96.655724 
L 116.855048 95.370227 
L 119.170394 93.861106 
L 121.611159 92.1097 
L 124.161847 90.099562 
L 126.799145 87.818354 
L 129.490405 85.260277 
L 132.19224 82.429034 
L 134.84946 79.3412 
L 137.394659 76.029736 
L 139.748832 72.547181 
L 141.823431 68.967829 
L 143.524211 65.388025 
L 144.75703 61.923658 
L 145.435447 58.704121 
L 145.489491 55.862543 
L 144.874435 53.522975 
L 143.578062 51.786239 
L 141.624769 50.717025 
L 139.075323 50.335109 
L 136.021873 50.612922 
L 132.578966 51.480259 
L 128.872225 52.835088 
L 125.026811 54.557929 
L 121.157587 56.526632 
L 113.717809 60.770255 
L 107.084805 64.905381 
L 101.486222 68.60954 
L 96.935225 71.816541 
L 93.327134 74.594395 
L 90.508957 77.052792 
L 88.319746 79.293566 
L 86.610395 81.392602 
L 85.251372 83.398584 
L 83.637417 86.287669 
L 80.033984 93.391406 
L 78.996507 95.006425 
L 77.816525 96.539768 
L 76.45276 97.978231 
L 74.862793 99.303491 
L 73.002403 100.489247 
L 70.825938 101.497325 
L 68.288254 102.272569 
L 65.349067 102.736507 
L 63.719514 102.81909 
L 61.980931 102.780258 
L 60.13405 102.600586 
L 58.182406 102.258131 
L 56.133132 101.728538 
L 53.997852 100.985381 
L 51.793659 100.00081 
L 49.544098 98.746631 
L 47.280085 97.195891 
L 45.040595 95.325069 
L 42.872955 93.116889 
L 40.832503 90.5637 
L 38.981378 87.671207 
L 37.386244 84.462176 
L 36.11483 80.979527 
L 35.23137 77.288084 
L 34.791269 73.474231 
L 34.835581 69.642855 
L 35.38612 65.911391 
L 36.442084 62.401323 
L 37.978917 59.228185 
L 39.949769 56.491549 
L 42.289414 54.266682 
L 44.919977 52.599208 
L 47.757518 51.503526 
L 50.718436 50.964881 
L 53.724847 50.944326 
L 56.708448 51.385382 
L 59.6127 52.221148 
L 62.393537 53.380842 
L 65.018905 54.795102 
L 67.467548 56.399778 
L 69.727396 58.138234 
L 71.793835 59.962394 
L 73.668051 61.832837 
L 75.355544 63.718249 
L 76.86487 65.594523 
L 79.392586 69.252833 
L 81.346804 72.718855 
L 82.825812 75.955631 
L 83.920606 78.956423 
L 84.710186 81.730582 
L 85.260037 84.295045 
L 85.746299 87.791746 
L 85.935277 90.926818 
L 85.90561 93.75918 
L 85.69848 96.338627 
L 85.32621 98.706382 
L 84.777577 100.896472 
L 84.019971 102.936913 
L 82.998666 104.849963 
L 82.132901 106.062359 
L 81.083776 107.226814 
L 79.813058 108.341654 
L 78.274402 109.399819 
L 76.41241 110.38583 
L 74.162132 111.271113 
L 71.449659 112.006976 
L 68.194984 112.514373 
L 66.339285 112.645985 
L 64.319199 112.669696 
L 62.127451 112.560105 
L 59.759328 112.28663 
L 57.213915 111.812947 
L 54.495665 111.096628 
L 51.616331 110.089143 
L 48.597245 108.736476 
L 45.47187 106.980667 
L 42.288437 104.762657 
L 39.112332 102.026829 
L 36.027693 98.727546 
L 33.137507 94.837721 
L 30.561324 90.358991 
L 28.429773 85.332322 
L 26.87538 79.846998 
L 26.019938 74.045255 
L 25.959741 68.119626 
L 26.75118 62.301012 
L 28.399922 56.83753 
L 30.856673 51.967044 
L 34.021203 47.8888 
L 37.754103 44.740492 
L 41.893625 42.585863 
L 46.273795 41.414806 
L 50.740148 41.154476 
L 55.160732 41.687366 
L 59.43167 42.871511 
L 63.477994 44.558785 
L 67.251143 46.608857 
L 70.724675 48.898065 
L 73.889426 51.323667 
L 76.748928 53.804562 
L 79.315511 56.279724 
L 81.607197 58.70541 
L 85.453072 63.300591 
L 88.470868 67.46781 
L 90.841964 71.18247 
L 93.537945 75.956642 
L 97.373034 83.091872 
L 98.529189 84.866207 
L 99.737913 86.366751 
L 101.052349 87.596601 
L 102.519228 88.549219 
L 104.180388 89.208079 
L 106.073227 89.546309 
L 108.229784 89.526548 
L 110.674065 89.101478 
L 113.417123 88.215837 
L 116.449419 86.811112 
L 119.73021 84.834601 
L 123.174476 82.254625 
L 124.915872 80.73958 
L 126.639478 79.083009 
L 128.316893 77.297855 
L 129.915525 75.403374 
L 131.399103 73.425799 
L 132.728588 71.398642 
L 133.863551 69.362477 
L 134.76401 67.364023 
L 135.392669 65.454453 
L 135.71742 63.68689 
L 135.713896 62.113215 
L 135.367773 60.780467 
L 134.676524 59.727219 
L 133.650328 58.980436 
L 132.311944 58.553299 
L 130.695503 58.444349 
L 128.844327 58.638114 
L 126.808046 59.107114 
L 124.639386 59.814912 
L 122.391008 60.719714 
L 117.849456 62.947691 
L 113.514646 65.474217 
L 109.609491 68.063737 
L 106.251195 70.576661 
L 103.474498 72.951488 
L 101.259975 75.175942 
L 99.558544 77.261375 
L 98.309278 79.225602 
L 97.450867 81.083776 
L 96.928223 82.844824 
L 96.69579 84.510991 
L 96.718791 86.078674 
L 96.973298 87.539515 
L 97.445701 88.881204 
L 98.131932 90.087803 
L 99.036608 91.139529 
L 100.172162 92.012046 
L 101.557895 92.675317 
L 103.218774 93.0921 
L 105.183685 93.216257 
L 107.482679 92.991142 
L 110.142543 92.34865 
L 113.17985 91.209913 
L 116.590485 89.489349 
L 118.425302 88.384576 
L 120.334816 87.1046 
L 122.305378 85.642741 
L 124.318568 83.995534 
L 126.350561 82.163996 
L 128.371604 80.15505 
L 130.345735 77.983028 
L 132.23086 75.671116 
L 133.979335 73.252542 
L 135.539181 70.771238 
L 136.856041 68.281678 
L 137.875911 65.847604 
L 138.548545 63.539423 
L 138.831327 61.430222 
L 138.693195 59.590627 
L 138.118134 58.082983 
L 137.107658 56.95565 
L 135.681803 56.238303 
L 133.878342 55.939119 
L 131.750227 56.044389 
L 129.361579 56.520681 
L 126.782813 57.319142 
L 124.085603 58.381142 
L 121.338335 59.644273 
L 115.930554 62.536838 
L 110.93551 65.596319 
L 106.568586 68.569336 
L 102.910054 71.340115 
L 99.948267 73.886061 
L 97.619901 76.231783 
L 95.839419 78.416559 
L 94.517664 80.476701 
L 93.572192 82.438687 
L 92.932162 84.318384 
L 92.53996 86.122918 
L 92.351016 87.853199 
L 92.332747 89.506152 
L 92.579928 91.828221 
L 92.912358 93.260854 
L 93.376923 94.591289 
L 93.979862 95.809529 
L 94.733977 96.903529 
L 95.65848 97.858229 
L 96.779033 98.65425 
L 98.127896 99.266195 
L 99.744007 99.6605 
L 101.672737 99.792774 
L 103.964884 99.604642 
L 106.674188 99.020337 
L 109.852288 97.943683 
L 113.539491 96.256964 
L 115.579847 95.142891 
L 117.749231 93.824615 
L 120.041166 92.284592 
L 122.443935 90.506724 
L 124.939301 88.477846 
L 127.501161 86.189674 
L 130.094225 83.641226 
L 132.672901 80.84165 
L 135.180615 77.813309 
L 137.549862 74.594802 
L 139.703338 71.243431 
L 141.556489 67.836438 
L 143.021711 64.470242 
L 144.014246 61.256923 
L 144.459452 58.317521 
L 144.300737 55.772235 
L 143.506998 53.728487 
L 142.078201 52.268587 
L 140.047777 51.439389 
L 137.481023 51.24624 
L 134.469493 51.652782 
L 131.122276 52.586795 
L 127.555751 53.950768 
L 123.883619 55.63482 
L 120.208744 57.529334 
L 113.178083 61.570163 
L 106.930262 65.498746 
L 101.661122 69.03908 
L 97.377188 72.136523 
L 93.980541 74.851524 
L 91.329975 77.280162 
L 89.276958 79.511572 
L 87.683644 81.612276 
L 86.43014 83.625049 
L 84.972105 86.527632 
L 81.070978 95.333143 
L 80.116755 96.910238 
L 79.015329 98.413063 
L 77.728199 99.832403 
L 76.213912 101.154499 
L 74.427271 102.358305 
L 72.319325 103.411649 
L 69.838656 104.26602 
L 66.93478 104.849712 
L 65.3102 105.00925 
L 63.564973 105.05939 
L 61.696946 104.980766 
L 59.706353 104.750964 
L 57.596633 104.344416 
L 55.375406 103.732484 
L 53.055591 102.883818 
L 50.656634 101.765118 
L 48.205778 100.342438 
L 45.739237 98.583165 
L 43.3031 96.458803 
L 40.953705 93.948598 
L 38.757167 91.043912 
L 36.787746 87.753075 
L 35.124766 84.106133 
L 33.847957 80.158675 
L 33.031395 75.993687 
L 32.736531 71.720402 
L 33.005238 67.469381 
L 33.854047 63.383743 
L 35.270749 59.607329 
L 37.214243 56.271509 
L 39.61786 53.482874 
L 42.395633 51.314036 
L 45.450397 49.799087 
L 48.682262 48.934159 
L 51.996149 48.682441 
L 55.30747 48.982159 
L 58.545594 49.755764 
L 61.655204 50.918757 
L 64.595989 52.387045 
L 67.341204 54.082309 
L 69.875638 55.935334 
L 72.193387 57.887568 
L 74.295718 59.891348 
L 76.189174 61.90922 
L 77.883986 63.912753 
L 80.729646 67.799796 
L 82.946362 71.452933 
L 84.650523 74.83456 
L 85.949808 77.941578 
L 86.938113 80.788125 
L 88.005762 84.616895 
L 88.959718 89.017542 
L 90.369342 95.945503 
L 90.97426 98.020086 
L 91.720053 99.837604 
L 92.328243 100.906125 
L 93.051572 101.85515 
L 93.916659 102.675973 
L 94.954873 103.354864 
L 96.203374 103.871634 
L 97.706098 104.197638 
L 99.514508 104.293066 
L 101.687812 104.103421 
L 104.292044 103.555144 
L 107.397012 102.550708 
L 111.069436 100.96413 
L 113.135388 99.904852 
L 115.359763 98.639299 
L 117.742573 97.144197 
L 120.279231 95.395919 
L 122.959056 93.371739 
L 125.763542 91.051638 
L 128.664438 88.420787 
L 131.621787 85.472763 
L 134.582119 82.213498 
L 137.477129 78.665767 
L 140.223296 74.873825 
L 142.722974 70.907466 
L 144.867538 66.864478 
L 146.543044 62.870188 
L 147.638538 59.072813 
L 148.056631 55.633711 
L 147.725181 52.712642 
L 146.608215 50.449541 
L 144.713781 48.945892 
L 142.096557 48.24979 
L 138.854053 48.348577 
L 135.116676 49.171296 
L 131.033594 50.600584 
L 126.757288 52.490981 
L 122.429773 54.68916 
L 118.172599 57.051759 
L 110.225086 61.815374 
L 100.400616 68.096489 
L 93.232262 72.98051 
L 89.704639 75.625 
L 86.956692 77.948188 
L 84.804901 80.064714 
L 83.087759 82.051573 
L 81.035624 84.8795 
L 77.010122 90.926634 
L 75.743232 92.479692 
L 74.327219 93.924903 
L 72.717466 95.237605 
L 70.872551 96.385535 
L 68.754634 97.325764 
L 66.331567 98.000897 
L 63.581338 98.334913 
L 62.0812 98.344216 
L 60.499569 98.2295 
L 58.840501 97.974753 
L 57.110782 97.56265 
L 55.32048 96.974873 
L 53.48353 96.192628 
L 51.618287 95.197416 
L 49.748021 93.972091 
L 47.901241 92.502248 
L 46.111781 90.777931 
L 44.418502 88.79561 
L 42.864521 86.560313 
L 41.495856 84.087711 
L 40.359437 81.40588 
L 39.50053 78.556374 
L 38.959694 75.594265 
L 38.769565 72.58682 
L 38.951809 69.610669 
L 39.514691 66.747538 
L 40.451665 64.078911 
L 41.741259 61.680235 
L 43.348342 59.615457 
L 45.226642 57.932648 
L 47.322141 56.661316 
L 49.576886 55.811685 
L 51.932711 55.375867 
L 54.334457 55.330552 
L 56.732419 55.640667 
L 59.083928 56.263381 
L 61.354096 57.15196 
L 63.515863 58.259072 
L 65.549534 59.539353 
L 67.441994 60.951188 
L 69.185741 62.457751 
L 70.777885 64.027453 
L 72.219185 65.63393 
L 74.665394 68.875827 
L 76.57303 72.06135 
L 78.005095 75.120527 
L 79.026682 78.018615 
L 79.697696 80.742971 
L 80.069005 83.293847 
L 80.180787 85.678336 
L 80.062188 87.906482 
L 79.731691 89.988808 
L 79.197788 91.93464 
L 78.459725 93.750844 
L 77.508202 95.440659 
L 76.326016 97.002354 
L 74.888735 98.4275 
L 73.165577 99.698584 
L 71.120858 100.785729 
L 68.716527 101.642303 
L 65.916604 102.199331 
L 64.359377 102.336266 
L 62.694676 102.359042 
L 60.922662 102.249918 
L 59.045913 101.988724 
L 57.070151 101.552906 
L 55.005061 100.917766 
L 52.865207 100.056971 
L 50.670975 98.943414 
L 48.449491 97.550537 
L 46.235373 95.854186 
L 44.071191 93.835055 
L 42.007403 91.481695 
L 40.101576 88.79396 
L 38.416654 85.786583 
L 37.018149 82.492435 
L 35.970232 78.964818 
L 35.330925 75.278085 
L 35.146852 71.52593 
L 35.448208 67.816962 
L 36.244788 64.267669 
L 37.523836 60.993436 
L 39.25024 58.09886 
L 41.36917 55.668878 
L 43.810767 53.762179 
L 46.496119 52.407897 
L 49.343547 51.605871 
L 52.274307 51.330073 
L 55.217054 51.534228 
L 58.110777 52.158475 
L 60.906202 53.135961 
L 63.565922 54.39856 
L 66.063608 55.881277 
L 68.382655 57.525207 
L 70.514575 59.27917 
L 72.457366 61.100287 
L 74.213991 62.953786 
L 75.791054 64.812318 
L 75.791054 64.812318 
" clip-path="url(#p21f50fa574)" style="fill: none; stroke: #ff7f0e; stroke-opacity: 0.5; stroke-width: 1.5; stroke-linecap: round"/>
   </g>
  </g>
 </g>
 <defs>
  <clipPath id="p21f50fa574">
   <rect x="-1.8" y="-7.2" width="176.4" height="176.4"/>
  </clipPath>
 </defs>
</svg>
