<?xml version="1.0" encoding="utf-8" standalone="no"?>
<!DOCTYPE svg PUBLIC "-//W3C//DTD SVG 1.1//EN"
  "http://www.w3.org/Graphics/SVG/1.1/DTD/svg11.dtd">
<svg xmlns:xlink="http://www.w3.org/1999/xlink" width="216pt" height="180pt" viewBox="0 0 216 180" xmlns="http://www.w3.org/2000/svg" version="1.1">
 <metadata>
  <rdf:RDF xmlns:dc="http://purl.org/dc/elements/1.1/" xmlns:cc="http://creativecommons.org/ns#" xmlns:rdf="http://www.w3.org/1999/02/22-rdf-syntax-ns#">
   <cc:Work>
    <dc:type rdf:resource="http://purl.org/dc/dcmitype/StillImage"/>
    <dc:date>2023-06-14T18:52:25.183798</dc:date>
    <dc:format>image/svg+xml</dc:format>
    <dc:creator>
     <cc:Agent>
      <dc:title>Matplotlib v3.7.0, https://matplotlib.org/</dc:title>
     </cc:Agent>
    </dc:creator>
   </cc:Work>
  </rdf:RDF>
 </metadata>
 <defs>
  <style type="text/css">*{stroke-linejoin: round; stroke-linecap: butt}</style>
 </defs>
 <g id="figure_1">
  <g id="patch_1">
   <path d="M 0 180 
L 216 180 
L 216 0 
L 0 0 
z
" style="fill: #ffffff"/>
  </g>
  <g id="patch_2">
   <path d="M -1 169.2 
L 174.6 169.2 
L 174.6 -1 
" style="fill: none"/>
  </g>
  <g id="pane3d_1">
   <g id="patch_3">
    <path d="M 11.519416 125.705413 
L 69.772457 76.876559 
L 68.962684 6.456623 
L 7.921935 51.001381 
" style="fill: none; opacity: 0.5; stroke: #f2f2f2; stroke-linejoin: miter"/>
   </g>
  </g>
  <g id="pane3d_2">
   <g id="patch_4">
    <path d="M 69.772457 76.876559 
L 163.247803 104.046152 
L 166.583609 31.200681 
L 68.962684 6.456623 
" style="fill: none; opacity: 0.5; stroke: #e6e6e6; stroke-linejoin: miter"/>
   </g>
  </g>
  <g id="pane3d_3">
   <g id="patch_5">
    <path d="M 11.519416 125.705413 
L 110.607849 158.067695 
L 163.247803 104.046152 
L 69.772457 76.876559 
" style="fill: none; opacity: 0.5; stroke: #ececec; stroke-linejoin: miter"/>
   </g>
  </g>
  <g id="axis3d_1">
   <g id="line2d_1">
    <path d="M 11.519416 125.705413 
L 110.607849 158.067695 
" style="fill: none; stroke: #ffffff; stroke-width: 0.8; stroke-linecap: round"/>
   </g>
   <g id="text_1">
    <!-- x -->
    <g style="fill: #262626" transform="translate(40.437569 179.640981) scale(0.1 -0.1)">
     <defs>
      <path id="DejaVuSans-78" d="M 3513 3500 
L 2247 1797 
L 3578 0 
L 2900 0 
L 1881 1375 
L 863 0 
L 184 0 
L 1544 1831 
L 300 3500 
L 978 3500 
L 1906 2253 
L 2834 3500 
L 3513 3500 
z
" transform="scale(0.015625)"/>
     </defs>
     <use xlink:href="#DejaVuSans-78"/>
    </g>
   </g>
   <g id="Line3DCollection_1">
    <path d="M 34.776686 133.301237 
L 91.786483 83.275167 
L 91.915936 12.274603 
" style="fill: none; stroke: #d3d3d3; stroke-width: 0.8"/>
    <path d="M 59.677567 141.433865 
L 115.305681 90.11127 
L 116.463796 18.49677 
" style="fill: none; stroke: #d3d3d3; stroke-width: 0.8"/>
    <path d="M 85.2568 149.788043 
L 139.411309 97.117824 
L 141.650809 24.880943 
" style="fill: none; stroke: #d3d3d3; stroke-width: 0.8"/>
   </g>
   <g id="xtick_1">
    <g id="line2d_2">
     <path d="M 88.783784 78.616216 
" clip-path="url(#pe21dd49f5f)" style="fill: none; stroke: #d3d3d3; stroke-width: 0.8; stroke-linecap: round"/>
    </g>
    <g id="line2d_3">
     <path d="M 35.273503 132.86528 
L 33.780899 134.175039 
" style="fill: none; stroke: #808080; stroke-width: 0.8; stroke-linecap: round"/>
    </g>
    <g id="text_2">
     <!-- −10 -->
     <g style="fill: #808080" transform="translate(16.70759 156.820904) scale(0.1 -0.1)">
      <defs>
       <path id="DejaVuSans-2212" d="M 678 2272 
L 4684 2272 
L 4684 1741 
L 678 1741 
L 678 2272 
z
" transform="scale(0.015625)"/>
       <path id="DejaVuSans-31" d="M 794 531 
L 1825 531 
L 1825 4091 
L 703 3866 
L 703 4441 
L 1819 4666 
L 2450 4666 
L 2450 531 
L 3481 531 
L 3481 0 
L 794 0 
L 794 531 
z
" transform="scale(0.015625)"/>
       <path id="DejaVuSans-30" d="M 2034 4250 
Q 1547 4250 1301 3770 
Q 1056 3291 1056 2328 
Q 1056 1369 1301 889 
Q 1547 409 2034 409 
Q 2525 409 2770 889 
Q 3016 1369 3016 2328 
Q 3016 3291 2770 3770 
Q 2525 4250 2034 4250 
z
M 2034 4750 
Q 2819 4750 3233 4129 
Q 3647 3509 3647 2328 
Q 3647 1150 3233 529 
Q 2819 -91 2034 -91 
Q 1250 -91 836 529 
Q 422 1150 422 2328 
Q 422 3509 836 4129 
Q 1250 4750 2034 4750 
z
" transform="scale(0.015625)"/>
      </defs>
      <use xlink:href="#DejaVuSans-2212"/>
      <use xlink:href="#DejaVuSans-31" x="83.789062"/>
      <use xlink:href="#DejaVuSans-30" x="147.412109"/>
     </g>
    </g>
   </g>
   <g id="xtick_2">
    <g id="line2d_4">
     <path d="M 88.783784 78.616216 
" clip-path="url(#pe21dd49f5f)" style="fill: none; stroke: #d3d3d3; stroke-width: 0.8; stroke-linecap: round"/>
    </g>
    <g id="line2d_5">
     <path d="M 60.162877 140.986117 
L 58.704816 142.331327 
" style="fill: none; stroke: #808080; stroke-width: 0.8; stroke-linecap: round"/>
    </g>
    <g id="text_3">
     <!-- 0 -->
     <g style="fill: #808080" transform="translate(49.021108 165.215459) scale(0.1 -0.1)">
      <use xlink:href="#DejaVuSans-30"/>
     </g>
    </g>
   </g>
   <g id="xtick_3">
    <g id="line2d_6">
     <path d="M 88.783784 78.616216 
" clip-path="url(#pe21dd49f5f)" style="fill: none; stroke: #d3d3d3; stroke-width: 0.8; stroke-linecap: round"/>
    </g>
    <g id="line2d_7">
     <path d="M 85.729788 149.328018 
L 84.30872 150.710138 
" style="fill: none; stroke: #808080; stroke-width: 0.8; stroke-linecap: round"/>
    </g>
    <g id="text_4">
     <!-- 10 -->
     <g style="fill: #808080" transform="translate(71.465726 173.840031) scale(0.1 -0.1)">
      <use xlink:href="#DejaVuSans-31"/>
      <use xlink:href="#DejaVuSans-30" x="63.623047"/>
     </g>
    </g>
   </g>
  </g>
  <g id="axis3d_2">
   <g id="line2d_8">
    <path d="M 163.247803 104.046152 
L 110.607849 158.067695 
" style="fill: none; stroke: #ffffff; stroke-width: 0.8; stroke-linecap: round"/>
   </g>
   <g id="text_5">
    <!-- y -->
    <g style="fill: #262626" transform="translate(162.133934 160.636398) scale(0.1 -0.1)">
     <defs>
      <path id="DejaVuSans-79" d="M 2059 -325 
Q 1816 -950 1584 -1140 
Q 1353 -1331 966 -1331 
L 506 -1331 
L 506 -850 
L 844 -850 
Q 1081 -850 1212 -737 
Q 1344 -625 1503 -206 
L 1606 56 
L 191 3500 
L 800 3500 
L 1894 763 
L 2988 3500 
L 3597 3500 
L 2059 -325 
z
" transform="scale(0.015625)"/>
     </defs>
     <use xlink:href="#DejaVuSans-79"/>
    </g>
   </g>
   <g id="Line3DCollection_2">
    <path d="M 15.290366 45.624236 
L 18.52789 119.830772 
L 116.965645 151.543032 
" style="fill: none; stroke: #d3d3d3; stroke-width: 0.8"/>
    <path d="M 27.662391 36.595696 
L 30.309965 109.954803 
L 127.638622 140.589932 
" style="fill: none; stroke: #d3d3d3; stroke-width: 0.8"/>
    <path d="M 39.610138 27.876774 
L 41.705208 100.403084 
L 137.94305 130.015054 
" style="fill: none; stroke: #d3d3d3; stroke-width: 0.8"/>
    <path d="M 51.155063 19.451814 
L 52.732363 91.159904 
L 147.897694 119.799141 
" style="fill: none; stroke: #d3d3d3; stroke-width: 0.8"/>
    <path d="M 62.317202 11.306193 
L 63.40898 82.210552 
L 157.520067 109.924219 
" style="fill: none; stroke: #d3d3d3; stroke-width: 0.8"/>
   </g>
   <g id="xtick_4">
    <g id="line2d_9">
     <path d="M 88.783784 78.616216 
" clip-path="url(#pe21dd49f5f)" style="fill: none; stroke: #d3d3d3; stroke-width: 0.8; stroke-linecap: round"/>
    </g>
    <g id="line2d_10">
     <path d="M 116.136294 151.275852 
L 118.626482 152.078079 
" style="fill: none; stroke: #808080; stroke-width: 0.8; stroke-linecap: round"/>
    </g>
    <g id="text_6">
     <!-- −20 -->
     <g style="fill: #808080" transform="translate(119.242912 172.506536) scale(0.1 -0.1)">
      <defs>
       <path id="DejaVuSans-32" d="M 1228 531 
L 3431 531 
L 3431 0 
L 469 0 
L 469 531 
Q 828 903 1448 1529 
Q 2069 2156 2228 2338 
Q 2531 2678 2651 2914 
Q 2772 3150 2772 3378 
Q 2772 3750 2511 3984 
Q 2250 4219 1831 4219 
Q 1534 4219 1204 4116 
Q 875 4013 500 3803 
L 500 4441 
Q 881 4594 1212 4672 
Q 1544 4750 1819 4750 
Q 2544 4750 2975 4387 
Q 3406 4025 3406 3419 
Q 3406 3131 3298 2873 
Q 3191 2616 2906 2266 
Q 2828 2175 2409 1742 
Q 1991 1309 1228 531 
z
" transform="scale(0.015625)"/>
      </defs>
      <use xlink:href="#DejaVuSans-2212"/>
      <use xlink:href="#DejaVuSans-32" x="83.789062"/>
      <use xlink:href="#DejaVuSans-30" x="147.412109"/>
     </g>
    </g>
   </g>
   <g id="xtick_5">
    <g id="line2d_11">
     <path d="M 88.783784 78.616216 
" clip-path="url(#pe21dd49f5f)" style="fill: none; stroke: #d3d3d3; stroke-width: 0.8; stroke-linecap: round"/>
    </g>
    <g id="line2d_12">
     <path d="M 126.819342 140.332056 
L 129.279254 141.106337 
" style="fill: none; stroke: #808080; stroke-width: 0.8; stroke-linecap: round"/>
    </g>
    <g id="text_7">
     <!-- −10 -->
     <g style="fill: #808080" transform="translate(129.69972 161.30874) scale(0.1 -0.1)">
      <use xlink:href="#DejaVuSans-2212"/>
      <use xlink:href="#DejaVuSans-31" x="83.789062"/>
      <use xlink:href="#DejaVuSans-30" x="147.412109"/>
     </g>
    </g>
   </g>
   <g id="xtick_6">
    <g id="line2d_13">
     <path d="M 88.783784 78.616216 
" clip-path="url(#pe21dd49f5f)" style="fill: none; stroke: #d3d3d3; stroke-width: 0.8; stroke-linecap: round"/>
    </g>
    <g id="line2d_14">
     <path d="M 137.133645 129.766004 
L 139.56387 130.513774 
" style="fill: none; stroke: #808080; stroke-width: 0.8; stroke-linecap: round"/>
    </g>
    <g id="text_8">
     <!-- 0 -->
     <g style="fill: #808080" transform="translate(147.166223 150.497952) scale(0.1 -0.1)">
      <use xlink:href="#DejaVuSans-30"/>
     </g>
    </g>
   </g>
   <g id="xtick_7">
    <g id="line2d_15">
     <path d="M 88.783784 78.616216 
" clip-path="url(#pe21dd49f5f)" style="fill: none; stroke: #d3d3d3; stroke-width: 0.8; stroke-linecap: round"/>
    </g>
    <g id="line2d_16">
     <path d="M 147.097972 119.558471 
L 149.49909 120.281068 
" style="fill: none; stroke: #808080; stroke-width: 0.8; stroke-linecap: round"/>
    </g>
    <g id="text_9">
     <!-- 10 -->
     <g style="fill: #808080" transform="translate(153.737402 140.054449) scale(0.1 -0.1)">
      <use xlink:href="#DejaVuSans-31"/>
      <use xlink:href="#DejaVuSans-30" x="63.623047"/>
     </g>
    </g>
   </g>
   <g id="xtick_8">
    <g id="line2d_17">
     <path d="M 88.783784 78.616216 
" clip-path="url(#pe21dd49f5f)" style="fill: none; stroke: #d3d3d3; stroke-width: 0.8; stroke-linecap: round"/>
    </g>
    <g id="line2d_18">
     <path d="M 156.729838 109.691514 
L 159.102422 110.390188 
" style="fill: none; stroke: #808080; stroke-width: 0.8; stroke-linecap: round"/>
    </g>
    <g id="text_10">
     <!-- 20 -->
     <g style="fill: #808080" transform="translate(163.164036 129.959827) scale(0.1 -0.1)">
      <use xlink:href="#DejaVuSans-32"/>
      <use xlink:href="#DejaVuSans-30" x="63.623047"/>
     </g>
    </g>
   </g>
  </g>
  <g id="axis3d_3">
   <g id="line2d_19">
    <path d="M 163.247803 104.046152 
L 166.583609 31.200681 
" style="fill: none; stroke: #ffffff; stroke-width: 0.8; stroke-linecap: round"/>
   </g>
   <g id="text_11">
    <!-- z -->
    <g style="fill: #262626" transform="translate(202.494937 65.789607) scale(0.1 -0.1)">
     <defs>
      <path id="DejaVuSans-7a" d="M 353 3500 
L 3084 3500 
L 3084 2975 
L 922 459 
L 3084 459 
L 3084 0 
L 275 0 
L 275 525 
L 2438 3041 
L 353 3041 
L 353 3500 
z
" transform="scale(0.015625)"/>
     </defs>
     <use xlink:href="#DejaVuSans-7a"/>
    </g>
   </g>
   <g id="Line3DCollection_3">
    <path d="M 163.568772 97.037022 
L 69.694393 70.087874 
L 11.173797 118.528401 
" style="fill: none; stroke: #d3d3d3; stroke-width: 0.8"/>
    <path d="M 164.439362 78.025558 
L 69.482812 51.688228 
L 10.235779 99.04985 
" style="fill: none; stroke: #d3d3d3; stroke-width: 0.8"/>
    <path d="M 165.33046 58.566245 
L 69.266488 32.876138 
L 9.274809 79.094692 
" style="fill: none; stroke: #d3d3d3; stroke-width: 0.8"/>
    <path d="M 166.2428 38.643072 
L 69.04526 13.637579 
L 8.290035 58.645217 
" style="fill: none; stroke: #d3d3d3; stroke-width: 0.8"/>
   </g>
   <g id="xtick_9">
    <g id="line2d_20">
     <path d="M 88.783784 78.616216 
" style="fill: none; stroke: #d3d3d3; stroke-width: 0.8; stroke-linecap: round"/>
    </g>
    <g id="line2d_21">
     <path d="M 162.780748 96.810799 
L 165.146701 97.490009 
" style="fill: none; stroke: #808080; stroke-width: 0.8; stroke-linecap: round"/>
    </g>
    <g id="text_12">
     <!-- 10 -->
     <g style="fill: #808080" transform="translate(175.503855 102.055058) scale(0.1 -0.1)">
      <use xlink:href="#DejaVuSans-31"/>
      <use xlink:href="#DejaVuSans-30" x="63.623047"/>
     </g>
    </g>
   </g>
   <g id="xtick_10">
    <g id="line2d_22">
     <path d="M 88.783784 78.616216 
" style="fill: none; stroke: #d3d3d3; stroke-width: 0.8; stroke-linecap: round"/>
    </g>
    <g id="line2d_23">
     <path d="M 163.641818 77.804349 
L 166.036376 78.468509 
" style="fill: none; stroke: #808080; stroke-width: 0.8; stroke-linecap: round"/>
    </g>
    <g id="text_13">
     <!-- 20 -->
     <g style="fill: #808080" transform="translate(176.58248 83.100918) scale(0.1 -0.1)">
      <use xlink:href="#DejaVuSans-32"/>
      <use xlink:href="#DejaVuSans-30" x="63.623047"/>
     </g>
    </g>
   </g>
   <g id="xtick_11">
    <g id="line2d_24">
     <path d="M 88.783784 78.616216 
" style="fill: none; stroke: #d3d3d3; stroke-width: 0.8; stroke-linecap: round"/>
    </g>
    <g id="line2d_25">
     <path d="M 164.523164 58.350352 
L 166.947026 58.998559 
" style="fill: none; stroke: #808080; stroke-width: 0.8; stroke-linecap: round"/>
    </g>
    <g id="text_14">
     <!-- 30 -->
     <g style="fill: #808080" transform="translate(177.686396 63.702353) scale(0.1 -0.1)">
      <defs>
       <path id="DejaVuSans-33" d="M 2597 2516 
Q 3050 2419 3304 2112 
Q 3559 1806 3559 1356 
Q 3559 666 3084 287 
Q 2609 -91 1734 -91 
Q 1441 -91 1130 -33 
Q 819 25 488 141 
L 488 750 
Q 750 597 1062 519 
Q 1375 441 1716 441 
Q 2309 441 2620 675 
Q 2931 909 2931 1356 
Q 2931 1769 2642 2001 
Q 2353 2234 1838 2234 
L 1294 2234 
L 1294 2753 
L 1863 2753 
Q 2328 2753 2575 2939 
Q 2822 3125 2822 3475 
Q 2822 3834 2567 4026 
Q 2313 4219 1838 4219 
Q 1578 4219 1281 4162 
Q 984 4106 628 3988 
L 628 4550 
Q 988 4650 1302 4700 
Q 1616 4750 1894 4750 
Q 2613 4750 3031 4423 
Q 3450 4097 3450 3541 
Q 3450 3153 3228 2886 
Q 3006 2619 2597 2516 
z
" transform="scale(0.015625)"/>
      </defs>
      <use xlink:href="#DejaVuSans-33"/>
      <use xlink:href="#DejaVuSans-30" x="63.623047"/>
     </g>
    </g>
   </g>
   <g id="xtick_12">
    <g id="line2d_26">
     <path d="M 88.783784 78.616216 
" style="fill: none; stroke: #d3d3d3; stroke-width: 0.8; stroke-linecap: round"/>
    </g>
    <g id="line2d_27">
     <path d="M 165.42551 38.432812 
L 167.879402 39.064112 
" style="fill: none; stroke: #808080; stroke-width: 0.8; stroke-linecap: round"/>
    </g>
    <g id="text_15">
     <!-- 40 -->
     <g style="fill: #808080" transform="translate(178.816503 43.843548) scale(0.1 -0.1)">
      <defs>
       <path id="DejaVuSans-34" d="M 2419 4116 
L 825 1625 
L 2419 1625 
L 2419 4116 
z
M 2253 4666 
L 3047 4666 
L 3047 1625 
L 3713 1625 
L 3713 1100 
L 3047 1100 
L 3047 0 
L 2419 0 
L 2419 1100 
L 313 1100 
L 313 1709 
L 2253 4666 
z
" transform="scale(0.015625)"/>
      </defs>
      <use xlink:href="#DejaVuSans-34"/>
      <use xlink:href="#DejaVuSans-30" x="63.623047"/>
     </g>
    </g>
   </g>
  </g>
  <g id="axes_1">
   <g id="line2d_28">
    <path d="M 123.75924 105.413632 
L 131.11285 96.132263 
L 133.762707 92.578476 
L 136.438918 88.795002 
L 139.083471 84.800259 
L 141.628174 80.629591 
L 143.995162 76.338058 
L 146.098401 72.002072 
L 147.846369 67.719194 
L 149.146077 63.605388 
L 149.908513 59.78922 
L 150.055457 56.402827 
L 149.527322 53.570089 
L 148.291293 51.393274 
L 146.348461 49.940224 
L 143.738285 49.234718 
L 140.53871 49.252515 
L 136.860944 49.924517 
L 132.839223 51.146696 
L 128.617335 52.794592 
L 124.334668 54.739018 
L 120.1145 56.859711 
L 112.232933 61.245188 
L 105.453851 65.410333 
L 99.905194 69.135295 
L 95.498325 72.402441 
L 92.050253 75.283715 
L 89.358508 77.871247 
L 87.236508 80.245621 
L 85.525596 82.466384 
L 83.452622 85.590831 
L 79.354247 92.16255 
L 78.079769 93.856423 
L 76.664053 95.451913 
L 75.06028 96.931053 
L 73.222462 98.268055 
L 71.105326 99.426296 
L 68.665629 100.354236 
L 65.865558 100.980361 
L 64.321531 101.151051 
L 62.679059 101.207586 
L 60.938416 101.133018 
L 59.102167 100.908328 
L 57.17577 100.512513 
L 55.168258 99.922838 
L 53.092973 99.115316 
L 50.968319 98.065484 
L 48.818485 96.749561 
L 46.674042 95.146017 
L 44.572314 93.237626 
L 42.557387 91.013954 
L 40.679594 88.474212 
L 38.994332 85.630262 
L 37.560082 82.509448 
L 36.43556 79.156804 
L 35.676071 75.636077 
L 35.329254 72.029002 
L 35.43063 68.432412 
L 35.9995 64.953 
L 37.035875 61.700043 
L 38.519029 58.776856 
L 40.408131 56.272173 
L 42.645006 54.252847 
L 45.158693 52.759055 
L 47.871122 51.802758 
L 50.703032 51.369419 
L 53.579302 51.422396 
L 56.433073 51.908974 
L 59.208374 52.766871 
L 61.861259 53.930274 
L 64.359687 55.334737 
L 66.682521 56.920679 
L 68.817985 58.635494 
L 70.761912 60.43449 
L 72.516009 62.280954 
L 74.086278 64.145632 
L 75.481659 66.005884 
L 77.791887 69.649762 
L 79.541042 73.127028 
L 80.822354 76.400104 
L 81.718634 79.459581 
L 82.298576 82.311271 
L 82.616116 84.968337 
L 82.71128 87.446761 
L 82.611593 89.762824 
L 82.33356 91.931729 
L 81.883958 93.966813 
L 81.260838 95.878997 
L 80.454205 97.676239 
L 79.446419 99.362787 
L 78.212382 100.938065 
L 76.719657 102.394978 
L 74.928725 103.717364 
L 72.793743 104.876299 
L 70.264356 105.824897 
L 67.289471 106.491316 
L 65.620445 106.687308 
L 63.824332 106.77001 
L 61.898522 106.719369 
L 59.842704 106.512074 
L 57.659681 106.121422 
L 55.356329 105.517359 
L 52.944703 104.66679 
L 50.443251 103.534292 
L 47.878085 102.083338 
L 45.284195 100.278211 
L 42.706457 98.086706 
L 40.20023 95.483729 
L 37.831265 92.455723 
L 35.674637 89.00575 
L 33.812382 85.158753 
L 32.329636 80.966263 
L 31.309176 76.509522 
L 30.824603 71.899851 
L 30.932747 67.275151 
L 31.666309 62.791928 
L 33.028043 58.613086 
L 34.987825 54.892873 
L 37.483594 51.761425 
L 40.42635 49.311815 
L 43.708524 47.592231 
L 47.214183 46.604628 
L 50.829229 46.309662 
L 54.449944 46.636204 
L 57.988846 47.493052 
L 61.377579 48.780427 
L 64.567196 50.399572 
L 67.52655 52.259579 
L 70.239579 54.281404 
L 72.702183 56.399491 
L 74.919172 58.561668 
L 76.901578 60.727968 
L 78.664438 62.868913 
L 80.225077 64.963634 
L 82.813128 68.96346 
L 84.81015 72.670206 
L 86.347351 76.073938 
L 87.536552 79.187888 
L 88.863877 83.365828 
L 90.400358 89.214216 
L 91.684353 93.926987 
L 92.532465 96.288899 
L 93.543506 98.322772 
L 94.35101 99.494795 
L 95.298549 100.512052 
L 96.418582 101.36182 
L 97.748156 102.024453 
L 99.32965 102.471544 
L 101.211122 102.663498 
L 103.445908 102.54652 
L 106.090872 102.049147 
L 109.202377 101.078866 
L 112.828565 99.520056 
L 114.844357 98.477801 
L 116.996155 97.23578 
L 119.280577 95.775174 
L 121.689873 94.077834 
L 124.210831 92.127525 
L 126.82363 89.911583 
L 129.500681 87.422993 
L 132.205592 84.662887 
L 134.892379 81.643342 
L 137.505102 78.390288 
L 139.978121 74.946172 
L 142.237153 71.371926 
L 144.201323 67.747665 
L 145.786347 64.171494 
L 146.908924 60.755882 
L 147.492325 57.621297 
L 147.472949 54.887193 
L 146.807387 52.661061 
L 145.479123 51.026916 
L 143.503663 50.035203 
L 140.930734 49.696263 
L 137.842432 49.979108 
L 134.346965 50.816122 
L 130.568751 52.112823 
L 126.636646 53.760534 
L 122.672547 55.649231 
L 118.782386 57.678157 
L 111.538443 61.838137 
L 105.30931 65.79474 
L 100.19977 69.3669 
L 96.130953 72.539833 
L 92.942263 75.373401 
L 90.454716 77.945147 
L 88.501857 80.323687 
L 86.941009 82.560386 
L 85.083781 85.721121 
L 80.544114 94.183615 
L 79.389461 95.86191 
L 78.084202 97.453207 
L 76.584965 98.943798 
L 74.846761 100.313247 
L 72.82263 101.531315 
L 70.464449 102.553719 
L 67.725499 103.316571 
L 66.200245 103.573688 
L 64.565747 103.7296 
L 62.819563 103.767693 
L 60.961119 103.668842 
L 58.992318 103.411306 
L 56.91827 102.970757 
L 54.748122 102.320498 
L 52.495976 101.431956 
L 50.181856 100.275536 
L 47.832654 98.821952 
L 45.482955 97.044106 
L 43.175597 94.919598 
L 40.961794 92.43386 
L 38.900611 89.583805 
L 37.057578 86.381754 
L 35.502255 82.8592 
L 34.30464 79.069782 
L 33.530498 75.090694 
L 33.235858 71.021732 
L 33.461255 66.981349 
L 34.226496 63.099516 
L 35.5269 59.507847 
L 37.331865 56.328195 
L 39.58629 53.661488 
L 42.214861 51.578798 
L 45.128559 50.116235 
L 48.232328 49.274446 
L 51.432637 49.022432 
L 54.643834 49.304524 
L 57.792616 50.048905 
L 60.820388 51.176081 
L 63.683749 52.60613 
L 66.35353 54.264081 
L 68.812945 56.083314 
L 71.05533 58.007213 
L 73.081836 59.989471 
L 74.899306 61.993504 
L 76.518469 63.991344 
L 77.952477 65.962329 
L 80.323254 69.769685 
L 82.129177 73.348575 
L 83.480004 76.677638 
L 84.470436 79.760143 
L 85.178211 82.611266 
L 85.840507 86.498007 
L 86.151497 89.978566 
L 86.204673 93.116346 
L 86.051583 95.965585 
L 85.712099 98.571717 
L 85.180726 100.972662 
L 84.429391 103.199871 
L 83.407234 105.278425 
L 82.53877 106.590407 
L 81.486606 107.846362 
L 80.213879 109.04489 
L 78.675904 110.179092 
L 76.819375 111.233627 
L 74.582002 112.18023 
L 71.893218 112.971051 
L 68.677034 113.529083 
L 66.847495 113.685624 
L 64.858862 113.735092 
L 62.704247 113.653283 
L 60.37909 113.411208 
L 57.88223 112.974598 
L 55.217245 112.303588 
L 52.394062 111.352709 
L 49.430833 110.071374 
L 46.35602 108.405124 
L 43.210556 106.2979 
L 40.049874 103.695661 
L 36.945473 100.551615 
L 33.985583 96.833174 
L 31.274355 92.53048 
L 28.928967 87.665878 
L 27.074059 82.303101 
L 25.833151 76.554208 
L 25.317207 70.581799 
L 25.611325 64.593977 
L 26.761509 58.830376 
L 28.764294 53.539555 
L 31.562174 48.950798 
L 35.046865 45.245888 
L 39.070501 42.53746 
L 43.462636 40.859177 
L 48.049272 40.1695 
L 52.669878 40.366842 
L 57.189504 41.311061 
L 61.504879 42.845651 
L 65.54507 44.816297 
L 69.268274 47.083657 
L 72.656539 49.530228 
L 75.709921 52.062409 
L 78.441056 54.609332 
L 80.870631 57.119903 
L 83.023911 59.559177 
L 86.611196 64.143604 
L 89.419316 68.280352 
L 91.644233 71.965171 
L 94.978884 78.102628 
L 97.611291 82.833811 
L 98.880028 84.73795 
L 100.203312 86.351981 
L 101.634201 87.677232 
L 103.219528 88.705308 
L 105.001252 89.417784 
L 107.016617 89.785899 
L 109.296894 89.770544 
L 111.864346 89.323073 
L 114.72704 88.387805 
L 117.871193 86.907463 
L 121.251073 84.833107 
L 123.003511 83.563935 
L 124.77732 82.140026 
L 126.552688 80.565737 
L 128.305913 78.849985 
L 130.009398 77.007085 
L 131.631872 75.057465 
L 133.138874 73.028155 
L 134.493558 70.952908 
L 135.657843 68.871848 
L 136.593922 66.830503 
L 137.266085 64.87818 
L 137.6428 63.065681 
L 137.698911 61.442464 
L 137.41778 60.053477 
L 136.793126 58.935983 
L 135.830331 58.116775 
L 134.546944 57.610177 
L 132.972236 57.417143 
L 131.145752 57.525635 
L 129.114966 57.912219 
L 126.932286 58.544641 
L 124.651805 59.384969 
L 122.326157 60.392856 
L 117.727289 62.754955 
L 113.444287 65.355884 
L 109.667671 68.000567 
L 106.481038 70.574885 
L 103.890685 73.025936 
L 101.857017 75.338227 
L 100.319342 77.514558 
L 99.212284 79.563718 
L 98.475222 81.493882 
L 98.056933 83.309734 
L 97.917314 85.011626 
L 98.027513 86.595611 
L 98.369307 88.053686 
L 98.934178 89.373902 
L 99.722344 90.540168 
L 100.741796 91.531721 
L 102.00731 92.322241 
L 103.539294 92.878669 
L 105.362212 93.159843 
L 107.502244 93.115159 
L 109.983661 92.683707 
L 112.823303 91.794644 
L 116.022442 90.370069 
L 119.555501 88.332278 
L 121.428424 87.062459 
L 123.355672 85.617726 
L 125.319792 83.996089 
L 127.298798 82.199799 
L 129.265842 80.236523 
L 131.189096 78.120512 
L 133.031876 75.873685 
L 134.753119 73.526445 
L 136.308274 71.11807 
L 137.650648 68.696453 
L 138.733261 66.317039 
L 139.511157 64.040807 
L 139.944125 61.931286 
L 139.999651 60.050721 
L 139.655856 58.455695 
L 138.904107 57.192674 
L 137.750898 56.294084 
L 136.218637 55.775522 
L 134.345047 55.634627 
L 132.181106 55.851835 
L 129.787679 56.392939 
L 127.231262 57.213012 
L 124.579422 58.261029 
L 121.896545 59.484452 
L 116.659821 62.262413 
L 111.870125 65.219219 
L 107.719836 68.143505 
L 104.270857 70.928602 
L 101.499 73.539116 
L 99.334787 75.978091 
L 97.692375 78.263843 
L 96.48678 80.416819 
L 95.642588 82.453642 
L 95.097404 84.38533 
L 94.802414 86.217501 
L 94.721578 87.951269 
L 94.830315 89.584173 
L 95.114142 91.110829 
L 95.567485 92.523222 
L 96.192746 93.810617 
L 96.999633 94.959098 
L 98.004702 95.950751 
L 99.231023 96.762471 
L 100.70782 97.364377 
L 102.469865 97.71786 
L 104.556289 97.773304 
L 107.008281 97.467729 
L 109.864953 96.722862 
L 113.156357 95.444747 
L 116.892472 93.526816 
L 118.921083 92.293341 
L 121.047132 90.859527 
L 123.258196 89.214544 
L 125.536719 87.350709 
L 127.859238 85.264969 
L 130.195714 82.960629 
L 132.509061 80.449218 
L 134.75499 77.752384 
L 136.882289 74.903568 
L 138.833673 71.949189 
L 140.54731 68.948987 
L 141.959117 65.975164 
L 143.005852 63.110013 
L 143.628956 60.441867 
L 143.778981 58.059424 
L 143.420283 56.044843 
L 142.535472 54.466357 
L 141.12895 53.371472 
L 139.228779 52.781963 
L 136.886246 52.691706 
L 134.172828 53.067928 
L 131.174759 53.855748 
L 127.985981 54.985128 
L 124.700613 56.378892 
L 121.40615 57.960366 
L 115.077977 61.416809 
L 109.4252 64.930496 
L 104.639203 68.267138 
L 100.738646 71.34059 
L 97.643316 74.151046 
L 95.231457 76.735741 
L 93.374612 79.139662 
L 91.955001 81.402003 
L 90.872168 83.552027 
L 90.043938 85.609457 
L 89.139509 88.547342 
L 88.323049 92.216917 
L 86.379667 102.369997 
L 85.761104 104.369443 
L 84.971391 106.262169 
L 83.942753 108.059873 
L 83.081925 109.210094 
L 82.043833 110.322881 
L 80.789193 111.396168 
L 79.2708 112.423109 
L 77.432401 113.38909 
L 75.207946 114.267162 
L 72.521843 115.011171 
L 69.291266 115.545718 
L 67.445355 115.69952 
L 65.432418 115.752122 
L 63.24398 115.678927 
L 60.873726 115.450187 
L 58.318609 115.030379 
L 55.58025 114.377722 
L 52.666659 113.443985 
L 49.594279 112.17478 
L 46.390303 110.510632 
L 43.095142 108.389137 
L 39.764848 105.748594 
L 36.473123 102.533453 
L 33.312454 98.701806 
L 30.393725 94.234848 
L 27.843585 89.147755 
L 25.798822 83.500662 
L 24.397232 77.407609 
L 23.764985 71.040499 
L 24.00142 64.624913 
L 25.163451 58.425414 
L 27.25282 52.720216 
L 30.209897 47.768474 
L 33.916677 43.776775 
L 38.20941 40.873002 
L 42.898344 39.094244 
L 47.79001 38.391169 
L 52.707063 38.64615 
L 57.502128 39.698871 
L 62.064397 41.372426 
L 66.319794 43.49467 
L 70.226742 45.912437 
L 73.769724 48.498665 
L 76.952415 51.153984 
L 79.7915 53.804722 
L 82.311649 56.399087 
L 84.54177 58.902778 
L 88.25382 63.563853 
L 91.164036 67.719486 
L 94.475273 73.033042 
L 99.182658 80.848443 
L 100.579659 82.74764 
L 102.017563 84.325896 
L 103.553007 85.586625 
L 105.233581 86.522923 
L 107.099078 87.117848 
L 109.181367 87.344934 
L 111.502699 87.169307 
L 114.072237 86.550018 
L 116.880641 85.444483 
L 119.89279 83.816054 
L 123.039273 81.645742 
L 126.208182 78.94834 
L 127.753062 77.420551 
L 129.239963 75.791578 
L 130.641798 74.081112 
L 131.929349 72.31396 
L 133.072025 70.519951 
L 134.038876 68.733444 
L 134.799854 66.992404 
L 135.327276 65.337003 
L 135.597425 63.807798 
L 135.592174 62.443577 
L 135.300497 61.279052 
L 134.719704 60.34263 
L 133.856227 59.654527 
L 132.725822 59.225464 
L 131.353083 59.056149 
L 129.770281 59.137612 
L 128.015603 59.452358 
L 126.130981 59.976171 
L 124.15974 60.680299 
L 120.124387 62.505399 
L 116.206696 64.688177 
L 112.623091 67.03129 
L 109.501002 69.397533 
L 106.892424 71.705365 
L 104.796432 73.913967 
L 103.181167 76.007217 
L 102.000889 77.981139 
L 101.20738 79.835746 
L 100.756677 81.57047 
L 100.612514 83.181949 
L 100.747692 84.663109 
L 101.144235 86.002804 
L 101.792884 87.185572 
L 102.69221 88.191292 
L 103.847466 88.994647 
L 105.269134 89.56442 
L 106.971 89.862754 
L 108.967497 89.844605 
L 111.269953 89.457843 
L 113.881294 88.644674 
L 116.788839 87.345414 
L 119.955008 85.505942 
L 123.306395 83.090224 
L 126.722711 80.098694 
L 128.402685 78.402761 
L 130.028698 76.591378 
L 131.570181 74.685197 
L 132.993784 72.711082 
L 134.264201 70.702114 
L 135.345311 68.697137 
L 136.201643 66.739732 
L 136.80012 64.876591 
L 137.112008 63.155313 
L 137.114942 61.621728 
L 136.794852 60.316985 
L 136.147577 59.274687 
L 135.179934 58.518447 
L 133.910046 58.060195 
L 132.366789 57.899515 
L 130.588341 58.024125 
L 128.619941 58.411428 
L 126.511123 59.030917 
L 124.312729 59.847049 
L 122.074071 60.822183 
L 117.651819 63.103809 
L 113.533577 65.619006 
L 109.899276 68.184033 
L 106.829721 70.689331 
L 104.333498 73.081978 
L 102.375736 75.344183 
L 100.901111 77.475758 
L 99.849307 79.482633 
L 99.164078 81.370534 
L 98.79784 83.14209 
L 98.713472 84.795859 
L 98.88458 86.326187 
L 99.294971 87.723301 
L 99.937803 88.973266 
L 100.814616 90.057685 
L 101.934295 90.953082 
L 103.311905 91.629979 
L 104.967213 92.051769 
L 106.922633 92.173544 
L 109.200159 91.941213 
L 111.816784 91.291508 
L 114.777792 90.153861 
L 118.067368 88.455609 
L 121.636389 86.132495 
L 123.497727 84.723027 
L 125.388137 83.146405 
L 127.285797 81.406202 
L 129.164393 79.511224 
L 130.993079 77.476543 
L 132.736667 75.3244 
L 134.356163 73.08485 
L 135.809665 70.79597 
L 137.053698 68.503475 
L 138.044975 66.259587 
L 138.742576 64.121061 
L 139.110438 62.146379 
L 139.120015 60.392247 
L 138.752873 58.909678 
L 138.00292 57.740088 
L 136.877952 56.911933 
L 135.400176 56.438397 
L 133.605524 56.316548 
L 131.54169 56.528127 
L 129.265065 57.041874 
L 126.836937 57.817003 
L 124.319467 58.80725 
L 121.771937 59.964889 
L 116.792217 62.604026 
L 112.223565 65.432018 
L 108.25046 68.249061 
L 104.937831 70.949677 
L 102.269942 73.494258 
L 100.187172 75.88 
L 98.612827 78.119736 
L 97.469616 80.22948 
L 96.68834 82.222472 
L 96.211609 84.107104 
L 95.994757 85.886784 
L 96.005354 87.560524 
L 96.222153 89.123587 
L 96.633922 90.567909 
L 97.238383 91.882167 
L 98.041331 93.051463 
L 99.055921 94.056621 
L 100.30204 94.873111 
L 101.805613 95.469601 
L 103.597605 95.8062 
L 105.712352 95.832511 
L 108.184717 95.48581 
L 111.045332 94.690002 
L 114.313051 93.356521 
L 117.983633 91.389169 
L 119.958587 90.138314 
L 122.014065 88.695766 
L 124.135413 87.054214 
L 126.303007 85.210031 
L 128.491656 83.164664 
L 130.670158 80.926163 
L 132.801079 78.510763 
L 134.840873 75.944348 
L 136.740443 73.263586 
L 138.446241 70.516495 
L 139.90198 67.762114 
L 141.051013 65.069063 
L 141.839348 62.512764 
L 142.219207 60.171316 
L 142.152903 58.120218 
L 141.616707 56.426381 
L 140.604207 55.14219 
L 139.128593 54.300487 
L 137.223335 53.911406 
L 134.940844 53.96171 
L 132.349094 54.416855 
L 129.526545 55.225457 
L 126.556112 56.325313 
L 123.519079 57.649903 
L 120.489862 59.134317 
L 114.697068 62.356801 
L 109.532445 65.637965 
L 105.156236 68.778939 
L 101.58466 71.702082 
L 98.750296 74.401555 
L 96.549377 76.903618 
L 94.871293 79.242473 
L 93.613925 81.448636 
L 92.689987 83.54501 
L 92.028407 85.54683 
L 91.573326 87.46312 
L 91.187826 90.186348 
L 91.074943 92.73094 
L 91.178399 95.093578 
L 91.473993 97.267121 
L 91.963007 99.241338 
L 92.66898 101.001517 
L 93.28163 102.045477 
L 94.029576 102.975141 
L 94.937131 103.77758 
L 96.034345 104.435157 
L 97.357648 104.923831 
L 98.95043 105.210931 
L 100.863325 105.252276 
L 103.153784 104.988573 
L 105.884275 104.341224 
L 109.118009 103.208038 
L 112.910548 101.460233 
L 115.028193 100.308452 
L 117.295111 98.943571 
L 119.708133 97.344032 
L 122.259225 95.488869 
L 124.934214 93.35914 
L 127.711439 90.939854 
L 130.560387 88.22242 
L 133.440472 85.207621 
L 136.300097 81.908963 
L 139.07624 78.35616 
L 141.694754 74.598326 
L 144.071644 70.706296 
L 146.115511 66.773344 
L 147.73134 62.913538 
L 148.825754 59.257048 
L 149.313688 55.942053 
L 149.126281 53.103439 
L 148.219321 50.859265 
L 146.58116 49.296906 
L 144.238449 48.461488 
L 141.257943 48.349365 
L 137.743002 48.908669 
L 133.824645 50.047238 
L 129.648492 51.646261 
L 125.36022 53.57643 
L 121.092485 55.713014 
L 116.955584 57.947151 
L 109.380037 62.385336 
L 102.989941 66.471682 
L 97.824542 70.075035 
L 93.749606 73.224731 
L 90.566691 76.010025 
L 88.073796 78.524695 
L 86.091299 80.844696 
L 83.753793 84.071164 
L 78.19724 92.535707 
L 76.817748 94.174235 
L 75.271664 95.699691 
L 73.512602 97.0885 
L 71.495581 98.307355 
L 69.177826 99.309679 
L 66.521409 100.031134 
L 65.056896 100.26032 
L 63.498487 100.384531 
L 61.84571 100.388515 
L 60.100055 100.255109 
L 58.265498 99.96527 
L 56.349097 99.498243 
L 54.361657 98.831912 
L 52.318418 97.943399 
L 50.239742 96.809965 
L 48.151723 95.410289 
L 46.086636 93.726146 
L 44.083113 91.744512 
L 42.185912 89.460042 
L 40.445143 86.877778 
L 38.914807 84.015866 
L 37.650589 80.90792 
L 36.706861 77.604573 
L 36.133029 74.17372 
L 35.969491 70.698972 
L 36.243618 67.276045 
L 36.966326 64.007115 
L 38.129823 60.993559 
L 39.707033 58.327991 
L 41.652953 56.086716 
L 43.907864 54.323834 
L 46.401965 53.067912 
L 49.060741 52.32165 
L 51.810279 52.064359 
L 54.581831 52.256558 
L 57.315189 52.845699 
L 59.96067 53.772049 
L 62.479813 54.973931 
L 64.845027 56.391859 
L 67.038525 57.971389 
L 69.050844 59.664778 
L 70.879236 61.431633 
L 72.526098 63.23885 
L 73.997562 65.060072 
L 75.302299 66.874895 
L 77.453343 70.428124 
L 79.067493 73.821032 
L 80.231006 77.019267 
L 81.019881 80.013951 
L 81.496555 82.810071 
L 81.709323 85.419336 
L 81.693076 87.855983 
L 81.470543 90.134354 
L 81.053582 92.267469 
L 80.444314 94.266078 
L 79.635996 96.137847 
L 78.613639 97.886437 
L 77.354456 99.510228 
L 75.828268 101.000494 
L 73.998111 102.338737 
L 71.821436 103.492914 
L 69.252498 104.412258 
L 67.806806 104.761258 
L 66.246859 105.020551 
L 64.568602 105.175312 
L 62.76932 105.208096 
L 60.848193 105.098623 
L 58.806979 104.823631 
L 56.650818 104.356878 
L 54.389168 103.669337 
L 52.036848 102.729705 
L 49.615134 101.505322 
L 47.152855 99.963612 
L 44.687362 98.074186 
L 42.265201 95.811667 
L 39.942302 93.15925 
L 37.783426 90.112902 
L 35.860617 86.685902 
L 34.250434 82.913202 
L 33.029837 78.85488 
L 32.270784 74.597722 
L 32.033893 70.253986 
L 32.361816 65.956584 
L 33.273317 61.850492 
L 34.759187 58.080998 
L 36.780997 54.780344 
L 39.273287 52.054996 
L 42.149043 49.97592 
L 45.307626 48.57369 
L 48.643744 47.839118 
L 52.055959 47.728794 
L 55.453499 48.173939 
L 58.760693 49.090524 
L 61.918946 50.388836 
L 64.886624 51.981245 
L 67.637478 53.787615 
L 70.158234 55.738412 
L 72.445899 57.775891 
L 74.505156 59.853912 
L 76.346074 61.9369 
L 77.982216 63.998382 
L 80.703361 67.986992 
L 82.799449 71.732143 
L 84.395727 75.204089 
L 85.601943 78.404132 
L 86.509473 81.348381 
L 87.467522 85.333299 
L 88.263719 89.957827 
L 88.955706 95.719708 
L 89.677942 101.740403 
L 90.147366 104.176475 
L 90.794294 106.268632 
L 91.45671 107.613024 
L 92.334412 108.753242 
L 93.076257 109.388309 
L 93.976406 109.909757 
L 95.069809 110.300136 
L 96.398589 110.534832 
L 98.013102 110.579526 
L 99.972734 110.386757 
L 102.34602 109.891438 
L 105.209284 109.005301 
L 108.642485 107.610705 
L 112.72013 105.555249 
L 115.018441 104.222106 
L 117.494237 102.650636 
L 120.145827 100.813283 
L 122.965772 98.682594 
L 125.939221 96.232981 
L 129.042093 93.443177 
L 132.239226 90.299482 
L 135.482664 86.799781 
L 138.710327 82.958187 
L 141.845335 78.809974 
L 144.796316 74.416166 
L 147.458979 69.866939 
L 149.719263 65.282734 
L 151.4583 60.811899 
L 152.559399 56.623822 
L 152.91715 52.896979 
L 152.448385 49.802218 
L 151.104139 47.482927 
L 148.880792 46.035287 
L 145.827654 45.492984 
L 142.048001 45.820812 
L 137.691559 46.91985 
L 132.938838 48.643609 
L 127.980443 50.821079 
L 122.996257 53.280688 
L 118.139101 55.869682 
L 109.233694 60.981481 
L 101.760634 65.576202 
L 95.770969 69.491326 
L 91.081828 72.788477 
L 87.433374 75.604239 
L 84.569963 78.072847 
L 82.270776 80.298181 
L 79.49565 83.324732 
L 74.84574 88.57818 
L 73.244999 90.091886 
L 71.514773 91.456704 
L 69.607855 92.640055 
L 67.485897 93.598444 
L 65.120809 94.275538 
L 62.498257 94.600216 
L 61.09111 94.603842 
L 59.623547 94.485578 
L 58.100671 94.232345 
L 56.529973 93.830526 
L 54.921684 93.266321 
L 53.289108 92.526266 
L 51.648921 91.59791 
L 50.021373 90.470683 
L 48.430371 89.136949 
L 46.903364 87.593219 
L 45.470976 85.841465 
L 44.166344 83.890465 
L 43.024101 81.757016 
L 42.079011 79.466873 
L 41.364259 77.0552 
L 40.909502 74.566338 
L 40.738799 72.052747 
L 40.868624 69.573026 
L 41.306196 67.189079 
L 42.048353 64.962613 
L 43.081171 62.951311 
L 44.380436 61.205128 
L 45.91296 59.763175 
L 47.638613 58.651579 
L 49.512822 57.882571 
L 51.489249 57.454844 
L 53.522333 57.355012 
L 55.569464 57.559891 
L 57.592617 58.039196 
L 59.559385 58.758314 
L 61.443443 59.680839 
L 63.224521 60.770679 
L 64.888019 61.993643 
L 66.424375 63.31851 
L 67.828311 64.71763 
L 69.098041 66.167145 
L 70.234507 67.64694 
L 72.120986 70.634056 
L 73.525754 73.581438 
L 74.495607 76.429086 
L 75.07665 79.142705 
L 75.308907 81.704205 
L 75.223674 84.104658 
L 74.842617 86.339256 
L 74.177883 88.403604 
L 73.232847 90.290802 
L 72.0033 91.988856 
L 70.479108 93.478073 
L 68.646512 94.728233 
L 66.491419 95.695459 
L 65.289575 96.054717 
L 64.004171 96.318948 
L 62.635812 96.477439 
L 61.186374 96.518141 
L 59.659363 96.427701 
L 58.060326 96.191571 
L 56.397289 95.794233 
L 54.681228 95.219565 
L 52.926525 94.451379 
L 51.151404 93.47418 
L 49.378275 92.274159 
L 47.633935 90.840439 
L 45.949559 89.16656 
L 44.360389 87.252143 
L 42.905053 85.104641 
L 41.624435 82.741007 
L 40.560078 80.189059 
L 39.75212 77.488282 
L 39.236857 74.689776 
L 39.04411 71.855118 
L 39.194637 69.053992 
L 39.697917 66.36063 
L 40.550632 63.849301 
L 41.736128 61.589324 
L 43.225024 59.640223 
L 44.976953 58.047677 
L 46.94325 56.84084 
L 49.070243 56.031352 
L 51.30272 55.614065 
L 53.587145 55.569229 
L 55.874321 55.865683 
L 58.121274 56.464487 
L 60.292337 57.322507 
L 62.359483 58.395566 
L 64.30207 59.640942 
L 66.106167 61.019125 
L 67.763632 62.49489 
L 69.271098 64.037795 
L 70.628956 65.622228 
L 71.840424 67.227158 
L 73.846425 70.434593 
L 75.343534 73.565246 
L 76.392167 76.565454 
L 77.049072 79.408475 
L 77.362292 82.083826 
L 77.369007 84.589891 
L 77.095046 86.928947 
L 76.555282 89.10376 
L 75.75445 91.115064 
L 74.688175 92.959416 
L 73.344189 94.627023 
L 71.703848 96.099252 
L 69.74425 97.345584 
L 67.441373 98.319923 
L 66.154532 98.685389 
L 64.774898 98.956344 
L 63.301708 99.120743 
L 61.735518 99.164821 
L 60.078632 99.073059 
L 58.33559 98.828242 
L 56.513717 98.411627 
L 54.623723 97.803289 
L 52.680327 96.982677 
L 50.702862 95.929445 
L 48.715819 94.6246 
L 46.749233 93.052009 
L 44.838832 91.200257 
L 43.025829 89.064833 
L 41.356228 86.650498 
L 39.879558 83.973671 
L 38.646934 81.064502 
L 37.708453 77.968268 
L 37.110011 74.745664 
L 36.889759 71.471594 
L 37.074549 68.232193 
L 37.676828 65.120103 
L 38.692488 62.228295 
L 40.100098 59.64316 
L 41.861783 57.437787 
L 43.925731 55.666459 
L 46.230019 54.361208 
L 48.707226 53.530884 
L 51.289156 53.162708 
L 53.911087 53.225809 
L 56.515066 53.676002 
L 59.052061 54.460926 
L 61.482952 55.524862 
L 63.778543 56.812706 
L 65.91884 58.272891 
L 67.891887 59.859246 
L 69.692382 61.531922 
L 71.320274 63.257599 
L 72.779454 65.009203 
L 74.0766 66.765308 
L 76.219913 70.229104 
L 77.827659 73.562111 
L 78.978584 76.721672 
L 79.743532 79.692225 
L 80.181308 82.473554 
L 80.337442 85.073292 
L 80.244467 87.502308 
L 79.922841 89.771886 
L 79.38205 91.891915 
L 78.621641 93.86955 
L 77.632113 95.707964 
L 76.395683 97.404891 
L 74.887059 98.950713 
L 73.074454 100.325816 
L 70.921227 101.496983 
L 68.388737 102.412601 
L 66.968802 102.751968 
L 65.441285 102.996681 
L 63.803525 103.132325 
L 62.054313 103.142135 
L 60.19443 103.006866 
L 58.227283 102.704748 
L 56.159645 102.21159 
L 54.002492 101.5011 
L 51.771902 100.54549 
L 49.489979 99.316469 
L 47.185714 97.786715 
L 44.895687 95.931894 
L 42.664458 93.73328 
L 40.54446 91.18092 
L 38.59521 88.27723 
L 36.881635 85.040691 
L 35.471361 81.509201 
L 34.430924 77.742423 
L 33.821023 73.822395 
L 33.691159 69.851684 
L 34.074271 65.948628 
L 34.982153 62.239664 
L 36.40254 58.849397 
L 38.298574 55.889733 
L 40.611013 53.44982 
L 43.262978 51.588593 
L 46.166536 50.33119 
L 49.230021 49.669686 
L 52.364952 49.56762 
L 55.491608 49.967089 
L 58.542745 50.796874 
L 61.465375 51.980209 
L 64.220861 53.441219 
L 66.783787 55.109557 
L 69.140105 56.923232 
L 71.284964 58.829864 
L 73.22056 60.786791 
L 74.954181 62.760402 
L 76.49656 64.725058 
L 79.060062 68.557309 
L 81.022553 72.191315 
L 82.493494 75.589937 
L 83.570015 78.747253 
L 84.333198 81.673449 
L 84.847852 84.385974 
L 85.259464 88.097603 
L 85.337322 91.438661 
L 85.146708 94.46744 
L 84.713565 97.23322 
L 84.031935 99.776477 
L 83.423652 101.364454 
L 82.673171 102.87499 
L 81.757575 104.312872 
L 80.647594 105.679784 
L 79.306956 106.973 
L 77.691732 108.183315 
L 75.749895 109.291865 
L 73.421483 110.265365 
L 70.640087 111.049211 
L 67.336835 111.557858 
L 65.469248 111.670745 
L 63.448772 111.662232 
L 61.270995 111.506953 
L 58.934367 111.174998 
L 56.441311 110.631616 
L 53.799584 109.837171 
L 51.02385 108.747477 
L 48.137449 107.314721 
L 45.174261 105.489197 
L 42.180504 103.222103 
L 39.216221 100.469628 
L 36.356118 97.198464 
L 33.689298 93.392692 
L 31.317403 89.061652 
L 29.350662 84.247965 
L 27.901468 79.034306 
L 27.075474 73.547065 
L 26.960727 67.954782 
L 27.616106 62.459658 
L 29.061092 57.281611 
L 31.269249 52.63629 
L 34.167522 48.71065 
L 37.642267 45.641157 
L 41.551244 43.499626 
L 45.739133 42.289758 
L 50.053339 41.954425 
L 54.357086 42.39083 
L 58.537995 43.469189 
L 62.511736 45.050644 
L 66.221561 47.001511 
L 69.635044 49.202676 
L 72.739458 51.554327 
L 75.536878 53.977059 
L 78.039712 56.410595 
L 80.267005 58.81121 
L 82.241583 61.148708 
L 85.530988 65.563769 
L 88.102113 69.581347 
L 90.131285 73.19471 
L 92.47975 77.910195 
L 96.000971 85.190434 
L 97.110832 87.067568 
L 98.285399 88.690316 
L 99.572278 90.058895 
L 101.015608 91.164847 
L 102.657505 91.990325 
L 104.538597 92.507158 
L 106.697422 92.675874 
L 109.1683 92.445021 
L 111.977166 91.751473 
L 115.134719 90.522846 
L 118.626344 88.683783 
L 120.482699 87.513865 
L 122.398689 86.168368 
L 124.358999 84.643946 
L 126.343921 82.940969 
L 128.328977 81.064661 
L 130.284696 79.026293 
L 132.17662 76.844327 
L 133.965613 74.545385 
L 135.608563 72.164866 
L 137.059511 69.74701 
L 138.271287 67.344224 
L 139.197626 65.01551 
L 139.795722 62.823907 
L 140.029114 60.83301 
L 139.870676 59.102774 
L 139.305436 57.685014 
L 138.332846 56.619137 
L 136.968116 55.928759 
L 135.24227 55.619757 
L 133.200746 55.680163 
L 130.900568 56.081949 
L 128.406418 56.78441 
L 125.786119 57.738584 
L 123.106154 58.89196 
L 120.427798 60.192789 
L 115.278999 63.052962 
L 110.646092 66.021493 
L 106.68194 68.918194 
L 103.420169 71.659626 
L 100.8203 74.224058 
L 98.805742 76.620778 
L 97.289342 78.869807 
L 96.187936 80.99105 
L 95.42932 82.99976 
L 94.954702 84.905489 
L 94.71876 86.712592 
L 94.688622 88.421192 
L 94.842496 90.028053 
L 95.168335 91.527153 
L 95.662711 92.909872 
L 96.329953 94.164813 
L 97.181545 95.277253 
L 98.235714 96.228229 
L 99.51712 96.993255 
L 101.056471 97.540647 
L 102.889834 97.829473 
L 105.05725 97.807218 
L 107.600109 97.407441 
L 110.55646 96.548057 
L 113.953214 95.13149 
L 115.819232 94.18044 
L 117.794035 93.048899 
L 119.871596 91.723403 
L 122.041975 90.191853 
L 124.290519 88.444596 
L 126.597066 86.47577 
L 128.935201 84.284913 
L 131.271659 81.878774 
L 133.565976 79.273234 
L 135.770512 76.495136 
L 137.830972 73.583797 
L 139.687553 70.591867 
L 141.276816 67.585173 
L 142.534352 64.641206 
L 143.398246 61.845986 
L 143.813229 59.28922 
L 143.735313 57.05796 
L 143.13647 55.229319 
L 142.008792 53.863152 
L 140.367385 52.995882 
L 138.251266 52.636642 
L 135.721741 52.766636 
L 132.858197 53.341972 
L 129.751756 54.299492 
L 126.497803 55.564462 
L 123.188602 57.058635 
L 119.907112 58.707357 
L 113.689367 62.216842 
L 108.213413 65.711755 
L 103.624301 68.996815 
L 99.911095 72.011401 
L 96.978981 74.768387 
L 94.701581 77.309203 
L 92.951239 79.678634 
L 91.613375 81.913983 
L 90.591413 84.042348 
L 89.806902 86.081632 
L 88.942729 88.996133 
L 88.144588 92.638218 
L 86.447208 101.333275 
L 85.612486 104.063371 
L 84.786514 105.98357 
L 83.712054 107.806924 
L 82.813723 108.972655 
L 81.731222 110.098986 
L 80.423952 111.182873 
L 78.843278 112.215958 
L 76.931477 113.181314 
L 74.621184 114.048502 
L 71.836007 114.766194 
L 68.493514 115.251507 
L 66.587551 115.368966 
L 64.512655 115.375325 
L 62.261362 115.244163 
L 59.828795 114.943734 
L 57.213867 114.436409 
L 54.42079 113.678312 
L 51.460903 112.619327 
L 48.35479 111.20369 
L 45.13463 109.371462 
L 41.846616 107.061229 
L 38.553192 104.214383 
L 35.334704 100.781284 
L 32.289943 96.729419 
L 29.534918 92.053307 
L 27.199112 86.785326 
L 25.418589 81.005856 
L 24.325612 74.850307 
L 24.035111 68.510016 
L 24.629407 62.224134 
L 26.143732 56.26095 
L 28.556009 50.889784 
L 31.784197 46.347986 
L 35.693034 42.81029 
L 40.109465 40.368199 
L 44.843388 39.024448 
L 49.708935 38.702921 
L 54.541854 39.26981 
L 59.210351 40.559389 
L 63.619031 42.398083 
L 67.707248 44.622793 
L 71.443996 47.092104 
L 74.821344 49.691084 
L 77.847915 52.3314 
L 80.543227 54.948598 
L 82.933247 57.498112 
L 85.047124 59.951013 
L 88.566226 64.506673 
L 91.329857 68.564486 
L 94.489369 73.757448 
L 98.361513 80.363999 
L 99.737618 82.391661 
L 101.132793 84.099713 
L 102.60706 85.495125 
L 104.211091 86.574569 
L 105.98795 87.324569 
L 107.973552 87.721746 
L 110.195661 87.733451 
L 112.671182 87.319299 
L 115.401528 86.434362 
L 118.365937 85.035085 
L 121.513046 83.089049 
L 124.751733 80.589449 
L 127.943434 77.573917 
L 129.464565 75.901674 
L 130.899511 74.144949 
L 132.21802 72.329284 
L 133.388354 70.485507 
L 134.378349 68.649244 
L 135.156724 66.859944 
L 135.694628 65.15942 
L 135.96732 63.589914 
L 135.955891 62.19182 
L 135.648864 61.001229 
L 135.043502 60.047568 
L 134.146647 59.351593 
L 132.974923 58.924026 
L 131.554214 58.765027 
L 129.918412 58.864591 
L 128.107532 59.203816 
L 126.165389 59.756858 
L 124.137106 60.493281 
L 119.995128 62.386017 
L 115.987518 64.632702 
L 112.334045 67.03076 
L 109.161165 69.441786 
L 106.51745 71.78552 
L 104.397731 74.023434 
L 102.766107 76.14177 
L 102.118147 77.155275 
L 102.118147 77.155275 
" clip-path="url(#pe21dd49f5f)" style="fill: none; stroke: #1f77b4; stroke-width: 1.5; stroke-linecap: round"/>
   </g>
   <g id="line2d_29">
    <path d="M 123.75924 105.413632 
L 125.666835 102.33251 
L 130.290967 95.807042 
L 135.647098 88.543903 
L 138.440554 84.58364 
L 141.203427 80.41186 
L 143.838595 76.064464 
L 146.236516 71.60626 
L 148.27842 67.132964 
L 149.842174 62.770022 
L 150.810916 58.666967 
L 151.083938 54.986478 
L 150.58856 51.888391 
L 149.290985 49.510427 
L 147.203735 47.948986 
L 144.387535 47.244278 
L 140.946549 47.373687 
L 137.017486 48.255432 
L 132.754683 49.761769 
L 128.314212 51.738382 
L 123.840017 54.025235 
L 119.454117 56.474502 
L 111.299768 61.397024 
L 101.267461 67.878017 
L 96.125511 71.389965 
L 92.071067 74.355591 
L 88.910379 76.925305 
L 86.447165 79.232588 
L 84.503831 81.373799 
L 82.928457 83.408856 
L 80.985577 86.32602 
L 78.098398 90.86878 
L 76.198205 93.356883 
L 74.748512 94.882602 
L 73.097829 96.274082 
L 71.20253 97.498965 
L 69.022044 98.513845 
L 66.520867 99.260169 
L 65.141332 99.509046 
L 63.672965 99.659618 
L 62.115235 99.69829 
L 60.469369 99.609777 
L 58.738821 99.377123 
L 56.929811 98.981822 
L 55.051924 98.404109 
L 53.118745 97.623444 
L 51.1485 96.61927 
L 49.164627 95.372086 
L 47.19622 93.864874 
L 45.278218 92.084902 
L 43.451221 90.025852 
L 41.760814 87.690185 
L 40.256246 85.091519 
L 38.988433 82.256746 
L 38.007249 79.22749 
L 37.358263 76.060486 
L 37.079175 72.826504 
L 37.196343 69.607579 
L 37.721896 66.492561 
L 38.651892 63.571336 
L 39.965897 60.92837 
L 41.628119 58.636433 
L 43.589988 56.75142 
L 45.793821 55.308986 
L 48.17702 54.323384 
L 50.676266 53.788493 
L 53.23118 53.680634 
L 55.787157 53.962577 
L 58.297211 54.588023 
L 60.722878 55.505957 
L 63.034312 56.664431 
L 65.209804 58.013504 
L 67.234904 59.507298 
L 69.101362 61.105211 
L 70.806011 62.772441 
L 72.349693 64.479991 
L 73.736294 66.204323 
L 76.06408 69.633042 
L 77.852622 72.956574 
L 79.173289 76.120639 
L 80.095205 79.101799 
L 80.679468 81.895173 
L 80.97639 84.506209 
L 81.024589 86.945429 
L 80.851134 89.22515 
L 80.472198 91.357414 
L 79.893874 93.352595 
L 79.112969 95.21831 
L 78.11767 96.958352 
L 76.888113 98.571397 
L 75.396934 100.049245 
L 73.610011 101.374348 
L 71.487746 102.51633 
L 68.987447 103.427245 
L 66.067677 104.035422 
L 64.43965 104.195307 
L 62.695804 104.238138 
L 60.835466 104.144999 
L 58.860419 103.894221 
L 56.775675 103.461382 
L 54.59038 102.819489 
L 52.318818 101.939451 
L 49.981491 100.790925 
L 47.606184 99.343671 
L 45.228901 97.569503 
L 42.8945 95.444927 
L 40.656804 92.954458 
L 38.577929 90.094508 
L 36.726573 86.87753 
L 35.17507 83.335931 
L 33.995144 79.525016 
L 33.252564 75.524127 
L 33.001155 71.435158 
L 33.276945 67.377925 
L 34.093399 63.482394 
L 35.438687 59.878487 
L 37.275639 56.684874 
L 39.544566 53.99855 
L 42.168532 51.88698 
L 45.060168 50.38404 
L 48.1289 49.490175 
L 51.287497 49.176291 
L 54.457186 49.390255 
L 57.570957 50.064607 
L 60.575096 51.124179 
L 63.429244 52.49266 
L 66.105414 54.097593 
L 68.586388 55.873683 
L 70.863849 57.764564 
L 72.936523 59.723356 
L 74.808466 61.71235 
L 76.487584 63.702161 
L 77.984411 65.670614 
L 80.480817 69.483692 
L 82.402474 73.074782 
L 83.853203 76.415721 
L 84.927136 79.505764 
L 85.704927 82.358212 
L 86.457603 86.234614 
L 86.85778 89.691877 
L 87.016598 92.796602 
L 86.964971 96.485095 
L 86.675795 99.756132 
L 86.152981 102.694285 
L 85.578074 104.720609 
L 84.800932 106.621929 
L 83.758696 108.418423 
L 82.874229 109.565391 
L 81.799439 110.674461 
L 80.492776 111.744374 
L 78.903752 112.768559 
L 76.971691 113.73187 
L 74.624876 114.605522 
L 71.780765 115.33933 
L 68.34854 115.85022 
L 66.382857 115.98321 
L 64.236279 116.005905 
L 61.899678 115.890544 
L 59.366524 115.603393 
L 56.634255 115.104007 
L 53.706054 114.344672 
L 50.593061 113.270243 
L 47.317044 111.818648 
L 43.913433 109.922463 
L 40.434548 107.512013 
L 36.952612 104.520533 
L 33.561932 100.891797 
L 30.379347 96.590377 
L 27.541839 91.614061 
L 25.200228 86.007027 
L 23.508232 79.871246 
L 22.607143 73.372536 
L 22.607755 66.73747 
L 23.572761 60.238477 
L 25.50378 54.167256 
L 28.336876 48.800453 
L 31.948557 44.364797 
L 36.171257 41.009965 
L 40.81461 38.79539 
L 45.687474 37.69297 
L 50.616183 37.602986 
L 55.456417 38.377588 
L 60.098277 39.845633 
L 64.465805 41.834074 
L 68.512921 44.183367 
L 72.2177 46.756475 
L 75.57642 49.442428 
L 78.598219 52.15596 
L 81.300748 54.834812 
L 83.706842 57.435934 
L 87.733227 62.305096 
L 90.888776 66.660257 
L 93.374464 70.495545 
L 96.228595 75.355159 
L 99.784219 81.448832 
L 101.083083 83.286595 
L 102.42482 84.811401 
L 103.867659 86.028332 
L 105.460667 86.931853 
L 107.245182 87.505969 
L 109.254975 87.724547 
L 111.514855 87.552164 
L 114.0374 86.946048 
L 116.817507 85.859982 
L 119.824635 84.25134 
L 122.993102 82.092527 
L 126.211827 79.387648 
L 127.790861 77.845559 
L 129.316517 76.193713 
L 130.759872 74.45112 
L 132.089351 72.642499 
L 133.271583 70.798347 
L 134.272598 68.954578 
L 135.05935 67.151633 
L 135.601498 65.433009 
L 135.873347 63.84323 
L 135.855766 62.425355 
L 135.537889 61.218238 
L 134.918377 60.253836 
L 134.006051 59.554887 
L 132.819773 59.1333 
L 131.387541 58.989488 
L 129.744874 59.112754 
L 127.932674 59.482667 
L 125.994811 60.071228 
L 123.975694 60.845475 
L 119.861275 62.810471 
L 115.883088 65.110548 
L 112.251363 67.533014 
L 109.089257 69.938349 
L 106.447551 72.252183 
L 104.326068 74.445387 
L 102.694079 76.513829 
L 101.506302 78.463249 
L 100.713966 80.300112 
L 100.27172 82.027159 
L 100.141491 83.641864 
L 100.294282 85.136343 
L 100.710697 86.497726 
L 101.380681 87.708454 
L 102.302814 88.746254 
L 103.483282 89.583707 
L 104.934519 90.187484 
L 106.673374 90.517363 
L 108.718513 90.525312 
L 111.086635 90.155053 
L 113.786928 89.342866 
L 116.813149 88.020754 
L 120.132835 86.123613 
L 123.673704 83.602386 
L 125.489882 82.101761 
L 127.308608 80.444907 
L 129.103289 78.640744 
L 130.84273 76.704295 
L 132.491374 74.657598 
L 134.009925 72.530355 
L 135.35643 70.360165 
L 136.48786 68.192128 
L 137.362179 66.077676 
L 137.940827 64.072532 
L 138.191446 62.233798 
L 138.09058 60.616342 
L 137.626042 59.268824 
L 136.798598 58.229831 
L 135.622677 57.524661 
L 134.12593 57.163295 
L 132.347632 57.139868 
L 130.336087 57.433785 
L 128.145384 58.012257 
L 125.831908 58.833856 
L 123.451021 59.852505 
L 118.687287 62.296007 
L 114.188924 65.011161 
L 110.172693 67.760385 
L 106.745316 70.408981 
L 103.93056 72.902197 
L 101.699528 75.233559 
L 99.995813 77.418358 
L 98.753235 79.476633 
L 97.906959 81.424525 
L 97.399705 83.27122 
L 97.184702 85.01884 
L 97.226666 86.663508 
L 97.501666 88.19654 
L 97.996469 89.60529 
L 98.707676 90.873447 
L 99.640835 91.980783 
L 100.809574 92.902372 
L 102.234674 93.607344 
L 103.94292 94.057269 
L 105.965421 94.204294 
L 108.334908 93.989322 
L 111.081365 93.340777 
L 114.225039 92.174976 
L 117.76579 90.399841 
L 119.675787 89.25492 
L 121.667786 87.924633 
L 123.728421 86.400992 
L 125.839389 84.679187 
L 127.97673 82.758916 
L 130.11022 80.645916 
L 132.202992 78.353607 
L 134.211507 75.90472 
L 136.086043 73.332698 
L 137.771842 70.682591 
L 139.21105 68.011116 
L 140.345501 65.385553 
L 141.120286 62.881196 
L 141.487883 60.57727 
L 141.412466 58.551471 
L 140.873844 56.873633 
L 139.87041 55.599317 
L 138.420536 54.764354 
L 136.562052 54.381316 
L 134.349733 54.438635 
L 131.851122 54.902575 
L 129.14129 55.721699 
L 126.29731 56.832977 
L 123.393184 58.168443 
L 120.495806 59.661339 
L 114.93845 62.885924 
L 109.947694 66.139797 
L 105.680333 69.220879 
L 102.168406 72.05795 
L 99.366803 74.657283 
L 97.191881 77.05787 
L 95.547407 79.303682 
L 94.339798 81.430627 
L 93.485915 83.462833 
L 92.916226 85.413608 
L 92.575322 87.288073 
L 92.421069 89.085901 
L 92.47626 91.630545 
L 92.825409 93.975201 
L 93.450467 96.095989 
L 94.027659 97.371416 
L 94.747575 98.523877 
L 95.62947 99.539891 
L 96.698949 100.401954 
L 97.988265 101.086919 
L 99.53664 101.5639 
L 101.390388 101.79163 
L 103.602486 101.715209 
L 106.230986 101.262331 
L 109.335311 100.339397 
L 112.968935 98.828609 
L 114.996265 97.809312 
L 117.166326 96.588386 
L 119.476943 95.145725 
L 121.92149 93.461494 
L 124.487609 91.517336 
L 127.155767 89.298048 
L 129.897723 86.793784 
L 132.675021 84.002814 
L 135.437696 80.934783 
L 138.123463 77.614282 
L 140.657742 74.084371 
L 142.954909 70.409472 
L 144.921191 66.676835 
L 146.459476 62.99564 
L 147.476088 59.49286 
L 147.889157 56.305318 
L 147.637717 53.568121 
L 146.690157 51.400624 
L 145.050389 49.892106 
L 142.760191 49.090024 
L 139.896821 48.993632 
L 136.566016 49.554654 
L 132.891538 50.685054 
L 129.003269 52.270075 
L 125.025971 54.18356 
L 121.070444 56.302392 
L 113.568019 60.741327 
L 106.969597 64.977548 
L 101.452674 68.741103 
L 96.99725 71.999915 
L 93.480339 74.837369 
L 90.740479 77.366549 
L 88.613857 79.687108 
L 86.951374 81.871138 
L 85.624798 83.963802 
L 84.036245 86.980651 
L 80.396367 94.388443 
L 79.329433 96.070371 
L 78.111417 97.667238 
L 76.700032 99.165825 
L 75.051398 100.547503 
L 73.11937 101.785211 
L 70.855931 102.839308 
L 68.213191 103.652122 
L 66.735692 103.943441 
L 65.147904 104.141135 
L 63.446509 104.229733 
L 61.629813 104.191252 
L 59.698332 104.005034 
L 57.655512 103.647675 
L 55.50857 103.093124 
L 53.269459 102.313024 
L 50.955917 101.277386 
L 48.592547 99.955721 
L 46.21181 98.318732 
L 43.854811 96.340662 
L 41.571647 94.002332 
L 39.421081 91.294812 
L 37.469292 88.223499 
L 35.787444 84.812193 
L 34.447975 81.106519 
L 33.519671 77.175908 
L 33.061872 73.113264 
L 33.11847 69.031666 
L 33.712587 65.057841 
L 34.842918 61.322856 
L 36.482536 57.951143 
L 38.580548 55.049547 
L 41.066444 52.698256 
L 43.856385 50.945088 
L 46.860394 49.803936 
L 49.989281 49.257222 
L 53.1604 49.261476 
L 56.301712 49.754703 
L 59.354017 50.664161 
L 62.271573 51.91343 
L 65.021494 53.428086 
L 67.58235 55.139683 
L 69.942386 56.988127 
L 72.097631 58.922685 
L 74.05012 60.901988 
L 75.806313 62.893372 
L 77.375771 64.871849 
L 80.002001 68.72146 
L 82.031885 72.360507 
L 83.570215 75.752779 
L 84.713426 78.893136 
L 85.544985 81.792717 
L 86.13403 84.470139 
L 86.680355 88.116043 
L 86.938374 91.379441 
L 86.977387 95.240947 
L 86.758775 98.650307 
L 86.307684 101.699878 
L 85.797704 103.795365 
L 85.103133 105.755392 
L 84.169646 107.60186 
L 83.377383 108.778501 
L 82.41501 109.915741 
L 81.245582 111.014362 
L 79.82399 112.071099 
L 78.095664 113.076137 
L 75.99546 114.00917 
L 73.447169 114.833315 
L 70.364557 115.485922 
L 66.655565 115.86518 
L 64.538135 115.905335 
L 62.232512 115.811632 
L 59.731814 115.551323 
L 57.032909 115.085087 
L 54.138123 114.366442 
L 51.057379 113.341524 
L 47.810784 111.949483 
L 44.431607 110.12388 
L 40.969464 107.795542 
L 37.493364 104.897371 
L 34.09403 101.371572 
L 30.88463 97.179477 
L 27.998863 92.313613 
L 25.585287 86.810784 
L 23.797133 80.763803 
L 22.777654 74.328456 
L 22.64244 67.721927 
L 23.461659 61.209764 
L 25.246275 55.081051 
L 27.942205 49.615125 
L 31.434715 45.046586 
L 35.562557 41.53681 
L 40.138495 39.158577 
L 44.971343 37.89645 
L 49.884846 37.660877 
L 54.730505 38.310725 
L 59.393597 39.678052 
L 63.793455 41.590048 
L 67.879864 43.885314 
L 71.627547 46.423753 
L 75.030235 49.09086 
L 78.095237 51.797885 
L 80.83896 54.47944 
L 83.283446 57.089846 
L 87.376605 61.989419 
L 90.584853 66.382096 
L 93.109783 70.256184 
L 96.000652 75.171444 
L 99.571521 81.349161 
L 100.864314 83.219084 
L 102.194596 84.77643 
L 103.621429 86.027168 
L 105.194663 86.966666 
L 106.95648 87.579804 
L 108.941711 87.84123 
L 111.176616 87.716076 
L 113.675832 87.161689 
L 116.437148 86.131202 
L 119.43393 84.580123 
L 122.605473 82.477219 
L 125.846488 79.8207 
L 127.44573 78.29745 
L 128.998521 76.659279 
L 130.476434 74.9239 
L 131.84817 73.114746 
L 133.080339 71.261137 
L 134.138584 69.398044 
L 134.98904 67.565336 
L 135.600095 65.806437 
L 135.944329 64.166401 
L 136.000498 62.68948 
L 135.755336 61.416371 
L 135.20498 60.381429 
L 134.355787 59.610168 
L 133.224411 59.117419 
L 131.837076 58.906391 
L 130.228094 58.968807 
L 128.437795 59.28608 
L 126.510108 59.831353 
L 124.490073 60.572089 
L 120.345173 62.497918 
L 116.30833 64.789205 
L 112.602137 67.222714 
L 109.360059 69.649253 
L 106.640009 71.987683 
L 104.445893 74.205202 
L 102.748688 76.296352 
L 101.503223 78.266963 
L 100.659881 80.124263 
L 100.171977 81.871961 
L 99.999911 83.50849 
L 100.113152 85.026844 
L 100.490861 86.414968 
L 101.121697 87.656113 
L 102.003151 88.728868 
L 103.140563 89.606786 
L 104.54584 90.257646 
L 106.23574 90.642458 
L 108.229465 90.714462 
L 110.545145 90.41851 
L 113.194672 89.691496 
L 116.176232 88.464919 
L 119.463983 86.671118 
L 122.994757 84.2552 
L 124.817574 82.804911 
L 126.652802 81.194544 
L 128.475429 79.430853 
L 130.255744 77.526379 
L 131.959448 75.500448 
L 133.548119 73.37997 
L 134.980114 71.199872 
L 136.211976 69.002984 
L 137.200345 66.83918 
L 137.904352 64.76365 
L 138.288319 62.83427 
L 138.324577 61.108156 
L 137.996055 59.637688 
L 137.298317 58.466442 
L 136.240702 57.625579 
L 134.846334 57.131242 
L 133.150924 56.983407 
L 131.200471 57.1664 
L 129.048143 57.650995 
L 126.750749 58.397732 
L 124.365233 59.36092 
L 121.945593 60.492702 
L 117.191594 63.08069 
L 112.790627 65.851384 
L 108.923613 68.598742 
L 105.667269 71.216531 
L 103.024324 73.669542 
L 100.953289 75.961844 
L 99.391625 78.112744 
L 98.271361 80.142532 
L 97.528499 82.065927 
L 97.10801 83.890267 
L 96.966008 85.616006 
L 97.070257 87.237968 
L 97.399788 88.746521 
L 97.944125 90.128299 
L 98.702391 91.366363 
L 99.682438 92.439798 
L 100.899996 93.322809 
L 102.377773 93.983355 
L 104.144275 94.38143 
L 106.232038 94.46712 
L 108.674745 94.17875 
L 111.502489 93.441738 
L 114.734229 92.169268 
L 118.366296 90.266714 
L 120.321192 89.049974 
L 122.356007 87.642696 
L 124.45581 86.037469 
L 126.600397 84.230494 
L 128.763569 82.223021 
L 130.912568 80.022974 
L 133.007764 77.646658 
L 135.00277 75.120401 
L 136.845122 72.481879 
L 138.4777 69.780824 
L 139.840981 67.078754 
L 140.876179 64.447401 
L 141.52913 61.965585 
L 141.754668 59.714509 
L 141.521008 57.771756 
L 140.813551 56.204607 
L 139.637454 55.06362 
L 138.018436 54.37755 
L 136.001525 54.15057 
L 133.647825 54.362379 
L 131.029732 54.971224 
L 128.225328 55.91924 
L 125.312763 57.139116 
L 122.365354 58.560908 
L 116.614475 61.751429 
L 111.357647 65.064411 
L 106.802785 68.243257 
L 103.015217 71.181002 
L 99.967158 73.866966 
L 97.581061 76.336024 
L 95.760044 78.63465 
L 94.406369 80.803552 
L 93.43126 82.871637 
L 92.759218 84.856046 
L 92.329111 86.764643 
L 92.093572 88.598945 
L 92.03149 91.205345 
L 92.256521 93.623052 
L 92.737668 95.831813 
L 93.479282 97.807995 
L 94.134584 98.9819 
L 94.938486 100.027875 
L 95.914794 100.930923 
L 97.093714 101.671125 
L 98.512306 102.221748 
L 100.21485 102.546836 
L 102.252878 102.598155 
L 104.684367 102.31149 
L 107.571341 101.602493 
L 110.974615 100.362743 
L 114.943788 98.457697 
L 117.14895 97.207092 
L 119.499899 95.729884 
L 121.990277 94.005148 
L 124.607821 92.013364 
L 127.332839 89.738151 
L 130.136579 87.168581 
L 132.979603 84.302084 
L 135.810388 81.147912 
L 138.564406 77.73096 
L 141.164089 74.095566 
L 143.520101 70.308668 
L 145.534363 66.461451 
L 147.105136 62.668465 
L 148.134248 59.063229 
L 148.536042 55.789717 
L 148.247121 52.989897 
L 147.235378 50.788587 
L 145.506514 49.278068 
L 143.106373 48.5056 
L 140.118135 48.46686 
L 136.654532 49.107155 
L 132.846451 50.330271 
L 128.830125 52.012874 
L 124.735247 54.021105 
L 120.675821 56.225909 
L 113.011248 60.797404 
L 106.307215 65.110311 
L 100.727588 68.905926 
L 96.237016 72.16847 
L 92.699733 74.994895 
L 89.944964 77.507036 
L 87.802508 79.809183 
L 86.118956 81.97534 
L 84.763094 84.051019 
L 83.110504 87.042911 
L 80.206722 92.631916 
L 78.562052 95.191579 
L 77.285728 96.787402 
L 75.814304 98.276682 
L 74.103431 99.637479 
L 72.107733 100.838753 
L 69.781534 101.836146 
L 67.08143 102.56658 
L 65.579447 102.805287 
L 63.971582 102.941828 
L 62.256059 102.960133 
L 60.433029 102.841783 
L 58.505177 102.565942 
L 56.478448 102.10942 
L 54.36287 101.446936 
L 52.173458 100.551649 
L 49.931159 99.396059 
L 47.663742 97.953368 
L 45.406541 96.199378 
L 43.202868 94.114974 
L 41.103924 91.689171 
L 39.167963 88.922565 
L 37.458527 85.830915 
L 36.04159 82.448359 
L 34.981635 78.829654 
L 34.336846 75.050725 
L 34.153864 71.206873 
L 34.462808 67.40829 
L 35.273328 63.772985 
L 36.572487 60.417785 
L 38.324959 57.448658 
L 40.475643 54.951846 
L 42.954326 52.98726 
L 45.681613 51.58512 
L 48.575192 50.746155 
L 51.555537 50.444946 
L 54.550399 50.635488 
L 57.497791 51.257817 
L 60.347445 52.244616 
L 63.061005 53.526984 
L 65.611276 55.038905 
L 67.980905 56.720299 
L 70.160789 58.518742 
L 72.148444 60.390114 
L 73.946482 62.298461 
L 75.561263 64.215352 
L 77.00177 66.118968 
L 79.403669 69.826083 
L 81.246085 73.339801 
L 82.623626 76.627242 
L 83.622762 79.683041 
L 84.317708 82.516597 
L 84.769158 85.144365 
L 85.024628 87.585438 
L 85.115071 90.938951 
L 84.91861 93.97575 
L 84.468692 96.747411 
L 83.763319 99.296111 
L 83.13603 100.887912 
L 82.363875 102.402483 
L 81.423462 103.844491 
L 80.284767 105.215352 
L 78.910515 106.511915 
L 77.255536 107.724348 
L 75.266324 108.832861 
L 72.881236 109.802777 
L 70.032051 110.57735 
L 66.648197 111.067698 
L 64.735133 111.166523 
L 62.665708 111.13956 
L 60.435706 110.960371 
L 58.044049 110.597763 
L 55.494047 110.015486 
L 52.794931 109.172224 
L 49.963648 108.022019 
L 47.026894 106.515385 
L 44.023233 104.601365 
L 41.005101 102.230827 
L 38.040321 99.36125 
L 35.212639 95.963086 
L 32.620665 92.027514 
L 30.37456 87.574921 
L 28.58999 82.66286 
L 27.379237 77.391646 
L 26.840051 71.905421 
L 27.043645 66.386748 
L 28.023973 61.043876 
L 29.77074 56.09154 
L 32.22807 51.728246 
L 35.299596 48.114423 
L 38.859103 45.356037 
L 42.764451 43.496877 
L 46.871925 42.520423 
L 51.048428 42.359723 
L 55.179937 42.912136 
L 59.175819 44.055398 
L 62.969529 45.662093 
L 66.516759 47.610796 
L 69.792125 49.793336 
L 72.785348 52.118481 
L 75.497547 54.512834 
L 77.93799 56.91985 
L 80.121438 59.297786 
L 82.066087 61.617209 
L 85.320071 66.009542 
L 87.865283 70.018821 
L 89.859558 73.633756 
L 92.119778 78.363806 
L 96.283159 87.640072 
L 97.294102 89.324988 
L 98.400063 90.776897 
L 99.645313 91.992471 
L 101.072452 92.959551 
L 102.723731 93.656149 
L 104.641545 94.04917 
L 106.86776 94.092983 
L 109.441417 93.728189 
L 112.394078 92.881308 
L 115.74186 91.466689 
L 117.56181 90.517794 
L 119.473132 89.392802 
L 121.467184 88.08161 
L 123.531158 86.576061 
L 125.647323 84.871043 
L 127.792304 82.965813 
L 129.936453 80.865529 
L 132.043441 78.582906 
L 134.070183 76.139867 
L 135.967281 73.569002 
L 137.680099 70.914531 
L 139.150648 68.232474 
L 140.320306 65.589662 
L 141.133354 63.061314 
L 141.541106 60.727058 
L 141.50626 58.665542 
L 141.006937 56.948076 
L 140.039771 55.632139 
L 138.621482 54.755728 
L 136.788526 54.33359 
L 134.594726 54.356085 
L 132.107182 54.790935 
L 129.401039 55.587555 
L 126.553902 56.68313 
L 123.640658 58.009331 
L 120.729299 59.498607 
L 115.134075 62.728564 
L 110.099279 65.997259 
L 105.787982 69.09566 
L 102.235837 71.948584 
L 99.399248 74.560843 
L 97.194732 76.971476 
L 95.525482 79.225158 
L 94.297003 81.35864 
L 93.425145 83.39679 
L 92.839382 85.353479 
L 92.483379 87.234231 
L 92.314156 89.039009 
L 92.345437 91.595817 
L 92.666741 93.955412 
L 93.257543 96.094931 
L 93.807022 97.385688 
L 94.494292 98.556491 
L 95.337613 99.594737 
L 96.361485 100.484091 
L 97.596956 101.20295 
L 99.081994 101.722457 
L 100.861711 102.003975 
L 102.98815 101.995942 
L 105.519066 101.630151 
L 108.514868 100.817739 
L 112.032314 99.445801 
L 114.000703 98.507847 
L 116.112981 97.37659 
L 118.3688 96.031837 
L 120.763881 94.4532 
L 123.288796 92.621115 
L 125.927582 90.518307 
L 128.656206 88.131756 
L 131.441002 85.455241 
L 134.237209 82.492416 
L 136.987866 79.260345 
L 139.623368 75.793174 
L 142.062077 72.145491 
L 144.212422 68.394645 
L 145.976833 64.641114 
L 147.257713 61.005956 
L 147.965282 57.624582 
L 148.026651 54.636606 
L 147.394957 52.172473 
L 146.056956 50.33861 
L 144.037388 49.203836 
L 141.39882 48.789997 
L 138.236559 49.06925 
L 134.669372 49.968838 
L 130.827713 51.382321 
L 126.841696 53.184618 
L 122.830812 55.247547 
L 118.89672 57.45294 
L 111.557161 61.917427 
L 105.209213 66.06217 
L 99.963766 69.696247 
L 95.761234 72.833533 
L 92.460047 75.575279 
L 89.893072 78.035966 
L 87.897578 80.309659 
L 86.328516 82.461374 
L 85.062566 84.530142 
L 83.513554 87.517514 
L 80.766216 93.104206 
L 79.197429 95.669206 
L 77.975773 97.274302 
L 76.56365 98.780017 
L 74.917146 100.167304 
L 72.990452 101.408764 
L 70.736244 102.464571 
L 68.107689 103.277133 
L 66.639565 103.567731 
L 65.062938 103.764461 
L 63.374708 103.852034 
L 61.573401 103.812723 
L 59.65975 103.626208 
L 57.637394 103.269528 
L 55.5137 102.717189 
L 53.300698 101.94152 
L 51.016092 100.913349 
L 48.684294 99.60313 
L 46.337375 97.982603 
L 44.015793 96.027087 
L 41.7687 93.718435 
L 39.65359 91.048571 
L 37.735054 88.023414 
L 36.082403 84.666769 
L 34.766065 81.023573 
L 33.852833 77.161742 
L 33.400291 73.171805 
L 33.451055 69.163693 
L 34.027676 65.260473 
L 35.129115 61.589418 
L 36.729579 58.2715 
L 38.780071 55.410887 
L 41.212497 53.086198 
L 43.945677 51.344943 
L 46.892217 50.2019 
L 49.965191 49.641334 
L 53.083736 49.622231 
L 56.177043 50.085302 
L 59.186611 50.960443 
L 62.06694 52.173573 
L 64.785029 53.652171 
L 67.319087 55.329225 
L 69.656839 57.145616 
L 71.79372 59.051197 
L 73.731146 61.004872 
L 75.474973 62.974017 
L 77.034197 64.933528 
L 79.644333 68.754105 
L 81.661116 72.374109 
L 83.186598 75.755123 
L 84.315093 78.890151 
L 85.128387 81.788914 
L 85.694208 84.469014 
L 86.193625 88.124054 
L 86.386351 91.401647 
L 86.35351 94.363106 
L 86.137514 97.060302 
L 85.75095 99.536226 
L 85.182085 101.826414 
L 84.397078 103.960166 
L 83.339214 105.960801 
L 82.442606 107.228801 
L 81.35619 108.44678 
L 80.040357 109.613034 
L 78.447084 110.720238 
L 76.518956 111.752277 
L 74.188631 112.679365 
L 71.379439 113.450696 
L 68.00832 113.983738 
L 66.086018 114.122862 
L 63.993245 114.149351 
L 61.72241 114.036647 
L 59.268566 113.752768 
L 56.630694 113.259712 
L 53.813338 112.513073 
L 50.828607 111.462038 
L 47.698551 110.050024 
L 44.457825 108.21628 
L 41.15644 105.898867 
L 37.862263 103.039409 
L 34.662707 99.589944 
L 31.664846 95.521929 
L 28.99306 90.836927 
L 26.783326 85.577762 
L 25.173636 79.837988 
L 24.290801 73.766764 
L 24.235006 67.566071 
L 25.064747 61.478133 
L 26.78552 55.763144 
L 29.345441 50.670356 
L 32.639523 46.408262 
L 36.522054 43.120574 
L 40.824265 40.873313 
L 45.373286 39.655074 
L 50.008542 39.388841 
L 54.593162 39.95104 
L 59.01969 41.192766 
L 63.210835 42.958927 
L 67.116787 45.102807 
L 70.710681 47.495279 
L 73.983525 50.029184 
L 76.939417 52.620024 
L 79.591486 55.204285 
L 81.958685 57.736489 
L 84.063369 60.185825 
L 87.581721 64.766685 
L 90.339433 68.87953 
L 92.51649 72.52787 
L 95.032323 77.20426 
L 98.22803 83.198032 
L 99.422071 85.052052 
L 100.670994 86.620083 
L 102.029672 87.905222 
L 103.546357 88.900521 
L 105.264258 89.588617 
L 107.222007 89.941348 
L 109.452706 89.919595 
L 111.981168 89.473827 
L 114.818837 88.546181 
L 117.955896 87.075357 
L 121.350302 85.006041 
L 123.118761 83.735049 
L 124.914281 82.304775 
L 126.716443 80.718309 
L 128.500408 78.983419 
L 130.236823 77.11355 
L 131.891995 75.128744 
L 133.42841 73.056343 
L 134.805671 70.931316 
L 135.981916 68.796042 
L 136.915713 66.699372 
L 137.568375 64.694872 
L 137.90655 62.838222 
L 137.904869 61.183882 
L 137.548344 59.781322 
L 136.834201 58.671216 
L 135.772842 57.882135 
L 134.387735 57.428232 
L 132.714173 57.308309 
L 130.797027 57.506444 
L 128.687755 57.99406 
L 126.441067 58.73311 
L 124.111631 59.679845 
L 121.751191 60.788619 
L 117.117029 63.319618 
L 112.82799 66.030509 
L 109.058315 68.724094 
L 105.882888 71.297322 
L 103.305727 73.714445 
L 101.288202 75.977261 
L 99.771144 78.102441 
L 98.689886 80.107935 
L 97.983406 82.006613 
L 97.599254 83.804389 
L 97.495749 85.500567 
L 97.642552 87.088923 
L 98.020348 88.558726 
L 98.620126 89.895336 
L 99.442305 91.080253 
L 100.495848 92.090632 
L 101.797323 92.898302 
L 103.369823 93.468367 
L 105.241492 93.757513 
L 107.443266 93.712229 
L 110.005264 93.267364 
L 112.95104 92.345819 
L 116.288715 90.860726 
L 118.099733 89.878583 
L 119.99799 88.722335 
L 121.973611 87.382704 
L 124.012511 85.852647 
L 126.095682 84.128469 
L 128.198523 82.211139 
L 130.290312 80.107781 
L 132.333897 77.83325 
L 134.285778 75.411644 
L 136.096691 72.877562 
L 137.712859 70.276811 
L 139.078005 67.666261 
L 140.136158 65.112538 
L 140.835183 62.689332 
L 141.130778 60.473255 
L 140.990559 58.538472 
L 140.397691 56.95061 
L 139.353497 55.760758 
L 137.878522 55.000509 
L 136.011753 54.678947 
L 133.807985 54.782184 
L 131.333682 55.275571 
L 128.66191 56.108166 
L 125.867095 57.218642 
L 123.020283 58.541574 
L 120.185414 60.013173 
L 114.758234 63.180566 
L 109.891682 66.373406 
L 105.733796 69.400916 
L 102.31396 72.195668 
L 99.588186 74.763093 
L 97.475787 77.13939 
L 95.884103 79.365459 
L 94.723108 81.474612 
L 93.91293 83.48903 
L 93.386962 85.42063 
L 93.092413 87.273508 
L 92.989555 89.046485 
L 93.050395 90.735112 
L 93.257247 92.332984 
L 93.601423 93.832393 
L 94.082192 95.224457 
L 94.70604 96.498803 
L 95.486239 97.642904 
L 96.442682 98.641062 
L 97.601927 99.473054 
L 98.99735 100.11236 
L 100.669227 100.523914 
L 102.664481 100.661329 
L 105.035637 100.463598 
L 107.838268 99.851534 
L 111.12578 98.724598 
L 114.939888 96.959707 
L 117.050484 95.794156 
L 119.294588 94.415031 
L 121.665536 92.803949 
L 124.151257 90.944016 
L 126.732955 88.821377 
L 129.383708 86.427245 
L 132.067114 83.760422 
L 134.736123 80.830259 
L 137.332323 77.659875 
L 139.78598 74.289334 
L 142.017183 70.778245 
L 143.938448 67.207102 
L 145.459034 63.67654 
L 146.491017 60.303736 
L 146.956807 57.21546 
L 146.797376 54.53788 
L 145.980008 52.384074 
L 144.504155 50.841078 
L 142.404011 49.95895 
L 139.746939 49.744292 
L 136.627712 50.159892 
L 133.159487 51.130724 
L 129.463143 52.554952 
L 125.656883 54.317477 
L 121.847702 56.303224 
L 114.56107 60.545002 
L 108.088268 64.674558 
L 102.632326 68.399316 
L 98.199184 71.659703 
L 94.686332 74.517742 
L 91.946576 77.073509 
L 89.825435 79.420256 
L 88.179787 81.6278 
L 86.885312 83.741215 
L 85.379471 86.78612 
L 81.344967 96.009314 
L 80.357094 97.659963 
L 79.21667 99.232756 
L 77.883853 100.718158 
L 76.315721 102.101881 
L 74.465448 103.362004 
L 72.282295 104.464977 
L 69.712924 105.36016 
L 66.70492 105.972651 
L 65.021937 106.140695 
L 63.213845 106.194448 
L 61.278386 106.113658 
L 59.215767 105.874874 
L 57.02952 105.451344 
L 54.727508 104.813088 
L 52.323096 103.927277 
L 49.836424 102.759028 
L 47.295733 101.272761 
L 44.738595 99.434277 
L 42.212855 97.21367 
L 39.777034 94.589127 
L 37.499843 91.551524 
L 35.458491 88.109517 
L 33.735476 84.294532 
L 32.413736 80.16479 
L 31.570312 75.807259 
L 31.269081 71.336444 
L 31.553493 66.889212 
L 32.440549 62.615564 
L 33.917274 58.666196 
L 35.940588 55.178636 
L 38.440798 52.264333 
L 41.328196 49.999035 
L 44.501525 48.418073 
L 47.856836 47.517016 
L 51.295331 47.256979 
L 54.729263 47.573035 
L 58.085498 48.383858 
L 61.306892 49.600967 
L 64.351924 51.136411 
L 67.193163 52.908359 
L 69.815135 54.844554 
L 72.211989 56.883922 
L 74.385271 58.976779 
L 76.341957 61.084114 
L 78.092806 63.17633 
L 81.031275 67.235303 
L 83.319056 71.050223 
L 85.076984 74.582058 
L 86.416656 77.827639 
L 87.435266 80.801681 
L 88.535217 84.802813 
L 89.517839 89.402691 
L 90.971585 96.645635 
L 91.596493 98.814472 
L 92.367405 100.71436 
L 92.99629 101.831152 
L 93.744361 102.822902 
L 94.639148 103.680498 
L 95.713088 104.389585 
L 97.004608 104.929054 
L 98.55914 105.268961 
L 100.429897 105.367694 
L 102.678095 105.168293 
L 105.372001 104.593884 
L 108.583785 103.542538 
L 112.382439 101.882585 
L 114.519375 100.774527 
L 116.820178 99.45081 
L 119.284882 97.88708 
L 121.908785 96.058598 
L 124.680899 93.94154 
L 127.582162 91.514876 
L 130.583465 88.762953 
L 133.643615 85.678846 
L 136.707463 82.268472 
L 139.704528 78.555285 
L 142.548569 74.585131 
L 145.138689 70.43053 
L 147.362529 66.193297 
L 149.102077 62.004163 
L 150.242219 58.018027 
L 150.681664 54.403874 
L 150.345063 51.329441 
L 149.1944 48.942155 
L 147.23725 47.349557 
L 144.529648 46.603473 
L 141.172275 46.692053 
L 137.300239 47.542116 
L 133.06841 49.031427 
L 128.635318 51.007824 
L 124.148742 53.310476 
L 119.735221 55.788675 
L 111.497708 60.792452 
L 101.321589 67.400747 
L 93.904218 72.544851 
L 90.257124 75.330653 
L 87.41767 77.776967 
L 85.195103 80.003966 
L 83.421827 82.092598 
L 81.302393 85.062027 
L 77.140428 91.401517 
L 75.829256 93.028259 
L 74.363329 94.541807 
L 72.696495 95.916536 
L 70.78588 97.118845 
L 68.592282 98.103952 
L 66.082366 98.811924 
L 64.701044 99.038036 
L 63.233258 99.16332 
L 61.679059 99.174158 
L 60.040335 99.05534 
L 58.321278 98.790109 
L 56.528909 98.360333 
L 54.673659 97.746833 
L 52.769967 96.929927 
L 50.836869 95.890229 
L 48.898505 94.609767 
L 46.984467 93.073429 
L 45.129883 91.270758 
L 43.375115 89.198021 
L 41.764961 86.86045 
L 40.347237 84.274428 
L 39.170717 81.46934 
L 38.282439 78.488704 
L 37.724541 75.390208 
L 37.530899 72.24432 
L 37.723956 69.131319 
L 38.312191 66.136806 
L 39.288653 63.346101 
L 40.630852 60.838163 
L 42.302096 58.679861 
L 44.254131 56.921399 
L 46.430692 55.59351 
L 48.77148 54.706726 
L 51.216042 54.252627 
L 53.707117 54.206677 
L 56.193172 54.532066 
L 58.630032 55.183919 
L 60.981635 56.113321 
L 63.220069 57.270775 
L 65.325074 58.608879 
L 67.283207 60.08417 
L 69.086843 61.658215 
L 70.733123 63.298058 
L 72.222949 64.976211 
L 73.560081 66.670312 
L 75.800967 70.039363 
L 77.516061 73.307546 
L 78.773188 76.4223 
L 79.637879 79.360369 
L 80.167851 82.11624 
L 80.410325 84.694321 
L 80.401121 87.103897 
L 80.164752 89.355903 
L 79.715012 91.460833 
L 79.055739 93.427255 
L 78.181573 95.260577 
L 77.078645 96.961767 
L 75.725238 98.525777 
L 74.092554 99.939427 
L 72.145856 101.178466 
L 69.846439 102.203588 
L 67.155103 102.955191 
L 65.651484 103.202692 
L 64.038156 103.34699 
L 62.313389 103.372 
L 60.477324 103.259164 
L 58.532607 102.987375 
L 56.485142 102.533027 
L 54.344947 101.870262 
L 52.127103 100.9715 
L 49.852737 99.808339 
L 47.549981 98.35294 
L 45.254762 96.579966 
L 43.011278 94.469149 
L 40.871947 92.008441 
L 38.896591 89.197631 
L 37.150644 86.052103 
L 35.702222 82.606259 
L 34.61805 78.915929 
L 33.958446 75.059022 
L 33.771839 71.13373 
L 34.089525 67.253878 
L 34.921522 63.541517 
L 36.254343 60.117498 
L 38.051213 57.09129 
L 40.254851 54.551693 
L 42.792389 52.559939 
L 45.581622 51.146259 
L 48.537568 50.310202 
L 51.57841 50.024264 
L 54.630129 50.239805 
L 57.629529 50.894049 
L 60.52567 51.916985 
L 63.279975 53.23735 
L 65.865377 54.787217 
L 68.264896 56.505072 
L 70.469954 58.337509 
L 72.478672 60.23981 
L 74.294292 62.175734 
L 75.923792 64.116795 
L 75.923792 64.116795 
" clip-path="url(#pe21dd49f5f)" style="fill: none; stroke: #ff7f0e; stroke-opacity: 0.5; stroke-width: 1.5; stroke-linecap: round"/>
   </g>
  </g>
 </g>
 <defs>
  <clipPath id="pe21dd49f5f">
   <rect x="-1.8" y="-7.2" width="176.4" height="176.4"/>
  </clipPath>
 </defs>
</svg>
