<?xml version="1.0" encoding="utf-8" standalone="no"?>
<!DOCTYPE svg PUBLIC "-//W3C//DTD SVG 1.1//EN"
  "http://www.w3.org/Graphics/SVG/1.1/DTD/svg11.dtd">
<svg xmlns:xlink="http://www.w3.org/1999/xlink" width="216pt" height="180pt" viewBox="0 0 216 180" xmlns="http://www.w3.org/2000/svg" version="1.1">
 <metadata>
  <rdf:RDF xmlns:dc="http://purl.org/dc/elements/1.1/" xmlns:cc="http://creativecommons.org/ns#" xmlns:rdf="http://www.w3.org/1999/02/22-rdf-syntax-ns#">
   <cc:Work>
    <dc:type rdf:resource="http://purl.org/dc/dcmitype/StillImage"/>
    <dc:date>2023-06-14T18:52:58.067820</dc:date>
    <dc:format>image/svg+xml</dc:format>
    <dc:creator>
     <cc:Agent>
      <dc:title>Matplotlib v3.7.0, https://matplotlib.org/</dc:title>
     </cc:Agent>
    </dc:creator>
   </cc:Work>
  </rdf:RDF>
 </metadata>
 <defs>
  <style type="text/css">*{stroke-linejoin: round; stroke-linecap: butt}</style>
 </defs>
 <g id="figure_1">
  <g id="patch_1">
   <path d="M 0 180 
L 216 180 
L 216 0 
L 0 0 
z
" style="fill: #ffffff"/>
  </g>
  <g id="patch_2">
   <path d="M -1 169.2 
L 174.6 169.2 
L 174.6 -1 
" style="fill: none"/>
  </g>
  <g id="pane3d_1">
   <g id="patch_3">
    <path d="M 11.519416 125.705413 
L 69.772457 76.876559 
L 68.962684 6.456623 
L 7.921935 51.001381 
" style="fill: none; opacity: 0.5; stroke: #f2f2f2; stroke-linejoin: miter"/>
   </g>
  </g>
  <g id="pane3d_2">
   <g id="patch_4">
    <path d="M 69.772457 76.876559 
L 163.247803 104.046152 
L 166.583609 31.200681 
L 68.962684 6.456623 
" style="fill: none; opacity: 0.5; stroke: #e6e6e6; stroke-linejoin: miter"/>
   </g>
  </g>
  <g id="pane3d_3">
   <g id="patch_5">
    <path d="M 11.519416 125.705413 
L 110.607849 158.067695 
L 163.247803 104.046152 
L 69.772457 76.876559 
" style="fill: none; opacity: 0.5; stroke: #ececec; stroke-linejoin: miter"/>
   </g>
  </g>
  <g id="axis3d_1">
   <g id="line2d_1">
    <path d="M 11.519416 125.705413 
L 110.607849 158.067695 
" style="fill: none; stroke: #ffffff; stroke-width: 0.8; stroke-linecap: round"/>
   </g>
   <g id="text_1">
    <!-- x -->
    <g style="fill: #262626" transform="translate(40.437569 179.640981) scale(0.1 -0.1)">
     <defs>
      <path id="DejaVuSans-78" d="M 3513 3500 
L 2247 1797 
L 3578 0 
L 2900 0 
L 1881 1375 
L 863 0 
L 184 0 
L 1544 1831 
L 300 3500 
L 978 3500 
L 1906 2253 
L 2834 3500 
L 3513 3500 
z
" transform="scale(0.015625)"/>
     </defs>
     <use xlink:href="#DejaVuSans-78"/>
    </g>
   </g>
   <g id="Line3DCollection_1">
    <path d="M 35.871327 133.658747 
L 92.821484 83.576001 
L 92.995657 12.548281 
" style="fill: none; stroke: #d3d3d3; stroke-width: 0.8"/>
    <path d="M 60.753102 141.785135 
L 116.320362 90.406197 
L 117.523442 18.765359 
" style="fill: none; stroke: #d3d3d3; stroke-width: 0.8"/>
    <path d="M 86.311776 150.132598 
L 140.40433 97.406456 
L 142.688965 25.144086 
" style="fill: none; stroke: #d3d3d3; stroke-width: 0.8"/>
   </g>
   <g id="xtick_1">
    <g id="line2d_2">
     <path d="M 88.783784 78.616216 
" clip-path="url(#p2eca8cd440)" style="fill: none; stroke: #d3d3d3; stroke-width: 0.8; stroke-linecap: round"/>
    </g>
    <g id="line2d_3">
     <path d="M 36.367649 133.222275 
L 34.876533 134.533583 
" style="fill: none; stroke: #808080; stroke-width: 0.8; stroke-linecap: round"/>
    </g>
    <g id="text_2">
     <!-- −10 -->
     <g style="fill: #808080" transform="translate(17.803978 157.189902) scale(0.1 -0.1)">
      <defs>
       <path id="DejaVuSans-2212" d="M 678 2272 
L 4684 2272 
L 4684 1741 
L 678 1741 
L 678 2272 
z
" transform="scale(0.015625)"/>
       <path id="DejaVuSans-31" d="M 794 531 
L 1825 531 
L 1825 4091 
L 703 3866 
L 703 4441 
L 1819 4666 
L 2450 4666 
L 2450 531 
L 3481 531 
L 3481 0 
L 794 0 
L 794 531 
z
" transform="scale(0.015625)"/>
       <path id="DejaVuSans-30" d="M 2034 4250 
Q 1547 4250 1301 3770 
Q 1056 3291 1056 2328 
Q 1056 1369 1301 889 
Q 1547 409 2034 409 
Q 2525 409 2770 889 
Q 3016 1369 3016 2328 
Q 3016 3291 2770 3770 
Q 2525 4250 2034 4250 
z
M 2034 4750 
Q 2819 4750 3233 4129 
Q 3647 3509 3647 2328 
Q 3647 1150 3233 529 
Q 2819 -91 2034 -91 
Q 1250 -91 836 529 
Q 422 1150 422 2328 
Q 422 3509 836 4129 
Q 1250 4750 2034 4750 
z
" transform="scale(0.015625)"/>
      </defs>
      <use xlink:href="#DejaVuSans-2212"/>
      <use xlink:href="#DejaVuSans-31" x="83.789062"/>
      <use xlink:href="#DejaVuSans-30" x="147.412109"/>
     </g>
    </g>
   </g>
   <g id="xtick_2">
    <g id="line2d_4">
     <path d="M 88.783784 78.616216 
" clip-path="url(#p2eca8cd440)" style="fill: none; stroke: #d3d3d3; stroke-width: 0.8; stroke-linecap: round"/>
    </g>
    <g id="line2d_5">
     <path d="M 61.237904 141.336874 
L 59.781368 142.683625 
" style="fill: none; stroke: #808080; stroke-width: 0.8; stroke-linecap: round"/>
    </g>
    <g id="text_3">
     <!-- 0 -->
     <g style="fill: #808080" transform="translate(50.098523 165.578071) scale(0.1 -0.1)">
      <use xlink:href="#DejaVuSans-30"/>
     </g>
    </g>
   </g>
   <g id="xtick_3">
    <g id="line2d_6">
     <path d="M 88.783784 78.616216 
" clip-path="url(#p2eca8cd440)" style="fill: none; stroke: #d3d3d3; stroke-width: 0.8; stroke-linecap: round"/>
    </g>
    <g id="line2d_7">
     <path d="M 86.784244 149.672064 
L 85.364734 151.055716 
" style="fill: none; stroke: #808080; stroke-width: 0.8; stroke-linecap: round"/>
    </g>
    <g id="text_4">
     <!-- 10 -->
     <g style="fill: #808080" transform="translate(72.522711 174.195767) scale(0.1 -0.1)">
      <use xlink:href="#DejaVuSans-31"/>
      <use xlink:href="#DejaVuSans-30" x="63.623047"/>
     </g>
    </g>
   </g>
  </g>
  <g id="axis3d_2">
   <g id="line2d_8">
    <path d="M 163.247803 104.046152 
L 110.607849 158.067695 
" style="fill: none; stroke: #ffffff; stroke-width: 0.8; stroke-linecap: round"/>
   </g>
   <g id="text_5">
    <!-- y -->
    <g style="fill: #262626" transform="translate(162.133934 160.636398) scale(0.1 -0.1)">
     <defs>
      <path id="DejaVuSans-79" d="M 2059 -325 
Q 1816 -950 1584 -1140 
Q 1353 -1331 966 -1331 
L 506 -1331 
L 506 -850 
L 844 -850 
Q 1081 -850 1212 -737 
Q 1344 -625 1503 -206 
L 1606 56 
L 191 3500 
L 800 3500 
L 1894 763 
L 2988 3500 
L 3597 3500 
L 2059 -325 
z
" transform="scale(0.015625)"/>
     </defs>
     <use xlink:href="#DejaVuSans-79"/>
    </g>
   </g>
   <g id="Line3DCollection_2">
    <path d="M 16.15424 44.99382 
L 19.349982 119.141678 
L 117.71097 150.778145 
" style="fill: none; stroke: #d3d3d3; stroke-width: 0.8"/>
    <path d="M 28.653533 35.872405 
L 31.25463 109.162966 
L 128.493535 139.712581 
" style="fill: none; stroke: #d3d3d3; stroke-width: 0.8"/>
    <path d="M 40.719332 27.067335 
L 42.76397 99.515609 
L 138.899557 129.033443 
" style="fill: none; stroke: #d3d3d3; stroke-width: 0.8"/>
    <path d="M 52.373804 18.562432 
L 53.89737 90.183372 
L 148.94842 118.720837 
" style="fill: none; stroke: #d3d3d3; stroke-width: 0.8"/>
    <path d="M 63.637629 10.342606 
L 64.672954 81.151064 
L 158.658203 108.756211 
" style="fill: none; stroke: #d3d3d3; stroke-width: 0.8"/>
   </g>
   <g id="xtick_4">
    <g id="line2d_9">
     <path d="M 88.783784 78.616216 
" clip-path="url(#p2eca8cd440)" style="fill: none; stroke: #d3d3d3; stroke-width: 0.8; stroke-linecap: round"/>
    </g>
    <g id="line2d_10">
     <path d="M 116.882317 150.51162 
L 119.370407 151.31188 
" style="fill: none; stroke: #808080; stroke-width: 0.8; stroke-linecap: round"/>
    </g>
    <g id="text_6">
     <!-- −20 -->
     <g style="fill: #808080" transform="translate(119.973152 171.72455) scale(0.1 -0.1)">
      <defs>
       <path id="DejaVuSans-32" d="M 1228 531 
L 3431 531 
L 3431 0 
L 469 0 
L 469 531 
Q 828 903 1448 1529 
Q 2069 2156 2228 2338 
Q 2531 2678 2651 2914 
Q 2772 3150 2772 3378 
Q 2772 3750 2511 3984 
Q 2250 4219 1831 4219 
Q 1534 4219 1204 4116 
Q 875 4013 500 3803 
L 500 4441 
Q 881 4594 1212 4672 
Q 1544 4750 1819 4750 
Q 2544 4750 2975 4387 
Q 3406 4025 3406 3419 
Q 3406 3131 3298 2873 
Q 3191 2616 2906 2266 
Q 2828 2175 2409 1742 
Q 1991 1309 1228 531 
z
" transform="scale(0.015625)"/>
      </defs>
      <use xlink:href="#DejaVuSans-2212"/>
      <use xlink:href="#DejaVuSans-32" x="83.789062"/>
      <use xlink:href="#DejaVuSans-30" x="147.412109"/>
     </g>
    </g>
   </g>
   <g id="xtick_5">
    <g id="line2d_11">
     <path d="M 88.783784 78.616216 
" clip-path="url(#p2eca8cd440)" style="fill: none; stroke: #d3d3d3; stroke-width: 0.8; stroke-linecap: round"/>
    </g>
    <g id="line2d_12">
     <path d="M 127.675069 139.455442 
L 130.132535 140.227506 
" style="fill: none; stroke: #808080; stroke-width: 0.8; stroke-linecap: round"/>
    </g>
    <g id="text_7">
     <!-- −10 -->
     <g style="fill: #808080" transform="translate(130.537304 160.411804) scale(0.1 -0.1)">
      <use xlink:href="#DejaVuSans-2212"/>
      <use xlink:href="#DejaVuSans-31" x="83.789062"/>
      <use xlink:href="#DejaVuSans-30" x="147.412109"/>
     </g>
    </g>
   </g>
   <g id="xtick_6">
    <g id="line2d_13">
     <path d="M 88.783784 78.616216 
" clip-path="url(#p2eca8cd440)" style="fill: none; stroke: #d3d3d3; stroke-width: 0.8; stroke-linecap: round"/>
    </g>
    <g id="line2d_14">
     <path d="M 138.091077 128.785204 
L 140.518523 129.530536 
" style="fill: none; stroke: #808080; stroke-width: 0.8; stroke-linecap: round"/>
    </g>
    <g id="text_8">
     <!-- 0 -->
     <g style="fill: #808080" transform="translate(148.103313 149.494459) scale(0.1 -0.1)">
      <use xlink:href="#DejaVuSans-30"/>
     </g>
    </g>
   </g>
   <g id="xtick_7">
    <g id="line2d_15">
     <path d="M 88.783784 78.616216 
" clip-path="url(#p2eca8cd440)" style="fill: none; stroke: #d3d3d3; stroke-width: 0.8; stroke-linecap: round"/>
    </g>
    <g id="line2d_16">
     <path d="M 148.149729 118.481043 
L 150.54775 119.201008 
" style="fill: none; stroke: #808080; stroke-width: 0.8; stroke-linecap: round"/>
    </g>
    <g id="text_9">
     <!-- 10 -->
     <g style="fill: #808080" transform="translate(154.766768 138.952141) scale(0.1 -0.1)">
      <use xlink:href="#DejaVuSans-31"/>
      <use xlink:href="#DejaVuSans-30" x="63.623047"/>
     </g>
    </g>
   </g>
   <g id="xtick_8">
    <g id="line2d_17">
     <path d="M 88.783784 78.616216 
" clip-path="url(#p2eca8cd440)" style="fill: none; stroke: #d3d3d3; stroke-width: 0.8; stroke-linecap: round"/>
    </g>
    <g id="line2d_18">
     <path d="M 157.869106 108.524439 
L 160.238289 109.22031 
" style="fill: none; stroke: #808080; stroke-width: 0.8; stroke-linecap: round"/>
    </g>
    <g id="text_10">
     <!-- 20 -->
     <g style="fill: #808080" transform="translate(164.279003 128.765852) scale(0.1 -0.1)">
      <use xlink:href="#DejaVuSans-32"/>
      <use xlink:href="#DejaVuSans-30" x="63.623047"/>
     </g>
    </g>
   </g>
  </g>
  <g id="axis3d_3">
   <g id="line2d_19">
    <path d="M 163.247803 104.046152 
L 166.583609 31.200681 
" style="fill: none; stroke: #ffffff; stroke-width: 0.8; stroke-linecap: round"/>
   </g>
   <g id="text_11">
    <!-- z -->
    <g style="fill: #262626" transform="translate(202.494937 65.789607) scale(0.1 -0.1)">
     <defs>
      <path id="DejaVuSans-7a" d="M 353 3500 
L 3084 3500 
L 3084 2975 
L 922 459 
L 3084 459 
L 3084 0 
L 275 0 
L 275 525 
L 2438 3041 
L 353 3041 
L 353 3500 
z
" transform="scale(0.015625)"/>
     </defs>
     <use xlink:href="#DejaVuSans-7a"/>
    </g>
   </g>
   <g id="Line3DCollection_3">
    <path d="M 163.605276 96.239874 
L 69.685517 69.315971 
L 11.134483 117.712011 
" style="fill: none; stroke: #d3d3d3; stroke-width: 0.8"/>
    <path d="M 164.438202 78.050893 
L 69.483094 51.712735 
L 10.23703 99.07582 
" style="fill: none; stroke: #d3d3d3; stroke-width: 0.8"/>
    <path d="M 165.289881 59.452388 
L 69.276333 33.732346 
L 9.318589 80.003805 
" style="fill: none; stroke: #d3d3d3; stroke-width: 0.8"/>
    <path d="M 166.160955 40.430369 
L 69.065096 15.362554 
L 8.378416 60.480499 
" style="fill: none; stroke: #d3d3d3; stroke-width: 0.8"/>
   </g>
   <g id="xtick_9">
    <g id="line2d_20">
     <path d="M 88.783784 78.616216 
" style="fill: none; stroke: #d3d3d3; stroke-width: 0.8; stroke-linecap: round"/>
    </g>
    <g id="line2d_21">
     <path d="M 162.816853 96.013857 
L 165.184005 96.692447 
" style="fill: none; stroke: #808080; stroke-width: 0.8; stroke-linecap: round"/>
    </g>
    <g id="text_12">
     <!-- 10 -->
     <g style="fill: #808080" transform="translate(175.549084 101.260273) scale(0.1 -0.1)">
      <use xlink:href="#DejaVuSans-31"/>
      <use xlink:href="#DejaVuSans-30" x="63.623047"/>
     </g>
    </g>
   </g>
   <g id="xtick_10">
    <g id="line2d_22">
     <path d="M 88.783784 78.616216 
" style="fill: none; stroke: #d3d3d3; stroke-width: 0.8; stroke-linecap: round"/>
    </g>
    <g id="line2d_23">
     <path d="M 163.640671 77.829678 
L 166.035191 78.493858 
" style="fill: none; stroke: #808080; stroke-width: 0.8; stroke-linecap: round"/>
    </g>
    <g id="text_13">
     <!-- 20 -->
     <g style="fill: #808080" transform="translate(176.581042 83.126176) scale(0.1 -0.1)">
      <use xlink:href="#DejaVuSans-32"/>
      <use xlink:href="#DejaVuSans-30" x="63.623047"/>
     </g>
    </g>
   </g>
   <g id="xtick_11">
    <g id="line2d_24">
     <path d="M 88.783784 78.616216 
" style="fill: none; stroke: #d3d3d3; stroke-width: 0.8; stroke-linecap: round"/>
    </g>
    <g id="line2d_25">
     <path d="M 164.483029 59.236249 
L 166.905557 59.885194 
" style="fill: none; stroke: #808080; stroke-width: 0.8; stroke-linecap: round"/>
    </g>
    <g id="text_14">
     <!-- 30 -->
     <g style="fill: #808080" transform="translate(177.636128 64.585684) scale(0.1 -0.1)">
      <defs>
       <path id="DejaVuSans-33" d="M 2597 2516 
Q 3050 2419 3304 2112 
Q 3559 1806 3559 1356 
Q 3559 666 3084 287 
Q 2609 -91 1734 -91 
Q 1441 -91 1130 -33 
Q 819 25 488 141 
L 488 750 
Q 750 597 1062 519 
Q 1375 441 1716 441 
Q 2309 441 2620 675 
Q 2931 909 2931 1356 
Q 2931 1769 2642 2001 
Q 2353 2234 1838 2234 
L 1294 2234 
L 1294 2753 
L 1863 2753 
Q 2328 2753 2575 2939 
Q 2822 3125 2822 3475 
Q 2822 3834 2567 4026 
Q 2313 4219 1838 4219 
Q 1578 4219 1281 4162 
Q 984 4106 628 3988 
L 628 4550 
Q 988 4650 1302 4700 
Q 1616 4750 1894 4750 
Q 2613 4750 3031 4423 
Q 3450 4097 3450 3541 
Q 3450 3153 3228 2886 
Q 3006 2619 2597 2516 
z
" transform="scale(0.015625)"/>
      </defs>
      <use xlink:href="#DejaVuSans-33"/>
      <use xlink:href="#DejaVuSans-30" x="63.623047"/>
     </g>
    </g>
   </g>
   <g id="xtick_12">
    <g id="line2d_26">
     <path d="M 88.783784 78.616216 
" style="fill: none; stroke: #d3d3d3; stroke-width: 0.8; stroke-linecap: round"/>
    </g>
    <g id="line2d_27">
     <path d="M 165.344562 40.219596 
L 167.795758 40.852436 
" style="fill: none; stroke: #808080; stroke-width: 0.8; stroke-linecap: round"/>
    </g>
    <g id="text_15">
     <!-- 40 -->
     <g style="fill: #808080" transform="translate(178.715127 45.624981) scale(0.1 -0.1)">
      <defs>
       <path id="DejaVuSans-34" d="M 2419 4116 
L 825 1625 
L 2419 1625 
L 2419 4116 
z
M 2253 4666 
L 3047 4666 
L 3047 1625 
L 3713 1625 
L 3713 1100 
L 3047 1100 
L 3047 0 
L 2419 0 
L 2419 1100 
L 313 1100 
L 313 1709 
L 2253 4666 
z
" transform="scale(0.015625)"/>
      </defs>
      <use xlink:href="#DejaVuSans-34"/>
      <use xlink:href="#DejaVuSans-30" x="63.623047"/>
     </g>
    </g>
   </g>
  </g>
  <g id="axes_1">
   <g id="line2d_28">
    <path d="M 125.878379 103.866887 
L 129.908447 98.428402 
L 137.396888 88.780753 
L 140.082896 85.125982 
L 142.750303 81.269655 
L 145.310713 77.250815 
L 147.662311 73.132455 
L 149.692436 69.003267 
L 151.282767 64.976644 
L 152.317377 61.18593 
L 152.693329 57.775295 
L 152.332666 54.886452 
L 151.193802 52.642644 
L 149.279815 51.132526 
L 146.641367 50.397283 
L 143.373012 50.424132 
L 139.603291 51.148064 
L 135.480587 52.461621 
L 131.157642 54.230448 
L 126.77765 56.311063 
L 122.463968 58.567144 
L 114.399366 63.163288 
L 104.409525 69.297118 
L 97.092741 74.10316 
L 93.468927 76.70686 
L 90.623223 78.98713 
L 88.371782 81.05474 
L 86.554801 82.986505 
L 84.358206 85.725367 
L 79.401295 92.368651 
L 78.003813 93.848646 
L 76.438151 95.224 
L 74.658616 96.468187 
L 72.621951 97.545589 
L 70.288327 98.408071 
L 67.624247 98.990816 
L 66.160855 99.151369 
L 64.608134 99.207883 
L 62.966752 99.145715 
L 61.239512 98.948586 
L 59.431882 98.598692 
L 57.552612 98.076953 
L 55.614381 97.363456 
L 53.63447 96.438149 
L 51.635392 95.281836 
L 49.645393 93.87751 
L 47.69872 92.212046 
L 45.835515 90.278216 
L 44.101196 88.076936 
L 42.54518 85.619551 
L 41.218854 82.929876 
L 40.172807 80.045649 
L 39.453457 77.018971 
L 39.099352 73.915397 
L 39.137612 70.811447 
L 39.581011 67.790558 
L 40.426218 64.937794 
L 41.653518 62.333909 
L 43.22813 60.049531 
L 45.102906 58.140286 
L 47.222019 56.64349 
L 49.525048 55.576784 
L 51.95096 54.938721 
L 54.441518 54.711015 
L 56.943884 54.861949 
L 59.412316 55.350351 
L 61.809 56.129599 
L 64.104189 57.151213 
L 66.275788 58.367782 
L 68.308608 59.735096 
L 70.193412 61.213508 
L 71.925909 62.768633 
L 73.505757 64.371506 
L 74.935658 65.998373 
L 77.366928 69.25229 
L 79.274651 72.424913 
L 80.723237 75.458512 
L 81.776353 78.326606 
L 82.491185 81.021717 
L 82.91563 83.547092 
L 83.08729 85.911438 
L 83.033452 88.125669 
L 82.771548 90.200894 
L 82.309783 92.147111 
L 81.647742 93.972222 
L 80.776902 95.681109 
L 79.681036 97.274541 
L 78.336578 98.74772 
L 76.713078 100.088241 
L 74.774025 101.273204 
L 72.478442 102.265244 
L 69.78395 103.007248 
L 68.274779 103.259643 
L 66.652321 103.415787 
L 64.914002 103.45994 
L 63.059002 103.373838 
L 61.088903 103.136581 
L 59.008468 102.724632 
L 56.826557 102.112012 
L 54.557166 101.270758 
L 52.220537 100.171766 
L 49.844285 98.786108 
L 47.464388 97.08693 
L 45.125886 95.052001 
L 42.883013 92.666906 
L 40.798496 89.928747 
L 38.941727 86.850048 
L 37.385578 83.462365 
L 36.201852 79.818894 
L 35.455587 75.99529 
L 35.198831 72.087974 
L 35.464792 68.209538 
L 36.263415 64.48135 
L 37.579328 61.024152 
L 39.372655 57.94796 
L 41.582622 55.342859 
L 44.133261 53.272166 
L 46.940186 51.768912 
L 49.917319 50.835932 
L 52.982671 50.449122 
L 56.062651 50.562977 
L 59.094723 51.117252 
L 62.02857 52.0437 
L 64.826041 53.272039 
L 67.460254 54.734658 
L 69.914197 56.369877 
L 72.179101 58.123838 
L 74.252794 59.951262 
L 76.138167 61.815351 
L 77.841828 63.68714 
L 80.742406 67.371263 
L 83.043702 70.890298 
L 84.842041 74.192224 
L 86.229164 77.261562 
L 87.286552 80.102681 
L 88.083394 82.72961 
L 88.911496 86.307771 
L 89.424902 89.506304 
L 89.788569 93.276862 
L 89.919726 97.347183 
L 89.811828 100.854151 
L 89.493506 103.920554 
L 89.056909 106.123039 
L 88.3954 108.151376 
L 87.693122 109.583869 
L 86.746587 110.959015 
L 85.469644 112.290929 
L 84.378073 113.158901 
L 83.043044 114.009806 
L 81.409647 114.836982 
L 79.411456 115.624868 
L 76.969257 116.343365 
L 73.990837 116.939088 
L 70.373226 117.322205 
L 68.291242 117.391459 
L 66.010056 117.347444 
L 63.518638 117.159162 
L 60.808775 116.788706 
L 57.876728 116.190371 
L 54.725419 115.309995 
L 51.367254 114.084793 
L 47.827596 112.444072 
L 44.148833 110.311326 
L 40.394771 107.608356 
L 36.654769 104.262072 
L 33.046587 100.214477 
L 29.716462 95.435834 
L 26.834539 89.940023 
L 24.583963 83.799704 
L 23.142977 77.157323 
L 22.661532 70.227147 
L 23.236742 63.284205 
L 24.8936 56.639014 
L 27.577223 50.601473 
L 31.159652 45.441569 
L 35.459323 41.356183 
L 40.267306 38.449414 
L 45.373261 36.729502 
L 50.585834 36.120709 
L 55.745227 36.485238 
L 60.728316 37.649119 
L 65.448117 39.426685 
L 69.849748 41.640024 
L 73.904709 44.131875 
L 77.604829 46.772171 
L 80.956669 49.459475 
L 83.976786 52.118999 
L 86.687989 54.698751 
L 91.290035 59.49807 
L 94.98195 63.732602 
L 99.261978 69.022946 
L 104.411874 75.39866 
L 106.139022 77.22998 
L 107.810904 78.697727 
L 109.492768 79.818042 
L 111.235089 80.597355 
L 113.074768 81.034101 
L 115.035201 81.120855 
L 117.125169 80.847151 
L 119.336586 80.203344 
L 121.641338 79.185878 
L 123.987748 77.804113 
L 126.297668 76.088465 
L 128.465786 74.098751 
L 130.363226 71.930579 
L 131.847517 69.716529 
L 132.390628 68.642213 
L 132.779969 67.618643 
L 133.002648 66.667684 
L 133.049057 65.810233 
L 132.913554 65.065245 
L 132.594979 64.448796 
L 132.096941 63.97326 
L 131.427838 63.646704 
L 130.60059 63.472554 
L 129.632103 63.449563 
L 128.542512 63.572097 
L 126.091096 64.212845 
L 123.435797 65.287811 
L 120.757835 66.669785 
L 118.208739 68.236568 
L 115.9 69.887062 
L 113.902682 71.546943 
L 112.253485 73.166505 
L 110.963545 74.714582 
L 110.027284 76.171723 
L 109.429864 77.524417 
L 109.152736 78.760957 
L 109.177366 79.868841 
L 109.48741 80.833308 
L 110.069666 81.636622 
L 110.914052 82.257803 
L 112.012793 82.672683 
L 113.358865 82.854267 
L 114.9437 82.773558 
L 116.754101 82.401071 
L 118.768323 81.709419 
L 120.951396 80.677351 
L 123.249983 79.295572 
L 125.587516 77.574355 
L 127.860912 75.552313 
L 129.940872 73.304604 
L 131.678134 70.947552 
L 132.91764 68.635739 
L 133.306024 67.552395 
L 133.520687 66.548113 
L 133.551267 65.644887 
L 133.391706 64.862609 
L 133.040805 64.218046 
L 132.502528 63.723943 
L 131.786003 63.388368 
L 130.905211 63.214365 
L 129.878378 63.199946 
L 128.727125 63.338438 
L 126.148632 64.028098 
L 123.370772 65.165447 
L 120.583613 66.613366 
L 117.94375 68.24264 
L 115.564157 69.948528 
L 113.514745 71.655829 
L 111.829544 73.315696 
L 110.516466 74.898587 
L 109.566798 76.386766 
L 108.963019 77.768181 
L 108.684505 79.032203 
L 108.711287 80.167029 
L 109.026196 81.158266 
L 109.615769 81.988256 
L 110.470182 82.635833 
L 111.582395 83.076348 
L 112.946577 83.281981 
L 114.555768 83.222467 
L 116.39874 82.866506 
L 118.455956 82.184246 
L 120.694664 81.151281 
L 123.063378 79.754568 
L 125.486425 78.000387 
L 127.8599 75.923814 
L 130.051093 73.598036 
L 131.904054 71.140362 
L 133.253664 68.710586 
L 133.691141 67.564682 
L 133.948739 66.497553 
L 134.014524 65.532985 
L 133.881055 64.692731 
L 133.546037 63.995356 
L 133.012708 63.455215 
L 132.289912 63.081681 
L 131.391804 62.878701 
L 130.337239 62.844732 
L 129.148861 62.973077 
L 127.85201 63.252553 
L 125.040557 64.203542 
L 122.115065 65.557136 
L 119.262719 67.167232 
L 116.627474 68.907137 
L 114.305202 70.681386 
L 112.348596 72.426083 
L 110.777015 74.102519 
L 109.587299 75.688691 
L 108.763276 77.171647 
L 108.283035 78.541837 
L 108.123935 79.789508 
L 108.265677 80.902672 
L 108.691888 81.86609 
L 109.390563 82.660837 
L 110.353656 83.264176 
L 111.575911 83.649641 
L 113.052995 83.787392 
L 114.778846 83.645038 
L 116.742134 83.189246 
L 118.92175 82.388614 
L 121.281334 81.218294 
L 123.763187 79.666828 
L 126.282406 77.745253 
L 128.722869 75.497718 
L 130.93757 73.011462 
L 132.756337 70.422265 
L 133.461849 69.144019 
L 134.003431 67.910284 
L 134.362759 66.747538 
L 134.524939 65.681949 
L 134.479512 64.738107 
L 134.221303 63.937707 
L 133.750999 63.29833 
L 133.0754 62.832445 
L 132.207278 62.546735 
L 131.164842 62.441844 
L 129.970869 62.512569 
L 128.651551 62.748464 
L 125.750955 63.653696 
L 122.691831 65.009714 
L 119.68036 66.6573 
L 116.877549 68.455783 
L 114.391934 70.298349 
L 112.283964 72.113762 
L 110.576522 73.859723 
L 109.266937 75.513366 
L 108.337657 77.062484 
L 107.764466 78.499025 
L 107.522153 79.814941 
L 107.588028 80.999877 
L 107.943781 82.040038 
L 108.57613 82.917712 
L 109.47656 83.611093 
L 110.640329 84.094285 
L 112.06479 84.33747 
L 113.746956 84.307435 
L 115.6802 83.968735 
L 117.849921 83.285975 
L 120.228101 82.227742 
L 122.766888 80.772802 
L 125.391801 78.918924 
L 127.995904 76.694056 
L 130.437286 74.168287 
L 132.543134 71.463138 
L 133.411001 70.095905 
L 134.123814 68.752809 
L 134.659482 67.461784 
L 134.998638 66.251538 
L 135.125833 65.150242 
L 135.030649 64.184083 
L 134.708596 63.375802 
L 134.161717 62.743347 
L 133.398776 62.298813 
L 132.435006 62.047783 
L 131.291422 61.989154 
L 129.993753 62.115484 
L 128.571102 62.413784 
L 125.475275 63.45381 
L 122.249168 64.942647 
L 119.107525 66.708232 
L 116.212532 68.604191 
L 113.668725 70.523791 
L 111.529921 72.399231 
L 109.811794 74.192789 
L 108.505134 75.885894 
L 107.58711 77.469727 
L 107.029612 78.938602 
L 106.804827 80.285977 
L 106.888569 81.502357 
L 107.26195 82.574361 
L 107.911877 83.484354 
L 108.830693 84.210321 
L 110.015122 84.72583 
L 111.464576 85.000102 
L 113.178715 84.998375 
L 115.15412 84.682862 
L 117.379859 84.014806 
L 119.83181 82.958243 
L 122.46576 81.48619 
L 125.209799 79.589805 
L 127.95727 77.290481 
L 130.562725 74.653488 
L 132.844478 71.799692 
L 133.800282 70.345691 
L 134.597917 68.90941 
L 135.212617 67.520879 
L 135.622212 66.211397 
L 135.808488 65.01211 
L 135.758484 63.9524 
L 135.465607 63.058192 
L 134.930404 62.350372 
L 134.160894 61.843486 
L 133.172399 61.544872 
L 131.986846 61.454363 
L 130.631627 61.564568 
L 129.138107 61.861729 
L 127.539961 62.327 
L 124.166058 63.670522 
L 120.765747 65.402738 
L 117.546514 67.344698 
L 114.652276 69.357274 
L 112.165462 71.347837 
L 110.119129 73.263447 
L 108.512192 75.078547 
L 107.323393 76.782965 
L 106.522151 78.372856 
L 106.076064 79.844972 
L 105.955581 81.19356 
L 106.136567 82.408952 
L 106.601392 83.477042 
L 107.339012 84.37913 
L 108.344322 85.091846 
L 109.616907 85.587061 
L 111.159173 85.83186 
L 112.973737 85.7888 
L 115.059841 85.416808 
L 117.408534 84.673285 
L 119.996399 83.518159 
L 122.777837 81.920714 
L 125.676395 79.869918 
L 128.576624 77.388254 
L 131.319251 74.547518 
L 132.570162 73.031922 
L 133.704 71.482438 
L 134.691853 69.926473 
L 135.50505 68.39499 
L 136.116515 66.921542 
L 136.502284 65.54092 
L 136.643083 64.287463 
L 136.525809 63.193153 
L 136.144751 62.285651 
L 135.502403 61.586503 
L 134.609715 61.109722 
L 133.485742 60.860938 
L 132.15669 60.837229 
L 130.654449 61.02767 
L 129.014789 61.414505 
L 127.275393 61.974797 
L 123.646442 63.50947 
L 120.041048 65.415435 
L 116.671965 67.501356 
L 113.678952 69.626135 
L 111.135054 71.701776 
L 109.062333 73.682599 
L 107.449418 75.550207 
L 106.266575 77.300199 
L 105.476837 78.93284 
L 105.043356 80.447585 
L 104.933772 81.840374 
L 105.122458 83.102596 
L 105.591359 84.220826 
L 106.329907 85.176802 
L 107.334305 85.947376 
L 108.606293 86.504338 
L 110.151372 86.814194 
L 111.976336 86.838113 
L 114.085851 86.532382 
L 116.477742 85.849963 
L 119.136661 84.743911 
L 122.025938 83.173674 
L 125.077867 81.115289 
L 128.183594 78.576004 
L 131.185256 75.612446 
L 132.583844 74.007312 
L 133.874973 72.348655 
L 135.026788 70.664263 
L 136.006785 68.986536 
L 136.783233 67.351657 
L 137.326859 65.79827 
L 137.612696 64.365697 
L 137.621925 63.091794 
L 137.343536 62.010607 
L 136.77557 61.150091 
L 135.92578 60.530143 
L 134.81156 60.161238 
L 133.459136 60.043837 
L 131.902063 60.168689 
L 130.179212 60.517955 
L 128.332478 61.06701 
L 126.404453 61.786654 
L 122.46609 63.611893 
L 118.648671 65.75183 
L 115.157773 68.009775 
L 112.115468 70.253136 
L 109.573908 72.408284 
L 107.535859 74.443833 
L 105.974457 76.352705 
L 104.848718 78.138219 
L 104.114187 79.80534 
L 103.729508 81.356127 
L 103.660028 82.787881 
L 103.879427 84.092707 
L 104.370127 85.257618 
L 105.122942 86.264679 
L 106.136254 87.090961 
L 107.414797 87.708248 
L 108.968004 88.082579 
L 110.807732 88.173823 
L 112.945081 87.935627 
L 115.385887 87.316282 
L 118.124423 86.261357 
L 121.134916 84.719218 
L 124.360794 82.650814 
L 127.70244 80.044855 
L 131.005781 76.938381 
L 132.578379 75.227982 
L 134.056414 73.439882 
L 135.404768 71.601835 
L 136.5865 69.747509 
L 137.564305 67.915867 
L 138.302354 66.149967 
L 138.768449 64.495131 
L 138.936319 62.996558 
L 138.787832 61.696537 
L 138.314862 60.631525 
L 137.52052 59.829447 
L 136.41956 59.307568 
L 135.037815 59.071266 
L 133.410719 59.113903 
L 131.58105 59.41781 
L 129.596207 59.95625 
L 127.505314 60.696046 
L 125.356508 61.600502 
L 121.059579 63.755593 
L 116.998628 66.153467 
L 113.366838 68.595989 
L 110.263171 70.96417 
L 107.714568 73.202954 
L 105.701538 75.29794 
L 104.179863 77.254787 
L 103.096157 79.085192 
L 102.397721 80.799148 
L 102.038126 82.401603 
L 101.979924 83.891611 
L 102.195605 85.262584 
L 102.667554 86.502804 
L 103.387471 87.595757 
L 104.355489 88.520119 
L 105.579085 89.249352 
L 107.071723 89.750991 
L 108.851053 89.98576 
L 110.936366 89.90679 
L 113.344852 89.459378 
L 116.086109 88.582039 
L 119.154211 87.20998 
L 122.516817 85.282611 
L 126.101247 82.756979 
L 127.939023 81.266195 
L 129.778762 79.628641 
L 131.593311 77.854362 
L 133.350694 75.959479 
L 135.014328 73.967015 
L 136.543645 71.907434 
L 137.895213 69.818737 
L 139.024409 67.745923 
L 139.88764 65.739678 
L 140.445038 63.854217 
L 140.663418 62.144321 
L 140.519219 60.661756 
L 140.001035 59.45143 
L 139.111365 58.547767 
L 137.867243 57.971809 
L 136.299577 57.729528 
L 134.451225 57.811632 
L 132.374033 58.194923 
L 130.125238 58.844976 
L 127.763701 59.719713 
L 125.346434 60.77331 
L 120.547257 63.23665 
L 116.059613 65.916568 
L 112.089208 68.591068 
L 108.728873 71.139065 
L 105.989767 73.515581 
L 103.83379 75.720187 
L 102.19916 77.771587 
L 101.017578 79.691795 
L 100.224366 81.498356 
L 99.763717 83.201712 
L 99.590887 84.805213 
L 99.672655 86.306127 
L 99.986898 87.696732 
L 100.521785 88.965078 
L 101.274871 90.095258 
L 102.252196 91.067172 
L 103.467404 91.855827 
L 104.940785 92.430225 
L 106.698045 92.751949 
L 108.76849 92.773612 
L 111.182149 92.437496 
L 113.965184 91.675008 
L 117.132682 90.408008 
L 120.677839 88.553806 
L 124.556653 86.036328 
L 126.592453 84.511676 
L 128.668114 82.806481 
L 130.758447 80.924041 
L 132.83207 78.873903 
L 134.851104 76.673291 
L 136.771257 74.348409 
L 138.542445 71.935424 
L 140.110118 69.480842 
L 141.417402 67.041019 
L 142.408096 64.680523 
L 143.030414 62.469219 
L 143.241221 60.478079 
L 143.01027 58.77401 
L 142.323867 57.414246 
L 141.187328 56.441073 
L 139.625695 55.877749 
L 137.682478 55.726356 
L 135.416497 55.968019 
L 132.89728 56.565491 
L 130.199713 57.46764 
L 127.398699 58.615037 
L 124.564513 59.945727 
L 119.034936 62.925958 
L 113.980498 66.023775 
L 109.601003 69.002264 
L 105.95933 71.757961 
L 103.029246 74.275538 
L 100.737504 76.583046 
L 98.99328 78.721149 
L 97.705764 80.726878 
L 96.793239 82.627497 
L 96.186885 84.439909 
L 95.831613 86.1724 
L 95.685419 87.826931 
L 95.718118 89.401153 
L 95.909947 90.889846 
L 96.250287 92.285759 
L 96.736622 93.579914 
L 97.373777 94.761469 
L 98.173437 95.817192 
L 99.1539 96.730588 
L 100.340007 97.480668 
L 101.763141 98.040324 
L 103.461123 98.374297 
L 105.477733 98.436698 
L 107.861425 98.168197 
L 110.662532 97.493193 
L 113.927925 96.317746 
L 117.691575 94.529906 
L 119.763683 93.36764 
L 121.959062 92.00537 
L 124.270096 90.428194 
L 126.68392 88.623262 
L 129.181195 86.581271 
L 131.734805 84.298363 
L 134.308598 81.778388 
L 136.85632 79.03546 
L 139.320993 76.096606 
L 141.635019 73.00418 
L 143.721381 69.81758 
L 145.496284 66.613656 
L 146.873484 63.485184 
L 147.770333 60.536874 
L 148.115173 57.878675 
L 147.855284 55.616722 
L 146.964147 53.842863 
L 145.446588 52.62441 
L 143.340543 51.996 
L 140.714788 51.955362 
L 137.662817 52.464022 
L 134.293933 53.45291 
L 130.723186 54.831709 
L 127.061832 56.500008 
L 123.409694 58.35814 
L 116.447874 62.298627 
L 110.281868 66.128251 
L 105.091248 69.591084 
L 100.872539 72.632927 
L 97.523348 75.306251 
L 94.902553 77.698126 
L 92.865014 79.891125 
L 91.278188 81.948545 
L 90.02815 83.912795 
L 88.582061 86.736379 
L 87.084392 90.321643 
L 85.33238 94.526983 
L 84.113741 96.891065 
L 83.160476 98.394533 
L 82.053871 99.834542 
L 80.756067 101.203669 
L 79.225204 102.490035 
L 77.414594 103.674658 
L 75.272536 104.727693 
L 72.743227 105.603195 
L 69.76962 106.232065 
L 68.099451 106.42391 
L 66.299564 106.513059 
L 64.366079 106.480135 
L 62.297269 106.30248 
L 60.094412 105.953954 
L 57.762828 105.404897 
L 55.313119 104.62235 
L 52.762593 103.570658 
L 50.136808 102.212626 
L 47.471127 100.511378 
L 44.812088 98.43309 
L 42.218282 95.950686 
L 39.760358 93.04847 
L 37.519695 89.727441 
L 35.58529 86.010751 
L 34.048612 81.948408 
L 32.996487 77.620071 
L 32.502649 73.13471 
L 32.619127 68.62619 
L 33.369077 64.244547 
L 34.742651 60.143727 
L 36.696973 56.467549 
L 39.160349 53.336276 
L 42.03984 50.836172 
L 45.230625 49.013719 
L 48.625402 47.875098 
L 52.122413 47.390406 
L 55.631282 47.501276 
L 59.076445 48.130173 
L 62.398433 49.189745 
L 65.553502 50.590989 
L 68.512169 52.249516 
L 71.25714 54.089697 
L 73.781051 56.046865 
L 76.084248 58.067949 
L 78.172812 60.111002 
L 80.056855 62.14405 
L 83.264056 66.093235 
L 85.822246 69.802824 
L 87.851606 73.229487 
L 89.463979 76.368075 
L 91.311967 80.567213 
L 93.500005 86.385074 
L 94.948196 90.146029 
L 96.07454 92.511057 
L 96.908561 93.880679 
L 97.847088 95.083434 
L 98.923686 96.112298 
L 100.174232 96.95395 
L 101.637952 97.587497 
L 103.358117 97.982755 
L 105.382182 98.098092 
L 107.760975 97.877896 
L 110.546319 97.249986 
L 113.786075 96.123734 
L 117.515163 94.390447 
L 119.567067 93.258443 
L 121.740653 91.92888 
L 124.028703 90.387116 
L 126.418904 88.620447 
L 128.892642 86.619546 
L 131.423746 84.380299 
L 133.977244 81.905995 
L 136.508315 79.209806 
L 138.961645 76.317372 
L 141.27147 73.269192 
L 143.362671 70.122358 
L 145.153234 66.951074 
L 146.558349 63.845343 
L 147.496177 60.907272 
L 147.894979 58.244783 
L 147.700871 55.962947 
L 146.885019 54.153862 
L 145.448926 52.886548 
L 143.426519 52.198734 
L 140.882357 52.09227 
L 137.906023 52.533286 
L 134.603678 53.457156 
L 131.088277 54.777277 
L 127.470129 56.395833 
L 123.849162 58.214485 
L 116.917854 62.106475 
L 110.750939 65.920353 
L 105.541717 69.38727 
L 101.297578 72.441928 
L 97.923232 75.129824 
L 95.281585 77.534679 
L 93.229505 79.738012 
L 91.6353 81.803212 
L 90.385331 83.773211 
L 88.953466 86.602876 
L 87.501853 90.193965 
L 85.501308 95.211124 
L 84.311306 97.541639 
L 83.373007 99.02384 
L 82.279114 100.444259 
L 80.992196 101.796193 
L 79.470426 103.068524 
L 77.66674 104.243079 
L 75.52859 105.290842 
L 72.998762 106.166664 
L 70.018093 106.802052 
L 68.341048 106.999545 
L 66.531462 107.095865 
L 64.584933 107.071477 
L 62.499156 106.903444 
L 60.274787 106.565187 
L 57.916498 106.026404 
L 55.43426 105.253235 
L 52.84482 104.208826 
L 50.173326 102.854442 
L 47.454996 101.151308 
L 44.736613 99.063372 
L 42.077568 96.561082 
L 39.550012 93.626202 
L 37.237646 90.2574 
L 35.232644 86.476083 
L 33.630405 82.331546 
L 32.522156 77.904197 
L 31.986036 73.305526 
L 32.077893 68.673752 
L 32.823512 64.164828 
L 34.214034 59.939565 
L 36.205747 56.148731 
L 38.724456 52.918708 
L 41.673491 50.340264 
L 44.943653 48.462306 
L 48.423207 47.29127 
L 52.006389 46.795604 
L 55.599532 46.913873 
L 59.124631 47.564661 
L 62.520614 48.656489 
L 65.742872 50.096443 
L 68.761646 51.796743 
L 71.559813 53.679046 
L 74.130474 55.676672 
L 76.474627 57.735187 
L 78.599093 59.81182 
L 80.514758 61.874198 
L 83.775345 65.869108 
L 86.378279 69.608456 
L 88.448337 73.051292 
L 90.101102 76.194812 
L 92.015668 80.384112 
L 96.386875 90.629081 
L 97.268218 92.101075 
L 98.242973 93.392942 
L 99.346983 94.499333 
L 100.617367 95.408381 
L 102.093635 96.100542 
L 103.818409 96.547036 
L 105.83751 96.707915 
L 108.199071 96.529847 
L 110.951048 95.943985 
L 114.1362 94.86467 
L 117.783226 93.190527 
L 119.781666 92.095771 
L 121.892377 90.810639 
L 124.107409 89.322287 
L 126.41391 87.619953 
L 128.793047 85.696322 
L 131.218897 83.549213 
L 133.657392 81.183569 
L 136.06547 78.61366 
L 138.39063 75.865323 
L 140.571154 72.977968 
L 142.537264 70.005929 
L 144.213525 67.018699 
L 145.522646 64.099502 
L 146.390697 61.341815 
L 146.753429 58.843657 
L 146.563034 56.699927 
L 145.79435 54.993564 
L 144.449354 53.786824 
L 142.558915 53.114225 
L 140.181221 52.978592 
L 137.396959 53.351129 
L 134.302031 54.175587 
L 130.999064 55.375703 
L 127.589111 56.864427 
L 124.164709 58.553219 
L 117.573279 62.214346 
L 111.665111 65.860107 
L 106.641127 69.223613 
L 102.526893 72.224825 
L 99.246575 74.891087 
L 96.679666 77.29123 
L 94.695858 79.496767 
L 93.173067 81.565226 
L 92.004959 83.53651 
L 91.10271 85.435189 
L 90.09348 88.174142 
L 89.114876 91.643658 
L 87.624916 97.213733 
L 86.854312 99.404909 
L 85.897152 101.483501 
L 84.670627 103.45405 
L 83.6546 104.708193 
L 82.438624 105.912061 
L 80.980202 107.059009 
L 79.229352 108.135769 
L 77.127896 109.118654 
L 74.609542 109.967975 
L 71.601584 110.619999 
L 68.029675 110.975814 
L 66.010927 110.998625 
L 63.828147 110.886931 
L 61.477684 110.611732 
L 58.959624 110.13898 
L 56.279275 109.42939 
L 53.448988 108.438611 
L 50.490301 107.117982 
L 47.43633 105.416139 
L 44.334226 103.281776 
L 41.247364 100.667862 
L 38.256731 97.537497 
L 35.460801 93.871352 
L 32.973035 89.6762 
L 30.916243 84.993438 
L 29.413408 79.905845 
L 28.575442 74.540373 
L 28.487419 69.064845 
L 29.19593 63.677377 
L 30.700609 58.589039 
L 32.952246 54.002299 
L 35.858227 50.089313 
L 39.294011 46.974432 
L 43.117808 44.724176 
L 47.185272 43.345963 
L 51.36166 42.794744 
L 55.530137 42.985149 
L 59.596113 43.806148 
L 63.48821 45.135429 
L 67.156863 46.85149 
L 70.571511 48.842392 
L 73.717176 51.011031 
L 76.590999 53.277378 
L 79.199071 55.578441 
L 81.553738 57.86678 
L 85.570916 62.279541 
L 88.795385 66.358313 
L 91.386033 70.049758 
L 94.401535 74.867972 
L 99.36223 83.213961 
L 100.628241 84.958997 
L 101.944134 86.442048 
L 103.361238 87.662431 
L 104.926249 88.610862 
L 106.682366 89.268893 
L 108.669503 89.608319 
L 110.923287 89.590761 
L 113.47243 89.167908 
L 116.33393 88.283147 
L 119.505476 86.875826 
L 122.95459 84.889817 
L 126.604593 82.288329 
L 128.465005 80.755937 
L 130.318953 79.076345 
L 132.137837 77.26151 
L 133.888162 75.329777 
L 135.531866 73.306659 
L 137.027089 71.225283 
L 138.329469 69.126324 
L 139.394007 67.057243 
L 140.177482 65.07072 
L 140.641293 63.222204 
L 140.754502 61.566692 
L 140.496739 60.154964 
L 139.86059 59.029683 
L 138.853059 58.221871 
L 137.495823 57.748292 
L 135.824162 57.610175 
L 133.884635 57.793508 
L 131.731824 58.270875 
L 129.424568 59.004529 
L 127.022182 59.950194 
L 124.581092 61.061045 
L 119.779124 63.599104 
L 115.333924 66.309884 
L 111.432786 68.986466 
L 108.153108 71.521695 
L 105.495289 73.880336 
L 103.414837 76.067367 
L 101.846879 78.103709 
L 100.722179 80.011723 
L 99.976397 81.808441 
L 99.554718 83.503539 
L 99.41367 85.099655 
L 99.521365 86.593503 
L 99.856959 87.976981 
L 100.409803 89.237889 
L 101.178525 90.360148 
L 102.170144 91.323512 
L 103.399217 92.102813 
L 104.886901 92.666803 
L 106.659748 92.976686 
L 108.747898 92.984519 
L 111.182197 92.631806 
L 113.989542 91.848906 
L 117.185565 90.556377 
L 120.763606 88.670047 
L 124.679064 86.112439 
L 126.73409 84.564425 
L 128.829108 82.833655 
L 130.938421 80.923561 
L 133.029994 78.843987 
L 135.065156 76.612653 
L 136.998683 74.256495 
L 138.779462 71.812651 
L 140.351859 69.328841 
L 141.657954 66.862817 
L 142.640633 64.480648 
L 143.247473 62.253663 
L 143.43508 60.254098 
L 143.173444 58.549747 
L 142.449644 57.198191 
L 141.270288 56.241425 
L 139.662134 55.701761 
L 137.670664 55.579761 
L 135.356727 55.854634 
L 132.791732 56.48705 
L 130.052124 57.423875 
L 127.213938 58.603967 
L 124.348112 59.964089 
L 118.772346 62.990686 
L 113.692157 66.117912 
L 109.302189 69.112216 
L 105.659684 71.874939 
L 102.733634 74.394972 
L 100.447286 76.703288 
L 98.707451 78.842258 
L 97.421803 80.849778 
L 96.507672 82.753495 
L 95.895612 84.57048 
L 95.530074 86.309141 
L 95.368639 87.971609 
L 95.380678 89.555809 
L 95.545898 91.056927 
L 95.853027 92.468282 
L 96.298741 93.781667 
L 96.886891 94.98725 
L 97.628006 96.073117 
L 98.539061 97.024475 
L 99.643437 97.822523 
L 100.971002 98.442955 
L 102.558165 98.854042 
L 104.447678 99.014269 
L 106.687838 98.869535 
L 109.330487 98.350119 
L 112.426917 97.36797 
L 116.020288 95.815535 
L 120.132691 93.568557 
L 122.3798 92.143634 
L 124.74457 90.496952 
L 127.213108 88.615439 
L 129.764629 86.489912 
L 132.370083 84.117121 
L 134.99084 81.502179 
L 137.577608 78.661284 
L 140.069837 75.624513 
L 142.395967 72.438303 
L 144.474867 69.167112 
L 146.218874 65.89359 
L 147.538636 62.716597 
L 148.349765 59.746507 
L 148.580819 57.097667 
L 148.181673 54.878447 
L 147.130886 53.180062 
L 145.44053 52.065994 
L 143.15721 51.56409 
L 140.358741 51.663122 
L 137.146907 52.314725 
L 133.637596 53.440391 
L 129.950145 54.942029 
L 126.197651 56.713914 
L 122.479569 58.653784 
L 115.452007 62.693662 
L 109.285026 66.554572 
L 104.129527 70.007964 
L 99.959616 73.022645 
L 96.658348 75.665325 
L 94.076351 78.029814 
L 92.064338 80.200759 
L 90.487944 82.241212 
L 89.232555 84.192474 
L 87.748223 87.001324 
L 83.695554 95.544662 
L 82.710061 97.088082 
L 81.577381 98.564952 
L 80.258573 99.966315 
L 78.711608 101.27869 
L 76.890573 102.481453 
L 74.745575 103.543137 
L 72.223836 104.416368 
L 69.272792 105.03118 
L 67.621385 105.21162 
L 65.846467 105.286721 
L 63.945207 105.237549 
L 61.917024 105.04216 
L 59.764403 104.675473 
L 57.493876 104.109315 
L 55.117178 103.312738 
L 52.652546 102.2527 
L 50.126085 100.895278 
L 47.573108 99.207528 
L 45.03923 97.160127 
L 42.58096 94.730847 
L 40.265438 91.908795 
L 38.168922 88.69914 
L 36.373689 85.127817 
L 34.963166 81.245381 
L 34.015449 77.129032 
L 33.595804 72.881779 
L 33.74921 68.628046 
L 34.494306 64.505611 
L 35.820055 60.654635 
L 37.685952 57.205328 
L 40.025848 54.266291 
L 42.754622 51.915496 
L 45.776383 50.195317 
L 48.992731 49.112082 
L 52.309885 48.639724 
L 55.643948 48.726382 
L 58.924119 49.302522 
L 62.094009 50.28917 
L 65.111482 51.6052 
L 67.947477 53.173006 
L 70.584253 54.92237 
L 73.013397 56.792616 
L 75.233857 58.733364 
L 77.250126 60.70427 
L 79.070686 62.674123 
L 82.171057 66.523958 
L 84.639791 70.167401 
L 86.587402 73.556027 
L 88.117871 76.679661 
L 89.32315 79.547692 
L 90.689103 83.410546 
L 92.272609 88.844266 
L 93.804418 94.019491 
L 94.646266 96.137954 
L 95.647889 97.961131 
L 96.446188 99.009144 
L 97.381629 99.91483 
L 98.486381 100.665232 
L 99.797419 101.240856 
L 101.357402 101.613866 
L 103.215269 101.74571 
L 105.426236 101.584104 
L 108.050694 101.059469 
L 111.151089 100.081207 
L 114.785382 98.534882 
L 118.994951 96.282576 
L 121.319044 94.843825 
L 123.78411 93.170708 
L 126.379658 91.245219 
L 129.088169 89.052405 
L 131.883411 86.582538 
L 134.728688 83.83384 
L 137.575199 80.815716 
L 140.360755 77.552325 
L 143.00927 74.086114 
L 145.431495 70.480753 
L 147.527537 66.822654 
L 149.191649 63.220145 
L 150.319513 59.799375 
L 150.817731 56.696417 
L 150.614567 54.045701 
L 149.670265 51.965951 
L 147.984809 50.545806 
L 145.601122 49.831969 
L 142.602541 49.822652 
L 139.104712 50.468069 
L 135.243453 51.678064 
L 131.160999 53.335182 
L 126.993188 55.310252 
L 122.859531 57.477276 
L 115.058474 61.96436 
L 108.246082 66.181461 
L 100.175304 71.501312 
L 96.116555 74.401096 
L 92.924163 76.913958 
L 90.41802 79.157659 
L 88.432608 81.223915 
L 86.82544 83.1745 
L 84.869848 85.958603 
L 80.958954 91.954934 
L 79.727526 93.521902 
L 78.353261 95.002367 
L 76.790989 96.377417 
L 74.996533 97.621413 
L 72.926573 98.699101 
L 70.539864 99.561774 
L 67.800421 100.142557 
L 66.290027 100.300102 
L 64.683552 100.351262 
L 62.981309 100.280377 
L 61.185833 100.069909 
L 59.302482 99.70053 
L 57.340122 99.151358 
L 55.311873 98.400422 
L 53.235892 97.425398 
L 51.136107 96.204693 
L 49.042839 94.718924 
L 46.99315 92.95283 
L 45.030788 90.897565 
L 43.205527 88.553291 
L 41.571743 85.931831 
L 40.186109 83.05907 
L 39.104407 79.976654 
L 38.377615 76.742508 
L 38.047634 73.429747 
L 38.143192 70.123701 
L 38.676568 66.917119 
L 39.641727 63.903933 
L 41.014247 61.172353 
L 42.753124 58.79823 
L 44.804144 56.839655 
L 47.104294 55.333517 
L 49.586505 54.294392 
L 52.184118 53.715691 
L 54.834581 53.572651 
L 57.482124 53.82652 
L 60.079385 54.42923 
L 62.588062 55.327933 
L 64.978811 56.468932 
L 67.230598 57.800758 
L 69.329721 59.276294 
L 71.268672 60.85404 
L 73.044981 62.498625 
L 74.660115 64.180791 
L 77.426659 67.568762 
L 79.624915 70.886445 
L 81.325867 74.06133 
L 82.601971 77.059777 
L 83.519844 79.871772 
L 84.136679 82.500633 
L 84.498918 84.956536 
L 84.642193 87.25264 
L 84.591895 89.402835 
L 84.363968 91.420449 
L 83.9657 93.317452 
L 83.396377 95.103899 
L 82.647739 96.787393 
L 81.704241 98.372408 
L 80.543148 99.859314 
L 79.134546 101.242919 
L 77.441446 102.510288 
L 75.420229 103.637562 
L 73.021925 104.585438 
L 70.195067 105.29298 
L 68.605466 105.52974 
L 66.891326 105.669652 
L 65.048767 105.695244 
L 63.075747 105.586034 
L 60.972803 105.318327 
L 58.743976 104.865138 
L 56.3979 104.196327 
L 53.949077 103.279055 
L 51.419273 102.078688 
L 48.838962 100.560307 
L 46.248656 98.690955 
L 43.699893 96.442751 
L 41.255545 93.796864 
L 38.989069 90.748216 
L 36.98227 87.310515 
L 35.321288 83.520927 
L 34.090727 79.443438 
L 33.366292 75.169804 
L 33.206793 70.81709 
L 33.646809 66.521309 
L 34.691507 62.427435 
L 36.31482 58.677009 
L 38.461514 55.39527 
L 41.052789 52.680029 
L 43.994244 50.594147 
L 47.184682 49.162646 
L 50.524285 48.374484 
L 53.921131 48.188106 
L 57.295577 48.539362 
L 60.582522 49.35024 
L 63.731902 50.537078 
L 66.707878 52.017362 
L 66.707878 52.017362 
" clip-path="url(#p2eca8cd440)" style="fill: none; stroke: #1f77b4; stroke-width: 1.5; stroke-linecap: round"/>
   </g>
   <g id="line2d_29">
    <path d="M 125.878379 103.866887 
L 127.800308 100.837271 
L 130.006288 97.71482 
L 140.621015 83.575768 
L 143.387416 79.556904 
L 146.023627 75.382696 
L 148.41991 71.117034 
L 150.457404 66.853252 
L 152.014037 62.712686 
L 152.973196 58.838929 
L 153.234621 55.387033 
L 152.726245 52.508004 
L 151.41499 50.330327 
L 149.314113 48.941788 
L 146.485 48.375672 
L 143.032335 48.604993 
L 139.093171 49.546602 
L 134.822014 51.074334 
L 130.37496 53.037875 
L 125.895872 55.282803 
L 117.302082 60.075272 
L 109.69047 64.638658 
L 100.603264 70.340835 
L 96.031661 73.379885 
L 92.453102 75.964548 
L 89.668006 78.240999 
L 87.487567 80.323124 
L 85.746586 82.286274 
L 83.662248 85.095219 
L 79.550895 91.160454 
L 78.251138 92.734262 
L 76.796066 94.208149 
L 75.139291 95.558504 
L 73.237206 96.754345 
L 71.049281 97.75414 
L 68.54011 98.501785 
L 65.683849 98.922047 
L 64.121905 98.97957 
L 62.471882 98.916213 
L 60.737315 98.715552 
L 58.924525 98.359622 
L 57.043218 97.829178 
L 55.107126 97.104155 
L 53.134639 96.164384 
L 51.149384 94.990618 
L 49.180656 93.565897 
L 47.2636 91.877289 
L 45.439019 89.917945 
L 43.752669 87.689397 
L 42.253933 85.203882 
L 40.993788 82.486422 
L 40.022082 79.576291 
L 39.384255 76.527441 
L 39.117765 73.407543 
L 39.248621 70.295375 
L 39.788516 67.27659 
L 40.733019 64.438175 
L 42.061188 61.862221 
L 43.736754 59.61984 
L 45.710739 57.766103 
L 47.925142 56.336704 
L 50.317163 55.346734 
L 52.823385 54.791573 
L 55.383437 54.64952 
L 57.942804 54.885595 
L 60.454647 55.455828 
L 62.880687 56.311455 
L 65.191287 57.402578 
L 67.364943 58.681042 
L 69.387404 60.102452 
L 71.250605 61.627389 
L 72.951539 63.22196 
L 74.49119 64.857836 
L 75.873558 66.511942 
L 78.192639 69.805658 
L 79.972574 73.002252 
L 81.285037 76.047554 
L 82.199284 78.917785 
L 82.77643 81.607605 
L 83.066736 84.122046 
L 83.108726 86.471326 
L 82.929352 88.667585 
L 82.544659 90.722824 
L 81.960609 92.64752 
L 81.173872 94.449555 
L 80.172504 96.133179 
L 78.936506 97.69777 
L 77.438386 99.136145 
L 75.643903 100.432178 
L 73.513367 101.557441 
L 71.004042 102.466604 
L 68.074537 103.09143 
L 66.441432 103.267867 
L 64.692424 103.33357 
L 62.826908 103.270319 
L 60.846754 103.057199 
L 58.757095 102.67057 
L 56.567224 102.08424 
L 54.291612 101.269887 
L 51.950985 100.197864 
L 49.573387 98.838482 
L 47.195114 97.163874 
L 44.861334 95.150531 
L 42.626182 92.782503 
L 40.552057 90.055162 
L 38.707883 86.979245 
L 37.166112 83.584685 
L 35.998454 79.923541 
L 35.270488 76.071205 
L 35.035668 72.125092 
L 35.329473 68.20029 
L 36.164687 64.422154 
L 37.528722 60.916526 
L 39.383649 57.798922 
L 41.669101 55.164403 
L 44.3076 53.079872 
L 47.211409 51.579991 
L 50.289773 50.667157 
L 53.45545 50.315088 
L 56.629796 50.474975 
L 59.746026 51.082843 
L 62.750711 52.066881 
L 65.603808 53.353801 
L 68.277639 54.873715 
L 70.755276 56.563392 
L 73.028667 58.368046 
L 75.096763 60.241935 
L 76.963809 62.148118 
L 78.637864 64.057687 
L 80.129587 65.948717 
L 82.616013 69.615649 
L 84.528364 73.071727 
L 85.97069 76.287685 
L 87.03718 79.261562 
L 87.808447 82.005576 
L 88.552849 85.731966 
L 88.946215 89.052508 
L 89.0993 92.032299 
L 89.041129 95.570694 
L 88.746077 98.708755 
L 88.217515 101.52971 
L 87.638073 103.478008 
L 86.855938 105.309703 
L 85.807963 107.045317 
L 84.91908 108.156983 
L 83.83925 109.235519 
L 82.526767 110.280408 
L 80.930964 111.286178 
L 78.990962 112.239292 
L 76.634827 113.113281 
L 73.779812 113.861282 
L 70.334962 114.404905 
L 68.362316 114.563163 
L 66.208373 114.618369 
L 63.864065 114.543933 
L 61.322956 114.30746 
L 58.58263 113.869999 
L 55.646483 113.185476 
L 52.525945 112.200489 
L 49.243169 110.854742 
L 45.834078 109.082501 
L 42.351589 106.815525 
L 38.868621 103.987987 
L 35.480235 100.5438 
L 32.304017 96.446516 
L 29.477594 91.691363 
L 27.152192 86.318096 
L 25.481565 80.422212 
L 24.606548 74.161104 
L 24.636947 67.751434 
L 25.633979 61.455112 
L 27.597472 55.553928 
L 30.461639 50.316557 
L 34.101338 45.964822 
L 38.347776 42.647188 
L 43.009895 40.425547 
L 47.896384 39.27726 
L 52.833841 39.110017 
L 57.678501 39.784152 
L 62.321175 41.136458 
L 66.686656 43.000846 
L 70.729577 45.223386 
L 74.428646 47.671212 
L 77.78067 50.236187 
L 80.795218 52.83477 
L 83.490275 55.40556 
L 85.888926 57.905752 
L 89.901195 62.59353 
L 93.044305 66.791296 
L 95.519568 70.48862 
L 98.361865 75.169227 
L 101.253401 80.022258 
L 102.553774 81.935321 
L 103.865058 83.537163 
L 105.250811 84.83826 
L 106.764333 85.838805 
L 108.450642 86.528838 
L 110.347286 86.888484 
L 112.483748 86.888546 
L 114.879129 86.491853 
L 117.537791 85.656088 
L 120.442717 84.339047 
L 123.546656 82.507527 
L 126.761871 80.150889 
L 129.950629 77.299449 
L 131.47702 75.714069 
L 132.920471 74.045576 
L 134.249334 72.318176 
L 135.430191 70.561542 
L 136.429047 68.810421 
L 137.212865 67.103735 
L 137.751348 65.483139 
L 138.018884 63.991031 
L 137.996454 62.668156 
L 137.673336 61.550983 
L 137.048347 60.669149 
L 136.130476 60.04329 
L 134.938746 59.683567 
L 133.5013 59.589106 
L 131.853782 59.748453 
L 130.037189 60.140976 
L 128.095459 60.738983 
L 126.073038 61.51027 
L 121.953718 63.43675 
L 117.972749 65.664195 
L 114.339996 67.991267 
L 111.178165 70.288157 
L 108.537598 72.487736 
L 106.417749 74.565747 
L 104.787616 76.521075 
L 103.601743 78.361201 
L 102.811272 80.093541 
L 102.370839 81.72134 
L 102.242406 83.242356 
L 102.397051 84.648907 
L 102.815472 85.92834 
L 103.487722 87.063394 
L 104.412493 88.032231 
L 105.596081 88.808077 
L 107.05102 89.358526 
L 108.794239 89.644651 
L 110.844449 89.620189 
L 113.218341 89.231221 
L 115.925006 88.417078 
L 118.957985 87.113556 
L 122.284432 85.260013 
L 125.831487 82.812213 
L 127.650307 81.360927 
L 129.471224 79.762456 
L 131.267529 78.026017 
L 133.007909 76.166716 
L 134.656696 74.206392 
L 136.174503 72.174197 
L 137.519311 70.106764 
L 138.648061 68.047766 
L 139.518734 66.046732 
L 140.092836 64.157024 
L 140.338124 62.433003 
L 140.231302 60.926544 
L 139.760378 59.683233 
L 138.926331 58.738705 
L 137.743809 58.115652 
L 136.240669 57.821978 
L 134.456361 57.85042 
L 132.439334 58.179736 
L 130.243778 58.777231 
L 127.926137 59.602243 
L 125.541796 60.609994 
L 120.77323 62.995661 
L 116.272486 65.617583 
L 112.255781 68.252302 
L 108.829242 70.776156 
L 106.0161 73.141888 
L 103.787031 75.347553 
L 102.085329 77.410895 
L 100.844641 79.353111 
L 100.000058 81.190786 
L 99.494301 82.933187 
L 99.280654 84.582368 
L 99.32392 86.134344 
L 99.600279 87.580351 
L 100.096616 88.907727 
L 100.809657 90.100252 
L 101.745078 91.137929 
L 102.916632 91.996259 
L 104.345223 92.645071 
L 106.057751 93.046991 
L 108.085414 93.155707 
L 110.461 92.914297 
L 113.214476 92.254172 
L 116.365964 91.095622 
L 119.915027 89.351651 
L 121.829212 88.233162 
L 123.825301 86.937651 
L 125.889818 85.457995 
L 128.004327 83.79023 
L 130.144719 81.934826 
L 132.280608 79.898152 
L 134.374959 77.69403 
L 136.384071 75.345262 
L 138.258075 72.884914 
L 139.942103 70.357105 
L 141.378237 67.81697 
L 142.508314 65.329491 
L 143.277502 62.966958 
L 143.638431 60.804958 
L 143.555501 58.917091 
L 143.008798 57.368897 
L 141.997023 56.211772 
L 140.53886 55.477863 
L 138.672425 55.176858 
L 136.452734 55.295342 
L 133.947511 55.79888 
L 131.231948 56.63646 
L 128.383173 57.746447 
L 125.475193 59.063 
L 119.739214 62.065347 
L 114.433849 65.221224 
L 109.794272 68.26613 
L 105.908002 71.083002 
L 102.762228 73.653852 
L 100.288023 76.009958 
L 98.392602 78.19692 
L 96.979503 80.255989 
L 95.959662 82.217055 
L 95.256563 84.09812 
L 94.807841 85.907554 
L 94.564972 87.646978 
L 94.511154 90.118459 
L 94.766195 92.408214 
L 95.299261 94.492862 
L 95.810876 95.755229 
L 96.458288 96.904438 
L 97.257757 97.928494 
L 98.231794 98.81217 
L 99.40941 99.535625 
L 100.826444 100.072622 
L 102.525817 100.388277 
L 104.557431 100.436255 
L 106.977237 100.155432 
L 109.844718 99.466252 
L 113.217542 98.267481 
L 117.14161 96.43495 
L 119.317484 95.23673 
L 121.634023 93.82548 
L 124.084478 92.182703 
L 126.656331 90.291487 
L 129.329853 88.138145 
L 132.07657 85.714345 
L 134.857758 83.019763 
L 137.623161 80.065196 
L 140.3102 76.875944 
L 142.844017 73.495103 
L 145.138768 69.986207 
L 147.100547 66.434449 
L 148.632235 62.945598 
L 149.640298 59.641791 
L 150.043165 56.653702 
L 149.780309 54.109321 
L 148.820658 52.120482 
L 147.168695 50.769284 
L 144.866741 50.097145 
L 141.992511 50.099093 
L 138.652074 50.724878 
L 134.969392 51.886812 
L 131.074426 53.472543 
L 127.091919 55.359847 
L 123.13258 57.430433 
L 115.626157 61.726782 
L 109.027439 65.788216 
L 103.51255 69.369839 
L 99.060292 72.453369 
L 95.546759 75.127978 
L 92.809868 77.508037 
L 90.685446 79.692455 
L 89.024229 81.751949 
L 87.697953 83.730319 
L 86.108141 86.592557 
L 82.456643 93.672902 
L 81.385181 95.29138 
L 80.161993 96.83265 
L 78.744751 98.28419 
L 77.089519 99.628427 
L 75.150095 100.839809 
L 72.878423 101.88078 
L 70.226621 102.696475 
L 67.15155 103.208046 
L 65.445073 103.316714 
L 63.623239 103.305041 
L 61.686647 103.153097 
L 59.638848 102.838249 
L 57.487198 102.335239 
L 55.243821 101.616495 
L 52.926664 100.652759 
L 50.560573 99.414159 
L 48.178292 97.871822 
L 45.821228 96.000124 
L 43.539793 93.779616 
L 41.393048 91.200578 
L 39.447425 88.26698 
L 37.774255 85.000463 
L 36.446022 81.443725 
L 35.531395 77.662523 
L 35.089418 73.745479 
L 35.163506 69.801008 
L 35.776148 65.951139 
L 36.925305 62.322599 
L 38.583283 59.036248 
L 40.698473 56.196473 
L 43.199758 53.88233 
L 46.002862 52.141885 
L 49.017548 50.990529 
L 52.154549 50.413181 
L 55.331296 50.369523 
L 58.475937 50.80101 
L 61.52954 51.638334 
L 64.446667 52.808252 
L 67.194744 54.2391 
L 69.752646 55.864704 
L 72.108888 57.626742 
L 74.259744 59.475792 
L 76.20745 61.371396 
L 77.958636 63.28148 
L 79.522999 65.181389 
L 82.139165 68.882528 
L 84.159583 72.384389 
L 85.689316 75.649747 
L 86.824888 78.672242 
L 87.649738 81.461896 
L 88.232919 84.036411 
L 88.771788 87.53959 
L 89.0236 90.672696 
L 89.055664 94.377692 
L 88.830972 97.648292 
L 88.374098 100.575334 
L 87.859662 102.588979 
L 87.16028 104.475601 
L 86.221357 106.25728 
L 85.424962 107.39582 
L 84.457914 108.499446 
L 83.283126 109.569529 
L 81.855322 110.603682 
L 80.119744 111.593385 
L 78.011037 112.520216 
L 75.452781 113.349997 
L 72.358556 114.023925 
L 68.636218 114.445586 
L 66.511497 114.517074 
L 64.198234 114.462932 
L 61.689634 114.251724 
L 58.982705 113.845594 
L 56.079973 113.199675 
L 52.991641 112.261823 
L 49.738185 110.972955 
L 46.353347 109.268332 
L 42.887324 107.080248 
L 39.409804 104.342622 
L 36.012255 100.997921 
L 32.808593 97.00664 
L 29.933175 92.358995 
L 27.535009 87.087661 
L 25.767417 81.279303 
L 24.773275 75.081591 
L 24.667265 68.702024 
L 25.518153 62.395716 
L 27.335157 56.441736 
L 30.062345 51.111138 
L 33.583302 46.633146 
L 37.735486 43.167369 
L 42.330892 40.788507 
L 47.17809 39.486159 
L 52.101029 39.177911 
L 56.951724 39.730715 
L 61.616145 40.984602 
L 66.014366 42.773862 
L 70.096891 44.942896 
L 73.839089 47.355975 
L 77.235231 49.901612 
L 80.293072 52.492933 
L 83.029363 55.065526 
L 85.466411 57.574044 
L 89.545388 62.290352 
L 92.741076 66.52396 
L 95.255434 70.258665 
L 98.134243 74.993172 
L 101.693958 80.924353 
L 102.984907 82.711087 
L 104.314615 84.193465 
L 105.742033 85.377656 
L 107.316922 86.259619 
L 109.081392 86.82522 
L 111.070196 87.050545 
L 113.309494 86.90267 
L 115.81377 86.341438 
L 118.580578 85.323049 
L 121.582931 83.806543 
L 124.759632 81.764414 
L 128.004758 79.198218 
L 131.159125 76.158685 
L 132.63731 74.496032 
L 134.008617 72.766959 
L 135.239598 71.000043 
L 136.295865 69.229168 
L 137.143554 67.492758 
L 137.751089 65.832452 
L 138.091123 64.291219 
L 138.142518 62.911006 
L 137.892148 61.730099 
L 137.336307 60.780471 
L 136.481518 60.085439 
L 135.344603 59.657963 
L 133.951938 59.499827 
L 132.337966 59.601858 
L 130.543121 59.945131 
L 128.611407 60.502987 
L 126.587907 61.243563 
L 122.43781 63.13528 
L 118.397942 65.356718 
L 114.690542 67.696231 
L 111.448622 70.014703 
L 108.729646 72.238594 
L 106.537135 74.340253 
L 104.841781 76.317424 
L 103.598222 78.177787 
L 102.756748 79.929573 
L 102.270651 81.577022 
L 102.100363 83.118849 
L 102.215424 84.548238 
L 102.595088 85.853332 
L 103.228121 87.017648 
L 104.112128 88.020174 
L 105.252561 88.835058 
L 106.66143 89.430938 
L 108.355579 89.770041 
L 110.354265 89.807283 
L 112.675622 89.489762 
L 115.331467 88.757308 
L 118.319795 87.545103 
L 121.614416 85.789892 
L 125.151617 83.441646 
L 126.977255 82.037605 
L 128.814896 80.482454 
L 130.63941 78.783323 
L 132.420965 76.952937 
L 134.125146 75.010548 
L 135.713427 72.982664 
L 137.14409 70.903413 
L 138.373629 68.814369 
L 139.358684 66.763665 
L 140.058431 64.804274 
L 140.437292 62.991427 
L 140.467743 61.37928 
L 140.1329 60.017096 
L 139.42854 58.945377 
L 138.364223 58.192477 
L 136.963289 57.772204 
L 135.261641 57.682841 
L 133.305438 57.907772 
L 131.147964 58.417596 
L 128.846105 59.173399 
L 126.456843 60.130635 
L 121.626726 62.466052 
L 117.016373 65.089201 
L 112.866153 67.754656 
L 109.300923 70.320785 
L 106.355866 72.729214 
L 104.007772 74.973009 
L 102.201894 77.06898 
L 100.871259 79.039476 
L 99.948933 80.902973 
L 99.374974 82.670639 
L 99.099829 84.346161 
L 99.085525 85.926888 
L 99.305647 87.405184 
L 99.744701 88.769444 
L 100.397244 90.004575 
L 101.267 91.091906 
L 102.365991 92.008578 
L 103.713687 92.726461 
L 105.335985 93.21069 
L 107.263787 93.417915 
L 109.53073 93.294503 
L 112.169458 92.775103 
L 115.205579 91.782416 
L 118.648231 90.229595 
L 122.476165 88.0276 
L 124.51508 86.658324 
L 126.618733 85.100687 
L 128.766779 83.351743 
L 130.932862 81.413502 
L 133.084056 79.294477 
L 135.180559 77.011301 
L 137.175821 74.590254 
L 139.017239 72.068472 
L 140.64759 69.494542 
L 142.007311 66.928144 
L 143.037639 64.438433 
L 143.684515 62.100935 
L 143.902957 59.992959 
L 143.66143 58.187796 
L 142.945635 56.748337 
L 141.761047 55.721006 
L 140.1337 55.131032 
L 138.1089 54.979984 
L 135.747977 55.246081 
L 133.12349 55.887278 
L 130.313617 56.846532 
L 127.396545 58.058269 
L 124.445582 59.454933 
L 118.690217 62.555317 
L 113.431803 65.74317 
L 108.877416 68.779989 
L 105.091569 71.571161 
L 102.0458 74.113183 
L 99.662063 76.444455 
L 97.843155 78.612781 
L 96.49117 80.659056 
L 95.517277 82.611874 
L 94.845997 84.487886 
L 94.41627 86.294448 
L 94.180821 88.032603 
L 94.11856 90.504924 
L 94.343343 92.79967 
L 94.824503 94.89562 
L 95.56671 96.768406 
L 96.222889 97.87838 
L 97.028169 98.864376 
L 98.006471 99.711484 
L 99.188123 100.400032 
L 100.610321 100.903774 
L 102.317496 101.187574 
L 104.361331 101.204507 
L 106.799947 100.892359 
L 109.695472 100.169755 
L 113.108735 98.932586 
L 117.089176 97.052379 
L 119.300326 95.825018 
L 121.657384 94.379884 
L 124.153864 92.697446 
L 126.777339 90.759693 
L 129.507913 88.551838 
L 132.31659 86.06455 
L 135.163653 83.296755 
L 137.997272 80.258944 
L 140.752607 76.976794 
L 143.351802 73.494724 
L 145.705285 69.878782 
L 147.714835 66.218025 
L 149.278711 62.623439 
L 150.298894 59.223459 
L 150.690049 56.155582 
L 150.38925 53.554266 
L 149.364961 51.53641 
L 147.623489 50.186767 
L 145.211247 49.546316 
L 142.211886 49.606433 
L 138.738473 50.310535 
L 134.92209 51.562989 
L 130.899038 53.243195 
L 126.798976 55.221597 
L 122.735806 57.374307 
L 115.067443 61.795993 
L 108.363359 65.928511 
L 100.413248 71.141535 
L 96.423129 74.000054 
L 93.302287 76.498274 
L 90.876755 78.752002 
L 88.98329 80.849382 
L 87.479256 82.847933 
L 85.696902 85.726367 
L 81.198392 93.658774 
L 79.998309 95.24187 
L 78.624342 96.73567 
L 77.032505 98.122486 
L 75.177893 99.377637 
L 73.014763 100.465901 
L 70.498127 101.336835 
L 67.587581 101.918941 
L 65.974902 102.071947 
L 64.254509 102.113016 
L 62.426623 102.024381 
L 60.494022 101.785897 
L 58.46277 101.375091 
L 56.343041 100.767392 
L 54.150034 99.936633 
L 51.904905 98.855895 
L 49.635668 97.498807 
L 47.377925 95.84136 
L 45.175268 93.864301 
L 43.079173 91.55607 
L 41.148137 88.916157 
L 39.445881 85.958585 
L 38.038467 82.715085 
L 36.990333 79.237327 
L 36.359464 75.597554 
L 36.192147 71.886953 
L 36.517991 68.211436 
L 37.346029 64.684881 
L 38.662642 61.420503 
L 40.431828 58.521499 
L 42.597885 56.072433 
L 45.090115 54.132746 
L 47.828794 52.733377 
L 50.731443 51.876795 
L 53.718515 51.540084 
L 56.71787 51.680203 
L 59.667713 52.240315 
L 62.51803 53.156135 
L 65.230742 54.361519 
L 67.778934 55.792819 
L 70.145518 57.391889 
L 72.321632 59.107806 
L 74.305003 60.897559 
L 76.09842 62.725966 
L 77.708391 64.565097 
L 79.144015 66.393423 
L 81.536275 69.957785 
L 83.369592 73.339017 
L 84.738806 76.503438 
L 85.730457 79.444695 
L 86.418729 82.171271 
L 86.864228 84.69887 
L 87.114356 87.045998 
L 87.197664 90.269321 
L 86.994763 93.1879 
L 86.538719 95.852673 
L 85.827179 98.305549 
L 85.195582 99.839667 
L 84.418833 101.301711 
L 83.47342 102.696675 
L 82.32919 104.026502 
L 80.948723 105.288844 
L 79.286694 106.475038 
L 77.289434 107.566977 
L 74.895142 108.53236 
L 72.035485 109.317749 
L 68.639867 109.83879 
L 66.720479 109.962241 
L 64.644496 109.967276 
L 62.40778 109.828489 
L 60.009369 109.515827 
L 57.452733 108.994274 
L 54.747318 108.223809 
L 51.910353 107.159786 
L 48.968882 105.753956 
L 45.961893 103.956422 
L 42.942309 101.718774 
L 39.978485 98.998682 
L 37.15471 95.766029 
L 34.570084 92.010419 
L 32.335138 87.749433 
L 30.565694 83.036435 
L 29.373902 77.966146 
L 28.857034 72.6759 
L 29.085469 67.340671 
L 30.092036 62.160997 
L 31.86514 57.344615 
L 34.347592 53.084577 
L 37.441867 49.538068 
L 41.020875 46.810354 
L 44.941951 44.947014 
L 49.061208 43.93537 
L 53.245679 43.713698 
L 57.38169 44.185223 
L 61.379084 45.233505 
L 65.171852 46.736412 
L 68.716216 48.576957 
L 71.987282 50.650443 
L 74.975202 52.868171 
L 77.681453 55.158451 
L 80.115594 57.465766 
L 82.292619 59.748883 
L 84.230897 61.978514 
L 87.472779 66.205765 
L 90.007212 70.067232 
L 91.992282 73.548746 
L 94.241683 78.100122 
L 98.391092 86.989676 
L 99.401304 88.594349 
L 100.507505 89.972198 
L 101.753949 91.1201 
L 103.183248 92.026369 
L 104.837685 92.669818 
L 106.759688 93.018579 
L 108.991152 93.028807 
L 111.571106 92.643615 
L 114.531022 91.792933 
L 117.886804 90.395582 
L 121.626407 88.36563 
L 123.62455 87.088426 
L 125.692423 85.626029 
L 127.812163 83.974181 
L 129.960246 82.132931 
L 132.106861 80.108089 
L 134.215509 77.912803 
L 136.242941 75.569107 
L 138.139608 73.109262 
L 139.850758 70.576613 
L 141.318333 68.025653 
L 142.483709 65.52097 
L 143.291234 63.134824 
L 143.692371 60.943236 
L 143.650037 59.02076 
L 143.142629 57.43439 
L 142.167091 56.237384 
L 140.740457 55.463972 
L 138.899473 55.125917 
L 136.698212 55.211625 
L 134.203959 55.688019 
L 131.491985 56.504853 
L 128.639957 57.600647 
L 125.722771 58.909166 
L 119.954996 61.910481 
L 114.607617 65.078162 
L 109.923377 68.139844 
L 105.994699 70.97328 
L 102.811231 73.558095 
L 100.304783 75.925104 
L 98.382293 78.120425 
L 96.946509 80.18615 
L 95.907384 82.152978 
L 95.187384 84.039561 
L 94.723181 85.854738 
L 94.465364 87.600462 
L 94.38836 90.082963 
L 94.61707 92.386268 
L 95.118202 94.487871 
L 95.604144 95.764052 
L 96.221392 96.929701 
L 96.985261 97.973561 
L 97.917209 98.881387 
L 99.045087 99.634635 
L 100.403491 100.208778 
L 102.034095 100.571156 
L 103.9857 100.678276 
L 106.313589 100.472555 
L 109.077503 99.878643 
L 112.337119 98.799894 
L 116.143357 97.116321 
L 118.261412 96.004229 
L 120.523169 94.68679 
L 122.924237 93.144907 
L 125.455048 91.360431 
L 128.099456 89.317599 
L 130.833212 87.00494 
L 133.622392 84.417729 
L 136.42195 81.560942 
L 139.174626 78.452608 
L 141.810519 75.127276 
L 144.247738 71.639122 
L 146.394529 68.064006 
L 148.15325 64.49962 
L 149.426376 61.062801 
L 150.124357 57.883318 
L 150.174689 55.093964 
L 149.531018 52.817649 
L 148.180673 51.153256 
L 146.148967 50.162837 
L 143.498977 49.86304 
L 140.326407 50.222954 
L 136.750284 51.169131 
L 132.901195 52.596699 
L 128.909273 54.383969 
L 124.893945 56.407349 
L 117.177636 60.729162 
L 110.304209 64.90401 
L 104.508404 68.618255 
L 99.801733 71.816112 
L 96.073564 74.574595 
L 93.163688 77.009941 
L 90.904268 79.228183 
L 89.140265 81.307601 
L 87.737303 83.298041 
L 86.069318 86.172255 
L 82.331826 93.283043 
L 81.253446 94.909609 
L 80.026652 96.458426 
L 78.608704 97.916505 
L 76.955639 99.265843 
L 75.021597 100.480538 
L 72.759221 101.522829 
L 70.12169 102.337895 
L 67.067271 102.847367 
L 65.374028 102.954765 
L 63.567662 102.941973 
L 61.648987 102.789384 
L 59.621747 102.474785 
L 57.493446 101.973456 
L 55.276281 101.258483 
L 52.988162 100.301398 
L 50.65374 99.073241 
L 48.30536 97.546148 
L 45.983774 95.695547 
L 43.738436 93.503003 
L 41.627132 90.959645 
L 39.714693 88.069979 
L 38.070589 84.855686 
L 36.765289 81.358838 
L 35.865472 77.643771 
L 35.428432 73.796845 
L 35.496325 69.923463 
L 36.091089 66.142127 
L 37.210976 62.575894 
L 38.829451 59.342255 
L 40.896819 56.542967 
L 43.344399 54.255517 
L 46.090575 52.527607 
L 49.047698 51.375426 
L 52.128757 50.785619 
L 55.252953 50.720199 
L 58.349655 51.123216 
L 61.360617 51.927899 
L 64.24063 53.06327 
L 66.956999 54.459521 
L 69.488223 56.05188 
L 71.8223 57.782992 
L 73.954899 59.604024 
L 75.887639 61.474803 
L 77.626544 63.363313 
L 79.180742 65.244801 
L 81.780915 68.917712 
L 83.788284 72.40107 
L 85.305181 75.655547 
L 86.426011 78.673001 
L 87.232539 81.462082 
L 87.792412 84.039511 
L 88.284192 87.552216 
L 88.470467 90.700009 
L 88.431985 93.543011 
L 88.210828 96.132241 
L 87.819293 98.510088 
L 87.245377 100.711716 
L 86.454965 102.766339 
L 85.391032 104.697585 
L 84.489834 105.925149 
L 83.398243 107.10789 
L 82.076501 108.244841 
L 80.476418 109.329772 
L 78.54039 110.348159 
L 76.200884 111.272495 
L 73.381054 112.055207 
L 69.997738 112.618287 
L 68.068761 112.781289 
L 65.968969 112.8388 
L 63.690829 112.765362 
L 61.229494 112.530235 
L 58.58409 112.096797 
L 55.759363 111.422139 
L 52.767699 110.457022 
L 49.631508 109.14644 
L 46.385896 107.431118 
L 43.081419 105.250328 
L 39.786567 102.546432 
L 36.589419 99.271458 
L 33.597706 95.3958 
L 30.936364 90.91858 
L 28.741715 85.878538 
L 27.151774 80.363356 
L 26.292952 74.514634 
L 26.264575 68.525501 
L 27.12386 62.628798 
L 28.87474 57.075816 
L 31.463694 52.108521 
L 34.784244 47.930708 
L 38.689529 44.684566 
L 43.010079 42.437806 
L 47.572779 41.183448 
L 52.217206 40.850773 
L 56.806923 41.323386 
L 61.235071 42.459533 
L 65.425019 44.110573 
L 69.327606 46.135141 
L 72.916556 48.408218 
L 76.183383 50.825558 
L 79.132602 53.304547 
L 81.777676 55.782723 
L 84.137812 58.21505 
L 86.235557 60.570732 
L 89.740913 64.981779 
L 92.487276 68.945102 
L 94.654856 72.460392 
L 97.159934 76.961234 
L 100.345786 82.710311 
L 101.538265 84.480341 
L 102.786805 85.971875 
L 104.146202 87.188204 
L 105.664654 88.122913 
L 107.385336 88.759551 
L 109.346844 89.071309 
L 111.582227 89.020957 
L 114.116198 88.561487 
L 116.960022 87.638272 
L 120.103574 86.193964 
L 123.504343 84.177769 
L 127.073894 81.560875 
L 128.878288 80.029592 
L 130.663964 78.359024 
L 132.401452 76.562746 
L 134.05695 74.660669 
L 135.592846 72.679679 
L 136.968672 70.653903 
L 138.142529 68.624435 
L 139.072986 66.638383 
L 139.721408 64.747118 
L 140.054541 63.003733 
L 140.047161 61.459819 
L 139.68446 60.161852 
L 138.96387 59.147579 
L 137.896005 58.442917 
L 136.504535 58.059832 
L 134.824937 57.995562 
L 132.902232 58.233331 
L 130.787989 58.744444 
L 128.536988 59.491405 
L 126.203932 60.431581 
L 121.493455 62.716819 
L 117.000267 65.281534 
L 112.955195 67.891585 
L 109.479063 70.410692 
L 106.607024 72.781252 
L 104.318128 74.994592 
L 102.560855 77.064928 
L 101.271625 79.012109 
L 100.386665 80.852562 
L 99.848817 82.59589 
L 99.610912 84.244565 
L 99.63702 85.794909 
L 99.902494 87.238279 
L 100.393393 88.561957 
L 101.105655 89.74951 
L 102.044211 90.780612 
L 103.222074 91.63036 
L 104.659347 92.268142 
L 106.381982 92.656169 
L 108.419956 92.747819 
L 110.804407 92.48611 
L 113.563035 91.802859 
L 116.712884 90.619567 
L 120.249464 88.851711 
L 124.131391 86.419002 
L 126.174028 84.933916 
L 128.260574 83.264711 
L 130.366285 81.413077 
L 132.460276 79.3867 
L 134.505238 77.200756 
L 136.457513 74.879327 
L 138.267704 72.45654 
L 139.881933 69.97718 
L 141.243873 67.496454 
L 142.297566 65.078641 
L 142.990964 62.79441 
L 143.279923 60.716772 
L 143.132282 58.915889 
L 142.531481 57.453245 
L 141.479141 56.375958 
L 139.996105 55.712162 
L 138.12163 55.468283 
L 135.910739 55.628786 
L 133.430064 56.158477 
L 130.752779 57.006934 
L 127.953363 58.11425 
L 125.102863 59.417098 
L 119.494623 62.370502 
L 114.318133 65.466358 
L 109.796097 68.454922 
L 106.010642 71.225783 
L 102.948497 73.761721 
L 100.542993 76.091786 
L 98.704741 78.258484 
L 97.340902 80.300216 
L 96.365851 82.244649 
L 95.70617 84.108185 
L 95.302259 85.898051 
L 95.108094 87.614988 
L 95.090102 89.255591 
L 95.225727 90.813982 
L 95.50204 92.282779 
L 95.914552 93.653478 
L 96.466318 94.916353 
L 97.167363 96.059975 
L 98.034385 97.070398 
L 99.090716 97.930018 
L 100.36643 98.616067 
L 101.898494 99.098699 
L 103.730714 99.338595 
L 105.913158 99.284078 
L 108.500438 98.867849 
L 111.547967 98.003782 
L 115.104776 96.584817 
L 119.200948 94.484107 
L 121.45071 93.134856 
L 123.827299 91.563346 
L 126.318495 89.754032 
L 128.905318 87.694467 
L 131.560631 85.377266 
L 134.247781 82.802525 
L 136.919449 79.980649 
L 139.51695 76.935401 
L 141.970295 73.70687 
L 144.199361 70.353844 
L 146.116535 66.954934 
L 147.631061 63.607658 
L 148.655129 60.424773 
L 149.111412 57.527422 
L 148.94127 55.035229 
L 148.112474 53.054301 
L 146.625004 51.664939 
L 144.513562 50.91141 
L 141.845952 50.796104 
L 138.717281 51.279603 
L 135.240918 52.286797 
L 131.537842 53.717709 
L 127.726261 55.460604 
L 123.913102 57.404711 
L 116.622054 61.515781 
L 110.148518 65.479379 
L 104.694233 69.027807 
L 100.263978 72.115902 
L 96.754339 74.812247 
L 94.017495 77.21884 
L 91.898593 79.428627 
L 90.254331 81.510307 
L 88.960345 83.507723 
L 87.453643 86.394855 
L 83.405304 95.209245 
L 82.412943 96.798318 
L 81.267431 98.316692 
L 79.928864 99.755466 
L 78.354243 101.101316 
L 76.496655 102.333717 
L 74.30528 103.421078 
L 71.726736 104.315441 
L 68.70864 104.945494 
L 67.020317 105.130625 
L 65.206743 105.207904 
L 63.265723 105.157844 
L 61.197556 104.957833 
L 59.005896 104.582007 
L 56.698762 104.001307 
L 54.289718 103.183821 
L 51.799149 102.095523 
L 49.255586 100.701557 
L 46.69693 98.968219 
L 44.171387 96.86575 
L 41.737846 94.371995 
L 39.465367 91.476852 
L 37.431444 88.187222 
L 35.718747 84.53189 
L 34.410225 80.56551 
L 33.58273 76.370616 
L 33.299724 72.0566 
L 33.604025 67.754867 
L 34.511838 63.610054 
L 36.009296 59.768101 
L 38.052429 56.362873 
L 40.570754 53.503628 
L 43.473942 51.265571 
L 46.660337 49.685106 
L 50.02581 48.760238 
L 53.47159 48.455506 
L 56.910109 48.709937 
L 60.268525 49.446278 
L 63.490043 50.579896 
L 66.53351 52.026228 
L 69.371854 53.706251 
L 71.989931 55.549907 
L 74.382176 57.497743 
L 76.550383 59.501196 
L 78.501729 61.521962 
L 80.247132 63.530838 
L 83.174866 67.433288 
L 85.452624 71.104736 
L 87.201562 74.504739 
L 88.533383 77.628515 
L 89.545258 80.489343 
L 90.637 84.334304 
L 91.61161 88.747304 
L 93.056567 95.675278 
L 93.680138 97.742952 
L 94.450749 99.549755 
L 95.080063 100.608738 
L 95.829133 101.545989 
L 96.725567 102.352423 
L 97.801903 103.01383 
L 99.096693 103.509439 
L 100.655513 103.809913 
L 102.531739 103.874654 
L 104.786755 103.648304 
L 107.488987 103.056449 
L 110.710704 102.000844 
L 114.520876 100.355189 
L 118.971454 97.963868 
L 121.442888 96.433278 
L 124.073561 94.648561 
L 126.852308 92.587613 
L 129.759844 90.231251 
L 132.766784 87.565716 
L 135.831615 84.585916 
L 138.898833 81.299362 
L 141.897586 77.73063 
L 144.741284 73.925925 
L 147.328738 69.957022 
L 149.547412 65.92355 
L 151.279273 61.952332 
L 152.409386 58.1925 
L 152.836846 54.805533 
L 152.486872 51.950352 
L 151.322138 49.765029 
L 149.350944 48.348229 
L 146.629992 47.744468 
L 143.260495 47.937076 
L 139.377922 48.851055 
L 135.137326 50.365371 
L 130.697274 52.33161 
L 126.205471 54.594432 
L 117.545226 59.455749 
L 109.840368 64.106278 
L 100.612402 69.923588 
L 95.961509 73.015895 
L 92.318312 75.635574 
L 89.482095 77.933014 
L 87.261758 80.02652 
L 85.489564 81.99497 
L 83.369613 84.805427 
L 79.197842 90.858116 
L 77.882016 92.423665 
L 76.410703 93.885965 
L 74.737779 95.220364 
L 72.820397 96.394655 
L 70.619411 97.365947 
L 68.101595 98.076764 
L 65.244288 98.450726 
L 63.685985 98.48136 
L 62.04324 98.388667 
L 60.320326 98.156405 
L 58.52437 97.766951 
L 56.665924 97.201612 
L 54.759572 96.441131 
L 52.824518 95.466457 
L 50.885082 94.259803 
L 48.971051 92.806041 
L 47.11775 91.09443 
L 45.365726 89.120622 
L 43.759933 86.88884 
L 42.348297 84.414018 
L 41.179631 81.72363 
L 40.300925 78.858831 
L 39.754168 75.874564 
L 39.572984 72.838283 
L 39.779463 69.827149 
L 40.381657 66.923749 
L 41.372142 64.210717 
L 42.727949 61.764867 
L 44.411942 59.651623 
L 46.375489 57.920541 
L 48.562042 56.602521 
L 50.911121 55.708999 
L 53.362197 55.23306 
L 55.858026 55.152095 
L 58.347166 55.431456 
L 60.785589 56.028486 
L 63.137411 56.896395 
L 65.374917 57.987622 
L 67.478044 59.256442 
L 69.433538 60.660788 
L 71.233947 62.163339 
L 72.876564 63.731998 
L 74.362425 65.339906 
L 75.695399 66.965147 
L 77.927733 70.201696 
L 79.634359 73.345139 
L 80.883388 76.343082 
L 81.740476 79.172004 
L 82.263355 81.826009 
L 82.499193 84.309166 
L 82.483717 86.63052 
L 82.241324 88.800901 
L 81.785681 90.830833 
L 81.120493 92.729073 
L 80.240268 94.501397 
L 79.131004 96.149358 
L 77.770855 97.668775 
L 76.130902 99.047688 
L 74.176311 100.263525 
L 71.868314 101.27924 
L 69.167721 102.03821 
L 67.659257 102.296843 
L 66.040979 102.457971 
L 64.311206 102.506127 
L 62.470148 102.423426 
L 60.520544 102.189476 
L 58.468415 101.78141 
L 56.323928 101.174113 
L 54.102347 100.340706 
L 51.825018 99.253406 
L 49.520322 97.884833 
L 47.224461 96.209874 
L 44.981924 94.208145 
L 42.845414 91.867043 
L 40.875009 89.185246 
L 39.136333 86.176384 
L 37.697594 82.872401 
L 36.625476 79.32596 
L 35.980098 75.611179 
L 35.809518 71.822006 
L 36.144507 68.067835 
L 36.99444 64.466447 
L 38.345121 61.134954 
L 40.159078 58.179971 
L 42.378404 55.688582 
L 44.929734 53.721569 
L 47.730529 52.309948 
L 50.695639 51.45511 
L 53.743238 51.132178 
L 56.799423 51.295604 
L 59.801207 51.885853 
L 62.697912 52.836045 
L 65.451251 54.077748 
L 68.034448 55.545451 
L 70.430796 57.179601 
L 72.631963 58.928302 
L 74.636285 60.747944 
L 76.447183 62.603045 
L 78.071786 64.4656 
L 78.071786 64.4656 
" clip-path="url(#p2eca8cd440)" style="fill: none; stroke: #ff7f0e; stroke-opacity: 0.5; stroke-width: 1.5; stroke-linecap: round"/>
   </g>
  </g>
 </g>
 <defs>
  <clipPath id="p2eca8cd440">
   <rect x="-1.8" y="-7.2" width="176.4" height="176.4"/>
  </clipPath>
 </defs>
</svg>
