<?xml version="1.0" encoding="utf-8" standalone="no"?>
<!DOCTYPE svg PUBLIC "-//W3C//DTD SVG 1.1//EN"
  "http://www.w3.org/Graphics/SVG/1.1/DTD/svg11.dtd">
<svg xmlns:xlink="http://www.w3.org/1999/xlink" width="216pt" height="180pt" viewBox="0 0 216 180" xmlns="http://www.w3.org/2000/svg" version="1.1">
 <metadata>
  <rdf:RDF xmlns:dc="http://purl.org/dc/elements/1.1/" xmlns:cc="http://creativecommons.org/ns#" xmlns:rdf="http://www.w3.org/1999/02/22-rdf-syntax-ns#">
   <cc:Work>
    <dc:type rdf:resource="http://purl.org/dc/dcmitype/StillImage"/>
    <dc:date>2023-06-14T18:53:47.544626</dc:date>
    <dc:format>image/svg+xml</dc:format>
    <dc:creator>
     <cc:Agent>
      <dc:title>Matplotlib v3.7.0, https://matplotlib.org/</dc:title>
     </cc:Agent>
    </dc:creator>
   </cc:Work>
  </rdf:RDF>
 </metadata>
 <defs>
  <style type="text/css">*{stroke-linejoin: round; stroke-linecap: butt}</style>
 </defs>
 <g id="figure_1">
  <g id="patch_1">
   <path d="M 0 180 
L 216 180 
L 216 0 
L 0 0 
z
" style="fill: #ffffff"/>
  </g>
  <g id="patch_2">
   <path d="M -1 169.2 
L 174.6 169.2 
L 174.6 -1 
" style="fill: none"/>
  </g>
  <g id="pane3d_1">
   <g id="patch_3">
    <path d="M 11.519416 125.705413 
L 69.772457 76.876559 
L 68.962684 6.456623 
L 7.921935 51.001381 
" style="fill: none; opacity: 0.5; stroke: #f2f2f2; stroke-linejoin: miter"/>
   </g>
  </g>
  <g id="pane3d_2">
   <g id="patch_4">
    <path d="M 69.772457 76.876559 
L 163.247803 104.046152 
L 166.583609 31.200681 
L 68.962684 6.456623 
" style="fill: none; opacity: 0.5; stroke: #e6e6e6; stroke-linejoin: miter"/>
   </g>
  </g>
  <g id="pane3d_3">
   <g id="patch_5">
    <path d="M 11.519416 125.705413 
L 110.607849 158.067695 
L 163.247803 104.046152 
L 69.772457 76.876559 
" style="fill: none; opacity: 0.5; stroke: #ececec; stroke-linejoin: miter"/>
   </g>
  </g>
  <g id="axis3d_1">
   <g id="line2d_1">
    <path d="M 11.519416 125.705413 
L 110.607849 158.067695 
" style="fill: none; stroke: #ffffff; stroke-width: 0.8; stroke-linecap: round"/>
   </g>
   <g id="text_1">
    <!-- x -->
    <g style="fill: #262626" transform="translate(40.437569 179.640981) scale(0.1 -0.1)">
     <defs>
      <path id="DejaVuSans-78" d="M 3513 3500 
L 2247 1797 
L 3578 0 
L 2900 0 
L 1881 1375 
L 863 0 
L 184 0 
L 1544 1831 
L 300 3500 
L 978 3500 
L 1906 2253 
L 2834 3500 
L 3513 3500 
z
" transform="scale(0.015625)"/>
     </defs>
     <use xlink:href="#DejaVuSans-78"/>
    </g>
   </g>
   <g id="Line3DCollection_1">
    <path d="M 34.914291 133.346179 
L 91.916597 83.312986 
L 92.051669 12.309007 
" style="fill: none; stroke: #d3d3d3; stroke-width: 0.8"/>
    <path d="M 60.018296 141.545147 
L 115.627143 90.204706 
L 116.799498 18.58186 
" style="fill: none; stroke: #d3d3d3; stroke-width: 0.8"/>
    <path d="M 85.81179 149.969302 
L 139.933718 97.269668 
L 142.196957 25.019376 
" style="fill: none; stroke: #d3d3d3; stroke-width: 0.8"/>
   </g>
   <g id="xtick_1">
    <g id="line2d_2">
     <path d="M 88.783784 78.616216 
" clip-path="url(#p216428c4a9)" style="fill: none; stroke: #d3d3d3; stroke-width: 0.8; stroke-linecap: round"/>
    </g>
    <g id="line2d_3">
     <path d="M 35.411046 132.910158 
L 33.91863 134.220111 
" style="fill: none; stroke: #808080; stroke-width: 0.8; stroke-linecap: round"/>
    </g>
    <g id="text_2">
     <!-- −10 -->
     <g style="fill: #808080" transform="translate(16.845415 156.86729) scale(0.1 -0.1)">
      <defs>
       <path id="DejaVuSans-2212" d="M 678 2272 
L 4684 2272 
L 4684 1741 
L 678 1741 
L 678 2272 
z
" transform="scale(0.015625)"/>
       <path id="DejaVuSans-31" d="M 794 531 
L 1825 531 
L 1825 4091 
L 703 3866 
L 703 4441 
L 1819 4666 
L 2450 4666 
L 2450 531 
L 3481 531 
L 3481 0 
L 794 0 
L 794 531 
z
" transform="scale(0.015625)"/>
       <path id="DejaVuSans-30" d="M 2034 4250 
Q 1547 4250 1301 3770 
Q 1056 3291 1056 2328 
Q 1056 1369 1301 889 
Q 1547 409 2034 409 
Q 2525 409 2770 889 
Q 3016 1369 3016 2328 
Q 3016 3291 2770 3770 
Q 2525 4250 2034 4250 
z
M 2034 4750 
Q 2819 4750 3233 4129 
Q 3647 3509 3647 2328 
Q 3647 1150 3233 529 
Q 2819 -91 2034 -91 
Q 1250 -91 836 529 
Q 422 1150 422 2328 
Q 422 3509 836 4129 
Q 1250 4750 2034 4750 
z
" transform="scale(0.015625)"/>
      </defs>
      <use xlink:href="#DejaVuSans-2212"/>
      <use xlink:href="#DejaVuSans-31" x="83.789062"/>
      <use xlink:href="#DejaVuSans-30" x="147.412109"/>
     </g>
    </g>
   </g>
   <g id="xtick_2">
    <g id="line2d_4">
     <path d="M 88.783784 78.616216 
" clip-path="url(#p216428c4a9)" style="fill: none; stroke: #d3d3d3; stroke-width: 0.8; stroke-linecap: round"/>
    </g>
    <g id="line2d_5">
     <path d="M 60.503446 141.097237 
L 59.045868 142.442935 
" style="fill: none; stroke: #808080; stroke-width: 0.8; stroke-linecap: round"/>
    </g>
    <g id="text_3">
     <!-- 0 -->
     <g style="fill: #808080" transform="translate(49.362433 165.330334) scale(0.1 -0.1)">
      <use xlink:href="#DejaVuSans-30"/>
     </g>
    </g>
   </g>
   <g id="xtick_3">
    <g id="line2d_6">
     <path d="M 88.783784 78.616216 
" clip-path="url(#p216428c4a9)" style="fill: none; stroke: #d3d3d3; stroke-width: 0.8; stroke-linecap: round"/>
    </g>
    <g id="line2d_7">
     <path d="M 86.284505 149.50901 
L 84.864256 150.891936 
" style="fill: none; stroke: #808080; stroke-width: 0.8; stroke-linecap: round"/>
    </g>
    <g id="text_4">
     <!-- 10 -->
     <g style="fill: #808080" transform="translate(72.021772 174.027173) scale(0.1 -0.1)">
      <use xlink:href="#DejaVuSans-31"/>
      <use xlink:href="#DejaVuSans-30" x="63.623047"/>
     </g>
    </g>
   </g>
  </g>
  <g id="axis3d_2">
   <g id="line2d_8">
    <path d="M 163.247803 104.046152 
L 110.607849 158.067695 
" style="fill: none; stroke: #ffffff; stroke-width: 0.8; stroke-linecap: round"/>
   </g>
   <g id="text_5">
    <!-- y -->
    <g style="fill: #262626" transform="translate(162.133934 160.636398) scale(0.1 -0.1)">
     <defs>
      <path id="DejaVuSans-79" d="M 2059 -325 
Q 1816 -950 1584 -1140 
Q 1353 -1331 966 -1331 
L 506 -1331 
L 506 -850 
L 844 -850 
Q 1081 -850 1212 -737 
Q 1344 -625 1503 -206 
L 1606 56 
L 191 3500 
L 800 3500 
L 1894 763 
L 2988 3500 
L 3597 3500 
L 2059 -325 
z
" transform="scale(0.015625)"/>
     </defs>
     <use xlink:href="#DejaVuSans-79"/>
    </g>
   </g>
   <g id="Line3DCollection_2">
    <path d="M 15.373313 45.563705 
L 18.606821 119.76461 
L 117.03721 151.469589 
" style="fill: none; stroke: #d3d3d3; stroke-width: 0.8"/>
    <path d="M 28.06408 36.302562 
L 30.692804 109.6339 
L 127.985102 140.234358 
" style="fill: none; stroke: #d3d3d3; stroke-width: 0.8"/>
    <path d="M 40.308571 27.367089 
L 42.371868 99.844276 
L 138.545342 129.396954 
" style="fill: none; stroke: #d3d3d3; stroke-width: 0.8"/>
    <path d="M 52.129921 18.740407 
L 53.664226 90.378798 
L 148.738161 118.936614 
" style="fill: none; stroke: #d3d3d3; stroke-width: 0.8"/>
    <path d="M 63.549691 10.406779 
L 64.588769 81.221629 
L 158.582406 108.833997 
" style="fill: none; stroke: #d3d3d3; stroke-width: 0.8"/>
   </g>
   <g id="xtick_4">
    <g id="line2d_9">
     <path d="M 88.783784 78.616216 
" clip-path="url(#p216428c4a9)" style="fill: none; stroke: #d3d3d3; stroke-width: 0.8; stroke-linecap: round"/>
    </g>
    <g id="line2d_10">
     <path d="M 116.207926 151.202472 
L 118.697913 152.00451 
" style="fill: none; stroke: #808080; stroke-width: 0.8; stroke-linecap: round"/>
    </g>
    <g id="text_6">
     <!-- −20 -->
     <g style="fill: #808080" transform="translate(119.313028 172.431451) scale(0.1 -0.1)">
      <defs>
       <path id="DejaVuSans-32" d="M 1228 531 
L 3431 531 
L 3431 0 
L 469 0 
L 469 531 
Q 828 903 1448 1529 
Q 2069 2156 2228 2338 
Q 2531 2678 2651 2914 
Q 2772 3150 2772 3378 
Q 2772 3750 2511 3984 
Q 2250 4219 1831 4219 
Q 1534 4219 1204 4116 
Q 875 4013 500 3803 
L 500 4441 
Q 881 4594 1212 4672 
Q 1544 4750 1819 4750 
Q 2544 4750 2975 4387 
Q 3406 4025 3406 3419 
Q 3406 3131 3298 2873 
Q 3191 2616 2906 2266 
Q 2828 2175 2409 1742 
Q 1991 1309 1228 531 
z
" transform="scale(0.015625)"/>
      </defs>
      <use xlink:href="#DejaVuSans-2212"/>
      <use xlink:href="#DejaVuSans-32" x="83.789062"/>
      <use xlink:href="#DejaVuSans-30" x="147.412109"/>
     </g>
    </g>
   </g>
   <g id="xtick_5">
    <g id="line2d_11">
     <path d="M 88.783784 78.616216 
" clip-path="url(#p216428c4a9)" style="fill: none; stroke: #d3d3d3; stroke-width: 0.8; stroke-linecap: round"/>
    </g>
    <g id="line2d_12">
     <path d="M 127.166152 139.976781 
L 129.625073 140.750163 
" style="fill: none; stroke: #808080; stroke-width: 0.8; stroke-linecap: round"/>
    </g>
    <g id="text_7">
     <!-- −10 -->
     <g style="fill: #808080" transform="translate(130.039177 160.945229) scale(0.1 -0.1)">
      <use xlink:href="#DejaVuSans-2212"/>
      <use xlink:href="#DejaVuSans-31" x="83.789062"/>
      <use xlink:href="#DejaVuSans-30" x="147.412109"/>
     </g>
    </g>
   </g>
   <g id="xtick_6">
    <g id="line2d_13">
     <path d="M 88.783784 78.616216 
" clip-path="url(#p216428c4a9)" style="fill: none; stroke: #d3d3d3; stroke-width: 0.8; stroke-linecap: round"/>
    </g>
    <g id="line2d_14">
     <path d="M 137.73652 129.148415 
L 140.164995 129.894649 
" style="fill: none; stroke: #808080; stroke-width: 0.8; stroke-linecap: round"/>
    </g>
    <g id="text_8">
     <!-- 0 -->
     <g style="fill: #808080" transform="translate(147.756289 149.866073) scale(0.1 -0.1)">
      <use xlink:href="#DejaVuSans-30"/>
     </g>
    </g>
   </g>
   <g id="xtick_7">
    <g id="line2d_15">
     <path d="M 88.783784 78.616216 
" clip-path="url(#p216428c4a9)" style="fill: none; stroke: #d3d3d3; stroke-width: 0.8; stroke-linecap: round"/>
    </g>
    <g id="line2d_16">
     <path d="M 147.939264 118.696646 
L 150.337905 119.417137 
" style="fill: none; stroke: #808080; stroke-width: 0.8; stroke-linecap: round"/>
    </g>
    <g id="text_9">
     <!-- 10 -->
     <g style="fill: #808080" transform="translate(154.560783 139.172722) scale(0.1 -0.1)">
      <use xlink:href="#DejaVuSans-31"/>
      <use xlink:href="#DejaVuSans-30" x="63.623047"/>
     </g>
    </g>
   </g>
   <g id="xtick_8">
    <g id="line2d_17">
     <path d="M 88.783784 78.616216 
" clip-path="url(#p216428c4a9)" style="fill: none; stroke: #d3d3d3; stroke-width: 0.8; stroke-linecap: round"/>
    </g>
    <g id="line2d_18">
     <path d="M 157.793234 108.602163 
L 160.162643 109.298221 
" style="fill: none; stroke: #808080; stroke-width: 0.8; stroke-linecap: round"/>
    </g>
    <g id="text_10">
     <!-- 20 -->
     <g style="fill: #808080" transform="translate(164.204749 128.845367) scale(0.1 -0.1)">
      <use xlink:href="#DejaVuSans-32"/>
      <use xlink:href="#DejaVuSans-30" x="63.623047"/>
     </g>
    </g>
   </g>
  </g>
  <g id="axis3d_3">
   <g id="line2d_19">
    <path d="M 163.247803 104.046152 
L 166.583609 31.200681 
" style="fill: none; stroke: #ffffff; stroke-width: 0.8; stroke-linecap: round"/>
   </g>
   <g id="text_11">
    <!-- z -->
    <g style="fill: #262626" transform="translate(202.494937 65.789607) scale(0.1 -0.1)">
     <defs>
      <path id="DejaVuSans-7a" d="M 353 3500 
L 3084 3500 
L 3084 2975 
L 922 459 
L 3084 459 
L 3084 0 
L 275 0 
L 275 525 
L 2438 3041 
L 353 3041 
L 353 3500 
z
" transform="scale(0.015625)"/>
     </defs>
     <use xlink:href="#DejaVuSans-7a"/>
    </g>
   </g>
   <g id="Line3DCollection_3">
    <path d="M 163.472347 99.142702 
L 69.717842 72.127038 
L 11.27764 120.68476 
" style="fill: none; stroke: #d3d3d3; stroke-width: 0.8"/>
    <path d="M 164.370623 79.526644 
L 69.499509 53.14027 
L 10.309872 100.58844 
" style="fill: none; stroke: #d3d3d3; stroke-width: 0.8"/>
    <path d="M 165.290769 59.432999 
L 69.276118 33.713612 
L 9.317631 79.983915 
" style="fill: none; stroke: #d3d3d3; stroke-width: 0.8"/>
    <path d="M 166.233594 38.844111 
L 69.047491 13.831599 
L 8.299977 58.851661 
" style="fill: none; stroke: #d3d3d3; stroke-width: 0.8"/>
   </g>
   <g id="xtick_9">
    <g id="line2d_20">
     <path d="M 88.783784 78.616216 
" style="fill: none; stroke: #d3d3d3; stroke-width: 0.8; stroke-linecap: round"/>
    </g>
    <g id="line2d_21">
     <path d="M 162.685377 98.915934 
L 165.048163 99.596779 
" style="fill: none; stroke: #808080; stroke-width: 0.8; stroke-linecap: round"/>
    </g>
    <g id="text_12">
     <!-- 10 -->
     <g style="fill: #808080" transform="translate(175.384381 104.154512) scale(0.1 -0.1)">
      <use xlink:href="#DejaVuSans-31"/>
      <use xlink:href="#DejaVuSans-30" x="63.623047"/>
     </g>
    </g>
   </g>
   <g id="xtick_10">
    <g id="line2d_22">
     <path d="M 88.783784 78.616216 
" style="fill: none; stroke: #d3d3d3; stroke-width: 0.8; stroke-linecap: round"/>
    </g>
    <g id="line2d_23">
     <path d="M 163.573831 79.305034 
L 165.96613 79.9704 
" style="fill: none; stroke: #808080; stroke-width: 0.8; stroke-linecap: round"/>
    </g>
    <g id="text_13">
     <!-- 20 -->
     <g style="fill: #808080" transform="translate(176.497319 84.597406) scale(0.1 -0.1)">
      <use xlink:href="#DejaVuSans-32"/>
      <use xlink:href="#DejaVuSans-30" x="63.623047"/>
     </g>
    </g>
   </g>
   <g id="xtick_11">
    <g id="line2d_24">
     <path d="M 88.783784 78.616216 
" style="fill: none; stroke: #d3d3d3; stroke-width: 0.8; stroke-linecap: round"/>
    </g>
    <g id="line2d_25">
     <path d="M 164.483908 59.216866 
L 166.906464 59.865794 
" style="fill: none; stroke: #808080; stroke-width: 0.8; stroke-linecap: round"/>
    </g>
    <g id="text_14">
     <!-- 30 -->
     <g style="fill: #808080" transform="translate(177.637228 64.566357) scale(0.1 -0.1)">
      <defs>
       <path id="DejaVuSans-33" d="M 2597 2516 
Q 3050 2419 3304 2112 
Q 3559 1806 3559 1356 
Q 3559 666 3084 287 
Q 2609 -91 1734 -91 
Q 1441 -91 1130 -33 
Q 819 25 488 141 
L 488 750 
Q 750 597 1062 519 
Q 1375 441 1716 441 
Q 2309 441 2620 675 
Q 2931 909 2931 1356 
Q 2931 1769 2642 2001 
Q 2353 2234 1838 2234 
L 1294 2234 
L 1294 2753 
L 1863 2753 
Q 2328 2753 2575 2939 
Q 2822 3125 2822 3475 
Q 2822 3834 2567 4026 
Q 2313 4219 1838 4219 
Q 1578 4219 1281 4162 
Q 984 4106 628 3988 
L 628 4550 
Q 988 4650 1302 4700 
Q 1616 4750 1894 4750 
Q 2613 4750 3031 4423 
Q 3450 4097 3450 3541 
Q 3450 3153 3228 2886 
Q 3006 2619 2597 2516 
z
" transform="scale(0.015625)"/>
      </defs>
      <use xlink:href="#DejaVuSans-33"/>
      <use xlink:href="#DejaVuSans-30" x="63.623047"/>
     </g>
    </g>
   </g>
   <g id="xtick_12">
    <g id="line2d_26">
     <path d="M 88.783784 78.616216 
" style="fill: none; stroke: #d3d3d3; stroke-width: 0.8; stroke-linecap: round"/>
    </g>
    <g id="line2d_27">
     <path d="M 165.416405 38.633793 
L 167.869994 39.265266 
" style="fill: none; stroke: #808080; stroke-width: 0.8; stroke-linecap: round"/>
    </g>
    <g id="text_15">
     <!-- 40 -->
     <g style="fill: #808080" transform="translate(178.8051 44.043926) scale(0.1 -0.1)">
      <defs>
       <path id="DejaVuSans-34" d="M 2419 4116 
L 825 1625 
L 2419 1625 
L 2419 4116 
z
M 2253 4666 
L 3047 4666 
L 3047 1625 
L 3713 1625 
L 3713 1100 
L 3047 1100 
L 3047 0 
L 2419 0 
L 2419 1100 
L 313 1100 
L 313 1709 
L 2253 4666 
z
" transform="scale(0.015625)"/>
      </defs>
      <use xlink:href="#DejaVuSans-34"/>
      <use xlink:href="#DejaVuSans-30" x="63.623047"/>
     </g>
    </g>
   </g>
  </g>
  <g id="axes_1">
   <g id="line2d_28">
    <path d="M 125.114359 106.86136 
L 131.570023 98.90808 
L 136.686661 92.123515 
L 139.37739 88.291618 
L 142.075811 84.200248 
L 144.702182 79.89743 
L 147.160761 75.452099 
L 149.340892 70.955138 
L 151.120339 66.518966 
L 152.371743 62.275188 
L 152.972878 58.369668 
L 152.820595 54.954284 
L 151.847015 52.174918 
L 150.034756 50.155994 
L 147.426703 48.983381 
L 144.125875 48.689086 
L 140.283335 49.242197 
L 136.076191 50.549737 
L 131.681668 52.46845 
L 127.254714 54.825018 
L 122.914739 57.439653 
L 114.788473 62.8145 
L 104.428959 69.797342 
L 90.578797 78.825127 
L 87.661924 81.046067 
L 85.321975 83.112181 
L 83.393202 85.082411 
L 80.968115 87.908253 
L 77.318886 92.270406 
L 75.774042 93.858095 
L 74.091291 95.324466 
L 72.220419 96.638771 
L 70.116203 97.760062 
L 67.739106 98.633757 
L 65.05809 99.187754 
L 63.597535 99.316629 
L 62.056164 99.328824 
L 60.435523 99.209071 
L 58.739371 98.940755 
L 56.974182 98.506146 
L 55.149693 97.886788 
L 53.279471 97.064101 
L 51.381486 96.0202 
L 49.478601 94.739002 
L 47.598943 93.20759 
L 45.776027 91.417847 
L 44.048538 89.368274 
L 42.459645 87.065902 
L 41.055736 84.528109 
L 39.884502 81.78412 
L 38.992361 78.875911 
L 38.421336 75.858206 
L 38.205625 72.797315 
L 38.368264 69.768635 
L 38.918342 66.852826 
L 39.849312 64.130896 
L 41.138752 61.678704 
L 42.749779 59.561548 
L 44.633933 57.829604 
L 46.735111 56.51487 
L 48.993907 55.629998 
L 51.351674 55.169061 
L 53.753825 55.109969 
L 56.152057 55.418005 
L 58.505518 56.049867 
L 60.781089 56.957669 
L 62.953046 58.092469 
L 65.002388 59.407076 
L 66.916023 60.858055 
L 68.685926 62.406953 
L 70.308343 64.020863 
L 71.783034 65.672478 
L 74.301653 69.005464 
L 76.284643 72.282801 
L 77.791868 75.436588 
L 78.886882 78.435144 
L 79.628385 81.268472 
L 80.065695 83.938407 
L 80.236978 86.452436 
L 80.169106 88.819977 
L 79.878271 91.050143 
L 79.370829 93.150285 
L 78.644117 95.124857 
L 77.687116 96.974241 
L 76.481013 98.693271 
L 74.999754 100.269185 
L 73.210836 101.678749 
L 71.076713 102.884297 
L 68.557425 103.828485 
L 67.141301 104.177701 
L 65.615345 104.42785 
L 63.976553 104.563265 
L 62.223351 104.565821 
L 60.356153 104.414837 
L 58.378037 104.087103 
L 56.29554 103.557085 
L 54.119576 102.797377 
L 51.866428 101.779488 
L 49.558802 100.475037 
L 47.226822 98.857427 
L 44.908865 96.904043 
L 42.652061 94.598965 
L 40.512219 91.936105 
L 38.552941 88.922597 
L 36.843651 85.582113 
L 35.456344 81.957671 
L 34.460988 78.113361 
L 33.919778 74.134366 
L 33.880769 70.124677 
L 34.371787 66.20215 
L 35.395753 62.490938 
L 36.928561 59.111963 
L 38.920288 56.172657 
L 41.299779 53.75763 
L 43.981859 51.9219 
L 46.875739 50.687837 
L 49.892985 50.046126 
L 52.953698 49.960198 
L 55.990234 50.372942 
L 58.948499 51.2143 
L 61.787413 52.408536 
L 64.477332 53.880335 
L 66.998152 55.559333 
L 69.337535 57.383039 
L 71.489454 59.298317 
L 73.453024 61.261733 
L 75.231543 63.239092 
L 76.83163 65.204465 
L 79.534825 69.029509 
L 81.652868 72.647962 
L 83.284661 76.028113 
L 84.524062 79.169396 
L 85.452688 82.086074 
L 86.137545 84.798067 
L 86.819909 88.527691 
L 87.197878 91.908197 
L 87.351961 94.994037 
L 87.284591 98.725946 
L 87.051181 101.284197 
L 86.655949 103.669327 
L 86.075001 105.907192 
L 85.265637 108.020692 
L 84.568228 109.370326 
L 83.715337 110.677636 
L 82.674829 111.944795 
L 81.406992 113.170455 
L 79.863242 114.347406 
L 77.98485 115.458829 
L 75.702039 116.472451 
L 72.934113 117.331691 
L 69.591902 117.942793 
L 67.676836 118.111613 
L 65.584783 118.157342 
L 63.306675 118.049409 
L 60.83595 117.751194 
L 58.169864 117.219597 
L 55.31115 116.404968 
L 52.270066 115.251598 
L 49.066804 113.699022 
L 45.734215 111.684403 
L 42.320694 109.146232 
L 38.892952 106.029508 
L 35.538249 102.292423 
L 32.365414 97.914363 
L 29.503757 92.904811 
L 27.098729 87.312337 
L 25.303225 81.232457 
L 24.263857 74.812493 
L 24.102729 68.251029 
L 24.897111 61.789408 
L 26.661525 55.693638 
L 29.337908 50.227463 
L 32.798567 45.620763 
L 36.863089 42.040413 
L 41.325423 39.57124 
L 45.983623 38.211907 
L 50.664121 37.885583 
L 55.23529 38.460723 
L 59.609427 39.775344 
L 63.736064 41.659039 
L 67.591199 43.949537 
L 71.166734 46.503109 
L 74.462739 49.199698 
L 77.483289 51.944188 
L 80.235101 54.665146 
L 84.973651 59.851713 
L 88.792282 64.541483 
L 91.846151 68.68256 
L 95.364692 73.933653 
L 100.375103 81.631194 
L 101.841777 83.512661 
L 103.335018 85.084928 
L 104.911889 86.349804 
L 106.620531 87.298205 
L 108.501678 87.910826 
L 110.588809 88.158934 
L 112.906743 88.005709 
L 115.468483 87.40877 
L 118.270041 86.324708 
L 121.283155 84.716598 
L 124.44613 82.565301 
L 127.653904 79.884707 
L 130.749772 76.739648 
L 132.191888 75.03142 
L 133.5232 73.262845 
L 134.710652 71.462713 
L 135.720134 69.664435 
L 136.517945 67.905312 
L 137.0726 66.225364 
L 137.356896 64.665699 
L 137.350064 63.266482 
L 137.039771 62.064614 
L 136.423703 61.091316 
L 135.510447 60.369892 
L 134.319476 59.913954 
L 132.880149 59.726403 
L 131.229832 59.79936 
L 129.411375 60.11511 
L 127.470316 60.647946 
L 125.45217 61.366648 
L 121.353249 63.225648 
L 117.405213 65.431766 
L 113.81132 67.778625 
L 110.688659 70.133819 
L 108.083892 72.428384 
L 105.993638 74.634222 
L 104.384173 76.74345 
L 103.20763 78.754915 
L 102.413603 80.667319 
L 101.95631 82.476542 
L 101.798307 84.174985 
L 101.911893 85.751598 
L 102.279174 87.19193 
L 102.891435 88.47794 
L 103.748198 89.587493 
L 104.856113 90.493593 
L 106.227655 91.163407 
L 107.879486 91.557254 
L 109.83021 91.627785 
L 112.09713 91.319809 
L 114.691519 90.571427 
L 117.611828 89.317504 
L 120.834322 87.496803 
L 124.30094 85.064181 
L 127.905005 82.00875 
L 129.708386 80.259151 
L 131.477033 78.377315 
L 133.178421 76.382247 
L 134.775616 74.299449 
L 136.22791 72.16119 
L 137.491946 70.006396 
L 138.523414 67.880014 
L 139.279324 65.831777 
L 139.720808 63.914268 
L 139.816249 62.180326 
L 139.544412 60.67986 
L 138.897153 59.456334 
L 137.881194 58.543287 
L 136.518576 57.961368 
L 134.845532 57.716382 
L 132.909877 57.798777 
L 130.767278 58.184735 
L 128.477016 58.838798 
L 126.097912 59.717592 
L 123.68495 60.77407 
L 118.945082 63.23731 
L 114.555627 65.913551 
L 110.694355 68.595902 
L 107.43853 71.181844 
L 104.792518 73.639029 
L 102.71482 75.969535 
L 101.141017 78.185894 
L 100.000739 80.299353 
L 99.228342 82.315971 
L 98.768393 84.236406 
L 98.577661 86.056871 
L 98.62513 87.770092 
L 98.891105 89.365868 
L 99.366042 90.831147 
L 100.049434 92.14966 
L 100.948842 93.301168 
L 102.079066 94.260365 
L 103.461342 94.995475 
L 105.122358 95.466616 
L 107.0928 95.624082 
L 109.404988 95.406877 
L 112.088993 94.742118 
L 115.166458 93.546404 
L 118.641157 91.730829 
L 120.52051 90.56383 
L 122.485391 89.211897 
L 124.524425 87.668585 
L 126.621764 85.930717 
L 128.756346 83.999508 
L 130.901194 81.881785 
L 133.022829 79.591248 
L 135.080907 77.149661 
L 137.028227 74.587866 
L 138.811286 71.946442 
L 140.371578 69.275844 
L 141.647824 66.635795 
L 142.57925 64.093757 
L 143.109886 61.722277 
L 143.19364 59.595161 
L 142.799578 57.782541 
L 141.916605 56.345201 
L 140.556547 55.328778 
L 138.754758 54.758758 
L 136.567789 54.637266 
L 134.068332 54.94247 
L 131.338325 55.63099 
L 128.461604 56.642991 
L 125.517436 57.909084 
L 122.575903 59.357714 
L 116.922167 62.543551 
L 111.825194 65.790156 
L 107.44647 68.877693 
L 103.827897 71.738461 
L 100.931785 74.386854 
L 98.674984 76.864035 
L 96.956458 79.209141 
L 95.676322 81.449843 
L 94.746322 83.602327 
L 94.093872 85.67426 
L 93.662247 87.667877 
L 93.339279 90.508966 
L 93.325702 93.161876 
L 93.573051 95.612811 
L 94.068261 97.844179 
L 94.542939 99.198448 
L 95.145757 100.435438 
L 95.893354 101.542894 
L 96.807879 102.504581 
L 97.917386 103.298857 
L 99.256288 103.896816 
L 100.865737 104.259926 
L 102.793675 104.33712 
L 105.094182 104.061431 
L 107.82546 103.346546 
L 111.045474 102.084254 
L 114.803816 100.144707 
L 116.894823 98.875845 
L 119.127907 97.382827 
L 121.499498 95.64797 
L 124.001421 93.655665 
L 126.619692 91.393882 
L 129.333144 88.855984 
L 132.111961 86.042824 
L 134.916169 82.965023 
L 137.694217 79.645316 
L 140.381885 76.120764 
L 142.901835 72.444628 
L 145.164274 68.687587 
L 147.069341 64.937977 
L 148.51182 61.300547 
L 149.388653 57.893221 
L 149.609226 54.841281 
L 149.107574 52.268626 
L 147.85451 50.286274 
L 145.866748 48.979204 
L 143.209824 48.39379 
L 139.992739 48.528844 
L 136.354631 49.333219 
L 132.446541 50.711496 
L 128.413113 52.536976 
L 124.378763 54.669017 
L 120.440766 56.970661 
L 113.109726 61.633609 
L 103.932621 67.823891 
L 99.116578 71.226562 
L 95.269172 74.16607 
L 92.252945 76.78808 
L 89.903455 79.206581 
L 88.059154 81.49429 
L 86.57809 83.691697 
L 84.787476 86.858213 
L 80.687812 94.600646 
L 79.516728 96.355323 
L 78.197482 98.02068 
L 76.687083 99.581565 
L 74.94106 101.015747 
L 72.913014 102.29051 
L 70.555332 103.358093 
L 67.821657 104.149848 
L 66.300877 104.413449 
L 64.672069 104.569388 
L 62.932764 104.600145 
L 61.082356 104.485709 
L 59.122726 104.203559 
L 57.058991 103.728806 
L 54.900376 103.034559 
L 52.661176 102.092599 
L 50.361782 100.87443 
L 48.029698 99.352792 
L 45.70043 97.503683 
L 43.418093 95.308896 
L 41.235543 92.759024 
L 39.213758 89.856768 
L 37.420238 86.620296 
L 35.926173 83.086232 
L 34.802279 79.311769 
L 34.113407 75.375271 
L 33.912328 71.374767 
L 34.233493 67.423871 
L 35.087831 63.645041 
L 36.459747 60.16062 
L 38.307247 57.082711 
L 40.565479 54.50345 
L 43.153199 52.487329 
L 45.980906 51.066931 
L 48.959056 50.242642 
L 52.004861 49.986066 
L 55.046796 50.24611 
L 58.02661 50.956395 
L 60.899311 52.042678 
L 63.631856 53.429343 
L 66.201315 55.044424 
L 68.593047 56.823006 
L 70.79914 58.709127 
L 72.817171 60.656456 
L 74.649182 62.628059 
L 76.300795 64.595566 
L 79.098348 68.440613 
L 81.296614 72.090427 
L 82.993767 75.505944 
L 84.284657 78.682654 
L 85.252705 81.632949 
L 85.966913 84.376044 
L 86.678374 88.147435 
L 87.071799 91.564484 
L 87.231029 94.682654 
L 87.203875 97.54747 
L 87.011425 100.196426 
L 86.653606 102.661099 
L 86.111571 104.968823 
L 85.347465 107.143581 
L 84.301793 109.205644 
L 83.407052 110.52508 
L 82.316133 111.80233 
L 80.987745 113.034803 
L 79.371516 114.213292 
L 77.406809 115.317839 
L 75.022032 116.311341 
L 72.135222 117.129976 
L 70.475825 117.443188 
L 68.657347 117.669493 
L 66.668944 117.786554 
L 64.50086 117.767047 
L 62.145279 117.578007 
L 59.597449 117.180295 
L 56.857136 116.528335 
L 53.930432 115.570276 
L 50.831943 114.248829 
L 47.587314 112.50302 
L 44.236001 110.27111 
L 40.834085 107.494905 
L 37.456797 104.125544 
L 34.200226 100.130703 
L 31.181439 95.50294 
L 28.536036 90.268597 
L 26.411992 84.496278 
L 24.958854 78.303431 
L 24.312118 71.858934 
L 24.574063 65.379207 
L 25.794374 59.115626 
L 27.955603 53.332588 
L 30.96885 48.278412 
L 34.682924 44.154618 
L 38.905966 41.091083 
L 43.433986 39.133624 
L 48.078335 38.246651 
L 52.685149 38.32861 
L 57.143527 39.234522 
L 61.383366 40.799263 
L 65.366645 42.857027 
L 69.076691 45.25494 
L 72.508943 47.860943 
L 75.664964 50.567092 
L 78.549679 53.289645 
L 81.170789 55.967114 
L 85.668536 61.03298 
L 89.282012 65.591277 
L 92.171266 69.611669 
L 95.514601 74.715682 
L 99.63184 81.186826 
L 101.084451 83.179538 
L 102.544334 84.864284 
L 104.071543 86.246255 
L 105.716826 87.319621 
L 107.523587 88.068112 
L 109.528535 88.465602 
L 111.760887 88.477037 
L 114.239888 88.060272 
L 116.970394 87.169579 
L 119.936276 85.761803 
L 123.091671 83.806141 
L 126.350718 81.298142 
L 129.577556 78.277427 
L 131.121096 76.603929 
L 132.580212 74.846551 
L 133.922713 73.030372 
L 135.114246 71.185622 
L 136.119467 69.3473 
L 136.903613 67.554361 
L 137.434438 65.848444 
L 137.684404 64.272108 
L 137.632943 62.866659 
L 137.268539 61.66968 
L 136.590314 60.712498 
L 135.608848 60.017859 
L 134.346011 59.598155 
L 132.833751 59.454478 
L 131.111983 59.57671 
L 129.225837 59.944681 
L 127.222694 60.530263 
L 125.149376 61.300072 
L 120.963412 63.249982 
L 116.959227 65.526622 
L 113.335845 67.923666 
L 110.203991 70.313074 
L 107.603698 72.631259 
L 105.52574 74.854594 
L 103.931794 76.978227 
L 102.770741 79.002819 
L 101.990084 80.928105 
L 101.542849 82.75058 
L 101.391024 84.463076 
L 101.50674 86.054929 
L 101.872191 87.512089 
L 102.478919 88.816952 
L 103.326851 89.947859 
L 104.423201 90.8783 
L 105.781222 91.575892 
L 107.418668 92.001279 
L 109.355676 92.107177 
L 111.611692 91.837975 
L 114.20093 91.130555 
L 117.125764 89.917353 
L 120.367463 88.133006 
L 123.873966 85.726138 
L 127.545099 82.677392 
L 129.394113 80.920838 
L 131.217232 79.0234 
L 132.982218 77.002806 
L 134.65206 74.883443 
L 136.185497 72.696756 
L 137.538027 70.481274 
L 138.663508 68.282121 
L 139.516391 66.149912 
L 140.054551 64.138928 
L 140.242548 62.304556 
L 140.055019 60.700061 
L 139.479739 59.372908 
L 138.519838 58.360992 
L 137.194666 57.689269 
L 135.538997 57.367361 
L 133.600571 57.38859 
L 131.436297 57.730754 
L 129.107769 58.358598 
L 126.676804 59.227616 
L 124.201666 60.288544 
L 119.319043 62.791484 
L 114.779472 65.528295 
L 110.775048 68.273539 
L 107.39096 70.915273 
L 104.634569 73.419033 
L 102.463839 75.788618 
L 100.811642 78.039446 
L 99.603888 80.185478 
L 98.771024 82.234924 
L 98.253965 84.190095 
L 98.00625 86.048556 
L 97.99405 87.804294 
L 98.195205 89.448448 
L 98.597963 90.969529 
L 99.199803 92.353182 
L 100.006442 93.581538 
L 101.031045 94.63222 
L 102.293545 95.477011 
L 103.81991 96.080237 
L 105.64111 96.396933 
L 107.791413 96.37102 
L 110.305493 95.933927 
L 113.21361 95.004499 
L 116.533955 93.491608 
L 120.261067 91.301563 
L 122.265061 89.926082 
L 124.349452 88.352934 
L 126.498787 86.577892 
L 128.692237 84.601153 
L 130.902812 82.428634 
L 133.096687 80.073328 
L 135.232736 77.556608 
L 137.262424 74.909369 
L 139.130264 72.172823 
L 140.775044 69.398759 
L 142.132047 66.649054 
L 143.136423 63.994194 
L 143.727723 61.510612 
L 143.855352 59.276719 
L 143.48439 57.367698 
L 142.600868 55.849374 
L 141.215387 54.771842 
L 139.364066 54.163833 
L 137.106208 54.028956 
L 134.518852 54.344789 
L 131.689218 55.065305 
L 128.706557 56.126356 
L 125.655004 57.453227 
L 122.608515 58.968806 
L 116.762105 62.287716 
L 111.503002 65.645297 
L 106.99406 68.812962 
L 103.273998 71.727013 
L 100.299576 74.410428 
L 97.980968 76.912375 
L 96.210433 79.277709 
L 94.882109 81.537696 
L 93.902761 83.710689 
L 93.195722 85.805742 
L 92.700817 87.826139 
L 92.259876 90.71649 
L 92.091399 93.433291 
L 92.135202 95.968545 
L 92.363752 98.313208 
L 92.774559 100.456326 
L 93.386415 102.382761 
L 93.924569 103.535843 
L 94.586165 104.573025 
L 95.39308 105.481142 
L 96.37264 106.242298 
L 97.558327 106.8322 
L 98.990508 107.217952 
L 100.717027 107.355221 
L 102.793359 107.184709 
L 105.281849 106.628071 
L 108.249225 105.583822 
L 111.761108 103.924583 
L 115.871723 101.498349 
L 118.161287 99.945521 
L 120.606487 98.138325 
L 123.201563 96.057615 
L 125.93494 93.687503 
L 128.787729 91.017318 
L 131.732055 88.043919 
L 134.729262 84.774254 
L 137.728109 81.228045 
L 140.66314 77.440416 
L 143.453571 73.464228 
L 146.003206 69.371858 
L 148.202098 65.256055 
L 149.930806 61.229382 
L 151.068056 57.421603 
L 151.502161 53.974206 
L 151.14563 51.031369 
L 149.950882 48.727114 
L 147.923482 47.169519 
L 145.128442 46.424389 
L 141.686047 46.502244 
L 137.756615 47.352841 
L 133.517635 48.869987 
L 129.13974 50.906359 
L 124.768112 53.294779 
L 120.513209 55.870616 
L 112.62773 61.043011 
L 95.462742 72.806898 
L 91.80733 75.572417 
L 88.94885 78.041807 
L 86.704513 80.329809 
L 84.905334 82.502401 
L 82.735786 85.611376 
L 78.439813 92.250887 
L 77.101153 93.959627 
L 75.617078 95.558522 
L 73.942072 97.024489 
L 72.0325 98.325785 
L 69.846773 99.418611 
L 67.34717 100.242915 
L 65.969878 100.530014 
L 64.503917 100.717738 
L 62.947985 100.791995 
L 61.302391 100.736958 
L 59.56952 100.535093 
L 57.754363 100.167314 
L 55.865134 99.613298 
L 53.913927 98.851995 
L 51.917408 97.862415 
L 49.897475 96.624695 
L 47.881823 95.121511 
L 45.904303 93.339805 
L 44.004962 91.272824 
L 42.229598 88.922332 
L 40.628703 86.300877 
L 39.255641 83.433823 
L 38.164014 80.360875 
L 37.404255 77.136695 
L 37.01966 73.830271 
L 37.042261 70.522726 
L 37.489109 67.303475 
L 38.359611 64.264858 
L 39.634525 61.495758 
L 41.276947 59.074961 
L 43.23527 57.065229 
L 45.447656 55.50896 
L 47.847255 54.426102 
L 50.367296 53.81447 
L 52.945295 53.652235 
L 55.525964 53.901958 
L 58.062729 54.515399 
L 60.518082 55.438364 
L 62.863131 56.615039 
L 65.076719 57.991452 
L 67.1444 59.517948 
L 69.057423 61.150703 
L 70.811806 62.852422 
L 72.407483 64.592388 
L 73.847524 66.346078 
L 76.284403 69.82342 
L 78.183916 73.184687 
L 79.618591 76.381524 
L 80.65976 79.396948 
L 81.370412 82.231397 
L 81.801999 84.893963 
L 81.993711 87.39727 
L 81.97305 89.754613 
L 81.756877 91.978401 
L 81.352493 94.079254 
L 80.758523 96.065358 
L 79.965534 97.941793 
L 78.956399 99.709628 
L 77.706479 101.364546 
L 76.183766 102.894782 
L 74.349221 104.278061 
L 72.157702 105.477217 
L 69.560111 106.434182 
L 68.093623 106.796101 
L 66.507772 107.062223 
L 64.797864 107.215742 
L 62.96054 107.236941 
L 60.994389 107.102988 
L 58.900691 106.787854 
L 56.684336 106.262422 
L 54.354886 105.494868 
L 51.927795 104.451415 
L 49.425713 103.097581 
L 46.879815 101.400012 
L 44.331 99.328978 
L 41.830764 96.861559 
L 39.441471 93.985443 
L 37.23569 90.703158 
L 35.294209 87.036379 
L 33.702423 83.029777 
L 32.544886 78.753704 
L 31.898189 74.304858 
L 31.822748 69.804067 
L 32.354676 65.390584 
L 33.499315 61.212788 
L 35.228098 57.41604 
L 37.479952 54.129343 
L 40.167398 51.453126 
L 43.186287 49.450483 
L 46.427078 48.143502 
L 49.785263 47.515072 
L 53.16906 47.515244 
L 56.503488 48.070378 
L 59.731102 49.093091 
L 62.810368 50.491377 
L 65.712941 52.175921 
L 68.420846 54.065216 
L 70.924145 56.088585 
L 73.219231 58.187436 
L 75.307617 60.3152 
L 77.194993 62.436369 
L 80.405416 66.563257 
L 82.948551 70.446531 
L 84.939292 74.043418 
L 86.491063 77.353313 
L 87.705187 80.394777 
L 89.075134 84.50858 
L 90.386075 89.282295 
L 92.178423 96.069803 
L 92.995088 98.455552 
L 93.952979 100.542064 
L 94.709567 101.761118 
L 95.591646 102.832508 
L 96.629931 103.741646 
L 97.859838 104.46716 
L 99.322377 104.978972 
L 101.064816 105.235778 
L 103.140848 105.181921 
L 105.609818 104.743798 
L 108.53425 103.826352 
L 111.974531 102.310906 
L 113.904107 101.285647 
L 115.979082 100.056778 
L 118.200949 98.604811 
L 120.567934 96.910745 
L 123.073961 94.957189 
L 125.707451 92.729808 
L 128.44994 90.219112 
L 131.27457 87.422559 
L 134.14448 84.346893 
L 137.011223 81.010597 
L 139.813394 77.446308 
L 142.47577 73.702949 
L 144.909409 69.847335 
L 147.013316 65.964898 
L 148.678382 62.159082 
L 149.794217 58.548852 
L 150.259135 55.263678 
L 149.992758 52.435437 
L 148.949538 50.187122 
L 147.130244 48.619116 
L 144.587813 47.79503 
L 141.424621 47.730236 
L 137.780477 48.386574 
L 133.813817 49.675621 
L 129.681137 51.470538 
L 125.520099 53.623893 
L 121.439921 55.987127 
L 113.811264 60.838779 
L 104.213128 67.307463 
L 97.006562 72.387235 
L 93.406382 75.197209 
L 90.59333 77.723013 
L 88.395181 80.070434 
L 86.65083 82.302627 
L 85.22271 84.452666 
L 83.434728 87.55282 
L 80.73831 92.394896 
L 78.967774 95.076412 
L 77.624109 96.750268 
L 76.098105 98.314428 
L 74.345374 99.745241 
L 72.320845 101.008758 
L 69.979523 102.056436 
L 67.279047 102.819793 
L 65.782822 103.066505 
L 64.184921 103.204335 
L 62.483753 103.216461 
L 60.679636 103.08385 
L 58.775388 102.785287 
L 56.777024 102.297572 
L 54.69455 101.595932 
L 52.542825 100.654714 
L 50.342463 99.448432 
L 48.120689 97.953222 
L 45.912048 96.148737 
L 43.758829 94.020493 
L 41.711004 91.562571 
L 39.825488 88.780542 
L 38.164488 85.694355 
L 36.792793 82.34082 
L 35.773924 78.775212 
L 35.165311 75.071497 
L 35.01287 71.320654 
L 35.345701 67.626786 
L 36.17178 64.100999 
L 37.475625 60.853487 
L 39.218597 57.984766 
L 41.342068 55.577347 
L 43.772976 53.689224 
L 46.430757 52.350252 
L 49.234343 51.561879 
L 52.108045 51.299994 
L 54.985568 51.520068 
L 57.811997 52.163489 
L 60.544061 53.164005 
L 63.149263 54.453449 
L 65.604467 55.966273 
L 67.894398 57.642708 
L 70.010283 59.430631 
L 71.948701 61.286334 
L 73.710601 63.17447 
L 75.300439 65.067429 
L 77.99453 68.790296 
L 80.10783 72.35075 
L 81.729125 75.704141 
L 82.94506 78.84026 
L 83.832167 81.766713 
L 84.453639 84.499065 
L 84.859043 87.055477 
L 85.140169 90.599412 
L 85.097364 93.842977 
L 84.768667 96.832532 
L 84.15709 99.60568 
L 83.579721 101.348913 
L 82.849261 103.015292 
L 81.943884 104.608633 
L 80.835064 106.129396 
L 79.486922 107.573134 
L 77.855542 108.928017 
L 75.888484 110.171017 
L 73.524924 111.262217 
L 70.697184 112.136628 
L 69.087178 112.462692 
L 67.334965 112.693046 
L 65.432824 112.807098 
L 63.374407 112.780188 
L 61.155522 112.583184 
L 58.775124 112.182221 
L 56.236567 111.538688 
L 53.549114 110.609606 
L 50.729698 109.348555 
L 47.804896 107.707332 
L 44.812992 105.638531 
L 41.805946 103.099151 
L 38.850954 100.055305 
L 36.03117 96.487919 
L 33.445006 92.399151 
L 31.203332 87.818991 
L 29.423911 82.811195 
L 28.222676 77.477363 
L 27.702022 71.957678 
L 27.937303 66.426728 
L 28.963856 61.083288 
L 30.767719 56.13402 
L 33.283211 51.772867 
L 36.399119 48.159744 
L 39.972818 45.403105 
L 43.849043 43.550425 
L 47.878599 42.588403 
L 51.932686 42.451916 
L 55.91046 43.038556 
L 59.739888 44.224904 
L 63.373833 45.881295 
L 66.784033 47.883268 
L 69.955231 50.119156 
L 72.880806 52.494193 
L 75.560134 54.931874 
L 77.997292 57.373366 
L 80.200424 59.775685 
L 83.954473 64.355121 
L 86.946937 68.547108 
L 89.324163 72.326943 
L 92.049739 77.275272 
L 97.573809 88.010972 
L 98.739098 89.705269 
L 99.996784 91.16198 
L 101.390517 92.371536 
L 102.962498 93.315137 
L 104.754412 93.963855 
L 106.807416 94.277582 
L 109.160923 94.20414 
L 111.849674 93.679153 
L 114.898478 92.627672 
L 118.313797 90.969119 
L 120.152952 89.887856 
L 122.071401 88.627574 
L 124.05859 87.182423 
L 126.099763 85.549554 
L 128.175294 83.73014 
L 130.260043 81.730509 
L 132.322835 79.563297 
L 134.326128 77.248556 
L 136.226027 74.814699 
L 137.972773 72.299136 
L 139.511908 69.748437 
L 140.786249 67.217836 
L 141.738801 64.769899 
L 142.316579 62.472202 
L 142.475138 60.39394 
L 142.183355 58.601545 
L 141.427758 57.153592 
L 140.215571 56.095534 
L 138.575666 55.455018 
L 136.556963 55.238683 
L 134.224343 55.431174 
L 131.652747 55.996791 
L 128.920577 56.88362 
L 126.103614 58.029448 
L 123.27036 59.368387 
L 117.777451 62.379439 
L 112.777063 65.513916 
L 108.446799 68.539272 
L 104.844554 71.369105 
L 101.94668 74.002263 
L 99.681376 76.470066 
L 97.955977 78.806433 
L 96.676284 81.036575 
L 95.757718 83.175512 
L 95.130104 85.230198 
L 94.738494 87.202156 
L 94.542 89.089562 
L 94.511933 90.888557 
L 94.741122 93.409528 
L 95.065497 94.96201 
L 95.527645 96.402173 
L 96.135312 97.719307 
L 96.902369 98.899759 
L 97.848759 99.925821 
L 99.000602 100.774299 
L 100.390355 101.414683 
L 102.056852 101.806878 
L 104.044942 101.898513 
L 106.404299 101.622002 
L 109.186729 100.891851 
L 112.440974 99.60333 
L 116.203633 97.634502 
L 118.280272 96.354091 
L 120.484507 94.854883 
L 122.809773 93.122431 
L 125.244621 91.145003 
L 127.771578 88.915066 
L 130.365909 86.43102 
L 132.99434 83.699135 
L 135.613855 80.735582 
L 138.170719 77.568427 
L 140.599968 74.239396 
L 142.825721 70.805166 
L 144.76273 67.337895 
L 146.319644 63.924631 
L 147.404397 60.665174 
L 147.931815 57.667976 
L 147.833073 55.043741 
L 147.065797 52.896734 
L 145.622888 51.314356 
L 143.537638 50.356366 
L 140.883071 50.045842 
L 137.76473 50.36426 
L 134.308104 51.252484 
L 130.643672 52.618084 
L 126.893246 54.347596 
L 123.160495 56.321022 
L 116.05155 60.565349 
L 109.724399 64.685797 
L 104.346375 68.376571 
L 99.937536 71.603509 
L 96.424147 74.457463 
L 93.677168 77.050023 
L 91.546989 79.469044 
L 89.889094 81.771188 
L 88.577496 83.988485 
L 87.038423 87.187855 
L 85.008481 92.217545 
L 83.406912 95.967319 
L 82.014575 98.610909 
L 80.928541 100.286722 
L 79.672563 101.885815 
L 78.205477 103.396953 
L 76.481638 104.801796 
L 74.450427 106.071146 
L 72.05668 107.159684 
L 69.242765 107.998842 
L 67.660676 108.294925 
L 65.953459 108.487756 
L 64.116131 108.557985 
L 62.145397 108.482989 
L 60.040374 108.236686 
L 57.803477 107.789504 
L 55.441487 107.108599 
L 52.966802 106.158433 
L 50.398831 104.901816 
L 47.765467 103.301552 
L 45.104523 101.322791 
L 42.464954 98.936137 
L 39.907571 96.121512 
L 37.504935 92.872628 
L 35.339985 89.201776 
L 33.502993 85.144447 
L 32.086517 80.763066 
L 31.178287 76.148953 
L 30.852441 71.421483 
L 31.160142 66.723574 
L 32.121236 62.213026 
L 33.718941 58.050114 
L 35.899282 54.382899 
L 38.576059 51.332685 
L 41.640629 48.982469 
L 44.974433 47.370669 
L 48.461446 46.49117 
L 51.998021 46.299065 
L 55.498684 46.720271 
L 58.897786 47.662673 
L 62.148034 49.02675 
L 65.217366 50.714312 
L 68.085518 52.634786 
L 70.741126 54.709051 
L 73.179644 56.871188 
L 75.401954 59.068643 
L 77.413393 61.261295 
L 80.84239 65.524194 
L 83.567682 69.52315 
L 85.710878 73.210826 
L 87.393934 76.58728 
L 88.726856 79.673584 
L 90.268767 83.819523 
L 93.89312 94.35723 
L 95.04878 96.696527 
L 95.934832 98.052199 
L 96.949688 99.235011 
L 98.127373 100.229531 
L 99.50565 101.012583 
L 101.126785 101.551381 
L 103.037872 101.801184 
L 105.290387 101.702553 
L 107.938437 101.178589 
L 111.034862 100.132979 
L 114.623971 98.450487 
L 116.611919 97.330464 
L 118.729321 96.002674 
L 120.972772 94.451432 
L 123.334756 92.662816 
L 125.802596 90.625936 
L 128.35728 88.334494 
L 130.972198 85.788575 
L 133.611875 82.996622 
L 136.230784 79.977491 
L 138.77245 76.762413 
L 141.169093 73.396686 
L 143.342177 69.940823 
L 145.204331 66.470866 
L 146.663094 63.077468 
L 147.626861 59.863333 
L 148.013038 56.938574 
L 147.757852 54.413727 
L 146.826433 52.390517 
L 145.221038 50.951122 
L 142.984989 50.147527 
L 140.200436 49.993186 
L 136.979614 50.459356 
L 133.451267 51.477647 
L 129.745558 52.948767 
L 125.981114 54.755701 
L 122.256762 56.778382 
L 115.211209 61.050176 
L 108.981721 65.138762 
L 103.713248 68.778113 
L 99.411598 71.957634 
L 95.993737 74.776078 
L 93.325774 77.344396 
L 91.257015 79.74714 
L 89.644228 82.03781 
L 88.363705 84.246197 
L 86.850033 87.434171 
L 82.739442 97.072456 
L 81.217958 99.650217 
L 80.01404 101.276478 
L 78.612151 102.818091 
L 76.968095 104.259013 
L 75.032865 105.573594 
L 72.752757 106.72182 
L 70.070881 107.642801 
L 68.56152 107.991296 
L 66.931072 108.246326 
L 65.173915 108.390394 
L 63.285775 108.402912 
L 61.264349 108.259957 
L 59.11009 107.93415 
L 56.827162 107.394716 
L 54.424574 106.60785 
L 51.917487 105.53746 
L 49.328631 104.146456 
L 46.689772 102.398655 
L 44.043054 100.261434 
L 41.442035 97.709121 
L 38.952083 94.727106 
L 36.649788 91.316436 
L 34.620949 87.498549 
L 32.956748 83.319566 
L 31.747886 78.853355 
L 31.076791 74.20242 
L 31.008543 69.495634 
L 31.581827 64.882075 
L 32.801704 60.520824 
L 34.63615 56.567546 
L 37.017737 53.159713 
L 39.850646 50.40314 
L 43.021728 48.362506 
L 46.413157 47.057673 
L 49.913916 46.466164 
L 53.427991 46.530632 
L 56.878394 47.169228 
L 60.207417 48.286608 
L 63.374384 49.783791 
L 66.352337 51.565861 
L 69.12481 53.547198 
L 71.683293 55.654403 
L 74.025469 57.827356 
L 76.154029 60.018895 
L 78.075779 62.19361 
L 81.341828 66.399363 
L 83.929874 70.329772 
L 85.962103 73.949306 
L 87.557956 77.263316 
L 89.360948 81.712834 
L 91.086342 86.813889 
L 93.116995 93.026848 
L 94.159767 95.576619 
L 94.93488 97.079821 
L 95.807992 98.42193 
L 96.809958 99.593806 
L 97.974466 100.580042 
L 99.339073 101.357572 
L 100.945978 101.893798 
L 102.842383 102.144204 
L 105.080105 102.049569 
L 107.713928 101.533097 
L 110.797834 100.498285 
L 114.377907 98.829147 
L 116.363421 97.716277 
L 118.480313 96.395537 
L 120.725663 94.850806 
L 123.092504 93.067603 
L 125.568775 91.034358 
L 128.136129 88.743965 
L 130.768654 86.195587 
L 133.431569 83.396656 
L 136.079981 80.364963 
L 138.657911 77.130689 
L 141.097827 73.738166 
L 143.321054 70.247143 
L 145.239534 66.733223 
L 146.759411 63.2871 
L 147.786858 60.012172 
L 148.236228 57.020053 
L 148.040013 54.423692 
L 147.159302 52.328122 
L 145.592572 50.819527 
L 143.380287 49.954171 
L 140.603232 49.749465 
L 137.374033 50.179634 
L 133.823428 51.177735 
L 130.084657 52.644162 
L 126.279796 54.459969 
L 122.510847 56.501979 
L 115.372857 60.829257 
L 109.055266 64.974804 
L 101.404224 70.316066 
L 97.496934 73.321424 
L 94.42199 76.01279 
L 92.031599 78.494255 
L 90.174056 80.83731 
L 88.712451 83.084237 
L 87.531981 85.257214 
L 86.090999 88.398289 
L 83.174307 95.197328 
L 81.747791 97.870695 
L 80.642864 99.563871 
L 79.370162 101.177438 
L 77.888251 102.699286 
L 76.151689 104.110105 
L 74.110575 105.379652 
L 71.711092 106.461558 
L 68.897731 107.286388 
L 67.319199 107.572283 
L 65.618353 107.752951 
L 63.79077 107.809193 
L 61.83379 107.718671 
L 59.747231 107.455761 
L 57.534256 106.991572 
L 55.202424 106.29421 
L 52.764886 105.329403 
L 50.241721 104.061577 
L 47.661322 102.455515 
L 45.061718 100.478696 
L 42.491649 98.104331 
L 40.011125 95.315105 
L 37.691149 92.107449 
L 35.612207 88.496047 
L 33.861141 84.518107 
L 32.526153 80.236683 
L 31.689919 75.742226 
L 31.421279 71.151407 
L 31.766517 66.602448 
L 32.741796 62.246624 
L 34.328557 58.236384 
L 36.4734 54.711551 
L 39.09303 51.785879 
L 42.083533 49.53653 
L 45.332033 47.998535 
L 48.728168 47.165058 
L 52.17313 46.992882 
L 55.584996 47.411401 
L 58.900316 48.333017 
L 62.072858 49.663047 
L 65.070841 51.307921 
L 67.873858 53.181107 
L 70.47023 55.206775 
L 72.855052 57.321504 
L 75.028842 59.474491 
L 76.996554 61.626723 
L 78.766735 63.749537 
L 81.761805 67.833697 
L 84.123912 71.640158 
L 85.972254 75.14683 
L 87.4195 78.363948 
L 89.048156 82.698931 
L 90.593277 87.697968 
L 92.6659 94.736227 
L 93.595995 97.184515 
L 94.680158 99.307283 
L 95.532878 100.53432 
L 96.523923 101.598618 
L 97.686807 102.482816 
L 99.059719 103.161744 
L 100.686269 103.600316 
L 102.615844 103.750864 
L 104.903204 103.549993 
L 107.60675 102.915326 
L 110.784519 101.743018 
L 114.486564 99.90786 
L 116.544587 98.697983 
L 118.741926 97.26908 
L 121.075573 95.603742 
L 123.538144 93.686406 
L 126.116721 91.504773 
L 128.791542 89.051537 
L 131.534584 86.326382 
L 134.308092 83.338195 
L 137.063201 80.107345 
L 139.738822 76.667881 
L 142.26111 73.069422 
L 144.543954 69.378468 
L 146.491023 65.678786 
L 147.999976 62.070447 
L 148.969304 58.66699 
L 149.307874 55.590182 
L 148.946482 52.96199 
L 147.84971 50.893841 
L 146.025403 49.474075 
L 143.528703 48.755544 
L 143.528703 48.755544 
" clip-path="url(#p216428c4a9)" style="fill: none; stroke: #1f77b4; stroke-width: 1.5; stroke-linecap: round"/>
   </g>
   <g id="line2d_29">
    <path d="M 125.114359 106.86136 
L 127.061649 103.691316 
L 131.767241 96.969367 
L 137.205883 89.478634 
L 140.03966 85.391551 
L 142.841092 81.084484 
L 145.511911 76.594358 
L 147.941208 71.987886 
L 150.008658 67.363678 
L 151.590472 62.851107 
L 152.568146 58.60457 
L 152.839522 54.792287 
L 152.330863 51.579854 
L 151.007914 49.110353 
L 148.883512 47.484453 
L 146.019538 46.744899 
L 142.522094 46.869479 
L 138.530419 47.774611 
L 134.201665 49.328863 
L 129.694684 51.372932 
L 125.155866 53.741236 
L 120.709153 56.280534 
L 112.449289 61.390766 
L 105.363198 66.051025 
L 97.111107 71.787148 
L 93.021592 74.876005 
L 89.836374 77.551695 
L 87.355533 79.952073 
L 85.398746 82.177054 
L 83.81212 84.289102 
L 81.853515 87.312508 
L 78.935983 92.013859 
L 77.684294 93.754307 
L 76.299994 95.391705 
L 74.734505 96.904089 
L 72.9424 98.262722 
L 70.88098 99.429241 
L 68.511382 100.351842 
L 65.801746 100.960727 
L 64.312774 101.119604 
L 62.733206 101.163319 
L 61.064304 101.076117 
L 59.30959 100.84051 
L 57.475402 100.437407 
L 55.571495 99.846405 
L 53.611698 99.046293 
L 51.614555 98.015829 
L 49.603915 96.734846 
L 47.609381 95.185724 
L 45.666499 93.355248 
L 43.816577 91.236813 
L 42.105984 88.832859 
L 40.584813 86.157337 
L 39.304826 83.237897 
L 38.316701 80.117401 
L 37.666694 76.85432 
L 37.393 73.521626 
L 37.52222 70.203929 
L 38.066415 66.992885 
L 39.02125 63.981221 
L 40.365578 61.25606 
L 42.062632 58.892446 
L 44.062679 56.947991 
L 46.30678 55.459415 
L 48.731096 54.441358 
L 51.271158 53.887448 
L 53.865606 53.773229 
L 56.45905 54.0603 
L 59.003935 54.700939 
L 61.46143 55.642602 
L 63.801505 56.831807 
L 66.00241 58.21717 
L 68.04977 59.751502 
L 69.93549 61.393061 
L 71.656609 63.106079 
L 73.214204 64.860766 
L 74.612407 66.63294 
L 76.957429 70.157559 
L 78.756714 73.575142 
L 80.083118 76.829889 
L 81.006921 79.89763 
L 81.590062 82.773225 
L 81.883428 85.46213 
L 81.92599 87.97502 
L 81.744992 90.324433 
L 81.356634 92.52265 
L 80.766913 94.580265 
L 79.972433 96.505067 
L 78.961083 98.300936 
L 77.712609 99.966512 
L 76.199172 101.493379 
L 74.386092 102.863513 
L 72.233148 104.04569 
L 69.696994 104.99059 
L 68.271836 105.352165 
L 66.735563 105.624442 
L 65.084371 105.79313 
L 63.315749 105.841439 
L 61.429024 105.74987 
L 59.426016 105.49608 
L 57.311829 105.054875 
L 55.095771 104.398398 
L 52.792379 103.496614 
L 50.422516 102.318177 
L 48.014456 100.831826 
L 45.604842 99.008396 
L 43.239329 96.82354 
L 40.972695 94.261156 
L 38.868162 91.317399 
L 36.995639 88.004973 
L 35.428712 84.357181 
L 34.240314 80.430975 
L 33.497251 76.308144 
L 33.25409 72.093787 
L 33.547189 67.911528 
L 34.389841 63.895479 
L 35.769511 60.179706 
L 37.647831 56.886629 
L 39.963529 54.116268 
L 42.637852 51.938123 
L 45.581563 50.387017 
L 48.702329 49.463276 
L 51.911406 49.136781 
L 55.128828 49.353696 
L 58.286735 50.044442 
L 61.3309 51.131553 
L 64.220737 52.536443 
L 66.928261 54.184543 
L 69.436419 56.008695 
L 71.737177 57.950958 
L 73.829603 59.963163 
L 75.718124 62.006583 
L 77.411023 64.051051 
L 78.919193 66.073808 
L 81.432282 69.99287 
L 83.364486 73.684936 
L 84.821421 77.121031 
L 85.898555 80.300263 
L 86.677503 83.236118 
L 87.429484 87.227553 
L 87.827216 90.788978 
L 87.982529 93.988365 
L 87.924976 97.79047 
L 87.628308 101.163123 
L 87.095787 104.193206 
L 86.511484 106.283371 
L 85.722378 108.245065 
L 84.664662 110.099226 
L 83.767301 111.283469 
L 82.677 112.429053 
L 81.351609 113.534787 
L 79.739906 114.594023 
L 77.78033 115.591311 
L 75.400106 116.497171 
L 72.51546 117.260104 
L 69.0342 117.794739 
L 67.040366 117.936472 
L 64.862987 117.964984 
L 62.492794 117.851683 
L 59.92315 117.561814 
L 57.151454 117.053685 
L 54.180946 116.278089 
L 51.022959 115.178126 
L 47.699638 113.689714 
L 44.247042 111.743199 
L 40.718434 109.266545 
L 37.187356 106.190649 
L 33.749868 102.457221 
L 30.524999 98.029381 
L 27.652322 92.904505 
L 25.285494 87.12788 
L 23.581067 80.804522 
L 22.682799 74.105484 
L 22.703157 67.264678 
L 23.705314 60.563453 
L 25.689923 54.303071 
L 28.590639 48.769152 
L 32.280383 44.195601 
L 36.58734 40.736574 
L 41.316825 38.452932 
L 46.27385 37.315159 
L 51.281733 37.219928 
L 56.194121 38.014445 
L 60.900024 39.522114 
L 65.323177 41.564591 
L 69.417763 43.977624 
L 73.16249 46.620276 
L 76.55446 49.37852 
L 79.603706 52.164829 
L 82.328757 54.915352 
L 84.753265 57.585985 
L 88.806976 62.585385 
L 91.980988 67.057656 
L 94.479715 70.997022 
L 97.348372 75.99037 
L 100.926668 82.255063 
L 102.236631 84.144819 
L 103.591481 85.712529 
L 105.049869 86.963097 
L 106.66122 87.890544 
L 108.467177 88.47815 
L 110.501759 88.698786 
L 112.78993 88.515769 
L 115.344283 87.884858 
L 118.159502 86.758264 
L 121.204501 85.0919 
L 124.412589 82.857158 
L 127.671068 80.058096 
L 129.269333 78.462485 
L 130.813324 76.753322 
L 132.273717 74.950199 
L 133.618498 73.078602 
L 134.813837 71.169997 
L 135.825296 69.261456 
L 136.619379 67.394753 
L 137.165335 65.614852 
L 137.437134 63.967815 
L 137.41541 62.498233 
L 137.089193 61.246396 
L 136.457189 60.245504 
L 135.528426 59.519256 
L 134.32213 59.080169 
L 132.866803 58.928868 
L 131.198578 59.054466 
L 129.359049 59.435975 
L 127.392797 60.044525 
L 125.344931 60.846064 
L 121.174423 62.882606 
L 117.145238 65.268684 
L 113.469981 67.783239 
L 110.272664 70.28081 
L 107.603838 72.683474 
L 105.462503 74.960368 
L 103.816882 77.106765 
L 102.620663 79.128389 
L 101.824192 81.031899 
L 101.381433 82.820223 
L 101.253825 84.490918 
L 101.412069 86.036032 
L 101.836625 87.442468 
L 102.517427 88.692277 
L 103.453153 89.762616 
L 104.650172 90.625313 
L 106.121163 91.246066 
L 107.883254 91.583443 
L 109.95539 91.587931 
L 112.354493 91.201492 
L 115.089848 90.358389 
L 118.155075 88.988446 
L 121.517199 87.024434 
L 123.288674 85.802624 
L 125.102878 84.415619 
L 126.941818 82.863181 
L 128.783151 81.149244 
L 130.599913 79.282972 
L 132.360474 77.279824 
L 134.028785 75.162493 
L 135.565004 72.961593 
L 136.926599 70.7159 
L 138.069943 68.471954 
L 138.95242 66.282873 
L 139.534944 64.20625 
L 139.784724 62.301157 
L 139.678007 60.624426 
L 139.202491 59.226537 
L 138.35903 58.147613 
L 137.162361 57.414082 
L 135.640657 57.036545 
L 133.833896 57.009213 
L 131.79122 57.311016 
L 129.567631 57.908215 
L 127.220434 58.758057 
L 124.805862 59.812904 
L 122.376223 61.024235 
L 117.64957 63.737321 
L 113.320506 66.597413 
L 109.549296 69.412005 
L 106.396963 72.085797 
L 103.856204 74.59012 
L 101.880239 76.931771 
L 100.404614 79.130343 
L 99.361602 81.205194 
L 98.688687 83.16969 
L 98.33296 85.029788 
L 98.252923 86.784661 
L 98.418787 88.427927 
L 98.811983 89.948714 
L 99.424351 91.332261 
L 100.257225 92.55993 
L 101.320543 93.608665 
L 102.63195 94.449951 
L 104.215781 95.048321 
L 106.101665 95.359542 
L 108.322386 95.328673 
L 110.910395 94.888396 
L 113.892186 93.958398 
L 117.279495 92.447187 
L 119.12174 91.443437 
L 121.056246 90.258609 
L 123.073698 88.88231 
L 125.160537 87.306271 
L 127.298196 85.52549 
L 129.462375 83.539607 
L 131.622426 81.35448 
L 133.740969 78.983883 
L 135.773858 76.45119 
L 137.670681 73.790829 
L 139.375914 71.049215 
L 140.830894 68.284833 
L 141.976639 65.567116 
L 142.757466 62.97384 
L 143.125192 60.586926 
L 143.043506 58.486823 
L 142.491976 56.745961 
L 141.469057 55.422118 
L 139.993509 54.55275 
L 138.103873 54.151295 
L 135.855911 54.206209 
L 133.318358 54.682956 
L 130.567573 55.528587 
L 127.681911 56.678041 
L 124.736554 58.061022 
L 121.799402 59.608374 
L 116.169786 62.953855 
L 111.119135 66.332932 
L 106.804882 69.534488 
L 103.257855 72.48316 
L 100.430932 75.184297 
L 98.238342 77.677611 
L 96.581967 80.008365 
L 95.366709 82.213755 
L 94.508285 84.318956 
L 93.936345 86.338031 
L 93.594927 88.2766 
L 93.441548 90.134634 
L 93.500265 92.762587 
L 93.855481 95.182214 
L 94.489397 97.369375 
L 95.074323 98.68399 
L 95.803717 99.87127 
L 96.697152 100.917336 
L 97.780614 101.80414 
L 99.086813 102.507793 
L 100.655505 102.996412 
L 102.53362 103.227392 
L 104.774819 103.144061 
L 107.437886 102.671788 
L 110.582965 101.713976 
L 114.264141 100.149067 
L 116.317915 99.094105 
L 118.516202 97.830951 
L 120.856776 96.338848 
L 123.332901 94.597309 
L 125.932027 92.587359 
L 128.634337 90.293258 
L 131.411187 87.704769 
L 134.223585 84.82 
L 137.020871 81.648761 
L 139.739898 78.21625 
L 142.30505 74.566698 
L 144.629508 70.766374 
L 146.618171 66.905132 
L 148.172536 63.095538 
L 149.19756 59.468652 
L 149.610163 56.165898 
L 149.348475 53.327164 
L 148.380445 51.076312 
L 146.710128 49.506347 
L 144.380097 48.667196 
L 141.469035 48.558976 
L 138.084602 49.132566 
L 134.352787 50.297519 
L 130.405755 51.935478 
L 126.370385 53.916017 
L 122.359241 56.11161 
L 114.757779 60.717401 
L 108.080225 65.118866 
L 102.503839 69.033153 
L 98.005514 72.424406 
L 94.458341 75.377271 
L 91.697215 78.007982 
L 89.555365 80.419482 
L 87.881444 82.686569 
L 86.545577 84.85638 
L 84.944613 87.980652 
L 81.760697 94.741266 
L 80.18332 97.378008 
L 78.948586 99.028258 
L 77.517511 100.577308 
L 75.845682 102.006143 
L 73.886366 103.287045 
L 71.590905 104.379323 
L 68.910755 105.223691 
L 67.41234 105.52759 
L 65.802076 105.735231 
L 64.076605 105.830678 
L 62.234216 105.7954 
L 60.275446 105.608099 
L 58.203808 105.244639 
L 56.026652 104.678142 
L 53.756145 103.879337 
L 51.41034 102.817251 
L 49.014273 101.460379 
L 46.600982 99.77842 
L 44.212302 97.744701 
L 41.89922 95.339317 
L 39.721547 92.552917 
L 37.746631 89.390926 
L 36.046883 85.877759 
L 34.695977 82.060372 
L 33.763819 78.010311 
L 33.310628 73.823383 
L 33.380804 69.616248 
L 33.99751 65.519674 
L 35.158956 61.66891 
L 36.83721 58.192339 
L 38.979941 55.20016 
L 41.514898 52.775019 
L 44.356379 50.966133 
L 47.412588 49.787698 
L 50.592709 49.221463 
L 53.812767 49.222505 
L 56.999736 49.726854 
L 60.093766 50.65952 
L 63.048779 51.941783 
L 65.831801 53.497029 
L 68.42151 55.254844 
L 70.806389 57.153439 
L 72.982789 59.140677 
L 74.953108 61.174063 
L 76.724181 63.220061 
L 78.305938 65.253021 
L 80.950375 69.209405 
L 82.991899 72.950525 
L 84.537197 76.439159 
L 85.684128 79.669916 
L 86.517188 82.654065 
L 87.106237 85.410543 
L 87.650785 89.165563 
L 87.905697 92.527952 
L 87.939186 96.507966 
L 87.713551 100.022971 
L 87.253446 103.167749 
L 86.734826 105.32909 
L 86.029337 107.351149 
L 85.08181 109.256613 
L 84.277903 110.471255 
L 83.301564 111.645639 
L 82.115311 112.780664 
L 80.673382 113.873077 
L 78.920415 114.912902 
L 76.79031 115.879382 
L 74.20573 116.734705 
L 71.079146 117.414536 
L 67.317095 117.814196 
L 65.169294 117.860631 
L 62.830537 117.769574 
L 60.293831 117.507289 
L 57.555996 117.033245 
L 54.6194 116.299509 
L 51.494137 115.250506 
L 48.200665 113.82342 
L 44.77284 111.949622 
L 41.261169 109.557602 
L 37.735921 106.577928 
L 34.2895 102.950698 
L 31.037194 98.635696 
L 28.115224 93.624874 
L 25.674949 87.955902 
L 23.872434 81.724327 
L 22.853457 75.09083 
L 22.735409 68.279607 
L 23.589126 61.564892 
L 25.424829 55.245247 
L 28.186237 49.60909 
L 31.755205 44.898484 
L 35.96632 41.27969 
L 40.628033 38.827365 
L 45.545235 37.525066 
L 50.538535 37.27994 
L 55.45726 37.946095 
L 60.185466 39.350201 
L 64.642068 41.314128 
L 68.777037 43.671691 
L 72.565679 46.27878 
L 76.002519 49.01772 
L 79.095752 51.797393 
L 81.862664 54.550727 
L 84.32612 57.230917 
L 86.512006 59.807312 
L 90.159531 64.584266 
L 93.017939 68.82684 
L 96.243879 74.233026 
L 100.711775 82.153075 
L 102.015465 84.075945 
L 103.358614 85.677187 
L 104.800716 86.962619 
L 106.391981 87.927186 
L 108.17491 88.55507 
L 110.18459 88.819943 
L 112.447456 88.685694 
L 114.978186 88.108202 
L 117.774395 87.039011 
L 120.808956 85.432107 
L 124.020221 83.255135 
L 127.30136 80.506073 
L 128.920143 78.929959 
L 130.491675 77.234969 
L 131.987132 75.439354 
L 133.374783 73.567269 
L 134.620774 71.648962 
L 135.690277 69.720526 
L 136.548963 67.823136 
L 137.164792 66.00167 
L 137.509982 64.302728 
L 137.563021 62.772124 
L 137.310502 61.452045 
L 136.748568 60.378161 
L 135.883743 59.57704 
L 134.733012 59.06422 
L 133.323077 58.843225 
L 131.688851 58.90568 
L 129.871347 59.232517 
L 127.915218 59.796063 
L 125.866215 60.562716 
L 123.768843 61.49582 
L 119.589547 63.7153 
L 115.647241 66.190984 
L 112.120968 68.728361 
L 109.104341 71.209217 
L 106.624936 73.57657 
L 104.666815 75.812475 
L 103.190029 77.918436 
L 102.145018 79.901982 
L 101.48212 81.769187 
L 101.157212 83.521381 
L 101.134665 85.154284 
L 101.388534 86.658192 
L 101.902699 88.018397 
L 102.670371 89.215392 
L 103.69324 90.224694 
L 104.980325 91.016259 
L 106.546473 91.553564 
L 108.410314 91.79255 
L 110.591318 91.680713 
L 113.105472 91.156908 
L 115.958962 90.152717 
L 119.139217 88.596747 
L 122.602904 86.423712 
L 124.415496 85.090826 
L 126.26123 83.590421 
L 128.119357 81.924557 
L 129.964514 80.100166 
L 131.766578 78.130144 
L 133.490771 76.034385 
L 135.09814 73.840616 
L 136.546466 71.584847 
L 137.791687 69.311265 
L 138.789845 67.071357 
L 139.499508 64.922149 
L 139.884515 62.923491 
L 139.916835 61.134512 
L 139.579206 59.609514 
L 138.867196 58.393764 
L 137.790372 57.519741 
L 136.372308 57.004424 
L 134.649363 56.848074 
L 132.668346 57.034737 
L 130.48333 57.534388 
L 128.152066 58.306342 
L 125.732408 59.303387 
L 123.279176 60.475997 
L 118.462282 63.159891 
L 114.007029 66.035783 
L 110.095857 68.889025 
L 106.80533 71.608337 
L 104.137082 74.156251 
L 102.048171 76.536311 
L 100.474617 78.768157 
L 99.347203 80.872704 
L 98.60095 82.865272 
L 98.180112 84.753649 
L 98.040325 86.538546 
L 98.149071 88.214866 
L 98.485265 89.772888 
L 99.038448 91.199009 
L 99.807873 92.4759 
L 100.801613 93.5821 
L 102.035702 94.491079 
L 103.533217 95.16984 
L 105.323085 95.57714 
L 107.438295 95.661501 
L 109.912963 95.359297 
L 112.777547 94.593573 
L 116.051187 93.274735 
L 117.841526 92.37744 
L 119.730068 91.3051 
L 121.710026 90.046094 
L 123.770814 88.590273 
L 125.897285 86.929959 
L 128.068943 85.06119 
L 130.259223 82.985201 
L 132.434906 80.7101 
L 134.555812 78.252634 
L 136.574907 75.639884 
L 138.438998 72.910643 
L 140.090165 70.116162 
L 141.468052 67.31989 
L 142.513045 64.595875 
L 143.170218 62.025557 
L 143.393776 59.692938 
L 143.151514 57.678388 
L 142.428682 56.051742 
L 141.230609 54.865647 
L 139.583524 54.150271 
L 137.533287 53.910378 
L 135.142097 54.125388 
L 132.483614 54.75245 
L 129.637251 55.731931 
L 126.682441 56.994297 
L 123.693653 58.467162 
L 120.736643 60.081462 
L 115.125086 63.500395 
L 110.145153 66.894211 
L 105.927705 70.078677 
L 102.483923 72.998638 
L 99.754359 75.671146 
L 97.646661 78.140948 
L 96.059973 80.454346 
L 94.898748 82.647719 
L 94.079455 84.744899 
L 93.532998 86.758747 
L 93.204747 88.694079 
L 93.034373 91.448125 
L 93.172965 94.011297 
L 93.576102 96.364492 
L 94.237368 98.485064 
L 94.833151 99.756116 
L 95.569647 100.901074 
L 96.467934 101.906439 
L 97.555361 102.754412 
L 98.865969 103.421188 
L 100.440948 103.874754 
L 102.328869 104.072084 
L 104.585374 103.955651 
L 107.271665 103.44933 
L 110.450822 102.454094 
L 114.180344 100.844619 
L 116.264784 99.763049 
L 118.498658 98.469276 
L 120.880118 96.941534 
L 123.402697 95.158212 
L 126.053942 93.099134 
L 128.813875 90.747345 
L 131.653333 88.091488 
L 134.532329 85.128798 
L 137.398624 81.868671 
L 140.186798 78.336608 
L 142.818207 74.578142 
L 145.202268 70.662121 
L 147.239512 66.682442 
L 148.826738 62.757196 
L 149.864339 59.024197 
L 150.265384 55.632259 
L 149.965529 52.728376 
L 148.932211 50.442099 
L 147.171303 48.869594 
L 144.729515 48.06064 
L 141.691557 48.01172 
L 138.172216 48.667115 
L 134.304737 49.927939 
L 130.227755 51.666964 
L 126.073163 53.745771 
L 121.956779 56.030658 
L 114.191384 60.774453 
L 107.407428 65.256132 
L 101.768165 69.204336 
L 97.234805 72.600025 
L 93.667432 75.541893 
L 90.891504 78.155259 
L 88.733796 80.547904 
L 87.038622 82.796641 
L 85.673111 84.948995 
L 84.007226 88.047628 
L 81.072177 93.827889 
L 79.406149 96.473518 
L 78.112461 98.123005 
L 76.620625 99.662736 
L 74.885772 101.070297 
L 72.861957 102.313876 
L 70.502912 103.347917 
L 67.764653 104.107554 
L 66.241448 104.3573 
L 64.610872 104.50197 
L 62.871135 104.525005 
L 61.0224 104.407421 
L 59.067409 104.127729 
L 57.012219 103.662007 
L 54.867038 102.984162 
L 52.647148 102.066479 
L 50.373864 100.880546 
L 48.075447 99.398653 
L 45.787854 97.595753 
L 43.555165 95.452025 
L 41.429486 92.956016 
L 39.470097 90.108215 
L 37.741648 86.924748 
L 36.311243 83.44072 
L 35.244427 79.712531 
L 34.600275 75.81845 
L 34.426045 71.856772 
L 34.752088 67.941185 
L 35.587843 64.193452 
L 36.919694 60.734114 
L 38.711206 57.672482 
L 40.905842 55.097477 
L 43.431752 53.07082 
L 46.207862 51.623581 
L 49.150277 50.756404 
L 52.178097 50.442981 
L 55.217982 50.635814 
L 58.207152 51.273064 
L 61.094843 52.28536 
L 63.842461 53.601748 
L 66.422781 55.15429 
L 68.818574 56.881188 
L 71.02097 58.728546 
L 73.02778 60.651027 
L 74.841944 62.6117 
L 76.470161 64.581371 
L 77.921739 66.537643 
L 80.33989 70.348097 
L 82.192441 73.960917 
L 83.57568 77.342282 
L 84.577339 80.486558 
L 85.272535 83.403238 
L 85.722586 86.109052 
L 85.97541 88.623449 
L 86.060038 92.078948 
L 85.855779 95.209289 
L 85.395948 98.067275 
L 84.678083 100.696189 
L 84.040664 102.338551 
L 83.256589 103.901635 
L 82.302084 105.390291 
L 81.146661 106.806042 
L 79.752486 108.145728 
L 78.073716 109.399325 
L 76.056054 110.546571 
L 73.63694 111.551889 
L 70.747137 112.356972 
L 69.103232 112.657503 
L 67.315011 112.870401 
L 65.374628 112.976815 
L 63.275626 112.953961 
L 61.01373 112.774598 
L 58.587849 112.406568 
L 56.001358 111.812489 
L 53.26365 110.949729 
L 50.391974 109.770847 
L 47.413495 108.224728 
L 44.367469 106.258699 
L 41.307277 103.82193 
L 38.301977 100.870365 
L 35.436855 97.373295 
L 32.812336 93.321379 
L 30.540606 88.735415 
L 28.739423 83.674594 
L 27.523027 78.242302 
L 26.990737 72.587239 
L 27.214671 66.89785 
L 28.22881 61.389134 
L 30.021884 56.282778 
L 32.536091 51.783652 
L 35.672394 48.057213 
L 39.301488 45.212592 
L 43.278105 43.294674 
L 47.455699 42.286102 
L 51.698882 42.117542 
L 55.891991 42.682958 
L 59.943399 43.856215 
L 63.786138 45.505998 
L 67.375918 47.507288 
L 70.687683 49.748801 
L 73.711676 52.136755 
L 76.449632 54.595759 
L 78.911464 57.067773 
L 81.112563 59.50998 
L 83.071706 61.892213 
L 86.347259 66.404062 
L 88.906955 70.523452 
L 90.911232 74.238834 
L 93.182041 79.102396 
L 97.372519 88.647293 
L 98.393306 90.3814 
L 99.511193 91.875399 
L 100.770836 93.125658 
L 102.215237 94.119473 
L 103.887078 94.83403 
L 105.8292 95.235077 
L 108.083926 95.275451 
L 110.690714 94.893798 
L 113.681437 94.014243 
L 117.072305 92.548347 
L 118.915612 91.5659 
L 120.851395 90.401582 
L 122.870879 89.044947 
L 124.961063 87.487549 
L 127.103961 85.724074 
L 129.275864 83.753707 
L 131.446707 81.581707 
L 133.579651 79.22112 
L 135.631014 76.694487 
L 137.550707 74.035351 
L 139.283333 71.289269 
L 140.77009 68.514002 
L 141.951533 65.778512 
L 142.771158 63.160488 
L 143.179599 60.742264 
L 143.139046 58.605256 
L 142.627352 56.823418 
L 141.641184 55.456501 
L 140.197624 54.544201 
L 138.333815 54.102206 
L 136.104554 54.120974 
L 133.578126 54.567487 
L 130.83097 55.389692 
L 127.941986 56.522758 
L 124.987261 57.896026 
L 122.035815 59.439525 
L 116.367608 62.790429 
L 111.272184 66.184812 
L 106.91335 69.404339 
L 103.32558 72.369519 
L 100.463262 75.084162 
L 98.240767 77.588007 
L 96.559379 79.927034 
L 95.323062 82.139304 
L 94.446503 84.250754 
L 93.858342 86.276029 
L 93.501678 88.221168 
L 93.333171 90.086443 
L 93.367703 92.727036 
L 93.694727 95.162158 
L 94.293942 97.368727 
L 94.850787 98.699216 
L 95.547101 99.905483 
L 96.401447 100.974556 
L 97.438692 101.889594 
L 98.690329 102.628304 
L 100.194843 103.160895 
L 101.99795 103.447478 
L 104.152367 103.434822 
L 106.716584 103.052523 
L 109.751749 102.208873 
L 113.315281 100.787359 
L 115.309383 99.816395 
L 117.449181 98.645833 
L 119.734302 97.254833 
L 122.160386 95.622338 
L 124.717856 93.728136 
L 127.390509 91.554359 
L 130.153968 89.087508 
L 132.974091 86.321067 
L 135.805497 83.258683 
L 138.590434 79.917797 
L 141.258332 76.333448 
L 143.72642 72.561753 
L 145.901837 68.682325 
L 147.685623 64.798697 
L 148.978769 61.035754 
L 149.690172 57.533364 
L 149.745861 54.435959 
L 149.098285 51.878746 
L 147.734058 49.972374 
L 145.678419 48.788805 
L 142.995097 48.35154 
L 139.781142 48.632658 
L 136.157472 49.557631 
L 132.256867 51.016841 
L 128.21169 52.881102 
L 124.143399 55.017747 
L 120.155201 57.304254 
L 112.72117 61.938533 
L 106.299284 66.246406 
L 100.999081 70.026936 
L 96.757403 73.292086 
L 93.428702 76.145239 
L 90.842333 78.704269 
L 88.832783 81.066469 
L 87.252921 83.299391 
L 85.977915 85.443867 
L 84.416288 88.536978 
L 81.639 94.313772 
L 80.049704 96.964534 
L 78.811357 98.623361 
L 77.379587 100.179827 
L 75.709956 101.614489 
L 73.756075 102.899284 
L 71.469997 103.993334 
L 68.804252 104.83743 
L 67.315354 105.140572 
L 65.716422 105.3472 
L 64.004317 105.441565 
L 62.177552 105.405398 
L 60.236885 105.217752 
L 58.186025 104.854944 
L 56.032476 104.290672 
L 53.788482 103.496371 
L 51.472061 102.441914 
L 49.108056 101.096766 
L 46.729106 99.431698 
L 44.376387 97.421152 
L 42.099922 95.046287 
L 39.95823 92.298639 
L 38.01704 89.184176 
L 36.346872 85.727322 
L 35.019353 81.974324 
L 34.102358 77.995169 
L 33.65432 73.883212 
L 33.718347 69.751863 
L 34.317027 65.728108 
L 35.448857 61.943279 
L 37.087078 58.522185 
L 39.181302 55.572265 
L 41.661759 53.174551 
L 44.44546 51.377947 
L 47.443244 50.19757 
L 50.566597 49.617075 
L 53.73335 49.594077 
L 56.871713 50.067398 
L 59.922536 50.964767 
L 62.839969 52.209872 
L 65.590908 53.728059 
L 68.153651 55.450382 
L 70.516142 57.316055 
L 72.674122 59.273539 
L 74.629355 61.280619 
L 76.388062 63.303796 
L 77.959594 65.317299 
L 80.587958 69.243912 
L 82.616373 72.965523 
L 84.14876 76.442644 
L 85.280841 79.667978 
L 86.09542 82.651345 
L 86.66094 85.410644 
L 87.15793 89.175183 
L 87.346632 92.552342 
L 87.308539 95.604756 
L 87.086069 98.38552 
L 86.691565 100.938732 
L 86.112839 103.300931 
L 85.315386 105.502332 
L 84.634814 106.892801 
L 83.808508 108.228077 
L 82.807049 109.511542 
L 81.594102 110.74359 
L 80.125349 111.919997 
L 78.347408 113.029324 
L 76.197002 114.048846 
L 73.600871 114.938363 
L 70.477359 115.631013 
L 68.691122 115.872191 
L 66.741324 116.020147 
L 64.618571 116.052437 
L 62.315155 115.941708 
L 59.826052 115.655 
L 57.150233 115.153138 
L 54.292321 114.390322 
L 51.264637 113.314118 
L 48.08962 111.866102 
L 44.802538 109.983512 
L 41.454304 107.602303 
L 38.114023 104.66205 
L 34.870722 101.113018 
L 31.833471 96.925469 
L 29.12898 92.100716 
L 26.895753 86.682681 
L 25.274294 80.767713 
L 24.393596 74.509665 
L 24.355336 68.117025 
L 25.218481 61.839916 
L 26.987752 55.947025 
L 29.609234 50.695672 
L 32.974862 46.300959 
L 36.935207 42.910946 
L 41.317648 40.593378 
L 45.945791 39.336056 
L 50.656209 39.059135 
L 55.310011 39.634889 
L 59.798553 40.909643 
L 64.044077 42.723532 
L 67.996859 44.925479 
L 71.630494 47.382644 
L 74.936667 49.984885 
L 77.920252 52.645427 
L 80.595171 55.299101 
L 82.981125 57.899284 
L 85.10116 60.414418 
L 88.642357 65.118755 
L 91.415603 69.343346 
L 93.603763 73.091893 
L 96.132274 77.898658 
L 99.348709 84.062833 
L 100.55316 85.969986 
L 101.814495 87.582763 
L 103.188009 88.90406 
L 104.722339 89.926471 
L 106.461059 90.631892 
L 108.443137 90.991118 
L 110.701967 90.963667 
L 113.262552 90.498338 
L 116.136356 89.535344 
L 119.313298 88.011343 
L 122.750637 85.869143 
L 124.541326 84.553888 
L 126.359288 83.074045 
L 128.183813 81.432769 
L 129.989712 79.638034 
L 131.747223 77.70367 
L 133.422182 75.650316 
L 134.976553 73.506145 
L 136.369379 71.307216 
L 137.558218 69.097255 
L 138.501066 66.926705 
L 139.158703 64.850918 
L 139.49733 62.927481 
L 139.491251 61.212783 
L 139.125315 59.758117 
L 138.396781 58.605745 
L 137.316291 57.785458 
L 135.907765 57.312163 
L 134.207137 57.184891 
L 132.260059 57.387411 
L 130.118866 57.890355 
L 127.839167 58.654485 
L 125.476498 59.634592 
L 123.083388 60.783431 
L 118.388079 63.408286 
L 114.046241 66.222079 
L 110.233568 69.019368 
L 107.024817 71.692233 
L 104.422978 74.202687 
L 102.388042 76.551952 
L 100.859465 78.756952 
L 99.771392 80.836183 
L 99.061861 82.803047 
L 98.677736 84.663852 
L 98.576882 86.418112 
L 98.728697 88.059637 
L 99.113766 89.577565 
L 99.723108 90.956971 
L 100.557283 92.178913 
L 101.625486 93.219932 
L 102.944592 94.051045 
L 104.538068 94.636305 
L 106.434465 94.931059 
L 108.665143 94.880115 
L 111.260604 94.416263 
L 114.244668 93.459944 
L 117.625487 91.921503 
L 119.459803 90.904803 
L 121.382388 89.708269 
L 123.383219 88.322306 
L 125.448006 86.73962 
L 127.557467 84.956357 
L 129.686656 82.973469 
L 131.804419 80.798247 
L 133.873088 78.445945 
L 135.848555 75.941356 
L 137.680874 73.320104 
L 139.315516 70.629396 
L 140.695416 67.927886 
L 141.763819 65.284345 
L 142.467859 62.774908 
L 142.762621 60.478814 
L 142.615287 58.472869 
L 142.008839 56.825165 
L 140.944707 55.588853 
L 139.443858 54.796998 
L 137.546004 54.45941 
L 135.306929 54.562122 
L 132.794259 55.069624 
L 130.082307 55.929459 
L 127.246729 57.0783 
L 124.359695 58.448472 
L 121.486095 59.973881 
L 115.988668 63.260182 
L 111.063947 66.575899 
L 106.860526 69.721689 
L 103.406604 72.626188 
L 100.656254 75.293929 
L 98.526748 77.761765 
L 96.923619 80.071797 
L 95.755386 82.258537 
L 94.941083 84.345144 
L 94.41332 86.344233 
L 94.118785 88.260354 
L 94.017425 90.092588 
L 94.081082 91.836605 
L 94.292018 93.486009 
L 94.641593 95.033019 
L 95.1292 96.468601 
L 95.76152 97.782147 
L 96.552086 98.960794 
L 97.521118 99.988385 
L 98.695576 100.84407 
L 100.109307 101.500485 
L 101.803136 101.921438 
L 103.824606 102.059047 
L 106.226916 101.850343 
L 109.066329 101.213599 
L 112.39688 100.045063 
L 114.26036 99.222537 
L 116.260729 98.217716 
L 118.398744 97.011708 
L 120.67191 95.585169 
L 123.07345 93.919109 
L 125.591108 91.996065 
L 128.205813 89.801691 
L 130.890263 87.32685 
L 133.607541 84.570208 
L 136.309945 81.541281 
L 138.938253 78.263771 
L 141.421763 74.778838 
L 143.679448 71.147807 
L 145.622588 67.453583 
L 147.159145 63.799923 
L 148.199921 60.307777 
L 148.666189 57.108168 
L 148.498056 54.331703 
L 147.662352 52.095691 
L 146.158603 50.490736 
L 144.021668 49.569361 
L 141.320155 49.339205 
L 138.150562 49.762537 
L 134.628074 50.762347 
L 130.875697 52.233662 
L 127.01364 54.057539 
L 123.150617 56.114827 
L 119.378002 58.297356 
L 112.368802 62.700107 
L 106.324723 66.801903 
L 101.336889 70.432086 
L 97.343957 73.603107 
L 94.211277 76.405777 
L 91.78151 78.943242 
L 89.901829 81.300725 
L 88.436139 83.537539 
L 87.268897 85.689678 
L 85.873598 88.796856 
L 82.679906 96.429219 
L 81.223918 99.014938 
L 80.067604 100.639893 
L 78.716019 102.174939 
L 77.125699 103.605513 
L 75.249199 104.909186 
L 73.03508 106.051541 
L 70.429259 106.98055 
L 67.378572 107.619165 
L 65.671705 107.796436 
L 63.837955 107.856194 
L 61.875035 107.777567 
L 59.783169 107.536383 
L 57.565958 107.105049 
L 55.231408 106.452634 
L 52.79312 105.545249 
L 50.271594 104.346866 
L 47.695571 102.820715 
L 45.103291 100.931422 
L 42.543457 98.648013 
L 40.075639 95.94784 
L 37.769783 92.821327 
L 35.704481 89.277236 
L 33.963688 85.347837 
L 32.631765 81.093072 
L 31.787007 76.602596 
L 31.494212 71.994521 
L 31.797264 67.410083 
L 32.713002 63.004093 
L 34.227649 58.932069 
L 36.296722 55.335903 
L 38.848665 52.330516 
L 41.791639 49.993936 
L 45.022208 48.362446 
L 48.434407 47.431303 
L 51.927733 47.160255 
L 55.413131 47.482246 
L 58.816583 48.313391 
L 62.080451 49.562506 
L 65.163044 51.139023 
L 68.037016 52.958734 
L 70.68715 54.947332 
L 73.107964 57.042049 
L 75.301428 59.19185 
L 77.274961 61.356681 
L 79.039754 63.506172 
L 80.609429 65.618118 
L 83.224097 69.672368 
L 85.243106 73.450766 
L 86.785571 76.934516 
L 87.957665 80.131143 
L 89.214626 84.432223 
L 90.077437 88.213221 
L 92.390437 99.466573 
L 93.113098 101.515496 
L 94.029945 103.287119 
L 94.787255 104.307897 
L 95.693361 105.19005 
L 96.781115 105.918715 
L 98.08944 106.472062 
L 99.664355 106.819143 
L 101.559759 106.916973 
L 103.837645 106.706731 
L 106.567137 106.109062 
L 109.821286 105.018773 
L 113.669885 103.299995 
L 115.834823 102.153482 
L 118.165688 100.784315 
L 120.662493 99.167356 
L 123.320443 97.277063 
L 126.128376 95.088821 
L 129.066951 92.580876 
L 132.106642 89.736991 
L 135.205681 86.549893 
L 138.308159 83.025515 
L 141.342623 79.187834 
L 144.221642 75.083885 
L 146.84291 70.788209 
L 149.092479 66.405598 
L 150.850633 62.070773 
L 152.000561 57.943566 
L 152.439442 54.198608 
L 152.090766 51.009562 
L 150.915946 48.529458 
L 148.922742 46.870414 
L 146.168229 46.087151 
L 142.754935 46.168587 
L 138.820449 47.040053 
L 134.522459 48.575845 
L 130.022316 50.618929 
L 125.470325 53.002928 
L 120.995032 55.571633 
L 112.649922 60.765263 
L 105.46535 65.515942 
L 97.077811 71.360778 
L 92.915459 74.497048 
L 89.671972 77.202984 
L 87.145488 79.621073 
L 85.153138 81.855437 
L 83.538503 83.971652 
L 81.547248 86.995615 
L 78.586796 91.688124 
L 77.318929 93.421206 
L 75.918288 95.048073 
L 74.336347 96.54577 
L 72.52818 97.884368 
L 70.45215 99.024141 
L 68.071168 99.911843 
L 65.356054 100.476331 
L 63.867697 100.609142 
L 62.291741 100.624161 
L 60.63012 100.505704 
L 58.887108 100.23649 
L 57.069854 99.797807 
L 55.188977 99.169859 
L 53.259172 98.332313 
L 51.299806 97.265137 
L 49.335443 95.949737 
L 47.39619 94.370459 
L 45.517784 92.516436 
L 43.741287 90.383731 
L 42.112265 87.977644 
L 40.679343 85.314987 
L 39.492099 82.425987 
L 38.598315 79.355464 
L 38.040745 76.162878 
L 37.85369 72.920894 
L 38.059758 69.712312 
L 38.6673 66.625433 
L 39.668926 63.74827 
L 41.041414 61.162262 
L 42.747105 58.936362 
L 44.736613 57.12231 
L 46.952472 55.751754 
L 49.333209 54.835499 
L 51.817295 54.364812 
L 54.346553 54.314362 
L 56.868728 54.646189 
L 59.339123 55.314048 
L 61.721345 56.26756 
L 63.987314 57.455775 
L 66.116742 58.82992 
L 68.096264 60.345297 
L 69.918403 61.962392 
L 71.580495 63.647337 
L 73.083669 65.371886 
L 74.431917 67.113071 
L 76.68925 70.57653 
L 78.414472 73.937383 
L 79.676814 77.141591 
L 80.542903 80.165169 
L 81.071246 83.002327 
L 81.309604 85.657461 
L 81.294117 88.139977 
L 81.049446 90.460999 
L 80.589386 92.631223 
L 79.917654 94.659391 
L 79.028664 96.551021 
L 77.908221 98.307092 
L 76.534198 99.922412 
L 74.8773 101.383435 
L 72.902228 102.665235 
L 70.56967 103.727378 
L 67.839824 104.508525 
L 66.314773 104.767227 
L 64.678498 104.919815 
L 62.929246 104.949708 
L 61.067169 104.837776 
L 59.094966 104.562252 
L 57.018646 104.098779 
L 54.848406 103.420671 
L 52.599591 102.499447 
L 50.2937 101.305762 
L 47.959361 99.810833 
L 45.633134 97.988435 
L 43.360002 95.81755 
L 41.193308 93.285629 
L 39.193931 90.39232 
L 37.428451 87.15336 
L 35.966152 83.60412 
L 34.874864 79.802103 
L 34.215837 75.827627 
L 34.038142 71.781971 
L 34.373322 67.782572 
L 35.231177 63.955371 
L 36.597514 60.42506 
L 38.434408 57.304565 
L 40.68308 54.685444 
L 43.268964 52.630777 
L 46.108114 51.171637 
L 49.113917 50.307444 
L 52.203146 50.009734 
L 55.300668 50.228289 
L 58.342489 50.898367 
L 61.277177 51.947822 
L 64.065928 53.30327 
L 66.681663 54.894806 
L 69.107544 56.659159 
L 71.335245 58.541427 
L 73.363199 60.495663 
L 75.194991 62.484642 
L 76.83795 64.479115 
L 76.83795 64.479115 
" clip-path="url(#p216428c4a9)" style="fill: none; stroke: #ff7f0e; stroke-opacity: 0.5; stroke-width: 1.5; stroke-linecap: round"/>
   </g>
  </g>
 </g>
 <defs>
  <clipPath id="p216428c4a9">
   <rect x="-1.8" y="-7.2" width="176.4" height="176.4"/>
  </clipPath>
 </defs>
</svg>
