<?xml version="1.0" encoding="utf-8" standalone="no"?>
<!DOCTYPE svg PUBLIC "-//W3C//DTD SVG 1.1//EN"
  "http://www.w3.org/Graphics/SVG/1.1/DTD/svg11.dtd">
<svg xmlns:xlink="http://www.w3.org/1999/xlink" width="216pt" height="180pt" viewBox="0 0 216 180" xmlns="http://www.w3.org/2000/svg" version="1.1">
 <metadata>
  <rdf:RDF xmlns:dc="http://purl.org/dc/elements/1.1/" xmlns:cc="http://creativecommons.org/ns#" xmlns:rdf="http://www.w3.org/1999/02/22-rdf-syntax-ns#">
   <cc:Work>
    <dc:type rdf:resource="http://purl.org/dc/dcmitype/StillImage"/>
    <dc:date>2023-06-14T18:54:20.250091</dc:date>
    <dc:format>image/svg+xml</dc:format>
    <dc:creator>
     <cc:Agent>
      <dc:title>Matplotlib v3.7.0, https://matplotlib.org/</dc:title>
     </cc:Agent>
    </dc:creator>
   </cc:Work>
  </rdf:RDF>
 </metadata>
 <defs>
  <style type="text/css">*{stroke-linejoin: round; stroke-linecap: butt}</style>
 </defs>
 <g id="figure_1">
  <g id="patch_1">
   <path d="M 0 180 
L 216 180 
L 216 0 
L 0 0 
z
" style="fill: #ffffff"/>
  </g>
  <g id="patch_2">
   <path d="M -1 169.2 
L 174.6 169.2 
L 174.6 -1 
" style="fill: none"/>
  </g>
  <g id="pane3d_1">
   <g id="patch_3">
    <path d="M 11.519416 125.705413 
L 69.772457 76.876559 
L 68.962684 6.456623 
L 7.921935 51.001381 
" style="fill: none; opacity: 0.5; stroke: #f2f2f2; stroke-linejoin: miter"/>
   </g>
  </g>
  <g id="pane3d_2">
   <g id="patch_4">
    <path d="M 69.772457 76.876559 
L 163.247803 104.046152 
L 166.583609 31.200681 
L 68.962684 6.456623 
" style="fill: none; opacity: 0.5; stroke: #e6e6e6; stroke-linejoin: miter"/>
   </g>
  </g>
  <g id="pane3d_3">
   <g id="patch_5">
    <path d="M 11.519416 125.705413 
L 110.607849 158.067695 
L 163.247803 104.046152 
L 69.772457 76.876559 
" style="fill: none; opacity: 0.5; stroke: #ececec; stroke-linejoin: miter"/>
   </g>
  </g>
  <g id="axis3d_1">
   <g id="line2d_1">
    <path d="M 11.519416 125.705413 
L 110.607849 158.067695 
" style="fill: none; stroke: #ffffff; stroke-width: 0.8; stroke-linecap: round"/>
   </g>
   <g id="text_1">
    <!-- x -->
    <g style="fill: #262626" transform="translate(40.437569 179.640981) scale(0.1 -0.1)">
     <defs>
      <path id="DejaVuSans-78" d="M 3513 3500 
L 2247 1797 
L 3578 0 
L 2900 0 
L 1881 1375 
L 863 0 
L 184 0 
L 1544 1831 
L 300 3500 
L 978 3500 
L 1906 2253 
L 2834 3500 
L 3513 3500 
z
" transform="scale(0.015625)"/>
     </defs>
     <use xlink:href="#DejaVuSans-78"/>
    </g>
   </g>
   <g id="Line3DCollection_1">
    <path d="M 34.758595 133.295329 
L 91.769378 83.270195 
L 91.898092 12.27008 
" style="fill: none; stroke: #d3d3d3; stroke-width: 0.8"/>
    <path d="M 59.187953 141.273957 
L 114.843738 89.977001 
L 115.981397 18.374496 
" style="fill: none; stroke: #d3d3d3; stroke-width: 0.8"/>
    <path d="M 84.270053 149.465771 
L 138.482426 96.847834 
L 140.679747 24.634807 
" style="fill: none; stroke: #d3d3d3; stroke-width: 0.8"/>
   </g>
   <g id="xtick_1">
    <g id="line2d_2">
     <path d="M 88.783784 78.616216 
" clip-path="url(#p4e84c96f12)" style="fill: none; stroke: #d3d3d3; stroke-width: 0.8; stroke-linecap: round"/>
    </g>
    <g id="line2d_3">
     <path d="M 35.255421 132.859381 
L 33.762793 134.169114 
" style="fill: none; stroke: #808080; stroke-width: 0.8; stroke-linecap: round"/>
    </g>
    <g id="text_2">
     <!-- −10 -->
     <g style="fill: #808080" transform="translate(16.689471 156.814806) scale(0.1 -0.1)">
      <defs>
       <path id="DejaVuSans-2212" d="M 678 2272 
L 4684 2272 
L 4684 1741 
L 678 1741 
L 678 2272 
z
" transform="scale(0.015625)"/>
       <path id="DejaVuSans-31" d="M 794 531 
L 1825 531 
L 1825 4091 
L 703 3866 
L 703 4441 
L 1819 4666 
L 2450 4666 
L 2450 531 
L 3481 531 
L 3481 0 
L 794 0 
L 794 531 
z
" transform="scale(0.015625)"/>
       <path id="DejaVuSans-30" d="M 2034 4250 
Q 1547 4250 1301 3770 
Q 1056 3291 1056 2328 
Q 1056 1369 1301 889 
Q 1547 409 2034 409 
Q 2525 409 2770 889 
Q 3016 1369 3016 2328 
Q 3016 3291 2770 3770 
Q 2525 4250 2034 4250 
z
M 2034 4750 
Q 2819 4750 3233 4129 
Q 3647 3509 3647 2328 
Q 3647 1150 3233 529 
Q 2819 -91 2034 -91 
Q 1250 -91 836 529 
Q 422 1150 422 2328 
Q 422 3509 836 4129 
Q 1250 4750 2034 4750 
z
" transform="scale(0.015625)"/>
      </defs>
      <use xlink:href="#DejaVuSans-2212"/>
      <use xlink:href="#DejaVuSans-31" x="83.789062"/>
      <use xlink:href="#DejaVuSans-30" x="147.412109"/>
     </g>
    </g>
   </g>
   <g id="xtick_2">
    <g id="line2d_4">
     <path d="M 88.783784 78.616216 
" clip-path="url(#p4e84c96f12)" style="fill: none; stroke: #d3d3d3; stroke-width: 0.8; stroke-linecap: round"/>
    </g>
    <g id="line2d_5">
     <path d="M 59.673494 140.826442 
L 58.21474 142.17095 
" style="fill: none; stroke: #808080; stroke-width: 0.8; stroke-linecap: round"/>
    </g>
    <g id="text_3">
     <!-- 0 -->
     <g style="fill: #808080" transform="translate(48.530641 165.050389) scale(0.1 -0.1)">
      <use xlink:href="#DejaVuSans-30"/>
     </g>
    </g>
   </g>
   <g id="xtick_3">
    <g id="line2d_6">
     <path d="M 88.783784 78.616216 
" clip-path="url(#p4e84c96f12)" style="fill: none; stroke: #d3d3d3; stroke-width: 0.8; stroke-linecap: round"/>
    </g>
    <g id="line2d_7">
     <path d="M 84.743525 149.006223 
L 83.321001 150.386909 
" style="fill: none; stroke: #808080; stroke-width: 0.8; stroke-linecap: round"/>
    </g>
    <g id="text_4">
     <!-- 10 -->
     <g style="fill: #808080" transform="translate(70.477105 173.507304) scale(0.1 -0.1)">
      <use xlink:href="#DejaVuSans-31"/>
      <use xlink:href="#DejaVuSans-30" x="63.623047"/>
     </g>
    </g>
   </g>
  </g>
  <g id="axis3d_2">
   <g id="line2d_8">
    <path d="M 163.247803 104.046152 
L 110.607849 158.067695 
" style="fill: none; stroke: #ffffff; stroke-width: 0.8; stroke-linecap: round"/>
   </g>
   <g id="text_5">
    <!-- y -->
    <g style="fill: #262626" transform="translate(162.133934 160.636398) scale(0.1 -0.1)">
     <defs>
      <path id="DejaVuSans-79" d="M 2059 -325 
Q 1816 -950 1584 -1140 
Q 1353 -1331 966 -1331 
L 506 -1331 
L 506 -850 
L 844 -850 
Q 1081 -850 1212 -737 
Q 1344 -625 1503 -206 
L 1606 56 
L 191 3500 
L 800 3500 
L 1894 763 
L 2988 3500 
L 3597 3500 
L 2059 -325 
z
" transform="scale(0.015625)"/>
     </defs>
     <use xlink:href="#DejaVuSans-79"/>
    </g>
   </g>
   <g id="Line3DCollection_2">
    <path d="M 16.619539 44.654266 
L 19.792813 118.770488 
L 118.112411 150.366168 
" style="fill: none; stroke: #d3d3d3; stroke-width: 0.8"/>
    <path d="M 40.254676 27.40642 
L 42.320423 99.887399 
L 138.498866 129.44465 
" style="fill: none; stroke: #d3d3d3; stroke-width: 0.8"/>
    <path d="M 62.362434 11.273185 
L 63.452275 82.174261 
L 157.559055 109.884207 
" style="fill: none; stroke: #d3d3d3; stroke-width: 0.8"/>
   </g>
   <g id="xtick_4">
    <g id="line2d_9">
     <path d="M 88.783784 78.616216 
" clip-path="url(#p4e84c96f12)" style="fill: none; stroke: #d3d3d3; stroke-width: 0.8; stroke-linecap: round"/>
    </g>
    <g id="line2d_10">
     <path d="M 117.284134 150.099996 
L 119.771093 150.899197 
" style="fill: none; stroke: #808080; stroke-width: 0.8; stroke-linecap: round"/>
    </g>
    <g id="text_6">
     <!-- −20 -->
     <g style="fill: #808080" transform="translate(120.366467 171.303364) scale(0.1 -0.1)">
      <defs>
       <path id="DejaVuSans-32" d="M 1228 531 
L 3431 531 
L 3431 0 
L 469 0 
L 469 531 
Q 828 903 1448 1529 
Q 2069 2156 2228 2338 
Q 2531 2678 2651 2914 
Q 2772 3150 2772 3378 
Q 2772 3750 2511 3984 
Q 2250 4219 1831 4219 
Q 1534 4219 1204 4116 
Q 875 4013 500 3803 
L 500 4441 
Q 881 4594 1212 4672 
Q 1544 4750 1819 4750 
Q 2544 4750 2975 4387 
Q 3406 4025 3406 3419 
Q 3406 3131 3298 2873 
Q 3191 2616 2906 2266 
Q 2828 2175 2409 1742 
Q 1991 1309 1228 531 
z
" transform="scale(0.015625)"/>
      </defs>
      <use xlink:href="#DejaVuSans-2212"/>
      <use xlink:href="#DejaVuSans-32" x="83.789062"/>
      <use xlink:href="#DejaVuSans-30" x="147.412109"/>
     </g>
    </g>
   </g>
   <g id="xtick_5">
    <g id="line2d_11">
     <path d="M 88.783784 78.616216 
" clip-path="url(#p4e84c96f12)" style="fill: none; stroke: #d3d3d3; stroke-width: 0.8; stroke-linecap: round"/>
    </g>
    <g id="line2d_12">
     <path d="M 137.689999 129.196072 
L 140.118609 129.942424 
" style="fill: none; stroke: #808080; stroke-width: 0.8; stroke-linecap: round"/>
    </g>
    <g id="text_7">
     <!-- 0 -->
     <g style="fill: #808080" transform="translate(147.710757 149.914832) scale(0.1 -0.1)">
      <use xlink:href="#DejaVuSans-30"/>
     </g>
    </g>
   </g>
   <g id="xtick_6">
    <g id="line2d_13">
     <path d="M 88.783784 78.616216 
" clip-path="url(#p4e84c96f12)" style="fill: none; stroke: #d3d3d3; stroke-width: 0.8; stroke-linecap: round"/>
    </g>
    <g id="line2d_14">
     <path d="M 156.768866 109.651534 
L 159.141333 110.350112 
" style="fill: none; stroke: #808080; stroke-width: 0.8; stroke-linecap: round"/>
    </g>
    <g id="text_8">
     <!-- 20 -->
     <g style="fill: #808080" transform="translate(163.202231 129.918925) scale(0.1 -0.1)">
      <use xlink:href="#DejaVuSans-32"/>
      <use xlink:href="#DejaVuSans-30" x="63.623047"/>
     </g>
    </g>
   </g>
  </g>
  <g id="axis3d_3">
   <g id="line2d_15">
    <path d="M 163.247803 104.046152 
L 166.583609 31.200681 
" style="fill: none; stroke: #ffffff; stroke-width: 0.8; stroke-linecap: round"/>
   </g>
   <g id="text_9">
    <!-- z -->
    <g style="fill: #262626" transform="translate(202.494937 65.789607) scale(0.1 -0.1)">
     <defs>
      <path id="DejaVuSans-7a" d="M 353 3500 
L 3084 3500 
L 3084 2975 
L 922 459 
L 3084 459 
L 3084 0 
L 275 0 
L 275 525 
L 2438 3041 
L 353 3041 
L 353 3500 
z
" transform="scale(0.015625)"/>
     </defs>
     <use xlink:href="#DejaVuSans-7a"/>
    </g>
   </g>
   <g id="Line3DCollection_3">
    <path d="M 163.569069 97.030521 
L 69.694321 70.081578 
L 11.173476 118.521743 
" style="fill: none; stroke: #d3d3d3; stroke-width: 0.8"/>
    <path d="M 164.408821 78.692491 
L 69.49023 52.333355 
L 10.268699 99.733459 
" style="fill: none; stroke: #d3d3d3; stroke-width: 0.8"/>
    <path d="M 165.267646 59.937954 
L 69.281729 34.201529 
L 9.342578 80.501943 
" style="fill: none; stroke: #d3d3d3; stroke-width: 0.8"/>
    <path d="M 166.146201 40.752559 
L 69.068671 15.673527 
L 8.394347 60.811322 
" style="fill: none; stroke: #d3d3d3; stroke-width: 0.8"/>
   </g>
   <g id="xtick_7">
    <g id="line2d_16">
     <path d="M 88.783784 78.616216 
" style="fill: none; stroke: #d3d3d3; stroke-width: 0.8; stroke-linecap: round"/>
    </g>
    <g id="line2d_17">
     <path d="M 162.781043 96.8043 
L 165.147005 97.483505 
" style="fill: none; stroke: #808080; stroke-width: 0.8; stroke-linecap: round"/>
    </g>
    <g id="text_10">
     <!-- 10 -->
     <g style="fill: #808080" transform="translate(175.504224 102.048576) scale(0.1 -0.1)">
      <use xlink:href="#DejaVuSans-31"/>
      <use xlink:href="#DejaVuSans-30" x="63.623047"/>
     </g>
    </g>
   </g>
   <g id="xtick_8">
    <g id="line2d_18">
     <path d="M 88.783784 78.616216 
" style="fill: none; stroke: #d3d3d3; stroke-width: 0.8; stroke-linecap: round"/>
    </g>
    <g id="line2d_19">
     <path d="M 163.611612 78.471104 
L 166.005166 79.1358 
" style="fill: none; stroke: #808080; stroke-width: 0.8; stroke-linecap: round"/>
    </g>
    <g id="text_11">
     <!-- 20 -->
     <g style="fill: #808080" transform="translate(176.544643 83.765807) scale(0.1 -0.1)">
      <use xlink:href="#DejaVuSans-32"/>
      <use xlink:href="#DejaVuSans-30" x="63.623047"/>
     </g>
    </g>
   </g>
   <g id="xtick_9">
    <g id="line2d_20">
     <path d="M 88.783784 78.616216 
" style="fill: none; stroke: #d3d3d3; stroke-width: 0.8; stroke-linecap: round"/>
    </g>
    <g id="line2d_21">
     <path d="M 164.461037 59.721681 
L 166.882833 60.37103 
" style="fill: none; stroke: #808080; stroke-width: 0.8; stroke-linecap: round"/>
    </g>
    <g id="text_12">
     <!-- 30 -->
     <g style="fill: #808080" transform="translate(177.608583 65.069712) scale(0.1 -0.1)">
      <defs>
       <path id="DejaVuSans-33" d="M 2597 2516 
Q 3050 2419 3304 2112 
Q 3559 1806 3559 1356 
Q 3559 666 3084 287 
Q 2609 -91 1734 -91 
Q 1441 -91 1130 -33 
Q 819 25 488 141 
L 488 750 
Q 750 597 1062 519 
Q 1375 441 1716 441 
Q 2309 441 2620 675 
Q 2931 909 2931 1356 
Q 2931 1769 2642 2001 
Q 2353 2234 1838 2234 
L 1294 2234 
L 1294 2753 
L 1863 2753 
Q 2328 2753 2575 2939 
Q 2822 3125 2822 3475 
Q 2822 3834 2567 4026 
Q 2313 4219 1838 4219 
Q 1578 4219 1281 4162 
Q 984 4106 628 3988 
L 628 4550 
Q 988 4650 1302 4700 
Q 1616 4750 1894 4750 
Q 2613 4750 3031 4423 
Q 3450 4097 3450 3541 
Q 3450 3153 3228 2886 
Q 3006 2619 2597 2516 
z
" transform="scale(0.015625)"/>
      </defs>
      <use xlink:href="#DejaVuSans-33"/>
      <use xlink:href="#DejaVuSans-30" x="63.623047"/>
     </g>
    </g>
   </g>
   <g id="xtick_10">
    <g id="line2d_22">
     <path d="M 88.783784 78.616216 
" style="fill: none; stroke: #d3d3d3; stroke-width: 0.8; stroke-linecap: round"/>
    </g>
    <g id="line2d_23">
     <path d="M 165.329969 40.541693 
L 167.78068 41.17481 
" style="fill: none; stroke: #808080; stroke-width: 0.8; stroke-linecap: round"/>
    </g>
    <g id="text_13">
     <!-- 40 -->
     <g style="fill: #808080" transform="translate(178.696852 45.946115) scale(0.1 -0.1)">
      <defs>
       <path id="DejaVuSans-34" d="M 2419 4116 
L 825 1625 
L 2419 1625 
L 2419 4116 
z
M 2253 4666 
L 3047 4666 
L 3047 1625 
L 3713 1625 
L 3713 1100 
L 3047 1100 
L 3047 0 
L 2419 0 
L 2419 1100 
L 313 1100 
L 313 1709 
L 2253 4666 
z
" transform="scale(0.015625)"/>
      </defs>
      <use xlink:href="#DejaVuSans-34"/>
      <use xlink:href="#DejaVuSans-30" x="63.623047"/>
     </g>
    </g>
   </g>
  </g>
  <g id="axes_1">
   <g id="line2d_24">
    <path d="M 123.107733 104.837922 
L 127.504085 100.568039 
L 129.965775 97.960575 
L 132.570921 95.019766 
L 135.280084 91.743944 
L 138.039618 88.146102 
L 140.780854 84.258347 
L 143.420383 80.135895 
L 145.86162 75.859788 
L 147.997632 71.537425 
L 149.71502 67.300122 
L 150.898611 63.297292 
L 151.437046 59.687209 
L 151.229866 56.624722 
L 150.197139 54.246595 
L 148.292313 52.655528 
L 145.517308 51.904809 
L 141.936031 51.986756 
L 137.679975 52.829101 
L 132.939875 54.30275 
L 127.941968 56.241128 
L 122.914629 58.466687 
L 118.056117 60.816883 
L 109.375089 65.414982 
L 102.422001 69.471041 
L 97.104575 72.893305 
L 93.088817 75.798656 
L 90.025726 78.337422 
L 87.629886 80.627923 
L 85.686998 82.747584 
L 83.289653 85.700137 
L 79.153287 90.973611 
L 76.972425 93.290652 
L 75.362589 94.691878 
L 73.577414 95.953571 
L 71.576114 97.044446 
L 69.321022 97.921098 
L 66.780177 98.52445 
L 63.93219 98.776054 
L 62.391061 98.739402 
L 60.773978 98.575285 
L 59.085222 98.267652 
L 57.331763 97.79937 
L 55.523748 97.152614 
L 53.674973 96.309465 
L 51.803328 95.252736 
L 49.931136 93.967064 
L 48.085346 92.440258 
L 46.297503 90.664892 
L 44.603432 88.64006 
L 43.042572 86.373187 
L 41.656908 83.881713 
L 40.48948 81.194445 
L 39.582477 78.352318 
L 38.974944 75.408311 
L 38.700221 72.426324 
L 38.783254 69.478862 
L 39.238015 66.643551 
L 40.065357 63.998644 
L 41.251641 61.617901 
L 42.768516 59.565384 
L 44.574061 57.890847 
L 46.615354 56.626372 
L 48.832205 55.784766 
L 51.161569 55.359936 
L 53.541977 55.329098 
L 55.917373 55.656365 
L 58.239876 56.29705 
L 60.471299 57.202016 
L 62.583456 58.321524 
L 64.557545 59.608226 
L 66.382903 61.019205 
L 68.055477 62.517101 
L 69.576255 64.070501 
L 70.949829 65.653788 
L 73.284671 68.833406 
L 75.128447 71.944731 
L 76.553022 74.928258 
L 77.623308 77.757262 
L 78.393245 80.424191 
L 78.905051 82.931854 
L 79.189879 85.288038 
L 79.268928 87.502362 
L 79.154537 89.584422 
L 78.851083 91.542646 
L 78.355615 93.383449 
L 77.658255 95.110412 
L 76.742428 96.723279 
L 75.585014 98.216561 
L 74.156623 99.577545 
L 72.422237 100.783463 
L 70.342692 101.797577 
L 67.877642 102.563999 
L 66.488892 102.83007 
L 64.991008 103.001309 
L 63.381652 103.062415 
L 61.660175 102.99568 
L 59.828204 102.780909 
L 57.890328 102.395458 
L 55.854868 101.814469 
L 53.734712 101.011362 
L 51.548163 99.958676 
L 49.319725 98.629337 
L 47.080755 96.998413 
L 44.869838 95.045389 
L 42.732782 92.75692 
L 40.722092 90.129933 
L 38.895825 87.17485 
L 37.315748 83.918563 
L 36.044764 80.406726 
L 35.143626 76.704854 
L 34.667018 72.897735 
L 34.659153 69.086776 
L 35.149197 65.385082 
L 36.14698 61.910385 
L 37.6397 58.77634 
L 39.590435 56.083124 
L 41.939198 53.908674 
L 44.606899 52.302022 
L 47.501918 51.279997 
L 50.52827 50.827892 
L 53.593888 50.903875 
L 56.617548 51.446079 
L 59.53342 52.380847 
L 62.29294 53.630639 
L 64.864337 55.120496 
L 67.230538 56.782533 
L 69.386254 58.55844 
L 71.334905 60.400338 
L 73.085836 62.270444 
L 74.652011 64.140035 
L 77.290073 67.799763 
L 79.370561 71.278302 
L 81.004992 74.535854 
L 82.287008 77.566134 
L 83.291734 80.379237 
L 84.403727 84.229235 
L 85.165368 87.691419 
L 85.796094 91.803255 
L 86.107223 95.44156 
L 86.16565 98.696507 
L 85.988341 101.641127 
L 85.686629 103.683531 
L 85.210816 105.609956 
L 84.515542 107.442309 
L 83.532713 109.200307 
L 82.670664 110.338776 
L 81.599137 111.453252 
L 80.269688 112.542187 
L 78.622361 113.597564 
L 76.584061 114.600338 
L 74.067748 115.513059 
L 70.973822 116.268332 
L 69.177029 116.553562 
L 67.196191 116.75153 
L 65.019483 116.836578 
L 62.63733 116.77677 
L 60.043831 116.532946 
L 57.238579 116.057953 
L 54.228895 115.29624 
L 51.032414 114.184152 
L 47.679869 112.651297 
L 44.217788 110.623456 
L 40.710661 108.027475 
L 37.24207 104.798408 
L 33.914257 100.888867 
L 30.845796 96.279975 
L 28.167329 90.992694 
L 26.015632 85.097739 
L 24.526378 78.721999 
L 23.825644 72.049506 
L 24.01976 65.315462 
L 25.182841 58.792436 
L 27.342204 52.768543 
L 30.46393 47.518616 
L 34.443452 43.271481 
L 39.107296 40.179355 
L 44.229843 38.297408 
L 49.563214 37.580399 
L 54.872063 37.898163 
L 59.96262 39.064926 
L 64.698492 40.873038 
L 69.002041 43.122061 
L 72.845334 45.638025 
L 76.236477 48.282235 
L 79.206042 50.951944 
L 81.796127 53.576154 
L 84.052748 56.109375 
L 87.743364 60.81067 
L 90.595179 64.980354 
L 93.825053 70.297416 
L 99.070376 79.252334 
L 100.395072 81.100596 
L 101.752931 82.669285 
L 103.187897 83.961485 
L 104.737913 84.971319 
L 106.435897 85.684542 
L 108.309604 86.079124 
L 110.380285 86.12619 
L 112.660006 85.791789 
L 115.147468 85.040156 
L 117.822335 83.839238 
L 120.638428 82.16923 
L 123.516741 80.0344 
L 126.340111 77.477364 
L 128.952165 74.593117 
L 131.163606 71.537838 
L 132.054699 70.011229 
L 132.768422 68.52601 
L 133.280886 67.114786 
L 133.571119 65.810242 
L 133.622367 64.643559 
L 133.423406 63.642742 
L 132.969724 62.830981 
L 132.264455 62.225232 
L 131.318909 61.835167 
L 130.152541 61.662656 
L 128.792283 61.701864 
L 127.271219 61.939972 
L 125.626714 62.358456 
L 123.898189 62.934742 
L 120.343481 64.461025 
L 116.883083 66.323287 
L 113.715806 68.356855 
L 110.953632 70.444412 
L 108.636767 72.512928 
L 106.757994 74.521602 
L 105.285081 76.449198 
L 104.176763 78.284536 
L 103.392349 80.020557 
L 102.896632 81.651051 
L 102.661927 83.168974 
L 102.668521 84.565566 
L 102.90436 85.829764 
L 103.364406 86.947678 
L 104.04986 87.901979 
L 104.967267 88.671194 
L 106.127444 89.228917 
L 107.544048 89.543039 
L 109.231553 89.575202 
L 111.202278 89.280806 
L 113.462114 88.610154 
L 116.00456 87.511543 
L 118.802902 85.9374 
L 121.800836 83.854559 
L 124.902714 81.25927 
L 127.965819 78.196012 
L 130.798285 74.776421 
L 132.056276 72.989488 
L 133.166849 71.191249 
L 134.097824 69.41721 
L 134.817877 67.705963 
L 135.297992 66.097654 
L 135.513092 64.632063 
L 135.443784 63.346427 
L 135.078094 62.273157 
L 134.413035 61.437683 
L 133.455795 60.856657 
L 132.224285 60.536783 
L 130.746856 60.474451 
L 129.06103 60.656308 
L 127.211315 61.060693 
L 125.246306 61.659785 
L 123.215455 62.422127 
L 119.140205 64.307577 
L 115.295405 66.480333 
L 111.877126 68.761781 
L 108.972043 71.039657 
L 106.588022 73.254249 
L 104.688444 75.378839 
L 103.218491 77.403721 
L 102.121246 79.326105 
L 101.345906 81.14478 
L 100.851093 82.857683 
L 100.605573 84.460939 
L 100.58779 85.94847 
L 100.785001 87.311732 
L 101.19235 88.539351 
L 101.812035 89.616582 
L 102.652545 90.524554 
L 103.727896 91.239299 
L 105.056686 91.730632 
L 106.660737 91.96096 
L 108.562968 91.884275 
L 110.784018 91.445754 
L 113.337073 90.582735 
L 116.220292 89.228252 
L 119.406478 87.318786 
L 122.830342 84.808025 
L 126.374997 81.687759 
L 128.139215 79.913454 
L 129.861271 78.014637 
L 131.508608 76.012979 
L 133.045192 73.937077 
L 134.432289 71.822461 
L 135.629558 69.711078 
L 136.596463 67.65016 
L 137.294012 65.690447 
L 137.686797 63.883792 
L 137.745293 62.280255 
L 137.448331 60.924886 
L 136.785567 59.854484 
L 135.759639 59.094692 
L 134.387637 58.65783 
L 132.701443 58.541868 
L 130.746593 58.730778 
L 128.579554 59.196344 
L 126.26366 59.901201 
L 123.864278 60.802626 
L 121.443994 61.856477 
L 116.754108 64.257746 
L 112.51838 66.832018 
L 108.895504 69.406205 
L 105.914804 71.893579 
L 103.530155 74.262523 
L 101.663949 76.508875 
L 100.233917 78.638538 
L 99.166169 80.658851 
L 98.399914 82.575236 
L 97.888015 84.390368 
L 97.595838 86.104307 
L 97.49963 87.714793 
L 97.585003 89.217416 
L 97.845705 90.605556 
L 98.282734 91.870051 
L 98.903751 92.998612 
L 99.722721 93.974953 
L 100.759679 94.777618 
L 102.040471 95.378503 
L 103.596238 95.741056 
L 105.462323 95.81826 
L 107.676069 95.550647 
L 110.272788 94.864933 
L 113.278919 93.674417 
L 116.701281 91.883123 
L 120.511627 89.396635 
L 122.539068 87.86854 
L 124.626881 86.143162 
L 126.752611 84.220609 
L 128.887924 82.107261 
L 130.998361 79.81729 
L 133.043395 77.374039 
L 134.976877 74.811067 
L 136.7479 72.172636 
L 138.302116 69.513405 
L 139.583513 66.897157 
L 140.536641 64.394441 
L 141.109335 62.079134 
L 141.255954 60.02404 
L 140.941145 58.295785 
L 140.143995 56.949422 
L 138.862169 56.023343 
L 137.115298 55.535236 
L 134.946614 55.479895 
L 132.421867 55.829571 
L 129.625019 56.537117 
L 126.651034 57.541571 
L 123.597017 58.775199 
L 120.553485 60.170611 
L 114.788426 63.212388 
L 109.757671 66.307232 
L 105.599479 69.269428 
L 102.277048 72.038739 
L 99.673416 74.618951 
L 97.653497 77.035731 
L 96.093762 79.316034 
L 94.892108 81.481049 
L 93.968341 83.545405 
L 92.974012 86.472778 
L 92.324839 89.212094 
L 91.928779 91.772205 
L 91.702941 94.914505 
L 91.770394 97.750596 
L 92.010691 99.674925 
L 92.433273 101.418767 
L 93.075133 102.968555 
L 93.652605 103.88228 
L 94.376473 104.687577 
L 95.276561 105.368199 
L 96.390063 105.901338 
L 97.762783 106.255182 
L 99.450283 106.385586 
L 101.51856 106.231652 
L 104.043512 105.71014 
L 107.107825 104.709049 
L 110.793025 103.081719 
L 112.889866 101.977253 
L 115.163275 100.644922 
L 117.613881 99.057583 
L 120.23682 97.188108 
L 123.020028 95.011173 
L 125.942403 92.505754 
L 128.972028 89.658394 
L 132.064676 86.467135 
L 135.162922 82.945883 
L 138.196117 79.128693 
L 141.081441 75.073302 
L 143.725989 70.86306 
L 146.029663 66.606535 
L 147.888464 62.434288 
L 149.197943 58.492724 
L 149.857063 54.935281 
L 149.773391 51.911339 
L 148.871092 49.553282 
L 147.102787 47.962274 
L 144.464653 47.194046 
L 141.011204 47.247357 
L 136.863396 48.059044 
L 132.203462 49.509456 
L 127.253899 51.439342 
L 122.245198 53.674778 
L 117.382641 56.05299 
L 112.822643 58.441737 
L 104.95094 62.918517 
L 98.84843 66.780969 
L 94.278573 70.058384 
L 90.878711 72.896034 
L 88.317938 75.433157 
L 86.338499 77.768608 
L 84.750692 79.963217 
L 82.811971 83.060316 
L 78.915159 89.539206 
L 77.073368 91.979049 
L 75.684814 93.470254 
L 74.124345 94.833169 
L 72.355614 96.042726 
L 70.343441 97.064001 
L 68.055615 97.848965 
L 65.466484 98.332854 
L 64.054119 98.436217 
L 62.562933 98.430748 
L 60.99471 98.302361 
L 59.353308 98.035658 
L 57.645103 97.614122 
L 55.879465 97.020474 
L 54.069225 96.237202 
L 52.231122 95.247317 
L 50.386163 94.035353 
L 48.559849 92.588624 
L 46.782206 90.898721 
L 45.087543 88.96319 
L 43.513889 86.787295 
L 42.102046 84.385694 
L 40.894231 81.783861 
L 39.932302 79.018977 
L 39.255611 76.140076 
L 38.898546 73.207216 
L 38.887928 70.289519 
L 39.240445 67.462061 
L 39.960432 64.801729 
L 41.038318 62.382356 
L 42.450108 60.269633 
L 44.158144 58.516417 
L 46.113247 57.159086 
L 48.258078 56.215494 
L 50.531294 55.6848 
L 52.871901 55.549147 
L 55.223185 55.776817 
L 57.535718 56.326261 
L 59.769178 57.150368 
L 61.892987 58.200369 
L 63.885949 59.429014 
L 65.735203 60.79283 
L 67.434804 62.253476 
L 68.984197 63.778333 
L 70.386773 65.340501 
L 72.777473 68.495271 
L 74.671039 71.597983 
L 76.13766 74.582758 
L 77.242016 77.418537 
L 78.038494 80.094979 
L 78.570006 82.613141 
L 78.868425 84.979726 
L 78.955598 87.203651 
L 78.844403 89.294024 
L 78.539642 91.258868 
L 78.038703 93.104194 
L 77.331985 94.833112 
L 76.403178 96.444766 
L 75.229479 97.932882 
L 73.781956 99.283722 
L 72.026326 100.473195 
L 69.92461 101.462919 
L 67.438353 102.19507 
L 66.04022 102.439655 
L 64.53438 102.586178 
L 62.919074 102.61913 
L 61.194333 102.520664 
L 59.36257 102.270552 
L 57.429265 101.846272 
L 55.403719 101.223301 
L 53.299863 100.375677 
L 51.137061 99.276914 
L 48.940837 97.901332 
L 46.743438 96.225872 
L 44.584116 94.232391 
L 42.509002 91.910388 
L 40.570469 89.260015 
L 38.825871 86.295128 
L 37.335607 83.046003 
L 36.160482 79.561296 
L 35.3584 75.908751 
L 34.980466 72.174218 
L 35.066709 68.458637 
L 35.641709 64.872872 
L 36.710664 61.530586 
L 38.256566 58.539709 
L 40.239246 55.99351 
L 42.596952 53.962533 
L 45.250644 52.4888 
L 48.110611 51.583336 
L 51.084343 51.227465 
L 54.084258 51.377504 
L 57.033946 51.971757 
L 59.872102 52.938367 
L 62.553956 54.20267 
L 65.050578 55.693087 
L 67.346777 57.345144 
L 69.438297 59.10365 
L 71.32893 60.923367 
L 73.027919 62.768619 
L 74.547828 64.612273 
L 77.10801 68.22108 
L 79.125801 71.653791 
L 80.707807 74.872384 
L 81.943526 77.870651 
L 82.904713 80.658085 
L 83.950636 84.479813 
L 84.638466 87.924065 
L 85.056757 91.047284 
L 85.259588 93.898216 
L 85.275467 96.518145 
L 85.112469 98.942257 
L 84.760408 101.201022 
L 84.190524 103.321109 
L 83.352864 105.325448 
L 82.609351 106.606427 
L 81.683199 107.847183 
L 80.536084 109.047941 
L 79.120454 110.204083 
L 77.378172 111.303043 
L 75.239569 112.319353 
L 72.623697 113.206935 
L 69.441215 113.887518 
L 67.609106 114.112979 
L 65.602475 114.234185 
L 63.412884 114.224168 
L 61.034775 114.050124 
L 58.466884 113.672791 
L 55.713976 113.046094 
L 52.788879 112.117281 
L 49.714716 110.827811 
L 46.527179 109.115354 
L 43.276529 106.917219 
L 40.028985 104.175495 
L 36.867069 100.843952 
L 33.888558 96.896462 
L 31.203848 92.336197 
L 28.931723 87.204449 
L 27.193701 81.587529 
L 26.107076 75.620092 
L 25.776595 69.483425 
L 26.284508 63.397603 
L 27.679015 57.606997 
L 29.962136 52.35941 
L 33.079726 47.880482 
L 36.917802 44.346913 
L 41.309095 41.864034 
L 46.051009 40.453757 
L 50.931603 40.056896 
L 55.756553 40.549354 
L 60.369656 41.767137 
L 64.662644 43.532924 
L 68.574487 45.677996 
L 72.083566 48.056361 
L 75.196892 50.551029 
L 77.939609 53.074292 
L 80.346512 55.564402 
L 82.456033 57.980693 
L 85.933696 62.504826 
L 88.645722 66.567226 
L 91.741544 71.824361 
L 97.426125 81.92607 
L 98.707965 83.732232 
L 100.044375 85.279191 
L 101.477969 86.56528 
L 103.04784 87.580051 
L 104.790344 88.304142 
L 106.73886 88.709104 
L 108.922319 88.757491 
L 111.362187 88.403753 
L 114.06753 87.596769 
L 117.027884 86.285138 
L 120.203998 84.426586 
L 123.51731 82.002569 
L 126.840261 79.037965 
L 128.450625 77.378068 
L 129.990994 75.623152 
L 131.430738 73.797722 
L 132.736984 71.931929 
L 133.875516 70.061171 
L 134.811923 68.225236 
L 135.513018 66.466933 
L 135.948482 64.830261 
L 136.092716 63.358155 
L 135.926795 62.089989 
L 135.440414 61.059013 
L 134.633593 60.290002 
L 133.517884 59.797416 
L 132.116788 59.584338 
L 130.465115 59.642414 
L 128.607207 59.952872 
L 126.594115 60.488516 
L 124.48007 61.216408 
L 122.318764 62.100855 
L 118.046916 64.199358 
L 114.089963 66.536927 
L 110.627685 68.939093 
L 107.724171 71.304364 
L 105.3667 73.584226 
L 103.503401 75.76077 
L 102.069552 77.830304 
L 101.002404 79.79389 
L 100.248009 81.652798 
L 99.763444 83.406699 
L 99.516811 85.053119 
L 99.486347 86.5873 
L 99.659321 88.002083 
L 100.03102 89.287637 
L 100.603915 90.430963 
L 101.386995 91.41516 
L 102.395172 92.218434 
L 103.648621 92.812876 
L 105.171822 93.163064 
L 106.991987 93.224639 
L 109.136405 92.943171 
L 111.628108 92.25396 
L 114.479116 91.083824 
L 117.680599 89.356566 
L 121.18971 87.004305 
L 124.913993 83.986828 
L 126.810554 82.230378 
L 128.69625 80.319568 
L 130.539761 78.270496 
L 132.3052 76.106742 
L 133.952628 73.859903 
L 135.438918 71.56965 
L 136.718981 69.283151 
L 137.747355 67.053769 
L 138.48017 64.93897 
L 138.877485 62.997493 
L 138.905949 61.28589 
L 138.541724 59.854698 
L 137.773455 58.74457 
L 136.604921 57.982822 
L 135.05686 57.580913 
L 133.167379 57.53334 
L 130.990476 57.818287 
L 128.592537 58.400091 
L 126.047172 59.233187 
L 123.429192 60.266889 
L 120.808781 61.450183 
L 115.792066 64.082834 
L 111.333405 66.837887 
L 107.575547 69.544056 
L 104.521213 72.126574 
L 102.099041 74.566922 
L 100.212165 76.871289 
L 98.765159 79.052668 
L 97.675596 81.123005 
L 96.877153 83.090802 
L 96.318923 84.96105 
L 95.963405 86.735859 
L 95.784342 88.415105 
L 95.764858 89.996839 
L 95.896016 91.477422 
L 96.175823 92.851401 
L 96.608607 94.111139 
L 97.204711 95.246195 
L 97.980446 96.242445 
L 98.958191 97.080885 
L 100.166564 97.736075 
L 101.640453 98.174158 
L 103.420643 98.350447 
L 105.552579 98.206683 
L 108.083516 97.668342 
L 111.057008 96.642866 
L 114.503285 95.020619 
L 116.405902 93.948255 
L 118.423998 92.681676 
L 120.549737 91.207094 
L 122.770462 89.513056 
L 125.067791 87.591894 
L 127.416798 85.441466 
L 129.785345 83.067115 
L 132.133721 80.483695 
L 134.414665 77.717466 
L 136.573887 74.807571 
L 138.551116 71.806771 
L 140.281699 68.78113 
L 141.698711 65.8084 
L 142.735588 62.974958 
L 143.329338 60.371319 
L 143.424481 58.086369 
L 142.977827 56.200651 
L 141.964035 54.779243 
L 140.38144 53.865007 
L 138.256995 53.473289 
L 135.648705 53.589286 
L 132.643908 54.169137 
L 129.352624 55.145093 
L 125.896673 56.434085 
L 122.396825 57.94795 
L 118.960938 59.603128 
L 112.602368 63.066434 
L 107.219599 66.441355 
L 102.886558 69.570673 
L 99.493718 72.435203 
L 96.867937 75.071903 
L 94.837636 77.527636 
L 93.257471 79.84126 
L 92.012498 82.040208 
L 90.586481 85.16088 
L 89.506978 88.097531 
L 87.852725 93.488323 
L 86.573346 97.545977 
L 85.385381 100.546895 
L 84.287742 102.673153 
L 82.915413 104.703059 
L 81.793151 106.003985 
L 80.457413 107.259604 
L 78.858538 108.460971 
L 76.937768 109.5901 
L 74.62684 110.614627 
L 71.849116 111.479809 
L 68.523768 112.097003 
L 66.631562 112.271886 
L 64.575536 112.328136 
L 62.350247 112.237721 
L 59.95367 111.967232 
L 57.388575 111.477552 
L 54.664155 110.723875 
L 51.797845 109.656268 
L 48.817234 108.221057 
L 45.761859 106.363266 
L 42.684625 104.030381 
L 39.652549 101.177542 
L 36.746478 97.774075 
L 34.059579 93.810967 
L 31.694447 89.308523 
L 29.758885 84.323086 
L 28.360431 78.951538 
L 27.599665 73.332246 
L 27.562238 67.641361 
L 28.309595 62.083742 
L 29.868842 56.878356 
L 32.223215 52.238862 
L 35.305796 48.351369 
L 38.999725 45.352934 
L 43.147174 43.315448 
L 47.56673 42.239252 
L 52.075459 42.058514 
L 56.509926 42.656811 
L 60.741025 43.888367 
L 64.680187 45.599343 
L 68.277746 47.64485 
L 71.516216 49.899677 
L 74.401572 52.262951 
L 76.954883 54.658219 
L 79.205511 57.030759 
L 81.186215 59.343671 
L 84.468106 63.708091 
L 87.039547 67.669848 
L 89.095349 71.227916 
L 92.230099 77.262821 
L 95.296971 83.13515 
L 97.068477 85.906171 
L 98.32005 87.459623 
L 99.676032 88.775099 
L 101.175693 89.840889 
L 102.857705 90.636362 
L 104.760181 91.131112 
L 106.919622 91.284119 
L 109.36836 91.043393 
L 112.129947 90.346864 
L 115.211857 89.125807 
L 118.595087 87.312583 
L 120.383288 86.166392 
L 122.220871 84.854799 
L 124.091877 83.377262 
L 125.976133 81.737368 
L 127.849009 79.943852 
L 129.681356 78.011572 
L 131.439681 75.96233 
L 133.086594 73.825416 
L 134.581577 71.637717 
L 135.882083 69.44327 
L 136.944981 67.292153 
L 137.728353 65.23865 
L 138.193629 63.338728 
L 138.308038 61.64691 
L 138.047305 60.212758 
L 137.398414 59.077263 
L 136.36214 58.269533 
L 134.954902 57.804248 
L 133.209412 57.680322 
L 131.173682 57.88113 
L 128.908184 58.376395 
L 126.481395 59.125524 
L 123.964374 60.081868 
L 121.425264 61.197191 
L 116.512422 63.726614 
L 112.091883 66.419386 
L 108.328654 69.093568 
L 105.246343 71.662585 
L 102.788468 74.098974 
L 100.867062 76.403381 
L 99.391322 78.585764 
L 98.28089 80.656518 
L 97.470181 82.623332 
L 96.908428 84.490679 
L 96.558092 86.260223 
L 96.392906 87.931332 
L 96.396117 89.501429 
L 96.559098 90.966072 
L 96.880361 92.318788 
L 97.364929 93.550642 
L 98.024009 94.649553 
L 98.874884 95.599329 
L 99.94092 96.378377 
L 101.251554 96.958061 
L 102.842035 97.300661 
L 104.752577 97.357012 
L 107.026362 97.06402 
L 109.705587 96.342661 
L 112.824398 95.097643 
L 116.397381 93.220959 
L 118.349302 92.010973 
L 120.402439 90.602786 
L 122.544581 88.986099 
L 124.758211 87.154178 
L 127.019762 85.105418 
L 129.299017 82.845111 
L 131.558767 80.387259 
L 133.754831 77.756283 
L 135.836503 74.988347 
L 137.747499 72.132052 
L 139.427409 69.24819 
L 140.813642 66.408346 
L 141.843874 63.692213 
L 142.459046 61.183602 
L 142.606981 58.965296 
L 142.246725 57.113026 
L 141.353503 55.689049 
L 139.923845 54.73602 
L 137.979971 54.272097 
L 135.572065 54.288295 
L 132.777091 54.749031 
L 129.69341 55.596211 
L 126.431653 56.756378 
L 123.103575 58.149574 
L 119.811344 59.69808 
L 116.639469 61.333334 
L 110.885088 64.657692 
L 106.09047 67.848681 
L 102.255737 70.809269 
L 99.256015 73.53918 
L 96.931367 76.073175 
L 95.131654 78.449404 
L 93.73201 80.698221 
L 92.634255 82.840727 
L 91.394187 85.883754 
L 90.486327 88.744652 
L 89.589173 92.301491 
L 87.192141 102.782471 
L 86.278987 105.335101 
L 85.389246 107.160512 
L 84.237221 108.926333 
L 83.271821 110.07631 
L 82.101816 111.206074 
L 80.676786 112.312895 
L 78.935093 113.387312 
L 76.802325 114.408345 
L 74.190674 115.335836 
L 71.000685 116.098554 
L 69.156031 116.383164 
L 67.127949 116.576562 
L 64.905222 116.652173 
L 62.479115 116.577062 
L 59.84484 116.311047 
L 57.003405 115.805992 
L 53.963863 115.005539 
L 50.74587 113.845565 
L 47.382391 112.255781 
L 43.92225 110.162909 
L 40.43207 107.495842 
L 36.997122 104.193017 
L 33.720584 100.211851 
L 30.720947 95.539573 
L 28.127572 90.204141 
L 26.074716 84.283461 
L 24.694322 77.910879 
L 24.107583 71.275127 
L 24.414792 64.613374 
L 25.682933 58.19664 
L 27.931385 52.307545 
L 31.1183 47.211596 
L 35.132596 43.125361 
L 39.797363 40.187648 
L 44.88783 38.441431 
L 50.1613 37.832748 
L 55.390648 38.227483 
L 60.391305 39.440628 
L 65.035123 41.268808 
L 69.250583 43.517673 
L 73.013466 46.019625 
L 76.333538 48.6416 
L 79.241579 51.285268 
L 81.779044 53.882776 
L 83.990895 56.390672 
L 87.610911 61.049554 
L 90.410574 65.189783 
L 93.583702 70.484624 
L 98.741084 79.456803 
L 100.044906 81.322086 
L 101.382527 82.912118 
L 102.797798 84.229799 
L 104.328924 85.269161 
L 106.009486 86.015824 
L 107.868379 86.44744 
L 109.928572 86.534436 
L 112.204517 86.241522 
L 114.698023 85.530638 
L 117.392532 84.366157 
L 120.246066 82.723164 
L 123.183708 80.599297 
L 126.091373 78.029551 
L 128.813542 75.101591 
L 130.046151 73.547962 
L 131.158191 71.96666 
L 132.12242 70.386486 
L 132.911837 68.83923 
L 133.500791 67.358616 
L 133.866244 65.978941 
L 133.989137 64.733445 
L 133.855788 63.652549 
L 133.459215 62.762075 
L 132.800239 62.081646 
L 131.888203 61.623428 
L 130.74114 61.391408 
L 129.385269 61.381314 
L 127.853767 61.581223 
L 126.184903 61.972791 
L 124.419729 62.532961 
L 120.763834 64.054939 
L 117.181714 65.940031 
L 113.889871 68.011457 
L 111.012069 70.14277 
L 108.593993 72.255673 
L 106.629261 74.307182 
L 105.083862 76.275753 
L 103.91369 78.150799 
L 103.075043 79.926178 
L 102.529971 81.596663 
L 102.248449 83.156179 
L 102.208846 84.596924 
L 102.397577 85.908827 
L 102.80843 87.079058 
L 103.441789 88.091451 
L 104.303779 88.925802 
L 105.405297 89.557047 
L 106.760749 89.954395 
L 108.38628 90.080579 
L 110.297154 89.89152 
L 112.503886 89.336904 
L 115.006711 88.362449 
L 117.78806 86.914953 
L 120.803124 84.951379 
L 123.969335 82.452971 
L 127.156841 79.444216 
L 130.18344 76.013933 
L 131.565839 74.190443 
L 132.818422 72.332097 
L 133.907539 70.473322 
L 134.799467 68.652727 
L 135.4618 66.911759 
L 135.865066 65.292914 
L 135.984518 63.837563 
L 135.802019 62.583535 
L 135.307895 61.562673 
L 134.502528 60.798598 
L 133.397471 60.304969 
L 132.015766 60.084508 
L 130.391292 60.128976 
L 128.567008 60.420167 
L 126.592246 60.931821 
L 124.519347 61.63218 
L 122.400129 62.48682 
L 118.208877 64.523596 
L 114.320647 66.802455 
L 110.911925 69.152543 
L 108.047933 71.472868 
L 105.719214 73.71375 
L 103.877569 75.855601 
L 102.461507 77.89315 
L 101.410841 79.826159 
L 100.673548 81.654853 
L 100.208156 83.378031 
L 99.983885 84.992417 
L 99.979872 86.492442 
L 100.184149 87.870063 
L 100.592666 89.114435 
L 101.208469 90.211371 
L 102.040992 91.142568 
L 103.105386 91.884602 
L 104.421707 92.407713 
L 106.013727 92.674483 
L 107.907012 92.638597 
L 110.125785 92.244094 
L 112.687958 91.42584 
L 115.597668 90.112428 
L 118.834784 88.233236 
L 122.341523 85.731731 
L 126.007577 82.586635 
L 127.848227 80.782648 
L 129.657274 78.84038 
L 131.401673 76.780147 
L 133.044379 74.629686 
L 134.545058 72.424353 
L 135.861139 70.206782 
L 136.94921 68.02589 
L 137.766768 65.935174 
L 138.274317 63.990289 
L 138.437773 62.246009 
L 138.231138 60.752754 
L 137.639259 59.552967 
L 136.660416 58.677729 
L 135.308298 58.144056 
L 133.612867 57.953351 
L 131.619635 58.091362 
L 129.38712 58.529809 
L 126.982624 59.229511 
L 124.476927 60.144533 
L 121.938759 61.226657 
L 117.002221 63.711382 
L 112.53601 66.381073 
L 108.718771 69.044741 
L 105.583496 71.609115 
L 103.078566 74.042915 
L 101.117711 76.345055 
L 99.610102 78.524913 
L 98.474614 80.592804 
L 97.64469 82.55649 
L 97.068644 84.420523 
L 96.708153 86.186593 
L 96.536331 87.854036 
L 96.535958 89.420186 
L 96.698072 90.880469 
L 97.020958 92.228231 
L 97.509504 93.454309 
L 98.174844 94.546347 
L 99.03423 95.487813 
L 100.111016 96.256712 
L 101.434597 96.823925 
L 103.040106 97.15118 
L 104.96747 97.188706 
L 107.259297 96.872817 
L 109.956747 96.124039 
L 113.092248 94.847035 
L 116.677727 92.934577 
L 118.633189 91.705902 
L 120.687311 90.279064 
L 122.827236 88.644389 
L 125.03476 86.79594 
L 127.285612 84.733091 
L 129.548897 82.462272 
L 131.786808 79.998752 
L 133.954694 77.368272 
L 136.001575 74.608278 
L 137.871137 71.76848 
L 139.503239 68.910467 
L 140.8359 66.106167 
L 141.807791 63.435025 
L 142.361277 60.979924 
L 142.446087 58.821989 
L 142.023675 57.03458 
L 141.072137 55.676989 
L 139.591197 54.78853 
L 137.606273 54.383962 
L 135.170317 54.451264 
L 132.362125 54.952596 
L 129.280563 55.828704 
L 126.035288 57.006197 
L 122.735784 58.406287 
L 119.481096 59.953198 
L 113.408975 63.235705 
L 108.210454 66.48676 
L 103.982517 69.540235 
L 100.645287 72.360629 
L 98.04978 74.970897 
L 96.040784 77.408634 
L 94.483196 79.707351 
L 93.268416 81.891624 
L 92.312396 83.977864 
L 91.227958 86.945312 
L 90.210218 90.6295 
L 89.319625 94.835808 
L 87.741104 102.751129 
L 87.022358 105.26256 
L 86.33624 107.051383 
L 85.45762 108.776994 
L 84.304328 110.455278 
L 83.328841 111.554242 
L 82.138763 112.639223 
L 80.680512 113.707631 
L 78.888252 114.74972 
L 76.682164 115.743301 
L 73.967794 116.645203 
L 70.638119 117.377888 
L 68.707391 117.642388 
L 66.581366 117.809485 
L 64.248376 117.849697 
L 61.699721 117.726407 
L 58.93137 117.394877 
L 55.946105 116.801531 
L 52.756098 115.883771 
L 49.38579 114.570722 
L 45.874858 112.785376 
L 42.280852 110.448633 
L 38.680967 107.485687 
L 35.172383 103.834884 
L 31.870679 99.458735 
L 28.906167 94.356065 
L 26.418357 88.573603 
L 24.549016 82.214849 
L 23.43415 75.444014 
L 23.194667 68.483209 
L 23.924897 61.601746 
L 25.67836 55.097028 
L 28.451829 49.267387 
L 32.171625 44.37884 
L 36.688639 40.630609 
L 41.788221 38.127279 
L 47.216323 36.86628 
L 52.715868 36.745715 
L 58.06204 37.590383 
L 63.085978 39.187256 
L 67.68245 41.319682 
L 71.803878 43.792588 
L 75.446813 46.446087 
L 78.636787 49.159063 
L 81.415288 51.846149 
L 83.830296 54.451486 
L 85.930248 56.941713 
L 89.362695 61.518613 
L 92.021401 65.546584 
L 95.055486 70.658256 
L 99.459776 78.232202 
L 100.769118 80.120737 
L 102.100324 81.726666 
L 103.497973 83.055592 
L 104.999881 84.104163 
L 106.638284 84.860853 
L 108.439927 85.306713 
L 110.424994 85.416403 
L 112.604801 85.159947 
L 114.978143 84.505765 
L 117.526315 83.425684 
L 120.207144 81.90251 
L 122.948848 79.940413 
L 125.645295 77.577431 
L 128.154917 74.897841 
L 130.305925 72.040287 
L 131.188208 70.602859 
L 131.910154 69.196185 
L 132.449548 67.849775 
L 132.78659 66.593507 
L 132.905037 65.456279 
L 132.793354 64.464557 
L 132.445785 63.640924 
L 131.863223 63.002781 
L 131.053756 62.56132 
L 130.032774 62.320927 
L 128.822543 62.279076 
L 127.451224 62.426776 
L 125.951396 62.749499 
L 124.358221 63.228494 
L 121.033621 64.568352 
L 117.738874 66.269065 
L 114.674051 68.172535 
L 111.962638 70.159431 
L 109.659909 72.150633 
L 107.772634 74.098617 
L 106.279456 75.976486 
L 105.146639 77.768876 
L 104.338244 79.46582 
L 103.821799 81.059111 
L 103.570974 82.540286 
L 103.56649 83.899511 
L 103.796104 85.124856 
L 104.254111 86.201699 
L 104.940617 87.112126 
L 105.860612 87.834268 
L 107.0228 88.341633 
L 108.438036 88.602533 
L 110.117118 88.579815 
L 112.067666 88.231277 
L 114.289755 87.511309 
L 116.770041 86.374538 
L 119.474385 84.782407 
L 122.339427 82.713468 
L 125.26447 80.177545 
L 128.106026 77.23229 
L 130.678325 73.998232 
L 131.796101 72.329762 
L 132.763286 70.665715 
L 133.551186 69.039333 
L 134.132538 67.485938 
L 134.482866 66.041452 
L 134.581944 64.740641 
L 134.415302 63.615208 
L 133.975648 62.691872 
L 133.264053 61.990648 
L 132.290715 61.523518 
L 131.075121 61.293688 
L 129.645457 61.295554 
L 128.037234 61.515431 
L 126.291217 61.932951 
L 124.450881 62.522963 
L 120.65876 64.108643 
L 116.967789 66.053249 
L 113.597447 68.173865 
L 110.668172 70.342972 
L 108.219367 72.484047 
L 106.23808 74.556783 
L 104.684806 76.542126 
L 103.511372 78.431419 
L 102.671301 80.219896 
L 102.124855 81.903291 
L 101.840917 83.476221 
L 101.797245 84.931426 
L 101.979972 86.259297 
L 102.38286 87.447433 
L 103.00648 88.480075 
L 103.857373 89.337395 
L 104.947124 89.994636 
L 106.291182 90.421171 
L 107.907193 90.579626 
L 109.812515 90.425354 
L 112.020484 89.906727 
L 114.53497 88.967043 
L 117.342826 87.549155 
L 120.404184 85.604197 
L 123.641298 83.105653 
L 126.927896 80.068903 
L 128.535238 78.370576 
L 130.082565 76.573938 
L 131.538917 74.702335 
L 132.870853 72.78497 
L 134.043309 70.856605 
L 135.020728 68.956787 
L 135.768455 67.128562 
L 136.254389 65.416677 
L 136.450852 63.865346 
L 136.336599 62.515689 
L 135.898836 61.403082 
L 135.135068 60.554645 
L 134.054486 59.987205 
L 132.678585 59.706007 
L 131.040751 59.704445 
L 129.184647 59.964903 
L 127.161476 60.460654 
L 125.026424 61.158548 
L 122.834794 62.02209 
L 118.482688 64.100932 
L 114.43357 66.438629 
L 110.880844 68.850553 
L 107.896393 71.228632 
L 105.470245 73.521159 
L 104.451003 74.628686 
L 104.451003 74.628686 
" clip-path="url(#p4e84c96f12)" style="fill: none; stroke: #1f77b4; stroke-width: 1.5; stroke-linecap: round"/>
   </g>
   <g id="line2d_25">
    <path d="M 123.107733 104.837922 
L 124.967249 101.854053 
L 129.479974 95.54232 
L 134.710654 88.52711 
L 137.439177 84.705767 
L 140.137814 80.682979 
L 142.711475 76.493756 
L 145.052987 72.201019 
L 147.046233 67.897446 
L 148.571921 63.704247 
L 149.516041 59.765595 
L 149.780497 56.237973 
L 149.29468 53.274688 
L 148.026001 51.0073 
L 145.987063 49.527215 
L 143.237402 48.871537 
L 139.878765 49.016925 
L 136.044457 49.883339 
L 131.88481 51.346921 
L 127.551757 53.258715 
L 123.185386 55.464714 
L 118.904465 57.823018 
L 110.9424 62.553146 
L 101.139073 68.7657 
L 94.004755 73.600701 
L 90.497612 76.229127 
L 87.766488 78.547365 
L 85.627796 80.667056 
L 83.920505 82.662553 
L 81.878473 85.509691 
L 77.863681 91.618169 
L 76.59743 93.193156 
L 75.180551 94.663214 
L 73.567659 96.004514 
L 71.716121 97.185741 
L 69.586316 98.164951 
L 67.143604 98.885606 
L 64.362622 99.272119 
L 62.841636 99.310182 
L 61.234695 99.225663 
L 59.545181 99.0022 
L 57.779179 98.62194 
L 55.946051 98.065807 
L 54.059063 97.313984 
L 52.136001 96.346631 
L 50.199728 95.144923 
L 48.278614 93.692426 
L 46.406715 91.976831 
L 44.623595 89.992007 
L 42.973659 87.740274 
L 41.504876 85.234698 
L 40.266826 82.501132 
L 39.308073 79.57962 
L 38.672994 76.524768 
L 38.398316 73.40472 
L 38.509745 70.298496 
L 39.019161 67.291723 
L 39.922827 64.471077 
L 41.200971 61.918069 
L 42.818878 59.702999 
L 44.72939 57.87996 
L 46.876447 56.483568 
L 49.199168 55.527826 
L 51.635913 55.007077 
L 54.127855 54.898704 
L 56.621736 55.166969 
L 59.071678 55.767326 
L 61.440071 56.650621 
L 63.697685 57.766737 
L 65.823209 59.067454 
L 67.80241 60.508434 
L 69.62711 62.050408 
L 71.294098 63.659693 
L 72.804094 65.308206 
L 74.1608 66.973138 
L 76.439271 70.284089 
L 78.190837 73.493553 
L 79.484946 76.548814 
L 80.388992 79.427091 
L 80.962625 82.123635 
L 81.255017 84.643747 
L 81.30395 86.997667 
L 81.135937 89.197386 
L 80.76685 91.25463 
L 80.202714 93.17951 
L 79.440473 94.979468 
L 78.468652 96.658242 
L 77.267905 98.214624 
L 75.811563 99.640765 
L 74.066362 100.919789 
L 71.993701 102.022438 
L 69.55198 102.902501 
L 66.700849 103.490874 
L 65.111216 103.646092 
L 63.408593 103.68849 
L 61.592349 103.599822 
L 59.664249 103.359189 
L 57.629208 102.943033 
L 55.496176 102.325316 
L 53.279112 101.477975 
L 50.998036 100.37174 
L 48.680061 98.977434 
L 46.360299 97.267857 
L 44.082478 95.220324 
L 41.89904 92.819862 
L 39.870485 90.06295 
L 38.063703 86.961512 
L 36.549102 83.546682 
L 35.39649 79.871645 
L 34.669879 76.01274 
L 34.421678 72.068048 
L 34.687007 68.152949 
L 35.479082 64.392664 
L 36.786545 60.912463 
L 38.573416 57.826878 
L 40.781812 55.229664 
L 43.337043 53.186204 
L 46.154211 51.72956 
L 49.145215 50.860572 
L 52.225125 50.551561 
L 55.317149 50.752554 
L 58.355878 51.398694 
L 61.288792 52.417583 
L 64.076352 53.735621 
L 66.691057 55.282844 
L 69.115904 56.996139 
L 71.342587 58.820976 
L 73.369689 60.711957 
L 75.201017 62.632534 
L 76.844162 64.554206 
L 79.608271 68.320543 
L 81.75878 71.902157 
L 83.39872 75.25104 
L 84.625353 78.355073 
L 85.524286 81.221504 
L 86.167339 83.866924 
L 86.775612 87.465025 
L 87.080182 90.680057 
L 87.169367 94.476363 
L 86.999277 97.820466 
L 86.605983 100.805199 
L 86.151902 102.852302 
L 85.529823 104.764041 
L 84.692063 106.562439 
L 83.569606 108.265524 
L 82.617042 109.354031 
L 81.459282 110.406086 
L 80.051554 111.418247 
L 78.33974 112.380559 
L 76.259298 113.272623 
L 73.734851 114.057519 
L 70.681356 114.672671 
L 67.008514 115.016528 
L 64.912586 115.039929 
L 62.631327 114.930274 
L 60.15842 114.655027 
L 57.491428 114.175179 
L 54.63353 113.444715 
L 51.595673 112.410452 
L 48.399165 111.012537 
L 45.078632 109.185956 
L 41.685142 106.863529 
L 38.289123 103.980878 
L 34.982463 100.483773 
L 31.878918 96.338005 
L 29.111778 91.541322 
L 26.827712 86.136105 
L 25.176154 80.220329 
L 24.294435 73.953409 
L 24.290286 67.553256 
L 25.224781 61.282024 
L 27.099778 55.420627 
L 29.853554 50.235785 
L 33.366555 45.946508 
L 37.476341 42.697907 
L 41.998142 40.548348 
L 46.746182 39.471861 
L 51.551411 39.373288 
L 56.273081 40.110784 
L 60.80376 41.519701 
L 65.068952 43.433229 
L 69.023226 45.697325 
L 72.644706 48.17948 
L 75.929312 50.772238 
L 78.885578 53.392916 
L 81.530418 55.981045 
L 83.88588 58.494737 
L 87.829042 63.201321 
L 90.920604 67.411477 
L 93.356495 71.118702 
L 96.15362 75.814584 
L 99.636524 81.69877 
L 100.907818 83.472045 
L 102.220515 84.94272 
L 103.631658 86.115904 
L 105.189317 86.986434 
L 106.933988 87.539027 
L 108.898756 87.748614 
L 111.107929 87.58117 
L 113.573844 86.995609 
L 116.291533 85.947578 
L 119.231138 84.396282 
L 122.328422 82.315548 
L 125.474747 79.709918 
L 127.01821 78.225074 
L 128.509452 76.635086 
L 129.9202 74.958382 
L 131.219593 73.218881 
L 132.375026 71.446056 
L 133.35332 69.67457 
L 134.122208 67.943409 
L 134.652083 66.294452 
L 134.917887 64.770504 
L 134.900981 63.412891 
L 134.590803 62.258826 
L 133.986091 61.338821 
L 133.095496 60.674471 
L 131.937455 60.276923 
L 130.539306 60.146263 
L 128.935707 60.271911 
L 127.166556 60.633971 
L 125.274635 61.205322 
L 123.303246 61.954147 
L 119.285472 63.848886 
L 115.399679 66.061583 
L 111.851097 68.388599 
L 108.760172 70.696902 
L 106.176819 72.91606 
L 104.10122 75.018933 
L 102.503681 77.00216 
L 101.340211 78.871625 
L 100.563331 80.633716 
L 100.128831 82.291091 
L 99.999556 83.841244 
L 100.147184 85.276454 
L 100.552748 86.584172 
L 101.206402 87.747326 
L 102.106733 88.744302 
L 103.259767 89.548539 
L 104.677639 90.127796 
L 106.376807 90.443209 
L 108.375511 90.448412 
L 110.690071 90.089137 
L 113.329463 89.303995 
L 116.287568 88.027572 
L 119.532617 86.197374 
L 122.993883 83.766572 
L 124.769204 82.320387 
L 126.546975 80.724131 
L 128.30119 78.986529 
L 130.001341 77.1222 
L 131.612663 75.152524 
L 133.096748 73.106267 
L 134.412602 71.019783 
L 135.518197 68.936617 
L 136.372494 66.906366 
L 136.937873 64.982683 
L 137.182787 63.22046 
L 137.084403 61.672347 
L 136.630893 60.384917 
L 135.823076 59.394962 
L 134.675093 58.72643 
L 133.21397 58.388495 
L 131.478045 58.3751 
L 129.514441 58.666062 
L 127.375903 59.229545 
L 125.1174 60.025494 
L 122.792898 61.009487 
L 118.141152 63.363754 
L 113.747139 65.974157 
L 109.822527 68.613603 
L 106.471843 71.154075 
L 103.718753 73.544238 
L 101.535489 75.77884 
L 99.867326 77.873216 
L 98.649881 79.846968 
L 97.819976 81.715738 
L 97.321726 83.488323 
L 97.109458 85.166637 
L 97.148679 86.746774 
L 97.415975 88.220183 
L 97.898375 89.574497 
L 98.592519 90.793829 
L 99.503796 91.858529 
L 100.645501 92.744437 
L 102.037928 93.421678 
L 103.707251 93.853105 
L 105.683878 93.992506 
L 107.999811 93.782857 
L 110.68437 93.155146 
L 113.75735 92.02876 
L 117.218599 90.315114 
L 119.085737 89.210359 
L 121.033037 87.927103 
L 123.047421 86.457737 
L 125.110976 84.797741 
L 127.200254 82.946964 
L 129.285686 80.911104 
L 131.331207 78.70329 
L 133.294236 76.345643 
L 135.126159 73.870613 
L 136.773458 71.321823 
L 138.179612 68.754102 
L 139.287832 66.232389 
L 140.044543 63.829239 
L 140.403422 61.620866 
L 140.329601 59.681858 
L 139.803492 58.079076 
L 138.823653 56.865503 
L 137.408119 56.075029 
L 135.593877 55.719116 
L 133.434397 55.786016 
L 130.995558 56.242739 
L 128.350543 57.039393 
L 125.574458 58.115092 
L 122.739413 59.404358 
L 117.143652 62.372853 
L 111.963466 65.519449 
L 107.429363 68.573992 
L 103.628119 71.413316 
L 100.548572 74.014148 
L 98.124529 76.403781 
L 96.266163 78.625116 
L 94.87973 80.717753 
L 93.87845 82.710694 
L 93.187613 84.621572 
L 92.746218 86.458719 
L 92.50672 88.223914 
L 92.451905 90.731014 
L 92.699641 93.053746 
L 93.219273 95.16992 
L 93.718255 96.453096 
L 94.349695 97.623365 
L 95.129362 98.669104 
L 96.079136 99.575464 
L 97.227244 100.322992 
L 98.608587 100.885847 
L 100.264987 101.229525 
L 102.245099 101.308017 
L 104.603512 101.060401 
L 107.39831 100.407083 
L 110.685904 99.24635 
L 114.511347 97.45284 
L 116.632846 96.273831 
L 118.891779 94.881056 
L 121.281653 93.25547 
L 123.790363 91.379492 
L 126.398777 89.238618 
L 129.079243 86.823562 
L 131.79411 84.132921 
L 134.49447 81.176316 
L 137.119375 77.977832 
L 139.595868 74.579397 
L 141.840231 71.043538 
L 143.760831 67.454738 
L 145.262846 63.918507 
L 146.254896 60.557304 
L 146.657228 57.502804 
L 146.41058 54.884707 
L 145.484399 52.817192 
L 143.882799 51.385188 
L 141.646782 50.633176 
L 138.851861 50.559201 
L 135.601192 51.115699 
L 132.015392 52.217109 
L 128.220959 53.752497 
L 124.339369 55.600309 
L 120.478499 57.642225 
L 113.153355 61.910854 
L 106.707374 65.976116 
L 101.314539 69.582347 
L 96.956518 72.701811 
L 93.514371 75.416755 
L 90.83127 77.837085 
L 88.747747 80.059141 
L 87.118426 82.152342 
L 85.818122 84.159965 
L 84.261248 87.057603 
L 80.698609 94.186189 
L 79.655552 95.80673 
L 78.465142 97.345876 
L 77.086042 98.790786 
L 75.475376 100.123433 
L 73.588086 101.317671 
L 71.377311 102.335242 
L 68.79635 103.120498 
L 65.803074 103.593838 
L 64.141807 103.680274 
L 62.368079 103.644233 
L 60.482418 103.465787 
L 58.488208 103.122359 
L 56.392519 102.588821 
L 54.207035 101.837814 
L 51.949083 100.840411 
L 49.642674 99.567195 
L 47.319473 97.989897 
L 45.019556 96.083654 
L 42.791743 93.829934 
L 40.693278 91.220074 
L 38.788602 88.259204 
L 37.146994 84.97017 
L 35.83896 81.396837 
L 34.931444 77.605994 
L 34.482213 73.687053 
L 34.534026 69.748886 
L 35.109472 65.913566 
L 36.207419 62.307427 
L 37.801843 59.050506 
L 39.84342 56.246008 
L 42.263723 53.971545 
L 44.981318 52.273599 
L 47.908721 51.165978 
L 50.959127 50.632128 
L 54.052016 50.630463 
L 57.117106 51.101441 
L 60.096557 51.975047 
L 62.945596 53.177616 
L 65.631951 54.637317 
L 68.134515 56.288019 
L 70.441617 58.071605 
L 72.549204 59.938966 
L 74.459099 61.850022 
L 76.177472 63.773099 
L 77.713546 65.683948 
L 80.28486 69.402286 
L 82.273213 72.917193 
L 83.78071 76.193341 
L 84.901466 79.225621 
L 85.71703 82.024783 
L 86.512301 85.826684 
L 86.942431 89.214018 
L 87.122863 92.252476 
L 87.093037 95.857776 
L 86.82336 99.051184 
L 86.322725 101.916793 
L 85.769023 103.891605 
L 85.019464 105.743486 
L 84.013971 107.492295 
L 83.160838 108.608392 
L 82.124402 109.687438 
L 80.86476 110.728496 
L 79.333409 111.725664 
L 77.472038 112.665034 
L 75.211673 113.519958 
L 72.472824 114.243803 
L 69.167797 114.759192 
L 67.274809 114.902465 
L 65.207318 114.942689 
L 62.956274 114.853905 
L 60.515014 114.604529 
L 57.880546 114.156637 
L 55.055209 113.4654 
L 52.048762 112.478871 
L 48.880896 111.138373 
L 45.584127 109.379842 
L 42.206892 107.136581 
L 38.816494 104.343892 
L 35.501336 100.946036 
L 32.371614 96.905683 
L 29.557431 92.215522 
L 27.203271 86.910841 
L 25.458101 81.080805 
L 24.461161 74.875175 
L 24.324833 68.502822 
L 25.117439 62.219258 
L 26.8499 56.302842 
L 29.470044 51.022839 
L 32.866829 46.605783 
L 36.883964 43.208005 
L 41.339748 40.900705 
L 46.048402 39.670119 
L 50.838399 39.430917 
L 55.564958 40.047773 
L 60.115981 41.359173 
L 64.412398 43.198584 
L 68.404757 45.410208 
L 72.067913 47.858609 
L 75.395296 50.432933 
L 78.393645 53.047138 
L 81.078651 55.637735 
L 83.471578 58.160295 
L 87.47997 62.896153 
L 90.623072 67.142537 
L 93.097379 70.887281 
L 95.930518 75.637 
L 99.428467 81.602471 
L 100.693868 83.406825 
L 101.995399 84.908928 
L 103.390919 86.114748 
L 104.929264 87.019992 
L 106.651757 87.610224 
L 108.592519 87.861125 
L 110.777279 87.739202 
L 113.220388 87.203475 
L 115.919706 86.208958 
L 118.8492 84.713042 
L 121.9495 82.686031 
L 125.117629 80.126767 
L 126.680856 78.659925 
L 128.198632 77.082941 
L 129.643168 75.412993 
L 130.983872 73.672767 
L 132.188117 71.890608 
L 133.222342 70.100282 
L 134.05348 68.340235 
L 134.650676 66.65229 
L 134.987187 65.079779 
L 135.042307 63.665193 
L 134.803135 62.447533 
L 134.265943 61.459629 
L 133.436981 60.725754 
L 132.332536 60.259866 
L 130.978219 60.064733 
L 129.407515 60.132092 
L 127.659765 60.443801 
L 125.777813 60.973825 
L 123.805572 61.690731 
L 119.758157 63.548384 
L 115.815223 65.753084 
L 112.194037 68.091014 
L 109.02509 70.41985 
L 106.365256 72.662681 
L 104.218709 74.788873 
L 102.557433 76.793826 
L 101.337558 78.683543 
L 100.510789 80.465161 
L 100.031621 82.142286 
L 99.861411 83.71334 
L 99.970341 85.171452 
L 100.338036 86.504859 
L 100.953392 87.697266 
L 101.813934 88.727888 
L 102.924857 89.571099 
L 104.297781 90.195721 
L 105.949075 90.564073 
L 107.897501 90.63101 
L 110.160778 90.34334 
L 112.750526 89.640256 
L 115.66496 88.455832 
L 118.878788 86.725086 
L 122.330199 84.395518 
L 124.112023 82.997661 
L 125.905944 81.44598 
L 127.687499 79.747107 
L 129.42763 77.913268 
L 131.092799 75.963233 
L 132.645446 73.923081 
L 134.044877 71.826608 
L 135.248636 69.715189 
L 136.214386 67.636943 
L 136.90224 65.645043 
L 137.277407 63.795165 
L 137.312932 62.142155 
L 136.992223 60.736201 
L 136.311023 59.618924 
L 135.278513 58.819922 
L 133.91731 58.354298 
L 132.262288 58.221598 
L 130.358329 58.406345 
L 128.257286 58.880091 
L 126.014544 59.604637 
L 123.685615 60.53589 
L 121.323135 61.627776 
L 116.680494 64.119256 
L 112.38112 66.781665 
L 108.601802 69.418369 
L 105.41784 71.928708 
L 102.832374 74.280055 
L 100.805323 76.477196 
L 99.275943 78.539227 
L 98.178067 80.485917 
L 97.449304 82.331482 
L 97.035947 84.082907 
L 96.895125 85.740478 
L 96.995316 87.29903 
L 97.315994 88.749095 
L 97.846881 90.077615 
L 98.587082 91.268098 
L 99.54424 92.300239 
L 100.733706 93.149043 
L 102.177658 93.78351 
L 103.903956 94.164978 
L 105.944407 94.24525 
L 108.331942 93.964824 
L 111.095991 93.251797 
L 114.255088 92.022551 
L 117.805627 90.186067 
L 119.716663 89.012098 
L 121.705823 87.654667 
L 123.758493 86.106729 
L 125.8549 84.364748 
L 127.969409 82.430082 
L 130.069968 80.31055 
L 132.117815 78.022073 
L 134.067586 75.590248 
L 135.86799 73.05161 
L 137.463205 70.45429 
L 138.795096 67.857732 
L 139.806274 65.331138 
L 140.443909 62.950423 
L 140.663995 60.793656 
L 140.43562 58.935255 
L 139.744664 57.439565 
L 138.596286 56.354698 
L 137.015684 55.707695 
L 135.046854 55.501916 
L 132.749424 55.71722 
L 130.193991 56.312928 
L 127.456658 57.233013 
L 124.613575 58.412522 
L 121.736185 59.784129 
L 116.120648 62.855153 
L 110.985477 66.037674 
L 106.533881 69.087167 
L 102.83024 71.902868 
L 99.848107 74.476113 
L 97.512347 76.84151 
L 95.728767 79.044352 
L 94.402164 81.124037 
L 93.445945 83.10838 
L 92.786389 85.013742 
L 92.363751 86.847485 
L 92.131694 88.61084 
L 92.068905 91.117873 
L 92.287342 93.444628 
L 92.756529 95.571048 
L 93.480581 97.473933 
L 94.12065 98.604348 
L 94.906025 99.611502 
L 95.859965 100.480864 
L 97.011992 101.19315 
L 98.398332 101.722517 
L 100.062282 102.034221 
L 102.054234 102.081678 
L 104.430891 101.8029 
L 107.252922 101.116495 
L 110.579819 99.917899 
L 114.460095 98.077446 
L 116.615925 96.869729 
L 118.914305 95.443538 
L 121.349003 93.77878 
L 123.908007 91.856751 
L 126.572028 89.661818 
L 129.312909 87.18366 
L 132.092038 84.420074 
L 134.858978 81.380317 
L 137.55058 78.088789 
L 140.090963 74.588676 
L 142.392778 70.944959 
L 144.36018 67.245944 
L 145.89383 63.602337 
L 146.897967 60.142915 
L 147.289156 57.006238 
L 147.005786 54.328575 
L 146.016844 52.229316 
L 144.328214 50.796204 
L 141.984879 50.073445 
L 139.068132 50.055572 
L 135.687942 50.688791 
L 131.971856 51.879645 
L 128.052544 53.508955 
L 124.05627 55.447786 
L 120.094026 57.572142 
L 112.610531 61.967535 
L 106.061226 66.105742 
L 100.60688 69.742096 
L 96.214256 72.864602 
L 92.751976 75.568558 
L 90.054135 77.972262 
L 87.955025 80.17648 
L 86.305047 82.25244 
L 84.976093 84.243729 
L 83.356644 87.117425 
L 80.514218 92.494597 
L 78.906126 94.960226 
L 77.658704 96.498203 
L 76.220932 97.934024 
L 74.549478 99.246454 
L 72.600029 100.405502 
L 70.328015 101.368346 
L 67.691112 102.074122 
L 66.224417 102.305139 
L 64.654425 102.437711 
L 62.979421 102.456335 
L 61.199571 102.343243 
L 59.317515 102.078335 
L 57.339076 101.639239 
L 55.274058 101.001566 
L 53.137131 100.139421 
L 50.948739 99.026273 
L 48.735975 97.636261 
L 46.533293 95.946026 
L 44.38291 93.937107 
L 42.334712 91.598863 
L 40.445436 88.931809 
L 38.77695 85.951056 
L 37.393483 82.689413 
L 36.3578 79.199552 
L 35.726541 75.554535 
L 35.545132 71.846108 
L 35.842949 68.180404 
L 36.629489 64.671141 
L 37.892306 61.43098 
L 39.59719 58.56221 
L 41.690696 56.148202 
L 44.104645 54.247023 
L 46.761874 52.888164 
L 49.58231 52.072691 
L 52.488514 51.77642 
L 55.410057 51.955252 
L 58.286431 52.551537 
L 61.068497 53.50044 
L 63.718687 54.73551 
L 66.210296 56.193011 
L 68.526211 57.814879 
L 70.657377 59.550403 
L 72.60121 61.35687 
L 74.360121 63.199442 
L 75.940202 65.050553 
L 78.600248 68.699114 
L 80.666796 72.192476 
L 82.233058 75.47856 
L 83.388077 78.540622 
L 84.210607 81.381754 
L 84.76662 84.015184 
L 85.10894 86.458562 
L 85.307202 89.808418 
L 85.204558 92.833581 
L 84.847002 95.587095 
L 84.243669 98.11294 
L 83.372226 100.445912 
L 82.617936 101.906882 
L 81.699237 103.298024 
L 80.586826 104.620737 
L 79.244321 105.872016 
L 77.627638 107.042408 
L 75.684567 108.112857 
L 73.354976 109.049947 
L 70.572347 109.798972 
L 67.267926 110.274223 
L 65.399958 110.370834 
L 63.379473 110.346216 
L 61.202394 110.174871 
L 58.867714 109.82671 
L 56.378711 109.266774 
L 53.744441 108.455213 
L 50.981489 107.347705 
L 48.115937 105.896524 
L 45.185429 104.052525 
L 42.241105 101.768322 
L 39.34907 99.002889 
L 36.590897 95.727688 
L 34.062583 91.934134 
L 31.871323 87.641746 
L 30.129625 82.905813 
L 28.946688 77.822779 
L 28.417582 72.531289 
L 28.611619 67.207025 
L 29.561961 62.050492 
L 31.258834 57.268602 
L 33.64822 53.052846 
L 36.636753 49.558264 
L 40.101997 46.887613 
L 43.905916 45.083854 
L 47.908776 44.131822 
L 51.980997 43.967637 
L 56.011391 44.492829 
L 59.911408 45.589789 
L 63.615875 47.13572 
L 67.081235 49.01343 
L 70.282374 51.118378 
L 73.208931 53.362283 
L 75.861698 55.674039 
L 78.249468 57.9988 
L 80.386445 60.296021 
L 82.290233 62.537074 
L 85.476965 66.781476 
L 87.970528 70.655676 
L 89.924839 74.14826 
L 92.139988 78.716714 
L 96.217341 87.66837 
L 97.206253 89.292923 
L 98.287762 90.692359 
L 99.505218 91.86356 
L 100.900327 92.794869 
L 102.514447 93.465123 
L 104.389067 93.842438 
L 106.565158 93.882835 
L 109.080924 93.529078 
L 111.967248 92.710392 
L 115.2399 91.344345 
L 118.887494 89.342978 
L 120.836828 88.078146 
L 122.854498 86.626218 
L 124.923155 84.982383 
L 127.019922 83.146065 
L 129.115794 81.122404 
L 131.17523 78.923848 
L 133.156095 76.571741 
L 135.010088 74.097713 
L 136.683809 71.544593 
L 138.120603 68.966545 
L 139.263232 66.428084 
L 140.057328 64.001704 
L 140.455429 61.764023 
L 140.421224 59.790556 
L 139.933477 58.1496 
L 138.989032 56.895988 
L 137.604316 56.065698 
L 135.814979 55.672281 
L 133.673568 55.705836 
L 131.245533 56.134762 
L 128.604131 56.909971 
L 125.824988 57.970767 
L 122.981075 59.251312 
L 120.13865 60.686662 
L 114.674527 63.793684 
L 109.755612 66.932359 
L 105.541462 69.903882 
L 102.067523 72.637905 
L 99.291885 75.140499 
L 97.133564 77.450123 
L 95.498384 79.610231 
L 94.294267 81.656342 
L 93.439106 83.612342 
L 92.86402 85.491423 
L 92.513938 87.298688 
L 92.346807 89.033874 
L 92.375397 91.493415 
L 92.688018 93.764341 
L 93.264437 95.8241 
L 93.800965 97.066911 
L 94.472258 98.194247 
L 95.296149 99.193867 
L 96.296571 100.049944 
L 97.503869 100.741573 
L 98.955159 101.240857 
L 100.694551 101.510467 
L 102.772938 101.500614 
L 105.246809 101.145458 
L 108.175252 100.35927 
L 111.61379 99.033183 
L 115.603086 97.034481 
L 117.808443 95.736058 
L 120.149961 94.212188 
L 122.618406 92.44411 
L 125.19814 90.415302 
L 127.865628 88.113397 
L 130.587907 85.532635 
L 133.321156 82.676838 
L 136.009627 79.562815 
L 138.585219 76.223891 
L 140.96809 72.713126 
L 143.068732 69.105499 
L 144.791838 65.498198 
L 146.042157 62.008095 
L 146.732171 58.765642 
L 146.790946 55.905032 
L 146.17303 53.551272 
L 144.865809 51.805915 
L 142.893703 50.734049 
L 140.317947 50.355442 
L 137.231591 50.642094 
L 133.750426 51.522993 
L 130.00154 52.89504 
L 126.111627 54.637561 
L 122.197023 56.627236 
L 114.668754 60.91276 
L 107.955963 65.085478 
L 102.289685 68.820884 
L 97.68356 72.053154 
L 94.031742 74.851715 
L 91.179393 77.327802 
L 88.963598 79.584507 
L 87.233435 81.698576 
L 85.857803 83.719207 
L 84.224039 86.630071 
L 80.576625 93.791283 
L 79.526719 95.42025 
L 78.33272 96.967233 
L 76.952875 98.418942 
L 75.344276 99.756936 
L 73.462188 100.954742 
L 71.260427 101.973917 
L 68.693319 102.758892 
L 65.720097 103.230567 
L 64.071684 103.315997 
L 62.31298 103.279136 
L 60.444722 103.100385 
L 58.470485 102.757591 
L 56.397482 102.226165 
L 54.23747 101.47941 
L 52.007742 100.489184 
L 49.732123 99.226982 
L 47.441896 97.665531 
L 45.176506 95.781009 
L 42.98385 93.555875 
L 40.919938 90.982293 
L 39.047667 88.065895 
L 37.434512 84.829536 
L 36.149025 81.316418 
L 35.256215 77.591879 
L 34.81214 73.743045 
L 34.858319 69.875763 
L 35.416784 66.108581 
L 36.486658 62.564178 
L 38.043014 59.359256 
L 40.038361 56.594431 
L 42.406621 54.34579 
L 45.068936 52.659505 
L 47.940336 51.550222 
L 50.936221 51.00315 
L 53.977806 50.979062 
L 56.996017 51.421022 
L 59.933702 52.261558 
L 62.746331 53.429264 
L 65.401527 54.854151 
L 67.877837 56.471479 
L 70.163091 58.224078 
L 72.252658 60.063411 
L 74.147761 61.949667 
L 75.853983 63.851216 
L 77.379994 65.743697 
L 79.935478 69.433906 
L 81.910955 72.930356 
L 83.405848 76.19559 
L 84.512195 79.222703 
L 85.309894 82.021072 
L 85.865174 84.607764 
L 86.3558 88.134496 
L 86.545843 91.296209 
L 86.514833 94.152448 
L 86.304423 96.753554 
L 85.927069 99.141215 
L 85.371419 101.349856 
L 84.604489 103.407844 
L 83.570925 105.337757 
L 82.694918 106.561158 
L 81.63349 107.736513 
L 80.347969 108.862207 
L 78.791476 109.931203 
L 76.907973 110.92799 
L 74.631757 111.82387 
L 71.888051 112.56987 
L 68.595902 113.086411 
L 66.718824 113.22195 
L 64.675448 113.24895 
L 62.458407 113.141797 
L 60.062924 112.869641 
L 57.488064 112.395833 
L 54.73832 111.677545 
L 51.825574 110.665775 
L 48.771401 109.305955 
L 45.609656 107.539504 
L 42.389144 105.306696 
L 39.176039 102.551233 
L 36.05551 99.226846 
L 33.131811 95.305955 
L 30.525978 90.78995 
L 28.370266 85.719923 
L 26.798844 80.185775 
L 25.934996 74.33092 
L 25.876155 68.349644 
L 26.679314 62.475061 
L 28.350062 56.957762 
L 30.838324 52.038055 
L 34.04246 47.917295 
L 37.821206 44.734711 
L 42.010754 42.554862 
L 46.443098 41.367731 
L 50.961962 41.099946 
L 55.433914 41.633026 
L 59.753974 42.823774 
L 63.846424 44.522747 
L 67.662263 46.588343 
L 71.17485 48.895756 
L 74.375004 51.341271 
L 77.266362 53.843 
L 79.861441 56.339303 
L 82.178499 58.785975 
L 86.066801 63.421441 
L 89.117736 67.625552 
L 91.514738 71.373152 
L 94.239959 76.189332 
L 98.116203 83.385106 
L 99.284767 85.173644 
L 100.506533 86.685697 
L 101.83525 87.924425 
L 103.318178 88.883264 
L 104.997636 89.54558 
L 106.911452 89.884308 
L 109.09204 89.861816 
L 111.563699 89.430449 
L 114.337642 88.534572 
L 117.404276 87.11532 
L 120.722479 85.119736 
L 124.206384 82.516128 
L 125.968004 80.98766 
L 127.711782 79.31672 
L 129.409016 77.516401 
L 131.026763 75.606158 
L 132.528352 73.612478 
L 133.874308 71.569186 
L 135.02374 69.517212 
L 135.936193 67.503678 
L 136.573915 65.58018 
L 136.904382 63.800267 
L 136.902887 62.216227 
L 136.554864 60.875442 
L 135.857674 59.816748 
L 134.82153 59.067265 
L 133.469378 58.640201 
L 131.835681 58.533995 
L 129.964219 58.732954 
L 127.905179 59.209278 
L 125.711898 59.926145 
L 123.43767 60.841341 
L 118.843138 63.092448 
L 114.45704 65.642937 
L 110.505219 68.25537 
L 107.106492 70.789265 
L 104.296148 73.182954 
L 102.054598 75.424388 
L 100.332205 77.525282 
L 99.067321 79.503792 
L 98.197906 81.375318 
L 97.668212 83.148929 
L 97.432139 84.826911 
L 97.454491 86.405628 
L 97.711053 87.876632 
L 98.188046 89.227478 
L 98.881347 90.442058 
L 99.795618 91.500382 
L 100.943428 92.377874 
L 102.344293 93.044207 
L 104.023461 93.461801 
L 106.010151 93.584112 
L 108.33476 93.354025 
L 111.024399 92.702894 
L 114.095864 91.551268 
L 117.545054 89.81299 
L 119.400708 88.697393 
L 121.331989 87.405227 
L 123.325114 85.929794 
L 125.361479 84.267649 
L 127.417017 82.419869 
L 129.461667 80.393486 
L 131.459091 78.203009 
L 133.366749 75.871869 
L 135.136477 73.433621 
L 136.715722 70.932601 
L 138.049508 68.423766 
L 139.083194 65.971404 
L 139.765918 63.646503 
L 140.054503 61.522737 
L 139.917438 59.671279 
L 139.338407 58.154931 
L 138.318817 57.022374 
L 136.878816 56.303435 
L 135.056506 56.006244 
L 132.905375 56.116857 
L 130.490241 56.601437 
L 127.882331 57.410605 
L 125.154176 58.485136 
L 122.375006 59.762019 
L 116.903573 62.683573 
L 111.848991 65.771298 
L 107.429594 68.769956 
L 103.726854 71.563264 
L 100.729109 74.128926 
L 98.372323 76.49217 
L 96.569947 78.692908 
L 95.231753 80.76795 
L 94.274306 82.744111 
L 93.625918 84.637439 
L 93.228286 86.455131 
L 93.036307 88.198088 
L 93.017012 89.863182 
L 93.265879 92.202274 
L 93.601393 93.645318 
L 94.070581 94.985286 
L 94.679747 96.212056 
L 95.441834 97.313441 
L 96.376266 98.274215 
L 97.508993 99.074791 
L 98.872635 99.689519 
L 100.506568 100.084512 
L 102.456673 100.214967 
L 104.774321 100.021995 
L 107.513866 99.429189 
L 110.727549 98.339602 
L 114.456171 96.63463 
L 116.519514 95.50914 
L 118.713399 94.177766 
L 121.031295 92.622863 
L 123.461381 90.828251 
L 125.985249 88.780721 
L 128.576542 86.471993 
L 131.199621 83.901158 
L 133.808436 81.077526 
L 136.34583 78.023733 
L 138.743594 74.778783 
L 140.923593 71.400524 
L 142.80034 67.966895 
L 144.285227 64.575148 
L 145.292475 61.338302 
L 145.746482 58.378377 
L 145.589844 55.816523 
L 144.790895 53.760969 
L 143.349365 52.2946 
L 141.298843 51.464517 
L 138.705188 51.275939 
L 135.660884 51.692014 
L 132.276231 52.639715 
L 128.668984 54.020521 
L 124.954247 55.723467 
L 121.236204 57.637895 
L 114.121887 61.718213 
L 107.798936 65.682217 
L 102.46611 69.252237 
L 98.130283 72.374017 
L 94.692447 75.109275 
L 92.009695 77.555461 
L 89.931685 79.802819 
L 88.318897 81.918634 
L 87.04999 83.946137 
L 85.573915 86.870567 
L 81.624765 95.747332 
L 80.659095 97.338102 
L 79.544579 98.854321 
L 78.242274 100.286729 
L 76.71025 101.621502 
L 74.902784 102.837471 
L 72.770358 103.902264 
L 70.260952 104.767031 
L 67.323481 105.359524 
L 65.680114 105.522617 
L 63.914705 105.575569 
L 62.025072 105.498844 
L 60.011447 105.269824 
L 57.877305 104.862703 
L 55.630352 104.248562 
L 53.283653 103.395737 
L 50.856885 102.270575 
L 48.37761 100.838757 
L 45.882476 99.067284 
L 43.418127 96.927294 
L 41.041584 94.397712 
L 38.819768 91.469681 
L 36.82785 88.151458 
L 35.146121 84.473219 
L 33.855287 80.490941 
L 33.030314 76.288284 
L 32.733379 71.975444 
L 33.006819 67.684197 
L 33.867297 63.559044 
L 35.302372 59.745264 
L 37.27035 56.375577 
L 39.703665 53.557713 
L 42.51524 51.365105 
L 45.606696 49.832301 
L 48.876934 48.955522 
L 52.229757 48.697718 
L 55.579617 48.996625 
L 58.855107 49.774038 
L 62.000328 50.944717 
L 64.974563 52.423814 
L 67.75082 54.132294 
L 70.313762 56.000292 
L 72.657461 57.968696 
L 74.78323 59.989374 
L 76.697714 62.024493 
L 78.411279 64.045328 
L 81.288249 67.96628 
L 83.529153 71.651518 
L 85.251718 75.062894 
L 86.56485 78.197151 
L 87.563509 81.068476 
L 88.642048 84.930167 
L 89.605314 89.367866 
L 91.028301 96.351868 
L 91.639222 98.442476 
L 92.392675 100.273564 
L 93.007261 101.349747 
L 93.738309 102.305266 
L 94.612739 103.131314 
L 95.662271 103.814012 
L 96.924481 104.332964 
L 98.443796 104.65924 
L 100.272257 104.752651 
L 102.469735 104.558199 
L 105.103009 104.00168 
L 108.242678 102.984747 
L 111.956236 101.380418 
L 114.045374 100.309934 
L 116.294754 99.031417 
L 118.704404 97.521437 
L 121.269709 95.756224 
L 123.979901 93.712924 
L 126.816303 91.371431 
L 129.750401 88.716882 
L 132.741852 85.742905 
L 135.736659 82.455591 
L 138.665829 78.878015 
L 141.444982 75.054907 
L 143.975441 71.056733 
L 146.147396 66.982162 
L 147.845606 62.957601 
L 148.957786 59.132501 
L 149.385283 55.669531 
L 149.054894 52.729711 
L 147.929932 50.454039 
L 146.0182 48.944703 
L 143.374691 48.250022 
L 140.09779 48.357006 
L 136.319272 49.193856 
L 132.190012 50.641961 
L 127.864346 52.554389 
L 123.486102 54.776329 
L 119.178444 57.163078 
L 111.135614 61.972209 
L 101.192292 68.307673 
L 93.937086 73.229515 
L 90.366787 75.893064 
L 87.585631 78.232544 
L 85.407836 80.363908 
L 83.669927 82.364972 
L 81.592948 85.213915 
L 77.518982 91.309898 
L 76.237033 92.876492 
L 74.804295 94.334782 
L 73.175635 95.659907 
L 71.309151 96.819347 
L 69.166563 97.769829 
L 66.715344 98.453483 
L 63.933217 98.793635 
L 62.415695 98.804844 
L 60.815743 98.691085 
L 59.137462 98.436189 
L 57.387717 98.02266 
L 55.576695 97.431992 
L 53.718492 96.645189 
L 51.831682 95.643543 
L 49.93981 94.409701 
L 48.071729 92.929066 
L 46.261676 91.191521 
L 44.548982 89.193425 
L 42.977285 86.939769 
L 41.593155 84.446286 
L 40.444091 81.741232 
L 39.575896 78.866481 
L 39.029611 75.877562 
L 38.838246 72.84234 
L 39.023699 69.838152 
L 39.594302 66.947506 
L 40.543385 64.252687 
L 41.849171 61.82991 
L 43.476064 59.743791 
L 45.377198 58.042931 
L 47.497883 56.757197 
L 49.779459 55.896987 
L 52.163069 55.45441 
L 54.592912 55.406003 
L 57.018719 55.716417 
L 59.397349 56.342464 
L 61.693535 57.237003 
L 63.879935 58.352278 
L 65.936659 59.642515 
L 67.850465 61.065708 
L 69.613787 62.584683 
L 71.223726 64.167545 
L 72.681062 65.787671 
L 75.154303 69.057502 
L 77.082796 72.270812 
L 78.530299 75.356854 
L 79.562665 78.280473 
L 80.240492 81.028851 
L 80.615231 83.602218 
L 80.72752 86.007728 
L 80.60684 88.25554 
L 80.271884 90.356305 
L 79.73124 92.319478 
L 78.984146 94.152042 
L 78.021193 95.857323 
L 76.82498 97.433644 
L 75.37079 98.872576 
L 73.627485 100.156531 
L 71.558963 101.255454 
L 69.126723 102.122389 
L 66.294357 102.687828 
L 64.719099 102.827996 
L 63.035127 102.853185 
L 61.2426 102.745498 
L 59.344125 102.484573 
L 57.345485 102.047641 
L 55.256479 101.409758 
L 53.091839 100.544318 
L 50.872192 99.423921 
L 48.624984 98.021704 
L 46.385251 96.313213 
L 44.196073 94.278872 
L 42.108521 91.90702 
L 40.18086 89.19739 
L 38.476801 86.164733 
L 37.062652 82.842108 
L 36.00336 79.283216 
L 35.35764 75.563028 
L 35.172656 71.77607 
L 35.478929 68.031966 
L 36.286318 64.448331 
L 37.581846 61.1417 
L 39.329903 58.217744 
L 41.474931 55.762307 
L 43.946175 53.834744 
L 46.663742 52.464573 
L 49.544964 51.651737 
L 52.51017 51.370054 
L 55.487202 51.572894 
L 58.414369 52.199897 
L 61.241869 53.18363 
L 63.93191 54.45536 
L 66.457904 55.949501 
L 68.803096 57.606597 
L 70.958938 59.374984 
L 72.923432 61.211365 
L 74.6996 63.080623 
L 76.294135 64.955128 
L 76.294135 64.955128 
" clip-path="url(#p4e84c96f12)" style="fill: none; stroke: #ff7f0e; stroke-opacity: 0.5; stroke-width: 1.5; stroke-linecap: round"/>
   </g>
  </g>
 </g>
 <defs>
  <clipPath id="p4e84c96f12">
   <rect x="-1.8" y="-7.2" width="176.4" height="176.4"/>
  </clipPath>
 </defs>
</svg>
