<?xml version="1.0" encoding="utf-8" standalone="no"?>
<!DOCTYPE svg PUBLIC "-//W3C//DTD SVG 1.1//EN"
  "http://www.w3.org/Graphics/SVG/1.1/DTD/svg11.dtd">
<svg xmlns:xlink="http://www.w3.org/1999/xlink" width="216pt" height="180pt" viewBox="0 0 216 180" xmlns="http://www.w3.org/2000/svg" version="1.1">
 <metadata>
  <rdf:RDF xmlns:dc="http://purl.org/dc/elements/1.1/" xmlns:cc="http://creativecommons.org/ns#" xmlns:rdf="http://www.w3.org/1999/02/22-rdf-syntax-ns#">
   <cc:Work>
    <dc:type rdf:resource="http://purl.org/dc/dcmitype/StillImage"/>
    <dc:date>2023-06-14T18:49:41.361280</dc:date>
    <dc:format>image/svg+xml</dc:format>
    <dc:creator>
     <cc:Agent>
      <dc:title>Matplotlib v3.7.0, https://matplotlib.org/</dc:title>
     </cc:Agent>
    </dc:creator>
   </cc:Work>
  </rdf:RDF>
 </metadata>
 <defs>
  <style type="text/css">*{stroke-linejoin: round; stroke-linecap: butt}</style>
 </defs>
 <g id="figure_1">
  <g id="patch_1">
   <path d="M 0 180 
L 216 180 
L 216 0 
L 0 0 
z
" style="fill: #ffffff"/>
  </g>
  <g id="patch_2">
   <path d="M -1 169.2 
L 174.6 169.2 
L 174.6 -1 
" style="fill: none"/>
  </g>
  <g id="pane3d_1">
   <g id="patch_3">
    <path d="M 11.519416 125.705413 
L 69.772457 76.876559 
L 68.962684 6.456623 
L 7.921935 51.001381 
" style="fill: none; opacity: 0.5; stroke: #f2f2f2; stroke-linejoin: miter"/>
   </g>
  </g>
  <g id="pane3d_2">
   <g id="patch_4">
    <path d="M 69.772457 76.876559 
L 163.247803 104.046152 
L 166.583609 31.200681 
L 68.962684 6.456623 
" style="fill: none; opacity: 0.5; stroke: #e6e6e6; stroke-linejoin: miter"/>
   </g>
  </g>
  <g id="pane3d_3">
   <g id="patch_5">
    <path d="M 11.519416 125.705413 
L 110.607849 158.067695 
L 163.247803 104.046152 
L 69.772457 76.876559 
" style="fill: none; opacity: 0.5; stroke: #ececec; stroke-linejoin: miter"/>
   </g>
  </g>
  <g id="axis3d_1">
   <g id="line2d_1">
    <path d="M 11.519416 125.705413 
L 110.607849 158.067695 
" style="fill: none; stroke: #ffffff; stroke-width: 0.8; stroke-linecap: round"/>
   </g>
   <g id="text_1">
    <!-- x -->
    <g style="fill: #262626" transform="translate(40.437569 179.640981) scale(0.1 -0.1)">
     <defs>
      <path id="DejaVuSans-78" d="M 3513 3500 
L 2247 1797 
L 3578 0 
L 2900 0 
L 1881 1375 
L 863 0 
L 184 0 
L 1544 1831 
L 300 3500 
L 978 3500 
L 1906 2253 
L 2834 3500 
L 3513 3500 
z
" transform="scale(0.015625)"/>
     </defs>
     <use xlink:href="#DejaVuSans-78"/>
    </g>
   </g>
   <g id="Line3DCollection_1">
    <path d="M 35.367653 133.494247 
L 92.345265 83.437583 
L 92.498855 12.422356 
" style="fill: none; stroke: #d3d3d3; stroke-width: 0.8"/>
    <path d="M 60.024997 141.547336 
L 115.633464 90.206543 
L 116.806099 18.583534 
" style="fill: none; stroke: #d3d3d3; stroke-width: 0.8"/>
    <path d="M 85.347185 149.817562 
L 139.49639 97.142554 
L 141.739754 24.903489 
" style="fill: none; stroke: #d3d3d3; stroke-width: 0.8"/>
   </g>
   <g id="xtick_1">
    <g id="line2d_2">
     <path d="M 88.783784 78.616216 
" clip-path="url(#pcf159ae325)" style="fill: none; stroke: #d3d3d3; stroke-width: 0.8; stroke-linecap: round"/>
    </g>
    <g id="line2d_3">
     <path d="M 35.864203 133.058012 
L 34.372402 134.368607 
" style="fill: none; stroke: #808080; stroke-width: 0.8; stroke-linecap: round"/>
    </g>
    <g id="text_2">
     <!-- −10 -->
     <g style="fill: #808080" transform="translate(17.2995 157.020116) scale(0.1 -0.1)">
      <defs>
       <path id="DejaVuSans-2212" d="M 678 2272 
L 4684 2272 
L 4684 1741 
L 678 1741 
L 678 2272 
z
" transform="scale(0.015625)"/>
       <path id="DejaVuSans-31" d="M 794 531 
L 1825 531 
L 1825 4091 
L 703 3866 
L 703 4441 
L 1819 4666 
L 2450 4666 
L 2450 531 
L 3481 531 
L 3481 0 
L 794 0 
L 794 531 
z
" transform="scale(0.015625)"/>
       <path id="DejaVuSans-30" d="M 2034 4250 
Q 1547 4250 1301 3770 
Q 1056 3291 1056 2328 
Q 1056 1369 1301 889 
Q 1547 409 2034 409 
Q 2525 409 2770 889 
Q 3016 1369 3016 2328 
Q 3016 3291 2770 3770 
Q 2525 4250 2034 4250 
z
M 2034 4750 
Q 2819 4750 3233 4129 
Q 3647 3509 3647 2328 
Q 3647 1150 3233 529 
Q 2819 -91 2034 -91 
Q 1250 -91 836 529 
Q 422 1150 422 2328 
Q 422 3509 836 4129 
Q 1250 4750 2034 4750 
z
" transform="scale(0.015625)"/>
      </defs>
      <use xlink:href="#DejaVuSans-2212"/>
      <use xlink:href="#DejaVuSans-31" x="83.789062"/>
      <use xlink:href="#DejaVuSans-30" x="147.412109"/>
     </g>
    </g>
   </g>
   <g id="xtick_2">
    <g id="line2d_4">
     <path d="M 88.783784 78.616216 
" clip-path="url(#pcf159ae325)" style="fill: none; stroke: #d3d3d3; stroke-width: 0.8; stroke-linecap: round"/>
    </g>
    <g id="line2d_5">
     <path d="M 60.510143 141.099422 
L 59.052574 142.44513 
" style="fill: none; stroke: #808080; stroke-width: 0.8; stroke-linecap: round"/>
    </g>
    <g id="text_3">
     <!-- 0 -->
     <g style="fill: #808080" transform="translate(49.369145 165.332593) scale(0.1 -0.1)">
      <use xlink:href="#DejaVuSans-30"/>
     </g>
    </g>
   </g>
   <g id="xtick_3">
    <g id="line2d_6">
     <path d="M 88.783784 78.616216 
" clip-path="url(#pcf159ae325)" style="fill: none; stroke: #d3d3d3; stroke-width: 0.8; stroke-linecap: round"/>
    </g>
    <g id="line2d_7">
     <path d="M 85.820128 149.357494 
L 84.399193 150.739745 
" style="fill: none; stroke: #808080; stroke-width: 0.8; stroke-linecap: round"/>
    </g>
    <g id="text_4">
     <!-- 10 -->
     <g style="fill: #808080" transform="translate(71.556282 173.870509) scale(0.1 -0.1)">
      <use xlink:href="#DejaVuSans-31"/>
      <use xlink:href="#DejaVuSans-30" x="63.623047"/>
     </g>
    </g>
   </g>
  </g>
  <g id="axis3d_2">
   <g id="line2d_8">
    <path d="M 163.247803 104.046152 
L 110.607849 158.067695 
" style="fill: none; stroke: #ffffff; stroke-width: 0.8; stroke-linecap: round"/>
   </g>
   <g id="text_5">
    <!-- y -->
    <g style="fill: #262626" transform="translate(162.133934 160.636398) scale(0.1 -0.1)">
     <defs>
      <path id="DejaVuSans-79" d="M 2059 -325 
Q 1816 -950 1584 -1140 
Q 1353 -1331 966 -1331 
L 506 -1331 
L 506 -850 
L 844 -850 
Q 1081 -850 1212 -737 
Q 1344 -625 1503 -206 
L 1606 56 
L 191 3500 
L 800 3500 
L 1894 763 
L 2988 3500 
L 3597 3500 
L 2059 -325 
z
" transform="scale(0.015625)"/>
     </defs>
     <use xlink:href="#DejaVuSans-79"/>
    </g>
   </g>
   <g id="Line3DCollection_2">
    <path d="M 17.32559 44.139022 
L 20.464821 118.207198 
L 118.721556 149.741036 
" style="fill: none; stroke: #d3d3d3; stroke-width: 0.8"/>
    <path d="M 41.286373 26.653534 
L 43.305284 99.061868 
L 139.388533 128.531633 
" style="fill: none; stroke: #d3d3d3; stroke-width: 0.8"/>
    <path d="M 63.676582 10.314179 
L 64.710245 81.119806 
L 158.691778 108.721754 
" style="fill: none; stroke: #d3d3d3; stroke-width: 0.8"/>
   </g>
   <g id="xtick_4">
    <g id="line2d_9">
     <path d="M 88.783784 78.616216 
" clip-path="url(#pcf159ae325)" style="fill: none; stroke: #d3d3d3; stroke-width: 0.8; stroke-linecap: round"/>
    </g>
    <g id="line2d_10">
     <path d="M 117.89385 149.475398 
L 120.379091 150.272994 
" style="fill: none; stroke: #808080; stroke-width: 0.8; stroke-linecap: round"/>
    </g>
    <g id="text_6">
     <!-- −20 -->
     <g style="fill: #808080" transform="translate(120.963281 170.664259) scale(0.1 -0.1)">
      <defs>
       <path id="DejaVuSans-32" d="M 1228 531 
L 3431 531 
L 3431 0 
L 469 0 
L 469 531 
Q 828 903 1448 1529 
Q 2069 2156 2228 2338 
Q 2531 2678 2651 2914 
Q 2772 3150 2772 3378 
Q 2772 3750 2511 3984 
Q 2250 4219 1831 4219 
Q 1534 4219 1204 4116 
Q 875 4013 500 3803 
L 500 4441 
Q 881 4594 1212 4672 
Q 1544 4750 1819 4750 
Q 2544 4750 2975 4387 
Q 3406 4025 3406 3419 
Q 3406 3131 3298 2873 
Q 3191 2616 2906 2266 
Q 2828 2175 2409 1742 
Q 1991 1309 1228 531 
z
" transform="scale(0.015625)"/>
      </defs>
      <use xlink:href="#DejaVuSans-2212"/>
      <use xlink:href="#DejaVuSans-32" x="83.789062"/>
      <use xlink:href="#DejaVuSans-30" x="147.412109"/>
     </g>
    </g>
   </g>
   <g id="xtick_5">
    <g id="line2d_11">
     <path d="M 88.783784 78.616216 
" clip-path="url(#pcf159ae325)" style="fill: none; stroke: #d3d3d3; stroke-width: 0.8; stroke-linecap: round"/>
    </g>
    <g id="line2d_12">
     <path d="M 138.580526 128.283809 
L 141.00655 129.027896 
" style="fill: none; stroke: #808080; stroke-width: 0.8; stroke-linecap: round"/>
    </g>
    <g id="text_7">
     <!-- 0 -->
     <g style="fill: #808080" transform="translate(148.582361 148.981464) scale(0.1 -0.1)">
      <use xlink:href="#DejaVuSans-30"/>
     </g>
    </g>
   </g>
   <g id="xtick_6">
    <g id="line2d_13">
     <path d="M 88.783784 78.616216 
" clip-path="url(#pcf159ae325)" style="fill: none; stroke: #d3d3d3; stroke-width: 0.8; stroke-linecap: round"/>
    </g>
    <g id="line2d_14">
     <path d="M 157.902715 108.49001 
L 160.271797 109.185799 
" style="fill: none; stroke: #808080; stroke-width: 0.8; stroke-linecap: round"/>
    </g>
    <g id="text_8">
     <!-- 20 -->
     <g style="fill: #808080" transform="translate(164.311894 128.730629) scale(0.1 -0.1)">
      <use xlink:href="#DejaVuSans-32"/>
      <use xlink:href="#DejaVuSans-30" x="63.623047"/>
     </g>
    </g>
   </g>
  </g>
  <g id="axis3d_3">
   <g id="line2d_15">
    <path d="M 163.247803 104.046152 
L 166.583609 31.200681 
" style="fill: none; stroke: #ffffff; stroke-width: 0.8; stroke-linecap: round"/>
   </g>
   <g id="text_9">
    <!-- z -->
    <g style="fill: #262626" transform="translate(202.494937 65.789607) scale(0.1 -0.1)">
     <defs>
      <path id="DejaVuSans-7a" d="M 353 3500 
L 3084 3500 
L 3084 2975 
L 922 459 
L 3084 459 
L 3084 0 
L 275 0 
L 275 525 
L 2438 3041 
L 353 3041 
L 353 3500 
z
" transform="scale(0.015625)"/>
     </defs>
     <use xlink:href="#DejaVuSans-7a"/>
    </g>
   </g>
   <g id="Line3DCollection_3">
    <path d="M 163.799148 92.0062 
L 69.638382 65.216977 
L 10.925659 113.375645 
" style="fill: none; stroke: #d3d3d3; stroke-width: 0.8"/>
    <path d="M 164.560059 75.389853 
L 69.453497 49.138946 
L 10.105669 96.348038 
" style="fill: none; stroke: #d3d3d3; stroke-width: 0.8"/>
    <path d="M 165.336564 58.43296 
L 69.265007 32.747359 
L 9.268224 78.957949 
" style="fill: none; stroke: #d3d3d3; stroke-width: 0.8"/>
    <path d="M 166.129148 41.124943 
L 69.072805 16.032956 
L 8.41276 61.193679 
" style="fill: none; stroke: #d3d3d3; stroke-width: 0.8"/>
   </g>
   <g id="xtick_7">
    <g id="line2d_16">
     <path d="M 88.783784 78.616216 
" style="fill: none; stroke: #d3d3d3; stroke-width: 0.8; stroke-linecap: round"/>
    </g>
    <g id="line2d_17">
     <path d="M 163.008606 91.781287 
L 165.382126 92.456565 
" style="fill: none; stroke: #808080; stroke-width: 0.8; stroke-linecap: round"/>
    </g>
    <g id="text_10">
     <!-- 10 -->
     <g style="fill: #808080" transform="translate(175.789292 97.03921) scale(0.1 -0.1)">
      <use xlink:href="#DejaVuSans-31"/>
      <use xlink:href="#DejaVuSans-30" x="63.623047"/>
     </g>
    </g>
   </g>
   <g id="xtick_8">
    <g id="line2d_18">
     <path d="M 88.783784 78.616216 
" style="fill: none; stroke: #d3d3d3; stroke-width: 0.8; stroke-linecap: round"/>
    </g>
    <g id="line2d_19">
     <path d="M 163.761194 75.169354 
L 166.15972 75.831385 
" style="fill: none; stroke: #808080; stroke-width: 0.8; stroke-linecap: round"/>
    </g>
    <g id="text_11">
     <!-- 20 -->
     <g style="fill: #808080" transform="translate(176.732009 80.473319) scale(0.1 -0.1)">
      <use xlink:href="#DejaVuSans-32"/>
      <use xlink:href="#DejaVuSans-30" x="63.623047"/>
     </g>
    </g>
   </g>
   <g id="xtick_9">
    <g id="line2d_20">
     <path d="M 88.783784 78.616216 
" style="fill: none; stroke: #d3d3d3; stroke-width: 0.8; stroke-linecap: round"/>
    </g>
    <g id="line2d_21">
     <path d="M 164.529201 58.217104 
L 166.953264 58.8652 
" style="fill: none; stroke: #808080; stroke-width: 0.8; stroke-linecap: round"/>
    </g>
    <g id="text_12">
     <!-- 30 -->
     <g style="fill: #808080" transform="translate(177.693957 63.569492) scale(0.1 -0.1)">
      <defs>
       <path id="DejaVuSans-33" d="M 2597 2516 
Q 3050 2419 3304 2112 
Q 3559 1806 3559 1356 
Q 3559 666 3084 287 
Q 2609 -91 1734 -91 
Q 1441 -91 1130 -33 
Q 819 25 488 141 
L 488 750 
Q 750 597 1062 519 
Q 1375 441 1716 441 
Q 2309 441 2620 675 
Q 2931 909 2931 1356 
Q 2931 1769 2642 2001 
Q 2353 2234 1838 2234 
L 1294 2234 
L 1294 2753 
L 1863 2753 
Q 2328 2753 2575 2939 
Q 2822 3125 2822 3475 
Q 2822 3834 2567 4026 
Q 2313 4219 1838 4219 
Q 1578 4219 1281 4162 
Q 984 4106 628 3988 
L 628 4550 
Q 988 4650 1302 4700 
Q 1616 4750 1894 4750 
Q 2613 4750 3031 4423 
Q 3450 4097 3450 3541 
Q 3450 3153 3228 2886 
Q 3006 2619 2597 2516 
z
" transform="scale(0.015625)"/>
      </defs>
      <use xlink:href="#DejaVuSans-33"/>
      <use xlink:href="#DejaVuSans-30" x="63.623047"/>
     </g>
    </g>
   </g>
   <g id="xtick_10">
    <g id="line2d_22">
     <path d="M 88.783784 78.616216 
" style="fill: none; stroke: #d3d3d3; stroke-width: 0.8; stroke-linecap: round"/>
    </g>
    <g id="line2d_23">
     <path d="M 165.313104 40.913971 
L 167.763253 41.547408 
" style="fill: none; stroke: #808080; stroke-width: 0.8; stroke-linecap: round"/>
    </g>
    <g id="text_13">
     <!-- 40 -->
     <g style="fill: #808080" transform="translate(178.67573 46.31728) scale(0.1 -0.1)">
      <defs>
       <path id="DejaVuSans-34" d="M 2419 4116 
L 825 1625 
L 2419 1625 
L 2419 4116 
z
M 2253 4666 
L 3047 4666 
L 3047 1625 
L 3713 1625 
L 3713 1100 
L 3047 1100 
L 3047 0 
L 2419 0 
L 2419 1100 
L 313 1100 
L 313 1709 
L 2253 4666 
z
" transform="scale(0.015625)"/>
      </defs>
      <use xlink:href="#DejaVuSans-34"/>
      <use xlink:href="#DejaVuSans-30" x="63.623047"/>
     </g>
    </g>
   </g>
  </g>
  <g id="axes_1">
   <g id="line2d_24">
    <path d="M 125.307796 99.072132 
L 129.984987 94.190543 
L 135.165439 88.392081 
L 140.6863 81.655158 
L 143.450432 77.979331 
L 146.105505 74.155909 
L 148.537578 70.254235 
L 150.613305 66.366838 
L 152.190304 62.608496 
L 153.132915 59.111803 
L 153.331291 56.018615 
L 152.719703 53.467603 
L 151.288975 51.579163 
L 149.088811 50.43982 
L 146.218713 50.088718 
L 142.81006 50.508874 
L 139.004913 51.625548 
L 134.937764 53.313304 
L 130.7246 55.411726 
L 122.222676 60.156868 
L 114.084795 64.703372 
L 106.759183 68.467989 
L 90.075143 76.584926 
L 87.454408 78.276577 
L 85.401343 79.897028 
L 83.729607 81.479596 
L 81.62085 83.800837 
L 78.324696 87.47349 
L 76.869507 88.832313 
L 75.251866 90.097473 
L 73.424388 91.240687 
L 71.344179 92.224839 
L 68.973332 93.000623 
L 66.281484 93.502672 
L 63.251182 93.645732 
L 61.609376 93.549866 
L 59.887194 93.322072 
L 58.091088 92.945512 
L 56.23104 92.40242 
L 54.321327 91.674607 
L 52.381305 90.744209 
L 50.43615 89.594734 
L 48.517424 88.212415 
L 46.663297 86.587895 
L 44.918232 84.71819 
L 43.331913 82.608797 
L 41.957264 80.27576 
L 40.847484 77.747386 
L 40.05226 75.065232 
L 39.613496 72.284006 
L 39.561162 69.470036 
L 39.909953 66.69822 
L 40.657406 64.047545 
L 41.783904 61.595655 
L 43.254558 59.413116 
L 45.022623 57.558207 
L 47.033748 56.072969 
L 49.230319 54.981031 
L 51.555223 54.287404 
L 53.95468 53.98007 
L 56.380019 54.032947 
L 58.788573 54.40964 
L 61.143946 55.0674 
L 63.415931 55.96081 
L 65.580263 57.044848 
L 67.618321 58.277189 
L 69.516776 59.619711 
L 71.267175 61.039299 
L 72.865434 62.508075 
L 74.311232 64.003226 
L 76.758947 67.00395 
L 78.657377 69.940865 
L 80.072103 72.759002 
L 81.071946 75.432762 
L 81.719464 77.954091 
L 82.066262 80.324704 
L 82.151457 82.55121 
L 82.001892 84.642142 
L 81.633109 86.606076 
L 81.050517 88.450335 
L 80.250477 90.179904 
L 79.221201 91.796283 
L 77.943495 93.296063 
L 76.391429 94.668995 
L 74.533133 95.895352 
L 72.332007 96.942322 
L 69.748839 97.759302 
L 66.745699 98.272048 
L 65.07678 98.383057 
L 63.293022 98.376147 
L 61.394095 98.232579 
L 59.38222 97.931169 
L 57.263105 97.448385 
L 55.047095 96.758667 
L 52.750528 95.83504 
L 50.39726 94.65014 
L 48.020208 93.177738 
L 45.662723 91.394883 
L 43.37941 89.284694 
L 41.23596 86.839772 
L 39.307482 84.066024 
L 37.674899 80.98651 
L 36.419268 77.644658 
L 35.614354 74.106056 
L 35.318433 70.457948 
L 35.566779 66.805785 
L 36.366537 63.266696 
L 37.695276 59.96039 
L 39.503681 56.998731 
L 41.721785 54.475681 
L 44.267205 52.45933 
L 47.053568 50.987313 
L 49.997523 50.066132 
L 53.023447 49.674102 
L 56.065772 49.766968 
L 59.069428 50.284936 
L 61.989219 51.159866 
L 64.78884 52.321655 
L 67.440009 53.703239 
L 69.921841 55.24399 
L 72.220376 56.891616 
L 74.328102 58.602816 
L 76.243319 60.343026 
L 77.969312 62.085604 
L 80.885795 65.504107 
L 83.165816 68.76016 
L 84.916523 71.812079 
L 86.243505 74.64996 
L 87.23989 77.280104 
L 88.278103 80.866337 
L 88.934383 84.070476 
L 89.428323 87.838385 
L 89.641808 91.126638 
L 89.637372 94.692212 
L 89.443837 97.193174 
L 89.062187 99.44581 
L 88.622715 101.004821 
L 88.015188 102.476171 
L 87.193406 103.880579 
L 86.096307 105.23665 
L 84.644445 106.557935 
L 83.430004 107.421389 
L 81.975869 108.266614 
L 80.238433 109.082461 
L 78.166598 109.847194 
L 75.700711 110.523131 
L 72.771571 111.049042 
L 69.30012 111.329697 
L 67.334015 111.335679 
L 65.19944 111.22211 
L 62.885671 110.960899 
L 60.383312 110.518807 
L 57.685653 109.856976 
L 54.790721 108.930661 
L 51.704228 107.689332 
L 48.44358 106.077415 
L 45.042993 104.036027 
L 41.559425 101.506194 
L 38.078495 98.434083 
L 34.718817 94.778709 
L 31.632337 90.522241 
L 28.9979 85.682249 
L 27.005875 80.324061 
L 25.833956 74.570003 
L 25.617952 68.601454 
L 26.425071 62.650088 
L 28.23855 56.977094 
L 30.959681 51.84297 
L 34.427112 47.474165 
L 38.446852 44.034527 
L 42.82322 41.60823 
L 47.382283 40.197208 
L 51.983732 39.731872 
L 56.521941 40.090657 
L 60.920121 41.122821 
L 65.122304 42.669585 
L 69.08675 44.580524 
L 72.782362 46.724092 
L 76.187727 48.992654 
L 79.291424 51.303252 
L 82.092209 53.595542 
L 84.598332 55.828248 
L 88.796907 60.021158 
L 92.072036 63.787556 
L 94.636478 67.123258 
L 97.576954 71.388875 
L 101.286192 76.825832 
L 102.654621 78.488773 
L 104.065113 79.877447 
L 105.570789 80.992272 
L 107.215704 81.825594 
L 109.036704 82.362044 
L 111.063916 82.579073 
L 113.319738 82.447994 
L 115.816067 81.936007 
L 118.549363 81.009898 
L 121.49314 79.642232 
L 124.587821 77.820887 
L 127.728915 75.562286 
L 130.756672 72.92744 
L 132.162087 71.504094 
L 133.453534 70.037397 
L 134.597103 68.553232 
L 135.55836 67.081424 
L 136.304158 65.654937 
L 136.80472 64.308648 
L 137.035799 63.077709 
L 136.980675 61.995601 
L 136.631704 61.092025 
L 135.991184 60.390857 
L 135.071407 59.908404 
L 133.893885 59.652191 
L 132.487879 59.620481 
L 130.888466 59.802617 
L 129.134417 60.180157 
L 127.266131 60.728685 
L 123.345969 62.224592 
L 119.422653 64.060449 
L 115.733946 66.041504 
L 112.445821 68.036342 
L 109.651803 69.974358 
L 107.38359 71.827137 
L 105.628413 73.588288 
L 104.347528 75.259 
L 103.491635 76.840153 
L 103.011538 78.329099 
L 102.864347 79.718916 
L 103.016379 80.99863 
L 103.443967 82.153592 
L 104.133081 83.165655 
L 105.078361 84.013038 
L 106.281833 84.669938 
L 107.751377 85.105967 
L 109.498877 85.285609 
L 111.537779 85.167945 
L 113.879657 84.707091 
L 116.529168 83.853946 
L 119.476588 82.560204 
L 122.687062 80.785786 
L 126.086126 78.510922 
L 129.542658 75.753541 
L 132.853817 72.590702 
L 134.370622 70.902684 
L 135.741813 69.179028 
L 136.924628 67.453299 
L 137.876419 65.763905 
L 138.55734 64.1528 
L 138.93333 62.663562 
L 138.979042 61.338944 
L 138.680287 60.218052 
L 138.035608 59.33346 
L 137.056685 58.708582 
L 135.767509 58.355686 
L 134.202479 58.274852 
L 132.403763 58.454097 
L 130.418368 58.87069 
L 128.295325 59.493504 
L 123.828518 61.209949 
L 119.356863 63.305695 
L 115.161946 65.534043 
L 111.436432 67.738328 
L 108.283505 69.845148 
L 105.730346 71.835307 
L 103.750608 73.714865 
L 102.288258 75.496097 
L 101.276879 77.188329 
L 100.652359 78.795056 
L 100.359711 80.314039 
L 100.35583 81.738345 
L 100.609878 83.057336 
L 101.102496 84.257263 
L 101.824585 85.321386 
L 102.775998 86.229677 
L 103.964291 86.958181 
L 105.40351 87.47812 
L 107.112882 87.754876 
L 109.115179 87.747023 
L 111.434355 87.40573 
L 114.091833 86.675059 
L 117.100512 85.494035 
L 120.455167 83.801815 
L 124.11769 81.547747 
L 127.996236 78.708307 
L 129.966883 77.075123 
L 131.919898 75.312013 
L 133.817903 73.435773 
L 135.61677 71.470289 
L 137.266436 69.447137 
L 138.712624 67.405687 
L 139.899567 65.392531 
L 140.773662 63.46005 
L 141.287779 61.664045 
L 141.405685 60.060477 
L 141.1059 58.701534 
L 140.384271 57.631418 
L 139.254748 56.882376 
L 137.748174 56.471566 
L 135.909363 56.39928 
L 133.793063 56.648905 
L 131.459581 57.188736 
L 128.970785 57.975437 
L 126.386894 58.958644 
L 121.153631 61.307609 
L 116.140238 63.867761 
L 111.618836 66.393694 
L 107.746369 68.77158 
L 104.575104 70.978474 
L 102.078918 73.034334 
L 100.185833 74.969288 
L 98.806204 76.808202 
L 97.851559 78.566378 
L 97.24456 80.250342 
L 96.922753 81.860137 
L 96.838833 83.391499 
L 96.959294 84.837409 
L 97.262596 86.188964 
L 97.737371 87.435698 
L 98.380927 88.565445 
L 99.198093 89.563876 
L 100.200391 90.413744 
L 101.405462 91.093875 
L 102.836658 91.577926 
L 104.522676 91.832932 
L 106.497035 91.817706 
L 108.79709 91.481286 
L 111.462052 90.76178 
L 114.529071 89.586355 
L 118.025779 87.873665 
L 121.956814 85.540863 
L 126.281087 82.51832 
L 128.55709 80.736406 
L 130.87731 78.775792 
L 133.206853 76.645427 
L 135.500503 74.36238 
L 137.702206 71.953461 
L 139.745616 69.456561 
L 141.556127 66.921346 
L 143.054714 64.40896 
L 144.163605 61.990345 
L 144.81339 59.742959 
L 144.950584 57.745871 
L 144.544323 56.073548 
L 143.590702 54.789002 
L 142.113691 53.937206 
L 140.162345 53.539859 
L 137.804965 53.592459 
L 135.121646 54.064408 
L 132.196889 54.902374 
L 129.113581 56.036538 
L 125.948987 57.388727 
L 119.645258 60.443007 
L 111.028488 65.049019 
L 106.226677 67.805051 
L 102.291802 70.272452 
L 99.186932 72.5074 
L 96.80676 74.576466 
L 95.020749 76.531889 
L 93.70139 78.407067 
L 92.737852 80.220039 
L 92.039974 81.978574 
L 91.341669 84.517373 
L 90.915076 86.932625 
L 90.522536 90.664457 
L 89.829023 98.642469 
L 89.440806 100.661739 
L 88.857361 102.52893 
L 88.238706 103.852803 
L 87.410878 105.13028 
L 86.310751 106.377754 
L 84.857596 107.607449 
L 82.948274 108.82104 
L 81.358439 109.612311 
L 79.460813 110.372092 
L 77.19991 111.071452 
L 74.510906 111.661952 
L 71.31857 112.066584 
L 67.537277 112.167493 
L 65.396926 112.052241 
L 63.074727 111.790233 
L 60.560326 111.347814 
L 57.845819 110.685543 
L 54.927797 109.75786 
L 51.810335 108.513117 
L 48.50912 106.894221 
L 45.056796 104.840287 
L 41.509264 102.289781 
L 37.952135 99.185762 
L 34.505693 95.48373 
L 31.32583 91.162293 
L 28.597923 86.236063 
L 26.521136 80.76891 
L 25.28306 74.884217 
L 25.02855 68.767704 
L 25.830804 62.658829 
L 27.674361 56.829242 
L 30.45681 51.55093 
L 34.00925 47.060758 
L 38.128413 43.529997 
L 42.609806 41.046102 
L 47.272656 39.610043 
L 51.972312 39.147811 
L 56.600981 39.531306 
L 61.081144 40.602541 
L 65.356776 42.195942 
L 69.386255 44.155466 
L 73.138597 46.345437 
L 76.592547 48.655555 
L 79.737015 51.001441 
L 82.571331 53.322274 
L 85.104554 55.57693 
L 89.341954 59.796247 
L 92.642012 63.570523 
L 95.224122 66.90082 
L 98.187157 71.14144 
L 101.242888 75.586963 
L 102.635482 77.355087 
L 104.042261 78.840831 
L 105.521617 80.048587 
L 107.12098 80.974445 
L 108.879244 81.606695 
L 110.827771 81.92646 
L 112.989908 81.908729 
L 115.378823 81.524219 
L 117.993372 80.742662 
L 120.811665 79.538241 
L 123.782258 77.897925 
L 126.813723 75.833093 
L 129.765057 73.393833 
L 132.442033 70.683291 
L 133.60441 69.275474 
L 134.607058 67.866645 
L 135.418493 66.486459 
L 136.009514 65.166808 
L 136.355142 63.940491 
L 136.4365 62.839565 
L 136.242414 61.893493 
L 135.770503 61.127258 
L 135.027603 60.559639 
L 134.029444 60.201884 
L 132.79965 60.056939 
L 131.36821 60.119388 
L 129.769639 60.376111 
L 128.041067 60.807605 
L 124.344977 62.096088 
L 120.567442 63.773997 
L 116.950814 65.64792 
L 113.673611 67.576209 
L 110.846005 69.474522 
L 108.516739 71.302664 
L 106.687662 73.046342 
L 105.330846 74.702329 
L 104.403938 76.26942 
L 103.861518 77.744142 
L 103.662199 79.11929 
L 103.772336 80.383767 
L 104.167414 81.522789 
L 104.832043 82.51803 
L 105.759181 83.34752 
L 106.9489 83.985341 
L 108.406829 84.401182 
L 110.14218 84.559957 
L 112.165136 84.421757 
L 114.483208 83.942565 
L 117.095983 83.076367 
L 119.987547 81.779537 
L 123.11592 80.01855 
L 126.399415 77.78203 
L 129.701509 75.097363 
L 132.819145 72.050135 
L 134.226954 70.437583 
L 135.483834 68.801056 
L 136.550228 67.173181 
L 137.387479 65.59061 
L 137.960318 64.092672 
L 138.239506 62.719502 
L 138.204341 61.509739 
L 137.844638 60.497988 
L 137.161885 59.71229 
L 136.169361 59.171922 
L 134.891216 58.885831 
L 133.360648 58.851955 
L 131.617528 59.057569 
L 129.705805 59.480654 
L 127.671036 60.092113 
L 123.410344 61.745064 
L 119.162254 63.747448 
L 115.186501 65.877939 
L 111.660425 67.994716 
L 108.679134 70.028806 
L 106.268431 71.958997 
L 104.405447 73.786894 
L 103.040188 75.520267 
L 102.112972 77.164774 
L 101.565999 78.721129 
L 101.349714 80.184933 
L 101.425481 81.547382 
L 101.766078 82.795995 
L 102.355054 83.914997 
L 103.185616 84.885301 
L 104.259352 85.684116 
L 105.584904 86.284279 
L 107.176535 86.653423 
L 109.052403 86.753168 
L 111.232228 86.538603 
L 113.73382 85.958536 
L 116.56771 84.95724 
L 119.728812 83.47881 
L 123.183875 81.475614 
L 126.853923 78.922503 
L 130.592775 75.837799 
L 132.418887 74.12019 
L 134.167401 72.309745 
L 135.794769 70.432663 
L 137.25313 68.522076 
L 138.492325 66.617774 
L 139.462726 64.765258 
L 140.11874 63.014011 
L 140.422614 61.414981 
L 140.348047 60.017405 
L 139.883017 58.865224 
L 139.031301 57.993491 
L 137.812377 57.425259 
L 136.259751 57.169397 
L 134.418011 57.219752 
L 132.339216 57.555853 
L 130.0792 58.14513 
L 127.694316 58.946351 
L 122.763251 61.001338 
L 117.926793 63.372105 
L 113.473441 65.796577 
L 109.586862 68.129547 
L 106.350164 70.319641 
L 103.765575 72.36824 
L 101.782774 74.295921 
L 100.326214 76.123677 
L 99.315336 77.865647 
L 98.676553 79.528091 
L 98.348795 81.110753 
L 98.285051 82.608656 
L 98.451821 84.013506 
L 98.827714 85.314523 
L 99.401884 86.498708 
L 100.172594 87.55066 
L 101.146031 88.452014 
L 102.335361 89.180578 
L 103.759934 89.709219 
L 105.444506 90.004563 
L 107.418271 90.025627 
L 109.713335 89.722593 
L 112.362088 89.036179 
L 115.392525 87.898352 
L 118.820023 86.235717 
L 122.633466 83.977571 
L 126.773342 81.071338 
L 128.926419 79.369765 
L 131.100944 77.508097 
L 133.261406 75.49802 
L 135.363421 73.358886 
L 137.353749 71.118926 
L 139.171304 68.816106 
L 140.749449 66.498319 
L 142.019739 64.222644 
L 142.91699 62.053418 
L 143.385216 60.058991 
L 143.383591 58.307274 
L 142.891377 56.860404 
L 141.910759 55.769124 
L 140.466941 55.067663 
L 138.605433 54.769933 
L 136.387176 54.867762 
L 133.882587 55.331635 
L 131.165748 56.113969 
L 128.309632 57.154533 
L 125.38279 58.387108 
L 119.558078 61.173115 
L 114.096191 64.048504 
L 109.268685 66.770602 
L 105.211834 69.25922 
L 101.944319 71.528498 
L 99.403495 73.625798 
L 97.485665 75.597596 
L 96.077315 77.477318 
L 95.073479 79.284568 
L 94.38572 81.028375 
L 93.943808 82.710907 
L 93.694306 84.3304 
L 93.598396 86.633059 
L 93.764469 88.769965 
L 94.149674 90.724927 
L 94.742306 92.480968 
L 95.554832 94.018303 
L 96.234281 94.909221 
L 97.04061 95.681387 
L 97.992673 96.321631 
L 99.113709 96.8128 
L 100.431764 97.132503 
L 101.980214 97.251567 
L 103.798314 97.132162 
L 105.931633 96.725648 
L 108.432066 95.970257 
L 111.35677 94.789048 
L 114.764683 93.088994 
L 118.708046 90.762999 
L 123.214463 87.69805 
L 128.252954 83.794749 
L 130.932676 81.510221 
L 133.677786 79.005237 
L 136.439625 76.292081 
L 139.152996 73.39526 
L 141.73533 70.354198 
L 144.087963 67.225382 
L 146.100409 64.083286 
L 147.658146 61.019363 
L 148.653691 58.138427 
L 148.999624 55.552127 
L 148.641066 53.369767 
L 147.564592 51.687383 
L 145.800956 50.57662 
L 143.420621 50.075232 
L 140.52325 50.18104 
L 137.224133 50.850789 
L 133.641177 52.004699 
L 129.885292 53.536402 
L 126.055268 55.326698 
L 118.501579 59.229144 
L 102.81095 67.7579 
L 98.346737 70.353414 
L 94.871962 72.628432 
L 92.220151 74.699144 
L 90.206249 76.645817 
L 88.660606 78.51574 
L 87.441594 80.333025 
L 85.985242 82.979669 
L 83.030951 88.772585 
L 81.539535 91.058128 
L 80.369054 92.501137 
L 79.013076 93.868378 
L 77.431931 95.145167 
L 75.583705 96.309534 
L 73.424118 97.328709 
L 70.907418 98.154502 
L 67.988926 98.717488 
L 66.366577 98.871266 
L 64.630419 98.920228 
L 62.778356 98.846699 
L 60.810378 98.63051 
L 58.729384 98.248983 
L 56.542212 97.677088 
L 54.260902 96.887846 
L 51.904173 95.853068 
L 49.499041 94.544564 
L 47.082421 92.935905 
L 44.702432 91.004863 
L 42.418998 88.736528 
L 40.303233 86.127039 
L 38.435078 83.187646 
L 36.898795 79.948601 
L 35.776326 76.462132 
L 35.139072 72.803598 
L 35.039361 69.069962 
L 35.503278 65.375039 
L 36.526591 61.841605 
L 38.074882 58.591204 
L 40.087934 55.733183 
L 42.487328 53.354816 
L 45.185398 51.514228 
L 48.093643 50.237194 
L 51.12915 49.51802 
L 54.218437 49.323901 
L 57.298931 49.601555 
L 60.318796 50.284785 
L 63.235984 51.301729 
L 66.017179 52.580953 
L 68.636964 54.055945 
L 71.07726 55.667946 
L 73.326865 57.367303 
L 75.380909 59.113674 
L 77.240125 60.875454 
L 78.909934 62.628729 
L 81.720169 66.045211 
L 83.909412 69.279617 
L 85.589105 72.299604 
L 86.865646 75.100721 
L 87.831178 77.692217 
L 88.856352 81.219813 
L 89.535364 84.365544 
L 90.11162 88.054543 
L 90.599659 92.704118 
L 91.01707 99.171217 
L 91.115142 103.408691 
L 90.960246 105.735314 
L 90.648245 107.180568 
L 90.208903 108.257316 
L 89.525044 109.304997 
L 88.496651 110.366074 
L 87.417212 111.196599 
L 85.988678 112.073607 
L 84.11182 113.002351 
L 81.66059 113.966757 
L 78.47462 114.90769 
L 75.843124 115.457627 
L 72.719356 115.863649 
L 69.013089 116.011289 
L 66.908941 115.937419 
L 64.618338 115.729176 
L 62.126512 115.352899 
L 59.41942 114.768685 
L 56.485423 113.929751 
L 53.317989 112.781999 
L 49.919784 111.264015 
L 46.308464 109.307878 
L 42.524237 106.841298 
L 38.638758 103.791855 
L 34.76395 100.094193 
L 31.058006 95.700951 
L 27.724496 90.59759 
L 25.000051 84.819895 
L 23.12781 78.470808 
L 22.318587 71.731018 
L 22.708386 64.856804 
L 24.32612 58.160558 
L 27.084466 51.974575 
L 30.798627 46.605234 
L 35.226199 42.289239 
L 40.113378 39.1635 
L 45.232585 37.255437 
L 50.402981 36.493621 
L 55.493566 36.732962 
L 60.414487 37.78603 
L 65.104131 39.452818 
L 69.518171 41.543891 
L 73.623476 43.895068 
L 77.396619 46.374161 
L 80.824771 48.881635 
L 83.906659 51.347389 
L 86.652241 53.725593 
L 91.219039 58.124024 
L 94.746066 61.995731 
L 97.483523 65.359529 
L 101.464919 70.77067 
L 103.786639 73.864429 
L 105.231739 75.528939 
L 106.685267 76.895385 
L 108.204421 77.970392 
L 109.832809 78.752411 
L 111.602752 79.233029 
L 113.535964 79.398511 
L 115.642645 79.231903 
L 117.91898 78.71609 
L 120.343056 77.838272 
L 122.869453 76.596201 
L 125.423269 75.006237 
L 127.895358 73.112597 
L 130.141792 70.996001 
L 131.991552 68.778473 
L 132.71132 67.6807 
L 133.265804 66.620002 
L 133.636479 65.619801 
L 133.808513 64.703272 
L 133.771805 63.892241 
L 133.521787 63.206031 
L 133.0599 62.660378 
L 132.39367 62.266513 
L 131.53638 62.030529 
L 130.506387 61.953109 
L 129.326157 62.029652 
L 128.021135 62.250797 
L 125.14634 63.071044 
L 122.10184 64.281201 
L 119.089035 65.740338 
L 116.271364 67.327346 
L 113.765357 68.953896 
L 111.640822 70.563657 
L 109.927765 72.124026 
L 108.626941 73.616455 
L 107.72095 75.028731 
L 107.183733 76.350059 
L 106.987511 77.568431 
L 107.107167 78.669427 
L 107.522528 79.635747 
L 108.219117 80.447026 
L 109.187826 81.079735 
L 110.423805 81.507146 
L 111.924654 81.699458 
L 113.687895 81.624311 
L 115.707507 81.248016 
L 117.969278 80.537957 
L 120.444679 79.466711 
L 123.083213 78.018425 
L 125.803735 76.197744 
L 128.486475 74.040836 
L 130.969268 71.626726 
L 133.053288 69.085109 
L 133.87831 67.820835 
L 134.523603 66.595037 
L 134.965829 65.435157 
L 135.185826 64.368744 
L 135.170003 63.422072 
L 134.911447 62.618655 
L 134.410614 61.977806 
L 133.675478 61.513395 
L 132.721151 61.232954 
L 131.568996 61.137252 
L 130.245386 61.220419 
L 128.780246 61.4706 
L 125.553886 62.401722 
L 122.145928 63.765351 
L 118.787692 65.38992 
L 115.663293 67.133508 
L 112.899999 68.898557 
L 110.569433 70.628299 
L 108.696812 72.294314 
L 107.27435 73.88354 
L 106.274917 75.38877 
L 105.663316 76.803138 
L 105.404183 78.117532 
L 105.466724 79.319666 
L 105.827016 80.393864 
L 106.468665 81.321027 
L 107.382408 82.078549 
L 108.565031 82.640144 
L 110.017735 82.975667 
L 111.743933 83.051122 
L 113.746256 82.829165 
L 116.022435 82.270548 
L 118.559614 81.337104 
L 121.326614 79.997049 
L 124.264007 78.233329 
L 127.272726 76.055407 
L 130.203789 73.513791 
L 132.854535 70.714487 
L 133.99898 69.268876 
L 134.979298 67.827617 
L 135.763358 66.421115 
L 136.321606 65.081944 
L 136.629061 63.843434 
L 136.667229 62.737935 
L 136.425702 61.794895 
L 135.903191 61.038926 
L 135.107856 60.488064 
L 134.056869 60.15247 
L 132.775289 60.03373 
L 131.294416 60.124896 
L 129.64988 60.411276 
L 127.879676 60.871895 
L 124.11551 62.21229 
L 120.291499 63.929003 
L 116.649051 65.827558 
L 113.363642 67.768868 
L 110.541209 69.67246 
L 108.225982 71.501627 
L 106.415781 73.24448 
L 105.079576 74.899143 
L 104.172931 76.465024 
L 103.649226 77.938839 
L 103.466535 79.313374 
L 103.591122 80.577453 
L 103.99866 81.716201 
L 104.674118 82.711199 
L 105.610919 83.540385 
L 106.809678 84.177714 
L 108.276635 84.59269 
L 110.021697 84.749946 
L 112.055843 84.609147 
L 114.387501 84.125655 
L 117.017286 83.252596 
L 119.930383 81.945211 
L 123.085838 80.168609 
L 126.402608 77.909945 
L 129.74392 75.195363 
L 132.904871 72.11 
L 134.334696 70.475559 
L 135.612901 68.815662 
L 136.699065 67.163431 
L 137.55359 65.556172 
L 138.140257 64.034007 
L 138.428962 62.637963 
L 138.398309 61.407609 
L 138.037676 60.378443 
L 137.348424 59.579268 
L 136.344032 59.029919 
L 135.049139 58.739621 
L 133.497668 58.706275 
L 131.730355 58.916808 
L 129.792076 59.348576 
L 127.729304 59.971658 
L 123.411536 61.65297 
L 119.10936 63.684903 
L 115.086171 65.841547 
L 111.52111 67.979406 
L 108.509402 70.029929 
L 106.075708 71.973255 
L 104.195335 73.812413 
L 102.81632 75.556326 
L 101.877194 77.211472 
L 101.318693 78.779143 
L 101.090128 80.255378 
L 101.15201 81.63176 
L 101.476482 82.896205 
L 102.046625 84.033384 
L 102.855312 85.024729 
L 103.903932 85.848055 
L 105.201087 86.476884 
L 106.761217 86.879586 
L 108.602992 87.018501 
L 110.747151 86.849293 
L 113.213304 86.320975 
L 116.014952 85.377292 
L 119.151671 83.960523 
L 122.597147 82.019196 
L 126.282031 79.521446 
L 130.072133 76.475346 
L 131.941475 74.766596 
L 133.746762 72.95553 
L 135.445284 71.066445 
L 136.989316 69.130746 
L 138.3279 67.186891 
L 139.409502 65.279666 
L 140.18544 63.458691 
L 140.613794 61.776084 
L 140.6633 60.283376 
L 140.316627 59.027889 
L 139.57244 58.048957 
L 138.445847 57.374474 
L 136.967124 57.018256 
L 135.178993 56.978688 
L 133.13299 57.238941 
L 130.885581 57.768807 
L 128.494605 58.527939 
L 126.016411 59.470015 
L 121.004458 61.714087 
L 116.206986 64.165626 
L 111.879928 66.599067 
L 108.171484 68.906248 
L 105.132499 71.06096 
L 102.741019 73.076824 
L 100.932178 74.977992 
L 99.62408 76.784841 
L 98.735343 78.50959 
L 98.194585 80.156628 
L 97.944229 81.72435 
L 97.941007 83.206968 
L 98.154898 84.595805 
L 98.567535 85.87997 
L 99.170606 87.046511 
L 99.964477 88.080123 
L 100.95709 88.962524 
L 102.16312 89.671531 
L 103.603272 90.179903 
L 105.303605 90.453982 
L 107.294657 90.452271 
L 109.610009 90.124135 
L 112.283742 89.409079 
L 115.345792 88.237387 
L 118.813663 86.533457 
L 122.678244 84.223933 
L 126.881153 81.253473 
L 129.069985 79.514264 
L 131.28251 77.611107 
L 133.482362 75.555793 
L 135.623891 73.368052 
L 137.652142 71.076842 
L 139.503896 68.721264 
L 141.110063 66.350784 
L 142.39963 64.024479 
L 143.305018 61.809008 
L 143.768366 59.77521 
L 143.747827 57.993402 
L 143.222715 56.527761 
L 142.196412 55.430409 
L 140.696305 54.736052 
L 138.770759 54.458029 
L 136.48382 54.586542 
L 133.908879 55.089546 
L 131.122574 55.916337 
L 128.199892 57.003362 
L 125.210857 58.281315 
L 119.278604 61.145659 
L 113.734654 64.075786 
L 108.850497 66.830327 
L 104.758634 69.335941 
L 101.471566 71.613816 
L 98.919984 73.716284 
L 96.994479 75.692669 
L 95.577287 77.577831 
L 94.560499 79.392063 
L 93.853661 81.144778 
L 93.385066 82.838459 
L 93.013259 85.264718 
L 92.930663 87.543437 
L 93.062465 89.661559 
L 93.370575 91.606805 
L 93.843147 93.367428 
L 94.488352 94.93047 
L 95.331328 96.279109 
L 96.022958 97.04756 
L 96.837058 97.700254 
L 97.793905 98.224061 
L 98.918013 98.601647 
L 100.238725 98.810198 
L 101.790914 98.819818 
L 103.615744 98.591577 
L 105.761369 98.075206 
L 108.28327 97.206572 
L 111.243567 95.905328 
L 114.707866 94.07362 
L 118.736814 91.59772 
L 123.367308 88.356039 
L 128.575737 84.239353 
L 131.357947 81.831564 
L 134.215525 79.191382 
L 137.09669 76.331253 
L 139.931185 73.276926 
L 142.629228 70.070523 
L 145.082901 66.773013 
L 147.171027 63.465315 
L 148.76817 60.247159 
L 149.757454 57.232968 
L 150.045533 54.544371 
L 149.576691 52.29972 
L 148.342428 50.601718 
L 146.383526 49.524961 
L 143.783702 49.105523 
L 140.65656 49.334639 
L 137.129676 50.158091 
L 133.330139 51.482127 
L 129.374644 53.185457 
L 125.365033 55.135331 
L 117.516826 59.284511 
L 96.958983 70.567912 
L 93.477224 72.81249 
L 90.826334 74.851978 
L 88.807471 76.77018 
L 87.242859 78.614833 
L 85.986324 80.409317 
L 84.433249 83.023823 
L 82.068269 87.161391 
L 80.469286 89.479654 
L 79.233824 90.938647 
L 77.814737 92.313612 
L 76.171068 93.586274 
L 74.261128 94.730551 
L 72.042631 95.709019 
L 69.474118 96.468413 
L 66.518402 96.934242 
L 64.886444 97.026559 
L 63.149276 97.005029 
L 61.307288 96.851963 
L 59.363456 96.547575 
L 57.324184 96.070129 
L 55.200326 95.396276 
L 53.00835 94.501685 
L 50.771618 93.362019 
L 48.521635 91.954367 
L 46.299085 90.259189 
L 44.154361 88.262797 
L 42.147201 85.960323 
L 40.345066 83.358969 
L 38.819922 80.481209 
L 37.643351 77.36739 
L 36.880316 74.077089 
L 36.582325 70.688529 
L 36.781196 67.295589 
L 37.484709 64.002265 
L 38.6752 60.915035 
L 40.311494 58.134097 
L 42.333762 55.744817 
L 44.670186 53.810797 
L 47.243999 52.369627 
L 49.979605 51.43184 
L 52.806991 50.982926 
L 55.664208 50.987706 
L 58.498262 51.396099 
L 61.264967 52.149232 
L 63.928346 53.185064 
L 66.459967 54.442966 
L 68.8384 55.867008 
L 71.048758 57.407966 
L 73.082224 59.024223 
L 74.935468 60.681826 
L 76.609908 62.353966 
L 79.446541 65.665155 
L 81.664762 68.851775 
L 83.358157 71.86374 
L 84.621667 74.684078 
L 85.54038 77.313808 
L 86.18487 79.762871 
L 86.610528 82.045045 
L 86.926173 85.187979 
L 86.931954 88.037709 
L 86.67385 90.638306 
L 86.16281 93.02812 
L 85.38151 95.239565 
L 84.690548 96.627784 
L 83.842476 97.953819 
L 82.813612 99.220736 
L 81.574888 100.428117 
L 80.091422 101.570437 
L 78.322068 102.634626 
L 76.21906 103.596517 
L 73.727976 104.415793 
L 70.788511 105.029028 
L 67.337041 105.340518 
L 65.399977 105.341643 
L 63.313132 105.211071 
L 61.071829 104.922641 
L 58.674191 104.446118 
L 56.122618 103.747118 
L 53.425746 102.78734 
L 50.60098 101.525269 
L 47.677547 99.917557 
L 44.699888 97.921356 
L 41.73094 95.497864 
L 38.854472 92.617296 
L 36.175335 89.265291 
L 33.816225 85.450401 
L 31.909815 81.211738 
L 30.585966 76.625221 
L 29.955293 71.806343 
L 30.092204 66.90741 
L 31.021708 62.10799 
L 32.714078 57.598952 
L 35.089309 53.562433 
L 38.030238 50.151601 
L 41.400428 47.474422 
L 45.061898 45.584677 
L 48.888638 44.481439 
L 52.774013 44.116124 
L 56.632424 44.404637 
L 60.397146 45.241553 
L 64.016668 46.5136 
L 67.451393 48.11059 
L 70.671584 49.932996 
L 73.656487 51.896176 
L 76.394063 53.931827 
L 78.880674 55.987419 
L 81.120343 58.024419 
L 83.123524 60.015938 
L 86.485031 63.79871 
L 89.11842 67.266489 
L 91.188267 70.409085 
L 93.56016 74.549852 
L 97.555181 81.933327 
L 98.633376 83.531375 
L 99.779002 84.914901 
L 101.033383 86.081025 
L 102.435057 87.020207 
L 104.021364 87.715626 
L 105.829359 88.142407 
L 107.895978 88.266809 
L 110.257183 88.045621 
L 112.945612 87.426238 
L 115.985886 86.348221 
L 119.386257 84.747649 
L 123.12484 82.566137 
L 127.12886 79.766832 
L 129.187082 78.135818 
L 131.24729 76.359311 
L 133.273753 74.451227 
L 135.223044 72.432723 
L 137.044436 70.33309 
L 138.681231 68.190243 
L 140.073204 66.050554 
L 141.1602 63.967807 
L 141.886709 62.001116 
L 142.206922 60.211765 
L 142.089534 58.659125 
L 141.521439 57.395993 
L 140.509555 56.463897 
L 139.080368 55.889039 
L 137.27729 55.67951 
L 135.156405 55.824345 
L 132.781505 56.294676 
L 130.219316 57.046938 
L 127.535562 58.027667 
L 122.045427 60.444914 
L 116.733304 63.125966 
L 111.906751 65.779661 
L 107.749362 68.267163 
L 104.328815 70.559393 
L 101.623221 72.68052 
L 99.556674 74.668006 
L 98.031347 76.553492 
L 96.949363 78.357411 
L 96.224409 80.089921 
L 95.786118 81.753692 
L 95.580351 83.346594 
L 95.567633 84.863655 
L 95.72101 86.298259 
L 96.023976 87.642724 
L 96.46874 88.888412 
L 97.054884 90.025503 
L 97.78842 91.042515 
L 98.681179 91.925593 
L 99.750468 92.657589 
L 101.018934 93.216916 
L 102.514541 93.576164 
L 104.270565 93.700473 
L 106.325402 93.545735 
L 108.721907 93.056771 
L 111.505639 92.165919 
L 114.720942 90.792802 
L 118.402899 88.846816 
L 122.562024 86.234857 
L 127.15741 82.878156 
L 129.581859 80.907028 
L 132.054888 78.742947 
L 134.536272 76.396577 
L 136.973419 73.888176 
L 139.300824 71.249554 
L 141.440925 68.525613 
L 143.306925 65.775072 
L 144.807944 63.069863 
L 145.856454 60.492759 
L 146.37728 58.132984 
L 146.316768 56.079867 
L 145.650228 54.415066 
L 144.385852 53.204287 
L 142.563959 52.489735 
L 140.251725 52.284612 
L 137.53472 52.570793 
L 134.507423 53.300405 
L 131.264822 54.401372 
L 127.896442 55.786181 
L 127.896442 55.786181 
" clip-path="url(#pcf159ae325)" style="fill: none; stroke: #1f77b4; stroke-width: 1.5; stroke-linecap: round"/>
   </g>
   <g id="line2d_25">
    <path d="M 125.307796 99.072132 
L 127.191822 96.214372 
L 129.358197 93.284343 
L 142.523129 76.478436 
L 145.116634 72.660692 
L 147.473038 68.77622 
L 149.475251 64.912021 
L 151.003256 61.180124 
L 151.942656 57.711899 
L 152.195361 54.647791 
L 151.69115 52.122897 
L 150.398147 50.250079 
L 148.329877 49.103669 
L 145.546885 48.707466 
L 142.151918 49.030258 
L 138.279205 49.990384 
L 134.07992 51.468366 
L 129.706757 53.324472 
L 125.300502 55.417021 
L 116.840041 59.821568 
L 106.036817 65.813459 
L 97.969855 70.46237 
L 93.961542 72.92737 
L 90.834015 75.053402 
L 88.394606 76.965327 
L 86.468594 78.750692 
L 84.906268 80.462305 
L 82.978514 82.944463 
L 79.513858 87.622291 
L 78.229919 89.062032 
L 76.793358 90.415641 
L 75.158303 91.661057 
L 73.281677 92.769618 
L 71.123493 93.70308 
L 68.648872 94.409848 
L 65.83243 94.820669 
L 64.29247 94.887588 
L 62.66583 94.844495 
L 60.956026 94.676187 
L 59.169315 94.366002 
L 57.315295 93.89605 
L 55.407524 93.247629 
L 53.464144 92.401873 
L 51.508443 91.340687 
L 49.56927 90.048003 
L 47.681212 88.511374 
L 45.88439 86.723877 
L 44.223769 84.686237 
L 42.747836 82.408988 
L 41.506611 79.914426 
L 40.548977 77.238001 
L 39.919464 74.428776 
L 39.654765 71.548596 
L 39.780355 68.669762 
L 40.307695 65.871184 
L 41.232479 63.233323 
L 42.534263 60.832456 
L 44.177616 58.735051 
L 46.114675 56.993038 
L 48.288727 55.640638 
L 50.638326 54.693123 
L 53.101369 54.147521 
L 55.618666 53.984943 
L 58.136692 54.174014 
L 60.609379 54.674793 
L 62.998997 55.442638 
L 65.276248 56.431602 
L 67.419792 57.597132 
L 69.415402 58.89798 
L 71.254925 60.297379 
L 72.935197 61.763599 
L 74.456995 63.270022 
L 75.824089 64.794894 
L 78.119402 67.834464 
L 79.883088 70.786428 
L 81.185218 73.598889 
L 82.093756 76.248826 
L 82.668838 78.730886 
L 82.960025 81.049744 
L 83.005375 83.215152 
L 82.831575 85.2388 
L 82.454565 87.132333 
L 81.880339 88.906022 
L 81.105719 90.567757 
L 80.119016 92.122082 
L 78.900595 93.56906 
L 77.423421 94.902728 
L 75.65381 96.108908 
L 73.552721 97.162111 
L 71.078141 98.021281 
L 68.189432 98.624209 
L 66.579222 98.802711 
L 64.854873 98.88079 
L 63.015833 98.841673 
L 61.063999 98.666058 
L 59.004483 98.33209 
L 56.846502 97.815496 
L 54.604373 97.089964 
L 52.298571 96.127866 
L 49.956763 94.901424 
L 47.614717 93.384417 
L 45.3169 91.554502 
L 43.116554 89.396164 
L 41.074992 86.904193 
L 39.25987 84.087431 
L 37.742244 80.972348 
L 36.592379 77.605813 
L 35.874478 74.056297 
L 35.640833 70.412776 
L 35.926134 66.780846 
L 36.742876 63.276005 
L 38.078775 60.014724 
L 39.896806 57.104491 
L 42.138034 54.634436 
L 44.726791 52.668096 
L 47.577347 51.23948 
L 50.60094 50.35283 
L 53.712147 49.985745 
L 56.833842 50.094692 
L 59.900398 50.621713 
L 62.859181 51.50116 
L 65.670601 52.665591 
L 68.307159 54.050344 
L 70.751892 55.59663 
L 72.996554 57.253276 
L 75.03981 58.977365 
L 76.885559 60.734078 
L 78.541497 62.496035 
L 81.326748 65.957674 
L 83.493221 69.255224 
L 85.144829 72.339751 
L 86.379647 75.197274 
L 87.283999 77.833111 
L 87.930305 80.262163 
L 88.540439 83.55949 
L 88.844285 86.499276 
L 88.929747 89.963978 
L 88.753529 93.012811 
L 88.35177 95.735087 
L 87.889481 97.605261 
L 87.25709 99.356312 
L 86.406208 101.010042 
L 85.266829 102.585012 
L 84.30022 103.598104 
L 83.125621 104.583824 
L 81.697642 105.540285 
L 79.961432 106.459901 
L 77.851596 107.325819 
L 75.291806 108.106357 
L 72.196033 108.746557 
L 68.47309 109.155794 
L 66.348994 109.23159 
L 64.037476 109.190554 
L 61.532295 109.002922 
L 58.831196 108.632828 
L 55.937672 108.037755 
L 52.863158 107.168312 
L 49.629659 105.968595 
L 46.272745 104.377482 
L 42.844691 102.331288 
L 39.417394 99.768251 
L 36.084426 96.635248 
L 32.961343 92.896894 
L 30.183182 88.546654 
L 27.898083 83.618751 
L 26.256422 78.198655 
L 25.395716 72.428986 
L 25.422998 66.507427 
L 26.397793 60.674204 
L 28.319765 55.189094 
L 31.124692 50.301271 
L 34.690598 46.218239 
L 38.852992 43.081109 
L 43.425595 40.95186 
L 48.221675 39.814535 
L 53.071685 39.588284 
L 57.834704 40.147483 
L 62.403323 41.343491 
L 66.703171 43.023756 
L 70.688988 45.045896 
L 74.339079 47.286222 
L 77.64955 49.643419 
L 80.629125 52.038677 
L 83.294906 54.413625 
L 85.669131 56.727185 
L 89.64406 61.071849 
L 92.760989 64.965879 
L 95.217328 68.394781 
L 98.822171 73.977696 
L 101.555121 78.12096 
L 102.839806 79.730234 
L 104.166972 81.054944 
L 105.594222 82.100904 
L 107.170092 82.86443 
L 108.935462 83.332525 
L 110.92369 83.483305 
L 113.159219 83.286917 
L 115.654317 82.707503 
L 118.403666 81.706933 
L 121.376679 80.251325 
L 124.507915 78.321404 
L 127.686997 75.927281 
L 130.751035 73.126818 
L 132.174373 71.609955 
L 133.484541 70.043888 
L 134.648629 68.456167 
L 135.633187 66.878847 
L 136.40573 65.347607 
L 136.936498 63.900382 
L 137.200356 62.575515 
L 137.178674 61.409541 
L 136.860981 60.434802 
L 136.246179 59.677151 
L 135.343153 59.154037 
L 134.170623 58.873246 
L 132.756246 58.832499 
L 131.135021 59.019972 
L 129.347194 59.415659 
L 127.43589 59.993386 
L 123.415747 61.573603 
L 119.394092 63.516166 
L 115.620625 65.611308 
L 112.258487 67.712871 
L 109.39113 69.738608 
L 107.041174 71.654388 
L 105.191516 73.454669 
L 103.803385 75.146464 
L 102.829601 76.738957 
L 102.223313 78.238104 
L 101.943187 79.644597 
L 101.956107 80.953622 
L 102.238264 82.155345 
L 102.775244 83.23545 
L 103.561543 84.175415 
L 104.599702 84.952417 
L 105.899142 85.538888 
L 107.474603 85.901803 
L 109.343995 86.001918 
L 111.52528 85.793261 
L 114.031914 85.223404 
L 116.866231 84.235354 
L 120.010197 82.772274 
L 123.413268 80.786631 
L 126.977965 78.255381 
L 130.545584 75.201872 
L 132.261714 73.505776 
L 133.887251 71.722338 
L 135.38338 69.878908 
L 136.708724 68.00957 
L 137.820919 66.154663 
L 138.678663 64.359629 
L 139.244161 62.673082 
L 139.4858 61.144165 
L 139.380784 59.819339 
L 138.917439 58.738921 
L 138.096825 57.933802 
L 136.933405 57.422818 
L 135.454579 57.211201 
L 133.699095 57.290396 
L 131.714501 57.639289 
L 129.553962 58.226643 
L 127.272853 59.014349 
L 122.562575 61.025197 
L 117.962089 63.356977 
L 113.743381 65.764963 
L 110.063208 68.099476 
L 106.982454 70.293282 
L 104.495613 72.333385 
L 102.558508 74.233793 
L 101.109368 76.016422 
L 100.082857 77.700586 
L 99.418408 79.298749 
L 99.0646 80.815902 
L 98.980989 82.250537 
L 99.138468 83.596015 
L 99.518835 84.841695 
L 100.114031 85.973564 
L 100.925267 86.974338 
L 101.962169 87.823043 
L 103.2419 88.494152 
L 104.788166 88.956355 
L 106.629848 89.17107 
L 108.798894 89.090889 
L 111.326891 88.658344 
L 114.239532 87.805671 
L 117.547979 86.456803 
L 121.236053 84.533531 
L 125.242618 81.968544 
L 127.328633 80.432751 
L 129.439879 78.728331 
L 131.546333 76.862019 
L 133.611423 74.847464 
L 135.592028 72.706584 
L 137.438983 70.47068 
L 139.098238 68.181066 
L 140.512801 65.888932 
L 141.625503 63.654143 
L 142.382518 61.54279 
L 142.737424 59.623416 
L 142.655412 57.962122 
L 142.11711 56.617011 
L 141.121421 55.632718 
L 139.686829 55.035907 
L 137.85083 54.832569 
L 135.667442 55.007689 
L 133.203089 55.527401 
L 130.531489 56.343236 
L 127.728252 57.397675 
L 124.865955 58.630039 
L 119.21703 61.400661 
L 113.987629 64.275564 
L 109.409997 67.023307 
L 105.571702 69.547454 
L 102.461611 71.840296 
L 100.013059 73.936638 
L 98.135491 75.882028 
L 96.734354 77.716195 
L 95.722105 79.467185 
L 95.023367 81.151352 
L 94.576594 82.775768 
L 94.333823 84.3411 
L 94.277417 86.57052 
L 94.527069 88.639939 
L 95.051994 90.525375 
L 95.556494 91.666696 
L 96.195228 92.704524 
L 96.984203 93.627322 
L 97.945609 94.420611 
L 99.10806 95.065683 
L 100.506922 95.537968 
L 102.184555 95.804969 
L 104.190211 95.823713 
L 106.57911 95.537748 
L 109.40993 94.87391 
L 112.739519 93.73954 
L 116.613021 92.021662 
L 121.047014 89.59109 
L 123.465281 88.066897 
L 126.003046 86.316551 
L 128.640738 84.328457 
L 131.350147 82.09616 
L 134.092948 79.620781 
L 136.819451 76.913863 
L 139.467844 74.000413 
L 141.964267 70.921827 
L 144.224121 67.738149 
L 146.154989 64.528974 
L 147.661442 61.39218 
L 148.651742 58.439775 
L 149.046072 55.790464 
L 148.78541 53.559213 
L 147.839713 51.844917 
L 146.213802 50.718192 
L 143.949501 50.211787 
L 141.123179 50.315938 
L 137.838824 50.979975 
L 134.217833 52.120008 
L 130.387424 53.630917 
L 126.46973 55.399967 
L 118.787338 59.2953 
L 111.799352 63.142409 
L 103.228545 68.135536 
L 98.827307 70.876863 
L 95.350085 73.244148 
L 92.638807 75.348499 
L 90.532609 77.283572 
L 88.884776 79.115075 
L 87.568935 80.882827 
L 85.992162 83.455711 
L 82.379093 89.888682 
L 80.738496 92.088153 
L 79.440765 93.466881 
L 77.930437 94.760244 
L 76.163054 95.94896 
L 74.092009 97.004824 
L 71.669672 97.886388 
L 68.850518 98.533368 
L 65.59736 98.859861 
L 63.801233 98.867275 
L 61.892182 98.747103 
L 59.87376 98.478429 
L 57.753272 98.037863 
L 55.542722 97.399808 
L 53.259849 96.537032 
L 50.929175 95.421633 
L 48.582982 94.02651 
L 46.26205 92.327424 
L 44.015978 90.305693 
L 41.902821 87.951463 
L 39.987813 85.267378 
L 38.340938 82.272288 
L 37.033243 79.00442 
L 36.131981 75.523315 
L 35.694929 71.909745 
L 35.764544 68.263008 
L 36.362808 64.695345 
L 37.487738 61.323819 
L 39.112301 58.260626 
L 41.186115 55.603298 
L 43.639736 53.426442 
L 46.390835 51.776362 
L 49.351196 50.669314 
L 52.433454 50.093321 
L 55.55669 50.01284 
L 58.650363 50.375106 
L 61.656479 51.116966 
L 64.530189 52.171193 
L 67.239205 53.47162 
L 69.762444 54.956843 
L 72.088289 56.572492 
L 74.212758 58.272281 
L 76.137766 60.01815 
L 77.869581 61.77978 
L 79.417533 63.533755 
L 82.008355 66.953556 
L 84.011305 70.190436 
L 85.529352 73.207741 
L 86.657395 75.998429 
L 87.477667 78.571375 
L 88.276373 82.059402 
L 88.706835 85.159881 
L 88.885454 87.935577 
L 88.8508 91.224252 
L 88.573957 94.135896 
L 88.0636 96.75146 
L 87.500438 98.5582 
L 86.738905 100.258161 
L 85.718052 101.871403 
L 84.85222 102.90675 
L 83.800597 103.913561 
L 82.522726 104.892102 
L 80.969441 105.838335 
L 79.081646 106.741179 
L 76.789475 107.578181 
L 74.012463 108.308863 
L 70.661957 108.864748 
L 66.647922 109.135035 
L 64.366973 109.112248 
L 61.893788 108.947426 
L 59.22554 108.605722 
L 56.364861 108.045742 
L 53.321971 107.219275 
L 50.117224 106.071559 
L 46.784039 104.542423 
L 43.372018 102.568715 
L 39.949889 100.088487 
L 36.607705 97.047339 
L 33.457443 93.407129 
L 30.630961 89.156757 
L 28.274259 84.323971 
L 26.537329 78.986122 
L 25.559715 73.276851 
L 25.453237 67.385326 
L 26.284795 61.545375 
L 28.063205 56.014072 
L 30.733838 51.042555 
L 34.183211 46.844916 
L 38.252924 43.572362 
L 42.759691 41.298588 
L 47.516699 40.018927 
L 52.351863 39.661762 
L 57.120186 40.107733 
L 61.709568 41.211374 
L 66.041049 42.820661 
L 70.065341 44.791819 
L 73.757478 46.998619 
L 77.111074 49.336716 
L 80.133057 51.724252 
L 82.839305 54.100077 
L 85.251272 56.420751 
L 89.291905 60.79114 
L 92.460742 64.71816 
L 94.955761 68.181771 
L 97.813526 72.565973 
L 101.34479 78.03447 
L 102.623453 79.672818 
L 103.939274 81.026838 
L 105.35068 82.103127 
L 106.906984 82.898788 
L 108.649902 83.401581 
L 110.613847 83.590273 
L 112.824705 83.435444 
L 115.296789 82.901254 
L 118.027655 81.948883 
L 120.990588 80.542661 
L 124.125075 78.659958 
L 127.326455 76.305569 
L 130.437576 73.530031 
L 131.895206 72.017393 
L 133.247256 70.448602 
L 134.460784 68.850243 
L 135.501944 67.253626 
L 136.337433 65.694035 
L 136.936224 64.209459 
L 137.271476 62.83883 
L 137.322474 61.619849 
L 137.076382 60.586577 
L 136.529628 59.767041 
L 135.688679 59.181157 
L 134.5701 58.83926 
L 133.199816 58.741466 
L 131.611653 58.877972 
L 129.845304 59.230262 
L 127.94396 59.773021 
L 123.912107 61.308928 
L 119.845038 63.237007 
L 116.004634 65.338561 
L 112.56539 67.458048 
L 109.61937 69.506035 
L 107.194649 71.444137 
L 105.276889 73.265035 
L 103.828136 74.975571 
L 102.800794 76.585585 
L 102.146902 78.101984 
L 101.823692 79.52642 
L 101.796524 80.854946 
L 102.040114 82.078497 
L 102.538698 83.183469 
L 103.285594 84.152064 
L 104.282384 84.962241 
L 105.537799 85.587312 
L 107.066263 85.995236 
L 108.885885 86.147813 
L 111.015572 86.000052 
L 113.470789 85.500192 
L 116.257358 84.591162 
L 119.362685 83.21462 
L 122.744014 81.319146 
L 126.314092 78.874303 
L 129.926211 75.891592 
L 131.683045 74.220092 
L 133.363299 72.450974 
L 134.928996 70.609206 
L 136.339041 68.726647 
L 137.550617 66.841809 
L 138.521088 64.998974 
L 139.210353 63.246542 
L 139.58351 61.634602 
L 139.613604 60.211847 
L 139.284153 59.022085 
L 138.591116 58.100746 
L 137.543971 57.471877 
L 136.165699 57.146086 
L 134.491578 57.119807 
L 132.566916 57.376024 
L 130.443997 57.886343 
L 128.178623 58.61408 
L 125.826702 59.517851 
L 121.069994 61.685437 
L 116.52646 64.08586 
L 112.433001 66.501286 
L 108.913404 68.810015 
L 106.003381 70.965841 
L 103.681063 72.96805 
L 101.893289 74.835896 
L 100.57459 76.592156 
L 99.659297 78.25487 
L 99.08846 79.834558 
L 98.813243 81.334347 
L 98.796161 82.75125 
L 99.011083 84.077555 
L 99.442637 85.301854 
L 100.085366 86.409542 
L 100.942865 87.382772 
L 102.026931 88.199908 
L 103.356721 88.834554 
L 104.957746 89.254223 
L 106.860459 89.418767 
L 109.098011 89.278791 
L 111.702554 88.774439 
L 114.699263 87.835346 
L 118.097 86.383086 
L 121.874551 84.33824 
L 125.961865 81.634995 
L 128.080873 80.025571 
L 130.21735 78.246307 
L 132.338763 76.305957 
L 134.40582 74.220786 
L 136.372598 72.015927 
L 138.187247 69.726413 
L 139.79342 67.397621 
L 141.132524 65.084829 
L 142.146825 62.851598 
L 142.783287 60.766808 
L 142.997855 58.900362 
L 142.759738 57.317834 
L 142.055086 56.074665 
L 140.88945 55.210734 
L 139.288514 54.746234 
L 137.296811 54.67967 
L 134.974528 54.988416 
L 132.392815 55.631769 
L 129.628307 56.555934 
L 126.757656 57.700021 
L 120.977192 60.40388 
L 115.514782 63.315192 
L 110.659804 66.14897 
L 106.541375 68.769266 
L 103.172773 71.147187 
L 100.498327 73.310571 
L 98.429767 75.30613 
L 96.869925 77.178077 
L 95.726292 78.959438 
L 94.917699 80.670764 
L 94.376806 82.322204 
L 94.050237 83.916498 
L 93.876895 86.195834 
L 94.007293 88.325573 
L 94.397565 90.284615 
L 95.041064 92.049492 
L 95.621876 93.104949 
L 96.340451 94.052129 
L 97.217349 94.878544 
L 98.279274 95.568029 
L 99.559485 96.099266 
L 101.098232 96.443897 
L 102.942986 96.564157 
L 105.148114 96.409966 
L 107.77339 95.915586 
L 110.880346 94.996238 
L 114.524922 93.545708 
L 118.744175 91.437178 
L 121.070524 90.092656 
L 123.53424 88.531384 
L 126.122966 86.737621 
L 128.816962 84.698796 
L 131.587495 82.407582 
L 134.39525 79.864475 
L 137.188976 77.080815 
L 139.90462 74.082052 
L 142.465357 70.910903 
L 144.782915 67.629831 
L 146.76063 64.322076 
L 148.298537 61.090366 
L 149.300511 58.052496 
L 149.68307 55.333363 
L 149.384875 53.053706 
L 148.37547 51.316824 
L 146.661494 50.195473 
L 144.288801 49.721689 
L 141.339574 49.88208 
L 137.924644 50.619978 
L 134.172354 51.844122 
L 130.21611 53.441855 
L 126.182844 55.293829 
L 118.310943 59.32542 
L 111.192203 63.258015 
L 102.513272 68.298481 
L 98.076987 71.038683 
L 94.579322 73.393293 
L 91.853042 75.480974 
L 89.73098 77.399229 
L 88.062152 79.215218 
L 86.717226 80.968884 
L 85.076991 83.522036 
L 81.679342 89.133734 
L 80.563692 90.619277 
L 79.298546 92.034116 
L 77.840575 93.364101 
L 76.145946 94.59011 
L 74.169856 95.685225 
L 71.867283 96.610912 
L 69.195564 97.312105 
L 66.119686 97.711279 
L 64.423512 97.765675 
L 62.621548 97.702141 
L 60.716576 97.502065 
L 58.714618 97.144639 
L 56.625751 96.607062 
L 54.464998 95.864989 
L 52.253244 94.893293 
L 50.018114 93.667252 
L 47.794677 92.164204 
L 45.625839 90.365751 
L 43.562213 88.260461 
L 41.66127 85.846975 
L 39.985555 83.137248 
L 38.599855 80.159508 
L 37.567316 76.96039 
L 36.944715 73.605591 
L 36.777346 70.17848 
L 37.094172 66.776305 
L 37.904032 63.504062 
L 39.19364 60.466595 
L 40.927848 57.759986 
L 43.052261 55.463565 
L 45.497817 53.633812 
L 48.186592 52.301086 
L 51.037896 51.469477 
L 53.973824 51.119487 
L 56.923616 51.212748 
L 59.826548 51.697785 
L 62.633351 52.515848 
L 65.306396 53.60609 
L 67.818966 54.909655 
L 70.153973 56.372513 
L 72.302408 57.947138 
L 74.26176 59.593216 
L 76.034518 61.277629 
L 77.626869 62.973971 
L 80.307121 66.325727 
L 82.388784 69.540803 
L 83.965877 72.566824 
L 85.128193 75.385692 
L 85.955139 77.99894 
L 86.513234 80.418382 
L 86.855733 82.660501 
L 87.051377 85.730373 
L 86.943221 88.499831 
L 86.577508 91.020322 
L 85.96325 93.334835 
L 85.077642 95.477841 
L 84.311723 96.824283 
L 83.379269 98.111127 
L 82.250566 99.340642 
L 80.888732 100.511209 
L 79.249094 101.615486 
L 77.278771 102.637532 
L 74.916896 103.548446 
L 72.096213 104.299946 
L 68.747334 104.815301 
L 66.85462 104.949758 
L 64.807713 104.97728 
L 62.602609 104.874513 
L 60.238445 104.613772 
L 57.718742 104.162735 
L 55.052919 103.484377 
L 52.258071 102.537291 
L 49.360959 101.276608 
L 46.400086 99.655758 
L 43.427637 97.62933 
L 40.510919 95.157283 
L 37.732813 92.210579 
L 35.190638 88.778113 
L 32.992796 84.87436 
L 31.25273 80.546649 
L 30.080143 75.880442 
L 29.570065 71.00068 
L 29.791159 66.06744 
L 30.775392 61.265063 
L 32.511388 56.78544 
L 34.943339 52.807952 
L 37.976132 49.479906 
L 41.485805 46.901501 
L 45.333129 45.118303 
L 49.377539 44.122122 
L 53.488932 43.859098 
L 57.555853 44.242315 
L 61.489648 45.165849 
L 65.225148 46.517663 
L 68.718869 48.189724 
L 71.945801 50.084772 
L 74.895709 52.119943 
L 77.569526 54.227873 
L 79.976193 56.356075 
L 82.13007 58.465299 
L 84.048921 60.527433 
L 87.260919 64.440848 
L 89.774344 68.016727 
L 91.744345 71.238784 
L 93.977643 75.443835 
L 98.092656 83.61145 
L 99.092188 85.075422 
L 100.185875 86.328062 
L 101.417549 87.366885 
L 102.829387 88.181418 
L 104.463214 88.752378 
L 106.360976 89.050647 
L 108.564057 89.036162 
L 111.110983 88.657062 
L 114.032775 87.849724 
L 117.345018 86.540912 
L 121.035636 84.653924 
L 125.04768 82.121481 
L 127.138919 80.600102 
L 129.257813 78.90838 
L 131.374905 77.05254 
L 133.45415 75.045616 
L 135.452873 72.908834 
L 137.322215 70.672771 
L 139.008243 68.37806 
L 140.453819 66.075335 
L 141.601313 63.824146 
L 142.396091 61.690605 
L 142.790579 59.743709 
L 142.748511 58.05048 
L 142.248856 56.670396 
L 141.288795 55.649819 
L 139.8852 55.017322 
L 138.074232 54.780775 
L 135.908982 54.926787 
L 133.455453 55.422677 
L 130.787437 56.22061 
L 127.981074 57.263145 
L 125.109805 58.489186 
L 119.429775 61.260591 
L 114.159172 64.147456 
L 109.537657 66.911156 
L 105.657623 69.450631 
L 102.510374 71.756129 
L 100.029993 73.862164 
L 98.125672 75.814854 
L 96.702096 77.65476 
L 95.670759 79.410709 
L 94.955288 81.099669 
L 94.49319 82.729148 
L 94.235626 84.30012 
L 94.156293 86.539562 
L 94.379927 88.621458 
L 94.873313 90.522624 
L 95.352464 91.676807 
L 95.961418 92.729967 
L 96.715247 93.671247 
L 97.635102 94.487073 
L 98.748451 95.159934 
L 100.089433 95.666831 
L 101.699177 95.977301 
L 103.625852 96.050968 
L 105.924018 95.834593 
L 108.652619 95.258802 
L 111.870498 94.23502 
L 115.627778 92.653889 
L 119.950797 90.387749 
L 122.320449 88.955364 
L 124.817873 87.301795 
L 127.427042 85.413449 
L 130.123915 83.280896 
L 132.874901 80.901127 
L 135.635439 78.280266 
L 138.34894 75.436608 
L 140.946399 72.403726 
L 143.347063 69.233182 
L 145.460573 65.996224 
L 147.190914 62.783659 
L 148.442347 59.703097 
L 149.127149 56.872969 
L 149.174492 54.413225 
L 148.539325 52.433434 
L 147.209671 51.019958 
L 145.210743 50.22458 
L 142.604638 50.057185 
L 139.485263 50.484405 
L 135.969222 51.434795 
L 132.184357 52.809412 
L 128.258053 54.495358 
L 124.307274 56.379388 
L 116.709486 60.350118 
L 106.936726 65.86471 
L 99.561462 70.314934 
L 95.872647 72.75761 
L 92.990537 74.910245 
L 90.750813 76.873642 
L 89.001173 78.720799 
L 87.609279 80.497269 
L 85.95487 83.078243 
L 81.739288 90.287096 
L 80.606488 91.74433 
L 79.306609 93.12915 
L 77.796953 94.427542 
L 76.033215 95.619831 
L 73.969298 96.677517 
L 71.558437 97.559035 
L 68.756324 98.204288 
L 65.527299 98.528068 
L 63.746429 98.534185 
L 61.855047 98.413124 
L 59.856893 98.144353 
L 57.759417 97.704971 
L 55.574691 97.069991 
L 53.320415 96.212909 
L 51.020917 95.106663 
L 48.708081 93.725091 
L 46.422042 92.044933 
L 44.211455 90.048455 
L 42.133117 87.726606 
L 40.250695 85.082549 
L 38.632347 82.135201 
L 37.347149 78.922248 
L 36.460406 75.501952 
L 36.028192 71.953036 
L 36.091736 68.372043 
L 36.672486 64.867976 
L 37.768745 61.554507 
L 39.354613 58.540702 
L 41.381571 55.921622 
L 43.782553 53.770364 
L 46.477823 52.132833 
L 49.381688 51.02595 
L 52.408993 50.439277 
L 55.480554 50.339384 
L 58.527029 50.675874 
L 61.491107 51.387936 
L 64.328177 52.410442 
L 67.005839 53.678962 
L 69.502657 55.133416 
L 71.806511 56.720353 
L 73.912837 58.394061 
L 75.822945 60.116769 
L 77.542514 61.858231 
L 79.080316 63.594956 
L 81.655151 66.988282 
L 83.645066 70.207794 
L 85.150332 73.214914 
L 86.263754 76.000946 
L 87.065897 78.573485 
L 87.623543 80.948079 
L 88.114759 84.179793 
L 88.302741 87.071537 
L 88.267637 89.680557 
L 88.051356 92.055433 
L 87.666325 94.236485 
L 87.100901 96.257159 
L 86.321559 98.145316 
L 85.27212 99.923717 
L 84.38305 101.056848 
L 83.306073 102.151372 
L 82.001981 103.206918 
L 80.42326 104.218381 
L 78.51313 105.173146 
L 76.205051 106.046785 
L 73.423356 106.796524 
L 70.086245 107.351646 
L 66.113248 107.60003 
L 63.867052 107.558607 
L 61.44059 107.370728 
L 58.833114 107.002652 
L 56.049433 106.414761 
L 53.1019 105.561487 
L 50.01275 104.391798 
L 46.816718 102.850539 
L 43.563721 100.880986 
L 40.321269 98.428987 
L 37.176048 95.449001 
L 34.233919 91.912097 
L 31.617473 87.815524 
L 29.460272 83.192815 
L 27.897336 78.122515 
L 27.052148 72.732969 
L 27.021585 67.200416 
L 27.861338 61.738429 
L 29.575115 56.578646 
L 32.110656 51.94539 
L 35.364148 48.029109 
L 39.192429 44.964549 
L 43.430228 42.818439 
L 47.908553 41.58872 
L 52.470557 41.214073 
L 56.982548 41.590163 
L 61.339489 42.588159 
L 65.465726 44.071765 
L 69.31238 45.910445 
L 72.852962 47.988026 
L 76.07845 50.207046 
L 78.992653 52.489775 
L 81.60826 54.77704 
L 83.943708 57.025828 
L 87.8631 61.299584 
L 90.938747 65.183905 
L 93.355497 68.647144 
L 96.103879 73.089572 
L 100.016469 79.678275 
L 101.197309 81.29887 
L 102.432546 82.659424 
L 103.776475 83.763709 
L 105.276844 84.606459 
L 106.976403 85.173106 
L 108.913346 85.439545 
L 111.120349 85.372177 
L 113.62182 84.928619 
L 116.428837 84.059862 
L 119.531316 82.714966 
L 122.887148 80.8498 
L 126.408862 78.441386 
L 129.949962 75.508653 
L 131.663374 73.869306 
L 133.295662 72.137944 
L 134.809755 70.339845 
L 136.165799 68.506817 
L 137.322559 66.676883 
L 138.239303 64.893335 
L 138.878082 63.203059 
L 139.20628 61.654154 
L 139.199195 60.292954 
L 138.842382 59.160725 
L 138.133413 58.290415 
L 137.082795 57.703909 
L 135.713826 57.410217 
L 134.061363 57.404918 
L 132.169599 57.670953 
L 130.089134 58.180667 
L 127.873712 58.89875 
L 123.249831 60.800772 
L 118.68052 63.065733 
L 114.450172 65.441577 
L 110.730375 67.766953 
L 107.595266 69.963758 
L 105.049327 72.01127 
L 103.054989 73.919099 
L 101.554334 75.707249 
L 100.483893 77.394608 
L 99.783681 78.993918 
L 99.402086 80.510638 
L 99.298068 81.94367 
L 99.44174 83.286613 
L 99.814085 84.528873 
L 100.406246 85.656322 
L 101.218685 86.65143 
L 102.260297 87.492884 
L 103.547493 88.15477 
L 105.103129 88.605385 
L 106.955029 88.805816 
L 109.133744 88.708494 
L 111.668948 88.256112 
L 114.583717 87.381653 
L 117.8857 86.010742 
L 121.554227 84.068292 
L 125.522831 81.492045 
L 127.581209 79.955783 
L 129.658193 78.255773 
L 131.723274 76.399945 
L 133.739614 74.403162 
L 135.664143 72.288475 
L 137.448169 70.088103 
L 139.038629 67.843901 
L 140.380102 65.607038 
L 141.417599 63.436644 
L 142.100035 61.397234 
L 142.384158 59.554914 
L 142.238534 57.97258 
L 141.647075 56.704606 
L 140.611536 55.791739 
L 139.152506 55.257043 
L 137.30859 55.103637 
L 135.133804 55.31471 
L 132.693501 55.855849 
L 130.059424 56.679264 
L 127.304594 57.729133 
L 121.704447 60.277506 
L 116.353835 63.085105 
L 111.553632 65.861161 
L 107.449923 68.455705 
L 104.072365 70.825646 
L 101.378377 72.988248 
L 99.289065 74.983808 
L 97.713522 76.853323 
L 96.563253 78.628556 
L 95.759635 80.329743 
L 95.237032 81.967005 
L 94.943385 83.542973 
L 94.839489 85.05534 
L 94.897714 86.498827 
L 95.253287 88.519309 
L 95.659572 89.757688 
L 96.203596 90.898148 
L 96.895188 91.929594 
L 97.750783 92.838663 
L 98.793374 93.608665 
L 100.052625 94.218191 
L 101.565008 94.639354 
L 103.373755 94.835606 
L 105.528272 94.759125 
L 108.082443 94.347903 
L 111.090913 93.522943 
L 114.601966 92.186568 
L 118.645082 90.223861 
L 120.865479 88.968803 
L 123.21083 87.510871 
L 125.668997 85.836525 
L 128.221157 83.935253 
L 130.840431 81.801388 
L 133.490549 79.436341 
L 136.124731 76.851171 
L 138.685015 74.069337 
L 141.102346 71.129329 
L 143.297761 68.086701 
L 145.185029 65.014899 
L 146.674952 62.004186 
L 147.681384 59.158014 
L 148.128625 56.586509 
L 147.959448 54.397246 
L 147.14262 52.684259 
L 145.678502 51.516965 
L 143.601435 50.931172 
L 140.97808 50.924226 
L 137.901714 51.455619 
L 134.483394 52.453054 
L 130.841573 53.822659 
L 127.092004 55.461093 
L 119.672146 59.150639 
L 112.849939 62.876567 
L 104.392358 67.812267 
L 100.013706 70.561828 
L 96.54102 72.951589 
L 93.830278 75.081574 
L 91.729838 77.040263 
L 90.098909 78.891773 
L 88.815008 80.676157 
L 87.320247 83.26996 
L 85.352298 87.409425 
L 83.759529 90.531466 
L 82.334568 92.73774 
L 81.203928 94.133666 
L 79.883027 95.460452 
L 78.329417 96.706021 
L 76.496821 97.851817 
L 74.335152 98.86922 
L 71.791845 99.714629 
L 68.815396 100.322959 
L 65.362412 100.59954 
L 63.448801 100.573536 
L 61.410089 100.411175 
L 59.249939 100.088564 
L 56.976325 99.578801 
L 54.602683 98.85227 
L 52.149168 97.877307 
L 49.643942 96.621362 
L 47.124374 95.052805 
L 44.637938 93.143483 
L 42.242562 90.872087 
L 40.006111 88.228258 
L 38.004657 85.217162 
L 36.319271 81.864046 
L 35.031213 78.217975 
L 34.215698 74.353802 
L 33.934781 70.371354 
L 34.230298 66.391119 
L 35.118064 62.546297 
L 36.58454 58.971909 
L 38.586806 55.792501 
L 41.056073 53.110539 
L 43.904156 50.997547 
L 47.031751 49.489504 
L 50.337051 48.586958 
L 53.723355 48.259331 
L 57.10479 48.452073 
L 60.409761 49.095081 
L 63.582281 50.110881 
L 66.581617 51.421559 
L 69.380805 52.953907 
L 71.964571 54.642689 
L 74.327072 56.432274 
L 76.469723 58.276998 
L 78.399281 60.140661 
L 80.126232 61.995508 
L 83.025411 65.602499 
L 85.283288 68.997684 
L 87.018574 72.140901 
L 88.341082 75.026248 
L 89.346572 77.665454 
L 90.432042 81.206157 
L 91.401076 85.259303 
L 92.834089 91.597128 
L 93.450785 93.481845 
L 94.212265 95.124968 
L 94.833873 96.085503 
L 95.57363 96.933099 
L 96.458811 97.659182 
L 97.521561 98.250402 
L 98.799953 98.687322 
L 100.338997 98.942582 
L 102.1914 98.978449 
L 104.417768 98.743647 
L 107.085641 98.169499 
L 110.266322 97.165701 
L 114.027781 95.616723 
L 118.421068 93.381123 
L 120.860434 91.955958 
L 123.456717 90.298346 
L 126.198794 88.388828 
L 129.067507 86.210874 
L 132.033712 83.753218 
L 135.05629 81.012847 
L 138.080323 77.998615 
L 141.035788 74.735282 
L 143.837213 71.267589 
L 146.384846 67.663681 
L 148.567919 64.016918 
L 150.270457 60.444903 
L 151.379767 57.084597 
L 151.797168 54.082821 
L 151.449819 51.582358 
L 150.30173 49.705206 
L 148.361621 48.535896 
L 145.68551 48.108613 
L 142.372802 48.401558 
L 138.556222 49.340391 
L 134.387506 50.810127 
L 130.021773 52.672559 
L 125.603566 54.784982 
L 117.078751 59.258011 
L 106.136862 65.372567 
L 97.938747 70.115503 
L 93.85953 72.619988 
L 90.675086 74.770281 
L 88.190967 76.695633 
L 86.230038 78.487429 
L 84.640169 80.201252 
L 82.680287 82.682373 
L 79.165568 87.348426 
L 77.865753 88.780523 
L 76.413163 90.123497 
L 74.762186 91.354302 
L 72.870493 92.443127 
L 70.699463 93.350446 
L 68.216367 94.023361 
L 65.398957 94.391513 
L 63.862623 94.433599 
L 62.243198 94.36337 
L 60.54492 94.165779 
L 58.774842 93.824467 
L 56.94339 93.322041 
L 55.064961 92.640532 
L 53.158489 91.762091 
L 51.247941 90.669958 
L 49.362645 89.349747 
L 47.537355 87.791029 
L 45.811937 85.989189 
L 44.230558 83.947445 
L 42.84027 81.678841 
L 41.688966 79.207968 
L 40.822723 76.572062 
L 40.282691 73.821153 
L 40.10181 71.01696 
L 40.301719 68.230363 
L 40.890324 65.537514 
L 41.86039 63.014917 
L 43.18949 60.734018 
L 44.841342 58.75605 
L 46.768411 57.127837 
L 48.915392 55.879132 
L 51.223099 55.021763 
L 53.632237 54.550556 
L 56.086667 54.445699 
L 58.535868 54.676044 
L 60.936523 55.20279 
L 63.25325 55.983069 
L 65.458643 56.97306 
L 67.532784 58.130437 
L 69.462435 59.416105 
L 71.240058 60.795245 
L 72.862794 62.237804 
L 74.331482 63.718548 
L 76.823354 66.716093 
L 78.76554 69.669273 
L 80.222402 72.509148 
L 81.260363 75.200849 
L 81.940521 77.731213 
L 82.314739 80.099966 
L 82.42396 82.313824 
L 82.297864 84.382674 
L 81.955238 86.317106 
L 81.404667 88.126762 
L 80.645286 89.819104 
L 79.667498 91.3983 
L 78.453634 92.863989 
L 76.978637 94.209668 
L 75.21098 95.42049 
L 73.114158 96.470196 
L 70.649304 97.316978 
L 67.779781 97.898157 
L 66.184244 98.062319 
L 64.478915 98.123932 
L 62.664043 98.066518 
L 60.742376 97.871248 
L 58.719899 97.516967 
L 56.606687 96.98038 
L 54.41783 96.236497 
L 52.174406 95.259397 
L 49.904405 94.023429 
L 47.643493 92.504908 
L 45.435459 90.684384 
L 43.332129 88.54945 
L 41.392524 86.097977 
L 39.681059 83.341528 
L 38.264626 80.308495 
L 37.208564 77.04639 
L 36.571737 73.622604 
L 36.401167 70.123017 
L 36.726948 66.648067 
L 37.558251 63.306342 
L 38.881226 60.206291 
L 40.659289 57.447186 
L 42.835898 55.110732 
L 45.339392 53.254716 
L 48.089096 51.909637 
L 51.001718 51.078661 
L 53.997119 50.740534 
L 57.00281 50.854615 
L 59.956889 51.366955 
L 62.809432 52.216411 
L 65.522591 53.34001 
L 68.069773 54.67715 
L 70.434251 56.172475 
L 72.607532 57.77753 
L 74.587691 59.451419 
L 76.377836 61.160722 
L 77.984759 62.878942 
L 77.984759 62.878942 
" clip-path="url(#pcf159ae325)" style="fill: none; stroke: #ff7f0e; stroke-opacity: 0.5; stroke-width: 1.5; stroke-linecap: round"/>
   </g>
  </g>
 </g>
 <defs>
  <clipPath id="pcf159ae325">
   <rect x="-1.8" y="-7.2" width="176.4" height="176.4"/>
  </clipPath>
 </defs>
</svg>
