<?xml version="1.0" encoding="utf-8" standalone="no"?>
<!DOCTYPE svg PUBLIC "-//W3C//DTD SVG 1.1//EN"
  "http://www.w3.org/Graphics/SVG/1.1/DTD/svg11.dtd">
<svg xmlns:xlink="http://www.w3.org/1999/xlink" width="216pt" height="180pt" viewBox="0 0 216 180" xmlns="http://www.w3.org/2000/svg" version="1.1">
 <metadata>
  <rdf:RDF xmlns:dc="http://purl.org/dc/elements/1.1/" xmlns:cc="http://creativecommons.org/ns#" xmlns:rdf="http://www.w3.org/1999/02/22-rdf-syntax-ns#">
   <cc:Work>
    <dc:type rdf:resource="http://purl.org/dc/dcmitype/StillImage"/>
    <dc:date>2023-06-14T18:50:46.753931</dc:date>
    <dc:format>image/svg+xml</dc:format>
    <dc:creator>
     <cc:Agent>
      <dc:title>Matplotlib v3.7.0, https://matplotlib.org/</dc:title>
     </cc:Agent>
    </dc:creator>
   </cc:Work>
  </rdf:RDF>
 </metadata>
 <defs>
  <style type="text/css">*{stroke-linejoin: round; stroke-linecap: butt}</style>
 </defs>
 <g id="figure_1">
  <g id="patch_1">
   <path d="M 0 180 
L 216 180 
L 216 0 
L 0 0 
z
" style="fill: #ffffff"/>
  </g>
  <g id="patch_2">
   <path d="M -1 169.2 
L 174.6 169.2 
L 174.6 -1 
" style="fill: none"/>
  </g>
  <g id="pane3d_1">
   <g id="patch_3">
    <path d="M 11.519416 125.705413 
L 69.772457 76.876559 
L 68.962684 6.456623 
L 7.921935 51.001381 
" style="fill: none; opacity: 0.5; stroke: #f2f2f2; stroke-linejoin: miter"/>
   </g>
  </g>
  <g id="pane3d_2">
   <g id="patch_4">
    <path d="M 69.772457 76.876559 
L 163.247803 104.046152 
L 166.583609 31.200681 
L 68.962684 6.456623 
" style="fill: none; opacity: 0.5; stroke: #e6e6e6; stroke-linejoin: miter"/>
   </g>
  </g>
  <g id="pane3d_3">
   <g id="patch_5">
    <path d="M 11.519416 125.705413 
L 110.607849 158.067695 
L 163.247803 104.046152 
L 69.772457 76.876559 
" style="fill: none; opacity: 0.5; stroke: #ececec; stroke-linejoin: miter"/>
   </g>
  </g>
  <g id="axis3d_1">
   <g id="line2d_1">
    <path d="M 11.519416 125.705413 
L 110.607849 158.067695 
" style="fill: none; stroke: #ffffff; stroke-width: 0.8; stroke-linecap: round"/>
   </g>
   <g id="text_1">
    <!-- x -->
    <g style="fill: #262626" transform="translate(40.437569 179.640981) scale(0.1 -0.1)">
     <defs>
      <path id="DejaVuSans-78" d="M 3513 3500 
L 2247 1797 
L 3578 0 
L 2900 0 
L 1881 1375 
L 863 0 
L 184 0 
L 1544 1831 
L 300 3500 
L 978 3500 
L 1906 2253 
L 2834 3500 
L 3513 3500 
z
" transform="scale(0.015625)"/>
     </defs>
     <use xlink:href="#DejaVuSans-78"/>
    </g>
   </g>
   <g id="Line3DCollection_1">
    <path d="M 33.422199 132.858862 
L 90.505655 82.902881 
L 90.579837 11.935941 
" style="fill: none; stroke: #d3d3d3; stroke-width: 0.8"/>
    <path d="M 56.327581 140.33976 
L 112.144616 89.192473 
L 113.162958 17.660104 
" style="fill: none; stroke: #d3d3d3; stroke-width: 0.8"/>
    <path d="M 79.806746 148.008055 
L 134.279833 95.626306 
L 136.286834 23.521332 
" style="fill: none; stroke: #d3d3d3; stroke-width: 0.8"/>
    <path d="M 103.881529 155.870879 
L 156.928575 102.209402 
L 159.971124 29.524609 
" style="fill: none; stroke: #d3d3d3; stroke-width: 0.8"/>
   </g>
   <g id="xtick_1">
    <g id="line2d_2">
     <path d="M 88.783784 78.616216 
" clip-path="url(#p97fb9231af)" style="fill: none; stroke: #d3d3d3; stroke-width: 0.8; stroke-linecap: round"/>
    </g>
    <g id="line2d_3">
     <path d="M 33.919629 132.423542 
L 32.425188 133.731386 
" style="fill: none; stroke: #808080; stroke-width: 0.8; stroke-linecap: round"/>
    </g>
    <g id="text_2">
     <!-- −10 -->
     <g style="fill: #808080" transform="translate(15.350953 156.364318) scale(0.1 -0.1)">
      <defs>
       <path id="DejaVuSans-2212" d="M 678 2272 
L 4684 2272 
L 4684 1741 
L 678 1741 
L 678 2272 
z
" transform="scale(0.015625)"/>
       <path id="DejaVuSans-31" d="M 794 531 
L 1825 531 
L 1825 4091 
L 703 3866 
L 703 4441 
L 1819 4666 
L 2450 4666 
L 2450 531 
L 3481 531 
L 3481 0 
L 794 0 
L 794 531 
z
" transform="scale(0.015625)"/>
       <path id="DejaVuSans-30" d="M 2034 4250 
Q 1547 4250 1301 3770 
Q 1056 3291 1056 2328 
Q 1056 1369 1301 889 
Q 1547 409 2034 409 
Q 2525 409 2770 889 
Q 3016 1369 3016 2328 
Q 3016 3291 2770 3770 
Q 2525 4250 2034 4250 
z
M 2034 4750 
Q 2819 4750 3233 4129 
Q 3647 3509 3647 2328 
Q 3647 1150 3233 529 
Q 2819 -91 2034 -91 
Q 1250 -91 836 529 
Q 422 1150 422 2328 
Q 422 3509 836 4129 
Q 1250 4750 2034 4750 
z
" transform="scale(0.015625)"/>
      </defs>
      <use xlink:href="#DejaVuSans-2212"/>
      <use xlink:href="#DejaVuSans-31" x="83.789062"/>
      <use xlink:href="#DejaVuSans-30" x="147.412109"/>
     </g>
    </g>
   </g>
   <g id="xtick_2">
    <g id="line2d_4">
     <path d="M 88.783784 78.616216 
" clip-path="url(#p97fb9231af)" style="fill: none; stroke: #d3d3d3; stroke-width: 0.8; stroke-linecap: round"/>
    </g>
    <g id="line2d_5">
     <path d="M 56.814467 139.893607 
L 55.351675 141.23402 
" style="fill: none; stroke: #808080; stroke-width: 0.8; stroke-linecap: round"/>
    </g>
    <g id="text_3">
     <!-- 0 -->
     <g style="fill: #808080" transform="translate(45.665312 164.086041) scale(0.1 -0.1)">
      <use xlink:href="#DejaVuSans-30"/>
     </g>
    </g>
   </g>
   <g id="xtick_3">
    <g id="line2d_6">
     <path d="M 88.783784 78.616216 
" clip-path="url(#p97fb9231af)" style="fill: none; stroke: #d3d3d3; stroke-width: 0.8; stroke-linecap: round"/>
    </g>
    <g id="line2d_7">
     <path d="M 80.282402 147.55066 
L 78.853324 148.924874 
" style="fill: none; stroke: #808080; stroke-width: 0.8; stroke-linecap: round"/>
    </g>
    <g id="text_4">
     <!-- 10 -->
     <g style="fill: #808080" transform="translate(66.005399 172.002319) scale(0.1 -0.1)">
      <use xlink:href="#DejaVuSans-31"/>
      <use xlink:href="#DejaVuSans-30" x="63.623047"/>
     </g>
    </g>
   </g>
   <g id="xtick_4">
    <g id="line2d_8">
     <path d="M 88.783784 78.616216 
" clip-path="url(#p97fb9231af)" style="fill: none; stroke: #d3d3d3; stroke-width: 0.8; stroke-linecap: round"/>
    </g>
    <g id="line2d_9">
     <path d="M 104.345225 155.401812 
L 102.952054 156.811121 
" style="fill: none; stroke: #808080; stroke-width: 0.8; stroke-linecap: round"/>
    </g>
    <g id="text_5">
     <!-- 20 -->
     <g style="fill: #808080" transform="translate(90.126935 180.120597) scale(0.1 -0.1)">
      <defs>
       <path id="DejaVuSans-32" d="M 1228 531 
L 3431 531 
L 3431 0 
L 469 0 
L 469 531 
Q 828 903 1448 1529 
Q 2069 2156 2228 2338 
Q 2531 2678 2651 2914 
Q 2772 3150 2772 3378 
Q 2772 3750 2511 3984 
Q 2250 4219 1831 4219 
Q 1534 4219 1204 4116 
Q 875 4013 500 3803 
L 500 4441 
Q 881 4594 1212 4672 
Q 1544 4750 1819 4750 
Q 2544 4750 2975 4387 
Q 3406 4025 3406 3419 
Q 3406 3131 3298 2873 
Q 3191 2616 2906 2266 
Q 2828 2175 2409 1742 
Q 1991 1309 1228 531 
z
" transform="scale(0.015625)"/>
      </defs>
      <use xlink:href="#DejaVuSans-32"/>
      <use xlink:href="#DejaVuSans-30" x="63.623047"/>
     </g>
    </g>
   </g>
  </g>
  <g id="axis3d_2">
   <g id="line2d_10">
    <path d="M 163.247803 104.046152 
L 110.607849 158.067695 
" style="fill: none; stroke: #ffffff; stroke-width: 0.8; stroke-linecap: round"/>
   </g>
   <g id="text_6">
    <!-- y -->
    <g style="fill: #262626" transform="translate(162.133934 160.636398) scale(0.1 -0.1)">
     <defs>
      <path id="DejaVuSans-79" d="M 2059 -325 
Q 1816 -950 1584 -1140 
Q 1353 -1331 966 -1331 
L 506 -1331 
L 506 -850 
L 844 -850 
Q 1081 -850 1212 -737 
Q 1344 -625 1503 -206 
L 1606 56 
L 191 3500 
L 800 3500 
L 1894 763 
L 2988 3500 
L 3597 3500 
L 2059 -325 
z
" transform="scale(0.015625)"/>
     </defs>
     <use xlink:href="#DejaVuSans-79"/>
    </g>
   </g>
   <g id="Line3DCollection_2">
    <path d="M 15.377505 45.560646 
L 18.61081 119.761266 
L 117.040827 151.465877 
" style="fill: none; stroke: #d3d3d3; stroke-width: 0.8"/>
    <path d="M 28.084372 36.287754 
L 30.712144 109.617689 
L 128.002605 140.216396 
" style="fill: none; stroke: #d3d3d3; stroke-width: 0.8"/>
    <path d="M 40.343837 27.341354 
L 42.405531 99.816059 
L 138.575753 129.365745 
" style="fill: none; stroke: #d3d3d3; stroke-width: 0.8"/>
    <path d="M 52.179122 18.704502 
L 53.71126 90.339374 
L 148.780579 118.893083 
" style="fill: none; stroke: #d3d3d3; stroke-width: 0.8"/>
    <path d="M 63.611867 10.361406 
L 64.648292 81.171736 
L 158.635998 108.778999 
" style="fill: none; stroke: #d3d3d3; stroke-width: 0.8"/>
   </g>
   <g id="xtick_5">
    <g id="line2d_11">
     <path d="M 88.783784 78.616216 
" clip-path="url(#p97fb9231af)" style="fill: none; stroke: #d3d3d3; stroke-width: 0.8; stroke-linecap: round"/>
    </g>
    <g id="line2d_12">
     <path d="M 116.211546 151.198763 
L 118.701523 152.000792 
" style="fill: none; stroke: #808080; stroke-width: 0.8; stroke-linecap: round"/>
    </g>
    <g id="text_7">
     <!-- −20 -->
     <g style="fill: #808080" transform="translate(119.316572 172.427656) scale(0.1 -0.1)">
      <use xlink:href="#DejaVuSans-2212"/>
      <use xlink:href="#DejaVuSans-32" x="83.789062"/>
      <use xlink:href="#DejaVuSans-30" x="147.412109"/>
     </g>
    </g>
   </g>
   <g id="xtick_6">
    <g id="line2d_13">
     <path d="M 88.783784 78.616216 
" clip-path="url(#p97fb9231af)" style="fill: none; stroke: #d3d3d3; stroke-width: 0.8; stroke-linecap: round"/>
    </g>
    <g id="line2d_14">
     <path d="M 127.183671 139.958834 
L 129.642543 140.732171 
" style="fill: none; stroke: #808080; stroke-width: 0.8; stroke-linecap: round"/>
    </g>
    <g id="text_8">
     <!-- −10 -->
     <g style="fill: #808080" transform="translate(130.056325 160.926866) scale(0.1 -0.1)">
      <use xlink:href="#DejaVuSans-2212"/>
      <use xlink:href="#DejaVuSans-31" x="83.789062"/>
      <use xlink:href="#DejaVuSans-30" x="147.412109"/>
     </g>
    </g>
   </g>
   <g id="xtick_7">
    <g id="line2d_15">
     <path d="M 88.783784 78.616216 
" clip-path="url(#p97fb9231af)" style="fill: none; stroke: #d3d3d3; stroke-width: 0.8; stroke-linecap: round"/>
    </g>
    <g id="line2d_16">
     <path d="M 137.76696 129.117231 
L 140.195347 129.863388 
" style="fill: none; stroke: #808080; stroke-width: 0.8; stroke-linecap: round"/>
    </g>
    <g id="text_9">
     <!-- 0 -->
     <g style="fill: #808080" transform="translate(147.786083 149.834168) scale(0.1 -0.1)">
      <use xlink:href="#DejaVuSans-30"/>
     </g>
    </g>
   </g>
   <g id="xtick_8">
    <g id="line2d_17">
     <path d="M 88.783784 78.616216 
" clip-path="url(#p97fb9231af)" style="fill: none; stroke: #d3d3d3; stroke-width: 0.8; stroke-linecap: round"/>
    </g>
    <g id="line2d_18">
     <path d="M 147.981723 118.65315 
L 150.380239 119.373535 
" style="fill: none; stroke: #808080; stroke-width: 0.8; stroke-linecap: round"/>
    </g>
    <g id="text_10">
     <!-- 10 -->
     <g style="fill: #808080" transform="translate(154.602338 139.128222) scale(0.1 -0.1)">
      <use xlink:href="#DejaVuSans-31"/>
      <use xlink:href="#DejaVuSans-30" x="63.623047"/>
     </g>
    </g>
   </g>
   <g id="xtick_9">
    <g id="line2d_19">
     <path d="M 88.783784 78.616216 
" clip-path="url(#p97fb9231af)" style="fill: none; stroke: #d3d3d3; stroke-width: 0.8; stroke-linecap: round"/>
    </g>
    <g id="line2d_20">
     <path d="M 157.846879 108.547208 
L 160.216128 109.243134 
" style="fill: none; stroke: #808080; stroke-width: 0.8; stroke-linecap: round"/>
    </g>
    <g id="text_11">
     <!-- 20 -->
     <g style="fill: #808080" transform="translate(164.25725 128.789146) scale(0.1 -0.1)">
      <use xlink:href="#DejaVuSans-32"/>
      <use xlink:href="#DejaVuSans-30" x="63.623047"/>
     </g>
    </g>
   </g>
  </g>
  <g id="axis3d_3">
   <g id="line2d_21">
    <path d="M 163.247803 104.046152 
L 166.583609 31.200681 
" style="fill: none; stroke: #ffffff; stroke-width: 0.8; stroke-linecap: round"/>
   </g>
   <g id="text_12">
    <!-- z -->
    <g style="fill: #262626" transform="translate(202.494937 65.789607) scale(0.1 -0.1)">
     <defs>
      <path id="DejaVuSans-7a" d="M 353 3500 
L 3084 3500 
L 3084 2975 
L 922 459 
L 3084 459 
L 3084 0 
L 275 0 
L 275 525 
L 2438 3041 
L 353 3041 
L 353 3500 
z
" transform="scale(0.015625)"/>
     </defs>
     <use xlink:href="#DejaVuSans-7a"/>
    </g>
   </g>
   <g id="Line3DCollection_3">
    <path d="M 163.472347 99.142702 
L 69.717842 72.127038 
L 11.27764 120.68476 
" style="fill: none; stroke: #d3d3d3; stroke-width: 0.8"/>
    <path d="M 164.370623 79.526644 
L 69.499509 53.14027 
L 10.309872 100.58844 
" style="fill: none; stroke: #d3d3d3; stroke-width: 0.8"/>
    <path d="M 165.290769 59.432999 
L 69.276118 33.713612 
L 9.317631 79.983915 
" style="fill: none; stroke: #d3d3d3; stroke-width: 0.8"/>
    <path d="M 166.233594 38.844111 
L 69.047491 13.831599 
L 8.299977 58.851661 
" style="fill: none; stroke: #d3d3d3; stroke-width: 0.8"/>
   </g>
   <g id="xtick_10">
    <g id="line2d_22">
     <path d="M 88.783784 78.616216 
" style="fill: none; stroke: #d3d3d3; stroke-width: 0.8; stroke-linecap: round"/>
    </g>
    <g id="line2d_23">
     <path d="M 162.685377 98.915934 
L 165.048163 99.596779 
" style="fill: none; stroke: #808080; stroke-width: 0.8; stroke-linecap: round"/>
    </g>
    <g id="text_13">
     <!-- 10 -->
     <g style="fill: #808080" transform="translate(175.384381 104.154512) scale(0.1 -0.1)">
      <use xlink:href="#DejaVuSans-31"/>
      <use xlink:href="#DejaVuSans-30" x="63.623047"/>
     </g>
    </g>
   </g>
   <g id="xtick_11">
    <g id="line2d_24">
     <path d="M 88.783784 78.616216 
" style="fill: none; stroke: #d3d3d3; stroke-width: 0.8; stroke-linecap: round"/>
    </g>
    <g id="line2d_25">
     <path d="M 163.573831 79.305034 
L 165.96613 79.9704 
" style="fill: none; stroke: #808080; stroke-width: 0.8; stroke-linecap: round"/>
    </g>
    <g id="text_14">
     <!-- 20 -->
     <g style="fill: #808080" transform="translate(176.497319 84.597406) scale(0.1 -0.1)">
      <use xlink:href="#DejaVuSans-32"/>
      <use xlink:href="#DejaVuSans-30" x="63.623047"/>
     </g>
    </g>
   </g>
   <g id="xtick_12">
    <g id="line2d_26">
     <path d="M 88.783784 78.616216 
" style="fill: none; stroke: #d3d3d3; stroke-width: 0.8; stroke-linecap: round"/>
    </g>
    <g id="line2d_27">
     <path d="M 164.483908 59.216866 
L 166.906464 59.865794 
" style="fill: none; stroke: #808080; stroke-width: 0.8; stroke-linecap: round"/>
    </g>
    <g id="text_15">
     <!-- 30 -->
     <g style="fill: #808080" transform="translate(177.637228 64.566357) scale(0.1 -0.1)">
      <defs>
       <path id="DejaVuSans-33" d="M 2597 2516 
Q 3050 2419 3304 2112 
Q 3559 1806 3559 1356 
Q 3559 666 3084 287 
Q 2609 -91 1734 -91 
Q 1441 -91 1130 -33 
Q 819 25 488 141 
L 488 750 
Q 750 597 1062 519 
Q 1375 441 1716 441 
Q 2309 441 2620 675 
Q 2931 909 2931 1356 
Q 2931 1769 2642 2001 
Q 2353 2234 1838 2234 
L 1294 2234 
L 1294 2753 
L 1863 2753 
Q 2328 2753 2575 2939 
Q 2822 3125 2822 3475 
Q 2822 3834 2567 4026 
Q 2313 4219 1838 4219 
Q 1578 4219 1281 4162 
Q 984 4106 628 3988 
L 628 4550 
Q 988 4650 1302 4700 
Q 1616 4750 1894 4750 
Q 2613 4750 3031 4423 
Q 3450 4097 3450 3541 
Q 3450 3153 3228 2886 
Q 3006 2619 2597 2516 
z
" transform="scale(0.015625)"/>
      </defs>
      <use xlink:href="#DejaVuSans-33"/>
      <use xlink:href="#DejaVuSans-30" x="63.623047"/>
     </g>
    </g>
   </g>
   <g id="xtick_13">
    <g id="line2d_28">
     <path d="M 88.783784 78.616216 
" style="fill: none; stroke: #d3d3d3; stroke-width: 0.8; stroke-linecap: round"/>
    </g>
    <g id="line2d_29">
     <path d="M 165.416405 38.633793 
L 167.869994 39.265266 
" style="fill: none; stroke: #808080; stroke-width: 0.8; stroke-linecap: round"/>
    </g>
    <g id="text_16">
     <!-- 40 -->
     <g style="fill: #808080" transform="translate(178.8051 44.043926) scale(0.1 -0.1)">
      <defs>
       <path id="DejaVuSans-34" d="M 2419 4116 
L 825 1625 
L 2419 1625 
L 2419 4116 
z
M 2253 4666 
L 3047 4666 
L 3047 1625 
L 3713 1625 
L 3713 1100 
L 3047 1100 
L 3047 0 
L 2419 0 
L 2419 1100 
L 313 1100 
L 313 1709 
L 2253 4666 
z
" transform="scale(0.015625)"/>
      </defs>
      <use xlink:href="#DejaVuSans-34"/>
      <use xlink:href="#DejaVuSans-30" x="63.623047"/>
     </g>
    </g>
   </g>
  </g>
  <g id="axes_1">
   <g id="line2d_30">
    <path d="M 119.386883 105.100522 
L 122.643619 103.181579 
L 126.048488 100.901341 
L 129.55738 98.217626 
L 133.111287 95.096695 
L 136.637064 91.520502 
L 140.050303 87.49548 
L 143.260175 83.062199 
L 146.175175 78.304765 
L 148.707697 73.358252 
L 150.775026 68.411629 
L 152.295582 63.702391 
L 153.182507 59.498258 
L 153.340808 56.062624 
L 152.675933 53.606579 
L 151.117112 52.240584 
L 148.648574 51.946253 
L 145.33302 52.583627 
L 141.313353 53.931571 
L 136.790488 55.742015 
L 117.797492 63.749993 
L 109.656093 66.825588 
L 102.897212 69.025768 
L 97.405162 70.45378 
L 92.960307 71.26002 
L 89.346746 71.586187 
L 86.38867 71.549215 
L 83.954371 71.24088 
L 81.949184 70.732258 
L 80.306354 70.07879 
L 78.978882 69.324562 
L 77.933065 68.505504 
L 77.143592 67.651559 
L 76.589939 66.78802 
L 76.253794 65.93626 
L 76.11731 65.114029 
L 76.162043 64.335555 
L 76.368453 63.611575 
L 76.935708 62.642964 
L 77.74701 61.824499 
L 78.728951 61.154917 
L 80.184595 60.474923 
L 82.044281 59.912717 
L 84.07409 59.556514 
L 86.140318 59.440015 
L 87.396997 59.564292 
L 87.985444 59.804335 
L 88.133949 60.076956 
L 88.016499 60.392624 
L 87.531858 61.282238 
L 87.737337 62.514565 
L 88.220982 65.022934 
L 88.776822 66.784395 
L 89.404214 68.070072 
L 90.120296 69.048748 
L 90.941484 69.797642 
L 91.869146 70.34179 
L 92.897027 70.689848 
L 94.034072 70.842448 
L 95.232813 70.783048 
L 96.382523 70.514172 
L 97.268487 70.097991 
L 97.599821 69.745359 
L 97.529007 69.570336 
L 97.197837 69.494078 
L 96.49698 69.584459 
L 96.006127 69.829747 
L 96.04836 69.904763 
L 96.089438 69.916149 
L 96.440001 69.866133 
L 96.500956 69.808549 
L 96.351096 69.828303 
L 96.386169 69.823721 
" clip-path="url(#p97fb9231af)" style="fill: none; stroke: #1f77b4; stroke-width: 1.5; stroke-linecap: round"/>
   </g>
   <g id="line2d_31">
    <path d="M 119.386883 105.100522 
L 121.323469 101.936017 
L 125.907507 95.198314 
L 131.119761 87.666331 
L 133.810664 83.552427 
L 136.454742 79.216095 
L 138.958239 74.69552 
L 141.215421 70.058683 
L 143.111931 65.405475 
L 144.530754 60.866541 
L 145.36085 56.597522 
L 145.507912 52.767818 
L 144.90595 49.544114 
L 143.527701 47.070458 
L 141.3915 45.448308 
L 138.562558 44.720984 
L 135.147662 44.866563 
L 131.283939 45.801412 
L 127.123862 47.393654 
L 122.819593 49.483148 
L 118.509587 51.903124 
L 114.309414 54.498895 
L 106.564309 59.730155 
L 99.979382 64.512303 
L 94.628173 68.613573 
L 90.401656 72.067611 
L 87.115319 75.014873 
L 84.570899 77.606761 
L 82.585247 79.964742 
L 81.000651 82.17153 
L 79.095863 85.298677 
L 75.261971 91.952512 
L 74.027912 93.664271 
L 72.639366 95.26401 
L 71.05279 96.727704 
L 69.227048 98.023169 
L 67.123768 99.106729 
L 64.709415 99.918995 
L 63.377446 100.199354 
L 61.959672 100.380056 
L 60.455727 100.44715 
L 58.866976 100.38492 
L 57.196972 100.175891 
L 55.451989 99.800953 
L 53.641611 99.239643 
L 51.779352 98.47064 
L 49.88328 97.472529 
L 47.976573 96.224902 
L 46.087942 94.709816 
L 44.251796 92.91365 
L 42.508045 90.829299 
L 40.901388 88.45862 
L 39.479993 85.814902 
L 38.293473 82.925075 
L 37.390187 79.831247 
L 36.813993 76.591141 
L 36.60072 73.277027 
L 36.774766 69.9729 
L 37.346299 66.76993 
L 38.309538 63.760519 
L 39.642457 61.03165 
L 41.30806 58.658412 
L 43.257067 56.698652 
L 45.431658 55.189486 
L 47.769705 54.146089 
L 50.208931 53.56273 
L 52.690509 53.415666 
L 55.161779 53.667238 
L 57.577958 54.270477 
L 59.902912 55.173562 
L 62.109123 56.32369 
L 64.177095 57.670087 
L 66.094403 59.166105 
L 67.854576 60.770455 
L 69.455947 62.447744 
L 70.900576 64.168468 
L 72.193289 65.908666 
L 74.351301 69.375807 
L 75.996138 72.744873 
L 77.199413 75.959887 
L 78.028783 78.996086 
L 78.542968 81.847527 
L 78.789564 84.518819 
L 78.804532 87.01984 
L 78.612578 89.362451 
L 78.227933 91.558408 
L 77.655222 93.617944 
L 76.890258 95.548659 
L 75.920694 97.354408 
L 74.726564 99.033969 
L 73.28079 100.57922 
L 71.549899 101.972577 
L 69.495253 103.183391 
L 67.07539 104.163032 
L 65.715761 104.544502 
L 64.250281 104.838484 
L 62.675384 105.03078 
L 60.988774 105.104681 
L 59.189943 105.040755 
L 57.280811 104.816699 
L 55.266492 104.407327 
L 53.156177 103.784745 
L 50.964128 102.918815 
L 48.710731 101.778018 
L 46.423537 100.33082 
L 44.138169 98.547678 
L 41.898924 96.403739 
L 39.758848 93.882264 
L 37.779029 90.978638 
L 36.026845 87.704671 
L 34.572992 84.092676 
L 33.487223 80.198563 
L 32.833012 76.10308 
L 32.661612 71.910354 
L 33.006294 67.743177 
L 33.877733 63.735036 
L 35.261462 60.019614 
L 37.118056 56.719233 
L 39.386177 53.934082 
L 41.988023 51.734094 
L 44.836261 50.154736 
L 47.841268 49.197147 
L 50.917605 48.832137 
L 53.98897 49.006859 
L 56.9913 49.652734 
L 59.874076 50.693272 
L 62.60017 52.050795 
L 65.144682 53.651557 
L 67.493201 55.429112 
L 69.639857 57.326117 
L 71.585407 59.294885 
L 73.33552 61.297055 
L 74.899314 63.302721 
L 76.288168 65.28929 
L 78.592496 69.144087 
L 80.354483 72.78254 
L 81.676279 76.174897 
L 82.648738 79.319112 
L 83.348559 82.227381 
L 84.019622 86.188631 
L 84.369956 89.730031 
L 84.507593 93.910015 
L 84.383848 97.587975 
L 84.044986 100.866092 
L 83.476326 103.825386 
L 82.861188 105.876117 
L 82.032767 107.809285 
L 80.922187 109.645145 
L 79.979149 110.822186 
L 78.832412 111.96353 
L 77.437439 113.066237 
L 75.740389 114.120582 
L 73.677042 115.105887 
L 71.172394 115.98406 
L 68.141839 116.689837 
L 64.495635 117.116527 
L 62.414644 117.175813 
L 60.14957 117.096327 
L 57.694272 116.843503 
L 55.046554 116.375803 
L 52.209915 115.644117 
L 49.195743 114.59156 
L 46.025945 113.153941 
L 42.735951 111.261336 
L 39.37788 108.841231 
L 36.023493 105.823784 
L 32.766296 102.149668 
L 29.721885 97.780645 
L 27.025448 92.712417 
L 24.825326 86.98834 
L 23.271958 80.711351 
L 22.502478 74.050432 
L 22.622673 67.237631 
L 23.689561 60.55283 
L 25.698818 54.296373 
L 28.580896 48.753588 
L 32.207725 44.158706 
L 36.408865 40.66675 
L 40.99323 38.339868 
L 45.77124 37.15012 
L 50.572849 36.995922 
L 55.258923 37.726276 
L 59.725683 39.166349 
L 63.903596 41.139451 
L 67.752779 43.482815 
L 71.25689 46.056783 
L 74.416947 48.748382 
L 77.245893 51.470905 
L 79.764254 54.161097 
L 81.996883 56.775246 
L 85.712903 61.67394 
L 88.608777 66.061734 
L 90.882621 69.931475 
L 93.494685 74.843439 
L 96.174398 79.959815 
L 97.393933 81.984835 
L 98.633199 83.684115 
L 99.950883 85.066537 
L 101.396157 86.130287 
L 103.010533 86.862953 
L 104.828563 87.241699 
L 106.877167 87.233798 
L 109.173298 86.797962 
L 111.719634 85.887248 
L 114.498093 84.454577 
L 117.461242 82.462165 
L 120.522436 79.896058 
L 122.049706 78.404826 
L 123.546798 76.785995 
L 124.988607 75.053918 
L 126.347017 73.228476 
L 127.591452 71.335482 
L 128.689737 69.406748 
L 129.609291 67.479718 
L 130.318626 65.596543 
L 130.789101 63.802564 
L 130.996798 62.144203 
L 130.924374 60.666384 
L 130.562672 59.409686 
L 129.911879 58.407537 
L 128.982069 57.683794 
L 127.792984 57.251044 
L 126.373059 57.109891 
L 124.757767 57.249325 
L 122.987476 57.648139 
L 121.105055 58.277147 
L 119.153511 59.1019 
L 117.173885 60.08551 
L 113.27513 62.384694 
L 109.646746 64.916831 
L 106.439524 67.494442 
L 103.726032 70.004913 
L 101.520602 72.394553 
L 99.800702 74.646752 
L 98.524653 76.763147 
L 97.644312 78.750878 
L 97.113164 80.615517 
L 96.890973 82.357962 
L 96.94606 83.973588 
L 97.25609 85.452372 
L 97.807975 86.779225 
L 98.597269 87.934115 
L 99.627245 88.891819 
L 100.907707 89.621304 
L 102.453438 90.084819 
L 104.282069 90.236904 
L 106.411011 90.02366 
L 108.852962 89.382879 
L 111.609402 88.245985 
L 114.661516 86.543215 
L 117.958298 84.213953 
L 119.670245 82.802081 
L 121.402468 81.22423 
L 123.133286 79.484551 
L 124.836629 77.592474 
L 126.482019 75.563764 
L 128.034838 73.421467 
L 129.456979 71.196589 
L 130.707934 68.928333 
L 131.746376 66.663691 
L 132.532212 64.456243 
L 133.029014 62.364045 
L 133.206676 60.446613 
L 133.044015 58.761186 
L 132.531009 57.358597 
L 131.670348 56.279243 
L 130.477999 55.54974 
L 128.982642 55.180762 
L 127.223976 55.166474 
L 125.250077 55.485632 
L 123.114159 56.104196 
L 120.871138 56.978993 
L 118.574424 58.061866 
L 116.273253 59.303699 
L 111.82288 62.082654 
L 107.776734 65.010867 
L 104.276467 67.891374 
L 101.370494 70.62556 
L 99.044545 73.182706 
L 97.249318 75.568672 
L 95.920877 77.802952 
L 94.993813 79.905342 
L 94.408777 81.889935 
L 94.116224 83.763518 
L 94.077792 85.526071 
L 94.266364 87.171916 
L 94.665468 88.690751 
L 95.268415 90.068224 
L 96.077395 91.285951 
L 97.102604 92.32098 
L 98.361388 93.144761 
L 99.877257 93.721673 
L 101.67854 94.007235 
L 103.796309 93.94619 
L 106.260988 93.470887 
L 109.096895 92.500727 
L 112.31372 90.94408 
L 114.061002 89.915663 
L 115.893931 88.704932 
L 117.803218 87.301585 
L 119.775473 85.697484 
L 121.792484 83.887805 
L 123.830535 81.872418 
L 125.859844 79.657472 
L 127.844226 77.257091 
L 129.741109 74.695064 
L 131.50207 72.006287 
L 133.074013 69.237701 
L 134.401129 66.448354 
L 135.42767 63.70827 
L 136.101474 61.095821 
L 136.378009 58.693515 
L 136.224548 56.582344 
L 135.623926 54.835219 
L 134.577279 53.510314 
L 133.105223 52.645358 
L 131.247116 52.253926 
L 129.058398 52.324445 
L 126.606331 52.822178 
L 123.96476 53.693797 
L 121.208687 54.873689 
L 118.409369 56.29087 
L 115.630497 57.875394 
L 110.337522 61.300737 
L 105.625767 64.761545 
L 101.630232 68.041153 
L 98.367968 71.060354 
L 95.785531 73.822402 
L 93.796223 76.366341 
L 92.30437 78.737755 
L 91.219083 80.974738 
L 90.460937 83.103629 
L 89.964381 85.139705 
L 89.677795 87.089721 
L 89.559891 89.854449 
L 89.744873 92.41649 
L 90.19364 94.756606 
L 90.904088 96.849941 
L 91.536477 98.09294 
L 92.313808 99.199812 
L 93.258083 100.154579 
L 94.397451 100.936206 
L 95.766532 101.516704 
L 97.406653 101.858705 
L 99.365719 101.912433 
L 101.697271 101.612076 
L 104.457963 100.871788 
L 107.702291 99.582046 
L 111.472801 97.608057 
L 113.561484 96.316181 
L 115.783421 94.793582 
L 118.131602 93.019834 
L 120.593369 90.97608 
L 123.149015 88.646766 
L 125.770308 86.021923 
L 128.419056 83.100014 
L 131.045892 79.891304 
L 133.589561 76.42155 
L 135.977036 72.735639 
L 138.124869 68.90059 
L 139.942155 65.007077 
L 141.33537 61.16854 
L 142.215109 57.516929 
L 142.50433 54.194547 
L 142.147207 51.34211 
L 141.117237 49.08422 
L 139.422971 47.514497 
L 137.10988 46.683309 
L 134.257553 46.590992 
L 130.97238 47.188374 
L 127.376992 48.384654 
L 123.598453 50.06081 
L 119.757326 52.085458 
L 115.959256 54.329894 
L 112.289901 56.679776 
L 105.571919 61.348656 
L 99.879506 65.631187 
L 95.250747 69.377555 
L 91.58884 72.622241 
L 88.740028 75.472493 
L 86.539591 78.041725 
L 84.834428 80.420927 
L 83.491823 82.672454 
L 81.920985 85.887384 
L 78.063554 94.650182 
L 77.044336 96.403825 
L 75.87558 98.071257 
L 74.517218 99.639893 
L 72.92742 101.091549 
L 71.062007 102.399349 
L 68.874901 103.52348 
L 66.320151 104.405561 
L 64.891618 104.730797 
L 63.356419 104.961573 
L 61.711458 105.08205 
L 59.955241 105.073779 
L 58.088461 104.915524 
L 56.114702 104.583177 
L 54.041271 104.049848 
L 51.880145 103.286195 
L 49.648999 102.261109 
L 47.372261 100.942855 
L 45.082088 99.300803 
L 42.819107 97.307832 
L 40.632737 94.943454 
L 38.580827 92.197604 
L 36.728361 89.074865 
L 35.145005 85.5987 
L 33.901367 81.815039 
L 33.064072 77.79438 
L 32.689998 73.631526 
L 32.820345 69.442239 
L 33.475444 65.356572 
L 34.651269 61.509289 
L 36.318459 58.028556 
L 38.424203 55.024635 
L 40.896786 52.5805 
L 43.652032 50.745928 
L 46.600543 49.535866 
L 49.654586 48.932949 
L 52.733731 48.893224 
L 55.768713 49.35372 
L 58.703446 50.240436 
L 61.495426 51.475593 
L 64.114927 52.983435 
L 66.543453 54.694305 
L 68.771846 56.547061 
L 70.798339 58.490095 
L 72.62675 60.481326 
L 74.264912 62.487517 
L 75.723377 64.483225 
L 78.151032 68.373159 
L 80.014758 72.058557 
L 81.418155 75.501539 
L 82.454632 78.695613 
L 83.203785 81.650778 
L 83.927418 85.675023 
L 84.311805 89.270381 
L 84.46486 92.502839 
L 84.417275 96.346451 
L 84.142982 99.75762 
L 83.645553 102.824099 
L 83.097752 104.941019 
L 82.356585 106.929894 
L 81.361968 108.812753 
L 80.517605 110.017705 
L 79.491332 111.185968 
L 78.243451 112.317191 
L 76.72571 113.405871 
L 74.880093 114.438144 
L 72.637969 115.386749 
L 69.920246 116.203316 
L 66.63971 116.80686 
L 64.760418 116.990594 
L 62.70772 117.067353 
L 60.472699 117.009625 
L 58.048861 116.783863 
L 55.433442 116.349695 
L 52.629089 115.659293 
L 49.645982 114.65711 
L 46.504385 113.280239 
L 43.237584 111.459807 
L 39.895022 109.123859 
L 36.545289 106.202263 
L 33.278358 102.634131 
L 30.206224 98.377939 
L 27.460879 93.424015 
L 25.188516 87.80814 
L 23.539217 81.623806 
L 22.65222 75.02962 
L 22.638248 68.247884 
L 23.5619 61.551303 
L 25.42824 55.237441 
L 28.177516 49.594329 
L 31.690255 44.864266 
L 35.802069 41.214302 
L 40.324678 38.720321 
L 45.068118 37.367412 
L 49.859455 37.064439 
L 54.555148 37.667295 
L 59.046465 39.004418 
L 63.259118 40.899345 
L 67.149121 43.187398 
L 70.696865 45.725774 
L 73.900936 48.397886 
L 76.772577 51.113466 
L 79.331199 53.806069 
L 81.600982 56.429314 
L 85.380789 61.358232 
L 88.326199 65.783517 
L 90.63634 69.692159 
L 93.281567 74.660161 
L 96.584577 80.916145 
L 97.799359 82.809484 
L 99.059571 84.383402 
L 100.419632 85.642317 
L 101.925456 86.580012 
L 103.615873 87.17971 
L 105.522822 87.41431 
L 107.670059 87.24711 
L 110.070079 86.633591 
L 112.71895 85.525137 
L 115.588899 83.875871 
L 118.618959 81.653958 
L 121.704887 78.858374 
L 123.22231 77.258868 
L 124.691164 75.540721 
L 126.083784 73.722466 
L 127.369829 71.828579 
L 128.517064 69.889653 
L 129.492485 67.942151 
L 130.263762 66.027627 
L 130.800968 64.191342 
L 131.07847 62.480268 
L 131.076837 60.940562 
L 130.784564 59.614715 
L 130.19939 58.538646 
L 129.32902 57.739102 
L 128.191102 57.231715 
L 126.81242 57.020012 
L 125.227363 57.095521 
L 123.475837 57.438973 
L 121.600871 58.0224 
L 119.646174 58.81182 
L 117.653913 59.770122 
L 113.707239 62.045261 
L 110.011081 64.580098 
L 106.727391 67.176178 
L 103.936982 69.712095 
L 101.659234 72.128644 
L 99.87402 74.406611 
L 98.540213 76.547007 
L 97.609073 78.557426 
L 97.032882 80.444349 
L 96.769937 82.209684 
L 96.787043 83.849765 
L 97.060423 85.355459 
L 97.575687 86.71253 
L 98.327265 87.901824 
L 99.317524 88.899082 
L 100.555634 89.674361 
L 102.056107 90.191133 
L 103.836812 90.405254 
L 105.916131 90.264091 
L 108.308779 89.70638 
L 111.019706 88.663668 
L 114.035477 87.064707 
L 117.312758 84.844653 
L 119.024326 83.487005 
L 120.764307 81.961205 
L 122.512533 80.269519 
L 124.244447 78.419126 
L 125.930976 76.423215 
L 127.538675 74.302019 
L 129.030219 72.083645 
L 130.365322 69.804523 
L 131.502147 67.509287 
L 132.399212 65.249891 
L 133.017737 63.08383 
L 133.324296 61.071415 
L 133.293528 59.272203 
L 132.910624 57.740878 
L 132.173213 56.523018 
L 131.092365 55.651328 
L 129.692461 55.142908 
L 128.009888 54.998022 
L 126.090667 55.20059 
L 123.98732 55.720327 
L 121.75538 56.51617 
L 119.44998 57.540416 
L 117.122892 58.74296 
L 112.581235 61.49236 
L 108.41186 64.436946 
L 104.777339 67.357385 
L 101.740396 70.138817 
L 99.294713 72.741482 
L 97.394151 75.167804 
L 95.974852 77.437206 
L 94.969747 79.570978 
L 94.317 81.58515 
L 93.964295 83.488348 
L 93.870526 85.282118 
L 94.005996 86.962102 
L 94.351868 88.519186 
L 94.899308 89.940215 
L 95.648568 91.208152 
L 96.608118 92.30167 
L 97.793819 93.194235 
L 99.228039 93.852717 
L 100.938508 94.235639 
L 102.956576 94.29121 
L 105.314365 93.955456 
L 108.040117 93.151094 
L 111.15077 91.788317 
L 112.849964 90.867054 
L 114.64071 89.769452 
L 116.516159 88.483956 
L 118.465788 87.000518 
L 120.474666 85.311605 
L 122.522716 83.413451 
L 124.584041 81.307545 
L 126.626392 79.002305 
L 128.610912 76.514854 
L 130.492291 73.872712 
L 132.219497 71.115169 
L 133.737216 68.294021 
L 134.988133 65.473302 
L 135.916034 62.727665 
L 136.469652 60.139155 
L 136.606925 57.79236 
L 136.29923 55.768184 
L 135.534993 54.136929 
L 134.322032 52.951605 
L 132.688134 52.242618 
L 130.679612 52.014815 
L 128.357925 52.247533 
L 125.794843 52.897652 
L 123.06688 53.905092 
L 120.249804 55.199707 
L 117.413937 56.708367 
L 114.620706 58.361177 
L 109.352608 61.861794 
L 104.713457 65.33805 
L 100.812948 68.600356 
L 97.649867 71.589996 
L 95.159616 74.322211 
L 93.249771 76.841308 
L 91.82248 79.19407 
L 90.786723 81.417876 
L 90.063981 83.537776 
L 89.590002 85.567868 
L 89.314481 87.514104 
L 89.193961 90.276584 
L 89.355343 92.840873 
L 89.760216 95.18952 
L 90.405336 97.300756 
L 90.980901 98.563056 
L 91.689343 99.697162 
L 92.551068 100.689394 
L 93.592364 101.521668 
L 94.845814 102.169796 
L 96.350718 102.601284 
L 98.1533 102.772529 
L 100.306357 102.625339 
L 102.867743 102.082866 
L 105.896717 101.045337 
L 109.446632 99.386758 
L 111.428923 98.277927 
L 113.551767 96.955045 
L 115.812905 95.396361 
L 118.205567 93.580325 
L 120.71716 91.486877 
L 123.32779 89.09925 
L 126.008687 86.406358 
L 128.72066 83.405801 
L 131.412774 80.107444 
L 134.021538 76.537362 
L 136.470971 72.741767 
L 138.673976 68.790282 
L 140.53544 64.777657 
L 141.957359 60.822885 
L 142.846017 57.064704 
L 143.120811 53.652837 
L 142.723731 50.735136 
L 141.628023 48.441919 
L 139.844236 46.869986 
L 137.422053 46.069575 
L 134.447032 46.037392 
L 131.032497 46.717659 
L 127.308038 48.011113 
L 123.406821 49.789813 
L 119.454038 51.914332 
L 115.558234 54.249723 
L 108.261922 59.103347 
L 101.944224 63.697597 
L 96.734652 67.752321 
L 92.576762 71.24294 
L 89.325316 74.265701 
L 86.808269 76.945761 
L 84.859063 79.392128 
L 83.330357 81.683533 
L 82.09782 83.869643 
L 80.585722 87.006717 
L 77.871452 92.841367 
L 76.304275 95.512051 
L 75.080396 97.179879 
L 73.664907 98.740323 
L 72.015648 100.171835 
L 70.089291 101.443465 
L 67.842134 102.51053 
L 65.232679 103.309036 
L 63.780948 103.580669 
L 62.226904 103.748986 
L 60.568968 103.797511 
L 58.807459 103.707314 
L 56.9452 103.456944 
L 54.988226 103.022472 
L 52.946597 102.377754 
L 50.835288 101.494963 
L 48.675103 100.345497 
L 46.493553 98.901371 
L 44.325565 97.137156 
L 42.213872 95.032536 
L 40.208882 92.575442 
L 38.367821 89.765628 
L 36.752932 86.618381 
L 35.428599 83.167887 
L 34.457421 79.469588 
L 33.895414 75.600807 
L 33.786828 71.658964 
L 34.159252 67.757006 
L 35.019812 64.016144 
L 36.353221 60.556591 
L 38.122175 57.487582 
L 40.270161 54.898211 
L 42.726267 52.850602 
L 45.411206 51.376422 
L 48.243591 50.477068 
L 51.145563 50.127087 
L 54.04715 50.279898 
L 56.889059 50.874588 
L 59.623948 51.842692 
L 62.216424 53.114103 
L 64.642136 54.62165 
L 66.88633 56.304207 
L 68.942183 58.108447 
L 70.809122 59.98949 
L 72.491292 61.910761 
L 73.99622 63.843322 
L 75.33372 65.764945 
L 77.552008 69.513786 
L 79.241507 73.07517 
L 80.495543 76.414628 
L 81.397738 79.525513 
L 82.018765 82.416159 
L 82.415665 85.102154 
L 82.684079 88.787839 
L 82.646413 92.117024 
L 82.356991 95.146531 
L 81.832342 97.924824 
L 81.057522 100.491526 
L 80.381622 102.100525 
L 79.555716 103.635581 
L 78.553693 105.100321 
L 77.342789 106.494574 
L 75.882941 107.812653 
L 74.126208 109.040643 
L 72.016594 110.152259 
L 69.490799 111.102688 
L 66.480892 111.819752 
L 64.773314 112.057826 
L 62.920501 112.191812 
L 60.916404 112.199077 
L 58.757103 112.052519 
L 56.441793 111.720088 
L 53.974017 111.164466 
L 51.363174 110.343025 
L 48.626298 109.208234 
L 45.790047 107.708777 
L 42.892799 105.791628 
L 39.986593 103.405427 
L 37.138602 100.505374 
L 34.431598 97.059794 
L 31.962816 93.058146 
L 29.84057 88.519824 
L 28.178129 83.502464 
L 27.084779 78.107841 
L 26.654682 72.483105 
L 26.954948 66.815338 
L 28.015125 61.318501 
L 29.820522 56.21365 
L 32.311307 51.705484 
L 35.388059 47.959743 
L 38.922806 45.086241 
L 42.773212 43.130877 
L 46.796968 42.077534 
L 50.863833 41.858267 
L 54.863755 42.368484 
L 58.710771 43.483478 
L 62.343286 45.073292 
L 65.721835 47.014138 
L 68.825492 49.195811 
L 71.647858 51.525432 
L 74.193261 53.928333 
L 76.473482 56.347018 
L 78.505138 58.739052 
L 80.307675 61.074502 
L 83.309009 65.503283 
L 85.644111 69.553235 
L 87.467806 73.211519 
L 89.534469 78.008543 
L 92.947315 86.495672 
L 93.876616 88.329622 
L 94.880809 89.922867 
L 96.00253 91.275007 
L 97.282207 92.377103 
L 98.759603 93.21075 
L 100.474631 93.746867 
L 102.467215 93.944252 
L 104.775816 93.74815 
L 107.434041 93.089354 
L 110.464514 91.884857 
L 112.121079 91.049126 
L 113.869027 90.041826 
L 115.702953 88.851451 
L 117.614069 87.467633 
L 119.58951 85.882047 
L 121.611606 84.089549 
L 123.657195 82.089545 
L 125.697036 79.887577 
L 127.695448 77.497032 
L 129.610282 74.94086 
L 131.393399 72.253068 
L 132.991794 69.479734 
L 134.34949 66.679181 
L 135.410261 63.920961 
L 136.121117 61.283364 
L 136.436362 58.84931 
L 136.321804 56.700771 
L 135.758625 54.912189 
L 134.746254 53.54372 
L 133.303721 52.635347 
L 131.469093 52.202911 
L 129.296944 52.236855 
L 126.854171 52.703975 
L 124.214765 53.55185 
L 121.454314 54.715111 
L 118.644989 56.122418 
L 115.85159 57.703011 
L 110.520615 61.133856 
L 105.765734 64.610311 
L 101.727858 67.908404 
L 98.427308 70.94471 
L 95.811888 73.720874 
L 93.794891 76.275922 
L 92.279979 78.656129 
L 91.175323 80.900449 
L 90.400491 83.035985 
L 89.888967 85.078606 
L 89.588244 87.0355 
L 89.448953 89.811837 
L 89.61016 92.387787 
L 90.030448 94.74501 
L 90.705315 96.859903 
L 91.308729 98.120648 
L 92.051846 99.248868 
L 92.95566 100.229646 
L 94.047216 101.043349 
L 95.359952 101.663834 
L 96.934016 102.056137 
L 98.816287 102.173559 
L 101.059709 101.954133 
L 103.721261 101.316595 
L 106.857485 100.156465 
L 110.51592 98.343618 
L 112.549868 97.145076 
L 114.720203 95.72429 
L 117.022227 94.060244 
L 119.44616 92.132816 
L 121.97579 89.924288 
L 124.586991 87.421392 
L 127.246224 84.617925 
L 129.909154 81.517945 
L 132.519633 78.139406 
L 135.009355 74.517966 
L 137.298568 70.710454 
L 139.298259 66.797281 
L 140.91414 62.882842 
L 142.052623 59.092917 
L 142.628573 55.568273 
L 142.574201 52.454205 
L 141.84789 49.886717 
L 140.44138 47.977142 
L 138.383663 46.797979 
L 135.740355 46.373059 
L 132.608235 46.674547 
L 129.105747 47.6277 
L 125.36124 49.12237 
L 121.50115 51.028532 
L 117.640118 53.212419 
L 113.874258 55.550226 
L 106.903532 60.293818 
L 100.933628 64.711496 
L 96.04483 68.594436 
L 92.159651 71.949902 
L 89.129213 74.879434 
L 86.786314 77.501081 
L 84.97237 79.913506 
L 83.548469 82.186195 
L 81.89467 85.421466 
L 77.444681 95.121359 
L 76.351317 96.842428 
L 75.091305 98.470526 
L 73.62366 99.99015 
L 71.905592 101.378841 
L 69.89237 102.60359 
L 67.538477 103.616017 
L 64.800725 104.346155 
L 63.276472 104.575783 
L 61.644406 104.695015 
L 59.90325 104.685661 
L 58.053905 104.52683 
L 56.100145 104.194866 
L 54.049418 103.663449 
L 51.913771 102.903943 
L 49.710837 101.88608 
L 47.464852 100.579098 
L 45.207573 98.95344 
L 42.97898 96.983103 
L 40.827548 94.648675 
L 38.809864 91.940991 
L 36.989337 88.865193 
L 35.433799 85.444775 
L 34.21188 81.724985 
L 33.388256 77.774789 
L 33.018105 73.686561 
L 33.14142 69.572838 
L 33.778031 65.559906 
L 34.92426 61.778621 
L 36.551948 58.353578 
L 38.61023 55.392268 
L 41.029844 52.976038 
L 43.729266 51.154331 
L 46.621653 49.942993 
L 49.621482 49.32654 
L 52.650024 49.263532 
L 55.63916 49.69377 
L 58.533415 50.54595 
L 61.290444 51.744682 
L 63.880335 53.216158 
L 66.284175 54.892182 
L 68.492248 56.712608 
L 70.502166 58.626421 
L 72.317116 60.59182 
L 73.944327 62.575611 
L 75.393789 64.552229 
L 77.807324 68.412988 
L 79.659391 72.079333 
L 81.051012 75.511165 
L 82.073627 78.700137 
L 82.805283 81.654837 
L 83.309781 84.391917 
L 83.747309 88.132756 
L 83.905045 91.494967 
L 83.856223 94.538831 
L 83.637889 97.315884 
L 83.259376 99.869338 
L 82.707376 102.2354 
L 81.947818 104.444422 
L 80.924903 106.521115 
L 80.057814 107.841087 
L 79.006867 109.112708 
L 77.733559 110.334869 
L 76.191232 111.500829 
L 74.324129 112.594974 
L 72.066876 113.587805 
L 69.345099 114.428377 
L 66.078338 115.033247 
L 64.21545 115.208631 
L 62.187402 115.271048 
L 59.986965 115.193328 
L 57.609543 114.942674 
L 55.054438 114.480038 
L 52.326464 113.75969 
L 49.437929 112.729187 
L 46.410977 111.32998 
L 43.280215 109.499028 
L 40.095411 107.17182 
L 36.923943 104.287225 
L 33.852405 100.794541 
L 30.986647 96.662769 
L 28.449312 91.891696 
L 26.37402 86.523486 
L 24.895702 80.652602 
L 24.137335 74.431018 
L 24.194546 68.065519 
L 25.120713 61.804867 
L 26.915999 55.916861 
L 29.523478 50.658486 
L 32.834016 46.245066 
L 36.699211 42.825381 
L 40.949476 40.468298 
L 45.413125 39.163024 
L 49.932628 38.831299 
L 54.375615 39.34705 
L 58.640065 40.558244 
L 62.654505 42.306572 
L 66.374837 44.442374 
L 69.779438 46.834042 
L 72.863851 49.372464 
L 75.635887 51.971684 
L 78.111554 54.567141 
L 80.311883 57.112634 
L 82.260608 59.576852 
L 85.502391 64.190985 
L 88.030726 68.34035 
L 90.021749 72.027084 
L 92.973814 78.147259 
L 95.289708 82.841458 
L 96.415075 84.721846 
L 97.601349 86.30946 
L 98.899268 87.605934 
L 100.353537 88.60279 
L 102.00427 89.281017 
L 103.887334 89.610642 
L 106.033313 89.550551 
L 108.464712 89.04906 
L 111.190917 88.046091 
L 114.200433 86.478271 
L 117.450207 84.288739 
L 119.139911 82.948732 
L 120.852559 81.443609 
L 122.568022 79.776721 
L 124.261913 77.956285 
L 125.905521 75.996416 
L 127.466005 73.918084 
L 128.906944 71.749834 
L 130.189286 69.528131 
L 131.272765 67.297138 
L 132.117788 65.107747 
L 132.687702 63.015762 
L 132.951329 61.079211 
L 132.885519 59.35489 
L 132.477435 57.894453 
L 131.726249 56.740451 
L 130.643976 55.922881 
L 129.255229 55.456754 
L 127.595883 55.341086 
L 125.710763 55.559511 
L 123.650649 56.082397 
L 121.468976 56.87013 
L 119.21863 57.877014 
L 116.949195 59.055243 
L 112.523058 61.744235 
L 108.460304 64.625121 
L 104.917536 67.487959 
L 101.956172 70.221377 
L 99.571494 72.785177 
L 97.720335 75.17949 
L 96.342198 77.421016 
L 95.373221 79.528596 
L 94.754414 81.516303 
L 94.435902 83.39124 
L 94.378647 85.153714 
L 94.554722 86.798238 
L 94.946832 88.314524 
L 95.547505 89.688067 
L 96.358198 90.900189 
L 97.388404 91.92755 
L 98.654744 92.741144 
L 100.1799 93.304886 
L 101.991175 93.57389 
L 104.118272 93.492671 
L 106.589743 92.993708 
L 109.427335 91.997192 
L 112.637303 90.413369 
L 114.376615 89.372077 
L 116.197716 88.149757 
L 118.090646 86.736911 
L 120.041323 85.126383 
L 122.030865 83.314506 
L 124.034957 81.302468 
L 126.023357 79.097856 
L 127.959638 76.716279 
L 129.801311 74.182942 
L 131.500445 71.533942 
L 133.004956 68.817002 
L 134.260623 66.091331 
L 135.213885 63.42628 
L 135.815321 60.898564 
L 136.023552 58.587984 
L 135.809193 56.571871 
L 135.158304 54.918769 
L 134.074795 53.682197 
L 132.581281 52.895463 
L 130.718109 52.568487 
L 128.540587 52.687248 
L 126.114774 53.216014 
L 123.512438 54.101931 
L 120.805909 55.281122 
L 118.063514 56.685224 
L 115.346055 58.247368 
L 110.179364 61.612247 
L 105.586462 65.008053 
L 101.694493 68.230122 
L 98.51853 71.20342 
L 96.006642 73.930491 
L 94.075258 76.447564 
L 92.632285 78.797058 
L 91.590306 81.014358 
L 90.873033 83.123742 
L 90.417694 85.138995 
L 90.175139 87.065754 
L 90.108848 88.904042 
L 90.287201 91.48716 
L 90.761687 93.841911 
L 91.238419 95.271128 
L 91.850759 96.575864 
L 92.612154 97.743239 
L 93.542288 98.756955 
L 94.66714 99.595913 
L 96.01914 100.232387 
L 97.637241 100.629729 
L 99.566645 100.739503 
L 101.857739 100.498121 
L 104.563521 99.823194 
L 107.734414 98.610338 
L 111.408841 96.732037 
L 113.439888 95.497984 
L 115.597436 94.041703 
L 117.874472 92.344268 
L 120.258658 90.388329 
L 122.731053 88.15972 
L 125.264769 85.649559 
L 127.823672 82.85685 
L 130.361298 79.791543 
L 132.820222 76.477864 
L 135.132185 72.957593 
L 137.219324 69.292765 
L 138.996836 65.56706 
L 140.377329 61.885061 
L 141.276855 58.368565 
L 141.622314 55.149429 
L 141.35947 52.359053 
L 140.460395 50.115456 
L 138.928924 48.509833 
L 136.802814 47.59514 
L 134.15177 47.379243 
L 131.071397 47.824389 
L 127.67404 48.853265 
L 124.078191 50.360309 
L 120.398331 52.225712 
L 116.736771 54.329244 
L 113.178356 56.561509 
L 106.611632 61.069145 
L 100.996356 65.27534 
L 96.397608 69.002365 
L 92.741422 72.258522 
L 89.890368 75.133038 
L 87.690416 77.729285 
L 85.995193 80.133785 
L 84.676234 82.40765 
L 83.625627 84.588808 
L 82.363964 87.728458 
L 79.813637 94.512783 
L 78.525924 97.17323 
L 77.509838 98.853929 
L 76.324918 100.452133 
L 74.931784 101.956795 
L 73.287443 103.350639 
L 71.344893 104.606683 
L 69.053734 105.683424 
L 66.362458 106.518336 
L 64.851537 106.817798 
L 63.223493 107.019519 
L 61.474532 107.105802 
L 59.602618 107.05587 
L 57.608161 106.845623 
L 55.494852 106.447504 
L 53.270663 105.830572 
L 50.948993 104.960863 
L 48.549924 103.802192 
L 46.101516 102.317528 
L 43.641004 100.471116 
L 41.215706 98.231459 
L 38.883383 95.575229 
L 36.711707 92.492017 
L 34.776523 88.9896 
L 33.158601 85.099141 
L 31.938755 80.879405 
L 31.191511 76.418858 
L 30.977878 71.834501 
L 31.33818 67.266614 
L 32.286212 62.869284 
L 33.805932 58.797601 
L 35.851609 55.193347 
L 38.351595 52.171656 
L 41.215144 49.811055 
L 44.341023 48.148575 
L 47.62639 47.180403 
L 50.974535 46.867336 
L 54.300579 47.143433 
L 57.534785 47.925924 
L 60.623656 49.124699 
L 63.52932 50.650185 
L 66.22779 52.419065 
L 68.706681 54.357795 
L 70.962788 56.404237 
L 72.999818 58.507854 
L 74.826427 60.628962 
L 76.454595 62.737444 
L 79.172807 66.834859 
L 81.275486 70.69419 
L 82.882327 74.274658 
L 84.101561 77.57167 
L 85.025977 80.5987 
L 86.023728 84.679891 
L 86.921135 89.383044 
L 88.288401 96.803126 
L 88.889354 99.024224 
L 89.634138 100.966825 
L 90.242699 102.106062 
L 90.966952 103.114766 
L 91.833345 103.983083 
L 92.873105 104.695691 
L 94.123254 105.230245 
L 95.627557 105.5552 
L 97.437229 105.626892 
L 99.611083 105.385735 
L 102.21451 104.751535 
L 105.316277 103.618232 
L 108.981445 101.849143 
L 111.04149 100.674533 
L 113.257886 99.275244 
L 115.630116 97.626133 
L 118.152957 95.7017 
L 120.814978 93.477437 
L 123.596794 90.931774 
L 126.469161 88.048747 
L 129.391018 84.821466 
L 132.307722 81.25636 
L 135.149782 77.378027 
L 137.832571 73.234246 
L 140.257546 68.900409 
L 142.315566 64.482256 
L 143.892748 60.115514 
L 144.879008 55.961046 
L 145.178835 52.194505 
L 144.723121 48.990515 
L 143.480107 46.502979 
L 141.463055 44.844743 
L 138.732499 44.071067 
L 135.391853 44.171143 
L 131.576804 45.070253 
L 127.440525 46.642266 
L 123.137756 48.729324 
L 118.810842 51.163873 
L 114.579848 53.788257 
L 106.748702 59.102227 
L 100.067894 63.975052 
L 94.627574 68.154616 
L 90.325569 71.66714 
L 86.978483 74.653835 
L 84.386511 77.270191 
L 82.364032 79.642186 
L 80.750771 81.856216 
L 78.813314 84.986804 
L 74.923203 91.629504 
L 73.673917 93.332751 
L 72.269903 94.920336 
L 70.667903 96.367145 
L 68.827542 97.639708 
L 66.711814 98.692921 
L 64.289317 99.465944 
L 62.955819 99.72295 
L 61.538845 99.877665 
L 60.038599 99.916109 
L 58.457093 99.822629 
L 56.798601 99.579946 
L 55.070183 99.169319 
L 53.282244 98.570877 
L 51.44913 97.764166 
L 49.589692 96.728964 
L 47.727782 95.446425 
L 45.892579 93.90056 
L 44.118651 92.080086 
L 42.445639 89.980562 
L 40.917432 87.606708 
L 39.580742 84.97468 
L 38.483032 82.114002 
L 37.669828 79.068773 
L 37.181579 75.897737 
L 37.050338 72.6729 
L 37.296657 69.476495 
L 37.927155 66.396388 
L 38.933163 63.520311 
L 40.290741 60.929603 
L 41.96214 58.693294 
L 43.898535 56.86338 
L 46.043645 55.471915 
L 48.337732 54.530238 
L 50.721437 54.030247 
L 53.13906 53.947303 
L 55.540987 54.244168 
L 57.885187 54.875318 
L 60.137843 55.791071 
L 62.273269 56.941122 
L 64.273318 58.277284 
L 66.12647 59.755369 
L 67.82678 61.336295 
L 69.372807 62.986546 
L 70.766603 64.678151 
L 72.012811 66.388345 
L 74.089512 69.796171 
L 75.665897 73.11016 
L 76.809985 76.276097 
L 77.585895 79.269431 
L 78.049071 82.083611 
L 78.244155 84.722233 
L 78.204452 87.193957 
L 77.952252 89.509281 
L 77.499538 91.678421 
L 76.848796 93.709805 
L 75.993785 95.608808 
L 74.920203 97.376425 
L 73.606319 99.007647 
L 72.023705 100.489258 
L 70.138334 101.796803 
L 67.912502 102.890442 
L 65.30823 103.709511 
L 63.853616 103.989804 
L 62.293167 104.165846 
L 60.625311 104.221129 
L 58.850332 104.136574 
L 56.970993 103.890443 
L 54.993272 103.458375 
L 52.927207 102.813627 
L 50.787826 101.927603 
L 48.596113 100.770771 
L 46.379933 99.314063 
L 44.174803 97.530868 
L 42.024334 95.399665 
L 39.980142 92.907273 
L 38.101006 90.052587 
L 36.451039 86.850485 
L 35.096738 83.33539 
L 34.102897 79.563819 
L 33.527616 75.615114 
L 33.41686 71.58965 
L 33.799318 67.6041 
L 34.682398 63.783836 
L 36.050177 60.253217 
L 37.863834 57.125091 
L 40.06462 54.491199 
L 42.578948 52.415042 
L 45.324728 50.928312 
L 48.217942 50.031206 
L 51.178508 49.696142 
L 54.134765 49.873844 
L 57.026307 50.500521 
L 59.805213 51.504951 
L 62.435952 52.814618 
L 64.894374 54.360396 
L 67.166155 56.079699 
L 69.245037 57.918196 
L 71.131079 59.830402 
L 72.829066 61.779448 
L 74.347148 63.73634 
L 74.347148 63.73634 
" clip-path="url(#p97fb9231af)" style="fill: none; stroke: #ff7f0e; stroke-opacity: 0.5; stroke-width: 1.5; stroke-linecap: round"/>
   </g>
  </g>
 </g>
 <defs>
  <clipPath id="p97fb9231af">
   <rect x="-1.8" y="-7.2" width="176.4" height="176.4"/>
  </clipPath>
 </defs>
</svg>
